# Blender 5.0.0
# www.blender.org
mtllib prep_throw_arm0023.mtl
o Mball.001
v -0.818066 4.324727 0.436882
v -0.969376 4.677932 0.659492
v -0.601718 4.722541 0.663662
v -1.093452 5.017325 0.509825
v -0.603631 5.091790 0.508629
v -1.113379 5.095760 0.358450
v -0.598678 5.157321 0.475651
v -1.487860 4.865439 0.328592
v -1.465565 4.807313 0.461291
v -1.830235 4.624619 0.303513
v -1.810820 4.582427 0.408028
v -1.801012 4.470791 -0.086552
v -1.415878 4.728241 -0.056283
v -1.783952 4.434638 -0.113822
v -1.401416 4.698081 -0.078912
v -1.658845 4.047476 -0.143025
v -1.228762 4.324601 -0.134460
v -1.562282 3.840099 0.057655
v -1.137054 4.113116 0.045487
v -0.802030 4.349896 0.042334
v -0.882747 4.559494 -0.105632
v -0.551699 4.819600 -0.084686
v -0.588790 5.203402 0.076467
v -0.588670 5.211854 0.087668
v -0.888274 5.071501 0.006393
v -2.174117 3.840925 0.247777
v -2.259747 3.902929 0.131313
v -1.842919 3.984076 0.397835
v -1.533968 3.905592 0.422168
v -1.935957 4.074372 0.431535
v -1.659793 4.248931 0.572626
v -2.069600 4.307010 0.288506
v -1.942327 4.461277 0.294306
v -2.186139 4.142276 -0.023657
v -1.903233 4.334053 -0.094619
v -2.041440 4.620814 0.235082
v -2.047097 4.623566 0.227701
v -2.331000 4.371276 0.041928
v -2.393151 4.500115 0.096899
v -2.570383 4.839738 0.276645
v -2.198967 4.985481 0.396799
v -2.749596 5.168941 0.454308
v -2.402810 5.296677 0.575483
v -2.825795 5.107126 0.464047
v -2.621372 4.796189 0.285516
v -2.928917 5.481677 0.649635
v -2.643053 5.591561 0.744577
v -2.522242 5.575382 0.852175
v -2.342728 5.291749 0.625634
v -2.584356 5.518978 1.093339
v -3.089823 5.512996 1.087486
v -2.969836 5.536737 0.711376
v -2.523835 5.334277 1.110790
v -2.931677 5.063969 1.097676
v -3.161828 5.123179 0.862105
v -2.752477 4.732851 0.922067
v -2.984259 4.800210 0.676499
v -2.984188 5.438690 0.654705
v -2.469741 5.433323 1.044435
v -2.250441 5.129053 0.869823
v -2.344828 4.973965 0.966494
v -2.044135 4.818960 0.691788
v -2.165676 4.635636 0.798620
v -2.163368 4.985015 0.423869
v -1.888310 4.448159 0.513730
v -1.998885 4.269834 0.617747
v -2.573881 4.179023 0.319841
v -2.418902 4.478167 0.103224
v -2.393862 4.103115 0.535989
v -1.043684 4.949804 -0.030755
v -1.039281 4.942680 -0.036862
v -1.157602 4.132778 0.448243
v -1.320746 4.477477 0.631985
v -2.776832 4.490620 0.498759
v -2.573175 4.417217 0.729849
v -1.002319 4.437024 0.200979
v -0.519347 4.416489 0.373910
v -0.506348 4.540424 -0.001116
vn 0.4827 -0.0643 0.8734
vn 0.6049 0.5146 0.6077
vn -0.2711 0.6033 0.7500
vn -0.0106 0.0029 0.9999
vn 0.4879 0.7921 0.3667
vn -0.4018 0.9076 0.1218
vn -0.4403 0.5632 0.6993
vn -0.5442 0.8385 0.0269
vn -0.5832 0.4676 0.6642
vn -0.6923 0.7211 0.0280
vn -0.3890 0.6797 -0.6218
vn -0.5460 0.5997 -0.5850
vn -0.1389 0.3276 -0.9346
vn -0.2502 0.2133 -0.9444
vn 0.1848 -0.2055 -0.9611
vn -0.0021 -0.4168 -0.9090
vn 0.4976 -0.7642 -0.4103
vn 0.2214 -0.9329 -0.2841
vn 0.2050 -0.1402 -0.9687
vn 0.4382 -0.6393 -0.6319
vn 0.6637 0.1231 -0.7378
vn -0.2359 0.6438 -0.7279
vn 0.5028 0.8465 -0.1748
vn 0.5718 0.5869 -0.5732
vn -0.5383 -0.6637 -0.5194
vn -0.2492 -0.9597 0.1301
vn 0.1889 -0.7872 0.5870
vn 0.0047 -0.7057 0.7085
vn -0.2442 -0.0945 0.9651
vn 0.5167 -0.1080 0.8494
vn -0.7996 0.5413 0.2599
vn 0.5674 0.6851 -0.4568
vn -0.4021 0.3994 0.8239
vn -0.3717 0.0271 -0.9280
vn -0.2691 0.1335 -0.9538
vn 0.3108 0.4715 -0.8253
vn 0.7461 0.3389 -0.5731
vn -0.1272 0.3675 -0.9213
vn 0.3360 0.5718 -0.7485
vn -0.1406 0.4022 -0.9047
vn 0.3107 0.6371 -0.7053
vn -0.1439 0.4366 -0.8880
vn -0.5784 0.0904 -0.8108
vn -0.5860 0.1244 -0.8007
vn 0.0726 0.9485 -0.3083
vn -0.2012 0.5495 -0.8109
vn 0.7161 0.6448 -0.2671
vn 0.4690 0.8829 -0.0250
vn -0.4939 0.7914 -0.3603
vn -0.6271 0.5474 0.5542
vn 0.2320 0.6642 0.7107
vn -0.3400 -0.3652 0.8666
vn 0.3439 -0.0182 0.9388
vn -0.9786 -0.2054 0.0126
vn -0.8879 -0.4363 -0.1457
vn -0.2910 -0.5775 0.7628
vn -0.7017 0.2961 -0.6480
vn 0.7510 0.4151 0.5135
vn 0.4338 -0.1924 0.8803
vn 0.8500 0.3155 0.4219
vn 0.4268 -0.2459 0.8703
vn 0.8988 0.2729 0.3431
vn 0.7402 0.5680 -0.3599
vn 0.5192 -0.3475 0.7808
vn 0.9953 0.0833 0.0499
vn -0.8208 -0.5194 -0.2377
vn -0.5779 0.0490 -0.8147
vn -0.3338 -0.7118 0.6180
vn -0.0905 0.3612 -0.9281
vn -0.3486 0.7002 -0.6231
vn 0.9018 -0.2181 0.3731
vn 0.4054 -0.7179 0.5660
vn -0.0791 -0.0437 0.9959
vn -0.8717 -0.4576 -0.1754
vn -0.3273 -0.6112 0.7206
vn 0.6787 0.7087 -0.1927
vn 0.8099 0.5522 0.1979
vn 0.7758 -0.3171 0.5455
vn 0.7798 -0.1177 -0.6149
vn -0.1437 -0.6400 0.7548
vn -0.4000 0.9025 0.1598
s 1
f 3//1 5//2 4//3 2//4
f 4//3 5//2 7//5 6//6
f 9//7 4//3 6//6 8//8
f 11//9 9//7 8//8 10//10
f 8//8 13//11 12//12 10//10
f 13//11 15//13 14//14 12//12
f 14//14 15//13 17//15 16//16
f 16//16 17//15 19//17 18//18
f 17//15 21//19 20//20 19//17
f 21//19 22//21 20//20
f 25//22 24//23 23//24
f 27//25 16//16 18//18 26//26
f 26//26 18//18 29//27 28//28
f 29//27 31//29 30//30 28//28
f 31//29 11//9 33//31 32//32
f 30//30 31//29 32//32
f 33//31 35//33 34//34 32//32
f 34//34 38//35 37//36 36//37
f 32//32 34//34 36//37
f 37//36 38//35 39//38
f 41//39 37//36 39//38 40//40
f 43//41 41//39 40//40 42//42
f 40//40 45//43 44//44 42//42
f 47//45 43//41 42//42 46//46
f 49//47 43//41 47//45 48//48
f 52//49 51//50 50//51 48//48
f 47//45 52//49 48//48
f 50//51 51//50 54//52 53//53
f 51//50 55//54 54//52
f 55//54 57//55 56//56 54//52
f 58//57 44//44 57//55 55//54
f 59//58 50//51 53//53
f 61//59 60//60 59//58 53//53
f 63//61 62//62 60//60 61//59
f 60//60 62//62 64//63 49//47
f 66//64 65//65 62//62 63//61
f 54//52 56//56 61//59 53//53
f 50//51 59//58 48//48
f 52//49 47//45 46//46
f 58//57 52//49 46//46
f 38//35 34//34 27//25 67//66
f 68//67 38//35 67//66
f 28//28 30//30 65//65 66//64
f 69//68 26//26 28//28 66//64
f 67//66 27//25 26//26 69//68
f 33//31 11//9 10//10
f 25//22 71//69 70//70
f 25//22 23//24 22//21 21//19
f 71//69 25//22 21//19
f 24//23 25//22 70//70 6//6
f 7//5 24//23 6//6
f 15//13 71//69 21//19 17//15
f 6//6 70//70 13//11 8//8
f 19//17 20//20 1//71 72//72
f 2//4 4//3 9//7 73//73
f 1//71 2//4 73//73 72//72
f 14//14 35//33 12//12
f 14//14 16//16 27//25 34//34
f 35//33 14//14 34//34
f 12//12 35//33 33//31 10//10
f 18//18 19//17 72//72 29//27
f 73//73 9//7 11//9 31//29
f 72//72 73//73 31//29 29//27
f 38//35 68//67 39//38
f 65//65 30//30 32//32 36//37
f 45//43 68//67 67//66 74//74
f 39//38 68//67 45//43 40//40
f 74//74 67//66 69//68 75//75
f 36//37 37//36 41//39 64//63
f 62//62 65//65 36//37 64//63
f 75//75 69//68 66//64 63//61
f 44//44 45//43 74//74 57//55
f 42//42 44//44 58//57 46//46
f 51//50 52//49 58//57 55//54
f 57//55 74//74 75//75 56//56
f 64//63 41//39 43//41 49//47
f 59//58 60//60 49//47 48//48
f 56//56 75//75 63//61 61//59
f 70//70 71//69 15//13 13//11
f 1//71 20//76 76//77 2//4
f 5//2 3//1 77//78 78//79 22//21 23//24 24//23 7//5
f 77//78 3//1 2//4 76//77 1//80
f 22//21 78//79 20//20
s 0
f 1//81 77//81 78//81 20//81
