# Blender 5.0.0
# www.blender.org
mtllib prep_throw_arm0036.mtl
o Mball.001
v -0.829746 4.345021 0.454957
v -0.981998 4.714535 0.658484
v -0.607653 4.740316 0.662398
v -1.097962 5.042139 0.493038
v -0.603752 5.094499 0.505317
v -1.113530 5.110096 0.338984
v -0.598508 5.158922 0.472737
v -1.490461 4.887074 0.308658
v -1.472444 4.839024 0.444277
v -1.837212 4.640852 0.288340
v -1.820453 4.608991 0.394660
v -1.806420 4.448648 -0.084111
v -1.409957 4.719432 -0.067516
v -1.788604 4.413494 -0.109058
v -1.395277 4.687367 -0.088343
v -1.672661 4.037226 -0.104867
v -1.225950 4.307846 -0.122199
v -1.583654 3.854500 0.109502
v -1.141789 4.109459 0.069448
v -0.804172 4.342043 0.061848
v -0.878548 4.541043 -0.096514
v -0.548713 4.808580 -0.081147
v -0.587358 5.200742 0.074493
v -0.587308 5.209394 0.085687
v -0.882717 5.061611 -0.001879
v -2.200964 3.973664 0.314755
v -2.288572 3.992530 0.192983
v -1.844796 4.061434 0.402818
v -1.558803 3.940581 0.459797
v -1.943976 4.108671 0.426787
v -1.679006 4.287157 0.579601
v -2.073942 4.313756 0.269936
v -1.951064 4.471098 0.282312
v -2.198774 4.112890 -0.016759
v -1.917210 4.299060 -0.080499
v -1.953151 4.599078 0.055447
v -1.958695 4.600393 0.047751
v -2.294357 4.366997 -0.037144
v -2.327307 4.522108 -0.030113
v -2.422743 4.959183 0.021052
v -2.021628 5.062552 0.078379
v -2.521742 5.386648 0.073282
v -2.147642 5.480496 0.137732
v -2.605623 5.355239 0.103318
v -2.478981 4.937468 0.044012
v -2.621675 5.808833 0.147005
v -2.313067 5.887661 0.194123
v -2.185761 5.900960 0.296043
v -2.084176 5.488107 0.184336
v -2.229024 5.992443 0.533696
v -2.724433 6.104799 0.534173
v -2.645334 5.899751 0.184819
v -2.199452 5.823648 0.610740
v -2.645394 5.674892 0.692208
v -2.886505 5.658632 0.460865
v -2.546504 5.246813 0.642477
v -2.788939 5.232909 0.399375
v -2.682426 5.786643 0.166369
v -2.137159 5.863578 0.517173
v -1.994410 5.450212 0.459078
v -2.102220 5.386208 0.599114
v -1.865729 5.032997 0.399926
v -2.003740 4.955816 0.558795
v -1.983901 5.067846 0.102777
v -1.798681 4.550142 0.357584
v -1.921987 4.487644 0.510791
v -2.533997 4.397818 0.280888
v -2.355468 4.512262 -0.016872
v -2.346879 4.401076 0.500597
v -1.036636 4.937696 -0.041854
v -1.032227 4.930152 -0.047399
v -1.172873 4.160680 0.469957
v -1.336497 4.521305 0.633312
v -2.659045 4.816026 0.340313
v -2.446735 4.823699 0.572536
v -1.002319 4.437024 0.200979
v -0.524768 4.425218 0.383263
v -0.506657 4.534248 0.008758
vn 0.4726 -0.0442 0.8801
vn 0.6118 0.5272 0.5897
vn -0.2709 0.6458 0.7138
vn -0.0270 0.0510 0.9983
vn 0.4946 0.7951 0.3509
vn -0.3871 0.9200 0.0616
vn -0.4533 0.6099 0.6500
vn -0.5360 0.8428 -0.0493
vn -0.6111 0.5025 0.6116
vn -0.6961 0.7164 -0.0475
vn -0.3697 0.6411 -0.6726
vn -0.5454 0.5531 -0.6298
vn -0.1257 0.2761 -0.9529
vn -0.2551 0.1356 -0.9574
vn 0.1897 -0.2717 -0.9435
vn -0.0204 -0.5460 -0.8375
vn 0.4815 -0.8038 -0.3494
vn 0.1488 -0.9743 -0.1690
vn 0.2320 -0.1870 -0.9546
vn 0.4490 -0.6793 -0.5805
vn 0.6716 0.0990 -0.7343
vn -0.2142 0.6105 -0.7625
vn 0.5097 0.8399 -0.1865
vn 0.5748 0.5786 -0.5786
vn -0.6709 -0.6927 -0.2645
vn -0.3854 -0.8188 0.4255
vn 0.1180 -0.7587 0.6407
vn -0.0444 -0.6165 0.7861
vn -0.2912 -0.0566 0.9550
vn 0.3557 -0.3229 0.8770
vn -0.8236 0.5302 0.2014
vn 0.2773 0.2061 -0.9384
vn -0.4840 0.6269 0.6106
vn -0.3728 -0.2347 -0.8977
vn -0.3327 -0.1624 -0.9289
vn 0.3256 0.0753 -0.9425
vn 0.7196 -0.0782 -0.6900
vn -0.1234 0.0457 -0.9913
vn 0.3611 0.1765 -0.9157
vn -0.1285 0.0826 -0.9883
vn 0.3440 0.2509 -0.9048
vn -0.1242 0.1172 -0.9853
vn -0.6240 -0.0746 -0.7778
vn -0.6201 -0.0405 -0.7835
vn 0.2217 0.6794 -0.6995
vn -0.1457 0.2396 -0.9599
vn 0.7685 0.3253 -0.5510
vn 0.6141 0.6467 -0.4525
vn -0.3557 0.6349 -0.6859
vn -0.4469 0.8510 0.2759
vn 0.4407 0.8279 0.3469
vn -0.3101 0.0449 0.9496
vn 0.4266 0.2357 0.8732
vn -0.9935 0.0162 0.1124
vn -0.9641 -0.2552 0.0732
vn -0.3082 -0.1891 0.9323
vn -0.6675 0.1749 -0.7238
vn 0.8804 0.3993 0.2557
vn 0.4668 0.0367 0.8836
vn 0.9418 0.2538 0.2204
vn 0.4471 -0.0152 0.8944
vn 0.9694 0.1771 0.1702
vn 0.7701 0.2209 -0.5984
vn 0.5289 -0.1540 0.8346
vn 0.9878 -0.1280 -0.0891
vn -0.9226 -0.3846 0.0308
vn -0.6340 -0.1165 -0.7645
vn -0.3855 -0.3397 0.8579
vn -0.0514 0.3188 -0.9464
vn -0.3149 0.6666 -0.6756
vn 0.8908 -0.2051 0.4055
vn 0.3800 -0.6894 0.6167
vn -0.1019 0.0143 0.9947
vn -0.9559 -0.2878 0.0594
vn -0.3507 -0.2247 0.9091
vn 0.6926 0.6863 -0.2220
vn 0.8175 0.5528 0.1616
vn 0.7748 -0.2933 0.5600
vn 0.7747 -0.1433 -0.6158
vn -0.1683 -0.6060 0.7774
vn -0.3918 0.9142 0.1040
s 1
f 3//1 5//2 4//3 2//4
f 4//3 5//2 7//5 6//6
f 9//7 4//3 6//6 8//8
f 11//9 9//7 8//8 10//10
f 8//8 13//11 12//12 10//10
f 13//11 15//13 14//14 12//12
f 14//14 15//13 17//15 16//16
f 16//16 17//15 19//17 18//18
f 17//15 21//19 20//20 19//17
f 21//19 22//21 20//20
f 25//22 24//23 23//24
f 27//25 16//16 18//18 26//26
f 26//26 18//18 29//27 28//28
f 29//27 31//29 30//30 28//28
f 31//29 11//9 33//31 32//32
f 30//30 31//29 32//32
f 33//31 35//33 34//34 32//32
f 34//34 38//35 37//36 36//37
f 32//32 34//34 36//37
f 37//36 38//35 39//38
f 41//39 37//36 39//38 40//40
f 43//41 41//39 40//40 42//42
f 40//40 45//43 44//44 42//42
f 47//45 43//41 42//42 46//46
f 49//47 43//41 47//45 48//48
f 52//49 51//50 50//51 48//48
f 47//45 52//49 48//48
f 50//51 51//50 54//52 53//53
f 51//50 55//54 54//52
f 55//54 57//55 56//56 54//52
f 58//57 44//44 57//55 55//54
f 59//58 50//51 53//53
f 61//59 60//60 59//58 53//53
f 63//61 62//62 60//60 61//59
f 60//60 62//62 64//63 49//47
f 66//64 65//65 62//62 63//61
f 54//52 56//56 61//59 53//53
f 50//51 59//58 48//48
f 52//49 47//45 46//46
f 58//57 52//49 46//46
f 38//35 34//34 27//25 67//66
f 68//67 38//35 67//66
f 28//28 30//30 65//65 66//64
f 69//68 26//26 28//28 66//64
f 67//66 27//25 26//26 69//68
f 33//31 11//9 10//10
f 25//22 71//69 70//70
f 25//22 23//24 22//21 21//19
f 71//69 25//22 21//19
f 24//23 25//22 70//70 6//6
f 7//5 24//23 6//6
f 15//13 71//69 21//19 17//15
f 6//6 70//70 13//11 8//8
f 19//17 20//20 1//71 72//72
f 2//4 4//3 9//7 73//73
f 1//71 2//4 73//73 72//72
f 14//14 35//33 12//12
f 14//14 16//16 27//25 34//34
f 35//33 14//14 34//34
f 12//12 35//33 33//31 10//10
f 18//18 19//17 72//72 29//27
f 73//73 9//7 11//9 31//29
f 72//72 73//73 31//29 29//27
f 38//35 68//67 39//38
f 65//65 30//30 32//32 36//37
f 45//43 68//67 67//66 74//74
f 39//38 68//67 45//43 40//40
f 74//74 67//66 69//68 75//75
f 36//37 37//36 41//39 64//63
f 62//62 65//65 36//37 64//63
f 75//75 69//68 66//64 63//61
f 44//44 45//43 74//74 57//55
f 42//42 44//44 58//57 46//46
f 51//50 52//49 58//57 55//54
f 57//55 74//74 75//75 56//56
f 64//63 41//39 43//41 49//47
f 59//58 60//60 49//47 48//48
f 56//56 75//75 63//61 61//59
f 70//70 71//69 15//13 13//11
f 1//71 20//76 76//77 2//4
f 5//2 3//1 77//78 78//79 22//21 23//24 24//23 7//5
f 77//78 3//1 2//4 76//77 1//80
f 22//21 78//79 20//20
s 0
f 1//81 77//81 78//81 20//81
