# Blender 5.0.0
# www.blender.org
mtllib prep_throw_arm0045.mtl
o Mball.001
v -0.829746 4.345021 0.454957
v -0.981998 4.714535 0.658484
v -0.607653 4.740316 0.662398
v -1.097962 5.042139 0.493038
v -0.603752 5.094499 0.505317
v -1.113530 5.110096 0.338984
v -0.598508 5.158922 0.472737
v -1.490461 4.887074 0.308658
v -1.472444 4.839024 0.444277
v -1.838313 4.637851 0.289328
v -1.821204 4.606827 0.395280
v -1.809951 4.443589 -0.078791
v -1.409957 4.719432 -0.067516
v -1.791786 4.409635 -0.103933
v -1.395277 4.687367 -0.088343
v -1.676095 4.040195 -0.095975
v -1.225950 4.307846 -0.122199
v -1.586038 3.862046 0.118258
v -1.141789 4.109459 0.069448
v -0.804172 4.342043 0.061848
v -0.878548 4.541043 -0.096514
v -0.548713 4.808580 -0.081147
v -0.587358 5.200742 0.074493
v -0.587308 5.209394 0.085687
v -0.882717 5.061611 -0.001879
v -2.197579 4.017471 0.328004
v -2.289973 4.021050 0.209476
v -1.836975 4.079782 0.394396
v -1.560020 3.944861 0.464468
v -1.941873 4.107190 0.421498
v -1.679798 4.285774 0.580678
v -2.074299 4.304575 0.266389
v -1.952645 4.465160 0.282963
v -2.205387 4.096674 -0.009969
v -1.923656 4.289490 -0.070941
v -1.934238 4.558230 -0.005063
v -1.939950 4.558985 -0.012655
v -2.288929 4.343684 -0.059970
v -2.313750 4.499061 -0.070551
v -2.384325 4.946380 -0.068808
v -1.976242 5.031101 -0.035470
v -2.458691 5.385043 -0.065051
v -2.077717 5.463601 -0.022803
v -2.542595 5.365577 -0.029339
v -2.440482 4.933210 -0.041997
v -2.533270 5.822609 -0.039406
v -2.219198 5.887666 -0.010698
v -2.086823 5.911070 0.084923
v -2.011867 5.475444 0.020595
v -2.114318 6.049153 0.310123
v -2.602705 6.194838 0.310977
v -2.550452 5.921122 -0.012147
v -2.089946 5.895000 0.405410
v -2.538681 5.794766 0.515829
v -2.790699 5.752034 0.295815
v -2.464340 5.355975 0.514618
v -2.718100 5.313445 0.282742
v -2.594118 5.808611 -0.015969
v -2.030067 5.912422 0.306510
v -1.911605 5.483503 0.294081
v -2.015984 5.454261 0.443005
v -1.807423 5.051573 0.281452
v -1.941736 5.014990 0.451380
v -1.937211 5.038278 -0.013029
v -1.767981 4.553722 0.292282
v -1.886024 4.534945 0.454602
v -2.512191 4.449068 0.257448
v -2.341748 4.493794 -0.055507
v -2.315238 4.480558 0.468996
v -1.036636 4.937696 -0.041854
v -1.032227 4.930152 -0.047399
v -1.172873 4.160680 0.469957
v -1.336497 4.521305 0.633312
v -2.612686 4.881775 0.270129
v -2.389798 4.918216 0.492825
v -1.002319 4.437024 0.200979
v -0.524768 4.425218 0.383263
v -0.506657 4.534248 0.008758
vn 0.4726 -0.0442 0.8801
vn 0.6118 0.5272 0.5897
vn -0.2709 0.6458 0.7138
vn -0.0270 0.0510 0.9983
vn 0.4946 0.7951 0.3509
vn -0.3871 0.9200 0.0616
vn -0.4539 0.6102 0.6493
vn -0.5381 0.8414 -0.0504
vn -0.6147 0.4998 0.6102
vn -0.7002 0.7123 -0.0484
vn -0.3740 0.6391 -0.6720
vn -0.5557 0.5466 -0.6265
vn -0.1322 0.2742 -0.9526
vn -0.2680 0.1226 -0.9556
vn 0.1826 -0.2775 -0.9432
vn -0.0320 -0.5766 -0.8164
vn 0.4734 -0.8079 -0.3509
vn 0.1239 -0.9811 -0.1489
vn 0.2320 -0.1870 -0.9546
vn 0.4490 -0.6793 -0.5805
vn 0.6716 0.0990 -0.7343
vn -0.2142 0.6105 -0.7625
vn 0.5097 0.8399 -0.1865
vn 0.5748 0.5786 -0.5786
vn -0.7078 -0.6845 -0.1746
vn -0.4076 -0.7546 0.5143
vn 0.0988 -0.7627 0.6392
vn -0.0289 -0.6202 0.7839
vn -0.3004 -0.0680 0.9514
vn 0.2160 -0.4432 0.8700
vn -0.8308 0.5181 0.2033
vn -0.1468 -0.0908 -0.9850
vn -0.5231 0.6719 0.5243
vn -0.3830 -0.3303 -0.8627
vn -0.3813 -0.2629 -0.8863
vn 0.2972 -0.0584 -0.9530
vn 0.6811 -0.2121 -0.7008
vn -0.1575 -0.0649 -0.9854
vn 0.3353 0.0452 -0.9410
vn -0.1596 -0.0267 -0.9868
vn 0.3204 0.1200 -0.9397
vn -0.1526 0.0072 -0.9883
vn -0.6615 -0.1304 -0.7385
vn -0.6546 -0.0980 -0.7496
vn 0.2326 0.5514 -0.8012
vn -0.1639 0.1294 -0.9780
vn 0.7545 0.2097 -0.6218
vn 0.6254 0.5327 -0.5702
vn -0.3420 0.5494 -0.7624
vn -0.3842 0.9087 0.1632
vn 0.5042 0.8399 0.2008
vn -0.2687 0.1823 0.9458
vn 0.4788 0.3185 0.8181
vn -0.9860 0.0888 0.1412
vn -0.9717 -0.1874 0.1440
vn -0.2789 -0.0584 0.9585
vn -0.6796 0.1208 -0.7236
vn 0.9140 0.3756 0.1534
vn 0.5056 0.1145 0.8551
vn 0.9643 0.2232 0.1427
vn 0.4827 0.0637 0.8735
vn 0.9845 0.1399 0.1058
vn 0.7508 0.1013 -0.6527
vn 0.5531 -0.0866 0.8286
vn 0.9714 -0.1967 -0.1331
vn -0.9373 -0.3263 0.1226
vn -0.6742 -0.1725 -0.7182
vn -0.3638 -0.2102 0.9075
vn -0.0514 0.3188 -0.9464
vn -0.3149 0.6666 -0.6756
vn 0.8908 -0.2051 0.4055
vn 0.3796 -0.6915 0.6146
vn -0.1011 0.0156 0.9948
vn -0.9654 -0.2222 0.1364
vn -0.3229 -0.0946 0.9417
vn 0.6926 0.6863 -0.2220
vn 0.8175 0.5528 0.1616
vn 0.7748 -0.2933 0.5600
vn 0.7747 -0.1433 -0.6158
vn -0.1683 -0.6060 0.7774
vn -0.3918 0.9142 0.1040
s 1
f 3//1 5//2 4//3 2//4
f 4//3 5//2 7//5 6//6
f 9//7 4//3 6//6 8//8
f 11//9 9//7 8//8 10//10
f 8//8 13//11 12//12 10//10
f 13//11 15//13 14//14 12//12
f 14//14 15//13 17//15 16//16
f 16//16 17//15 19//17 18//18
f 17//15 21//19 20//20 19//17
f 21//19 22//21 20//20
f 25//22 24//23 23//24
f 27//25 16//16 18//18 26//26
f 26//26 18//18 29//27 28//28
f 29//27 31//29 30//30 28//28
f 31//29 11//9 33//31 32//32
f 30//30 31//29 32//32
f 33//31 35//33 34//34 32//32
f 34//34 38//35 37//36 36//37
f 32//32 34//34 36//37
f 37//36 38//35 39//38
f 41//39 37//36 39//38 40//40
f 43//41 41//39 40//40 42//42
f 40//40 45//43 44//44 42//42
f 47//45 43//41 42//42 46//46
f 49//47 43//41 47//45 48//48
f 52//49 51//50 50//51 48//48
f 47//45 52//49 48//48
f 50//51 51//50 54//52 53//53
f 51//50 55//54 54//52
f 55//54 57//55 56//56 54//52
f 58//57 44//44 57//55 55//54
f 59//58 50//51 53//53
f 61//59 60//60 59//58 53//53
f 63//61 62//62 60//60 61//59
f 60//60 62//62 64//63 49//47
f 66//64 65//65 62//62 63//61
f 54//52 56//56 61//59 53//53
f 50//51 59//58 48//48
f 52//49 47//45 46//46
f 58//57 52//49 46//46
f 38//35 34//34 27//25 67//66
f 68//67 38//35 67//66
f 28//28 30//30 65//65 66//64
f 69//68 26//26 28//28 66//64
f 67//66 27//25 26//26 69//68
f 33//31 11//9 10//10
f 25//22 71//69 70//70
f 25//22 23//24 22//21 21//19
f 71//69 25//22 21//19
f 24//23 25//22 70//70 6//6
f 7//5 24//23 6//6
f 15//13 71//69 21//19 17//15
f 6//6 70//70 13//11 8//8
f 19//17 20//20 1//71 72//72
f 2//4 4//3 9//7 73//73
f 1//71 2//4 73//73 72//72
f 14//14 35//33 12//12
f 14//14 16//16 27//25 34//34
f 35//33 14//14 34//34
f 12//12 35//33 33//31 10//10
f 18//18 19//17 72//72 29//27
f 73//73 9//7 11//9 31//29
f 72//72 73//73 31//29 29//27
f 38//35 68//67 39//38
f 65//65 30//30 32//32 36//37
f 45//43 68//67 67//66 74//74
f 39//38 68//67 45//43 40//40
f 74//74 67//66 69//68 75//75
f 36//37 37//36 41//39 64//63
f 62//62 65//65 36//37 64//63
f 75//75 69//68 66//64 63//61
f 44//44 45//43 74//74 57//55
f 42//42 44//44 58//57 46//46
f 51//50 52//49 58//57 55//54
f 57//55 74//74 75//75 56//56
f 64//63 41//39 43//41 49//47
f 59//58 60//60 49//47 48//48
f 56//56 75//75 63//61 61//59
f 70//70 71//69 15//13 13//11
f 1//71 20//76 76//77 2//4
f 5//2 3//1 77//78 78//79 22//21 23//24 24//23 7//5
f 77//78 3//1 2//4 76//77 1//80
f 22//21 78//79 20//20
s 0
f 1//81 77//81 78//81 20//81
