# Blender 5.0.0
# www.blender.org
mtllib prep_throw_arm0014.mtl
o Mball.001
v -0.746208 4.268696 0.386019
v -0.876384 4.557957 0.671350
v -0.558050 4.672194 0.659423
v -1.047121 4.916152 0.583487
v -0.600293 5.081312 0.519157
v -1.096447 5.021423 0.446521
v -0.597722 5.150267 0.485300
v -1.451180 4.747737 0.448457
v -1.400254 4.664211 0.565920
v -1.778658 4.486525 0.439447
v -1.736868 4.422917 0.531664
v -1.813400 4.430948 0.031528
v -1.447100 4.703453 0.046232
v -1.799607 4.401309 -0.003518
v -1.435556 4.680310 0.017910
v -1.653595 4.038771 -0.115767
v -1.255214 4.344127 -0.113937
v -1.505996 3.799693 0.032311
v -1.117914 4.107100 0.017358
v -0.799912 4.373014 0.000295
v -0.918486 4.602176 -0.104580
v -0.575918 4.854295 -0.093420
v -0.597635 5.209149 0.084611
v -0.597015 5.217027 0.095758
v -0.921520 5.083774 0.052269
v -2.052428 3.645456 0.257685
v -2.165759 3.732675 0.173060
v -1.736975 3.816669 0.434744
v -1.416302 3.789909 0.400389
v -1.831840 3.903814 0.505542
v -1.536396 4.078129 0.621687
v -2.005757 4.154515 0.422662
v -1.882755 4.320504 0.425645
v -2.164469 4.046818 0.100460
v -1.905077 4.297698 0.017180
v -2.077882 4.406002 0.497317
v -2.085181 4.409350 0.491432
v -2.341198 4.179978 0.248454
v -2.417392 4.247670 0.343842
v -2.623961 4.404097 0.625741
v -2.274500 4.583783 0.766447
v -2.830899 4.552373 0.902877
v -2.501350 4.708335 1.039668
v -2.890113 4.470331 0.894733
v -2.662729 4.346106 0.621710
v -3.031516 4.677345 1.190636
v -2.761656 4.812405 1.300417
v -2.623118 4.780844 1.387471
v -2.433672 4.697051 1.080938
v -2.628890 4.592932 1.590483
v -3.115101 4.439590 1.605234
v -3.070989 4.682983 1.266525
v -2.530566 4.439660 1.543020
v -2.871171 4.086255 1.460119
v -3.146195 4.186567 1.275840
v -2.663498 3.935270 1.184219
v -2.943493 4.047232 0.993616
v -3.075190 4.620457 1.183528
v -2.510104 4.575988 1.512982
v -2.269048 4.460133 1.245057
v -2.311686 4.247363 1.285954
v -2.039933 4.336967 0.972680
v -2.101244 4.086173 1.014706
v -2.235359 4.580573 0.789306
v -1.850269 4.158632 0.691397
v -1.902465 3.906688 0.728658
v -2.487319 3.799644 0.448096
v -2.436667 4.217186 0.343413
v -2.260627 3.679289 0.611451
v -1.084828 4.956324 0.040205
v -1.080901 4.951003 0.032092
v -1.060869 4.036544 0.413824
v -1.205268 4.317578 0.664570
v -2.713349 3.924697 0.721623
v -2.461769 3.806196 0.898329
v -1.002319 4.437024 0.200979
v -0.487352 4.401403 0.335119
v -0.511576 4.567550 -0.035139
vn 0.5536 -0.1079 0.8258
vn 0.5964 0.4873 0.6379
vn -0.2231 0.4636 0.8575
vn 0.1265 -0.1317 0.9832
vn 0.4597 0.8017 0.3820
vn -0.4507 0.8309 0.3264
vn -0.3496 0.4000 0.8472
vn -0.5828 0.7575 0.2941
vn -0.4691 0.3118 0.8263
vn -0.7018 0.6440 0.3044
vn -0.5430 0.7400 -0.3969
vn -0.6695 0.6535 -0.3532
vn -0.3129 0.4531 -0.8348
vn -0.4036 0.3499 -0.8454
vn 0.0458 -0.0414 -0.9981
vn -0.0980 -0.2188 -0.9708
vn 0.4708 -0.6251 -0.6226
vn 0.2731 -0.8117 -0.5163
vn 0.0437 0.0020 -0.9990
vn 0.3619 -0.4902 -0.7929
vn 0.5897 0.2116 -0.7794
vn -0.3599 0.7273 -0.5844
vn 0.4565 0.8752 -0.1600
vn 0.5234 0.6272 -0.5768
vn -0.4550 -0.5554 -0.6961
vn -0.0273 -0.9763 -0.2148
vn 0.3608 -0.8522 0.3790
vn 0.2622 -0.8296 0.4930
vn -0.0642 -0.2564 0.9644
vn 0.6463 -0.0520 0.7613
vn -0.7472 0.4399 0.4981
vn 0.3474 0.9327 -0.0963
vn -0.6017 -0.6800 0.4189
vn -0.5167 0.2500 -0.8188
vn -0.4329 0.3878 -0.8138
vn 0.0550 0.8195 -0.5704
vn 0.5617 0.7354 -0.3792
vn -0.3721 0.6260 -0.6853
vn 0.0734 0.9000 -0.4297
vn -0.3907 0.6536 -0.6482
vn 0.0460 0.9346 -0.3527
vn -0.3974 0.6810 -0.6151
vn -0.7084 0.2029 -0.6760
vn -0.7250 0.2286 -0.6497
vn -0.1944 0.9705 0.1427
vn -0.4741 0.7447 -0.4697
vn 0.5039 0.8622 0.0523
vn 0.2407 0.8893 0.3890
vn -0.7162 0.6919 0.0912
vn -0.6382 0.0924 0.7643
vn 0.1617 0.3706 0.9146
vn -0.1280 -0.7375 0.6631
vn 0.4715 -0.2439 0.8475
vn -0.8975 -0.4402 -0.0251
vn -0.7646 -0.5693 -0.3021
vn -0.0299 -0.8937 0.4476
vn -0.8598 0.3029 -0.4111
vn 0.6787 0.3780 0.6297
vn 0.6070 -0.3654 0.7057
vn 0.7927 0.3492 0.4996
vn 0.6139 -0.4148 0.6716
vn 0.8402 0.3536 0.4112
vn 0.5364 0.8411 -0.0693
vn 0.6941 -0.4768 0.5394
vn 0.9456 0.3070 0.1074
vn -0.6914 -0.5843 -0.4250
vn -0.6957 0.1645 -0.6993
vn -0.0528 -0.9682 0.2446
vn -0.3062 0.4706 -0.8275
vn -0.5095 0.7635 -0.3968
vn 0.9625 -0.2002 0.1828
vn 0.5501 -0.7623 0.3410
vn 0.0938 -0.2006 0.9752
vn -0.7450 -0.5720 -0.3432
vn -0.0627 -0.9194 0.3882
vn 0.6140 0.7761 -0.1439
vn 0.7948 0.5659 0.2194
vn 0.8094 -0.3740 0.4528
vn 0.7595 -0.0282 -0.6500
vn -0.0243 -0.7452 0.6664
vn -0.4419 0.8292 0.3422
s 1
f 3//1 5//2 4//3 2//4
f 4//3 5//2 7//5 6//6
f 9//7 4//3 6//6 8//8
f 11//9 9//7 8//8 10//10
f 8//8 13//11 12//12 10//10
f 13//11 15//13 14//14 12//12
f 14//14 15//13 17//15 16//16
f 16//16 17//15 19//17 18//18
f 17//15 21//19 20//20 19//17
f 21//19 22//21 20//20
f 25//22 24//23 23//24
f 27//25 16//16 18//18 26//26
f 26//26 18//18 29//27 28//28
f 29//27 31//29 30//30 28//28
f 31//29 11//9 33//31 32//32
f 30//30 31//29 32//32
f 33//31 35//33 34//34 32//32
f 34//34 38//35 37//36 36//37
f 32//32 34//34 36//37
f 37//36 38//35 39//38
f 41//39 37//36 39//38 40//40
f 43//41 41//39 40//40 42//42
f 40//40 45//43 44//44 42//42
f 47//45 43//41 42//42 46//46
f 49//47 43//41 47//45 48//48
f 52//49 51//50 50//51 48//48
f 47//45 52//49 48//48
f 50//51 51//50 54//52 53//53
f 51//50 55//54 54//52
f 55//54 57//55 56//56 54//52
f 58//57 44//44 57//55 55//54
f 59//58 50//51 53//53
f 61//59 60//60 59//58 53//53
f 63//61 62//62 60//60 61//59
f 60//60 62//62 64//63 49//47
f 66//64 65//65 62//62 63//61
f 54//52 56//56 61//59 53//53
f 50//51 59//58 48//48
f 52//49 47//45 46//46
f 58//57 52//49 46//46
f 38//35 34//34 27//25 67//66
f 68//67 38//35 67//66
f 28//28 30//30 65//65 66//64
f 69//68 26//26 28//28 66//64
f 67//66 27//25 26//26 69//68
f 33//31 11//9 10//10
f 25//22 71//69 70//70
f 25//22 23//24 22//21 21//19
f 71//69 25//22 21//19
f 24//23 25//22 70//70 6//6
f 7//5 24//23 6//6
f 15//13 71//69 21//19 17//15
f 6//6 70//70 13//11 8//8
f 19//17 20//20 1//71 72//72
f 2//4 4//3 9//7 73//73
f 1//71 2//4 73//73 72//72
f 14//14 35//33 12//12
f 14//14 16//16 27//25 34//34
f 35//33 14//14 34//34
f 12//12 35//33 33//31 10//10
f 18//18 19//17 72//72 29//27
f 73//73 9//7 11//9 31//29
f 72//72 73//73 31//29 29//27
f 38//35 68//67 39//38
f 65//65 30//30 32//32 36//37
f 45//43 68//67 67//66 74//74
f 39//38 68//67 45//43 40//40
f 74//74 67//66 69//68 75//75
f 36//37 37//36 41//39 64//63
f 62//62 65//65 36//37 64//63
f 75//75 69//68 66//64 63//61
f 44//44 45//43 74//74 57//55
f 42//42 44//44 58//57 46//46
f 51//50 52//49 58//57 55//54
f 57//55 74//74 75//75 56//56
f 64//63 41//39 43//41 49//47
f 59//58 60//60 49//47 48//48
f 56//56 75//75 63//61 61//59
f 70//70 71//69 15//13 13//11
f 1//71 20//76 76//77 2//4
f 5//2 3//1 77//78 78//79 22//21 23//24 24//23 7//5
f 77//78 3//1 2//4 76//77 1//80
f 22//21 78//79 20//20
s 0
f 1//81 77//81 78//81 20//81
