# Blender 5.0.0
# www.blender.org
mtllib prep_throw_arm0039.mtl
o Mball.001
v -0.829746 4.345021 0.454957
v -0.981998 4.714535 0.658484
v -0.607653 4.740316 0.662398
v -1.097962 5.042139 0.493038
v -0.603752 5.094499 0.505317
v -1.113530 5.110096 0.338984
v -0.598508 5.158922 0.472737
v -1.490461 4.887074 0.308658
v -1.472444 4.839024 0.444277
v -1.837689 4.639483 0.288730
v -1.820778 4.608002 0.394902
v -1.808001 4.446289 -0.081864
v -1.409957 4.719432 -0.067516
v -1.790038 4.411674 -0.106879
v -1.395277 4.687367 -0.088343
v -1.674315 4.038352 -0.100942
v -1.225950 4.307846 -0.122199
v -1.584896 3.857622 0.113445
v -1.141789 4.109459 0.069448
v -0.804172 4.342043 0.061848
v -0.878548 4.541043 -0.096514
v -0.548713 4.808580 -0.081147
v -0.587358 5.200742 0.074493
v -0.587308 5.209394 0.085687
v -0.882717 5.061611 -0.001879
v -2.199983 3.992947 0.321158
v -2.289563 4.005101 0.200540
v -1.841473 4.069529 0.399469
v -1.559467 3.942289 0.461921
v -1.942998 4.108034 0.424479
v -1.679372 4.286474 0.580062
v -2.073982 4.309735 0.268257
v -1.951726 4.468422 0.282515
v -2.201550 4.105813 -0.014099
v -1.920086 4.294625 -0.076474
v -1.943591 4.582511 0.028368
v -1.949202 4.583589 0.020706
v -2.291278 4.357718 -0.047591
v -2.320366 4.513491 -0.048282
v -2.404160 4.956580 -0.018633
v -1.999641 5.051759 0.028049
v -2.491644 5.390445 0.012513
v -2.114227 5.477578 0.067143
v -2.575691 5.364280 0.045188
v -2.460473 4.938618 0.006124
v -2.579791 5.820866 0.065390
v -2.268525 5.893646 0.104347
v -2.139050 5.911381 0.203711
v -2.049734 5.487046 0.112431
v -2.175601 6.023831 0.436615
v -2.667992 6.151636 0.437593
v -2.600500 5.915456 0.098691
v -2.148743 5.860960 0.521882
v -2.596583 5.733513 0.616612
v -2.842299 5.705630 0.389733
v -2.509176 5.299248 0.587993
v -2.756377 5.272775 0.349276
v -2.640692 5.802273 0.086641
v -2.087253 5.891006 0.425656
v -1.955804 5.469328 0.387365
v -2.062510 5.420589 0.531789
v -1.838531 5.044170 0.348399
v -1.975393 4.984816 0.512686
v -1.961347 5.057880 0.051633
v -1.784343 4.553107 0.329141
v -1.905807 4.509880 0.486959
v -2.524269 4.421859 0.271228
v -2.348511 4.505664 -0.034192
v -2.333056 4.437513 0.487867
v -1.036636 4.937696 -0.041854
v -1.032227 4.930152 -0.047399
v -1.172873 4.160680 0.469957
v -1.336497 4.521305 0.633312
v -2.637881 4.847916 0.310368
v -2.421147 4.868220 0.538941
v -1.002319 4.437024 0.200979
v -0.524768 4.425218 0.383263
v -0.506657 4.534248 0.008758
vn 0.4726 -0.0442 0.8801
vn 0.6118 0.5272 0.5897
vn -0.2709 0.6458 0.7138
vn -0.0270 0.0510 0.9983
vn 0.4946 0.7951 0.3509
vn -0.3871 0.9200 0.0616
vn -0.4536 0.6100 0.6497
vn -0.5370 0.8421 -0.0498
vn -0.6128 0.5012 0.6109
vn -0.6980 0.7145 -0.0479
vn -0.3716 0.6402 -0.6724
vn -0.5499 0.5502 -0.6284
vn -0.1285 0.2752 -0.9528
vn -0.2607 0.1299 -0.9566
vn 0.1866 -0.2743 -0.9434
vn -0.0256 -0.5596 -0.8284
vn 0.4780 -0.8056 -0.3501
vn 0.1377 -0.9774 -0.1602
vn 0.2320 -0.1870 -0.9546
vn 0.4490 -0.6793 -0.5805
vn 0.6716 0.0990 -0.7343
vn -0.2142 0.6105 -0.7625
vn 0.5097 0.8399 -0.1865
vn 0.5748 0.5786 -0.5786
vn -0.6883 -0.6897 -0.2249
vn -0.3968 -0.7914 0.4651
vn 0.1095 -0.7604 0.6402
vn -0.0390 -0.6167 0.7862
vn -0.2953 -0.0612 0.9534
vn 0.3004 -0.3766 0.8763
vn -0.8269 0.5247 0.2021
vn 0.1116 0.0807 -0.9905
vn -0.5006 0.6477 0.5744
vn -0.3772 -0.2762 -0.8840
vn -0.3534 -0.2067 -0.9124
vn 0.3145 0.0161 -0.9491
vn 0.7036 -0.1382 -0.6970
vn -0.1369 -0.0030 -0.9906
vn 0.3511 0.1181 -0.9288
vn -0.1408 0.0344 -0.9894
vn 0.3351 0.1928 -0.9223
vn -0.1352 0.0687 -0.9884
vn -0.6399 -0.0991 -0.7620
vn -0.6345 -0.0657 -0.7701
vn 0.2291 0.6243 -0.7468
vn -0.1520 0.1911 -0.9697
vn 0.7639 0.2741 -0.5843
vn 0.6215 0.5973 -0.5068
vn -0.3476 0.5986 -0.7217
vn -0.4180 0.8795 0.2273
vn 0.4705 0.8357 0.2833
vn -0.2929 0.1058 0.9503
vn 0.4490 0.2724 0.8510
vn -0.9908 0.0489 0.1260
vn -0.9686 -0.2251 0.1052
vn -0.2967 -0.1312 0.9459
vn -0.6717 0.1519 -0.7251
vn 0.8965 0.3896 0.2108
vn 0.4829 0.0709 0.8728
vn 0.9527 0.2404 0.1861
vn 0.4617 0.0195 0.8868
vn 0.9768 0.1605 0.1416
vn 0.7629 0.1676 -0.6244
vn 0.5390 -0.1247 0.8330
vn 0.9812 -0.1590 -0.1097
vn -0.9305 -0.3591 0.0718
vn -0.6511 -0.1411 -0.7457
vn -0.3777 -0.2823 0.8818
vn -0.0514 0.3188 -0.9464
vn -0.3149 0.6666 -0.6756
vn 0.8908 -0.2051 0.4055
vn 0.3799 -0.6903 0.6158
vn -0.1016 0.0149 0.9947
vn -0.9613 -0.2587 0.0941
vn -0.3399 -0.1670 0.9255
vn 0.6926 0.6863 -0.2220
vn 0.8175 0.5528 0.1616
vn 0.7748 -0.2933 0.5600
vn 0.7747 -0.1433 -0.6158
vn -0.1683 -0.6060 0.7774
vn -0.3918 0.9142 0.1040
s 1
f 3//1 5//2 4//3 2//4
f 4//3 5//2 7//5 6//6
f 9//7 4//3 6//6 8//8
f 11//9 9//7 8//8 10//10
f 8//8 13//11 12//12 10//10
f 13//11 15//13 14//14 12//12
f 14//14 15//13 17//15 16//16
f 16//16 17//15 19//17 18//18
f 17//15 21//19 20//20 19//17
f 21//19 22//21 20//20
f 25//22 24//23 23//24
f 27//25 16//16 18//18 26//26
f 26//26 18//18 29//27 28//28
f 29//27 31//29 30//30 28//28
f 31//29 11//9 33//31 32//32
f 30//30 31//29 32//32
f 33//31 35//33 34//34 32//32
f 34//34 38//35 37//36 36//37
f 32//32 34//34 36//37
f 37//36 38//35 39//38
f 41//39 37//36 39//38 40//40
f 43//41 41//39 40//40 42//42
f 40//40 45//43 44//44 42//42
f 47//45 43//41 42//42 46//46
f 49//47 43//41 47//45 48//48
f 52//49 51//50 50//51 48//48
f 47//45 52//49 48//48
f 50//51 51//50 54//52 53//53
f 51//50 55//54 54//52
f 55//54 57//55 56//56 54//52
f 58//57 44//44 57//55 55//54
f 59//58 50//51 53//53
f 61//59 60//60 59//58 53//53
f 63//61 62//62 60//60 61//59
f 60//60 62//62 64//63 49//47
f 66//64 65//65 62//62 63//61
f 54//52 56//56 61//59 53//53
f 50//51 59//58 48//48
f 52//49 47//45 46//46
f 58//57 52//49 46//46
f 38//35 34//34 27//25 67//66
f 68//67 38//35 67//66
f 28//28 30//30 65//65 66//64
f 69//68 26//26 28//28 66//64
f 67//66 27//25 26//26 69//68
f 33//31 11//9 10//10
f 25//22 71//69 70//70
f 25//22 23//24 22//21 21//19
f 71//69 25//22 21//19
f 24//23 25//22 70//70 6//6
f 7//5 24//23 6//6
f 15//13 71//69 21//19 17//15
f 6//6 70//70 13//11 8//8
f 19//17 20//20 1//71 72//72
f 2//4 4//3 9//7 73//73
f 1//71 2//4 73//73 72//72
f 14//14 35//33 12//12
f 14//14 16//16 27//25 34//34
f 35//33 14//14 34//34
f 12//12 35//33 33//31 10//10
f 18//18 19//17 72//72 29//27
f 73//73 9//7 11//9 31//29
f 72//72 73//73 31//29 29//27
f 38//35 68//67 39//38
f 65//65 30//30 32//32 36//37
f 45//43 68//67 67//66 74//74
f 39//38 68//67 45//43 40//40
f 74//74 67//66 69//68 75//75
f 36//37 37//36 41//39 64//63
f 62//62 65//65 36//37 64//63
f 75//75 69//68 66//64 63//61
f 44//44 45//43 74//74 57//55
f 42//42 44//44 58//57 46//46
f 51//50 52//49 58//57 55//54
f 57//55 74//74 75//75 56//56
f 64//63 41//39 43//41 49//47
f 59//58 60//60 49//47 48//48
f 56//56 75//75 63//61 61//59
f 70//70 71//69 15//13 13//11
f 1//71 20//76 76//77 2//4
f 5//2 3//1 77//78 78//79 22//21 23//24 24//23 7//5
f 77//78 3//1 2//4 76//77 1//80
f 22//21 78//79 20//20
s 0
f 1//81 77//81 78//81 20//81
