# Blender 5.0.0
# www.blender.org
mtllib prep_throw_arm0015.mtl
o Mball.001
v -0.758449 4.274893 0.392112
v -0.893421 4.573092 0.669522
v -0.565864 4.677672 0.660904
v -1.056698 4.930844 0.572667
v -0.601060 5.082761 0.517857
v -1.100942 5.033505 0.433230
v -0.598045 5.151312 0.484065
v -1.459824 4.767405 0.428545
v -1.413829 4.686298 0.548584
v -1.790211 4.510670 0.415092
v -1.752300 4.449068 0.509411
v -1.812755 4.443960 0.007707
v -1.443218 4.712261 0.027237
v -1.798271 4.413336 -0.026371
v -1.431058 4.688175 -0.000391
v -1.654375 4.045680 -0.127895
v -1.250912 4.345692 -0.122007
v -1.515113 3.808354 0.028059
v -1.121081 4.110168 0.016615
v -0.799705 4.370664 0.003747
v -0.912119 4.598855 -0.107596
v -0.571408 4.850120 -0.092670
v -0.596165 5.208718 0.083383
v -0.595635 5.216659 0.094546
v -0.916265 5.084297 0.044611
v -2.073772 3.673793 0.246295
v -2.182540 3.760371 0.156801
v -1.757384 3.840858 0.422885
v -1.436855 3.806772 0.397496
v -1.852445 3.930803 0.488733
v -1.559498 4.103335 0.610174
v -2.019989 4.181808 0.397039
v -1.895731 4.345582 0.401051
v -2.170430 4.069446 0.074110
v -1.905900 4.311019 -0.006749
v -2.081817 4.444840 0.458949
v -2.088855 4.448246 0.452834
v -2.345963 4.216755 0.213317
v -2.422156 4.292768 0.304734
v -2.630269 4.473028 0.576889
v -2.278741 4.647061 0.718026
v -2.838884 4.644749 0.844511
v -2.507909 4.795634 0.982171
v -2.900448 4.564640 0.838062
v -2.670742 4.416383 0.574115
v -3.042170 4.793566 1.123674
v -2.770857 4.924329 1.233914
v -2.635485 4.892470 1.324662
v -2.441617 4.784127 1.025103
v -2.651973 4.716625 1.533821
v -3.142969 4.582968 1.544369
v -3.083220 4.805021 1.198505
v -2.557453 4.557136 1.493645
v -2.906983 4.212609 1.416432
v -3.174264 4.312802 1.223532
v -2.697748 4.038225 1.150152
v -2.969479 4.149880 0.950436
v -3.087437 4.738034 1.117692
v -2.531994 4.690755 1.459322
v -2.288482 4.550622 1.200443
v -2.338770 4.342148 1.247826
v -2.057029 4.403394 0.937137
v -2.127201 4.157735 0.986601
v -2.240274 4.643659 0.741732
v -1.866271 4.200497 0.665396
v -1.927163 3.954182 0.710531
v -2.508646 3.854204 0.423063
v -2.442362 4.263096 0.304993
v -2.289796 3.734659 0.594815
v -1.078575 4.958950 0.027921
v -1.074531 4.953363 0.020076
v -1.077944 4.049531 0.415446
v -1.226773 4.339557 0.657711
v -2.736985 4.003264 0.687512
v -2.493524 3.885377 0.873020
v -1.002319 4.437024 0.200979
v -0.492519 4.401972 0.340934
v -0.510099 4.563519 -0.030675
vn 0.5412 -0.1048 0.8344
vn 0.5961 0.4894 0.6365
vn -0.2342 0.4813 0.8447
vn 0.1012 -0.1171 0.9879
vn 0.4644 0.7984 0.3833
vn -0.4452 0.8439 0.2994
vn -0.3670 0.4212 0.8294
vn -0.5796 0.7730 0.2580
vn -0.4895 0.3330 0.8059
vn -0.7030 0.6595 0.2662
vn -0.5188 0.7381 -0.4314
vn -0.6497 0.6530 -0.3893
vn -0.2823 0.4406 -0.8522
vn -0.3756 0.3370 -0.8633
vn 0.0715 -0.0603 -0.9956
vn -0.0781 -0.2401 -0.9676
vn 0.4785 -0.6454 -0.5954
vn 0.2701 -0.8295 -0.4889
vn 0.0712 -0.0147 -0.9974
vn 0.3762 -0.5104 -0.7733
vn 0.6040 0.1993 -0.7716
vn -0.3397 0.7194 -0.6058
vn 0.4648 0.8709 -0.1598
vn 0.5332 0.6209 -0.5746
vn -0.4591 -0.5679 -0.6832
vn -0.0549 -0.9828 -0.1763
vn 0.3349 -0.8488 0.4090
vn 0.2229 -0.8225 0.5233
vn -0.0951 -0.2370 0.9668
vn 0.6271 -0.0612 0.7765
vn -0.7577 0.4581 0.4649
vn 0.3846 0.9130 -0.1360
vn -0.4658 -0.3749 0.8015
vn -0.4901 0.2314 -0.8404
vn -0.4006 0.3670 -0.8395
vn 0.0992 0.7883 -0.6073
vn 0.5960 0.6938 -0.4044
vn -0.3309 0.6069 -0.7226
vn 0.1171 0.8728 -0.4738
vn -0.3495 0.6359 -0.6882
vn 0.0888 0.9123 -0.3998
vn -0.3562 0.6646 -0.6568
vn -0.6846 0.1990 -0.7012
vn -0.7007 0.2261 -0.6767
vn -0.1615 0.9825 0.0923
vn -0.4334 0.7368 -0.5190
vn 0.5355 0.8443 0.0175
vn 0.2664 0.8987 0.3485
vn -0.6926 0.7203 0.0379
vn -0.6508 0.1486 0.7446
vn 0.1586 0.4039 0.9009
vn -0.1673 -0.7019 0.6924
vn 0.4447 -0.2252 0.8669
vn -0.9116 -0.4103 -0.0254
vn -0.7801 -0.5545 -0.2897
vn -0.0734 -0.8681 0.4909
vn -0.8379 0.3138 -0.4467
vn 0.6818 0.3799 0.6252
vn 0.5764 -0.3553 0.7359
vn 0.7962 0.3423 0.4989
vn 0.5819 -0.4057 0.7048
vn 0.8455 0.3415 0.4105
vn 0.5691 0.8159 -0.1025
vn 0.6648 -0.4733 0.5779
vn 0.9546 0.2786 0.1055
vn -0.7056 -0.5778 -0.4102
vn -0.6732 0.1599 -0.7220
vn -0.0960 -0.9515 0.2923
vn -0.2713 0.4600 -0.8455
vn -0.4856 0.7604 -0.4312
vn 0.9540 -0.2089 0.2150
vn 0.5274 -0.7626 0.3746
vn 0.0628 -0.1833 0.9810
vn -0.7604 -0.5595 -0.3299
vn -0.1062 -0.8951 0.4331
vn 0.6243 0.7675 -0.1455
vn 0.7963 0.5612 0.2260
vn 0.8027 -0.3686 0.4688
vn 0.7658 -0.0403 -0.6418
vn -0.0433 -0.7326 0.6793
vn -0.4357 0.8418 0.3187
s 1
f 3//1 5//2 4//3 2//4
f 4//3 5//2 7//5 6//6
f 9//7 4//3 6//6 8//8
f 11//9 9//7 8//8 10//10
f 8//8 13//11 12//12 10//10
f 13//11 15//13 14//14 12//12
f 14//14 15//13 17//15 16//16
f 16//16 17//15 19//17 18//18
f 17//15 21//19 20//20 19//17
f 21//19 22//21 20//20
f 25//22 24//23 23//24
f 27//25 16//16 18//18 26//26
f 26//26 18//18 29//27 28//28
f 29//27 31//29 30//30 28//28
f 31//29 11//9 33//31 32//32
f 30//30 31//29 32//32
f 33//31 35//33 34//34 32//32
f 34//34 38//35 37//36 36//37
f 32//32 34//34 36//37
f 37//36 38//35 39//38
f 41//39 37//36 39//38 40//40
f 43//41 41//39 40//40 42//42
f 40//40 45//43 44//44 42//42
f 47//45 43//41 42//42 46//46
f 49//47 43//41 47//45 48//48
f 52//49 51//50 50//51 48//48
f 47//45 52//49 48//48
f 50//51 51//50 54//52 53//53
f 51//50 55//54 54//52
f 55//54 57//55 56//56 54//52
f 58//57 44//44 57//55 55//54
f 59//58 50//51 53//53
f 61//59 60//60 59//58 53//53
f 63//61 62//62 60//60 61//59
f 60//60 62//62 64//63 49//47
f 66//64 65//65 62//62 63//61
f 54//52 56//56 61//59 53//53
f 50//51 59//58 48//48
f 52//49 47//45 46//46
f 58//57 52//49 46//46
f 38//35 34//34 27//25 67//66
f 68//67 38//35 67//66
f 28//28 30//30 65//65 66//64
f 69//68 26//26 28//28 66//64
f 67//66 27//25 26//26 69//68
f 33//31 11//9 10//10
f 25//22 71//69 70//70
f 25//22 23//24 22//21 21//19
f 71//69 25//22 21//19
f 24//23 25//22 70//70 6//6
f 7//5 24//23 6//6
f 15//13 71//69 21//19 17//15
f 6//6 70//70 13//11 8//8
f 19//17 20//20 1//71 72//72
f 2//4 4//3 9//7 73//73
f 1//71 2//4 73//73 72//72
f 14//14 35//33 12//12
f 14//14 16//16 27//25 34//34
f 35//33 14//14 34//34
f 12//12 35//33 33//31 10//10
f 18//18 19//17 72//72 29//27
f 73//73 9//7 11//9 31//29
f 72//72 73//73 31//29 29//27
f 38//35 68//67 39//38
f 65//65 30//30 32//32 36//37
f 45//43 68//67 67//66 74//74
f 39//38 68//67 45//43 40//40
f 74//74 67//66 69//68 75//75
f 36//37 37//36 41//39 64//63
f 62//62 65//65 36//37 64//63
f 75//75 69//68 66//64 63//61
f 44//44 45//43 74//74 57//55
f 42//42 44//44 58//57 46//46
f 51//50 52//49 58//57 55//54
f 57//55 74//74 75//75 56//56
f 64//63 41//39 43//41 49//47
f 59//58 60//60 49//47 48//48
f 56//56 75//75 63//61 61//59
f 70//70 71//69 15//13 13//11
f 1//71 20//76 76//77 2//4
f 5//2 3//1 77//78 78//79 22//21 23//24 24//23 7//5
f 77//78 3//1 2//4 76//77 1//80
f 22//21 78//79 20//20
s 0
f 1//81 77//81 78//81 20//81
