# Blender 5.0.0
# www.blender.org
mtllib prep_throw_arm0005.mtl
o Mball.001
v -0.600880 4.240582 0.336721
v -0.648007 4.463305 0.677296
v -0.463050 4.654583 0.625932
v -0.888954 4.793041 0.682726
v -0.587045 5.070855 0.527709
v -0.996065 4.901011 0.579376
v -0.590269 5.141705 0.494539
v -1.270589 4.540281 0.672312
v -1.164141 4.455378 0.755468
v -1.541391 4.217609 0.734601
v -1.456006 4.152908 0.799052
v -1.733538 4.207258 0.358241
v -1.428103 4.545297 0.295090
v -1.731054 4.184915 0.317085
v -1.426304 4.528619 0.262505
v -1.589144 3.879006 0.117098
v -1.271787 4.255135 0.044056
v -1.358593 3.664139 0.179465
v -1.059855 4.037274 0.094499
v -0.805116 4.371160 0.006788
v -0.983960 4.581562 -0.027371
v -0.635547 4.875618 -0.089368
v -0.612993 5.206961 0.098345
v -0.611275 5.214612 0.109145
v -0.964035 5.044269 0.145570
v -1.718189 3.347357 0.495498
v -1.872659 3.403261 0.460574
v -1.417166 3.591794 0.640592
v -1.127626 3.632910 0.500129
v -1.492627 3.633853 0.747446
v -1.188869 3.852810 0.780043
v -1.721521 3.844017 0.753760
v -1.623361 4.036180 0.735516
v -1.977772 3.714603 0.468328
v -1.804960 4.060762 0.355116
v -1.853405 3.978811 0.913115
v -1.863009 3.979554 0.909672
v -2.120552 3.720809 0.676907
v -2.172060 3.721136 0.796103
v -2.295012 3.695834 1.134879
v -1.978385 3.967714 1.239181
v -2.418144 3.666234 1.468346
v -2.114391 3.909375 1.567145
v -2.452025 3.569482 1.452354
v -2.315556 3.628287 1.124548
v -2.525375 3.615468 1.804565
v -2.279452 3.821786 1.885229
v -2.114545 3.828589 1.929929
v -2.035415 3.916759 1.588846
v -1.993787 3.601988 2.071588
v -2.382629 3.253592 2.144393
v -2.534217 3.583199 1.883779
v -1.881725 3.518686 1.970224
v -2.122022 3.078571 1.874375
v -2.463825 3.102059 1.784411
v -1.997041 3.105710 1.541228
v -2.348791 3.139286 1.449317
v -2.551751 3.547664 1.792652
v -1.911390 3.658191 1.972231
v -1.763047 3.728950 1.648462
v -1.728553 3.508301 1.641956
v -1.625075 3.789268 1.321167
v -1.596609 3.526171 1.310014
v -1.933981 3.975241 1.251624
v -1.514087 3.793662 0.986412
v -1.478688 3.527888 0.965996
v -2.074631 3.258127 0.794121
v -2.181232 3.685068 0.791782
v -1.778462 3.201761 0.869503
v -1.123440 4.878712 0.193913
v -1.121791 4.875602 0.183646
v -0.832640 3.932520 0.435355
v -0.897272 4.145450 0.746093
v -2.209924 3.200505 1.122326
v -1.887012 3.152751 1.205493
v -1.002319 4.437024 0.200979
v -0.437974 4.419937 0.271954
v -0.542940 4.601207 -0.070096
vn 0.7067 -0.0746 0.7035
vn 0.6216 0.4947 0.6073
vn -0.0360 0.3479 0.9369
vn 0.4531 -0.1769 0.8737
vn 0.3862 0.8680 0.3123
vn -0.4569 0.6944 0.5559
vn -0.0957 0.2601 0.9608
vn -0.5393 0.5854 0.6053
vn -0.1900 0.1607 0.9685
vn -0.6117 0.4667 0.6388
vn -0.7544 0.6560 -0.0217
vn -0.8322 0.5529 0.0417
vn -0.6629 0.4670 -0.5853
vn -0.7285 0.3560 -0.5852
vn -0.2911 0.0495 -0.9554
vn -0.3693 -0.1307 -0.9201
vn 0.3169 -0.4567 -0.8312
vn 0.2364 -0.6644 -0.7090
vn -0.2917 0.0865 -0.9526
vn 0.1503 -0.3400 -0.9284
vn 0.3790 0.3168 -0.8695
vn -0.5746 0.7334 -0.3632
vn 0.3463 0.9160 -0.2026
vn 0.3837 0.6858 -0.6184
vn -0.4762 -0.5326 -0.6997
vn 0.1861 -0.8627 -0.4702
vn 0.6058 -0.7921 0.0742
vn 0.6180 -0.7598 0.2019
vn 0.3174 -0.3537 0.8799
vn 0.8179 0.1255 0.5615
vn -0.5645 0.2535 0.7856
vn -0.0090 0.9792 0.2029
vn -0.7612 0.0689 -0.6448
vn -0.8062 0.2453 -0.5384
vn -0.7878 0.3572 -0.5019
vn -0.4249 0.8784 -0.2189
vn 0.1320 0.9757 -0.1748
vn -0.7737 0.5632 -0.2901
vn -0.3783 0.9245 -0.0467
vn -0.7814 0.5767 -0.2382
vn -0.3798 0.9244 0.0352
vn -0.7802 0.5936 -0.1973
vn -0.9273 0.0564 -0.3701
vn -0.9411 0.0687 -0.3311
vn -0.4338 0.7497 0.4997
vn -0.8105 0.5855 -0.0189
vn 0.1788 0.9475 0.2651
vn 0.0532 0.7914 0.6090
vn -0.8061 0.3258 0.4941
vn -0.3438 -0.3223 0.8820
vn 0.3047 0.2035 0.9304
vn 0.3382 -0.8586 0.3852
vn 0.7787 -0.2203 0.5875
vn -0.6794 -0.7327 0.0411
vn -0.5996 -0.7358 -0.3147
vn 0.4156 -0.9070 0.0686
vn -0.9978 0.0447 -0.0480
vn 0.6793 0.4673 0.5659
vn 0.8995 -0.2491 0.3590
vn 0.7589 0.5094 0.4057
vn 0.9095 -0.2845 0.3032
vn 0.7748 0.5441 0.3220
vn 0.1772 0.9727 0.1499
vn 0.9447 -0.2966 0.1402
vn 0.8031 0.5941 0.0455
vn -0.5657 -0.6913 -0.4496
vn -0.9089 0.0284 -0.4160
vn 0.3517 -0.9266 -0.1330
vn -0.6663 0.4766 -0.5734
vn -0.7091 0.7040 -0.0394
vn 0.9778 -0.0382 -0.2059
vn 0.7509 -0.6602 -0.0148
vn 0.4800 -0.2564 0.8389
vn -0.5905 -0.7216 -0.3614
vn 0.3755 -0.9268 0.0075
vn 0.4894 0.8411 -0.2303
vn 0.7650 0.6439 0.0139
vn 0.8873 -0.3783 0.2638
vn 0.6246 0.0730 -0.7776
vn 0.1831 -0.8181 0.5452
vn -0.4826 0.6884 0.5415
s 1
f 3//1 5//2 4//3 2//4
f 4//3 5//2 7//5 6//6
f 9//7 4//3 6//6 8//8
f 11//9 9//7 8//8 10//10
f 8//8 13//11 12//12 10//10
f 13//11 15//13 14//14 12//12
f 14//14 15//13 17//15 16//16
f 16//16 17//15 19//17 18//18
f 17//15 21//19 20//20 19//17
f 21//19 22//21 20//20
f 25//22 24//23 23//24
f 27//25 16//16 18//18 26//26
f 26//26 18//18 29//27 28//28
f 29//27 31//29 30//30 28//28
f 31//29 11//9 33//31 32//32
f 30//30 31//29 32//32
f 33//31 35//33 34//34 32//32
f 34//34 38//35 37//36 36//37
f 32//32 34//34 36//37
f 37//36 38//35 39//38
f 41//39 37//36 39//38 40//40
f 43//41 41//39 40//40 42//42
f 40//40 45//43 44//44 42//42
f 47//45 43//41 42//42 46//46
f 49//47 43//41 47//45 48//48
f 52//49 51//50 50//51 48//48
f 47//45 52//49 48//48
f 50//51 51//50 54//52 53//53
f 51//50 55//54 54//52
f 55//54 57//55 56//56 54//52
f 58//57 44//44 57//55 55//54
f 59//58 50//51 53//53
f 61//59 60//60 59//58 53//53
f 63//61 62//62 60//60 61//59
f 60//60 62//62 64//63 49//47
f 66//64 65//65 62//62 63//61
f 54//52 56//56 61//59 53//53
f 50//51 59//58 48//48
f 52//49 47//45 46//46
f 58//57 52//49 46//46
f 38//35 34//34 27//25 67//66
f 68//67 38//35 67//66
f 28//28 30//30 65//65 66//64
f 69//68 26//26 28//28 66//64
f 67//66 27//25 26//26 69//68
f 33//31 11//9 10//10
f 25//22 71//69 70//70
f 25//22 23//24 22//21 21//19
f 71//69 25//22 21//19
f 24//23 25//22 70//70 6//6
f 7//5 24//23 6//6
f 15//13 71//69 21//19 17//15
f 6//6 70//70 13//11 8//8
f 19//17 20//20 1//71 72//72
f 2//4 4//3 9//7 73//73
f 1//71 2//4 73//73 72//72
f 14//14 35//33 12//12
f 14//14 16//16 27//25 34//34
f 35//33 14//14 34//34
f 12//12 35//33 33//31 10//10
f 18//18 19//17 72//72 29//27
f 73//73 9//7 11//9 31//29
f 72//72 73//73 31//29 29//27
f 38//35 68//67 39//38
f 65//65 30//30 32//32 36//37
f 45//43 68//67 67//66 74//74
f 39//38 68//67 45//43 40//40
f 74//74 67//66 69//68 75//75
f 36//37 37//36 41//39 64//63
f 62//62 65//65 36//37 64//63
f 75//75 69//68 66//64 63//61
f 44//44 45//43 74//74 57//55
f 42//42 44//44 58//57 46//46
f 51//50 52//49 58//57 55//54
f 57//55 74//74 75//75 56//56
f 64//63 41//39 43//41 49//47
f 59//58 60//60 49//47 48//48
f 56//56 75//75 63//61 61//59
f 70//70 71//69 15//13 13//11
f 1//71 20//76 76//77 2//4
f 5//2 3//1 77//78 78//79 22//21 23//24 24//23 7//5
f 77//78 3//1 2//4 76//77 1//80
f 22//21 78//79 20//20
s 0
f 1//81 77//81 78//81 20//81
