# Blender 5.0.0
# www.blender.org
mtllib prep_throw_arm0032.mtl
o Mball.001
v -0.829746 4.345021 0.454957
v -0.981998 4.714535 0.658484
v -0.607653 4.740316 0.662398
v -1.097962 5.042139 0.493038
v -0.603752 5.094499 0.505317
v -1.113530 5.110096 0.338984
v -0.598508 5.158922 0.472737
v -1.490461 4.887074 0.308658
v -1.472444 4.839024 0.444277
v -1.836494 4.643186 0.287870
v -1.819964 4.610685 0.394381
v -1.803850 4.452846 -0.087375
v -1.409957 4.719432 -0.067516
v -1.786239 4.416799 -0.112273
v -1.395277 4.687367 -0.088343
v -1.669577 4.036055 -0.111146
v -1.225950 4.307846 -0.122199
v -1.581052 3.850228 0.102954
v -1.141789 4.109459 0.069448
v -0.804172 4.342043 0.061848
v -0.878548 4.541043 -0.096514
v -0.548713 4.808580 -0.081147
v -0.587358 5.200742 0.074493
v -0.587308 5.209394 0.085687
v -0.882717 5.061611 -0.001879
v -2.200720 3.943098 0.302652
v -2.285665 3.972567 0.179881
v -1.849641 4.048506 0.407061
v -1.557344 3.938464 0.456231
v -1.945711 4.109618 0.430429
v -1.678383 4.288487 0.578930
v -2.074293 4.320064 0.273000
v -1.950148 4.475553 0.282276
v -2.194829 4.123940 -0.020013
v -1.912567 4.306853 -0.086314
v -1.972316 4.620549 0.099877
v -1.977779 4.622211 0.092161
v -2.301416 4.378417 -0.019441
v -2.341357 4.530640 -0.000287
v -2.457337 4.953075 0.084166
v -2.062817 5.069319 0.158871
v -2.576594 5.365407 0.168955
v -2.208794 5.469805 0.249338
v -2.659664 5.325732 0.194308
v -2.513069 4.925443 0.103916
v -2.697063 5.769559 0.274657
v -2.393570 5.857893 0.335070
v -2.269488 5.864172 0.440414
v -2.146878 5.474473 0.297754
v -2.322477 5.920850 0.683212
v -2.822203 6.006124 0.681542
v -2.725667 5.853537 0.319181
v -2.287230 5.744418 0.746612
v -2.727801 5.562090 0.805135
v -2.962289 5.564208 0.568263
v -2.608684 5.148808 0.722778
v -2.844318 5.154772 0.474377
v -2.757194 5.741699 0.290689
v -2.224577 5.799939 0.658303
v -2.062124 5.404717 0.569846
v -2.170262 5.316635 0.701330
v -1.913523 5.005070 0.479699
v -2.051676 4.899771 0.628131
v -2.025967 5.073302 0.184429
v -1.823987 4.540680 0.401851
v -1.948532 4.447540 0.545733
v -2.549496 4.354717 0.293792
v -2.369349 4.517583 0.011413
v -2.368060 4.338385 0.516790
v -1.036636 4.937696 -0.041854
v -1.032227 4.930152 -0.047399
v -1.172873 4.160680 0.469957
v -1.336497 4.521305 0.633312
v -2.694521 4.755507 0.384376
v -2.488429 4.743216 0.620756
v -1.002319 4.437024 0.200979
v -0.524768 4.425218 0.383263
v -0.506657 4.534248 0.008758
vn 0.4726 -0.0442 0.8801
vn 0.6118 0.5272 0.5897
vn -0.2709 0.6458 0.7138
vn -0.0270 0.0510 0.9983
vn 0.4946 0.7951 0.3509
vn -0.3871 0.9200 0.0616
vn -0.4525 0.6098 0.6506
vn -0.5344 0.8439 -0.0485
vn -0.6078 0.5048 0.6130
vn -0.6928 0.7196 -0.0465
vn -0.3666 0.6425 -0.6729
vn -0.5381 0.5577 -0.6320
vn -0.1213 0.2775 -0.9530
vn -0.2462 0.1446 -0.9584
vn 0.1945 -0.2677 -0.9437
vn -0.0120 -0.5241 -0.8516
vn 0.4869 -0.8010 -0.3483
vn 0.1668 -0.9689 -0.1829
vn 0.2320 -0.1870 -0.9546
vn 0.4490 -0.6793 -0.5805
vn 0.6716 0.0990 -0.7343
vn -0.2142 0.6105 -0.7625
vn 0.5097 0.8399 -0.1865
vn 0.5748 0.5786 -0.5786
vn -0.6399 -0.6949 -0.3281
vn -0.3617 -0.8598 0.3605
vn 0.1313 -0.7562 0.6410
vn -0.0476 -0.6219 0.7817
vn -0.2846 -0.0504 0.9573
vn 0.4223 -0.2407 0.8739
vn -0.8179 0.5392 0.2006
vn 0.4560 0.3696 -0.8096
vn -0.4600 0.5901 0.6634
vn -0.3662 -0.1703 -0.9148
vn -0.3027 -0.0913 -0.9487
vn 0.3383 0.1711 -0.9254
vn 0.7411 0.0214 -0.6710
vn -0.1069 0.1238 -0.9865
vn 0.3718 0.2718 -0.8876
vn -0.1141 0.1600 -0.9805
vn 0.3529 0.3451 -0.8697
vn -0.1118 0.1949 -0.9744
vn -0.6009 -0.0355 -0.7985
vn -0.5996 -0.0008 -0.8003
vn 0.2012 0.7618 -0.6158
vn -0.1416 0.3167 -0.9379
vn 0.7702 0.4078 -0.4904
vn 0.5935 0.7212 -0.3572
vn -0.3757 0.6873 -0.6217
vn -0.4960 0.7948 0.3497
vn 0.3879 0.8066 0.4459
vn -0.3335 -0.0538 0.9412
vn 0.3929 0.1763 0.9025
vn -0.9955 -0.0382 0.0871
vn -0.9525 -0.3038 0.0189
vn -0.3214 -0.2833 0.9036
vn -0.6645 0.2088 -0.7175
vn 0.8504 0.4122 0.3270
vn 0.4444 -0.0181 0.8956
vn 0.9212 0.2745 0.2758
vn 0.4274 -0.0706 0.9013
vn 0.9545 0.2042 0.2173
vn 0.7769 0.3077 -0.5494
vn 0.5148 -0.1999 0.8337
vn 0.9957 -0.0762 -0.0518
vn -0.9047 -0.4244 -0.0370
vn -0.6087 -0.0773 -0.7896
vn -0.3913 -0.4323 0.8124
vn -0.0514 0.3188 -0.9464
vn -0.3149 0.6666 -0.6756
vn 0.8908 -0.2051 0.4055
vn 0.3798 -0.6883 0.6180
vn -0.1024 0.0132 0.9947
vn -0.9425 -0.3343 0.0010
vn -0.3625 -0.3187 0.8758
vn 0.6926 0.6863 -0.2220
vn 0.8175 0.5528 0.1616
vn 0.7748 -0.2933 0.5600
vn 0.7747 -0.1433 -0.6158
vn -0.1683 -0.6060 0.7774
vn -0.3918 0.9142 0.1040
s 1
f 3//1 5//2 4//3 2//4
f 4//3 5//2 7//5 6//6
f 9//7 4//3 6//6 8//8
f 11//9 9//7 8//8 10//10
f 8//8 13//11 12//12 10//10
f 13//11 15//13 14//14 12//12
f 14//14 15//13 17//15 16//16
f 16//16 17//15 19//17 18//18
f 17//15 21//19 20//20 19//17
f 21//19 22//21 20//20
f 25//22 24//23 23//24
f 27//25 16//16 18//18 26//26
f 26//26 18//18 29//27 28//28
f 29//27 31//29 30//30 28//28
f 31//29 11//9 33//31 32//32
f 30//30 31//29 32//32
f 33//31 35//33 34//34 32//32
f 34//34 38//35 37//36 36//37
f 32//32 34//34 36//37
f 37//36 38//35 39//38
f 41//39 37//36 39//38 40//40
f 43//41 41//39 40//40 42//42
f 40//40 45//43 44//44 42//42
f 47//45 43//41 42//42 46//46
f 49//47 43//41 47//45 48//48
f 52//49 51//50 50//51 48//48
f 47//45 52//49 48//48
f 50//51 51//50 54//52 53//53
f 51//50 55//54 54//52
f 55//54 57//55 56//56 54//52
f 58//57 44//44 57//55 55//54
f 59//58 50//51 53//53
f 61//59 60//60 59//58 53//53
f 63//61 62//62 60//60 61//59
f 60//60 62//62 64//63 49//47
f 66//64 65//65 62//62 63//61
f 54//52 56//56 61//59 53//53
f 50//51 59//58 48//48
f 52//49 47//45 46//46
f 58//57 52//49 46//46
f 38//35 34//34 27//25 67//66
f 68//67 38//35 67//66
f 28//28 30//30 65//65 66//64
f 69//68 26//26 28//28 66//64
f 67//66 27//25 26//26 69//68
f 33//31 11//9 10//10
f 25//22 71//69 70//70
f 25//22 23//24 22//21 21//19
f 71//69 25//22 21//19
f 24//23 25//22 70//70 6//6
f 7//5 24//23 6//6
f 15//13 71//69 21//19 17//15
f 6//6 70//70 13//11 8//8
f 19//17 20//20 1//71 72//72
f 2//4 4//3 9//7 73//73
f 1//71 2//4 73//73 72//72
f 14//14 35//33 12//12
f 14//14 16//16 27//25 34//34
f 35//33 14//14 34//34
f 12//12 35//33 33//31 10//10
f 18//18 19//17 72//72 29//27
f 73//73 9//7 11//9 31//29
f 72//72 73//73 31//29 29//27
f 38//35 68//67 39//38
f 65//65 30//30 32//32 36//37
f 45//43 68//67 67//66 74//74
f 39//38 68//67 45//43 40//40
f 74//74 67//66 69//68 75//75
f 36//37 37//36 41//39 64//63
f 62//62 65//65 36//37 64//63
f 75//75 69//68 66//64 63//61
f 44//44 45//43 74//74 57//55
f 42//42 44//44 58//57 46//46
f 51//50 52//49 58//57 55//54
f 57//55 74//74 75//75 56//56
f 64//63 41//39 43//41 49//47
f 59//58 60//60 49//47 48//48
f 56//56 75//75 63//61 61//59
f 70//70 71//69 15//13 13//11
f 1//71 20//76 76//77 2//4
f 5//2 3//1 77//78 78//79 22//21 23//24 24//23 7//5
f 77//78 3//1 2//4 76//77 1//80
f 22//21 78//79 20//20
s 0
f 1//81 77//81 78//81 20//81
