# Blender 5.0.0
# www.blender.org
mtllib prep_throw_arm0037.mtl
o Mball.001
v -0.829746 4.345021 0.454957
v -0.981998 4.714535 0.658484
v -0.607653 4.740316 0.662398
v -1.097962 5.042139 0.493038
v -0.603752 5.094499 0.505317
v -1.113530 5.110096 0.338984
v -0.598508 5.158922 0.472737
v -1.490461 4.887074 0.308658
v -1.472444 4.839024 0.444277
v -1.837380 4.640357 0.288470
v -1.820567 4.608633 0.394740
v -1.806986 4.447785 -0.083330
v -1.409957 4.719432 -0.067516
v -1.789118 4.412825 -0.108297
v -1.395277 4.687367 -0.088343
v -1.673273 4.037592 -0.103470
v -1.225950 4.307846 -0.122199
v -1.584129 3.855572 0.110919
v -1.141789 4.109459 0.069448
v -0.804172 4.342043 0.061848
v -0.878548 4.541043 -0.096514
v -0.548713 4.808580 -0.081147
v -0.587358 5.200742 0.074493
v -0.587308 5.209394 0.085687
v -0.882717 5.061611 -0.001879
v -2.200710 3.980510 0.317135
v -2.288994 3.996994 0.195726
v -1.843638 4.064315 0.401690
v -1.559061 3.941156 0.460563
v -1.943619 4.108449 0.425969
v -1.679138 4.286901 0.579762
v -2.073935 4.312332 0.269317
v -1.951293 4.470137 0.282369
v -2.199736 4.110385 -0.015870
v -1.918237 4.297443 -0.079101
v -1.949539 4.593455 0.045748
v -1.955105 4.594687 0.038062
v -2.293144 4.363878 -0.040921
v -2.324674 4.519323 -0.036627
v -2.415859 4.958809 0.006941
v -2.013472 5.059279 0.060465
v -2.510655 5.388816 0.051729
v -2.135323 5.480288 0.112676
v -2.594624 5.359267 0.082729
v -2.472144 4.938425 0.030558
v -2.606298 5.814195 0.118107
v -2.296700 5.890882 0.162311
v -2.168635 5.905756 0.263359
v -2.071496 5.488558 0.158829
v -2.209559 6.004770 0.499458
v -2.703917 6.122748 0.500181
v -2.628894 5.906477 0.154342
v -2.181026 5.837984 0.579456
v -2.627766 5.696781 0.665735
v -2.870477 5.676395 0.435889
v -2.533068 5.266236 0.623457
v -2.777155 5.247869 0.381817
v -2.667122 5.793279 0.138159
v -2.118970 5.874408 0.484888
v -1.980335 5.457822 0.433771
v -2.087828 5.399232 0.575452
v -1.855810 5.037518 0.381734
v -1.993501 4.966660 0.542628
v -1.975545 5.064867 0.084582
v -1.793448 4.551454 0.347531
v -1.916187 4.495804 0.502486
v -2.530531 4.406622 0.277584
v -2.352840 4.510194 -0.023074
v -2.342001 4.414281 0.496293
v -1.036636 4.937696 -0.041854
v -1.032227 4.930152 -0.047399
v -1.172873 4.160680 0.469957
v -1.336497 4.521305 0.633312
v -2.651413 4.827886 0.329859
v -2.437574 4.840043 0.560879
v -1.002319 4.437024 0.200979
v -0.524768 4.425218 0.383263
v -0.506657 4.534248 0.008758
vn 0.4726 -0.0442 0.8801
vn 0.6118 0.5272 0.5897
vn -0.2709 0.6458 0.7138
vn -0.0270 0.0510 0.9983
vn 0.4946 0.7951 0.3509
vn -0.3871 0.9200 0.0616
vn -0.4534 0.6100 0.6499
vn -0.5364 0.8425 -0.0495
vn -0.6118 0.5020 0.6113
vn -0.6968 0.7157 -0.0476
vn -0.3704 0.6407 -0.6725
vn -0.5470 0.5520 -0.6293
vn -0.1267 0.2758 -0.9528
vn -0.2571 0.1336 -0.9571
vn 0.1886 -0.2727 -0.9434
vn -0.0222 -0.5508 -0.8343
vn 0.4803 -0.8044 -0.3497
vn 0.1449 -0.9755 -0.1659
vn 0.2320 -0.1870 -0.9546
vn 0.4490 -0.6793 -0.5805
vn 0.6716 0.0990 -0.7343
vn -0.2142 0.6105 -0.7625
vn 0.5097 0.8399 -0.1865
vn 0.5748 0.5786 -0.5786
vn -0.6773 -0.6918 -0.2504
vn -0.3897 -0.8092 0.4396
vn 0.1150 -0.7593 0.6405
vn -0.0428 -0.6163 0.7864
vn -0.2926 -0.0582 0.9545
vn 0.3373 -0.3419 0.8771
vn -0.8248 0.5282 0.2016
vn 0.2232 0.1634 -0.9610
vn -0.4897 0.6344 0.5980
vn -0.3744 -0.2494 -0.8931
vn -0.3399 -0.1781 -0.9234
vn 0.3219 0.0542 -0.9452
vn 0.7141 -0.0997 -0.6929
vn -0.1279 0.0284 -0.9914
vn 0.3578 0.1557 -0.9207
vn -0.1326 0.0654 -0.9890
vn 0.3411 0.2301 -0.9114
vn -0.1278 0.1000 -0.9868
vn -0.6295 -0.0833 -0.7725
vn -0.6251 -0.0495 -0.7790
vn 0.2248 0.6601 -0.7168
vn -0.1476 0.2224 -0.9637
vn 0.7671 0.3070 -0.5632
vn 0.6172 0.6293 -0.4723
vn -0.3524 0.6222 -0.6990
vn -0.4364 0.8617 0.2588
vn 0.4516 0.8311 0.3244
vn -0.3042 0.0666 0.9503
vn 0.4344 0.2488 0.8657
vn -0.9927 0.0280 0.1174
vn -0.9659 -0.2445 0.0847
vn -0.3044 -0.1684 0.9375
vn -0.6688 0.1669 -0.7245
vn 0.8864 0.3960 0.2398
vn 0.4724 0.0489 0.8800
vn 0.9459 0.2490 0.2081
vn 0.4521 -0.0029 0.8920
vn 0.9722 0.1712 0.1600
vn 0.7678 0.2018 -0.6080
vn 0.5324 -0.1436 0.8342
vn 0.9855 -0.1391 -0.0967
vn -0.9257 -0.3756 0.0455
vn -0.6400 -0.1252 -0.7581
vn -0.3830 -0.3192 0.8668
vn -0.0514 0.3188 -0.9464
vn -0.3149 0.6666 -0.6756
vn 0.8908 -0.2051 0.4055
vn 0.3800 -0.6897 0.6164
vn -0.1018 0.0145 0.9947
vn -0.9580 -0.2774 0.0719
vn -0.3472 -0.2041 0.9153
vn 0.6926 0.6863 -0.2220
vn 0.8175 0.5528 0.1616
vn 0.7748 -0.2933 0.5600
vn 0.7747 -0.1433 -0.6158
vn -0.1683 -0.6060 0.7774
vn -0.3918 0.9142 0.1040
s 1
f 3//1 5//2 4//3 2//4
f 4//3 5//2 7//5 6//6
f 9//7 4//3 6//6 8//8
f 11//9 9//7 8//8 10//10
f 8//8 13//11 12//12 10//10
f 13//11 15//13 14//14 12//12
f 14//14 15//13 17//15 16//16
f 16//16 17//15 19//17 18//18
f 17//15 21//19 20//20 19//17
f 21//19 22//21 20//20
f 25//22 24//23 23//24
f 27//25 16//16 18//18 26//26
f 26//26 18//18 29//27 28//28
f 29//27 31//29 30//30 28//28
f 31//29 11//9 33//31 32//32
f 30//30 31//29 32//32
f 33//31 35//33 34//34 32//32
f 34//34 38//35 37//36 36//37
f 32//32 34//34 36//37
f 37//36 38//35 39//38
f 41//39 37//36 39//38 40//40
f 43//41 41//39 40//40 42//42
f 40//40 45//43 44//44 42//42
f 47//45 43//41 42//42 46//46
f 49//47 43//41 47//45 48//48
f 52//49 51//50 50//51 48//48
f 47//45 52//49 48//48
f 50//51 51//50 54//52 53//53
f 51//50 55//54 54//52
f 55//54 57//55 56//56 54//52
f 58//57 44//44 57//55 55//54
f 59//58 50//51 53//53
f 61//59 60//60 59//58 53//53
f 63//61 62//62 60//60 61//59
f 60//60 62//62 64//63 49//47
f 66//64 65//65 62//62 63//61
f 54//52 56//56 61//59 53//53
f 50//51 59//58 48//48
f 52//49 47//45 46//46
f 58//57 52//49 46//46
f 38//35 34//34 27//25 67//66
f 68//67 38//35 67//66
f 28//28 30//30 65//65 66//64
f 69//68 26//26 28//28 66//64
f 67//66 27//25 26//26 69//68
f 33//31 11//9 10//10
f 25//22 71//69 70//70
f 25//22 23//24 22//21 21//19
f 71//69 25//22 21//19
f 24//23 25//22 70//70 6//6
f 7//5 24//23 6//6
f 15//13 71//69 21//19 17//15
f 6//6 70//70 13//11 8//8
f 19//17 20//20 1//71 72//72
f 2//4 4//3 9//7 73//73
f 1//71 2//4 73//73 72//72
f 14//14 35//33 12//12
f 14//14 16//16 27//25 34//34
f 35//33 14//14 34//34
f 12//12 35//33 33//31 10//10
f 18//18 19//17 72//72 29//27
f 73//73 9//7 11//9 31//29
f 72//72 73//73 31//29 29//27
f 38//35 68//67 39//38
f 65//65 30//30 32//32 36//37
f 45//43 68//67 67//66 74//74
f 39//38 68//67 45//43 40//40
f 74//74 67//66 69//68 75//75
f 36//37 37//36 41//39 64//63
f 62//62 65//65 36//37 64//63
f 75//75 69//68 66//64 63//61
f 44//44 45//43 74//74 57//55
f 42//42 44//44 58//57 46//46
f 51//50 52//49 58//57 55//54
f 57//55 74//74 75//75 56//56
f 64//63 41//39 43//41 49//47
f 59//58 60//60 49//47 48//48
f 56//56 75//75 63//61 61//59
f 70//70 71//69 15//13 13//11
f 1//71 20//76 76//77 2//4
f 5//2 3//1 77//78 78//79 22//21 23//24 24//23 7//5
f 77//78 3//1 2//4 76//77 1//80
f 22//21 78//79 20//20
s 0
f 1//81 77//81 78//81 20//81
