# Blender 5.0.0
# www.blender.org
mtllib prep_throw_arm0002.mtl
o Mball.001
v -0.574593 4.241436 0.327438
v -0.602528 4.457631 0.672688
v -0.446392 4.657363 0.616462
v -0.852105 4.778382 0.695110
v -0.584009 5.069891 0.528338
v -0.968644 4.883356 0.599399
v -0.588322 5.140711 0.495544
v -1.221682 4.508269 0.708862
v -1.106288 4.426470 0.784351
v -1.476843 4.174373 0.785090
v -1.384479 4.112225 0.843399
v -1.697850 4.161331 0.421006
v -1.409290 4.511982 0.342789
v -1.697883 4.139652 0.379491
v -1.409621 4.495829 0.310003
v -1.561576 3.842936 0.167431
v -1.264840 4.231578 0.079698
v -1.319771 3.637701 0.213492
v -1.042772 4.021511 0.114604
v -0.805074 4.367317 0.012931
v -0.991800 4.570818 -0.007800
v -0.646962 4.875806 -0.086233
v -0.615244 5.205694 0.101053
v -0.613331 5.213370 0.111754
v -0.966933 5.033501 0.163690
v -1.636282 3.300864 0.543135
v -1.795208 3.346764 0.516764
v -1.341836 3.561324 0.680138
v -1.064169 3.612117 0.519968
v -1.410744 3.594454 0.790454
v -1.110473 3.823936 0.805131
v -1.645076 3.793242 0.812294
v -1.553407 3.989923 0.789541
v -1.916626 3.650528 0.537261
v -1.764413 4.011684 0.420375
v -1.781161 3.907993 0.982924
v -1.791000 3.908035 0.979910
v -2.046928 3.638043 0.752388
v -2.090972 3.629452 0.873493
v -2.191037 3.581909 1.216385
v -1.885253 3.873132 1.313013
v -2.291388 3.530708 1.554089
v -1.997066 3.792500 1.645073
v -2.320395 3.432250 1.537184
v -2.208138 3.513376 1.205273
v -2.374470 3.459499 1.893268
v -2.136703 3.680867 1.967848
v -1.970045 3.698469 2.005095
v -1.917478 3.805035 1.663311
v -1.827554 3.476368 2.135122
v -2.189825 3.096806 2.216596
v -2.376479 3.423712 1.971904
v -1.717218 3.405530 2.026677
v -1.936456 2.951992 1.930659
v -2.283951 2.952895 1.857105
v -1.834097 3.000867 1.593126
v -2.192221 3.011150 1.518345
v -2.397465 3.390327 1.880837
v -1.754922 3.542336 2.033632
v -1.631294 3.636132 1.705515
v -1.584247 3.418935 1.691758
v -1.517598 3.718861 1.374084
v -1.474327 3.459049 1.354870
v -1.840690 3.883537 1.323595
v -1.428389 3.745026 1.035688
v -1.378750 3.482599 1.006558
v -1.966538 3.174706 0.854912
v -2.098246 3.592832 0.868623
v -1.663461 3.138103 0.915151
v -1.121915 4.859889 0.223604
v -1.120831 4.857041 0.213087
v -0.785446 3.921124 0.439396
v -0.831286 4.127141 0.755548
v -2.077669 3.094834 1.187199
v -1.747976 3.068555 1.254207
v -1.002319 4.437024 0.200979
v -0.431812 4.426188 0.260086
v -0.550971 4.605218 -0.074102
vn 0.7353 -0.0583 0.6753
vn 0.6287 0.4996 0.5959
vn 0.0079 0.3390 0.9407
vn 0.5163 -0.1674 0.8399
vn 0.3654 0.8838 0.2922
vn -0.4481 0.6722 0.5893
vn -0.0418 0.2496 0.9674
vn -0.5170 0.5578 0.6492
vn -0.1323 0.1469 0.9803
vn -0.5812 0.4379 0.6859
vn -0.7761 0.6289 0.0468
vn -0.8449 0.5228 0.1130
vn -0.7197 0.4524 -0.5267
vn -0.7811 0.3384 -0.5248
vn -0.3561 0.0490 -0.9332
vn -0.4211 -0.1342 -0.8970
vn 0.2784 -0.4364 -0.8556
vn 0.2203 -0.6455 -0.7313
vn -0.3541 0.0878 -0.9311
vn 0.1041 -0.3241 -0.9403
vn 0.3335 0.3311 -0.8827
vn -0.6086 0.7246 -0.3233
vn 0.3232 0.9217 -0.2147
vn 0.3547 0.6936 -0.6269
vn -0.4818 -0.5424 -0.6882
vn 0.2129 -0.8382 -0.5021
vn 0.6381 -0.7697 0.0191
vn 0.6657 -0.7309 0.1504
vn 0.3881 -0.3543 0.8508
vn 0.8364 0.1681 0.5217
vn -0.5195 0.2256 0.8241
vn -0.0576 0.9668 0.2488
vn -0.8286 0.0968 -0.5514
vn -0.8490 0.2192 -0.4808
vn -0.8389 0.3190 -0.4411
vn -0.4996 0.8521 -0.1558
vn 0.0512 0.9892 -0.1373
vn -0.8264 0.5186 -0.2192
vn -0.4462 0.8948 0.0159
vn -0.8311 0.5306 -0.1666
vn -0.4420 0.8920 0.0954
vn -0.8280 0.5464 -0.1259
vn -0.9496 0.0076 -0.3135
vn -0.9618 0.0180 -0.2732
vn -0.4573 0.7009 0.5473
vn -0.8461 0.5305 0.0520
vn 0.1222 0.9482 0.2933
vn 0.0279 0.7746 0.6318
vn -0.7963 0.2582 0.5470
vn -0.2719 -0.3705 0.8881
vn 0.3374 0.1966 0.9206
vn 0.4185 -0.8450 0.3330
vn 0.8243 -0.1871 0.5343
vn -0.6255 -0.7785 0.0518
vn -0.5637 -0.7652 -0.3109
vn 0.4819 -0.8762 0.0064
vn -0.9998 -0.0165 0.0114
vn 0.6743 0.4961 0.5470
vn 0.9339 -0.2009 0.2957
vn 0.7434 0.5478 0.3837
vn 0.9429 -0.2338 0.2374
vn 0.7530 0.5848 0.3016
vn 0.1127 0.9768 0.1821
vn 0.9681 -0.2395 0.0729
vn 0.7655 0.6426 0.0315
vn -0.5397 -0.7141 -0.4458
vn -0.9316 -0.0181 -0.3630
vn 0.4085 -0.8928 -0.1898
vn -0.7203 0.4634 -0.5162
vn -0.7302 0.6828 0.0228
vn 0.9605 -0.0049 -0.2783
vn 0.7720 -0.6307 -0.0794
vn 0.5498 -0.2466 0.7981
vn -0.5574 -0.7491 -0.3580
vn 0.4402 -0.8963 -0.0533
vn 0.4639 0.8474 -0.2584
vn 0.7551 0.6545 -0.0366
vn 0.8993 -0.3726 0.2289
vn 0.5892 0.0867 -0.8033
vn 0.2194 -0.8220 0.5256
vn -0.4833 0.6628 0.5720
s 1
f 3//1 5//2 4//3 2//4
f 4//3 5//2 7//5 6//6
f 9//7 4//3 6//6 8//8
f 11//9 9//7 8//8 10//10
f 8//8 13//11 12//12 10//10
f 13//11 15//13 14//14 12//12
f 14//14 15//13 17//15 16//16
f 16//16 17//15 19//17 18//18
f 17//15 21//19 20//20 19//17
f 21//19 22//21 20//20
f 25//22 24//23 23//24
f 27//25 16//16 18//18 26//26
f 26//26 18//18 29//27 28//28
f 29//27 31//29 30//30 28//28
f 31//29 11//9 33//31 32//32
f 30//30 31//29 32//32
f 33//31 35//33 34//34 32//32
f 34//34 38//35 37//36 36//37
f 32//32 34//34 36//37
f 37//36 38//35 39//38
f 41//39 37//36 39//38 40//40
f 43//41 41//39 40//40 42//42
f 40//40 45//43 44//44 42//42
f 47//45 43//41 42//42 46//46
f 49//47 43//41 47//45 48//48
f 52//49 51//50 50//51 48//48
f 47//45 52//49 48//48
f 50//51 51//50 54//52 53//53
f 51//50 55//54 54//52
f 55//54 57//55 56//56 54//52
f 58//57 44//44 57//55 55//54
f 59//58 50//51 53//53
f 61//59 60//60 59//58 53//53
f 63//61 62//62 60//60 61//59
f 60//60 62//62 64//63 49//47
f 66//64 65//65 62//62 63//61
f 54//52 56//56 61//59 53//53
f 50//51 59//58 48//48
f 52//49 47//45 46//46
f 58//57 52//49 46//46
f 38//35 34//34 27//25 67//66
f 68//67 38//35 67//66
f 28//28 30//30 65//65 66//64
f 69//68 26//26 28//28 66//64
f 67//66 27//25 26//26 69//68
f 33//31 11//9 10//10
f 25//22 71//69 70//70
f 25//22 23//24 22//21 21//19
f 71//69 25//22 21//19
f 24//23 25//22 70//70 6//6
f 7//5 24//23 6//6
f 15//13 71//69 21//19 17//15
f 6//6 70//70 13//11 8//8
f 19//17 20//20 1//71 72//72
f 2//4 4//3 9//7 73//73
f 1//71 2//4 73//73 72//72
f 14//14 35//33 12//12
f 14//14 16//16 27//25 34//34
f 35//33 14//14 34//34
f 12//12 35//33 33//31 10//10
f 18//18 19//17 72//72 29//27
f 73//73 9//7 11//9 31//29
f 72//72 73//73 31//29 29//27
f 38//35 68//67 39//38
f 65//65 30//30 32//32 36//37
f 45//43 68//67 67//66 74//74
f 39//38 68//67 45//43 40//40
f 74//74 67//66 69//68 75//75
f 36//37 37//36 41//39 64//63
f 62//62 65//65 36//37 64//63
f 75//75 69//68 66//64 63//61
f 44//44 45//43 74//74 57//55
f 42//42 44//44 58//57 46//46
f 51//50 52//49 58//57 55//54
f 57//55 74//74 75//75 56//56
f 64//63 41//39 43//41 49//47
f 59//58 60//60 49//47 48//48
f 56//56 75//75 63//61 61//59
f 70//70 71//69 15//13 13//11
f 1//71 20//76 76//77 2//4
f 5//2 3//1 77//78 78//79 22//21 23//24 24//23 7//5
f 77//78 3//1 2//4 76//77 1//80
f 22//21 78//79 20//20
s 0
f 1//81 77//81 78//81 20//81
