# Blender 5.0.0
# www.blender.org
mtllib prep_throw_arm0010.mtl
o Mball.001
v -0.684315 4.248513 0.362569
v -0.784726 4.501719 0.678460
v -0.517751 4.656130 0.648797
v -0.989716 4.853424 0.631613
v -0.595535 5.075550 0.524037
v -1.064422 4.964866 0.507604
v -0.595333 5.145846 0.490177
v -1.392371 4.652781 0.546493
v -1.316931 4.563828 0.650591
v -1.701155 4.366191 0.564934
v -1.640077 4.298120 0.646271
v -1.800966 4.345672 0.162745
v -1.454776 4.644087 0.147371
v -1.791330 4.320038 0.124103
v -1.446868 4.624605 0.116495
v -1.640912 3.983088 -0.031809
v -1.271275 4.317953 -0.057979
v -1.454152 3.746625 0.079443
v -1.098770 4.082771 0.038820
v -0.802050 4.377582 -0.005040
v -0.949401 4.603889 -0.079583
v -0.600131 4.868591 -0.094408
v -0.604695 5.209481 0.090413
v -0.603612 5.217166 0.101451
v -0.944476 5.072443 0.090841
v -1.931286 3.510376 0.343567
v -2.065245 3.590863 0.281260
v -1.619106 3.707754 0.512645
v -1.304659 3.713861 0.433877
v -1.709438 3.777237 0.603027
v -1.405538 3.966865 0.687749
v -1.911640 4.016776 0.560077
v -1.797124 4.194161 0.555524
v -2.113116 3.913900 0.248397
v -1.885017 4.208269 0.151809
v -2.018901 4.214665 0.679872
v -2.027370 4.217249 0.675063
v -2.283948 3.985674 0.428964
v -2.353861 4.019207 0.538100
v -2.535909 4.080710 0.853261
v -2.196415 4.294591 0.982715
v -2.718025 4.135831 1.163070
v -2.395493 4.323613 1.287434
v -2.766436 4.046364 1.149881
v -2.566849 4.017722 0.845351
v -2.889310 4.167428 1.479721
v -2.626493 4.328775 1.580315
v -2.473750 4.307520 1.649058
v -2.321605 4.317494 1.320315
v -2.424936 4.085637 1.824507
v -2.879343 3.843422 1.863385
v -2.917693 4.151597 1.558485
v -2.315165 3.963097 1.749241
v -2.614567 3.570727 1.653285
v -2.924445 3.651772 1.510432
v -2.431191 3.512871 1.344272
v -2.748408 3.605529 1.197170
v -2.925656 4.105176 1.469380
v -2.317509 4.105406 1.735496
v -2.104876 4.086515 1.435804
v -2.112587 3.863538 1.452358
v -1.903637 4.059108 1.131887
v -1.924468 3.795380 1.146341
v -2.154269 4.294473 1.001170
v -1.736517 3.977314 0.818810
v -1.749007 3.711154 0.826389
v -2.347891 3.549250 0.588609
v -2.368806 3.985745 0.535430
v -2.085816 3.443585 0.712741
v -1.109934 4.930729 0.103354
v -1.106784 4.926540 0.094140
v -0.969806 3.982526 0.417942
v -1.086075 4.226984 0.701539
v -2.546186 3.578857 0.893617
v -2.258000 3.477134 1.028824
v -1.002319 4.437024 0.200979
v -0.463442 4.405037 0.307913
v -0.521912 4.584758 -0.053194
vn 0.6175 -0.1070 0.7793
vn 0.6030 0.4849 0.6335
vn -0.1558 0.3972 0.9044
vn 0.2599 -0.1745 0.9497
vn 0.4338 0.8249 0.3623
vn -0.4659 0.7688 0.4381
vn -0.2519 0.3194 0.9135
vn -0.5820 0.6801 0.4458
vn -0.3592 0.2284 0.9049
vn -0.6804 0.5650 0.4667
vn -0.6510 0.7221 -0.2341
vn -0.7562 0.6286 -0.1817
vn -0.4666 0.4832 -0.7408
vn -0.5458 0.3789 -0.7474
vn -0.0912 0.0215 -0.9956
vn -0.2078 -0.1524 -0.9662
vn 0.4189 -0.5391 -0.7307
vn 0.2709 -0.7367 -0.6196
vn -0.0965 0.0583 -0.9936
vn 0.2817 -0.4095 -0.8677
vn 0.5090 0.2637 -0.8194
vn -0.4569 0.7447 -0.4864
vn 0.4124 0.8948 -0.1710
vn 0.4684 0.6557 -0.5922
vn -0.4562 -0.5226 -0.7203
vn 0.0821 -0.9318 -0.3537
vn 0.4788 -0.8435 0.2435
vn 0.4355 -0.8251 0.3599
vn 0.0951 -0.3221 0.9419
vn 0.7323 0.0095 0.6809
vn -0.6832 0.3531 0.6392
vn 0.1768 0.9827 0.0545
vn -0.5265 -0.1973 -0.8269
vn -0.6486 0.2868 -0.7050
vn -0.5948 0.4237 -0.6831
vn -0.1606 0.8984 -0.4089
vn 0.3832 0.8803 -0.2795
vn -0.5640 0.6494 -0.5101
vn -0.1337 0.9602 -0.2452
vn -0.5799 0.6698 -0.4637
vn -0.1524 0.9751 -0.1611
vn -0.5842 0.6916 -0.4248
vn -0.8187 0.1745 -0.5471
vn -0.8358 0.1938 -0.5138
vn -0.3226 0.8871 0.3300
vn -0.6476 0.7177 -0.2559
vn 0.3594 0.9172 0.1718
vn 0.1446 0.8419 0.5198
vn -0.7890 0.5374 0.2978
vn -0.5384 -0.1270 0.8330
vn 0.2086 0.2601 0.9428
vn 0.0726 -0.8409 0.5363
vn 0.6096 -0.2775 0.7426
vn -0.8189 -0.5740 -0.0048
vn -0.6963 -0.6391 -0.3266
vn 0.1756 -0.9479 0.2658
vn -0.9449 0.2150 -0.2468
vn 0.6785 0.3948 0.6195
vn 0.7502 -0.3572 0.5564
vn 0.7835 0.4017 0.4741
vn 0.7607 -0.4006 0.5108
vn 0.8187 0.4242 0.3871
vn 0.3807 0.9234 0.0490
vn 0.8242 -0.4377 0.3594
vn 0.8956 0.4349 0.0935
vn -0.6358 -0.6220 -0.4570
vn -0.8018 0.1403 -0.5809
vn 0.1402 -0.9886 0.0551
vn -0.4716 0.4942 -0.7304
vn -0.6122 0.7541 -0.2379
vn 0.9900 -0.1394 0.0204
vn 0.6520 -0.7352 0.1853
vn 0.2556 -0.2519 0.9334
vn -0.6798 -0.6327 -0.3710
vn 0.1405 -0.9691 0.2029
vn 0.5627 0.8107 -0.1615
vn 0.7862 0.5986 0.1534
vn 0.8440 -0.3858 0.3725
vn 0.7148 0.0220 -0.6989
vn 0.0669 -0.7899 0.6096
vn -0.4674 0.7677 0.4383
s 1
f 3//1 5//2 4//3 2//4
f 4//3 5//2 7//5 6//6
f 9//7 4//3 6//6 8//8
f 11//9 9//7 8//8 10//10
f 8//8 13//11 12//12 10//10
f 13//11 15//13 14//14 12//12
f 14//14 15//13 17//15 16//16
f 16//16 17//15 19//17 18//18
f 17//15 21//19 20//20 19//17
f 21//19 22//21 20//20
f 25//22 24//23 23//24
f 27//25 16//16 18//18 26//26
f 26//26 18//18 29//27 28//28
f 29//27 31//29 30//30 28//28
f 31//29 11//9 33//31 32//32
f 30//30 31//29 32//32
f 33//31 35//33 34//34 32//32
f 34//34 38//35 37//36 36//37
f 32//32 34//34 36//37
f 37//36 38//35 39//38
f 41//39 37//36 39//38 40//40
f 43//41 41//39 40//40 42//42
f 40//40 45//43 44//44 42//42
f 47//45 43//41 42//42 46//46
f 49//47 43//41 47//45 48//48
f 52//49 51//50 50//51 48//48
f 47//45 52//49 48//48
f 50//51 51//50 54//52 53//53
f 51//50 55//54 54//52
f 55//54 57//55 56//56 54//52
f 58//57 44//44 57//55 55//54
f 59//58 50//51 53//53
f 61//59 60//60 59//58 53//53
f 63//61 62//62 60//60 61//59
f 60//60 62//62 64//63 49//47
f 66//64 65//65 62//62 63//61
f 54//52 56//56 61//59 53//53
f 50//51 59//58 48//48
f 52//49 47//45 46//46
f 58//57 52//49 46//46
f 38//35 34//34 27//25 67//66
f 68//67 38//35 67//66
f 28//28 30//30 65//65 66//64
f 69//68 26//26 28//28 66//64
f 67//66 27//25 26//26 69//68
f 33//31 11//9 10//10
f 25//22 71//69 70//70
f 25//22 23//24 22//21 21//19
f 71//69 25//22 21//19
f 24//23 25//22 70//70 6//6
f 7//5 24//23 6//6
f 15//13 71//69 21//19 17//15
f 6//6 70//70 13//11 8//8
f 19//17 20//20 1//71 72//72
f 2//4 4//3 9//7 73//73
f 1//71 2//4 73//73 72//72
f 14//14 35//33 12//12
f 14//14 16//16 27//25 34//34
f 35//33 14//14 34//34
f 12//12 35//33 33//31 10//10
f 18//18 19//17 72//72 29//27
f 73//73 9//7 11//9 31//29
f 72//72 73//73 31//29 29//27
f 38//35 68//67 39//38
f 65//65 30//30 32//32 36//37
f 45//43 68//67 67//66 74//74
f 39//38 68//67 45//43 40//40
f 74//74 67//66 69//68 75//75
f 36//37 37//36 41//39 64//63
f 62//62 65//65 36//37 64//63
f 75//75 69//68 66//64 63//61
f 44//44 45//43 74//74 57//55
f 42//42 44//44 58//57 46//46
f 51//50 52//49 58//57 55//54
f 57//55 74//74 75//75 56//56
f 64//63 41//39 43//41 49//47
f 59//58 60//60 49//47 48//48
f 56//56 75//75 63//61 61//59
f 70//70 71//69 15//13 13//11
f 1//71 20//76 76//77 2//4
f 5//2 3//1 77//78 78//79 22//21 23//24 24//23 7//5
f 77//78 3//1 2//4 76//77 1//80
f 22//21 78//79 20//20
s 0
f 1//81 77//81 78//81 20//81
