# Blender 5.0.0
# www.blender.org
mtllib prep_throw_arm0040.mtl
o Mball.001
v -0.829746 4.345021 0.454957
v -0.981998 4.714535 0.658484
v -0.607653 4.740316 0.662398
v -1.097962 5.042139 0.493038
v -0.603752 5.094499 0.505317
v -1.113530 5.110096 0.338984
v -0.598508 5.158922 0.472737
v -1.490461 4.887074 0.308658
v -1.472444 4.839024 0.444277
v -1.837828 4.639106 0.288855
v -1.820873 4.607730 0.394981
v -1.808446 4.445654 -0.081195
v -1.409957 4.719432 -0.067516
v -1.790439 4.411190 -0.106235
v -1.395277 4.687367 -0.088343
v -1.674748 4.038728 -0.099825
v -1.225950 4.307846 -0.122199
v -1.585196 3.858572 0.114545
v -1.141789 4.109459 0.069448
v -0.804172 4.342043 0.061848
v -0.878548 4.541043 -0.096514
v -0.548713 4.808580 -0.081147
v -0.587358 5.200742 0.074493
v -0.587308 5.209394 0.085687
v -0.882717 5.061611 -0.001879
v -2.199554 3.998456 0.322818
v -2.289737 4.008692 0.202608
v -1.840490 4.071831 0.398412
v -1.559620 3.942827 0.462508
v -1.942734 4.107846 0.423815
v -1.679472 4.286301 0.580198
v -2.074027 4.308579 0.267812
v -1.951926 4.467676 0.282597
v -2.202381 4.103778 -0.013248
v -1.920898 4.293425 -0.075272
v -1.941210 4.577366 0.020765
v -1.946841 4.578373 0.013116
v -2.290591 4.354788 -0.050464
v -2.318654 4.510591 -0.053370
v -2.399316 4.954960 -0.029935
v -1.993923 5.047788 0.013739
v -2.483696 5.390226 -0.004885
v -2.105416 5.475430 0.046961
v -2.567744 5.365564 0.028502
v -2.455618 4.938073 -0.004696
v -2.568646 5.822573 0.041946
v -2.256695 5.893616 0.078595
v -2.126583 5.912619 0.177169
v -2.040623 5.485429 0.091847
v -2.161146 6.030924 0.408506
v -2.652648 6.162922 0.409521
v -2.588539 5.918116 0.073920
v -2.134945 5.869896 0.496066
v -2.583132 5.748556 0.594426
v -2.830220 5.717351 0.368969
v -2.498819 5.312952 0.571908
v -2.747444 5.282886 0.334599
v -2.629559 5.805011 0.063708
v -2.073759 5.897112 0.399171
v -1.945372 5.473485 0.366623
v -2.051644 5.429118 0.512162
v -1.831187 5.046483 0.333508
v -1.967581 4.992235 0.499182
v -1.955465 5.054144 0.037077
v -1.780478 4.553544 0.320936
v -1.901277 4.515814 0.479896
v -2.521516 4.428302 0.268271
v -2.346778 4.503340 -0.039054
v -2.329066 4.447501 0.483887
v -1.036636 4.937696 -0.041854
v -1.032227 4.930152 -0.047399
v -1.172873 4.160680 0.469957
v -1.336497 4.521305 0.633312
v -2.632034 4.856174 0.301533
v -2.413969 4.880090 0.528910
v -1.002319 4.437024 0.200979
v -0.524768 4.425218 0.383263
v -0.506657 4.534248 0.008758
vn 0.4726 -0.0442 0.8801
vn 0.6118 0.5272 0.5897
vn -0.2709 0.6458 0.7138
vn -0.0270 0.0510 0.9983
vn 0.4946 0.7951 0.3509
vn -0.3871 0.9200 0.0616
vn -0.4537 0.6100 0.6496
vn -0.5372 0.8420 -0.0499
vn -0.6133 0.5009 0.6107
vn -0.6985 0.7140 -0.0481
vn -0.3722 0.6399 -0.6723
vn -0.5512 0.5494 -0.6280
vn -0.1293 0.2750 -0.9527
vn -0.2623 0.1283 -0.9564
vn 0.1857 -0.2750 -0.9433
vn -0.0270 -0.5634 -0.8257
vn 0.4770 -0.8061 -0.3503
vn 0.1346 -0.9783 -0.1576
vn 0.2320 -0.1870 -0.9546
vn 0.4490 -0.6793 -0.5805
vn 0.6716 0.0990 -0.7343
vn -0.2142 0.6105 -0.7625
vn 0.5097 0.8399 -0.1865
vn 0.5748 0.5786 -0.5786
vn -0.6929 -0.6887 -0.2136
vn -0.3996 -0.7833 0.4762
vn 0.1071 -0.7609 0.6400
vn -0.0371 -0.6172 0.7859
vn -0.2964 -0.0627 0.9530
vn 0.2827 -0.3919 0.8755
vn -0.8278 0.5232 0.2024
vn 0.0571 0.0425 -0.9975
vn -0.5055 0.6533 0.5636
vn -0.3785 -0.2882 -0.8796
vn -0.3595 -0.2193 -0.9070
vn 0.3109 -0.0007 -0.9504
vn 0.6988 -0.1551 -0.6983
vn -0.1412 -0.0169 -0.9898
vn 0.3479 0.1016 -0.9320
vn -0.1447 0.0207 -0.9893
vn 0.3321 0.1764 -0.9266
vn -0.1387 0.0549 -0.9888
vn -0.6446 -0.1061 -0.7571
vn -0.6389 -0.0729 -0.7659
vn 0.2305 0.6082 -0.7596
vn -0.1543 0.1773 -0.9720
vn 0.7621 0.2595 -0.5932
vn 0.6229 0.5830 -0.5216
vn -0.3459 0.5878 -0.7313
vn -0.4101 0.8868 0.2131
vn 0.4785 0.8372 0.2649
vn -0.2877 0.1230 0.9498
vn 0.4556 0.2828 0.8441
vn -0.9899 0.0581 0.1296
vn -0.9696 -0.2166 0.1140
vn -0.2930 -0.1148 0.9492
vn -0.6732 0.1451 -0.7251
vn 0.9007 0.3866 0.1980
vn 0.4878 0.0807 0.8692
vn 0.9555 0.2365 0.1763
vn 0.4662 0.0294 0.8842
vn 0.9787 0.1558 0.1335
vn 0.7605 0.1526 -0.6312
vn 0.5420 -0.1162 0.8323
vn 0.9791 -0.1676 -0.1152
vn -0.9324 -0.3518 0.0833
vn -0.6562 -0.1481 -0.7399
vn -0.3750 -0.2660 0.8880
vn -0.0514 0.3188 -0.9464
vn -0.3149 0.6666 -0.6756
vn 0.8908 -0.2051 0.4055
vn 0.3798 -0.6906 0.6155
vn -0.1015 0.0151 0.9947
vn -0.9625 -0.2505 0.1038
vn -0.3364 -0.1506 0.9296
vn 0.6926 0.6863 -0.2220
vn 0.8175 0.5528 0.1616
vn 0.7748 -0.2933 0.5600
vn 0.7747 -0.1433 -0.6158
vn -0.1683 -0.6060 0.7774
vn -0.3918 0.9142 0.1040
s 1
f 3//1 5//2 4//3 2//4
f 4//3 5//2 7//5 6//6
f 9//7 4//3 6//6 8//8
f 11//9 9//7 8//8 10//10
f 8//8 13//11 12//12 10//10
f 13//11 15//13 14//14 12//12
f 14//14 15//13 17//15 16//16
f 16//16 17//15 19//17 18//18
f 17//15 21//19 20//20 19//17
f 21//19 22//21 20//20
f 25//22 24//23 23//24
f 27//25 16//16 18//18 26//26
f 26//26 18//18 29//27 28//28
f 29//27 31//29 30//30 28//28
f 31//29 11//9 33//31 32//32
f 30//30 31//29 32//32
f 33//31 35//33 34//34 32//32
f 34//34 38//35 37//36 36//37
f 32//32 34//34 36//37
f 37//36 38//35 39//38
f 41//39 37//36 39//38 40//40
f 43//41 41//39 40//40 42//42
f 40//40 45//43 44//44 42//42
f 47//45 43//41 42//42 46//46
f 49//47 43//41 47//45 48//48
f 52//49 51//50 50//51 48//48
f 47//45 52//49 48//48
f 50//51 51//50 54//52 53//53
f 51//50 55//54 54//52
f 55//54 57//55 56//56 54//52
f 58//57 44//44 57//55 55//54
f 59//58 50//51 53//53
f 61//59 60//60 59//58 53//53
f 63//61 62//62 60//60 61//59
f 60//60 62//62 64//63 49//47
f 66//64 65//65 62//62 63//61
f 54//52 56//56 61//59 53//53
f 50//51 59//58 48//48
f 52//49 47//45 46//46
f 58//57 52//49 46//46
f 38//35 34//34 27//25 67//66
f 68//67 38//35 67//66
f 28//28 30//30 65//65 66//64
f 69//68 26//26 28//28 66//64
f 67//66 27//25 26//26 69//68
f 33//31 11//9 10//10
f 25//22 71//69 70//70
f 25//22 23//24 22//21 21//19
f 71//69 25//22 21//19
f 24//23 25//22 70//70 6//6
f 7//5 24//23 6//6
f 15//13 71//69 21//19 17//15
f 6//6 70//70 13//11 8//8
f 19//17 20//20 1//71 72//72
f 2//4 4//3 9//7 73//73
f 1//71 2//4 73//73 72//72
f 14//14 35//33 12//12
f 14//14 16//16 27//25 34//34
f 35//33 14//14 34//34
f 12//12 35//33 33//31 10//10
f 18//18 19//17 72//72 29//27
f 73//73 9//7 11//9 31//29
f 72//72 73//73 31//29 29//27
f 38//35 68//67 39//38
f 65//65 30//30 32//32 36//37
f 45//43 68//67 67//66 74//74
f 39//38 68//67 45//43 40//40
f 74//74 67//66 69//68 75//75
f 36//37 37//36 41//39 64//63
f 62//62 65//65 36//37 64//63
f 75//75 69//68 66//64 63//61
f 44//44 45//43 74//74 57//55
f 42//42 44//44 58//57 46//46
f 51//50 52//49 58//57 55//54
f 57//55 74//74 75//75 56//56
f 64//63 41//39 43//41 49//47
f 59//58 60//60 49//47 48//48
f 56//56 75//75 63//61 61//59
f 70//70 71//69 15//13 13//11
f 1//71 20//76 76//77 2//4
f 5//2 3//1 77//78 78//79 22//21 23//24 24//23 7//5
f 77//78 3//1 2//4 76//77 1//80
f 22//21 78//79 20//20
s 0
f 1//81 77//81 78//81 20//81
