# Blender 5.0.0
# www.blender.org
mtllib prep_throw_arm0007.mtl
o Mball.001
v -0.630888 4.241534 0.346487
v -0.698602 4.473513 0.679905
v -0.482500 4.653265 0.635377
v -0.928063 4.812379 0.666308
v -0.590316 5.072256 0.526684
v -1.023900 4.922697 0.554931
v -0.592296 5.143024 0.493178
v -1.320121 4.579014 0.628583
v -1.224421 4.491596 0.719835
v -1.606516 4.269328 0.674921
v -1.529539 4.202549 0.745879
v -1.765401 4.258699 0.287006
v -1.443193 4.582301 0.241177
v -1.760184 4.235378 0.246513
v -1.439074 4.564815 0.209019
v -1.613543 3.918593 0.061307
v -1.275219 4.280035 0.005246
v -1.397401 3.694299 0.141700
v -1.076263 4.054569 0.072824
v -0.804420 4.374537 0.001088
v -0.973017 4.591776 -0.047942
v -0.622612 4.874239 -0.092019
v -0.610198 5.208144 0.095388
v -0.608707 5.215786 0.106286
v -0.958717 5.055548 0.125403
v -1.802570 3.403563 0.440364
v -1.950729 3.469639 0.395646
v -1.496017 3.630306 0.594561
v -1.195335 3.659549 0.476455
v -1.577884 3.682433 0.696448
v -1.272290 3.890048 0.748673
v -1.798777 3.904430 0.685085
v -1.694028 4.091340 0.671916
v -2.036237 3.787424 0.388988
v -1.841808 4.115672 0.281001
v -1.923930 4.061866 0.831094
v -1.933190 4.063343 0.827161
v -2.191225 3.816030 0.588811
v -2.250340 3.827375 0.705118
v -2.397096 3.830247 1.037314
v -2.070401 4.080554 1.150722
v -2.543947 3.828086 1.364122
v -2.231653 4.050529 1.472162
v -2.583184 3.733633 1.349093
v -2.421450 3.764092 1.027821
v -2.676593 3.803670 1.695136
v -2.423157 3.993232 1.783011
v -2.261533 3.988780 1.836311
v -2.153989 4.052524 1.497864
v -2.166209 3.760383 1.990576
v -2.581820 3.448908 2.052100
v -2.692881 3.776334 1.774588
v -2.053559 3.662939 1.897893
v -2.316285 3.239162 1.801825
v -2.648906 3.285985 1.692959
v -2.167783 3.238735 1.475507
v -2.509488 3.296326 1.363875
v -2.706665 3.737658 1.683757
v -2.073732 3.804489 1.894325
v -1.899633 3.846095 1.577382
v -1.879875 3.623058 1.579031
v -1.736334 3.877965 1.256658
v -1.725152 3.612886 1.254555
v -2.026520 4.085052 1.165317
v -1.602693 3.854582 0.927848
v -1.584008 3.586822 0.917287
v -2.184746 3.358394 0.721778
v -2.261623 3.792094 0.701385
v -1.898811 3.281803 0.814569
v -1.121628 4.898931 0.160669
v -1.119387 4.895475 0.150735
v -0.884082 3.948120 0.429599
v -0.968777 4.170717 0.732322
v -2.345257 3.329037 1.043477
v -2.032637 3.259234 1.145233
v -1.002319 4.437024 0.200979
v -0.446145 4.413654 0.285149
v -0.534565 4.595932 -0.064753
vn 0.6744 -0.0896 0.7329
vn 0.6142 0.4902 0.6185
vn -0.0824 0.3619 0.9286
vn 0.3822 -0.1817 0.9061
vn 0.4060 0.8512 0.3326
vn -0.4635 0.7205 0.5158
vn -0.1546 0.2767 0.9484
vn -0.5597 0.6184 0.5516
vn -0.2534 0.1808 0.9503
vn -0.6414 0.5010 0.5810
vn -0.7231 0.6836 -0.0989
vn -0.8109 0.5839 -0.0392
vn -0.5946 0.4782 -0.6463
vn -0.6651 0.3701 -0.6485
vn -0.2179 0.0447 -0.9749
vn -0.3104 -0.1325 -0.9413
vn 0.3573 -0.4832 -0.7993
vn 0.2519 -0.6882 -0.6804
vn -0.2209 0.0806 -0.9720
vn 0.2002 -0.3615 -0.9106
vn 0.4283 0.2991 -0.8527
vn -0.5340 0.7406 -0.4079
vn 0.3712 0.9089 -0.1899
vn 0.4154 0.6759 -0.6088
vn -0.4689 -0.5250 -0.7103
vn 0.1524 -0.8891 -0.4315
vn 0.5643 -0.8143 0.1359
vn 0.5579 -0.7883 0.2594
vn 0.2368 -0.3477 0.9072
vn 0.7916 0.0804 0.6058
vn -0.6114 0.2874 0.7372
vn 0.0524 0.9872 0.1504
vn -0.6743 0.0116 -0.7384
vn -0.7530 0.2679 -0.6011
vn -0.7232 0.3912 -0.5692
vn -0.3341 0.8972 -0.2887
vn 0.2235 0.9509 -0.2143
vn -0.7053 0.6046 -0.3701
vn -0.2951 0.9482 -0.1177
vn -0.7164 0.6203 -0.3195
vn -0.3032 0.9523 -0.0339
vn -0.7173 0.6386 -0.2789
vn -0.8945 0.1057 -0.4344
vn -0.9098 0.1204 -0.3972
vn -0.4005 0.8023 0.4426
vn -0.7607 0.6411 -0.1019
vn 0.2433 0.9415 0.2330
vn 0.0836 0.8098 0.5808
vn -0.8087 0.4024 0.4290
vn -0.4200 -0.2599 0.8695
vn 0.2682 0.2173 0.9385
vn 0.2441 -0.8633 0.4417
vn 0.7216 -0.2498 0.6457
vn -0.7348 -0.6778 0.0261
vn -0.6369 -0.7015 -0.3197
vn 0.3342 -0.9322 0.1391
vn -0.9869 0.1104 -0.1177
vn 0.6813 0.4376 0.5868
vn 0.8524 -0.2964 0.4308
vn 0.7715 0.4680 0.4311
vn 0.8631 -0.3346 0.3783
vn 0.7944 0.4992 0.3460
vn 0.2504 0.9614 0.1141
vn 0.9091 -0.3549 0.2180
vn 0.8407 0.5378 0.0627
vn -0.5925 -0.6656 -0.4537
vn -0.8762 0.0754 -0.4761
vn 0.2811 -0.9573 -0.0674
vn -0.6002 0.4874 -0.6341
vn -0.6795 0.7253 -0.1105
vn 0.9894 -0.0758 -0.1237
vn 0.7208 -0.6908 0.0580
vn 0.3994 -0.2611 0.8788
vn -0.6249 -0.6897 -0.3658
vn 0.2960 -0.9521 0.0769
vn 0.5169 0.8319 -0.2019
vn 0.7744 0.6291 0.0679
vn 0.8726 -0.3829 0.3032
vn 0.6607 0.0560 -0.7486
vn 0.1416 -0.8108 0.5679
vn -0.4793 0.7172 0.5058
s 1
f 3//1 5//2 4//3 2//4
f 4//3 5//2 7//5 6//6
f 9//7 4//3 6//6 8//8
f 11//9 9//7 8//8 10//10
f 8//8 13//11 12//12 10//10
f 13//11 15//13 14//14 12//12
f 14//14 15//13 17//15 16//16
f 16//16 17//15 19//17 18//18
f 17//15 21//19 20//20 19//17
f 21//19 22//21 20//20
f 25//22 24//23 23//24
f 27//25 16//16 18//18 26//26
f 26//26 18//18 29//27 28//28
f 29//27 31//29 30//30 28//28
f 31//29 11//9 33//31 32//32
f 30//30 31//29 32//32
f 33//31 35//33 34//34 32//32
f 34//34 38//35 37//36 36//37
f 32//32 34//34 36//37
f 37//36 38//35 39//38
f 41//39 37//36 39//38 40//40
f 43//41 41//39 40//40 42//42
f 40//40 45//43 44//44 42//42
f 47//45 43//41 42//42 46//46
f 49//47 43//41 47//45 48//48
f 52//49 51//50 50//51 48//48
f 47//45 52//49 48//48
f 50//51 51//50 54//52 53//53
f 51//50 55//54 54//52
f 55//54 57//55 56//56 54//52
f 58//57 44//44 57//55 55//54
f 59//58 50//51 53//53
f 61//59 60//60 59//58 53//53
f 63//61 62//62 60//60 61//59
f 60//60 62//62 64//63 49//47
f 66//64 65//65 62//62 63//61
f 54//52 56//56 61//59 53//53
f 50//51 59//58 48//48
f 52//49 47//45 46//46
f 58//57 52//49 46//46
f 38//35 34//34 27//25 67//66
f 68//67 38//35 67//66
f 28//28 30//30 65//65 66//64
f 69//68 26//26 28//28 66//64
f 67//66 27//25 26//26 69//68
f 33//31 11//9 10//10
f 25//22 71//69 70//70
f 25//22 23//24 22//21 21//19
f 71//69 25//22 21//19
f 24//23 25//22 70//70 6//6
f 7//5 24//23 6//6
f 15//13 71//69 21//19 17//15
f 6//6 70//70 13//11 8//8
f 19//17 20//20 1//71 72//72
f 2//4 4//3 9//7 73//73
f 1//71 2//4 73//73 72//72
f 14//14 35//33 12//12
f 14//14 16//16 27//25 34//34
f 35//33 14//14 34//34
f 12//12 35//33 33//31 10//10
f 18//18 19//17 72//72 29//27
f 73//73 9//7 11//9 31//29
f 72//72 73//73 31//29 29//27
f 38//35 68//67 39//38
f 65//65 30//30 32//32 36//37
f 45//43 68//67 67//66 74//74
f 39//38 68//67 45//43 40//40
f 74//74 67//66 69//68 75//75
f 36//37 37//36 41//39 64//63
f 62//62 65//65 36//37 64//63
f 75//75 69//68 66//64 63//61
f 44//44 45//43 74//74 57//55
f 42//42 44//44 58//57 46//46
f 51//50 52//49 58//57 55//54
f 57//55 74//74 75//75 56//56
f 64//63 41//39 43//41 49//47
f 59//58 60//60 49//47 48//48
f 56//56 75//75 63//61 61//59
f 70//70 71//69 15//13 13//11
f 1//71 20//76 76//77 2//4
f 5//2 3//1 77//78 78//79 22//21 23//24 24//23 7//5
f 77//78 3//1 2//4 76//77 1//80
f 22//21 78//79 20//20
s 0
f 1//81 77//81 78//81 20//81
