# Blender 5.0.0
# www.blender.org
mtllib prep_throw_arm0043.mtl
o Mball.001
v -0.829746 4.345021 0.454957
v -0.981998 4.714535 0.658484
v -0.607653 4.740316 0.662398
v -1.097962 5.042139 0.493038
v -0.603752 5.094499 0.505317
v -1.113530 5.110096 0.338984
v -0.598508 5.158922 0.472737
v -1.490461 4.887074 0.308658
v -1.472444 4.839024 0.444277
v -1.838165 4.638224 0.289177
v -1.821104 4.607095 0.395185
v -1.809500 4.444195 -0.079537
v -1.409957 4.719432 -0.067516
v -1.791384 4.410088 -0.104644
v -1.395277 4.687367 -0.088343
v -1.675712 4.039722 -0.097142
v -1.225950 4.307846 -0.122199
v -1.585816 3.860961 0.117145
v -1.141789 4.109459 0.069448
v -0.804172 4.342043 0.061848
v -0.878548 4.541043 -0.096514
v -0.548713 4.808580 -0.081147
v -0.587358 5.200742 0.074493
v -0.587308 5.209394 0.085687
v -0.882717 5.061611 -0.001879
v -2.198261 4.011709 0.326518
v -2.289962 4.017315 0.207433
v -1.838060 4.077365 0.395678
v -1.559922 3.944215 0.463885
v -1.942125 4.107388 0.422207
v -1.679703 4.285921 0.580531
v -2.074197 4.305791 0.266802
v -1.952422 4.465913 0.282839
v -2.204452 4.098847 -0.011023
v -1.922829 4.290650 -0.072286
v -1.936134 4.564256 0.002705
v -1.941821 4.565089 -0.004907
v -2.289308 4.347221 -0.057158
v -2.315059 4.502816 -0.065407
v -2.388561 4.949481 -0.057045
v -1.981240 5.036648 -0.020574
v -2.465836 5.387351 -0.046788
v -2.085633 5.467911 -0.001625
v -2.549810 5.366310 -0.011761
v -2.444780 4.935185 -0.030696
v -2.543441 5.823569 -0.014665
v -2.229972 5.890431 0.016452
v -2.098294 5.912492 0.113008
v -2.020108 5.479191 0.042242
v -2.127965 6.044646 0.340189
v -2.617298 6.186322 0.341133
v -2.561425 5.921234 0.014046
v -2.103114 5.888322 0.433164
v -2.551791 5.781695 0.539996
v -2.802281 5.742477 0.318238
v -2.474554 5.343635 0.532282
v -2.726719 5.304904 0.298659
v -2.604327 5.808491 0.008277
v -2.042796 5.908717 0.334823
v -1.921441 5.481167 0.316244
v -2.026461 5.447334 0.464216
v -1.814345 5.050495 0.297354
v -1.949368 5.008550 0.466077
v -1.942384 5.043574 0.002148
v -1.771621 4.553876 0.301033
v -1.890576 4.529358 0.462428
v -2.514979 4.443024 0.260826
v -2.343105 4.496949 -0.050575
v -2.319430 4.470770 0.473699
v -1.036636 4.937696 -0.041854
v -1.032227 4.930152 -0.047399
v -1.172873 4.160680 0.469957
v -1.336497 4.521305 0.633312
v -2.618393 4.874501 0.279796
v -2.397007 4.907125 0.504007
v -1.002319 4.437024 0.200979
v -0.524768 4.425218 0.383263
v -0.506657 4.534248 0.008758
vn 0.4726 -0.0442 0.8801
vn 0.6118 0.5272 0.5897
vn -0.2709 0.6458 0.7138
vn -0.0270 0.0510 0.9983
vn 0.4946 0.7951 0.3509
vn -0.3871 0.9200 0.0616
vn -0.4539 0.6101 0.6494
vn -0.5378 0.8416 -0.0502
vn -0.6143 0.5002 0.6103
vn -0.6997 0.7128 -0.0483
vn -0.3735 0.6394 -0.6721
vn -0.5543 0.5475 -0.6269
vn -0.1313 0.2744 -0.9526
vn -0.2663 0.1243 -0.9559
vn 0.1835 -0.2767 -0.9433
vn -0.0305 -0.5726 -0.8193
vn 0.4745 -0.8074 -0.3507
vn 0.1271 -0.9802 -0.1515
vn 0.2320 -0.1870 -0.9546
vn 0.4490 -0.6793 -0.5805
vn 0.6716 0.0990 -0.7343
vn -0.2142 0.6105 -0.7625
vn 0.5097 0.8399 -0.1865
vn 0.5748 0.5786 -0.5786
vn -0.7035 -0.6858 -0.1865
vn -0.4055 -0.7634 0.5028
vn 0.1013 -0.7621 0.6395
vn -0.0316 -0.6191 0.7847
vn -0.2992 -0.0663 0.9519
vn 0.2371 -0.4280 0.8721
vn -0.8299 0.5196 0.2030
vn -0.0834 -0.0509 -0.9952
vn -0.5177 0.6664 0.5366
vn -0.3816 -0.3174 -0.8681
vn -0.3746 -0.2497 -0.8929
vn 0.3016 -0.0410 -0.9526
vn 0.6866 -0.1950 -0.7004
vn -0.1523 -0.0503 -0.9871
vn 0.3393 0.0622 -0.9386
vn -0.1549 -0.0123 -0.9879
vn 0.3242 0.1371 -0.9360
vn -0.1481 0.0217 -0.9887
vn -0.6563 -0.1230 -0.7444
vn -0.6497 -0.0903 -0.7548
vn 0.2324 0.5688 -0.7890
vn -0.1607 0.1440 -0.9764
vn 0.7571 0.2248 -0.6134
vn 0.6251 0.5480 -0.5559
vn -0.3428 0.5612 -0.7533
vn -0.3918 0.9026 0.1785
vn 0.4968 0.8394 0.2204
vn -0.2746 0.1643 0.9474
vn 0.4717 0.3076 0.8264
vn -0.9873 0.0796 0.1378
vn -0.9712 -0.1962 0.1350
vn -0.2834 -0.0755 0.9560
vn -0.6774 0.1283 -0.7243
vn 0.9102 0.3790 0.1670
vn 0.5000 0.1042 0.8597
vn 0.9618 0.2272 0.1530
vn 0.4775 0.0532 0.8770
vn 0.9829 0.1446 0.1142
vn 0.7540 0.1168 -0.6465
vn 0.5496 -0.0957 0.8299
vn 0.9738 -0.1880 -0.1278
vn -0.9360 -0.3340 0.1107
vn -0.6686 -0.1651 -0.7251
vn -0.3675 -0.2271 0.9019
vn -0.0514 0.3188 -0.9464
vn -0.3149 0.6666 -0.6756
vn 0.8908 -0.2051 0.4055
vn 0.3797 -0.6912 0.6149
vn -0.1012 0.0154 0.9947
vn -0.9647 -0.2307 0.1266
vn -0.3273 -0.1115 0.9383
vn 0.6926 0.6863 -0.2220
vn 0.8175 0.5528 0.1616
vn 0.7748 -0.2933 0.5600
vn 0.7747 -0.1433 -0.6158
vn -0.1683 -0.6060 0.7774
vn -0.3918 0.9142 0.1040
s 1
f 3//1 5//2 4//3 2//4
f 4//3 5//2 7//5 6//6
f 9//7 4//3 6//6 8//8
f 11//9 9//7 8//8 10//10
f 8//8 13//11 12//12 10//10
f 13//11 15//13 14//14 12//12
f 14//14 15//13 17//15 16//16
f 16//16 17//15 19//17 18//18
f 17//15 21//19 20//20 19//17
f 21//19 22//21 20//20
f 25//22 24//23 23//24
f 27//25 16//16 18//18 26//26
f 26//26 18//18 29//27 28//28
f 29//27 31//29 30//30 28//28
f 31//29 11//9 33//31 32//32
f 30//30 31//29 32//32
f 33//31 35//33 34//34 32//32
f 34//34 38//35 37//36 36//37
f 32//32 34//34 36//37
f 37//36 38//35 39//38
f 41//39 37//36 39//38 40//40
f 43//41 41//39 40//40 42//42
f 40//40 45//43 44//44 42//42
f 47//45 43//41 42//42 46//46
f 49//47 43//41 47//45 48//48
f 52//49 51//50 50//51 48//48
f 47//45 52//49 48//48
f 50//51 51//50 54//52 53//53
f 51//50 55//54 54//52
f 55//54 57//55 56//56 54//52
f 58//57 44//44 57//55 55//54
f 59//58 50//51 53//53
f 61//59 60//60 59//58 53//53
f 63//61 62//62 60//60 61//59
f 60//60 62//62 64//63 49//47
f 66//64 65//65 62//62 63//61
f 54//52 56//56 61//59 53//53
f 50//51 59//58 48//48
f 52//49 47//45 46//46
f 58//57 52//49 46//46
f 38//35 34//34 27//25 67//66
f 68//67 38//35 67//66
f 28//28 30//30 65//65 66//64
f 69//68 26//26 28//28 66//64
f 67//66 27//25 26//26 69//68
f 33//31 11//9 10//10
f 25//22 71//69 70//70
f 25//22 23//24 22//21 21//19
f 71//69 25//22 21//19
f 24//23 25//22 70//70 6//6
f 7//5 24//23 6//6
f 15//13 71//69 21//19 17//15
f 6//6 70//70 13//11 8//8
f 19//17 20//20 1//71 72//72
f 2//4 4//3 9//7 73//73
f 1//71 2//4 73//73 72//72
f 14//14 35//33 12//12
f 14//14 16//16 27//25 34//34
f 35//33 14//14 34//34
f 12//12 35//33 33//31 10//10
f 18//18 19//17 72//72 29//27
f 73//73 9//7 11//9 31//29
f 72//72 73//73 31//29 29//27
f 38//35 68//67 39//38
f 65//65 30//30 32//32 36//37
f 45//43 68//67 67//66 74//74
f 39//38 68//67 45//43 40//40
f 74//74 67//66 69//68 75//75
f 36//37 37//36 41//39 64//63
f 62//62 65//65 36//37 64//63
f 75//75 69//68 66//64 63//61
f 44//44 45//43 74//74 57//55
f 42//42 44//44 58//57 46//46
f 51//50 52//49 58//57 55//54
f 57//55 74//74 75//75 56//56
f 64//63 41//39 43//41 49//47
f 59//58 60//60 49//47 48//48
f 56//56 75//75 63//61 61//59
f 70//70 71//69 15//13 13//11
f 1//71 20//76 76//77 2//4
f 5//2 3//1 77//78 78//79 22//21 23//24 24//23 7//5
f 77//78 3//1 2//4 76//77 1//80
f 22//21 78//79 20//20
s 0
f 1//81 77//81 78//81 20//81
