# Blender 5.0.0
# www.blender.org
mtllib prep_throw_arm0021.mtl
o Mball.001
v -0.808823 4.313470 0.427025
v -0.958601 4.656308 0.660965
v -0.596577 4.712505 0.663936
v -1.089030 5.001392 0.521191
v -0.603401 5.090076 0.510569
v -1.112592 5.085554 0.371714
v -0.598711 5.156251 0.477380
v -1.485073 4.849765 0.344349
v -1.459221 4.786157 0.475004
v -1.825615 4.607514 0.319114
v -1.803470 4.560619 0.422025
v -1.802953 4.472827 -0.076318
v -1.420734 4.730188 -0.045056
v -1.786195 4.437577 -0.104999
v -1.406527 4.701210 -0.068740
v -1.656888 4.052027 -0.149203
v -1.231847 4.332464 -0.137434
v -1.553574 3.836081 0.043308
v -1.134111 4.114346 0.035008
v -0.801028 4.354492 0.032394
v -0.886787 4.569386 -0.108905
v -0.554393 4.826044 -0.086639
v -0.589941 5.204784 0.077725
v -0.589763 5.213123 0.088927
v -0.892766 5.076097 0.012517
v -2.157907 3.807112 0.236176
v -2.246946 3.877331 0.124379
v -1.831443 3.956198 0.395690
v -1.518672 3.886797 0.410694
v -1.924948 4.049719 0.435656
v -1.645468 4.222233 0.574551
v -2.064007 4.289026 0.302083
v -1.936661 4.444463 0.308046
v -2.184248 4.137612 -0.014682
v -1.903206 4.337755 -0.086853
v -2.058021 4.597419 0.278800
v -2.063897 4.600452 0.271641
v -2.338803 4.351994 0.069202
v -2.406006 4.470454 0.133695
v -2.596010 4.777250 0.338065
v -2.230193 4.928779 0.466728
v -2.787601 5.073873 0.539687
v -2.445578 5.206005 0.668161
v -2.860875 5.007019 0.545210
v -2.644921 4.730067 0.343945
v -2.978384 5.352044 0.757699
v -2.696702 5.466106 0.859014
v -2.574174 5.444138 0.964457
v -2.384817 5.198573 0.717483
v -2.631132 5.356351 1.200744
v -3.135764 5.322976 1.196633
v -3.021015 5.397297 0.823356
v -2.562358 5.173989 1.204419
v -2.957914 4.884022 1.173425
v -3.192918 4.957689 0.944156
v -2.766230 4.585253 0.973708
v -3.003329 4.668103 0.735086
v -3.031636 5.305626 0.759855
v -2.513411 5.283268 1.145328
v -2.282850 5.013314 0.948388
v -2.369243 4.842511 1.033758
v -2.065047 4.737247 0.747671
v -2.177206 4.535663 0.841218
v -2.194328 4.927126 0.493497
v -1.895336 4.401694 0.544200
v -1.997040 4.203505 0.634905
v -2.569916 4.114919 0.333002
v -2.430697 4.446402 0.138500
v -2.384454 4.024132 0.541929
v -1.049395 4.954920 -0.021857
v -1.045019 4.948072 -0.028309
v -1.145536 4.116141 0.438337
v -1.307493 4.450634 0.634171
v -2.784425 4.392564 0.534694
v -2.575305 4.303834 0.758581
v -1.002319 4.437024 0.200979
v -0.515052 4.412192 0.367904
v -0.506456 4.544538 -0.007074
vn 0.4913 -0.0748 0.8677
vn 0.6017 0.5082 0.6162
vn -0.2681 0.5782 0.7706
vn 0.0047 -0.0241 0.9997
vn 0.4838 0.7915 0.3734
vn -0.4110 0.8979 0.1577
vn -0.4306 0.5348 0.7271
vn -0.5522 0.8305 0.0725
vn -0.5690 0.4418 0.6936
vn -0.6957 0.7145 0.0739
vn -0.4101 0.6971 -0.5880
vn -0.5619 0.6168 -0.5512
vn -0.1597 0.3540 -0.9215
vn -0.2669 0.2433 -0.9325
vn 0.1695 -0.1736 -0.9701
vn -0.0096 -0.3755 -0.9268
vn 0.4976 -0.7426 -0.4483
vn 0.2357 -0.9142 -0.3296
vn 0.1842 -0.1132 -0.9763
vn 0.4295 -0.6143 -0.6620
vn 0.6560 0.1379 -0.7421
vn -0.2526 0.6619 -0.7057
vn 0.4972 0.8509 -0.1696
vn 0.5675 0.5927 -0.5715
vn -0.5135 -0.6440 -0.5671
vn -0.2076 -0.9765 0.0575
vn 0.2153 -0.8045 0.5535
vn 0.0415 -0.7392 0.6722
vn -0.2208 -0.1245 0.9673
vn 0.5378 -0.0958 0.8376
vn -0.7935 0.5302 0.2987
vn 0.5429 0.7506 -0.3766
vn -0.3837 0.3097 0.8700
vn -0.3870 0.0819 -0.9184
vn -0.2825 0.1962 -0.9390
vn 0.2797 0.5544 -0.7838
vn 0.7269 0.4270 -0.5379
vn -0.1575 0.4339 -0.8871
vn 0.3023 0.6532 -0.6942
vn -0.1725 0.4679 -0.8668
vn 0.2755 0.7144 -0.6433
vn -0.1771 0.5016 -0.8468
vn -0.5906 0.1246 -0.7973
vn -0.6007 0.1576 -0.7838
vn 0.0224 0.9768 -0.2130
vn -0.2413 0.6087 -0.7558
vn 0.6840 0.7017 -0.1992
vn 0.4228 0.9035 0.0706
vn -0.5395 0.7974 -0.2703
vn -0.6487 0.4605 0.6059
vn 0.2009 0.6062 0.7695
vn -0.3181 -0.4516 0.8336
vn 0.3515 -0.0736 0.9333
vn -0.9678 -0.2516 -0.0018
vn -0.8646 -0.4668 -0.1861
vn -0.2580 -0.6568 0.7086
vn -0.7267 0.3130 -0.6116
vn 0.7282 0.4069 0.5515
vn 0.4523 -0.2400 0.8590
vn 0.8331 0.3209 0.4505
vn 0.4483 -0.2934 0.8443
vn 0.8842 0.2879 0.3678
vn 0.7122 0.6345 -0.3003
vn 0.5400 -0.3877 0.7471
vn 0.9895 0.1273 0.0688
vn -0.7935 -0.5370 -0.2865
vn -0.5876 0.0833 -0.8049
vn -0.2937 -0.7826 0.5489
vn -0.1199 0.3845 -0.9153
vn -0.3727 0.7172 -0.5888
vn 0.9107 -0.2222 0.3482
vn 0.4255 -0.7327 0.5312
vn -0.0587 -0.0749 0.9955
vn -0.8469 -0.4847 -0.2187
vn -0.2932 -0.6895 0.6623
vn 0.6692 0.7213 -0.1786
vn 0.8062 0.5520 0.2130
vn 0.7786 -0.3296 0.5339
vn 0.7804 -0.1023 -0.6169
vn -0.1266 -0.6598 0.7407
vn -0.4062 0.8933 0.1926
s 1
f 3//1 5//2 4//3 2//4
f 4//3 5//2 7//5 6//6
f 9//7 4//3 6//6 8//8
f 11//9 9//7 8//8 10//10
f 8//8 13//11 12//12 10//10
f 13//11 15//13 14//14 12//12
f 14//14 15//13 17//15 16//16
f 16//16 17//15 19//17 18//18
f 17//15 21//19 20//20 19//17
f 21//19 22//21 20//20
f 25//22 24//23 23//24
f 27//25 16//16 18//18 26//26
f 26//26 18//18 29//27 28//28
f 29//27 31//29 30//30 28//28
f 31//29 11//9 33//31 32//32
f 30//30 31//29 32//32
f 33//31 35//33 34//34 32//32
f 34//34 38//35 37//36 36//37
f 32//32 34//34 36//37
f 37//36 38//35 39//38
f 41//39 37//36 39//38 40//40
f 43//41 41//39 40//40 42//42
f 40//40 45//43 44//44 42//42
f 47//45 43//41 42//42 46//46
f 49//47 43//41 47//45 48//48
f 52//49 51//50 50//51 48//48
f 47//45 52//49 48//48
f 50//51 51//50 54//52 53//53
f 51//50 55//54 54//52
f 55//54 57//55 56//56 54//52
f 58//57 44//44 57//55 55//54
f 59//58 50//51 53//53
f 61//59 60//60 59//58 53//53
f 63//61 62//62 60//60 61//59
f 60//60 62//62 64//63 49//47
f 66//64 65//65 62//62 63//61
f 54//52 56//56 61//59 53//53
f 50//51 59//58 48//48
f 52//49 47//45 46//46
f 58//57 52//49 46//46
f 38//35 34//34 27//25 67//66
f 68//67 38//35 67//66
f 28//28 30//30 65//65 66//64
f 69//68 26//26 28//28 66//64
f 67//66 27//25 26//26 69//68
f 33//31 11//9 10//10
f 25//22 71//69 70//70
f 25//22 23//24 22//21 21//19
f 71//69 25//22 21//19
f 24//23 25//22 70//70 6//6
f 7//5 24//23 6//6
f 15//13 71//69 21//19 17//15
f 6//6 70//70 13//11 8//8
f 19//17 20//20 1//71 72//72
f 2//4 4//3 9//7 73//73
f 1//71 2//4 73//73 72//72
f 14//14 35//33 12//12
f 14//14 16//16 27//25 34//34
f 35//33 14//14 34//34
f 12//12 35//33 33//31 10//10
f 18//18 19//17 72//72 29//27
f 73//73 9//7 11//9 31//29
f 72//72 73//73 31//29 29//27
f 38//35 68//67 39//38
f 65//65 30//30 32//32 36//37
f 45//43 68//67 67//66 74//74
f 39//38 68//67 45//43 40//40
f 74//74 67//66 69//68 75//75
f 36//37 37//36 41//39 64//63
f 62//62 65//65 36//37 64//63
f 75//75 69//68 66//64 63//61
f 44//44 45//43 74//74 57//55
f 42//42 44//44 58//57 46//46
f 51//50 52//49 58//57 55//54
f 57//55 74//74 75//75 56//56
f 64//63 41//39 43//41 49//47
f 59//58 60//60 49//47 48//48
f 56//56 75//75 63//61 61//59
f 70//70 71//69 15//13 13//11
f 1//71 20//76 76//77 2//4
f 5//2 3//1 77//78 78//79 22//21 23//24 24//23 7//5
f 77//78 3//1 2//4 76//77 1//80
f 22//21 78//79 20//20
s 0
f 1//81 77//81 78//81 20//81
