# Blender 5.0.0
# www.blender.org
mtllib prep_throw_arm0013.mtl
o Mball.001
v -0.732753 4.262825 0.379943
v -0.857239 4.542939 0.673175
v -0.549393 4.667128 0.657540
v -1.035923 4.900846 0.594801
v -0.599384 5.079835 0.520442
v -1.090817 5.008399 0.460581
v -0.597310 5.149179 0.486542
v -1.440566 4.726305 0.470057
v -1.384247 4.640692 0.584668
v -1.764564 4.459893 0.466332
v -1.718529 4.394558 0.556221
v -1.813004 4.414835 0.058537
v -1.450504 4.692400 0.067467
v -1.800020 4.386211 0.022536
v -1.439677 4.670209 0.038462
v -1.652176 4.029379 -0.100594
v -1.259549 4.340842 -0.103848
v -1.495634 3.789373 0.039094
v -1.114223 4.102985 0.019625
v -0.800235 4.375021 -0.002492
v -0.925408 4.604570 -0.100473
v -0.580986 4.858338 -0.094010
v -0.599225 5.209464 0.085923
v -0.598505 5.217282 0.097051
v -0.927036 5.082431 0.060649
v -2.028112 3.614992 0.272477
v -2.146282 3.702048 0.193019
v -1.713452 3.791045 0.449171
v -1.393187 3.772063 0.405116
v -1.807836 3.874751 0.524971
v -1.509976 4.051600 0.634948
v -1.988471 4.124259 0.451382
v -1.867028 4.292724 0.453056
v -2.156396 4.020190 0.130571
v -1.903073 4.281023 0.044559
v -2.070314 4.363261 0.538276
v -2.077890 4.366508 0.532636
v -2.333370 4.138560 0.287129
v -2.408993 4.197732 0.386290
v -2.612338 4.330023 0.677382
v -2.264982 4.516252 0.816832
v -2.815939 4.454576 0.963508
v -2.487824 4.616508 1.098650
v -2.872687 4.370661 0.953799
v -2.649316 4.270742 0.672179
v -3.012172 4.555550 1.259319
v -2.743786 4.695606 1.368003
v -2.601880 4.665115 1.451017
v -2.418669 4.605808 1.138088
v -2.595797 4.466312 1.647492
v -3.076182 4.292356 1.667030
v -3.049622 4.555456 1.336123
v -2.493986 4.319900 1.592831
v -2.825250 3.957475 1.505008
v -3.108503 4.056222 1.330050
v -2.620792 3.830181 1.220009
v -2.909566 3.940696 1.039235
v -3.054175 4.497333 1.251181
v -2.478792 4.458477 1.567056
v -2.241886 4.367205 1.290532
v -2.276463 4.150806 1.325003
v -2.016803 4.268380 1.009557
v -2.068778 4.013187 1.044245
v -2.225123 4.513429 0.838746
v -1.829908 4.114800 0.719356
v -1.872935 3.858026 0.748799
v -2.461432 3.741749 0.476521
v -2.427286 4.166471 0.385209
v -2.226418 3.622126 0.630894
v -1.091231 4.952335 0.053753
v -1.087448 4.947291 0.045367
v -1.041758 4.023201 0.413055
v -1.180852 4.295006 0.672269
v -2.683463 3.842523 0.758644
v -2.423262 3.725057 0.925902
v -1.002319 4.437024 0.200979
v -0.481832 4.401351 0.328926
v -0.513416 4.571759 -0.039659
vn 0.5673 -0.1099 0.8161
vn 0.5970 0.4856 0.6386
vn -0.2102 0.4461 0.8700
vn 0.1547 -0.1452 0.9772
vn 0.4544 0.8059 0.3795
vn -0.4557 0.8168 0.3539
vn -0.3297 0.3788 0.8647
vn -0.5850 0.7404 0.3312
vn -0.4462 0.2904 0.8465
vn -0.6993 0.6267 0.3437
vn -0.5686 0.7397 -0.3599
vn -0.6903 0.6517 -0.3144
vn -0.3466 0.4641 -0.8152
vn -0.4346 0.3611 -0.8251
vn 0.0170 -0.0233 -0.9996
vn -0.1207 -0.1989 -0.9726
vn 0.4613 -0.6040 -0.6499
vn 0.2749 -0.7932 -0.5434
vn 0.0134 0.0180 -0.9997
vn 0.3456 -0.4696 -0.8124
vn 0.5733 0.2243 -0.7880
vn -0.3817 0.7340 -0.5617
vn 0.4472 0.8798 -0.1611
vn 0.5122 0.6339 -0.5796
vn -0.4526 -0.5439 -0.7066
vn 0.0003 -0.9677 -0.2523
vn 0.3883 -0.8536 0.3473
vn 0.3034 -0.8338 0.4612
vn -0.0300 -0.2751 0.9610
vn 0.6666 -0.0408 0.7443
vn -0.7349 0.4201 0.5323
vn 0.3078 0.9497 -0.0569
vn -0.6200 -0.7315 -0.2837
vn -0.5459 0.2656 -0.7946
vn -0.4685 0.4049 -0.7852
vn 0.0070 0.8470 -0.5316
vn 0.5235 0.7753 -0.3534
vn -0.4162 0.6408 -0.6451
vn 0.0264 0.9229 -0.3841
vn -0.4346 0.6667 -0.6055
vn 0.0003 0.9525 -0.3045
vn -0.4410 0.6928 -0.5706
vn -0.7340 0.2032 -0.6481
vn -0.7510 0.2273 -0.6199
vn -0.2271 0.9547 0.1922
vn -0.5163 0.7473 -0.4183
vn 0.4705 0.8782 0.0859
vn 0.2156 0.8782 0.4269
vn -0.7381 0.6591 0.1442
vn -0.6211 0.0361 0.7829
vn 0.1683 0.3386 0.9258
vn -0.0845 -0.7700 0.6325
vn 0.5015 -0.2594 0.8253
vn -0.8816 -0.4714 -0.0234
vn -0.7486 -0.5848 -0.3125
vn 0.0170 -0.9151 0.4028
vn -0.8818 0.2882 -0.3733
vn 0.6769 0.3778 0.6318
vn 0.6400 -0.3715 0.6725
vn 0.7899 0.3580 0.4979
vn 0.6481 -0.4197 0.6355
vn 0.8350 0.3674 0.4096
vn 0.5014 0.8644 -0.0369
vn 0.7251 -0.4757 0.4980
vn 0.9355 0.3366 0.1076
vn -0.6774 -0.5914 -0.4376
vn -0.7200 0.1656 -0.6739
vn -0.0074 -0.9805 0.1962
vn -0.3437 0.4797 -0.8073
vn -0.5342 0.7647 -0.3603
vn 0.9708 -0.1891 0.1476
vn 0.5742 -0.7597 0.3053
vn 0.1284 -0.2166 0.9678
vn -0.7294 -0.5851 -0.3545
vn -0.0161 -0.9396 0.3420
vn 0.6028 0.7847 -0.1442
vn 0.7932 0.5719 0.2093
vn 0.8169 -0.3786 0.4352
vn 0.7515 -0.0159 -0.6595
vn -0.0038 -0.7575 0.6529
vn -0.4484 0.8155 0.3660
s 1
f 3//1 5//2 4//3 2//4
f 4//3 5//2 7//5 6//6
f 9//7 4//3 6//6 8//8
f 11//9 9//7 8//8 10//10
f 8//8 13//11 12//12 10//10
f 13//11 15//13 14//14 12//12
f 14//14 15//13 17//15 16//16
f 16//16 17//15 19//17 18//18
f 17//15 21//19 20//20 19//17
f 21//19 22//21 20//20
f 25//22 24//23 23//24
f 27//25 16//16 18//18 26//26
f 26//26 18//18 29//27 28//28
f 29//27 31//29 30//30 28//28
f 31//29 11//9 33//31 32//32
f 30//30 31//29 32//32
f 33//31 35//33 34//34 32//32
f 34//34 38//35 37//36 36//37
f 32//32 34//34 36//37
f 37//36 38//35 39//38
f 41//39 37//36 39//38 40//40
f 43//41 41//39 40//40 42//42
f 40//40 45//43 44//44 42//42
f 47//45 43//41 42//42 46//46
f 49//47 43//41 47//45 48//48
f 52//49 51//50 50//51 48//48
f 47//45 52//49 48//48
f 50//51 51//50 54//52 53//53
f 51//50 55//54 54//52
f 55//54 57//55 56//56 54//52
f 58//57 44//44 57//55 55//54
f 59//58 50//51 53//53
f 61//59 60//60 59//58 53//53
f 63//61 62//62 60//60 61//59
f 60//60 62//62 64//63 49//47
f 66//64 65//65 62//62 63//61
f 54//52 56//56 61//59 53//53
f 50//51 59//58 48//48
f 52//49 47//45 46//46
f 58//57 52//49 46//46
f 38//35 34//34 27//25 67//66
f 68//67 38//35 67//66
f 28//28 30//30 65//65 66//64
f 69//68 26//26 28//28 66//64
f 67//66 27//25 26//26 69//68
f 33//31 11//9 10//10
f 25//22 71//69 70//70
f 25//22 23//24 22//21 21//19
f 71//69 25//22 21//19
f 24//23 25//22 70//70 6//6
f 7//5 24//23 6//6
f 15//13 71//69 21//19 17//15
f 6//6 70//70 13//11 8//8
f 19//17 20//20 1//71 72//72
f 2//4 4//3 9//7 73//73
f 1//71 2//4 73//73 72//72
f 14//14 35//33 12//12
f 14//14 16//16 27//25 34//34
f 35//33 14//14 34//34
f 12//12 35//33 33//31 10//10
f 18//18 19//17 72//72 29//27
f 73//73 9//7 11//9 31//29
f 72//72 73//73 31//29 29//27
f 38//35 68//67 39//38
f 65//65 30//30 32//32 36//37
f 45//43 68//67 67//66 74//74
f 39//38 68//67 45//43 40//40
f 74//74 67//66 69//68 75//75
f 36//37 37//36 41//39 64//63
f 62//62 65//65 36//37 64//63
f 75//75 69//68 66//64 63//61
f 44//44 45//43 74//74 57//55
f 42//42 44//44 58//57 46//46
f 51//50 52//49 58//57 55//54
f 57//55 74//74 75//75 56//56
f 64//63 41//39 43//41 49//47
f 59//58 60//60 49//47 48//48
f 56//56 75//75 63//61 61//59
f 70//70 71//69 15//13 13//11
f 1//71 20//76 76//77 2//4
f 5//2 3//1 77//78 78//79 22//21 23//24 24//23 7//5
f 77//78 3//1 2//4 76//77 1//80
f 22//21 78//79 20//20
s 0
f 1//81 77//81 78//81 20//81
