# Blender 5.0.0
# www.blender.org
mtllib prep_throw_arm0029.mtl
o Mball.001
v -0.829568 4.344539 0.454505
v -0.981825 4.713700 0.658461
v -0.607574 4.739896 0.662437
v -1.097912 5.041609 0.493358
v -0.603753 5.094440 0.505392
v -1.113541 5.109820 0.339358
v -0.598513 5.158889 0.472802
v -1.490432 4.886669 0.308958
v -1.472356 4.838375 0.444518
v -1.835888 4.644793 0.287761
v -1.819485 4.611543 0.394342
v -1.801742 4.456950 -0.089852
v -1.410035 4.719735 -0.067426
v -1.784270 4.420188 -0.114814
v -1.395356 4.687713 -0.088293
v -1.666559 4.036020 -0.116939
v -1.225964 4.308297 -0.122631
v -1.578132 3.847370 0.096487
v -1.141692 4.109579 0.068765
v -0.804120 4.342228 0.061346
v -0.878590 4.541499 -0.096794
v -0.548750 4.808835 -0.081229
v -0.587379 5.200809 0.074536
v -0.587328 5.209456 0.085730
v -0.882796 5.061875 -0.001732
v -2.198380 3.917572 0.290304
v -2.281698 3.955793 0.167531
v -1.852904 4.037284 0.409020
v -1.555477 3.936651 0.452400
v -1.947088 4.109615 0.432961
v -1.677594 4.288876 0.578129
v -2.074883 4.324653 0.275719
v -1.949453 4.478921 0.282494
v -2.192022 4.132697 -0.022191
v -1.908734 4.314152 -0.090757
v -1.991946 4.633119 0.137616
v -1.997372 4.635044 0.129917
v -2.309297 4.384284 -0.004123
v -2.355781 4.532249 0.024941
v -2.490510 4.937439 0.136156
v -2.102641 5.064186 0.225665
v -2.628197 5.332239 0.247065
v -2.266633 5.445235 0.340930
v -2.710004 5.285782 0.268078
v -2.545405 4.904952 0.152913
v -2.767147 5.716475 0.378213
v -2.468780 5.812562 0.449926
v -2.347064 5.813040 0.557490
v -2.205884 5.447470 0.390578
v -2.406843 5.839364 0.802277
v -2.909457 5.899672 0.797601
v -2.800005 5.793588 0.427868
v -2.365546 5.658382 0.853810
v -2.799166 5.448536 0.891577
v -3.029056 5.465817 0.651634
v -2.661626 5.052507 0.783022
v -2.892603 5.074865 0.531843
v -2.826355 5.683965 0.391172
v -2.303613 5.726713 0.770833
v -2.123420 5.351491 0.658230
v -2.230244 5.243628 0.781134
v -1.956846 4.971371 0.543389
v -2.093256 4.842974 0.681441
v -2.066474 5.067084 0.252053
v -1.846974 4.527668 0.437185
v -1.970658 4.409150 0.571443
v -2.561798 4.313782 0.301777
v -2.383421 4.516530 0.035183
v -2.384055 4.281298 0.525968
v -1.036736 4.938036 -0.041682
v -1.032326 4.930500 -0.047239
v -1.172636 4.160054 0.469341
v -1.336272 4.520336 0.633155
v -2.724855 4.695167 0.417195
v -2.522899 4.666411 0.655436
v -1.002319 4.437024 0.200979
v -0.524687 4.424993 0.383063
v -0.506644 4.534377 0.008540
vn 0.4728 -0.0447 0.8800
vn 0.6117 0.5269 0.5901
vn -0.2710 0.6448 0.7147
vn -0.0268 0.0498 0.9984
vn 0.4945 0.7950 0.3513
vn -0.3874 0.9198 0.0629
vn -0.4517 0.6088 0.6522
vn -0.5331 0.8448 -0.0462
vn -0.6044 0.5060 0.6154
vn -0.6899 0.7225 -0.0440
vn -0.3645 0.6445 -0.6721
vn -0.5324 0.5625 -0.6325
vn -0.1182 0.2798 -0.9528
vn -0.2394 0.1531 -0.9588
vn 0.1981 -0.2630 -0.9442
vn -0.0049 -0.5046 -0.8633
vn 0.4910 -0.7982 -0.3488
vn 0.1821 -0.9636 -0.1957
vn 0.2316 -0.1860 -0.9549
vn 0.4488 -0.6784 -0.5817
vn 0.6715 0.0995 -0.7343
vn -0.2145 0.6113 -0.7618
vn 0.5096 0.8400 -0.1862
vn 0.5749 0.5788 -0.5784
vn -0.6108 -0.6936 -0.3819
vn -0.3364 -0.8914 0.3038
vn 0.1425 -0.7552 0.6398
vn -0.0448 -0.6326 0.7732
vn -0.2788 -0.0475 0.9592
vn 0.4592 -0.1800 0.8699
vn -0.8128 0.5466 0.2016
vn 0.5386 0.4762 -0.6951
vn -0.4428 0.5540 0.7050
vn -0.3616 -0.1172 -0.9249
vn -0.2812 -0.0312 -0.9591
vn 0.3430 0.2531 -0.9046
vn 0.7541 0.1087 -0.6477
vn -0.0990 0.1898 -0.9768
vn 0.3745 0.3539 -0.8570
vn -0.1080 0.2255 -0.9682
vn 0.3538 0.4259 -0.8328
vn -0.1074 0.2606 -0.9595
vn -0.5845 -0.0029 -0.8114
vn -0.5856 0.0321 -0.8100
vn 0.1749 0.8244 -0.5383
vn -0.1450 0.3811 -0.9131
vn 0.7649 0.4775 -0.4324
vn 0.5672 0.7782 -0.2697
vn -0.3998 0.7248 -0.5611
vn -0.5391 0.7371 0.4075
vn 0.3395 0.7800 0.5257
vn -0.3482 -0.1385 0.9271
vn 0.3676 0.1255 0.9215
vn -0.9943 -0.0860 0.0628
vn -0.9382 -0.3448 -0.0295
vn -0.3261 -0.3640 0.8724
vn -0.6660 0.2342 -0.7083
vn 0.8213 0.4201 0.3859
vn 0.4297 -0.0642 0.9007
vn 0.9006 0.2910 0.3227
vn 0.4152 -0.1171 0.9022
vn 0.9391 0.2272 0.2579
vn 0.7766 0.3821 -0.5009
vn 0.5056 -0.2382 0.8293
vn 0.9994 -0.0304 -0.0170
vn -0.8846 -0.4564 -0.0961
vn -0.5901 -0.0445 -0.8061
vn -0.3886 -0.5109 0.7668
vn -0.0520 0.3199 -0.9460
vn -0.3155 0.6675 -0.6745
vn 0.8909 -0.2055 0.4050
vn 0.3799 -0.6884 0.6179
vn -0.1024 0.0109 0.9947
vn -0.9264 -0.3732 -0.0508
vn -0.3658 -0.3992 0.8407
vn 0.6924 0.6868 -0.2212
vn 0.8173 0.5528 0.1626
vn 0.7748 -0.2939 0.5598
vn 0.7749 -0.1427 -0.6157
vn -0.1678 -0.6068 0.7769
vn -0.3919 0.9140 0.1053
s 1
f 3//1 5//2 4//3 2//4
f 4//3 5//2 7//5 6//6
f 9//7 4//3 6//6 8//8
f 11//9 9//7 8//8 10//10
f 8//8 13//11 12//12 10//10
f 13//11 15//13 14//14 12//12
f 14//14 15//13 17//15 16//16
f 16//16 17//15 19//17 18//18
f 17//15 21//19 20//20 19//17
f 21//19 22//21 20//20
f 25//22 24//23 23//24
f 27//25 16//16 18//18 26//26
f 26//26 18//18 29//27 28//28
f 29//27 31//29 30//30 28//28
f 31//29 11//9 33//31 32//32
f 30//30 31//29 32//32
f 33//31 35//33 34//34 32//32
f 34//34 38//35 37//36 36//37
f 32//32 34//34 36//37
f 37//36 38//35 39//38
f 41//39 37//36 39//38 40//40
f 43//41 41//39 40//40 42//42
f 40//40 45//43 44//44 42//42
f 47//45 43//41 42//42 46//46
f 49//47 43//41 47//45 48//48
f 52//49 51//50 50//51 48//48
f 47//45 52//49 48//48
f 50//51 51//50 54//52 53//53
f 51//50 55//54 54//52
f 55//54 57//55 56//56 54//52
f 58//57 44//44 57//55 55//54
f 59//58 50//51 53//53
f 61//59 60//60 59//58 53//53
f 63//61 62//62 60//60 61//59
f 60//60 62//62 64//63 49//47
f 66//64 65//65 62//62 63//61
f 54//52 56//56 61//59 53//53
f 50//51 59//58 48//48
f 52//49 47//45 46//46
f 58//57 52//49 46//46
f 38//35 34//34 27//25 67//66
f 68//67 38//35 67//66
f 28//28 30//30 65//65 66//64
f 69//68 26//26 28//28 66//64
f 67//66 27//25 26//26 69//68
f 33//31 11//9 10//10
f 25//22 71//69 70//70
f 25//22 23//24 22//21 21//19
f 71//69 25//22 21//19
f 24//23 25//22 70//70 6//6
f 7//5 24//23 6//6
f 15//13 71//69 21//19 17//15
f 6//6 70//70 13//11 8//8
f 19//17 20//20 1//71 72//72
f 2//4 4//3 9//7 73//73
f 1//71 2//4 73//73 72//72
f 14//14 35//33 12//12
f 14//14 16//16 27//25 34//34
f 35//33 14//14 34//34
f 12//12 35//33 33//31 10//10
f 18//18 19//17 72//72 29//27
f 73//73 9//7 11//9 31//29
f 72//72 73//73 31//29 29//27
f 38//35 68//67 39//38
f 65//65 30//30 32//32 36//37
f 45//43 68//67 67//66 74//74
f 39//38 68//67 45//43 40//40
f 74//74 67//66 69//68 75//75
f 36//37 37//36 41//39 64//63
f 62//62 65//65 36//37 64//63
f 75//75 69//68 66//64 63//61
f 44//44 45//43 74//74 57//55
f 42//42 44//44 58//57 46//46
f 51//50 52//49 58//57 55//54
f 57//55 74//74 75//75 56//56
f 64//63 41//39 43//41 49//47
f 59//58 60//60 49//47 48//48
f 56//56 75//75 63//61 61//59
f 70//70 71//69 15//13 13//11
f 1//71 20//76 76//77 2//4
f 5//2 3//1 77//78 78//79 22//21 23//24 24//23 7//5
f 77//78 3//1 2//4 76//77 1//80
f 22//21 78//79 20//20
s 0
f 1//81 77//81 78//81 20//81
