# Blender 5.0.0
# www.blender.org
mtllib prep_throw_arm0046.mtl
o Mball.001
v -0.829746 4.345021 0.454957
v -0.981998 4.714535 0.658484
v -0.607653 4.740316 0.662398
v -1.097962 5.042139 0.493038
v -0.603752 5.094499 0.505317
v -1.113530 5.110096 0.338984
v -0.598508 5.158922 0.472737
v -1.490461 4.887074 0.308658
v -1.472444 4.839024 0.444277
v -1.838360 4.637732 0.289378
v -1.821237 4.606742 0.395312
v -1.810095 4.443396 -0.078547
v -1.409957 4.719432 -0.067516
v -1.791914 4.409491 -0.103700
v -1.395277 4.687367 -0.088343
v -1.676213 4.040351 -0.095596
v -1.225950 4.307846 -0.122199
v -1.586102 3.862403 0.118616
v -1.141789 4.109459 0.069448
v -0.804172 4.342043 0.061848
v -0.878548 4.541043 -0.096514
v -0.548713 4.808580 -0.081147
v -0.587358 5.200742 0.074493
v -0.587308 5.209394 0.085687
v -0.882717 5.061611 -0.001879
v -2.197341 4.019332 0.328470
v -2.289965 4.022252 0.210132
v -1.836619 4.080570 0.393968
v -1.560046 3.945077 0.464654
v -1.941792 4.107127 0.421267
v -1.679828 4.285729 0.580726
v -2.074336 4.304181 0.266258
v -1.952718 4.464919 0.283006
v -2.205695 4.095963 -0.009615
v -1.923922 4.289119 -0.070499
v -1.933674 4.556240 -0.007567
v -1.939395 4.556969 -0.015152
v -2.288835 4.342502 -0.060865
v -2.313367 4.497791 -0.072203
v -2.383027 4.945275 -0.072609
v -1.974708 5.029215 -0.040289
v -2.456482 5.384151 -0.070965
v -2.075268 5.462071 -0.029664
v -2.540359 5.365193 -0.035034
v -2.439161 4.932470 -0.045652
v -2.530111 5.822108 -0.047427
v -2.215852 5.886589 -0.019501
v -2.083250 5.910432 0.075808
v -2.009312 5.474098 0.013578
v -2.110035 6.050422 0.300344
v -2.598118 6.197368 0.301165
v -2.547039 5.920885 -0.020642
v -2.085801 5.896987 0.396374
v -2.534532 5.798814 0.507944
v -2.787052 5.754935 0.288515
v -2.461098 5.359831 0.508846
v -2.715381 5.316063 0.277556
v -2.590944 5.808458 -0.023832
v -2.026073 5.913446 0.297301
v -1.908518 5.484132 0.286873
v -2.012676 5.456376 0.436092
v -1.805250 5.051840 0.276279
v -1.939318 5.016992 0.446582
v -1.935620 5.036475 -0.017941
v -1.766837 4.553639 0.289435
v -1.884570 4.536717 0.452038
v -2.511302 4.450969 0.256340
v -2.341350 4.492719 -0.057091
v -2.313885 4.483678 0.467440
v -1.036636 4.937696 -0.041854
v -1.032227 4.930152 -0.047399
v -1.172873 4.160680 0.469957
v -1.336497 4.521305 0.633312
v -2.610881 4.884028 0.266977
v -2.387499 4.921712 0.489162
v -1.002319 4.437024 0.200979
v -0.524768 4.425218 0.383263
v -0.506657 4.534248 0.008758
vn 0.4726 -0.0442 0.8801
vn 0.6118 0.5272 0.5897
vn -0.2709 0.6458 0.7138
vn -0.0270 0.0510 0.9983
vn 0.4946 0.7951 0.3509
vn -0.3871 0.9200 0.0616
vn -0.4539 0.6102 0.6493
vn -0.5382 0.8413 -0.0504
vn -0.6148 0.4998 0.6101
vn -0.7003 0.7122 -0.0485
vn -0.3742 0.6390 -0.6720
vn -0.5561 0.5464 -0.6263
vn -0.1324 0.2741 -0.9525
vn -0.2685 0.1220 -0.9555
vn 0.1823 -0.2777 -0.9432
vn -0.0325 -0.5779 -0.8155
vn 0.4731 -0.8081 -0.3509
vn 0.1228 -0.9813 -0.1480
vn 0.2320 -0.1870 -0.9546
vn 0.4490 -0.6793 -0.5805
vn 0.6716 0.0990 -0.7343
vn -0.2142 0.6105 -0.7625
vn 0.5097 0.8399 -0.1865
vn 0.5748 0.5786 -0.5786
vn -0.7092 -0.6840 -0.1708
vn -0.4082 -0.7517 0.5180
vn 0.0980 -0.7628 0.6391
vn -0.0279 -0.6206 0.7836
vn -0.3008 -0.0685 0.9512
vn 0.2091 -0.4481 0.8692
vn -0.8311 0.5176 0.2034
vn -0.1674 -0.1035 -0.9805
vn -0.5249 0.6737 0.5203
vn -0.3834 -0.3345 -0.8609
vn -0.3835 -0.2672 -0.8840
vn 0.2958 -0.0641 -0.9531
vn 0.6793 -0.2176 -0.7008
vn -0.1592 -0.0696 -0.9848
vn 0.3339 0.0397 -0.9418
vn -0.1612 -0.0313 -0.9864
vn 0.3191 0.1145 -0.9408
vn -0.1540 0.0024 -0.9881
vn -0.6633 -0.1329 -0.7365
vn -0.6562 -0.1005 -0.7479
vn 0.2326 0.5457 -0.8050
vn -0.1650 0.1247 -0.9784
vn 0.7537 0.2049 -0.6245
vn 0.6254 0.5277 -0.5748
vn -0.3418 0.5455 -0.7653
vn -0.3818 0.9106 0.1582
vn 0.5066 0.8400 0.1944
vn -0.2667 0.1880 0.9453
vn 0.4811 0.3220 0.8154
vn -0.9856 0.0917 0.1423
vn -0.9718 -0.1846 0.1469
vn -0.2774 -0.0529 0.9593
vn -0.6803 0.1183 -0.7233
vn 0.9152 0.3745 0.1490
vn 0.5074 0.1179 0.8536
vn 0.9651 0.2219 0.1394
vn 0.4844 0.0671 0.8723
vn 0.9850 0.1384 0.1030
vn 0.7498 0.0963 -0.6546
vn 0.5543 -0.0836 0.8281
vn 0.9706 -0.1995 -0.1347
vn -0.9376 -0.3238 0.1264
vn -0.6760 -0.1749 -0.7159
vn -0.3625 -0.2047 0.9092
vn -0.0514 0.3188 -0.9464
vn -0.3149 0.6666 -0.6756
vn 0.8908 -0.2051 0.4055
vn 0.3795 -0.6916 0.6145
vn -0.1010 0.0156 0.9948
vn -0.9656 -0.2195 0.1396
vn -0.3215 -0.0891 0.9427
vn 0.6926 0.6863 -0.2220
vn 0.8175 0.5528 0.1616
vn 0.7748 -0.2933 0.5600
vn 0.7747 -0.1433 -0.6158
vn -0.1683 -0.6060 0.7774
vn -0.3918 0.9142 0.1040
s 1
f 3//1 5//2 4//3 2//4
f 4//3 5//2 7//5 6//6
f 9//7 4//3 6//6 8//8
f 11//9 9//7 8//8 10//10
f 8//8 13//11 12//12 10//10
f 13//11 15//13 14//14 12//12
f 14//14 15//13 17//15 16//16
f 16//16 17//15 19//17 18//18
f 17//15 21//19 20//20 19//17
f 21//19 22//21 20//20
f 25//22 24//23 23//24
f 27//25 16//16 18//18 26//26
f 26//26 18//18 29//27 28//28
f 29//27 31//29 30//30 28//28
f 31//29 11//9 33//31 32//32
f 30//30 31//29 32//32
f 33//31 35//33 34//34 32//32
f 34//34 38//35 37//36 36//37
f 32//32 34//34 36//37
f 37//36 38//35 39//38
f 41//39 37//36 39//38 40//40
f 43//41 41//39 40//40 42//42
f 40//40 45//43 44//44 42//42
f 47//45 43//41 42//42 46//46
f 49//47 43//41 47//45 48//48
f 52//49 51//50 50//51 48//48
f 47//45 52//49 48//48
f 50//51 51//50 54//52 53//53
f 51//50 55//54 54//52
f 55//54 57//55 56//56 54//52
f 58//57 44//44 57//55 55//54
f 59//58 50//51 53//53
f 61//59 60//60 59//58 53//53
f 63//61 62//62 60//60 61//59
f 60//60 62//62 64//63 49//47
f 66//64 65//65 62//62 63//61
f 54//52 56//56 61//59 53//53
f 50//51 59//58 48//48
f 52//49 47//45 46//46
f 58//57 52//49 46//46
f 38//35 34//34 27//25 67//66
f 68//67 38//35 67//66
f 28//28 30//30 65//65 66//64
f 69//68 26//26 28//28 66//64
f 67//66 27//25 26//26 69//68
f 33//31 11//9 10//10
f 25//22 71//69 70//70
f 25//22 23//24 22//21 21//19
f 71//69 25//22 21//19
f 24//23 25//22 70//70 6//6
f 7//5 24//23 6//6
f 15//13 71//69 21//19 17//15
f 6//6 70//70 13//11 8//8
f 19//17 20//20 1//71 72//72
f 2//4 4//3 9//7 73//73
f 1//71 2//4 73//73 72//72
f 14//14 35//33 12//12
f 14//14 16//16 27//25 34//34
f 35//33 14//14 34//34
f 12//12 35//33 33//31 10//10
f 18//18 19//17 72//72 29//27
f 73//73 9//7 11//9 31//29
f 72//72 73//73 31//29 29//27
f 38//35 68//67 39//38
f 65//65 30//30 32//32 36//37
f 45//43 68//67 67//66 74//74
f 39//38 68//67 45//43 40//40
f 74//74 67//66 69//68 75//75
f 36//37 37//36 41//39 64//63
f 62//62 65//65 36//37 64//63
f 75//75 69//68 66//64 63//61
f 44//44 45//43 74//74 57//55
f 42//42 44//44 58//57 46//46
f 51//50 52//49 58//57 55//54
f 57//55 74//74 75//75 56//56
f 64//63 41//39 43//41 49//47
f 59//58 60//60 49//47 48//48
f 56//56 75//75 63//61 61//59
f 70//70 71//69 15//13 13//11
f 1//71 20//76 76//77 2//4
f 5//2 3//1 77//78 78//79 22//21 23//24 24//23 7//5
f 77//78 3//1 2//4 76//77 1//80
f 22//21 78//79 20//20
s 0
f 1//81 77//81 78//81 20//81
