# Blender 5.0.0
# www.blender.org
mtllib prep_throw_arm0022.mtl
o Mball.001
v -0.813851 4.319297 0.432129
v -0.964527 4.667627 0.660138
v -0.599406 4.717716 0.663839
v -1.091509 5.009847 0.515133
v -0.603537 5.090983 0.509556
v -1.113081 5.091053 0.364632
v -0.598701 5.156822 0.476475
v -1.486663 4.858232 0.335785
v -1.462758 4.797450 0.467541
v -1.828184 4.616848 0.310460
v -1.807538 4.572371 0.414240
v -1.801824 4.472216 -0.082289
v -1.418099 4.729464 -0.051311
v -1.784899 4.436471 -0.110230
v -1.403746 4.699862 -0.074444
v -1.657782 4.049890 -0.146614
v -1.230117 4.328533 -0.136230
v -1.558143 3.838263 0.050230
v -1.135661 4.113788 0.040195
v -0.801523 4.352091 0.037467
v -0.884541 4.564300 -0.107371
v -0.552902 4.822677 -0.085633
v -0.589314 5.204078 0.077058
v -0.589168 5.212475 0.088259
v -0.890321 5.073804 0.009206
v -2.166600 3.824558 0.241424
v -2.253742 3.890744 0.127120
v -1.837817 3.970764 0.396358
v -1.526927 3.896685 0.416240
v -1.931047 4.062902 0.433011
v -1.653305 4.236399 0.573141
v -2.067149 4.298931 0.294418
v -1.939792 4.453697 0.300310
v -2.185213 4.140714 -0.020132
v -1.903083 4.336347 -0.091628
v -2.049922 4.610610 0.256071
v -2.055678 4.613508 0.248794
v -2.334975 4.362898 0.054528
v -2.399715 4.486809 0.114255
v -2.583574 4.810700 0.306340
v -2.214988 4.959328 0.430942
v -2.769218 5.124276 0.496011
v -2.424861 5.254195 0.621028
v -2.844021 5.059913 0.503651
v -2.633572 4.765312 0.313726
v -2.954550 5.420378 0.702733
v -2.670806 5.532343 0.801014
v -2.549289 5.513205 0.907694
v -2.364509 5.247986 0.670840
v -2.609285 5.441173 1.146685
v -3.114494 5.421841 1.141546
v -2.996424 5.470666 0.766469
v -2.544719 5.257346 1.157349
v -2.946632 4.977109 1.135251
v -3.178854 5.043698 0.902483
v -2.760952 4.661502 0.947563
v -2.995017 4.736763 0.705105
v -3.008855 5.375656 0.706350
v -2.493027 5.361582 1.094535
v -2.267837 5.073814 0.908738
v -2.358485 4.910757 0.999890
v -2.055523 4.780079 0.719335
v -2.172668 4.587496 0.819669
v -2.179291 4.958254 0.457902
v -1.892506 4.426230 0.528510
v -1.998949 4.237836 0.626043
v -2.572603 4.148266 0.325680
v -2.424964 4.463799 0.119827
v -2.390208 4.064774 0.538535
v -1.046289 4.952427 -0.026711
v -1.041896 4.945432 -0.032982
v -1.152106 4.124865 0.443299
v -1.314775 4.464771 0.632804
v -2.781591 4.443542 0.516014
v -2.575565 4.362325 0.743842
v -1.002319 4.437024 0.200979
v -0.517386 4.414364 0.371092
v -0.506369 4.542343 -0.003947
vn 0.4866 -0.0694 0.8708
vn 0.6033 0.5115 0.6119
vn -0.2699 0.5913 0.7599
vn -0.0038 -0.0101 0.9999
vn 0.4860 0.7917 0.3701
vn -0.4062 0.9032 0.1389
vn -0.4360 0.5497 0.7126
vn -0.5480 0.8351 0.0485
vn -0.5767 0.4555 0.6782
vn -0.6939 0.7184 0.0497
vn -0.3987 0.6883 -0.6060
vn -0.5532 0.6082 -0.5693
vn -0.1482 0.3403 -0.9285
vn -0.2575 0.2280 -0.9390
vn 0.1780 -0.1902 -0.9655
vn -0.0051 -0.3967 -0.9179
vn 0.4978 -0.7541 -0.4284
vn 0.2286 -0.9241 -0.3062
vn 0.1955 -0.1273 -0.9724
vn 0.4343 -0.6275 -0.6463
vn 0.6603 0.1301 -0.7397
vn -0.2436 0.6526 -0.7175
vn 0.5003 0.8485 -0.1722
vn 0.5700 0.5896 -0.5723
vn -0.5257 -0.6544 -0.5434
vn -0.2292 -0.9688 0.0945
vn 0.2013 -0.7957 0.5712
vn 0.0216 -0.7223 0.6912
vn -0.2334 -0.1088 0.9663
vn 0.5269 -0.1014 0.8439
vn -0.7968 0.5365 0.2781
vn 0.5571 0.7183 -0.4167
vn -0.3932 0.3578 0.8470
vn -0.3784 0.0544 -0.9240
vn -0.2744 0.1647 -0.9474
vn 0.2968 0.5127 -0.8056
vn 0.7378 0.3825 -0.5562
vn -0.1408 0.4007 -0.9053
vn 0.3207 0.6124 -0.7226
vn -0.1550 0.4351 -0.8869
vn 0.2947 0.6758 -0.6756
vn -0.1590 0.4692 -0.8687
vn -0.5834 0.1077 -0.8050
vn -0.5923 0.1412 -0.7933
vn 0.0485 0.9640 -0.2614
vn -0.2198 0.5794 -0.7848
vn 0.7012 0.6736 -0.2338
vn 0.4465 0.8945 0.0224
vn -0.5160 0.7960 -0.3165
vn -0.6388 0.5053 0.5802
vn 0.2158 0.6362 0.7407
vn -0.3306 -0.4081 0.8510
vn 0.3464 -0.0458 0.9370
vn -0.9736 -0.2282 0.0051
vn -0.8766 -0.4516 -0.1660
vn -0.2761 -0.6171 0.7369
vn -0.7133 0.3052 -0.6309
vn 0.7394 0.4113 0.5331
vn 0.4417 -0.2162 0.8707
vn 0.8414 0.3183 0.4367
vn 0.4362 -0.2698 0.8584
vn 0.8915 0.2804 0.3559
vn 0.7273 0.6013 -0.3307
vn 0.5284 -0.3678 0.7652
vn 0.9927 0.1049 0.0597
vn -0.8074 -0.5285 -0.2622
vn -0.5817 0.0663 -0.8107
vn -0.3153 -0.7475 0.5847
vn -0.1040 0.3725 -0.9222
vn -0.3598 0.7085 -0.6071
vn 0.9059 -0.2204 0.3617
vn 0.4146 -0.7252 0.5497
vn -0.0699 -0.0587 0.9958
vn -0.8597 -0.4713 -0.1972
vn -0.3119 -0.6504 0.6927
vn 0.6742 0.7148 -0.1857
vn 0.8081 0.5520 0.2057
vn 0.7770 -0.3232 0.5403
vn 0.7803 -0.1104 -0.6156
vn -0.1358 -0.6495 0.7482
vn -0.4028 0.8983 0.1754
s 1
f 3//1 5//2 4//3 2//4
f 4//3 5//2 7//5 6//6
f 9//7 4//3 6//6 8//8
f 11//9 9//7 8//8 10//10
f 8//8 13//11 12//12 10//10
f 13//11 15//13 14//14 12//12
f 14//14 15//13 17//15 16//16
f 16//16 17//15 19//17 18//18
f 17//15 21//19 20//20 19//17
f 21//19 22//21 20//20
f 25//22 24//23 23//24
f 27//25 16//16 18//18 26//26
f 26//26 18//18 29//27 28//28
f 29//27 31//29 30//30 28//28
f 31//29 11//9 33//31 32//32
f 30//30 31//29 32//32
f 33//31 35//33 34//34 32//32
f 34//34 38//35 37//36 36//37
f 32//32 34//34 36//37
f 37//36 38//35 39//38
f 41//39 37//36 39//38 40//40
f 43//41 41//39 40//40 42//42
f 40//40 45//43 44//44 42//42
f 47//45 43//41 42//42 46//46
f 49//47 43//41 47//45 48//48
f 52//49 51//50 50//51 48//48
f 47//45 52//49 48//48
f 50//51 51//50 54//52 53//53
f 51//50 55//54 54//52
f 55//54 57//55 56//56 54//52
f 58//57 44//44 57//55 55//54
f 59//58 50//51 53//53
f 61//59 60//60 59//58 53//53
f 63//61 62//62 60//60 61//59
f 60//60 62//62 64//63 49//47
f 66//64 65//65 62//62 63//61
f 54//52 56//56 61//59 53//53
f 50//51 59//58 48//48
f 52//49 47//45 46//46
f 58//57 52//49 46//46
f 38//35 34//34 27//25 67//66
f 68//67 38//35 67//66
f 28//28 30//30 65//65 66//64
f 69//68 26//26 28//28 66//64
f 67//66 27//25 26//26 69//68
f 33//31 11//9 10//10
f 25//22 71//69 70//70
f 25//22 23//24 22//21 21//19
f 71//69 25//22 21//19
f 24//23 25//22 70//70 6//6
f 7//5 24//23 6//6
f 15//13 71//69 21//19 17//15
f 6//6 70//70 13//11 8//8
f 19//17 20//20 1//71 72//72
f 2//4 4//3 9//7 73//73
f 1//71 2//4 73//73 72//72
f 14//14 35//33 12//12
f 14//14 16//16 27//25 34//34
f 35//33 14//14 34//34
f 12//12 35//33 33//31 10//10
f 18//18 19//17 72//72 29//27
f 73//73 9//7 11//9 31//29
f 72//72 73//73 31//29 29//27
f 38//35 68//67 39//38
f 65//65 30//30 32//32 36//37
f 45//43 68//67 67//66 74//74
f 39//38 68//67 45//43 40//40
f 74//74 67//66 69//68 75//75
f 36//37 37//36 41//39 64//63
f 62//62 65//65 36//37 64//63
f 75//75 69//68 66//64 63//61
f 44//44 45//43 74//74 57//55
f 42//42 44//44 58//57 46//46
f 51//50 52//49 58//57 55//54
f 57//55 74//74 75//75 56//56
f 64//63 41//39 43//41 49//47
f 59//58 60//60 49//47 48//48
f 56//56 75//75 63//61 61//59
f 70//70 71//69 15//13 13//11
f 1//71 20//76 76//77 2//4
f 5//2 3//1 77//78 78//79 22//21 23//24 24//23 7//5
f 77//78 3//1 2//4 76//77 1//80
f 22//21 78//79 20//20
s 0
f 1//81 77//81 78//81 20//81
