# Blender 5.0.0
# www.blender.org
mtllib prep_throw_arm0003.mtl
o Mball.001
v -0.580271 4.241111 0.329489
v -0.612436 4.458570 0.673865
v -0.449953 4.656625 0.618602
v -0.860267 4.781337 0.692599
v -0.584677 5.070075 0.528225
v -0.974808 4.887035 0.595191
v -0.588756 5.140911 0.495343
v -1.232691 4.514990 0.701110
v -1.119189 4.432446 0.778299
v -1.491395 4.183497 0.774326
v -1.400505 4.120736 0.833995
v -1.706204 4.171291 0.407416
v -1.413817 4.519228 0.332448
v -1.705685 4.149487 0.365960
v -1.413681 4.502978 0.299691
v -1.568056 3.850827 0.156427
v -1.266677 4.236801 0.071858
v -1.328569 3.643402 0.206044
v -1.046696 4.024963 0.110155
v -0.805146 4.368225 0.011502
v -0.990260 4.573287 -0.012157
v -0.644494 4.875854 -0.086976
v -0.614774 5.205986 0.100460
v -0.612903 5.213655 0.111183
v -0.966453 5.035893 0.159743
v -1.654643 3.310650 0.532865
v -1.812696 3.358801 0.504655
v -1.358622 3.567596 0.671634
v -1.078221 3.616379 0.515733
v -1.429018 3.602659 0.781281
v -1.127837 3.829828 0.799891
v -1.662304 3.803982 0.799773
v -1.569174 3.999699 0.778002
v -1.930656 3.664355 0.522408
v -1.773860 4.022335 0.406248
v -1.797600 3.923055 0.968008
v -1.807394 3.923253 0.964902
v -2.063786 3.655812 0.736212
v -2.109501 3.649077 0.856954
v -2.214655 3.606108 1.199085
v -1.906351 3.893106 1.297354
v -2.320070 3.559343 1.535997
v -2.023540 3.817054 1.628653
v -2.350148 3.461231 1.519291
v -2.232511 3.537770 1.188142
v -2.408503 3.492303 1.874659
v -2.168836 3.710382 1.950540
v -2.002460 3.725571 1.989386
v -1.944039 3.828440 1.647634
v -1.864616 3.502250 2.121956
v -2.232885 3.129320 2.201642
v -2.412009 3.457204 1.953447
v -1.753816 3.428725 2.014994
v -1.977734 2.978027 1.919023
v -2.324197 2.983989 1.841945
v -1.870345 3.022435 1.582313
v -2.227295 3.037938 1.503854
v -2.432242 3.423413 1.862341
v -1.789803 3.566186 2.020883
v -1.660679 3.655240 1.693581
v -1.616320 3.437190 1.681385
v -1.541588 3.733363 1.362919
v -1.501494 3.472719 1.345442
v -1.861797 3.902870 1.308335
v -1.447538 3.755066 1.025190
v -1.400949 3.491790 0.997932
v -1.990839 3.192306 0.841952
v -2.117190 3.612566 0.852204
v -1.689082 3.151263 0.905443
v -1.122503 4.864034 0.217148
v -1.121293 4.861133 0.206682
v -0.795816 3.923387 0.438586
v -0.845804 4.130754 0.753705
v -2.107339 3.117005 1.173481
v -1.778924 3.085906 1.243959
v -1.002319 4.437024 0.200979
v -0.433061 4.424780 0.262669
v -0.549183 4.604409 -0.073295
vn 0.7291 -0.0621 0.6816
vn 0.6271 0.4984 0.5985
vn -0.0019 0.3406 0.9402
vn 0.5026 -0.1700 0.8477
vn 0.3702 0.8803 0.2968
vn -0.4502 0.6770 0.5823
vn -0.0536 0.2515 0.9664
vn -0.5222 0.5637 0.6400
vn -0.1449 0.1495 0.9781
vn -0.5881 0.4440 0.6760
vn -0.7719 0.6350 0.0320
vn -0.8427 0.5295 0.0976
vn -0.7077 0.4559 -0.5398
vn -0.7700 0.3427 -0.5382
vn -0.3420 0.0496 -0.9384
vn -0.4099 -0.1330 -0.9024
vn 0.2870 -0.4405 -0.8506
vn 0.2239 -0.6494 -0.7267
vn -0.3406 0.0878 -0.9361
vn 0.1142 -0.3273 -0.9380
vn 0.3435 0.3281 -0.8800
vn -0.6014 0.7267 -0.3320
vn 0.3283 0.9205 -0.2120
vn 0.3611 0.6920 -0.6251
vn -0.4807 -0.5400 -0.6909
vn 0.2073 -0.8436 -0.4954
vn 0.6315 -0.7748 0.0310
vn 0.6558 -0.7374 0.1615
vn 0.3729 -0.3546 0.8574
vn 0.8328 0.1586 0.5303
vn -0.5295 0.2315 0.8161
vn -0.0476 0.9698 0.2390
vn -0.8149 0.0924 -0.5721
vn -0.8401 0.2254 -0.4934
vn -0.8283 0.3279 -0.4543
vn -0.4839 0.8585 -0.1695
vn 0.0687 0.9870 -0.1455
vn -0.8156 0.5289 -0.2345
vn -0.4319 0.9019 0.0024
vn -0.8210 0.5412 -0.1820
vn -0.4289 0.8996 0.0826
vn -0.8183 0.5572 -0.1412
vn -0.9453 0.0186 -0.3257
vn -0.9579 0.0294 -0.2857
vn -0.4527 0.7116 0.5373
vn -0.8390 0.5429 0.0369
vn 0.1344 0.9484 0.2873
vn 0.0333 0.7782 0.6271
vn -0.7990 0.2728 0.5360
vn -0.2878 -0.3607 0.8872
vn 0.3303 0.1976 0.9229
vn 0.4013 -0.8487 0.3444
vn 0.8149 -0.1949 0.5459
vn -0.6376 -0.7688 0.0496
vn -0.5718 -0.7589 -0.3118
vn 0.4680 -0.8835 0.0197
vn -1.0000 -0.0030 -0.0012
vn 0.6757 0.4896 0.5512
vn 0.9270 -0.2119 0.3093
vn 0.7472 0.5393 0.3884
vn 0.9362 -0.2453 0.2515
vn 0.7581 0.5759 0.3060
vn 0.1266 0.9764 0.1751
vn 0.9637 -0.2523 0.0873
vn 0.7740 0.6322 0.0345
vn -0.5456 -0.7091 -0.4467
vn -0.9272 -0.0076 -0.3745
vn 0.3966 -0.9006 -0.1777
vn -0.7090 0.4666 -0.5288
vn -0.7260 0.6876 0.0094
vn 0.9648 -0.0120 -0.2627
vn 0.7679 -0.6372 -0.0654
vn 0.5348 -0.2492 0.8074
vn -0.5648 -0.7431 -0.3588
vn 0.4266 -0.9036 -0.0402
vn 0.4695 0.8462 -0.2520
vn 0.7574 0.6525 -0.0254
vn 0.8968 -0.3740 0.2365
vn 0.5972 0.0838 -0.7977
vn 0.2116 -0.8213 0.5297
vn -0.4833 0.6683 0.5655
s 1
f 3//1 5//2 4//3 2//4
f 4//3 5//2 7//5 6//6
f 9//7 4//3 6//6 8//8
f 11//9 9//7 8//8 10//10
f 8//8 13//11 12//12 10//10
f 13//11 15//13 14//14 12//12
f 14//14 15//13 17//15 16//16
f 16//16 17//15 19//17 18//18
f 17//15 21//19 20//20 19//17
f 21//19 22//21 20//20
f 25//22 24//23 23//24
f 27//25 16//16 18//18 26//26
f 26//26 18//18 29//27 28//28
f 29//27 31//29 30//30 28//28
f 31//29 11//9 33//31 32//32
f 30//30 31//29 32//32
f 33//31 35//33 34//34 32//32
f 34//34 38//35 37//36 36//37
f 32//32 34//34 36//37
f 37//36 38//35 39//38
f 41//39 37//36 39//38 40//40
f 43//41 41//39 40//40 42//42
f 40//40 45//43 44//44 42//42
f 47//45 43//41 42//42 46//46
f 49//47 43//41 47//45 48//48
f 52//49 51//50 50//51 48//48
f 47//45 52//49 48//48
f 50//51 51//50 54//52 53//53
f 51//50 55//54 54//52
f 55//54 57//55 56//56 54//52
f 58//57 44//44 57//55 55//54
f 59//58 50//51 53//53
f 61//59 60//60 59//58 53//53
f 63//61 62//62 60//60 61//59
f 60//60 62//62 64//63 49//47
f 66//64 65//65 62//62 63//61
f 54//52 56//56 61//59 53//53
f 50//51 59//58 48//48
f 52//49 47//45 46//46
f 58//57 52//49 46//46
f 38//35 34//34 27//25 67//66
f 68//67 38//35 67//66
f 28//28 30//30 65//65 66//64
f 69//68 26//26 28//28 66//64
f 67//66 27//25 26//26 69//68
f 33//31 11//9 10//10
f 25//22 71//69 70//70
f 25//22 23//24 22//21 21//19
f 71//69 25//22 21//19
f 24//23 25//22 70//70 6//6
f 7//5 24//23 6//6
f 15//13 71//69 21//19 17//15
f 6//6 70//70 13//11 8//8
f 19//17 20//20 1//71 72//72
f 2//4 4//3 9//7 73//73
f 1//71 2//4 73//73 72//72
f 14//14 35//33 12//12
f 14//14 16//16 27//25 34//34
f 35//33 14//14 34//34
f 12//12 35//33 33//31 10//10
f 18//18 19//17 72//72 29//27
f 73//73 9//7 11//9 31//29
f 72//72 73//73 31//29 29//27
f 38//35 68//67 39//38
f 65//65 30//30 32//32 36//37
f 45//43 68//67 67//66 74//74
f 39//38 68//67 45//43 40//40
f 74//74 67//66 69//68 75//75
f 36//37 37//36 41//39 64//63
f 62//62 65//65 36//37 64//63
f 75//75 69//68 66//64 63//61
f 44//44 45//43 74//74 57//55
f 42//42 44//44 58//57 46//46
f 51//50 52//49 58//57 55//54
f 57//55 74//74 75//75 56//56
f 64//63 41//39 43//41 49//47
f 59//58 60//60 49//47 48//48
f 56//56 75//75 63//61 61//59
f 70//70 71//69 15//13 13//11
f 1//71 20//76 76//77 2//4
f 5//2 3//1 77//78 78//79 22//21 23//24 24//23 7//5
f 77//78 3//1 2//4 76//77 1//80
f 22//21 78//79 20//20
s 0
f 1//81 77//81 78//81 20//81
