# Blender 5.0.0
# www.blender.org
mtllib prep_throw_arm0024.mtl
o Mball.001
v -0.821525 4.329679 0.441226
v -0.973264 4.687135 0.659016
v -0.603565 4.726913 0.663437
v -1.094944 5.023827 0.505265
v -0.603693 5.092495 0.507798
v -1.113540 5.099724 0.353155
v -0.598647 5.157749 0.474916
v -1.488747 4.871478 0.322681
v -1.467756 4.815787 0.456177
v -1.831868 4.630954 0.298104
v -1.813435 4.590881 0.403229
v -1.800514 4.468788 -0.089348
v -1.414064 4.726701 -0.060120
v -1.783349 4.432315 -0.116019
v -1.399521 4.696051 -0.082296
v -1.660046 4.044970 -0.138728
v -1.227741 4.320812 -0.132317
v -1.565994 3.841673 0.065296
v -1.138285 4.112391 0.050693
v -0.802525 4.347932 0.046890
v -0.881353 4.555065 -0.103798
v -0.550750 4.816843 -0.083820
v -0.588361 5.202772 0.075953
v -0.588263 5.211273 0.087152
v -0.886601 5.069273 0.004047
v -2.180535 3.856261 0.254896
v -2.265019 3.914017 0.136612
v -1.846869 3.996140 0.399859
v -1.539887 3.913497 0.428246
v -1.939815 4.084182 0.430981
v -1.665077 4.259821 0.572835
v -2.071477 4.313412 0.284104
v -1.944369 4.467344 0.289824
v -2.187072 4.142564 -0.025564
v -1.903656 4.331124 -0.096100
v -2.032784 4.628262 0.215693
v -2.038361 4.630863 0.208225
v -2.327008 4.377419 0.031161
v -2.386492 4.510667 0.081427
v -2.556761 4.864625 0.248886
v -2.182485 5.007445 0.364279
v -2.729198 5.208096 0.414590
v -2.379919 5.333623 0.531604
v -2.806661 5.148871 0.426392
v -2.608642 4.822946 0.259211
v -2.902093 5.536124 0.598519
v -2.614077 5.643901 0.689874
v -2.493685 5.630737 0.798087
v -2.319980 5.329999 0.581955
v -2.557064 5.589676 1.040911
v -3.062518 5.596370 1.034629
v -2.941891 5.595668 0.658213
v -2.500391 5.404641 1.064903
v -2.913712 5.144420 1.060769
v -3.142463 5.196117 0.823061
v -2.741328 4.799153 0.897184
v -2.971536 4.858464 0.649201
v -2.958241 5.494901 0.605022
v -2.444229 5.498408 0.995208
v -2.231202 5.178982 0.831728
v -2.328820 5.031998 0.933625
v -2.031282 4.853879 0.665015
v -2.156636 4.679970 0.778019
v -2.146918 5.007599 0.391384
v -1.882997 4.467508 0.499728
v -1.997110 4.299417 0.609851
v -2.573952 4.207284 0.315221
v -2.412691 4.489788 0.088483
v -2.395656 4.139097 0.534047
v -1.041555 4.947183 -0.034056
v -1.037146 4.939947 -0.040018
v -1.162110 4.139826 0.453028
v -1.325550 4.488693 0.631624
v -2.770486 4.533851 0.482768
v -2.568513 4.468407 0.716463
v -1.002319 4.437024 0.200979
v -0.520959 4.418506 0.376360
v -0.506374 4.538776 0.001398
vn 0.4796 -0.0595 0.8754
vn 0.6064 0.5176 0.6037
vn -0.2717 0.6140 0.7411
vn -0.0159 0.0146 0.9998
vn 0.4897 0.7926 0.3632
vn -0.3979 0.9112 0.1066
vn -0.4437 0.5751 0.6873
vn -0.5408 0.8411 0.0078
vn -0.5887 0.4782 0.6517
vn -0.6910 0.7228 0.0090
vn -0.3812 0.6715 -0.6355
vn -0.5404 0.5915 -0.5984
vn -0.1316 0.3159 -0.9396
vn -0.2448 0.1997 -0.9488
vn 0.1900 -0.2195 -0.9569
vn -0.0004 -0.4357 -0.9001
vn 0.4969 -0.7731 -0.3942
vn 0.2142 -0.9405 -0.2638
vn 0.2129 -0.1519 -0.9652
vn 0.4414 -0.6496 -0.6190
vn 0.6664 0.1169 -0.7364
vn -0.2296 0.6357 -0.7370
vn 0.5049 0.8447 -0.1774
vn 0.5731 0.5847 -0.5742
vn -0.5510 -0.6718 -0.4951
vn -0.2676 -0.9494 0.1642
vn 0.1780 -0.7792 0.6009
vn -0.0094 -0.6898 0.7239
vn -0.2532 -0.0817 0.9639
vn 0.5070 -0.1157 0.8541
vn -0.8022 0.5448 0.2441
vn 0.5738 0.6511 -0.4968
vn -0.4103 0.4355 0.8013
vn -0.3668 0.0004 -0.9303
vn -0.2663 0.1028 -0.9584
vn 0.3219 0.4311 -0.8429
vn 0.7521 0.2964 -0.5887
vn -0.1166 0.3348 -0.9351
vn 0.3483 0.5318 -0.7720
vn -0.1292 0.3697 -0.9201
vn 0.3239 0.5987 -0.7325
vn -0.1318 0.4044 -0.9050
vn -0.5754 0.0732 -0.8146
vn -0.5819 0.1075 -0.8062
vn 0.0948 0.9308 -0.3531
vn -0.1856 0.5194 -0.8342
vn 0.7289 0.6158 -0.2991
vn 0.4898 0.8689 -0.0712
vn -0.4735 0.7840 -0.4015
vn -0.6140 0.5866 0.5282
vn 0.2493 0.6899 0.6797
vn -0.3467 -0.3232 0.8805
vn 0.3435 0.0087 0.9391
vn -0.9828 -0.1835 0.0205
vn -0.8985 -0.4208 -0.1254
vn -0.3029 -0.5384 0.7864
vn -0.6918 0.2862 -0.6630
vn 0.7630 0.4181 0.4929
vn 0.4283 -0.1687 0.8878
vn 0.8587 0.3124 0.4062
vn 0.4198 -0.2222 0.8800
vn 0.9060 0.2655 0.3296
vn 0.7508 0.5349 -0.3875
vn 0.5124 -0.3273 0.7939
vn 0.9973 0.0624 0.0396
vn -0.8335 -0.5098 -0.2130
vn -0.5761 0.0317 -0.8168
vn -0.3493 -0.6760 0.6489
vn -0.0793 0.3509 -0.9330
vn -0.3391 0.6923 -0.6370
vn 0.8985 -0.2156 0.3825
vn 0.3977 -0.7108 0.5801
vn -0.0865 -0.0301 0.9958
vn -0.8830 -0.4436 -0.1535
vn -0.3398 -0.5725 0.7461
vn 0.6824 0.7032 -0.1993
vn 0.8117 0.5523 0.1901
vn 0.7750 -0.3114 0.5498
vn 0.7790 -0.1242 -0.6146
vn -0.1504 -0.6316 0.7606
vn -0.3976 0.9059 0.1458
s 1
f 3//1 5//2 4//3 2//4
f 4//3 5//2 7//5 6//6
f 9//7 4//3 6//6 8//8
f 11//9 9//7 8//8 10//10
f 8//8 13//11 12//12 10//10
f 13//11 15//13 14//14 12//12
f 14//14 15//13 17//15 16//16
f 16//16 17//15 19//17 18//18
f 17//15 21//19 20//20 19//17
f 21//19 22//21 20//20
f 25//22 24//23 23//24
f 27//25 16//16 18//18 26//26
f 26//26 18//18 29//27 28//28
f 29//27 31//29 30//30 28//28
f 31//29 11//9 33//31 32//32
f 30//30 31//29 32//32
f 33//31 35//33 34//34 32//32
f 34//34 38//35 37//36 36//37
f 32//32 34//34 36//37
f 37//36 38//35 39//38
f 41//39 37//36 39//38 40//40
f 43//41 41//39 40//40 42//42
f 40//40 45//43 44//44 42//42
f 47//45 43//41 42//42 46//46
f 49//47 43//41 47//45 48//48
f 52//49 51//50 50//51 48//48
f 47//45 52//49 48//48
f 50//51 51//50 54//52 53//53
f 51//50 55//54 54//52
f 55//54 57//55 56//56 54//52
f 58//57 44//44 57//55 55//54
f 59//58 50//51 53//53
f 61//59 60//60 59//58 53//53
f 63//61 62//62 60//60 61//59
f 60//60 62//62 64//63 49//47
f 66//64 65//65 62//62 63//61
f 54//52 56//56 61//59 53//53
f 50//51 59//58 48//48
f 52//49 47//45 46//46
f 58//57 52//49 46//46
f 38//35 34//34 27//25 67//66
f 68//67 38//35 67//66
f 28//28 30//30 65//65 66//64
f 69//68 26//26 28//28 66//64
f 67//66 27//25 26//26 69//68
f 33//31 11//9 10//10
f 25//22 71//69 70//70
f 25//22 23//24 22//21 21//19
f 71//69 25//22 21//19
f 24//23 25//22 70//70 6//6
f 7//5 24//23 6//6
f 15//13 71//69 21//19 17//15
f 6//6 70//70 13//11 8//8
f 19//17 20//20 1//71 72//72
f 2//4 4//3 9//7 73//73
f 1//71 2//4 73//73 72//72
f 14//14 35//33 12//12
f 14//14 16//16 27//25 34//34
f 35//33 14//14 34//34
f 12//12 35//33 33//31 10//10
f 18//18 19//17 72//72 29//27
f 73//73 9//7 11//9 31//29
f 72//72 73//73 31//29 29//27
f 38//35 68//67 39//38
f 65//65 30//30 32//32 36//37
f 45//43 68//67 67//66 74//74
f 39//38 68//67 45//43 40//40
f 74//74 67//66 69//68 75//75
f 36//37 37//36 41//39 64//63
f 62//62 65//65 36//37 64//63
f 75//75 69//68 66//64 63//61
f 44//44 45//43 74//74 57//55
f 42//42 44//44 58//57 46//46
f 51//50 52//49 58//57 55//54
f 57//55 74//74 75//75 56//56
f 64//63 41//39 43//41 49//47
f 59//58 60//60 49//47 48//48
f 56//56 75//75 63//61 61//59
f 70//70 71//69 15//13 13//11
f 1//71 20//76 76//77 2//4
f 5//2 3//1 77//78 78//79 22//21 23//24 24//23 7//5
f 77//78 3//1 2//4 76//77 1//80
f 22//21 78//79 20//20
s 0
f 1//81 77//81 78//81 20//81
