# Blender 5.0.0
# www.blender.org
mtllib prep_throw_arm0034.mtl
o Mball.001
v -0.829746 4.345021 0.454957
v -0.981998 4.714535 0.658484
v -0.607653 4.740316 0.662398
v -1.097962 5.042139 0.493038
v -0.603752 5.094499 0.505317
v -1.113530 5.110096 0.338984
v -0.598508 5.158922 0.472737
v -1.490461 4.887074 0.308658
v -1.472444 4.839024 0.444277
v -1.836859 4.641952 0.288090
v -1.820212 4.609788 0.394509
v -1.805189 4.450601 -0.085731
v -1.409957 4.719432 -0.067516
v -1.787477 4.415022 -0.110645
v -1.395277 4.687367 -0.088343
v -1.671246 4.036565 -0.107886
v -1.225950 4.307846 -0.122199
v -1.582500 3.852333 0.106390
v -1.141789 4.109459 0.069448
v -0.804172 4.342043 0.061848
v -0.878548 4.541043 -0.096514
v -0.548713 4.808580 -0.081147
v -0.587358 5.200742 0.074493
v -0.587308 5.209394 0.085687
v -0.882717 5.061611 -0.001879
v -2.201140 3.958926 0.309226
v -2.287388 3.982914 0.186845
v -1.847201 4.055210 0.405024
v -1.558164 3.939466 0.458106
v -1.944783 4.109136 0.428544
v -1.678712 4.287758 0.579267
v -2.074044 4.316808 0.271350
v -1.950600 4.473212 0.282250
v -2.196799 4.118251 -0.018471
v -1.914981 4.302698 -0.083391
v -1.961758 4.610188 0.076641
v -1.967259 4.611676 0.068931
v -2.297420 4.373031 -0.028773
v -2.333606 4.527040 -0.015875
v -2.438629 4.957865 0.051476
v -2.040499 5.067451 0.117094
v -2.547090 5.378823 0.119546
v -2.175858 5.477765 0.191613
v -2.630669 5.343422 0.147403
v -2.494686 4.933292 0.072945
v -2.656644 5.793099 0.208862
v -2.350356 5.876517 0.262328
v -2.224638 5.886425 0.365992
v -2.113152 5.483954 0.239131
v -2.272746 5.961371 0.606496
v -2.770324 6.061088 0.606162
v -2.682648 5.880848 0.249982
v -2.240654 5.788615 0.677051
v -2.684390 5.623646 0.747763
v -2.922199 5.616263 0.513522
v -2.576057 5.201912 0.682163
v -2.815091 5.197605 0.436257
v -2.717157 5.768171 0.226673
v -2.178039 5.836075 0.585858
v -2.026061 5.430670 0.512955
v -2.134260 5.355037 0.649115
v -1.888054 5.021139 0.438693
v -2.026406 4.930378 0.592818
v -2.003198 5.072112 0.142071
v -1.810483 4.546325 0.379054
v -1.934660 4.469067 0.528079
v -2.541479 4.377832 0.287501
v -2.361718 4.515649 -0.003346
v -2.357232 4.371628 0.509033
v -1.036636 4.937696 -0.041854
v -1.032227 4.930152 -0.047399
v -1.172873 4.160680 0.469957
v -1.336497 4.521305 0.633312
v -2.675878 4.788429 0.362113
v -2.466695 4.786459 0.596586
v -1.002319 4.437024 0.200979
v -0.524768 4.425218 0.383263
v -0.506657 4.534248 0.008758
vn 0.4726 -0.0442 0.8801
vn 0.6118 0.5272 0.5897
vn -0.2709 0.6458 0.7138
vn -0.0270 0.0510 0.9983
vn 0.4946 0.7951 0.3509
vn -0.3871 0.9200 0.0616
vn -0.4529 0.6099 0.6503
vn -0.5352 0.8433 -0.0489
vn -0.6096 0.5035 0.6122
vn -0.6946 0.7179 -0.0470
vn -0.3682 0.6417 -0.6728
vn -0.5419 0.5553 -0.6309
vn -0.1236 0.2767 -0.9530
vn -0.2508 0.1400 -0.9579
vn 0.1920 -0.2698 -0.9436
vn -0.0164 -0.5355 -0.8444
vn 0.4841 -0.8024 -0.3489
vn 0.1574 -0.9718 -0.1757
vn 0.2320 -0.1870 -0.9546
vn 0.4490 -0.6793 -0.5805
vn 0.6716 0.0990 -0.7343
vn -0.2142 0.6105 -0.7625
vn 0.5097 0.8399 -0.1865
vn 0.5748 0.5786 -0.5786
vn -0.6566 -0.6942 -0.2950
vn -0.3748 -0.8390 0.3945
vn 0.1244 -0.7575 0.6409
vn -0.0468 -0.6182 0.7846
vn -0.2880 -0.0534 0.9561
vn 0.3910 -0.2825 0.8759
vn -0.8210 0.5345 0.2009
vn 0.3757 0.2904 -0.8801
vn -0.4720 0.6098 0.6366
vn -0.3696 -0.2035 -0.9066
vn -0.3178 -0.1283 -0.9394
vn 0.3325 0.1211 -0.9353
vn 0.7306 -0.0309 -0.6821
vn -0.1146 0.0832 -0.9899
vn 0.3671 0.2220 -0.9033
vn -0.1208 0.1197 -0.9854
vn 0.3492 0.2959 -0.8891
vn -0.1174 0.1545 -0.9810
vn -0.6126 -0.0558 -0.7885
vn -0.6098 -0.0213 -0.7922
vn 0.2132 0.7200 -0.6604
vn -0.1428 0.2767 -0.9503
vn 0.7702 0.3649 -0.5231
vn 0.6056 0.6833 -0.4080
vn -0.3642 0.6610 -0.6561
vn -0.4700 0.8256 0.3121
vn 0.4161 0.8191 0.3950
vn -0.3220 -0.0023 0.9467
vn 0.4100 0.2073 0.8882
vn -0.9949 -0.0096 0.1008
vn -0.9593 -0.2785 0.0476
vn -0.3154 -0.2341 0.9196
vn -0.6655 0.1917 -0.7214
vn 0.8667 0.4059 0.2900
vn 0.4555 0.0103 0.8902
vn 0.9324 0.2638 0.2469
vn 0.4370 -0.0418 0.8985
vn 0.9627 0.1900 0.1926
vn 0.7742 0.2623 -0.5760
vn 0.5218 -0.1762 0.8347
vn 0.9920 -0.1035 -0.0718
vn -0.9148 -0.4039 -0.0014
vn -0.6215 -0.0976 -0.7773
vn -0.3894 -0.3841 0.8372
vn -0.0514 0.3188 -0.9464
vn -0.3149 0.6666 -0.6756
vn 0.8908 -0.2051 0.4055
vn 0.3799 -0.6889 0.6173
vn -0.1022 0.0137 0.9947
vn -0.9502 -0.3101 0.0318
vn -0.3573 -0.2696 0.8942
vn 0.6926 0.6863 -0.2220
vn 0.8175 0.5528 0.1616
vn 0.7748 -0.2933 0.5600
vn 0.7747 -0.1433 -0.6158
vn -0.1683 -0.6060 0.7774
vn -0.3918 0.9142 0.1040
s 1
f 3//1 5//2 4//3 2//4
f 4//3 5//2 7//5 6//6
f 9//7 4//3 6//6 8//8
f 11//9 9//7 8//8 10//10
f 8//8 13//11 12//12 10//10
f 13//11 15//13 14//14 12//12
f 14//14 15//13 17//15 16//16
f 16//16 17//15 19//17 18//18
f 17//15 21//19 20//20 19//17
f 21//19 22//21 20//20
f 25//22 24//23 23//24
f 27//25 16//16 18//18 26//26
f 26//26 18//18 29//27 28//28
f 29//27 31//29 30//30 28//28
f 31//29 11//9 33//31 32//32
f 30//30 31//29 32//32
f 33//31 35//33 34//34 32//32
f 34//34 38//35 37//36 36//37
f 32//32 34//34 36//37
f 37//36 38//35 39//38
f 41//39 37//36 39//38 40//40
f 43//41 41//39 40//40 42//42
f 40//40 45//43 44//44 42//42
f 47//45 43//41 42//42 46//46
f 49//47 43//41 47//45 48//48
f 52//49 51//50 50//51 48//48
f 47//45 52//49 48//48
f 50//51 51//50 54//52 53//53
f 51//50 55//54 54//52
f 55//54 57//55 56//56 54//52
f 58//57 44//44 57//55 55//54
f 59//58 50//51 53//53
f 61//59 60//60 59//58 53//53
f 63//61 62//62 60//60 61//59
f 60//60 62//62 64//63 49//47
f 66//64 65//65 62//62 63//61
f 54//52 56//56 61//59 53//53
f 50//51 59//58 48//48
f 52//49 47//45 46//46
f 58//57 52//49 46//46
f 38//35 34//34 27//25 67//66
f 68//67 38//35 67//66
f 28//28 30//30 65//65 66//64
f 69//68 26//26 28//28 66//64
f 67//66 27//25 26//26 69//68
f 33//31 11//9 10//10
f 25//22 71//69 70//70
f 25//22 23//24 22//21 21//19
f 71//69 25//22 21//19
f 24//23 25//22 70//70 6//6
f 7//5 24//23 6//6
f 15//13 71//69 21//19 17//15
f 6//6 70//70 13//11 8//8
f 19//17 20//20 1//71 72//72
f 2//4 4//3 9//7 73//73
f 1//71 2//4 73//73 72//72
f 14//14 35//33 12//12
f 14//14 16//16 27//25 34//34
f 35//33 14//14 34//34
f 12//12 35//33 33//31 10//10
f 18//18 19//17 72//72 29//27
f 73//73 9//7 11//9 31//29
f 72//72 73//73 31//29 29//27
f 38//35 68//67 39//38
f 65//65 30//30 32//32 36//37
f 45//43 68//67 67//66 74//74
f 39//38 68//67 45//43 40//40
f 74//74 67//66 69//68 75//75
f 36//37 37//36 41//39 64//63
f 62//62 65//65 36//37 64//63
f 75//75 69//68 66//64 63//61
f 44//44 45//43 74//74 57//55
f 42//42 44//44 58//57 46//46
f 51//50 52//49 58//57 55//54
f 57//55 74//74 75//75 56//56
f 64//63 41//39 43//41 49//47
f 59//58 60//60 49//47 48//48
f 56//56 75//75 63//61 61//59
f 70//70 71//69 15//13 13//11
f 1//71 20//76 76//77 2//4
f 5//2 3//1 77//78 78//79 22//21 23//24 24//23 7//5
f 77//78 3//1 2//4 76//77 1//80
f 22//21 78//79 20//20
s 0
f 1//81 77//81 78//81 20//81
