# Blender 5.0.0
# www.blender.org
mtllib prep_throw_arm0017.mtl
o Mball.001
v -0.779442 4.287858 0.404232
v -0.921669 4.602913 0.666078
v -0.579036 4.689347 0.662857
v -1.071658 4.957954 0.552778
v -0.602215 5.085509 0.515277
v -1.107193 5.054712 0.409151
v -0.598466 5.153233 0.481657
v -1.472382 4.801433 0.393859
v -1.434851 4.725861 0.518295
v -1.807266 4.551663 0.373878
v -1.776006 4.494675 0.471777
v -1.809723 4.461755 -0.030843
v -1.434970 4.723977 -0.004355
v -1.794171 4.429307 -0.063000
v -1.421848 4.698078 -0.030594
v -1.655052 4.053269 -0.143824
v -1.242991 4.344649 -0.132721
v -1.530493 3.821461 0.026345
v -1.126308 4.113736 0.019090
v -0.799691 4.365340 0.012223
v -0.901224 4.590182 -0.110784
v -0.563956 4.841671 -0.090832
v -0.593598 5.207586 0.081176
v -0.593218 5.215661 0.092362
v -0.906783 5.083299 0.031382
v -2.109100 3.724606 0.232912
v -2.209741 3.807787 0.134633
v -1.790227 3.884871 0.406273
v -1.471260 3.837455 0.396741
v -1.885071 3.978475 0.462587
v -1.597072 4.149324 0.592275
v -2.041135 4.227769 0.354772
v -1.915123 4.387863 0.360113
v -2.177911 4.103771 0.032135
v -1.905498 4.328764 -0.044782
v -2.081054 4.510706 0.389755
v -2.087622 4.514104 0.383229
v -2.348640 4.277086 0.153236
v -2.423321 4.368875 0.236183
v -2.630013 4.595092 0.487327
v -2.274190 4.759951 0.626979
v -2.837526 4.812083 0.734468
v -2.503450 4.954978 0.871634
v -2.903453 4.736057 0.731738
v -2.673644 4.541330 0.487275
v -3.041502 5.007305 0.994908
v -2.767133 5.131166 1.104250
v -2.637303 5.100708 1.201318
v -2.439574 4.943953 0.917375
v -2.671764 4.951886 1.421487
v -3.169759 4.854918 1.425279
v -3.084466 5.030434 1.067197
v -2.585531 4.781996 1.396036
v -2.951811 4.455148 1.332251
v -3.205437 4.550714 1.124274
v -2.743887 4.235626 1.086657
v -3.001023 4.342089 0.870929
v -3.089732 4.954607 0.991425
v -2.550956 4.908913 1.353171
v -2.307078 4.721885 1.113628
v -2.371339 4.523883 1.174019
v -2.075488 4.528133 0.869787
v -2.161866 4.294829 0.934248
v -2.236886 4.756664 0.652087
v -1.887070 4.277526 0.618888
v -1.963825 4.044734 0.679745
v -2.539956 3.953428 0.382509
v -2.445232 4.340936 0.237902
v -2.335017 3.839542 0.569221
v -1.066998 4.960730 0.006984
v -1.062783 4.954654 -0.000348
v -1.106588 4.074123 0.420968
v -1.262009 4.381027 0.646595
v -2.768373 4.148917 0.627459
v -2.539287 4.036572 0.828557
v -1.002319 4.437024 0.200979
v -0.501685 4.404373 0.351428
v -0.508054 4.556127 -0.022072
vn 0.5200 -0.0963 0.8487
vn 0.5968 0.4950 0.6315
vn -0.2509 0.5160 0.8190
vn 0.0592 -0.0860 0.9945
vn 0.4722 0.7940 0.3829
vn -0.4335 0.8664 0.2477
vn -0.3954 0.4626 0.7936
vn -0.5713 0.7986 0.1893
vn -0.5234 0.3735 0.7658
vn -0.7024 0.6848 0.1943
vn -0.4751 0.7287 -0.4932
vn -0.6140 0.6458 -0.4537
vn -0.2302 0.4127 -0.8813
vn -0.3284 0.3074 -0.8931
vn 0.1143 -0.0992 -0.9885
vn -0.0461 -0.2849 -0.9574
vn 0.4893 -0.6829 -0.5425
vn 0.2612 -0.8623 -0.4338
vn 0.1183 -0.0489 -0.9918
vn 0.3996 -0.5490 -0.7341
vn 0.6272 0.1763 -0.7586
vn -0.3041 0.7014 -0.6447
vn 0.4787 0.8630 -0.1613
vn 0.5490 0.6096 -0.5718
vn -0.4722 -0.5943 -0.6510
vn -0.1091 -0.9892 -0.0979
vn 0.2880 -0.8376 0.4642
vn 0.1513 -0.8008 0.5794
vn -0.1478 -0.1977 0.9691
vn 0.5924 -0.0752 0.8021
vn -0.7738 0.4891 0.4024
vn 0.4503 0.8664 -0.2159
vn -0.3656 -0.0021 0.9308
vn -0.4451 0.1870 -0.8757
vn -0.3470 0.3167 -0.8828
vn 0.1753 0.7168 -0.6749
vn 0.6533 0.6068 -0.4528
vn -0.2588 0.5578 -0.7886
vn 0.1936 0.8081 -0.5563
vn -0.2766 0.5892 -0.7592
vn 0.1648 0.8563 -0.4894
vn -0.2831 0.6201 -0.7317
vn -0.6436 0.1821 -0.7434
vn -0.6580 0.2116 -0.7226
vn -0.0965 0.9953 -0.0101
vn -0.3583 0.7071 -0.6096
vn 0.5933 0.8031 -0.0544
vn 0.3192 0.9110 0.2610
vn -0.6419 0.7637 -0.0684
vn -0.6635 0.2588 0.7020
vn 0.1619 0.4728 0.8662
vn -0.2333 -0.6235 0.7462
vn 0.4008 -0.1802 0.8982
vn -0.9351 -0.3536 -0.0218
vn -0.8101 -0.5255 -0.2599
vn -0.1499 -0.8064 0.5721
vn -0.7959 0.3246 -0.5110
vn 0.6923 0.3873 0.6089
vn 0.5232 -0.3251 0.7877
vn 0.8055 0.3325 0.4906
vn 0.5257 -0.3772 0.7625
vn 0.8571 0.3209 0.4030
vn 0.6269 0.7604 -0.1697
vn 0.6128 -0.4548 0.6462
vn 0.9695 0.2247 0.0976
vn -0.7348 -0.5653 -0.3747
vn -0.6350 0.1419 -0.7594
vn -0.1744 -0.9065 0.3846
vn -0.2097 0.4360 -0.8752
vn -0.4417 0.7495 -0.4931
vn 0.9374 -0.2196 0.2703
vn 0.4865 -0.7574 0.4355
vn 0.0106 -0.1468 0.9891
vn -0.7905 -0.5351 -0.2978
vn -0.1831 -0.8357 0.5178
vn 0.6423 0.7510 -0.1531
vn 0.7992 0.5552 0.2303
vn 0.7917 -0.3564 0.4961
vn 0.7745 -0.0632 -0.6294
vn -0.0768 -0.7071 0.7029
vn -0.4242 0.8634 0.2733
s 1
f 3//1 5//2 4//3 2//4
f 4//3 5//2 7//5 6//6
f 9//7 4//3 6//6 8//8
f 11//9 9//7 8//8 10//10
f 8//8 13//11 12//12 10//10
f 13//11 15//13 14//14 12//12
f 14//14 15//13 17//15 16//16
f 16//16 17//15 19//17 18//18
f 17//15 21//19 20//20 19//17
f 21//19 22//21 20//20
f 25//22 24//23 23//24
f 27//25 16//16 18//18 26//26
f 26//26 18//18 29//27 28//28
f 29//27 31//29 30//30 28//28
f 31//29 11//9 33//31 32//32
f 30//30 31//29 32//32
f 33//31 35//33 34//34 32//32
f 34//34 38//35 37//36 36//37
f 32//32 34//34 36//37
f 37//36 38//35 39//38
f 41//39 37//36 39//38 40//40
f 43//41 41//39 40//40 42//42
f 40//40 45//43 44//44 42//42
f 47//45 43//41 42//42 46//46
f 49//47 43//41 47//45 48//48
f 52//49 51//50 50//51 48//48
f 47//45 52//49 48//48
f 50//51 51//50 54//52 53//53
f 51//50 55//54 54//52
f 55//54 57//55 56//56 54//52
f 58//57 44//44 57//55 55//54
f 59//58 50//51 53//53
f 61//59 60//60 59//58 53//53
f 63//61 62//62 60//60 61//59
f 60//60 62//62 64//63 49//47
f 66//64 65//65 62//62 63//61
f 54//52 56//56 61//59 53//53
f 50//51 59//58 48//48
f 52//49 47//45 46//46
f 58//57 52//49 46//46
f 38//35 34//34 27//25 67//66
f 68//67 38//35 67//66
f 28//28 30//30 65//65 66//64
f 69//68 26//26 28//28 66//64
f 67//66 27//25 26//26 69//68
f 33//31 11//9 10//10
f 25//22 71//69 70//70
f 25//22 23//24 22//21 21//19
f 71//69 25//22 21//19
f 24//23 25//22 70//70 6//6
f 7//5 24//23 6//6
f 15//13 71//69 21//19 17//15
f 6//6 70//70 13//11 8//8
f 19//17 20//20 1//71 72//72
f 2//4 4//3 9//7 73//73
f 1//71 2//4 73//73 72//72
f 14//14 35//33 12//12
f 14//14 16//16 27//25 34//34
f 35//33 14//14 34//34
f 12//12 35//33 33//31 10//10
f 18//18 19//17 72//72 29//27
f 73//73 9//7 11//9 31//29
f 72//72 73//73 31//29 29//27
f 38//35 68//67 39//38
f 65//65 30//30 32//32 36//37
f 45//43 68//67 67//66 74//74
f 39//38 68//67 45//43 40//40
f 74//74 67//66 69//68 75//75
f 36//37 37//36 41//39 64//63
f 62//62 65//65 36//37 64//63
f 75//75 69//68 66//64 63//61
f 44//44 45//43 74//74 57//55
f 42//42 44//44 58//57 46//46
f 51//50 52//49 58//57 55//54
f 57//55 74//74 75//75 56//56
f 64//63 41//39 43//41 49//47
f 59//58 60//60 49//47 48//48
f 56//56 75//75 63//61 61//59
f 70//70 71//69 15//13 13//11
f 1//71 20//76 76//77 2//4
f 5//2 3//1 77//78 78//79 22//21 23//24 24//23 7//5
f 77//78 3//1 2//4 76//77 1//80
f 22//21 78//79 20//20
s 0
f 1//81 77//81 78//81 20//81
