# Blender 5.0.0
# www.blender.org
mtllib prep_throw_arm0008.mtl
o Mball.001
v -0.648172 4.243013 0.351775
v -0.727052 4.481155 0.680213
v -0.493851 4.653411 0.640181
v -0.949144 4.824691 0.655816
v -0.592095 5.073203 0.525947
v -1.038275 4.935832 0.540136
v -0.593362 5.143867 0.492292
v -1.345697 4.602211 0.602536
v -1.256411 4.513855 0.698148
v -1.640053 4.300027 0.639717
v -1.568104 4.232468 0.714189
v -1.779742 4.287614 0.246305
v -1.448993 4.602954 0.210452
v -1.773029 4.263629 0.206314
v -1.443596 4.584905 0.178635
v -1.624495 3.940442 0.030112
v -1.275243 4.293306 -0.016140
v -1.417358 3.711514 0.120621
v -1.084396 4.064119 0.061035
v -0.803759 4.375980 -0.001534
v -0.965886 4.596623 -0.058922
v -0.615242 4.872889 -0.093113
v -0.608488 5.208693 0.093744
v -0.607128 5.216340 0.104693
v -0.954748 5.061502 0.114040
v -1.847081 3.437224 0.408498
v -1.991046 3.508529 0.358130
v -1.538176 3.654095 0.567799
v -1.232204 3.676161 0.462497
v -1.623202 3.711937 0.666354
v -1.317501 3.913395 0.729469
v -1.838656 3.940148 0.644827
v -1.730485 4.124000 0.634530
v -2.064771 3.828932 0.343185
v -1.858780 4.146505 0.238650
v -1.958907 4.110547 0.782830
v -1.967936 4.112411 0.778615
v -2.225748 3.870962 0.537334
v -2.288767 3.889068 0.651625
v -2.448003 3.909550 0.979097
v -2.116505 4.147717 1.097825
v -2.607306 3.924570 1.301165
v -2.291057 4.135417 1.414598
v -2.649552 3.831607 1.286675
v -2.474508 3.844325 0.970077
v -2.753447 3.916824 1.628276
v -2.496460 4.096971 1.720363
v -2.337303 4.086578 1.778642
v -2.214422 4.134555 1.442618
v -2.256880 3.858803 1.939864
v -2.686261 3.569221 1.994312
v -2.773826 3.892781 1.707660
v -2.144591 3.753257 1.852490
v -2.419579 3.339357 1.756215
v -2.745700 3.398385 1.636412
v -2.258746 3.321690 1.434734
v -2.593415 3.391815 1.311693
v -2.785583 3.851950 1.617194
v -2.159132 3.895477 1.845720
v -1.971480 3.918880 1.533621
v -1.960423 3.695231 1.539950
v -1.794840 3.932950 1.217593
v -1.793826 3.667595 1.220678
v -2.073079 4.150599 1.113668
v -1.649335 3.892111 0.893104
v -1.640522 3.624112 0.888224
v -2.242030 3.418350 0.678960
v -2.301244 3.854317 0.648219
v -1.963055 3.331285 0.781817
v -1.118980 4.909871 0.141854
v -1.116423 4.906196 0.132135
v -0.912606 3.958297 0.425853
v -1.008131 4.187277 0.723095
v -2.415825 3.406690 0.996003
v -2.110288 3.325429 1.108510
v -1.002319 4.437024 0.200979
v -0.451370 4.410478 0.292590
v -0.530142 4.592580 -0.061312
vn 0.6559 -0.0966 0.7486
vn 0.6102 0.4880 0.6241
vn -0.1075 0.3718 0.9221
vn 0.3420 -0.1816 0.9220
vn 0.4159 0.8422 0.3431
vn -0.4656 0.7358 0.4917
vn -0.1872 0.2886 0.9390
vn -0.5689 0.6379 0.5190
vn -0.2886 0.1944 0.9375
vn -0.6560 0.5213 0.5458
vn -0.7020 0.6977 -0.1429
vn -0.7954 0.6000 -0.0854
vn -0.5540 0.4821 -0.6787
vn -0.6273 0.3754 -0.6824
vn -0.1764 0.0394 -0.9835
vn -0.2768 -0.1364 -0.9512
vn 0.3787 -0.5000 -0.7788
vn 0.2593 -0.7029 -0.6623
vn -0.1804 0.0752 -0.9807
vn 0.2277 -0.3756 -0.8984
vn 0.4554 0.2883 -0.8423
vn -0.5098 0.7432 -0.4333
vn 0.3849 0.9046 -0.1832
vn 0.4330 0.6697 -0.6033
vn -0.4645 -0.5225 -0.7150
vn 0.1313 -0.9035 -0.4080
vn 0.5382 -0.8253 0.1708
vn 0.5205 -0.8024 0.2919
vn 0.1907 -0.3416 0.9203
vn 0.7740 0.0561 0.6306
vn -0.6363 0.3079 0.7073
vn 0.0906 0.9886 0.1201
vn -0.6222 -0.0371 -0.7820
vn -0.7204 0.2773 -0.6357
vn -0.6833 0.4060 -0.6068
vn -0.2795 0.9025 -0.3277
vn 0.2757 0.9319 -0.2357
vn -0.6623 0.6235 -0.4156
vn -0.2447 0.9566 -0.1583
vn -0.6750 0.6406 -0.3660
vn -0.2564 0.9637 -0.0740
vn -0.6771 0.6599 -0.3258
vn -0.8723 0.1309 -0.4712
vn -0.8883 0.1470 -0.4351
vn -0.3779 0.8310 0.4082
vn -0.7275 0.6694 -0.1505
vn 0.2806 0.9356 0.2143
vn 0.1022 0.8201 0.5631
vn -0.8059 0.4463 0.3890
vn -0.4608 -0.2203 0.8597
vn 0.2480 0.2282 0.9415
vn 0.1891 -0.8607 0.4727
vn 0.6866 -0.2625 0.6780
vn -0.7639 -0.6451 0.0164
vn -0.6570 -0.6814 -0.3227
vn 0.2848 -0.9416 0.1795
vn -0.9764 0.1462 -0.1588
vn 0.6811 0.4221 0.5983
vn 0.8218 -0.3197 0.4717
vn 0.7766 0.4453 0.4456
vn 0.8327 -0.3595 0.4212
vn 0.8036 0.4741 0.3598
vn 0.2926 0.9516 0.0938
vn 0.8846 -0.3849 0.2633
vn 0.8601 0.5049 0.0730
vn -0.6070 -0.6511 -0.4557
vn -0.8542 0.0993 -0.5103
vn 0.2377 -0.9709 -0.0290
vn -0.5601 0.4915 -0.6669
vn -0.6598 0.7360 -0.1515
vn 0.9923 -0.0970 -0.0767
vn 0.7005 -0.7067 0.0993
vn 0.3528 -0.2607 0.8986
vn -0.6434 -0.6712 -0.3682
vn 0.2476 -0.9618 0.1169
vn 0.5321 0.8257 -0.1873
vn 0.7789 0.6196 0.0972
vn 0.8636 -0.3847 0.3258
vn 0.6796 0.0456 -0.7322
vn 0.1176 -0.8053 0.5811
vn -0.4764 0.7336 0.4847
s 1
f 3//1 5//2 4//3 2//4
f 4//3 5//2 7//5 6//6
f 9//7 4//3 6//6 8//8
f 11//9 9//7 8//8 10//10
f 8//8 13//11 12//12 10//10
f 13//11 15//13 14//14 12//12
f 14//14 15//13 17//15 16//16
f 16//16 17//15 19//17 18//18
f 17//15 21//19 20//20 19//17
f 21//19 22//21 20//20
f 25//22 24//23 23//24
f 27//25 16//16 18//18 26//26
f 26//26 18//18 29//27 28//28
f 29//27 31//29 30//30 28//28
f 31//29 11//9 33//31 32//32
f 30//30 31//29 32//32
f 33//31 35//33 34//34 32//32
f 34//34 38//35 37//36 36//37
f 32//32 34//34 36//37
f 37//36 38//35 39//38
f 41//39 37//36 39//38 40//40
f 43//41 41//39 40//40 42//42
f 40//40 45//43 44//44 42//42
f 47//45 43//41 42//42 46//46
f 49//47 43//41 47//45 48//48
f 52//49 51//50 50//51 48//48
f 47//45 52//49 48//48
f 50//51 51//50 54//52 53//53
f 51//50 55//54 54//52
f 55//54 57//55 56//56 54//52
f 58//57 44//44 57//55 55//54
f 59//58 50//51 53//53
f 61//59 60//60 59//58 53//53
f 63//61 62//62 60//60 61//59
f 60//60 62//62 64//63 49//47
f 66//64 65//65 62//62 63//61
f 54//52 56//56 61//59 53//53
f 50//51 59//58 48//48
f 52//49 47//45 46//46
f 58//57 52//49 46//46
f 38//35 34//34 27//25 67//66
f 68//67 38//35 67//66
f 28//28 30//30 65//65 66//64
f 69//68 26//26 28//28 66//64
f 67//66 27//25 26//26 69//68
f 33//31 11//9 10//10
f 25//22 71//69 70//70
f 25//22 23//24 22//21 21//19
f 71//69 25//22 21//19
f 24//23 25//22 70//70 6//6
f 7//5 24//23 6//6
f 15//13 71//69 21//19 17//15
f 6//6 70//70 13//11 8//8
f 19//17 20//20 1//71 72//72
f 2//4 4//3 9//7 73//73
f 1//71 2//4 73//73 72//72
f 14//14 35//33 12//12
f 14//14 16//16 27//25 34//34
f 35//33 14//14 34//34
f 12//12 35//33 33//31 10//10
f 18//18 19//17 72//72 29//27
f 73//73 9//7 11//9 31//29
f 72//72 73//73 31//29 29//27
f 38//35 68//67 39//38
f 65//65 30//30 32//32 36//37
f 45//43 68//67 67//66 74//74
f 39//38 68//67 45//43 40//40
f 74//74 67//66 69//68 75//75
f 36//37 37//36 41//39 64//63
f 62//62 65//65 36//37 64//63
f 75//75 69//68 66//64 63//61
f 44//44 45//43 74//74 57//55
f 42//42 44//44 58//57 46//46
f 51//50 52//49 58//57 55//54
f 57//55 74//74 75//75 56//56
f 64//63 41//39 43//41 49//47
f 59//58 60//60 49//47 48//48
f 56//56 75//75 63//61 61//59
f 70//70 71//69 15//13 13//11
f 1//71 20//76 76//77 2//4
f 5//2 3//1 77//78 78//79 22//21 23//24 24//23 7//5
f 77//78 3//1 2//4 76//77 1//80
f 22//21 78//79 20//20
s 0
f 1//81 77//81 78//81 20//81
