# Blender 5.0.0
# www.blender.org
mtllib prep_throw_arm0019.mtl
o Mball.001
v -0.796096 4.300955 0.415998
v -0.943038 4.631013 0.663172
v -0.589154 4.701221 0.663761
v -1.082068 4.981568 0.535542
v -0.602960 5.087970 0.512814
v -1.110763 5.071988 0.388611
v -0.598662 5.154887 0.479404
v -1.480283 4.828678 0.365917
v -1.449417 4.759108 0.493852
v -1.818411 4.583585 0.342184
v -1.792370 4.531636 0.442917
v -1.806043 4.470568 -0.058335
v -1.427206 4.729340 -0.028119
v -1.789762 4.436561 -0.088667
v -1.413425 4.701794 -0.053023
v -1.655666 4.054616 -0.150223
v -1.236556 4.339650 -0.137367
v -1.543079 3.830236 0.032125
v -1.130554 4.114805 0.025706
v -0.800181 4.359766 0.022066
v -0.892836 4.579954 -0.110919
v -0.558381 4.833508 -0.088749
v -0.591530 5.206225 0.079293
v -0.591266 5.214436 0.090490
v -0.898916 5.080288 0.020763
v -2.136590 3.768644 0.230344
v -2.230624 3.846149 0.124612
v -1.814323 3.923216 0.397826
v -1.498099 3.864097 0.401646
v -1.908521 4.017944 0.445408
v -1.625078 4.189018 0.580708
v -2.055045 4.263071 0.323597
v -1.928070 4.420419 0.329499
v -2.181870 4.125614 0.003177
v -1.904158 4.336802 -0.070904
v -2.072049 4.561216 0.330013
v -2.078229 4.564477 0.323138
v -2.345316 4.321403 0.105714
v -2.416846 4.427450 0.179619
v -2.617086 4.696205 0.408007
v -2.256514 4.853868 0.543348
v -2.818517 4.955184 0.632997
v -2.480776 5.092130 0.766964
v -2.888357 4.883575 0.634310
v -2.663536 4.645599 0.410876
v -3.017926 5.193911 0.872913
v -2.740113 5.312444 0.979164
v -2.614591 5.285502 1.081122
v -2.418756 5.082566 0.814829
v -2.662464 5.166473 1.310391
v -3.164776 5.102843 1.309399
v -3.061331 5.228424 0.942123
v -2.584979 4.988975 1.299656
v -2.966625 4.680188 1.251517
v -3.209429 4.766439 1.031414
v -2.764958 4.418854 1.028262
v -3.010484 4.515224 0.799559
v -3.068823 5.144247 0.872180
v -2.542547 5.107675 1.248462
v -2.303392 4.877034 1.029694
v -2.379727 4.691736 1.102862
v -2.076756 4.639987 0.806850
v -2.177175 4.421533 0.886143
v -2.220084 4.851221 0.569472
v -1.895763 4.344770 0.578870
v -1.986173 4.128196 0.655059
v -2.559366 4.040028 0.353171
v -2.440255 4.401389 0.182871
v -2.365617 3.936154 0.552295
v -1.057173 4.958960 -0.009450
v -1.052853 4.952462 -0.016314
v -1.128802 4.096461 0.428901
v -1.288377 4.418302 0.638862
v -2.782768 4.278729 0.577067
v -2.565193 4.176562 0.790972
v -1.002319 4.437024 0.200979
v -0.509196 4.407971 0.360415
v -0.506942 4.549774 -0.014126
vn 0.5036 -0.0859 0.8597
vn 0.5988 0.5014 0.6245
vn -0.2618 0.5487 0.7939
vn 0.0275 -0.0543 0.9981
vn 0.4786 0.7919 0.3792
vn -0.4219 0.8843 0.2000
vn -0.4160 0.5009 0.7590
vn -0.5616 0.8176 0.1270
vn -0.5495 0.4101 0.7279
vn -0.6994 0.7029 0.1297
vn -0.4387 0.7143 -0.5453
vn -0.5846 0.6329 -0.5076
vn -0.1896 0.3830 -0.9041
vn -0.2925 0.2754 -0.9157
vn 0.1464 -0.1376 -0.9796
vn -0.0237 -0.3309 -0.9434
vn 0.4952 -0.7154 -0.4929
vn 0.2494 -0.8907 -0.3801
vn 0.1557 -0.0823 -0.9844
vn 0.4170 -0.5840 -0.6965
vn 0.6441 0.1557 -0.7489
vn -0.2752 0.6816 -0.6780
vn 0.4893 0.8564 -0.1648
vn 0.5601 0.6003 -0.5709
vn -0.4908 -0.6204 -0.6117
vn -0.1606 -0.9868 -0.0192
vn 0.2482 -0.8220 0.5125
vn 0.0905 -0.7720 0.6292
vn -0.1891 -0.1595 0.9689
vn 0.5627 -0.0858 0.8222
vn -0.7853 0.5131 0.3465
vn 0.5035 0.8116 -0.2963
vn -0.3658 0.1864 0.9118
vn -0.4111 0.1361 -0.9014
vn -0.3079 0.2584 -0.9157
vn 0.2351 0.6374 -0.7338
vn 0.6964 0.5170 -0.4976
vn -0.2010 0.4986 -0.8432
vn 0.2553 0.7334 -0.6301
vn -0.2175 0.5316 -0.8186
vn 0.2271 0.7889 -0.5710
vn -0.2232 0.5642 -0.7949
vn -0.6122 0.1562 -0.7751
vn -0.6246 0.1877 -0.7581
vn -0.0345 0.9930 -0.1127
vn -0.2938 0.6628 -0.6888
vn 0.6430 0.7551 -0.1276
vn 0.3721 0.9130 0.1672
vn -0.5897 0.7891 -0.1721
vn -0.6619 0.3636 0.6555
vn 0.1767 0.5415 0.8220
vn -0.2831 -0.5388 0.7934
vn 0.3701 -0.1286 0.9201
vn -0.9536 -0.3009 -0.0137
vn -0.8384 -0.4965 -0.2248
vn -0.2114 -0.7344 0.6449
vn -0.7583 0.3235 -0.5660
vn 0.7081 0.3971 0.5839
vn 0.4818 -0.2854 0.8285
vn 0.8180 0.3260 0.4740
vn 0.4811 -0.3384 0.8087
vn 0.8701 0.3035 0.3883
vn 0.6746 0.6994 -0.2363
vn 0.5710 -0.4248 0.7025
vn 0.9810 0.1744 0.0850
vn -0.7645 -0.5521 -0.3328
vn -0.6064 0.1153 -0.7867
vn -0.2406 -0.8488 0.4707
vn -0.1593 0.4100 -0.8980
vn -0.4038 0.7343 -0.5456
vn 0.9227 -0.2234 0.3143
vn 0.4524 -0.7466 0.4877
vn -0.0294 -0.1099 0.9935
vn -0.8196 -0.5105 -0.2602
vn -0.2454 -0.7657 0.5946
vn 0.6571 0.7355 -0.1648
vn 0.8025 0.5526 0.2249
vn 0.7838 -0.3431 0.5177
vn 0.7789 -0.0840 -0.6214
vn -0.1045 -0.6825 0.7234
vn -0.4142 0.8804 0.2308
s 1
f 3//1 5//2 4//3 2//4
f 4//3 5//2 7//5 6//6
f 9//7 4//3 6//6 8//8
f 11//9 9//7 8//8 10//10
f 8//8 13//11 12//12 10//10
f 13//11 15//13 14//14 12//12
f 14//14 15//13 17//15 16//16
f 16//16 17//15 19//17 18//18
f 17//15 21//19 20//20 19//17
f 21//19 22//21 20//20
f 25//22 24//23 23//24
f 27//25 16//16 18//18 26//26
f 26//26 18//18 29//27 28//28
f 29//27 31//29 30//30 28//28
f 31//29 11//9 33//31 32//32
f 30//30 31//29 32//32
f 33//31 35//33 34//34 32//32
f 34//34 38//35 37//36 36//37
f 32//32 34//34 36//37
f 37//36 38//35 39//38
f 41//39 37//36 39//38 40//40
f 43//41 41//39 40//40 42//42
f 40//40 45//43 44//44 42//42
f 47//45 43//41 42//42 46//46
f 49//47 43//41 47//45 48//48
f 52//49 51//50 50//51 48//48
f 47//45 52//49 48//48
f 50//51 51//50 54//52 53//53
f 51//50 55//54 54//52
f 55//54 57//55 56//56 54//52
f 58//57 44//44 57//55 55//54
f 59//58 50//51 53//53
f 61//59 60//60 59//58 53//53
f 63//61 62//62 60//60 61//59
f 60//60 62//62 64//63 49//47
f 66//64 65//65 62//62 63//61
f 54//52 56//56 61//59 53//53
f 50//51 59//58 48//48
f 52//49 47//45 46//46
f 58//57 52//49 46//46
f 38//35 34//34 27//25 67//66
f 68//67 38//35 67//66
f 28//28 30//30 65//65 66//64
f 69//68 26//26 28//28 66//64
f 67//66 27//25 26//26 69//68
f 33//31 11//9 10//10
f 25//22 71//69 70//70
f 25//22 23//24 22//21 21//19
f 71//69 25//22 21//19
f 24//23 25//22 70//70 6//6
f 7//5 24//23 6//6
f 15//13 71//69 21//19 17//15
f 6//6 70//70 13//11 8//8
f 19//17 20//20 1//71 72//72
f 2//4 4//3 9//7 73//73
f 1//71 2//4 73//73 72//72
f 14//14 35//33 12//12
f 14//14 16//16 27//25 34//34
f 35//33 14//14 34//34
f 12//12 35//33 33//31 10//10
f 18//18 19//17 72//72 29//27
f 73//73 9//7 11//9 31//29
f 72//72 73//73 31//29 29//27
f 38//35 68//67 39//38
f 65//65 30//30 32//32 36//37
f 45//43 68//67 67//66 74//74
f 39//38 68//67 45//43 40//40
f 74//74 67//66 69//68 75//75
f 36//37 37//36 41//39 64//63
f 62//62 65//65 36//37 64//63
f 75//75 69//68 66//64 63//61
f 44//44 45//43 74//74 57//55
f 42//42 44//44 58//57 46//46
f 51//50 52//49 58//57 55//54
f 57//55 74//74 75//75 56//56
f 64//63 41//39 43//41 49//47
f 59//58 60//60 49//47 48//48
f 56//56 75//75 63//61 61//59
f 70//70 71//69 15//13 13//11
f 1//71 20//76 76//77 2//4
f 5//2 3//1 77//78 78//79 22//21 23//24 24//23 7//5
f 77//78 3//1 2//4 76//77 1//80
f 22//21 78//79 20//20
s 0
f 1//81 77//81 78//81 20//81
