# Blender 5.0.0
# www.blender.org
mtllib prep_throw_arm0011.mtl
o Mball.001
v -0.701835 4.252562 0.368103
v -0.811667 4.514379 0.676728
v -0.529311 4.658887 0.652311
v -1.007575 4.869107 0.618860
v -0.597042 5.076910 0.522904
v -1.075147 4.979854 0.491082
v -0.596146 5.146937 0.488996
v -1.411701 4.678450 0.518851
v -1.343132 4.590021 0.626815
v -1.726485 4.399307 0.528675
v -1.670810 4.331656 0.613150
v -1.807306 4.372205 0.123587
v -1.454703 4.662725 0.117657
v -1.796373 4.345617 0.085767
v -1.445671 4.642395 0.087363
v -1.646144 4.001731 -0.059308
v -1.267703 4.327956 -0.076342
v -1.469958 3.762898 0.061980
v -1.104714 4.090922 0.029910
v -0.801230 4.377460 -0.005407
v -0.940851 4.605659 -0.088243
v -0.593019 4.865628 -0.094555
v -0.602762 5.209652 0.088820
v -0.601812 5.217372 0.099893
v -0.938612 5.076835 0.079842
v -1.968172 3.547216 0.314489
v -2.096715 3.631061 0.246228
v -1.655006 3.736018 0.487424
v -1.337704 3.733721 0.421339
v -1.747237 3.810908 0.573131
v -1.445090 3.995410 0.667601
v -1.942127 4.054928 0.519529
v -1.824904 4.229131 0.517517
v -2.131407 3.953727 0.203861
v -1.893595 4.236359 0.111267
v -2.041512 4.266786 0.629149
v -2.049674 4.269660 0.624048
v -2.305549 4.041129 0.376771
v -2.378085 4.083041 0.482834
v -2.569312 4.167317 0.790589
v -2.226753 4.370299 0.924606
v -2.760643 4.244743 1.093075
v -2.435861 4.422255 1.222174
v -2.812021 4.157152 1.080770
v -2.602398 4.105560 0.783395
v -2.942348 4.298463 1.403339
v -2.677340 4.451397 1.507574
v -2.528260 4.425880 1.581429
v -2.363567 4.414052 1.257420
v -2.494905 4.209730 1.763957
v -2.959664 3.991387 1.795333
v -2.974281 4.287490 1.481565
v -2.387311 4.078795 1.695311
v -2.698159 3.697150 1.600635
v -2.998978 3.786633 1.446426
v -2.505708 3.616968 1.299053
v -2.813235 3.718211 1.140074
v -2.980711 4.237593 1.393533
v -2.383506 4.220393 1.677791
v -2.160653 4.178125 1.385390
v -2.177794 3.956587 1.407518
v -1.949354 4.127713 1.088644
v -1.981127 3.866023 1.109343
v -2.185372 4.368973 0.944321
v -1.773605 4.022986 0.782525
v -1.796805 3.759067 0.796912
v -2.392625 3.615986 0.545836
v -2.394224 4.050301 0.480606
v -2.139805 3.503388 0.680540
v -1.103969 4.939609 0.085143
v -1.100567 4.935138 0.076204
v -0.996414 3.995923 0.414808
v -1.121681 4.249170 0.690568
v -2.600940 3.668501 0.843703
v -2.322309 3.559075 0.990158
v -1.002319 4.437024 0.200979
v -0.469819 4.403109 0.315341
v -0.518470 4.580477 -0.048733
vn 0.5991 -0.1098 0.7931
vn 0.6001 0.4843 0.6366
vn -0.1771 0.4124 0.8936
vn 0.2211 -0.1671 0.9608
vn 0.4415 0.8174 0.3700
vn -0.4637 0.7854 0.4099
vn -0.2814 0.3379 0.8981
vn -0.5851 0.7013 0.4072
vn -0.3917 0.2480 0.8860
vn -0.6892 0.5868 0.4251
vn -0.6230 0.7310 -0.2786
vn -0.7340 0.6395 -0.2287
vn -0.4233 0.4797 -0.7686
vn -0.5056 0.3762 -0.7764
vn -0.0511 0.0088 -0.9987
vn -0.1753 -0.1649 -0.9706
vn 0.4359 -0.5605 -0.7042
vn 0.2741 -0.7552 -0.5954
vn -0.0563 0.0467 -0.9973
vn 0.3060 -0.4288 -0.8500
vn 0.5333 0.2506 -0.8079
vn -0.4302 0.7430 -0.5127
vn 0.4252 0.8897 -0.1663
vn 0.4848 0.6483 -0.5871
vn -0.4533 -0.5265 -0.7193
vn 0.0552 -0.9449 -0.3226
vn 0.4476 -0.8495 0.2794
vn 0.3906 -0.8320 0.3941
vn 0.0494 -0.3085 0.9499
vn 0.7097 -0.0107 0.7044
vn -0.7034 0.3763 0.6030
vn 0.2220 0.9749 0.0194
vn -0.5061 -0.3263 -0.7983
vn -0.6121 0.2850 -0.7376
vn -0.5498 0.4241 -0.7196
vn -0.1010 0.8874 -0.4498
vn 0.4345 0.8484 -0.3025
vn -0.5126 0.6535 -0.5569
vn -0.0774 0.9537 -0.2905
vn -0.5297 0.6759 -0.5124
vn -0.0991 0.9732 -0.2073
vn -0.5349 0.6990 -0.4747
vn -0.7896 0.1899 -0.5835
vn -0.8068 0.2109 -0.5519
vn -0.2913 0.9126 0.2868
vn -0.6035 0.7344 -0.3104
vn 0.3984 0.9054 0.1468
vn 0.1677 0.8536 0.4932
vn -0.7748 0.5815 0.2481
vn -0.5717 -0.0748 0.8171
vn 0.1917 0.2821 0.9400
vn 0.0157 -0.8227 0.5682
vn 0.5708 -0.2775 0.7728
vn -0.8428 -0.5381 -0.0139
vn -0.7147 -0.6189 -0.3257
vn 0.1200 -0.9429 0.3107
vn -0.9249 0.2448 -0.2910
vn 0.6771 0.3851 0.6271
vn 0.7121 -0.3685 0.5976
vn 0.7856 0.3833 0.4856
vn 0.7220 -0.4136 0.5547
vn 0.8246 0.4019 0.3982
vn 0.4237 0.9055 0.0236
vn 0.7906 -0.4570 0.4075
vn 0.9108 0.4002 0.1015
vn -0.6498 -0.6093 -0.4543
vn -0.7735 0.1545 -0.6147
vn 0.0893 -0.9909 0.1002
vn -0.4265 0.4919 -0.7590
vn -0.5859 0.7602 -0.2807
vn 0.9851 -0.1586 0.0668
vn 0.6255 -0.7464 0.2275
vn 0.2090 -0.2429 0.9473
vn -0.6971 -0.6146 -0.3693
vn 0.0858 -0.9649 0.2481
vn 0.5772 0.8023 -0.1522
vn 0.7890 0.5883 0.1771
vn 0.8342 -0.3847 0.3951
vn 0.7297 0.0094 -0.6837
vn 0.0419 -0.7801 0.6242
vn -0.4615 0.7845 0.4141
s 1
f 3//1 5//2 4//3 2//4
f 4//3 5//2 7//5 6//6
f 9//7 4//3 6//6 8//8
f 11//9 9//7 8//8 10//10
f 8//8 13//11 12//12 10//10
f 13//11 15//13 14//14 12//12
f 14//14 15//13 17//15 16//16
f 16//16 17//15 19//17 18//18
f 17//15 21//19 20//20 19//17
f 21//19 22//21 20//20
f 25//22 24//23 23//24
f 27//25 16//16 18//18 26//26
f 26//26 18//18 29//27 28//28
f 29//27 31//29 30//30 28//28
f 31//29 11//9 33//31 32//32
f 30//30 31//29 32//32
f 33//31 35//33 34//34 32//32
f 34//34 38//35 37//36 36//37
f 32//32 34//34 36//37
f 37//36 38//35 39//38
f 41//39 37//36 39//38 40//40
f 43//41 41//39 40//40 42//42
f 40//40 45//43 44//44 42//42
f 47//45 43//41 42//42 46//46
f 49//47 43//41 47//45 48//48
f 52//49 51//50 50//51 48//48
f 47//45 52//49 48//48
f 50//51 51//50 54//52 53//53
f 51//50 55//54 54//52
f 55//54 57//55 56//56 54//52
f 58//57 44//44 57//55 55//54
f 59//58 50//51 53//53
f 61//59 60//60 59//58 53//53
f 63//61 62//62 60//60 61//59
f 60//60 62//62 64//63 49//47
f 66//64 65//65 62//62 63//61
f 54//52 56//56 61//59 53//53
f 50//51 59//58 48//48
f 52//49 47//45 46//46
f 58//57 52//49 46//46
f 38//35 34//34 27//25 67//66
f 68//67 38//35 67//66
f 28//28 30//30 65//65 66//64
f 69//68 26//26 28//28 66//64
f 67//66 27//25 26//26 69//68
f 33//31 11//9 10//10
f 25//22 71//69 70//70
f 25//22 23//24 22//21 21//19
f 71//69 25//22 21//19
f 24//23 25//22 70//70 6//6
f 7//5 24//23 6//6
f 15//13 71//69 21//19 17//15
f 6//6 70//70 13//11 8//8
f 19//17 20//20 1//71 72//72
f 2//4 4//3 9//7 73//73
f 1//71 2//4 73//73 72//72
f 14//14 35//33 12//12
f 14//14 16//16 27//25 34//34
f 35//33 14//14 34//34
f 12//12 35//33 33//31 10//10
f 18//18 19//17 72//72 29//27
f 73//73 9//7 11//9 31//29
f 72//72 73//73 31//29 29//27
f 38//35 68//67 39//38
f 65//65 30//30 32//32 36//37
f 45//43 68//67 67//66 74//74
f 39//38 68//67 45//43 40//40
f 74//74 67//66 69//68 75//75
f 36//37 37//36 41//39 64//63
f 62//62 65//65 36//37 64//63
f 75//75 69//68 66//64 63//61
f 44//44 45//43 74//74 57//55
f 42//42 44//44 58//57 46//46
f 51//50 52//49 58//57 55//54
f 57//55 74//74 75//75 56//56
f 64//63 41//39 43//41 49//47
f 59//58 60//60 49//47 48//48
f 56//56 75//75 63//61 61//59
f 70//70 71//69 15//13 13//11
f 1//71 20//76 76//77 2//4
f 5//2 3//1 77//78 78//79 22//21 23//24 24//23 7//5
f 77//78 3//1 2//4 76//77 1//80
f 22//21 78//79 20//20
s 0
f 1//81 77//81 78//81 20//81
