# Blender 5.0.0
# www.blender.org
mtllib prep_throw_arm0048.mtl
o Mball.001
v -0.829746 4.345021 0.454957
v -0.981998 4.714535 0.658484
v -0.607653 4.740316 0.662398
v -1.097962 5.042139 0.493038
v -0.603752 5.094499 0.505317
v -1.113530 5.110096 0.338984
v -0.598508 5.158922 0.472737
v -1.490461 4.887074 0.308658
v -1.472444 4.839024 0.444277
v -1.838400 4.637634 0.289419
v -1.821264 4.606672 0.395339
v -1.810212 4.443238 -0.078344
v -1.409957 4.719432 -0.067516
v -1.792018 4.409373 -0.103507
v -1.395277 4.687367 -0.088343
v -1.676308 4.040482 -0.095285
v -1.225950 4.307846 -0.122199
v -1.586150 3.862698 0.118910
v -1.141789 4.109459 0.069448
v -0.804172 4.342043 0.061848
v -0.878548 4.541043 -0.096514
v -0.548713 4.808580 -0.081147
v -0.587358 5.200742 0.074493
v -0.587308 5.209394 0.085687
v -0.882717 5.061611 -0.001879
v -2.197138 4.020858 0.328849
v -2.289953 4.023232 0.210671
v -1.836324 4.081221 0.393610
v -1.560065 3.945257 0.464806
v -1.941727 4.107079 0.421076
v -1.679852 4.285695 0.580765
v -2.074368 4.303858 0.266151
v -1.952778 4.464722 0.283042
v -2.205950 4.095373 -0.009319
v -1.924139 4.288815 -0.070133
v -1.933235 4.554591 -0.009623
v -1.938963 4.555298 -0.017203
v -2.288773 4.341512 -0.061595
v -2.313075 4.496723 -0.073554
v -2.382000 4.944323 -0.075731
v -1.973492 5.027631 -0.044251
v -2.454723 5.383355 -0.075828
v -2.073316 5.460760 -0.035309
v -2.538574 5.364813 -0.039718
v -2.438112 4.931816 -0.048654
v -2.527587 5.821616 -0.054026
v -2.213178 5.885632 -0.026746
v -2.080387 5.909841 0.068303
v -2.007273 5.472941 0.007803
v -2.106587 6.051394 0.292285
v -2.594424 6.199356 0.293080
v -2.544309 5.920607 -0.027633
v -2.082458 5.898556 0.388924
v -2.531176 5.802067 0.501439
v -2.784113 5.757238 0.282499
v -2.458470 5.362945 0.504082
v -2.713188 5.318150 0.273283
v -2.588405 5.808252 -0.030301
v -2.022858 5.914226 0.289712
v -1.906033 5.484603 0.280931
v -2.010003 5.458067 0.430388
v -1.803500 5.052032 0.272014
v -1.937359 5.018608 0.442620
v -1.934357 5.034960 -0.021981
v -1.765916 4.553563 0.287086
v -1.883386 4.538164 0.449917
v -2.510580 4.452503 0.255426
v -2.341043 4.491808 -0.058387
v -2.312778 4.486222 0.466150
v -1.036636 4.937696 -0.041854
v -1.032227 4.930152 -0.047399
v -1.172873 4.160680 0.469957
v -1.336497 4.521305 0.633312
v -2.609422 4.885834 0.264378
v -2.385630 4.924547 0.486134
v -1.002319 4.437024 0.200979
v -0.524768 4.425218 0.383263
v -0.506657 4.534248 0.008758
vn 0.4726 -0.0442 0.8801
vn 0.6118 0.5272 0.5897
vn -0.2709 0.6458 0.7138
vn -0.0270 0.0510 0.9983
vn 0.4946 0.7951 0.3509
vn -0.3871 0.9200 0.0616
vn -0.4540 0.6102 0.6493
vn -0.5382 0.8413 -0.0504
vn -0.6149 0.4997 0.6101
vn -0.7005 0.7120 -0.0485
vn -0.3744 0.6390 -0.6720
vn -0.5564 0.5461 -0.6262
vn -0.1327 0.2740 -0.9525
vn -0.2690 0.1215 -0.9554
vn 0.1820 -0.2779 -0.9432
vn -0.0329 -0.5789 -0.8147
vn 0.4728 -0.8083 -0.3510
vn 0.1220 -0.9815 -0.1472
vn 0.2320 -0.1870 -0.9546
vn 0.4490 -0.6793 -0.5805
vn 0.6716 0.0990 -0.7343
vn -0.2142 0.6105 -0.7625
vn 0.5097 0.8399 -0.1865
vn 0.5748 0.5786 -0.5786
vn -0.7103 -0.6837 -0.1676
vn -0.4087 -0.7493 0.5211
vn 0.0973 -0.7630 0.6390
vn -0.0272 -0.6210 0.7834
vn -0.3011 -0.0690 0.9511
vn 0.2033 -0.4520 0.8685
vn -0.8313 0.5172 0.2035
vn -0.1842 -0.1137 -0.9763
vn -0.5264 0.6751 0.5169
vn -0.3838 -0.3380 -0.8594
vn -0.3854 -0.2708 -0.8821
vn 0.2946 -0.0687 -0.9532
vn 0.6778 -0.2221 -0.7008
vn -0.1607 -0.0735 -0.9843
vn 0.3328 0.0351 -0.9423
vn -0.1626 -0.0352 -0.9861
vn 0.3180 0.1100 -0.9417
vn -0.1553 -0.0014 -0.9879
vn -0.6647 -0.1349 -0.7348
vn -0.6575 -0.1026 -0.7464
vn 0.2326 0.5410 -0.8082
vn -0.1659 0.1208 -0.9787
vn 0.7529 0.2009 -0.6267
vn 0.6254 0.5236 -0.5786
vn -0.3417 0.5422 -0.7676
vn -0.3798 0.9121 0.1541
vn 0.5085 0.8400 0.1892
vn -0.2651 0.1928 0.9448
vn 0.4830 0.3249 0.8131
vn -0.9852 0.0941 0.1432
vn -0.9718 -0.1823 0.1493
vn -0.2761 -0.0484 0.9599
vn -0.6810 0.1163 -0.7230
vn 0.9161 0.3736 0.1453
vn 0.5089 0.1206 0.8523
vn 0.9657 0.2208 0.1367
vn 0.4858 0.0699 0.8713
vn 0.9854 0.1371 0.1008
vn 0.7489 0.0923 -0.6562
vn 0.5553 -0.0812 0.8277
vn 0.9699 -0.2017 -0.1361
vn -0.9379 -0.3218 0.1296
vn -0.6775 -0.1770 -0.7140
vn -0.3614 -0.2002 0.9107
vn -0.0514 0.3188 -0.9464
vn -0.3149 0.6666 -0.6756
vn 0.8908 -0.2051 0.4055
vn 0.3795 -0.6917 0.6144
vn -0.1010 0.0157 0.9948
vn -0.9657 -0.2172 0.1422
vn -0.3202 -0.0846 0.9435
vn 0.6926 0.6863 -0.2220
vn 0.8175 0.5528 0.1616
vn 0.7748 -0.2933 0.5600
vn 0.7747 -0.1433 -0.6158
vn -0.1683 -0.6060 0.7774
vn -0.3918 0.9142 0.1040
s 1
f 3//1 5//2 4//3 2//4
f 4//3 5//2 7//5 6//6
f 9//7 4//3 6//6 8//8
f 11//9 9//7 8//8 10//10
f 8//8 13//11 12//12 10//10
f 13//11 15//13 14//14 12//12
f 14//14 15//13 17//15 16//16
f 16//16 17//15 19//17 18//18
f 17//15 21//19 20//20 19//17
f 21//19 22//21 20//20
f 25//22 24//23 23//24
f 27//25 16//16 18//18 26//26
f 26//26 18//18 29//27 28//28
f 29//27 31//29 30//30 28//28
f 31//29 11//9 33//31 32//32
f 30//30 31//29 32//32
f 33//31 35//33 34//34 32//32
f 34//34 38//35 37//36 36//37
f 32//32 34//34 36//37
f 37//36 38//35 39//38
f 41//39 37//36 39//38 40//40
f 43//41 41//39 40//40 42//42
f 40//40 45//43 44//44 42//42
f 47//45 43//41 42//42 46//46
f 49//47 43//41 47//45 48//48
f 52//49 51//50 50//51 48//48
f 47//45 52//49 48//48
f 50//51 51//50 54//52 53//53
f 51//50 55//54 54//52
f 55//54 57//55 56//56 54//52
f 58//57 44//44 57//55 55//54
f 59//58 50//51 53//53
f 61//59 60//60 59//58 53//53
f 63//61 62//62 60//60 61//59
f 60//60 62//62 64//63 49//47
f 66//64 65//65 62//62 63//61
f 54//52 56//56 61//59 53//53
f 50//51 59//58 48//48
f 52//49 47//45 46//46
f 58//57 52//49 46//46
f 38//35 34//34 27//25 67//66
f 68//67 38//35 67//66
f 28//28 30//30 65//65 66//64
f 69//68 26//26 28//28 66//64
f 67//66 27//25 26//26 69//68
f 33//31 11//9 10//10
f 25//22 71//69 70//70
f 25//22 23//24 22//21 21//19
f 71//69 25//22 21//19
f 24//23 25//22 70//70 6//6
f 7//5 24//23 6//6
f 15//13 71//69 21//19 17//15
f 6//6 70//70 13//11 8//8
f 19//17 20//20 1//71 72//72
f 2//4 4//3 9//7 73//73
f 1//71 2//4 73//73 72//72
f 14//14 35//33 12//12
f 14//14 16//16 27//25 34//34
f 35//33 14//14 34//34
f 12//12 35//33 33//31 10//10
f 18//18 19//17 72//72 29//27
f 73//73 9//7 11//9 31//29
f 72//72 73//73 31//29 29//27
f 38//35 68//67 39//38
f 65//65 30//30 32//32 36//37
f 45//43 68//67 67//66 74//74
f 39//38 68//67 45//43 40//40
f 74//74 67//66 69//68 75//75
f 36//37 37//36 41//39 64//63
f 62//62 65//65 36//37 64//63
f 75//75 69//68 66//64 63//61
f 44//44 45//43 74//74 57//55
f 42//42 44//44 58//57 46//46
f 51//50 52//49 58//57 55//54
f 57//55 74//74 75//75 56//56
f 64//63 41//39 43//41 49//47
f 59//58 60//60 49//47 48//48
f 56//56 75//75 63//61 61//59
f 70//70 71//69 15//13 13//11
f 1//71 20//76 76//77 2//4
f 5//2 3//1 77//78 78//79 22//21 23//24 24//23 7//5
f 77//78 3//1 2//4 76//77 1//80
f 22//21 78//79 20//20
s 0
f 1//81 77//81 78//81 20//81
