# Blender 5.0.0
# www.blender.org
mtllib prep_throw_arm0020.mtl
o Mball.001
v -0.802923 4.307328 0.421630
v -0.951480 4.644069 0.661977
v -0.593177 4.706981 0.663921
v -1.085918 4.991964 0.527997
v -0.603212 5.089070 0.511659
v -1.111846 5.079215 0.379706
v -0.598700 5.155606 0.478359
v -1.482988 4.839946 0.354368
v -1.454824 4.773390 0.483754
v -1.822408 4.596476 0.329638
v -1.798471 4.547075 0.431537
v -1.804376 4.472370 -0.068409
v -1.423779 4.730217 -0.037373
v -1.787830 4.437699 -0.097889
v -1.409760 4.701925 -0.061650
v -1.656183 4.053680 -0.150502
v -1.233986 4.336229 -0.137877
v -1.548561 3.833448 0.037179
v -1.132410 4.114714 0.030115
v -0.800572 4.357064 0.027225
v -0.889537 4.574644 -0.110125
v -0.556207 4.829667 -0.087685
v -0.590678 5.205506 0.078470
v -0.590461 5.213781 0.089670
v -0.895627 5.078290 0.016359
v -2.147943 3.788508 0.232371
v -2.239276 3.862529 0.123432
v -1.823663 3.940358 0.396093
v -1.509101 3.875935 0.405756
v -1.917501 4.034757 0.439711
v -1.636119 4.206439 0.577022
v -2.060031 4.277130 0.311735
v -1.932807 4.433424 0.317713
v -2.183171 4.132681 -0.007007
v -1.903583 4.338006 -0.080030
v -2.065492 4.581020 0.303403
v -2.071509 4.584177 0.296378
v -2.342320 4.338264 0.086189
v -2.411806 4.450763 0.155418
v -2.607322 4.739154 0.371918
v -2.244184 4.893667 0.504185
v -2.804225 5.017551 0.585342
v -2.464415 5.151998 0.716820
v -2.875844 4.948279 0.588749
v -2.655048 4.690228 0.376289
v -2.999751 5.276567 0.814445
v -2.720052 5.392797 0.918434
v -2.596192 5.368200 1.022307
v -2.403099 5.143435 0.765495
v -2.649127 5.264694 1.255353
v -3.152814 5.216561 1.252612
v -3.042904 5.316550 0.881932
v -2.576031 5.084430 1.251881
v -2.964823 4.784946 1.212174
v -3.203348 4.865225 0.987121
v -2.767759 4.504294 1.000573
v -3.008672 4.594241 0.766531
v -3.051867 5.228499 0.815146
v -2.530170 5.198548 1.196671
v -2.294905 4.947661 0.988715
v -2.376526 4.769420 1.068077
v -2.072277 4.690517 0.776825
v -2.178860 4.480281 0.863344
v -2.208075 4.891483 0.530676
v -1.896522 4.374538 0.560940
v -1.992880 4.166924 0.644514
v -2.565591 4.078876 0.342075
v -2.435883 4.425692 0.159448
v -2.376350 3.981243 0.546428
v -1.053022 4.957146 -0.016125
v -1.048669 4.950464 -0.022776
v -1.137800 4.106657 0.433493
v -1.298749 4.435123 0.636166
v -2.784955 4.337637 0.554980
v -2.571991 4.241868 0.774229
v -1.002319 4.437024 0.200979
v -0.512327 4.410039 0.364346
v -0.506638 4.547015 -0.010475
vn 0.4970 -0.0803 0.8640
vn 0.6002 0.5048 0.6204
vn -0.2654 0.5639 0.7820
vn 0.0151 -0.0389 0.9991
vn 0.4813 0.7916 0.3765
vn -0.4163 0.8916 0.1781
vn -0.4240 0.5184 0.7426
vn -0.5568 0.8247 0.0987
vn -0.5600 0.4267 0.7102
vn -0.6976 0.7094 0.1006
vn -0.4235 0.7059 -0.5678
vn -0.5724 0.6251 -0.5306
vn -0.1734 0.3683 -0.9134
vn -0.2785 0.2592 -0.9248
vn 0.1590 -0.1560 -0.9749
vn -0.0157 -0.3535 -0.9353
vn 0.4968 -0.7297 -0.4698
vn 0.2427 -0.9031 -0.3544
vn 0.1710 -0.0981 -0.9804
vn 0.4238 -0.5998 -0.6788
vn 0.6506 0.1464 -0.7452
vn -0.2631 0.6716 -0.6926
vn 0.4936 0.8535 -0.1671
vn 0.5642 0.5963 -0.5711
vn -0.5018 -0.6326 -0.5899
vn -0.1847 -0.9826 0.0195
vn 0.2309 -0.8134 0.5339
vn 0.0645 -0.7559 0.6515
vn -0.2061 -0.1415 0.9683
vn 0.5497 -0.0906 0.8304
vn -0.7897 0.5225 0.3216
vn 0.5250 0.7818 -0.3364
vn -0.3742 0.2535 0.8920
vn -0.3979 0.1092 -0.9109
vn -0.2936 0.2276 -0.9285
vn 0.2592 0.5961 -0.7599
vn 0.7132 0.4719 -0.5184
vn -0.1775 0.4667 -0.8664
vn 0.2806 0.6937 -0.6634
vn -0.1933 0.5003 -0.8440
vn 0.2530 0.7522 -0.6084
vn -0.1985 0.5335 -0.8222
vn -0.6002 0.1409 -0.7873
vn -0.6115 0.1732 -0.7721
vn -0.0053 0.9866 -0.1633
vn -0.2660 0.6366 -0.7238
vn 0.6646 0.7290 -0.1637
vn 0.3979 0.9097 0.1190
vn -0.5642 0.7952 -0.2221
vn -0.6566 0.4132 0.6311
vn 0.1878 0.5745 0.7966
vn -0.3024 -0.4953 0.8144
vn 0.3593 -0.1013 0.9277
vn -0.9612 -0.2759 -0.0081
vn -0.8518 -0.4817 -0.2058
vn -0.2365 -0.6960 0.6779
vn -0.7417 0.3192 -0.5899
vn 0.7177 0.4021 0.5685
vn 0.4656 -0.2631 0.8450
vn 0.8253 0.3234 0.4630
vn 0.4633 -0.3165 0.8278
vn 0.8771 0.2956 0.3787
vn 0.6946 0.6673 -0.2688
vn 0.5541 -0.4069 0.7262
vn 0.9856 0.1505 0.0773
vn -0.7791 -0.5448 -0.3101
vn -0.5958 0.0998 -0.7969
vn -0.2688 -0.8165 0.5109
vn -0.1383 0.3971 -0.9073
vn -0.3874 0.7259 -0.5684
vn 0.9163 -0.2232 0.3325
vn 0.4381 -0.7399 0.5106
vn -0.0453 -0.0920 0.9947
vn -0.8335 -0.4978 -0.2398
vn -0.2711 -0.7281 0.6296
vn 0.6635 0.7282 -0.1715
vn 0.8043 0.5521 0.2196
vn 0.7809 -0.3363 0.5264
vn 0.7800 -0.0935 -0.6188
vn -0.1162 -0.6708 0.7325
vn -0.4100 0.8873 0.2111
s 1
f 3//1 5//2 4//3 2//4
f 4//3 5//2 7//5 6//6
f 9//7 4//3 6//6 8//8
f 11//9 9//7 8//8 10//10
f 8//8 13//11 12//12 10//10
f 13//11 15//13 14//14 12//12
f 14//14 15//13 17//15 16//16
f 16//16 17//15 19//17 18//18
f 17//15 21//19 20//20 19//17
f 21//19 22//21 20//20
f 25//22 24//23 23//24
f 27//25 16//16 18//18 26//26
f 26//26 18//18 29//27 28//28
f 29//27 31//29 30//30 28//28
f 31//29 11//9 33//31 32//32
f 30//30 31//29 32//32
f 33//31 35//33 34//34 32//32
f 34//34 38//35 37//36 36//37
f 32//32 34//34 36//37
f 37//36 38//35 39//38
f 41//39 37//36 39//38 40//40
f 43//41 41//39 40//40 42//42
f 40//40 45//43 44//44 42//42
f 47//45 43//41 42//42 46//46
f 49//47 43//41 47//45 48//48
f 52//49 51//50 50//51 48//48
f 47//45 52//49 48//48
f 50//51 51//50 54//52 53//53
f 51//50 55//54 54//52
f 55//54 57//55 56//56 54//52
f 58//57 44//44 57//55 55//54
f 59//58 50//51 53//53
f 61//59 60//60 59//58 53//53
f 63//61 62//62 60//60 61//59
f 60//60 62//62 64//63 49//47
f 66//64 65//65 62//62 63//61
f 54//52 56//56 61//59 53//53
f 50//51 59//58 48//48
f 52//49 47//45 46//46
f 58//57 52//49 46//46
f 38//35 34//34 27//25 67//66
f 68//67 38//35 67//66
f 28//28 30//30 65//65 66//64
f 69//68 26//26 28//28 66//64
f 67//66 27//25 26//26 69//68
f 33//31 11//9 10//10
f 25//22 71//69 70//70
f 25//22 23//24 22//21 21//19
f 71//69 25//22 21//19
f 24//23 25//22 70//70 6//6
f 7//5 24//23 6//6
f 15//13 71//69 21//19 17//15
f 6//6 70//70 13//11 8//8
f 19//17 20//20 1//71 72//72
f 2//4 4//3 9//7 73//73
f 1//71 2//4 73//73 72//72
f 14//14 35//33 12//12
f 14//14 16//16 27//25 34//34
f 35//33 14//14 34//34
f 12//12 35//33 33//31 10//10
f 18//18 19//17 72//72 29//27
f 73//73 9//7 11//9 31//29
f 72//72 73//73 31//29 29//27
f 38//35 68//67 39//38
f 65//65 30//30 32//32 36//37
f 45//43 68//67 67//66 74//74
f 39//38 68//67 45//43 40//40
f 74//74 67//66 69//68 75//75
f 36//37 37//36 41//39 64//63
f 62//62 65//65 36//37 64//63
f 75//75 69//68 66//64 63//61
f 44//44 45//43 74//74 57//55
f 42//42 44//44 58//57 46//46
f 51//50 52//49 58//57 55//54
f 57//55 74//74 75//75 56//56
f 64//63 41//39 43//41 49//47
f 59//58 60//60 49//47 48//48
f 56//56 75//75 63//61 61//59
f 70//70 71//69 15//13 13//11
f 1//71 20//76 76//77 2//4
f 5//2 3//1 77//78 78//79 22//21 23//24 24//23 7//5
f 77//78 3//1 2//4 76//77 1//80
f 22//21 78//79 20//20
s 0
f 1//81 77//81 78//81 20//81
