# Blender 5.0.0
# www.blender.org
mtllib prep_throw_arm0001.mtl
o Mball.001
v -0.572590 4.241571 0.326718
v -0.599025 4.457350 0.672256
v -0.445143 4.657647 0.615695
v -0.849203 4.777381 0.695975
v -0.583772 5.069831 0.528374
v -0.966440 4.882086 0.600867
v -0.588168 5.140644 0.495613
v -1.217743 4.505940 0.711580
v -1.101688 4.424416 0.786465
v -1.471632 4.171202 0.788875
v -1.378753 4.109279 0.846701
v -1.694816 4.157820 0.425810
v -1.407632 4.509425 0.346443
v -1.695046 4.136182 0.384277
v -1.408128 4.493303 0.313650
v -1.559217 3.840138 0.171344
v -1.264146 4.229714 0.082490
v -1.316610 3.635692 0.216151
v -1.041355 4.020286 0.116199
v -0.805039 4.366981 0.013457
v -0.992321 4.569922 -0.006243
v -0.647831 4.875773 -0.085962
v -0.615407 5.205588 0.101263
v -0.613480 5.213267 0.111955
v -0.967082 5.032649 0.165084
v -1.629714 3.297457 0.546783
v -1.788936 3.342548 0.521057
v -1.335849 3.559172 0.683152
v -1.059167 3.610655 0.521475
v -1.404223 3.591620 0.793691
v -1.104294 3.821921 0.806970
v -1.638907 3.789504 0.816706
v -1.547761 3.986522 0.793603
v -1.911567 3.645661 0.542508
v -1.760989 4.007927 0.425370
v -1.775261 3.902750 0.988166
v -1.785115 3.902735 0.985185
v -2.040857 3.631811 0.758088
v -2.084307 3.622583 0.879314
v -2.182564 3.573481 1.222459
v -1.877696 3.866209 1.318503
v -2.281114 3.520767 1.560428
v -1.987597 3.784014 1.650817
v -2.309740 3.422189 1.543457
v -2.199397 3.504879 1.211290
v -2.362296 3.448143 1.899776
v -2.125221 3.670682 1.973892
v -1.958476 3.689149 2.010577
v -1.907986 3.796960 1.668794
v -1.814355 3.467521 2.139714
v -2.174473 3.085637 2.221820
v -2.363776 3.412128 1.978357
v -1.704191 3.397624 2.030757
v -1.921756 2.943084 1.934738
v -2.269587 2.942172 1.862420
v -1.821186 2.993483 1.596929
v -2.179696 3.001891 1.523437
v -2.385026 3.378873 1.887307
v -1.742499 3.534189 2.038082
v -1.620826 3.629605 1.709691
v -1.572832 3.412723 1.695392
v -1.509048 3.713907 1.378002
v -1.464657 3.454402 1.358187
v -1.833134 3.876843 1.328944
v -1.421560 3.741589 1.039386
v -1.370846 3.479478 1.009608
v -1.957842 3.168583 0.859492
v -2.091434 3.585926 0.874404
v -1.654323 3.133575 0.918591
v -1.121673 4.858418 0.225885
v -1.120634 4.855588 0.215351
v -0.781766 3.920359 0.439689
v -0.826133 4.125930 0.756182
v -2.067064 3.087152 1.192032
v -1.736947 3.062603 1.257824
v -1.002319 4.437024 0.200979
v -0.431383 4.426692 0.259175
v -0.551607 4.605491 -0.074377
vn 0.7375 -0.0569 0.6730
vn 0.6293 0.5000 0.5950
vn 0.0113 0.3385 0.9409
vn 0.5212 -0.1664 0.8371
vn 0.3637 0.8850 0.2906
vn -0.4473 0.6706 0.5918
vn -0.0376 0.2490 0.9678
vn -0.5152 0.5558 0.6524
vn -0.1278 0.1460 0.9810
vn -0.5788 0.4358 0.6893
vn -0.7775 0.6267 0.0520
vn -0.8457 0.5204 0.1184
vn -0.7239 0.4511 -0.5221
vn -0.7849 0.3369 -0.5200
vn -0.3611 0.0488 -0.9313
vn -0.4250 -0.1347 -0.8951
vn 0.2754 -0.4350 -0.8573
vn 0.2190 -0.6442 -0.7328
vn -0.3588 0.0877 -0.9293
vn 0.1005 -0.3231 -0.9410
vn 0.3299 0.3321 -0.8837
vn -0.6111 0.7238 -0.3203
vn 0.3214 0.9221 -0.2157
vn 0.3524 0.6942 -0.6276
vn -0.4821 -0.5434 -0.6872
vn 0.2149 -0.8363 -0.5044
vn 0.6404 -0.7679 0.0149
vn 0.6691 -0.7286 0.1465
vn 0.3935 -0.3542 0.8484
vn 0.8377 0.1715 0.5186
vn -0.5160 0.2236 0.8269
vn -0.0612 0.9657 0.2522
vn -0.8333 0.0982 -0.5440
vn -0.8521 0.2169 -0.4764
vn -0.8425 0.3157 -0.4364
vn -0.5051 0.8497 -0.1511
vn 0.0451 0.9899 -0.1345
vn -0.8301 0.5149 -0.2139
vn -0.4512 0.8922 0.0205
vn -0.8346 0.5268 -0.1612
vn -0.4465 0.8892 0.0999
vn -0.8313 0.5425 -0.1205
vn -0.9510 0.0037 -0.3092
vn -0.9631 0.0139 -0.2688
vn -0.4589 0.6971 0.5508
vn -0.8485 0.5261 0.0573
vn 0.1178 0.9481 0.2954
vn 0.0259 0.7734 0.6334
vn -0.7953 0.2530 0.5509
vn -0.2663 -0.3739 0.8884
vn 0.3399 0.1964 0.9197
vn 0.4245 -0.8435 0.3290
vn 0.8276 -0.1842 0.5302
vn -0.6212 -0.7819 0.0526
vn -0.5608 -0.7675 -0.3106
vn 0.4868 -0.8735 0.0018
vn -0.9996 -0.0213 0.0159
vn 0.6737 0.4985 0.5455
vn 0.9363 -0.1969 0.2909
vn 0.7420 0.5509 0.3820
vn 0.9451 -0.2297 0.2324
vn 0.7512 0.5880 0.3000
vn 0.1077 0.9769 0.1844
vn 0.9696 -0.2349 0.0679
vn 0.7625 0.6463 0.0304
vn -0.5376 -0.7159 -0.4455
vn -0.9331 -0.0219 -0.3590
vn 0.4126 -0.8900 -0.1940
vn -0.7242 0.4623 -0.5117
vn -0.7317 0.6811 0.0275
vn 0.9589 -0.0023 -0.2838
vn 0.7734 -0.6283 -0.0843
vn 0.5550 -0.2456 0.7947
vn -0.5547 -0.7512 -0.3577
vn 0.4449 -0.8937 -0.0578
vn 0.4619 0.8478 -0.2607
vn 0.7543 0.6552 -0.0407
vn 0.9002 -0.3721 0.2263
vn 0.5863 0.0877 -0.8053
vn 0.2222 -0.8222 0.5241
vn -0.4832 0.6608 0.5743
s 1
f 3//1 5//2 4//3 2//4
f 4//3 5//2 7//5 6//6
f 9//7 4//3 6//6 8//8
f 11//9 9//7 8//8 10//10
f 8//8 13//11 12//12 10//10
f 13//11 15//13 14//14 12//12
f 14//14 15//13 17//15 16//16
f 16//16 17//15 19//17 18//18
f 17//15 21//19 20//20 19//17
f 21//19 22//21 20//20
f 25//22 24//23 23//24
f 27//25 16//16 18//18 26//26
f 26//26 18//18 29//27 28//28
f 29//27 31//29 30//30 28//28
f 31//29 11//9 33//31 32//32
f 30//30 31//29 32//32
f 33//31 35//33 34//34 32//32
f 34//34 38//35 37//36 36//37
f 32//32 34//34 36//37
f 37//36 38//35 39//38
f 41//39 37//36 39//38 40//40
f 43//41 41//39 40//40 42//42
f 40//40 45//43 44//44 42//42
f 47//45 43//41 42//42 46//46
f 49//47 43//41 47//45 48//48
f 52//49 51//50 50//51 48//48
f 47//45 52//49 48//48
f 50//51 51//50 54//52 53//53
f 51//50 55//54 54//52
f 55//54 57//55 56//56 54//52
f 58//57 44//44 57//55 55//54
f 59//58 50//51 53//53
f 61//59 60//60 59//58 53//53
f 63//61 62//62 60//60 61//59
f 60//60 62//62 64//63 49//47
f 66//64 65//65 62//62 63//61
f 54//52 56//56 61//59 53//53
f 50//51 59//58 48//48
f 52//49 47//45 46//46
f 58//57 52//49 46//46
f 38//35 34//34 27//25 67//66
f 68//67 38//35 67//66
f 28//28 30//30 65//65 66//64
f 69//68 26//26 28//28 66//64
f 67//66 27//25 26//26 69//68
f 33//31 11//9 10//10
f 25//22 71//69 70//70
f 25//22 23//24 22//21 21//19
f 71//69 25//22 21//19
f 24//23 25//22 70//70 6//6
f 7//5 24//23 6//6
f 15//13 71//69 21//19 17//15
f 6//6 70//70 13//11 8//8
f 19//17 20//20 1//71 72//72
f 2//4 4//3 9//7 73//73
f 1//71 2//4 73//73 72//72
f 14//14 35//33 12//12
f 14//14 16//16 27//25 34//34
f 35//33 14//14 34//34
f 12//12 35//33 33//31 10//10
f 18//18 19//17 72//72 29//27
f 73//73 9//7 11//9 31//29
f 72//72 73//73 31//29 29//27
f 38//35 68//67 39//38
f 65//65 30//30 32//32 36//37
f 45//43 68//67 67//66 74//74
f 39//38 68//67 45//43 40//40
f 74//74 67//66 69//68 75//75
f 36//37 37//36 41//39 64//63
f 62//62 65//65 36//37 64//63
f 75//75 69//68 66//64 63//61
f 44//44 45//43 74//74 57//55
f 42//42 44//44 58//57 46//46
f 51//50 52//49 58//57 55//54
f 57//55 74//74 75//75 56//56
f 64//63 41//39 43//41 49//47
f 59//58 60//60 49//47 48//48
f 56//56 75//75 63//61 61//59
f 70//70 71//69 15//13 13//11
f 1//71 20//76 76//77 2//4
f 5//2 3//1 77//78 78//79 22//21 23//24 24//23 7//5
f 77//78 3//1 2//4 76//77 1//80
f 22//21 78//79 20//20
s 0
f 1//81 77//81 78//81 20//81
