# Blender 5.0.0
# www.blender.org
mtllib prep_throw_arm0016.mtl
o Mball.001
v -0.769512 4.281313 0.398195
v -0.908472 4.588140 0.667749
v -0.572851 4.683430 0.662034
v -1.064822 4.944807 0.562411
v -0.601696 5.084165 0.516559
v -1.104472 5.044606 0.420760
v -0.598289 5.152303 0.482847
v -1.466801 4.785295 0.410346
v -1.425269 4.706864 0.532704
v -1.799627 4.532358 0.393253
v -1.765225 4.472982 0.489461
v -1.811430 4.454132 -0.013036
v -1.439107 4.719029 0.010406
v -1.796364 4.422568 -0.046147
v -1.426424 4.694020 -0.016524
v -1.654791 4.050409 -0.137174
v -1.246799 4.345784 -0.128212
v -1.523218 3.815545 0.026143
v -1.123848 4.112332 0.017248
v -0.799630 4.368074 0.007759
v -0.906357 4.594797 -0.109627
v -0.567430 4.845889 -0.091796
v -0.594819 5.208190 0.082238
v -0.594368 5.216197 0.093414
v -0.911337 5.084103 0.037657
v -2.092550 3.700126 0.238114
v -2.197076 3.785332 0.144066
v -1.775031 3.863589 0.413454
v -1.455099 3.822623 0.396326
v -1.870064 3.955687 0.474457
v -1.579620 4.127095 0.600389
v -2.031641 4.206192 0.374445
v -1.906392 4.368004 0.379233
v -2.174772 4.088331 0.051391
v -1.905934 4.321270 -0.027350
v -2.082698 4.479735 0.423120
v -2.089492 4.483155 0.416792
v -2.348269 4.249053 0.181623
v -2.423939 4.333118 0.268887
v -2.632046 4.536703 0.530778
v -2.278414 4.705839 0.671550
v -2.840806 4.731390 0.788390
v -2.508339 4.877964 0.926163
v -2.904607 4.653284 0.783751
v -2.674139 4.481467 0.529333
v -3.045167 4.903687 1.058436
v -2.772365 5.030753 1.168520
v -2.639906 4.999289 1.262607
v -2.443320 4.866555 0.970586
v -2.665958 4.836528 1.477496
v -3.160841 4.721651 1.484401
v -3.087373 4.920991 1.132066
v -2.575492 4.671492 1.444667
v -2.933572 4.335790 1.373850
v -3.193695 4.434344 1.173046
v -2.724299 4.138501 1.117684
v -2.988385 4.248264 0.909587
v -3.091952 4.849550 1.053667
v -2.545323 4.801966 1.406060
v -2.300918 4.638051 1.156650
v -2.358420 4.434511 1.210545
v -2.068686 4.467235 0.902866
v -2.147221 4.227418 0.959824
v -2.240562 4.702418 0.696006
v -1.878388 4.240181 0.641264
v -1.947476 4.000265 0.694282
v -2.526014 3.905444 0.401267
v -2.445023 4.304294 0.269863
v -2.314438 3.788106 0.580810
v -1.072600 4.960365 0.016863
v -1.068460 4.954526 0.009279
v -1.093136 4.062081 0.417855
v -1.245609 4.360758 0.651719
v -2.755102 4.078043 0.656180
v -2.519164 3.962262 0.849825
v -1.002319 4.437024 0.200979
v -0.497304 4.402987 0.346370
v -0.508939 4.559702 -0.026307
vn 0.5300 -0.1009 0.8420
vn 0.5963 0.4920 0.6343
vn -0.2434 0.4988 0.8318
vn 0.0789 -0.1018 0.9917
vn 0.4685 0.7959 0.3836
vn -0.4394 0.8558 0.2731
vn -0.3822 0.4422 0.8114
vn -0.5757 0.7867 0.2230
vn -0.5075 0.3536 0.7857
vn -0.7031 0.6731 0.2294
vn -0.4961 0.7342 -0.4635
vn -0.6311 0.6503 -0.4229
vn -0.2547 0.4270 -0.8676
vn -0.3506 0.3227 -0.8792
vn 0.0943 -0.0797 -0.9924
vn -0.0608 -0.2622 -0.9631
vn 0.4846 -0.6647 -0.5686
vn 0.2661 -0.8464 -0.4613
vn 0.0961 -0.0318 -0.9949
vn 0.3887 -0.5301 -0.7536
vn 0.6165 0.1875 -0.7647
vn -0.3211 0.7107 -0.6259
vn 0.4722 0.8668 -0.1602
vn 0.5417 0.6150 -0.5730
vn -0.4649 -0.5810 -0.6681
vn -0.0823 -0.9871 -0.1373
vn 0.3106 -0.8439 0.4375
vn 0.1859 -0.8128 0.5522
vn -0.1229 -0.2174 0.9683
vn 0.6091 -0.0688 0.7901
vn -0.7665 0.4745 0.4329
vn 0.4189 0.8908 -0.1759
vn -0.3917 -0.1500 0.9078
vn -0.4662 0.2102 -0.8593
vn -0.3720 0.3431 -0.8625
vn 0.1393 0.7538 -0.6421
vn 0.6265 0.6508 -0.4290
vn -0.2931 0.5839 -0.7571
vn 0.1572 0.8420 -0.5161
vn -0.3114 0.6142 -0.7252
vn 0.1285 0.8860 -0.4455
vn -0.3181 0.6441 -0.6957
vn -0.6630 0.1919 -0.7236
vn -0.6783 0.2203 -0.7010
vn -0.1288 0.9908 0.0413
vn -0.3947 0.7241 -0.5657
vn 0.5654 0.8246 -0.0181
vn 0.2927 0.9060 0.3058
vn -0.6677 0.7443 -0.0154
vn -0.6591 0.2042 0.7238
vn 0.1587 0.4382 0.8848
vn -0.2024 -0.6637 0.7201
vn 0.4211 -0.2038 0.8838
vn -0.9241 -0.3814 -0.0242
vn -0.7953 -0.5399 -0.2756
vn -0.1135 -0.8388 0.5325
vn -0.8165 0.3209 -0.4800
vn 0.6864 0.3831 0.6182
vn 0.5484 -0.3417 0.7632
vn 0.8004 0.3368 0.4959
vn 0.5524 -0.3930 0.7351
vn 0.8511 0.3306 0.4077
vn 0.5992 0.7890 -0.1360
vn 0.6377 -0.4658 0.6136
vn 0.9625 0.2512 0.1022
vn -0.7201 -0.5716 -0.3934
vn -0.6529 0.1522 -0.7420
vn -0.1366 -0.9308 0.3391
vn -0.2391 0.4484 -0.8613
vn -0.4630 0.7556 -0.4633
vn 0.9456 -0.2153 0.2441
vn 0.5061 -0.7608 0.4061
vn 0.0351 -0.1653 0.9856
vn -0.7755 -0.5473 -0.3147
vn -0.1464 -0.8670 0.4763
vn 0.6337 0.7592 -0.1486
vn 0.7977 0.5576 0.2295
vn 0.7968 -0.3627 0.4832
vn 0.7707 -0.0519 -0.6350
vn -0.0608 -0.7198 0.6915
vn -0.4297 0.8532 0.2957
s 1
f 3//1 5//2 4//3 2//4
f 4//3 5//2 7//5 6//6
f 9//7 4//3 6//6 8//8
f 11//9 9//7 8//8 10//10
f 8//8 13//11 12//12 10//10
f 13//11 15//13 14//14 12//12
f 14//14 15//13 17//15 16//16
f 16//16 17//15 19//17 18//18
f 17//15 21//19 20//20 19//17
f 21//19 22//21 20//20
f 25//22 24//23 23//24
f 27//25 16//16 18//18 26//26
f 26//26 18//18 29//27 28//28
f 29//27 31//29 30//30 28//28
f 31//29 11//9 33//31 32//32
f 30//30 31//29 32//32
f 33//31 35//33 34//34 32//32
f 34//34 38//35 37//36 36//37
f 32//32 34//34 36//37
f 37//36 38//35 39//38
f 41//39 37//36 39//38 40//40
f 43//41 41//39 40//40 42//42
f 40//40 45//43 44//44 42//42
f 47//45 43//41 42//42 46//46
f 49//47 43//41 47//45 48//48
f 52//49 51//50 50//51 48//48
f 47//45 52//49 48//48
f 50//51 51//50 54//52 53//53
f 51//50 55//54 54//52
f 55//54 57//55 56//56 54//52
f 58//57 44//44 57//55 55//54
f 59//58 50//51 53//53
f 61//59 60//60 59//58 53//53
f 63//61 62//62 60//60 61//59
f 60//60 62//62 64//63 49//47
f 66//64 65//65 62//62 63//61
f 54//52 56//56 61//59 53//53
f 50//51 59//58 48//48
f 52//49 47//45 46//46
f 58//57 52//49 46//46
f 38//35 34//34 27//25 67//66
f 68//67 38//35 67//66
f 28//28 30//30 65//65 66//64
f 69//68 26//26 28//28 66//64
f 67//66 27//25 26//26 69//68
f 33//31 11//9 10//10
f 25//22 71//69 70//70
f 25//22 23//24 22//21 21//19
f 71//69 25//22 21//19
f 24//23 25//22 70//70 6//6
f 7//5 24//23 6//6
f 15//13 71//69 21//19 17//15
f 6//6 70//70 13//11 8//8
f 19//17 20//20 1//71 72//72
f 2//4 4//3 9//7 73//73
f 1//71 2//4 73//73 72//72
f 14//14 35//33 12//12
f 14//14 16//16 27//25 34//34
f 35//33 14//14 34//34
f 12//12 35//33 33//31 10//10
f 18//18 19//17 72//72 29//27
f 73//73 9//7 11//9 31//29
f 72//72 73//73 31//29 29//27
f 38//35 68//67 39//38
f 65//65 30//30 32//32 36//37
f 45//43 68//67 67//66 74//74
f 39//38 68//67 45//43 40//40
f 74//74 67//66 69//68 75//75
f 36//37 37//36 41//39 64//63
f 62//62 65//65 36//37 64//63
f 75//75 69//68 66//64 63//61
f 44//44 45//43 74//74 57//55
f 42//42 44//44 58//57 46//46
f 51//50 52//49 58//57 55//54
f 57//55 74//74 75//75 56//56
f 64//63 41//39 43//41 49//47
f 59//58 60//60 49//47 48//48
f 56//56 75//75 63//61 61//59
f 70//70 71//69 15//13 13//11
f 1//71 20//76 76//77 2//4
f 5//2 3//1 77//78 78//79 22//21 23//24 24//23 7//5
f 77//78 3//1 2//4 76//77 1//80
f 22//21 78//79 20//20
s 0
f 1//81 77//81 78//81 20//81
