# Blender 5.0.0
# www.blender.org
mtllib prep_throw_arm0009.mtl
o Mball.001
v -0.666198 4.245324 0.357147
v -0.756142 4.490582 0.679705
v -0.505758 4.654326 0.644715
v -0.969985 4.838482 0.644114
v -0.593861 5.074306 0.525060
v -1.051982 4.950032 0.524175
v -0.594391 5.144814 0.491285
v -1.370120 4.627071 0.574810
v -1.287674 4.538169 0.674753
v -1.672034 4.332691 0.602541
v -1.605451 4.264672 0.680512
v -1.791759 4.317039 0.204290
v -1.452916 4.623859 0.178754
v -1.783551 4.292279 0.164919
v -1.446237 4.605143 0.147366
v -1.633714 3.962301 -0.001447
v -1.273896 4.306181 -0.037560
v -1.436488 3.729221 0.099454
v -1.091971 4.073679 0.049458
v -0.802937 4.377045 -0.003663
v -0.957899 4.600778 -0.069645
v -0.607646 4.871014 -0.093926
v -0.606631 5.209151 0.092069
v -0.605409 5.216813 0.103064
v -0.949946 5.067238 0.102378
v -1.890518 3.473248 0.375623
v -2.029696 3.549459 0.319334
v -1.579729 3.680161 0.540009
v -1.269096 3.694451 0.447989
v -1.667627 3.743873 0.634706
v -1.362499 3.939240 0.708815
v -1.876785 3.978040 0.602545
v -1.765317 4.158680 0.595173
v -2.090738 3.871686 0.295619
v -1.873373 4.177843 0.194954
v -1.991053 4.162025 0.731795
v -1.999814 4.164265 0.727284
v -2.257104 3.928219 0.483313
v -2.323789 3.953766 0.595205
v -2.494996 3.993891 0.916978
v -2.159189 4.219716 1.041181
v -2.666259 4.028101 1.233356
v -2.346564 4.227201 1.352351
v -2.711595 3.936818 1.219463
v -2.523720 3.929732 0.908475
v -2.825496 4.039109 1.555661
v -2.565352 4.209695 1.652085
v -2.409190 4.193590 1.715573
v -2.271203 4.223581 1.382793
v -2.344468 3.967898 1.883901
v -2.786959 3.701657 1.930658
v -2.849969 4.018909 1.634817
v -2.233124 3.853903 1.802364
v -2.520467 3.450612 1.706023
v -2.838919 3.521280 1.574764
v -2.347806 3.413705 1.390334
v -2.674218 3.495759 1.255340
v -2.859746 3.975504 1.544912
v -2.241657 3.996402 1.792196
v -2.040943 3.999529 1.485881
v -2.039144 3.775866 1.497184
v -1.851443 3.993736 1.175485
v -1.861216 3.728799 1.184092
v -2.116349 4.221029 1.058327
v -1.694578 3.933338 0.856256
v -1.696270 3.665836 0.857429
v -2.297146 3.482639 0.633846
v -2.337501 3.919627 0.592150
v -2.026216 3.385679 0.747259
v -1.115041 4.920649 0.122504
v -1.112177 4.916727 0.113027
v -0.941536 3.969859 0.421824
v -1.047747 4.206169 0.712648
v -2.483751 3.490736 0.945296
v -2.186452 3.398613 1.069072
v -1.002319 4.437024 0.200979
v -0.457203 4.407545 0.300257
v -0.525858 4.588827 -0.057428
vn 0.6367 -0.1025 0.7643
vn 0.6064 0.4862 0.6292
vn -0.1323 0.3836 0.9140
vn 0.3008 -0.1793 0.9367
vn 0.4252 0.8333 0.3532
vn -0.4665 0.7521 0.4656
vn -0.2201 0.3029 0.9273
vn -0.5765 0.6588 0.4834
vn -0.3243 0.2104 0.9223
vn -0.6692 0.5429 0.5073
vn -0.6777 0.7108 -0.1884
vn -0.7770 0.6152 -0.1334
vn -0.5107 0.4839 -0.7106
vn -0.5870 0.3785 -0.7157
vn -0.1336 0.0317 -0.9905
vn -0.2421 -0.1429 -0.9597
vn 0.3996 -0.5187 -0.7558
vn 0.2658 -0.7192 -0.6419
vn -0.1384 0.0678 -0.9880
vn 0.2552 -0.3917 -0.8840
vn 0.4826 0.2764 -0.8311
vn -0.4837 0.7447 -0.4598
vn 0.3988 0.8998 -0.1768
vn 0.4509 0.6629 -0.5977
vn -0.4601 -0.5214 -0.7186
vn 0.1076 -0.9178 -0.3821
vn 0.5094 -0.8352 0.2071
vn 0.4793 -0.8150 0.3257
vn 0.1429 -0.3331 0.9320
vn 0.7541 0.0321 0.6560
vn -0.6606 0.3300 0.6743
vn 0.1325 0.9873 0.0880
vn -0.5701 -0.1046 -0.8149
vn -0.6852 0.2840 -0.6707
vn -0.6400 0.4173 -0.6452
vn -0.2210 0.9032 -0.3681
vn 0.3296 0.9084 -0.2574
vn -0.6146 0.6389 -0.4627
vn -0.1902 0.9609 -0.2011
vn -0.6290 0.6576 -0.4145
vn -0.2056 0.9717 -0.1166
vn -0.6322 0.6781 -0.3749
vn -0.8467 0.1543 -0.5091
vn -0.8633 0.1720 -0.4744
vn -0.3518 0.8596 0.3706
vn -0.6895 0.6955 -0.2023
vn 0.3197 0.9274 0.1940
vn 0.1226 0.8308 0.5429
vn -0.7994 0.4918 0.3450
vn -0.5010 -0.1758 0.8474
vn 0.2278 0.2423 0.9431
vn 0.1311 -0.8534 0.5044
vn 0.6488 -0.2722 0.7106
vn -0.7923 -0.6101 0.0058
vn -0.6770 -0.6603 -0.3252
vn 0.2313 -0.9472 0.2220
vn -0.9623 0.1816 -0.2023
vn 0.6801 0.4075 0.6095
vn 0.7873 -0.3405 0.5140
vn 0.7806 0.4228 0.4603
vn 0.7981 -0.3821 0.4659
vn 0.8117 0.4487 0.3739
vn 0.3365 0.9389 0.0722
vn 0.8560 -0.4131 0.3108
vn 0.8786 0.4703 0.0836
vn -0.6215 -0.6362 -0.4571
vn -0.8291 0.1214 -0.5457
vn 0.1902 -0.9817 0.0119
vn -0.5167 0.4939 -0.6993
vn -0.6371 0.7459 -0.1944
vn 0.9926 -0.1185 -0.0281
vn 0.6774 -0.7218 0.1422
vn 0.3042 -0.2578 0.9171
vn -0.6618 -0.6519 -0.3702
vn 0.1952 -0.9678 0.1591
vn 0.5475 0.8186 -0.1735
vn 0.7829 0.6093 0.1262
vn 0.8540 -0.3857 0.3491
vn 0.6979 0.0342 -0.7154
vn 0.0924 -0.7983 0.5952
vn -0.4724 0.7506 0.4620
s 1
f 3//1 5//2 4//3 2//4
f 4//3 5//2 7//5 6//6
f 9//7 4//3 6//6 8//8
f 11//9 9//7 8//8 10//10
f 8//8 13//11 12//12 10//10
f 13//11 15//13 14//14 12//12
f 14//14 15//13 17//15 16//16
f 16//16 17//15 19//17 18//18
f 17//15 21//19 20//20 19//17
f 21//19 22//21 20//20
f 25//22 24//23 23//24
f 27//25 16//16 18//18 26//26
f 26//26 18//18 29//27 28//28
f 29//27 31//29 30//30 28//28
f 31//29 11//9 33//31 32//32
f 30//30 31//29 32//32
f 33//31 35//33 34//34 32//32
f 34//34 38//35 37//36 36//37
f 32//32 34//34 36//37
f 37//36 38//35 39//38
f 41//39 37//36 39//38 40//40
f 43//41 41//39 40//40 42//42
f 40//40 45//43 44//44 42//42
f 47//45 43//41 42//42 46//46
f 49//47 43//41 47//45 48//48
f 52//49 51//50 50//51 48//48
f 47//45 52//49 48//48
f 50//51 51//50 54//52 53//53
f 51//50 55//54 54//52
f 55//54 57//55 56//56 54//52
f 58//57 44//44 57//55 55//54
f 59//58 50//51 53//53
f 61//59 60//60 59//58 53//53
f 63//61 62//62 60//60 61//59
f 60//60 62//62 64//63 49//47
f 66//64 65//65 62//62 63//61
f 54//52 56//56 61//59 53//53
f 50//51 59//58 48//48
f 52//49 47//45 46//46
f 58//57 52//49 46//46
f 38//35 34//34 27//25 67//66
f 68//67 38//35 67//66
f 28//28 30//30 65//65 66//64
f 69//68 26//26 28//28 66//64
f 67//66 27//25 26//26 69//68
f 33//31 11//9 10//10
f 25//22 71//69 70//70
f 25//22 23//24 22//21 21//19
f 71//69 25//22 21//19
f 24//23 25//22 70//70 6//6
f 7//5 24//23 6//6
f 15//13 71//69 21//19 17//15
f 6//6 70//70 13//11 8//8
f 19//17 20//20 1//71 72//72
f 2//4 4//3 9//7 73//73
f 1//71 2//4 73//73 72//72
f 14//14 35//33 12//12
f 14//14 16//16 27//25 34//34
f 35//33 14//14 34//34
f 12//12 35//33 33//31 10//10
f 18//18 19//17 72//72 29//27
f 73//73 9//7 11//9 31//29
f 72//72 73//73 31//29 29//27
f 38//35 68//67 39//38
f 65//65 30//30 32//32 36//37
f 45//43 68//67 67//66 74//74
f 39//38 68//67 45//43 40//40
f 74//74 67//66 69//68 75//75
f 36//37 37//36 41//39 64//63
f 62//62 65//65 36//37 64//63
f 75//75 69//68 66//64 63//61
f 44//44 45//43 74//74 57//55
f 42//42 44//44 58//57 46//46
f 51//50 52//49 58//57 55//54
f 57//55 74//74 75//75 56//56
f 64//63 41//39 43//41 49//47
f 59//58 60//60 49//47 48//48
f 56//56 75//75 63//61 61//59
f 70//70 71//69 15//13 13//11
f 1//71 20//76 76//77 2//4
f 5//2 3//1 77//78 78//79 22//21 23//24 24//23 7//5
f 77//78 3//1 2//4 76//77 1//80
f 22//21 78//79 20//20
s 0
f 1//81 77//81 78//81 20//81
