# Blender 5.0.0
# www.blender.org
mtllib prep_throw_arm0030.mtl
o Mball.001
v -0.829746 4.345021 0.454957
v -0.981998 4.714535 0.658484
v -0.607653 4.740316 0.662398
v -1.097962 5.042139 0.493038
v -0.603752 5.094499 0.505317
v -1.113530 5.110096 0.338984
v -0.598508 5.158922 0.472737
v -1.490461 4.887074 0.308658
v -1.472444 4.839024 0.444277
v -1.836133 4.644537 0.287698
v -1.819719 4.611671 0.394287
v -1.802435 4.455359 -0.088983
v -1.409957 4.719432 -0.067516
v -1.784918 4.418808 -0.113886
v -1.395277 4.687367 -0.088343
v -1.667655 4.035752 -0.114573
v -1.225950 4.307846 -0.122199
v -1.579293 3.848289 0.099261
v -1.141789 4.109459 0.069448
v -0.804172 4.342043 0.061848
v -0.878548 4.541043 -0.096514
v -0.548713 4.808580 -0.081147
v -0.587358 5.200742 0.074493
v -0.587308 5.209394 0.085687
v -0.882717 5.061611 -0.001879
v -2.199531 3.926552 0.295058
v -2.283307 3.961704 0.172166
v -1.852013 4.041511 0.408824
v -1.556333 3.937654 0.454210
v -1.946756 4.110115 0.432404
v -1.678029 4.289348 0.578606
v -2.074722 4.323442 0.274874
v -1.949737 4.478080 0.282410
v -2.192955 4.129772 -0.021304
v -1.910027 4.311472 -0.089163
v -1.984902 4.629534 0.124660
v -1.990336 4.631366 0.116950
v -2.306420 4.382714 -0.009346
v -2.350599 4.532355 0.016277
v -2.478777 4.944061 0.118243
v -2.088527 5.067288 0.202671
v -2.610032 5.345461 0.220129
v -2.246248 5.455588 0.309378
v -2.692342 5.301330 0.242675
v -2.534009 4.913240 0.136059
v -2.742557 5.737123 0.342508
v -2.442358 5.830614 0.410346
v -2.319896 5.833141 0.517238
v -2.185126 5.458686 0.358644
v -2.377567 5.870160 0.761557
v -2.879281 5.939276 0.757917
v -2.773962 5.816733 0.390416
v -2.338495 5.690577 0.817284
v -2.774780 5.490134 0.862328
v -3.006078 5.502089 0.623229
v -2.643673 5.087603 0.762825
v -2.876066 5.104206 0.512378
v -2.802130 5.706206 0.356551
v -2.276181 5.754487 0.732368
v -2.102159 5.371822 0.628098
v -2.209641 5.270782 0.754111
v -1.941840 4.984420 0.521779
v -2.079090 4.863987 0.663582
v -2.052138 5.070573 0.228795
v -1.839058 4.533016 0.425360
v -1.963285 4.423249 0.563126
v -2.557785 4.328587 0.299387
v -2.378386 4.517554 0.027037
v -2.378952 4.301756 0.523374
v -1.036636 4.937696 -0.041854
v -1.032227 4.930152 -0.047399
v -1.172873 4.160680 0.469957
v -1.336497 4.521305 0.633312
v -2.714565 4.717212 0.406236
v -2.511372 4.694226 0.644053
v -1.002319 4.437024 0.200979
v -0.524768 4.425218 0.383263
v -0.506657 4.534248 0.008758
vn 0.4726 -0.0442 0.8801
vn 0.6118 0.5272 0.5897
vn -0.2709 0.6458 0.7138
vn -0.0270 0.0510 0.9983
vn 0.4946 0.7951 0.3509
vn -0.3871 0.9200 0.0616
vn -0.4520 0.6098 0.6510
vn -0.5334 0.8445 -0.0481
vn -0.6057 0.5062 0.6139
vn -0.6908 0.7216 -0.0459
vn -0.3648 0.6433 -0.6731
vn -0.5341 0.5604 -0.6331
vn -0.1189 0.2783 -0.9531
vn -0.2415 0.1495 -0.9588
vn 0.1971 -0.2654 -0.9438
vn -0.0072 -0.5121 -0.8589
vn 0.4896 -0.7996 -0.3477
vn 0.1768 -0.9657 -0.1903
vn 0.2320 -0.1870 -0.9546
vn 0.4490 -0.6793 -0.5805
vn 0.6716 0.0990 -0.7343
vn -0.2142 0.6105 -0.7625
vn 0.5097 0.8399 -0.1865
vn 0.5748 0.5786 -0.5786
vn -0.6211 -0.6946 -0.3631
vn -0.3457 -0.8806 0.3240
vn 0.1385 -0.7549 0.6410
vn -0.0465 -0.6277 0.7770
vn -0.2810 -0.0475 0.9585
vn 0.4481 -0.1993 0.8715
vn -0.8146 0.5443 0.2004
vn 0.5163 0.4416 -0.7338
vn -0.4484 0.5676 0.6905
vn -0.3630 -0.1357 -0.9219
vn -0.2880 -0.0523 -0.9562
vn 0.3422 0.2244 -0.9124
vn 0.7504 0.0781 -0.6563
vn -0.1009 0.1666 -0.9808
vn 0.3745 0.3251 -0.8684
vn -0.1093 0.2025 -0.9732
vn 0.3544 0.3976 -0.8464
vn -0.1081 0.2376 -0.9653
vn -0.5896 -0.0144 -0.8076
vn -0.5899 0.0205 -0.8072
vn 0.1850 0.8034 -0.5660
vn -0.1429 0.3586 -0.9225
vn 0.7675 0.4533 -0.4532
vn 0.5773 0.7591 -0.3009
vn -0.3906 0.7124 -0.5831
vn -0.5243 0.7582 0.3876
vn 0.3564 0.7903 0.4983
vn -0.3439 -0.1088 0.9327
vn 0.3758 0.1434 0.9156
vn -0.9950 -0.0693 0.0713
vn -0.9436 -0.3307 -0.0126
vn -0.3253 -0.3358 0.8840
vn -0.6649 0.2255 -0.7121
vn 0.8316 0.4178 0.3658
vn 0.4341 -0.0480 0.8996
vn 0.9080 0.2856 0.3066
vn 0.4187 -0.1007 0.9025
vn 0.9447 0.2193 0.2439
vn 0.7774 0.3562 -0.5184
vn 0.5082 -0.2247 0.8314
vn 0.9985 -0.0464 -0.0290
vn -0.8920 -0.4456 -0.0755
vn -0.5961 -0.0561 -0.8010
vn -0.3905 -0.4835 0.7834
vn -0.0514 0.3188 -0.9464
vn -0.3149 0.6666 -0.6756
vn 0.8908 -0.2051 0.4055
vn 0.3796 -0.6878 0.6187
vn -0.1027 0.0125 0.9946
vn -0.9324 -0.3599 -0.0327
vn -0.3656 -0.3710 0.8536
vn 0.6926 0.6863 -0.2220
vn 0.8175 0.5528 0.1616
vn 0.7748 -0.2933 0.5600
vn 0.7747 -0.1433 -0.6158
vn -0.1683 -0.6060 0.7774
vn -0.3918 0.9142 0.1040
s 1
f 3//1 5//2 4//3 2//4
f 4//3 5//2 7//5 6//6
f 9//7 4//3 6//6 8//8
f 11//9 9//7 8//8 10//10
f 8//8 13//11 12//12 10//10
f 13//11 15//13 14//14 12//12
f 14//14 15//13 17//15 16//16
f 16//16 17//15 19//17 18//18
f 17//15 21//19 20//20 19//17
f 21//19 22//21 20//20
f 25//22 24//23 23//24
f 27//25 16//16 18//18 26//26
f 26//26 18//18 29//27 28//28
f 29//27 31//29 30//30 28//28
f 31//29 11//9 33//31 32//32
f 30//30 31//29 32//32
f 33//31 35//33 34//34 32//32
f 34//34 38//35 37//36 36//37
f 32//32 34//34 36//37
f 37//36 38//35 39//38
f 41//39 37//36 39//38 40//40
f 43//41 41//39 40//40 42//42
f 40//40 45//43 44//44 42//42
f 47//45 43//41 42//42 46//46
f 49//47 43//41 47//45 48//48
f 52//49 51//50 50//51 48//48
f 47//45 52//49 48//48
f 50//51 51//50 54//52 53//53
f 51//50 55//54 54//52
f 55//54 57//55 56//56 54//52
f 58//57 44//44 57//55 55//54
f 59//58 50//51 53//53
f 61//59 60//60 59//58 53//53
f 63//61 62//62 60//60 61//59
f 60//60 62//62 64//63 49//47
f 66//64 65//65 62//62 63//61
f 54//52 56//56 61//59 53//53
f 50//51 59//58 48//48
f 52//49 47//45 46//46
f 58//57 52//49 46//46
f 38//35 34//34 27//25 67//66
f 68//67 38//35 67//66
f 28//28 30//30 65//65 66//64
f 69//68 26//26 28//28 66//64
f 67//66 27//25 26//26 69//68
f 33//31 11//9 10//10
f 25//22 71//69 70//70
f 25//22 23//24 22//21 21//19
f 71//69 25//22 21//19
f 24//23 25//22 70//70 6//6
f 7//5 24//23 6//6
f 15//13 71//69 21//19 17//15
f 6//6 70//70 13//11 8//8
f 19//17 20//20 1//71 72//72
f 2//4 4//3 9//7 73//73
f 1//71 2//4 73//73 72//72
f 14//14 35//33 12//12
f 14//14 16//16 27//25 34//34
f 35//33 14//14 34//34
f 12//12 35//33 33//31 10//10
f 18//18 19//17 72//72 29//27
f 73//73 9//7 11//9 31//29
f 72//72 73//73 31//29 29//27
f 38//35 68//67 39//38
f 65//65 30//30 32//32 36//37
f 45//43 68//67 67//66 74//74
f 39//38 68//67 45//43 40//40
f 74//74 67//66 69//68 75//75
f 36//37 37//36 41//39 64//63
f 62//62 65//65 36//37 64//63
f 75//75 69//68 66//64 63//61
f 44//44 45//43 74//74 57//55
f 42//42 44//44 58//57 46//46
f 51//50 52//49 58//57 55//54
f 57//55 74//74 75//75 56//56
f 64//63 41//39 43//41 49//47
f 59//58 60//60 49//47 48//48
f 56//56 75//75 63//61 61//59
f 70//70 71//69 15//13 13//11
f 1//71 20//76 76//77 2//4
f 5//2 3//1 77//78 78//79 22//21 23//24 24//23 7//5
f 77//78 3//1 2//4 76//77 1//80
f 22//21 78//79 20//20
s 0
f 1//81 77//81 78//81 20//81
