# Blender 5.0.0
# www.blender.org
mtllib prep_throw_arm0025.mtl
o Mball.001
v -0.824287 4.334073 0.445097
v -0.976296 4.695151 0.658695
v -0.604999 4.730771 0.663189
v -1.096057 5.029353 0.501449
v -0.603730 5.093096 0.507073
v -1.113609 5.102989 0.348732
v -0.598613 5.158108 0.474276
v -1.489390 4.876430 0.317958
v -1.469424 4.822910 0.452115
v -1.833156 4.635975 0.294055
v -1.815483 4.597814 0.399675
v -1.800313 4.466422 -0.090917
v -1.412632 4.725015 -0.062970
v -1.783063 4.429715 -0.117070
v -1.398033 4.693944 -0.084751
v -1.661342 4.042531 -0.134019
v -1.227006 4.317299 -0.129991
v -1.569279 3.843050 0.072859
v -1.139343 4.111667 0.055622
v -0.802984 4.346220 0.051029
v -0.880307 4.551102 -0.101972
v -0.550023 4.814436 -0.083049
v -0.588021 5.202203 0.075514
v -0.587939 5.210748 0.086713
v -0.885275 5.067199 0.002136
v -2.185922 3.870589 0.262443
v -2.269603 3.924111 0.142670
v -1.849775 4.006950 0.402168
v -1.544767 3.920370 0.434235
v -1.942741 4.092381 0.431096
v -1.669286 4.269056 0.573586
v -2.072870 4.318278 0.280960
v -1.945997 4.472026 0.286650
v -2.188032 4.141822 -0.026170
v -1.904328 4.327788 -0.096350
v -2.024127 4.633200 0.197763
v -2.029644 4.635650 0.190222
v -2.323095 4.381614 0.021978
v -2.379884 4.518753 0.067631
v -2.542984 4.885646 0.222975
v -2.165854 5.025466 0.333369
v -2.708436 5.242015 0.376884
v -2.356633 5.365263 0.489487
v -2.787028 5.185401 0.390695
v -2.595658 4.845850 0.234712
v -2.874625 5.583970 0.549525
v -2.584451 5.689582 0.637104
v -2.464213 5.679419 0.745649
v -2.296718 5.362936 0.539907
v -2.528086 5.653265 0.989648
v -3.033294 5.671972 0.983203
v -2.913171 5.647689 0.607148
v -2.475029 5.468375 1.019893
v -2.893363 5.218343 1.024645
v -3.121336 5.262548 0.785429
v -2.727998 4.860298 0.872913
v -2.957291 4.911579 0.623174
v -2.931561 5.544524 0.557429
v -2.417125 5.556839 0.947073
v -2.210619 5.223614 0.794565
v -2.310973 5.084775 0.901368
v -2.017333 4.884864 0.639021
v -2.145932 4.720419 0.757838
v -2.130259 5.026236 0.360439
v -1.876796 4.484324 0.486381
v -1.993868 4.326518 0.602203
v -2.572993 4.233130 0.311566
v -2.406473 4.498945 0.075393
v -2.395810 4.172655 0.532483
v -1.039869 4.944682 -0.036679
v -1.035457 4.937352 -0.042518
v -1.165713 4.145954 0.457509
v -1.329315 4.498364 0.631628
v -2.762864 4.573306 0.467893
v -2.561938 4.515806 0.703569
v -1.002319 4.437024 0.200979
v -0.522245 4.420355 0.378443
v -0.506426 4.537391 0.003574
vn 0.4772 -0.0552 0.8771
vn 0.6079 0.5202 0.5999
vn -0.2719 0.6233 0.7332
vn -0.0200 0.0251 0.9995
vn 0.4912 0.7932 0.3600
vn -0.3946 0.9141 0.0933
vn -0.4464 0.5854 0.6768
vn -0.5381 0.8428 -0.0086
vn -0.5933 0.4872 0.6408
vn -0.6900 0.7237 -0.0073
vn -0.3750 0.6640 -0.6470
vn -0.5363 0.5839 -0.6095
vn -0.1261 0.3054 -0.9438
vn -0.2411 0.1872 -0.9523
vn 0.1938 -0.2319 -0.9532
vn 0.0002 -0.4532 -0.8914
vn 0.4960 -0.7806 -0.3803
vn 0.2072 -0.9470 -0.2455
vn 0.2192 -0.1621 -0.9621
vn 0.4439 -0.6585 -0.6078
vn 0.6683 0.1116 -0.7354
vn -0.2245 0.6285 -0.7447
vn 0.5065 0.8433 -0.1798
vn 0.5740 0.5828 -0.5752
vn -0.5637 -0.6786 -0.4709
vn -0.2845 -0.9383 0.1966
vn 0.1685 -0.7720 0.6128
vn -0.0208 -0.6749 0.7376
vn -0.2608 -0.0708 0.9628
vn 0.4977 -0.1248 0.8583
vn -0.8046 0.5472 0.2306
vn 0.5760 0.6165 -0.5368
vn -0.4178 0.4668 0.7794
vn -0.3635 -0.0257 -0.9313
vn -0.2659 0.0731 -0.9612
vn 0.3303 0.3919 -0.8587
vn 0.7559 0.2551 -0.6029
vn -0.1087 0.3028 -0.9468
vn 0.3579 0.4927 -0.7932
vn -0.1205 0.3380 -0.9334
vn 0.3343 0.5611 -0.7572
vn -0.1225 0.3728 -0.9198
vn -0.5742 0.0563 -0.8167
vn -0.5796 0.0909 -0.8098
vn 0.1150 0.9111 -0.3957
vn -0.1727 0.4895 -0.8547
vn 0.7397 0.5868 -0.3294
vn 0.5090 0.8530 -0.1157
vn -0.4549 0.7744 -0.4398
vn -0.5998 0.6228 0.5024
vn 0.2672 0.7131 0.6482
vn -0.3509 -0.2824 0.8928
vn 0.3453 0.0348 0.9379
vn -0.9863 -0.1623 0.0287
vn -0.9081 -0.4052 -0.1052
vn -0.3120 -0.5002 0.8077
vn -0.6835 0.2756 -0.6759
vn 0.7751 0.4203 0.4717
vn 0.4250 -0.1456 0.8934
vn 0.8675 0.3090 0.3898
vn 0.4152 -0.1990 0.8877
vn 0.9132 0.2579 0.3155
vn 0.7594 0.5022 -0.4136
vn 0.5077 -0.3074 0.8048
vn 0.9987 0.0423 0.0289
vn -0.8455 -0.4997 -0.1884
vn -0.5761 0.0148 -0.8173
vn -0.3619 -0.6405 0.6773
vn -0.0702 0.3418 -0.9372
vn -0.3314 0.6851 -0.6487
vn 0.8958 -0.2130 0.3900
vn 0.3916 -0.7044 0.5920
vn -0.0922 -0.0181 0.9956
vn -0.8934 -0.4294 -0.1319
vn -0.3495 -0.5347 0.7694
vn 0.6856 0.6984 -0.2055
vn 0.8133 0.5525 0.1826
vn 0.7746 -0.3064 0.5533
vn 0.7781 -0.1298 -0.6145
vn -0.1560 -0.6241 0.7656
vn -0.3957 0.9086 0.1335
s 1
f 3//1 5//2 4//3 2//4
f 4//3 5//2 7//5 6//6
f 9//7 4//3 6//6 8//8
f 11//9 9//7 8//8 10//10
f 8//8 13//11 12//12 10//10
f 13//11 15//13 14//14 12//12
f 14//14 15//13 17//15 16//16
f 16//16 17//15 19//17 18//18
f 17//15 21//19 20//20 19//17
f 21//19 22//21 20//20
f 25//22 24//23 23//24
f 27//25 16//16 18//18 26//26
f 26//26 18//18 29//27 28//28
f 29//27 31//29 30//30 28//28
f 31//29 11//9 33//31 32//32
f 30//30 31//29 32//32
f 33//31 35//33 34//34 32//32
f 34//34 38//35 37//36 36//37
f 32//32 34//34 36//37
f 37//36 38//35 39//38
f 41//39 37//36 39//38 40//40
f 43//41 41//39 40//40 42//42
f 40//40 45//43 44//44 42//42
f 47//45 43//41 42//42 46//46
f 49//47 43//41 47//45 48//48
f 52//49 51//50 50//51 48//48
f 47//45 52//49 48//48
f 50//51 51//50 54//52 53//53
f 51//50 55//54 54//52
f 55//54 57//55 56//56 54//52
f 58//57 44//44 57//55 55//54
f 59//58 50//51 53//53
f 61//59 60//60 59//58 53//53
f 63//61 62//62 60//60 61//59
f 60//60 62//62 64//63 49//47
f 66//64 65//65 62//62 63//61
f 54//52 56//56 61//59 53//53
f 50//51 59//58 48//48
f 52//49 47//45 46//46
f 58//57 52//49 46//46
f 38//35 34//34 27//25 67//66
f 68//67 38//35 67//66
f 28//28 30//30 65//65 66//64
f 69//68 26//26 28//28 66//64
f 67//66 27//25 26//26 69//68
f 33//31 11//9 10//10
f 25//22 71//69 70//70
f 25//22 23//24 22//21 21//19
f 71//69 25//22 21//19
f 24//23 25//22 70//70 6//6
f 7//5 24//23 6//6
f 15//13 71//69 21//19 17//15
f 6//6 70//70 13//11 8//8
f 19//17 20//20 1//71 72//72
f 2//4 4//3 9//7 73//73
f 1//71 2//4 73//73 72//72
f 14//14 35//33 12//12
f 14//14 16//16 27//25 34//34
f 35//33 14//14 34//34
f 12//12 35//33 33//31 10//10
f 18//18 19//17 72//72 29//27
f 73//73 9//7 11//9 31//29
f 72//72 73//73 31//29 29//27
f 38//35 68//67 39//38
f 65//65 30//30 32//32 36//37
f 45//43 68//67 67//66 74//74
f 39//38 68//67 45//43 40//40
f 74//74 67//66 69//68 75//75
f 36//37 37//36 41//39 64//63
f 62//62 65//65 36//37 64//63
f 75//75 69//68 66//64 63//61
f 44//44 45//43 74//74 57//55
f 42//42 44//44 58//57 46//46
f 51//50 52//49 58//57 55//54
f 57//55 74//74 75//75 56//56
f 64//63 41//39 43//41 49//47
f 59//58 60//60 49//47 48//48
f 56//56 75//75 63//61 61//59
f 70//70 71//69 15//13 13//11
f 1//71 20//76 76//77 2//4
f 5//2 3//1 77//78 78//79 22//21 23//24 24//23 7//5
f 77//78 3//1 2//4 76//77 1//80
f 22//21 78//79 20//20
s 0
f 1//81 77//81 78//81 20//81
