# Blender 5.0.0
# www.blender.org
mtllib prep_throw_arm0031.mtl
o Mball.001
v -0.829746 4.345021 0.454957
v -0.981998 4.714535 0.658484
v -0.607653 4.740316 0.662398
v -1.097962 5.042139 0.493038
v -0.603752 5.094499 0.505317
v -1.113530 5.110096 0.338984
v -0.598508 5.158922 0.472737
v -1.490461 4.887074 0.308658
v -1.472444 4.839024 0.444277
v -1.836312 4.643847 0.287777
v -1.819841 4.611168 0.394329
v -1.803150 4.454070 -0.088187
v -1.409957 4.719432 -0.067516
v -1.785587 4.417775 -0.113084
v -1.395277 4.687367 -0.088343
v -1.668647 4.035874 -0.112844
v -1.225950 4.307846 -0.122199
v -1.580212 3.849232 0.101135
v -1.141789 4.109459 0.069448
v -0.804172 4.342043 0.061848
v -0.878548 4.541043 -0.096514
v -0.548713 4.808580 -0.081147
v -0.587358 5.200742 0.074493
v -0.587308 5.209394 0.085687
v -0.882717 5.061611 -0.001879
v -2.200232 3.934891 0.298979
v -2.284571 3.967187 0.176111
v -1.850842 4.045033 0.407982
v -1.556863 3.938030 0.455235
v -1.946220 4.109865 0.431408
v -1.678209 4.288901 0.578766
v -2.074483 4.321743 0.273910
v -1.949936 4.476795 0.282328
v -2.193875 4.126852 -0.020694
v -1.911308 4.309109 -0.087754
v -1.978353 4.625249 0.112108
v -1.983801 4.626998 0.104394
v -2.303789 4.380728 -0.014475
v -2.345791 4.531765 0.007899
v -2.467726 4.949137 0.101089
v -2.075256 5.068837 0.180586
v -2.592842 5.356298 0.194411
v -2.226975 5.463531 0.279168
v -2.675565 5.314412 0.218396
v -2.523231 4.919922 0.119897
v -2.719208 5.754507 0.308447
v -2.417298 5.845393 0.372520
v -2.294032 5.849803 0.478658
v -2.165457 5.467418 0.328017
v -2.349401 5.896802 0.722324
v -2.850150 5.974205 0.719754
v -2.749190 5.836373 0.354672
v -2.312327 5.718715 0.781942
v -2.750904 5.527400 0.833876
v -2.983772 5.534414 0.595833
v -2.625933 5.119198 0.742963
v -2.859917 5.130457 0.493476
v -2.779083 5.725130 0.323508
v -2.249790 5.778402 0.695268
v -2.081680 5.389157 0.598906
v -2.189571 5.294640 0.727752
v -1.927348 4.995332 0.500678
v -2.065147 4.882517 0.645910
v -2.038636 5.072473 0.206430
v -1.831338 4.537107 0.413555
v -1.955820 4.435722 0.554499
v -2.553624 4.342018 0.296699
v -2.373693 4.517843 0.019142
v -2.373525 4.320463 0.520256
v -1.036636 4.937696 -0.041854
v -1.032227 4.930152 -0.047399
v -1.172873 4.160680 0.469957
v -1.336497 4.521305 0.633312
v -2.704397 4.737027 0.395409
v -2.499787 4.719414 0.632573
v -1.002319 4.437024 0.200979
v -0.524768 4.425218 0.383263
v -0.506657 4.534248 0.008758
vn 0.4726 -0.0442 0.8801
vn 0.6118 0.5272 0.5897
vn -0.2709 0.6458 0.7138
vn -0.0270 0.0510 0.9983
vn 0.4946 0.7951 0.3509
vn -0.3871 0.9200 0.0616
vn -0.4523 0.6098 0.6508
vn -0.5339 0.8442 -0.0483
vn -0.6068 0.5055 0.6134
vn -0.6918 0.7206 -0.0462
vn -0.3657 0.6429 -0.6730
vn -0.5361 0.5590 -0.6325
vn -0.1201 0.2779 -0.9531
vn -0.2439 0.1471 -0.9586
vn 0.1958 -0.2665 -0.9437
vn -0.0096 -0.5182 -0.8552
vn 0.4883 -0.8003 -0.3480
vn 0.1717 -0.9673 -0.1866
vn 0.2320 -0.1870 -0.9546
vn 0.4490 -0.6793 -0.5805
vn 0.6716 0.0990 -0.7343
vn -0.2142 0.6105 -0.7625
vn 0.5097 0.8399 -0.1865
vn 0.5748 0.5786 -0.5786
vn -0.6308 -0.6948 -0.3454
vn -0.3541 -0.8702 0.3425
vn 0.1349 -0.7556 0.6410
vn -0.0473 -0.6245 0.7796
vn -0.2828 -0.0489 0.9579
vn 0.4359 -0.2198 0.8727
vn -0.8163 0.5417 0.2005
vn 0.4887 0.4065 -0.7720
vn -0.4541 0.5792 0.6769
vn -0.3646 -0.1531 -0.9185
vn -0.2952 -0.0720 -0.9527
vn 0.3405 0.1974 -0.9193
vn 0.7460 0.0492 -0.6641
vn -0.1036 0.1450 -0.9840
vn 0.3734 0.2981 -0.8785
vn -0.1114 0.1810 -0.9771
vn 0.3539 0.3710 -0.8585
vn -0.1096 0.2160 -0.9702
vn -0.5952 -0.0251 -0.8032
vn -0.5947 0.0098 -0.8039
vn 0.1936 0.7827 -0.5915
vn -0.1419 0.3375 -0.9306
vn 0.7692 0.4303 -0.4724
vn 0.5859 0.7403 -0.3297
vn -0.3827 0.7001 -0.6029
vn -0.5099 0.7772 0.3687
vn 0.3726 0.7990 0.4720
vn -0.3389 -0.0810 0.9373
vn 0.3843 0.1600 0.9092
vn -0.9954 -0.0535 0.0794
vn -0.9484 -0.3171 0.0035
vn -0.3236 -0.3092 0.8942
vn -0.6645 0.2173 -0.7150
vn 0.8413 0.4151 0.3462
vn 0.4391 -0.0329 0.8978
vn 0.9148 0.2800 0.2910
vn 0.4229 -0.0855 0.9021
vn 0.9498 0.2116 0.2304
vn 0.7775 0.3316 -0.5344
vn 0.5114 -0.2122 0.8327
vn 0.9973 -0.0616 -0.0407
vn -0.8987 -0.4349 -0.0560
vn -0.6023 -0.0668 -0.7954
vn -0.3913 -0.4576 0.7984
vn -0.0514 0.3188 -0.9464
vn -0.3149 0.6666 -0.6756
vn 0.8908 -0.2051 0.4055
vn 0.3797 -0.6880 0.6184
vn -0.1026 0.0128 0.9946
vn -0.9378 -0.3469 -0.0155
vn -0.3643 -0.3445 0.8652
vn 0.6926 0.6863 -0.2220
vn 0.8175 0.5528 0.1616
vn 0.7748 -0.2933 0.5600
vn 0.7747 -0.1433 -0.6158
vn -0.1683 -0.6060 0.7774
vn -0.3918 0.9142 0.1040
s 1
f 3//1 5//2 4//3 2//4
f 4//3 5//2 7//5 6//6
f 9//7 4//3 6//6 8//8
f 11//9 9//7 8//8 10//10
f 8//8 13//11 12//12 10//10
f 13//11 15//13 14//14 12//12
f 14//14 15//13 17//15 16//16
f 16//16 17//15 19//17 18//18
f 17//15 21//19 20//20 19//17
f 21//19 22//21 20//20
f 25//22 24//23 23//24
f 27//25 16//16 18//18 26//26
f 26//26 18//18 29//27 28//28
f 29//27 31//29 30//30 28//28
f 31//29 11//9 33//31 32//32
f 30//30 31//29 32//32
f 33//31 35//33 34//34 32//32
f 34//34 38//35 37//36 36//37
f 32//32 34//34 36//37
f 37//36 38//35 39//38
f 41//39 37//36 39//38 40//40
f 43//41 41//39 40//40 42//42
f 40//40 45//43 44//44 42//42
f 47//45 43//41 42//42 46//46
f 49//47 43//41 47//45 48//48
f 52//49 51//50 50//51 48//48
f 47//45 52//49 48//48
f 50//51 51//50 54//52 53//53
f 51//50 55//54 54//52
f 55//54 57//55 56//56 54//52
f 58//57 44//44 57//55 55//54
f 59//58 50//51 53//53
f 61//59 60//60 59//58 53//53
f 63//61 62//62 60//60 61//59
f 60//60 62//62 64//63 49//47
f 66//64 65//65 62//62 63//61
f 54//52 56//56 61//59 53//53
f 50//51 59//58 48//48
f 52//49 47//45 46//46
f 58//57 52//49 46//46
f 38//35 34//34 27//25 67//66
f 68//67 38//35 67//66
f 28//28 30//30 65//65 66//64
f 69//68 26//26 28//28 66//64
f 67//66 27//25 26//26 69//68
f 33//31 11//9 10//10
f 25//22 71//69 70//70
f 25//22 23//24 22//21 21//19
f 71//69 25//22 21//19
f 24//23 25//22 70//70 6//6
f 7//5 24//23 6//6
f 15//13 71//69 21//19 17//15
f 6//6 70//70 13//11 8//8
f 19//17 20//20 1//71 72//72
f 2//4 4//3 9//7 73//73
f 1//71 2//4 73//73 72//72
f 14//14 35//33 12//12
f 14//14 16//16 27//25 34//34
f 35//33 14//14 34//34
f 12//12 35//33 33//31 10//10
f 18//18 19//17 72//72 29//27
f 73//73 9//7 11//9 31//29
f 72//72 73//73 31//29 29//27
f 38//35 68//67 39//38
f 65//65 30//30 32//32 36//37
f 45//43 68//67 67//66 74//74
f 39//38 68//67 45//43 40//40
f 74//74 67//66 69//68 75//75
f 36//37 37//36 41//39 64//63
f 62//62 65//65 36//37 64//63
f 75//75 69//68 66//64 63//61
f 44//44 45//43 74//74 57//55
f 42//42 44//44 58//57 46//46
f 51//50 52//49 58//57 55//54
f 57//55 74//74 75//75 56//56
f 64//63 41//39 43//41 49//47
f 59//58 60//60 49//47 48//48
f 56//56 75//75 63//61 61//59
f 70//70 71//69 15//13 13//11
f 1//71 20//76 76//77 2//4
f 5//2 3//1 77//78 78//79 22//21 23//24 24//23 7//5
f 77//78 3//1 2//4 76//77 1//80
f 22//21 78//79 20//20
s 0
f 1//81 77//81 78//81 20//81
