# Blender 5.0.0
# www.blender.org
mtllib prep_throw_arm0012.mtl
o Mball.001
v -0.718053 4.257390 0.373906
v -0.835878 4.528275 0.674920
v -0.539895 4.662610 0.655205
v -1.022935 4.885073 0.606521
v -0.598320 5.078354 0.521695
v -1.083870 4.994497 0.475344
v -0.596798 5.148060 0.487776
v -1.427653 4.703172 0.493292
v -1.365491 4.615879 0.604756
v -1.747481 4.430805 0.495720
v -1.696847 4.364085 0.583044
v -1.811131 4.395403 0.088809
v -1.453128 4.678928 0.090992
v -1.799085 4.367807 0.051878
v -1.443125 4.657685 0.061328
v -1.649777 4.017227 -0.082214
v -1.263709 4.335601 -0.091601
v -1.483741 3.777230 0.048569
v -1.109851 4.097687 0.023553
v -0.800637 4.376576 -0.004513
v -0.932804 4.605850 -0.095173
v -0.586626 4.862166 -0.094403
v -0.600926 5.209642 0.087322
v -0.600097 5.217408 0.098425
v -0.932729 5.080174 0.069767
v -2.000355 3.582327 0.290806
v -2.123585 3.668344 0.216802
v -1.686426 3.764056 0.466266
v -1.367230 3.753300 0.411754
v -1.779976 3.843710 0.547065
v -1.479882 4.023924 0.649941
v -1.967599 4.091057 0.483219
v -1.848066 4.262260 0.483278
v -2.145634 3.989366 0.164520
v -1.899421 4.260755 0.075472
v -2.058491 4.316740 0.581837
v -2.066354 4.319834 0.576458
v -2.321801 4.092418 0.329392
v -2.396235 4.142945 0.432116
v -2.594559 4.251018 0.731822
v -2.249449 4.444810 0.869173
v -2.793052 4.351786 1.026390
v -2.466476 4.520708 1.159088
v -2.847208 4.266045 1.015255
v -2.629658 4.190496 0.725538
v -2.983078 4.428833 1.329688
v -2.716268 4.574691 1.436623
v -2.570848 4.546115 1.515256
v -2.395783 4.510988 1.196528
v -2.551805 4.337751 1.704838
v -3.025158 4.142244 1.729760
v -3.018042 4.423153 1.407262
v -2.446893 4.198803 1.643091
v -2.768332 3.827126 1.551159
v -3.060173 3.922469 1.386199
v -2.568855 3.723600 1.257607
v -2.866794 3.830753 1.087351
v -3.023325 4.369307 1.320624
v -2.437221 4.339149 1.621537
v -2.206281 4.272556 1.336879
v -2.232408 4.053223 1.365018
v -1.987037 4.198141 1.047803
v -2.029224 3.939308 1.075289
v -2.208842 4.442588 0.890047
v -1.804693 4.069280 0.749328
v -1.838109 3.808502 0.771050
v -2.430316 3.680577 0.508438
v -2.413490 4.110938 0.430422
v -2.186609 3.563362 0.653270
v -1.097628 4.946844 0.068591
v -1.094016 4.942085 0.059931
v -1.020447 4.009610 0.413183
v -1.153285 4.272073 0.680754
v -2.646541 3.757012 0.798655
v -2.377338 3.642378 0.955844
v -1.002319 4.437024 0.200979
v -0.476003 4.401882 0.322357
v -0.515661 4.576099 -0.044193
vn 0.5823 -0.1107 0.8054
vn 0.5982 0.4845 0.6383
vn -0.1951 0.4288 0.8821
vn 0.1860 -0.1572 0.9699
vn 0.4484 0.8111 0.3756
vn -0.4602 0.8016 0.3817
vn -0.3073 0.3579 0.8817
vn -0.5859 0.7216 0.3688
vn -0.4207 0.2689 0.8664
vn -0.6953 0.6076 0.3839
vn -0.5952 0.7368 -0.3206
vn -0.7118 0.6472 -0.2730
vn -0.3831 0.4731 -0.7933
vn -0.4683 0.3701 -0.8023
vn -0.0150 -0.0064 -0.9999
vn -0.1462 -0.1806 -0.9726
vn 0.4499 -0.5823 -0.6771
vn 0.2753 -0.7742 -0.5699
vn -0.0196 0.0331 -0.9993
vn 0.3273 -0.4490 -0.8314
vn 0.5548 0.2373 -0.7974
vn -0.4050 0.7394 -0.5378
vn 0.4369 0.8846 -0.1630
vn 0.4994 0.6409 -0.5829
vn -0.4520 -0.5338 -0.7147
vn 0.0278 -0.9570 -0.2886
vn 0.4172 -0.8528 0.3141
vn 0.3462 -0.8348 0.4280
vn 0.0076 -0.2927 0.9562
vn 0.6876 -0.0274 0.7256
vn -0.7205 0.3989 0.5672
vn 0.2660 0.9638 -0.0179
vn -0.5335 -0.5113 -0.6737
vn -0.5777 0.2778 -0.7676
vn -0.5074 0.4176 -0.7538
vn -0.0449 0.8700 -0.4910
vn 0.4814 0.8131 -0.3273
vn -0.4630 0.6505 -0.6021
vn -0.0237 0.9411 -0.3372
vn -0.4809 0.6746 -0.5600
vn -0.0479 0.9656 -0.2555
vn -0.4868 0.6992 -0.5236
vn -0.7610 0.1993 -0.6174
vn -0.7783 0.2219 -0.5874
vn -0.2593 0.9353 0.2406
vn -0.5594 0.7443 -0.3648
vn 0.4355 0.8924 0.1180
vn 0.1914 0.8659 0.4621
vn -0.7577 0.6223 0.1967
vn -0.5992 -0.0199 0.8003
vn 0.1781 0.3086 0.9344
vn -0.0369 -0.7988 0.6005
vn 0.5345 -0.2712 0.8005
vn -0.8636 -0.5038 -0.0201
vn -0.7321 -0.6009 -0.3209
vn 0.0668 -0.9318 0.3567
vn -0.9036 0.2691 -0.3333
vn 0.6764 0.3796 0.6312
vn 0.6750 -0.3731 0.6365
vn 0.7876 0.3689 0.4936
vn 0.6841 -0.4198 0.5965
vn 0.8299 0.3830 0.4057
vn 0.4641 0.8858 -0.0053
vn 0.7572 -0.4696 0.4540
vn 0.9240 0.3674 0.1062
vn -0.6636 -0.5993 -0.4478
vn -0.7459 0.1628 -0.6459
vn 0.0399 -0.9882 0.1476
vn -0.3836 0.4870 -0.7846
vn -0.5597 0.7637 -0.3216
vn 0.9784 -0.1753 0.1093
vn 0.5993 -0.7545 0.2675
vn 0.1664 -0.2310 0.9586
vn -0.7135 -0.5988 -0.3637
vn 0.0332 -0.9550 0.2948
vn 0.5906 0.7935 -0.1465
vn 0.7912 0.5793 0.1958
vn 0.8251 -0.3823 0.4161
vn 0.7419 -0.0033 -0.6706
vn 0.0182 -0.7692 0.6387
vn -0.4550 0.8005 0.3900
s 1
f 3//1 5//2 4//3 2//4
f 4//3 5//2 7//5 6//6
f 9//7 4//3 6//6 8//8
f 11//9 9//7 8//8 10//10
f 8//8 13//11 12//12 10//10
f 13//11 15//13 14//14 12//12
f 14//14 15//13 17//15 16//16
f 16//16 17//15 19//17 18//18
f 17//15 21//19 20//20 19//17
f 21//19 22//21 20//20
f 25//22 24//23 23//24
f 27//25 16//16 18//18 26//26
f 26//26 18//18 29//27 28//28
f 29//27 31//29 30//30 28//28
f 31//29 11//9 33//31 32//32
f 30//30 31//29 32//32
f 33//31 35//33 34//34 32//32
f 34//34 38//35 37//36 36//37
f 32//32 34//34 36//37
f 37//36 38//35 39//38
f 41//39 37//36 39//38 40//40
f 43//41 41//39 40//40 42//42
f 40//40 45//43 44//44 42//42
f 47//45 43//41 42//42 46//46
f 49//47 43//41 47//45 48//48
f 52//49 51//50 50//51 48//48
f 47//45 52//49 48//48
f 50//51 51//50 54//52 53//53
f 51//50 55//54 54//52
f 55//54 57//55 56//56 54//52
f 58//57 44//44 57//55 55//54
f 59//58 50//51 53//53
f 61//59 60//60 59//58 53//53
f 63//61 62//62 60//60 61//59
f 60//60 62//62 64//63 49//47
f 66//64 65//65 62//62 63//61
f 54//52 56//56 61//59 53//53
f 50//51 59//58 48//48
f 52//49 47//45 46//46
f 58//57 52//49 46//46
f 38//35 34//34 27//25 67//66
f 68//67 38//35 67//66
f 28//28 30//30 65//65 66//64
f 69//68 26//26 28//28 66//64
f 67//66 27//25 26//26 69//68
f 33//31 11//9 10//10
f 25//22 71//69 70//70
f 25//22 23//24 22//21 21//19
f 71//69 25//22 21//19
f 24//23 25//22 70//70 6//6
f 7//5 24//23 6//6
f 15//13 71//69 21//19 17//15
f 6//6 70//70 13//11 8//8
f 19//17 20//20 1//71 72//72
f 2//4 4//3 9//7 73//73
f 1//71 2//4 73//73 72//72
f 14//14 35//33 12//12
f 14//14 16//16 27//25 34//34
f 35//33 14//14 34//34
f 12//12 35//33 33//31 10//10
f 18//18 19//17 72//72 29//27
f 73//73 9//7 11//9 31//29
f 72//72 73//73 31//29 29//27
f 38//35 68//67 39//38
f 65//65 30//30 32//32 36//37
f 45//43 68//67 67//66 74//74
f 39//38 68//67 45//43 40//40
f 74//74 67//66 69//68 75//75
f 36//37 37//36 41//39 64//63
f 62//62 65//65 36//37 64//63
f 75//75 69//68 66//64 63//61
f 44//44 45//43 74//74 57//55
f 42//42 44//44 58//57 46//46
f 51//50 52//49 58//57 55//54
f 57//55 74//74 75//75 56//56
f 64//63 41//39 43//41 49//47
f 59//58 60//60 49//47 48//48
f 56//56 75//75 63//61 61//59
f 70//70 71//69 15//13 13//11
f 1//71 20//76 76//77 2//4
f 5//2 3//1 77//78 78//79 22//21 23//24 24//23 7//5
f 77//78 3//1 2//4 76//77 1//80
f 22//21 78//79 20//20
s 0
f 1//81 77//81 78//81 20//81
