# Blender 5.0.0
# www.blender.org
mtllib prep_throw_ball0007.mtl
o Sphere
v -2.296264 5.211903 2.134131
v -2.354907 5.015080 1.595118
v -2.391534 4.129751 1.183951
v -2.474497 3.597928 1.384570
v -2.565572 3.238562 2.232520
v -2.286040 5.102855 1.750006
v -2.170848 4.753360 1.384055
v -2.211502 4.416738 1.224629
v -2.009682 4.179547 1.259049
v -2.239018 3.916236 1.232142
v -2.278218 3.736893 1.297906
v -2.353981 3.372017 1.611541
v -1.984599 4.891881 1.600599
v -2.163052 3.563997 1.440087
v -1.885924 4.564541 1.413725
v -1.855472 3.971665 1.368258
v -1.956205 3.699947 1.431628
v -1.701547 4.350548 1.491596
v -1.743227 3.847235 1.514771
v -1.902350 3.520900 1.636449
v -2.075638 3.395617 1.673547
v -1.878041 4.946194 1.797534
v -1.620060 4.558568 1.699389
v -1.578206 4.037424 1.650176
v -1.712929 3.672563 1.683158
v -2.308138 3.244666 1.924506
v -1.712788 4.800839 1.816388
v -1.492346 4.235175 1.805858
v -1.545437 3.846150 1.825254
v -1.787256 3.453933 1.932952
v -2.064677 3.296209 1.927120
v -1.979484 5.074118 1.936109
v -1.498540 4.533317 1.992600
v -1.447042 4.044499 2.014808
v -1.536840 3.740050 2.030087
v -1.585176 4.744306 2.183048
v -1.424318 4.174308 2.220952
v -1.745739 3.464682 2.226354
v -1.999369 3.312610 2.292285
v -1.958303 5.091271 2.297715
v -1.769853 4.964184 2.157001
v -1.481027 4.466649 2.337332
v -1.534878 3.791800 2.378110
v -2.383773 3.215347 2.138342
v -1.690575 4.836263 2.413440
v -1.587793 4.613722 2.530128
v -1.514338 4.299391 2.556976
v -1.531164 4.105202 2.591195
v -1.635918 3.831335 2.641736
v -1.815015 3.500297 2.522493
v -2.176825 3.246683 2.262028
v -1.911027 5.008522 2.509932
v -1.889215 3.703992 2.837254
v -1.819076 4.811198 2.708917
v -1.738331 4.548597 2.812140
v -1.735071 4.362383 2.873531
v -1.762046 4.170084 2.909822
v -1.788163 3.973358 2.892928
v -2.107159 5.169823 2.181493
v -1.975340 4.689241 2.941451
v -1.992813 4.321982 3.069155
v -2.102983 3.753942 2.988084
v -2.083771 3.490115 2.758323
v -2.176119 3.368715 2.632684
v -2.242289 4.469840 3.137798
v -2.110791 4.045084 3.102929
v -2.187542 5.069201 2.680055
v -2.134538 4.948736 2.822014
v -2.218622 4.739199 3.030092
v -2.283877 4.279669 3.169675
v -2.346660 3.801008 3.076869
v -2.425327 3.489429 2.846233
v -2.375508 3.308053 2.569582
v -2.639976 4.414922 3.162092
v -2.486198 4.114622 3.174406
v -2.492021 3.258260 2.419327
v -2.251313 5.166789 2.513443
v -2.522427 4.946961 2.910873
v -2.569771 4.710743 3.071475
v -2.673509 3.950607 3.109374
v -2.694506 3.686060 2.973740
v -2.349470 5.218186 2.331051
v -2.804138 4.560411 3.077080
v -3.022649 4.391522 2.999940
v -2.857229 4.171387 3.096476
v -2.986490 3.882759 2.944007
v -2.732853 3.476916 2.750982
v -2.557809 5.130820 2.653534
v -2.796311 4.983828 2.790801
v -2.898911 4.755776 2.936239
v -2.976100 3.642830 2.772038
v -2.593214 5.207648 2.403308
v -3.161213 4.520282 2.852700
v -3.284333 4.214545 2.731240
v -3.131313 4.084171 2.898841
v -2.738771 3.366919 2.569521
v -3.001469 5.001185 2.573461
v -3.148907 4.777901 2.683493
v -3.249502 3.898659 2.657269
v -2.989630 3.505354 2.562342
v -3.207841 4.863088 2.417083
v -3.316398 4.604314 2.541397
v -3.367202 4.413113 2.541032
v -3.363296 3.917148 2.374051
v -2.833650 5.159577 2.338941
v -3.022918 5.055240 2.284351
v -3.417293 4.467535 2.175266
v -3.419598 4.208941 2.376213
v -3.201050 3.653836 2.434068
v -3.004125 3.427942 2.318050
v -2.729858 3.294293 2.346854
v -3.247500 4.843492 2.154299
v -3.406212 4.062469 2.049247
v -2.928768 5.089754 1.986568
v -3.355295 4.565228 1.973900
v -3.261143 3.693693 2.090757
v -2.891589 3.352163 2.049074
v -2.682891 5.202091 2.088102
v -3.171291 4.803275 1.815640
v -3.330671 4.345263 1.775456
v -3.347498 4.151073 1.809675
v -3.066497 3.479161 2.047062
v -3.029525 4.759947 1.595123
v -3.203973 4.425650 1.587183
v -3.239465 3.932910 1.695353
v -3.191720 3.676969 1.854930
v -2.690856 3.263059 2.078516
v -2.876098 4.985021 1.707877
v -3.126764 4.088081 1.493120
v -3.061139 3.720462 1.607866
v -2.491102 5.227534 2.094092
v -2.588493 5.116851 1.759318
v -2.836196 4.714489 1.420056
v -2.922311 4.441665 1.352954
v -2.943278 4.244102 1.336546
v -2.969054 3.932340 1.396077
v -2.897687 3.464246 1.725358
v -2.731147 3.568152 1.475355
v -2.253409 5.170085 1.936557
v -2.525900 4.912657 1.476445
v -2.515177 4.649456 1.289782
v -2.588278 4.301629 1.200599
v -2.619549 3.980623 1.228854
v -2.642419 3.792709 1.298538
v -2.575287 3.361145 1.673937
v -2.624257 3.292900 1.851092
vn 0.2685 0.7820 -0.5625
vn 0.0759 -0.6027 -0.7944
vn 0.1905 0.0196 -0.9815
vn -0.1461 -0.9885 -0.0384
vn 0.3541 -0.2154 -0.9101
vn 0.3067 0.8771 -0.3697
vn 0.2026 -0.7567 -0.6216
vn 0.3353 0.3699 -0.8665
vn 0.1593 -0.9168 -0.3663
vn 0.5363 0.1605 -0.8286
vn 0.4068 0.8001 -0.4408
vn 0.3928 -0.6387 -0.6616
vn 0.2500 0.9568 -0.1483
vn 0.5932 -0.5030 -0.6285
vn 0.6040 0.6220 -0.4983
vn 0.7191 -0.0670 -0.6916
vn 0.8480 0.1695 -0.5022
vn 0.7960 -0.3288 -0.5082
vn 0.6315 -0.6668 -0.3957
vn 0.4914 -0.7889 -0.3689
vn 0.7976 -0.5212 -0.3035
vn 0.6287 0.7439 -0.2265
vn 0.8312 0.4652 -0.3044
vn 0.2073 -0.9754 -0.0748
vn 0.9322 -0.1429 -0.3325
vn 0.9832 0.1111 -0.1448
vn 0.9395 -0.2865 -0.1878
vn 0.7639 -0.6398 -0.0846
vn 0.7644 0.6219 -0.1702
vn 0.5080 0.8584 -0.0705
vn 0.9698 0.0994 0.2228
vn 0.9619 -0.0356 0.2710
vn 0.7570 -0.6038 0.2497
vn 0.7576 0.6467 0.0884
vn 0.8489 0.4926 0.1917
vn -0.0569 -0.9271 -0.3704
vn 0.6298 0.7608 0.1564
vn 0.4135 -0.8392 0.3531
vn 0.0481 -0.9845 0.1689
vn -0.0601 -0.9899 0.1280
vn 0.8853 -0.2686 0.3796
vn 0.1868 -0.9332 0.3069
vn 0.6670 0.6598 0.3461
vn 0.3575 0.9195 0.1636
vn 0.3987 0.8497 0.3451
vn 0.4882 0.5939 0.6395
vn 0.6178 0.4448 0.6484
vn 0.3821 0.5694 0.7278
vn 0.3134 0.0899 0.9454
vn 0.2110 0.9772 0.0258
vn 0.2608 -0.3482 0.9004
vn 0.1554 -0.1626 0.9744
vn -0.0457 -0.5868 0.8084
vn -0.1850 -0.7004 0.6894
vn -0.0510 -0.3172 0.9470
vn 0.1120 0.8756 0.4699
vn -0.1158 -0.4459 0.8876
vn -0.2153 -0.0703 0.9740
vn -0.1884 0.3283 0.9256
vn -0.2300 -0.9279 0.2934
vn -0.3932 0.0909 0.9149
vn -0.2009 -0.9628 0.1806
vn 0.0336 0.9665 0.2543
vn -0.3998 -0.2817 0.8722
vn -0.1510 0.7944 0.5883
vn -0.5691 -0.0683 0.8194
vn -0.5313 -0.1973 0.8239
vn -0.4547 -0.7311 0.5087
vn -0.5305 0.3111 0.7885
vn 0.0819 0.9966 -0.0097
vn -0.2669 0.9100 0.3172
vn -0.6968 -0.3622 0.6191
vn -0.7994 -0.2191 0.5594
vn -0.7035 -0.5498 0.4503
vn -0.4685 -0.8338 0.2920
vn -0.7920 0.3612 0.4923
vn -0.8467 0.2241 0.4826
vn -0.9331 -0.0481 0.3563
vn -0.1321 0.9910 0.0201
vn -0.5160 0.8343 0.1943
vn -0.6563 -0.7072 0.2630
vn -0.6905 0.6306 0.3544
vn -0.7011 0.7111 0.0528
vn -0.9099 0.4063 -0.0830
vn -0.2754 -0.9587 0.0716
vn -0.9993 -0.0170 -0.0333
vn -0.9808 -0.1896 0.0448
vn -0.3877 0.9185 -0.0773
vn -0.9281 -0.3699 -0.0429
vn -0.4718 0.8805 -0.0471
vn -0.8570 -0.5073 0.0911
vn -0.8948 -0.3786 -0.2366
vn -0.6686 0.7058 -0.2343
vn -0.9637 0.1112 -0.2428
vn -0.9042 -0.2778 -0.3244
vn -0.8267 0.3419 -0.4469
vn -0.5791 0.6447 -0.4990
vn -0.6428 -0.7029 -0.3047
vn -0.1176 0.9526 -0.2807
vn -0.2832 0.9055 -0.3161
vn -0.7595 -0.4403 -0.4789
vn -0.6383 0.1307 -0.7586
vn -0.7040 -0.3169 -0.6355
vn -0.6451 -0.6178 -0.4497
vn -0.4392 0.6234 -0.6469
vn -0.4079 -0.8651 -0.2919
vn -0.5933 -0.1034 -0.7983
vn -0.5096 -0.4873 -0.7091
vn -0.2410 0.7608 -0.6025
vn -0.2118 0.5596 -0.8012
vn -0.3331 -0.7712 -0.5425
vn 0.1157 0.9765 -0.1816
vn -0.2219 -0.5476 -0.8068
vn 0.1091 0.6694 -0.7349
vn -0.1469 -0.7390 -0.6575
vn 0.1226 0.4127 -0.9026
vn -0.0326 -0.2421 -0.9697
vn 0.2020 -0.0761 -0.9764
vn 0.2451 0.7072 -0.6632
vn 0.0525 -0.6937 -0.7183
vn -0.1148 -0.9790 -0.1682
vn 0.3420 -0.3552 -0.8700
vn 0.6311 0.5194 -0.5762
vn 0.3508 0.8207 -0.4511
vn 0.2866 -0.4874 -0.8248
vn 0.4340 0.5418 -0.7198
vn 0.4122 0.2225 -0.8835
vn 0.3615 -0.6867 -0.6307
vn 0.1944 -0.8983 -0.3940
vn 0.5953 0.0196 -0.8033
vn 0.5516 -0.3779 -0.7436
vn 0.7221 -0.1450 -0.6764
vn 0.3242 0.9262 -0.1926
vn 0.5787 -0.5325 -0.6177
vn 0.4995 -0.8651 -0.0454
vn 0.6862 0.3616 -0.6311
vn 0.4702 -0.8146 -0.3397
vn 0.8408 0.0586 -0.5382
vn 0.7898 -0.3492 -0.5043
vn 0.9320 -0.1446 -0.3324
vn 0.7677 -0.5778 -0.2773
vn 0.6571 0.7167 -0.2336
vn 0.9039 0.2404 -0.3539
vn 0.1887 -0.9797 -0.0676
vn 0.9620 -0.2692 0.0453
vn 0.3513 -0.9360 -0.0208
vn 0.9861 0.0681 -0.1516
vn 0.8256 0.5252 -0.2063
vn 0.5208 0.8507 -0.0709
vn 0.8206 -0.5659 0.0795
vn 0.9318 0.3621 0.0227
vn 0.9807 0.1951 -0.0121
vn 0.8290 0.2178 0.5150
vn 0.8890 0.4263 0.1671
vn 0.9540 -0.1761 0.2424
vn 0.5434 -0.8090 0.2244
vn 0.7546 -0.5417 0.3704
vn 0.6515 0.7399 0.1677
vn 0.2871 -0.9100 0.2991
vn 0.9152 0.2414 0.3226
vn 0.8162 0.0129 0.5777
vn 0.0894 -0.9641 0.2501
vn 0.7861 -0.1762 0.5925
vn 0.5148 -0.1264 0.8479
vn 0.6774 -0.3838 0.6276
vn 0.6667 -0.5442 0.5093
vn 0.5072 -0.6641 0.5493
vn 0.7522 0.5431 0.3732
vn 0.4237 -0.7868 0.4488
vn 0.7525 0.4281 0.5005
vn 0.4104 0.8768 0.2505
vn 0.5965 0.0673 0.7998
vn 0.4751 -0.3275 0.8167
vn 0.4768 0.7349 0.4823
vn 0.5664 0.2534 0.7842
vn 0.3652 -0.5961 0.7150
vn 0.1796 -0.6258 0.7590
vn 0.3962 0.2958 0.8692
vn 0.1616 -0.7664 0.6218
vn 0.0758 -0.8276 0.5562
vn -0.1325 -0.8421 0.5229
vn 0.3296 -0.0253 0.9438
vn 0.2679 0.9553 0.1251
vn 0.1391 -0.2371 0.9615
vn 0.1647 0.6609 0.7321
vn 0.0530 0.5542 0.8307
vn 0.0468 0.3238 0.9450
vn 0.1116 0.8021 0.5866
vn -0.1459 -0.8998 0.4113
vn 0.0386 0.1570 0.9868
vn -0.0071 0.0373 0.9993
vn -0.2465 0.5876 0.7707
vn -0.2227 -0.1288 0.9663
vn -0.3795 -0.6410 0.6672
vn -0.5365 0.6208 0.5716
vn -0.2803 0.4682 0.8380
vn -0.3934 0.1049 0.9134
vn 0.0206 0.9566 0.2908
vn -0.3576 -0.4034 0.8423
vn -0.4353 -0.5369 0.7227
vn -0.4351 -0.7636 0.4771
vn -0.5289 0.3265 0.7833
vn -0.7238 0.0233 0.6896
vn -0.6133 0.4539 0.6464
vn -0.3213 0.8733 0.3662
vn -0.0267 0.9981 0.0554
vn -0.9173 -0.1819 0.3543
vn -0.6699 -0.4515 0.5894
vn -0.6790 -0.5931 0.4326
vn -0.4449 -0.8566 0.2616
vn -0.8474 0.1375 0.5128
vn -0.8001 0.4970 0.3359
vn -0.9030 0.4184 0.0978
vn -0.2066 0.9776 0.0415
vn -0.8397 -0.4472 0.3082
vn -0.6402 0.7452 0.1868
vn -0.4297 -0.9011 0.0583
vn -0.9528 0.2528 0.1681
vn -0.9799 0.1278 0.1532
vn -0.7379 -0.6732 0.0473
vn -0.6449 0.7554 -0.1163
vn -0.9737 0.0436 -0.2236
vn -0.5873 -0.8092 -0.0178
vn -0.8392 0.4848 -0.2464
vn -0.8229 -0.0296 -0.5674
vn -0.8456 0.3023 -0.4400
vn -0.8907 -0.3483 -0.2922
vn -0.5816 0.7192 -0.3802
vn -0.7467 -0.6420 -0.1743
vn -0.3265 0.8628 -0.3860
vn -0.5653 -0.7827 -0.2604
vn -0.7348 0.3965 -0.5503
vn -0.5999 0.3466 -0.7211
vn -0.8254 -0.1196 -0.5517
vn -0.6733 0.0515 -0.7376
vn -0.7013 -0.3280 -0.6330
vn -0.3817 -0.0932 -0.9196
vn -0.5211 -0.6074 -0.5996
vn -0.3066 0.6720 -0.6741
vn -0.3673 -0.9022 -0.2260
vn 0.0235 0.9443 -0.3281
vn -0.2956 0.3039 -0.9057
vn -0.3826 -0.2799 -0.8805
vn 0.0246 0.8650 -0.5011
vn -0.4265 -0.4495 -0.7849
vn -0.0681 0.8017 -0.5938
vn -0.3365 -0.8438 -0.4181
vn -0.0512 -0.3379 -0.9398
vn -0.3715 0.1159 -0.9211
vn -0.1468 -0.0725 -0.9865
vn -0.0711 -0.4536 -0.8884
vn 0.0481 0.5791 -0.8138
vn -0.1484 -0.7405 -0.6554
vn -0.0151 0.2513 -0.9678
vn 0.0251 0.1248 -0.9919
vt 0.781230 0.812500
vt 0.762032 0.875000
vt 0.685473 0.777944
vt 0.734697 0.375000
vt 0.703125 0.312500
vt 0.764235 0.312500
vt 0.741874 0.599249
vt 0.704616 0.531266
vt 0.763980 0.500000
vt 0.734375 0.000000
vt 0.879629 0.062500
vt 0.593677 0.062500
vt 0.670132 0.472235
vt 0.734536 0.437500
vt 0.734224 0.937500
vt 0.605595 0.875000
vt 0.658359 0.250000
vt 0.719918 0.218999
vt 0.734375 0.717281
vt 0.678319 0.660608
vt 0.606077 0.187500
vt 0.641330 0.592355
vt 0.623673 0.812500
vt 0.673680 0.375000
vt 0.639230 0.312500
vt 0.640625 1.000000
vt 0.479138 0.937500
vt 0.639064 0.437500
vt 0.612180 0.375000
vt 0.595563 0.750000
vt 0.606567 0.500000
vt 0.603325 0.667055
vt 0.578286 0.562500
vt 0.578286 0.437500
vt 0.577540 0.283466
vt 0.543444 0.396147
vt 0.512752 0.812500
vt 0.546915 0.655822
vt 0.503540 0.125000
vt 0.660224 0.125000
vt 0.544067 0.500000
vt 0.509405 0.537235
vt 0.515588 0.281661
vt 0.510998 0.724803
vt 0.449506 0.875000
vt 0.487180 0.625000
vt 0.453286 0.562500
vt 0.450317 0.500000
vt 0.485851 0.406417
vt 0.453088 0.281661
vt 0.455926 0.750000
vt 0.445771 0.665313
vt 0.799126 0.125000
vt 0.779637 0.187500
vt 0.402284 0.812500
vt 0.497588 0.187500
vt 0.386121 0.187500
vt 0.328120 0.062500
vt 0.453125 0.000000
vt 0.437500 0.406180
vt 0.347717 0.125000
vt 0.390588 0.718339
vt 0.293360 0.875000
vt 0.308534 0.812500
vt 0.316528 0.750000
vt 0.343750 0.656371
vt 0.393429 0.625000
vt 0.296915 0.655822
vt 0.343750 0.531273
vt 0.297036 0.562500
vt 0.294067 0.500000
vt 0.328125 1.000000
vt 0.230145 0.937500
vt 0.328286 0.437500
vt 0.296914 0.344178
vt 0.343750 0.343629
vt 0.265786 0.437500
vt 0.234338 0.281661
vt 0.296902 0.219059
vt 0.214815 0.187500
vt 0.237180 0.375000
vt 0.199790 0.812500
vt 0.237635 0.520573
vt 0.203286 0.437500
vt 0.237180 0.625000
vt 0.203286 0.562500
vt 0.190964 0.125000
vt 0.113605 0.062500
vt 0.169067 0.500000
vt 0.203125 0.000000
vt 0.137012 0.875000
vt 0.176363 0.337227
vt 0.171838 0.718339
vt 0.234338 0.718339
vt 0.148421 0.399333
vt 0.160278 0.250000
vt 0.121065 0.187500
vt 0.174680 0.625000
vt 0.134405 0.537235
vt 0.140625 1.000000
vt 0.030235 0.937500
vt 0.075252 0.812500
vt 0.102021 0.334687
vt 0.109536 0.437500
vt 0.066529 0.250000
vt 0.055088 0.153620
vt 0.112179 0.625000
vt 0.078286 0.562500
vt 0.075317 0.500000
vt 0.047036 0.437500
vt 0.032456 0.875000
vt 0.048167 0.750000
vt 0.108913 0.719958
vt 0.062500 0.658651
vt 0.015664 0.655822
vt 0.018885 0.520574
vt 0.000000 0.562500
vt 0.015625 0.000000
vt 0.000000 0.062500
vt 0.000000 0.399333
vt 0.046914 0.344178
vt 0.000000 0.784407
vt 0.000000 0.273040
vt 0.991904 0.273040
vt 0.992171 0.399333
vt 0.937867 0.282145
vt 1.000000 0.655822
vt 0.975379 0.784407
vt 0.953164 0.655822
vt 1.000000 0.500000
vt 0.984536 0.562500
vt 0.950317 0.500000
vt 0.953286 0.437500
vt 0.924679 0.375000
vt 0.915655 0.537235
vt 0.910279 0.750000
vt 0.906250 0.656371
vt 0.965747 0.187500
vt 0.868449 0.212346
vt 0.978825 0.875000
vt 0.921769 0.937500
vt 0.872374 0.843190
vt 0.887823 0.312500
vt 0.859536 0.562500
vt 0.856567 0.500000
vt 0.890786 0.437500
vt 0.855944 0.396148
vt 0.859414 0.655822
vt 0.939862 0.125000
vt 0.812867 0.282145
vt 0.814726 0.750000
vt 0.796945 0.653777
vt 0.828125 1.000000
vt 0.798190 0.375000
vt 0.797036 0.437500
vt 0.390786 0.562500
vt 0.387817 0.500000
vt 0.390786 0.437500
vt 0.390665 0.344178
vt 0.378980 0.250000
vt 0.000000 0.125000
vt 0.000000 0.187500
vt 0.801816 0.543181
s 0
f 2/1/1 6/2/1 13/3/1
f 11/4/2 14/5/2 4/6/2
f 8/7/3 9/8/3 3/9/3
f 5/10/4 127/11/4 44/12/4
f 9/8/5 16/13/5 10/14/5
f 139/15/6 32/16/6 6/2/6
f 14/5/7 21/17/7 12/18/7
f 7/19/8 15/20/8 8/7/8
f 12/18/9 21/17/9 31/21/9
f 15/20/10 18/22/10 9/8/10
f 32/16/11 22/23/11 13/3/11
f 14/5/12 17/24/12 20/25/12
f 139/15/13 1/26/13 59/27/13
f 19/28/14 25/29/14 17/24/14
f 22/23/15 27/30/15 13/3/15
f 16/13/16 18/22/16 24/31/16
f 18/22/17 23/32/17 28/33/17
f 24/31/18 29/34/18 19/28/18
f 20/25/19 25/29/19 30/35/19
f 20/25/20 30/35/20 21/17/20
f 29/34/21 35/36/21 25/29/21
f 32/16/22 41/37/22 22/23/22
f 23/32/23 27/30/23 33/38/23
f 31/21/24 51/39/24 26/40/24
f 24/31/25 28/33/25 34/41/25
f 28/33/26 33/38/26 37/42/26
f 34/41/27 35/36/27 29/34/27
f 30/35/28 35/36/28 38/43/28
f 41/37/29 36/44/29 27/30/29
f 32/16/30 59/27/30 40/45/30
f 37/42/31 42/46/31 47/47/31
f 37/42/32 47/47/32 48/48/32
f 38/43/33 43/49/33 50/50/33
f 41/37/34 45/51/34 36/44/34
f 36/44/35 45/51/35 46/52/35
f 26/40/36 146/53/36 145/54/36 12/18/36
f 41/37/37 40/45/37 52/55/37
f 39/56/38 50/50/38 64/57/38
f 44/12/39 51/39/39 76/58/39
f 5/59/40 44/12/40 76/58/40
f 48/48/41 49/60/41 43/49/41
f 64/57/42 73/61/42 51/39/42
f 52/55/43 54/62/43 45/51/43
f 59/27/44 77/63/44 40/45/44
f 52/55/45 77/63/45 67/64/45
f 54/62/46 68/65/46 60/66/46
f 54/62/47 60/66/47 55/67/47
f 60/66/48 68/65/48 69/68/48
f 61/69/49 65/70/49 70/71/49
f 59/27/50 1/72/50 82/73/50
f 66/74/51 71/75/51 62/76/51
f 70/71/52 75/77/52 66/74/52
f 71/75/53 81/78/53 72/79/53
f 72/79/54 81/78/54 87/80/54
f 75/77/55 80/81/55 71/75/55
f 67/64/56 77/63/56 88/82/56
f 71/75/57 80/81/57 81/78/57
f 74/83/58 85/84/58 75/77/58
f 74/83/59 79/85/59 83/86/59
f 96/87/60 111/88/60 76/58/60
f 74/83/61 83/86/61 84/89/61
f 5/90/62 76/58/62 111/88/62
f 77/63/63 82/73/63 92/91/63
f 85/84/64 86/92/64 80/81/64
f 88/82/65 89/93/65 78/94/65
f 84/89/66 95/95/66 85/84/66
f 85/84/67 95/95/67 86/92/67
f 87/80/68 91/96/68 100/97/68
f 83/86/69 90/98/69 93/99/69
f 82/73/70 1/100/70 131/101/70
f 92/91/71 105/102/71 88/82/71
f 86/92/72 95/95/72 99/103/72
f 94/104/73 99/103/73 95/95/73
f 99/103/74 109/105/74 91/96/74
f 100/97/75 110/106/75 96/87/75
f 93/99/76 98/107/76 102/108/76
f 93/99/77 102/108/77 103/109/77
f 103/109/78 108/110/78 94/104/78
f 131/101/79 118/111/79 92/91/79
f 105/102/80 106/112/80 97/113/80
f 100/97/81 109/105/81 110/106/81
f 97/113/82 101/114/82 98/107/82
f 101/114/83 106/112/83 112/115/83
f 107/116/84 112/115/84 115/117/84
f 5/118/85 111/88/85 127/119/85
f 107/116/86 113/120/86 108/110/86
f 108/110/87 113/120/87 104/121/87
f 105/102/88 118/111/88 114/122/88
f 104/121/89 113/120/89 116/123/89
f 105/102/90 114/122/90 106/112/90
f 104/121/91 116/123/91 109/105/91
f 116/124/92 113/125/92 126/126/92
f 112/127/93 114/128/93 119/129/93
f 107/130/94 115/131/94 120/132/94
f 121/133/95 125/134/95 113/125/95
f 115/131/96 119/129/96 124/135/96
f 119/129/97 128/136/97 123/137/97
f 122/138/98 126/126/98 137/139/98
f 118/140/99 131/141/99 132/142/99
f 118/140/100 132/142/100 114/128/100
f 126/126/101 125/134/101 130/143/101
f 124/135/102 134/144/102 135/145/102
f 129/146/103 136/147/103 125/134/103
f 130/143/104 137/139/104 126/126/104
f 123/137/105 128/136/105 133/148/105
f 137/139/106 146/53/106 117/149/106
f 135/145/107 136/147/107 129/146/107
f 130/143/108 136/147/108 138/150/108
f 132/142/109 140/151/109 128/136/109
f 133/148/110 140/151/110 141/152/110
f 137/139/111 138/150/111 145/54/111
f 131/141/112 1/153/112 139/15/112
f 138/150/113 144/154/113 4/6/113
f 140/151/114 2/1/114 7/19/114
f 4/6/115 12/18/115 138/150/115
f 141/152/116 7/19/116 8/7/116
f 3/9/117 10/14/117 143/155/117
f 3/9/118 9/8/118 10/14/118
f 7/19/119 2/1/119 13/3/119
f 4/6/120 14/5/120 12/18/120
f 44/12/121 127/11/121 146/53/121 26/40/121
f 17/24/122 11/4/122 10/14/122 16/13/122
f 23/32/123 15/20/123 13/3/123 27/30/123
f 6/2/124 32/16/124 13/3/124
f 11/4/125 17/24/125 14/5/125
f 7/19/126 13/3/126 15/20/126
f 9/8/127 8/7/127 15/20/127
f 21/17/128 14/5/128 20/25/128
f 12/18/129 31/21/129 26/40/129
f 9/8/130 18/22/130 16/13/130
f 16/13/131 19/28/131 17/24/131
f 16/13/132 24/31/132 19/28/132
f 139/15/133 59/27/133 32/16/133
f 20/25/134 17/24/134 25/29/134
f 38/43/135 39/56/135 31/21/135 30/35/135
f 15/20/136 23/32/136 18/22/136
f 21/17/137 30/35/137 31/21/137
f 24/31/138 18/22/138 28/33/138
f 19/28/139 29/34/139 25/29/139
f 24/31/140 34/41/140 29/34/140
f 30/35/141 25/29/141 35/36/141
f 22/23/142 41/37/142 27/30/142
f 28/33/143 23/32/143 33/38/143
f 44/12/144 26/40/144 51/39/144
f 43/49/145 35/36/145 34/41/145 37/42/145
f 51/39/146 31/21/146 39/56/146
f 34/41/147 28/33/147 37/42/147
f 33/38/148 27/30/148 36/44/148
f 32/16/149 40/45/149 41/37/149
f 38/43/150 35/36/150 43/49/150
f 33/38/151 36/44/151 42/46/151
f 37/42/152 33/38/152 42/46/152
f 55/67/153 56/156/153 47/47/153 46/52/153
f 36/44/154 46/52/154 42/46/154
f 37/42/155 48/48/155 43/49/155
f 39/56/156 38/43/156 50/50/156
f 50/50/157 43/49/157 49/60/157
f 41/37/158 52/55/158 45/51/158
f 39/56/159 64/57/159 51/39/159
f 47/47/160 42/46/160 46/52/160
f 56/156/161 57/157/161 48/48/161 47/47/161
f 51/39/162 73/61/162 76/58/162
f 58/158/163 49/60/163 48/48/163 57/157/163
f 66/74/164 58/158/164 57/157/164 61/69/164
f 49/60/165 58/158/165 53/159/165
f 50/50/166 49/60/166 53/159/166
f 50/50/167 53/159/167 63/160/167
f 46/52/168 45/51/168 54/62/168
f 64/57/169 50/50/169 63/160/169
f 46/52/170 54/62/170 55/67/170
f 40/45/171 77/63/171 52/55/171
f 57/157/172 56/156/172 61/69/172
f 62/76/173 53/159/173 58/158/173 66/74/173
f 68/65/174 54/62/174 52/55/174 67/64/174
f 60/66/175 61/69/175 56/156/175 55/67/175
f 53/159/176 62/76/176 63/160/176
f 72/79/177 63/160/177 62/76/177 71/75/177
f 69/68/178 65/70/178 61/69/178 60/66/178
f 64/57/179 63/160/179 72/79/179
f 64/57/180 72/79/180 73/61/180
f 96/87/181 73/61/181 72/79/181 87/80/181
f 61/69/182 70/71/182 66/74/182
f 59/27/183 82/73/183 77/63/183
f 66/74/184 75/77/184 71/75/184
f 69/68/185 68/65/185 78/94/185
f 69/68/186 78/94/186 79/85/186
f 79/85/187 74/83/187 65/70/187 69/68/187
f 78/94/188 68/65/188 67/64/188 88/82/188
f 76/58/189 73/61/189 96/87/189
f 70/71/190 65/70/190 74/83/190
f 70/71/191 74/83/191 75/77/191
f 90/98/192 79/85/192 78/94/192 89/93/192
f 75/77/193 85/84/193 80/81/193
f 87/80/194 81/78/194 91/96/194
f 98/107/195 90/98/195 89/93/195 97/113/195
f 83/86/196 79/85/196 90/98/196
f 74/83/197 84/89/197 85/84/197
f 77/63/198 92/91/198 88/82/198
f 81/78/199 80/81/199 86/92/199
f 81/78/200 86/92/200 91/96/200
f 87/80/201 100/97/201 96/87/201
f 84/89/202 83/86/202 93/99/202
f 94/104/203 95/95/203 84/89/203 93/99/203
f 93/99/204 90/98/204 98/107/204
f 97/113/205 89/93/205 88/82/205 105/102/205
f 82/73/206 131/101/206 92/91/206
f 104/121/207 99/103/207 94/104/207 108/110/207
f 86/92/208 99/103/208 91/96/208
f 100/97/209 91/96/209 109/105/209
f 96/87/210 110/106/210 111/88/210
f 93/99/211 103/109/211 94/104/211
f 102/108/212 98/107/212 101/114/212
f 112/115/213 107/116/213 102/108/213 101/114/213
f 92/91/214 118/111/214 105/102/214
f 99/103/215 104/121/215 109/105/215
f 97/113/216 106/112/216 101/114/216
f 127/119/217 111/88/217 110/106/217 117/161/217
f 103/109/218 102/108/218 107/116/218
f 103/109/219 107/116/219 108/110/219
f 116/123/220 122/162/220 110/106/220 109/105/220
f 112/115/221 106/112/221 114/122/221
f 121/133/222 113/125/222 107/130/222 120/132/222
f 110/106/223 122/162/223 117/161/223
f 115/131/224 112/127/224 119/129/224
f 129/146/225 121/133/225 120/132/225 124/135/225
f 120/132/226 115/131/226 124/135/226
f 126/126/227 113/125/227 125/134/227
f 119/129/228 114/128/228 128/136/228
f 122/138/229 116/124/229 126/126/229
f 114/128/230 132/142/230 128/136/230
f 117/149/231 122/138/231 137/139/231
f 124/135/232 119/129/232 123/137/232
f 133/148/233 134/144/233 124/135/233 123/137/233
f 121/133/234 129/146/234 125/134/234
f 124/135/235 135/145/235 129/146/235
f 130/143/236 125/134/236 136/147/236
f 143/155/237 136/147/237 135/145/237 142/163/237
f 130/143/238 138/150/238 137/139/238
f 133/148/239 128/136/239 140/151/239
f 117/149/240 146/53/240 127/11/240
f 139/15/241 6/2/241 132/142/241 131/141/241
f 141/152/242 142/163/242 134/144/242 133/148/242
f 136/147/243 143/155/243 144/154/243
f 132/142/244 6/2/244 2/1/244
f 138/150/245 136/147/245 144/154/245
f 132/142/246 2/1/246 140/151/246
f 137/139/247 145/54/247 146/53/247
f 11/4/248 144/154/248 143/155/248 10/14/248
f 135/145/249 134/144/249 142/163/249
f 142/163/250 3/9/250 143/155/250
f 144/154/251 11/4/251 4/6/251
f 141/152/252 140/151/252 7/19/252
f 145/54/253 138/150/253 12/18/253
f 142/163/254 141/152/254 8/7/254
f 3/9/255 142/163/255 8/7/255
