# Blender 5.0.0
# www.blender.org
mtllib prep_throw_ball0014.mtl
o Sphere
v -2.385406 6.029604 1.470076
v -2.379798 5.682534 0.977572
v -2.568201 4.730572 0.718879
v -2.833021 4.325345 0.973724
v -3.195378 4.299359 1.812617
v -2.324302 5.796796 1.125756
v -2.234453 5.316677 0.859630
v -2.330409 4.961165 0.752407
v -2.213713 4.695218 0.866981
v -2.494040 4.505079 0.831832
v -2.593431 4.370936 0.913490
v -2.829956 4.156995 1.250776
v -2.068492 5.465975 1.084306
v -2.562988 4.225142 1.100771
v -2.025923 5.070957 0.980585
v -2.149342 4.494888 1.037198
v -2.330885 4.291100 1.117398
v -1.928398 4.846021 1.128789
v -2.109344 4.396513 1.220337
v -2.372659 4.177660 1.351332
v -2.576555 4.121822 1.367600
v -1.995787 5.552567 1.285913
v -1.839548 5.086456 1.311024
v -1.931982 4.572775 1.355383
v -2.164229 4.281567 1.413858
v -2.888010 4.130096 1.577217
v -1.884952 5.377209 1.363239
v -1.830819 4.785007 1.490861
v -1.990497 4.443907 1.558389
v -2.346074 4.182142 1.668105
v -2.647028 4.110870 1.625686
v -2.085045 5.746435 1.374538
v -1.794899 5.126904 1.619571
v -1.884624 4.664507 1.728626
v -2.054693 4.411096 1.770853
v -1.858669 5.411351 1.747581
v -1.871637 4.847967 1.908504
v -2.366415 4.278578 1.953425
v -2.658780 4.229895 1.983346
v -2.137071 5.877318 1.718910
v -1.965832 5.659170 1.647453
v -1.869615 5.175083 1.960287
v -2.112381 4.575049 2.092677
v -3.011903 4.195395 1.767466
v -1.980842 5.603497 1.927892
v -1.970101 5.406398 2.096065
v -1.992762 5.101969 2.187049
v -2.068618 4.937193 2.246137
v -2.251791 4.728242 2.313634
v -2.484089 4.430095 2.212835
v -2.836155 4.208016 1.925619
v -2.160326 5.857907 1.943296
v -2.564520 4.745805 2.462444
v -2.170245 5.714831 2.183028
v -2.188159 5.482077 2.339837
v -2.248822 5.328191 2.427861
v -2.334084 5.168709 2.486360
v -2.408500 4.987091 2.495390
v -2.230183 5.953316 1.563508
v -2.398668 5.722631 2.387589
v -2.542045 5.428032 2.562160
v -2.782568 4.902552 2.549942
v -2.787878 4.574607 2.378018
v -2.880661 4.445361 2.257580
v -2.749405 5.658524 2.548575
v -2.734854 5.214355 2.611322
v -2.438164 6.048653 2.033445
v -2.451478 5.969025 2.198494
v -2.631138 5.866863 2.409654
v -2.846810 5.503639 2.599318
v -3.016225 5.044247 2.572509
v -3.125816 4.698908 2.385500
v -3.070149 4.423549 2.163060
v -3.141109 5.726749 2.491860
v -3.081819 5.408061 2.584724
v -3.160800 4.359552 2.002728
v -2.435928 6.101741 1.846249
v -2.833208 6.105593 2.196755
v -2.975762 5.952430 2.375306
v -3.287765 5.285935 2.507254
v -3.350754 5.000022 2.415628
v -2.475066 6.116145 1.643713
v -3.236893 5.879821 2.352118
v -3.470759 5.757837 2.257018
v -3.396571 5.538720 2.419647
v -3.563720 5.255038 2.291811
v -3.396434 4.741468 2.228982
v -2.761754 6.200798 1.916448
v -3.053689 6.176451 2.016471
v -3.242444 6.041289 2.167114
v -3.582989 4.971138 2.168898
v -2.720979 6.198669 1.659641
v -3.534018 5.867368 2.066668
v -3.706650 5.576389 1.972235
v -3.634630 5.468113 2.185326
v -3.393541 4.580011 2.073101
v -3.194690 6.177401 1.762418
v -3.416554 6.047397 1.868835
v -3.744499 5.247630 1.959433
v -3.588722 4.776775 1.988901
v -3.392065 6.054232 1.590170
v -3.590286 5.885056 1.724304
v -3.689761 5.721015 1.742635
v -3.785885 5.202059 1.663122
v -2.945125 6.199650 1.552835
v -3.138853 6.137159 1.475465
v -3.644373 5.663515 1.376687
v -3.759471 5.490385 1.606944
v -3.718697 4.931402 1.797235
v -3.571676 4.627080 1.766524
v -3.357894 4.435452 1.875647
v -3.378875 5.959264 1.335638
v -3.717697 5.240925 1.323307
v -2.978487 6.043469 1.209035
v -3.517236 5.669900 1.184502
v -3.691372 4.870633 1.452608
v -3.430265 4.435117 1.548732
v -2.739614 6.113259 1.342168
v -3.246982 5.787312 1.038233
v -3.512166 5.391770 1.036556
v -3.588022 5.226995 1.095644
v -3.558685 4.601702 1.488083
v -3.079668 5.633595 0.867728
v -3.332054 5.368303 0.873848
v -3.522316 4.955314 1.045585
v -3.581172 4.756828 1.247373
v -3.273196 4.305777 1.635149
v -2.898847 5.838035 0.973287
v -3.331961 5.000772 0.854832
v -3.395047 4.678257 1.035647
v -2.554739 6.085304 1.386448
v -2.605077 5.897573 1.065208
v -2.874368 5.478653 0.752039
v -3.014955 5.226149 0.712132
v -3.084891 5.042473 0.722897
v -3.206489 4.779122 0.822384
v -3.336958 4.433079 1.223332
v -3.100153 4.399750 1.007343
v -2.314960 5.912637 1.299089
v -2.542373 5.595301 0.843289
v -2.564560 5.284716 0.710184
v -2.708746 4.951315 0.664014
v -2.831380 4.670439 0.734119
v -2.918677 4.525051 0.824458
v -3.052908 4.229636 1.262404
v -3.154729 4.238952 1.429947
vn 0.5794 0.5260 -0.6226
vn -0.0041 -0.7894 -0.6139
vn 0.3548 -0.2343 -0.9051
vn -0.4545 -0.8748 0.1676
vn 0.4326 -0.4990 -0.7509
vn 0.6142 0.6404 -0.4611
vn 0.0362 -0.9325 -0.3593
vn 0.5764 0.0894 -0.8122
vn -0.1051 -0.9919 -0.0708
vn 0.7097 -0.1463 -0.6891
vn 0.6920 0.5384 -0.4808
vn 0.2780 -0.8829 -0.3785
vn 0.5596 0.7732 -0.2984
vn 0.5242 -0.7892 -0.3201
vn 0.8332 0.3313 -0.4428
vn 0.8028 -0.3868 -0.4537
vn 0.9500 -0.1392 -0.2795
vn 0.7587 -0.6264 -0.1789
vn 0.4521 -0.8916 -0.0253
vn 0.2635 -0.9646 -0.0085
vn 0.6454 -0.7599 0.0777
vn 0.8465 0.4875 -0.2139
vn 0.9697 0.1809 -0.1640
vn -0.1240 -0.9643 0.2341
vn 0.9052 -0.4248 -0.0105
vn 0.9819 -0.1477 0.1182
vn 0.8312 -0.5296 0.1694
vn 0.5188 -0.7980 0.3067
vn 0.9271 0.3623 -0.0956
vn 0.7503 0.6477 -0.1328
vn 0.8864 -0.0777 0.4563
vn 0.8255 -0.1894 0.5317
vn 0.4516 -0.6659 0.5938
vn 0.8885 0.4386 0.1346
vn 0.9072 0.3006 0.2944
vn -0.3115 -0.9407 -0.1343
vn 0.8003 0.5845 0.1335
vn 0.0424 -0.7687 0.6383
vn -0.3050 -0.8607 0.4076
vn -0.3982 -0.8512 0.3419
vn 0.6556 -0.3604 0.6635
vn -0.1836 -0.8111 0.5553
vn 0.7763 0.5267 0.3464
vn 0.6070 0.7943 0.0247
vn 0.6000 0.7677 0.2249
vn 0.5553 0.5780 0.5980
vn 0.6172 0.4064 0.6737
vn 0.4382 0.6045 0.6653
vn 0.1693 0.2091 0.9631
vn 0.5104 0.8453 -0.1578
vn -0.0205 -0.1901 0.9816
vn -0.0681 0.0151 0.9976
vn -0.3583 -0.3541 0.8639
vn -0.4995 -0.4473 0.7419
vn -0.3052 -0.0869 0.9483
vn 0.3318 0.9065 0.2610
vn -0.3941 -0.2006 0.8969
vn -0.3934 0.1890 0.8997
vn -0.2294 0.5740 0.7860
vn -0.5510 -0.7176 0.4259
vn -0.5121 0.3819 0.7694
vn -0.5217 -0.7815 0.3423
vn 0.3185 0.9479 0.0059
vn -0.6159 0.0079 0.7878
vn 0.0341 0.9436 0.3292
vn -0.7161 0.2431 0.6543
vn -0.7135 0.1085 0.6922
vn -0.7264 -0.4553 0.5148
vn -0.5588 0.6164 0.5548
vn 0.4053 0.8844 -0.2315
vn 0.0077 0.9999 -0.0071
vn -0.8767 -0.0529 0.4780
vn -0.9280 0.0928 0.3608
vn -0.8990 -0.2557 0.3556
vn -0.7365 -0.5859 0.3380
vn -0.7404 0.6539 0.1555
vn -0.8352 0.5248 0.1644
vn -0.9664 0.2436 0.0824
vn 0.2060 0.9419 -0.2655
vn -0.2362 0.9549 -0.1799
vn -0.8667 -0.4420 0.2311
vn -0.5140 0.8574 -0.0241
vn -0.4270 0.8397 -0.3354
vn -0.6970 0.5643 -0.4424
vn -0.5736 -0.7882 0.2230
vn -0.9283 0.2006 -0.3132
vn -0.9802 0.0526 -0.1907
vn -0.0375 0.9112 -0.4103
vn -0.9672 -0.1422 -0.2104
vn -0.1332 0.9071 -0.3992
vn -0.9663 -0.2555 -0.0316
vn -0.9051 -0.1961 -0.3773
vn -0.3390 0.7415 -0.5790
vn -0.8082 0.2650 -0.5259
vn -0.8658 -0.1199 -0.4858
vn -0.5644 0.3983 -0.7231
vn -0.2303 0.5995 -0.7665
vn -0.7742 -0.5625 -0.2902
vn 0.2478 0.8190 -0.5175
vn 0.0900 0.8065 -0.5843
vn -0.7661 -0.3322 -0.5502
vn -0.4142 0.1047 -0.9042
vn -0.6505 -0.2640 -0.7121
vn -0.7290 -0.5165 -0.4492
vn -0.0887 0.5178 -0.8509
vn -0.6196 -0.7656 -0.1729
vn -0.4507 -0.1258 -0.8838
vn -0.5270 -0.4872 -0.6964
vn 0.1240 0.6038 -0.7874
vn 0.1168 0.3842 -0.9159
vn -0.4899 -0.7644 -0.4191
vn 0.4502 0.8125 -0.3704
vn -0.2701 -0.6481 -0.7121
vn 0.4286 0.4270 -0.7963
vn -0.2904 -0.8192 -0.4946
vn 0.3932 0.1666 -0.9042
vn 0.0473 -0.4349 -0.8992
vn 0.3354 -0.3314 -0.8819
vn 0.5520 0.4463 -0.7043
vn -0.0730 -0.8527 -0.5173
vn -0.4075 -0.9116 0.0548
vn 0.3666 -0.6319 -0.6829
vn 0.8455 0.2192 -0.4869
vn 0.6487 0.5654 -0.5094
vn 0.2553 -0.7424 -0.6194
vn 0.6906 0.2524 -0.6778
vn 0.6141 -0.0692 -0.7862
vn 0.2227 -0.9129 -0.3422
vn -0.0607 -0.9938 -0.0927
vn 0.7260 -0.2947 -0.6214
vn 0.5492 -0.6803 -0.4854
vn 0.7803 -0.4638 -0.4195
vn 0.6217 0.7193 -0.3100
vn 0.4966 -0.8125 -0.3053
vn 0.1812 -0.9297 0.3206
vn 0.8688 0.0522 -0.4925
vn 0.2276 -0.9735 0.0208
vn 0.9224 -0.2537 -0.2913
vn 0.7450 -0.6446 -0.1716
vn 0.9045 -0.4264 -0.0100
vn 0.5901 -0.7999 0.1092
vn 0.8657 0.4562 -0.2062
vn 0.9893 -0.0526 -0.1363
vn -0.1436 -0.9610 0.2363
vn 0.8000 -0.4575 0.3881
vn 0.0141 -0.9486 0.3161
vn 0.9739 -0.1904 0.1239
vn 0.9627 0.2557 -0.0885
vn 0.7594 0.6380 -0.1277
vn 0.5603 -0.6931 0.4535
vn 0.9722 0.1303 0.1948
vn 0.9748 -0.0408 0.2195
vn 0.7460 0.1202 0.6550
vn 0.9267 0.2267 0.2996
vn 0.7780 -0.3225 0.5391
vn 0.1916 -0.8072 0.5584
vn 0.4463 -0.5786 0.6827
vn 0.8116 0.5632 0.1552
vn -0.0855 -0.8159 0.5719
vn 0.8641 0.0840 0.4963
vn 0.6529 -0.0503 0.7558
vn -0.2724 -0.8307 0.4856
vn 0.5578 -0.2106 0.8028
vn 0.2913 -0.0564 0.9550
vn 0.3835 -0.3639 0.8488
vn 0.3405 -0.5282 0.7778
vn 0.1514 -0.5890 0.7938
vn 0.8097 0.4059 0.4240
vn 0.0533 -0.7010 0.7112
vn 0.7525 0.3272 0.5716
vn 0.6305 0.7650 0.1315
vn 0.4404 0.0921 0.8931
vn 0.1917 -0.2332 0.9533
vn 0.6146 0.6757 0.4070
vn 0.4827 0.2685 0.8336
vn 0.0214 -0.4645 0.8853
vn -0.1598 -0.4430 0.8822
vn 0.3311 0.3690 0.8684
vn -0.1989 -0.5879 0.7841
vn -0.2843 -0.6366 0.7169
vn -0.4691 -0.6133 0.6355
vn 0.1440 0.0966 0.9848
vn 0.5428 0.8386 -0.0453
vn -0.1053 -0.0523 0.9931
vn 0.2684 0.7577 0.5949
vn 0.1072 0.7107 0.6952
vn -0.0006 0.5075 0.8616
vn 0.2897 0.8709 0.3970
vn -0.4830 -0.6843 0.5463
vn -0.0738 0.3521 0.9331
vn -0.1604 0.2485 0.9553
vn -0.1684 0.8193 0.5481
vn -0.4168 0.1323 0.8993
vn -0.6576 -0.3611 0.6612
vn -0.4122 0.8771 0.2464
vn -0.2581 0.7240 0.6397
vn -0.5077 0.3960 0.7651
vn 0.2984 0.9536 0.0395
vn -0.6025 -0.1201 0.7890
vn -0.6910 -0.2472 0.6793
vn -0.7127 -0.4938 0.4982
vn -0.5511 0.6308 0.5462
vn -0.8191 0.3431 0.4598
vn -0.5657 0.7488 0.3455
vn -0.0661 0.9972 0.0344
vn 0.2995 0.9319 -0.2045
vn -0.9867 0.1111 0.1184
vn -0.8676 -0.1468 0.4751
vn -0.8843 -0.3029 0.3553
vn -0.7178 -0.6172 0.3223
vn -0.8689 0.4452 0.2165
vn -0.6642 0.7465 -0.0401
vn -0.7305 0.6237 -0.2782
vn 0.1303 0.9555 -0.2647
vn -0.9736 -0.1620 0.1609
vn -0.3860 0.9002 -0.2014
vn -0.6918 -0.7055 0.1539
vn -0.8495 0.4947 -0.1831
vn -0.9103 0.3764 -0.1721
vn -0.8987 -0.4385 0.0025
vn -0.3235 0.8147 -0.4812
vn -0.8436 0.2094 -0.4945
vn -0.7950 -0.6063 0.0182
vn -0.5682 0.5777 -0.5860
vn -0.6665 0.0388 -0.7445
vn -0.5963 0.3685 -0.7132
vn -0.8822 -0.1806 -0.4349
vn -0.2285 0.6944 -0.6823
vn -0.8650 -0.4548 -0.2123
vn 0.0482 0.7610 -0.6469
vn -0.7369 -0.6435 -0.2073
vn -0.4440 0.4039 -0.7998
vn -0.3116 0.2954 -0.9031
vn -0.7026 -0.0390 -0.7105
vn -0.4765 0.0453 -0.8780
vn -0.6524 -0.2743 -0.7065
vn -0.2372 -0.1904 -0.9526
vn -0.5950 -0.5727 -0.5640
vn 0.0486 0.5260 -0.8491
vn -0.6031 -0.7926 -0.0901
vn 0.3770 0.7684 -0.5171
vn -0.0247 0.1570 -0.9873
vn -0.3112 -0.3597 -0.8796
vn 0.3770 0.6598 -0.6500
vn -0.4272 -0.4902 -0.7598
vn 0.2886 0.6048 -0.7423
vn -0.5333 -0.7983 -0.2797
vn -0.0096 -0.5194 -0.8545
vn -0.1544 0.0009 -0.9880
vn -0.0009 -0.2418 -0.9703
vn -0.0789 -0.6183 -0.7820
vn 0.3590 0.3459 -0.8669
vn -0.2927 -0.8196 -0.4924
vn 0.2264 0.0369 -0.9733
vn 0.2288 -0.0951 -0.9688
vt 0.781230 0.812500
vt 0.762032 0.875000
vt 0.685473 0.777944
vt 0.734697 0.375000
vt 0.703125 0.312500
vt 0.764235 0.312500
vt 0.741874 0.599249
vt 0.704616 0.531266
vt 0.763980 0.500000
vt 0.734375 0.000000
vt 0.879629 0.062500
vt 0.593677 0.062500
vt 0.670132 0.472235
vt 0.734536 0.437500
vt 0.734224 0.937500
vt 0.605595 0.875000
vt 0.658359 0.250000
vt 0.719918 0.218999
vt 0.734375 0.717281
vt 0.678319 0.660608
vt 0.606077 0.187500
vt 0.641330 0.592355
vt 0.623673 0.812500
vt 0.673680 0.375000
vt 0.639230 0.312500
vt 0.640625 1.000000
vt 0.479138 0.937500
vt 0.639064 0.437500
vt 0.612180 0.375000
vt 0.595563 0.750000
vt 0.606567 0.500000
vt 0.603325 0.667055
vt 0.578286 0.562500
vt 0.578286 0.437500
vt 0.577540 0.283466
vt 0.543444 0.396147
vt 0.512752 0.812500
vt 0.546915 0.655822
vt 0.503540 0.125000
vt 0.660224 0.125000
vt 0.544067 0.500000
vt 0.509405 0.537235
vt 0.515588 0.281661
vt 0.510998 0.724803
vt 0.449506 0.875000
vt 0.487180 0.625000
vt 0.453286 0.562500
vt 0.450317 0.500000
vt 0.485851 0.406417
vt 0.453088 0.281661
vt 0.455926 0.750000
vt 0.445771 0.665313
vt 0.799126 0.125000
vt 0.779637 0.187500
vt 0.402284 0.812500
vt 0.497588 0.187500
vt 0.386121 0.187500
vt 0.328120 0.062500
vt 0.453125 0.000000
vt 0.437500 0.406180
vt 0.347717 0.125000
vt 0.390588 0.718339
vt 0.293360 0.875000
vt 0.308534 0.812500
vt 0.316528 0.750000
vt 0.343750 0.656371
vt 0.393429 0.625000
vt 0.296915 0.655822
vt 0.343750 0.531273
vt 0.297036 0.562500
vt 0.294067 0.500000
vt 0.328125 1.000000
vt 0.230145 0.937500
vt 0.328286 0.437500
vt 0.296914 0.344178
vt 0.343750 0.343629
vt 0.265786 0.437500
vt 0.234338 0.281661
vt 0.296902 0.219059
vt 0.214815 0.187500
vt 0.237180 0.375000
vt 0.199790 0.812500
vt 0.237635 0.520573
vt 0.203286 0.437500
vt 0.237180 0.625000
vt 0.203286 0.562500
vt 0.190964 0.125000
vt 0.113605 0.062500
vt 0.169067 0.500000
vt 0.203125 0.000000
vt 0.137012 0.875000
vt 0.176363 0.337227
vt 0.171838 0.718339
vt 0.234338 0.718339
vt 0.148421 0.399333
vt 0.160278 0.250000
vt 0.121065 0.187500
vt 0.174680 0.625000
vt 0.134405 0.537235
vt 0.140625 1.000000
vt 0.030235 0.937500
vt 0.075252 0.812500
vt 0.102021 0.334687
vt 0.109536 0.437500
vt 0.066529 0.250000
vt 0.055088 0.153620
vt 0.112179 0.625000
vt 0.078286 0.562500
vt 0.075317 0.500000
vt 0.047036 0.437500
vt 0.032456 0.875000
vt 0.048167 0.750000
vt 0.108913 0.719958
vt 0.062500 0.658651
vt 0.015664 0.655822
vt 0.018885 0.520574
vt 0.000000 0.562500
vt 0.015625 0.000000
vt 0.000000 0.062500
vt 0.000000 0.399333
vt 0.046914 0.344178
vt 0.000000 0.784407
vt 0.000000 0.273040
vt 0.991904 0.273040
vt 0.992171 0.399333
vt 0.937867 0.282145
vt 1.000000 0.655822
vt 0.975379 0.784407
vt 0.953164 0.655822
vt 1.000000 0.500000
vt 0.984536 0.562500
vt 0.950317 0.500000
vt 0.953286 0.437500
vt 0.924679 0.375000
vt 0.915655 0.537235
vt 0.910279 0.750000
vt 0.906250 0.656371
vt 0.965747 0.187500
vt 0.868449 0.212346
vt 0.978825 0.875000
vt 0.921769 0.937500
vt 0.872374 0.843190
vt 0.887823 0.312500
vt 0.859536 0.562500
vt 0.856567 0.500000
vt 0.890786 0.437500
vt 0.855944 0.396148
vt 0.859414 0.655822
vt 0.939862 0.125000
vt 0.812867 0.282145
vt 0.814726 0.750000
vt 0.796945 0.653777
vt 0.828125 1.000000
vt 0.798190 0.375000
vt 0.797036 0.437500
vt 0.390786 0.562500
vt 0.387817 0.500000
vt 0.390786 0.437500
vt 0.390665 0.344178
vt 0.378980 0.250000
vt 0.000000 0.125000
vt 0.000000 0.187500
vt 0.801816 0.543181
s 0
f 2/1/1 6/2/1 13/3/1
f 11/4/2 14/5/2 4/6/2
f 8/7/3 9/8/3 3/9/3
f 5/10/4 127/11/4 44/12/4
f 9/8/5 16/13/5 10/14/5
f 139/15/6 32/16/6 6/2/6
f 14/5/7 21/17/7 12/18/7
f 7/19/8 15/20/8 8/7/8
f 12/18/9 21/17/9 31/21/9
f 15/20/10 18/22/10 9/8/10
f 32/16/11 22/23/11 13/3/11
f 14/5/12 17/24/12 20/25/12
f 139/15/13 1/26/13 59/27/13
f 19/28/14 25/29/14 17/24/14
f 22/23/15 27/30/15 13/3/15
f 16/13/16 18/22/16 24/31/16
f 18/22/17 23/32/17 28/33/17
f 24/31/18 29/34/18 19/28/18
f 20/25/19 25/29/19 30/35/19
f 20/25/20 30/35/20 21/17/20
f 29/34/21 35/36/21 25/29/21
f 32/16/22 41/37/22 22/23/22
f 23/32/23 27/30/23 33/38/23
f 31/21/24 51/39/24 26/40/24
f 24/31/25 28/33/25 34/41/25
f 28/33/26 33/38/26 37/42/26
f 34/41/27 35/36/27 29/34/27
f 30/35/28 35/36/28 38/43/28
f 41/37/29 36/44/29 27/30/29
f 32/16/30 59/27/30 40/45/30
f 37/42/31 42/46/31 47/47/31
f 37/42/32 47/47/32 48/48/32
f 38/43/33 43/49/33 50/50/33
f 41/37/34 45/51/34 36/44/34
f 36/44/35 45/51/35 46/52/35
f 26/40/36 146/53/36 145/54/36 12/18/36
f 41/37/37 40/45/37 52/55/37
f 39/56/38 50/50/38 64/57/38
f 44/12/39 51/39/39 76/58/39
f 5/59/40 44/12/40 76/58/40
f 48/48/41 49/60/41 43/49/41
f 64/57/42 73/61/42 51/39/42
f 52/55/43 54/62/43 45/51/43
f 59/27/44 77/63/44 40/45/44
f 52/55/45 77/63/45 67/64/45
f 54/62/46 68/65/46 60/66/46
f 54/62/47 60/66/47 55/67/47
f 60/66/48 68/65/48 69/68/48
f 61/69/49 65/70/49 70/71/49
f 59/27/50 1/72/50 82/73/50
f 66/74/51 71/75/51 62/76/51
f 70/71/52 75/77/52 66/74/52
f 71/75/53 81/78/53 72/79/53
f 72/79/54 81/78/54 87/80/54
f 75/77/55 80/81/55 71/75/55
f 67/64/56 77/63/56 88/82/56
f 71/75/57 80/81/57 81/78/57
f 74/83/58 85/84/58 75/77/58
f 74/83/59 79/85/59 83/86/59
f 96/87/60 111/88/60 76/58/60
f 74/83/61 83/86/61 84/89/61
f 5/90/62 76/58/62 111/88/62
f 77/63/63 82/73/63 92/91/63
f 85/84/64 86/92/64 80/81/64
f 88/82/65 89/93/65 78/94/65
f 84/89/66 95/95/66 85/84/66
f 85/84/67 95/95/67 86/92/67
f 87/80/68 91/96/68 100/97/68
f 83/86/69 90/98/69 93/99/69
f 82/73/70 1/100/70 131/101/70
f 92/91/71 105/102/71 88/82/71
f 86/92/72 95/95/72 99/103/72
f 94/104/73 99/103/73 95/95/73
f 99/103/74 109/105/74 91/96/74
f 100/97/75 110/106/75 96/87/75
f 93/99/76 98/107/76 102/108/76
f 93/99/77 102/108/77 103/109/77
f 103/109/78 108/110/78 94/104/78
f 131/101/79 118/111/79 92/91/79
f 105/102/80 106/112/80 97/113/80
f 100/97/81 109/105/81 110/106/81
f 97/113/82 101/114/82 98/107/82
f 101/114/83 106/112/83 112/115/83
f 107/116/84 112/115/84 115/117/84
f 5/118/85 111/88/85 127/119/85
f 107/116/86 113/120/86 108/110/86
f 108/110/87 113/120/87 104/121/87
f 105/102/88 118/111/88 114/122/88
f 104/121/89 113/120/89 116/123/89
f 105/102/90 114/122/90 106/112/90
f 104/121/91 116/123/91 109/105/91
f 116/124/92 113/125/92 126/126/92
f 112/127/93 114/128/93 119/129/93
f 107/130/94 115/131/94 120/132/94
f 121/133/95 125/134/95 113/125/95
f 115/131/96 119/129/96 124/135/96
f 119/129/97 128/136/97 123/137/97
f 122/138/98 126/126/98 137/139/98
f 118/140/99 131/141/99 132/142/99
f 118/140/100 132/142/100 114/128/100
f 126/126/101 125/134/101 130/143/101
f 124/135/102 134/144/102 135/145/102
f 129/146/103 136/147/103 125/134/103
f 130/143/104 137/139/104 126/126/104
f 123/137/105 128/136/105 133/148/105
f 137/139/106 146/53/106 117/149/106
f 135/145/107 136/147/107 129/146/107
f 130/143/108 136/147/108 138/150/108
f 132/142/109 140/151/109 128/136/109
f 133/148/110 140/151/110 141/152/110
f 137/139/111 138/150/111 145/54/111
f 131/141/112 1/153/112 139/15/112
f 138/150/113 144/154/113 4/6/113
f 140/151/114 2/1/114 7/19/114
f 4/6/115 12/18/115 138/150/115
f 141/152/116 7/19/116 8/7/116
f 3/9/117 10/14/117 143/155/117
f 3/9/118 9/8/118 10/14/118
f 7/19/119 2/1/119 13/3/119
f 4/6/120 14/5/120 12/18/120
f 44/12/121 127/11/121 146/53/121 26/40/121
f 17/24/122 11/4/122 10/14/122 16/13/122
f 23/32/123 15/20/123 13/3/123 27/30/123
f 6/2/124 32/16/124 13/3/124
f 11/4/125 17/24/125 14/5/125
f 7/19/126 13/3/126 15/20/126
f 9/8/127 8/7/127 15/20/127
f 21/17/128 14/5/128 20/25/128
f 12/18/129 31/21/129 26/40/129
f 9/8/130 18/22/130 16/13/130
f 16/13/131 19/28/131 17/24/131
f 16/13/132 24/31/132 19/28/132
f 139/15/133 59/27/133 32/16/133
f 20/25/134 17/24/134 25/29/134
f 38/43/135 39/56/135 31/21/135 30/35/135
f 15/20/136 23/32/136 18/22/136
f 21/17/137 30/35/137 31/21/137
f 24/31/138 18/22/138 28/33/138
f 19/28/139 29/34/139 25/29/139
f 24/31/140 34/41/140 29/34/140
f 30/35/141 25/29/141 35/36/141
f 22/23/142 41/37/142 27/30/142
f 28/33/143 23/32/143 33/38/143
f 44/12/144 26/40/144 51/39/144
f 43/49/145 35/36/145 34/41/145 37/42/145
f 51/39/146 31/21/146 39/56/146
f 34/41/147 28/33/147 37/42/147
f 33/38/148 27/30/148 36/44/148
f 32/16/149 40/45/149 41/37/149
f 38/43/150 35/36/150 43/49/150
f 33/38/151 36/44/151 42/46/151
f 37/42/152 33/38/152 42/46/152
f 55/67/153 56/156/153 47/47/153 46/52/153
f 36/44/154 46/52/154 42/46/154
f 37/42/155 48/48/155 43/49/155
f 39/56/156 38/43/156 50/50/156
f 50/50/157 43/49/157 49/60/157
f 41/37/158 52/55/158 45/51/158
f 39/56/159 64/57/159 51/39/159
f 47/47/160 42/46/160 46/52/160
f 56/156/161 57/157/161 48/48/161 47/47/161
f 51/39/162 73/61/162 76/58/162
f 58/158/163 49/60/163 48/48/163 57/157/163
f 66/74/164 58/158/164 57/157/164 61/69/164
f 49/60/165 58/158/165 53/159/165
f 50/50/166 49/60/166 53/159/166
f 50/50/167 53/159/167 63/160/167
f 46/52/168 45/51/168 54/62/168
f 64/57/169 50/50/169 63/160/169
f 46/52/170 54/62/170 55/67/170
f 40/45/171 77/63/171 52/55/171
f 57/157/172 56/156/172 61/69/172
f 62/76/173 53/159/173 58/158/173 66/74/173
f 68/65/174 54/62/174 52/55/174 67/64/174
f 60/66/175 61/69/175 56/156/175 55/67/175
f 53/159/176 62/76/176 63/160/176
f 72/79/177 63/160/177 62/76/177 71/75/177
f 69/68/178 65/70/178 61/69/178 60/66/178
f 64/57/179 63/160/179 72/79/179
f 64/57/180 72/79/180 73/61/180
f 96/87/181 73/61/181 72/79/181 87/80/181
f 61/69/182 70/71/182 66/74/182
f 59/27/183 82/73/183 77/63/183
f 66/74/184 75/77/184 71/75/184
f 69/68/185 68/65/185 78/94/185
f 69/68/186 78/94/186 79/85/186
f 79/85/187 74/83/187 65/70/187 69/68/187
f 78/94/188 68/65/188 67/64/188 88/82/188
f 76/58/189 73/61/189 96/87/189
f 70/71/190 65/70/190 74/83/190
f 70/71/191 74/83/191 75/77/191
f 90/98/192 79/85/192 78/94/192 89/93/192
f 75/77/193 85/84/193 80/81/193
f 87/80/194 81/78/194 91/96/194
f 98/107/195 90/98/195 89/93/195 97/113/195
f 83/86/196 79/85/196 90/98/196
f 74/83/197 84/89/197 85/84/197
f 77/63/198 92/91/198 88/82/198
f 81/78/199 80/81/199 86/92/199
f 81/78/200 86/92/200 91/96/200
f 87/80/201 100/97/201 96/87/201
f 84/89/202 83/86/202 93/99/202
f 94/104/203 95/95/203 84/89/203 93/99/203
f 93/99/204 90/98/204 98/107/204
f 97/113/205 89/93/205 88/82/205 105/102/205
f 82/73/206 131/101/206 92/91/206
f 104/121/207 99/103/207 94/104/207 108/110/207
f 86/92/208 99/103/208 91/96/208
f 100/97/209 91/96/209 109/105/209
f 96/87/210 110/106/210 111/88/210
f 93/99/211 103/109/211 94/104/211
f 102/108/212 98/107/212 101/114/212
f 112/115/213 107/116/213 102/108/213 101/114/213
f 92/91/214 118/111/214 105/102/214
f 99/103/215 104/121/215 109/105/215
f 97/113/216 106/112/216 101/114/216
f 127/119/217 111/88/217 110/106/217 117/161/217
f 103/109/218 102/108/218 107/116/218
f 103/109/219 107/116/219 108/110/219
f 116/123/220 122/162/220 110/106/220 109/105/220
f 112/115/221 106/112/221 114/122/221
f 121/133/222 113/125/222 107/130/222 120/132/222
f 110/106/223 122/162/223 117/161/223
f 115/131/224 112/127/224 119/129/224
f 129/146/225 121/133/225 120/132/225 124/135/225
f 120/132/226 115/131/226 124/135/226
f 126/126/227 113/125/227 125/134/227
f 119/129/228 114/128/228 128/136/228
f 122/138/229 116/124/229 126/126/229
f 114/128/230 132/142/230 128/136/230
f 117/149/231 122/138/231 137/139/231
f 124/135/232 119/129/232 123/137/232
f 133/148/233 134/144/233 124/135/233 123/137/233
f 121/133/234 129/146/234 125/134/234
f 124/135/235 135/145/235 129/146/235
f 130/143/236 125/134/236 136/147/236
f 143/155/237 136/147/237 135/145/237 142/163/237
f 130/143/238 138/150/238 137/139/238
f 133/148/239 128/136/239 140/151/239
f 117/149/240 146/53/240 127/11/240
f 139/15/241 6/2/241 132/142/241 131/141/241
f 141/152/242 142/163/242 134/144/242 133/148/242
f 136/147/243 143/155/243 144/154/243
f 132/142/244 6/2/244 2/1/244
f 138/150/245 136/147/245 144/154/245
f 132/142/246 2/1/246 140/151/246
f 137/139/247 145/54/247 146/53/247
f 11/4/248 144/154/248 143/155/248 10/14/248
f 135/145/249 134/144/249 142/163/249
f 142/163/250 3/9/250 143/155/250
f 144/154/251 11/4/251 4/6/251
f 141/152/252 140/151/252 7/19/252
f 145/54/253 138/150/253 12/18/253
f 142/163/254 141/152/254 8/7/254
f 3/9/255 142/163/255 8/7/255
