# Blender 5.0.0
# www.blender.org
mtllib prep_throw_ball0042.mtl
o Sphere
v -1.434642 6.469671 -0.558584
v -1.650073 5.798607 -0.609046
v -2.207484 5.173714 -0.191774
v -2.538733 5.360223 0.146697
v -2.707940 6.363973 0.545997
v -1.530178 5.982267 -0.587866
v -1.671468 5.452759 -0.412421
v -1.904846 5.218525 -0.267869
v -1.870562 5.170873 -0.012704
v -2.197635 5.159573 0.027964
v -2.318410 5.223160 0.136026
v -2.540220 5.570680 0.405322
v -1.424292 5.687905 -0.347791
v -2.305101 5.339680 0.337040
v -1.545898 5.384436 -0.146914
v -1.849272 5.231508 0.220517
v -2.069052 5.294670 0.354114
v -1.507751 5.397900 0.096791
v -1.811431 5.361395 0.391443
v -2.100213 5.502979 0.544956
v -2.300688 5.575552 0.545570
v -1.287995 5.907719 -0.276214
v -1.306457 5.660810 0.064324
v -1.562293 5.511087 0.392360
v -1.863002 5.532236 0.558270
v -2.537126 5.920744 0.588954
v -1.234450 5.864694 -0.099766
v -1.369146 5.707761 0.354624
v -1.620164 5.686924 0.572382
v -2.011586 5.823600 0.721572
v -2.316782 5.866738 0.679018
v -1.282503 6.122990 -0.368683
v -1.190475 5.981993 0.217634
v -1.412895 5.921631 0.549449
v -1.647385 5.918320 0.695904
v -1.122181 6.269068 0.095177
v -1.300638 6.186420 0.535388
v -1.939124 6.171790 0.813036
v -2.214199 6.296908 0.797775
v -1.214728 6.560710 -0.273267
v -1.151383 6.319742 -0.138618
v -1.173086 6.387486 0.358277
v -1.577540 6.349827 0.756923
v -2.588028 6.197165 0.625795
v -1.128752 6.591895 0.047071
v -1.155129 6.673159 0.265705
v -1.264884 6.638899 0.502449
v -1.379720 6.655826 0.622433
v -1.605321 6.704099 0.751965
v -1.940227 6.556629 0.834859
v -2.393486 6.297439 0.742071
v -1.197900 6.794307 -0.142913
v -1.851735 6.990819 0.755873
v -1.209617 6.982580 0.076558
v -1.276697 7.047274 0.305298
v -1.368219 7.093165 0.437537
v -1.489794 7.115610 0.551860
v -1.619238 7.072328 0.655295
v -1.302877 6.470600 -0.426211
v -1.372294 7.289343 0.135168
v -1.570886 7.394306 0.385842
v -1.975795 7.239245 0.658703
v -2.130520 6.914275 0.769730
v -2.283831 6.767464 0.765255
v -1.679402 7.566837 0.189072
v -1.810501 7.425213 0.506238
v -1.363397 7.084612 -0.272781
v -1.370656 7.225351 -0.134947
v -1.526810 7.469839 0.006909
v -1.811857 7.588123 0.293656
v -2.132177 7.419587 0.532063
v -2.390154 7.112468 0.623536
v -2.481350 6.734604 0.686743
v -2.020122 7.694287 0.031505
v -2.060575 7.622993 0.295728
v -2.617654 6.575029 0.619759
v -1.379908 6.913245 -0.408417
v -1.667317 7.436900 -0.303257
v -1.814471 7.609691 -0.139271
v -2.304948 7.568975 0.286217
v -2.480914 7.369363 0.402534
v -1.450461 6.724854 -0.536931
v -2.080370 7.656396 -0.161943
v -2.353400 7.595209 -0.187166
v -2.331388 7.635559 0.055814
v -2.607777 7.440683 0.128659
v -2.650518 7.076530 0.453192
v -1.625034 7.160371 -0.501731
v -1.877181 7.369174 -0.493766
v -2.065232 7.539455 -0.366271
v -2.749803 7.192114 0.235866
v -1.640104 6.876382 -0.632573
v -2.409731 7.472113 -0.374029
v -2.686992 7.310818 -0.279436
v -2.617785 7.454633 -0.079020
v -2.735904 6.840332 0.469950
v -2.054664 7.161602 -0.663786
v -2.279580 7.301408 -0.570856
v -2.839699 7.163733 -0.087544
v -2.859384 6.919388 0.258273
v -2.310535 7.005229 -0.722804
v -2.522418 7.146719 -0.584968
v -2.666423 7.131007 -0.492840
v -2.952107 6.851651 -0.230221
v -1.863304 6.854829 -0.739562
v -2.075589 6.823059 -0.783958
v -2.718591 6.706719 -0.647708
v -2.837719 6.913298 -0.436933
v -2.960275 6.841823 0.028074
v -2.941082 6.613801 0.234165
v -2.794042 6.555582 0.460246
v -2.382803 6.692533 -0.799828
v -2.944495 6.489085 -0.426563
v -2.016952 6.440152 -0.836940
v -2.639853 6.459445 -0.730050
v -3.025654 6.445380 -0.116891
v -2.924545 6.244475 0.265696
v -1.750249 6.515246 -0.756925
v -2.383642 6.253321 -0.826598
v -2.762861 6.177818 -0.635020
v -2.877697 6.194745 -0.515036
v -2.993735 6.307839 0.100171
v -2.320822 5.940157 -0.787686
v -2.640982 5.926630 -0.671106
v -2.924223 5.993674 -0.357444
v -3.007208 6.136869 -0.134333
v -2.811229 6.213370 0.428015
v -2.064489 6.070593 -0.819946
v -2.774362 5.740479 -0.450124
v -2.909101 5.807420 -0.161333
v -1.584454 6.475209 -0.675624
v -1.760064 6.076431 -0.744381
v -2.213240 5.668317 -0.709834
v -2.437154 5.568371 -0.602721
v -2.562934 5.524182 -0.496084
v -2.745792 5.556626 -0.301629
v -2.905827 5.868400 0.108368
v -2.746869 5.534881 0.061349
v -1.446371 6.211095 -0.563722
v -1.854301 5.684134 -0.662444
v -2.010405 5.414057 -0.544649
v -2.267357 5.272414 -0.390808
v -2.463182 5.266808 -0.201658
v -2.575281 5.329525 -0.079176
v -2.713484 5.704150 0.318439
v -2.768739 5.922876 0.382776
vn 0.6374 -0.3362 -0.6933
vn -0.4497 -0.7595 0.4700
vn 0.0955 -0.9761 -0.1951
vn -0.6631 -0.1235 0.7382
vn 0.0640 -0.9672 0.2456
vn 0.7086 -0.1878 -0.6802
vn -0.3932 -0.6049 0.6925
vn 0.4940 -0.7566 -0.4284
vn -0.4591 -0.3910 0.7977
vn 0.5382 -0.8420 -0.0377
vn 0.7555 -0.2748 -0.5948
vn -0.1809 -0.6789 0.7115
vn 0.7087 -0.0181 -0.7053
vn 0.0726 -0.6855 0.7244
vn 0.8420 -0.4066 -0.3546
vn 0.5135 -0.7655 0.3879
vn 0.7819 -0.5665 0.2605
vn 0.3616 -0.6062 0.7084
vn 0.0107 -0.4847 0.8746
vn -0.1576 -0.4427 0.8827
vn 0.2281 -0.4375 0.8698
vn 0.9130 -0.1805 -0.3660
vn 0.9414 -0.3372 -0.0058
vn -0.4128 -0.2035 0.8878
vn 0.6020 -0.4669 0.6477
vn 0.8256 -0.2989 0.4785
vn 0.4974 -0.3623 0.7882
vn 0.1394 -0.2786 0.9502
vn 0.9682 -0.1906 -0.1622
vn 0.8734 -0.0293 -0.4861
vn 0.8239 -0.0239 0.5662
vn 0.7219 -0.0067 0.6919
vn 0.1796 -0.0552 0.9822
vn 0.9923 0.0018 -0.1236
vn 0.9937 0.0361 0.1065
vn -0.6231 -0.3599 0.6944
vn 0.9539 0.0909 -0.2861
vn -0.1733 0.0424 0.9840
vn -0.5031 -0.0256 0.8638
vn -0.5851 -0.0329 0.8103
vn 0.5056 0.0517 0.8612
vn -0.3751 0.0418 0.9261
vn 0.9691 0.2103 -0.1287
vn 0.8100 0.1636 -0.5632
vn 0.8458 0.2786 -0.4550
vn 0.8694 0.4819 -0.1089
vn 0.8859 0.4441 0.1342
vn 0.7979 0.5876 -0.1344
vn 0.4620 0.7774 0.4269
vn 0.7046 0.1032 -0.7021
vn 0.0532 0.6044 0.7949
vn 0.1156 0.7888 0.6037
vn -0.3611 0.5315 0.7662
vn -0.5343 0.4348 0.7249
vn -0.1942 0.7718 0.6055
vn 0.6628 0.4244 -0.6169
vn -0.3396 0.6788 0.6511
vn -0.1626 0.9586 0.2338
vn 0.1880 0.9512 -0.2448
vn -0.6733 0.1126 0.7308
vn -0.2058 0.9704 -0.1260
vn -0.6722 0.0290 0.7398
vn 0.6026 0.2833 -0.7461
vn -0.4982 0.8161 0.2930
vn 0.4466 0.5658 -0.6931
vn -0.4982 0.8615 -0.0979
vn -0.5597 0.8246 0.0824
vn -0.7664 0.3521 0.5374
vn -0.1554 0.8524 -0.4993
vn 0.6147 0.1044 -0.7818
vn 0.3717 0.3721 -0.8505
vn -0.7937 0.6032 0.0788
vn -0.7823 0.6015 -0.1615
vn -0.8881 0.4084 0.2110
vn -0.8202 0.1763 0.5443
vn -0.3341 0.5914 -0.7339
vn -0.4804 0.5881 -0.6506
vn -0.7491 0.4693 -0.4676
vn 0.4652 0.1580 -0.8710
vn 0.1472 0.3228 -0.9350
vn -0.9186 0.2197 0.3286
vn -0.0782 0.4615 -0.8837
vn -0.0568 0.2511 -0.9663
vn -0.4004 0.1722 -0.9000
vn -0.7348 -0.0269 0.6777
vn -0.7709 0.1791 -0.6112
vn -0.8805 0.2113 -0.4243
vn 0.2504 0.1324 -0.9590
vn -0.9653 0.1084 -0.2377
vn 0.1788 0.1617 -0.9705
vn -0.9849 0.1714 -0.0246
vn -0.9649 -0.0431 -0.2590
vn -0.0591 0.0608 -0.9964
vn -0.6634 0.0376 -0.7473
vn -0.9172 -0.0916 -0.3877
vn -0.4196 -0.0989 -0.9023
vn -0.0562 -0.1342 -0.9894
vn -0.9628 -0.1890 0.1931
vn 0.4331 -0.0354 -0.9007
vn 0.2959 -0.0339 -0.9546
vn -0.9466 -0.2671 -0.1807
vn -0.4935 -0.4256 -0.7585
vn -0.8619 -0.3928 -0.3205
vn -0.9538 -0.2904 0.0772
vn 0.0159 -0.2695 -0.9629
vn -0.8487 -0.2395 0.4715
vn -0.6595 -0.5317 -0.5314
vn -0.8462 -0.5318 -0.0344
vn 0.2376 -0.2530 -0.9378
vn 0.1361 -0.4611 -0.8769
vn -0.8067 -0.4401 0.3945
vn 0.6153 -0.0122 -0.7882
vn -0.6772 -0.7065 0.2056
vn 0.4572 -0.4608 -0.7607
vn -0.6733 -0.5754 0.4644
vn 0.3249 -0.7096 -0.6252
vn -0.3402 -0.9393 -0.0452
vn 0.0263 -0.9975 -0.0654
vn 0.5865 -0.4274 -0.6880
vn -0.5023 -0.6721 0.5440
vn -0.6536 -0.2128 0.7263
vn -0.0559 -0.9144 0.4008
vn 0.8202 -0.5056 -0.2678
vn 0.7191 -0.2652 -0.6423
vn -0.1969 -0.8425 0.5014
vn 0.6708 -0.5771 -0.4658
vn 0.4699 -0.8542 -0.2227
vn -0.2302 -0.6421 0.7312
vn -0.4296 -0.4165 0.8012
vn 0.4825 -0.8574 0.1789
vn 0.1235 -0.8031 0.5829
vn 0.4522 -0.7555 0.4740
vn 0.7493 -0.0651 -0.6590
vn 0.0413 -0.6716 0.7398
vn -0.1606 -0.2235 0.9614
vn 0.7855 -0.6124 -0.0891
vn -0.1831 -0.4179 0.8898
vn 0.6984 -0.6159 0.3647
vn 0.3414 -0.6019 0.7219
vn 0.6005 -0.4669 0.6491
vn 0.1707 -0.4141 0.8941
vn 0.9239 -0.1967 -0.3283
vn 0.8634 -0.4343 0.2567
vn -0.4266 -0.1962 0.8829
vn 0.5320 -0.1947 0.8240
vn -0.2919 -0.1892 0.9376
vn 0.7964 -0.3101 0.5192
vn 0.9678 -0.2483 -0.0423
vn 0.8802 -0.0331 -0.4734
vn 0.2337 -0.1731 0.9568
vn 0.9620 -0.1254 0.2426
vn 0.8852 -0.1859 0.4265
vn 0.8542 0.2459 0.4582
vn 0.9818 -0.0001 0.1900
vn 0.6079 -0.0446 0.7927
vn -0.0810 -0.0567 0.9951
vn 0.2271 0.0314 0.9734
vn 0.9632 0.0921 -0.2524
vn -0.2966 0.0221 0.9548
vn 0.8995 0.0825 0.4290
vn 0.7010 0.2620 0.6633
vn -0.4597 0.0200 0.8878
vn 0.5345 0.2435 0.8093
vn 0.4218 0.5438 0.7255
vn 0.3083 0.2524 0.9172
vn 0.1791 0.1406 0.9737
vn -0.0003 0.1790 0.9838
vn 0.9789 0.1993 0.0440
vn -0.1329 0.1087 0.9852
vn 0.9387 0.2844 0.1948
vn 0.8477 0.2106 -0.4868
vn 0.6329 0.5238 0.5702
vn 0.2276 0.4688 0.8534
vn 0.8878 0.3611 -0.2853
vn 0.7529 0.5567 0.3511
vn -0.0476 0.3432 0.9381
vn -0.2026 0.4162 0.8864
vn 0.6750 0.7045 0.2190
vn -0.2975 0.2829 0.9119
vn -0.3930 0.2432 0.8868
vn -0.5568 0.2627 0.7880
vn 0.3772 0.7362 0.5618
vn 0.7509 0.1565 -0.6416
vn 0.0397 0.7514 0.6587
vn 0.6695 0.6432 -0.3716
vn 0.5426 0.7733 -0.3279
vn 0.4115 0.9100 -0.0505
vn 0.6565 0.5191 -0.5473
vn -0.5941 0.1782 0.7844
vn 0.2795 0.9465 0.1613
vn 0.1357 0.9511 0.2774
vn 0.2885 0.7679 -0.5720
vn -0.2172 0.9308 0.2939
vn -0.6689 0.4849 0.5635
vn 0.0460 0.6188 -0.7842
vn 0.1914 0.8579 -0.4768
vn -0.1943 0.9704 -0.1435
vn 0.5949 0.3101 -0.7416
vn -0.5338 0.7246 0.4359
vn -0.6696 0.5817 0.4617
vn -0.7634 0.3159 0.5633
vn -0.1420 0.8458 -0.5143
vn -0.5521 0.7593 -0.3444
vn -0.1228 0.7081 -0.6953
vn 0.3221 0.4153 -0.8508
vn 0.5455 0.1639 -0.8220
vn -0.8337 0.4466 -0.3248
vn -0.8187 0.5453 0.1797
vn -0.8879 0.3783 0.2617
vn -0.8116 0.1464 0.5656
vn -0.5499 0.6119 -0.5685
vn -0.2452 0.4627 -0.8519
vn -0.3791 0.2979 -0.8761
vn 0.4106 0.1824 -0.8934
vn -0.9383 0.3455 -0.0165
vn 0.0134 0.3338 -0.9426
vn -0.8306 0.0002 0.5568
vn -0.5320 0.3473 -0.7723
vn -0.6451 0.3307 -0.6888
vn -0.9772 0.0874 0.1935
vn -0.0066 0.1361 -0.9907
vn -0.7197 0.0441 -0.6929
vn -0.9238 -0.0087 0.3828
vn -0.3105 0.0584 -0.9488
vn -0.7169 -0.2554 -0.6487
vn -0.4604 -0.0966 -0.8824
vn -0.9500 -0.0809 -0.3014
vn -0.0051 -0.0453 -0.9990
vn -0.9924 -0.0652 0.1046
vn 0.2416 -0.0756 -0.9674
vn -0.9302 -0.1801 0.3199
vn -0.3297 -0.1813 -0.9265
vn -0.2925 -0.3510 -0.8895
vn -0.7853 -0.2590 -0.5623
vn -0.5789 -0.4170 -0.7007
vn -0.8669 -0.3931 -0.3065
vn -0.5155 -0.7240 -0.4583
vn -0.8911 -0.4402 0.1104
vn 0.1379 -0.3086 -0.9412
vn -0.8207 -0.2032 0.5340
vn 0.5264 -0.0925 -0.8452
vn -0.1156 -0.6136 -0.7811
vn -0.6553 -0.7189 -0.2317
vn 0.4860 -0.2197 -0.8459
vn -0.7800 -0.6245 -0.0397
vn 0.3852 -0.2764 -0.8805
vn -0.8109 -0.3441 0.4734
vn -0.4249 -0.9029 0.0655
vn -0.3310 -0.6675 -0.6670
vn -0.3091 -0.8858 -0.3463
vn -0.5111 -0.8368 0.1964
vn 0.3588 -0.5396 -0.7617
vn -0.6747 -0.5732 0.4650
vn 0.0834 -0.7986 -0.5960
vn 0.0194 -0.8934 -0.4489
vt 0.781230 0.812500
vt 0.762032 0.875000
vt 0.685473 0.777944
vt 0.734697 0.375000
vt 0.703125 0.312500
vt 0.764235 0.312500
vt 0.741874 0.599249
vt 0.704616 0.531266
vt 0.763980 0.500000
vt 0.734375 0.000000
vt 0.879629 0.062500
vt 0.593677 0.062500
vt 0.670132 0.472235
vt 0.734536 0.437500
vt 0.734224 0.937500
vt 0.605595 0.875000
vt 0.658359 0.250000
vt 0.719918 0.218999
vt 0.734375 0.717281
vt 0.678319 0.660608
vt 0.606077 0.187500
vt 0.641330 0.592355
vt 0.623673 0.812500
vt 0.673680 0.375000
vt 0.639230 0.312500
vt 0.640625 1.000000
vt 0.479138 0.937500
vt 0.639064 0.437500
vt 0.612180 0.375000
vt 0.595563 0.750000
vt 0.606567 0.500000
vt 0.603325 0.667055
vt 0.578286 0.562500
vt 0.578286 0.437500
vt 0.577540 0.283466
vt 0.543444 0.396147
vt 0.512752 0.812500
vt 0.546915 0.655822
vt 0.503540 0.125000
vt 0.660224 0.125000
vt 0.544067 0.500000
vt 0.509405 0.537235
vt 0.515588 0.281661
vt 0.510998 0.724803
vt 0.449506 0.875000
vt 0.487180 0.625000
vt 0.453286 0.562500
vt 0.450317 0.500000
vt 0.485851 0.406417
vt 0.453088 0.281661
vt 0.455926 0.750000
vt 0.445771 0.665313
vt 0.799126 0.125000
vt 0.779637 0.187500
vt 0.402284 0.812500
vt 0.497588 0.187500
vt 0.386121 0.187500
vt 0.328120 0.062500
vt 0.453125 0.000000
vt 0.437500 0.406180
vt 0.347717 0.125000
vt 0.390588 0.718339
vt 0.293360 0.875000
vt 0.308534 0.812500
vt 0.316528 0.750000
vt 0.343750 0.656371
vt 0.393429 0.625000
vt 0.296915 0.655822
vt 0.343750 0.531273
vt 0.297036 0.562500
vt 0.294067 0.500000
vt 0.328125 1.000000
vt 0.230145 0.937500
vt 0.328286 0.437500
vt 0.296914 0.344178
vt 0.343750 0.343629
vt 0.265786 0.437500
vt 0.234338 0.281661
vt 0.296902 0.219059
vt 0.214815 0.187500
vt 0.237180 0.375000
vt 0.199790 0.812500
vt 0.237635 0.520573
vt 0.203286 0.437500
vt 0.237180 0.625000
vt 0.203286 0.562500
vt 0.190964 0.125000
vt 0.113605 0.062500
vt 0.169067 0.500000
vt 0.203125 0.000000
vt 0.137012 0.875000
vt 0.176363 0.337227
vt 0.171838 0.718339
vt 0.234338 0.718339
vt 0.148421 0.399333
vt 0.160278 0.250000
vt 0.121065 0.187500
vt 0.174680 0.625000
vt 0.134405 0.537235
vt 0.140625 1.000000
vt 0.030235 0.937500
vt 0.075252 0.812500
vt 0.102021 0.334687
vt 0.109536 0.437500
vt 0.066529 0.250000
vt 0.055088 0.153620
vt 0.112179 0.625000
vt 0.078286 0.562500
vt 0.075317 0.500000
vt 0.047036 0.437500
vt 0.032456 0.875000
vt 0.048167 0.750000
vt 0.108913 0.719958
vt 0.062500 0.658651
vt 0.015664 0.655822
vt 0.018885 0.520574
vt 0.000000 0.562500
vt 0.015625 0.000000
vt 0.000000 0.062500
vt 0.000000 0.399333
vt 0.046914 0.344178
vt 0.000000 0.784407
vt 0.000000 0.273040
vt 0.991904 0.273040
vt 0.992171 0.399333
vt 0.937867 0.282145
vt 1.000000 0.655822
vt 0.975379 0.784407
vt 0.953164 0.655822
vt 1.000000 0.500000
vt 0.984536 0.562500
vt 0.950317 0.500000
vt 0.953286 0.437500
vt 0.924679 0.375000
vt 0.915655 0.537235
vt 0.910279 0.750000
vt 0.906250 0.656371
vt 0.965747 0.187500
vt 0.868449 0.212346
vt 0.978825 0.875000
vt 0.921769 0.937500
vt 0.872374 0.843190
vt 0.887823 0.312500
vt 0.859536 0.562500
vt 0.856567 0.500000
vt 0.890786 0.437500
vt 0.855944 0.396148
vt 0.859414 0.655822
vt 0.939862 0.125000
vt 0.812867 0.282145
vt 0.814726 0.750000
vt 0.796945 0.653777
vt 0.828125 1.000000
vt 0.798190 0.375000
vt 0.797036 0.437500
vt 0.390786 0.562500
vt 0.387817 0.500000
vt 0.390786 0.437500
vt 0.390665 0.344178
vt 0.378980 0.250000
vt 0.000000 0.125000
vt 0.000000 0.187500
vt 0.801816 0.543181
s 0
f 2/1/1 6/2/1 13/3/1
f 11/4/2 14/5/2 4/6/2
f 8/7/3 9/8/3 3/9/3
f 5/10/4 127/11/4 44/12/4
f 9/8/5 16/13/5 10/14/5
f 139/15/6 32/16/6 6/2/6
f 14/5/7 21/17/7 12/18/7
f 7/19/8 15/20/8 8/7/8
f 12/18/9 21/17/9 31/21/9
f 15/20/10 18/22/10 9/8/10
f 32/16/11 22/23/11 13/3/11
f 14/5/12 17/24/12 20/25/12
f 139/15/13 1/26/13 59/27/13
f 19/28/14 25/29/14 17/24/14
f 22/23/15 27/30/15 13/3/15
f 16/13/16 18/22/16 24/31/16
f 18/22/17 23/32/17 28/33/17
f 24/31/18 29/34/18 19/28/18
f 20/25/19 25/29/19 30/35/19
f 20/25/20 30/35/20 21/17/20
f 29/34/21 35/36/21 25/29/21
f 32/16/22 41/37/22 22/23/22
f 23/32/23 27/30/23 33/38/23
f 31/21/24 51/39/24 26/40/24
f 24/31/25 28/33/25 34/41/25
f 28/33/26 33/38/26 37/42/26
f 34/41/27 35/36/27 29/34/27
f 30/35/28 35/36/28 38/43/28
f 41/37/29 36/44/29 27/30/29
f 32/16/30 59/27/30 40/45/30
f 37/42/31 42/46/31 47/47/31
f 37/42/32 47/47/32 48/48/32
f 38/43/33 43/49/33 50/50/33
f 41/37/34 45/51/34 36/44/34
f 36/44/35 45/51/35 46/52/35
f 26/40/36 146/53/36 145/54/36 12/18/36
f 41/37/37 40/45/37 52/55/37
f 39/56/38 50/50/38 64/57/38
f 44/12/39 51/39/39 76/58/39
f 5/59/40 44/12/40 76/58/40
f 48/48/41 49/60/41 43/49/41
f 64/57/42 73/61/42 51/39/42
f 52/55/43 54/62/43 45/51/43
f 59/27/44 77/63/44 40/45/44
f 52/55/45 77/63/45 67/64/45
f 54/62/46 68/65/46 60/66/46
f 54/62/47 60/66/47 55/67/47
f 60/66/48 68/65/48 69/68/48
f 61/69/49 65/70/49 70/71/49
f 59/27/50 1/72/50 82/73/50
f 66/74/51 71/75/51 62/76/51
f 70/71/52 75/77/52 66/74/52
f 71/75/53 81/78/53 72/79/53
f 72/79/54 81/78/54 87/80/54
f 75/77/55 80/81/55 71/75/55
f 67/64/56 77/63/56 88/82/56
f 71/75/57 80/81/57 81/78/57
f 74/83/58 85/84/58 75/77/58
f 74/83/59 79/85/59 83/86/59
f 96/87/60 111/88/60 76/58/60
f 74/83/61 83/86/61 84/89/61
f 5/90/62 76/58/62 111/88/62
f 77/63/63 82/73/63 92/91/63
f 85/84/64 86/92/64 80/81/64
f 88/82/65 89/93/65 78/94/65
f 84/89/66 95/95/66 85/84/66
f 85/84/67 95/95/67 86/92/67
f 87/80/68 91/96/68 100/97/68
f 83/86/69 90/98/69 93/99/69
f 82/73/70 1/100/70 131/101/70
f 92/91/71 105/102/71 88/82/71
f 86/92/72 95/95/72 99/103/72
f 94/104/73 99/103/73 95/95/73
f 99/103/74 109/105/74 91/96/74
f 100/97/75 110/106/75 96/87/75
f 93/99/76 98/107/76 102/108/76
f 93/99/77 102/108/77 103/109/77
f 103/109/78 108/110/78 94/104/78
f 131/101/79 118/111/79 92/91/79
f 105/102/80 106/112/80 97/113/80
f 100/97/81 109/105/81 110/106/81
f 97/113/82 101/114/82 98/107/82
f 101/114/83 106/112/83 112/115/83
f 107/116/84 112/115/84 115/117/84
f 5/118/85 111/88/85 127/119/85
f 107/116/86 113/120/86 108/110/86
f 108/110/87 113/120/87 104/121/87
f 105/102/88 118/111/88 114/122/88
f 104/121/89 113/120/89 116/123/89
f 105/102/90 114/122/90 106/112/90
f 104/121/91 116/123/91 109/105/91
f 116/124/92 113/125/92 126/126/92
f 112/127/93 114/128/93 119/129/93
f 107/130/94 115/131/94 120/132/94
f 121/133/95 125/134/95 113/125/95
f 115/131/96 119/129/96 124/135/96
f 119/129/97 128/136/97 123/137/97
f 122/138/98 126/126/98 137/139/98
f 118/140/99 131/141/99 132/142/99
f 118/140/100 132/142/100 114/128/100
f 126/126/101 125/134/101 130/143/101
f 124/135/102 134/144/102 135/145/102
f 129/146/103 136/147/103 125/134/103
f 130/143/104 137/139/104 126/126/104
f 123/137/105 128/136/105 133/148/105
f 137/139/106 146/53/106 117/149/106
f 135/145/107 136/147/107 129/146/107
f 130/143/108 136/147/108 138/150/108
f 132/142/109 140/151/109 128/136/109
f 133/148/110 140/151/110 141/152/110
f 137/139/111 138/150/111 145/54/111
f 131/141/112 1/153/112 139/15/112
f 138/150/113 144/154/113 4/6/113
f 140/151/114 2/1/114 7/19/114
f 4/6/115 12/18/115 138/150/115
f 141/152/116 7/19/116 8/7/116
f 3/9/117 10/14/117 143/155/117
f 3/9/118 9/8/118 10/14/118
f 7/19/119 2/1/119 13/3/119
f 4/6/120 14/5/120 12/18/120
f 44/12/121 127/11/121 146/53/121 26/40/121
f 17/24/122 11/4/122 10/14/122 16/13/122
f 23/32/123 15/20/123 13/3/123 27/30/123
f 6/2/124 32/16/124 13/3/124
f 11/4/125 17/24/125 14/5/125
f 7/19/126 13/3/126 15/20/126
f 9/8/127 8/7/127 15/20/127
f 21/17/128 14/5/128 20/25/128
f 12/18/129 31/21/129 26/40/129
f 9/8/130 18/22/130 16/13/130
f 16/13/131 19/28/131 17/24/131
f 16/13/132 24/31/132 19/28/132
f 139/15/133 59/27/133 32/16/133
f 20/25/134 17/24/134 25/29/134
f 38/43/135 39/56/135 31/21/135 30/35/135
f 15/20/136 23/32/136 18/22/136
f 21/17/137 30/35/137 31/21/137
f 24/31/138 18/22/138 28/33/138
f 19/28/139 29/34/139 25/29/139
f 24/31/140 34/41/140 29/34/140
f 30/35/141 25/29/141 35/36/141
f 22/23/142 41/37/142 27/30/142
f 28/33/143 23/32/143 33/38/143
f 44/12/144 26/40/144 51/39/144
f 43/49/145 35/36/145 34/41/145 37/42/145
f 51/39/146 31/21/146 39/56/146
f 34/41/147 28/33/147 37/42/147
f 33/38/148 27/30/148 36/44/148
f 32/16/149 40/45/149 41/37/149
f 38/43/150 35/36/150 43/49/150
f 33/38/151 36/44/151 42/46/151
f 37/42/152 33/38/152 42/46/152
f 55/67/153 56/156/153 47/47/153 46/52/153
f 36/44/154 46/52/154 42/46/154
f 37/42/155 48/48/155 43/49/155
f 39/56/156 38/43/156 50/50/156
f 50/50/157 43/49/157 49/60/157
f 41/37/158 52/55/158 45/51/158
f 39/56/159 64/57/159 51/39/159
f 47/47/160 42/46/160 46/52/160
f 56/156/161 57/157/161 48/48/161 47/47/161
f 51/39/162 73/61/162 76/58/162
f 58/158/163 49/60/163 48/48/163 57/157/163
f 66/74/164 58/158/164 57/157/164 61/69/164
f 49/60/165 58/158/165 53/159/165
f 50/50/166 49/60/166 53/159/166
f 50/50/167 53/159/167 63/160/167
f 46/52/168 45/51/168 54/62/168
f 64/57/169 50/50/169 63/160/169
f 46/52/170 54/62/170 55/67/170
f 40/45/171 77/63/171 52/55/171
f 57/157/172 56/156/172 61/69/172
f 62/76/173 53/159/173 58/158/173 66/74/173
f 68/65/174 54/62/174 52/55/174 67/64/174
f 60/66/175 61/69/175 56/156/175 55/67/175
f 53/159/176 62/76/176 63/160/176
f 72/79/177 63/160/177 62/76/177 71/75/177
f 69/68/178 65/70/178 61/69/178 60/66/178
f 64/57/179 63/160/179 72/79/179
f 64/57/180 72/79/180 73/61/180
f 96/87/181 73/61/181 72/79/181 87/80/181
f 61/69/182 70/71/182 66/74/182
f 59/27/183 82/73/183 77/63/183
f 66/74/184 75/77/184 71/75/184
f 69/68/185 68/65/185 78/94/185
f 69/68/186 78/94/186 79/85/186
f 79/85/187 74/83/187 65/70/187 69/68/187
f 78/94/188 68/65/188 67/64/188 88/82/188
f 76/58/189 73/61/189 96/87/189
f 70/71/190 65/70/190 74/83/190
f 70/71/191 74/83/191 75/77/191
f 90/98/192 79/85/192 78/94/192 89/93/192
f 75/77/193 85/84/193 80/81/193
f 87/80/194 81/78/194 91/96/194
f 98/107/195 90/98/195 89/93/195 97/113/195
f 83/86/196 79/85/196 90/98/196
f 74/83/197 84/89/197 85/84/197
f 77/63/198 92/91/198 88/82/198
f 81/78/199 80/81/199 86/92/199
f 81/78/200 86/92/200 91/96/200
f 87/80/201 100/97/201 96/87/201
f 84/89/202 83/86/202 93/99/202
f 94/104/203 95/95/203 84/89/203 93/99/203
f 93/99/204 90/98/204 98/107/204
f 97/113/205 89/93/205 88/82/205 105/102/205
f 82/73/206 131/101/206 92/91/206
f 104/121/207 99/103/207 94/104/207 108/110/207
f 86/92/208 99/103/208 91/96/208
f 100/97/209 91/96/209 109/105/209
f 96/87/210 110/106/210 111/88/210
f 93/99/211 103/109/211 94/104/211
f 102/108/212 98/107/212 101/114/212
f 112/115/213 107/116/213 102/108/213 101/114/213
f 92/91/214 118/111/214 105/102/214
f 99/103/215 104/121/215 109/105/215
f 97/113/216 106/112/216 101/114/216
f 127/119/217 111/88/217 110/106/217 117/161/217
f 103/109/218 102/108/218 107/116/218
f 103/109/219 107/116/219 108/110/219
f 116/123/220 122/162/220 110/106/220 109/105/220
f 112/115/221 106/112/221 114/122/221
f 121/133/222 113/125/222 107/130/222 120/132/222
f 110/106/223 122/162/223 117/161/223
f 115/131/224 112/127/224 119/129/224
f 129/146/225 121/133/225 120/132/225 124/135/225
f 120/132/226 115/131/226 124/135/226
f 126/126/227 113/125/227 125/134/227
f 119/129/228 114/128/228 128/136/228
f 122/138/229 116/124/229 126/126/229
f 114/128/230 132/142/230 128/136/230
f 117/149/231 122/138/231 137/139/231
f 124/135/232 119/129/232 123/137/232
f 133/148/233 134/144/233 124/135/233 123/137/233
f 121/133/234 129/146/234 125/134/234
f 124/135/235 135/145/235 129/146/235
f 130/143/236 125/134/236 136/147/236
f 143/155/237 136/147/237 135/145/237 142/163/237
f 130/143/238 138/150/238 137/139/238
f 133/148/239 128/136/239 140/151/239
f 117/149/240 146/53/240 127/11/240
f 139/15/241 6/2/241 132/142/241 131/141/241
f 141/152/242 142/163/242 134/144/242 133/148/242
f 136/147/243 143/155/243 144/154/243
f 132/142/244 6/2/244 2/1/244
f 138/150/245 136/147/245 144/154/245
f 132/142/246 2/1/246 140/151/246
f 137/139/247 145/54/247 146/53/247
f 11/4/248 144/154/248 143/155/248 10/14/248
f 135/145/249 134/144/249 142/163/249
f 142/163/250 3/9/250 143/155/250
f 144/154/251 11/4/251 4/6/251
f 141/152/252 140/151/252 7/19/252
f 145/54/253 138/150/253 12/18/253
f 142/163/254 141/152/254 8/7/254
f 3/9/255 142/163/255 8/7/255
