# Blender 5.0.0
# www.blender.org
mtllib prep_throw_ball0015.mtl
o Sphere
v -2.360475 6.134848 1.368560
v -2.354223 5.760102 0.888785
v -2.566440 4.802148 0.659696
v -2.849846 4.422193 0.923093
v -3.232498 4.457828 1.754789
v -2.298659 5.880487 1.033915
v -2.217776 5.382557 0.786495
v -2.322353 5.025184 0.689841
v -2.216856 4.761712 0.815766
v -2.502126 4.580602 0.781770
v -2.607596 4.455119 0.866033
v -2.858633 4.269753 1.205699
v -2.052535 5.538048 1.008969
v -2.586199 4.319045 1.058730
v -2.020033 5.136130 0.919886
v -2.162880 4.568920 0.993971
v -2.352599 4.376963 1.077585
v -1.933189 4.916250 1.077605
v -2.130339 4.479587 1.181076
v -2.403436 4.278608 1.314348
v -2.609308 4.231585 1.328548
v -1.981907 5.633187 1.208752
v -1.841115 5.163269 1.253026
v -1.950742 4.656465 1.313316
v -2.193372 4.377931 1.377270
v -2.925184 4.263685 1.531540
v -1.878527 5.458266 1.294222
v -1.846154 4.872195 1.443255
v -2.018065 4.541587 1.519396
v -2.384199 4.300084 1.631099
v -2.686154 4.238027 1.585322
v -2.067056 5.835203 1.288811
v -1.802499 5.219495 1.560669
v -1.909326 4.767468 1.683853
v -2.088252 4.523370 1.731484
v -1.860249 5.513209 1.677427
v -1.894795 4.960372 1.857412
v -2.408203 4.413373 1.912335
v -2.702568 4.377655 1.938196
v -2.123024 5.987456 1.627216
v -1.957134 5.759040 1.566745
v -1.883663 5.289835 1.897843
v -2.148300 4.707574 2.046112
v -3.051396 4.344442 1.716877
v -1.980501 5.719981 1.848478
v -1.979959 5.532350 2.023482
v -2.014362 5.234447 2.124456
v -2.096752 5.076197 2.187697
v -2.287963 4.878425 2.258772
v -2.527109 4.583907 2.163883
v -2.879125 4.359314 1.877833
v -2.152162 5.981729 1.851547
v -2.603385 4.916389 2.400685
v -2.172244 5.852896 2.095749
v -2.201192 5.630117 2.260077
v -2.268740 5.483804 2.352140
v -2.360348 5.331165 2.414426
v -2.440651 5.153196 2.428281
v -2.209994 6.058056 1.467552
v -2.405052 5.881059 2.295330
v -2.561730 5.602344 2.477090
v -2.818363 5.086206 2.478390
v -2.829973 4.749207 2.317928
v -2.923922 4.616866 2.200300
v -2.761317 5.839629 2.451490
v -2.762287 5.399179 2.529827
v -2.425869 6.187929 1.929554
v -2.445578 6.118325 2.096900
v -2.633292 6.035210 2.307832
v -2.864728 5.691603 2.505632
v -3.047880 5.237899 2.491458
v -3.163879 4.886666 2.314497
v -3.111713 4.596962 2.102950
v -3.149201 5.919507 2.384831
v -3.102216 5.604339 2.489778
v -3.200529 4.527416 1.943260
v -2.417544 6.230200 1.740790
v -2.822634 6.269182 2.082978
v -2.974116 6.131873 2.263832
v -3.310021 5.485880 2.412608
v -3.379828 5.197620 2.329766
v -2.451420 6.234557 1.537237
v -3.236775 6.068050 2.238087
v -3.472058 5.949800 2.142760
v -3.408686 5.737443 2.314228
v -3.581643 5.453336 2.193109
v -3.429237 4.930609 2.151409
v -2.741624 6.345558 1.801111
v -3.036443 6.338108 1.896154
v -3.232860 6.218952 2.047607
v -3.606965 5.163633 2.079801
v -2.694897 6.327266 1.545486
v -3.527316 6.050749 1.947612
v -3.706769 5.761467 1.860001
v -3.643252 5.662729 2.077989
v -3.427772 4.760432 2.001366
v -3.171307 6.330001 1.639622
v -3.399600 6.214745 1.746080
v -3.754669 5.433950 1.857861
v -3.614589 4.959561 1.906642
v -3.368346 6.204782 1.467995
v -3.574908 6.051089 1.603954
v -3.679913 5.892158 1.626001
v -3.790474 5.373182 1.562680
v -2.916306 6.330745 1.434398
v -3.110022 6.271364 1.355503
v -3.627752 5.812197 1.263376
v -3.753650 5.656842 1.497101
v -3.735053 5.108013 1.707316
v -3.597044 4.796803 1.690053
v -3.392066 4.603508 1.809855
v -3.352166 6.094983 1.217319
v -3.713104 5.390048 1.223264
v -2.946468 6.156534 1.095774
v -3.495988 5.802776 1.073687
v -3.701546 5.026693 1.365747
v -3.456680 4.587347 1.481936
v -2.708729 6.224647 1.230993
v -3.218803 5.901342 0.928807
v -3.496220 5.516479 0.935652
v -3.578610 5.358229 0.998894
v -3.578300 4.755131 1.413084
v -3.052465 5.731770 0.767101
v -3.313164 5.476904 0.777472
v -3.520360 5.081620 0.959587
v -3.590194 4.897179 1.166855
v -3.305865 4.457119 1.575795
v -2.867826 5.934970 0.868983
v -3.324232 5.108872 0.771210
v -3.401715 4.799569 0.961742
v -2.525935 6.192181 1.279798
v -2.574588 5.988402 0.964467
v -2.849504 5.562639 0.660928
v -2.997008 5.313645 0.627069
v -3.072940 5.133550 0.642817
v -3.205101 4.880929 0.748928
v -3.355843 4.563233 1.158825
v -3.115198 4.508612 0.948877
v -2.289751 6.005645 1.203208
v -2.516252 5.671589 0.754511
v -2.545093 5.354776 0.631892
v -2.698601 5.024796 0.594508
v -2.831658 4.753047 0.671860
v -2.925603 4.616368 0.765420
v -3.079378 4.351470 1.210442
v -3.184770 4.374195 1.375470
vn 0.6066 0.4821 -0.6321
vn -0.0242 -0.8179 -0.5749
vn 0.3644 -0.2787 -0.8885
vn -0.4886 -0.8484 0.2036
vn 0.4313 -0.5443 -0.7195
vn 0.6424 0.5997 -0.4772
vn 0.0061 -0.9514 -0.3079
vn 0.5950 0.0430 -0.8026
vn -0.1427 -0.9896 -0.0179
vn 0.7203 -0.1934 -0.6662
vn 0.7169 0.4962 -0.4897
vn 0.2522 -0.9116 -0.3245
vn 0.5906 0.7388 -0.3247
vn 0.5031 -0.8227 -0.2646
vn 0.8511 0.2888 -0.4384
vn 0.8018 -0.4304 -0.4146
vn 0.9521 -0.1787 -0.2482
vn 0.7415 -0.6592 -0.1253
vn 0.4183 -0.9076 0.0361
vn 0.2258 -0.9728 0.0522
vn 0.6145 -0.7770 0.1366
vn 0.8652 0.4513 -0.2185
vn 0.9781 0.1449 -0.1493
vn -0.1651 -0.9448 0.2829
vn 0.8905 -0.4536 0.0364
vn 0.9732 -0.1735 0.1512
vn 0.8068 -0.5485 0.2199
vn 0.4797 -0.7989 0.3628
vn 0.9398 0.3290 -0.0920
vn 0.7737 0.6158 -0.1491
vn 0.8721 -0.0885 0.4813
vn 0.8048 -0.1950 0.5605
vn 0.4110 -0.6525 0.6366
vn 0.9005 0.4144 0.1321
vn 0.9114 0.2821 0.2997
vn -0.3457 -0.9341 -0.0894
vn 0.8181 0.5622 0.1206
vn 0.0006 -0.7384 0.6744
vn -0.3429 -0.8281 0.4435
vn -0.4339 -0.8188 0.3759
vn 0.6251 -0.3545 0.6954
vn -0.2231 -0.7765 0.5892
vn 0.7894 0.5138 0.3360
vn 0.6350 0.7725 -0.0043
vn 0.6251 0.7553 0.1967
vn 0.5684 0.5828 0.5808
vn 0.6214 0.4112 0.6669
vn 0.4517 0.6165 0.6449
vn 0.1604 0.2383 0.9579
vn 0.5429 0.8179 -0.1908
vn -0.0456 -0.1540 0.9870
vn -0.0856 0.0523 0.9950
vn -0.3856 -0.3104 0.8689
vn -0.5268 -0.4026 0.7486
vn -0.3257 -0.0440 0.9445
vn 0.3631 0.9057 0.2188
vn -0.4171 -0.1563 0.8953
vn -0.4047 0.2340 0.8840
vn -0.2236 0.6151 0.7561
vn -0.5817 -0.6790 0.4479
vn -0.5159 0.4286 0.7417
vn -0.5538 -0.7462 0.3695
vn 0.3544 0.9343 -0.0390
vn -0.6316 0.0548 0.7734
vn 0.0656 0.9582 0.2785
vn -0.7234 0.2900 0.6266
vn -0.7251 0.1555 0.6708
vn -0.7492 -0.4120 0.5186
vn -0.5506 0.6598 0.5114
vn 0.4409 0.8565 -0.2686
vn 0.0471 0.9969 -0.0627
vn -0.8884 -0.0090 0.4590
vn -0.9334 0.1343 0.3328
vn -0.9133 -0.2148 0.3461
vn -0.7605 -0.5472 0.3496
vn -0.7213 0.6853 0.1006
vn -0.8215 0.5586 0.1143
vn -0.9600 0.2766 0.0443
vn 0.2460 0.9182 -0.3104
vn -0.1946 0.9515 -0.2383
vn -0.8842 -0.4050 0.2327
vn -0.4804 0.8729 -0.0853
vn -0.3857 0.8357 -0.3909
vn -0.6632 0.5667 -0.4888
vn -0.6041 -0.7565 0.2506
vn -0.9123 0.2174 -0.3469
vn -0.9730 0.0759 -0.2180
vn 0.0057 0.8890 -0.4579
vn -0.9667 -0.1195 -0.2263
vn -0.0895 0.8889 -0.4493
vn -0.9732 -0.2261 -0.0416
vn -0.9037 -0.1809 -0.3881
vn -0.2965 0.7239 -0.6229
vn -0.7845 0.2698 -0.5583
vn -0.8593 -0.1100 -0.4995
vn -0.5315 0.3868 -0.7536
vn -0.1908 0.5730 -0.7971
vn -0.7895 -0.5474 -0.2776
vn 0.2863 0.7840 -0.5508
vn 0.1309 0.7737 -0.6199
vn -0.7682 -0.3274 -0.5501
vn -0.3919 0.0851 -0.9161
vn -0.6475 -0.2687 -0.7131
vn -0.7407 -0.5092 -0.4383
vn -0.0523 0.4852 -0.8729
vn -0.6450 -0.7502 -0.1453
vn -0.4392 -0.1428 -0.8870
vn -0.5348 -0.4964 -0.6838
vn 0.1603 0.5656 -0.8089
vn 0.1474 0.3453 -0.9268
vn -0.5132 -0.7649 -0.3893
vn 0.4844 0.7778 -0.4006
vn -0.2845 -0.6688 -0.6869
vn 0.4566 0.3826 -0.8032
vn -0.3152 -0.8311 -0.4581
vn 0.4154 0.1222 -0.9014
vn 0.0469 -0.4716 -0.8806
vn 0.3412 -0.3757 -0.8616
vn 0.5784 0.4014 -0.7102
vn -0.0979 -0.8746 -0.4748
vn -0.4422 -0.8919 0.0950
vn 0.3583 -0.6745 -0.6455
vn 0.8614 0.1755 -0.4767
vn 0.6750 0.5231 -0.5204
vn 0.2401 -0.7802 -0.5776
vn 0.7109 0.2065 -0.6723
vn 0.6281 -0.1162 -0.7694
vn 0.1944 -0.9379 -0.2874
vn -0.0981 -0.9944 -0.0385
vn 0.7312 -0.3413 -0.5907
vn 0.5368 -0.7212 -0.4377
vn 0.7758 -0.5062 -0.3766
vn 0.6505 0.6833 -0.3317
vn 0.4740 -0.8446 -0.2491
vn 0.1378 -0.9169 0.3745
vn 0.8807 0.0081 -0.4736
vn 0.1888 -0.9787 0.0811
vn 0.9215 -0.2933 -0.2547
vn 0.7268 -0.6768 -0.1172
vn 0.8896 -0.4552 0.0369
vn 0.5565 -0.8135 0.1689
vn 0.8832 0.4200 -0.2088
vn 0.9902 -0.0879 -0.1082
vn -0.1844 -0.9408 0.2843
vn 0.7719 -0.4662 0.4321
vn -0.0287 -0.9299 0.3666
vn 0.9634 -0.2157 0.1591
vn 0.9719 0.2222 -0.0782
vn 0.7823 0.6061 -0.1433
vn 0.5213 -0.6893 0.5031
vn 0.9715 0.1069 0.2116
vn 0.9672 -0.0629 0.2459
vn 0.7369 0.1199 0.6652
vn 0.9279 0.2081 0.3095
vn 0.7516 -0.3255 0.5737
vn 0.1481 -0.7847 0.6020
vn 0.4073 -0.5625 0.7195
vn 0.8283 0.5415 0.1438
vn -0.1266 -0.7836 0.6083
vn 0.8558 0.0747 0.5118
vn 0.6345 -0.0436 0.7717
vn -0.3106 -0.7961 0.5194
vn 0.5317 -0.1981 0.8234
vn 0.2709 -0.0315 0.9621
vn 0.3509 -0.3427 0.8715
vn 0.3025 -0.5059 0.8078
vn 0.1126 -0.5592 0.8214
vn 0.8166 0.3950 0.4209
vn 0.0126 -0.6693 0.7429
vn 0.7541 0.3235 0.5715
vn 0.6562 0.7473 0.1043
vn 0.4272 0.1098 0.8975
vn 0.1642 -0.2041 0.9651
vn 0.6340 0.6708 0.3847
vn 0.4785 0.2831 0.8312
vn -0.0129 -0.4295 0.9030
vn -0.1916 -0.4032 0.8948
vn 0.3311 0.3906 0.8590
vn -0.2338 -0.5479 0.8032
vn -0.3190 -0.5957 0.7371
vn -0.5001 -0.5705 0.6515
vn 0.1300 0.1269 0.9834
vn 0.5736 0.8154 -0.0780
vn -0.1253 -0.0140 0.9920
vn 0.2891 0.7746 0.5625
vn 0.1236 0.7378 0.6636
vn 0.0038 0.5423 0.8402
vn 0.3178 0.8785 0.3567
vn -0.5149 -0.6434 0.5666
vn -0.0774 0.3897 0.9177
vn -0.1690 0.2886 0.9424
vn -0.1476 0.8517 0.5028
vn -0.4299 0.1776 0.8852
vn -0.6805 -0.3158 0.6613
vn -0.3847 0.9037 0.1879
vn -0.2440 0.7626 0.5991
vn -0.5110 0.4425 0.7369
vn 0.3343 0.9424 -0.0063
vn -0.6215 -0.0737 0.7800
vn -0.7112 -0.2013 0.6736
vn -0.7364 -0.4510 0.5043
vn -0.5421 0.6738 0.5021
vn -0.8196 0.3869 0.4226
vn -0.5472 0.7845 0.2916
vn -0.0275 0.9994 -0.0231
vn 0.3375 0.9083 -0.2472
vn -0.9855 0.1457 0.0872
vn -0.8814 -0.1032 0.4609
vn -0.8999 -0.2622 0.3486
vn -0.7427 -0.5792 0.3361
vn -0.8596 0.4817 0.1704
vn -0.6351 0.7661 -0.0988
vn -0.6989 0.6342 -0.3307
vn 0.1714 0.9343 -0.3124
vn -0.9814 -0.1260 0.1450
vn -0.3458 0.9014 -0.2606
vn -0.7178 -0.6740 0.1746
vn -0.8261 0.5136 -0.2321
vn -0.8917 0.3977 -0.2160
vn -0.9126 -0.4089 0.0042
vn -0.2803 0.8002 -0.5303
vn -0.8229 0.2169 -0.5252
vn -0.8154 -0.5780 0.0318
vn -0.5306 0.5697 -0.6276
vn -0.6488 0.0329 -0.7602
vn -0.5647 0.3588 -0.7432
vn -0.8791 -0.1682 -0.4459
vn -0.1867 0.6696 -0.7189
vn -0.8765 -0.4341 -0.2081
vn 0.0889 0.7277 -0.6801
vn -0.7565 -0.6260 -0.1894
vn -0.4101 0.3858 -0.8264
vn -0.2815 0.2710 -0.9205
vn -0.6890 -0.0423 -0.7235
vn -0.4570 0.0289 -0.8890
vn -0.6499 -0.2788 -0.7070
vn -0.2278 -0.2169 -0.9492
vn -0.6082 -0.5747 -0.5476
vn 0.0838 0.4892 -0.8681
vn -0.6304 -0.7739 -0.0607
vn 0.4123 0.7303 -0.5447
vn -0.0005 0.1224 -0.9925
vn -0.3105 -0.3823 -0.8703
vn 0.4105 0.6184 -0.6701
vn -0.4343 -0.5053 -0.7457
vn 0.3225 0.5634 -0.7606
vn -0.5594 -0.7908 -0.2483
vn -0.0146 -0.5536 -0.8326
vn -0.1363 -0.0291 -0.9902
vn 0.0072 -0.2770 -0.9608
vn -0.0898 -0.6487 -0.7557
vn 0.3860 0.3022 -0.8716
vn -0.3176 -0.8314 -0.4560
vn 0.2456 -0.0044 -0.9694
vn 0.2434 -0.1366 -0.9602
vt 0.781230 0.812500
vt 0.762032 0.875000
vt 0.685473 0.777944
vt 0.734697 0.375000
vt 0.703125 0.312500
vt 0.764235 0.312500
vt 0.741874 0.599249
vt 0.704616 0.531266
vt 0.763980 0.500000
vt 0.734375 0.000000
vt 0.879629 0.062500
vt 0.593677 0.062500
vt 0.670132 0.472235
vt 0.734536 0.437500
vt 0.734224 0.937500
vt 0.605595 0.875000
vt 0.658359 0.250000
vt 0.719918 0.218999
vt 0.734375 0.717281
vt 0.678319 0.660608
vt 0.606077 0.187500
vt 0.641330 0.592355
vt 0.623673 0.812500
vt 0.673680 0.375000
vt 0.639230 0.312500
vt 0.640625 1.000000
vt 0.479138 0.937500
vt 0.639064 0.437500
vt 0.612180 0.375000
vt 0.595563 0.750000
vt 0.606567 0.500000
vt 0.603325 0.667055
vt 0.578286 0.562500
vt 0.578286 0.437500
vt 0.577540 0.283466
vt 0.543444 0.396147
vt 0.512752 0.812500
vt 0.546915 0.655822
vt 0.503540 0.125000
vt 0.660224 0.125000
vt 0.544067 0.500000
vt 0.509405 0.537235
vt 0.515588 0.281661
vt 0.510998 0.724803
vt 0.449506 0.875000
vt 0.487180 0.625000
vt 0.453286 0.562500
vt 0.450317 0.500000
vt 0.485851 0.406417
vt 0.453088 0.281661
vt 0.455926 0.750000
vt 0.445771 0.665313
vt 0.799126 0.125000
vt 0.779637 0.187500
vt 0.402284 0.812500
vt 0.497588 0.187500
vt 0.386121 0.187500
vt 0.328120 0.062500
vt 0.453125 0.000000
vt 0.437500 0.406180
vt 0.347717 0.125000
vt 0.390588 0.718339
vt 0.293360 0.875000
vt 0.308534 0.812500
vt 0.316528 0.750000
vt 0.343750 0.656371
vt 0.393429 0.625000
vt 0.296915 0.655822
vt 0.343750 0.531273
vt 0.297036 0.562500
vt 0.294067 0.500000
vt 0.328125 1.000000
vt 0.230145 0.937500
vt 0.328286 0.437500
vt 0.296914 0.344178
vt 0.343750 0.343629
vt 0.265786 0.437500
vt 0.234338 0.281661
vt 0.296902 0.219059
vt 0.214815 0.187500
vt 0.237180 0.375000
vt 0.199790 0.812500
vt 0.237635 0.520573
vt 0.203286 0.437500
vt 0.237180 0.625000
vt 0.203286 0.562500
vt 0.190964 0.125000
vt 0.113605 0.062500
vt 0.169067 0.500000
vt 0.203125 0.000000
vt 0.137012 0.875000
vt 0.176363 0.337227
vt 0.171838 0.718339
vt 0.234338 0.718339
vt 0.148421 0.399333
vt 0.160278 0.250000
vt 0.121065 0.187500
vt 0.174680 0.625000
vt 0.134405 0.537235
vt 0.140625 1.000000
vt 0.030235 0.937500
vt 0.075252 0.812500
vt 0.102021 0.334687
vt 0.109536 0.437500
vt 0.066529 0.250000
vt 0.055088 0.153620
vt 0.112179 0.625000
vt 0.078286 0.562500
vt 0.075317 0.500000
vt 0.047036 0.437500
vt 0.032456 0.875000
vt 0.048167 0.750000
vt 0.108913 0.719958
vt 0.062500 0.658651
vt 0.015664 0.655822
vt 0.018885 0.520574
vt 0.000000 0.562500
vt 0.015625 0.000000
vt 0.000000 0.062500
vt 0.000000 0.399333
vt 0.046914 0.344178
vt 0.000000 0.784407
vt 0.000000 0.273040
vt 0.991904 0.273040
vt 0.992171 0.399333
vt 0.937867 0.282145
vt 1.000000 0.655822
vt 0.975379 0.784407
vt 0.953164 0.655822
vt 1.000000 0.500000
vt 0.984536 0.562500
vt 0.950317 0.500000
vt 0.953286 0.437500
vt 0.924679 0.375000
vt 0.915655 0.537235
vt 0.910279 0.750000
vt 0.906250 0.656371
vt 0.965747 0.187500
vt 0.868449 0.212346
vt 0.978825 0.875000
vt 0.921769 0.937500
vt 0.872374 0.843190
vt 0.887823 0.312500
vt 0.859536 0.562500
vt 0.856567 0.500000
vt 0.890786 0.437500
vt 0.855944 0.396148
vt 0.859414 0.655822
vt 0.939862 0.125000
vt 0.812867 0.282145
vt 0.814726 0.750000
vt 0.796945 0.653777
vt 0.828125 1.000000
vt 0.798190 0.375000
vt 0.797036 0.437500
vt 0.390786 0.562500
vt 0.387817 0.500000
vt 0.390786 0.437500
vt 0.390665 0.344178
vt 0.378980 0.250000
vt 0.000000 0.125000
vt 0.000000 0.187500
vt 0.801816 0.543181
s 0
f 2/1/1 6/2/1 13/3/1
f 11/4/2 14/5/2 4/6/2
f 8/7/3 9/8/3 3/9/3
f 5/10/4 127/11/4 44/12/4
f 9/8/5 16/13/5 10/14/5
f 139/15/6 32/16/6 6/2/6
f 14/5/7 21/17/7 12/18/7
f 7/19/8 15/20/8 8/7/8
f 12/18/9 21/17/9 31/21/9
f 15/20/10 18/22/10 9/8/10
f 32/16/11 22/23/11 13/3/11
f 14/5/12 17/24/12 20/25/12
f 139/15/13 1/26/13 59/27/13
f 19/28/14 25/29/14 17/24/14
f 22/23/15 27/30/15 13/3/15
f 16/13/16 18/22/16 24/31/16
f 18/22/17 23/32/17 28/33/17
f 24/31/18 29/34/18 19/28/18
f 20/25/19 25/29/19 30/35/19
f 20/25/20 30/35/20 21/17/20
f 29/34/21 35/36/21 25/29/21
f 32/16/22 41/37/22 22/23/22
f 23/32/23 27/30/23 33/38/23
f 31/21/24 51/39/24 26/40/24
f 24/31/25 28/33/25 34/41/25
f 28/33/26 33/38/26 37/42/26
f 34/41/27 35/36/27 29/34/27
f 30/35/28 35/36/28 38/43/28
f 41/37/29 36/44/29 27/30/29
f 32/16/30 59/27/30 40/45/30
f 37/42/31 42/46/31 47/47/31
f 37/42/32 47/47/32 48/48/32
f 38/43/33 43/49/33 50/50/33
f 41/37/34 45/51/34 36/44/34
f 36/44/35 45/51/35 46/52/35
f 26/40/36 146/53/36 145/54/36 12/18/36
f 41/37/37 40/45/37 52/55/37
f 39/56/38 50/50/38 64/57/38
f 44/12/39 51/39/39 76/58/39
f 5/59/40 44/12/40 76/58/40
f 48/48/41 49/60/41 43/49/41
f 64/57/42 73/61/42 51/39/42
f 52/55/43 54/62/43 45/51/43
f 59/27/44 77/63/44 40/45/44
f 52/55/45 77/63/45 67/64/45
f 54/62/46 68/65/46 60/66/46
f 54/62/47 60/66/47 55/67/47
f 60/66/48 68/65/48 69/68/48
f 61/69/49 65/70/49 70/71/49
f 59/27/50 1/72/50 82/73/50
f 66/74/51 71/75/51 62/76/51
f 70/71/52 75/77/52 66/74/52
f 71/75/53 81/78/53 72/79/53
f 72/79/54 81/78/54 87/80/54
f 75/77/55 80/81/55 71/75/55
f 67/64/56 77/63/56 88/82/56
f 71/75/57 80/81/57 81/78/57
f 74/83/58 85/84/58 75/77/58
f 74/83/59 79/85/59 83/86/59
f 96/87/60 111/88/60 76/58/60
f 74/83/61 83/86/61 84/89/61
f 5/90/62 76/58/62 111/88/62
f 77/63/63 82/73/63 92/91/63
f 85/84/64 86/92/64 80/81/64
f 88/82/65 89/93/65 78/94/65
f 84/89/66 95/95/66 85/84/66
f 85/84/67 95/95/67 86/92/67
f 87/80/68 91/96/68 100/97/68
f 83/86/69 90/98/69 93/99/69
f 82/73/70 1/100/70 131/101/70
f 92/91/71 105/102/71 88/82/71
f 86/92/72 95/95/72 99/103/72
f 94/104/73 99/103/73 95/95/73
f 99/103/74 109/105/74 91/96/74
f 100/97/75 110/106/75 96/87/75
f 93/99/76 98/107/76 102/108/76
f 93/99/77 102/108/77 103/109/77
f 103/109/78 108/110/78 94/104/78
f 131/101/79 118/111/79 92/91/79
f 105/102/80 106/112/80 97/113/80
f 100/97/81 109/105/81 110/106/81
f 97/113/82 101/114/82 98/107/82
f 101/114/83 106/112/83 112/115/83
f 107/116/84 112/115/84 115/117/84
f 5/118/85 111/88/85 127/119/85
f 107/116/86 113/120/86 108/110/86
f 108/110/87 113/120/87 104/121/87
f 105/102/88 118/111/88 114/122/88
f 104/121/89 113/120/89 116/123/89
f 105/102/90 114/122/90 106/112/90
f 104/121/91 116/123/91 109/105/91
f 116/124/92 113/125/92 126/126/92
f 112/127/93 114/128/93 119/129/93
f 107/130/94 115/131/94 120/132/94
f 121/133/95 125/134/95 113/125/95
f 115/131/96 119/129/96 124/135/96
f 119/129/97 128/136/97 123/137/97
f 122/138/98 126/126/98 137/139/98
f 118/140/99 131/141/99 132/142/99
f 118/140/100 132/142/100 114/128/100
f 126/126/101 125/134/101 130/143/101
f 124/135/102 134/144/102 135/145/102
f 129/146/103 136/147/103 125/134/103
f 130/143/104 137/139/104 126/126/104
f 123/137/105 128/136/105 133/148/105
f 137/139/106 146/53/106 117/149/106
f 135/145/107 136/147/107 129/146/107
f 130/143/108 136/147/108 138/150/108
f 132/142/109 140/151/109 128/136/109
f 133/148/110 140/151/110 141/152/110
f 137/139/111 138/150/111 145/54/111
f 131/141/112 1/153/112 139/15/112
f 138/150/113 144/154/113 4/6/113
f 140/151/114 2/1/114 7/19/114
f 4/6/115 12/18/115 138/150/115
f 141/152/116 7/19/116 8/7/116
f 3/9/117 10/14/117 143/155/117
f 3/9/118 9/8/118 10/14/118
f 7/19/119 2/1/119 13/3/119
f 4/6/120 14/5/120 12/18/120
f 44/12/121 127/11/121 146/53/121 26/40/121
f 17/24/122 11/4/122 10/14/122 16/13/122
f 23/32/123 15/20/123 13/3/123 27/30/123
f 6/2/124 32/16/124 13/3/124
f 11/4/125 17/24/125 14/5/125
f 7/19/126 13/3/126 15/20/126
f 9/8/127 8/7/127 15/20/127
f 21/17/128 14/5/128 20/25/128
f 12/18/129 31/21/129 26/40/129
f 9/8/130 18/22/130 16/13/130
f 16/13/131 19/28/131 17/24/131
f 16/13/132 24/31/132 19/28/132
f 139/15/133 59/27/133 32/16/133
f 20/25/134 17/24/134 25/29/134
f 38/43/135 39/56/135 31/21/135 30/35/135
f 15/20/136 23/32/136 18/22/136
f 21/17/137 30/35/137 31/21/137
f 24/31/138 18/22/138 28/33/138
f 19/28/139 29/34/139 25/29/139
f 24/31/140 34/41/140 29/34/140
f 30/35/141 25/29/141 35/36/141
f 22/23/142 41/37/142 27/30/142
f 28/33/143 23/32/143 33/38/143
f 44/12/144 26/40/144 51/39/144
f 43/49/145 35/36/145 34/41/145 37/42/145
f 51/39/146 31/21/146 39/56/146
f 34/41/147 28/33/147 37/42/147
f 33/38/148 27/30/148 36/44/148
f 32/16/149 40/45/149 41/37/149
f 38/43/150 35/36/150 43/49/150
f 33/38/151 36/44/151 42/46/151
f 37/42/152 33/38/152 42/46/152
f 55/67/153 56/156/153 47/47/153 46/52/153
f 36/44/154 46/52/154 42/46/154
f 37/42/155 48/48/155 43/49/155
f 39/56/156 38/43/156 50/50/156
f 50/50/157 43/49/157 49/60/157
f 41/37/158 52/55/158 45/51/158
f 39/56/159 64/57/159 51/39/159
f 47/47/160 42/46/160 46/52/160
f 56/156/161 57/157/161 48/48/161 47/47/161
f 51/39/162 73/61/162 76/58/162
f 58/158/163 49/60/163 48/48/163 57/157/163
f 66/74/164 58/158/164 57/157/164 61/69/164
f 49/60/165 58/158/165 53/159/165
f 50/50/166 49/60/166 53/159/166
f 50/50/167 53/159/167 63/160/167
f 46/52/168 45/51/168 54/62/168
f 64/57/169 50/50/169 63/160/169
f 46/52/170 54/62/170 55/67/170
f 40/45/171 77/63/171 52/55/171
f 57/157/172 56/156/172 61/69/172
f 62/76/173 53/159/173 58/158/173 66/74/173
f 68/65/174 54/62/174 52/55/174 67/64/174
f 60/66/175 61/69/175 56/156/175 55/67/175
f 53/159/176 62/76/176 63/160/176
f 72/79/177 63/160/177 62/76/177 71/75/177
f 69/68/178 65/70/178 61/69/178 60/66/178
f 64/57/179 63/160/179 72/79/179
f 64/57/180 72/79/180 73/61/180
f 96/87/181 73/61/181 72/79/181 87/80/181
f 61/69/182 70/71/182 66/74/182
f 59/27/183 82/73/183 77/63/183
f 66/74/184 75/77/184 71/75/184
f 69/68/185 68/65/185 78/94/185
f 69/68/186 78/94/186 79/85/186
f 79/85/187 74/83/187 65/70/187 69/68/187
f 78/94/188 68/65/188 67/64/188 88/82/188
f 76/58/189 73/61/189 96/87/189
f 70/71/190 65/70/190 74/83/190
f 70/71/191 74/83/191 75/77/191
f 90/98/192 79/85/192 78/94/192 89/93/192
f 75/77/193 85/84/193 80/81/193
f 87/80/194 81/78/194 91/96/194
f 98/107/195 90/98/195 89/93/195 97/113/195
f 83/86/196 79/85/196 90/98/196
f 74/83/197 84/89/197 85/84/197
f 77/63/198 92/91/198 88/82/198
f 81/78/199 80/81/199 86/92/199
f 81/78/200 86/92/200 91/96/200
f 87/80/201 100/97/201 96/87/201
f 84/89/202 83/86/202 93/99/202
f 94/104/203 95/95/203 84/89/203 93/99/203
f 93/99/204 90/98/204 98/107/204
f 97/113/205 89/93/205 88/82/205 105/102/205
f 82/73/206 131/101/206 92/91/206
f 104/121/207 99/103/207 94/104/207 108/110/207
f 86/92/208 99/103/208 91/96/208
f 100/97/209 91/96/209 109/105/209
f 96/87/210 110/106/210 111/88/210
f 93/99/211 103/109/211 94/104/211
f 102/108/212 98/107/212 101/114/212
f 112/115/213 107/116/213 102/108/213 101/114/213
f 92/91/214 118/111/214 105/102/214
f 99/103/215 104/121/215 109/105/215
f 97/113/216 106/112/216 101/114/216
f 127/119/217 111/88/217 110/106/217 117/161/217
f 103/109/218 102/108/218 107/116/218
f 103/109/219 107/116/219 108/110/219
f 116/123/220 122/162/220 110/106/220 109/105/220
f 112/115/221 106/112/221 114/122/221
f 121/133/222 113/125/222 107/130/222 120/132/222
f 110/106/223 122/162/223 117/161/223
f 115/131/224 112/127/224 119/129/224
f 129/146/225 121/133/225 120/132/225 124/135/225
f 120/132/226 115/131/226 124/135/226
f 126/126/227 113/125/227 125/134/227
f 119/129/228 114/128/228 128/136/228
f 122/138/229 116/124/229 126/126/229
f 114/128/230 132/142/230 128/136/230
f 117/149/231 122/138/231 137/139/231
f 124/135/232 119/129/232 123/137/232
f 133/148/233 134/144/233 124/135/233 123/137/233
f 121/133/234 129/146/234 125/134/234
f 124/135/235 135/145/235 129/146/235
f 130/143/236 125/134/236 136/147/236
f 143/155/237 136/147/237 135/145/237 142/163/237
f 130/143/238 138/150/238 137/139/238
f 133/148/239 128/136/239 140/151/239
f 117/149/240 146/53/240 127/11/240
f 139/15/241 6/2/241 132/142/241 131/141/241
f 141/152/242 142/163/242 134/144/242 133/148/242
f 136/147/243 143/155/243 144/154/243
f 132/142/244 6/2/244 2/1/244
f 138/150/245 136/147/245 144/154/245
f 132/142/246 2/1/246 140/151/246
f 137/139/247 145/54/247 146/53/247
f 11/4/248 144/154/248 143/155/248 10/14/248
f 135/145/249 134/144/249 142/163/249
f 142/163/250 3/9/250 143/155/250
f 144/154/251 11/4/251 4/6/251
f 141/152/252 140/151/252 7/19/252
f 145/54/253 138/150/253 12/18/253
f 142/163/254 141/152/254 8/7/254
f 3/9/255 142/163/255 8/7/255
