# Blender 5.0.0
# www.blender.org
mtllib prep_throw_ball0024.mtl
o Sphere
v -1.947583 6.684696 0.484644
v -2.009201 6.099130 0.165386
v -2.423388 5.183553 0.229519
v -2.793111 5.055575 0.553818
v -3.185068 5.618503 1.254337
v -1.933412 6.268518 0.266491
v -1.959198 5.678522 0.205452
v -2.137878 5.337226 0.216235
v -2.100173 5.145245 0.424809
v -2.415858 5.036579 0.416773
v -2.549343 4.995760 0.520010
v -2.846389 5.072047 0.857065
v -1.772192 5.893078 0.378802
v -2.566476 4.971955 0.739949
v -1.828702 5.483139 0.426300
v -2.098145 5.055781 0.652974
v -2.328146 4.976347 0.766407
v -1.800295 5.350962 0.648080
v -2.093699 5.067616 0.854627
v -2.408160 5.026640 1.006275
v -2.618403 5.042570 1.009734
v -1.689539 6.065323 0.539195
v -1.661579 5.639333 0.741701
v -1.884702 5.250002 0.940968
v -2.184790 5.096562 1.057207
v -2.923884 5.254656 1.147465
v -1.632337 5.930755 0.683261
v -1.739339 5.483711 1.004401
v -1.983297 5.273521 1.156138
v -2.396131 5.207960 1.289883
v -2.700521 5.202312 1.232247
v -1.728947 6.306682 0.539368
v -1.622600 5.841845 1.008507
v -1.832864 5.533391 1.248295
v -2.062955 5.386298 1.346446
v -1.616043 6.176914 1.016798
v -1.781332 5.791799 1.347957
v -2.403805 5.462165 1.507657
v -2.697470 5.515716 1.507876
v -1.760756 6.633215 0.793305
v -1.649972 6.359257 0.828565
v -1.697307 6.101480 1.283797
v -2.090605 5.729512 1.568372
v -3.034302 5.454370 1.276194
v -1.691602 6.478976 1.094135
v -1.739954 6.405358 1.311547
v -1.844431 6.203770 1.491778
v -1.962272 6.117313 1.588762
v -2.194582 6.026493 1.692422
v -2.489188 5.774331 1.669592
v -2.870169 5.510551 1.438058
v -1.798332 6.753516 0.995664
v -2.496088 6.211444 1.772847
v -1.855790 6.773337 1.255346
v -1.940243 6.670198 1.470513
v -2.042067 6.605881 1.591733
v -2.167513 6.526115 1.685032
v -2.286025 6.395691 1.743471
v -1.823071 6.632514 0.616059
v -2.081722 6.959978 1.400897
v -2.302997 6.847626 1.634353
v -2.668249 6.454638 1.765707
v -2.750111 6.075125 1.723005
v -2.866719 5.918995 1.646135
v -2.441242 7.092217 1.514141
v -2.544904 6.744641 1.721921
v -2.019040 7.043270 0.970650
v -2.059928 7.074802 1.142113
v -2.267904 7.158172 1.337780
v -2.576761 7.015100 1.597224
v -2.856245 6.651268 1.703718
v -3.041676 6.275825 1.638237
v -3.049298 5.895675 1.541858
v -2.795775 7.221814 1.383442
v -2.825615 6.987307 1.582147
v -3.145182 5.771596 1.407856
v -1.994585 6.979062 0.786863
v -2.389797 7.292285 1.038610
v -2.573945 7.303119 1.227974
v -3.050627 6.892418 1.524461
v -3.180511 6.611022 1.530420
v -2.019000 6.883806 0.596464
v -2.841463 7.296933 1.193690
v -3.092341 7.199325 1.116220
v -3.085421 7.086743 1.345427
v -3.312719 6.813878 1.303244
v -3.282401 6.293081 1.445315
v -2.283963 7.191466 0.768071
v -2.574156 7.306580 0.822373
v -2.796572 7.328859 0.974122
v -3.398816 6.504341 1.287143
v -2.233696 7.029174 0.546763
v -3.115828 7.199028 0.900996
v -3.351790 6.940835 0.890129
v -3.320642 6.953124 1.126401
v -3.314161 6.063267 1.361854
v -2.697132 7.196898 0.575873
v -2.947861 7.206636 0.681773
v -3.472311 6.661990 0.984209
v -3.446216 6.234601 1.192117
v -2.909856 7.043616 0.435651
v -3.149355 7.029677 0.582842
v -3.287730 6.926389 0.639938
v -3.510051 6.461353 0.730473
v -2.442983 7.027431 0.418812
v -2.640910 6.980404 0.342873
v -3.242331 6.651876 0.341103
v -3.407743 6.668435 0.587129
v -3.521828 6.289897 0.950739
v -3.458341 5.972348 1.047720
v -3.308309 5.814982 1.240571
v -2.910058 6.810508 0.243668
v -3.419155 6.278501 0.425644
v -2.499427 6.702296 0.161430
v -3.110209 6.511542 0.186930
v -3.495534 6.029816 0.669293
v -3.362607 5.643486 0.939861
v -2.258986 6.776047 0.291018
v -2.814602 6.454928 0.056980
v -3.170379 6.185885 0.150218
v -3.288220 6.099429 0.247203
v -3.439665 5.784940 0.810990
v -2.686383 6.179468 -0.018019
v -2.996639 6.023071 0.040043
v -3.293213 5.820189 0.304089
v -3.410055 5.783488 0.541630
v -3.249705 5.541308 1.083228
v -2.465445 6.367877 0.033139
v -3.090585 5.697318 0.147247
v -3.242537 5.543340 0.407419
v -2.091363 6.728717 0.366818
v -2.173234 6.394232 0.137632
v -2.524657 5.924788 -0.038382
v -2.722533 5.722774 -0.009140
v -2.837368 5.590407 0.052190
v -3.026286 5.455267 0.211624
v -3.258902 5.427330 0.665313
v -3.031019 5.209944 0.519460
v -1.902529 6.466192 0.382636
v -2.181096 5.989473 0.051830
v -2.276407 5.651931 0.035263
v -2.498328 5.377968 0.085726
v -2.691412 5.210982 0.224840
v -2.816629 5.162375 0.341350
v -3.041472 5.200338 0.810243
v -3.144186 5.333021 0.940943
vn 0.7113 0.0972 -0.6961
vn -0.2526 -0.9596 -0.1235
vn 0.3268 -0.6652 -0.6714
vn -0.6698 -0.5486 0.5005
vn 0.3129 -0.8833 -0.3491
vn 0.7616 0.2357 -0.6036
vn -0.2553 -0.9463 0.1985
vn 0.6341 -0.3537 -0.6876
vn -0.3957 -0.8090 0.4347
vn 0.7058 -0.5651 -0.4272
vn 0.8153 0.1335 -0.5635
vn -0.0046 -0.9790 0.2037
vn 0.7387 0.4041 -0.5394
vn 0.2669 -0.9300 0.2529
vn 0.9099 -0.0536 -0.4113
vn 0.7029 -0.7100 -0.0422
vn 0.9001 -0.4357 0.0083
vn 0.5388 -0.7744 0.3316
vn 0.1413 -0.8368 0.5290
vn -0.0548 -0.8402 0.5395
vn 0.3561 -0.7309 0.5822
vn 0.9456 0.1546 -0.2863
vn 0.9919 -0.1116 -0.0602
vn -0.3979 -0.6508 0.6466
vn 0.7289 -0.5602 0.3936
vn 0.8822 -0.2918 0.3695
vn 0.6000 -0.5525 0.5786
vn 0.2118 -0.6321 0.7453
vn 0.9916 0.0763 -0.1048
vn 0.8898 0.3310 -0.3141
vn 0.7918 -0.0897 0.6042
vn 0.6892 -0.1425 0.7104
vn 0.1801 -0.4137 0.8924
vn 0.9718 0.2307 0.0483
vn 0.9485 0.1686 0.2681
vn -0.5715 -0.7553 0.3209
vn 0.9281 0.3692 -0.0472
vn -0.2065 -0.3938 0.8957
vn -0.5293 -0.4764 0.7021
vn -0.6101 -0.4761 0.6333
vn 0.4631 -0.1987 0.8638
vn -0.4120 -0.4108 0.8133
vn 0.8972 0.4088 0.1673
vn 0.7971 0.5337 -0.2824
vn 0.7956 0.5971 -0.1027
vn 0.7186 0.6112 0.3317
vn 0.7189 0.4733 0.5091
vn 0.6194 0.6969 0.3614
vn 0.2084 0.5237 0.8260
vn 0.7136 0.5197 -0.4697
vn -0.1158 0.1963 0.9737
vn -0.1004 0.4068 0.9080
vn -0.4777 0.0834 0.8745
vn -0.6257 -0.0083 0.7800
vn -0.3672 0.3458 0.8635
vn 0.5885 0.7844 -0.1958
vn -0.4806 0.2397 0.8436
vn -0.3810 0.6254 0.6809
vn -0.0702 0.9216 0.3817
vn -0.7186 -0.3188 0.6180
vn -0.4388 0.7943 0.4201
vn -0.7056 -0.4016 0.5838
vn 0.5730 0.7012 -0.4243
vn -0.6513 0.4478 0.6126
vn 0.3248 0.9208 -0.2161
vn -0.6829 0.6473 0.3386
vn -0.7193 0.5297 0.4494
vn -0.8336 -0.0474 0.5503
vn -0.3869 0.9205 0.0547
vn 0.6261 0.5403 -0.5622
vn 0.3087 0.7991 -0.5159
vn -0.8988 0.3240 0.2954
vn -0.9013 0.4222 0.0969
vn -0.9534 0.1013 0.2840
vn -0.8634 -0.2121 0.4577
vn -0.5083 0.7813 -0.3623
vn -0.6472 0.6991 -0.3039
vn -0.8586 0.4498 -0.2458
vn 0.4634 0.6065 -0.6461
vn 0.0805 0.7398 -0.6680
vn -0.9555 -0.1071 0.2748
vn -0.2064 0.8008 -0.5623
vn -0.1160 0.6315 -0.7666
vn -0.4405 0.4431 -0.7808
vn -0.7561 -0.4403 0.4842
vn -0.7952 0.2517 -0.5516
vn -0.9062 0.1842 -0.3807
vn 0.2441 0.5755 -0.7805
vn -0.9568 0.0090 -0.2907
vn 0.1606 0.5953 -0.7873
vn -0.9972 -0.0234 -0.0715
vn -0.9109 -0.1099 -0.3978
vn -0.0593 0.4515 -0.8903
vn -0.6451 0.2023 -0.7369
vn -0.8447 -0.0923 -0.5272
vn -0.3645 0.1894 -0.9117
vn -0.0004 0.2625 -0.9649
vn -0.9036 -0.4172 -0.0971
vn 0.4697 0.4179 -0.7777
vn 0.3298 0.4148 -0.8480
vn -0.8287 -0.3224 -0.4575
vn -0.3286 -0.1472 -0.9329
vn -0.6970 -0.3514 -0.6251
vn -0.8541 -0.4519 -0.2575
vn 0.1043 0.1449 -0.9839
vn -0.8098 -0.5692 0.1423
vn -0.4528 -0.3396 -0.8244
vn -0.6638 -0.5799 -0.4723
vn 0.3152 0.1909 -0.9296
vn 0.2584 -0.0256 -0.9657
vn -0.7056 -0.7070 -0.0487
vn 0.6477 0.4279 -0.6305
vn -0.4727 -0.8072 -0.3534
vn 0.5569 -0.0129 -0.8305
vn -0.5387 -0.8411 -0.0490
vn 0.4724 -0.2738 -0.8378
vn -0.0697 -0.7861 -0.6142
vn 0.2739 -0.7512 -0.6006
vn 0.6738 0.0097 -0.7389
vn -0.3399 -0.9404 -0.0086
vn -0.6409 -0.6303 0.4382
vn 0.1902 -0.9584 -0.2128
vn 0.9032 -0.1700 -0.3941
vn 0.7803 0.1537 -0.6062
vn 0.0300 -0.9940 -0.1052
vn 0.7707 -0.1772 -0.6121
vn 0.6351 -0.5077 -0.5821
vn -0.0694 -0.9683 0.2401
vn -0.3568 -0.8308 0.4272
vn 0.6746 -0.6852 -0.2747
vn 0.3469 -0.9367 0.0473
vn 0.6501 -0.7593 0.0302
vn 0.7839 0.3475 -0.5145
vn 0.2302 -0.9342 0.2727
vn -0.1240 -0.6516 0.7484
vn 0.8922 -0.3285 -0.3101
vn -0.0905 -0.8245 0.5585
vn 0.8408 -0.5384 0.0567
vn 0.5181 -0.7827 0.3448
vn 0.7275 -0.5611 0.3947
vn 0.2889 -0.7345 0.6141
vn 0.9569 0.1278 -0.2606
vn 0.9460 -0.3095 0.0967
vn -0.4142 -0.6438 0.6434
vn 0.5763 -0.4029 0.7110
vn -0.2736 -0.6337 0.7236
vn 0.8594 -0.3239 0.3955
vn 0.9992 -0.0187 -0.0350
vn 0.8963 0.3234 -0.3035
vn 0.2739 -0.5066 0.8175
vn 0.9584 -0.0258 0.2844
vn 0.9028 -0.1625 0.3982
vn 0.7305 0.1801 0.6588
vn 0.9430 0.1035 0.3162
vn 0.5950 -0.2373 0.7679
vn -0.0864 -0.4773 0.8745
vn 0.1997 -0.3173 0.9270
vn 0.9337 0.3577 -0.0149
vn -0.3280 -0.4266 0.8429
vn 0.8296 0.0658 0.5545
vn 0.5752 0.0890 0.8132
vn -0.4938 -0.4329 0.7542
vn 0.4244 -0.0096 0.9054
vn 0.2293 0.2366 0.9442
vn 0.2090 -0.0830 0.9744
vn 0.1189 -0.2265 0.9667
vn -0.0669 -0.2304 0.9708
vn 0.8924 0.3282 0.3096
vn -0.1812 -0.3222 0.9292
vn 0.8145 0.3293 0.4776
vn 0.8172 0.5492 -0.1748
vn 0.4296 0.3145 0.8465
vn 0.0734 0.1015 0.9921
vn 0.7947 0.5969 0.1102
vn 0.5403 0.4453 0.7140
vn -0.1514 -0.0782 0.9854
vn -0.3119 -0.0257 0.9498
vn 0.4324 0.5967 0.6760
vn -0.3787 -0.1655 0.9106
vn -0.4648 -0.2088 0.8605
vn -0.6260 -0.1831 0.7580
vn 0.1409 0.4282 0.8927
vn 0.7459 0.5525 -0.3721
vn -0.1586 0.3486 0.9237
vn 0.5033 0.8463 0.1743
vn 0.3312 0.9040 0.2703
vn 0.1466 0.8276 0.5419
vn 0.5477 0.8339 -0.0679
vn -0.6511 -0.2650 0.7113
vn 0.0106 0.7242 0.6895
vn -0.1181 0.6506 0.7501
vn 0.0882 0.9961 0.0085
vn -0.4217 0.5724 0.7032
vn -0.7573 0.0689 0.6494
vn -0.1217 0.9327 -0.3395
vn -0.0403 0.9899 0.1357
vn -0.4292 0.8055 0.4086
vn 0.5581 0.7245 -0.4045
vn -0.6652 0.3213 0.6740
vn -0.7702 0.1824 0.6111
vn -0.8271 -0.0874 0.5553
vn -0.3729 0.9271 0.0394
vn -0.7340 0.6755 0.0700
vn -0.3247 0.9206 -0.2168
vn 0.2423 0.8330 -0.4974
vn 0.5444 0.6055 -0.5805
vn -0.9243 0.3532 -0.1446
vn -0.9094 0.2351 0.3430
vn -0.9489 0.0574 0.3104
vn -0.8520 -0.2459 0.4622
vn -0.7152 0.6629 -0.2214
vn -0.3816 0.7424 -0.5507
vn -0.4630 0.5590 -0.6879
vn 0.4008 0.6310 -0.6642
vn -0.9907 0.1277 0.0464
vn -0.0674 0.7228 -0.6878
vn -0.8479 -0.3799 0.3698
vn -0.6281 0.5231 -0.5760
vn -0.7288 0.4455 -0.5200
vn -0.9814 -0.1789 0.0693
vn -0.0276 0.5363 -0.8436
vn -0.7004 0.1758 -0.6918
vn -0.9244 -0.3312 0.1892
vn -0.3121 0.3746 -0.8731
vn -0.5926 -0.0919 -0.8002
vn -0.4043 0.1759 -0.8975
vn -0.8829 -0.1224 -0.4532
vn 0.0262 0.3604 -0.9324
vn -0.9551 -0.2778 -0.1035
vn 0.2834 0.3685 -0.8854
vn -0.8878 -0.4595 0.0265
vn -0.2515 0.1435 -0.9572
vn -0.1651 -0.0061 -0.9863
vn -0.6575 -0.1391 -0.7405
vn -0.4103 -0.1762 -0.8948
vn -0.7026 -0.3581 -0.6149
vn -0.2694 -0.4828 -0.8333
vn -0.7526 -0.5814 -0.3093
vn 0.2299 0.1251 -0.9651
vn -0.7966 -0.5596 0.2285
vn 0.5727 0.3574 -0.7378
vn 0.0623 -0.2180 -0.9739
vn -0.4091 -0.5981 -0.6892
vn 0.5518 0.2314 -0.8012
vn -0.5710 -0.6377 -0.5170
vn 0.4624 0.1753 -0.8692
vn -0.7460 -0.6606 0.0844
vn -0.1618 -0.8328 -0.5294
vn -0.1160 -0.3329 -0.9358
vn -0.0481 -0.6059 -0.7941
vn -0.2706 -0.8718 -0.4083
vn 0.4767 -0.0917 -0.8742
vn -0.5409 -0.8398 -0.0472
vn 0.2754 -0.3853 -0.8808
vn 0.2395 -0.5160 -0.8224
vt 0.781230 0.812500
vt 0.762032 0.875000
vt 0.685473 0.777944
vt 0.734697 0.375000
vt 0.703125 0.312500
vt 0.764235 0.312500
vt 0.741874 0.599249
vt 0.704616 0.531266
vt 0.763980 0.500000
vt 0.734375 0.000000
vt 0.879629 0.062500
vt 0.593677 0.062500
vt 0.670132 0.472235
vt 0.734536 0.437500
vt 0.734224 0.937500
vt 0.605595 0.875000
vt 0.658359 0.250000
vt 0.719918 0.218999
vt 0.734375 0.717281
vt 0.678319 0.660608
vt 0.606077 0.187500
vt 0.641330 0.592355
vt 0.623673 0.812500
vt 0.673680 0.375000
vt 0.639230 0.312500
vt 0.640625 1.000000
vt 0.479138 0.937500
vt 0.639064 0.437500
vt 0.612180 0.375000
vt 0.595563 0.750000
vt 0.606567 0.500000
vt 0.603325 0.667055
vt 0.578286 0.562500
vt 0.578286 0.437500
vt 0.577540 0.283466
vt 0.543444 0.396147
vt 0.512752 0.812500
vt 0.546915 0.655822
vt 0.503540 0.125000
vt 0.660224 0.125000
vt 0.544067 0.500000
vt 0.509405 0.537235
vt 0.515588 0.281661
vt 0.510998 0.724803
vt 0.449506 0.875000
vt 0.487180 0.625000
vt 0.453286 0.562500
vt 0.450317 0.500000
vt 0.485851 0.406417
vt 0.453088 0.281661
vt 0.455926 0.750000
vt 0.445771 0.665313
vt 0.799126 0.125000
vt 0.779637 0.187500
vt 0.402284 0.812500
vt 0.497588 0.187500
vt 0.386121 0.187500
vt 0.328120 0.062500
vt 0.453125 0.000000
vt 0.437500 0.406180
vt 0.347717 0.125000
vt 0.390588 0.718339
vt 0.293360 0.875000
vt 0.308534 0.812500
vt 0.316528 0.750000
vt 0.343750 0.656371
vt 0.393429 0.625000
vt 0.296915 0.655822
vt 0.343750 0.531273
vt 0.297036 0.562500
vt 0.294067 0.500000
vt 0.328125 1.000000
vt 0.230145 0.937500
vt 0.328286 0.437500
vt 0.296914 0.344178
vt 0.343750 0.343629
vt 0.265786 0.437500
vt 0.234338 0.281661
vt 0.296902 0.219059
vt 0.214815 0.187500
vt 0.237180 0.375000
vt 0.199790 0.812500
vt 0.237635 0.520573
vt 0.203286 0.437500
vt 0.237180 0.625000
vt 0.203286 0.562500
vt 0.190964 0.125000
vt 0.113605 0.062500
vt 0.169067 0.500000
vt 0.203125 0.000000
vt 0.137012 0.875000
vt 0.176363 0.337227
vt 0.171838 0.718339
vt 0.234338 0.718339
vt 0.148421 0.399333
vt 0.160278 0.250000
vt 0.121065 0.187500
vt 0.174680 0.625000
vt 0.134405 0.537235
vt 0.140625 1.000000
vt 0.030235 0.937500
vt 0.075252 0.812500
vt 0.102021 0.334687
vt 0.109536 0.437500
vt 0.066529 0.250000
vt 0.055088 0.153620
vt 0.112179 0.625000
vt 0.078286 0.562500
vt 0.075317 0.500000
vt 0.047036 0.437500
vt 0.032456 0.875000
vt 0.048167 0.750000
vt 0.108913 0.719958
vt 0.062500 0.658651
vt 0.015664 0.655822
vt 0.018885 0.520574
vt 0.000000 0.562500
vt 0.015625 0.000000
vt 0.000000 0.062500
vt 0.000000 0.399333
vt 0.046914 0.344178
vt 0.000000 0.784407
vt 0.000000 0.273040
vt 0.991904 0.273040
vt 0.992171 0.399333
vt 0.937867 0.282145
vt 1.000000 0.655822
vt 0.975379 0.784407
vt 0.953164 0.655822
vt 1.000000 0.500000
vt 0.984536 0.562500
vt 0.950317 0.500000
vt 0.953286 0.437500
vt 0.924679 0.375000
vt 0.915655 0.537235
vt 0.910279 0.750000
vt 0.906250 0.656371
vt 0.965747 0.187500
vt 0.868449 0.212346
vt 0.978825 0.875000
vt 0.921769 0.937500
vt 0.872374 0.843190
vt 0.887823 0.312500
vt 0.859536 0.562500
vt 0.856567 0.500000
vt 0.890786 0.437500
vt 0.855944 0.396148
vt 0.859414 0.655822
vt 0.939862 0.125000
vt 0.812867 0.282145
vt 0.814726 0.750000
vt 0.796945 0.653777
vt 0.828125 1.000000
vt 0.798190 0.375000
vt 0.797036 0.437500
vt 0.390786 0.562500
vt 0.387817 0.500000
vt 0.390786 0.437500
vt 0.390665 0.344178
vt 0.378980 0.250000
vt 0.000000 0.125000
vt 0.000000 0.187500
vt 0.801816 0.543181
s 0
f 2/1/1 6/2/1 13/3/1
f 11/4/2 14/5/2 4/6/2
f 8/7/3 9/8/3 3/9/3
f 5/10/4 127/11/4 44/12/4
f 9/8/5 16/13/5 10/14/5
f 139/15/6 32/16/6 6/2/6
f 14/5/7 21/17/7 12/18/7
f 7/19/8 15/20/8 8/7/8
f 12/18/9 21/17/9 31/21/9
f 15/20/10 18/22/10 9/8/10
f 32/16/11 22/23/11 13/3/11
f 14/5/12 17/24/12 20/25/12
f 139/15/13 1/26/13 59/27/13
f 19/28/14 25/29/14 17/24/14
f 22/23/15 27/30/15 13/3/15
f 16/13/16 18/22/16 24/31/16
f 18/22/17 23/32/17 28/33/17
f 24/31/18 29/34/18 19/28/18
f 20/25/19 25/29/19 30/35/19
f 20/25/20 30/35/20 21/17/20
f 29/34/21 35/36/21 25/29/21
f 32/16/22 41/37/22 22/23/22
f 23/32/23 27/30/23 33/38/23
f 31/21/24 51/39/24 26/40/24
f 24/31/25 28/33/25 34/41/25
f 28/33/26 33/38/26 37/42/26
f 34/41/27 35/36/27 29/34/27
f 30/35/28 35/36/28 38/43/28
f 41/37/29 36/44/29 27/30/29
f 32/16/30 59/27/30 40/45/30
f 37/42/31 42/46/31 47/47/31
f 37/42/32 47/47/32 48/48/32
f 38/43/33 43/49/33 50/50/33
f 41/37/34 45/51/34 36/44/34
f 36/44/35 45/51/35 46/52/35
f 26/40/36 146/53/36 145/54/36 12/18/36
f 41/37/37 40/45/37 52/55/37
f 39/56/38 50/50/38 64/57/38
f 44/12/39 51/39/39 76/58/39
f 5/59/40 44/12/40 76/58/40
f 48/48/41 49/60/41 43/49/41
f 64/57/42 73/61/42 51/39/42
f 52/55/43 54/62/43 45/51/43
f 59/27/44 77/63/44 40/45/44
f 52/55/45 77/63/45 67/64/45
f 54/62/46 68/65/46 60/66/46
f 54/62/47 60/66/47 55/67/47
f 60/66/48 68/65/48 69/68/48
f 61/69/49 65/70/49 70/71/49
f 59/27/50 1/72/50 82/73/50
f 66/74/51 71/75/51 62/76/51
f 70/71/52 75/77/52 66/74/52
f 71/75/53 81/78/53 72/79/53
f 72/79/54 81/78/54 87/80/54
f 75/77/55 80/81/55 71/75/55
f 67/64/56 77/63/56 88/82/56
f 71/75/57 80/81/57 81/78/57
f 74/83/58 85/84/58 75/77/58
f 74/83/59 79/85/59 83/86/59
f 96/87/60 111/88/60 76/58/60
f 74/83/61 83/86/61 84/89/61
f 5/90/62 76/58/62 111/88/62
f 77/63/63 82/73/63 92/91/63
f 85/84/64 86/92/64 80/81/64
f 88/82/65 89/93/65 78/94/65
f 84/89/66 95/95/66 85/84/66
f 85/84/67 95/95/67 86/92/67
f 87/80/68 91/96/68 100/97/68
f 83/86/69 90/98/69 93/99/69
f 82/73/70 1/100/70 131/101/70
f 92/91/71 105/102/71 88/82/71
f 86/92/72 95/95/72 99/103/72
f 94/104/73 99/103/73 95/95/73
f 99/103/74 109/105/74 91/96/74
f 100/97/75 110/106/75 96/87/75
f 93/99/76 98/107/76 102/108/76
f 93/99/77 102/108/77 103/109/77
f 103/109/78 108/110/78 94/104/78
f 131/101/79 118/111/79 92/91/79
f 105/102/80 106/112/80 97/113/80
f 100/97/81 109/105/81 110/106/81
f 97/113/82 101/114/82 98/107/82
f 101/114/83 106/112/83 112/115/83
f 107/116/84 112/115/84 115/117/84
f 5/118/85 111/88/85 127/119/85
f 107/116/86 113/120/86 108/110/86
f 108/110/87 113/120/87 104/121/87
f 105/102/88 118/111/88 114/122/88
f 104/121/89 113/120/89 116/123/89
f 105/102/90 114/122/90 106/112/90
f 104/121/91 116/123/91 109/105/91
f 116/124/92 113/125/92 126/126/92
f 112/127/93 114/128/93 119/129/93
f 107/130/94 115/131/94 120/132/94
f 121/133/95 125/134/95 113/125/95
f 115/131/96 119/129/96 124/135/96
f 119/129/97 128/136/97 123/137/97
f 122/138/98 126/126/98 137/139/98
f 118/140/99 131/141/99 132/142/99
f 118/140/100 132/142/100 114/128/100
f 126/126/101 125/134/101 130/143/101
f 124/135/102 134/144/102 135/145/102
f 129/146/103 136/147/103 125/134/103
f 130/143/104 137/139/104 126/126/104
f 123/137/105 128/136/105 133/148/105
f 137/139/106 146/53/106 117/149/106
f 135/145/107 136/147/107 129/146/107
f 130/143/108 136/147/108 138/150/108
f 132/142/109 140/151/109 128/136/109
f 133/148/110 140/151/110 141/152/110
f 137/139/111 138/150/111 145/54/111
f 131/141/112 1/153/112 139/15/112
f 138/150/113 144/154/113 4/6/113
f 140/151/114 2/1/114 7/19/114
f 4/6/115 12/18/115 138/150/115
f 141/152/116 7/19/116 8/7/116
f 3/9/117 10/14/117 143/155/117
f 3/9/118 9/8/118 10/14/118
f 7/19/119 2/1/119 13/3/119
f 4/6/120 14/5/120 12/18/120
f 44/12/121 127/11/121 146/53/121 26/40/121
f 17/24/122 11/4/122 10/14/122 16/13/122
f 23/32/123 15/20/123 13/3/123 27/30/123
f 6/2/124 32/16/124 13/3/124
f 11/4/125 17/24/125 14/5/125
f 7/19/126 13/3/126 15/20/126
f 9/8/127 8/7/127 15/20/127
f 21/17/128 14/5/128 20/25/128
f 12/18/129 31/21/129 26/40/129
f 9/8/130 18/22/130 16/13/130
f 16/13/131 19/28/131 17/24/131
f 16/13/132 24/31/132 19/28/132
f 139/15/133 59/27/133 32/16/133
f 20/25/134 17/24/134 25/29/134
f 38/43/135 39/56/135 31/21/135 30/35/135
f 15/20/136 23/32/136 18/22/136
f 21/17/137 30/35/137 31/21/137
f 24/31/138 18/22/138 28/33/138
f 19/28/139 29/34/139 25/29/139
f 24/31/140 34/41/140 29/34/140
f 30/35/141 25/29/141 35/36/141
f 22/23/142 41/37/142 27/30/142
f 28/33/143 23/32/143 33/38/143
f 44/12/144 26/40/144 51/39/144
f 43/49/145 35/36/145 34/41/145 37/42/145
f 51/39/146 31/21/146 39/56/146
f 34/41/147 28/33/147 37/42/147
f 33/38/148 27/30/148 36/44/148
f 32/16/149 40/45/149 41/37/149
f 38/43/150 35/36/150 43/49/150
f 33/38/151 36/44/151 42/46/151
f 37/42/152 33/38/152 42/46/152
f 55/67/153 56/156/153 47/47/153 46/52/153
f 36/44/154 46/52/154 42/46/154
f 37/42/155 48/48/155 43/49/155
f 39/56/156 38/43/156 50/50/156
f 50/50/157 43/49/157 49/60/157
f 41/37/158 52/55/158 45/51/158
f 39/56/159 64/57/159 51/39/159
f 47/47/160 42/46/160 46/52/160
f 56/156/161 57/157/161 48/48/161 47/47/161
f 51/39/162 73/61/162 76/58/162
f 58/158/163 49/60/163 48/48/163 57/157/163
f 66/74/164 58/158/164 57/157/164 61/69/164
f 49/60/165 58/158/165 53/159/165
f 50/50/166 49/60/166 53/159/166
f 50/50/167 53/159/167 63/160/167
f 46/52/168 45/51/168 54/62/168
f 64/57/169 50/50/169 63/160/169
f 46/52/170 54/62/170 55/67/170
f 40/45/171 77/63/171 52/55/171
f 57/157/172 56/156/172 61/69/172
f 62/76/173 53/159/173 58/158/173 66/74/173
f 68/65/174 54/62/174 52/55/174 67/64/174
f 60/66/175 61/69/175 56/156/175 55/67/175
f 53/159/176 62/76/176 63/160/176
f 72/79/177 63/160/177 62/76/177 71/75/177
f 69/68/178 65/70/178 61/69/178 60/66/178
f 64/57/179 63/160/179 72/79/179
f 64/57/180 72/79/180 73/61/180
f 96/87/181 73/61/181 72/79/181 87/80/181
f 61/69/182 70/71/182 66/74/182
f 59/27/183 82/73/183 77/63/183
f 66/74/184 75/77/184 71/75/184
f 69/68/185 68/65/185 78/94/185
f 69/68/186 78/94/186 79/85/186
f 79/85/187 74/83/187 65/70/187 69/68/187
f 78/94/188 68/65/188 67/64/188 88/82/188
f 76/58/189 73/61/189 96/87/189
f 70/71/190 65/70/190 74/83/190
f 70/71/191 74/83/191 75/77/191
f 90/98/192 79/85/192 78/94/192 89/93/192
f 75/77/193 85/84/193 80/81/193
f 87/80/194 81/78/194 91/96/194
f 98/107/195 90/98/195 89/93/195 97/113/195
f 83/86/196 79/85/196 90/98/196
f 74/83/197 84/89/197 85/84/197
f 77/63/198 92/91/198 88/82/198
f 81/78/199 80/81/199 86/92/199
f 81/78/200 86/92/200 91/96/200
f 87/80/201 100/97/201 96/87/201
f 84/89/202 83/86/202 93/99/202
f 94/104/203 95/95/203 84/89/203 93/99/203
f 93/99/204 90/98/204 98/107/204
f 97/113/205 89/93/205 88/82/205 105/102/205
f 82/73/206 131/101/206 92/91/206
f 104/121/207 99/103/207 94/104/207 108/110/207
f 86/92/208 99/103/208 91/96/208
f 100/97/209 91/96/209 109/105/209
f 96/87/210 110/106/210 111/88/210
f 93/99/211 103/109/211 94/104/211
f 102/108/212 98/107/212 101/114/212
f 112/115/213 107/116/213 102/108/213 101/114/213
f 92/91/214 118/111/214 105/102/214
f 99/103/215 104/121/215 109/105/215
f 97/113/216 106/112/216 101/114/216
f 127/119/217 111/88/217 110/106/217 117/161/217
f 103/109/218 102/108/218 107/116/218
f 103/109/219 107/116/219 108/110/219
f 116/123/220 122/162/220 110/106/220 109/105/220
f 112/115/221 106/112/221 114/122/221
f 121/133/222 113/125/222 107/130/222 120/132/222
f 110/106/223 122/162/223 117/161/223
f 115/131/224 112/127/224 119/129/224
f 129/146/225 121/133/225 120/132/225 124/135/225
f 120/132/226 115/131/226 124/135/226
f 126/126/227 113/125/227 125/134/227
f 119/129/228 114/128/228 128/136/228
f 122/138/229 116/124/229 126/126/229
f 114/128/230 132/142/230 128/136/230
f 117/149/231 122/138/231 137/139/231
f 124/135/232 119/129/232 123/137/232
f 133/148/233 134/144/233 124/135/233 123/137/233
f 121/133/234 129/146/234 125/134/234
f 124/135/235 135/145/235 129/146/235
f 130/143/236 125/134/236 136/147/236
f 143/155/237 136/147/237 135/145/237 142/163/237
f 130/143/238 138/150/238 137/139/238
f 133/148/239 128/136/239 140/151/239
f 117/149/240 146/53/240 127/11/240
f 139/15/241 6/2/241 132/142/241 131/141/241
f 141/152/242 142/163/242 134/144/242 133/148/242
f 136/147/243 143/155/243 144/154/243
f 132/142/244 6/2/244 2/1/244
f 138/150/245 136/147/245 144/154/245
f 132/142/246 2/1/246 140/151/246
f 137/139/247 145/54/247 146/53/247
f 11/4/248 144/154/248 143/155/248 10/14/248
f 135/145/249 134/144/249 142/163/249
f 142/163/250 3/9/250 143/155/250
f 144/154/251 11/4/251 4/6/251
f 141/152/252 140/151/252 7/19/252
f 145/54/253 138/150/253 12/18/253
f 142/163/254 141/152/254 8/7/254
f 3/9/255 142/163/255 8/7/255
