# Blender 5.0.0
# www.blender.org
mtllib prep_throw_ball0037.mtl
o Sphere
v -1.500872 6.569493 -0.368660
v -1.691491 5.899010 -0.472558
v -2.236386 5.204649 -0.114782
v -2.581791 5.336248 0.228721
v -2.795258 6.280333 0.695998
v -1.578619 6.084136 -0.435491
v -1.705430 5.530604 -0.302596
v -1.933813 5.270740 -0.180811
v -1.903909 5.194320 0.070418
v -2.231229 5.164789 0.103115
v -2.356649 5.210207 0.212759
v -2.596710 5.514740 0.501512
v -1.468221 5.767004 -0.215806
v -2.352152 5.302717 0.421651
v -1.583851 5.436135 -0.040644
v -1.890248 5.227718 0.307449
v -2.115164 5.265600 0.440374
v -1.551950 5.422045 0.203731
v -1.861002 5.338121 0.487890
v -2.158057 5.448817 0.644908
v -2.360884 5.512710 0.646564
v -1.341411 5.982766 -0.125583
v -1.359261 5.695759 0.194926
v -1.617350 5.497180 0.505052
v -1.922412 5.486085 0.665345
v -2.610157 5.841257 0.709968
v -1.290573 5.921125 0.048041
v -1.430364 5.705287 0.485985
v -1.685539 5.648282 0.695872
v -2.084863 5.750393 0.846044
v -2.390265 5.785843 0.800351
v -1.341257 6.208190 -0.201761
v -1.258207 6.001795 0.373488
v -1.486120 5.893044 0.694623
v -1.723716 5.862655 0.835170
v -1.197112 6.304813 0.274049
v -1.382879 6.162774 0.702383
v -2.026774 6.088884 0.964096
v -2.305587 6.203881 0.952207
v -1.291067 6.635092 -0.073325
v -1.222548 6.381902 0.044421
v -1.258296 6.389172 0.543512
v -1.670431 6.287561 0.928957
v -2.671522 6.109787 0.765775
v -1.213807 6.631462 0.249641
v -1.248142 6.685164 0.472646
v -1.362172 6.618345 0.703456
v -1.480312 6.616164 0.821680
v -1.710428 6.639478 0.949345
v -2.041816 6.469116 1.013946
v -2.483407 6.203683 0.892987
v -1.285475 6.852651 0.073870
v -1.966698 6.914148 0.968967
v -1.308918 7.013320 0.305850
v -1.383577 7.047658 0.536837
v -1.479727 7.073791 0.669875
v -1.604658 7.077497 0.782725
v -1.734902 7.016786 0.879762
v -1.372385 6.560052 -0.234028
v -1.483520 7.304849 0.383167
v -1.691486 7.371233 0.636136
v -2.097017 7.167796 0.887780
v -2.242868 6.824886 0.971231
v -2.390802 6.673057 0.952777
v -1.801281 7.561885 0.450588
v -1.934781 7.377784 0.753139
v -1.457881 7.150159 -0.037681
v -1.473289 7.273452 0.109656
v -1.641163 7.493368 0.265418
v -1.936812 7.565152 0.553429
v -2.256557 7.355891 0.771591
v -2.505721 7.028831 0.834689
v -2.585134 6.641607 0.868024
v -2.142405 7.693470 0.295825
v -2.186555 7.589378 0.552751
v -2.714160 6.485230 0.786777
v -1.465203 6.995156 -0.185576
v -1.773080 7.491799 -0.048712
v -1.929981 7.638113 0.124026
v -2.428582 7.526728 0.534135
v -2.600151 7.307034 0.631570
v -1.526088 6.820147 -0.328778
v -2.196717 7.676358 0.099219
v -2.466752 7.607271 0.063829
v -2.451893 7.619353 0.309106
v -2.722929 7.405428 0.361480
v -2.760567 7.002685 0.656966
v -1.716515 7.242076 -0.265596
v -1.975889 7.438506 -0.247757
v -2.172701 7.584993 -0.112396
v -2.858670 7.139509 0.446988
v -1.718581 6.974512 -0.416927
v -2.514333 7.504764 -0.132372
v -2.787926 7.321620 -0.055911
v -2.728523 7.443654 0.155569
v -2.838023 6.762183 0.654552
v -2.141954 7.244967 -0.435950
v -2.373717 7.363741 -0.338007
v -2.939871 7.146134 0.121086
v -2.959156 6.860997 0.447011
v -2.390731 7.085913 -0.511576
v -2.610590 7.201544 -0.368534
v -2.756077 7.169011 -0.281045
v -3.037922 6.848030 -0.046150
v -1.938293 6.956653 -0.529745
v -2.148217 6.921614 -0.580775
v -2.789743 6.763202 -0.467342
v -2.920927 6.938707 -0.244964
v -3.051822 6.807124 0.210057
v -3.029546 6.556483 0.398924
v -2.885942 6.477650 0.622828
v -2.450205 6.781021 -0.612654
v -3.013043 6.511030 -0.267944
v -2.075029 6.549382 -0.660273
v -2.700516 6.530240 -0.565716
v -3.099892 6.427296 0.035373
v -3.000882 6.185958 0.403645
v -1.813091 6.625514 -0.569463
v -2.435088 6.347202 -0.671446
v -2.815816 6.233662 -0.494342
v -2.933957 6.231481 -0.376118
v -3.068317 6.265890 0.242049
v -2.362320 6.033576 -0.654284
v -2.684442 5.993063 -0.546043
v -2.977134 6.010735 -0.234952
v -3.070289 6.123193 -0.004163
v -2.890414 6.140317 0.565348
v -2.110027 6.177726 -0.671401
v -2.816402 5.776035 -0.342537
v -2.960147 5.802670 -0.053051
v -1.647974 6.582801 -0.487941
v -1.807882 6.187035 -0.589285
v -2.247192 5.758259 -0.594389
v -2.469923 5.636851 -0.499845
v -2.596551 5.575006 -0.399609
v -2.784943 5.576590 -0.207569
v -2.965355 5.831323 0.219934
v -2.793808 5.511639 0.152117
v -1.503447 6.312365 -0.392938
v -1.890270 5.783093 -0.538427
v -2.039573 5.493935 -0.444253
v -2.294956 5.324115 -0.306949
v -2.494850 5.287942 -0.123249
v -2.611914 5.331131 0.000869
v -2.772416 5.650769 0.421109
v -2.836765 5.858441 0.499973
vn 0.6584 -0.2600 -0.7063
vn -0.4330 -0.8207 0.3728
vn 0.1397 -0.9426 -0.3033
vn -0.6766 -0.2011 0.7083
vn 0.1022 -0.9858 0.1330
vn 0.7265 -0.1129 -0.6778
vn -0.3878 -0.6812 0.6210
vn 0.5253 -0.6930 -0.4937
vn -0.4649 -0.4718 0.7492
vn 0.5712 -0.8118 -0.1214
vn 0.7733 -0.2034 -0.6005
vn -0.1681 -0.7515 0.6379
vn 0.7242 0.0576 -0.6871
vn 0.0911 -0.7491 0.6561
vn 0.8591 -0.3481 -0.3751
vn 0.5434 -0.7793 0.3122
vn 0.8020 -0.5577 0.2142
vn 0.3808 -0.6538 0.6538
vn 0.0162 -0.5575 0.8300
vn -0.1573 -0.5212 0.8388
vn 0.2348 -0.4999 0.8336
vn 0.9250 -0.1222 -0.3598
vn 0.9527 -0.3032 -0.0196
vn -0.4250 -0.2852 0.8591
vn 0.6155 -0.4970 0.6117
vn 0.8309 -0.3061 0.4648
vn 0.5032 -0.4061 0.7628
vn 0.1358 -0.3470 0.9280
vn 0.9768 -0.1454 -0.1570
vn 0.8849 0.0357 -0.4644
vn 0.8121 -0.0383 0.5823
vn 0.7073 -0.0338 0.7061
vn 0.1644 -0.1218 0.9788
vn 0.9945 0.0437 -0.0955
vn 0.9886 0.0608 0.1376
vn -0.6299 -0.4371 0.6420
vn 0.9579 0.1436 -0.2486
vn -0.1930 -0.0363 0.9805
vn -0.5200 -0.1065 0.8475
vn -0.6012 -0.1125 0.7911
vn 0.4855 0.0045 0.8742
vn -0.3941 -0.0392 0.9182
vn 0.9648 0.2516 -0.0768
vn 0.8195 0.2331 -0.5235
vn 0.8499 0.3422 -0.4008
vn 0.8543 0.5190 -0.0276
vn 0.8623 0.4607 0.2102
vn 0.7794 0.6251 -0.0426
vn 0.4138 0.7460 0.5217
vn 0.7180 0.1793 -0.6726
vn 0.0123 0.5330 0.8460
vn 0.0688 0.7279 0.6822
vn -0.3910 0.4525 0.8015
vn -0.5587 0.3569 0.7486
vn -0.2333 0.7013 0.6736
vn 0.6662 0.4981 -0.5551
vn -0.3730 0.6037 0.7046
vn -0.2056 0.9188 0.3369
vn 0.1524 0.9801 -0.1274
vn -0.6908 0.0358 0.7222
vn -0.2458 0.9692 -0.0165
vn -0.6885 -0.0481 0.7236
vn 0.6123 0.3621 -0.7029
vn -0.5308 0.7629 0.3690
vn 0.4439 0.6428 -0.6244
vn -0.5324 0.8465 -0.0094
vn -0.5917 0.7895 0.1626
vn -0.7848 0.2832 0.5512
vn -0.1862 0.8942 -0.4072
vn 0.6291 0.1835 -0.7554
vn 0.3776 0.4536 -0.8072
vn -0.8155 0.5646 0.1270
vn -0.8041 0.5841 -0.1112
vn -0.9037 0.3595 0.2325
vn -0.8354 0.1080 0.5390
vn -0.3519 0.6421 -0.6810
vn -0.5001 0.6253 -0.5991
vn -0.7638 0.4789 -0.4327
vn 0.4789 0.2394 -0.8446
vn 0.1525 0.4015 -0.9031
vn -0.9308 0.1636 0.3268
vn -0.0837 0.5317 -0.8428
vn -0.0507 0.3232 -0.9450
vn -0.3933 0.2257 -0.8913
vn -0.7492 -0.1016 0.6545
vn -0.7678 0.1981 -0.6093
vn -0.8814 0.2125 -0.4218
vn 0.2643 0.2128 -0.9407
vn -0.9637 0.0935 -0.2501
vn 0.1911 0.2408 -0.9516
vn -0.9897 0.1397 -0.0314
vn -0.9557 -0.0555 -0.2890
vn -0.0438 0.1327 -0.9902
vn -0.6500 0.0706 -0.7567
vn -0.9025 -0.0925 -0.4207
vn -0.3966 -0.0454 -0.9169
vn -0.0322 -0.0621 -0.9976
vn -0.9613 -0.2351 0.1439
vn 0.4517 0.0456 -0.8910
vn 0.3151 0.0466 -0.9479
vn -0.9293 -0.2832 -0.2371
vn -0.4540 -0.3781 -0.8068
vn -0.8338 -0.3935 -0.3872
vn -0.9448 -0.3272 0.0163
vn 0.0446 -0.1945 -0.9799
vn -0.8542 -0.3040 0.4217
vn -0.6182 -0.5051 -0.6023
vn -0.8229 -0.5553 -0.1206
vn 0.2633 -0.1732 -0.9491
vn 0.1690 -0.3830 -0.9081
vn -0.8039 -0.4998 0.3224
vn 0.6321 0.0666 -0.7721
vn -0.6559 -0.7477 0.1035
vn 0.4836 -0.3817 -0.7877
vn -0.6671 -0.6396 0.3820
vn 0.3593 -0.6359 -0.6830
vn -0.2976 -0.9403 -0.1650
vn 0.0704 -0.9809 -0.1811
vn 0.6098 -0.3509 -0.7107
vn -0.4925 -0.7404 0.4575
vn -0.6650 -0.2904 0.6881
vn -0.0238 -0.9556 0.2938
vn 0.8394 -0.4525 -0.3012
vn 0.7377 -0.1917 -0.6474
vn -0.1726 -0.8992 0.4020
vn 0.6945 -0.5109 -0.5066
vn 0.5042 -0.8077 -0.3057
vn -0.2205 -0.7172 0.6611
vn -0.4341 -0.4974 0.7511
vn 0.5167 -0.8514 0.0902
vn 0.1505 -0.8540 0.4981
vn 0.4813 -0.7803 0.3994
vn 0.7648 0.0086 -0.6442
vn 0.0583 -0.7375 0.6728
vn -0.1703 -0.3024 0.9378
vn 0.8077 -0.5731 -0.1385
vn -0.1846 -0.4972 0.8478
vn 0.7210 -0.6193 0.3109
vn 0.3600 -0.6515 0.6678
vn 0.6140 -0.4971 0.6131
vn 0.1751 -0.4800 0.8596
vn 0.9356 -0.1407 -0.3239
vn 0.8771 -0.4227 0.2281
vn -0.4391 -0.2779 0.8544
vn 0.5274 -0.2381 0.8156
vn -0.3039 -0.2703 0.9135
vn 0.8019 -0.3214 0.5036
vn 0.9764 -0.2115 -0.0447
vn 0.8915 0.0311 -0.4519
vn 0.2252 -0.2368 0.9451
vn 0.9611 -0.1108 0.2529
vn 0.8847 -0.1872 0.4270
vn 0.8294 0.2376 0.5057
vn 0.9762 0.0182 0.2160
vn 0.5944 -0.0827 0.7999
vn -0.0970 -0.1331 0.9863
vn 0.2076 -0.0330 0.9777
vn 0.9662 0.1426 -0.2145
vn -0.3154 -0.0584 0.9472
vn 0.8843 0.0798 0.4600
vn 0.6708 0.2327 0.7041
vn -0.4778 -0.0610 0.8763
vn 0.5037 0.1982 0.8408
vn 0.3778 0.4926 0.7840
vn 0.2775 0.1916 0.9414
vn 0.1543 0.0735 0.9853
vn -0.0257 0.1048 0.9942
vn 0.9692 0.2275 0.0944
vn -0.1550 0.0310 0.9874
vn 0.9201 0.2990 0.2530
vn 0.8544 0.2759 -0.4403
vn 0.5911 0.4932 0.6382
vn 0.1882 0.4038 0.8953
vn 0.8840 0.4132 -0.2188
vn 0.7157 0.5484 0.4325
vn -0.0785 0.2671 0.9605
vn -0.2331 0.3370 0.9122
vn 0.6361 0.7030 0.3180
vn -0.3231 0.2025 0.9244
vn -0.4164 0.1624 0.8945
vn -0.5783 0.1837 0.7949
vn 0.3285 0.6905 0.6445
vn 0.7622 0.2300 -0.6051
vn -0.0048 0.6846 0.7289
vn 0.6574 0.6998 -0.2796
vn 0.5219 0.8233 -0.2233
vn 0.3735 0.9251 0.0687
vn 0.6549 0.5889 -0.4737
vn -0.6137 0.0995 0.7832
vn 0.2334 0.9318 0.2779
vn 0.0880 0.9179 0.3870
vn 0.2711 0.8337 -0.4811
vn -0.2587 0.8835 0.3905
vn -0.6912 0.4137 0.5925
vn 0.0341 0.6906 -0.7225
vn 0.1657 0.9121 -0.3750
vn -0.2341 0.9716 -0.0337
vn 0.6037 0.3889 -0.6959
vn -0.5634 0.6602 0.4966
vn -0.6934 0.5158 0.5031
vn -0.7816 0.2460 0.5733
vn -0.1722 0.8896 -0.4230
vn -0.5818 0.7673 -0.2699
vn -0.1437 0.7676 -0.6247
vn 0.3256 0.4964 -0.8047
vn 0.5589 0.2444 -0.7924
vn -0.8477 0.4414 -0.2940
vn -0.8387 0.4986 0.2191
vn -0.9033 0.3259 0.2791
vn -0.8267 0.0771 0.5573
vn -0.5717 0.6393 -0.5142
vn -0.2537 0.5236 -0.8133
vn -0.3795 0.3520 -0.8556
vn 0.4235 0.2641 -0.8666
vn -0.9497 0.3132 -0.0015
vn 0.0163 0.4084 -0.9126
vn -0.8431 -0.0686 0.5334
vn -0.5371 0.3883 -0.7488
vn -0.6504 0.3608 -0.6684
vn -0.9836 0.0404 0.1760
vn 0.0055 0.2099 -0.9777
vn -0.7073 0.0712 -0.7033
vn -0.9322 -0.0676 0.3556
vn -0.2961 0.1181 -0.9478
vn -0.6874 -0.2279 -0.6896
vn -0.4376 -0.0460 -0.8980
vn -0.9380 -0.0894 -0.3350
vn 0.0150 0.0285 -0.9995
vn -0.9920 -0.1056 0.0691
vn 0.2621 0.0042 -0.9650
vn -0.9329 -0.2349 0.2731
vn -0.3023 -0.1219 -0.9454
vn -0.2572 -0.2892 -0.9221
vn -0.7573 -0.2402 -0.6073
vn -0.5401 -0.3771 -0.7524
vn -0.8393 -0.3951 -0.3735
vn -0.4683 -0.6933 -0.5478
vn -0.8777 -0.4781 0.0334
vn 0.1664 -0.2304 -0.9588
vn -0.8287 -0.2713 0.4896
vn 0.5455 -0.0123 -0.8380
vn -0.0731 -0.5450 -0.8353
vn -0.6153 -0.7152 -0.3315
vn 0.5078 -0.1394 -0.8502
vn -0.7522 -0.6449 -0.1350
vn 0.4094 -0.1957 -0.8911
vn -0.8136 -0.4090 0.4132
vn -0.3877 -0.9202 -0.0534
vn -0.2838 -0.6134 -0.7370
vn -0.2603 -0.8536 -0.4513
vn -0.4823 -0.8720 0.0833
vn 0.3888 -0.4606 -0.7979
vn -0.6687 -0.6374 0.3829
vn 0.1260 -0.7314 -0.6702
vn 0.0651 -0.8385 -0.5411
vt 0.781230 0.812500
vt 0.762032 0.875000
vt 0.685473 0.777944
vt 0.734697 0.375000
vt 0.703125 0.312500
vt 0.764235 0.312500
vt 0.741874 0.599249
vt 0.704616 0.531266
vt 0.763980 0.500000
vt 0.734375 0.000000
vt 0.879629 0.062500
vt 0.593677 0.062500
vt 0.670132 0.472235
vt 0.734536 0.437500
vt 0.734224 0.937500
vt 0.605595 0.875000
vt 0.658359 0.250000
vt 0.719918 0.218999
vt 0.734375 0.717281
vt 0.678319 0.660608
vt 0.606077 0.187500
vt 0.641330 0.592355
vt 0.623673 0.812500
vt 0.673680 0.375000
vt 0.639230 0.312500
vt 0.640625 1.000000
vt 0.479138 0.937500
vt 0.639064 0.437500
vt 0.612180 0.375000
vt 0.595563 0.750000
vt 0.606567 0.500000
vt 0.603325 0.667055
vt 0.578286 0.562500
vt 0.578286 0.437500
vt 0.577540 0.283466
vt 0.543444 0.396147
vt 0.512752 0.812500
vt 0.546915 0.655822
vt 0.503540 0.125000
vt 0.660224 0.125000
vt 0.544067 0.500000
vt 0.509405 0.537235
vt 0.515588 0.281661
vt 0.510998 0.724803
vt 0.449506 0.875000
vt 0.487180 0.625000
vt 0.453286 0.562500
vt 0.450317 0.500000
vt 0.485851 0.406417
vt 0.453088 0.281661
vt 0.455926 0.750000
vt 0.445771 0.665313
vt 0.799126 0.125000
vt 0.779637 0.187500
vt 0.402284 0.812500
vt 0.497588 0.187500
vt 0.386121 0.187500
vt 0.328120 0.062500
vt 0.453125 0.000000
vt 0.437500 0.406180
vt 0.347717 0.125000
vt 0.390588 0.718339
vt 0.293360 0.875000
vt 0.308534 0.812500
vt 0.316528 0.750000
vt 0.343750 0.656371
vt 0.393429 0.625000
vt 0.296915 0.655822
vt 0.343750 0.531273
vt 0.297036 0.562500
vt 0.294067 0.500000
vt 0.328125 1.000000
vt 0.230145 0.937500
vt 0.328286 0.437500
vt 0.296914 0.344178
vt 0.343750 0.343629
vt 0.265786 0.437500
vt 0.234338 0.281661
vt 0.296902 0.219059
vt 0.214815 0.187500
vt 0.237180 0.375000
vt 0.199790 0.812500
vt 0.237635 0.520573
vt 0.203286 0.437500
vt 0.237180 0.625000
vt 0.203286 0.562500
vt 0.190964 0.125000
vt 0.113605 0.062500
vt 0.169067 0.500000
vt 0.203125 0.000000
vt 0.137012 0.875000
vt 0.176363 0.337227
vt 0.171838 0.718339
vt 0.234338 0.718339
vt 0.148421 0.399333
vt 0.160278 0.250000
vt 0.121065 0.187500
vt 0.174680 0.625000
vt 0.134405 0.537235
vt 0.140625 1.000000
vt 0.030235 0.937500
vt 0.075252 0.812500
vt 0.102021 0.334687
vt 0.109536 0.437500
vt 0.066529 0.250000
vt 0.055088 0.153620
vt 0.112179 0.625000
vt 0.078286 0.562500
vt 0.075317 0.500000
vt 0.047036 0.437500
vt 0.032456 0.875000
vt 0.048167 0.750000
vt 0.108913 0.719958
vt 0.062500 0.658651
vt 0.015664 0.655822
vt 0.018885 0.520574
vt 0.000000 0.562500
vt 0.015625 0.000000
vt 0.000000 0.062500
vt 0.000000 0.399333
vt 0.046914 0.344178
vt 0.000000 0.784407
vt 0.000000 0.273040
vt 0.991904 0.273040
vt 0.992171 0.399333
vt 0.937867 0.282145
vt 1.000000 0.655822
vt 0.975379 0.784407
vt 0.953164 0.655822
vt 1.000000 0.500000
vt 0.984536 0.562500
vt 0.950317 0.500000
vt 0.953286 0.437500
vt 0.924679 0.375000
vt 0.915655 0.537235
vt 0.910279 0.750000
vt 0.906250 0.656371
vt 0.965747 0.187500
vt 0.868449 0.212346
vt 0.978825 0.875000
vt 0.921769 0.937500
vt 0.872374 0.843190
vt 0.887823 0.312500
vt 0.859536 0.562500
vt 0.856567 0.500000
vt 0.890786 0.437500
vt 0.855944 0.396148
vt 0.859414 0.655822
vt 0.939862 0.125000
vt 0.812867 0.282145
vt 0.814726 0.750000
vt 0.796945 0.653777
vt 0.828125 1.000000
vt 0.798190 0.375000
vt 0.797036 0.437500
vt 0.390786 0.562500
vt 0.387817 0.500000
vt 0.390786 0.437500
vt 0.390665 0.344178
vt 0.378980 0.250000
vt 0.000000 0.125000
vt 0.000000 0.187500
vt 0.801816 0.543181
s 0
f 2/1/1 6/2/1 13/3/1
f 11/4/2 14/5/2 4/6/2
f 8/7/3 9/8/3 3/9/3
f 5/10/4 127/11/4 44/12/4
f 9/8/5 16/13/5 10/14/5
f 139/15/6 32/16/6 6/2/6
f 14/5/7 21/17/7 12/18/7
f 7/19/8 15/20/8 8/7/8
f 12/18/9 21/17/9 31/21/9
f 15/20/10 18/22/10 9/8/10
f 32/16/11 22/23/11 13/3/11
f 14/5/12 17/24/12 20/25/12
f 139/15/13 1/26/13 59/27/13
f 19/28/14 25/29/14 17/24/14
f 22/23/15 27/30/15 13/3/15
f 16/13/16 18/22/16 24/31/16
f 18/22/17 23/32/17 28/33/17
f 24/31/18 29/34/18 19/28/18
f 20/25/19 25/29/19 30/35/19
f 20/25/20 30/35/20 21/17/20
f 29/34/21 35/36/21 25/29/21
f 32/16/22 41/37/22 22/23/22
f 23/32/23 27/30/23 33/38/23
f 31/21/24 51/39/24 26/40/24
f 24/31/25 28/33/25 34/41/25
f 28/33/26 33/38/26 37/42/26
f 34/41/27 35/36/27 29/34/27
f 30/35/28 35/36/28 38/43/28
f 41/37/29 36/44/29 27/30/29
f 32/16/30 59/27/30 40/45/30
f 37/42/31 42/46/31 47/47/31
f 37/42/32 47/47/32 48/48/32
f 38/43/33 43/49/33 50/50/33
f 41/37/34 45/51/34 36/44/34
f 36/44/35 45/51/35 46/52/35
f 26/40/36 146/53/36 145/54/36 12/18/36
f 41/37/37 40/45/37 52/55/37
f 39/56/38 50/50/38 64/57/38
f 44/12/39 51/39/39 76/58/39
f 5/59/40 44/12/40 76/58/40
f 48/48/41 49/60/41 43/49/41
f 64/57/42 73/61/42 51/39/42
f 52/55/43 54/62/43 45/51/43
f 59/27/44 77/63/44 40/45/44
f 52/55/45 77/63/45 67/64/45
f 54/62/46 68/65/46 60/66/46
f 54/62/47 60/66/47 55/67/47
f 60/66/48 68/65/48 69/68/48
f 61/69/49 65/70/49 70/71/49
f 59/27/50 1/72/50 82/73/50
f 66/74/51 71/75/51 62/76/51
f 70/71/52 75/77/52 66/74/52
f 71/75/53 81/78/53 72/79/53
f 72/79/54 81/78/54 87/80/54
f 75/77/55 80/81/55 71/75/55
f 67/64/56 77/63/56 88/82/56
f 71/75/57 80/81/57 81/78/57
f 74/83/58 85/84/58 75/77/58
f 74/83/59 79/85/59 83/86/59
f 96/87/60 111/88/60 76/58/60
f 74/83/61 83/86/61 84/89/61
f 5/90/62 76/58/62 111/88/62
f 77/63/63 82/73/63 92/91/63
f 85/84/64 86/92/64 80/81/64
f 88/82/65 89/93/65 78/94/65
f 84/89/66 95/95/66 85/84/66
f 85/84/67 95/95/67 86/92/67
f 87/80/68 91/96/68 100/97/68
f 83/86/69 90/98/69 93/99/69
f 82/73/70 1/100/70 131/101/70
f 92/91/71 105/102/71 88/82/71
f 86/92/72 95/95/72 99/103/72
f 94/104/73 99/103/73 95/95/73
f 99/103/74 109/105/74 91/96/74
f 100/97/75 110/106/75 96/87/75
f 93/99/76 98/107/76 102/108/76
f 93/99/77 102/108/77 103/109/77
f 103/109/78 108/110/78 94/104/78
f 131/101/79 118/111/79 92/91/79
f 105/102/80 106/112/80 97/113/80
f 100/97/81 109/105/81 110/106/81
f 97/113/82 101/114/82 98/107/82
f 101/114/83 106/112/83 112/115/83
f 107/116/84 112/115/84 115/117/84
f 5/118/85 111/88/85 127/119/85
f 107/116/86 113/120/86 108/110/86
f 108/110/87 113/120/87 104/121/87
f 105/102/88 118/111/88 114/122/88
f 104/121/89 113/120/89 116/123/89
f 105/102/90 114/122/90 106/112/90
f 104/121/91 116/123/91 109/105/91
f 116/124/92 113/125/92 126/126/92
f 112/127/93 114/128/93 119/129/93
f 107/130/94 115/131/94 120/132/94
f 121/133/95 125/134/95 113/125/95
f 115/131/96 119/129/96 124/135/96
f 119/129/97 128/136/97 123/137/97
f 122/138/98 126/126/98 137/139/98
f 118/140/99 131/141/99 132/142/99
f 118/140/100 132/142/100 114/128/100
f 126/126/101 125/134/101 130/143/101
f 124/135/102 134/144/102 135/145/102
f 129/146/103 136/147/103 125/134/103
f 130/143/104 137/139/104 126/126/104
f 123/137/105 128/136/105 133/148/105
f 137/139/106 146/53/106 117/149/106
f 135/145/107 136/147/107 129/146/107
f 130/143/108 136/147/108 138/150/108
f 132/142/109 140/151/109 128/136/109
f 133/148/110 140/151/110 141/152/110
f 137/139/111 138/150/111 145/54/111
f 131/141/112 1/153/112 139/15/112
f 138/150/113 144/154/113 4/6/113
f 140/151/114 2/1/114 7/19/114
f 4/6/115 12/18/115 138/150/115
f 141/152/116 7/19/116 8/7/116
f 3/9/117 10/14/117 143/155/117
f 3/9/118 9/8/118 10/14/118
f 7/19/119 2/1/119 13/3/119
f 4/6/120 14/5/120 12/18/120
f 44/12/121 127/11/121 146/53/121 26/40/121
f 17/24/122 11/4/122 10/14/122 16/13/122
f 23/32/123 15/20/123 13/3/123 27/30/123
f 6/2/124 32/16/124 13/3/124
f 11/4/125 17/24/125 14/5/125
f 7/19/126 13/3/126 15/20/126
f 9/8/127 8/7/127 15/20/127
f 21/17/128 14/5/128 20/25/128
f 12/18/129 31/21/129 26/40/129
f 9/8/130 18/22/130 16/13/130
f 16/13/131 19/28/131 17/24/131
f 16/13/132 24/31/132 19/28/132
f 139/15/133 59/27/133 32/16/133
f 20/25/134 17/24/134 25/29/134
f 38/43/135 39/56/135 31/21/135 30/35/135
f 15/20/136 23/32/136 18/22/136
f 21/17/137 30/35/137 31/21/137
f 24/31/138 18/22/138 28/33/138
f 19/28/139 29/34/139 25/29/139
f 24/31/140 34/41/140 29/34/140
f 30/35/141 25/29/141 35/36/141
f 22/23/142 41/37/142 27/30/142
f 28/33/143 23/32/143 33/38/143
f 44/12/144 26/40/144 51/39/144
f 43/49/145 35/36/145 34/41/145 37/42/145
f 51/39/146 31/21/146 39/56/146
f 34/41/147 28/33/147 37/42/147
f 33/38/148 27/30/148 36/44/148
f 32/16/149 40/45/149 41/37/149
f 38/43/150 35/36/150 43/49/150
f 33/38/151 36/44/151 42/46/151
f 37/42/152 33/38/152 42/46/152
f 55/67/153 56/156/153 47/47/153 46/52/153
f 36/44/154 46/52/154 42/46/154
f 37/42/155 48/48/155 43/49/155
f 39/56/156 38/43/156 50/50/156
f 50/50/157 43/49/157 49/60/157
f 41/37/158 52/55/158 45/51/158
f 39/56/159 64/57/159 51/39/159
f 47/47/160 42/46/160 46/52/160
f 56/156/161 57/157/161 48/48/161 47/47/161
f 51/39/162 73/61/162 76/58/162
f 58/158/163 49/60/163 48/48/163 57/157/163
f 66/74/164 58/158/164 57/157/164 61/69/164
f 49/60/165 58/158/165 53/159/165
f 50/50/166 49/60/166 53/159/166
f 50/50/167 53/159/167 63/160/167
f 46/52/168 45/51/168 54/62/168
f 64/57/169 50/50/169 63/160/169
f 46/52/170 54/62/170 55/67/170
f 40/45/171 77/63/171 52/55/171
f 57/157/172 56/156/172 61/69/172
f 62/76/173 53/159/173 58/158/173 66/74/173
f 68/65/174 54/62/174 52/55/174 67/64/174
f 60/66/175 61/69/175 56/156/175 55/67/175
f 53/159/176 62/76/176 63/160/176
f 72/79/177 63/160/177 62/76/177 71/75/177
f 69/68/178 65/70/178 61/69/178 60/66/178
f 64/57/179 63/160/179 72/79/179
f 64/57/180 72/79/180 73/61/180
f 96/87/181 73/61/181 72/79/181 87/80/181
f 61/69/182 70/71/182 66/74/182
f 59/27/183 82/73/183 77/63/183
f 66/74/184 75/77/184 71/75/184
f 69/68/185 68/65/185 78/94/185
f 69/68/186 78/94/186 79/85/186
f 79/85/187 74/83/187 65/70/187 69/68/187
f 78/94/188 68/65/188 67/64/188 88/82/188
f 76/58/189 73/61/189 96/87/189
f 70/71/190 65/70/190 74/83/190
f 70/71/191 74/83/191 75/77/191
f 90/98/192 79/85/192 78/94/192 89/93/192
f 75/77/193 85/84/193 80/81/193
f 87/80/194 81/78/194 91/96/194
f 98/107/195 90/98/195 89/93/195 97/113/195
f 83/86/196 79/85/196 90/98/196
f 74/83/197 84/89/197 85/84/197
f 77/63/198 92/91/198 88/82/198
f 81/78/199 80/81/199 86/92/199
f 81/78/200 86/92/200 91/96/200
f 87/80/201 100/97/201 96/87/201
f 84/89/202 83/86/202 93/99/202
f 94/104/203 95/95/203 84/89/203 93/99/203
f 93/99/204 90/98/204 98/107/204
f 97/113/205 89/93/205 88/82/205 105/102/205
f 82/73/206 131/101/206 92/91/206
f 104/121/207 99/103/207 94/104/207 108/110/207
f 86/92/208 99/103/208 91/96/208
f 100/97/209 91/96/209 109/105/209
f 96/87/210 110/106/210 111/88/210
f 93/99/211 103/109/211 94/104/211
f 102/108/212 98/107/212 101/114/212
f 112/115/213 107/116/213 102/108/213 101/114/213
f 92/91/214 118/111/214 105/102/214
f 99/103/215 104/121/215 109/105/215
f 97/113/216 106/112/216 101/114/216
f 127/119/217 111/88/217 110/106/217 117/161/217
f 103/109/218 102/108/218 107/116/218
f 103/109/219 107/116/219 108/110/219
f 116/123/220 122/162/220 110/106/220 109/105/220
f 112/115/221 106/112/221 114/122/221
f 121/133/222 113/125/222 107/130/222 120/132/222
f 110/106/223 122/162/223 117/161/223
f 115/131/224 112/127/224 119/129/224
f 129/146/225 121/133/225 120/132/225 124/135/225
f 120/132/226 115/131/226 124/135/226
f 126/126/227 113/125/227 125/134/227
f 119/129/228 114/128/228 128/136/228
f 122/138/229 116/124/229 126/126/229
f 114/128/230 132/142/230 128/136/230
f 117/149/231 122/138/231 137/139/231
f 124/135/232 119/129/232 123/137/232
f 133/148/233 134/144/233 124/135/233 123/137/233
f 121/133/234 129/146/234 125/134/234
f 124/135/235 135/145/235 129/146/235
f 130/143/236 125/134/236 136/147/236
f 143/155/237 136/147/237 135/145/237 142/163/237
f 130/143/238 138/150/238 137/139/238
f 133/148/239 128/136/239 140/151/239
f 117/149/240 146/53/240 127/11/240
f 139/15/241 6/2/241 132/142/241 131/141/241
f 141/152/242 142/163/242 134/144/242 133/148/242
f 136/147/243 143/155/243 144/154/243
f 132/142/244 6/2/244 2/1/244
f 138/150/245 136/147/245 144/154/245
f 132/142/246 2/1/246 140/151/246
f 137/139/247 145/54/247 146/53/247
f 11/4/248 144/154/248 143/155/248 10/14/248
f 135/145/249 134/144/249 142/163/249
f 142/163/250 3/9/250 143/155/250
f 144/154/251 11/4/251 4/6/251
f 141/152/252 140/151/252 7/19/252
f 145/54/253 138/150/253 12/18/253
f 142/163/254 141/152/254 8/7/254
f 3/9/255 142/163/255 8/7/255
