# Blender 5.0.0
# www.blender.org
mtllib prep_throw_ball0038.mtl
o Sphere
v -1.483647 6.548070 -0.413842
v -1.680439 5.876866 -0.505234
v -2.228902 5.198395 -0.133072
v -2.571127 5.343164 0.209603
v -2.773940 6.302269 0.661340
v -1.565816 6.061797 -0.471891
v -1.696406 5.513461 -0.328863
v -1.926197 5.259460 -0.201582
v -1.895414 5.189771 0.050775
v -2.222763 5.164582 0.085437
v -2.347139 5.214362 0.194826
v -2.582922 5.529387 0.479296
v -1.456728 5.749742 -0.247255
v -2.340616 5.312636 0.402039
v -1.574039 5.425071 -0.065883
v -1.880049 5.229642 0.287105
v -2.103837 5.273578 0.420343
v -1.540784 5.417480 0.178532
v -1.848801 5.344750 0.465455
v -2.143976 5.462907 0.621839
v -2.346252 5.528946 0.623292
v -1.327593 5.966638 -0.161363
v -1.345890 5.688857 0.164121
v -1.603742 5.501698 0.478765
v -1.907912 5.498273 0.640572
v -2.592406 5.861776 0.682095
v -1.276223 5.909336 0.013058
v -1.415156 5.707260 0.455258
v -1.669524 5.658802 0.667220
v -2.067074 5.769253 0.817366
v -2.372440 5.806607 0.772434
v -1.326030 6.189868 -0.241432
v -1.241229 5.998741 0.336878
v -1.468095 5.901378 0.660836
v -1.705083 5.877407 0.802935
v -1.178225 6.298255 0.231937
v -1.362578 6.170168 0.663454
v -2.005471 6.110340 0.929258
v -2.283387 6.227885 0.916623
v -1.271531 6.619713 -0.120658
v -1.204404 6.369170 0.001144
v -1.237082 6.390760 0.500141
v -1.647714 6.304256 0.889090
v -2.651205 6.132430 0.733505
v -1.192359 6.624302 0.201944
v -1.224903 6.684581 0.424114
v -1.338089 6.625423 0.656533
v -1.455528 6.627780 0.775292
v -1.684668 6.657061 0.903549
v -2.017060 6.492014 0.972567
v -2.461555 6.227890 0.858215
v -1.263249 6.841265 0.022702
v -1.938529 6.934877 0.919546
v -1.283961 7.008616 0.251940
v -1.356939 7.050181 0.482606
v -1.452064 7.081028 0.615586
v -1.576278 7.089193 0.728901
v -1.706433 7.032571 0.827548
v -1.354434 6.541052 -0.279655
v -1.455670 7.304047 0.324961
v -1.661549 7.379655 0.577643
v -2.067227 7.187545 0.834562
v -2.215409 6.848589 0.924591
v -2.364705 6.697833 0.909436
v -1.770876 7.566214 0.389326
v -1.904071 7.392016 0.695589
v -1.433851 7.137372 -0.093211
v -1.447349 7.264909 0.052019
v -1.612451 7.490868 0.204677
v -1.905753 7.573770 0.492689
v -2.225899 7.374006 0.715853
v -2.477380 7.051405 0.785720
v -2.559797 6.666054 0.826118
v -2.111823 7.697000 0.233845
v -2.155285 7.600579 0.492707
v -2.690602 6.508799 0.748180
v -1.443348 6.978356 -0.238347
v -1.746266 7.481899 -0.108756
v -1.900905 7.634638 0.062100
v -2.397929 7.539955 0.476263
v -2.570723 7.324840 0.578251
v -1.506544 6.800030 -0.378205
v -2.167459 7.674965 0.037828
v -2.438264 7.607730 0.004852
v -2.421827 7.626508 0.249790
v -2.694306 7.416939 0.307071
v -2.733499 7.022962 0.609635
v -1.693082 7.225595 -0.321506
v -1.950706 7.425177 -0.305921
v -2.145477 7.577461 -0.172256
v -2.831728 7.154904 0.397776
v -1.698277 6.953899 -0.468148
v -2.487875 7.500265 -0.189309
v -2.762509 7.322169 -0.108470
v -2.700824 7.449458 0.100575
v -2.812959 6.783271 0.611739
v -2.119500 7.228168 -0.489967
v -2.349675 7.352066 -0.393074
v -2.914834 7.153267 0.072204
v -2.934517 6.877522 0.403078
v -2.370036 7.069644 -0.561703
v -2.588062 7.191537 -0.419722
v -2.733284 7.162978 -0.331041
v -3.016357 6.851599 -0.089381
v -1.918805 6.935187 -0.579647
v -2.129315 6.900925 -0.629119
v -2.771435 6.752430 -0.510102
v -2.899816 6.935471 -0.290239
v -3.029052 6.818009 0.167533
v -3.007717 6.572486 0.360599
v -2.863425 6.498433 0.585171
v -2.432643 6.762636 -0.657202
v -2.995610 6.508235 -0.305384
v -2.059696 6.525813 -0.702468
v -2.684736 6.515853 -0.604809
v -3.081320 6.433910 -0.000304
v -2.982097 6.201900 0.371617
v -1.796594 6.601725 -0.614171
v -2.421478 6.327139 -0.708522
v -2.802058 6.222559 -0.527794
v -2.919498 6.224916 -0.409035
v -3.049840 6.277996 0.208977
v -2.351210 6.013322 -0.686251
v -2.672997 5.979212 -0.575896
v -2.963652 6.008630 -0.263883
v -3.054478 6.128479 -0.034688
v -2.871039 6.159636 0.533577
v -2.097840 6.154317 -0.706991
v -2.805523 5.769312 -0.368088
v -2.947293 5.805532 -0.078496
v -1.631350 6.559577 -0.532666
v -1.795139 6.162762 -0.626406
v -2.238010 5.738555 -0.622110
v -2.461165 5.622151 -0.524490
v -2.587694 5.564449 -0.422641
v -2.774905 5.573367 -0.229836
v -2.950619 5.841860 0.193945
v -2.782140 5.518579 0.130923
v -1.488499 6.290364 -0.433643
v -1.880564 5.761219 -0.568187
v -2.031689 5.476334 -0.468355
v -2.287638 5.313068 -0.327001
v -2.486712 5.284127 -0.141828
v -2.602664 5.331996 -0.017967
v -2.757975 5.664965 0.397338
v -2.820123 5.875453 0.472868
vn 0.6536 -0.2782 -0.7039
vn -0.4379 -0.8069 0.3965
vn 0.1289 -0.9517 -0.2786
vn -0.6738 -0.1827 0.7160
vn 0.0925 -0.9828 0.1598
vn 0.7224 -0.1307 -0.6790
vn -0.3898 -0.6634 0.6387
vn 0.5179 -0.7086 -0.4792
vn -0.4641 -0.4527 0.7614
vn 0.5633 -0.8199 -0.1021
vn 0.7692 -0.2205 -0.5997
vn -0.1719 -0.7348 0.6562
vn 0.7208 0.0396 -0.6920
vn 0.0860 -0.7346 0.6730
vn 0.8551 -0.3623 -0.3709
vn 0.5359 -0.7770 0.3303
vn 0.7970 -0.5604 0.2251
vn 0.3757 -0.6431 0.6673
vn 0.0142 -0.5405 0.8412
vn -0.1580 -0.5028 0.8499
vn 0.2326 -0.4854 0.8428
vn 0.9223 -0.1362 -0.3617
vn 0.9501 -0.3116 -0.0166
vn -0.4225 -0.2658 0.8665
vn 0.6119 -0.4904 0.6206
vn 0.8294 -0.3048 0.4682
vn 0.5013 -0.3960 0.7693
vn 0.1361 -0.3309 0.9338
vn 0.9749 -0.1564 -0.1586
vn 0.8824 0.0202 -0.4701
vn 0.8147 -0.0350 0.5788
vn 0.7105 -0.0275 0.7032
vn 0.1676 -0.1061 0.9801
vn 0.9942 0.0337 -0.1024
vn 0.9900 0.0549 0.1301
vn -0.6288 -0.4188 0.6551
vn 0.9572 0.1311 -0.2579
vn -0.1888 -0.0176 0.9819
vn -0.5163 -0.0873 0.8519
vn -0.5977 -0.0936 0.7962
vn 0.4899 0.0156 0.8717
vn -0.3899 -0.0200 0.9206
vn 0.9662 0.2419 -0.0893
vn 0.8176 0.2166 -0.5335
vn 0.8494 0.3272 -0.4141
vn 0.8585 0.5106 -0.0470
vn 0.8683 0.4572 0.1923
vn 0.7845 0.6168 -0.0645
vn 0.4255 0.7542 0.5001
vn 0.7151 0.1612 -0.6802
vn 0.0218 0.5500 0.8349
vn 0.0799 0.7428 0.6647
vn -0.3840 0.4713 0.7940
vn -0.5530 0.3755 0.7437
vn -0.2241 0.7184 0.6585
vn 0.6659 0.4808 -0.5704
vn -0.3651 0.6218 0.6929
vn -0.1952 0.9293 0.3134
vn 0.1616 0.9745 -0.1554
vn -0.6869 0.0541 0.7248
vn -0.2359 0.9709 -0.0422
vn -0.6849 -0.0297 0.7280
vn 0.6104 0.3434 -0.7137
vn -0.5231 0.7763 0.3519
vn 0.4452 0.6248 -0.6414
vn -0.5241 0.8512 -0.0301
vn -0.5841 0.7988 0.1442
vn -0.7805 0.2997 0.5486
vn -0.1782 0.8853 -0.4295
vn 0.6260 0.1647 -0.7622
vn 0.3768 0.4344 -0.8181
vn -0.8103 0.5744 0.1160
vn -0.7988 0.5889 -0.1229
vn -0.9001 0.3714 0.2279
vn -0.8319 0.1243 0.5408
vn -0.3471 0.6307 -0.6941
vn -0.4949 0.6171 -0.6117
vn -0.7600 0.4772 -0.4411
vn 0.4761 0.2201 -0.8514
vn 0.1518 0.3829 -0.9112
vn -0.9280 0.1771 0.3277
vn -0.0818 0.5153 -0.8531
vn -0.0516 0.3062 -0.9506
vn -0.3945 0.2132 -0.8938
vn -0.7461 -0.0838 0.6606
vn -0.7683 0.1939 -0.6100
vn -0.8811 0.2125 -0.4225
vn 0.2614 0.1937 -0.9456
vn -0.9641 0.0972 -0.2472
vn 0.1887 0.2221 -0.9566
vn -0.9886 0.1475 -0.0296
vn -0.9580 -0.0525 -0.2819
vn -0.0469 0.1157 -0.9922
vn -0.6529 0.0629 -0.7549
vn -0.9060 -0.0923 -0.4131
vn -0.4017 -0.0580 -0.9139
vn -0.0375 -0.0791 -0.9962
vn -0.9620 -0.2242 0.1559
vn 0.4476 0.0264 -0.8938
vn 0.3109 0.0275 -0.9500
vn -0.9337 -0.2795 -0.2238
vn -0.4632 -0.3894 -0.7961
vn -0.8407 -0.3937 -0.3717
vn -0.9474 -0.3186 0.0309
vn 0.0382 -0.2122 -0.9765
vn -0.8534 -0.2888 0.4340
vn -0.6281 -0.5117 -0.5862
vn -0.8290 -0.5502 -0.1002
vn 0.2575 -0.1921 -0.9470
vn 0.1615 -0.4016 -0.9015
vn -0.8052 -0.4859 0.3400
vn 0.6284 0.0478 -0.7764
vn -0.6618 -0.7387 0.1280
vn 0.4775 -0.4005 -0.7821
vn -0.6693 -0.6248 0.4021
vn 0.3513 -0.6537 -0.6703
vn -0.3084 -0.9413 -0.1370
vn 0.0596 -0.9862 -0.1543
vn 0.6044 -0.3692 -0.7060
vn -0.4956 -0.7247 0.4787
vn -0.6627 -0.2720 0.6977
vn -0.0322 -0.9470 0.3196
vn 0.8348 -0.4655 -0.2938
vn 0.7334 -0.2092 -0.6468
vn -0.1792 -0.8867 0.4262
vn 0.6889 -0.5270 -0.4977
vn 0.4960 -0.8196 -0.2868
vn -0.2236 -0.6998 0.6785
vn -0.4336 -0.4783 0.7637
vn 0.5083 -0.8540 0.1110
vn 0.1434 -0.8428 0.5188
vn 0.4739 -0.7754 0.4174
vn 0.7614 -0.0090 -0.6483
vn 0.0535 -0.7224 0.6894
vn -0.1685 -0.2838 0.9440
vn 0.8024 -0.5830 -0.1273
vn -0.1848 -0.4785 0.8584
vn 0.7154 -0.6193 0.3237
vn 0.3550 -0.6403 0.6812
vn 0.6104 -0.4905 0.6220
vn 0.1734 -0.4647 0.8683
vn 0.9329 -0.1541 -0.3254
vn 0.8737 -0.4260 0.2348
vn -0.4365 -0.2585 0.8617
vn 0.5280 -0.2280 0.8180
vn -0.3015 -0.2511 0.9198
vn 0.8004 -0.3191 0.5075
vn 0.9744 -0.2205 -0.0444
vn 0.8891 0.0158 -0.4575
vn 0.2267 -0.2219 0.9483
vn 0.9613 -0.1145 0.2504
vn 0.8847 -0.1872 0.4270
vn 0.8353 0.2397 0.4948
vn 0.9776 0.0138 0.2098
vn 0.5973 -0.0739 0.7986
vn -0.0936 -0.1151 0.9889
vn 0.2118 -0.0179 0.9772
vn 0.9658 0.1306 -0.2239
vn -0.3113 -0.0393 0.9495
vn 0.8879 0.0804 0.4529
vn 0.6779 0.2397 0.6950
vn -0.4738 -0.0418 0.8796
vn 0.5108 0.2089 0.8339
vn 0.3881 0.5049 0.7710
vn 0.2844 0.2060 0.9363
vn 0.1598 0.0894 0.9831
vn -0.0201 0.1224 0.9923
vn 0.9718 0.2209 0.0824
vn -0.1501 0.0494 0.9874
vn 0.9248 0.2957 0.2393
vn 0.8532 0.2605 -0.4518
vn 0.6011 0.5008 0.6228
vn 0.1973 0.4193 0.8862
vn 0.8854 0.4010 -0.2349
vn 0.7249 0.5508 0.4137
vn -0.0714 0.2851 0.9558
vn -0.2261 0.3558 0.9068
vn 0.6459 0.7041 0.2950
vn -0.3173 0.2215 0.9221
vn -0.4111 0.1816 0.8933
vn -0.5734 0.2025 0.7939
vn 0.3402 0.7018 0.6259
vn 0.7599 0.2125 -0.6143
vn 0.0057 0.7008 0.7133
vn 0.6610 0.6869 -0.3019
vn 0.5277 0.8123 -0.2485
vn 0.3833 0.9227 0.0407
vn 0.6559 0.5726 -0.4918
vn -0.6093 0.1182 0.7841
vn 0.2448 0.9365 0.2510
vn 0.0996 0.9269 0.3620
vn 0.2761 0.8188 -0.5034
vn -0.2488 0.8957 0.3686
vn -0.6860 0.4308 0.5864
vn 0.0377 0.6739 -0.7378
vn 0.1726 0.9002 -0.3998
vn -0.2242 0.9727 -0.0595
vn 0.6021 0.3703 -0.7074
vn -0.5564 0.6760 0.4832
vn -0.6878 0.5318 0.4941
vn -0.7774 0.2627 0.5715
vn -0.1643 0.8802 -0.4452
vn -0.5744 0.7664 -0.2876
vn -0.1380 0.7541 -0.6421
vn 0.3254 0.4772 -0.8163
vn 0.5561 0.2253 -0.8000
vn -0.8443 0.4432 -0.3013
vn -0.8340 0.5102 0.2103
vn -0.8997 0.3387 0.2755
vn -0.8233 0.0936 0.5599
vn -0.5661 0.6335 -0.5274
vn -0.2511 0.5095 -0.8230
vn -0.3789 0.3394 -0.8610
vn 0.4209 0.2447 -0.8735
vn -0.9470 0.3213 -0.0048
vn 0.0162 0.3909 -0.9203
vn -0.8404 -0.0522 0.5395
vn -0.5354 0.3790 -0.7548
vn -0.6488 0.3541 -0.6736
vn -0.9822 0.0517 0.1805
vn 0.0031 0.1925 -0.9813
vn -0.7100 0.0649 -0.7012
vn -0.9304 -0.0535 0.3625
vn -0.2991 0.1041 -0.9485
vn -0.6943 -0.2345 -0.6804
vn -0.4427 -0.0579 -0.8948
vn -0.9409 -0.0874 -0.3272
vn 0.0106 0.0111 -0.9999
vn -0.9923 -0.0960 0.0778
vn 0.2576 -0.0147 -0.9661
vn -0.9326 -0.2220 0.2846
vn -0.3085 -0.1359 -0.9415
vn -0.2653 -0.3038 -0.9150
vn -0.7639 -0.2448 -0.5971
vn -0.5492 -0.3867 -0.7408
vn -0.8461 -0.3949 -0.3580
vn -0.4797 -0.7012 -0.5274
vn -0.8814 -0.4695 0.0518
vn 0.1599 -0.2489 -0.9552
vn -0.8272 -0.2552 0.5006
vn 0.5413 -0.0313 -0.8403
vn -0.0830 -0.5614 -0.8234
vn -0.6253 -0.7169 -0.3083
vn 0.5028 -0.1584 -0.8498
vn -0.7595 -0.6407 -0.1125
vn 0.4039 -0.2148 -0.8892
vn -0.8135 -0.3938 0.4280
vn -0.3973 -0.9173 -0.0254
vn -0.2950 -0.6265 -0.7214
vn -0.2722 -0.8621 -0.4274
vn -0.4900 -0.8647 0.1103
vn 0.3818 -0.4794 -0.7902
vn -0.6708 -0.6226 0.4029
vn 0.1159 -0.7478 -0.6538
vn 0.0542 -0.8522 -0.5203
vt 0.781230 0.812500
vt 0.762032 0.875000
vt 0.685473 0.777944
vt 0.734697 0.375000
vt 0.703125 0.312500
vt 0.764235 0.312500
vt 0.741874 0.599249
vt 0.704616 0.531266
vt 0.763980 0.500000
vt 0.734375 0.000000
vt 0.879629 0.062500
vt 0.593677 0.062500
vt 0.670132 0.472235
vt 0.734536 0.437500
vt 0.734224 0.937500
vt 0.605595 0.875000
vt 0.658359 0.250000
vt 0.719918 0.218999
vt 0.734375 0.717281
vt 0.678319 0.660608
vt 0.606077 0.187500
vt 0.641330 0.592355
vt 0.623673 0.812500
vt 0.673680 0.375000
vt 0.639230 0.312500
vt 0.640625 1.000000
vt 0.479138 0.937500
vt 0.639064 0.437500
vt 0.612180 0.375000
vt 0.595563 0.750000
vt 0.606567 0.500000
vt 0.603325 0.667055
vt 0.578286 0.562500
vt 0.578286 0.437500
vt 0.577540 0.283466
vt 0.543444 0.396147
vt 0.512752 0.812500
vt 0.546915 0.655822
vt 0.503540 0.125000
vt 0.660224 0.125000
vt 0.544067 0.500000
vt 0.509405 0.537235
vt 0.515588 0.281661
vt 0.510998 0.724803
vt 0.449506 0.875000
vt 0.487180 0.625000
vt 0.453286 0.562500
vt 0.450317 0.500000
vt 0.485851 0.406417
vt 0.453088 0.281661
vt 0.455926 0.750000
vt 0.445771 0.665313
vt 0.799126 0.125000
vt 0.779637 0.187500
vt 0.402284 0.812500
vt 0.497588 0.187500
vt 0.386121 0.187500
vt 0.328120 0.062500
vt 0.453125 0.000000
vt 0.437500 0.406180
vt 0.347717 0.125000
vt 0.390588 0.718339
vt 0.293360 0.875000
vt 0.308534 0.812500
vt 0.316528 0.750000
vt 0.343750 0.656371
vt 0.393429 0.625000
vt 0.296915 0.655822
vt 0.343750 0.531273
vt 0.297036 0.562500
vt 0.294067 0.500000
vt 0.328125 1.000000
vt 0.230145 0.937500
vt 0.328286 0.437500
vt 0.296914 0.344178
vt 0.343750 0.343629
vt 0.265786 0.437500
vt 0.234338 0.281661
vt 0.296902 0.219059
vt 0.214815 0.187500
vt 0.237180 0.375000
vt 0.199790 0.812500
vt 0.237635 0.520573
vt 0.203286 0.437500
vt 0.237180 0.625000
vt 0.203286 0.562500
vt 0.190964 0.125000
vt 0.113605 0.062500
vt 0.169067 0.500000
vt 0.203125 0.000000
vt 0.137012 0.875000
vt 0.176363 0.337227
vt 0.171838 0.718339
vt 0.234338 0.718339
vt 0.148421 0.399333
vt 0.160278 0.250000
vt 0.121065 0.187500
vt 0.174680 0.625000
vt 0.134405 0.537235
vt 0.140625 1.000000
vt 0.030235 0.937500
vt 0.075252 0.812500
vt 0.102021 0.334687
vt 0.109536 0.437500
vt 0.066529 0.250000
vt 0.055088 0.153620
vt 0.112179 0.625000
vt 0.078286 0.562500
vt 0.075317 0.500000
vt 0.047036 0.437500
vt 0.032456 0.875000
vt 0.048167 0.750000
vt 0.108913 0.719958
vt 0.062500 0.658651
vt 0.015664 0.655822
vt 0.018885 0.520574
vt 0.000000 0.562500
vt 0.015625 0.000000
vt 0.000000 0.062500
vt 0.000000 0.399333
vt 0.046914 0.344178
vt 0.000000 0.784407
vt 0.000000 0.273040
vt 0.991904 0.273040
vt 0.992171 0.399333
vt 0.937867 0.282145
vt 1.000000 0.655822
vt 0.975379 0.784407
vt 0.953164 0.655822
vt 1.000000 0.500000
vt 0.984536 0.562500
vt 0.950317 0.500000
vt 0.953286 0.437500
vt 0.924679 0.375000
vt 0.915655 0.537235
vt 0.910279 0.750000
vt 0.906250 0.656371
vt 0.965747 0.187500
vt 0.868449 0.212346
vt 0.978825 0.875000
vt 0.921769 0.937500
vt 0.872374 0.843190
vt 0.887823 0.312500
vt 0.859536 0.562500
vt 0.856567 0.500000
vt 0.890786 0.437500
vt 0.855944 0.396148
vt 0.859414 0.655822
vt 0.939862 0.125000
vt 0.812867 0.282145
vt 0.814726 0.750000
vt 0.796945 0.653777
vt 0.828125 1.000000
vt 0.798190 0.375000
vt 0.797036 0.437500
vt 0.390786 0.562500
vt 0.387817 0.500000
vt 0.390786 0.437500
vt 0.390665 0.344178
vt 0.378980 0.250000
vt 0.000000 0.125000
vt 0.000000 0.187500
vt 0.801816 0.543181
s 0
f 2/1/1 6/2/1 13/3/1
f 11/4/2 14/5/2 4/6/2
f 8/7/3 9/8/3 3/9/3
f 5/10/4 127/11/4 44/12/4
f 9/8/5 16/13/5 10/14/5
f 139/15/6 32/16/6 6/2/6
f 14/5/7 21/17/7 12/18/7
f 7/19/8 15/20/8 8/7/8
f 12/18/9 21/17/9 31/21/9
f 15/20/10 18/22/10 9/8/10
f 32/16/11 22/23/11 13/3/11
f 14/5/12 17/24/12 20/25/12
f 139/15/13 1/26/13 59/27/13
f 19/28/14 25/29/14 17/24/14
f 22/23/15 27/30/15 13/3/15
f 16/13/16 18/22/16 24/31/16
f 18/22/17 23/32/17 28/33/17
f 24/31/18 29/34/18 19/28/18
f 20/25/19 25/29/19 30/35/19
f 20/25/20 30/35/20 21/17/20
f 29/34/21 35/36/21 25/29/21
f 32/16/22 41/37/22 22/23/22
f 23/32/23 27/30/23 33/38/23
f 31/21/24 51/39/24 26/40/24
f 24/31/25 28/33/25 34/41/25
f 28/33/26 33/38/26 37/42/26
f 34/41/27 35/36/27 29/34/27
f 30/35/28 35/36/28 38/43/28
f 41/37/29 36/44/29 27/30/29
f 32/16/30 59/27/30 40/45/30
f 37/42/31 42/46/31 47/47/31
f 37/42/32 47/47/32 48/48/32
f 38/43/33 43/49/33 50/50/33
f 41/37/34 45/51/34 36/44/34
f 36/44/35 45/51/35 46/52/35
f 26/40/36 146/53/36 145/54/36 12/18/36
f 41/37/37 40/45/37 52/55/37
f 39/56/38 50/50/38 64/57/38
f 44/12/39 51/39/39 76/58/39
f 5/59/40 44/12/40 76/58/40
f 48/48/41 49/60/41 43/49/41
f 64/57/42 73/61/42 51/39/42
f 52/55/43 54/62/43 45/51/43
f 59/27/44 77/63/44 40/45/44
f 52/55/45 77/63/45 67/64/45
f 54/62/46 68/65/46 60/66/46
f 54/62/47 60/66/47 55/67/47
f 60/66/48 68/65/48 69/68/48
f 61/69/49 65/70/49 70/71/49
f 59/27/50 1/72/50 82/73/50
f 66/74/51 71/75/51 62/76/51
f 70/71/52 75/77/52 66/74/52
f 71/75/53 81/78/53 72/79/53
f 72/79/54 81/78/54 87/80/54
f 75/77/55 80/81/55 71/75/55
f 67/64/56 77/63/56 88/82/56
f 71/75/57 80/81/57 81/78/57
f 74/83/58 85/84/58 75/77/58
f 74/83/59 79/85/59 83/86/59
f 96/87/60 111/88/60 76/58/60
f 74/83/61 83/86/61 84/89/61
f 5/90/62 76/58/62 111/88/62
f 77/63/63 82/73/63 92/91/63
f 85/84/64 86/92/64 80/81/64
f 88/82/65 89/93/65 78/94/65
f 84/89/66 95/95/66 85/84/66
f 85/84/67 95/95/67 86/92/67
f 87/80/68 91/96/68 100/97/68
f 83/86/69 90/98/69 93/99/69
f 82/73/70 1/100/70 131/101/70
f 92/91/71 105/102/71 88/82/71
f 86/92/72 95/95/72 99/103/72
f 94/104/73 99/103/73 95/95/73
f 99/103/74 109/105/74 91/96/74
f 100/97/75 110/106/75 96/87/75
f 93/99/76 98/107/76 102/108/76
f 93/99/77 102/108/77 103/109/77
f 103/109/78 108/110/78 94/104/78
f 131/101/79 118/111/79 92/91/79
f 105/102/80 106/112/80 97/113/80
f 100/97/81 109/105/81 110/106/81
f 97/113/82 101/114/82 98/107/82
f 101/114/83 106/112/83 112/115/83
f 107/116/84 112/115/84 115/117/84
f 5/118/85 111/88/85 127/119/85
f 107/116/86 113/120/86 108/110/86
f 108/110/87 113/120/87 104/121/87
f 105/102/88 118/111/88 114/122/88
f 104/121/89 113/120/89 116/123/89
f 105/102/90 114/122/90 106/112/90
f 104/121/91 116/123/91 109/105/91
f 116/124/92 113/125/92 126/126/92
f 112/127/93 114/128/93 119/129/93
f 107/130/94 115/131/94 120/132/94
f 121/133/95 125/134/95 113/125/95
f 115/131/96 119/129/96 124/135/96
f 119/129/97 128/136/97 123/137/97
f 122/138/98 126/126/98 137/139/98
f 118/140/99 131/141/99 132/142/99
f 118/140/100 132/142/100 114/128/100
f 126/126/101 125/134/101 130/143/101
f 124/135/102 134/144/102 135/145/102
f 129/146/103 136/147/103 125/134/103
f 130/143/104 137/139/104 126/126/104
f 123/137/105 128/136/105 133/148/105
f 137/139/106 146/53/106 117/149/106
f 135/145/107 136/147/107 129/146/107
f 130/143/108 136/147/108 138/150/108
f 132/142/109 140/151/109 128/136/109
f 133/148/110 140/151/110 141/152/110
f 137/139/111 138/150/111 145/54/111
f 131/141/112 1/153/112 139/15/112
f 138/150/113 144/154/113 4/6/113
f 140/151/114 2/1/114 7/19/114
f 4/6/115 12/18/115 138/150/115
f 141/152/116 7/19/116 8/7/116
f 3/9/117 10/14/117 143/155/117
f 3/9/118 9/8/118 10/14/118
f 7/19/119 2/1/119 13/3/119
f 4/6/120 14/5/120 12/18/120
f 44/12/121 127/11/121 146/53/121 26/40/121
f 17/24/122 11/4/122 10/14/122 16/13/122
f 23/32/123 15/20/123 13/3/123 27/30/123
f 6/2/124 32/16/124 13/3/124
f 11/4/125 17/24/125 14/5/125
f 7/19/126 13/3/126 15/20/126
f 9/8/127 8/7/127 15/20/127
f 21/17/128 14/5/128 20/25/128
f 12/18/129 31/21/129 26/40/129
f 9/8/130 18/22/130 16/13/130
f 16/13/131 19/28/131 17/24/131
f 16/13/132 24/31/132 19/28/132
f 139/15/133 59/27/133 32/16/133
f 20/25/134 17/24/134 25/29/134
f 38/43/135 39/56/135 31/21/135 30/35/135
f 15/20/136 23/32/136 18/22/136
f 21/17/137 30/35/137 31/21/137
f 24/31/138 18/22/138 28/33/138
f 19/28/139 29/34/139 25/29/139
f 24/31/140 34/41/140 29/34/140
f 30/35/141 25/29/141 35/36/141
f 22/23/142 41/37/142 27/30/142
f 28/33/143 23/32/143 33/38/143
f 44/12/144 26/40/144 51/39/144
f 43/49/145 35/36/145 34/41/145 37/42/145
f 51/39/146 31/21/146 39/56/146
f 34/41/147 28/33/147 37/42/147
f 33/38/148 27/30/148 36/44/148
f 32/16/149 40/45/149 41/37/149
f 38/43/150 35/36/150 43/49/150
f 33/38/151 36/44/151 42/46/151
f 37/42/152 33/38/152 42/46/152
f 55/67/153 56/156/153 47/47/153 46/52/153
f 36/44/154 46/52/154 42/46/154
f 37/42/155 48/48/155 43/49/155
f 39/56/156 38/43/156 50/50/156
f 50/50/157 43/49/157 49/60/157
f 41/37/158 52/55/158 45/51/158
f 39/56/159 64/57/159 51/39/159
f 47/47/160 42/46/160 46/52/160
f 56/156/161 57/157/161 48/48/161 47/47/161
f 51/39/162 73/61/162 76/58/162
f 58/158/163 49/60/163 48/48/163 57/157/163
f 66/74/164 58/158/164 57/157/164 61/69/164
f 49/60/165 58/158/165 53/159/165
f 50/50/166 49/60/166 53/159/166
f 50/50/167 53/159/167 63/160/167
f 46/52/168 45/51/168 54/62/168
f 64/57/169 50/50/169 63/160/169
f 46/52/170 54/62/170 55/67/170
f 40/45/171 77/63/171 52/55/171
f 57/157/172 56/156/172 61/69/172
f 62/76/173 53/159/173 58/158/173 66/74/173
f 68/65/174 54/62/174 52/55/174 67/64/174
f 60/66/175 61/69/175 56/156/175 55/67/175
f 53/159/176 62/76/176 63/160/176
f 72/79/177 63/160/177 62/76/177 71/75/177
f 69/68/178 65/70/178 61/69/178 60/66/178
f 64/57/179 63/160/179 72/79/179
f 64/57/180 72/79/180 73/61/180
f 96/87/181 73/61/181 72/79/181 87/80/181
f 61/69/182 70/71/182 66/74/182
f 59/27/183 82/73/183 77/63/183
f 66/74/184 75/77/184 71/75/184
f 69/68/185 68/65/185 78/94/185
f 69/68/186 78/94/186 79/85/186
f 79/85/187 74/83/187 65/70/187 69/68/187
f 78/94/188 68/65/188 67/64/188 88/82/188
f 76/58/189 73/61/189 96/87/189
f 70/71/190 65/70/190 74/83/190
f 70/71/191 74/83/191 75/77/191
f 90/98/192 79/85/192 78/94/192 89/93/192
f 75/77/193 85/84/193 80/81/193
f 87/80/194 81/78/194 91/96/194
f 98/107/195 90/98/195 89/93/195 97/113/195
f 83/86/196 79/85/196 90/98/196
f 74/83/197 84/89/197 85/84/197
f 77/63/198 92/91/198 88/82/198
f 81/78/199 80/81/199 86/92/199
f 81/78/200 86/92/200 91/96/200
f 87/80/201 100/97/201 96/87/201
f 84/89/202 83/86/202 93/99/202
f 94/104/203 95/95/203 84/89/203 93/99/203
f 93/99/204 90/98/204 98/107/204
f 97/113/205 89/93/205 88/82/205 105/102/205
f 82/73/206 131/101/206 92/91/206
f 104/121/207 99/103/207 94/104/207 108/110/207
f 86/92/208 99/103/208 91/96/208
f 100/97/209 91/96/209 109/105/209
f 96/87/210 110/106/210 111/88/210
f 93/99/211 103/109/211 94/104/211
f 102/108/212 98/107/212 101/114/212
f 112/115/213 107/116/213 102/108/213 101/114/213
f 92/91/214 118/111/214 105/102/214
f 99/103/215 104/121/215 109/105/215
f 97/113/216 106/112/216 101/114/216
f 127/119/217 111/88/217 110/106/217 117/161/217
f 103/109/218 102/108/218 107/116/218
f 103/109/219 107/116/219 108/110/219
f 116/123/220 122/162/220 110/106/220 109/105/220
f 112/115/221 106/112/221 114/122/221
f 121/133/222 113/125/222 107/130/222 120/132/222
f 110/106/223 122/162/223 117/161/223
f 115/131/224 112/127/224 119/129/224
f 129/146/225 121/133/225 120/132/225 124/135/225
f 120/132/226 115/131/226 124/135/226
f 126/126/227 113/125/227 125/134/227
f 119/129/228 114/128/228 128/136/228
f 122/138/229 116/124/229 126/126/229
f 114/128/230 132/142/230 128/136/230
f 117/149/231 122/138/231 137/139/231
f 124/135/232 119/129/232 123/137/232
f 133/148/233 134/144/233 124/135/233 123/137/233
f 121/133/234 129/146/234 125/134/234
f 124/135/235 135/145/235 129/146/235
f 130/143/236 125/134/236 136/147/236
f 143/155/237 136/147/237 135/145/237 142/163/237
f 130/143/238 138/150/238 137/139/238
f 133/148/239 128/136/239 140/151/239
f 117/149/240 146/53/240 127/11/240
f 139/15/241 6/2/241 132/142/241 131/141/241
f 141/152/242 142/163/242 134/144/242 133/148/242
f 136/147/243 143/155/243 144/154/243
f 132/142/244 6/2/244 2/1/244
f 138/150/245 136/147/245 144/154/245
f 132/142/246 2/1/246 140/151/246
f 137/139/247 145/54/247 146/53/247
f 11/4/248 144/154/248 143/155/248 10/14/248
f 135/145/249 134/144/249 142/163/249
f 142/163/250 3/9/250 143/155/250
f 144/154/251 11/4/251 4/6/251
f 141/152/252 140/151/252 7/19/252
f 145/54/253 138/150/253 12/18/253
f 142/163/254 141/152/254 8/7/254
f 3/9/255 142/163/255 8/7/255
