# Blender 5.0.0
# www.blender.org
mtllib prep_throw_ball0033.mtl
o Sphere
v -1.592334 6.650344 -0.158745
v -1.752239 5.987907 -0.319171
v -2.275809 5.224825 -0.030123
v -2.634337 5.294344 0.314266
v -2.897968 6.161973 0.848747
v -1.648123 6.172713 -0.265207
v -1.754755 5.599203 -0.179473
v -1.974841 5.313968 -0.083886
v -1.947686 5.207173 0.160636
v -2.274113 5.157431 0.183579
v -2.403846 5.182262 0.293440
v -2.663109 5.435910 0.599340
v -1.529775 5.834720 -0.069255
v -2.408130 5.247554 0.508606
v -1.635541 5.477624 0.076323
v -1.941009 5.210548 0.399334
v -2.170339 5.219975 0.529552
v -1.608836 5.433758 0.318985
v -1.920655 5.298507 0.588162
v -2.225641 5.373634 0.746487
v -2.430913 5.426893 0.748678
v -1.414268 6.043823 0.040305
v -1.427631 5.716457 0.336076
v -1.684372 5.466433 0.623169
v -1.992340 5.419698 0.774972
v -2.695085 5.732944 0.832125
v -1.365000 5.962737 0.209266
v -1.505880 5.684965 0.624754
v -1.763273 5.588687 0.823371
v -2.169873 5.651106 0.971945
v -2.475286 5.677115 0.922527
v -1.421747 6.277676 -0.017689
v -1.343697 6.002644 0.540049
v -1.574314 5.841974 0.845843
v -1.813634 5.781940 0.977979
v -1.293010 6.319621 0.466385
v -1.482664 6.114158 0.877114
v -2.128783 5.975208 1.117339
v -2.411760 6.077243 1.108404
v -1.392484 6.687920 0.144828
v -1.316238 6.424520 0.243501
v -1.363972 6.365769 0.739702
v -1.780382 6.194811 1.105944
v -2.768905 5.989614 0.907446
v -1.322763 6.646582 0.467491
v -1.364538 6.669568 0.692777
v -1.481050 6.567825 0.914557
v -1.601725 6.544604 1.029360
v -1.835515 6.539972 1.153083
v -2.160869 6.345955 1.196566
v -2.587949 6.075871 1.045546
v -1.399453 6.885486 0.308512
v -2.103394 6.797762 1.188578
v -1.435032 7.014167 0.551398
v -1.516457 7.014886 0.782203
v -1.616700 7.018988 0.914460
v -1.744276 7.001975 1.024230
v -1.874093 6.922710 1.113077
v -1.466783 6.629993 -0.022732
v -1.623409 7.285329 0.647419
v -1.839823 7.308477 0.899661
v -2.242237 7.053857 1.124937
v -2.375527 6.695099 1.177676
v -2.516489 6.539258 1.144073
v -1.953084 7.516403 0.727705
v -2.085826 7.287904 1.011165
v -1.581448 7.186997 0.217195
v -1.605452 7.289818 0.373123
v -1.785959 7.480046 0.541671
v -2.090993 7.499717 0.827251
v -2.406701 7.247859 1.020666
v -2.643354 6.902361 1.052121
v -2.707261 6.509295 1.052989
v -2.295628 7.650224 0.576589
v -2.341407 7.511531 0.822956
v -2.827674 6.357947 0.956991
v -1.578805 7.051609 0.057709
v -1.910257 7.512377 0.226177
v -2.077129 7.627813 0.406050
v -2.580063 7.439692 0.794139
v -2.744516 7.200324 0.869932
v -1.628932 6.893084 -0.099873
v -2.344534 7.655825 0.378483
v -2.610498 7.578360 0.331855
v -2.601927 7.559547 0.577100
v -2.864899 7.326791 0.606325
v -2.892599 6.886638 0.867643
v -1.838231 7.294883 -0.007982
v -2.105898 7.474988 0.019503
v -2.311757 7.593431 0.161329
v -2.991358 7.044787 0.667403
v -1.825554 7.048325 -0.179644
v -2.649122 7.499369 0.127568
v -2.916500 7.293981 0.183120
v -2.867245 7.390997 0.404405
v -2.959845 6.644089 0.844565
v -2.259234 7.298634 -0.186620
v -2.497962 7.392619 -0.084971
v -3.065072 7.089284 0.341968
v -3.080073 6.763009 0.643242
v -2.499262 7.137981 -0.279891
v -2.727029 7.223629 -0.133369
v -2.873023 7.172845 -0.052135
v -3.146605 6.809673 0.149953
v -2.041583 7.034224 -0.298133
v -2.248570 6.995584 -0.356302
v -2.885306 6.791824 -0.270175
v -3.028881 6.931158 -0.038057
v -3.164798 6.735368 0.401256
v -3.136513 6.463065 0.569845
v -2.995063 6.363011 0.789516
v -2.543539 6.845020 -0.405784
v -3.102461 6.504501 -0.096672
v -2.158051 6.639480 -0.463101
v -2.784145 6.577357 -0.384414
v -3.192824 6.377963 0.196496
v -3.092510 6.095620 0.545963
v -1.901769 6.716415 -0.360973
v -2.508928 6.422169 -0.498129
v -2.888577 6.267712 -0.339358
v -3.009251 6.244492 -0.224555
v -3.159401 6.192517 0.390040
v -2.423548 6.111855 -0.504174
v -2.746102 6.041736 -0.406841
v -3.046463 6.004802 -0.102505
v -3.149620 6.082273 0.133852
v -2.984078 6.034918 0.705650
v -2.177207 6.269801 -0.504247
v -2.873602 5.793329 -0.224458
v -3.025075 5.775450 0.062395
v -1.736998 6.671641 -0.279597
v -1.877774 6.283429 -0.415143
v -2.298470 5.836212 -0.463756
v -2.518059 5.692370 -0.384223
v -2.644293 5.611747 -0.292204
v -2.837018 5.579298 -0.105240
v -3.037890 5.768549 0.336062
v -2.851610 5.468031 0.247204
v -1.583587 6.397786 -0.203223
v -1.944366 5.871346 -0.398229
v -2.083602 5.564459 -0.330664
v -2.334781 5.365386 -0.213141
v -2.537220 5.295915 -0.037703
v -2.658853 5.317082 0.086563
v -2.842382 5.572761 0.526199
v -2.917181 5.765832 0.619589
vn 0.6797 -0.1749 -0.7123
vn -0.4035 -0.8778 0.2583
vn 0.1907 -0.8916 -0.4106
vn -0.6868 -0.2868 0.6679
vn 0.1513 -0.9884 0.0097
vn 0.7438 -0.0294 -0.6678
vn -0.3721 -0.7602 0.5326
vn 0.5591 -0.6170 -0.5538
vn -0.4636 -0.5595 0.6870
vn 0.6086 -0.7664 -0.2055
vn 0.7912 -0.1232 -0.5990
vn -0.1438 -0.8245 0.5473
vn 0.7379 0.1418 -0.6599
vn 0.1207 -0.8110 0.5724
vn 0.8771 -0.2801 -0.3902
vn 0.5805 -0.7817 0.2281
vn 0.8258 -0.5393 0.1650
vn 0.4091 -0.6981 0.5876
vn 0.0308 -0.6340 0.7727
vn -0.1487 -0.6054 0.7819
vn 0.2501 -0.5643 0.7868
vn 0.9363 -0.0560 -0.3467
vn 0.9648 -0.2611 -0.0306
vn -0.4325 -0.3751 0.8199
vn 0.6353 -0.5231 0.5681
vn 0.8390 -0.3088 0.4481
vn 0.5155 -0.4493 0.7296
vn 0.1390 -0.4200 0.8968
vn 0.9848 -0.0931 -0.1465
vn 0.8944 0.1081 -0.4340
vn 0.8009 -0.0521 0.5965
vn 0.6942 -0.0617 0.7172
vn 0.1538 -0.1937 0.9689
vn 0.9940 0.0907 -0.0609
vn 0.9809 0.0887 0.1729
vn -0.6302 -0.5206 0.5760
vn 0.9583 0.2016 -0.2025
vn -0.2097 -0.1224 0.9701
vn -0.5342 -0.1959 0.8223
vn -0.6149 -0.2007 0.7627
vn 0.4680 -0.0458 0.8826
vn -0.4108 -0.1286 0.9026
vn 0.9552 0.2955 -0.0167
vn 0.8251 0.3094 -0.4728
vn 0.8482 0.4107 -0.3346
vn 0.8300 0.5541 0.0634
vn 0.8309 0.4739 0.2916
vn 0.7501 0.6587 0.0599
vn 0.3583 0.7031 0.6142
vn 0.7282 0.2633 -0.6328
vn -0.0302 0.4532 0.8909
vn 0.0180 0.6558 0.7547
vn -0.4217 0.3645 0.8302
vn -0.5838 0.2700 0.7657
vn -0.2752 0.6194 0.7352
vn 0.6620 0.5767 -0.4786
vn -0.4082 0.5184 0.7514
vn -0.2545 0.8622 0.4381
vn 0.1039 0.9946 0.0025
vn -0.7072 -0.0495 0.7053
vn -0.2943 0.9505 0.0995
vn -0.7030 -0.1337 0.6986
vn 0.6166 0.4484 -0.6472
vn -0.5668 0.6957 0.4413
vn 0.4314 0.7233 -0.5392
vn -0.5721 0.8160 0.0826
vn -0.6277 0.7397 0.2425
vn -0.8038 0.2052 0.5585
vn -0.2281 0.9261 -0.3005
vn 0.6403 0.2709 -0.7188
vn 0.3766 0.5423 -0.7511
vn -0.8397 0.5147 0.1734
vn -0.8291 0.5559 -0.0592
vn -0.9203 0.3011 0.2496
vn -0.8499 0.0312 0.5260
vn -0.3790 0.6903 -0.6163
vn -0.5278 0.6577 -0.5374
vn -0.7831 0.4821 -0.3929
vn 0.4885 0.3293 -0.8080
vn 0.1509 0.4870 -0.8603
vn -0.9426 0.0994 0.3187
vn -0.0981 0.6052 -0.7900
vn -0.0511 0.4008 -0.9147
vn -0.3914 0.2819 -0.8759
vn -0.7612 -0.1844 0.6218
vn -0.7674 0.2153 -0.6039
vn -0.8839 0.2099 -0.4179
vn 0.2737 0.3010 -0.9135
vn -0.9616 0.0745 -0.2642
vn 0.1985 0.3275 -0.9238
vn -0.9939 0.1019 -0.0418
vn -0.9444 -0.0699 -0.3213
vn -0.0329 0.2107 -0.9770
vn -0.6389 0.1046 -0.7621
vn -0.8857 -0.0940 -0.4546
vn -0.3760 0.0121 -0.9265
vn -0.0109 0.0165 -0.9998
vn -0.9548 -0.2846 0.0860
vn 0.4680 0.1352 -0.8733
vn 0.3315 0.1352 -0.9337
vn -0.9067 -0.2987 -0.2978
vn -0.4130 -0.3246 -0.8509
vn -0.7996 -0.3907 -0.4560
vn -0.9295 -0.3650 -0.0527
vn 0.0719 -0.1127 -0.9910
vn -0.8546 -0.3739 0.3603
vn -0.5718 -0.4716 -0.6713
vn -0.7900 -0.5745 -0.2141
vn 0.2877 -0.0857 -0.9539
vn 0.2022 -0.2972 -0.9332
vn -0.7928 -0.5615 0.2370
vn 0.6467 0.1540 -0.7470
vn -0.6223 -0.7827 -0.0112
vn 0.5107 -0.2937 -0.8080
vn -0.6507 -0.7042 0.2841
vn 0.3959 -0.5515 -0.7343
vn -0.2433 -0.9256 -0.2900
vn 0.1231 -0.9462 -0.2994
vn 0.6337 -0.2653 -0.7267
vn -0.4711 -0.8081 0.3537
vn -0.6719 -0.3757 0.6382
vn 0.0209 -0.9849 0.1718
vn 0.8600 -0.3891 -0.3302
vn 0.7561 -0.1093 -0.6452
vn -0.1352 -0.9489 0.2852
vn 0.7198 -0.4341 -0.5418
vn 0.5423 -0.7462 -0.3861
vn -0.1999 -0.7940 0.5742
vn -0.4311 -0.5849 0.6871
vn 0.5571 -0.8304 -0.0038
vn 0.1890 -0.8978 0.3978
vn 0.5185 -0.7951 0.3145
vn 0.7788 0.0907 -0.6207
vn 0.0864 -0.8025 0.5904
vn -0.1743 -0.3887 0.9047
vn 0.8323 -0.5222 -0.1860
vn -0.1779 -0.5826 0.7931
vn 0.7486 -0.6133 0.2518
vn 0.3879 -0.6981 0.6018
vn 0.6339 -0.5234 0.5694
vn 0.1879 -0.5491 0.8144
vn 0.9467 -0.0768 -0.3129
vn 0.8934 -0.4033 0.1982
vn -0.4470 -0.3678 0.8154
vn 0.5276 -0.2824 0.8011
vn -0.3111 -0.3593 0.8798
vn 0.8108 -0.3287 0.4844
vn 0.9849 -0.1675 -0.0432
vn 0.9009 0.1028 -0.4217
vn 0.2225 -0.3049 0.9260
vn 0.9599 -0.0920 0.2648
vn 0.8855 -0.1849 0.4263
vn 0.8014 0.2273 0.5533
vn 0.9688 0.0396 0.2448
vn 0.5838 -0.1224 0.8026
vn -0.1088 -0.2167 0.9702
vn 0.1917 -0.1027 0.9761
vn 0.9657 0.1980 -0.1682
vn -0.3314 -0.1471 0.9320
vn 0.8675 0.0775 0.4913
vn 0.6393 0.2000 0.7425
vn -0.4936 -0.1506 0.8566
vn 0.4733 0.1487 0.8683
vn 0.3313 0.4340 0.8378
vn 0.2480 0.1254 0.9606
vn 0.1320 0.0007 0.9912
vn -0.0490 0.0239 0.9985
vn 0.9545 0.2571 0.1508
vn -0.1745 -0.0541 0.9832
vn 0.8961 0.3126 0.3152
vn 0.8563 0.3471 -0.3825
vn 0.5448 0.4559 0.7038
vn 0.1482 0.3319 0.9316
vn 0.8729 0.4672 -0.1408
vn 0.6712 0.5332 0.5150
vn -0.1085 0.1839 0.9769
vn -0.2635 0.2498 0.9318
vn 0.5873 0.6919 0.4200
vn -0.3479 0.1141 0.9305
vn -0.4391 0.0734 0.8955
vn -0.5994 0.0959 0.7947
vn 0.2746 0.6342 0.7227
vn 0.7697 0.3109 -0.5576
vn -0.0523 0.6074 0.7927
vn 0.6337 0.7541 -0.1724
vn 0.4880 0.8667 -0.1035
vn 0.3226 0.9259 0.1963
vn 0.6440 0.6614 -0.3846
vn -0.6326 0.0121 0.7744
vn 0.1771 0.9009 0.3963
vn 0.0325 0.8684 0.4949
vn 0.2411 0.8963 -0.3723
vn -0.3053 0.8202 0.4837
vn -0.7146 0.3328 0.6153
vn 0.0115 0.7638 -0.6454
vn 0.1268 0.9583 -0.2562
vn -0.2828 0.9556 0.0832
vn 0.6068 0.4750 -0.6374
vn -0.5954 0.5838 0.5520
vn -0.7189 0.4391 0.5389
vn -0.8000 0.1670 0.5763
vn -0.2136 0.9241 -0.3169
vn -0.6180 0.7634 -0.1881
vn -0.1758 0.8239 -0.5388
vn 0.3215 0.5840 -0.7454
vn 0.5683 0.3332 -0.7523
vn -0.8649 0.4288 -0.2608
vn -0.8604 0.4411 0.2552
vn -0.9193 0.2644 0.2917
vn -0.8409 -0.0006 0.5412
vn -0.6008 0.6601 -0.4509
vn -0.2709 0.5860 -0.7637
vn -0.3865 0.4079 -0.8272
vn 0.4319 0.3540 -0.8295
vn -0.9620 0.2729 0.0111
vn 0.0118 0.4888 -0.8723
vn -0.8534 -0.1450 0.5007
vn -0.5485 0.4285 -0.7180
vn -0.6608 0.3887 -0.6421
vn -0.9883 -0.0130 0.1520
vn 0.0124 0.2901 -0.9569
vn -0.6969 0.0986 -0.7104
vn -0.9381 -0.1331 0.3197
vn -0.2861 0.1820 -0.9408
vn -0.6563 -0.1971 -0.7283
vn -0.4171 0.0084 -0.9088
vn -0.9235 -0.0992 -0.3706
vn 0.0317 0.1089 -0.9935
vn -0.9883 -0.1501 0.0269
vn 0.2802 0.0918 -0.9555
vn -0.9309 -0.2943 0.2164
vn -0.2769 -0.0575 -0.9592
vn -0.2224 -0.2214 -0.9495
vn -0.7268 -0.2187 -0.6511
vn -0.4991 -0.3316 -0.8006
vn -0.8055 -0.3936 -0.4430
vn -0.4142 -0.6521 -0.6350
vn -0.8557 -0.5147 -0.0530
vn 0.1939 -0.1448 -0.9703
vn -0.8322 -0.3456 0.4337
vn 0.5630 0.0766 -0.8229
vn -0.0289 -0.4679 -0.8833
vn -0.5654 -0.7015 -0.4339
vn 0.5288 -0.0505 -0.8472
vn -0.7139 -0.6588 -0.2375
vn 0.4330 -0.1067 -0.8950
vn -0.8097 -0.4782 0.3401
vn -0.3376 -0.9237 -0.1810
vn -0.2331 -0.5502 -0.8018
vn -0.2034 -0.8071 -0.5543
vn -0.4400 -0.8970 -0.0422
vn 0.4198 -0.3727 -0.8275
vn -0.6524 -0.7022 0.2852
vn 0.1718 -0.6525 -0.7380
vn 0.1157 -0.7694 -0.6282
vt 0.781230 0.812500
vt 0.762032 0.875000
vt 0.685473 0.777944
vt 0.734697 0.375000
vt 0.703125 0.312500
vt 0.764235 0.312500
vt 0.741874 0.599249
vt 0.704616 0.531266
vt 0.763980 0.500000
vt 0.734375 0.000000
vt 0.879629 0.062500
vt 0.593677 0.062500
vt 0.670132 0.472235
vt 0.734536 0.437500
vt 0.734224 0.937500
vt 0.605595 0.875000
vt 0.658359 0.250000
vt 0.719918 0.218999
vt 0.734375 0.717281
vt 0.678319 0.660608
vt 0.606077 0.187500
vt 0.641330 0.592355
vt 0.623673 0.812500
vt 0.673680 0.375000
vt 0.639230 0.312500
vt 0.640625 1.000000
vt 0.479138 0.937500
vt 0.639064 0.437500
vt 0.612180 0.375000
vt 0.595563 0.750000
vt 0.606567 0.500000
vt 0.603325 0.667055
vt 0.578286 0.562500
vt 0.578286 0.437500
vt 0.577540 0.283466
vt 0.543444 0.396147
vt 0.512752 0.812500
vt 0.546915 0.655822
vt 0.503540 0.125000
vt 0.660224 0.125000
vt 0.544067 0.500000
vt 0.509405 0.537235
vt 0.515588 0.281661
vt 0.510998 0.724803
vt 0.449506 0.875000
vt 0.487180 0.625000
vt 0.453286 0.562500
vt 0.450317 0.500000
vt 0.485851 0.406417
vt 0.453088 0.281661
vt 0.455926 0.750000
vt 0.445771 0.665313
vt 0.799126 0.125000
vt 0.779637 0.187500
vt 0.402284 0.812500
vt 0.497588 0.187500
vt 0.386121 0.187500
vt 0.328120 0.062500
vt 0.453125 0.000000
vt 0.437500 0.406180
vt 0.347717 0.125000
vt 0.390588 0.718339
vt 0.293360 0.875000
vt 0.308534 0.812500
vt 0.316528 0.750000
vt 0.343750 0.656371
vt 0.393429 0.625000
vt 0.296915 0.655822
vt 0.343750 0.531273
vt 0.297036 0.562500
vt 0.294067 0.500000
vt 0.328125 1.000000
vt 0.230145 0.937500
vt 0.328286 0.437500
vt 0.296914 0.344178
vt 0.343750 0.343629
vt 0.265786 0.437500
vt 0.234338 0.281661
vt 0.296902 0.219059
vt 0.214815 0.187500
vt 0.237180 0.375000
vt 0.199790 0.812500
vt 0.237635 0.520573
vt 0.203286 0.437500
vt 0.237180 0.625000
vt 0.203286 0.562500
vt 0.190964 0.125000
vt 0.113605 0.062500
vt 0.169067 0.500000
vt 0.203125 0.000000
vt 0.137012 0.875000
vt 0.176363 0.337227
vt 0.171838 0.718339
vt 0.234338 0.718339
vt 0.148421 0.399333
vt 0.160278 0.250000
vt 0.121065 0.187500
vt 0.174680 0.625000
vt 0.134405 0.537235
vt 0.140625 1.000000
vt 0.030235 0.937500
vt 0.075252 0.812500
vt 0.102021 0.334687
vt 0.109536 0.437500
vt 0.066529 0.250000
vt 0.055088 0.153620
vt 0.112179 0.625000
vt 0.078286 0.562500
vt 0.075317 0.500000
vt 0.047036 0.437500
vt 0.032456 0.875000
vt 0.048167 0.750000
vt 0.108913 0.719958
vt 0.062500 0.658651
vt 0.015664 0.655822
vt 0.018885 0.520574
vt 0.000000 0.562500
vt 0.015625 0.000000
vt 0.000000 0.062500
vt 0.000000 0.399333
vt 0.046914 0.344178
vt 0.000000 0.784407
vt 0.000000 0.273040
vt 0.991904 0.273040
vt 0.992171 0.399333
vt 0.937867 0.282145
vt 1.000000 0.655822
vt 0.975379 0.784407
vt 0.953164 0.655822
vt 1.000000 0.500000
vt 0.984536 0.562500
vt 0.950317 0.500000
vt 0.953286 0.437500
vt 0.924679 0.375000
vt 0.915655 0.537235
vt 0.910279 0.750000
vt 0.906250 0.656371
vt 0.965747 0.187500
vt 0.868449 0.212346
vt 0.978825 0.875000
vt 0.921769 0.937500
vt 0.872374 0.843190
vt 0.887823 0.312500
vt 0.859536 0.562500
vt 0.856567 0.500000
vt 0.890786 0.437500
vt 0.855944 0.396148
vt 0.859414 0.655822
vt 0.939862 0.125000
vt 0.812867 0.282145
vt 0.814726 0.750000
vt 0.796945 0.653777
vt 0.828125 1.000000
vt 0.798190 0.375000
vt 0.797036 0.437500
vt 0.390786 0.562500
vt 0.387817 0.500000
vt 0.390786 0.437500
vt 0.390665 0.344178
vt 0.378980 0.250000
vt 0.000000 0.125000
vt 0.000000 0.187500
vt 0.801816 0.543181
s 0
f 2/1/1 6/2/1 13/3/1
f 11/4/2 14/5/2 4/6/2
f 8/7/3 9/8/3 3/9/3
f 5/10/4 127/11/4 44/12/4
f 9/8/5 16/13/5 10/14/5
f 139/15/6 32/16/6 6/2/6
f 14/5/7 21/17/7 12/18/7
f 7/19/8 15/20/8 8/7/8
f 12/18/9 21/17/9 31/21/9
f 15/20/10 18/22/10 9/8/10
f 32/16/11 22/23/11 13/3/11
f 14/5/12 17/24/12 20/25/12
f 139/15/13 1/26/13 59/27/13
f 19/28/14 25/29/14 17/24/14
f 22/23/15 27/30/15 13/3/15
f 16/13/16 18/22/16 24/31/16
f 18/22/17 23/32/17 28/33/17
f 24/31/18 29/34/18 19/28/18
f 20/25/19 25/29/19 30/35/19
f 20/25/20 30/35/20 21/17/20
f 29/34/21 35/36/21 25/29/21
f 32/16/22 41/37/22 22/23/22
f 23/32/23 27/30/23 33/38/23
f 31/21/24 51/39/24 26/40/24
f 24/31/25 28/33/25 34/41/25
f 28/33/26 33/38/26 37/42/26
f 34/41/27 35/36/27 29/34/27
f 30/35/28 35/36/28 38/43/28
f 41/37/29 36/44/29 27/30/29
f 32/16/30 59/27/30 40/45/30
f 37/42/31 42/46/31 47/47/31
f 37/42/32 47/47/32 48/48/32
f 38/43/33 43/49/33 50/50/33
f 41/37/34 45/51/34 36/44/34
f 36/44/35 45/51/35 46/52/35
f 26/40/36 146/53/36 145/54/36 12/18/36
f 41/37/37 40/45/37 52/55/37
f 39/56/38 50/50/38 64/57/38
f 44/12/39 51/39/39 76/58/39
f 5/59/40 44/12/40 76/58/40
f 48/48/41 49/60/41 43/49/41
f 64/57/42 73/61/42 51/39/42
f 52/55/43 54/62/43 45/51/43
f 59/27/44 77/63/44 40/45/44
f 52/55/45 77/63/45 67/64/45
f 54/62/46 68/65/46 60/66/46
f 54/62/47 60/66/47 55/67/47
f 60/66/48 68/65/48 69/68/48
f 61/69/49 65/70/49 70/71/49
f 59/27/50 1/72/50 82/73/50
f 66/74/51 71/75/51 62/76/51
f 70/71/52 75/77/52 66/74/52
f 71/75/53 81/78/53 72/79/53
f 72/79/54 81/78/54 87/80/54
f 75/77/55 80/81/55 71/75/55
f 67/64/56 77/63/56 88/82/56
f 71/75/57 80/81/57 81/78/57
f 74/83/58 85/84/58 75/77/58
f 74/83/59 79/85/59 83/86/59
f 96/87/60 111/88/60 76/58/60
f 74/83/61 83/86/61 84/89/61
f 5/90/62 76/58/62 111/88/62
f 77/63/63 82/73/63 92/91/63
f 85/84/64 86/92/64 80/81/64
f 88/82/65 89/93/65 78/94/65
f 84/89/66 95/95/66 85/84/66
f 85/84/67 95/95/67 86/92/67
f 87/80/68 91/96/68 100/97/68
f 83/86/69 90/98/69 93/99/69
f 82/73/70 1/100/70 131/101/70
f 92/91/71 105/102/71 88/82/71
f 86/92/72 95/95/72 99/103/72
f 94/104/73 99/103/73 95/95/73
f 99/103/74 109/105/74 91/96/74
f 100/97/75 110/106/75 96/87/75
f 93/99/76 98/107/76 102/108/76
f 93/99/77 102/108/77 103/109/77
f 103/109/78 108/110/78 94/104/78
f 131/101/79 118/111/79 92/91/79
f 105/102/80 106/112/80 97/113/80
f 100/97/81 109/105/81 110/106/81
f 97/113/82 101/114/82 98/107/82
f 101/114/83 106/112/83 112/115/83
f 107/116/84 112/115/84 115/117/84
f 5/118/85 111/88/85 127/119/85
f 107/116/86 113/120/86 108/110/86
f 108/110/87 113/120/87 104/121/87
f 105/102/88 118/111/88 114/122/88
f 104/121/89 113/120/89 116/123/89
f 105/102/90 114/122/90 106/112/90
f 104/121/91 116/123/91 109/105/91
f 116/124/92 113/125/92 126/126/92
f 112/127/93 114/128/93 119/129/93
f 107/130/94 115/131/94 120/132/94
f 121/133/95 125/134/95 113/125/95
f 115/131/96 119/129/96 124/135/96
f 119/129/97 128/136/97 123/137/97
f 122/138/98 126/126/98 137/139/98
f 118/140/99 131/141/99 132/142/99
f 118/140/100 132/142/100 114/128/100
f 126/126/101 125/134/101 130/143/101
f 124/135/102 134/144/102 135/145/102
f 129/146/103 136/147/103 125/134/103
f 130/143/104 137/139/104 126/126/104
f 123/137/105 128/136/105 133/148/105
f 137/139/106 146/53/106 117/149/106
f 135/145/107 136/147/107 129/146/107
f 130/143/108 136/147/108 138/150/108
f 132/142/109 140/151/109 128/136/109
f 133/148/110 140/151/110 141/152/110
f 137/139/111 138/150/111 145/54/111
f 131/141/112 1/153/112 139/15/112
f 138/150/113 144/154/113 4/6/113
f 140/151/114 2/1/114 7/19/114
f 4/6/115 12/18/115 138/150/115
f 141/152/116 7/19/116 8/7/116
f 3/9/117 10/14/117 143/155/117
f 3/9/118 9/8/118 10/14/118
f 7/19/119 2/1/119 13/3/119
f 4/6/120 14/5/120 12/18/120
f 44/12/121 127/11/121 146/53/121 26/40/121
f 17/24/122 11/4/122 10/14/122 16/13/122
f 23/32/123 15/20/123 13/3/123 27/30/123
f 6/2/124 32/16/124 13/3/124
f 11/4/125 17/24/125 14/5/125
f 7/19/126 13/3/126 15/20/126
f 9/8/127 8/7/127 15/20/127
f 21/17/128 14/5/128 20/25/128
f 12/18/129 31/21/129 26/40/129
f 9/8/130 18/22/130 16/13/130
f 16/13/131 19/28/131 17/24/131
f 16/13/132 24/31/132 19/28/132
f 139/15/133 59/27/133 32/16/133
f 20/25/134 17/24/134 25/29/134
f 38/43/135 39/56/135 31/21/135 30/35/135
f 15/20/136 23/32/136 18/22/136
f 21/17/137 30/35/137 31/21/137
f 24/31/138 18/22/138 28/33/138
f 19/28/139 29/34/139 25/29/139
f 24/31/140 34/41/140 29/34/140
f 30/35/141 25/29/141 35/36/141
f 22/23/142 41/37/142 27/30/142
f 28/33/143 23/32/143 33/38/143
f 44/12/144 26/40/144 51/39/144
f 43/49/145 35/36/145 34/41/145 37/42/145
f 51/39/146 31/21/146 39/56/146
f 34/41/147 28/33/147 37/42/147
f 33/38/148 27/30/148 36/44/148
f 32/16/149 40/45/149 41/37/149
f 38/43/150 35/36/150 43/49/150
f 33/38/151 36/44/151 42/46/151
f 37/42/152 33/38/152 42/46/152
f 55/67/153 56/156/153 47/47/153 46/52/153
f 36/44/154 46/52/154 42/46/154
f 37/42/155 48/48/155 43/49/155
f 39/56/156 38/43/156 50/50/156
f 50/50/157 43/49/157 49/60/157
f 41/37/158 52/55/158 45/51/158
f 39/56/159 64/57/159 51/39/159
f 47/47/160 42/46/160 46/52/160
f 56/156/161 57/157/161 48/48/161 47/47/161
f 51/39/162 73/61/162 76/58/162
f 58/158/163 49/60/163 48/48/163 57/157/163
f 66/74/164 58/158/164 57/157/164 61/69/164
f 49/60/165 58/158/165 53/159/165
f 50/50/166 49/60/166 53/159/166
f 50/50/167 53/159/167 63/160/167
f 46/52/168 45/51/168 54/62/168
f 64/57/169 50/50/169 63/160/169
f 46/52/170 54/62/170 55/67/170
f 40/45/171 77/63/171 52/55/171
f 57/157/172 56/156/172 61/69/172
f 62/76/173 53/159/173 58/158/173 66/74/173
f 68/65/174 54/62/174 52/55/174 67/64/174
f 60/66/175 61/69/175 56/156/175 55/67/175
f 53/159/176 62/76/176 63/160/176
f 72/79/177 63/160/177 62/76/177 71/75/177
f 69/68/178 65/70/178 61/69/178 60/66/178
f 64/57/179 63/160/179 72/79/179
f 64/57/180 72/79/180 73/61/180
f 96/87/181 73/61/181 72/79/181 87/80/181
f 61/69/182 70/71/182 66/74/182
f 59/27/183 82/73/183 77/63/183
f 66/74/184 75/77/184 71/75/184
f 69/68/185 68/65/185 78/94/185
f 69/68/186 78/94/186 79/85/186
f 79/85/187 74/83/187 65/70/187 69/68/187
f 78/94/188 68/65/188 67/64/188 88/82/188
f 76/58/189 73/61/189 96/87/189
f 70/71/190 65/70/190 74/83/190
f 70/71/191 74/83/191 75/77/191
f 90/98/192 79/85/192 78/94/192 89/93/192
f 75/77/193 85/84/193 80/81/193
f 87/80/194 81/78/194 91/96/194
f 98/107/195 90/98/195 89/93/195 97/113/195
f 83/86/196 79/85/196 90/98/196
f 74/83/197 84/89/197 85/84/197
f 77/63/198 92/91/198 88/82/198
f 81/78/199 80/81/199 86/92/199
f 81/78/200 86/92/200 91/96/200
f 87/80/201 100/97/201 96/87/201
f 84/89/202 83/86/202 93/99/202
f 94/104/203 95/95/203 84/89/203 93/99/203
f 93/99/204 90/98/204 98/107/204
f 97/113/205 89/93/205 88/82/205 105/102/205
f 82/73/206 131/101/206 92/91/206
f 104/121/207 99/103/207 94/104/207 108/110/207
f 86/92/208 99/103/208 91/96/208
f 100/97/209 91/96/209 109/105/209
f 96/87/210 110/106/210 111/88/210
f 93/99/211 103/109/211 94/104/211
f 102/108/212 98/107/212 101/114/212
f 112/115/213 107/116/213 102/108/213 101/114/213
f 92/91/214 118/111/214 105/102/214
f 99/103/215 104/121/215 109/105/215
f 97/113/216 106/112/216 101/114/216
f 127/119/217 111/88/217 110/106/217 117/161/217
f 103/109/218 102/108/218 107/116/218
f 103/109/219 107/116/219 108/110/219
f 116/123/220 122/162/220 110/106/220 109/105/220
f 112/115/221 106/112/221 114/122/221
f 121/133/222 113/125/222 107/130/222 120/132/222
f 110/106/223 122/162/223 117/161/223
f 115/131/224 112/127/224 119/129/224
f 129/146/225 121/133/225 120/132/225 124/135/225
f 120/132/226 115/131/226 124/135/226
f 126/126/227 113/125/227 125/134/227
f 119/129/228 114/128/228 128/136/228
f 122/138/229 116/124/229 126/126/229
f 114/128/230 132/142/230 128/136/230
f 117/149/231 122/138/231 137/139/231
f 124/135/232 119/129/232 123/137/232
f 133/148/233 134/144/233 124/135/233 123/137/233
f 121/133/234 129/146/234 125/134/234
f 124/135/235 135/145/235 129/146/235
f 130/143/236 125/134/236 136/147/236
f 143/155/237 136/147/237 135/145/237 142/163/237
f 130/143/238 138/150/238 137/139/238
f 133/148/239 128/136/239 140/151/239
f 117/149/240 146/53/240 127/11/240
f 139/15/241 6/2/241 132/142/241 131/141/241
f 141/152/242 142/163/242 134/144/242 133/148/242
f 136/147/243 143/155/243 144/154/243
f 132/142/244 6/2/244 2/1/244
f 138/150/245 136/147/245 144/154/245
f 132/142/246 2/1/246 140/151/246
f 137/139/247 145/54/247 146/53/247
f 11/4/248 144/154/248 143/155/248 10/14/248
f 135/145/249 134/144/249 142/163/249
f 142/163/250 3/9/250 143/155/250
f 144/154/251 11/4/251 4/6/251
f 141/152/252 140/151/252 7/19/252
f 145/54/253 138/150/253 12/18/253
f 142/163/254 141/152/254 8/7/254
f 3/9/255 142/163/255 8/7/255
