# Blender 5.0.0
# www.blender.org
mtllib prep_throw_ball0040.mtl
o Sphere
v -1.455370 6.506610 -0.493804
v -1.662684 5.835020 -0.562751
v -2.216568 5.185644 -0.165486
v -2.552873 5.353561 0.175162
v -2.737005 6.337991 0.598436
v -1.545082 6.019369 -0.536082
v -1.681858 5.481022 -0.375138
v -1.913808 5.237757 -0.238252
v -1.881221 5.180151 0.015811
v -2.208486 5.162642 0.053844
v -2.330920 5.220081 0.162596
v -2.559027 5.553271 0.438959
v -1.437957 5.716816 -0.302834
v -2.320702 5.328478 0.366543
v -1.557850 5.403603 -0.110612
v -1.862669 5.231487 0.250590
v -2.084316 5.286077 0.384148
v -1.521998 5.407600 0.133572
v -1.827812 5.354816 0.424977
v -2.119521 5.486006 0.579934
v -2.320807 5.555722 0.580958
v -1.304808 5.935460 -0.224765
v -1.323439 5.674484 0.109206
v -1.580416 5.507847 0.431454
v -1.882787 5.517999 0.595668
v -2.561534 5.895641 0.631370
v -1.252326 5.885973 -0.049122
v -1.389201 5.708636 0.400089
v -1.641863 5.675394 0.615414
v -2.036108 5.800429 0.765195
v -2.341388 5.841041 0.721585
v -1.300960 6.154469 -0.311697
v -1.212475 5.990804 0.271384
v -1.437091 5.913784 0.599908
v -1.672802 5.901210 0.744529
v -1.146388 6.283676 0.156744
v -1.327742 6.180552 0.593352
v -1.968425 6.145670 0.865935
v -2.244762 6.267513 0.851891
v -1.239019 6.588959 -0.204775
v -1.174115 6.343497 -0.075847
v -1.200944 6.390531 0.422334
v -1.608419 6.330929 0.816930
v -2.615905 6.169679 0.674822
v -1.156217 6.608190 0.116787
v -1.185433 6.680077 0.337169
v -1.296862 6.634607 0.572135
v -1.412930 6.645009 0.691664
v -1.640191 6.684806 0.820741
v -1.974106 6.529369 0.897476
v -2.423547 6.267833 0.794956
v -1.225999 6.817307 -0.068464
v -1.889881 6.967767 0.830149
v -1.241785 6.996309 0.155568
v -1.311600 7.050654 0.385341
v -1.404795 7.089825 0.518018
v -1.527614 7.105880 0.631981
v -1.657457 7.056583 0.733342
v -1.324791 6.503946 -0.360542
v -1.408455 7.298223 0.220750
v -1.610420 7.390086 0.472529
v -2.015908 7.218302 0.738435
v -2.167884 6.886824 0.840078
v -2.319465 6.738152 0.830800
v -1.719165 7.569070 0.279460
v -1.851416 7.412707 0.591935
v -1.393648 7.110459 -0.192091
v -1.403719 7.245364 -0.050824
v -1.563887 7.481719 0.096029
v -1.852764 7.584214 0.383584
v -2.173218 7.401552 0.615315
v -2.428467 7.087279 0.697132
v -2.515900 6.705781 0.750095
v -2.059918 7.698164 0.122781
v -2.101871 7.615520 0.384767
v -2.649782 6.547153 0.678140
v -1.407014 6.944525 -0.332106
v -1.701284 7.459559 -0.215800
v -1.851829 7.623478 -0.048578
v -2.345518 7.558525 0.372156
v -2.520208 7.351817 0.482107
v -1.474286 6.760533 -0.465819
v -2.118032 7.667387 -0.071948
v -2.390113 7.603473 -0.100648
v -2.370694 7.634145 0.143376
v -2.645469 7.432555 0.209284
v -2.686900 7.054724 0.524120
v -1.654113 7.191918 -0.420860
v -1.908682 7.396763 -0.409410
v -2.099771 7.559101 -0.279015
v -2.785586 7.177766 0.309132
v -1.664797 6.913253 -0.558923
v -2.443397 7.487326 -0.290924
v -2.719618 7.318394 -0.202436
v -2.653814 7.454870 0.002001
v -2.769730 6.816792 0.534285
v -2.082289 7.193816 -0.585852
v -2.309588 7.326601 -0.491036
v -2.872313 7.161408 -0.015458
v -2.892241 6.902760 0.323846
v -2.335832 7.036398 -0.650614
v -2.550512 7.169206 -0.510782
v -2.695130 7.147724 -0.420126
v -2.979900 6.853797 -0.166752
v -1.886789 6.892994 -0.667987
v -2.098299 6.860110 -0.714673
v -2.741097 6.729312 -0.586016
v -2.864415 6.925471 -0.370977
v -2.990220 6.833273 0.091093
v -2.970236 6.597208 0.291438
v -2.824531 6.531802 0.516967
v -2.403852 6.726040 -0.736022
v -2.966434 6.499601 -0.372107
v -2.034838 6.480420 -0.776896
v -2.658828 6.486657 -0.674010
v -3.049801 6.442101 -0.064288
v -2.949767 6.227041 0.313724
v -1.769723 6.555899 -0.693128
v -2.399449 6.288176 -0.773897
v -2.779445 6.199592 -0.587032
v -2.895513 6.209993 -0.467503
v -3.018221 6.296189 0.149401
v -2.333406 5.974479 -0.742482
v -2.654399 5.951729 -0.628587
v -2.941123 6.001936 -0.315416
v -3.027687 6.134746 -0.089395
v -2.837532 6.190877 0.475973
v -2.078306 6.109725 -0.769601
v -2.787580 5.754776 -0.413386
v -2.925598 5.807965 -0.124019
v -1.604202 6.514859 -0.611706
v -1.774644 6.116695 -0.691764
v -2.223421 5.701107 -0.670787
v -2.447109 5.593716 -0.567855
v -2.573306 5.543433 -0.463290
v -2.758219 5.565344 -0.269421
v -2.925384 5.857900 0.147100
v -2.762229 5.528718 0.092799
v -1.464105 6.248237 -0.505565
v -1.865117 5.719963 -0.620469
v -2.019157 5.443048 -0.510683
v -2.275815 5.291612 -0.362339
v -2.473212 5.275532 -0.174828
v -2.587088 5.331631 -0.051624
v -2.733032 5.687813 0.354268
v -2.791339 5.903002 0.423711
vn 0.6448 -0.3103 -0.6986
vn -0.4451 -0.7813 0.4376
vn 0.1103 -0.9662 -0.2332
vn -0.6682 -0.1500 0.7287
vn 0.0763 -0.9753 0.2072
vn 0.7149 -0.1623 -0.6801
vn -0.3923 -0.6314 0.6690
vn 0.5047 -0.7355 -0.4519
vn -0.4618 -0.4187 0.7819
vn 0.5493 -0.8329 -0.0670
vn 0.7617 -0.2505 -0.5975
vn -0.1775 -0.7043 0.6873
vn 0.7143 0.0077 -0.6998
vn 0.0780 -0.7080 0.7019
vn 0.8479 -0.3870 -0.3624
vn 0.5232 -0.7714 0.3622
vn 0.7885 -0.5643 0.2445
vn 0.3674 -0.6232 0.6904
vn 0.0117 -0.5099 0.8601
vn -0.1583 -0.4697 0.8685
vn 0.2297 -0.4592 0.8581
vn 0.9172 -0.1608 -0.3645
vn 0.9453 -0.3260 -0.0109
vn -0.4175 -0.2314 0.8787
vn 0.6061 -0.4779 0.6359
vn 0.8272 -0.3018 0.4740
vn 0.4988 -0.3777 0.7801
vn 0.1375 -0.3022 0.9433
vn 0.9713 -0.1754 -0.1609
vn 0.8776 -0.0072 -0.4793
vn 0.8197 -0.0290 0.5721
vn 0.7166 -0.0162 0.6973
vn 0.1738 -0.0781 0.9817
vn 0.9933 0.0160 -0.1143
vn 0.9921 0.0445 0.1170
vn -0.6261 -0.3864 0.6773
vn 0.9556 0.1089 -0.2737
vn -0.1805 0.0154 0.9834
vn -0.5093 -0.0533 0.8590
vn -0.5910 -0.0601 0.8045
vn 0.4982 0.0354 0.8663
vn -0.3820 0.0141 0.9241
vn 0.9681 0.2245 -0.1112
vn 0.8137 0.1874 -0.5503
vn 0.8478 0.3005 -0.4371
vn 0.8650 0.4951 -0.0813
vn 0.8784 0.4503 0.1604
vn 0.7925 0.6011 -0.1032
vn 0.4459 0.7676 0.4605
vn 0.7096 0.1292 -0.6927
vn 0.0390 0.5801 0.8136
vn 0.0996 0.7685 0.6320
vn -0.3715 0.5046 0.7793
vn -0.5428 0.4083 0.7339
vn -0.2076 0.7482 0.6301
vn 0.6647 0.4498 -0.5966
vn -0.3511 0.6534 0.6706
vn -0.1770 0.9464 0.2702
vn 0.1768 0.9627 -0.2049
vn -0.6795 0.0864 0.7285
vn -0.2190 0.9717 -0.0882
vn -0.6781 0.0027 0.7350
vn 0.6065 0.3103 -0.7321
vn -0.5093 0.7988 0.3201
vn 0.4466 0.5924 -0.6705
vn -0.5096 0.8578 -0.0673
vn -0.5705 0.8138 0.1106
vn -0.7728 0.3288 0.5429
vn -0.1651 0.8679 -0.4684
vn 0.6200 0.1314 -0.7735
vn 0.3745 0.4001 -0.8365
vn -0.8011 0.5908 0.0959
vn -0.7896 0.5965 -0.1440
vn -0.8935 0.3921 0.2190
vn -0.8255 0.1531 0.5432
vn -0.3394 0.6095 -0.7165
vn -0.4865 0.6016 -0.6335
vn -0.7538 0.4733 -0.4559
vn 0.4704 0.1858 -0.8626
vn 0.1497 0.3498 -0.9248
vn -0.9229 0.2007 0.3286
vn -0.0793 0.4858 -0.8705
vn -0.0540 0.2759 -0.9597
vn -0.3974 0.1908 -0.8976
vn -0.7401 -0.0524 0.6705
vn -0.7695 0.1860 -0.6109
vn -0.8807 0.2121 -0.4236
vn 0.2557 0.1599 -0.9534
vn -0.9647 0.1036 -0.2419
vn 0.1836 0.1888 -0.9647
vn -0.9866 0.1609 -0.0267
vn -0.9619 -0.0472 -0.2693
vn -0.0533 0.0855 -0.9949
vn -0.6584 0.0491 -0.7510
vn -0.9122 -0.0919 -0.3993
vn -0.4113 -0.0805 -0.9080
vn -0.0475 -0.1094 -0.9929
vn -0.9627 -0.2048 0.1767
vn 0.4398 -0.0077 -0.8980
vn 0.3029 -0.0064 -0.9530
vn -0.9410 -0.2728 -0.2001
vn -0.4798 -0.4094 -0.7760
vn -0.8527 -0.3934 -0.3438
vn -0.9513 -0.3032 0.0566
vn 0.0262 -0.2437 -0.9695
vn -0.8511 -0.2617 0.4551
vn -0.6455 -0.5230 -0.5566
vn -0.8389 -0.5405 -0.0639
vn 0.2468 -0.2256 -0.9424
vn 0.1476 -0.4344 -0.8885
vn -0.8065 -0.4608 0.3705
vn 0.6214 0.0147 -0.7834
vn -0.6709 -0.7215 0.1710
vn 0.4664 -0.4338 -0.7709
vn -0.6721 -0.5978 0.4369
vn 0.3368 -0.6848 -0.6463
vn -0.3265 -0.9412 -0.0867
vn 0.0409 -0.9936 -0.1057
vn 0.5946 -0.4014 -0.6966
vn -0.5000 -0.6961 0.5153
vn -0.6580 -0.2394 0.7139
vn -0.0459 -0.9300 0.3648
vn 0.8268 -0.4880 -0.2799
vn 0.7256 -0.2402 -0.6448
vn -0.1897 -0.8630 0.4682
vn 0.6790 -0.5549 -0.4807
vn 0.4815 -0.8394 -0.2521
vn -0.2279 -0.6683 0.7082
vn -0.4319 -0.4443 0.7849
vn 0.4939 -0.8568 0.1483
vn 0.1319 -0.8216 0.5547
vn 0.4616 -0.7652 0.4489
vn 0.7549 -0.0400 -0.6546
vn 0.0462 -0.6948 0.7178
vn -0.1646 -0.2506 0.9540
vn 0.7930 -0.5998 -0.1066
vn -0.1844 -0.4452 0.8762
vn 0.7058 -0.6180 0.3464
vn 0.3470 -0.6195 0.7041
vn 0.6046 -0.4779 0.6372
vn 0.1714 -0.4369 0.8830
vn 0.9280 -0.1778 -0.3274
vn 0.8679 -0.4310 0.2468
vn -0.4314 -0.2242 0.8739
vn 0.5299 -0.2099 0.8217
vn -0.2966 -0.2170 0.9300
vn 0.7980 -0.3145 0.5141
vn 0.9708 -0.2361 -0.0435
vn 0.8844 -0.0112 -0.4666
vn 0.2302 -0.1951 0.9534
vn 0.9617 -0.1207 0.2461
vn 0.8849 -0.1867 0.4268
vn 0.8458 0.2432 0.4749
vn 0.9800 0.0060 0.1989
vn 0.6029 -0.0579 0.7957
vn -0.0870 -0.0829 0.9928
vn 0.2199 0.0092 0.9755
vn 0.9646 0.1094 -0.2399
vn -0.3034 -0.0055 0.9528
vn 0.8943 0.0815 0.4399
vn 0.6906 0.2520 0.6780
vn -0.4663 -0.0077 0.8846
vn 0.5236 0.2280 0.8209
vn 0.4066 0.5265 0.7466
vn 0.2973 0.2316 0.9263
vn 0.1701 0.1176 0.9784
vn -0.0094 0.1536 0.9881
vn 0.9760 0.2091 0.0612
vn -0.1409 0.0821 0.9866
vn 0.9327 0.2896 0.2149
vn 0.8505 0.2330 -0.4715
vn 0.6187 0.5137 0.5944
vn 0.2139 0.4466 0.8688
vn 0.8872 0.3792 -0.2630
vn 0.7406 0.5545 0.3796
vn -0.0585 0.3171 0.9466
vn -0.2133 0.3891 0.8962
vn 0.6624 0.7050 0.2534
vn -0.3066 0.2554 0.9170
vn -0.4013 0.2156 0.8902
vn -0.5644 0.2358 0.7911
vn 0.3607 0.7212 0.5914
vn 0.7552 0.1816 -0.6298
vn 0.0244 0.7290 0.6841
vn 0.6663 0.6633 -0.3407
vn 0.5366 0.7914 -0.2927
vn 0.3995 0.9167 -0.0095
vn 0.6568 0.5433 -0.5229
vn -0.6010 0.1513 0.7848
vn 0.2644 0.9430 0.2020
vn 0.1198 0.9411 0.3161
vn 0.2836 0.7912 -0.5418
vn -0.2312 0.9159 0.3282
vn -0.6766 0.4608 0.5743
vn 0.0429 0.6438 -0.7640
vn 0.1836 0.8776 -0.4428
vn -0.2073 0.9725 -0.1057
vn 0.5985 0.3371 -0.7267
vn -0.5439 0.7032 0.4578
vn -0.6778 0.5596 0.4768
vn -0.7698 0.2922 0.5675
vn -0.1515 0.8620 -0.4838
vn -0.5618 0.7633 -0.3190
vn -0.1290 0.7292 -0.6720
vn 0.3240 0.4431 -0.8359
vn 0.5505 0.1914 -0.8126
vn -0.8383 0.4455 -0.3143
vn -0.8256 0.5300 0.1939
vn -0.8932 0.3608 0.2683
vn -0.8170 0.1229 0.5634
vn -0.5568 0.6221 -0.5504
vn -0.2474 0.4839 -0.8394
vn -0.3786 0.3167 -0.8697
vn 0.4156 0.2103 -0.8849
vn -0.9422 0.3350 -0.0110
vn 0.0151 0.3595 -0.9330
vn -0.8352 -0.0232 0.5495
vn -0.5331 0.3618 -0.7648
vn -0.6465 0.3415 -0.6823
vn -0.9796 0.0715 0.1879
vn -0.0019 0.1614 -0.9869
vn -0.7151 0.0536 -0.6970
vn -0.9270 -0.0287 0.3741
vn -0.3050 0.0790 -0.9491
vn -0.7067 -0.2460 -0.6634
vn -0.4522 -0.0792 -0.8884
vn -0.9460 -0.0838 -0.3131
vn 0.0023 -0.0199 -0.9998
vn -0.9926 -0.0790 0.0927
vn 0.2490 -0.0482 -0.9673
vn -0.9316 -0.1989 0.3044
vn -0.3199 -0.1609 -0.9337
vn -0.2801 -0.3298 -0.9015
vn -0.7757 -0.2527 -0.5783
vn -0.5655 -0.4035 -0.7193
vn -0.8578 -0.3941 -0.3298
vn -0.4997 -0.7143 -0.4900
vn -0.8872 -0.4536 0.0842
vn 0.1480 -0.2818 -0.9480
vn -0.8239 -0.2265 0.5195
vn 0.5333 -0.0651 -0.8434
vn -0.1008 -0.5903 -0.8008
vn -0.6423 -0.7186 -0.2665
vn 0.4937 -0.1922 -0.8481
vn -0.7713 -0.6323 -0.0725
vn 0.3937 -0.2488 -0.8849
vn -0.8124 -0.3665 0.4535
vn -0.4132 -0.9103 0.0246
vn -0.3148 -0.6494 -0.6922
vn -0.2928 -0.8759 -0.3834
vn -0.5023 -0.8501 0.1580
vn 0.3692 -0.5127 -0.7751
vn -0.6736 -0.5956 0.4376
vn 0.0980 -0.7762 -0.6228
vn 0.0349 -0.8756 -0.4818
vt 0.781230 0.812500
vt 0.762032 0.875000
vt 0.685473 0.777944
vt 0.734697 0.375000
vt 0.703125 0.312500
vt 0.764235 0.312500
vt 0.741874 0.599249
vt 0.704616 0.531266
vt 0.763980 0.500000
vt 0.734375 0.000000
vt 0.879629 0.062500
vt 0.593677 0.062500
vt 0.670132 0.472235
vt 0.734536 0.437500
vt 0.734224 0.937500
vt 0.605595 0.875000
vt 0.658359 0.250000
vt 0.719918 0.218999
vt 0.734375 0.717281
vt 0.678319 0.660608
vt 0.606077 0.187500
vt 0.641330 0.592355
vt 0.623673 0.812500
vt 0.673680 0.375000
vt 0.639230 0.312500
vt 0.640625 1.000000
vt 0.479138 0.937500
vt 0.639064 0.437500
vt 0.612180 0.375000
vt 0.595563 0.750000
vt 0.606567 0.500000
vt 0.603325 0.667055
vt 0.578286 0.562500
vt 0.578286 0.437500
vt 0.577540 0.283466
vt 0.543444 0.396147
vt 0.512752 0.812500
vt 0.546915 0.655822
vt 0.503540 0.125000
vt 0.660224 0.125000
vt 0.544067 0.500000
vt 0.509405 0.537235
vt 0.515588 0.281661
vt 0.510998 0.724803
vt 0.449506 0.875000
vt 0.487180 0.625000
vt 0.453286 0.562500
vt 0.450317 0.500000
vt 0.485851 0.406417
vt 0.453088 0.281661
vt 0.455926 0.750000
vt 0.445771 0.665313
vt 0.799126 0.125000
vt 0.779637 0.187500
vt 0.402284 0.812500
vt 0.497588 0.187500
vt 0.386121 0.187500
vt 0.328120 0.062500
vt 0.453125 0.000000
vt 0.437500 0.406180
vt 0.347717 0.125000
vt 0.390588 0.718339
vt 0.293360 0.875000
vt 0.308534 0.812500
vt 0.316528 0.750000
vt 0.343750 0.656371
vt 0.393429 0.625000
vt 0.296915 0.655822
vt 0.343750 0.531273
vt 0.297036 0.562500
vt 0.294067 0.500000
vt 0.328125 1.000000
vt 0.230145 0.937500
vt 0.328286 0.437500
vt 0.296914 0.344178
vt 0.343750 0.343629
vt 0.265786 0.437500
vt 0.234338 0.281661
vt 0.296902 0.219059
vt 0.214815 0.187500
vt 0.237180 0.375000
vt 0.199790 0.812500
vt 0.237635 0.520573
vt 0.203286 0.437500
vt 0.237180 0.625000
vt 0.203286 0.562500
vt 0.190964 0.125000
vt 0.113605 0.062500
vt 0.169067 0.500000
vt 0.203125 0.000000
vt 0.137012 0.875000
vt 0.176363 0.337227
vt 0.171838 0.718339
vt 0.234338 0.718339
vt 0.148421 0.399333
vt 0.160278 0.250000
vt 0.121065 0.187500
vt 0.174680 0.625000
vt 0.134405 0.537235
vt 0.140625 1.000000
vt 0.030235 0.937500
vt 0.075252 0.812500
vt 0.102021 0.334687
vt 0.109536 0.437500
vt 0.066529 0.250000
vt 0.055088 0.153620
vt 0.112179 0.625000
vt 0.078286 0.562500
vt 0.075317 0.500000
vt 0.047036 0.437500
vt 0.032456 0.875000
vt 0.048167 0.750000
vt 0.108913 0.719958
vt 0.062500 0.658651
vt 0.015664 0.655822
vt 0.018885 0.520574
vt 0.000000 0.562500
vt 0.015625 0.000000
vt 0.000000 0.062500
vt 0.000000 0.399333
vt 0.046914 0.344178
vt 0.000000 0.784407
vt 0.000000 0.273040
vt 0.991904 0.273040
vt 0.992171 0.399333
vt 0.937867 0.282145
vt 1.000000 0.655822
vt 0.975379 0.784407
vt 0.953164 0.655822
vt 1.000000 0.500000
vt 0.984536 0.562500
vt 0.950317 0.500000
vt 0.953286 0.437500
vt 0.924679 0.375000
vt 0.915655 0.537235
vt 0.910279 0.750000
vt 0.906250 0.656371
vt 0.965747 0.187500
vt 0.868449 0.212346
vt 0.978825 0.875000
vt 0.921769 0.937500
vt 0.872374 0.843190
vt 0.887823 0.312500
vt 0.859536 0.562500
vt 0.856567 0.500000
vt 0.890786 0.437500
vt 0.855944 0.396148
vt 0.859414 0.655822
vt 0.939862 0.125000
vt 0.812867 0.282145
vt 0.814726 0.750000
vt 0.796945 0.653777
vt 0.828125 1.000000
vt 0.798190 0.375000
vt 0.797036 0.437500
vt 0.390786 0.562500
vt 0.387817 0.500000
vt 0.390786 0.437500
vt 0.390665 0.344178
vt 0.378980 0.250000
vt 0.000000 0.125000
vt 0.000000 0.187500
vt 0.801816 0.543181
s 0
f 2/1/1 6/2/1 13/3/1
f 11/4/2 14/5/2 4/6/2
f 8/7/3 9/8/3 3/9/3
f 5/10/4 127/11/4 44/12/4
f 9/8/5 16/13/5 10/14/5
f 139/15/6 32/16/6 6/2/6
f 14/5/7 21/17/7 12/18/7
f 7/19/8 15/20/8 8/7/8
f 12/18/9 21/17/9 31/21/9
f 15/20/10 18/22/10 9/8/10
f 32/16/11 22/23/11 13/3/11
f 14/5/12 17/24/12 20/25/12
f 139/15/13 1/26/13 59/27/13
f 19/28/14 25/29/14 17/24/14
f 22/23/15 27/30/15 13/3/15
f 16/13/16 18/22/16 24/31/16
f 18/22/17 23/32/17 28/33/17
f 24/31/18 29/34/18 19/28/18
f 20/25/19 25/29/19 30/35/19
f 20/25/20 30/35/20 21/17/20
f 29/34/21 35/36/21 25/29/21
f 32/16/22 41/37/22 22/23/22
f 23/32/23 27/30/23 33/38/23
f 31/21/24 51/39/24 26/40/24
f 24/31/25 28/33/25 34/41/25
f 28/33/26 33/38/26 37/42/26
f 34/41/27 35/36/27 29/34/27
f 30/35/28 35/36/28 38/43/28
f 41/37/29 36/44/29 27/30/29
f 32/16/30 59/27/30 40/45/30
f 37/42/31 42/46/31 47/47/31
f 37/42/32 47/47/32 48/48/32
f 38/43/33 43/49/33 50/50/33
f 41/37/34 45/51/34 36/44/34
f 36/44/35 45/51/35 46/52/35
f 26/40/36 146/53/36 145/54/36 12/18/36
f 41/37/37 40/45/37 52/55/37
f 39/56/38 50/50/38 64/57/38
f 44/12/39 51/39/39 76/58/39
f 5/59/40 44/12/40 76/58/40
f 48/48/41 49/60/41 43/49/41
f 64/57/42 73/61/42 51/39/42
f 52/55/43 54/62/43 45/51/43
f 59/27/44 77/63/44 40/45/44
f 52/55/45 77/63/45 67/64/45
f 54/62/46 68/65/46 60/66/46
f 54/62/47 60/66/47 55/67/47
f 60/66/48 68/65/48 69/68/48
f 61/69/49 65/70/49 70/71/49
f 59/27/50 1/72/50 82/73/50
f 66/74/51 71/75/51 62/76/51
f 70/71/52 75/77/52 66/74/52
f 71/75/53 81/78/53 72/79/53
f 72/79/54 81/78/54 87/80/54
f 75/77/55 80/81/55 71/75/55
f 67/64/56 77/63/56 88/82/56
f 71/75/57 80/81/57 81/78/57
f 74/83/58 85/84/58 75/77/58
f 74/83/59 79/85/59 83/86/59
f 96/87/60 111/88/60 76/58/60
f 74/83/61 83/86/61 84/89/61
f 5/90/62 76/58/62 111/88/62
f 77/63/63 82/73/63 92/91/63
f 85/84/64 86/92/64 80/81/64
f 88/82/65 89/93/65 78/94/65
f 84/89/66 95/95/66 85/84/66
f 85/84/67 95/95/67 86/92/67
f 87/80/68 91/96/68 100/97/68
f 83/86/69 90/98/69 93/99/69
f 82/73/70 1/100/70 131/101/70
f 92/91/71 105/102/71 88/82/71
f 86/92/72 95/95/72 99/103/72
f 94/104/73 99/103/73 95/95/73
f 99/103/74 109/105/74 91/96/74
f 100/97/75 110/106/75 96/87/75
f 93/99/76 98/107/76 102/108/76
f 93/99/77 102/108/77 103/109/77
f 103/109/78 108/110/78 94/104/78
f 131/101/79 118/111/79 92/91/79
f 105/102/80 106/112/80 97/113/80
f 100/97/81 109/105/81 110/106/81
f 97/113/82 101/114/82 98/107/82
f 101/114/83 106/112/83 112/115/83
f 107/116/84 112/115/84 115/117/84
f 5/118/85 111/88/85 127/119/85
f 107/116/86 113/120/86 108/110/86
f 108/110/87 113/120/87 104/121/87
f 105/102/88 118/111/88 114/122/88
f 104/121/89 113/120/89 116/123/89
f 105/102/90 114/122/90 106/112/90
f 104/121/91 116/123/91 109/105/91
f 116/124/92 113/125/92 126/126/92
f 112/127/93 114/128/93 119/129/93
f 107/130/94 115/131/94 120/132/94
f 121/133/95 125/134/95 113/125/95
f 115/131/96 119/129/96 124/135/96
f 119/129/97 128/136/97 123/137/97
f 122/138/98 126/126/98 137/139/98
f 118/140/99 131/141/99 132/142/99
f 118/140/100 132/142/100 114/128/100
f 126/126/101 125/134/101 130/143/101
f 124/135/102 134/144/102 135/145/102
f 129/146/103 136/147/103 125/134/103
f 130/143/104 137/139/104 126/126/104
f 123/137/105 128/136/105 133/148/105
f 137/139/106 146/53/106 117/149/106
f 135/145/107 136/147/107 129/146/107
f 130/143/108 136/147/108 138/150/108
f 132/142/109 140/151/109 128/136/109
f 133/148/110 140/151/110 141/152/110
f 137/139/111 138/150/111 145/54/111
f 131/141/112 1/153/112 139/15/112
f 138/150/113 144/154/113 4/6/113
f 140/151/114 2/1/114 7/19/114
f 4/6/115 12/18/115 138/150/115
f 141/152/116 7/19/116 8/7/116
f 3/9/117 10/14/117 143/155/117
f 3/9/118 9/8/118 10/14/118
f 7/19/119 2/1/119 13/3/119
f 4/6/120 14/5/120 12/18/120
f 44/12/121 127/11/121 146/53/121 26/40/121
f 17/24/122 11/4/122 10/14/122 16/13/122
f 23/32/123 15/20/123 13/3/123 27/30/123
f 6/2/124 32/16/124 13/3/124
f 11/4/125 17/24/125 14/5/125
f 7/19/126 13/3/126 15/20/126
f 9/8/127 8/7/127 15/20/127
f 21/17/128 14/5/128 20/25/128
f 12/18/129 31/21/129 26/40/129
f 9/8/130 18/22/130 16/13/130
f 16/13/131 19/28/131 17/24/131
f 16/13/132 24/31/132 19/28/132
f 139/15/133 59/27/133 32/16/133
f 20/25/134 17/24/134 25/29/134
f 38/43/135 39/56/135 31/21/135 30/35/135
f 15/20/136 23/32/136 18/22/136
f 21/17/137 30/35/137 31/21/137
f 24/31/138 18/22/138 28/33/138
f 19/28/139 29/34/139 25/29/139
f 24/31/140 34/41/140 29/34/140
f 30/35/141 25/29/141 35/36/141
f 22/23/142 41/37/142 27/30/142
f 28/33/143 23/32/143 33/38/143
f 44/12/144 26/40/144 51/39/144
f 43/49/145 35/36/145 34/41/145 37/42/145
f 51/39/146 31/21/146 39/56/146
f 34/41/147 28/33/147 37/42/147
f 33/38/148 27/30/148 36/44/148
f 32/16/149 40/45/149 41/37/149
f 38/43/150 35/36/150 43/49/150
f 33/38/151 36/44/151 42/46/151
f 37/42/152 33/38/152 42/46/152
f 55/67/153 56/156/153 47/47/153 46/52/153
f 36/44/154 46/52/154 42/46/154
f 37/42/155 48/48/155 43/49/155
f 39/56/156 38/43/156 50/50/156
f 50/50/157 43/49/157 49/60/157
f 41/37/158 52/55/158 45/51/158
f 39/56/159 64/57/159 51/39/159
f 47/47/160 42/46/160 46/52/160
f 56/156/161 57/157/161 48/48/161 47/47/161
f 51/39/162 73/61/162 76/58/162
f 58/158/163 49/60/163 48/48/163 57/157/163
f 66/74/164 58/158/164 57/157/164 61/69/164
f 49/60/165 58/158/165 53/159/165
f 50/50/166 49/60/166 53/159/166
f 50/50/167 53/159/167 63/160/167
f 46/52/168 45/51/168 54/62/168
f 64/57/169 50/50/169 63/160/169
f 46/52/170 54/62/170 55/67/170
f 40/45/171 77/63/171 52/55/171
f 57/157/172 56/156/172 61/69/172
f 62/76/173 53/159/173 58/158/173 66/74/173
f 68/65/174 54/62/174 52/55/174 67/64/174
f 60/66/175 61/69/175 56/156/175 55/67/175
f 53/159/176 62/76/176 63/160/176
f 72/79/177 63/160/177 62/76/177 71/75/177
f 69/68/178 65/70/178 61/69/178 60/66/178
f 64/57/179 63/160/179 72/79/179
f 64/57/180 72/79/180 73/61/180
f 96/87/181 73/61/181 72/79/181 87/80/181
f 61/69/182 70/71/182 66/74/182
f 59/27/183 82/73/183 77/63/183
f 66/74/184 75/77/184 71/75/184
f 69/68/185 68/65/185 78/94/185
f 69/68/186 78/94/186 79/85/186
f 79/85/187 74/83/187 65/70/187 69/68/187
f 78/94/188 68/65/188 67/64/188 88/82/188
f 76/58/189 73/61/189 96/87/189
f 70/71/190 65/70/190 74/83/190
f 70/71/191 74/83/191 75/77/191
f 90/98/192 79/85/192 78/94/192 89/93/192
f 75/77/193 85/84/193 80/81/193
f 87/80/194 81/78/194 91/96/194
f 98/107/195 90/98/195 89/93/195 97/113/195
f 83/86/196 79/85/196 90/98/196
f 74/83/197 84/89/197 85/84/197
f 77/63/198 92/91/198 88/82/198
f 81/78/199 80/81/199 86/92/199
f 81/78/200 86/92/200 91/96/200
f 87/80/201 100/97/201 96/87/201
f 84/89/202 83/86/202 93/99/202
f 94/104/203 95/95/203 84/89/203 93/99/203
f 93/99/204 90/98/204 98/107/204
f 97/113/205 89/93/205 88/82/205 105/102/205
f 82/73/206 131/101/206 92/91/206
f 104/121/207 99/103/207 94/104/207 108/110/207
f 86/92/208 99/103/208 91/96/208
f 100/97/209 91/96/209 109/105/209
f 96/87/210 110/106/210 111/88/210
f 93/99/211 103/109/211 94/104/211
f 102/108/212 98/107/212 101/114/212
f 112/115/213 107/116/213 102/108/213 101/114/213
f 92/91/214 118/111/214 105/102/214
f 99/103/215 104/121/215 109/105/215
f 97/113/216 106/112/216 101/114/216
f 127/119/217 111/88/217 110/106/217 117/161/217
f 103/109/218 102/108/218 107/116/218
f 103/109/219 107/116/219 108/110/219
f 116/123/220 122/162/220 110/106/220 109/105/220
f 112/115/221 106/112/221 114/122/221
f 121/133/222 113/125/222 107/130/222 120/132/222
f 110/106/223 122/162/223 117/161/223
f 115/131/224 112/127/224 119/129/224
f 129/146/225 121/133/225 120/132/225 124/135/225
f 120/132/226 115/131/226 124/135/226
f 126/126/227 113/125/227 125/134/227
f 119/129/228 114/128/228 128/136/228
f 122/138/229 116/124/229 126/126/229
f 114/128/230 132/142/230 128/136/230
f 117/149/231 122/138/231 137/139/231
f 124/135/232 119/129/232 123/137/232
f 133/148/233 134/144/233 124/135/233 123/137/233
f 121/133/234 129/146/234 125/134/234
f 124/135/235 135/145/235 129/146/235
f 130/143/236 125/134/236 136/147/236
f 143/155/237 136/147/237 135/145/237 142/163/237
f 130/143/238 138/150/238 137/139/238
f 133/148/239 128/136/239 140/151/239
f 117/149/240 146/53/240 127/11/240
f 139/15/241 6/2/241 132/142/241 131/141/241
f 141/152/242 142/163/242 134/144/242 133/148/242
f 136/147/243 143/155/243 144/154/243
f 132/142/244 6/2/244 2/1/244
f 138/150/245 136/147/245 144/154/245
f 132/142/246 2/1/246 140/151/246
f 137/139/247 145/54/247 146/53/247
f 11/4/248 144/154/248 143/155/248 10/14/248
f 135/145/249 134/144/249 142/163/249
f 142/163/250 3/9/250 143/155/250
f 144/154/251 11/4/251 4/6/251
f 141/152/252 140/151/252 7/19/252
f 145/54/253 138/150/253 12/18/253
f 142/163/254 141/152/254 8/7/254
f 3/9/255 142/163/255 8/7/255
