# Blender 5.0.0
# www.blender.org
mtllib prep_throw_ball0030.mtl
o Sphere
v -1.686039 6.695306 0.021270
v -1.816938 6.045897 -0.185664
v -2.315744 5.230370 0.041937
v -2.683142 5.245325 0.383250
v -2.990422 6.038480 0.968952
v -1.721154 6.228843 -0.117696
v -1.806982 5.643631 -0.072516
v -2.017548 5.339012 -0.000286
v -1.990918 5.207340 0.236651
v -2.315493 5.140086 0.250351
v -2.448142 5.146783 0.359133
v -2.722815 5.353855 0.676180
v -1.593508 5.876573 0.057037
v -2.459056 5.188142 0.577764
v -1.688033 5.500313 0.176308
v -1.988921 5.185013 0.474783
v -2.220848 5.169508 0.601036
v -1.664266 5.431464 0.415590
v -1.975605 5.252955 0.669130
v -2.286197 5.296259 0.826421
v -2.493361 5.339453 0.828495
v -1.488349 6.078183 0.182215
v -1.494584 5.719471 0.454743
v -1.746779 5.427333 0.719446
v -2.055483 5.349901 0.862044
v -2.770746 5.622688 0.927352
v -1.439193 5.981364 0.345992
v -1.577015 5.653029 0.738816
v -1.834161 5.523542 0.925642
v -2.245578 5.550513 1.070554
v -2.550732 5.567529 1.017606
v -1.503818 6.316936 0.139934
v -1.425760 5.986057 0.678559
v -1.655692 5.782048 0.968329
v -1.894931 5.696723 1.091673
v -1.386062 6.311977 0.627262
v -1.575329 6.053864 1.019305
v -2.219911 5.859221 1.237783
v -2.506383 5.948554 1.230644
v -1.493644 6.708977 0.329765
v -1.409107 6.439590 0.411823
v -1.463944 6.324835 0.901351
v -1.880218 6.095328 1.247331
v -2.855908 5.866539 1.018217
v -1.428528 6.635940 0.649679
v -1.475440 6.632333 0.874894
v -1.592085 6.501460 1.086947
v -1.713909 6.460208 1.197604
v -1.949621 6.431208 1.316368
v -2.267899 6.218151 1.340907
v -2.681132 5.945809 1.164786
v -1.511408 6.887489 0.505901
v -2.227917 6.671452 1.364166
v -1.556578 6.987469 0.755822
v -1.642334 6.959246 0.984338
v -1.745144 6.944244 1.114573
v -1.874009 6.909398 1.220508
v -2.002291 6.814758 1.301399
v -1.562420 6.666095 0.157647
v -1.757131 7.238143 0.866228
v -1.979011 7.223610 1.115187
v -2.375366 6.926829 1.315399
v -2.495553 6.557740 1.341583
v -2.629657 6.399688 1.295177
v -2.096969 7.444029 0.955757
v -2.226068 7.179502 1.220495
v -1.703203 7.189076 0.431827
v -1.734149 7.273325 0.593601
v -1.925071 7.435902 0.770990
v -2.235973 7.410139 1.051344
v -2.545218 7.123625 1.221550
v -2.768767 6.765230 1.225571
v -2.817324 6.370876 1.199030
v -2.441475 7.577707 0.808040
v -2.486494 7.410677 1.043380
v -2.929891 6.225053 1.091134
v -1.692260 7.071798 0.263950
v -2.044489 7.496644 0.456641
v -2.219096 7.584173 0.640559
v -2.721547 7.331162 1.005608
v -2.877949 7.076954 1.062179
v -1.733164 6.928818 0.095482
v -2.486777 7.602576 0.610191
v -2.748551 7.518127 0.553812
v -2.743923 7.473090 0.797017
v -2.998108 7.225935 0.805879
v -3.013620 6.758034 1.036294
v -1.959623 7.309008 0.210131
v -2.234531 7.472803 0.244762
v -2.447476 7.565649 0.390283
v -3.114618 6.932661 0.845621
v -1.934098 7.082861 0.022877
v -2.780172 7.459943 0.344337
v -3.040325 7.236959 0.381176
v -2.999109 7.311731 0.608979
v -3.070915 6.515965 0.995896
v -2.376917 7.312544 0.024903
v -2.620978 7.383884 0.128178
v -3.183792 7.008958 0.523086
v -3.191810 6.650657 0.801139
v -2.608658 7.151577 -0.083035
v -2.842300 7.210243 0.064581
v -2.987705 7.144027 0.139502
v -3.250701 6.747729 0.311663
v -2.147089 7.071645 -0.099963
v -2.351242 7.029854 -0.164190
v -2.980997 6.787918 -0.103384
v -3.134255 6.894632 0.134593
v -3.270764 6.645543 0.556717
v -3.235120 6.357440 0.706972
v -3.094109 6.240520 0.921646
v -2.639091 6.871595 -0.228814
v -3.190036 6.472870 0.046378
v -2.244930 6.691230 -0.292758
v -2.869426 6.591593 -0.229709
v -3.280955 6.310760 0.328357
v -3.176411 5.996325 0.659416
v -1.993863 6.768656 -0.181300
v -2.586304 6.462345 -0.348442
v -2.962551 6.273577 -0.207381
v -3.084375 6.232325 -0.096725
v -3.244033 6.106640 0.509367
v -2.488825 6.158089 -0.373673
v -2.810152 6.062632 -0.287160
v -3.114541 5.978697 0.008179
v -3.225098 6.025257 0.246966
v -3.068772 5.923570 0.816374
v -2.248896 6.326823 -0.358790
v -2.931317 5.789541 -0.124350
v -3.087388 5.733430 0.157506
v -1.829077 6.722915 -0.100282
v -1.952012 6.344664 -0.263765
v -2.353924 5.885140 -0.349592
v -2.569190 5.723041 -0.283898
v -2.693900 5.626870 -0.199873
v -2.888711 5.565208 -0.019235
v -3.105127 5.696156 0.429438
v -2.905663 5.415381 0.324167
v -1.666627 6.449152 -0.039757
v -2.002817 5.929507 -0.275641
v -2.131244 5.610161 -0.231327
v -2.376640 5.387469 -0.132043
v -2.579494 5.289757 0.034465
v -2.704183 5.291615 0.157499
v -2.905829 5.489678 0.609260
v -2.989837 5.668206 0.713857
vn 0.6961 -0.1004 -0.7109
vn -0.3685 -0.9166 0.1550
vn 0.2356 -0.8380 -0.4922
vn -0.6908 -0.3609 0.6265
vn 0.1982 -0.9757 -0.0931
vn 0.7562 0.0438 -0.6529
vn -0.3494 -0.8226 0.4486
vn 0.5874 -0.5474 -0.5961
vn -0.4552 -0.6334 0.6258
vn 0.6410 -0.7184 -0.2704
vn 0.8047 -0.0526 -0.5913
vn -0.1139 -0.8797 0.4617
vn 0.7461 0.2151 -0.6302
vn 0.1541 -0.8558 0.4939
vn 0.8915 -0.2186 -0.3968
vn 0.6151 -0.7727 0.1565
vn 0.8473 -0.5162 0.1251
vn 0.4393 -0.7283 0.5260
vn 0.0512 -0.6959 0.7163
vn -0.1335 -0.6752 0.7254
vn 0.2699 -0.6153 0.7406
vn 0.9440 0.0027 -0.3300
vn 0.9746 -0.2212 -0.0362
vn -0.4332 -0.4526 0.7794
vn 0.6563 -0.5390 0.5280
vn 0.8476 -0.3066 0.4331
vn 0.5312 -0.4818 0.6970
vn 0.1483 -0.4805 0.8643
vn 0.9900 -0.0459 -0.1331
vn 0.8994 0.1714 -0.4021
vn 0.7928 -0.0620 0.6063
vn 0.6854 -0.0837 0.7234
vn 0.1500 -0.2544 0.9554
vn 0.9909 0.1318 -0.0279
vn 0.9723 0.1133 0.2043
vn -0.6235 -0.5910 0.5119
vn 0.9548 0.2514 -0.1585
vn -0.2195 -0.1967 0.9556
vn -0.5422 -0.2735 0.7945
vn -0.6225 -0.2773 0.7318
vn 0.4568 -0.0876 0.8852
vn -0.4209 -0.2060 0.8834
vn 0.9425 0.3320 0.0375
vn 0.8249 0.3749 -0.4230
vn 0.8409 0.4679 -0.2721
vn 0.8025 0.5794 0.1424
vn 0.7995 0.4813 0.3595
vn 0.7174 0.6807 0.1483
vn 0.3094 0.6604 0.6841
vn 0.7325 0.3360 -0.5920
vn -0.0642 0.3839 0.9211
vn -0.0244 0.5905 0.8066
vn -0.4462 0.2878 0.8474
vn -0.6035 0.1940 0.7734
vn -0.3099 0.5464 0.7781
vn 0.6509 0.6416 -0.4058
vn -0.4371 0.4431 0.7827
vn -0.2970 0.8046 0.5142
vn 0.0555 0.9922 0.1120
vn -0.7183 -0.1241 0.6846
vn -0.3387 0.9208 0.1933
vn -0.7119 -0.2083 0.6707
vn 0.6141 0.5219 -0.5921
vn -0.5972 0.6319 0.4940
vn 0.4117 0.7879 -0.4580
vn -0.6074 0.7790 0.1558
vn -0.6588 0.6884 0.3033
vn -0.8185 0.1360 0.5581
vn -0.2703 0.9404 -0.2062
vn 0.6454 0.3466 -0.6807
vn 0.3684 0.6172 -0.6952
vn -0.8602 0.4659 0.2074
vn -0.8513 0.5244 -0.0181
vn -0.9337 0.2474 0.2588
vn -0.8601 -0.0364 0.5088
vn -0.4085 0.7242 -0.5556
vn -0.5564 0.6775 -0.4811
vn -0.8018 0.4782 -0.3585
vn 0.4915 0.4069 -0.7700
vn 0.1425 0.5592 -0.8167
vn -0.9510 0.0421 0.3063
vn -0.1180 0.6646 -0.7378
vn -0.0580 0.4660 -0.8829
vn -0.3950 0.3277 -0.8582
vn -0.7677 -0.2564 0.5873
vn -0.7694 0.2267 -0.5972
vn -0.8871 0.2039 -0.4142
vn 0.2762 0.3770 -0.8841
vn -0.9592 0.0558 -0.2772
vn 0.1989 0.4018 -0.8938
vn -0.9963 0.0669 -0.0537
vn -0.9335 -0.0832 -0.3488
vn -0.0291 0.2770 -0.9604
vn -0.6325 0.1316 -0.7633
vn -0.8709 -0.0958 -0.4820
vn -0.3625 0.0604 -0.9300
vn 0.0030 0.0836 -0.9965
vn -0.9448 -0.3261 0.0330
vn 0.4781 0.2129 -0.8521
vn 0.3412 0.2118 -0.9158
vn -0.8843 -0.3103 -0.3489
vn -0.3800 -0.2781 -0.8822
vn -0.7680 -0.3855 -0.5115
vn -0.9115 -0.3953 -0.1136
vn 0.0916 -0.0425 -0.9949
vn -0.8494 -0.4329 0.3018
vn -0.5317 -0.4401 -0.7236
vn -0.7561 -0.5854 -0.2927
vn 0.3054 -0.0101 -0.9522
vn 0.2278 -0.2231 -0.9478
vn -0.7758 -0.6107 0.1587
vn 0.6556 0.2300 -0.7192
vn -0.5849 -0.8036 -0.1103
vn 0.5321 -0.2170 -0.8184
vn -0.6277 -0.7538 0.1943
vn 0.4258 -0.4767 -0.7690
vn -0.1918 -0.9007 -0.3899
vn 0.1708 -0.9040 -0.3918
vn 0.6526 -0.1901 -0.7334
vn -0.4431 -0.8585 0.2581
vn -0.6724 -0.4490 0.5885
vn 0.0664 -0.9956 0.0656
vn 0.8770 -0.3306 -0.3487
vn 0.7700 -0.0369 -0.6370
vn -0.0942 -0.9791 0.1805
vn 0.7406 -0.3649 -0.5642
vn 0.5748 -0.6861 -0.4459
vn -0.1730 -0.8536 0.4914
vn -0.4210 -0.6582 0.6241
vn 0.5934 -0.8009 -0.0801
vn 0.2290 -0.9237 0.3072
vn 0.5543 -0.7968 0.2406
vn 0.7877 0.1624 -0.5943
vn 0.1186 -0.8504 0.5126
vn -0.1715 -0.4623 0.8700
vn 0.8532 -0.4726 -0.2207
vn -0.1646 -0.6538 0.7386
vn 0.7743 -0.5997 0.2021
vn 0.4179 -0.7305 0.5401
vn 0.6549 -0.5395 0.5292
vn 0.2058 -0.6047 0.7694
vn 0.9543 -0.0198 -0.2981
vn 0.9080 -0.3809 0.1744
vn -0.4481 -0.4453 0.7752
vn 0.5324 -0.3174 0.7848
vn -0.3114 -0.4359 0.8444
vn 0.8204 -0.3301 0.4668
vn 0.9912 -0.1267 -0.0382
vn 0.9058 0.1654 -0.3901
vn 0.2259 -0.3616 0.9046
vn 0.9584 -0.0733 0.2758
vn 0.8871 -0.1796 0.4251
vn 0.7768 0.2177 0.5909
vn 0.9610 0.0592 0.2703
vn 0.5782 -0.1544 0.8012
vn -0.1136 -0.2884 0.9508
vn 0.1829 -0.1615 0.9698
vn 0.9613 0.2457 -0.1243
vn -0.3406 -0.2237 0.9132
vn 0.8530 0.0763 0.5163
vn 0.6137 0.1718 0.7706
vn -0.5031 -0.2283 0.8335
vn 0.4501 0.1066 0.8866
vn 0.2933 0.3824 0.8762
vn 0.2265 0.0690 0.9716
vn 0.1174 -0.0612 0.9912
vn -0.0648 -0.0454 0.9969
vn 0.9385 0.2815 0.2000
vn -0.1870 -0.1273 0.9741
vn 0.8724 0.3225 0.3672
vn 0.8527 0.4075 -0.3270
vn 0.5052 0.4213 0.7532
vn 0.1169 0.2699 0.9558
vn 0.8569 0.5106 -0.0701
vn 0.6305 0.5158 0.5800
vn -0.1309 0.1125 0.9850
vn -0.2868 0.1746 0.9419
vn 0.5411 0.6752 0.5013
vn -0.3662 0.0377 0.9298
vn -0.4555 -0.0038 0.8902
vn -0.6151 0.0194 0.7882
vn 0.2287 0.5821 0.7803
vn 0.7713 0.3805 -0.5102
vn -0.0915 0.5386 0.8376
vn 0.6044 0.7930 -0.0764
vn 0.4496 0.8932 0.0018
vn 0.2725 0.9139 0.3008
vn 0.6262 0.7191 -0.3013
vn -0.6460 -0.0641 0.7606
vn 0.1255 0.8634 0.4886
vn -0.0166 0.8169 0.5766
vn 0.2058 0.9399 -0.2725
vn -0.3454 0.7583 0.5530
vn -0.7335 0.2611 0.6276
vn -0.0164 0.8204 -0.5715
vn 0.0848 0.9850 -0.1503
vn -0.3275 0.9279 0.1781
vn 0.6030 0.5481 -0.5797
vn -0.6221 0.5141 0.5905
vn -0.7398 0.3700 0.5619
vn -0.8141 0.0971 0.5725
vn -0.2555 0.9408 -0.2227
vn -0.6514 0.7493 -0.1193
vn -0.2108 0.8631 -0.4590
vn 0.3103 0.6576 -0.6865
vn 0.5712 0.4100 -0.7111
vn -0.8808 0.4119 -0.2335
vn -0.8786 0.3870 0.2800
vn -0.9320 0.2083 0.2967
vn -0.8506 -0.0689 0.5212
vn -0.6296 0.6693 -0.3945
vn -0.2925 0.6348 -0.7152
vn -0.3982 0.4524 -0.7980
vn 0.4335 0.4316 -0.7911
vn -0.9720 0.2343 0.0181
vn 0.0009 0.5560 -0.8312
vn -0.8588 -0.2116 0.4666
vn -0.5631 0.4584 -0.6876
vn -0.6734 0.4079 -0.6166
vn -0.9900 -0.0603 0.1273
vn 0.0125 0.3584 -0.9335
vn -0.6906 0.1199 -0.7133
vn -0.9399 -0.1902 0.2838
vn -0.2825 0.2354 -0.9299
vn -0.6311 -0.1705 -0.7568
vn -0.4034 0.0540 -0.9134
vn -0.9100 -0.1081 -0.4003
vn 0.0412 0.1777 -0.9832
vn -0.9820 -0.1886 -0.0124
vn 0.2914 0.1675 -0.9418
vn -0.9244 -0.3446 0.1633
vn -0.2592 -0.0029 -0.9658
vn -0.1959 -0.1634 -0.9669
vn -0.7012 -0.1997 -0.6844
vn -0.4656 -0.2916 -0.8356
vn -0.7740 -0.3896 -0.4992
vn -0.3667 -0.6117 -0.7009
vn -0.8306 -0.5419 -0.1285
vn 0.2142 -0.0712 -0.9742
vn -0.8299 -0.4089 0.3796
vn 0.5746 0.1539 -0.8038
vn 0.0067 -0.4008 -0.9161
vn -0.5185 -0.6825 -0.5152
vn 0.5440 0.0267 -0.8386
vn -0.6748 -0.6637 -0.3229
vn 0.4505 -0.0296 -0.8923
vn -0.7997 -0.5354 0.2716
vn -0.2880 -0.9139 -0.2860
vn -0.1910 -0.4936 -0.8485
vn -0.1531 -0.7595 -0.6322
vn -0.3954 -0.9064 -0.1490
vn 0.4446 -0.2961 -0.8454
vn -0.6296 -0.7519 0.1956
vn 0.2099 -0.5817 -0.7859
vn 0.1587 -0.7045 -0.6917
vt 0.781230 0.812500
vt 0.762032 0.875000
vt 0.685473 0.777944
vt 0.734697 0.375000
vt 0.703125 0.312500
vt 0.764235 0.312500
vt 0.741874 0.599249
vt 0.704616 0.531266
vt 0.763980 0.500000
vt 0.734375 0.000000
vt 0.879629 0.062500
vt 0.593677 0.062500
vt 0.670132 0.472235
vt 0.734536 0.437500
vt 0.734224 0.937500
vt 0.605595 0.875000
vt 0.658359 0.250000
vt 0.719918 0.218999
vt 0.734375 0.717281
vt 0.678319 0.660608
vt 0.606077 0.187500
vt 0.641330 0.592355
vt 0.623673 0.812500
vt 0.673680 0.375000
vt 0.639230 0.312500
vt 0.640625 1.000000
vt 0.479138 0.937500
vt 0.639064 0.437500
vt 0.612180 0.375000
vt 0.595563 0.750000
vt 0.606567 0.500000
vt 0.603325 0.667055
vt 0.578286 0.562500
vt 0.578286 0.437500
vt 0.577540 0.283466
vt 0.543444 0.396147
vt 0.512752 0.812500
vt 0.546915 0.655822
vt 0.503540 0.125000
vt 0.660224 0.125000
vt 0.544067 0.500000
vt 0.509405 0.537235
vt 0.515588 0.281661
vt 0.510998 0.724803
vt 0.449506 0.875000
vt 0.487180 0.625000
vt 0.453286 0.562500
vt 0.450317 0.500000
vt 0.485851 0.406417
vt 0.453088 0.281661
vt 0.455926 0.750000
vt 0.445771 0.665313
vt 0.799126 0.125000
vt 0.779637 0.187500
vt 0.402284 0.812500
vt 0.497588 0.187500
vt 0.386121 0.187500
vt 0.328120 0.062500
vt 0.453125 0.000000
vt 0.437500 0.406180
vt 0.347717 0.125000
vt 0.390588 0.718339
vt 0.293360 0.875000
vt 0.308534 0.812500
vt 0.316528 0.750000
vt 0.343750 0.656371
vt 0.393429 0.625000
vt 0.296915 0.655822
vt 0.343750 0.531273
vt 0.297036 0.562500
vt 0.294067 0.500000
vt 0.328125 1.000000
vt 0.230145 0.937500
vt 0.328286 0.437500
vt 0.296914 0.344178
vt 0.343750 0.343629
vt 0.265786 0.437500
vt 0.234338 0.281661
vt 0.296902 0.219059
vt 0.214815 0.187500
vt 0.237180 0.375000
vt 0.199790 0.812500
vt 0.237635 0.520573
vt 0.203286 0.437500
vt 0.237180 0.625000
vt 0.203286 0.562500
vt 0.190964 0.125000
vt 0.113605 0.062500
vt 0.169067 0.500000
vt 0.203125 0.000000
vt 0.137012 0.875000
vt 0.176363 0.337227
vt 0.171838 0.718339
vt 0.234338 0.718339
vt 0.148421 0.399333
vt 0.160278 0.250000
vt 0.121065 0.187500
vt 0.174680 0.625000
vt 0.134405 0.537235
vt 0.140625 1.000000
vt 0.030235 0.937500
vt 0.075252 0.812500
vt 0.102021 0.334687
vt 0.109536 0.437500
vt 0.066529 0.250000
vt 0.055088 0.153620
vt 0.112179 0.625000
vt 0.078286 0.562500
vt 0.075317 0.500000
vt 0.047036 0.437500
vt 0.032456 0.875000
vt 0.048167 0.750000
vt 0.108913 0.719958
vt 0.062500 0.658651
vt 0.015664 0.655822
vt 0.018885 0.520574
vt 0.000000 0.562500
vt 0.015625 0.000000
vt 0.000000 0.062500
vt 0.000000 0.399333
vt 0.046914 0.344178
vt 0.000000 0.784407
vt 0.000000 0.273040
vt 0.991904 0.273040
vt 0.992171 0.399333
vt 0.937867 0.282145
vt 1.000000 0.655822
vt 0.975379 0.784407
vt 0.953164 0.655822
vt 1.000000 0.500000
vt 0.984536 0.562500
vt 0.950317 0.500000
vt 0.953286 0.437500
vt 0.924679 0.375000
vt 0.915655 0.537235
vt 0.910279 0.750000
vt 0.906250 0.656371
vt 0.965747 0.187500
vt 0.868449 0.212346
vt 0.978825 0.875000
vt 0.921769 0.937500
vt 0.872374 0.843190
vt 0.887823 0.312500
vt 0.859536 0.562500
vt 0.856567 0.500000
vt 0.890786 0.437500
vt 0.855944 0.396148
vt 0.859414 0.655822
vt 0.939862 0.125000
vt 0.812867 0.282145
vt 0.814726 0.750000
vt 0.796945 0.653777
vt 0.828125 1.000000
vt 0.798190 0.375000
vt 0.797036 0.437500
vt 0.390786 0.562500
vt 0.387817 0.500000
vt 0.390786 0.437500
vt 0.390665 0.344178
vt 0.378980 0.250000
vt 0.000000 0.125000
vt 0.000000 0.187500
vt 0.801816 0.543181
s 0
f 2/1/1 6/2/1 13/3/1
f 11/4/2 14/5/2 4/6/2
f 8/7/3 9/8/3 3/9/3
f 5/10/4 127/11/4 44/12/4
f 9/8/5 16/13/5 10/14/5
f 139/15/6 32/16/6 6/2/6
f 14/5/7 21/17/7 12/18/7
f 7/19/8 15/20/8 8/7/8
f 12/18/9 21/17/9 31/21/9
f 15/20/10 18/22/10 9/8/10
f 32/16/11 22/23/11 13/3/11
f 14/5/12 17/24/12 20/25/12
f 139/15/13 1/26/13 59/27/13
f 19/28/14 25/29/14 17/24/14
f 22/23/15 27/30/15 13/3/15
f 16/13/16 18/22/16 24/31/16
f 18/22/17 23/32/17 28/33/17
f 24/31/18 29/34/18 19/28/18
f 20/25/19 25/29/19 30/35/19
f 20/25/20 30/35/20 21/17/20
f 29/34/21 35/36/21 25/29/21
f 32/16/22 41/37/22 22/23/22
f 23/32/23 27/30/23 33/38/23
f 31/21/24 51/39/24 26/40/24
f 24/31/25 28/33/25 34/41/25
f 28/33/26 33/38/26 37/42/26
f 34/41/27 35/36/27 29/34/27
f 30/35/28 35/36/28 38/43/28
f 41/37/29 36/44/29 27/30/29
f 32/16/30 59/27/30 40/45/30
f 37/42/31 42/46/31 47/47/31
f 37/42/32 47/47/32 48/48/32
f 38/43/33 43/49/33 50/50/33
f 41/37/34 45/51/34 36/44/34
f 36/44/35 45/51/35 46/52/35
f 26/40/36 146/53/36 145/54/36 12/18/36
f 41/37/37 40/45/37 52/55/37
f 39/56/38 50/50/38 64/57/38
f 44/12/39 51/39/39 76/58/39
f 5/59/40 44/12/40 76/58/40
f 48/48/41 49/60/41 43/49/41
f 64/57/42 73/61/42 51/39/42
f 52/55/43 54/62/43 45/51/43
f 59/27/44 77/63/44 40/45/44
f 52/55/45 77/63/45 67/64/45
f 54/62/46 68/65/46 60/66/46
f 54/62/47 60/66/47 55/67/47
f 60/66/48 68/65/48 69/68/48
f 61/69/49 65/70/49 70/71/49
f 59/27/50 1/72/50 82/73/50
f 66/74/51 71/75/51 62/76/51
f 70/71/52 75/77/52 66/74/52
f 71/75/53 81/78/53 72/79/53
f 72/79/54 81/78/54 87/80/54
f 75/77/55 80/81/55 71/75/55
f 67/64/56 77/63/56 88/82/56
f 71/75/57 80/81/57 81/78/57
f 74/83/58 85/84/58 75/77/58
f 74/83/59 79/85/59 83/86/59
f 96/87/60 111/88/60 76/58/60
f 74/83/61 83/86/61 84/89/61
f 5/90/62 76/58/62 111/88/62
f 77/63/63 82/73/63 92/91/63
f 85/84/64 86/92/64 80/81/64
f 88/82/65 89/93/65 78/94/65
f 84/89/66 95/95/66 85/84/66
f 85/84/67 95/95/67 86/92/67
f 87/80/68 91/96/68 100/97/68
f 83/86/69 90/98/69 93/99/69
f 82/73/70 1/100/70 131/101/70
f 92/91/71 105/102/71 88/82/71
f 86/92/72 95/95/72 99/103/72
f 94/104/73 99/103/73 95/95/73
f 99/103/74 109/105/74 91/96/74
f 100/97/75 110/106/75 96/87/75
f 93/99/76 98/107/76 102/108/76
f 93/99/77 102/108/77 103/109/77
f 103/109/78 108/110/78 94/104/78
f 131/101/79 118/111/79 92/91/79
f 105/102/80 106/112/80 97/113/80
f 100/97/81 109/105/81 110/106/81
f 97/113/82 101/114/82 98/107/82
f 101/114/83 106/112/83 112/115/83
f 107/116/84 112/115/84 115/117/84
f 5/118/85 111/88/85 127/119/85
f 107/116/86 113/120/86 108/110/86
f 108/110/87 113/120/87 104/121/87
f 105/102/88 118/111/88 114/122/88
f 104/121/89 113/120/89 116/123/89
f 105/102/90 114/122/90 106/112/90
f 104/121/91 116/123/91 109/105/91
f 116/124/92 113/125/92 126/126/92
f 112/127/93 114/128/93 119/129/93
f 107/130/94 115/131/94 120/132/94
f 121/133/95 125/134/95 113/125/95
f 115/131/96 119/129/96 124/135/96
f 119/129/97 128/136/97 123/137/97
f 122/138/98 126/126/98 137/139/98
f 118/140/99 131/141/99 132/142/99
f 118/140/100 132/142/100 114/128/100
f 126/126/101 125/134/101 130/143/101
f 124/135/102 134/144/102 135/145/102
f 129/146/103 136/147/103 125/134/103
f 130/143/104 137/139/104 126/126/104
f 123/137/105 128/136/105 133/148/105
f 137/139/106 146/53/106 117/149/106
f 135/145/107 136/147/107 129/146/107
f 130/143/108 136/147/108 138/150/108
f 132/142/109 140/151/109 128/136/109
f 133/148/110 140/151/110 141/152/110
f 137/139/111 138/150/111 145/54/111
f 131/141/112 1/153/112 139/15/112
f 138/150/113 144/154/113 4/6/113
f 140/151/114 2/1/114 7/19/114
f 4/6/115 12/18/115 138/150/115
f 141/152/116 7/19/116 8/7/116
f 3/9/117 10/14/117 143/155/117
f 3/9/118 9/8/118 10/14/118
f 7/19/119 2/1/119 13/3/119
f 4/6/120 14/5/120 12/18/120
f 44/12/121 127/11/121 146/53/121 26/40/121
f 17/24/122 11/4/122 10/14/122 16/13/122
f 23/32/123 15/20/123 13/3/123 27/30/123
f 6/2/124 32/16/124 13/3/124
f 11/4/125 17/24/125 14/5/125
f 7/19/126 13/3/126 15/20/126
f 9/8/127 8/7/127 15/20/127
f 21/17/128 14/5/128 20/25/128
f 12/18/129 31/21/129 26/40/129
f 9/8/130 18/22/130 16/13/130
f 16/13/131 19/28/131 17/24/131
f 16/13/132 24/31/132 19/28/132
f 139/15/133 59/27/133 32/16/133
f 20/25/134 17/24/134 25/29/134
f 38/43/135 39/56/135 31/21/135 30/35/135
f 15/20/136 23/32/136 18/22/136
f 21/17/137 30/35/137 31/21/137
f 24/31/138 18/22/138 28/33/138
f 19/28/139 29/34/139 25/29/139
f 24/31/140 34/41/140 29/34/140
f 30/35/141 25/29/141 35/36/141
f 22/23/142 41/37/142 27/30/142
f 28/33/143 23/32/143 33/38/143
f 44/12/144 26/40/144 51/39/144
f 43/49/145 35/36/145 34/41/145 37/42/145
f 51/39/146 31/21/146 39/56/146
f 34/41/147 28/33/147 37/42/147
f 33/38/148 27/30/148 36/44/148
f 32/16/149 40/45/149 41/37/149
f 38/43/150 35/36/150 43/49/150
f 33/38/151 36/44/151 42/46/151
f 37/42/152 33/38/152 42/46/152
f 55/67/153 56/156/153 47/47/153 46/52/153
f 36/44/154 46/52/154 42/46/154
f 37/42/155 48/48/155 43/49/155
f 39/56/156 38/43/156 50/50/156
f 50/50/157 43/49/157 49/60/157
f 41/37/158 52/55/158 45/51/158
f 39/56/159 64/57/159 51/39/159
f 47/47/160 42/46/160 46/52/160
f 56/156/161 57/157/161 48/48/161 47/47/161
f 51/39/162 73/61/162 76/58/162
f 58/158/163 49/60/163 48/48/163 57/157/163
f 66/74/164 58/158/164 57/157/164 61/69/164
f 49/60/165 58/158/165 53/159/165
f 50/50/166 49/60/166 53/159/166
f 50/50/167 53/159/167 63/160/167
f 46/52/168 45/51/168 54/62/168
f 64/57/169 50/50/169 63/160/169
f 46/52/170 54/62/170 55/67/170
f 40/45/171 77/63/171 52/55/171
f 57/157/172 56/156/172 61/69/172
f 62/76/173 53/159/173 58/158/173 66/74/173
f 68/65/174 54/62/174 52/55/174 67/64/174
f 60/66/175 61/69/175 56/156/175 55/67/175
f 53/159/176 62/76/176 63/160/176
f 72/79/177 63/160/177 62/76/177 71/75/177
f 69/68/178 65/70/178 61/69/178 60/66/178
f 64/57/179 63/160/179 72/79/179
f 64/57/180 72/79/180 73/61/180
f 96/87/181 73/61/181 72/79/181 87/80/181
f 61/69/182 70/71/182 66/74/182
f 59/27/183 82/73/183 77/63/183
f 66/74/184 75/77/184 71/75/184
f 69/68/185 68/65/185 78/94/185
f 69/68/186 78/94/186 79/85/186
f 79/85/187 74/83/187 65/70/187 69/68/187
f 78/94/188 68/65/188 67/64/188 88/82/188
f 76/58/189 73/61/189 96/87/189
f 70/71/190 65/70/190 74/83/190
f 70/71/191 74/83/191 75/77/191
f 90/98/192 79/85/192 78/94/192 89/93/192
f 75/77/193 85/84/193 80/81/193
f 87/80/194 81/78/194 91/96/194
f 98/107/195 90/98/195 89/93/195 97/113/195
f 83/86/196 79/85/196 90/98/196
f 74/83/197 84/89/197 85/84/197
f 77/63/198 92/91/198 88/82/198
f 81/78/199 80/81/199 86/92/199
f 81/78/200 86/92/200 91/96/200
f 87/80/201 100/97/201 96/87/201
f 84/89/202 83/86/202 93/99/202
f 94/104/203 95/95/203 84/89/203 93/99/203
f 93/99/204 90/98/204 98/107/204
f 97/113/205 89/93/205 88/82/205 105/102/205
f 82/73/206 131/101/206 92/91/206
f 104/121/207 99/103/207 94/104/207 108/110/207
f 86/92/208 99/103/208 91/96/208
f 100/97/209 91/96/209 109/105/209
f 96/87/210 110/106/210 111/88/210
f 93/99/211 103/109/211 94/104/211
f 102/108/212 98/107/212 101/114/212
f 112/115/213 107/116/213 102/108/213 101/114/213
f 92/91/214 118/111/214 105/102/214
f 99/103/215 104/121/215 109/105/215
f 97/113/216 106/112/216 101/114/216
f 127/119/217 111/88/217 110/106/217 117/161/217
f 103/109/218 102/108/218 107/116/218
f 103/109/219 107/116/219 108/110/219
f 116/123/220 122/162/220 110/106/220 109/105/220
f 112/115/221 106/112/221 114/122/221
f 121/133/222 113/125/222 107/130/222 120/132/222
f 110/106/223 122/162/223 117/161/223
f 115/131/224 112/127/224 119/129/224
f 129/146/225 121/133/225 120/132/225 124/135/225
f 120/132/226 115/131/226 124/135/226
f 126/126/227 113/125/227 125/134/227
f 119/129/228 114/128/228 128/136/228
f 122/138/229 116/124/229 126/126/229
f 114/128/230 132/142/230 128/136/230
f 117/149/231 122/138/231 137/139/231
f 124/135/232 119/129/232 123/137/232
f 133/148/233 134/144/233 124/135/233 123/137/233
f 121/133/234 129/146/234 125/134/234
f 124/135/235 135/145/235 129/146/235
f 130/143/236 125/134/236 136/147/236
f 143/155/237 136/147/237 135/145/237 142/163/237
f 130/143/238 138/150/238 137/139/238
f 133/148/239 128/136/239 140/151/239
f 117/149/240 146/53/240 127/11/240
f 139/15/241 6/2/241 132/142/241 131/141/241
f 141/152/242 142/163/242 134/144/242 133/148/242
f 136/147/243 143/155/243 144/154/243
f 132/142/244 6/2/244 2/1/244
f 138/150/245 136/147/245 144/154/245
f 132/142/246 2/1/246 140/151/246
f 137/139/247 145/54/247 146/53/247
f 11/4/248 144/154/248 143/155/248 10/14/248
f 135/145/249 134/144/249 142/163/249
f 142/163/250 3/9/250 143/155/250
f 144/154/251 11/4/251 4/6/251
f 141/152/252 140/151/252 7/19/252
f 145/54/253 138/150/253 12/18/253
f 142/163/254 141/152/254 8/7/254
f 3/9/255 142/163/255 8/7/255
