# Blender 5.0.0
# www.blender.org
mtllib prep_throw_ball0008.mtl
o Sphere
v -2.336243 5.319219 2.052782
v -2.381631 5.108480 1.516045
v -2.436537 4.213035 1.120302
v -2.547631 3.692055 1.327927
v -2.685106 3.364024 2.178916
v -2.315447 5.197765 1.671300
v -2.199821 4.831774 1.315582
v -2.247265 4.492469 1.161206
v -2.056229 4.247129 1.206106
v -2.294348 3.994099 1.177019
v -2.342945 3.818882 1.244804
v -2.444760 3.467857 1.562516
v -2.016845 4.968146 1.535102
v -2.240103 3.645227 1.393545
v -1.923755 4.630683 1.357395
v -1.914482 4.035655 1.323737
v -2.027992 3.770999 1.388936
v -1.750914 4.410700 1.444750
v -1.812852 3.910681 1.475830
v -1.989019 3.596056 1.598498
v -2.168312 3.480256 1.632552
v -1.915937 5.023552 1.734133
v -1.669525 4.621150 1.651052
v -1.645953 4.097114 1.612688
v -1.795828 3.740075 1.648189
v -2.415957 3.348320 1.878937
v -1.757269 4.871174 1.760682
v -1.558586 4.295466 1.767246
v -1.627361 3.910019 1.792112
v -1.888105 3.533049 1.899486
v -2.170972 3.388407 1.888055
v -2.017628 5.160453 1.867144
v -1.560456 4.599403 1.948185
v -1.528760 4.109441 1.980884
v -1.630762 3.810069 1.998968
v -1.646156 4.820200 2.131959
v -1.509000 4.244493 2.185170
v -1.857537 3.551036 2.193705
v -2.119196 3.413171 2.254598
v -2.009747 5.187936 2.228766
v -1.821064 5.047703 2.096265
v -1.558823 4.542809 2.294368
v -1.640212 3.872586 2.345800
v -2.500848 3.329312 2.090807
v -1.756721 4.924245 2.357243
v -1.667179 4.700788 2.481041
v -1.607001 4.384214 2.515858
v -1.632615 4.192125 2.553082
v -1.749730 3.925110 2.605380
v -1.936743 3.599168 2.486814
v -2.297765 3.354738 2.220144
v -1.973911 5.109717 2.443757
v -2.015094 3.815995 2.795305
v -1.897380 4.914541 2.648987
v -1.830868 4.651688 2.759391
v -1.837166 4.467470 2.824231
v -1.872921 4.277812 2.863180
v -1.905941 4.082023 2.849097
v -2.150870 5.269763 2.106657
v -2.067074 4.807394 2.878766
v -2.103616 4.445405 3.012536
v -2.232424 3.880695 2.938549
v -2.214573 3.609067 2.714400
v -2.306628 3.488222 2.588265
v -2.349654 4.606999 3.070783
v -2.233407 4.175459 3.047733
v -2.254222 5.188697 2.604162
v -2.211416 5.070333 2.749820
v -2.311477 4.871540 2.958973
v -2.399749 4.420017 3.104837
v -2.477338 3.941976 3.018941
v -2.559029 3.627240 2.791796
v -2.505629 3.435051 2.520228
v -2.749800 4.571655 3.083894
v -2.608319 4.264852 3.106391
v -2.618100 3.386095 2.367449
v -2.307712 5.283945 2.433961
v -2.602214 5.089632 2.826766
v -2.664792 4.860969 2.990096
v -2.799175 4.107822 3.038683
v -2.825127 3.840325 2.907361
v -2.396712 5.334183 2.247786
v -2.904825 4.722040 2.991274
v -3.126556 4.561232 2.910603
v -2.973600 4.336592 3.016140
v -3.107934 4.049618 2.865126
v -2.862908 3.626248 2.687448
v -2.620533 5.266862 2.565209
v -2.869639 5.135596 2.697745
v -2.986490 4.917218 2.844085
v -3.100196 3.804090 2.698011
v -2.643281 5.337414 2.312715
v -3.254271 4.691748 2.756900
v -3.384328 4.388368 2.637368
v -3.243026 4.256197 2.811886
v -2.866073 3.510967 2.507976
v -3.065447 5.155781 2.474002
v -3.225521 4.943168 2.583508
v -3.358893 4.068897 2.570302
v -3.110935 3.660836 2.490598
v -3.270815 5.022669 2.313972
v -3.393987 4.773224 2.439585
v -3.452080 4.584635 2.441162
v -3.460892 4.083840 2.283512
v -2.882732 5.298714 2.241927
v -3.073640 5.201709 2.183502
v -3.485906 4.629874 2.073189
v -3.505930 4.378004 2.278616
v -3.311364 3.815080 2.353254
v -3.118985 3.576532 2.247492
v -2.851398 3.431020 2.287105
v -3.301049 4.996719 2.050564
v -3.485622 4.220816 1.955024
v -2.966829 5.222399 1.888230
v -3.412473 4.718208 1.872111
v -3.356604 3.846946 2.007677
v -2.999181 3.487098 1.983580
v -2.720896 5.326198 1.995143
v -3.213461 4.942330 1.715268
v -3.388732 4.491118 1.678615
v -3.414347 4.299028 1.715840
v -3.168848 3.622125 1.973897
v -3.065085 4.885451 1.500074
v -3.251869 4.559528 1.492914
v -3.310493 4.072446 1.608911
v -3.278846 3.819570 1.774486
v -2.803324 3.389564 2.020766
v -2.907544 5.106563 1.613309
v -3.184182 4.215773 1.407466
v -3.137265 3.849102 1.530839
v -2.528643 5.342760 2.006531
v -2.617264 5.226293 1.671094
v -2.867056 4.825440 1.331906
v -2.960988 4.554897 1.267215
v -2.988918 4.358045 1.253792
v -3.028982 4.049739 1.318181
v -2.988474 3.589176 1.657913
v -2.808542 3.677262 1.411325
v -2.287456 5.269232 1.857456
v -2.551750 5.010515 1.394117
v -2.544011 4.741267 1.212757
v -2.626993 4.394503 1.127773
v -2.671695 4.076242 1.160915
v -2.704469 3.891818 1.233273
v -2.668557 3.469388 1.618285
v -2.726912 3.409092 1.795034
vn 0.3205 0.7556 -0.5712
vn 0.0709 -0.6243 -0.7779
vn 0.2207 -0.0067 -0.9753
vn -0.1920 -0.9813 -0.0149
vn 0.3725 -0.2478 -0.8943
vn 0.3574 0.8527 -0.3811
vn 0.1859 -0.7817 -0.5954
vn 0.3776 0.3392 -0.8616
vn 0.1266 -0.9339 -0.3344
vn 0.5689 0.1242 -0.8130
vn 0.4553 0.7709 -0.4454
vn 0.3848 -0.6721 -0.6326
vn 0.2989 0.9398 -0.1658
vn 0.5927 -0.5424 -0.5954
vn 0.6450 0.5862 -0.4902
vn 0.7396 -0.1082 -0.6643
vn 0.8712 0.1277 -0.4740
vn 0.8005 -0.3714 -0.4703
vn 0.6158 -0.7040 -0.3538
vn 0.4676 -0.8206 -0.3286
vn 0.7865 -0.5610 -0.2582
vn 0.6669 0.7112 -0.2222
vn 0.8589 0.4260 -0.2841
vn 0.1627 -0.9859 -0.0378
vn 0.9382 -0.1854 -0.2924
vn 0.9915 0.0710 -0.1090
vn 0.9342 -0.3269 -0.1426
vn 0.7385 -0.6733 -0.0356
vn 0.7947 0.5863 -0.1573
vn 0.5481 0.8330 -0.0753
vn 0.9640 0.0667 0.2575
vn 0.9486 -0.0666 0.3093
vn 0.7198 -0.6272 0.2975
vn 0.7813 0.6162 0.0989
vn 0.8619 0.4616 0.2098
vn -0.0906 -0.9339 -0.3460
vn 0.6581 0.7361 0.1581
vn 0.3614 -0.8454 0.3932
vn -0.0043 -0.9799 0.1993
vn -0.1111 -0.9817 0.1544
vn 0.8580 -0.2938 0.4214
vn 0.1322 -0.9308 0.3407
vn 0.6850 0.6382 0.3515
vn 0.3954 0.9061 0.1502
vn 0.4282 0.8393 0.3351
vn 0.4964 0.5864 0.6401
vn 0.6172 0.4323 0.6574
vn 0.3874 0.5686 0.7257
vn 0.2887 0.0961 0.9526
vn 0.2563 0.9666 0.0053
vn 0.2159 -0.3385 0.9159
vn 0.1181 -0.1489 0.9818
vn -0.0974 -0.5657 0.8188
vn -0.2376 -0.6753 0.6982
vn -0.0940 -0.2956 0.9507
vn 0.1404 0.8822 0.4495
vn -0.1628 -0.4220 0.8918
vn -0.2476 -0.0432 0.9679
vn -0.2010 0.3551 0.9130
vn -0.2816 -0.9081 0.3100
vn -0.4175 0.1241 0.9002
vn -0.2513 -0.9470 0.2002
vn 0.0726 0.9711 0.2273
vn -0.4384 -0.2492 0.8635
vn -0.1310 0.8164 0.5624
vn -0.5980 -0.0309 0.8009
vn -0.5652 -0.1611 0.8090
vn -0.5016 -0.6995 0.5091
vn -0.5427 0.3491 0.7640
vn 0.1298 0.9909 -0.0358
vn -0.2335 0.9308 0.2811
vn -0.7310 -0.3231 0.6011
vn -0.8264 -0.1780 0.5343
vn -0.7397 -0.5120 0.4367
vn -0.5138 -0.8051 0.2962
vn -0.7946 0.4036 0.4535
vn -0.8548 0.2670 0.4450
vn -0.9470 -0.0058 0.3212
vn -0.0850 0.9963 -0.0144
vn -0.4840 0.8621 0.1500
vn -0.6937 -0.6731 0.2564
vn -0.6755 0.6686 0.3107
vn -0.6708 0.7416 0.0039
vn -0.8885 0.4396 -0.1314
vn -0.3221 -0.9425 0.0886
vn -0.9972 0.0202 -0.0724
vn -0.9884 -0.1511 0.0114
vn -0.3413 0.9323 -0.1200
vn -0.9401 -0.3341 -0.0685
vn -0.4285 0.8988 -0.0920
vn -0.8794 -0.4707 0.0717
vn -0.9010 -0.3475 -0.2596
vn -0.6272 0.7262 -0.2816
vn -0.9483 0.1426 -0.2837
vn -0.9030 -0.2486 -0.3504
vn -0.7936 0.3631 -0.4881
vn -0.5308 0.6541 -0.5389
vn -0.6642 -0.6812 -0.3081
vn -0.0631 0.9478 -0.3124
vn -0.2294 0.9071 -0.3530
vn -0.7622 -0.4186 -0.4937
vn -0.6057 0.1394 -0.7834
vn -0.6967 -0.3011 -0.6511
vn -0.6584 -0.5994 -0.4552
vn -0.3875 0.6237 -0.6788
vn -0.4395 -0.8529 -0.2818
vn -0.5715 -0.0959 -0.8150
vn -0.5104 -0.4804 -0.7132
vn -0.1852 0.7535 -0.6308
vn -0.1599 0.5483 -0.8208
vn -0.3538 -0.7687 -0.5328
vn 0.1673 0.9644 -0.2050
vn -0.2244 -0.5556 -0.8006
vn 0.1620 0.6465 -0.7455
vn -0.1632 -0.7480 -0.6433
vn 0.1684 0.3886 -0.9059
vn -0.0154 -0.2601 -0.9655
vn 0.2277 -0.1030 -0.9683
vn 0.2968 0.6804 -0.6701
vn 0.0406 -0.7134 -0.6996
vn -0.1567 -0.9771 -0.1438
vn 0.3530 -0.3875 -0.8516
vn 0.6701 0.4822 -0.5642
vn 0.4008 0.7932 -0.4584
vn 0.2896 -0.5179 -0.8049
vn 0.4790 0.5088 -0.7153
vn 0.4487 0.1895 -0.8734
vn 0.3499 -0.7185 -0.6011
vn 0.1636 -0.9178 -0.3616
vn 0.6219 -0.0186 -0.7829
vn 0.5598 -0.4166 -0.7163
vn 0.7391 -0.1866 -0.6472
vn 0.3722 0.9050 -0.2060
vn 0.5763 -0.5715 -0.5842
vn 0.4605 -0.8876 -0.0000
vn 0.7208 0.3227 -0.6135
vn 0.4440 -0.8447 -0.2990
vn 0.8613 0.0163 -0.5078
vn 0.7933 -0.3917 -0.4661
vn 0.9379 -0.1871 -0.2923
vn 0.7528 -0.6163 -0.2313
vn 0.6940 0.6831 -0.2274
vn 0.9246 0.1991 -0.3248
vn 0.1437 -0.9891 -0.0312
vn 0.9480 -0.3050 0.0916
vn 0.3073 -0.9514 0.0209
vn 0.9930 0.0278 -0.1144
vn 0.8526 0.4876 -0.1882
vn 0.5604 0.8248 -0.0749
vn 0.7922 -0.5965 0.1291
vn 0.9442 0.3258 0.0488
vn 0.9873 0.1572 0.0210
vn 0.8195 0.1954 0.5387
vn 0.8996 0.3938 0.1889
vn 0.9359 -0.2071 0.2850
vn 0.4973 -0.8246 0.2698
vn 0.7155 -0.5617 0.4155
vn 0.6783 0.7146 0.1708
vn 0.2336 -0.9123 0.3364
vn 0.9124 0.2120 0.3502
vn 0.7950 -0.0068 0.6066
vn 0.0354 -0.9590 0.2812
vn 0.7556 -0.1935 0.6258
vn 0.4806 -0.1287 0.8674
vn 0.6365 -0.3951 0.6624
vn 0.6225 -0.5571 0.5497
vn 0.4564 -0.6692 0.5863
vn 0.7630 0.5191 0.3851
vn 0.3708 -0.7908 0.4870
vn 0.7541 0.4072 0.5153
vn 0.4436 0.8634 0.2402
vn 0.5728 0.0599 0.8175
vn 0.4322 -0.3275 0.8402
vn 0.4964 0.7244 0.4784
vn 0.5528 0.2461 0.7962
vn 0.3131 -0.5921 0.7425
vn 0.1260 -0.6136 0.7795
vn 0.3836 0.2970 0.8744
vn 0.1055 -0.7554 0.6467
vn 0.0193 -0.8143 0.5801
vn -0.1872 -0.8212 0.5390
vn 0.2990 -0.0194 0.9540
vn 0.3092 0.9450 0.1072
vn 0.0987 -0.2227 0.9699
vn 0.1751 0.6705 0.7210
vn 0.0551 0.5703 0.8196
vn 0.0344 0.3411 0.9394
vn 0.1330 0.8115 0.5691
vn -0.2001 -0.8806 0.4295
vn 0.0168 0.1748 0.9845
vn -0.0350 0.0570 0.9978
vn -0.2428 0.6164 0.7491
vn -0.2574 -0.1015 0.9610
vn -0.4275 -0.6100 0.6672
vn -0.5281 0.6580 0.5368
vn -0.2845 0.4985 0.8189
vn -0.4170 0.1381 0.8983
vn 0.0581 0.9628 0.2638
vn -0.4005 -0.3722 0.8373
vn -0.4801 -0.5039 0.7181
vn -0.4826 -0.7330 0.4793
vn -0.5403 0.3645 0.7584
vn -0.7459 0.0644 0.6629
vn -0.6157 0.4938 0.6140
vn -0.2918 0.8979 0.3297
vn 0.0196 0.9995 0.0248
vn -0.9359 -0.1402 0.3232
vn -0.7066 -0.4132 0.5744
vn -0.7165 -0.5561 0.4212
vn -0.4906 -0.8293 0.2676
vn -0.8599 0.1805 0.4775
vn -0.7913 0.5375 0.2915
vn -0.8886 0.4561 0.0497
vn -0.1608 0.9870 0.0044
vn -0.8668 -0.4078 0.2870
vn -0.6131 0.7774 0.1402
vn -0.4721 -0.8789 0.0675
vn -0.9481 0.2931 0.1232
vn -0.9795 0.1682 0.1107
vn -0.7670 -0.6406 0.0377
vn -0.6056 0.7786 -0.1645
vn -0.9618 0.0759 -0.2629
vn -0.6220 -0.7828 -0.0171
vn -0.8075 0.5114 -0.2939
vn -0.8028 -0.0094 -0.5961
vn -0.8146 0.3245 -0.4808
vn -0.8938 -0.3186 -0.3157
vn -0.5340 0.7318 -0.4235
vn -0.7679 -0.6136 -0.1840
vn -0.2723 0.8643 -0.4229
vn -0.5924 -0.7630 -0.2586
vn -0.6958 0.4117 -0.5886
vn -0.5582 0.3531 -0.7508
vn -0.8101 -0.0985 -0.5780
vn -0.6449 0.0624 -0.7617
vn -0.6946 -0.3121 -0.6482
vn -0.3575 -0.0962 -0.9290
vn -0.5309 -0.5976 -0.6008
vn -0.2525 0.6661 -0.7018
vn -0.4028 -0.8901 -0.2133
vn 0.0783 0.9322 -0.3534
vn -0.2525 0.2957 -0.9213
vn -0.3689 -0.2819 -0.8857
vn 0.0806 0.8488 -0.5225
vn -0.4239 -0.4477 -0.7873
vn -0.0118 0.7875 -0.6163
vn -0.3641 -0.8381 -0.4061
vn -0.0396 -0.3550 -0.9340
vn -0.3368 0.1115 -0.9350
vn -0.1208 -0.0860 -0.9889
vn -0.0666 -0.4695 -0.8804
vn 0.0995 0.5579 -0.8240
vn -0.1649 -0.7494 -0.6412
vn 0.0257 0.2321 -0.9723
vn 0.0605 0.1043 -0.9927
vt 0.781230 0.812500
vt 0.762032 0.875000
vt 0.685473 0.777944
vt 0.734697 0.375000
vt 0.703125 0.312500
vt 0.764235 0.312500
vt 0.741874 0.599249
vt 0.704616 0.531266
vt 0.763980 0.500000
vt 0.734375 0.000000
vt 0.879629 0.062500
vt 0.593677 0.062500
vt 0.670132 0.472235
vt 0.734536 0.437500
vt 0.734224 0.937500
vt 0.605595 0.875000
vt 0.658359 0.250000
vt 0.719918 0.218999
vt 0.734375 0.717281
vt 0.678319 0.660608
vt 0.606077 0.187500
vt 0.641330 0.592355
vt 0.623673 0.812500
vt 0.673680 0.375000
vt 0.639230 0.312500
vt 0.640625 1.000000
vt 0.479138 0.937500
vt 0.639064 0.437500
vt 0.612180 0.375000
vt 0.595563 0.750000
vt 0.606567 0.500000
vt 0.603325 0.667055
vt 0.578286 0.562500
vt 0.578286 0.437500
vt 0.577540 0.283466
vt 0.543444 0.396147
vt 0.512752 0.812500
vt 0.546915 0.655822
vt 0.503540 0.125000
vt 0.660224 0.125000
vt 0.544067 0.500000
vt 0.509405 0.537235
vt 0.515588 0.281661
vt 0.510998 0.724803
vt 0.449506 0.875000
vt 0.487180 0.625000
vt 0.453286 0.562500
vt 0.450317 0.500000
vt 0.485851 0.406417
vt 0.453088 0.281661
vt 0.455926 0.750000
vt 0.445771 0.665313
vt 0.799126 0.125000
vt 0.779637 0.187500
vt 0.402284 0.812500
vt 0.497588 0.187500
vt 0.386121 0.187500
vt 0.328120 0.062500
vt 0.453125 0.000000
vt 0.437500 0.406180
vt 0.347717 0.125000
vt 0.390588 0.718339
vt 0.293360 0.875000
vt 0.308534 0.812500
vt 0.316528 0.750000
vt 0.343750 0.656371
vt 0.393429 0.625000
vt 0.296915 0.655822
vt 0.343750 0.531273
vt 0.297036 0.562500
vt 0.294067 0.500000
vt 0.328125 1.000000
vt 0.230145 0.937500
vt 0.328286 0.437500
vt 0.296914 0.344178
vt 0.343750 0.343629
vt 0.265786 0.437500
vt 0.234338 0.281661
vt 0.296902 0.219059
vt 0.214815 0.187500
vt 0.237180 0.375000
vt 0.199790 0.812500
vt 0.237635 0.520573
vt 0.203286 0.437500
vt 0.237180 0.625000
vt 0.203286 0.562500
vt 0.190964 0.125000
vt 0.113605 0.062500
vt 0.169067 0.500000
vt 0.203125 0.000000
vt 0.137012 0.875000
vt 0.176363 0.337227
vt 0.171838 0.718339
vt 0.234338 0.718339
vt 0.148421 0.399333
vt 0.160278 0.250000
vt 0.121065 0.187500
vt 0.174680 0.625000
vt 0.134405 0.537235
vt 0.140625 1.000000
vt 0.030235 0.937500
vt 0.075252 0.812500
vt 0.102021 0.334687
vt 0.109536 0.437500
vt 0.066529 0.250000
vt 0.055088 0.153620
vt 0.112179 0.625000
vt 0.078286 0.562500
vt 0.075317 0.500000
vt 0.047036 0.437500
vt 0.032456 0.875000
vt 0.048167 0.750000
vt 0.108913 0.719958
vt 0.062500 0.658651
vt 0.015664 0.655822
vt 0.018885 0.520574
vt 0.000000 0.562500
vt 0.015625 0.000000
vt 0.000000 0.062500
vt 0.000000 0.399333
vt 0.046914 0.344178
vt 0.000000 0.784407
vt 0.000000 0.273040
vt 0.991904 0.273040
vt 0.992171 0.399333
vt 0.937867 0.282145
vt 1.000000 0.655822
vt 0.975379 0.784407
vt 0.953164 0.655822
vt 1.000000 0.500000
vt 0.984536 0.562500
vt 0.950317 0.500000
vt 0.953286 0.437500
vt 0.924679 0.375000
vt 0.915655 0.537235
vt 0.910279 0.750000
vt 0.906250 0.656371
vt 0.965747 0.187500
vt 0.868449 0.212346
vt 0.978825 0.875000
vt 0.921769 0.937500
vt 0.872374 0.843190
vt 0.887823 0.312500
vt 0.859536 0.562500
vt 0.856567 0.500000
vt 0.890786 0.437500
vt 0.855944 0.396148
vt 0.859414 0.655822
vt 0.939862 0.125000
vt 0.812867 0.282145
vt 0.814726 0.750000
vt 0.796945 0.653777
vt 0.828125 1.000000
vt 0.798190 0.375000
vt 0.797036 0.437500
vt 0.390786 0.562500
vt 0.387817 0.500000
vt 0.390786 0.437500
vt 0.390665 0.344178
vt 0.378980 0.250000
vt 0.000000 0.125000
vt 0.000000 0.187500
vt 0.801816 0.543181
s 0
f 2/1/1 6/2/1 13/3/1
f 11/4/2 14/5/2 4/6/2
f 8/7/3 9/8/3 3/9/3
f 5/10/4 127/11/4 44/12/4
f 9/8/5 16/13/5 10/14/5
f 139/15/6 32/16/6 6/2/6
f 14/5/7 21/17/7 12/18/7
f 7/19/8 15/20/8 8/7/8
f 12/18/9 21/17/9 31/21/9
f 15/20/10 18/22/10 9/8/10
f 32/16/11 22/23/11 13/3/11
f 14/5/12 17/24/12 20/25/12
f 139/15/13 1/26/13 59/27/13
f 19/28/14 25/29/14 17/24/14
f 22/23/15 27/30/15 13/3/15
f 16/13/16 18/22/16 24/31/16
f 18/22/17 23/32/17 28/33/17
f 24/31/18 29/34/18 19/28/18
f 20/25/19 25/29/19 30/35/19
f 20/25/20 30/35/20 21/17/20
f 29/34/21 35/36/21 25/29/21
f 32/16/22 41/37/22 22/23/22
f 23/32/23 27/30/23 33/38/23
f 31/21/24 51/39/24 26/40/24
f 24/31/25 28/33/25 34/41/25
f 28/33/26 33/38/26 37/42/26
f 34/41/27 35/36/27 29/34/27
f 30/35/28 35/36/28 38/43/28
f 41/37/29 36/44/29 27/30/29
f 32/16/30 59/27/30 40/45/30
f 37/42/31 42/46/31 47/47/31
f 37/42/32 47/47/32 48/48/32
f 38/43/33 43/49/33 50/50/33
f 41/37/34 45/51/34 36/44/34
f 36/44/35 45/51/35 46/52/35
f 26/40/36 146/53/36 145/54/36 12/18/36
f 41/37/37 40/45/37 52/55/37
f 39/56/38 50/50/38 64/57/38
f 44/12/39 51/39/39 76/58/39
f 5/59/40 44/12/40 76/58/40
f 48/48/41 49/60/41 43/49/41
f 64/57/42 73/61/42 51/39/42
f 52/55/43 54/62/43 45/51/43
f 59/27/44 77/63/44 40/45/44
f 52/55/45 77/63/45 67/64/45
f 54/62/46 68/65/46 60/66/46
f 54/62/47 60/66/47 55/67/47
f 60/66/48 68/65/48 69/68/48
f 61/69/49 65/70/49 70/71/49
f 59/27/50 1/72/50 82/73/50
f 66/74/51 71/75/51 62/76/51
f 70/71/52 75/77/52 66/74/52
f 71/75/53 81/78/53 72/79/53
f 72/79/54 81/78/54 87/80/54
f 75/77/55 80/81/55 71/75/55
f 67/64/56 77/63/56 88/82/56
f 71/75/57 80/81/57 81/78/57
f 74/83/58 85/84/58 75/77/58
f 74/83/59 79/85/59 83/86/59
f 96/87/60 111/88/60 76/58/60
f 74/83/61 83/86/61 84/89/61
f 5/90/62 76/58/62 111/88/62
f 77/63/63 82/73/63 92/91/63
f 85/84/64 86/92/64 80/81/64
f 88/82/65 89/93/65 78/94/65
f 84/89/66 95/95/66 85/84/66
f 85/84/67 95/95/67 86/92/67
f 87/80/68 91/96/68 100/97/68
f 83/86/69 90/98/69 93/99/69
f 82/73/70 1/100/70 131/101/70
f 92/91/71 105/102/71 88/82/71
f 86/92/72 95/95/72 99/103/72
f 94/104/73 99/103/73 95/95/73
f 99/103/74 109/105/74 91/96/74
f 100/97/75 110/106/75 96/87/75
f 93/99/76 98/107/76 102/108/76
f 93/99/77 102/108/77 103/109/77
f 103/109/78 108/110/78 94/104/78
f 131/101/79 118/111/79 92/91/79
f 105/102/80 106/112/80 97/113/80
f 100/97/81 109/105/81 110/106/81
f 97/113/82 101/114/82 98/107/82
f 101/114/83 106/112/83 112/115/83
f 107/116/84 112/115/84 115/117/84
f 5/118/85 111/88/85 127/119/85
f 107/116/86 113/120/86 108/110/86
f 108/110/87 113/120/87 104/121/87
f 105/102/88 118/111/88 114/122/88
f 104/121/89 113/120/89 116/123/89
f 105/102/90 114/122/90 106/112/90
f 104/121/91 116/123/91 109/105/91
f 116/124/92 113/125/92 126/126/92
f 112/127/93 114/128/93 119/129/93
f 107/130/94 115/131/94 120/132/94
f 121/133/95 125/134/95 113/125/95
f 115/131/96 119/129/96 124/135/96
f 119/129/97 128/136/97 123/137/97
f 122/138/98 126/126/98 137/139/98
f 118/140/99 131/141/99 132/142/99
f 118/140/100 132/142/100 114/128/100
f 126/126/101 125/134/101 130/143/101
f 124/135/102 134/144/102 135/145/102
f 129/146/103 136/147/103 125/134/103
f 130/143/104 137/139/104 126/126/104
f 123/137/105 128/136/105 133/148/105
f 137/139/106 146/53/106 117/149/106
f 135/145/107 136/147/107 129/146/107
f 130/143/108 136/147/108 138/150/108
f 132/142/109 140/151/109 128/136/109
f 133/148/110 140/151/110 141/152/110
f 137/139/111 138/150/111 145/54/111
f 131/141/112 1/153/112 139/15/112
f 138/150/113 144/154/113 4/6/113
f 140/151/114 2/1/114 7/19/114
f 4/6/115 12/18/115 138/150/115
f 141/152/116 7/19/116 8/7/116
f 3/9/117 10/14/117 143/155/117
f 3/9/118 9/8/118 10/14/118
f 7/19/119 2/1/119 13/3/119
f 4/6/120 14/5/120 12/18/120
f 44/12/121 127/11/121 146/53/121 26/40/121
f 17/24/122 11/4/122 10/14/122 16/13/122
f 23/32/123 15/20/123 13/3/123 27/30/123
f 6/2/124 32/16/124 13/3/124
f 11/4/125 17/24/125 14/5/125
f 7/19/126 13/3/126 15/20/126
f 9/8/127 8/7/127 15/20/127
f 21/17/128 14/5/128 20/25/128
f 12/18/129 31/21/129 26/40/129
f 9/8/130 18/22/130 16/13/130
f 16/13/131 19/28/131 17/24/131
f 16/13/132 24/31/132 19/28/132
f 139/15/133 59/27/133 32/16/133
f 20/25/134 17/24/134 25/29/134
f 38/43/135 39/56/135 31/21/135 30/35/135
f 15/20/136 23/32/136 18/22/136
f 21/17/137 30/35/137 31/21/137
f 24/31/138 18/22/138 28/33/138
f 19/28/139 29/34/139 25/29/139
f 24/31/140 34/41/140 29/34/140
f 30/35/141 25/29/141 35/36/141
f 22/23/142 41/37/142 27/30/142
f 28/33/143 23/32/143 33/38/143
f 44/12/144 26/40/144 51/39/144
f 43/49/145 35/36/145 34/41/145 37/42/145
f 51/39/146 31/21/146 39/56/146
f 34/41/147 28/33/147 37/42/147
f 33/38/148 27/30/148 36/44/148
f 32/16/149 40/45/149 41/37/149
f 38/43/150 35/36/150 43/49/150
f 33/38/151 36/44/151 42/46/151
f 37/42/152 33/38/152 42/46/152
f 55/67/153 56/156/153 47/47/153 46/52/153
f 36/44/154 46/52/154 42/46/154
f 37/42/155 48/48/155 43/49/155
f 39/56/156 38/43/156 50/50/156
f 50/50/157 43/49/157 49/60/157
f 41/37/158 52/55/158 45/51/158
f 39/56/159 64/57/159 51/39/159
f 47/47/160 42/46/160 46/52/160
f 56/156/161 57/157/161 48/48/161 47/47/161
f 51/39/162 73/61/162 76/58/162
f 58/158/163 49/60/163 48/48/163 57/157/163
f 66/74/164 58/158/164 57/157/164 61/69/164
f 49/60/165 58/158/165 53/159/165
f 50/50/166 49/60/166 53/159/166
f 50/50/167 53/159/167 63/160/167
f 46/52/168 45/51/168 54/62/168
f 64/57/169 50/50/169 63/160/169
f 46/52/170 54/62/170 55/67/170
f 40/45/171 77/63/171 52/55/171
f 57/157/172 56/156/172 61/69/172
f 62/76/173 53/159/173 58/158/173 66/74/173
f 68/65/174 54/62/174 52/55/174 67/64/174
f 60/66/175 61/69/175 56/156/175 55/67/175
f 53/159/176 62/76/176 63/160/176
f 72/79/177 63/160/177 62/76/177 71/75/177
f 69/68/178 65/70/178 61/69/178 60/66/178
f 64/57/179 63/160/179 72/79/179
f 64/57/180 72/79/180 73/61/180
f 96/87/181 73/61/181 72/79/181 87/80/181
f 61/69/182 70/71/182 66/74/182
f 59/27/183 82/73/183 77/63/183
f 66/74/184 75/77/184 71/75/184
f 69/68/185 68/65/185 78/94/185
f 69/68/186 78/94/186 79/85/186
f 79/85/187 74/83/187 65/70/187 69/68/187
f 78/94/188 68/65/188 67/64/188 88/82/188
f 76/58/189 73/61/189 96/87/189
f 70/71/190 65/70/190 74/83/190
f 70/71/191 74/83/191 75/77/191
f 90/98/192 79/85/192 78/94/192 89/93/192
f 75/77/193 85/84/193 80/81/193
f 87/80/194 81/78/194 91/96/194
f 98/107/195 90/98/195 89/93/195 97/113/195
f 83/86/196 79/85/196 90/98/196
f 74/83/197 84/89/197 85/84/197
f 77/63/198 92/91/198 88/82/198
f 81/78/199 80/81/199 86/92/199
f 81/78/200 86/92/200 91/96/200
f 87/80/201 100/97/201 96/87/201
f 84/89/202 83/86/202 93/99/202
f 94/104/203 95/95/203 84/89/203 93/99/203
f 93/99/204 90/98/204 98/107/204
f 97/113/205 89/93/205 88/82/205 105/102/205
f 82/73/206 131/101/206 92/91/206
f 104/121/207 99/103/207 94/104/207 108/110/207
f 86/92/208 99/103/208 91/96/208
f 100/97/209 91/96/209 109/105/209
f 96/87/210 110/106/210 111/88/210
f 93/99/211 103/109/211 94/104/211
f 102/108/212 98/107/212 101/114/212
f 112/115/213 107/116/213 102/108/213 101/114/213
f 92/91/214 118/111/214 105/102/214
f 99/103/215 104/121/215 109/105/215
f 97/113/216 106/112/216 101/114/216
f 127/119/217 111/88/217 110/106/217 117/161/217
f 103/109/218 102/108/218 107/116/218
f 103/109/219 107/116/219 108/110/219
f 116/123/220 122/162/220 110/106/220 109/105/220
f 112/115/221 106/112/221 114/122/221
f 121/133/222 113/125/222 107/130/222 120/132/222
f 110/106/223 122/162/223 117/161/223
f 115/131/224 112/127/224 119/129/224
f 129/146/225 121/133/225 120/132/225 124/135/225
f 120/132/226 115/131/226 124/135/226
f 126/126/227 113/125/227 125/134/227
f 119/129/228 114/128/228 128/136/228
f 122/138/229 116/124/229 126/126/229
f 114/128/230 132/142/230 128/136/230
f 117/149/231 122/138/231 137/139/231
f 124/135/232 119/129/232 123/137/232
f 133/148/233 134/144/233 124/135/233 123/137/233
f 121/133/234 129/146/234 125/134/234
f 124/135/235 135/145/235 129/146/235
f 130/143/236 125/134/236 136/147/236
f 143/155/237 136/147/237 135/145/237 142/163/237
f 130/143/238 138/150/238 137/139/238
f 133/148/239 128/136/239 140/151/239
f 117/149/240 146/53/240 127/11/240
f 139/15/241 6/2/241 132/142/241 131/141/241
f 141/152/242 142/163/242 134/144/242 133/148/242
f 136/147/243 143/155/243 144/154/243
f 132/142/244 6/2/244 2/1/244
f 138/150/245 136/147/245 144/154/245
f 132/142/246 2/1/246 140/151/246
f 137/139/247 145/54/247 146/53/247
f 11/4/248 144/154/248 143/155/248 10/14/248
f 135/145/249 134/144/249 142/163/249
f 142/163/250 3/9/250 143/155/250
f 144/154/251 11/4/251 4/6/251
f 141/152/252 140/151/252 7/19/252
f 145/54/253 138/150/253 12/18/253
f 142/163/254 141/152/254 8/7/254
f 3/9/255 142/163/255 8/7/255
