# Blender 5.0.0
# www.blender.org
mtllib prep_throw_ball0039.mtl
o Sphere
v -1.468512 6.526974 -0.455625
v -1.670869 5.855425 -0.535339
v -2.222308 5.192003 -0.150003
v -2.561485 5.348894 0.191703
v -2.754506 6.321434 0.628721
v -1.554669 6.040090 -0.505470
v -1.688573 5.496847 -0.353078
v -1.919546 5.248399 -0.220758
v -1.887860 5.184996 0.032537
v -2.215186 5.163821 0.068977
v -2.338562 5.217613 0.178063
v -2.570350 5.542194 0.458381
v -1.446665 5.732917 -0.276310
v -2.330126 5.321189 0.383617
v -1.565388 5.414155 -0.089245
v -1.870856 5.230856 0.268106
v -2.093548 5.280369 0.401549
v -1.530808 5.412606 0.155097
v -1.837733 5.350278 0.444428
v -2.131118 5.475272 0.600115
v -2.332879 5.543252 0.601355
v -1.315415 5.950768 -0.194480
v -1.333960 5.681692 0.135491
v -1.591427 5.505207 0.454171
v -1.894693 5.508877 0.617279
v -2.576181 5.879866 0.655813
v -1.263491 5.897528 -0.019389
v -1.401435 5.708317 0.426558
v -1.654956 5.667797 0.640327
v -2.050804 5.785897 0.790333
v -2.356129 5.824972 0.746095
v -1.312624 6.171847 -0.278139
v -1.225992 5.994999 0.302769
v -1.451746 5.908235 0.629181
v -1.688098 5.890214 0.772634
v -1.161329 6.291113 0.192753
v -1.344194 6.176027 0.627018
v -1.986001 6.129225 0.896438
v -2.263091 6.249050 0.883080
v -1.254206 6.604209 -0.164556
v -1.188279 6.356257 -0.039022
v -1.217967 6.391127 0.459654
v -1.627028 6.318654 0.851643
v -2.632647 6.152348 0.703093
v -1.173176 6.616435 0.157566
v -1.204006 6.682784 0.378852
v -1.316316 6.630757 0.612651
v -1.433059 6.637317 0.731841
v -1.661242 6.672099 0.860562
v -1.994470 6.512042 0.933629
v -2.441581 6.249227 0.825436
v -1.243443 6.829356 -0.024837
v -1.912907 6.952672 0.873143
v -1.261595 7.002823 0.201738
v -1.332950 7.051068 0.431989
v -1.427086 7.086268 0.564843
v -1.550590 7.098556 0.678525
v -1.680607 7.045748 0.778611
v -1.338598 6.522221 -0.321899
v -1.430658 7.301710 0.270700
v -1.634526 7.385823 0.522973
v -2.040177 7.204290 0.784645
v -2.190396 6.869164 0.880746
v -2.340905 6.719468 0.868656
v -1.743509 7.568477 0.332149
v -1.876276 7.403549 0.641716
v -1.412464 7.123995 -0.144782
v -1.424177 7.255405 -0.001586
v -1.586705 7.486845 0.148089
v -1.877738 7.579998 0.435936
v -2.198109 7.389124 0.663622
v -2.451613 7.070806 0.739738
v -2.536700 6.687381 0.786691
v -2.084336 7.698423 0.176029
v -2.127055 7.609169 0.436573
v -2.669124 6.529379 0.711859
v -1.423980 6.961335 -0.287281
v -1.722357 7.470998 -0.164566
v -1.874870 7.629610 0.004440
v -2.370238 7.550435 0.422133
v -2.544066 7.339664 0.528296
v -1.489308 6.780015 -0.423964
v -2.141245 7.671825 -0.019354
v -2.412731 7.606318 -0.050097
v -2.394766 7.631305 0.194414
v -2.668485 7.425863 0.256212
v -2.708931 7.040221 0.565230
v -1.672311 7.208720 -0.373358
v -1.928331 7.411103 -0.359910
v -2.121188 7.568674 -0.227911
v -2.807361 7.167554 0.351703
v -1.680383 6.933328 -0.515562
v -2.464248 7.494303 -0.242272
v -2.739753 7.320958 -0.157420
v -2.675927 7.453066 0.049264
v -2.790181 6.801397 0.571536
v -2.099643 7.210959 -0.540026
v -2.328325 7.339530 -0.444183
v -2.892319 7.158241 0.026581
v -2.912204 6.891353 0.361912
v -2.351768 7.052987 -0.608133
v -2.568061 7.180610 -0.467231
v -2.712988 7.155742 -0.377497
v -2.997025 6.853409 -0.129674
v -1.901672 6.913814 -0.625805
v -2.112710 6.880271 -0.673826
v -2.755244 6.741001 -0.549734
v -2.880996 6.930932 -0.332332
v -3.008518 6.826629 0.127778
v -2.987939 6.585982 0.324672
v -2.842940 6.516418 0.549781
v -2.417225 6.744164 -0.698394
v -2.980089 6.504317 -0.340177
v -2.046336 6.502684 -0.741401
v -2.670868 6.501196 -0.640969
v -3.064627 6.438755 -0.033605
v -2.965050 6.215530 0.341559
v -1.782175 6.578376 -0.655457
v -2.409631 6.307335 -0.742724
v -2.789958 6.211091 -0.558745
v -2.906702 6.217650 -0.439555
v -3.033137 6.288023 0.178012
v -2.341604 5.993506 -0.715691
v -2.663008 5.965328 -0.603454
v -2.951660 6.005610 -0.290760
v -3.040281 6.132251 -0.063167
v -2.853398 6.176435 0.503697
v -2.087302 6.131524 -0.739768
v -2.795932 5.762140 -0.391748
v -2.935783 5.807226 -0.102207
v -1.616794 6.536790 -0.573986
v -1.784096 6.139189 -0.660613
v -2.230116 5.719400 -0.647609
v -2.453585 5.607681 -0.547192
v -2.579965 5.553842 -0.443902
v -2.766008 5.569548 -0.250494
v -2.937292 5.850661 0.169602
v -2.771613 5.524222 0.111100
v -1.475417 6.268862 -0.471244
v -1.872212 5.740068 -0.595569
v -2.024909 5.459284 -0.490527
v -2.281275 5.302162 -0.345491
v -2.479510 5.279932 -0.159053
v -2.594393 5.332110 -0.035504
v -2.744837 5.677269 0.374992
v -2.804969 5.890260 0.447371
vn 0.6490 -0.2950 -0.7013
vn -0.4418 -0.7937 0.4181
vn 0.1191 -0.9596 -0.2551
vn -0.6709 -0.1656 0.7228
vn 0.0839 -0.9792 0.1846
vn 0.7185 -0.1472 -0.6797
vn -0.3913 -0.6468 0.6547
vn 0.5110 -0.7228 -0.4652
vn -0.4630 -0.4350 0.7723
vn 0.5560 -0.8270 -0.0839
vn 0.7653 -0.2362 -0.5987
vn -0.1750 -0.7190 0.6726
vn 0.7175 0.0229 -0.6962
vn 0.0816 -0.7208 0.6883
vn 0.8514 -0.3752 -0.3666
vn 0.5292 -0.7743 0.3470
vn 0.7925 -0.5626 0.2352
vn 0.3712 -0.6329 0.6795
vn 0.0128 -0.5246 0.8513
vn -0.1583 -0.4856 0.8598
vn 0.2309 -0.4718 0.8509
vn 0.9197 -0.1491 -0.3633
vn 0.9476 -0.3192 -0.0137
vn -0.4200 -0.2479 0.8730
vn 0.6087 -0.4840 0.6287
vn 0.8282 -0.3033 0.4713
vn 0.4999 -0.3866 0.7750
vn 0.1367 -0.3160 0.9389
vn 0.9730 -0.1664 -0.1599
vn 0.8799 0.0059 -0.4750
vn 0.8173 -0.0319 0.5754
vn 0.7136 -0.0216 0.7002
vn 0.1707 -0.0915 0.9811
vn 0.9938 0.0244 -0.1087
vn 0.9911 0.0494 0.1233
vn -0.6275 -0.4019 0.6668
vn 0.9565 0.1195 -0.2663
vn -0.1846 -0.0004 0.9828
vn -0.5127 -0.0695 0.8557
vn -0.5943 -0.0761 0.8007
vn 0.4942 0.0259 0.8690
vn -0.3859 -0.0022 0.9226
vn 0.9673 0.2329 -0.1008
vn 0.8156 0.2014 -0.5424
vn 0.8486 0.3133 -0.4262
vn 0.8621 0.5026 -0.0650
vn 0.8737 0.4537 0.1757
vn 0.7888 0.6088 -0.0847
vn 0.4362 0.7614 0.4796
vn 0.7123 0.1445 -0.6869
vn 0.0307 0.5658 0.8240
vn 0.0902 0.7564 0.6479
vn -0.3775 0.4887 0.7865
vn -0.5477 0.3927 0.7388
vn -0.2155 0.7341 0.6440
vn 0.6654 0.4647 -0.5842
vn -0.3578 0.6384 0.6815
vn -0.1857 0.9385 0.2911
vn 0.1697 0.9687 -0.1813
vn -0.6831 0.0710 0.7269
vn -0.2270 0.9717 -0.0662
vn -0.6814 -0.0128 0.7318
vn 0.6085 0.3261 -0.7235
vn -0.5159 0.7882 0.3355
vn 0.4461 0.6080 -0.6568
vn -0.5164 0.8549 -0.0494
vn -0.5770 0.8069 0.1268
vn -0.7765 0.3149 0.5458
vn -0.1712 0.8765 -0.4500
vn 0.6230 0.1473 -0.7682
vn 0.3757 0.4165 -0.8279
vn -0.8055 0.5831 0.1056
vn -0.7940 0.5930 -0.1339
vn -0.8966 0.3823 0.2233
vn -0.8286 0.1394 0.5422
vn -0.3430 0.6197 -0.7059
vn -0.4904 0.6092 -0.6232
vn -0.7567 0.4753 -0.4489
vn 0.4732 0.2022 -0.8574
vn 0.1509 0.3657 -0.9184
vn -0.9254 0.1895 0.3283
vn -0.0803 0.5000 -0.8623
vn -0.0527 0.2904 -0.9554
vn -0.3959 0.2016 -0.8959
vn -0.7430 -0.0674 0.6659
vn -0.7689 0.1898 -0.6106
vn -0.8808 0.2124 -0.4231
vn 0.2586 0.1761 -0.9498
vn -0.9644 0.1006 -0.2444
vn 0.1861 0.2047 -0.9610
vn -0.9876 0.1545 -0.0280
vn -0.9601 -0.0497 -0.2754
vn -0.0501 0.1000 -0.9937
vn -0.6557 0.0558 -0.7530
vn -0.9093 -0.0921 -0.4059
vn -0.4066 -0.0697 -0.9109
vn -0.0427 -0.0949 -0.9946
vn -0.9625 -0.2141 0.1668
vn 0.4436 0.0086 -0.8962
vn 0.3068 0.0098 -0.9517
vn -0.9376 -0.2760 -0.2115
vn -0.4718 -0.3999 -0.7858
vn -0.8470 -0.3936 -0.3572
vn -0.9495 -0.3106 0.0444
vn 0.0320 -0.2287 -0.9730
vn -0.8523 -0.2746 0.4452
vn -0.6372 -0.5177 -0.5709
vn -0.8343 -0.5453 -0.0813
vn 0.2519 -0.2096 -0.9448
vn 0.1543 -0.4187 -0.8949
vn -0.8060 -0.4729 0.3560
vn 0.6248 0.0305 -0.7802
vn -0.6668 -0.7299 0.1505
vn 0.4717 -0.4179 -0.7764
vn -0.6709 -0.6108 0.4204
vn 0.3437 -0.6700 -0.6580
vn -0.3180 -0.9416 -0.1108
vn 0.0497 -0.9904 -0.1291
vn 0.5993 -0.3861 -0.7013
vn -0.4981 -0.7099 0.4980
vn -0.6604 -0.2550 0.7063
vn -0.0395 -0.9384 0.3433
vn 0.8306 -0.4773 -0.2867
vn 0.7294 -0.2254 -0.6459
vn -0.1849 -0.8746 0.4483
vn 0.6837 -0.5416 -0.4890
vn 0.4884 -0.8302 -0.2689
vn -0.2260 -0.6834 0.6941
vn -0.4328 -0.4606 0.7749
vn 0.5007 -0.8557 0.1304
vn 0.1372 -0.8319 0.5377
vn 0.4673 -0.7703 0.4339
vn 0.7580 -0.0252 -0.6517
vn 0.0495 -0.7081 0.7044
vn -0.1666 -0.2665 0.9493
vn 0.7975 -0.5919 -0.1166
vn -0.1848 -0.4611 0.8679
vn 0.7103 -0.6188 0.3356
vn 0.3507 -0.6296 0.6933
vn 0.6073 -0.4840 0.6300
vn 0.1722 -0.4503 0.8761
vn 0.9304 -0.1665 -0.3265
vn 0.8707 -0.4287 0.2411
vn -0.4340 -0.2406 0.8682
vn 0.5289 -0.2186 0.8200
vn -0.2991 -0.2333 0.9253
vn 0.7991 -0.3168 0.5110
vn 0.9725 -0.2287 -0.0440
vn 0.8867 0.0017 -0.4624
vn 0.2284 -0.2079 0.9511
vn 0.9615 -0.1178 0.2482
vn 0.8847 -0.1870 0.4269
vn 0.8408 0.2415 0.4845
vn 0.9789 0.0097 0.2041
vn 0.6001 -0.0656 0.7972
vn -0.0903 -0.0983 0.9911
vn 0.2159 -0.0037 0.9764
vn 0.9653 0.1195 -0.2323
vn -0.3073 -0.0217 0.9514
vn 0.8913 0.0809 0.4462
vn 0.6845 0.2462 0.6862
vn -0.4700 -0.0240 0.8824
vn 0.5174 0.2189 0.8273
vn 0.3977 0.5163 0.7585
vn 0.2911 0.2193 0.9312
vn 0.1651 0.1041 0.9808
vn -0.0146 0.1386 0.9902
vn 0.9741 0.2147 0.0713
vn -0.1454 0.0664 0.9871
vn 0.9290 0.2926 0.2266
vn 0.8519 0.2461 -0.4623
vn 0.6103 0.5076 0.6082
vn 0.2059 0.4336 0.8773
vn 0.8865 0.3897 -0.2497
vn 0.7332 0.5529 0.3960
vn -0.0648 0.3018 0.9512
vn -0.2195 0.3732 0.9014
vn 0.6546 0.7048 0.2734
vn -0.3118 0.2392 0.9196
vn -0.4060 0.1993 0.8919
vn -0.5687 0.2199 0.7926
vn 0.3509 0.7121 0.6081
vn 0.7575 0.1964 -0.6226
vn 0.0155 0.7156 0.6984
vn 0.6640 0.6747 -0.3223
vn 0.5326 0.8016 -0.2717
vn 0.3919 0.9199 0.0145
vn 0.6566 0.5574 -0.5082
vn -0.6050 0.1355 0.7846
vn 0.2551 0.9402 0.2256
vn 0.1102 0.9346 0.3382
vn 0.2802 0.8046 -0.5236
vn -0.2396 0.9065 0.3477
vn -0.6811 0.4466 0.5803
vn 0.0406 0.6583 -0.7517
vn 0.1786 0.8887 -0.4224
vn -0.2153 0.9730 -0.0836
vn 0.6004 0.3530 -0.7176
vn -0.5499 0.6903 0.4702
vn -0.6826 0.5464 0.4853
vn -0.7734 0.2782 0.5696
vn -0.1574 0.8710 -0.4655
vn -0.5678 0.7650 -0.3040
vn -0.1332 0.7413 -0.6579
vn 0.3248 0.4594 -0.8267
vn 0.5533 0.2076 -0.8067
vn -0.8411 0.4445 -0.3081
vn -0.8296 0.5206 0.2019
vn -0.8963 0.3503 0.2719
vn -0.8200 0.1089 0.5619
vn -0.5611 0.6277 -0.5395
vn -0.2490 0.4962 -0.8317
vn -0.3786 0.3276 -0.8656
vn 0.4182 0.2267 -0.8796
vn -0.9445 0.3285 -0.0080
vn 0.0158 0.3745 -0.9271
vn -0.8377 -0.0370 0.5448
vn -0.5341 0.3701 -0.7601
vn -0.6475 0.3476 -0.6782
vn -0.9809 0.0620 0.1845
vn 0.0006 0.1763 -0.9843
vn -0.7126 0.0590 -0.6991
vn -0.9287 -0.0406 0.3686
vn -0.3021 0.0910 -0.9489
vn -0.7007 -0.2405 -0.6716
vn -0.4475 -0.0690 -0.8916
vn -0.9436 -0.0855 -0.3199
vn 0.0064 -0.0051 -1.0000
vn -0.9925 -0.0871 0.0857
vn 0.2532 -0.0322 -0.9669
vn -0.9321 -0.2099 0.2950
vn -0.3143 -0.1489 -0.9376
vn -0.2729 -0.3174 -0.9082
vn -0.7701 -0.2489 -0.5874
vn -0.5577 -0.3955 -0.7298
vn -0.8523 -0.3946 -0.3434
vn -0.4902 -0.7082 -0.5081
vn -0.8846 -0.4613 0.0688
vn 0.1537 -0.2661 -0.9516
vn -0.8256 -0.2402 0.5106
vn 0.5372 -0.0490 -0.8421
vn -0.0923 -0.5765 -0.8118
vn -0.6343 -0.7180 -0.2866
vn 0.4981 -0.1761 -0.8491
vn -0.7658 -0.6365 -0.0917
vn 0.3986 -0.2326 -0.8871
vn -0.8131 -0.3796 0.4414
vn -0.4058 -0.9140 0.0007
vn -0.3053 -0.6386 -0.7064
vn -0.2830 -0.8696 -0.4046
vn -0.4966 -0.8574 0.1353
vn 0.3753 -0.4968 -0.7825
vn -0.6724 -0.6086 0.4212
vn 0.1066 -0.7627 -0.6379
vn 0.0441 -0.8646 -0.5005
vt 0.781230 0.812500
vt 0.762032 0.875000
vt 0.685473 0.777944
vt 0.734697 0.375000
vt 0.703125 0.312500
vt 0.764235 0.312500
vt 0.741874 0.599249
vt 0.704616 0.531266
vt 0.763980 0.500000
vt 0.734375 0.000000
vt 0.879629 0.062500
vt 0.593677 0.062500
vt 0.670132 0.472235
vt 0.734536 0.437500
vt 0.734224 0.937500
vt 0.605595 0.875000
vt 0.658359 0.250000
vt 0.719918 0.218999
vt 0.734375 0.717281
vt 0.678319 0.660608
vt 0.606077 0.187500
vt 0.641330 0.592355
vt 0.623673 0.812500
vt 0.673680 0.375000
vt 0.639230 0.312500
vt 0.640625 1.000000
vt 0.479138 0.937500
vt 0.639064 0.437500
vt 0.612180 0.375000
vt 0.595563 0.750000
vt 0.606567 0.500000
vt 0.603325 0.667055
vt 0.578286 0.562500
vt 0.578286 0.437500
vt 0.577540 0.283466
vt 0.543444 0.396147
vt 0.512752 0.812500
vt 0.546915 0.655822
vt 0.503540 0.125000
vt 0.660224 0.125000
vt 0.544067 0.500000
vt 0.509405 0.537235
vt 0.515588 0.281661
vt 0.510998 0.724803
vt 0.449506 0.875000
vt 0.487180 0.625000
vt 0.453286 0.562500
vt 0.450317 0.500000
vt 0.485851 0.406417
vt 0.453088 0.281661
vt 0.455926 0.750000
vt 0.445771 0.665313
vt 0.799126 0.125000
vt 0.779637 0.187500
vt 0.402284 0.812500
vt 0.497588 0.187500
vt 0.386121 0.187500
vt 0.328120 0.062500
vt 0.453125 0.000000
vt 0.437500 0.406180
vt 0.347717 0.125000
vt 0.390588 0.718339
vt 0.293360 0.875000
vt 0.308534 0.812500
vt 0.316528 0.750000
vt 0.343750 0.656371
vt 0.393429 0.625000
vt 0.296915 0.655822
vt 0.343750 0.531273
vt 0.297036 0.562500
vt 0.294067 0.500000
vt 0.328125 1.000000
vt 0.230145 0.937500
vt 0.328286 0.437500
vt 0.296914 0.344178
vt 0.343750 0.343629
vt 0.265786 0.437500
vt 0.234338 0.281661
vt 0.296902 0.219059
vt 0.214815 0.187500
vt 0.237180 0.375000
vt 0.199790 0.812500
vt 0.237635 0.520573
vt 0.203286 0.437500
vt 0.237180 0.625000
vt 0.203286 0.562500
vt 0.190964 0.125000
vt 0.113605 0.062500
vt 0.169067 0.500000
vt 0.203125 0.000000
vt 0.137012 0.875000
vt 0.176363 0.337227
vt 0.171838 0.718339
vt 0.234338 0.718339
vt 0.148421 0.399333
vt 0.160278 0.250000
vt 0.121065 0.187500
vt 0.174680 0.625000
vt 0.134405 0.537235
vt 0.140625 1.000000
vt 0.030235 0.937500
vt 0.075252 0.812500
vt 0.102021 0.334687
vt 0.109536 0.437500
vt 0.066529 0.250000
vt 0.055088 0.153620
vt 0.112179 0.625000
vt 0.078286 0.562500
vt 0.075317 0.500000
vt 0.047036 0.437500
vt 0.032456 0.875000
vt 0.048167 0.750000
vt 0.108913 0.719958
vt 0.062500 0.658651
vt 0.015664 0.655822
vt 0.018885 0.520574
vt 0.000000 0.562500
vt 0.015625 0.000000
vt 0.000000 0.062500
vt 0.000000 0.399333
vt 0.046914 0.344178
vt 0.000000 0.784407
vt 0.000000 0.273040
vt 0.991904 0.273040
vt 0.992171 0.399333
vt 0.937867 0.282145
vt 1.000000 0.655822
vt 0.975379 0.784407
vt 0.953164 0.655822
vt 1.000000 0.500000
vt 0.984536 0.562500
vt 0.950317 0.500000
vt 0.953286 0.437500
vt 0.924679 0.375000
vt 0.915655 0.537235
vt 0.910279 0.750000
vt 0.906250 0.656371
vt 0.965747 0.187500
vt 0.868449 0.212346
vt 0.978825 0.875000
vt 0.921769 0.937500
vt 0.872374 0.843190
vt 0.887823 0.312500
vt 0.859536 0.562500
vt 0.856567 0.500000
vt 0.890786 0.437500
vt 0.855944 0.396148
vt 0.859414 0.655822
vt 0.939862 0.125000
vt 0.812867 0.282145
vt 0.814726 0.750000
vt 0.796945 0.653777
vt 0.828125 1.000000
vt 0.798190 0.375000
vt 0.797036 0.437500
vt 0.390786 0.562500
vt 0.387817 0.500000
vt 0.390786 0.437500
vt 0.390665 0.344178
vt 0.378980 0.250000
vt 0.000000 0.125000
vt 0.000000 0.187500
vt 0.801816 0.543181
s 0
f 2/1/1 6/2/1 13/3/1
f 11/4/2 14/5/2 4/6/2
f 8/7/3 9/8/3 3/9/3
f 5/10/4 127/11/4 44/12/4
f 9/8/5 16/13/5 10/14/5
f 139/15/6 32/16/6 6/2/6
f 14/5/7 21/17/7 12/18/7
f 7/19/8 15/20/8 8/7/8
f 12/18/9 21/17/9 31/21/9
f 15/20/10 18/22/10 9/8/10
f 32/16/11 22/23/11 13/3/11
f 14/5/12 17/24/12 20/25/12
f 139/15/13 1/26/13 59/27/13
f 19/28/14 25/29/14 17/24/14
f 22/23/15 27/30/15 13/3/15
f 16/13/16 18/22/16 24/31/16
f 18/22/17 23/32/17 28/33/17
f 24/31/18 29/34/18 19/28/18
f 20/25/19 25/29/19 30/35/19
f 20/25/20 30/35/20 21/17/20
f 29/34/21 35/36/21 25/29/21
f 32/16/22 41/37/22 22/23/22
f 23/32/23 27/30/23 33/38/23
f 31/21/24 51/39/24 26/40/24
f 24/31/25 28/33/25 34/41/25
f 28/33/26 33/38/26 37/42/26
f 34/41/27 35/36/27 29/34/27
f 30/35/28 35/36/28 38/43/28
f 41/37/29 36/44/29 27/30/29
f 32/16/30 59/27/30 40/45/30
f 37/42/31 42/46/31 47/47/31
f 37/42/32 47/47/32 48/48/32
f 38/43/33 43/49/33 50/50/33
f 41/37/34 45/51/34 36/44/34
f 36/44/35 45/51/35 46/52/35
f 26/40/36 146/53/36 145/54/36 12/18/36
f 41/37/37 40/45/37 52/55/37
f 39/56/38 50/50/38 64/57/38
f 44/12/39 51/39/39 76/58/39
f 5/59/40 44/12/40 76/58/40
f 48/48/41 49/60/41 43/49/41
f 64/57/42 73/61/42 51/39/42
f 52/55/43 54/62/43 45/51/43
f 59/27/44 77/63/44 40/45/44
f 52/55/45 77/63/45 67/64/45
f 54/62/46 68/65/46 60/66/46
f 54/62/47 60/66/47 55/67/47
f 60/66/48 68/65/48 69/68/48
f 61/69/49 65/70/49 70/71/49
f 59/27/50 1/72/50 82/73/50
f 66/74/51 71/75/51 62/76/51
f 70/71/52 75/77/52 66/74/52
f 71/75/53 81/78/53 72/79/53
f 72/79/54 81/78/54 87/80/54
f 75/77/55 80/81/55 71/75/55
f 67/64/56 77/63/56 88/82/56
f 71/75/57 80/81/57 81/78/57
f 74/83/58 85/84/58 75/77/58
f 74/83/59 79/85/59 83/86/59
f 96/87/60 111/88/60 76/58/60
f 74/83/61 83/86/61 84/89/61
f 5/90/62 76/58/62 111/88/62
f 77/63/63 82/73/63 92/91/63
f 85/84/64 86/92/64 80/81/64
f 88/82/65 89/93/65 78/94/65
f 84/89/66 95/95/66 85/84/66
f 85/84/67 95/95/67 86/92/67
f 87/80/68 91/96/68 100/97/68
f 83/86/69 90/98/69 93/99/69
f 82/73/70 1/100/70 131/101/70
f 92/91/71 105/102/71 88/82/71
f 86/92/72 95/95/72 99/103/72
f 94/104/73 99/103/73 95/95/73
f 99/103/74 109/105/74 91/96/74
f 100/97/75 110/106/75 96/87/75
f 93/99/76 98/107/76 102/108/76
f 93/99/77 102/108/77 103/109/77
f 103/109/78 108/110/78 94/104/78
f 131/101/79 118/111/79 92/91/79
f 105/102/80 106/112/80 97/113/80
f 100/97/81 109/105/81 110/106/81
f 97/113/82 101/114/82 98/107/82
f 101/114/83 106/112/83 112/115/83
f 107/116/84 112/115/84 115/117/84
f 5/118/85 111/88/85 127/119/85
f 107/116/86 113/120/86 108/110/86
f 108/110/87 113/120/87 104/121/87
f 105/102/88 118/111/88 114/122/88
f 104/121/89 113/120/89 116/123/89
f 105/102/90 114/122/90 106/112/90
f 104/121/91 116/123/91 109/105/91
f 116/124/92 113/125/92 126/126/92
f 112/127/93 114/128/93 119/129/93
f 107/130/94 115/131/94 120/132/94
f 121/133/95 125/134/95 113/125/95
f 115/131/96 119/129/96 124/135/96
f 119/129/97 128/136/97 123/137/97
f 122/138/98 126/126/98 137/139/98
f 118/140/99 131/141/99 132/142/99
f 118/140/100 132/142/100 114/128/100
f 126/126/101 125/134/101 130/143/101
f 124/135/102 134/144/102 135/145/102
f 129/146/103 136/147/103 125/134/103
f 130/143/104 137/139/104 126/126/104
f 123/137/105 128/136/105 133/148/105
f 137/139/106 146/53/106 117/149/106
f 135/145/107 136/147/107 129/146/107
f 130/143/108 136/147/108 138/150/108
f 132/142/109 140/151/109 128/136/109
f 133/148/110 140/151/110 141/152/110
f 137/139/111 138/150/111 145/54/111
f 131/141/112 1/153/112 139/15/112
f 138/150/113 144/154/113 4/6/113
f 140/151/114 2/1/114 7/19/114
f 4/6/115 12/18/115 138/150/115
f 141/152/116 7/19/116 8/7/116
f 3/9/117 10/14/117 143/155/117
f 3/9/118 9/8/118 10/14/118
f 7/19/119 2/1/119 13/3/119
f 4/6/120 14/5/120 12/18/120
f 44/12/121 127/11/121 146/53/121 26/40/121
f 17/24/122 11/4/122 10/14/122 16/13/122
f 23/32/123 15/20/123 13/3/123 27/30/123
f 6/2/124 32/16/124 13/3/124
f 11/4/125 17/24/125 14/5/125
f 7/19/126 13/3/126 15/20/126
f 9/8/127 8/7/127 15/20/127
f 21/17/128 14/5/128 20/25/128
f 12/18/129 31/21/129 26/40/129
f 9/8/130 18/22/130 16/13/130
f 16/13/131 19/28/131 17/24/131
f 16/13/132 24/31/132 19/28/132
f 139/15/133 59/27/133 32/16/133
f 20/25/134 17/24/134 25/29/134
f 38/43/135 39/56/135 31/21/135 30/35/135
f 15/20/136 23/32/136 18/22/136
f 21/17/137 30/35/137 31/21/137
f 24/31/138 18/22/138 28/33/138
f 19/28/139 29/34/139 25/29/139
f 24/31/140 34/41/140 29/34/140
f 30/35/141 25/29/141 35/36/141
f 22/23/142 41/37/142 27/30/142
f 28/33/143 23/32/143 33/38/143
f 44/12/144 26/40/144 51/39/144
f 43/49/145 35/36/145 34/41/145 37/42/145
f 51/39/146 31/21/146 39/56/146
f 34/41/147 28/33/147 37/42/147
f 33/38/148 27/30/148 36/44/148
f 32/16/149 40/45/149 41/37/149
f 38/43/150 35/36/150 43/49/150
f 33/38/151 36/44/151 42/46/151
f 37/42/152 33/38/152 42/46/152
f 55/67/153 56/156/153 47/47/153 46/52/153
f 36/44/154 46/52/154 42/46/154
f 37/42/155 48/48/155 43/49/155
f 39/56/156 38/43/156 50/50/156
f 50/50/157 43/49/157 49/60/157
f 41/37/158 52/55/158 45/51/158
f 39/56/159 64/57/159 51/39/159
f 47/47/160 42/46/160 46/52/160
f 56/156/161 57/157/161 48/48/161 47/47/161
f 51/39/162 73/61/162 76/58/162
f 58/158/163 49/60/163 48/48/163 57/157/163
f 66/74/164 58/158/164 57/157/164 61/69/164
f 49/60/165 58/158/165 53/159/165
f 50/50/166 49/60/166 53/159/166
f 50/50/167 53/159/167 63/160/167
f 46/52/168 45/51/168 54/62/168
f 64/57/169 50/50/169 63/160/169
f 46/52/170 54/62/170 55/67/170
f 40/45/171 77/63/171 52/55/171
f 57/157/172 56/156/172 61/69/172
f 62/76/173 53/159/173 58/158/173 66/74/173
f 68/65/174 54/62/174 52/55/174 67/64/174
f 60/66/175 61/69/175 56/156/175 55/67/175
f 53/159/176 62/76/176 63/160/176
f 72/79/177 63/160/177 62/76/177 71/75/177
f 69/68/178 65/70/178 61/69/178 60/66/178
f 64/57/179 63/160/179 72/79/179
f 64/57/180 72/79/180 73/61/180
f 96/87/181 73/61/181 72/79/181 87/80/181
f 61/69/182 70/71/182 66/74/182
f 59/27/183 82/73/183 77/63/183
f 66/74/184 75/77/184 71/75/184
f 69/68/185 68/65/185 78/94/185
f 69/68/186 78/94/186 79/85/186
f 79/85/187 74/83/187 65/70/187 69/68/187
f 78/94/188 68/65/188 67/64/188 88/82/188
f 76/58/189 73/61/189 96/87/189
f 70/71/190 65/70/190 74/83/190
f 70/71/191 74/83/191 75/77/191
f 90/98/192 79/85/192 78/94/192 89/93/192
f 75/77/193 85/84/193 80/81/193
f 87/80/194 81/78/194 91/96/194
f 98/107/195 90/98/195 89/93/195 97/113/195
f 83/86/196 79/85/196 90/98/196
f 74/83/197 84/89/197 85/84/197
f 77/63/198 92/91/198 88/82/198
f 81/78/199 80/81/199 86/92/199
f 81/78/200 86/92/200 91/96/200
f 87/80/201 100/97/201 96/87/201
f 84/89/202 83/86/202 93/99/202
f 94/104/203 95/95/203 84/89/203 93/99/203
f 93/99/204 90/98/204 98/107/204
f 97/113/205 89/93/205 88/82/205 105/102/205
f 82/73/206 131/101/206 92/91/206
f 104/121/207 99/103/207 94/104/207 108/110/207
f 86/92/208 99/103/208 91/96/208
f 100/97/209 91/96/209 109/105/209
f 96/87/210 110/106/210 111/88/210
f 93/99/211 103/109/211 94/104/211
f 102/108/212 98/107/212 101/114/212
f 112/115/213 107/116/213 102/108/213 101/114/213
f 92/91/214 118/111/214 105/102/214
f 99/103/215 104/121/215 109/105/215
f 97/113/216 106/112/216 101/114/216
f 127/119/217 111/88/217 110/106/217 117/161/217
f 103/109/218 102/108/218 107/116/218
f 103/109/219 107/116/219 108/110/219
f 116/123/220 122/162/220 110/106/220 109/105/220
f 112/115/221 106/112/221 114/122/221
f 121/133/222 113/125/222 107/130/222 120/132/222
f 110/106/223 122/162/223 117/161/223
f 115/131/224 112/127/224 119/129/224
f 129/146/225 121/133/225 120/132/225 124/135/225
f 120/132/226 115/131/226 124/135/226
f 126/126/227 113/125/227 125/134/227
f 119/129/228 114/128/228 128/136/228
f 122/138/229 116/124/229 126/126/229
f 114/128/230 132/142/230 128/136/230
f 117/149/231 122/138/231 137/139/231
f 124/135/232 119/129/232 123/137/232
f 133/148/233 134/144/233 124/135/233 123/137/233
f 121/133/234 129/146/234 125/134/234
f 124/135/235 135/145/235 129/146/235
f 130/143/236 125/134/236 136/147/236
f 143/155/237 136/147/237 135/145/237 142/163/237
f 130/143/238 138/150/238 137/139/238
f 133/148/239 128/136/239 140/151/239
f 117/149/240 146/53/240 127/11/240
f 139/15/241 6/2/241 132/142/241 131/141/241
f 141/152/242 142/163/242 134/144/242 133/148/242
f 136/147/243 143/155/243 144/154/243
f 132/142/244 6/2/244 2/1/244
f 138/150/245 136/147/245 144/154/245
f 132/142/246 2/1/246 140/151/246
f 137/139/247 145/54/247 146/53/247
f 11/4/248 144/154/248 143/155/248 10/14/248
f 135/145/249 134/144/249 142/163/249
f 142/163/250 3/9/250 143/155/250
f 144/154/251 11/4/251 4/6/251
f 141/152/252 140/151/252 7/19/252
f 145/54/253 138/150/253 12/18/253
f 142/163/254 141/152/254 8/7/254
f 3/9/255 142/163/255 8/7/255
