# Blender 5.0.0
# www.blender.org
mtllib prep_throw_ball0009.mtl
o Sphere
v -2.369512 5.434226 1.963960
v -2.401929 5.206976 1.430681
v -2.476975 4.301407 1.052124
v -2.617090 3.793927 1.266798
v -2.801401 3.503221 2.119361
v -2.338444 5.298401 1.586033
v -2.223551 4.914641 1.241917
v -2.278408 4.572648 1.093211
v -2.099327 4.319879 1.149209
v -2.346072 4.077816 1.117830
v -2.404329 3.907618 1.187631
v -2.532733 3.573308 1.509058
v -2.044130 5.049650 1.464203
v -2.314553 3.734433 1.343081
v -1.957677 4.701790 1.296614
v -1.970990 4.105920 1.275599
v -2.097548 3.849488 1.342607
v -1.797433 4.476737 1.393921
v -1.880601 3.981529 1.433353
v -2.074010 3.680299 1.556819
v -2.259022 3.574639 1.587544
v -1.949082 5.107093 1.665091
v -1.715931 4.690229 1.598245
v -1.711928 4.164388 1.571514
v -1.877322 3.816427 1.609611
v -2.521377 3.463734 1.828552
v -1.797850 4.948095 1.699805
v -1.622885 4.363672 1.724585
v -1.708028 3.982993 1.755221
v -1.987773 3.623102 1.862013
v -2.275540 3.492098 1.844608
v -2.050403 5.253500 1.791908
v -1.619742 4.673700 1.898993
v -1.609087 4.184007 1.942807
v -1.723675 3.890674 1.963831
v -1.703745 4.904905 2.075293
v -1.592064 4.325147 2.144720
v -1.968244 3.649993 2.156535
v -2.237445 3.527280 2.211915
v -2.055825 5.293373 2.152850
v -1.867808 5.139398 2.029374
v -1.634166 4.629368 2.246053
v -1.744404 3.965858 2.308722
v -2.615328 3.456414 2.037908
v -1.818920 5.022204 2.294688
v -1.743429 4.799053 2.425830
v -1.697457 4.481194 2.469075
v -1.732231 4.291937 2.509424
v -1.861968 4.032870 2.563478
v -2.057056 3.712322 2.445841
v -2.416701 3.476447 2.173036
v -2.031749 5.221123 2.370382
v -2.138848 3.943622 2.747048
v -1.971354 5.029736 2.581876
v -1.919908 4.767894 2.699722
v -1.936180 4.586531 2.768110
v -1.981049 4.400260 2.809810
v -2.021323 4.205853 2.798746
v -2.188571 5.377671 2.024689
v -2.154227 4.939182 2.808256
v -2.210581 4.584211 2.948225
v -2.358928 4.023949 2.881911
v -2.343099 3.743872 2.664175
v -2.434840 3.623228 2.537745
v -2.452047 4.759695 2.995259
v -2.352411 4.322231 2.984854
v -2.314819 5.319401 2.520093
v -2.282637 5.204263 2.669414
v -2.398850 5.018047 2.879297
v -2.510931 4.576624 3.031558
v -2.604185 4.099984 2.953179
v -2.689349 3.781625 2.730183
v -2.632948 3.577460 2.464559
v -2.853488 4.744452 2.996385
v -2.725460 4.431934 3.029701
v -2.741122 3.528662 2.309376
v -2.357619 5.411108 2.346394
v -2.675091 5.245393 2.733478
v -2.753258 5.025889 2.899391
v -2.919622 4.282061 2.959252
v -2.951054 4.011543 2.832775
v -2.437045 5.459039 2.156540
v -2.998533 4.898940 2.895824
v -3.223156 4.746346 2.811523
v -3.083675 4.518261 2.926460
v -3.223312 4.232901 2.777272
v -2.988622 3.791813 2.616313
v -2.675846 5.414013 2.467933
v -2.935100 5.299814 2.595146
v -3.066363 5.092637 2.742150
v -3.218801 3.981404 2.615652
v -2.685669 5.476636 2.213509
v -3.339300 4.877491 2.651218
v -3.476580 4.576653 2.533957
v -3.347765 4.443927 2.715522
v -2.989270 3.670484 2.439306
v -3.120872 5.321630 2.364993
v -3.293591 5.121020 2.473709
v -3.461354 4.253992 2.474377
v -3.227022 3.831520 2.411071
v -3.324888 5.193081 2.201358
v -3.462885 4.954453 2.328099
v -3.528525 4.769019 2.331734
v -3.551171 4.263747 2.184327
v -2.923471 5.447202 2.135992
v -3.115642 5.357604 2.073573
v -3.545830 4.802814 1.962118
v -3.584120 4.559545 2.171918
v -3.415462 3.990501 2.264309
v -3.228769 3.739111 2.169697
v -2.969039 3.582100 2.220777
v -3.345629 5.159313 1.937791
v -3.557280 4.390109 1.852548
v -2.996418 5.362576 1.781558
v -3.460961 4.880311 1.761744
v -3.445590 4.012295 1.916982
v -3.102247 3.634583 1.911703
v -2.750968 5.457983 1.894023
v -3.247021 5.088830 1.606737
v -3.438682 4.645509 1.573896
v -3.473456 4.456252 1.614246
v -3.265828 3.777390 1.893849
v -3.092603 5.017140 1.397645
v -3.291898 4.700548 1.391309
v -3.374618 4.221104 1.515410
v -3.359776 3.972887 1.687059
v -2.912106 3.528910 1.957088
v -2.930940 5.234252 1.511192
v -3.234732 4.350915 1.315211
v -3.207537 3.986815 1.447539
v -2.558813 5.465514 1.911160
v -2.638618 5.341658 1.575656
v -2.890612 4.941558 1.237174
v -2.992688 4.673686 1.175166
v -3.027949 4.477992 1.164944
v -3.082901 4.174345 1.234377
v -3.074491 3.724459 1.584589
v -2.881494 3.794881 1.342136
v -2.315037 5.374997 1.771413
v -2.570855 5.113152 1.305502
v -2.566728 4.837462 1.130141
v -2.660128 4.492218 1.049786
v -2.718867 4.177751 1.088063
v -2.761879 3.997744 1.163125
v -2.758327 3.587769 1.557635
v -2.826046 3.536674 1.733603
vn 0.3730 0.7249 -0.5791
vn 0.0639 -0.6481 -0.7589
vn 0.2505 -0.0368 -0.9674
vn -0.2398 -0.9708 0.0099
vn 0.3898 -0.2837 -0.8761
vn 0.4087 0.8241 -0.3921
vn 0.1661 -0.8077 -0.5657
vn 0.4197 0.3045 -0.8551
vn 0.0904 -0.9499 -0.2992
vn 0.6008 0.0840 -0.7950
vn 0.5037 0.7378 -0.4493
vn 0.3738 -0.7075 -0.5998
vn 0.3490 0.9189 -0.1839
vn 0.5891 -0.5842 -0.5582
vn 0.6854 0.5470 -0.4807
vn 0.7583 -0.1527 -0.6337
vn 0.8927 0.0830 -0.4429
vn 0.8021 -0.4164 -0.4282
vn 0.5959 -0.7418 -0.3074
vn 0.4395 -0.8522 -0.2839
vn 0.7711 -0.6016 -0.2084
vn 0.7045 0.6756 -0.2171
vn 0.8852 0.3844 -0.2620
vn 0.1145 -0.9934 0.0019
vn 0.9410 -0.2296 -0.2485
vn 0.9971 0.0295 -0.0704
vn 0.9251 -0.3681 -0.0935
vn 0.7083 -0.7057 0.0175
vn 0.8239 0.5483 -0.1434
vn 0.5883 0.8047 -0.0801
vn 0.9552 0.0343 0.2939
vn 0.9320 -0.0968 0.3494
vn 0.6778 -0.6478 0.3477
vn 0.8042 0.5842 0.1098
vn 0.8734 0.4299 0.2287
vn -0.1269 -0.9392 -0.3190
vn 0.6861 0.7097 0.1598
vn 0.3055 -0.8472 0.4346
vn -0.0592 -0.9711 0.2310
vn -0.1642 -0.9695 0.1819
vn 0.8267 -0.3170 0.4649
vn 0.0747 -0.9238 0.3755
vn 0.7025 0.6159 0.3567
vn 0.4344 0.8904 0.1357
vn 0.4586 0.8275 0.3239
vn 0.5049 0.5796 0.6397
vn 0.6160 0.4208 0.6659
vn 0.3932 0.5688 0.7224
vn 0.2634 0.1054 0.9589
vn 0.3033 0.9528 -0.0164
vn 0.1697 -0.3248 0.9304
vn 0.0801 -0.1315 0.9881
vn -0.1498 -0.5400 0.8282
vn -0.2906 -0.6458 0.7060
vn -0.1374 -0.2699 0.9530
vn 0.1711 0.8881 0.4267
vn -0.2102 -0.3939 0.8948
vn -0.2796 -0.0122 0.9600
vn -0.2124 0.3852 0.8981
vn -0.3343 -0.8841 0.3266
vn -0.4408 0.1610 0.8831
vn -0.3030 -0.9272 0.2203
vn 0.1143 0.9735 0.1980
vn -0.4767 -0.2127 0.8530
vn -0.1080 0.8391 0.5331
vn -0.6258 0.0103 0.7799
vn -0.5984 -0.1212 0.7919
vn -0.5483 -0.6639 0.5085
vn -0.5530 0.3904 0.7361
vn 0.1799 0.9816 -0.0634
vn -0.1963 0.9503 0.2415
vn -0.7641 -0.2806 0.5809
vn -0.8518 -0.1337 0.5066
vn -0.7749 -0.4710 0.4215
vn -0.5591 -0.7729 0.3000
vn -0.7941 0.4482 0.4105
vn -0.8601 0.3124 0.4034
vn -0.9584 0.0386 0.2829
vn -0.0346 0.9981 -0.0512
vn -0.4473 0.8886 0.1017
vn -0.7304 -0.6361 0.2488
vn -0.6563 0.7073 0.2626
vn -0.6356 0.7705 -0.0487
vn -0.8625 0.4719 -0.1828
vn -0.3700 -0.9229 0.1063
vn -0.9918 0.0578 -0.1140
vn -0.9934 -0.1117 -0.0242
vn -0.2906 0.9425 -0.1652
vn -0.9500 -0.2972 -0.0957
vn -0.3807 0.9140 -0.1399
vn -0.9003 -0.4322 0.0510
vn -0.9053 -0.3160 -0.2837
vn -0.5810 0.7434 -0.3313
vn -0.9292 0.1731 -0.3266
vn -0.8997 -0.2195 -0.3774
vn -0.7567 0.3819 -0.5307
vn -0.4786 0.6595 -0.5796
vn -0.6852 -0.6585 -0.3112
vn -0.0060 0.9386 -0.3451
vn -0.1722 0.9041 -0.3911
vn -0.7638 -0.3974 -0.5086
vn -0.5708 0.1451 -0.8082
vn -0.6881 -0.2865 -0.6666
vn -0.6712 -0.5809 -0.4604
vn -0.3329 0.6196 -0.7108
vn -0.4719 -0.8391 -0.2706
vn -0.5483 -0.0909 -0.8313
vn -0.5111 -0.4747 -0.7165
vn -0.1271 0.7414 -0.6590
vn -0.1063 0.5325 -0.8397
vn -0.3757 -0.7661 -0.5215
vn 0.2206 0.9480 -0.2292
vn -0.2279 -0.5652 -0.7928
vn 0.2156 0.6191 -0.7551
vn -0.1814 -0.7577 -0.6269
vn 0.2146 0.3603 -0.9078
vn 0.0012 -0.2813 -0.9596
vn 0.2529 -0.1335 -0.9582
vn 0.3488 0.6493 -0.6759
vn 0.0265 -0.7345 -0.6781
vn -0.2009 -0.9726 -0.1174
vn 0.3623 -0.4232 -0.8304
vn 0.7084 0.4416 -0.5506
vn 0.4512 0.7616 -0.4651
vn 0.2906 -0.5513 -0.7820
vn 0.5237 0.4719 -0.7093
vn 0.4847 0.1526 -0.8612
vn 0.3352 -0.7520 -0.5677
vn 0.1293 -0.9366 -0.3258
vn 0.6473 -0.0605 -0.7598
vn 0.5657 -0.4583 -0.6855
vn 0.7542 -0.2313 -0.6146
vn 0.4211 0.8801 -0.2195
vn 0.5708 -0.6127 -0.5466
vn 0.4168 -0.9077 0.0488
vn 0.7542 0.2803 -0.5938
vn 0.4134 -0.8743 -0.2542
vn 0.8799 -0.0288 -0.4743
vn 0.7938 -0.4365 -0.4236
vn 0.9407 -0.2313 -0.2483
vn 0.7335 -0.6552 -0.1808
vn 0.7303 0.6466 -0.2203
vn 0.9434 0.1554 -0.2932
vn 0.0951 -0.9954 0.0079
vn 0.9297 -0.3403 0.1409
vn 0.2591 -0.9636 0.0654
vn 0.9971 -0.0138 -0.0744
vn 0.8782 0.4476 -0.1686
vn 0.6001 0.7960 -0.0789
vn 0.7588 -0.6254 0.1819
vn 0.9544 0.2884 0.0765
vn 0.9914 0.1184 0.0563
vn 0.8079 0.1740 0.5630
vn 0.9084 0.3606 0.2117
vn 0.9139 -0.2370 0.3296
vn 0.4466 -0.8366 0.3173
vn 0.6719 -0.5786 0.4623
vn 0.7047 0.6878 0.1740
vn 0.1767 -0.9100 0.3750
vn 0.9072 0.1828 0.3789
vn 0.7712 -0.0246 0.6361
vn -0.0211 -0.9494 0.3133
vn 0.7222 -0.2082 0.6596
vn 0.4447 -0.1278 0.8865
vn 0.5924 -0.4030 0.6976
vn 0.5744 -0.5664 0.5910
vn 0.4022 -0.6701 0.6238
vn 0.7728 0.4949 0.3972
vn 0.3143 -0.7903 0.5260
vn 0.7545 0.3869 0.5302
vn 0.4777 0.8482 0.2289
vn 0.5476 0.0550 0.8349
vn 0.3871 -0.3238 0.8633
vn 0.5165 0.7134 0.4736
vn 0.5383 0.2409 0.8076
vn 0.2586 -0.5837 0.7697
vn 0.0707 -0.5968 0.7993
vn 0.3707 0.3005 0.8788
vn 0.0474 -0.7396 0.6714
vn -0.0391 -0.7962 0.6037
vn -0.2430 -0.7958 0.5546
vn 0.2676 -0.0102 0.9635
vn 0.3519 0.9319 0.0881
vn 0.0574 -0.2043 0.9772
vn 0.1869 0.6812 0.7079
vn 0.0587 0.5885 0.8063
vn 0.0226 0.3613 0.9322
vn 0.1566 0.8210 0.5491
vn -0.2555 -0.8570 0.4476
vn -0.0047 0.1959 0.9806
vn -0.0628 0.0803 0.9948
vn -0.2367 0.6475 0.7244
vn -0.2919 -0.0703 0.9539
vn -0.4754 -0.5748 0.6660
vn -0.5162 0.6970 0.4978
vn -0.2868 0.5318 0.7968
vn -0.4396 0.1751 0.8809
vn 0.0983 0.9672 0.2343
vn -0.4432 -0.3369 0.8307
vn -0.5247 -0.4669 0.7118
vn -0.5302 -0.6985 0.4807
vn -0.5497 0.4058 0.7302
vn -0.7663 0.1089 0.6331
vn -0.6153 0.5365 0.5776
vn -0.2583 0.9217 0.2893
vn 0.0688 0.9976 -0.0078
vn -0.9524 -0.0963 0.2893
vn -0.7423 -0.3716 0.5575
vn -0.7532 -0.5159 0.4082
vn -0.5364 -0.7985 0.2733
vn -0.8699 0.2260 0.4385
vn -0.7784 0.5790 0.2426
vn -0.8697 0.4937 -0.0022
vn -0.1115 0.9931 -0.0352
vn -0.8924 -0.3659 0.2640
vn -0.5813 0.8088 0.0894
vn -0.5150 -0.8537 0.0770
vn -0.9396 0.3341 0.0745
vn -0.9757 0.2095 0.0648
vn -0.7951 -0.6058 0.0273
vn -0.5615 0.7989 -0.2156
vn -0.9465 0.1077 -0.3042
vn -0.6565 -0.7541 -0.0164
vn -0.7712 0.5357 -0.3438
vn -0.7802 0.0091 -0.6255
vn -0.7797 0.3444 -0.5230
vn -0.8949 -0.2887 -0.3401
vn -0.4822 0.7404 -0.4682
vn -0.7882 -0.5840 -0.1941
vn -0.2148 0.8611 -0.4607
vn -0.6196 -0.7418 -0.2564
vn -0.6531 0.4237 -0.6276
vn -0.5137 0.3562 -0.7805
vn -0.7924 -0.0789 -0.6048
vn -0.6144 0.0706 -0.7858
vn -0.6867 -0.2976 -0.6633
vn -0.3325 -0.1022 -0.9375
vn -0.5407 -0.5883 -0.6013
vn -0.1960 0.6556 -0.7292
vn -0.4392 -0.8760 -0.1996
vn 0.1350 0.9155 -0.3791
vn -0.2080 0.2837 -0.9361
vn -0.3550 -0.2863 -0.8899
vn 0.1381 0.8279 -0.5436
vn -0.4213 -0.4476 -0.7888
vn 0.0462 0.7684 -0.6383
vn -0.3930 -0.8315 -0.3927
vn -0.0287 -0.3750 -0.9266
vn -0.3008 0.1037 -0.9480
vn -0.0945 -0.1029 -0.9902
vn -0.0633 -0.4878 -0.8706
vn 0.1516 0.5321 -0.8330
vn -0.1832 -0.7590 -0.6248
vn 0.0670 0.2090 -0.9756
vn 0.0960 0.0800 -0.9922
vt 0.781230 0.812500
vt 0.762032 0.875000
vt 0.685473 0.777944
vt 0.734697 0.375000
vt 0.703125 0.312500
vt 0.764235 0.312500
vt 0.741874 0.599249
vt 0.704616 0.531266
vt 0.763980 0.500000
vt 0.734375 0.000000
vt 0.879629 0.062500
vt 0.593677 0.062500
vt 0.670132 0.472235
vt 0.734536 0.437500
vt 0.734224 0.937500
vt 0.605595 0.875000
vt 0.658359 0.250000
vt 0.719918 0.218999
vt 0.734375 0.717281
vt 0.678319 0.660608
vt 0.606077 0.187500
vt 0.641330 0.592355
vt 0.623673 0.812500
vt 0.673680 0.375000
vt 0.639230 0.312500
vt 0.640625 1.000000
vt 0.479138 0.937500
vt 0.639064 0.437500
vt 0.612180 0.375000
vt 0.595563 0.750000
vt 0.606567 0.500000
vt 0.603325 0.667055
vt 0.578286 0.562500
vt 0.578286 0.437500
vt 0.577540 0.283466
vt 0.543444 0.396147
vt 0.512752 0.812500
vt 0.546915 0.655822
vt 0.503540 0.125000
vt 0.660224 0.125000
vt 0.544067 0.500000
vt 0.509405 0.537235
vt 0.515588 0.281661
vt 0.510998 0.724803
vt 0.449506 0.875000
vt 0.487180 0.625000
vt 0.453286 0.562500
vt 0.450317 0.500000
vt 0.485851 0.406417
vt 0.453088 0.281661
vt 0.455926 0.750000
vt 0.445771 0.665313
vt 0.799126 0.125000
vt 0.779637 0.187500
vt 0.402284 0.812500
vt 0.497588 0.187500
vt 0.386121 0.187500
vt 0.328120 0.062500
vt 0.453125 0.000000
vt 0.437500 0.406180
vt 0.347717 0.125000
vt 0.390588 0.718339
vt 0.293360 0.875000
vt 0.308534 0.812500
vt 0.316528 0.750000
vt 0.343750 0.656371
vt 0.393429 0.625000
vt 0.296915 0.655822
vt 0.343750 0.531273
vt 0.297036 0.562500
vt 0.294067 0.500000
vt 0.328125 1.000000
vt 0.230145 0.937500
vt 0.328286 0.437500
vt 0.296914 0.344178
vt 0.343750 0.343629
vt 0.265786 0.437500
vt 0.234338 0.281661
vt 0.296902 0.219059
vt 0.214815 0.187500
vt 0.237180 0.375000
vt 0.199790 0.812500
vt 0.237635 0.520573
vt 0.203286 0.437500
vt 0.237180 0.625000
vt 0.203286 0.562500
vt 0.190964 0.125000
vt 0.113605 0.062500
vt 0.169067 0.500000
vt 0.203125 0.000000
vt 0.137012 0.875000
vt 0.176363 0.337227
vt 0.171838 0.718339
vt 0.234338 0.718339
vt 0.148421 0.399333
vt 0.160278 0.250000
vt 0.121065 0.187500
vt 0.174680 0.625000
vt 0.134405 0.537235
vt 0.140625 1.000000
vt 0.030235 0.937500
vt 0.075252 0.812500
vt 0.102021 0.334687
vt 0.109536 0.437500
vt 0.066529 0.250000
vt 0.055088 0.153620
vt 0.112179 0.625000
vt 0.078286 0.562500
vt 0.075317 0.500000
vt 0.047036 0.437500
vt 0.032456 0.875000
vt 0.048167 0.750000
vt 0.108913 0.719958
vt 0.062500 0.658651
vt 0.015664 0.655822
vt 0.018885 0.520574
vt 0.000000 0.562500
vt 0.015625 0.000000
vt 0.000000 0.062500
vt 0.000000 0.399333
vt 0.046914 0.344178
vt 0.000000 0.784407
vt 0.000000 0.273040
vt 0.991904 0.273040
vt 0.992171 0.399333
vt 0.937867 0.282145
vt 1.000000 0.655822
vt 0.975379 0.784407
vt 0.953164 0.655822
vt 1.000000 0.500000
vt 0.984536 0.562500
vt 0.950317 0.500000
vt 0.953286 0.437500
vt 0.924679 0.375000
vt 0.915655 0.537235
vt 0.910279 0.750000
vt 0.906250 0.656371
vt 0.965747 0.187500
vt 0.868449 0.212346
vt 0.978825 0.875000
vt 0.921769 0.937500
vt 0.872374 0.843190
vt 0.887823 0.312500
vt 0.859536 0.562500
vt 0.856567 0.500000
vt 0.890786 0.437500
vt 0.855944 0.396148
vt 0.859414 0.655822
vt 0.939862 0.125000
vt 0.812867 0.282145
vt 0.814726 0.750000
vt 0.796945 0.653777
vt 0.828125 1.000000
vt 0.798190 0.375000
vt 0.797036 0.437500
vt 0.390786 0.562500
vt 0.387817 0.500000
vt 0.390786 0.437500
vt 0.390665 0.344178
vt 0.378980 0.250000
vt 0.000000 0.125000
vt 0.000000 0.187500
vt 0.801816 0.543181
s 0
f 2/1/1 6/2/1 13/3/1
f 11/4/2 14/5/2 4/6/2
f 8/7/3 9/8/3 3/9/3
f 5/10/4 127/11/4 44/12/4
f 9/8/5 16/13/5 10/14/5
f 139/15/6 32/16/6 6/2/6
f 14/5/7 21/17/7 12/18/7
f 7/19/8 15/20/8 8/7/8
f 12/18/9 21/17/9 31/21/9
f 15/20/10 18/22/10 9/8/10
f 32/16/11 22/23/11 13/3/11
f 14/5/12 17/24/12 20/25/12
f 139/15/13 1/26/13 59/27/13
f 19/28/14 25/29/14 17/24/14
f 22/23/15 27/30/15 13/3/15
f 16/13/16 18/22/16 24/31/16
f 18/22/17 23/32/17 28/33/17
f 24/31/18 29/34/18 19/28/18
f 20/25/19 25/29/19 30/35/19
f 20/25/20 30/35/20 21/17/20
f 29/34/21 35/36/21 25/29/21
f 32/16/22 41/37/22 22/23/22
f 23/32/23 27/30/23 33/38/23
f 31/21/24 51/39/24 26/40/24
f 24/31/25 28/33/25 34/41/25
f 28/33/26 33/38/26 37/42/26
f 34/41/27 35/36/27 29/34/27
f 30/35/28 35/36/28 38/43/28
f 41/37/29 36/44/29 27/30/29
f 32/16/30 59/27/30 40/45/30
f 37/42/31 42/46/31 47/47/31
f 37/42/32 47/47/32 48/48/32
f 38/43/33 43/49/33 50/50/33
f 41/37/34 45/51/34 36/44/34
f 36/44/35 45/51/35 46/52/35
f 26/40/36 146/53/36 145/54/36 12/18/36
f 41/37/37 40/45/37 52/55/37
f 39/56/38 50/50/38 64/57/38
f 44/12/39 51/39/39 76/58/39
f 5/59/40 44/12/40 76/58/40
f 48/48/41 49/60/41 43/49/41
f 64/57/42 73/61/42 51/39/42
f 52/55/43 54/62/43 45/51/43
f 59/27/44 77/63/44 40/45/44
f 52/55/45 77/63/45 67/64/45
f 54/62/46 68/65/46 60/66/46
f 54/62/47 60/66/47 55/67/47
f 60/66/48 68/65/48 69/68/48
f 61/69/49 65/70/49 70/71/49
f 59/27/50 1/72/50 82/73/50
f 66/74/51 71/75/51 62/76/51
f 70/71/52 75/77/52 66/74/52
f 71/75/53 81/78/53 72/79/53
f 72/79/54 81/78/54 87/80/54
f 75/77/55 80/81/55 71/75/55
f 67/64/56 77/63/56 88/82/56
f 71/75/57 80/81/57 81/78/57
f 74/83/58 85/84/58 75/77/58
f 74/83/59 79/85/59 83/86/59
f 96/87/60 111/88/60 76/58/60
f 74/83/61 83/86/61 84/89/61
f 5/90/62 76/58/62 111/88/62
f 77/63/63 82/73/63 92/91/63
f 85/84/64 86/92/64 80/81/64
f 88/82/65 89/93/65 78/94/65
f 84/89/66 95/95/66 85/84/66
f 85/84/67 95/95/67 86/92/67
f 87/80/68 91/96/68 100/97/68
f 83/86/69 90/98/69 93/99/69
f 82/73/70 1/100/70 131/101/70
f 92/91/71 105/102/71 88/82/71
f 86/92/72 95/95/72 99/103/72
f 94/104/73 99/103/73 95/95/73
f 99/103/74 109/105/74 91/96/74
f 100/97/75 110/106/75 96/87/75
f 93/99/76 98/107/76 102/108/76
f 93/99/77 102/108/77 103/109/77
f 103/109/78 108/110/78 94/104/78
f 131/101/79 118/111/79 92/91/79
f 105/102/80 106/112/80 97/113/80
f 100/97/81 109/105/81 110/106/81
f 97/113/82 101/114/82 98/107/82
f 101/114/83 106/112/83 112/115/83
f 107/116/84 112/115/84 115/117/84
f 5/118/85 111/88/85 127/119/85
f 107/116/86 113/120/86 108/110/86
f 108/110/87 113/120/87 104/121/87
f 105/102/88 118/111/88 114/122/88
f 104/121/89 113/120/89 116/123/89
f 105/102/90 114/122/90 106/112/90
f 104/121/91 116/123/91 109/105/91
f 116/124/92 113/125/92 126/126/92
f 112/127/93 114/128/93 119/129/93
f 107/130/94 115/131/94 120/132/94
f 121/133/95 125/134/95 113/125/95
f 115/131/96 119/129/96 124/135/96
f 119/129/97 128/136/97 123/137/97
f 122/138/98 126/126/98 137/139/98
f 118/140/99 131/141/99 132/142/99
f 118/140/100 132/142/100 114/128/100
f 126/126/101 125/134/101 130/143/101
f 124/135/102 134/144/102 135/145/102
f 129/146/103 136/147/103 125/134/103
f 130/143/104 137/139/104 126/126/104
f 123/137/105 128/136/105 133/148/105
f 137/139/106 146/53/106 117/149/106
f 135/145/107 136/147/107 129/146/107
f 130/143/108 136/147/108 138/150/108
f 132/142/109 140/151/109 128/136/109
f 133/148/110 140/151/110 141/152/110
f 137/139/111 138/150/111 145/54/111
f 131/141/112 1/153/112 139/15/112
f 138/150/113 144/154/113 4/6/113
f 140/151/114 2/1/114 7/19/114
f 4/6/115 12/18/115 138/150/115
f 141/152/116 7/19/116 8/7/116
f 3/9/117 10/14/117 143/155/117
f 3/9/118 9/8/118 10/14/118
f 7/19/119 2/1/119 13/3/119
f 4/6/120 14/5/120 12/18/120
f 44/12/121 127/11/121 146/53/121 26/40/121
f 17/24/122 11/4/122 10/14/122 16/13/122
f 23/32/123 15/20/123 13/3/123 27/30/123
f 6/2/124 32/16/124 13/3/124
f 11/4/125 17/24/125 14/5/125
f 7/19/126 13/3/126 15/20/126
f 9/8/127 8/7/127 15/20/127
f 21/17/128 14/5/128 20/25/128
f 12/18/129 31/21/129 26/40/129
f 9/8/130 18/22/130 16/13/130
f 16/13/131 19/28/131 17/24/131
f 16/13/132 24/31/132 19/28/132
f 139/15/133 59/27/133 32/16/133
f 20/25/134 17/24/134 25/29/134
f 38/43/135 39/56/135 31/21/135 30/35/135
f 15/20/136 23/32/136 18/22/136
f 21/17/137 30/35/137 31/21/137
f 24/31/138 18/22/138 28/33/138
f 19/28/139 29/34/139 25/29/139
f 24/31/140 34/41/140 29/34/140
f 30/35/141 25/29/141 35/36/141
f 22/23/142 41/37/142 27/30/142
f 28/33/143 23/32/143 33/38/143
f 44/12/144 26/40/144 51/39/144
f 43/49/145 35/36/145 34/41/145 37/42/145
f 51/39/146 31/21/146 39/56/146
f 34/41/147 28/33/147 37/42/147
f 33/38/148 27/30/148 36/44/148
f 32/16/149 40/45/149 41/37/149
f 38/43/150 35/36/150 43/49/150
f 33/38/151 36/44/151 42/46/151
f 37/42/152 33/38/152 42/46/152
f 55/67/153 56/156/153 47/47/153 46/52/153
f 36/44/154 46/52/154 42/46/154
f 37/42/155 48/48/155 43/49/155
f 39/56/156 38/43/156 50/50/156
f 50/50/157 43/49/157 49/60/157
f 41/37/158 52/55/158 45/51/158
f 39/56/159 64/57/159 51/39/159
f 47/47/160 42/46/160 46/52/160
f 56/156/161 57/157/161 48/48/161 47/47/161
f 51/39/162 73/61/162 76/58/162
f 58/158/163 49/60/163 48/48/163 57/157/163
f 66/74/164 58/158/164 57/157/164 61/69/164
f 49/60/165 58/158/165 53/159/165
f 50/50/166 49/60/166 53/159/166
f 50/50/167 53/159/167 63/160/167
f 46/52/168 45/51/168 54/62/168
f 64/57/169 50/50/169 63/160/169
f 46/52/170 54/62/170 55/67/170
f 40/45/171 77/63/171 52/55/171
f 57/157/172 56/156/172 61/69/172
f 62/76/173 53/159/173 58/158/173 66/74/173
f 68/65/174 54/62/174 52/55/174 67/64/174
f 60/66/175 61/69/175 56/156/175 55/67/175
f 53/159/176 62/76/176 63/160/176
f 72/79/177 63/160/177 62/76/177 71/75/177
f 69/68/178 65/70/178 61/69/178 60/66/178
f 64/57/179 63/160/179 72/79/179
f 64/57/180 72/79/180 73/61/180
f 96/87/181 73/61/181 72/79/181 87/80/181
f 61/69/182 70/71/182 66/74/182
f 59/27/183 82/73/183 77/63/183
f 66/74/184 75/77/184 71/75/184
f 69/68/185 68/65/185 78/94/185
f 69/68/186 78/94/186 79/85/186
f 79/85/187 74/83/187 65/70/187 69/68/187
f 78/94/188 68/65/188 67/64/188 88/82/188
f 76/58/189 73/61/189 96/87/189
f 70/71/190 65/70/190 74/83/190
f 70/71/191 74/83/191 75/77/191
f 90/98/192 79/85/192 78/94/192 89/93/192
f 75/77/193 85/84/193 80/81/193
f 87/80/194 81/78/194 91/96/194
f 98/107/195 90/98/195 89/93/195 97/113/195
f 83/86/196 79/85/196 90/98/196
f 74/83/197 84/89/197 85/84/197
f 77/63/198 92/91/198 88/82/198
f 81/78/199 80/81/199 86/92/199
f 81/78/200 86/92/200 91/96/200
f 87/80/201 100/97/201 96/87/201
f 84/89/202 83/86/202 93/99/202
f 94/104/203 95/95/203 84/89/203 93/99/203
f 93/99/204 90/98/204 98/107/204
f 97/113/205 89/93/205 88/82/205 105/102/205
f 82/73/206 131/101/206 92/91/206
f 104/121/207 99/103/207 94/104/207 108/110/207
f 86/92/208 99/103/208 91/96/208
f 100/97/209 91/96/209 109/105/209
f 96/87/210 110/106/210 111/88/210
f 93/99/211 103/109/211 94/104/211
f 102/108/212 98/107/212 101/114/212
f 112/115/213 107/116/213 102/108/213 101/114/213
f 92/91/214 118/111/214 105/102/214
f 99/103/215 104/121/215 109/105/215
f 97/113/216 106/112/216 101/114/216
f 127/119/217 111/88/217 110/106/217 117/161/217
f 103/109/218 102/108/218 107/116/218
f 103/109/219 107/116/219 108/110/219
f 116/123/220 122/162/220 110/106/220 109/105/220
f 112/115/221 106/112/221 114/122/221
f 121/133/222 113/125/222 107/130/222 120/132/222
f 110/106/223 122/162/223 117/161/223
f 115/131/224 112/127/224 119/129/224
f 129/146/225 121/133/225 120/132/225 124/135/225
f 120/132/226 115/131/226 124/135/226
f 126/126/227 113/125/227 125/134/227
f 119/129/228 114/128/228 128/136/228
f 122/138/229 116/124/229 126/126/229
f 114/128/230 132/142/230 128/136/230
f 117/149/231 122/138/231 137/139/231
f 124/135/232 119/129/232 123/137/232
f 133/148/233 134/144/233 124/135/233 123/137/233
f 121/133/234 129/146/234 125/134/234
f 124/135/235 135/145/235 129/146/235
f 130/143/236 125/134/236 136/147/236
f 143/155/237 136/147/237 135/145/237 142/163/237
f 130/143/238 138/150/238 137/139/238
f 133/148/239 128/136/239 140/151/239
f 117/149/240 146/53/240 127/11/240
f 139/15/241 6/2/241 132/142/241 131/141/241
f 141/152/242 142/163/242 134/144/242 133/148/242
f 136/147/243 143/155/243 144/154/243
f 132/142/244 6/2/244 2/1/244
f 138/150/245 136/147/245 144/154/245
f 132/142/246 2/1/246 140/151/246
f 137/139/247 145/54/247 146/53/247
f 11/4/248 144/154/248 143/155/248 10/14/248
f 135/145/249 134/144/249 142/163/249
f 142/163/250 3/9/250 143/155/250
f 144/154/251 11/4/251 4/6/251
f 141/152/252 140/151/252 7/19/252
f 145/54/253 138/150/253 12/18/253
f 142/163/254 141/152/254 8/7/254
f 3/9/255 142/163/255 8/7/255
