# Blender 5.0.0
# www.blender.org
mtllib prep_throw_ball0026.mtl
o Sphere
v -1.850205 6.711274 0.312352
v -1.935651 6.097041 0.033198
v -2.383996 5.212173 0.158241
v -2.756636 5.137146 0.490140
v -3.123310 5.791320 1.151006
v -1.852979 6.272899 0.122631
v -1.901506 5.680231 0.101044
v -2.092962 5.350132 0.134595
v -2.061560 5.179573 0.355158
v -2.381134 5.085572 0.354589
v -2.515536 5.062361 0.460262
v -2.807724 5.188591 0.791245
v -1.705638 5.903500 0.259386
v -2.532462 5.063057 0.681009
v -1.777465 5.503181 0.334000
v -2.061801 5.114873 0.588453
v -2.294050 5.058913 0.706917
v -1.753010 5.394018 0.563753
v -2.055902 5.148061 0.788595
v -2.370880 5.138506 0.942640
v -2.580307 5.164751 0.945171
v -1.615703 6.088230 0.407700
v -1.602975 5.684526 0.637778
v -1.839721 5.328930 0.862363
v -2.144798 5.202934 0.988590
v -2.876749 5.405205 1.068521
v -1.562957 5.966984 0.560156
v -1.685277 5.561467 0.909936
v -1.936258 5.380107 1.075268
v -2.350544 5.348843 1.213174
v -2.655159 5.351542 1.156327
v -1.645885 6.330404 0.391857
v -1.554991 5.912876 0.890143
v -1.775609 5.641526 1.149720
v -2.010600 5.516575 1.257454
v -1.535642 6.247020 0.876129
v -1.713790 5.907005 1.231814
v -2.347447 5.625621 1.413279
v -2.638805 5.692945 1.410138
v -1.663967 6.684212 0.623204
v -1.563538 6.409983 0.676472
v -1.618371 6.204418 1.147243
v -2.024052 5.883359 1.455793
v -2.978821 5.623084 1.183592
v -1.599247 6.559619 0.933164
v -1.649273 6.511941 1.154725
v -1.760430 6.335554 1.347782
v -1.880971 6.265495 1.450247
v -2.116009 6.197261 1.559732
v -2.420060 5.957815 1.553944
v -2.811891 5.688546 1.341031
v -1.695920 6.827457 0.816869
v -2.409798 6.404368 1.627781
v -1.751276 6.877765 1.074345
v -1.838504 6.802177 1.295656
v -1.942079 6.755993 1.420788
v -2.069982 6.692564 1.519140
v -2.193059 6.574634 1.586120
v -1.727136 6.667482 0.446681
v -1.969169 7.089936 1.207125
v -2.193355 7.013656 1.447366
v -2.572580 6.653909 1.604620
v -2.669028 6.275418 1.587352
v -2.791857 6.117302 1.521214
v -2.322762 7.250850 1.311420
v -2.438525 6.932044 1.541631
v -1.905520 7.123746 0.772837
v -1.944315 7.175466 0.941619
v -2.147951 7.289345 1.131188
v -2.460679 7.189440 1.399425
v -2.753228 6.851969 1.529912
v -2.953109 6.480021 1.489746
v -2.975677 6.091606 1.418984
v -2.672690 7.382744 1.172817
v -2.710439 7.172010 1.386418
v -3.076866 5.958285 1.293774
v -1.884449 7.038958 0.593958
v -2.266121 7.396593 0.824256
v -2.448743 7.436451 1.012348
v -2.939147 7.082082 1.335400
v -3.079595 6.808773 1.360129
v -1.913418 6.924881 0.410587
v -2.716424 7.439362 0.978781
v -2.971175 7.345838 0.908247
v -2.967404 7.258002 1.144113
v -3.205093 6.992664 1.120373
v -3.193920 6.487987 1.296532
v -2.165571 7.262182 0.561312
v -2.450845 7.396426 0.607968
v -2.671454 7.445469 0.757845
v -3.302975 6.686890 1.124962
v -2.122633 7.074498 0.351548
v -2.995726 7.323588 0.693828
v -3.241356 7.076628 0.700322
v -3.208591 7.112706 0.934911
v -3.234817 6.251768 1.228665
v -2.579115 7.266668 0.369722
v -2.828717 7.299660 0.474768
v -3.371913 6.814859 0.812682
v -3.361075 6.410429 1.048237
v -2.798180 7.109175 0.240336
v -3.037257 7.122487 0.388090
v -3.179153 7.032374 0.451942
v -3.418523 6.589718 0.573215
v -2.332433 7.069016 0.224313
v -2.532349 7.023488 0.151906
v -3.145736 6.724893 0.172390
v -3.309140 6.775632 0.416550
v -3.435717 6.443204 0.804098
v -3.383894 6.134449 0.921796
v -3.239027 5.991314 1.124315
v -2.808214 6.856540 0.064533
v -3.336192 6.370677 0.281567
v -2.402487 6.720435 -0.010499
v -3.019847 6.562366 0.028005
v -3.420753 6.152864 0.540927
v -3.301304 5.790938 0.836115
v -2.158811 6.796293 0.113559
v -2.727314 6.477993 -0.097919
v -3.092543 6.237099 0.013112
v -3.213084 6.167040 0.115577
v -3.373550 5.921613 0.698355
v -2.610072 6.189618 -0.154429
v -2.925710 6.054926 -0.085967
v -3.228419 5.895387 0.190823
v -3.345366 5.889882 0.430034
v -3.191680 5.699208 0.985684
v -2.381907 6.372142 -0.116127
v -3.031436 5.746601 0.042570
v -3.187813 5.628441 0.312150
v -1.992765 6.749316 0.192120
v -2.088438 6.395660 -0.013959
v -2.458291 5.926191 -0.157901
v -2.663530 5.737644 -0.115201
v -2.782995 5.617915 -0.045214
v -2.976089 5.509472 0.122762
v -3.207293 5.541377 0.576845
v -2.988622 5.298474 0.445807
v -1.814018 6.480667 0.225202
v -2.112131 5.983891 -0.072545
v -2.220288 5.650625 -0.066553
v -2.452184 5.393871 0.002091
v -2.650754 5.251745 0.151938
v -2.777126 5.221811 0.271349
v -2.997980 5.320581 0.736196
v -3.094896 5.471573 0.857680
vn 0.7109 0.0233 -0.7029
vn -0.2984 -0.9542 -0.0199
vn 0.2984 -0.7340 -0.6101
vn -0.6832 -0.4802 0.5501
vn 0.2731 -0.9271 -0.2568
vn 0.7646 0.1643 -0.6232
vn -0.2956 -0.9083 0.2961
vn 0.6220 -0.4274 -0.6561
vn -0.4242 -0.7476 0.5110
vn 0.6858 -0.6263 -0.3706
vn 0.8159 0.0641 -0.5746
vn -0.0497 -0.9511 0.3049
vn 0.7466 0.3345 -0.5750
vn 0.2215 -0.9108 0.3484
vn 0.9067 -0.1157 -0.4057
vn 0.6717 -0.7401 0.0337
vn 0.8815 -0.4691 0.0544
vn 0.4990 -0.7636 0.4098
vn 0.1017 -0.7891 0.6058
vn -0.0907 -0.7829 0.6155
vn 0.3184 -0.6918 0.6481
vn 0.9483 0.0984 -0.3019
vn 0.9870 -0.1533 -0.0490
vn -0.4177 -0.5783 0.7007
vn 0.6992 -0.5563 0.4491
vn 0.8673 -0.2991 0.3979
vn 0.5697 -0.5292 0.6288
vn 0.1813 -0.5775 0.7960
vn 0.9931 0.0311 -0.1134
vn 0.8973 0.2727 -0.3470
vn 0.7882 -0.0794 0.6103
vn 0.6827 -0.1207 0.7206
vn 0.1616 -0.3546 0.9209
vn 0.9805 0.1954 0.0225
vn 0.9571 0.1494 0.2483
vn -0.5966 -0.6983 0.3955
vn 0.9408 0.3276 -0.0871
vn -0.2185 -0.3201 0.9219
vn -0.5403 -0.4012 0.7397
vn -0.6206 -0.4027 0.6728
vn 0.4542 -0.1573 0.8769
vn -0.4219 -0.3344 0.8427
vn 0.9155 0.3834 0.1219
vn 0.8122 0.4771 -0.3358
vn 0.8165 0.5530 -0.1659
vn 0.7507 0.6050 0.2652
vn 0.7474 0.4805 0.4587
vn 0.6567 0.6977 0.2862
vn 0.2402 0.5780 0.7798
vn 0.7260 0.4529 -0.5175
vn -0.1036 0.2669 0.9581
vn -0.0789 0.4769 0.8754
vn -0.4721 0.1601 0.8669
vn -0.6230 0.0675 0.7793
vn -0.3522 0.4217 0.8355
vn 0.6171 0.7367 -0.2765
vn -0.4704 0.3163 0.8238
vn -0.3554 0.6960 0.6239
vn -0.0254 0.9581 0.2853
vn -0.7237 -0.2465 0.6445
vn -0.4055 0.8489 0.3391
vn -0.7133 -0.3302 0.6182
vn 0.5943 0.6374 -0.4904
vn -0.6362 0.5188 0.5711
vn 0.3627 0.8787 -0.3105
vn -0.6585 0.7017 0.2719
vn -0.7011 0.5925 0.3967
vn -0.8324 0.0213 0.5538
vn -0.3439 0.9380 -0.0441
vn 0.6391 0.4693 -0.6093
vn 0.3376 0.7348 -0.5883
vn -0.8875 0.3791 0.2621
vn -0.8845 0.4636 0.0522
vn -0.9490 0.1566 0.2737
vn -0.8665 -0.1470 0.4771
vn -0.4679 0.7662 -0.4404
vn -0.6113 0.6967 -0.3752
vn -0.8364 0.4637 -0.2921
vn 0.4803 0.5332 -0.6964
vn 0.1106 0.6748 -0.7297
vn -0.9569 -0.0517 0.2856
vn -0.1674 0.7544 -0.6348
vn -0.0873 0.5713 -0.8161
vn -0.4171 0.4013 -0.8154
vn -0.7655 -0.3729 0.5244
vn -0.7819 0.2435 -0.5739
vn -0.8970 0.1925 -0.3978
vn 0.2631 0.5021 -0.8238
vn -0.9567 0.0263 -0.2898
vn 0.1821 0.5239 -0.8321
vn -0.9976 0.0101 -0.0679
vn -0.9177 -0.1011 -0.3841
vn -0.0407 0.3867 -0.9213
vn -0.6350 0.1764 -0.7521
vn -0.8517 -0.0947 -0.5155
vn -0.3568 0.1412 -0.9235
vn 0.0082 0.1955 -0.9807
vn -0.9209 -0.3864 -0.0510
vn 0.4792 0.3415 -0.8086
vn 0.3409 0.3390 -0.8769
vn -0.8480 -0.3208 -0.4220
vn -0.3410 -0.1971 -0.9192
vn -0.7203 -0.3672 -0.5886
vn -0.8764 -0.4346 -0.2075
vn 0.1068 0.0746 -0.9915
vn -0.8287 -0.5220 0.2019
vn -0.4767 -0.3794 -0.7930
vn -0.6974 -0.5873 -0.4107
vn 0.3183 0.1156 -0.9409
vn 0.2538 -0.0997 -0.9621
vn -0.7354 -0.6771 0.0278
vn 0.6563 0.3547 -0.6660
vn -0.5153 -0.8144 -0.2669
vn 0.5535 -0.0894 -0.8280
vn -0.5758 -0.8165 0.0418
vn 0.4611 -0.3503 -0.8152
vn -0.1113 -0.8360 -0.5374
vn 0.2404 -0.8142 -0.5285
vn 0.6712 -0.0652 -0.7384
vn -0.3824 -0.9194 0.0922
vn -0.6584 -0.5651 0.4972
vn 0.1449 -0.9833 -0.1102
vn 0.8969 -0.2310 -0.3770
vn 0.7813 0.0826 -0.6186
vn -0.0176 -0.9998 0.0018
vn 0.7641 -0.2481 -0.5954
vn 0.6176 -0.5772 -0.5342
vn -0.1129 -0.9340 0.3391
vn -0.3871 -0.7709 0.5059
vn 0.6477 -0.7344 -0.2030
vn 0.3021 -0.9418 0.1473
vn 0.6151 -0.7806 0.1113
vn 0.7902 0.2792 -0.5455
vn 0.1849 -0.9113 0.3680
vn -0.1489 -0.5822 0.7993
vn 0.8808 -0.3845 -0.2764
vn -0.1248 -0.7647 0.6322
vn 0.8167 -0.5657 0.1138
vn 0.4778 -0.7696 0.4235
vn 0.6978 -0.5571 0.4503
vn 0.2519 -0.6897 0.6789
vn 0.9590 0.0731 -0.2737
vn 0.9322 -0.3383 0.1289
vn -0.4334 -0.5712 0.6971
vn 0.5543 -0.3725 0.7443
vn -0.2946 -0.5610 0.7736
vn 0.8426 -0.3282 0.4270
vn 0.9977 -0.0592 -0.0338
vn 0.9037 0.2657 -0.3358
vn 0.2490 -0.4536 0.8557
vn 0.9574 -0.0435 0.2853
vn 0.8948 -0.1696 0.4130
vn 0.7439 0.1958 0.6390
vn 0.9488 0.0880 0.3033
vn 0.5830 -0.2069 0.7857
vn -0.1038 -0.4070 0.9075
vn 0.1861 -0.2593 0.9477
vn 0.9465 0.3182 -0.0538
vn -0.3395 -0.3509 0.8727
vn 0.8352 0.0707 0.5454
vn 0.5839 0.1210 0.8028
vn -0.5035 -0.3568 0.7869
vn 0.4273 0.0343 0.9034
vn 0.2463 0.2922 0.9241
vn 0.2082 -0.0259 0.9777
vn 0.1110 -0.1646 0.9801
vn -0.0734 -0.1611 0.9842
vn 0.9095 0.3136 0.2728
vn -0.1905 -0.2492 0.9495
vn 0.8345 0.3297 0.4415
vn 0.8346 0.4996 -0.2318
vn 0.4520 0.3565 0.8177
vn 0.0824 0.1649 0.9829
vn 0.8207 0.5697 0.0449
vn 0.5698 0.4752 0.6704
vn -0.1509 -0.0067 0.9885
vn -0.3093 0.0494 0.9497
vn 0.4694 0.6310 0.6176
vn -0.3806 -0.0893 0.9204
vn -0.4676 -0.1321 0.8740
vn -0.6276 -0.1074 0.7711
vn 0.1671 0.4878 0.8568
vn 0.7604 0.4907 -0.4254
vn -0.1404 0.4206 0.8963
vn 0.5438 0.8352 0.0825
vn 0.3767 0.9100 0.1729
vn 0.1909 0.8681 0.4583
vn 0.5817 0.7982 -0.1564
vn -0.6548 -0.1901 0.7315
vn 0.0485 0.7819 0.6216
vn -0.0861 0.7168 0.6920
vn 0.1350 0.9860 -0.0983
vn -0.3990 0.6448 0.6519
vn -0.7533 0.1411 0.6424
vn -0.0777 0.8984 -0.4323
vn 0.0072 0.9996 0.0291
vn -0.3952 0.8587 0.3261
vn 0.5808 0.6621 -0.4736
vn -0.6543 0.3946 0.6451
vn -0.7635 0.2533 0.5940
vn -0.8267 -0.0184 0.5623
vn -0.3293 0.9423 -0.0601
vn -0.7050 0.7092 -0.0021
vn -0.2796 0.9079 -0.3123
vn 0.2742 0.7717 -0.5739
vn 0.5606 0.5341 -0.6328
vn -0.9080 0.3777 -0.1813
vn -0.9012 0.2933 0.3191
vn -0.9457 0.1142 0.3045
vn -0.8559 -0.1804 0.4847
vn -0.6823 0.6710 -0.2904
vn -0.3431 0.7066 -0.6188
vn -0.4330 0.5216 -0.7352
vn 0.4196 0.5579 -0.7160
vn -0.9852 0.1684 0.0335
vn -0.0350 0.6630 -0.7478
vn -0.8563 -0.3185 0.4065
vn -0.5993 0.5019 -0.6236
vn -0.7044 0.4341 -0.5616
vn -0.9868 -0.1356 0.0889
vn -0.0053 0.4706 -0.8823
vn -0.6918 0.1553 -0.7052
vn -0.9335 -0.2802 0.2237
vn -0.2940 0.3232 -0.8995
vn -0.6014 -0.1223 -0.7895
vn -0.3972 0.1304 -0.9084
vn -0.8910 -0.1183 -0.4383
vn 0.0391 0.2921 -0.9556
vn -0.9664 -0.2465 -0.0724
vn 0.2933 0.2933 -0.9099
vn -0.9044 -0.4198 0.0761
vn -0.2471 0.0886 -0.9649
vn -0.1693 -0.0653 -0.9834
vn -0.6690 -0.1631 -0.7252
vn -0.4245 -0.2205 -0.8782
vn -0.7262 -0.3730 -0.5775
vn -0.2999 -0.5339 -0.7905
vn -0.7826 -0.5720 -0.2457
vn 0.2310 0.0514 -0.9716
vn -0.8135 -0.5065 0.2856
vn 0.5794 0.2816 -0.7649
vn 0.0487 -0.2870 -0.9567
vn -0.4461 -0.6345 -0.6312
vn 0.5549 0.1548 -0.8174
vn -0.6084 -0.6534 -0.4504
vn 0.4642 0.0985 -0.8802
vn -0.7703 -0.6187 0.1545
vn -0.2063 -0.8715 -0.4448
vn -0.1371 -0.3943 -0.9087
vn -0.0815 -0.6670 -0.7406
vn -0.3166 -0.8942 -0.3164
vn 0.4709 -0.1684 -0.8660
vn -0.5779 -0.8149 0.0434
vn 0.2575 -0.4598 -0.8499
vn 0.2157 -0.5886 -0.7791
vt 0.781230 0.812500
vt 0.762032 0.875000
vt 0.685473 0.777944
vt 0.734697 0.375000
vt 0.703125 0.312500
vt 0.764235 0.312500
vt 0.741874 0.599249
vt 0.704616 0.531266
vt 0.763980 0.500000
vt 0.734375 0.000000
vt 0.879629 0.062500
vt 0.593677 0.062500
vt 0.670132 0.472235
vt 0.734536 0.437500
vt 0.734224 0.937500
vt 0.605595 0.875000
vt 0.658359 0.250000
vt 0.719918 0.218999
vt 0.734375 0.717281
vt 0.678319 0.660608
vt 0.606077 0.187500
vt 0.641330 0.592355
vt 0.623673 0.812500
vt 0.673680 0.375000
vt 0.639230 0.312500
vt 0.640625 1.000000
vt 0.479138 0.937500
vt 0.639064 0.437500
vt 0.612180 0.375000
vt 0.595563 0.750000
vt 0.606567 0.500000
vt 0.603325 0.667055
vt 0.578286 0.562500
vt 0.578286 0.437500
vt 0.577540 0.283466
vt 0.543444 0.396147
vt 0.512752 0.812500
vt 0.546915 0.655822
vt 0.503540 0.125000
vt 0.660224 0.125000
vt 0.544067 0.500000
vt 0.509405 0.537235
vt 0.515588 0.281661
vt 0.510998 0.724803
vt 0.449506 0.875000
vt 0.487180 0.625000
vt 0.453286 0.562500
vt 0.450317 0.500000
vt 0.485851 0.406417
vt 0.453088 0.281661
vt 0.455926 0.750000
vt 0.445771 0.665313
vt 0.799126 0.125000
vt 0.779637 0.187500
vt 0.402284 0.812500
vt 0.497588 0.187500
vt 0.386121 0.187500
vt 0.328120 0.062500
vt 0.453125 0.000000
vt 0.437500 0.406180
vt 0.347717 0.125000
vt 0.390588 0.718339
vt 0.293360 0.875000
vt 0.308534 0.812500
vt 0.316528 0.750000
vt 0.343750 0.656371
vt 0.393429 0.625000
vt 0.296915 0.655822
vt 0.343750 0.531273
vt 0.297036 0.562500
vt 0.294067 0.500000
vt 0.328125 1.000000
vt 0.230145 0.937500
vt 0.328286 0.437500
vt 0.296914 0.344178
vt 0.343750 0.343629
vt 0.265786 0.437500
vt 0.234338 0.281661
vt 0.296902 0.219059
vt 0.214815 0.187500
vt 0.237180 0.375000
vt 0.199790 0.812500
vt 0.237635 0.520573
vt 0.203286 0.437500
vt 0.237180 0.625000
vt 0.203286 0.562500
vt 0.190964 0.125000
vt 0.113605 0.062500
vt 0.169067 0.500000
vt 0.203125 0.000000
vt 0.137012 0.875000
vt 0.176363 0.337227
vt 0.171838 0.718339
vt 0.234338 0.718339
vt 0.148421 0.399333
vt 0.160278 0.250000
vt 0.121065 0.187500
vt 0.174680 0.625000
vt 0.134405 0.537235
vt 0.140625 1.000000
vt 0.030235 0.937500
vt 0.075252 0.812500
vt 0.102021 0.334687
vt 0.109536 0.437500
vt 0.066529 0.250000
vt 0.055088 0.153620
vt 0.112179 0.625000
vt 0.078286 0.562500
vt 0.075317 0.500000
vt 0.047036 0.437500
vt 0.032456 0.875000
vt 0.048167 0.750000
vt 0.108913 0.719958
vt 0.062500 0.658651
vt 0.015664 0.655822
vt 0.018885 0.520574
vt 0.000000 0.562500
vt 0.015625 0.000000
vt 0.000000 0.062500
vt 0.000000 0.399333
vt 0.046914 0.344178
vt 0.000000 0.784407
vt 0.000000 0.273040
vt 0.991904 0.273040
vt 0.992171 0.399333
vt 0.937867 0.282145
vt 1.000000 0.655822
vt 0.975379 0.784407
vt 0.953164 0.655822
vt 1.000000 0.500000
vt 0.984536 0.562500
vt 0.950317 0.500000
vt 0.953286 0.437500
vt 0.924679 0.375000
vt 0.915655 0.537235
vt 0.910279 0.750000
vt 0.906250 0.656371
vt 0.965747 0.187500
vt 0.868449 0.212346
vt 0.978825 0.875000
vt 0.921769 0.937500
vt 0.872374 0.843190
vt 0.887823 0.312500
vt 0.859536 0.562500
vt 0.856567 0.500000
vt 0.890786 0.437500
vt 0.855944 0.396148
vt 0.859414 0.655822
vt 0.939862 0.125000
vt 0.812867 0.282145
vt 0.814726 0.750000
vt 0.796945 0.653777
vt 0.828125 1.000000
vt 0.798190 0.375000
vt 0.797036 0.437500
vt 0.390786 0.562500
vt 0.387817 0.500000
vt 0.390786 0.437500
vt 0.390665 0.344178
vt 0.378980 0.250000
vt 0.000000 0.125000
vt 0.000000 0.187500
vt 0.801816 0.543181
s 0
f 2/1/1 6/2/1 13/3/1
f 11/4/2 14/5/2 4/6/2
f 8/7/3 9/8/3 3/9/3
f 5/10/4 127/11/4 44/12/4
f 9/8/5 16/13/5 10/14/5
f 139/15/6 32/16/6 6/2/6
f 14/5/7 21/17/7 12/18/7
f 7/19/8 15/20/8 8/7/8
f 12/18/9 21/17/9 31/21/9
f 15/20/10 18/22/10 9/8/10
f 32/16/11 22/23/11 13/3/11
f 14/5/12 17/24/12 20/25/12
f 139/15/13 1/26/13 59/27/13
f 19/28/14 25/29/14 17/24/14
f 22/23/15 27/30/15 13/3/15
f 16/13/16 18/22/16 24/31/16
f 18/22/17 23/32/17 28/33/17
f 24/31/18 29/34/18 19/28/18
f 20/25/19 25/29/19 30/35/19
f 20/25/20 30/35/20 21/17/20
f 29/34/21 35/36/21 25/29/21
f 32/16/22 41/37/22 22/23/22
f 23/32/23 27/30/23 33/38/23
f 31/21/24 51/39/24 26/40/24
f 24/31/25 28/33/25 34/41/25
f 28/33/26 33/38/26 37/42/26
f 34/41/27 35/36/27 29/34/27
f 30/35/28 35/36/28 38/43/28
f 41/37/29 36/44/29 27/30/29
f 32/16/30 59/27/30 40/45/30
f 37/42/31 42/46/31 47/47/31
f 37/42/32 47/47/32 48/48/32
f 38/43/33 43/49/33 50/50/33
f 41/37/34 45/51/34 36/44/34
f 36/44/35 45/51/35 46/52/35
f 26/40/36 146/53/36 145/54/36 12/18/36
f 41/37/37 40/45/37 52/55/37
f 39/56/38 50/50/38 64/57/38
f 44/12/39 51/39/39 76/58/39
f 5/59/40 44/12/40 76/58/40
f 48/48/41 49/60/41 43/49/41
f 64/57/42 73/61/42 51/39/42
f 52/55/43 54/62/43 45/51/43
f 59/27/44 77/63/44 40/45/44
f 52/55/45 77/63/45 67/64/45
f 54/62/46 68/65/46 60/66/46
f 54/62/47 60/66/47 55/67/47
f 60/66/48 68/65/48 69/68/48
f 61/69/49 65/70/49 70/71/49
f 59/27/50 1/72/50 82/73/50
f 66/74/51 71/75/51 62/76/51
f 70/71/52 75/77/52 66/74/52
f 71/75/53 81/78/53 72/79/53
f 72/79/54 81/78/54 87/80/54
f 75/77/55 80/81/55 71/75/55
f 67/64/56 77/63/56 88/82/56
f 71/75/57 80/81/57 81/78/57
f 74/83/58 85/84/58 75/77/58
f 74/83/59 79/85/59 83/86/59
f 96/87/60 111/88/60 76/58/60
f 74/83/61 83/86/61 84/89/61
f 5/90/62 76/58/62 111/88/62
f 77/63/63 82/73/63 92/91/63
f 85/84/64 86/92/64 80/81/64
f 88/82/65 89/93/65 78/94/65
f 84/89/66 95/95/66 85/84/66
f 85/84/67 95/95/67 86/92/67
f 87/80/68 91/96/68 100/97/68
f 83/86/69 90/98/69 93/99/69
f 82/73/70 1/100/70 131/101/70
f 92/91/71 105/102/71 88/82/71
f 86/92/72 95/95/72 99/103/72
f 94/104/73 99/103/73 95/95/73
f 99/103/74 109/105/74 91/96/74
f 100/97/75 110/106/75 96/87/75
f 93/99/76 98/107/76 102/108/76
f 93/99/77 102/108/77 103/109/77
f 103/109/78 108/110/78 94/104/78
f 131/101/79 118/111/79 92/91/79
f 105/102/80 106/112/80 97/113/80
f 100/97/81 109/105/81 110/106/81
f 97/113/82 101/114/82 98/107/82
f 101/114/83 106/112/83 112/115/83
f 107/116/84 112/115/84 115/117/84
f 5/118/85 111/88/85 127/119/85
f 107/116/86 113/120/86 108/110/86
f 108/110/87 113/120/87 104/121/87
f 105/102/88 118/111/88 114/122/88
f 104/121/89 113/120/89 116/123/89
f 105/102/90 114/122/90 106/112/90
f 104/121/91 116/123/91 109/105/91
f 116/124/92 113/125/92 126/126/92
f 112/127/93 114/128/93 119/129/93
f 107/130/94 115/131/94 120/132/94
f 121/133/95 125/134/95 113/125/95
f 115/131/96 119/129/96 124/135/96
f 119/129/97 128/136/97 123/137/97
f 122/138/98 126/126/98 137/139/98
f 118/140/99 131/141/99 132/142/99
f 118/140/100 132/142/100 114/128/100
f 126/126/101 125/134/101 130/143/101
f 124/135/102 134/144/102 135/145/102
f 129/146/103 136/147/103 125/134/103
f 130/143/104 137/139/104 126/126/104
f 123/137/105 128/136/105 133/148/105
f 137/139/106 146/53/106 117/149/106
f 135/145/107 136/147/107 129/146/107
f 130/143/108 136/147/108 138/150/108
f 132/142/109 140/151/109 128/136/109
f 133/148/110 140/151/110 141/152/110
f 137/139/111 138/150/111 145/54/111
f 131/141/112 1/153/112 139/15/112
f 138/150/113 144/154/113 4/6/113
f 140/151/114 2/1/114 7/19/114
f 4/6/115 12/18/115 138/150/115
f 141/152/116 7/19/116 8/7/116
f 3/9/117 10/14/117 143/155/117
f 3/9/118 9/8/118 10/14/118
f 7/19/119 2/1/119 13/3/119
f 4/6/120 14/5/120 12/18/120
f 44/12/121 127/11/121 146/53/121 26/40/121
f 17/24/122 11/4/122 10/14/122 16/13/122
f 23/32/123 15/20/123 13/3/123 27/30/123
f 6/2/124 32/16/124 13/3/124
f 11/4/125 17/24/125 14/5/125
f 7/19/126 13/3/126 15/20/126
f 9/8/127 8/7/127 15/20/127
f 21/17/128 14/5/128 20/25/128
f 12/18/129 31/21/129 26/40/129
f 9/8/130 18/22/130 16/13/130
f 16/13/131 19/28/131 17/24/131
f 16/13/132 24/31/132 19/28/132
f 139/15/133 59/27/133 32/16/133
f 20/25/134 17/24/134 25/29/134
f 38/43/135 39/56/135 31/21/135 30/35/135
f 15/20/136 23/32/136 18/22/136
f 21/17/137 30/35/137 31/21/137
f 24/31/138 18/22/138 28/33/138
f 19/28/139 29/34/139 25/29/139
f 24/31/140 34/41/140 29/34/140
f 30/35/141 25/29/141 35/36/141
f 22/23/142 41/37/142 27/30/142
f 28/33/143 23/32/143 33/38/143
f 44/12/144 26/40/144 51/39/144
f 43/49/145 35/36/145 34/41/145 37/42/145
f 51/39/146 31/21/146 39/56/146
f 34/41/147 28/33/147 37/42/147
f 33/38/148 27/30/148 36/44/148
f 32/16/149 40/45/149 41/37/149
f 38/43/150 35/36/150 43/49/150
f 33/38/151 36/44/151 42/46/151
f 37/42/152 33/38/152 42/46/152
f 55/67/153 56/156/153 47/47/153 46/52/153
f 36/44/154 46/52/154 42/46/154
f 37/42/155 48/48/155 43/49/155
f 39/56/156 38/43/156 50/50/156
f 50/50/157 43/49/157 49/60/157
f 41/37/158 52/55/158 45/51/158
f 39/56/159 64/57/159 51/39/159
f 47/47/160 42/46/160 46/52/160
f 56/156/161 57/157/161 48/48/161 47/47/161
f 51/39/162 73/61/162 76/58/162
f 58/158/163 49/60/163 48/48/163 57/157/163
f 66/74/164 58/158/164 57/157/164 61/69/164
f 49/60/165 58/158/165 53/159/165
f 50/50/166 49/60/166 53/159/166
f 50/50/167 53/159/167 63/160/167
f 46/52/168 45/51/168 54/62/168
f 64/57/169 50/50/169 63/160/169
f 46/52/170 54/62/170 55/67/170
f 40/45/171 77/63/171 52/55/171
f 57/157/172 56/156/172 61/69/172
f 62/76/173 53/159/173 58/158/173 66/74/173
f 68/65/174 54/62/174 52/55/174 67/64/174
f 60/66/175 61/69/175 56/156/175 55/67/175
f 53/159/176 62/76/176 63/160/176
f 72/79/177 63/160/177 62/76/177 71/75/177
f 69/68/178 65/70/178 61/69/178 60/66/178
f 64/57/179 63/160/179 72/79/179
f 64/57/180 72/79/180 73/61/180
f 96/87/181 73/61/181 72/79/181 87/80/181
f 61/69/182 70/71/182 66/74/182
f 59/27/183 82/73/183 77/63/183
f 66/74/184 75/77/184 71/75/184
f 69/68/185 68/65/185 78/94/185
f 69/68/186 78/94/186 79/85/186
f 79/85/187 74/83/187 65/70/187 69/68/187
f 78/94/188 68/65/188 67/64/188 88/82/188
f 76/58/189 73/61/189 96/87/189
f 70/71/190 65/70/190 74/83/190
f 70/71/191 74/83/191 75/77/191
f 90/98/192 79/85/192 78/94/192 89/93/192
f 75/77/193 85/84/193 80/81/193
f 87/80/194 81/78/194 91/96/194
f 98/107/195 90/98/195 89/93/195 97/113/195
f 83/86/196 79/85/196 90/98/196
f 74/83/197 84/89/197 85/84/197
f 77/63/198 92/91/198 88/82/198
f 81/78/199 80/81/199 86/92/199
f 81/78/200 86/92/200 91/96/200
f 87/80/201 100/97/201 96/87/201
f 84/89/202 83/86/202 93/99/202
f 94/104/203 95/95/203 84/89/203 93/99/203
f 93/99/204 90/98/204 98/107/204
f 97/113/205 89/93/205 88/82/205 105/102/205
f 82/73/206 131/101/206 92/91/206
f 104/121/207 99/103/207 94/104/207 108/110/207
f 86/92/208 99/103/208 91/96/208
f 100/97/209 91/96/209 109/105/209
f 96/87/210 110/106/210 111/88/210
f 93/99/211 103/109/211 94/104/211
f 102/108/212 98/107/212 101/114/212
f 112/115/213 107/116/213 102/108/213 101/114/213
f 92/91/214 118/111/214 105/102/214
f 99/103/215 104/121/215 109/105/215
f 97/113/216 106/112/216 101/114/216
f 127/119/217 111/88/217 110/106/217 117/161/217
f 103/109/218 102/108/218 107/116/218
f 103/109/219 107/116/219 108/110/219
f 116/123/220 122/162/220 110/106/220 109/105/220
f 112/115/221 106/112/221 114/122/221
f 121/133/222 113/125/222 107/130/222 120/132/222
f 110/106/223 122/162/223 117/161/223
f 115/131/224 112/127/224 119/129/224
f 129/146/225 121/133/225 120/132/225 124/135/225
f 120/132/226 115/131/226 124/135/226
f 126/126/227 113/125/227 125/134/227
f 119/129/228 114/128/228 128/136/228
f 122/138/229 116/124/229 126/126/229
f 114/128/230 132/142/230 128/136/230
f 117/149/231 122/138/231 137/139/231
f 124/135/232 119/129/232 123/137/232
f 133/148/233 134/144/233 124/135/233 123/137/233
f 121/133/234 129/146/234 125/134/234
f 124/135/235 135/145/235 129/146/235
f 130/143/236 125/134/236 136/147/236
f 143/155/237 136/147/237 135/145/237 142/163/237
f 130/143/238 138/150/238 137/139/238
f 133/148/239 128/136/239 140/151/239
f 117/149/240 146/53/240 127/11/240
f 139/15/241 6/2/241 132/142/241 131/141/241
f 141/152/242 142/163/242 134/144/242 133/148/242
f 136/147/243 143/155/243 144/154/243
f 132/142/244 6/2/244 2/1/244
f 138/150/245 136/147/245 144/154/245
f 132/142/246 2/1/246 140/151/246
f 137/139/247 145/54/247 146/53/247
f 11/4/248 144/154/248 143/155/248 10/14/248
f 135/145/249 134/144/249 142/163/249
f 142/163/250 3/9/250 143/155/250
f 144/154/251 11/4/251 4/6/251
f 141/152/252 140/151/252 7/19/252
f 145/54/253 138/150/253 12/18/253
f 142/163/254 141/152/254 8/7/254
f 3/9/255 142/163/255 8/7/255
