# Blender 5.0.0
# www.blender.org
mtllib prep_throw_ball0031.mtl
o Sphere
v -1.652375 6.682491 -0.040232
v -1.793469 6.027992 -0.231475
v -2.301445 5.229722 0.017384
v -2.666081 5.263476 0.360146
v -2.958396 6.083027 0.929008
v -1.694749 6.211736 -0.168244
v -1.788063 5.629955 -0.109198
v -2.002146 5.331718 -0.028892
v -1.975536 5.208423 0.210821
v -2.300867 5.147184 0.227776
v -2.432608 5.160133 0.337058
v -2.702140 5.383440 0.650665
v -1.570548 5.863960 0.013822
v -2.441357 5.209733 0.554700
v -1.669216 5.493902 0.142177
v -1.972085 5.194874 0.449348
v -2.203259 5.187953 0.577129
v -1.644612 5.433531 0.382807
v -1.956431 5.269736 0.641980
v -2.265244 5.324064 0.799850
v -2.471788 5.370805 0.802028
v -1.461783 6.068314 0.133760
v -1.470810 5.719970 0.414434
v -1.724932 5.442021 0.687060
v -2.033581 5.375104 0.833005
v -2.744618 5.662217 0.895808
v -1.412723 5.976769 0.299427
v -1.552027 5.665449 0.700342
v -1.809497 5.547271 0.891418
v -2.219431 5.586518 1.037824
v -2.524707 5.606713 0.986123
v -1.474366 6.305637 0.086100
v -1.396780 5.993521 0.631667
v -1.627278 5.804205 0.927208
v -1.866718 5.727518 1.053722
v -1.353105 6.316702 0.572702
v -1.542914 6.076405 0.971497
v -2.188406 5.900806 1.197757
v -2.473697 5.994658 1.190086
v -1.457551 6.704310 0.266794
v -1.376025 6.436675 0.354552
v -1.428786 6.340993 0.846786
v -1.845528 6.131413 1.200083
v -2.825837 5.910730 0.981485
v -1.391065 6.642035 0.587898
v -1.436360 6.647542 0.813344
v -1.553181 6.526542 1.028924
v -1.674726 6.491455 1.141123
v -1.909920 6.470833 1.261747
v -2.230825 6.264163 1.292850
v -2.648944 5.992428 1.125245
v -1.471627 6.889534 0.438848
v -2.184612 6.717405 1.305482
v -1.513613 6.999456 0.686602
v -1.598053 6.981137 0.916118
v -1.700092 6.972690 1.047183
v -1.828625 6.943949 1.154553
v -1.957561 6.854511 1.238259
v -1.528159 6.656251 0.096100
v -1.709973 7.257456 0.792267
v -1.930184 7.255871 1.042623
v -2.328984 6.973330 1.251655
v -2.453900 6.607433 1.286936
v -2.590444 6.450013 1.244888
v -2.046352 7.472270 0.878829
v -2.177023 7.219843 1.150204
v -1.659907 7.191456 0.358899
v -1.688530 7.282158 0.518831
v -1.875945 7.454421 0.693421
v -2.185087 7.444273 0.975886
v -2.496871 7.169416 1.154229
v -2.725156 6.815131 1.167658
v -2.779179 6.420827 1.150438
v -2.390111 7.606227 0.729931
v -2.435627 7.448741 0.969239
v -2.894476 6.272994 1.046533
v -1.651770 7.067853 0.193731
v -1.996850 7.505530 0.378448
v -2.168908 7.602751 0.561199
v -2.671991 7.371836 0.934553
v -2.831356 7.122492 0.997762
v -1.695823 6.919415 0.028836
v -2.436531 7.624536 0.531839
v -2.699816 7.542462 0.478809
v -2.694000 7.506357 0.722915
v -2.951394 7.263948 0.738791
v -2.971467 6.805074 0.979926
v -1.916320 7.307454 0.135906
v -2.188746 7.477077 0.168216
v -2.399348 7.578840 0.312668
v -3.071518 6.974265 0.785864
v -1.895203 7.074080 -0.046210
v -2.733753 7.477102 0.270930
v -2.996583 7.259985 0.314247
v -2.952695 7.342440 0.540015
v -3.032291 6.562609 0.945405
v -2.334876 7.311181 -0.047113
v -2.577189 7.390414 0.055770
v -3.142037 7.039770 0.462087
v -3.152802 6.692070 0.748283
v -2.569534 7.150218 -0.150082
v -2.801273 7.218247 -0.002642
v -2.946993 7.157287 0.074535
v -3.213990 6.771997 0.257108
v -2.109221 7.061923 -0.167610
v -2.314378 7.021223 -0.229769
v -2.946840 6.792281 -0.160104
v -3.096898 6.910316 0.076128
v -3.233613 6.679259 0.504505
v -3.200722 6.396262 0.661118
v -3.059713 6.284959 0.877634
v -2.604783 6.865514 -0.289208
v -3.158964 6.486461 -0.002071
v -2.213558 6.676238 -0.351070
v -2.838840 6.589513 -0.282457
v -3.249964 6.336389 0.283985
v -3.147202 6.032594 0.621561
v -1.960668 6.753507 -0.242767
v -2.558359 6.451174 -0.399669
v -2.936044 6.274063 -0.252347
v -3.057589 6.238976 -0.140148
v -3.214445 6.138445 0.469405
v -2.465150 6.144506 -0.418421
v -2.787075 6.057714 -0.328055
v -3.090372 5.989870 -0.029310
v -3.198533 6.047091 0.208888
v -3.039396 5.963862 0.779550
v -2.222886 6.309654 -0.408687
v -2.910678 5.792829 -0.158407
v -3.065404 5.749793 0.125437
v -1.795919 6.708006 -0.161607
v -1.925103 6.325990 -0.315685
v -2.333742 5.870318 -0.388799
v -2.550665 5.714363 -0.318274
v -2.676026 5.623451 -0.231420
v -2.870307 5.571782 -0.048415
v -3.081638 5.722886 0.398198
v -2.886732 5.435010 0.298363
v -1.636708 6.433887 -0.095685
v -1.981543 5.911474 -0.317757
v -2.113900 5.596102 -0.265454
v -2.361512 5.381336 -0.159803
v -2.564420 5.293249 0.009947
v -2.688162 5.301755 0.133543
v -2.883805 5.519804 0.581625
v -2.964643 5.703517 0.682522
vn 0.6907 -0.1261 -0.7120
vn -0.3815 -0.9045 0.1908
vn 0.2202 -0.8573 -0.4654
vn -0.6900 -0.3355 0.6414
vn 0.1817 -0.9816 -0.0584
vn 0.7522 0.0186 -0.6586
vn -0.3582 -0.8019 0.4782
vn 0.5778 -0.5716 -0.5826
vn -0.4589 -0.6083 0.6476
vn 0.6299 -0.7357 -0.2490
vn 0.8003 -0.0770 -0.5946
vn -0.1251 -0.8617 0.4918
vn 0.7437 0.1898 -0.6410
vn 0.1418 -0.8414 0.5214
vn 0.8867 -0.2400 -0.3952
vn 0.6030 -0.7770 0.1809
vn 0.8398 -0.5249 0.1385
vn 0.4284 -0.7189 0.5475
vn 0.0434 -0.6752 0.7363
vn -0.1396 -0.6517 0.7456
vn 0.2624 -0.5984 0.7570
vn 0.9416 -0.0176 -0.3363
vn 0.9713 -0.2353 -0.0347
vn -0.4336 -0.4261 0.7940
vn 0.6487 -0.5343 0.5419
vn 0.8445 -0.3079 0.4382
vn 0.5253 -0.4712 0.7085
vn 0.1444 -0.4601 0.8761
vn 0.9885 -0.0623 -0.1381
vn 0.8981 0.1496 -0.4136
vn 0.7954 -0.0588 0.6032
vn 0.6881 -0.0764 0.7216
vn 0.1507 -0.2338 0.9605
vn 0.9923 0.1176 -0.0396
vn 0.9755 0.1048 0.1934
vn -0.6266 -0.5671 0.5346
vn 0.9565 0.2343 -0.1740
vn -0.2167 -0.1712 0.9611
vn -0.5400 -0.2468 0.8047
vn -0.6204 -0.2510 0.7431
vn 0.4602 -0.0734 0.8848
vn -0.4179 -0.1794 0.8906
vn 0.9474 0.3196 0.0187
vn 0.8255 0.3525 -0.4407
vn 0.8440 0.4485 -0.2940
vn 0.8126 0.5712 0.1153
vn 0.8107 0.4792 0.3365
vn 0.7294 0.6739 0.1181
vn 0.3262 0.6756 0.6612
vn 0.7316 0.3110 -0.6067
vn -0.0528 0.4077 0.9116
vn -0.0100 0.6132 0.7899
vn -0.4381 0.3142 0.8422
vn -0.5970 0.2202 0.7715
vn -0.2982 0.5716 0.7644
vn 0.6556 0.6197 -0.4315
vn -0.4274 0.4691 0.7729
vn -0.2825 0.8251 0.4893
vn 0.0727 0.9945 0.0749
vn -0.7148 -0.0984 0.6924
vn -0.3233 0.9324 0.1619
vn -0.7092 -0.1826 0.6809
vn 0.6156 0.4968 -0.6117
vn -0.5868 0.6543 0.4769
vn 0.4194 0.7664 -0.4866
vn -0.5952 0.7927 0.1314
vn -0.6482 0.7068 0.2833
vn -0.8136 0.1599 0.5589
vn -0.2553 0.9370 -0.2387
vn 0.6442 0.3206 -0.6944
vn 0.3720 0.5917 -0.7151
vn -0.8532 0.4832 0.1964
vn -0.8437 0.5359 -0.0317
vn -0.9292 0.2662 0.2562
vn -0.8569 -0.0130 0.5153
vn -0.3978 0.7134 -0.5769
vn -0.5461 0.6716 -0.5007
vn -0.7952 0.4802 -0.3702
vn 0.4911 0.3802 -0.7837
vn 0.1461 0.5347 -0.8323
vn -0.9484 0.0620 0.3111
vn -0.1103 0.6447 -0.7564
vn -0.0549 0.4439 -0.8944
vn -0.3933 0.3123 -0.8647
vn -0.7659 -0.2317 0.5998
vn -0.7685 0.2232 -0.5997
vn -0.8859 0.2064 -0.4154
vn 0.2760 0.3510 -0.8948
vn -0.9601 0.0625 -0.2727
vn 0.1994 0.3764 -0.9047
vn -0.9956 0.0792 -0.0493
vn -0.9374 -0.0785 -0.3394
vn -0.0298 0.2544 -0.9666
vn -0.6344 0.1226 -0.7632
vn -0.8760 -0.0951 -0.4728
vn -0.3667 0.0440 -0.9293
vn -0.0012 0.0607 -0.9982
vn -0.9487 -0.3120 0.0515
vn 0.4751 0.1862 -0.8600
vn 0.3384 0.1855 -0.9225
vn -0.8923 -0.3065 -0.3315
vn -0.3910 -0.2941 -0.8721
vn -0.7790 -0.3875 -0.4929
vn -0.9182 -0.3852 -0.0926
vn 0.0853 -0.0665 -0.9941
vn -0.8518 -0.4128 0.3224
vn -0.5454 -0.4511 -0.7064
vn -0.7683 -0.5822 -0.2660
vn 0.2997 -0.0360 -0.9533
vn 0.2193 -0.2485 -0.9435
vn -0.7825 -0.5943 0.1860
vn 0.6530 0.2038 -0.7294
vn -0.5985 -0.7974 -0.0764
vn 0.5250 -0.2434 -0.8156
vn -0.6365 -0.7375 0.2255
vn 0.4157 -0.5025 -0.7580
vn -0.2098 -0.9104 -0.3566
vn 0.1543 -0.9196 -0.3612
vn 0.6463 -0.2160 -0.7318
vn -0.4537 -0.8421 0.2914
vn -0.6729 -0.4239 0.6062
vn 0.0501 -0.9935 0.1019
vn 0.8712 -0.3511 -0.3431
vn 0.7655 -0.0619 -0.6404
vn -0.1092 -0.9701 0.2167
vn 0.7336 -0.3889 -0.5573
vn 0.5637 -0.7074 -0.4264
vn -0.1832 -0.8339 0.5206
vn -0.4254 -0.6333 0.6465
vn 0.5808 -0.8122 -0.0545
vn 0.2146 -0.9161 0.3386
vn 0.5417 -0.7974 0.2659
vn 0.7850 0.1377 -0.6040
vn 0.1067 -0.8349 0.5399
vn -0.1731 -0.4371 0.8826
vn 0.8460 -0.4902 -0.2095
vn -0.1700 -0.6297 0.7580
vn 0.7653 -0.6053 0.2189
vn 0.4070 -0.7203 0.5617
vn 0.6473 -0.5347 0.5432
vn 0.1989 -0.5861 0.7854
vn 0.9519 -0.0396 -0.3038
vn 0.9030 -0.3891 0.1823
vn -0.4484 -0.4188 0.7897
vn 0.5303 -0.3058 0.7908
vn -0.3120 -0.4097 0.8572
vn 0.8169 -0.3301 0.4729
vn 0.9892 -0.1410 -0.0404
vn 0.9045 0.1438 -0.4015
vn 0.2241 -0.3424 0.9124
vn 0.9590 -0.0800 0.2719
vn 0.8865 -0.1818 0.4255
vn 0.7853 0.2210 0.5783
vn 0.9638 0.0523 0.2615
vn 0.5797 -0.1437 0.8020
vn -0.1126 -0.2639 0.9580
vn 0.1854 -0.1415 0.9724
vn 0.9633 0.2294 -0.1398
vn -0.3380 -0.1974 0.9202
vn 0.8580 0.0766 0.5079
vn 0.6223 0.1814 0.7615
vn -0.5003 -0.2016 0.8420
vn 0.4577 0.1209 0.8808
vn 0.3061 0.4002 0.8638
vn 0.2334 0.0883 0.9684
vn 0.1219 -0.0401 0.9917
vn -0.0599 -0.0217 0.9980
vn 0.9444 0.2732 0.1831
vn -0.1832 -0.1022 0.9777
vn 0.8808 0.3193 0.3495
vn 0.8545 0.3869 -0.3466
vn 0.5187 0.4334 0.7370
vn 0.1273 0.2911 0.9482
vn 0.8631 0.4961 -0.0946
vn 0.6446 0.5222 0.5584
vn -0.1236 0.1370 0.9828
vn -0.2791 0.2004 0.9391
vn 0.5573 0.6816 0.4741
vn -0.3603 0.0639 0.9307
vn -0.4502 0.0227 0.8926
vn -0.6100 0.0458 0.7910
vn 0.2443 0.6003 0.7616
vn 0.7713 0.3567 -0.5271
vn -0.0783 0.5623 0.8232
vn 0.6154 0.7806 -0.1096
vn 0.4637 0.8853 -0.0344
vn 0.2903 0.9193 0.2656
vn 0.6332 0.6999 -0.3304
vn -0.6417 -0.0379 0.7660
vn 0.1434 0.8773 0.4581
vn 0.0003 0.8353 0.5498
vn 0.2189 0.9261 -0.3072
vn -0.3317 0.7802 0.5304
vn -0.7271 0.2859 0.6241
vn -0.0059 0.8018 -0.5976
vn 0.1000 0.9773 -0.1868
vn -0.3119 0.9388 0.1463
vn 0.6050 0.5231 -0.6002
vn -0.6130 0.5384 0.5782
vn -0.7327 0.3940 0.5549
vn -0.8095 0.1213 0.5745
vn -0.2405 0.9365 -0.2552
vn -0.6398 0.7552 -0.1426
vn -0.1981 0.8507 -0.4869
vn 0.3150 0.6326 -0.7075
vn 0.5708 0.3837 -0.7259
vn -0.8753 0.4184 -0.2427
vn -0.8724 0.4060 0.2722
vn -0.9277 0.2279 0.2956
vn -0.8476 -0.0453 0.5287
vn -0.6193 0.6671 -0.4139
vn -0.2844 0.6186 -0.7324
vn -0.3936 0.4375 -0.8085
vn 0.4336 0.4050 -0.8050
vn -0.9686 0.2479 0.0161
vn 0.0054 0.5333 -0.8459
vn -0.8574 -0.1887 0.4789
vn -0.5576 0.4487 -0.6984
vn -0.6687 0.4019 -0.6256
vn -0.9897 -0.0439 0.1362
vn 0.0132 0.3351 -0.9421
vn -0.6925 0.1129 -0.7126
vn -0.9396 -0.1705 0.2966
vn -0.2832 0.2173 -0.9341
vn -0.6396 -0.1796 -0.7475
vn -0.4077 0.0385 -0.9123
vn -0.9147 -0.1050 -0.3902
vn 0.0385 0.1542 -0.9873
vn -0.9845 -0.1754 0.0014
vn 0.2880 0.1415 -0.9471
vn -0.9272 -0.3275 0.1819
vn -0.2648 -0.0215 -0.9641
vn -0.2046 -0.1832 -0.9616
vn -0.7099 -0.2062 -0.6734
vn -0.4769 -0.3054 -0.8242
vn -0.7850 -0.3912 -0.4803
vn -0.3830 -0.6260 -0.6793
vn -0.8398 -0.5330 -0.1026
vn 0.2076 -0.0965 -0.9734
vn -0.8313 -0.3873 0.3987
vn 0.5710 0.1273 -0.8110
vn -0.0052 -0.4239 -0.9057
vn -0.5349 -0.6897 -0.4881
vn 0.5391 0.0002 -0.8422
vn -0.6888 -0.6627 -0.2940
vn 0.4448 -0.0561 -0.8939
vn -0.8039 -0.5161 0.2956
vn -0.3056 -0.9186 -0.2507
vn -0.2053 -0.5132 -0.8334
vn -0.1704 -0.7765 -0.6066
vn -0.4115 -0.9044 -0.1127
vn 0.4363 -0.3224 -0.8400
vn -0.6383 -0.7356 0.2268
vn 0.1970 -0.6062 -0.7705
vn 0.1441 -0.7272 -0.6711
vt 0.781230 0.812500
vt 0.762032 0.875000
vt 0.685473 0.777944
vt 0.734697 0.375000
vt 0.703125 0.312500
vt 0.764235 0.312500
vt 0.741874 0.599249
vt 0.704616 0.531266
vt 0.763980 0.500000
vt 0.734375 0.000000
vt 0.879629 0.062500
vt 0.593677 0.062500
vt 0.670132 0.472235
vt 0.734536 0.437500
vt 0.734224 0.937500
vt 0.605595 0.875000
vt 0.658359 0.250000
vt 0.719918 0.218999
vt 0.734375 0.717281
vt 0.678319 0.660608
vt 0.606077 0.187500
vt 0.641330 0.592355
vt 0.623673 0.812500
vt 0.673680 0.375000
vt 0.639230 0.312500
vt 0.640625 1.000000
vt 0.479138 0.937500
vt 0.639064 0.437500
vt 0.612180 0.375000
vt 0.595563 0.750000
vt 0.606567 0.500000
vt 0.603325 0.667055
vt 0.578286 0.562500
vt 0.578286 0.437500
vt 0.577540 0.283466
vt 0.543444 0.396147
vt 0.512752 0.812500
vt 0.546915 0.655822
vt 0.503540 0.125000
vt 0.660224 0.125000
vt 0.544067 0.500000
vt 0.509405 0.537235
vt 0.515588 0.281661
vt 0.510998 0.724803
vt 0.449506 0.875000
vt 0.487180 0.625000
vt 0.453286 0.562500
vt 0.450317 0.500000
vt 0.485851 0.406417
vt 0.453088 0.281661
vt 0.455926 0.750000
vt 0.445771 0.665313
vt 0.799126 0.125000
vt 0.779637 0.187500
vt 0.402284 0.812500
vt 0.497588 0.187500
vt 0.386121 0.187500
vt 0.328120 0.062500
vt 0.453125 0.000000
vt 0.437500 0.406180
vt 0.347717 0.125000
vt 0.390588 0.718339
vt 0.293360 0.875000
vt 0.308534 0.812500
vt 0.316528 0.750000
vt 0.343750 0.656371
vt 0.393429 0.625000
vt 0.296915 0.655822
vt 0.343750 0.531273
vt 0.297036 0.562500
vt 0.294067 0.500000
vt 0.328125 1.000000
vt 0.230145 0.937500
vt 0.328286 0.437500
vt 0.296914 0.344178
vt 0.343750 0.343629
vt 0.265786 0.437500
vt 0.234338 0.281661
vt 0.296902 0.219059
vt 0.214815 0.187500
vt 0.237180 0.375000
vt 0.199790 0.812500
vt 0.237635 0.520573
vt 0.203286 0.437500
vt 0.237180 0.625000
vt 0.203286 0.562500
vt 0.190964 0.125000
vt 0.113605 0.062500
vt 0.169067 0.500000
vt 0.203125 0.000000
vt 0.137012 0.875000
vt 0.176363 0.337227
vt 0.171838 0.718339
vt 0.234338 0.718339
vt 0.148421 0.399333
vt 0.160278 0.250000
vt 0.121065 0.187500
vt 0.174680 0.625000
vt 0.134405 0.537235
vt 0.140625 1.000000
vt 0.030235 0.937500
vt 0.075252 0.812500
vt 0.102021 0.334687
vt 0.109536 0.437500
vt 0.066529 0.250000
vt 0.055088 0.153620
vt 0.112179 0.625000
vt 0.078286 0.562500
vt 0.075317 0.500000
vt 0.047036 0.437500
vt 0.032456 0.875000
vt 0.048167 0.750000
vt 0.108913 0.719958
vt 0.062500 0.658651
vt 0.015664 0.655822
vt 0.018885 0.520574
vt 0.000000 0.562500
vt 0.015625 0.000000
vt 0.000000 0.062500
vt 0.000000 0.399333
vt 0.046914 0.344178
vt 0.000000 0.784407
vt 0.000000 0.273040
vt 0.991904 0.273040
vt 0.992171 0.399333
vt 0.937867 0.282145
vt 1.000000 0.655822
vt 0.975379 0.784407
vt 0.953164 0.655822
vt 1.000000 0.500000
vt 0.984536 0.562500
vt 0.950317 0.500000
vt 0.953286 0.437500
vt 0.924679 0.375000
vt 0.915655 0.537235
vt 0.910279 0.750000
vt 0.906250 0.656371
vt 0.965747 0.187500
vt 0.868449 0.212346
vt 0.978825 0.875000
vt 0.921769 0.937500
vt 0.872374 0.843190
vt 0.887823 0.312500
vt 0.859536 0.562500
vt 0.856567 0.500000
vt 0.890786 0.437500
vt 0.855944 0.396148
vt 0.859414 0.655822
vt 0.939862 0.125000
vt 0.812867 0.282145
vt 0.814726 0.750000
vt 0.796945 0.653777
vt 0.828125 1.000000
vt 0.798190 0.375000
vt 0.797036 0.437500
vt 0.390786 0.562500
vt 0.387817 0.500000
vt 0.390786 0.437500
vt 0.390665 0.344178
vt 0.378980 0.250000
vt 0.000000 0.125000
vt 0.000000 0.187500
vt 0.801816 0.543181
s 0
f 2/1/1 6/2/1 13/3/1
f 11/4/2 14/5/2 4/6/2
f 8/7/3 9/8/3 3/9/3
f 5/10/4 127/11/4 44/12/4
f 9/8/5 16/13/5 10/14/5
f 139/15/6 32/16/6 6/2/6
f 14/5/7 21/17/7 12/18/7
f 7/19/8 15/20/8 8/7/8
f 12/18/9 21/17/9 31/21/9
f 15/20/10 18/22/10 9/8/10
f 32/16/11 22/23/11 13/3/11
f 14/5/12 17/24/12 20/25/12
f 139/15/13 1/26/13 59/27/13
f 19/28/14 25/29/14 17/24/14
f 22/23/15 27/30/15 13/3/15
f 16/13/16 18/22/16 24/31/16
f 18/22/17 23/32/17 28/33/17
f 24/31/18 29/34/18 19/28/18
f 20/25/19 25/29/19 30/35/19
f 20/25/20 30/35/20 21/17/20
f 29/34/21 35/36/21 25/29/21
f 32/16/22 41/37/22 22/23/22
f 23/32/23 27/30/23 33/38/23
f 31/21/24 51/39/24 26/40/24
f 24/31/25 28/33/25 34/41/25
f 28/33/26 33/38/26 37/42/26
f 34/41/27 35/36/27 29/34/27
f 30/35/28 35/36/28 38/43/28
f 41/37/29 36/44/29 27/30/29
f 32/16/30 59/27/30 40/45/30
f 37/42/31 42/46/31 47/47/31
f 37/42/32 47/47/32 48/48/32
f 38/43/33 43/49/33 50/50/33
f 41/37/34 45/51/34 36/44/34
f 36/44/35 45/51/35 46/52/35
f 26/40/36 146/53/36 145/54/36 12/18/36
f 41/37/37 40/45/37 52/55/37
f 39/56/38 50/50/38 64/57/38
f 44/12/39 51/39/39 76/58/39
f 5/59/40 44/12/40 76/58/40
f 48/48/41 49/60/41 43/49/41
f 64/57/42 73/61/42 51/39/42
f 52/55/43 54/62/43 45/51/43
f 59/27/44 77/63/44 40/45/44
f 52/55/45 77/63/45 67/64/45
f 54/62/46 68/65/46 60/66/46
f 54/62/47 60/66/47 55/67/47
f 60/66/48 68/65/48 69/68/48
f 61/69/49 65/70/49 70/71/49
f 59/27/50 1/72/50 82/73/50
f 66/74/51 71/75/51 62/76/51
f 70/71/52 75/77/52 66/74/52
f 71/75/53 81/78/53 72/79/53
f 72/79/54 81/78/54 87/80/54
f 75/77/55 80/81/55 71/75/55
f 67/64/56 77/63/56 88/82/56
f 71/75/57 80/81/57 81/78/57
f 74/83/58 85/84/58 75/77/58
f 74/83/59 79/85/59 83/86/59
f 96/87/60 111/88/60 76/58/60
f 74/83/61 83/86/61 84/89/61
f 5/90/62 76/58/62 111/88/62
f 77/63/63 82/73/63 92/91/63
f 85/84/64 86/92/64 80/81/64
f 88/82/65 89/93/65 78/94/65
f 84/89/66 95/95/66 85/84/66
f 85/84/67 95/95/67 86/92/67
f 87/80/68 91/96/68 100/97/68
f 83/86/69 90/98/69 93/99/69
f 82/73/70 1/100/70 131/101/70
f 92/91/71 105/102/71 88/82/71
f 86/92/72 95/95/72 99/103/72
f 94/104/73 99/103/73 95/95/73
f 99/103/74 109/105/74 91/96/74
f 100/97/75 110/106/75 96/87/75
f 93/99/76 98/107/76 102/108/76
f 93/99/77 102/108/77 103/109/77
f 103/109/78 108/110/78 94/104/78
f 131/101/79 118/111/79 92/91/79
f 105/102/80 106/112/80 97/113/80
f 100/97/81 109/105/81 110/106/81
f 97/113/82 101/114/82 98/107/82
f 101/114/83 106/112/83 112/115/83
f 107/116/84 112/115/84 115/117/84
f 5/118/85 111/88/85 127/119/85
f 107/116/86 113/120/86 108/110/86
f 108/110/87 113/120/87 104/121/87
f 105/102/88 118/111/88 114/122/88
f 104/121/89 113/120/89 116/123/89
f 105/102/90 114/122/90 106/112/90
f 104/121/91 116/123/91 109/105/91
f 116/124/92 113/125/92 126/126/92
f 112/127/93 114/128/93 119/129/93
f 107/130/94 115/131/94 120/132/94
f 121/133/95 125/134/95 113/125/95
f 115/131/96 119/129/96 124/135/96
f 119/129/97 128/136/97 123/137/97
f 122/138/98 126/126/98 137/139/98
f 118/140/99 131/141/99 132/142/99
f 118/140/100 132/142/100 114/128/100
f 126/126/101 125/134/101 130/143/101
f 124/135/102 134/144/102 135/145/102
f 129/146/103 136/147/103 125/134/103
f 130/143/104 137/139/104 126/126/104
f 123/137/105 128/136/105 133/148/105
f 137/139/106 146/53/106 117/149/106
f 135/145/107 136/147/107 129/146/107
f 130/143/108 136/147/108 138/150/108
f 132/142/109 140/151/109 128/136/109
f 133/148/110 140/151/110 141/152/110
f 137/139/111 138/150/111 145/54/111
f 131/141/112 1/153/112 139/15/112
f 138/150/113 144/154/113 4/6/113
f 140/151/114 2/1/114 7/19/114
f 4/6/115 12/18/115 138/150/115
f 141/152/116 7/19/116 8/7/116
f 3/9/117 10/14/117 143/155/117
f 3/9/118 9/8/118 10/14/118
f 7/19/119 2/1/119 13/3/119
f 4/6/120 14/5/120 12/18/120
f 44/12/121 127/11/121 146/53/121 26/40/121
f 17/24/122 11/4/122 10/14/122 16/13/122
f 23/32/123 15/20/123 13/3/123 27/30/123
f 6/2/124 32/16/124 13/3/124
f 11/4/125 17/24/125 14/5/125
f 7/19/126 13/3/126 15/20/126
f 9/8/127 8/7/127 15/20/127
f 21/17/128 14/5/128 20/25/128
f 12/18/129 31/21/129 26/40/129
f 9/8/130 18/22/130 16/13/130
f 16/13/131 19/28/131 17/24/131
f 16/13/132 24/31/132 19/28/132
f 139/15/133 59/27/133 32/16/133
f 20/25/134 17/24/134 25/29/134
f 38/43/135 39/56/135 31/21/135 30/35/135
f 15/20/136 23/32/136 18/22/136
f 21/17/137 30/35/137 31/21/137
f 24/31/138 18/22/138 28/33/138
f 19/28/139 29/34/139 25/29/139
f 24/31/140 34/41/140 29/34/140
f 30/35/141 25/29/141 35/36/141
f 22/23/142 41/37/142 27/30/142
f 28/33/143 23/32/143 33/38/143
f 44/12/144 26/40/144 51/39/144
f 43/49/145 35/36/145 34/41/145 37/42/145
f 51/39/146 31/21/146 39/56/146
f 34/41/147 28/33/147 37/42/147
f 33/38/148 27/30/148 36/44/148
f 32/16/149 40/45/149 41/37/149
f 38/43/150 35/36/150 43/49/150
f 33/38/151 36/44/151 42/46/151
f 37/42/152 33/38/152 42/46/152
f 55/67/153 56/156/153 47/47/153 46/52/153
f 36/44/154 46/52/154 42/46/154
f 37/42/155 48/48/155 43/49/155
f 39/56/156 38/43/156 50/50/156
f 50/50/157 43/49/157 49/60/157
f 41/37/158 52/55/158 45/51/158
f 39/56/159 64/57/159 51/39/159
f 47/47/160 42/46/160 46/52/160
f 56/156/161 57/157/161 48/48/161 47/47/161
f 51/39/162 73/61/162 76/58/162
f 58/158/163 49/60/163 48/48/163 57/157/163
f 66/74/164 58/158/164 57/157/164 61/69/164
f 49/60/165 58/158/165 53/159/165
f 50/50/166 49/60/166 53/159/166
f 50/50/167 53/159/167 63/160/167
f 46/52/168 45/51/168 54/62/168
f 64/57/169 50/50/169 63/160/169
f 46/52/170 54/62/170 55/67/170
f 40/45/171 77/63/171 52/55/171
f 57/157/172 56/156/172 61/69/172
f 62/76/173 53/159/173 58/158/173 66/74/173
f 68/65/174 54/62/174 52/55/174 67/64/174
f 60/66/175 61/69/175 56/156/175 55/67/175
f 53/159/176 62/76/176 63/160/176
f 72/79/177 63/160/177 62/76/177 71/75/177
f 69/68/178 65/70/178 61/69/178 60/66/178
f 64/57/179 63/160/179 72/79/179
f 64/57/180 72/79/180 73/61/180
f 96/87/181 73/61/181 72/79/181 87/80/181
f 61/69/182 70/71/182 66/74/182
f 59/27/183 82/73/183 77/63/183
f 66/74/184 75/77/184 71/75/184
f 69/68/185 68/65/185 78/94/185
f 69/68/186 78/94/186 79/85/186
f 79/85/187 74/83/187 65/70/187 69/68/187
f 78/94/188 68/65/188 67/64/188 88/82/188
f 76/58/189 73/61/189 96/87/189
f 70/71/190 65/70/190 74/83/190
f 70/71/191 74/83/191 75/77/191
f 90/98/192 79/85/192 78/94/192 89/93/192
f 75/77/193 85/84/193 80/81/193
f 87/80/194 81/78/194 91/96/194
f 98/107/195 90/98/195 89/93/195 97/113/195
f 83/86/196 79/85/196 90/98/196
f 74/83/197 84/89/197 85/84/197
f 77/63/198 92/91/198 88/82/198
f 81/78/199 80/81/199 86/92/199
f 81/78/200 86/92/200 91/96/200
f 87/80/201 100/97/201 96/87/201
f 84/89/202 83/86/202 93/99/202
f 94/104/203 95/95/203 84/89/203 93/99/203
f 93/99/204 90/98/204 98/107/204
f 97/113/205 89/93/205 88/82/205 105/102/205
f 82/73/206 131/101/206 92/91/206
f 104/121/207 99/103/207 94/104/207 108/110/207
f 86/92/208 99/103/208 91/96/208
f 100/97/209 91/96/209 109/105/209
f 96/87/210 110/106/210 111/88/210
f 93/99/211 103/109/211 94/104/211
f 102/108/212 98/107/212 101/114/212
f 112/115/213 107/116/213 102/108/213 101/114/213
f 92/91/214 118/111/214 105/102/214
f 99/103/215 104/121/215 109/105/215
f 97/113/216 106/112/216 101/114/216
f 127/119/217 111/88/217 110/106/217 117/161/217
f 103/109/218 102/108/218 107/116/218
f 103/109/219 107/116/219 108/110/219
f 116/123/220 122/162/220 110/106/220 109/105/220
f 112/115/221 106/112/221 114/122/221
f 121/133/222 113/125/222 107/130/222 120/132/222
f 110/106/223 122/162/223 117/161/223
f 115/131/224 112/127/224 119/129/224
f 129/146/225 121/133/225 120/132/225 124/135/225
f 120/132/226 115/131/226 124/135/226
f 126/126/227 113/125/227 125/134/227
f 119/129/228 114/128/228 128/136/228
f 122/138/229 116/124/229 126/126/229
f 114/128/230 132/142/230 128/136/230
f 117/149/231 122/138/231 137/139/231
f 124/135/232 119/129/232 123/137/232
f 133/148/233 134/144/233 124/135/233 123/137/233
f 121/133/234 129/146/234 125/134/234
f 124/135/235 135/145/235 129/146/235
f 130/143/236 125/134/236 136/147/236
f 143/155/237 136/147/237 135/145/237 142/163/237
f 130/143/238 138/150/238 137/139/238
f 133/148/239 128/136/239 140/151/239
f 117/149/240 146/53/240 127/11/240
f 139/15/241 6/2/241 132/142/241 131/141/241
f 141/152/242 142/163/242 134/144/242 133/148/242
f 136/147/243 143/155/243 144/154/243
f 132/142/244 6/2/244 2/1/244
f 138/150/245 136/147/245 144/154/245
f 132/142/246 2/1/246 140/151/246
f 137/139/247 145/54/247 146/53/247
f 11/4/248 144/154/248 143/155/248 10/14/248
f 135/145/249 134/144/249 142/163/249
f 142/163/250 3/9/250 143/155/250
f 144/154/251 11/4/251 4/6/251
f 141/152/252 140/151/252 7/19/252
f 145/54/253 138/150/253 12/18/253
f 142/163/254 141/152/254 8/7/254
f 3/9/255 142/163/255 8/7/255
