# Blender 5.0.0
# www.blender.org
mtllib prep_throw_ball0045.mtl
o Sphere
v -1.415925 6.429244 -0.624122
v -1.639127 5.759471 -0.655595
v -2.199248 5.160142 -0.218375
v -2.525156 5.365283 0.117407
v -2.679554 6.387456 0.491603
v -1.517040 5.942241 -0.640048
v -1.662385 5.422357 -0.449948
v -1.896891 5.197548 -0.297739
v -1.860662 5.160121 -0.041726
v -2.187430 5.155063 0.001534
v -2.306454 5.224804 0.108739
v -2.521851 5.586446 0.370426
v -1.412051 5.656634 -0.393217
v -2.289933 5.349473 0.306516
v -1.535006 5.363439 -0.183711
v -1.836460 5.230178 0.189634
v -2.054235 5.301933 0.323073
v -1.494360 5.386558 0.059234
v -1.795556 5.366607 0.356819
v -2.081280 5.518527 0.508615
v -2.280937 5.593859 0.508767
v -1.272683 5.877416 -0.328359
v -1.290540 5.645157 0.018526
v -1.544806 5.512793 0.352079
v -1.843648 5.545034 0.519477
v -2.513170 5.943930 0.544837
v -1.217907 5.841054 -0.151276
v -1.349904 5.705089 0.307885
v -1.599016 5.696851 0.527839
v -1.987464 5.845108 0.676171
v -2.292568 5.890670 0.634687
v -1.265741 6.088611 -0.426406
v -1.169590 5.970945 0.162582
v -1.389435 5.927581 0.497352
v -1.622520 5.933647 0.645472
v -1.099362 6.251774 0.032253
v -1.274443 6.190062 0.475624
v -1.910334 6.195903 0.758023
v -2.184164 6.324119 0.741473
v -1.192285 6.529110 -0.342896
v -1.130269 6.293045 -0.202515
v -1.146428 6.381828 0.292487
v -1.547394 6.366471 0.694752
v -2.560701 6.222426 0.574837
v -1.102882 6.572481 -0.024163
v -1.126257 6.663204 0.192420
v -1.234084 6.640387 0.430697
v -1.347564 6.663914 0.550987
v -1.571361 6.720701 0.680791
v -1.907034 6.581432 0.769845
v -2.363964 6.324804 0.687061
v -1.171655 6.767781 -0.218805
v -1.814588 7.010823 0.678998
v -1.179198 6.965279 -0.004268
v -1.243355 7.040428 0.223135
v -1.333089 7.093090 0.354756
v -1.453300 7.121988 0.469292
v -1.582201 7.084852 0.574710
v -1.282885 6.433882 -0.492785
v -1.337950 7.276557 0.047494
v -1.532954 7.394691 0.296706
v -1.936869 7.256752 0.576311
v -2.094042 6.938770 0.696814
v -2.248978 6.793988 0.697243
v -1.641481 7.560391 0.096338
v -1.771042 7.433936 0.417930
v -1.335228 7.054769 -0.354964
v -1.339620 7.201287 -0.220814
v -1.491724 7.453721 -0.084283
v -1.772679 7.587874 0.201250
v -2.092495 7.433853 0.446170
v -2.352903 7.134326 0.547399
v -2.447592 6.760602 0.621032
v -1.982299 7.685896 -0.062030
v -2.020971 7.626257 0.204179
v -2.586267 6.600215 0.559199
v -1.354914 6.878065 -0.485953
v -1.635573 7.409778 -0.392417
v -1.779244 7.591359 -0.231969
v -2.265997 7.575263 0.197811
v -2.442992 7.383077 0.320496
v -1.428754 6.685394 -0.608999
v -2.044824 7.640774 -0.253954
v -2.318734 7.582355 -0.275636
v -2.293936 7.632536 -0.034000
v -2.571712 7.444658 0.045827
v -2.615277 7.094895 0.379935
v -1.598225 7.124533 -0.583892
v -1.847993 7.337036 -0.579567
v -2.032936 7.515150 -0.455234
v -2.715393 7.202695 0.160437
v -1.617651 6.835457 -0.707175
v -2.378206 7.452300 -0.458793
v -2.656279 7.298904 -0.358096
v -2.583575 7.450052 -0.162024
v -2.703063 6.860728 0.403425
v -2.029361 7.124942 -0.742837
v -2.251831 7.271666 -0.651996
v -2.808715 7.162053 -0.161411
v -2.827715 6.932593 0.190693
v -2.287477 6.969745 -0.795943
v -2.496463 7.119849 -0.660358
v -2.639733 7.109994 -0.566853
v -2.925889 6.845755 -0.295101
v -1.842095 6.812537 -0.811958
v -2.055132 6.781873 -0.853997
v -2.698013 6.680216 -0.710240
v -2.812840 6.897133 -0.504107
v -2.931666 6.846848 -0.036642
v -2.912966 6.627320 0.175117
v -2.764390 6.576553 0.401535
v -2.363887 6.655023 -0.864287
v -2.924124 6.475096 -0.481966
v -2.001183 6.396174 -0.897418
v -2.622772 6.428560 -0.786670
v -3.002756 6.445495 -0.170761
v -2.900147 6.259312 0.216106
v -1.732919 6.470871 -0.821293
v -2.369768 6.214974 -0.879626
v -2.747915 6.152786 -0.683505
v -2.861394 6.176312 -0.563216
v -2.970240 6.316674 0.049521
v -2.309988 5.902761 -0.833047
v -2.629133 5.898556 -0.713911
v -2.908581 5.982602 -0.400161
v -2.987840 6.136189 -0.180310
v -2.785613 6.233444 0.378335
v -2.052575 6.028214 -0.870496
v -2.762390 5.723610 -0.487275
v -2.893592 5.804454 -0.199433
v -1.566792 6.431961 -0.740176
v -1.747390 6.032989 -0.797288
v -2.204626 5.632854 -0.748943
v -2.428568 5.540553 -0.637706
v -2.553784 5.502594 -0.529090
v -2.734389 5.545685 -0.334292
v -2.887047 5.876631 0.068505
v -2.732193 5.539148 0.029048
v -1.430518 6.170775 -0.622457
v -1.845096 5.645666 -0.704539
v -2.002985 5.382847 -0.578689
v -2.259964 5.251287 -0.419433
v -2.453999 5.256310 -0.228857
v -2.564219 5.325664 -0.107279
v -2.694483 5.718602 0.281355
v -2.746728 5.940649 0.340366
vn 0.6298 -0.3623 -0.6871
vn -0.4532 -0.7365 0.5021
vn 0.0810 -0.9845 -0.1554
vn -0.6575 -0.0967 0.7472
vn 0.0525 -0.9573 0.2844
vn 0.7020 -0.2135 -0.6795
vn -0.3931 -0.5776 0.7154
vn 0.4833 -0.7771 -0.4032
vn -0.4556 -0.3627 0.8129
vn 0.5273 -0.8497 -0.0074
vn 0.7490 -0.2991 -0.5913
vn -0.1833 -0.6526 0.7352
vn 0.7026 -0.0442 -0.7102
vn 0.0682 -0.6620 0.7464
vn 0.8359 -0.4260 -0.3460
vn 0.5042 -0.7581 0.4136
vn 0.7754 -0.5676 0.2766
vn 0.3566 -0.5881 0.7259
vn 0.0106 -0.4589 0.8884
vn -0.1559 -0.4151 0.8963
vn 0.2275 -0.4150 0.8809
vn 0.9085 -0.2002 -0.3669
vn 0.9375 -0.3479 -0.0003
vn -0.4074 -0.1751 0.8963
vn 0.5985 -0.4551 0.6593
vn 0.8244 -0.2953 0.4828
vn 0.4968 -0.3461 0.7959
vn 0.1422 -0.2545 0.9566
vn 0.9649 -0.2056 -0.1632
vn 0.8688 -0.0515 -0.4924
vn 0.8284 -0.0184 0.5598
vn 0.7277 0.0032 0.6859
vn 0.1861 -0.0317 0.9820
vn 0.9911 -0.0125 -0.1327
vn 0.9950 0.0278 0.0958
vn -0.6194 -0.3329 0.7110
vn 0.9517 0.0727 -0.2981
vn -0.1655 0.0698 0.9837
vn -0.4964 0.0023 0.8681
vn -0.5786 -0.0054 0.8156
vn 0.5135 0.0685 0.8554
vn -0.3676 0.0700 0.9274
vn 0.9697 0.1958 -0.1462
vn 0.8057 0.1395 -0.5756
vn 0.8432 0.2564 -0.4726
vn 0.8731 0.4680 -0.1367
vn 0.8928 0.4375 0.1073
vn 0.8025 0.5732 -0.1658
vn 0.4778 0.7864 0.3915
vn 0.6991 0.0770 -0.7109
vn 0.0679 0.6288 0.7746
vn 0.1318 0.8086 0.5734
vn -0.3505 0.5587 0.7517
vn -0.5255 0.4616 0.7147
vn -0.1805 0.7952 0.5789
vn 0.6600 0.3985 -0.6368
vn -0.3279 0.7041 0.6299
vn -0.1484 0.9694 0.1956
vn 0.1981 0.9378 -0.2850
vn -0.6666 0.1390 0.7323
vn -0.1933 0.9673 -0.1644
vn -0.6659 0.0556 0.7440
vn 0.5980 0.2559 -0.7595
vn -0.4870 0.8324 0.2644
vn 0.4457 0.5384 -0.7152
vn -0.4870 0.8638 -0.1294
vn -0.5490 0.8342 0.0530
vn -0.7597 0.3754 0.5309
vn -0.1466 0.8353 -0.5300
vn 0.6088 0.0771 -0.7896
vn 0.3682 0.3437 -0.8639
vn -0.7863 0.6148 0.0608
vn -0.7752 0.6057 -0.1794
vn -0.8826 0.4244 0.2023
vn -0.8145 0.1997 0.5447
vn -0.3296 0.5724 -0.7508
vn -0.4750 0.5736 -0.6674
vn -0.7448 0.4644 -0.4793
vn 0.4594 0.1298 -0.8787
vn 0.1439 0.2952 -0.9445
vn -0.9141 0.2385 0.3280
vn -0.0781 0.4365 -0.8963
vn -0.0604 0.2258 -0.9723
vn -0.4042 0.1530 -0.9018
vn -0.7292 -0.0012 0.6843
vn -0.7727 0.1717 -0.6111
vn -0.8806 0.2099 -0.4247
vn 0.2445 0.1045 -0.9640
vn -0.9658 0.1130 -0.2333
vn 0.1732 0.1341 -0.9757
vn -0.9831 0.1817 -0.0227
vn -0.9679 -0.0390 -0.2483
vn -0.0657 0.0356 -0.9972
vn -0.6689 0.0256 -0.7429
vn -0.9223 -0.0915 -0.3756
vn -0.4286 -0.1178 -0.8958
vn -0.0656 -0.1595 -0.9850
vn -0.9624 -0.1729 0.2095
vn 0.4258 -0.0636 -0.9026
vn 0.2884 -0.0619 -0.9555
vn -0.9518 -0.2612 -0.1607
vn -0.5076 -0.4418 -0.7396
vn -0.8709 -0.3919 -0.2964
vn -0.9558 -0.2772 0.0980
vn 0.0051 -0.2957 -0.9553
vn -0.8457 -0.2170 0.4876
vn -0.6734 -0.5401 -0.5049
vn -0.8527 -0.5224 -0.0042
vn 0.2280 -0.2808 -0.9323
vn 0.1241 -0.4882 -0.8639
vn -0.8060 -0.4187 0.4183
vn 0.6088 -0.0395 -0.7923
vn -0.6823 -0.6904 0.2404
vn 0.4477 -0.4880 -0.7493
vn -0.6735 -0.5522 0.4915
vn 0.3129 -0.7343 -0.6024
vn -0.3531 -0.9356 -0.0026
vn 0.0123 -0.9996 -0.0238
vn 0.5782 -0.4536 -0.6782
vn -0.5036 -0.6472 0.5723
vn -0.6486 -0.1859 0.7380
vn -0.0649 -0.8972 0.4367
vn 0.8135 -0.5228 -0.2547
vn 0.7123 -0.2904 -0.6390
vn -0.2030 -0.8206 0.5342
vn 0.6625 -0.5991 -0.4496
vn 0.4583 -0.8679 -0.1917
vn -0.2315 -0.6152 0.7536
vn -0.4265 -0.3882 0.8170
vn 0.4716 -0.8565 0.2100
vn 0.1162 -0.7833 0.6108
vn 0.4435 -0.7445 0.4990
vn 0.7434 -0.0905 -0.6627
vn 0.0374 -0.6474 0.7612
vn -0.1559 -0.1960 0.9681
vn 0.7780 -0.6243 -0.0707
vn -0.1810 -0.3901 0.9028
vn 0.6913 -0.6126 0.3832
vn 0.3367 -0.5832 0.7393
vn 0.5971 -0.4550 0.6607
vn 0.1708 -0.3905 0.9046
vn 0.9195 -0.2155 -0.3287
vn 0.8591 -0.4369 0.2667
vn -0.4211 -0.1679 0.8913
vn 0.5348 -0.1790 0.8258
vn -0.2864 -0.1610 0.9445
vn 0.7952 -0.3050 0.5241
vn 0.9647 -0.2602 -0.0408
vn 0.8758 -0.0551 -0.4796
vn 0.2380 -0.1506 0.9595
vn 0.9623 -0.1298 0.2389
vn 0.8858 -0.1846 0.4259
vn 0.8626 0.2486 0.4406
vn 0.9835 -0.0062 0.1809
vn 0.6135 -0.0308 0.7891
vn -0.0743 -0.0299 0.9968
vn 0.2350 0.0541 0.9705
vn 0.9614 0.0747 -0.2647
vn -0.2891 0.0501 0.9560
vn 0.9048 0.0836 0.4175
vn 0.7118 0.2721 0.6476
vn -0.4526 0.0481 0.8904
vn 0.5458 0.2593 0.7968
vn 0.4373 0.5611 0.7028
vn 0.3198 0.2738 0.9071
vn 0.1887 0.1642 0.9682
vn 0.0095 0.2050 0.9787
vn 0.9815 0.1894 0.0266
vn -0.1242 0.1359 0.9829
vn 0.9444 0.2790 0.1742
vn 0.8444 0.1879 -0.5017
vn 0.6471 0.5336 0.5445
vn 0.2419 0.4914 0.8367
vn 0.8877 0.3425 -0.3076
vn 0.7648 0.5584 0.3213
vn -0.0361 0.3697 0.9284
vn -0.1914 0.4438 0.8754
vn 0.6870 0.7031 0.1833
vn -0.2880 0.3109 0.9058
vn -0.3842 0.2712 0.8825
vn -0.5489 0.2900 0.7839
vn 0.3938 0.7507 0.5304
vn 0.7461 0.1310 -0.6529
vn 0.0553 0.7735 0.6314
vn 0.6716 0.6222 -0.4023
vn 0.5474 0.7540 -0.3631
vn 0.4225 0.9016 -0.0923
vn 0.6553 0.4942 -0.5712
vn -0.5867 0.2053 0.7833
vn 0.2939 0.9484 0.1191
vn 0.1512 0.9597 0.2370
vn 0.2922 0.7434 -0.6017
vn -0.2033 0.9446 0.2579
vn -0.6610 0.5089 0.5514
vn 0.0482 0.5929 -0.8038
vn 0.1980 0.8368 -0.5105
vn -0.1818 0.9663 -0.1820
vn 0.5906 0.2827 -0.7559
vn -0.5235 0.7455 0.4125
vn -0.6613 0.6036 0.4453
vn -0.7569 0.3398 0.5583
vn -0.1335 0.8280 -0.5446
vn -0.5428 0.7540 -0.3699
vn -0.1175 0.6859 -0.7181
vn 0.3193 0.3869 -0.8651
vn 0.5398 0.1360 -0.8307
vn -0.8294 0.4468 -0.3354
vn -0.8119 0.5601 0.1647
vn -0.8825 0.3955 0.2544
vn -0.8059 0.1702 0.5670
vn -0.5436 0.6005 -0.5865
vn -0.2440 0.4407 -0.8639
vn -0.3804 0.2784 -0.8819
vn 0.4050 0.1540 -0.9012
vn -0.9344 0.3556 -0.0224
vn 0.0109 0.3075 -0.9515
vn -0.8257 0.0239 0.5637
vn -0.5314 0.3321 -0.7793
vn -0.6444 0.3192 -0.6949
vn -0.9746 0.1032 0.1988
vn -0.0121 0.1102 -0.9938
vn -0.7247 0.0342 -0.6882
vn -0.9202 0.0115 0.3912
vn -0.3168 0.0373 -0.9478
vn -0.7274 -0.2649 -0.6330
vn -0.4693 -0.1146 -0.8756
vn -0.9540 -0.0782 -0.2893
vn -0.0132 -0.0711 -0.9974
vn -0.9919 -0.0514 0.1163
vn 0.2335 -0.1034 -0.9668
vn -0.9283 -0.1610 0.3351
vn -0.3402 -0.2021 -0.9184
vn -0.3055 -0.3726 -0.8763
vn -0.7951 -0.2654 -0.5454
vn -0.5926 -0.4305 -0.6808
vn -0.8757 -0.3917 -0.2822
vn -0.5311 -0.7331 -0.4248
vn -0.8942 -0.4263 0.1367
vn 0.1272 -0.3359 -0.9333
vn -0.8169 -0.1796 0.5481
vn 0.5192 -0.1203 -0.8462
vn -0.1307 -0.6371 -0.7597
vn -0.6677 -0.7183 -0.1956
vn 0.4778 -0.2475 -0.8429
vn -0.7878 -0.6158 -0.0063
vn 0.3762 -0.3044 -0.8751
vn -0.8086 -0.3213 0.4930
vn -0.4356 -0.8938 0.1070
vn -0.3474 -0.6854 -0.6400
vn -0.3250 -0.8944 -0.3073
vn -0.5187 -0.8220 0.2351
vn 0.3480 -0.5667 -0.7468
vn -0.6749 -0.5500 0.4920
vn 0.0686 -0.8207 -0.5672
vn 0.0040 -0.9103 -0.4139
vt 0.781230 0.812500
vt 0.762032 0.875000
vt 0.685473 0.777944
vt 0.734697 0.375000
vt 0.703125 0.312500
vt 0.764235 0.312500
vt 0.741874 0.599249
vt 0.704616 0.531266
vt 0.763980 0.500000
vt 0.734375 0.000000
vt 0.879629 0.062500
vt 0.593677 0.062500
vt 0.670132 0.472235
vt 0.734536 0.437500
vt 0.734224 0.937500
vt 0.605595 0.875000
vt 0.658359 0.250000
vt 0.719918 0.218999
vt 0.734375 0.717281
vt 0.678319 0.660608
vt 0.606077 0.187500
vt 0.641330 0.592355
vt 0.623673 0.812500
vt 0.673680 0.375000
vt 0.639230 0.312500
vt 0.640625 1.000000
vt 0.479138 0.937500
vt 0.639064 0.437500
vt 0.612180 0.375000
vt 0.595563 0.750000
vt 0.606567 0.500000
vt 0.603325 0.667055
vt 0.578286 0.562500
vt 0.578286 0.437500
vt 0.577540 0.283466
vt 0.543444 0.396147
vt 0.512752 0.812500
vt 0.546915 0.655822
vt 0.503540 0.125000
vt 0.660224 0.125000
vt 0.544067 0.500000
vt 0.509405 0.537235
vt 0.515588 0.281661
vt 0.510998 0.724803
vt 0.449506 0.875000
vt 0.487180 0.625000
vt 0.453286 0.562500
vt 0.450317 0.500000
vt 0.485851 0.406417
vt 0.453088 0.281661
vt 0.455926 0.750000
vt 0.445771 0.665313
vt 0.799126 0.125000
vt 0.779637 0.187500
vt 0.402284 0.812500
vt 0.497588 0.187500
vt 0.386121 0.187500
vt 0.328120 0.062500
vt 0.453125 0.000000
vt 0.437500 0.406180
vt 0.347717 0.125000
vt 0.390588 0.718339
vt 0.293360 0.875000
vt 0.308534 0.812500
vt 0.316528 0.750000
vt 0.343750 0.656371
vt 0.393429 0.625000
vt 0.296915 0.655822
vt 0.343750 0.531273
vt 0.297036 0.562500
vt 0.294067 0.500000
vt 0.328125 1.000000
vt 0.230145 0.937500
vt 0.328286 0.437500
vt 0.296914 0.344178
vt 0.343750 0.343629
vt 0.265786 0.437500
vt 0.234338 0.281661
vt 0.296902 0.219059
vt 0.214815 0.187500
vt 0.237180 0.375000
vt 0.199790 0.812500
vt 0.237635 0.520573
vt 0.203286 0.437500
vt 0.237180 0.625000
vt 0.203286 0.562500
vt 0.190964 0.125000
vt 0.113605 0.062500
vt 0.169067 0.500000
vt 0.203125 0.000000
vt 0.137012 0.875000
vt 0.176363 0.337227
vt 0.171838 0.718339
vt 0.234338 0.718339
vt 0.148421 0.399333
vt 0.160278 0.250000
vt 0.121065 0.187500
vt 0.174680 0.625000
vt 0.134405 0.537235
vt 0.140625 1.000000
vt 0.030235 0.937500
vt 0.075252 0.812500
vt 0.102021 0.334687
vt 0.109536 0.437500
vt 0.066529 0.250000
vt 0.055088 0.153620
vt 0.112179 0.625000
vt 0.078286 0.562500
vt 0.075317 0.500000
vt 0.047036 0.437500
vt 0.032456 0.875000
vt 0.048167 0.750000
vt 0.108913 0.719958
vt 0.062500 0.658651
vt 0.015664 0.655822
vt 0.018885 0.520574
vt 0.000000 0.562500
vt 0.015625 0.000000
vt 0.000000 0.062500
vt 0.000000 0.399333
vt 0.046914 0.344178
vt 0.000000 0.784407
vt 0.000000 0.273040
vt 0.991904 0.273040
vt 0.992171 0.399333
vt 0.937867 0.282145
vt 1.000000 0.655822
vt 0.975379 0.784407
vt 0.953164 0.655822
vt 1.000000 0.500000
vt 0.984536 0.562500
vt 0.950317 0.500000
vt 0.953286 0.437500
vt 0.924679 0.375000
vt 0.915655 0.537235
vt 0.910279 0.750000
vt 0.906250 0.656371
vt 0.965747 0.187500
vt 0.868449 0.212346
vt 0.978825 0.875000
vt 0.921769 0.937500
vt 0.872374 0.843190
vt 0.887823 0.312500
vt 0.859536 0.562500
vt 0.856567 0.500000
vt 0.890786 0.437500
vt 0.855944 0.396148
vt 0.859414 0.655822
vt 0.939862 0.125000
vt 0.812867 0.282145
vt 0.814726 0.750000
vt 0.796945 0.653777
vt 0.828125 1.000000
vt 0.798190 0.375000
vt 0.797036 0.437500
vt 0.390786 0.562500
vt 0.387817 0.500000
vt 0.390786 0.437500
vt 0.390665 0.344178
vt 0.378980 0.250000
vt 0.000000 0.125000
vt 0.000000 0.187500
vt 0.801816 0.543181
s 0
f 2/1/1 6/2/1 13/3/1
f 11/4/2 14/5/2 4/6/2
f 8/7/3 9/8/3 3/9/3
f 5/10/4 127/11/4 44/12/4
f 9/8/5 16/13/5 10/14/5
f 139/15/6 32/16/6 6/2/6
f 14/5/7 21/17/7 12/18/7
f 7/19/8 15/20/8 8/7/8
f 12/18/9 21/17/9 31/21/9
f 15/20/10 18/22/10 9/8/10
f 32/16/11 22/23/11 13/3/11
f 14/5/12 17/24/12 20/25/12
f 139/15/13 1/26/13 59/27/13
f 19/28/14 25/29/14 17/24/14
f 22/23/15 27/30/15 13/3/15
f 16/13/16 18/22/16 24/31/16
f 18/22/17 23/32/17 28/33/17
f 24/31/18 29/34/18 19/28/18
f 20/25/19 25/29/19 30/35/19
f 20/25/20 30/35/20 21/17/20
f 29/34/21 35/36/21 25/29/21
f 32/16/22 41/37/22 22/23/22
f 23/32/23 27/30/23 33/38/23
f 31/21/24 51/39/24 26/40/24
f 24/31/25 28/33/25 34/41/25
f 28/33/26 33/38/26 37/42/26
f 34/41/27 35/36/27 29/34/27
f 30/35/28 35/36/28 38/43/28
f 41/37/29 36/44/29 27/30/29
f 32/16/30 59/27/30 40/45/30
f 37/42/31 42/46/31 47/47/31
f 37/42/32 47/47/32 48/48/32
f 38/43/33 43/49/33 50/50/33
f 41/37/34 45/51/34 36/44/34
f 36/44/35 45/51/35 46/52/35
f 26/40/36 146/53/36 145/54/36 12/18/36
f 41/37/37 40/45/37 52/55/37
f 39/56/38 50/50/38 64/57/38
f 44/12/39 51/39/39 76/58/39
f 5/59/40 44/12/40 76/58/40
f 48/48/41 49/60/41 43/49/41
f 64/57/42 73/61/42 51/39/42
f 52/55/43 54/62/43 45/51/43
f 59/27/44 77/63/44 40/45/44
f 52/55/45 77/63/45 67/64/45
f 54/62/46 68/65/46 60/66/46
f 54/62/47 60/66/47 55/67/47
f 60/66/48 68/65/48 69/68/48
f 61/69/49 65/70/49 70/71/49
f 59/27/50 1/72/50 82/73/50
f 66/74/51 71/75/51 62/76/51
f 70/71/52 75/77/52 66/74/52
f 71/75/53 81/78/53 72/79/53
f 72/79/54 81/78/54 87/80/54
f 75/77/55 80/81/55 71/75/55
f 67/64/56 77/63/56 88/82/56
f 71/75/57 80/81/57 81/78/57
f 74/83/58 85/84/58 75/77/58
f 74/83/59 79/85/59 83/86/59
f 96/87/60 111/88/60 76/58/60
f 74/83/61 83/86/61 84/89/61
f 5/90/62 76/58/62 111/88/62
f 77/63/63 82/73/63 92/91/63
f 85/84/64 86/92/64 80/81/64
f 88/82/65 89/93/65 78/94/65
f 84/89/66 95/95/66 85/84/66
f 85/84/67 95/95/67 86/92/67
f 87/80/68 91/96/68 100/97/68
f 83/86/69 90/98/69 93/99/69
f 82/73/70 1/100/70 131/101/70
f 92/91/71 105/102/71 88/82/71
f 86/92/72 95/95/72 99/103/72
f 94/104/73 99/103/73 95/95/73
f 99/103/74 109/105/74 91/96/74
f 100/97/75 110/106/75 96/87/75
f 93/99/76 98/107/76 102/108/76
f 93/99/77 102/108/77 103/109/77
f 103/109/78 108/110/78 94/104/78
f 131/101/79 118/111/79 92/91/79
f 105/102/80 106/112/80 97/113/80
f 100/97/81 109/105/81 110/106/81
f 97/113/82 101/114/82 98/107/82
f 101/114/83 106/112/83 112/115/83
f 107/116/84 112/115/84 115/117/84
f 5/118/85 111/88/85 127/119/85
f 107/116/86 113/120/86 108/110/86
f 108/110/87 113/120/87 104/121/87
f 105/102/88 118/111/88 114/122/88
f 104/121/89 113/120/89 116/123/89
f 105/102/90 114/122/90 106/112/90
f 104/121/91 116/123/91 109/105/91
f 116/124/92 113/125/92 126/126/92
f 112/127/93 114/128/93 119/129/93
f 107/130/94 115/131/94 120/132/94
f 121/133/95 125/134/95 113/125/95
f 115/131/96 119/129/96 124/135/96
f 119/129/97 128/136/97 123/137/97
f 122/138/98 126/126/98 137/139/98
f 118/140/99 131/141/99 132/142/99
f 118/140/100 132/142/100 114/128/100
f 126/126/101 125/134/101 130/143/101
f 124/135/102 134/144/102 135/145/102
f 129/146/103 136/147/103 125/134/103
f 130/143/104 137/139/104 126/126/104
f 123/137/105 128/136/105 133/148/105
f 137/139/106 146/53/106 117/149/106
f 135/145/107 136/147/107 129/146/107
f 130/143/108 136/147/108 138/150/108
f 132/142/109 140/151/109 128/136/109
f 133/148/110 140/151/110 141/152/110
f 137/139/111 138/150/111 145/54/111
f 131/141/112 1/153/112 139/15/112
f 138/150/113 144/154/113 4/6/113
f 140/151/114 2/1/114 7/19/114
f 4/6/115 12/18/115 138/150/115
f 141/152/116 7/19/116 8/7/116
f 3/9/117 10/14/117 143/155/117
f 3/9/118 9/8/118 10/14/118
f 7/19/119 2/1/119 13/3/119
f 4/6/120 14/5/120 12/18/120
f 44/12/121 127/11/121 146/53/121 26/40/121
f 17/24/122 11/4/122 10/14/122 16/13/122
f 23/32/123 15/20/123 13/3/123 27/30/123
f 6/2/124 32/16/124 13/3/124
f 11/4/125 17/24/125 14/5/125
f 7/19/126 13/3/126 15/20/126
f 9/8/127 8/7/127 15/20/127
f 21/17/128 14/5/128 20/25/128
f 12/18/129 31/21/129 26/40/129
f 9/8/130 18/22/130 16/13/130
f 16/13/131 19/28/131 17/24/131
f 16/13/132 24/31/132 19/28/132
f 139/15/133 59/27/133 32/16/133
f 20/25/134 17/24/134 25/29/134
f 38/43/135 39/56/135 31/21/135 30/35/135
f 15/20/136 23/32/136 18/22/136
f 21/17/137 30/35/137 31/21/137
f 24/31/138 18/22/138 28/33/138
f 19/28/139 29/34/139 25/29/139
f 24/31/140 34/41/140 29/34/140
f 30/35/141 25/29/141 35/36/141
f 22/23/142 41/37/142 27/30/142
f 28/33/143 23/32/143 33/38/143
f 44/12/144 26/40/144 51/39/144
f 43/49/145 35/36/145 34/41/145 37/42/145
f 51/39/146 31/21/146 39/56/146
f 34/41/147 28/33/147 37/42/147
f 33/38/148 27/30/148 36/44/148
f 32/16/149 40/45/149 41/37/149
f 38/43/150 35/36/150 43/49/150
f 33/38/151 36/44/151 42/46/151
f 37/42/152 33/38/152 42/46/152
f 55/67/153 56/156/153 47/47/153 46/52/153
f 36/44/154 46/52/154 42/46/154
f 37/42/155 48/48/155 43/49/155
f 39/56/156 38/43/156 50/50/156
f 50/50/157 43/49/157 49/60/157
f 41/37/158 52/55/158 45/51/158
f 39/56/159 64/57/159 51/39/159
f 47/47/160 42/46/160 46/52/160
f 56/156/161 57/157/161 48/48/161 47/47/161
f 51/39/162 73/61/162 76/58/162
f 58/158/163 49/60/163 48/48/163 57/157/163
f 66/74/164 58/158/164 57/157/164 61/69/164
f 49/60/165 58/158/165 53/159/165
f 50/50/166 49/60/166 53/159/166
f 50/50/167 53/159/167 63/160/167
f 46/52/168 45/51/168 54/62/168
f 64/57/169 50/50/169 63/160/169
f 46/52/170 54/62/170 55/67/170
f 40/45/171 77/63/171 52/55/171
f 57/157/172 56/156/172 61/69/172
f 62/76/173 53/159/173 58/158/173 66/74/173
f 68/65/174 54/62/174 52/55/174 67/64/174
f 60/66/175 61/69/175 56/156/175 55/67/175
f 53/159/176 62/76/176 63/160/176
f 72/79/177 63/160/177 62/76/177 71/75/177
f 69/68/178 65/70/178 61/69/178 60/66/178
f 64/57/179 63/160/179 72/79/179
f 64/57/180 72/79/180 73/61/180
f 96/87/181 73/61/181 72/79/181 87/80/181
f 61/69/182 70/71/182 66/74/182
f 59/27/183 82/73/183 77/63/183
f 66/74/184 75/77/184 71/75/184
f 69/68/185 68/65/185 78/94/185
f 69/68/186 78/94/186 79/85/186
f 79/85/187 74/83/187 65/70/187 69/68/187
f 78/94/188 68/65/188 67/64/188 88/82/188
f 76/58/189 73/61/189 96/87/189
f 70/71/190 65/70/190 74/83/190
f 70/71/191 74/83/191 75/77/191
f 90/98/192 79/85/192 78/94/192 89/93/192
f 75/77/193 85/84/193 80/81/193
f 87/80/194 81/78/194 91/96/194
f 98/107/195 90/98/195 89/93/195 97/113/195
f 83/86/196 79/85/196 90/98/196
f 74/83/197 84/89/197 85/84/197
f 77/63/198 92/91/198 88/82/198
f 81/78/199 80/81/199 86/92/199
f 81/78/200 86/92/200 91/96/200
f 87/80/201 100/97/201 96/87/201
f 84/89/202 83/86/202 93/99/202
f 94/104/203 95/95/203 84/89/203 93/99/203
f 93/99/204 90/98/204 98/107/204
f 97/113/205 89/93/205 88/82/205 105/102/205
f 82/73/206 131/101/206 92/91/206
f 104/121/207 99/103/207 94/104/207 108/110/207
f 86/92/208 99/103/208 91/96/208
f 100/97/209 91/96/209 109/105/209
f 96/87/210 110/106/210 111/88/210
f 93/99/211 103/109/211 94/104/211
f 102/108/212 98/107/212 101/114/212
f 112/115/213 107/116/213 102/108/213 101/114/213
f 92/91/214 118/111/214 105/102/214
f 99/103/215 104/121/215 109/105/215
f 97/113/216 106/112/216 101/114/216
f 127/119/217 111/88/217 110/106/217 117/161/217
f 103/109/218 102/108/218 107/116/218
f 103/109/219 107/116/219 108/110/219
f 116/123/220 122/162/220 110/106/220 109/105/220
f 112/115/221 106/112/221 114/122/221
f 121/133/222 113/125/222 107/130/222 120/132/222
f 110/106/223 122/162/223 117/161/223
f 115/131/224 112/127/224 119/129/224
f 129/146/225 121/133/225 120/132/225 124/135/225
f 120/132/226 115/131/226 124/135/226
f 126/126/227 113/125/227 125/134/227
f 119/129/228 114/128/228 128/136/228
f 122/138/229 116/124/229 126/126/229
f 114/128/230 132/142/230 128/136/230
f 117/149/231 122/138/231 137/139/231
f 124/135/232 119/129/232 123/137/232
f 133/148/233 134/144/233 124/135/233 123/137/233
f 121/133/234 129/146/234 125/134/234
f 124/135/235 135/145/235 129/146/235
f 130/143/236 125/134/236 136/147/236
f 143/155/237 136/147/237 135/145/237 142/163/237
f 130/143/238 138/150/238 137/139/238
f 133/148/239 128/136/239 140/151/239
f 117/149/240 146/53/240 127/11/240
f 139/15/241 6/2/241 132/142/241 131/141/241
f 141/152/242 142/163/242 134/144/242 133/148/242
f 136/147/243 143/155/243 144/154/243
f 132/142/244 6/2/244 2/1/244
f 138/150/245 136/147/245 144/154/245
f 132/142/246 2/1/246 140/151/246
f 137/139/247 145/54/247 146/53/247
f 11/4/248 144/154/248 143/155/248 10/14/248
f 135/145/249 134/144/249 142/163/249
f 142/163/250 3/9/250 143/155/250
f 144/154/251 11/4/251 4/6/251
f 141/152/252 140/151/252 7/19/252
f 145/54/253 138/150/253 12/18/253
f 142/163/254 141/152/254 8/7/254
f 3/9/255 142/163/255 8/7/255
