# Blender 5.0.0
# www.blender.org
mtllib prep_throw_ball0044.mtl
o Sphere
v -1.420641 6.440266 -0.606731
v -1.641831 5.770078 -0.643272
v -2.201325 5.163893 -0.211318
v -2.528672 5.364112 0.125225
v -2.686960 6.381510 0.506166
v -1.520312 5.953102 -0.626222
v -1.664637 5.430598 -0.440009
v -1.898878 5.203262 -0.289823
v -1.863189 5.163106 -0.034008
v -2.190049 5.156400 0.008570
v -2.309544 5.224516 0.116018
v -2.526644 5.582451 0.379768
v -1.415124 5.665124 -0.381168
v -2.293883 5.347030 0.314681
v -1.537762 5.369163 -0.173939
v -1.839773 5.230662 0.197875
v -2.058092 5.300147 0.331375
v -1.497797 5.389712 0.069235
v -1.799686 5.365364 0.366076
v -2.086229 5.514562 0.518352
v -2.286102 5.589178 0.518630
v -1.276557 5.885669 -0.314511
v -1.294621 5.649482 0.030720
v -1.549348 5.512490 0.362841
v -1.848703 5.541794 0.529866
v -2.519434 5.938002 0.556660
v -1.222124 5.847526 -0.137578
v -1.354889 5.705966 0.320363
v -1.604532 5.694383 0.539760
v -1.993779 5.839591 0.688343
v -2.298907 5.884527 0.646574
v -1.269976 6.097974 -0.411080
v -1.174976 5.974077 0.177259
v -1.395540 5.926191 0.511283
v -1.629015 5.929771 0.658978
v -1.105228 6.256601 0.049016
v -1.281251 6.189313 0.491596
v -1.917868 6.189732 0.772769
v -2.192023 6.317150 0.756566
v -1.198001 6.537784 -0.324384
v -1.135660 6.300382 -0.185519
v -1.153327 6.383574 0.310045
v -1.555262 6.362293 0.711396
v -2.567843 6.215981 0.588490
v -1.109530 6.577911 -0.005189
v -1.133713 6.666127 0.211967
v -1.242077 6.640265 0.449863
v -1.355927 6.662042 0.570087
v -1.580215 6.716578 0.699836
v -1.915709 6.575123 0.787262
v -2.371687 6.317802 0.701805
v -1.178373 6.775131 -0.198608
v -1.824271 7.005840 0.699568
v -1.187028 6.970197 0.017270
v -1.251976 7.042574 0.245057
v -1.342194 7.093443 0.376859
v -1.462777 7.120631 0.491353
v -1.591836 7.081860 0.596255
v -1.287947 6.443911 -0.475104
v -1.346807 7.280318 0.070868
v -1.542780 7.394967 0.320502
v -1.947001 7.252470 0.598344
v -2.103561 6.932595 0.716334
v -2.258079 6.787262 0.715457
v -1.651277 7.562511 0.121073
v -1.781286 7.432007 0.441522
v -1.342427 7.063045 -0.333101
v -1.347582 7.208042 -0.197952
v -1.500757 7.458397 -0.059983
v -1.782818 7.588353 0.225911
v -2.102807 7.430462 0.469125
v -2.362605 7.128888 0.567766
v -2.456403 6.754021 0.638627
v -1.992054 7.688564 -0.037094
v -2.031226 7.625816 0.228616
v -2.594458 6.593837 0.575414
v -1.361273 6.887741 -0.465345
v -1.643699 7.417385 -0.368692
v -1.788298 7.596654 -0.207279
v -2.276087 7.574021 0.221412
v -2.452837 7.379842 0.342414
v -1.434246 6.696190 -0.589863
v -2.053963 7.645365 -0.229445
v -2.327647 7.586213 -0.252071
v -2.303606 7.633781 -0.010049
v -2.581039 7.444029 0.067927
v -2.624440 7.090394 0.399519
v -1.605045 7.134425 -0.562057
v -1.855435 7.345979 -0.556756
v -2.041204 7.522037 -0.431562
v -2.724312 7.200285 0.180577
v -1.623326 6.846669 -0.687371
v -2.386281 7.457999 -0.436237
v -2.664165 7.302493 -0.337153
v -2.592393 7.451703 -0.139901
v -2.711610 6.855661 0.421216
v -2.035777 7.135072 -0.721843
v -2.258898 7.279981 -0.630431
v -2.816702 7.162907 -0.141723
v -2.835930 6.929456 0.208743
v -2.293310 6.979554 -0.776529
v -2.503069 7.127392 -0.640325
v -2.646546 7.115983 -0.547174
v -2.932625 6.847698 -0.277824
v -1.847438 6.824121 -0.792751
v -2.060278 6.793168 -0.835420
v -2.703224 6.687616 -0.693641
v -2.819197 6.901812 -0.486244
v -2.939059 6.845883 -0.019380
v -2.920261 6.624066 0.190890
v -2.772113 6.571302 0.417241
v -2.368639 6.665337 -0.847196
v -2.929320 6.479149 -0.467240
v -2.005108 6.408164 -0.881399
v -2.627066 6.437094 -0.771659
v -3.008653 6.445792 -0.156408
v -2.906486 6.255662 0.229359
v -1.737254 6.482963 -0.804231
v -2.373213 6.225458 -0.865588
v -2.751673 6.159733 -0.670651
v -2.865524 6.181510 -0.550428
v -2.976322 6.314632 0.063039
v -2.312651 5.912951 -0.821051
v -2.632083 5.906277 -0.702578
v -2.912564 5.985818 -0.388812
v -2.992821 6.136660 -0.168065
v -2.792288 6.228392 0.391628
v -2.055507 6.039735 -0.857123
v -2.765407 5.728332 -0.477423
v -2.897569 5.805490 -0.189294
v -1.571221 6.443741 -0.723059
v -1.750523 6.044780 -0.783282
v -2.206725 5.642492 -0.738607
v -2.430680 5.548154 -0.628455
v -2.556061 5.508537 -0.520353
v -2.737281 5.548806 -0.325622
v -2.891910 5.874693 0.079145
v -2.735984 5.538218 0.037663
v -1.434493 6.181738 -0.606881
v -1.847347 5.656090 -0.693407
v -2.004795 5.391314 -0.569690
v -2.261795 5.257065 -0.411858
v -2.456326 5.259265 -0.221637
v -2.567052 5.326865 -0.099803
v -2.699430 5.714980 0.291274
v -2.752464 5.936172 0.351714
vn 0.6319 -0.3554 -0.6888
vn -0.4524 -0.7427 0.4937
vn 0.0848 -0.9825 -0.1660
vn -0.6591 -0.1038 0.7449
vn 0.0554 -0.9601 0.2741
vn 0.7038 -0.2067 -0.6797
vn -0.3932 -0.5849 0.7094
vn 0.4861 -0.7717 -0.4100
vn -0.4566 -0.3702 0.8090
vn 0.5301 -0.8478 -0.0155
vn 0.7507 -0.2927 -0.5923
vn -0.1828 -0.6597 0.7290
vn 0.7043 -0.0373 -0.7089
vn 0.0692 -0.6683 0.7406
vn 0.8375 -0.4209 -0.3484
vn 0.5066 -0.7602 0.4068
vn 0.7771 -0.5674 0.2723
vn 0.3578 -0.5930 0.7213
vn 0.0105 -0.4658 0.8848
vn -0.1565 -0.4224 0.8928
vn 0.2275 -0.4210 0.8780
vn 0.9097 -0.1950 -0.3667
vn 0.9386 -0.3451 -0.0018
vn -0.4089 -0.1827 0.8941
vn 0.5994 -0.4583 0.6563
vn 0.8247 -0.2963 0.4817
vn 0.4969 -0.3504 0.7939
vn 0.1414 -0.2609 0.9550
vn 0.9658 -0.2017 -0.1630
vn 0.8701 -0.0456 -0.4908
vn 0.8272 -0.0199 0.5616
vn 0.7261 0.0005 0.6875
vn 0.1843 -0.0380 0.9821
vn 0.9914 -0.0087 -0.1303
vn 0.9947 0.0300 0.0986
vn -0.6205 -0.3401 0.7066
vn 0.9524 0.0775 -0.2950
vn -0.1676 0.0625 0.9839
vn -0.4982 -0.0051 0.8670
vn -0.5804 -0.0127 0.8142
vn 0.5113 0.0640 0.8570
vn -0.3696 0.0625 0.9271
vn 0.9696 0.1997 -0.1415
vn 0.8069 0.1459 -0.5724
vn 0.8439 0.2623 -0.4680
vn 0.8722 0.4717 -0.1293
vn 0.8910 0.4393 0.1145
vn 0.8014 0.5771 -0.1575
vn 0.4737 0.7841 0.4010
vn 0.7006 0.0839 -0.7086
vn 0.0640 0.6224 0.7801
vn 0.1275 0.8034 0.5817
vn -0.3533 0.5515 0.7556
vn -0.5279 0.4545 0.7175
vn -0.1841 0.7890 0.5861
vn 0.6608 0.4054 -0.6316
vn -0.3310 0.6974 0.6357
vn -0.1521 0.9667 0.2059
vn 0.1955 0.9415 -0.2744
vn -0.6684 0.1320 0.7320
vn -0.1965 0.9683 -0.1542
vn -0.6676 0.0486 0.7429
vn 0.5993 0.2631 -0.7560
vn -0.4900 0.8282 0.2721
vn 0.4460 0.5457 -0.7094
vn -0.4899 0.8633 -0.1210
vn -0.5518 0.8318 0.0609
vn -0.7615 0.3692 0.5327
vn -0.1488 0.8399 -0.5219
vn 0.6104 0.0844 -0.7876
vn 0.3692 0.3512 -0.8604
vn -0.7883 0.6118 0.0657
vn -0.7771 0.6047 -0.1746
vn -0.8840 0.4202 0.2047
vn -0.8160 0.1935 0.5447
vn -0.3307 0.5776 -0.7464
vn -0.4764 0.5775 -0.6630
vn -0.7458 0.4658 -0.4762
vn 0.4610 0.1373 -0.8767
vn 0.1449 0.3026 -0.9421
vn -0.9153 0.2336 0.3282
vn -0.0780 0.4432 -0.8930
vn -0.0593 0.2326 -0.9708
vn -0.4031 0.1581 -0.9014
vn -0.7307 -0.0080 0.6826
vn -0.7722 0.1737 -0.6112
vn -0.8806 0.2103 -0.4246
vn 0.2461 0.1119 -0.9628
vn -0.9657 0.1118 -0.2345
vn 0.1748 0.1414 -0.9744
vn -0.9836 0.1790 -0.0232
vn -0.9671 -0.0401 -0.2511
vn -0.0638 0.0424 -0.9971
vn -0.6674 0.0288 -0.7441
vn -0.9209 -0.0915 -0.3788
vn -0.4262 -0.1128 -0.8976
vn -0.0630 -0.1528 -0.9862
vn -0.9626 -0.1772 0.2052
vn 0.4278 -0.0561 -0.9021
vn 0.2904 -0.0545 -0.9553
vn -0.9505 -0.2627 -0.1660
vn -0.5039 -0.4375 -0.7448
vn -0.8686 -0.3922 -0.3029
vn -0.9553 -0.2807 0.0925
vn 0.0080 -0.2887 -0.9574
vn -0.8465 -0.2230 0.4834
vn -0.6697 -0.5379 -0.5120
vn -0.8511 -0.5249 -0.0123
vn 0.2306 -0.2734 -0.9339
vn 0.1273 -0.4810 -0.8674
vn -0.8063 -0.4244 0.4120
vn 0.6106 -0.0323 -0.7913
vn -0.6811 -0.6947 0.2312
vn 0.4502 -0.4808 -0.7524
vn -0.6735 -0.5584 0.4843
vn 0.3161 -0.7278 -0.6086
vn -0.3498 -0.9367 -0.0140
vn 0.0160 -0.9993 -0.0349
vn 0.5804 -0.4467 -0.6809
vn -0.5034 -0.6539 0.5649
vn -0.6500 -0.1931 0.7350
vn -0.0626 -0.9020 0.4273
vn 0.8153 -0.5183 -0.2582
vn 0.7141 -0.2837 -0.6399
vn -0.2015 -0.8265 0.5256
vn 0.6647 -0.5933 -0.4540
vn 0.4613 -0.8644 -0.2000
vn -0.2313 -0.6224 0.7478
vn -0.4274 -0.3957 0.8129
vn 0.4744 -0.8569 0.2017
vn 0.1180 -0.7886 0.6034
vn 0.4457 -0.7476 0.4924
vn 0.7450 -0.0838 -0.6618
vn 0.0383 -0.6539 0.7556
vn -0.1572 -0.2033 0.9664
vn 0.7799 -0.6213 -0.0757
vn -0.1817 -0.3975 0.8994
vn 0.6931 -0.6136 0.3783
vn 0.3378 -0.5882 0.7347
vn 0.5979 -0.4583 0.6576
vn 0.1707 -0.3968 0.9019
vn 0.9207 -0.2106 -0.3286
vn 0.8602 -0.4363 0.2641
vn -0.4226 -0.1754 0.8892
vn 0.5340 -0.1832 0.8254
vn -0.2879 -0.1685 0.9427
vn 0.7955 -0.3064 0.5228
vn 0.9655 -0.2571 -0.0413
vn 0.8770 -0.0493 -0.4780
vn 0.2368 -0.1566 0.9589
vn 0.9622 -0.1287 0.2399
vn 0.8856 -0.1850 0.4261
vn 0.8603 0.2479 0.4454
vn 0.9830 -0.0046 0.1834
vn 0.6120 -0.0345 0.7901
vn -0.0761 -0.0370 0.9964
vn 0.2328 0.0481 0.9713
vn 0.9619 0.0793 -0.2615
vn -0.2911 0.0427 0.9557
vn 0.9034 0.0833 0.4206
vn 0.7089 0.2694 0.6518
vn -0.4545 0.0406 0.8898
vn 0.5428 0.2551 0.8002
vn 0.4331 0.5565 0.7090
vn 0.3167 0.2681 0.9098
vn 0.1861 0.1579 0.9698
vn 0.0069 0.1981 0.9802
vn 0.9809 0.1920 0.0312
vn -0.1266 0.1286 0.9836
vn 0.9429 0.2804 0.1797
vn 0.8453 0.1939 -0.4978
vn 0.6433 0.5310 0.5515
vn 0.2381 0.4854 0.8413
vn 0.8878 0.3475 -0.3017
vn 0.7617 0.5580 0.3293
vn -0.0392 0.3626 0.9311
vn -0.1944 0.4365 0.8785
vn 0.6839 0.7036 0.1928
vn -0.2905 0.3034 0.9075
vn -0.3866 0.2638 0.8837
vn -0.5511 0.2828 0.7851
vn 0.3894 0.7470 0.5389
vn 0.7474 0.1378 -0.6499
vn 0.0512 0.7677 0.6388
vn 0.6711 0.6279 -0.3942
vn 0.5463 0.7592 -0.3538
vn 0.4197 0.9040 -0.0812
vn 0.6558 0.5008 -0.5650
vn -0.5887 0.1981 0.7837
vn 0.2902 0.9481 0.1304
vn 0.1471 0.9576 0.2478
vn 0.2914 0.7499 -0.5939
vn -0.2069 0.9411 0.2676
vn -0.6631 0.5026 0.5547
vn 0.0477 0.5998 -0.7987
vn 0.1963 0.8425 -0.5017
vn -0.1851 0.9676 -0.1718
vn 0.5918 0.2899 -0.7521
vn -0.5263 0.7400 0.4188
vn -0.6635 0.5979 0.4497
vn -0.7586 0.3335 0.5597
vn -0.1356 0.8328 -0.5366
vn -0.5452 0.7556 -0.3632
vn -0.1188 0.6919 -0.7122
vn 0.3201 0.3944 -0.8614
vn 0.5414 0.1434 -0.8285
vn -0.8305 0.4468 -0.3326
vn -0.8137 0.5563 0.1687
vn -0.8840 0.3910 0.2564
vn -0.8075 0.1639 0.5667
vn -0.5452 0.6036 -0.5818
vn -0.2442 0.4466 -0.8608
vn -0.3800 0.2836 -0.8804
vn 0.4066 0.1616 -0.8992
vn -0.9354 0.3530 -0.0208
vn 0.0117 0.3145 -0.9492
vn -0.8270 0.0176 0.5619
vn -0.5315 0.3362 -0.7775
vn -0.6445 0.3223 -0.6933
vn -0.9753 0.0990 0.1974
vn -0.0106 0.1171 -0.9931
vn -0.7233 0.0368 -0.6895
vn -0.9212 0.0062 0.3890
vn -0.3150 0.0429 -0.9481
vn -0.7246 -0.2624 -0.6372
vn -0.4669 -0.1098 -0.8775
vn -0.9530 -0.0789 -0.2926
vn -0.0110 -0.0642 -0.9979
vn -0.9920 -0.0551 0.1132
vn 0.2357 -0.0960 -0.9671
vn -0.9289 -0.1661 0.3311
vn -0.3373 -0.1966 -0.9206
vn -0.3020 -0.3668 -0.8799
vn -0.7925 -0.2637 -0.5499
vn -0.5890 -0.4269 -0.6862
vn -0.8734 -0.3921 -0.2887
vn -0.5271 -0.7308 -0.4338
vn -0.8935 -0.4300 0.1297
vn 0.1301 -0.3286 -0.9355
vn -0.8180 -0.1858 0.5444
vn 0.5211 -0.1129 -0.8460
vn -0.1267 -0.6308 -0.7655
vn -0.6645 -0.7185 -0.2053
vn 0.4800 -0.2401 -0.8438
vn -0.7859 -0.6182 -0.0152
vn 0.3786 -0.2970 -0.8766
vn -0.8092 -0.3273 0.4878
vn -0.4329 -0.8963 0.0959
vn -0.3430 -0.6807 -0.6473
vn -0.3208 -0.8922 -0.3178
vn -0.5168 -0.8261 0.2249
vn 0.3509 -0.5595 -0.7509
vn -0.6749 -0.5562 0.4849
vn 0.0725 -0.8149 -0.5750
vn 0.0080 -0.9059 -0.4233
vt 0.781230 0.812500
vt 0.762032 0.875000
vt 0.685473 0.777944
vt 0.734697 0.375000
vt 0.703125 0.312500
vt 0.764235 0.312500
vt 0.741874 0.599249
vt 0.704616 0.531266
vt 0.763980 0.500000
vt 0.734375 0.000000
vt 0.879629 0.062500
vt 0.593677 0.062500
vt 0.670132 0.472235
vt 0.734536 0.437500
vt 0.734224 0.937500
vt 0.605595 0.875000
vt 0.658359 0.250000
vt 0.719918 0.218999
vt 0.734375 0.717281
vt 0.678319 0.660608
vt 0.606077 0.187500
vt 0.641330 0.592355
vt 0.623673 0.812500
vt 0.673680 0.375000
vt 0.639230 0.312500
vt 0.640625 1.000000
vt 0.479138 0.937500
vt 0.639064 0.437500
vt 0.612180 0.375000
vt 0.595563 0.750000
vt 0.606567 0.500000
vt 0.603325 0.667055
vt 0.578286 0.562500
vt 0.578286 0.437500
vt 0.577540 0.283466
vt 0.543444 0.396147
vt 0.512752 0.812500
vt 0.546915 0.655822
vt 0.503540 0.125000
vt 0.660224 0.125000
vt 0.544067 0.500000
vt 0.509405 0.537235
vt 0.515588 0.281661
vt 0.510998 0.724803
vt 0.449506 0.875000
vt 0.487180 0.625000
vt 0.453286 0.562500
vt 0.450317 0.500000
vt 0.485851 0.406417
vt 0.453088 0.281661
vt 0.455926 0.750000
vt 0.445771 0.665313
vt 0.799126 0.125000
vt 0.779637 0.187500
vt 0.402284 0.812500
vt 0.497588 0.187500
vt 0.386121 0.187500
vt 0.328120 0.062500
vt 0.453125 0.000000
vt 0.437500 0.406180
vt 0.347717 0.125000
vt 0.390588 0.718339
vt 0.293360 0.875000
vt 0.308534 0.812500
vt 0.316528 0.750000
vt 0.343750 0.656371
vt 0.393429 0.625000
vt 0.296915 0.655822
vt 0.343750 0.531273
vt 0.297036 0.562500
vt 0.294067 0.500000
vt 0.328125 1.000000
vt 0.230145 0.937500
vt 0.328286 0.437500
vt 0.296914 0.344178
vt 0.343750 0.343629
vt 0.265786 0.437500
vt 0.234338 0.281661
vt 0.296902 0.219059
vt 0.214815 0.187500
vt 0.237180 0.375000
vt 0.199790 0.812500
vt 0.237635 0.520573
vt 0.203286 0.437500
vt 0.237180 0.625000
vt 0.203286 0.562500
vt 0.190964 0.125000
vt 0.113605 0.062500
vt 0.169067 0.500000
vt 0.203125 0.000000
vt 0.137012 0.875000
vt 0.176363 0.337227
vt 0.171838 0.718339
vt 0.234338 0.718339
vt 0.148421 0.399333
vt 0.160278 0.250000
vt 0.121065 0.187500
vt 0.174680 0.625000
vt 0.134405 0.537235
vt 0.140625 1.000000
vt 0.030235 0.937500
vt 0.075252 0.812500
vt 0.102021 0.334687
vt 0.109536 0.437500
vt 0.066529 0.250000
vt 0.055088 0.153620
vt 0.112179 0.625000
vt 0.078286 0.562500
vt 0.075317 0.500000
vt 0.047036 0.437500
vt 0.032456 0.875000
vt 0.048167 0.750000
vt 0.108913 0.719958
vt 0.062500 0.658651
vt 0.015664 0.655822
vt 0.018885 0.520574
vt 0.000000 0.562500
vt 0.015625 0.000000
vt 0.000000 0.062500
vt 0.000000 0.399333
vt 0.046914 0.344178
vt 0.000000 0.784407
vt 0.000000 0.273040
vt 0.991904 0.273040
vt 0.992171 0.399333
vt 0.937867 0.282145
vt 1.000000 0.655822
vt 0.975379 0.784407
vt 0.953164 0.655822
vt 1.000000 0.500000
vt 0.984536 0.562500
vt 0.950317 0.500000
vt 0.953286 0.437500
vt 0.924679 0.375000
vt 0.915655 0.537235
vt 0.910279 0.750000
vt 0.906250 0.656371
vt 0.965747 0.187500
vt 0.868449 0.212346
vt 0.978825 0.875000
vt 0.921769 0.937500
vt 0.872374 0.843190
vt 0.887823 0.312500
vt 0.859536 0.562500
vt 0.856567 0.500000
vt 0.890786 0.437500
vt 0.855944 0.396148
vt 0.859414 0.655822
vt 0.939862 0.125000
vt 0.812867 0.282145
vt 0.814726 0.750000
vt 0.796945 0.653777
vt 0.828125 1.000000
vt 0.798190 0.375000
vt 0.797036 0.437500
vt 0.390786 0.562500
vt 0.387817 0.500000
vt 0.390786 0.437500
vt 0.390665 0.344178
vt 0.378980 0.250000
vt 0.000000 0.125000
vt 0.000000 0.187500
vt 0.801816 0.543181
s 0
f 2/1/1 6/2/1 13/3/1
f 11/4/2 14/5/2 4/6/2
f 8/7/3 9/8/3 3/9/3
f 5/10/4 127/11/4 44/12/4
f 9/8/5 16/13/5 10/14/5
f 139/15/6 32/16/6 6/2/6
f 14/5/7 21/17/7 12/18/7
f 7/19/8 15/20/8 8/7/8
f 12/18/9 21/17/9 31/21/9
f 15/20/10 18/22/10 9/8/10
f 32/16/11 22/23/11 13/3/11
f 14/5/12 17/24/12 20/25/12
f 139/15/13 1/26/13 59/27/13
f 19/28/14 25/29/14 17/24/14
f 22/23/15 27/30/15 13/3/15
f 16/13/16 18/22/16 24/31/16
f 18/22/17 23/32/17 28/33/17
f 24/31/18 29/34/18 19/28/18
f 20/25/19 25/29/19 30/35/19
f 20/25/20 30/35/20 21/17/20
f 29/34/21 35/36/21 25/29/21
f 32/16/22 41/37/22 22/23/22
f 23/32/23 27/30/23 33/38/23
f 31/21/24 51/39/24 26/40/24
f 24/31/25 28/33/25 34/41/25
f 28/33/26 33/38/26 37/42/26
f 34/41/27 35/36/27 29/34/27
f 30/35/28 35/36/28 38/43/28
f 41/37/29 36/44/29 27/30/29
f 32/16/30 59/27/30 40/45/30
f 37/42/31 42/46/31 47/47/31
f 37/42/32 47/47/32 48/48/32
f 38/43/33 43/49/33 50/50/33
f 41/37/34 45/51/34 36/44/34
f 36/44/35 45/51/35 46/52/35
f 26/40/36 146/53/36 145/54/36 12/18/36
f 41/37/37 40/45/37 52/55/37
f 39/56/38 50/50/38 64/57/38
f 44/12/39 51/39/39 76/58/39
f 5/59/40 44/12/40 76/58/40
f 48/48/41 49/60/41 43/49/41
f 64/57/42 73/61/42 51/39/42
f 52/55/43 54/62/43 45/51/43
f 59/27/44 77/63/44 40/45/44
f 52/55/45 77/63/45 67/64/45
f 54/62/46 68/65/46 60/66/46
f 54/62/47 60/66/47 55/67/47
f 60/66/48 68/65/48 69/68/48
f 61/69/49 65/70/49 70/71/49
f 59/27/50 1/72/50 82/73/50
f 66/74/51 71/75/51 62/76/51
f 70/71/52 75/77/52 66/74/52
f 71/75/53 81/78/53 72/79/53
f 72/79/54 81/78/54 87/80/54
f 75/77/55 80/81/55 71/75/55
f 67/64/56 77/63/56 88/82/56
f 71/75/57 80/81/57 81/78/57
f 74/83/58 85/84/58 75/77/58
f 74/83/59 79/85/59 83/86/59
f 96/87/60 111/88/60 76/58/60
f 74/83/61 83/86/61 84/89/61
f 5/90/62 76/58/62 111/88/62
f 77/63/63 82/73/63 92/91/63
f 85/84/64 86/92/64 80/81/64
f 88/82/65 89/93/65 78/94/65
f 84/89/66 95/95/66 85/84/66
f 85/84/67 95/95/67 86/92/67
f 87/80/68 91/96/68 100/97/68
f 83/86/69 90/98/69 93/99/69
f 82/73/70 1/100/70 131/101/70
f 92/91/71 105/102/71 88/82/71
f 86/92/72 95/95/72 99/103/72
f 94/104/73 99/103/73 95/95/73
f 99/103/74 109/105/74 91/96/74
f 100/97/75 110/106/75 96/87/75
f 93/99/76 98/107/76 102/108/76
f 93/99/77 102/108/77 103/109/77
f 103/109/78 108/110/78 94/104/78
f 131/101/79 118/111/79 92/91/79
f 105/102/80 106/112/80 97/113/80
f 100/97/81 109/105/81 110/106/81
f 97/113/82 101/114/82 98/107/82
f 101/114/83 106/112/83 112/115/83
f 107/116/84 112/115/84 115/117/84
f 5/118/85 111/88/85 127/119/85
f 107/116/86 113/120/86 108/110/86
f 108/110/87 113/120/87 104/121/87
f 105/102/88 118/111/88 114/122/88
f 104/121/89 113/120/89 116/123/89
f 105/102/90 114/122/90 106/112/90
f 104/121/91 116/123/91 109/105/91
f 116/124/92 113/125/92 126/126/92
f 112/127/93 114/128/93 119/129/93
f 107/130/94 115/131/94 120/132/94
f 121/133/95 125/134/95 113/125/95
f 115/131/96 119/129/96 124/135/96
f 119/129/97 128/136/97 123/137/97
f 122/138/98 126/126/98 137/139/98
f 118/140/99 131/141/99 132/142/99
f 118/140/100 132/142/100 114/128/100
f 126/126/101 125/134/101 130/143/101
f 124/135/102 134/144/102 135/145/102
f 129/146/103 136/147/103 125/134/103
f 130/143/104 137/139/104 126/126/104
f 123/137/105 128/136/105 133/148/105
f 137/139/106 146/53/106 117/149/106
f 135/145/107 136/147/107 129/146/107
f 130/143/108 136/147/108 138/150/108
f 132/142/109 140/151/109 128/136/109
f 133/148/110 140/151/110 141/152/110
f 137/139/111 138/150/111 145/54/111
f 131/141/112 1/153/112 139/15/112
f 138/150/113 144/154/113 4/6/113
f 140/151/114 2/1/114 7/19/114
f 4/6/115 12/18/115 138/150/115
f 141/152/116 7/19/116 8/7/116
f 3/9/117 10/14/117 143/155/117
f 3/9/118 9/8/118 10/14/118
f 7/19/119 2/1/119 13/3/119
f 4/6/120 14/5/120 12/18/120
f 44/12/121 127/11/121 146/53/121 26/40/121
f 17/24/122 11/4/122 10/14/122 16/13/122
f 23/32/123 15/20/123 13/3/123 27/30/123
f 6/2/124 32/16/124 13/3/124
f 11/4/125 17/24/125 14/5/125
f 7/19/126 13/3/126 15/20/126
f 9/8/127 8/7/127 15/20/127
f 21/17/128 14/5/128 20/25/128
f 12/18/129 31/21/129 26/40/129
f 9/8/130 18/22/130 16/13/130
f 16/13/131 19/28/131 17/24/131
f 16/13/132 24/31/132 19/28/132
f 139/15/133 59/27/133 32/16/133
f 20/25/134 17/24/134 25/29/134
f 38/43/135 39/56/135 31/21/135 30/35/135
f 15/20/136 23/32/136 18/22/136
f 21/17/137 30/35/137 31/21/137
f 24/31/138 18/22/138 28/33/138
f 19/28/139 29/34/139 25/29/139
f 24/31/140 34/41/140 29/34/140
f 30/35/141 25/29/141 35/36/141
f 22/23/142 41/37/142 27/30/142
f 28/33/143 23/32/143 33/38/143
f 44/12/144 26/40/144 51/39/144
f 43/49/145 35/36/145 34/41/145 37/42/145
f 51/39/146 31/21/146 39/56/146
f 34/41/147 28/33/147 37/42/147
f 33/38/148 27/30/148 36/44/148
f 32/16/149 40/45/149 41/37/149
f 38/43/150 35/36/150 43/49/150
f 33/38/151 36/44/151 42/46/151
f 37/42/152 33/38/152 42/46/152
f 55/67/153 56/156/153 47/47/153 46/52/153
f 36/44/154 46/52/154 42/46/154
f 37/42/155 48/48/155 43/49/155
f 39/56/156 38/43/156 50/50/156
f 50/50/157 43/49/157 49/60/157
f 41/37/158 52/55/158 45/51/158
f 39/56/159 64/57/159 51/39/159
f 47/47/160 42/46/160 46/52/160
f 56/156/161 57/157/161 48/48/161 47/47/161
f 51/39/162 73/61/162 76/58/162
f 58/158/163 49/60/163 48/48/163 57/157/163
f 66/74/164 58/158/164 57/157/164 61/69/164
f 49/60/165 58/158/165 53/159/165
f 50/50/166 49/60/166 53/159/166
f 50/50/167 53/159/167 63/160/167
f 46/52/168 45/51/168 54/62/168
f 64/57/169 50/50/169 63/160/169
f 46/52/170 54/62/170 55/67/170
f 40/45/171 77/63/171 52/55/171
f 57/157/172 56/156/172 61/69/172
f 62/76/173 53/159/173 58/158/173 66/74/173
f 68/65/174 54/62/174 52/55/174 67/64/174
f 60/66/175 61/69/175 56/156/175 55/67/175
f 53/159/176 62/76/176 63/160/176
f 72/79/177 63/160/177 62/76/177 71/75/177
f 69/68/178 65/70/178 61/69/178 60/66/178
f 64/57/179 63/160/179 72/79/179
f 64/57/180 72/79/180 73/61/180
f 96/87/181 73/61/181 72/79/181 87/80/181
f 61/69/182 70/71/182 66/74/182
f 59/27/183 82/73/183 77/63/183
f 66/74/184 75/77/184 71/75/184
f 69/68/185 68/65/185 78/94/185
f 69/68/186 78/94/186 79/85/186
f 79/85/187 74/83/187 65/70/187 69/68/187
f 78/94/188 68/65/188 67/64/188 88/82/188
f 76/58/189 73/61/189 96/87/189
f 70/71/190 65/70/190 74/83/190
f 70/71/191 74/83/191 75/77/191
f 90/98/192 79/85/192 78/94/192 89/93/192
f 75/77/193 85/84/193 80/81/193
f 87/80/194 81/78/194 91/96/194
f 98/107/195 90/98/195 89/93/195 97/113/195
f 83/86/196 79/85/196 90/98/196
f 74/83/197 84/89/197 85/84/197
f 77/63/198 92/91/198 88/82/198
f 81/78/199 80/81/199 86/92/199
f 81/78/200 86/92/200 91/96/200
f 87/80/201 100/97/201 96/87/201
f 84/89/202 83/86/202 93/99/202
f 94/104/203 95/95/203 84/89/203 93/99/203
f 93/99/204 90/98/204 98/107/204
f 97/113/205 89/93/205 88/82/205 105/102/205
f 82/73/206 131/101/206 92/91/206
f 104/121/207 99/103/207 94/104/207 108/110/207
f 86/92/208 99/103/208 91/96/208
f 100/97/209 91/96/209 109/105/209
f 96/87/210 110/106/210 111/88/210
f 93/99/211 103/109/211 94/104/211
f 102/108/212 98/107/212 101/114/212
f 112/115/213 107/116/213 102/108/213 101/114/213
f 92/91/214 118/111/214 105/102/214
f 99/103/215 104/121/215 109/105/215
f 97/113/216 106/112/216 101/114/216
f 127/119/217 111/88/217 110/106/217 117/161/217
f 103/109/218 102/108/218 107/116/218
f 103/109/219 107/116/219 108/110/219
f 116/123/220 122/162/220 110/106/220 109/105/220
f 112/115/221 106/112/221 114/122/221
f 121/133/222 113/125/222 107/130/222 120/132/222
f 110/106/223 122/162/223 117/161/223
f 115/131/224 112/127/224 119/129/224
f 129/146/225 121/133/225 120/132/225 124/135/225
f 120/132/226 115/131/226 124/135/226
f 126/126/227 113/125/227 125/134/227
f 119/129/228 114/128/228 128/136/228
f 122/138/229 116/124/229 126/126/229
f 114/128/230 132/142/230 128/136/230
f 117/149/231 122/138/231 137/139/231
f 124/135/232 119/129/232 123/137/232
f 133/148/233 134/144/233 124/135/233 123/137/233
f 121/133/234 129/146/234 125/134/234
f 124/135/235 135/145/235 129/146/235
f 130/143/236 125/134/236 136/147/236
f 143/155/237 136/147/237 135/145/237 142/163/237
f 130/143/238 138/150/238 137/139/238
f 133/148/239 128/136/239 140/151/239
f 117/149/240 146/53/240 127/11/240
f 139/15/241 6/2/241 132/142/241 131/141/241
f 141/152/242 142/163/242 134/144/242 133/148/242
f 136/147/243 143/155/243 144/154/243
f 132/142/244 6/2/244 2/1/244
f 138/150/245 136/147/245 144/154/245
f 132/142/246 2/1/246 140/151/246
f 137/139/247 145/54/247 146/53/247
f 11/4/248 144/154/248 143/155/248 10/14/248
f 135/145/249 134/144/249 142/163/249
f 142/163/250 3/9/250 143/155/250
f 144/154/251 11/4/251 4/6/251
f 141/152/252 140/151/252 7/19/252
f 145/54/253 138/150/253 12/18/253
f 142/163/254 141/152/254 8/7/254
f 3/9/255 142/163/255 8/7/255
