# Blender 5.0.0
# www.blender.org
mtllib prep_throw_ball0005.mtl
o Sphere
v -2.208915 5.030761 2.267899
v -2.292075 4.854425 1.726985
v -2.298954 3.988012 1.290436
v -2.332402 3.441832 1.477804
v -2.339941 3.037079 2.316789
v -2.218462 4.940607 1.880739
v -2.106393 4.618913 1.498611
v -2.135829 4.287362 1.330918
v -1.916884 4.066522 1.347272
v -2.129683 3.785956 1.323821
v -2.152266 3.600908 1.385700
v -2.181639 3.216502 1.690767
v -1.914965 4.762771 1.709443
v -2.016265 3.431847 1.516059
v -1.808251 4.453530 1.507496
v -1.742024 3.867420 1.441614
v -1.819931 3.585222 1.501318
v -1.605154 4.252333 1.568830
v -1.611823 3.746207 1.577994
v -1.740164 3.401962 1.697118
v -1.901790 3.260744 1.739038
v -1.798681 4.816871 1.902127
v -1.523202 4.456973 1.778551
v -1.450619 3.943479 1.710640
v -1.558346 3.566986 1.738805
v -2.105679 3.079110 1.996500
v -1.623283 4.685161 1.907775
v -1.367288 4.140651 1.867829
v -1.393119 3.747617 1.877467
v -1.600408 3.331361 1.984797
v -1.866556 3.150969 1.988220
v -1.898384 4.929387 2.049664
v -1.380032 4.428636 2.063950
v -1.294977 3.944890 2.067815
v -1.363210 3.633212 2.077942
v -1.466840 4.622793 2.265122
v -1.266474 4.066696 2.276416
v -1.539233 3.332113 2.275657
v -1.777044 3.156071 2.349616
v -1.853094 4.931665 2.409806
v -1.666991 4.827450 2.255683
v -1.334048 4.347854 2.404769
v -1.340285 3.668960 2.426632
v -2.164048 3.033669 2.212748
v -1.561673 4.694918 2.503295
v -1.436512 4.476510 2.607275
v -1.340783 4.168279 2.620219
v -1.342327 3.971780 2.649006
v -1.424994 3.687691 2.696053
v -1.589788 3.348134 2.575748
v -1.951454 3.076739 2.326466
v -1.785708 4.843465 2.616401
v -1.655025 3.530367 2.900042
v -1.667225 4.645488 2.803833
v -1.562300 4.385914 2.894237
v -1.542473 4.197815 2.949348
v -1.554098 4.002246 2.980785
v -1.568303 3.804780 2.958986
v -2.014588 5.002670 2.304057
v -1.798431 4.500049 3.039920
v -1.782654 4.126744 3.156451
v -1.860533 3.555109 3.063092
v -1.840109 3.304395 2.824490
v -1.932828 3.181374 2.700043
v -2.035921 4.249798 3.242495
v -1.879460 3.839283 3.187359
v -2.053030 4.872698 2.802269
v -1.982379 4.750628 2.937284
v -2.037675 4.525155 3.142460
v -2.062542 4.055315 3.270350
v -2.099969 3.577293 3.165704
v -2.173884 3.270748 2.929740
v -2.131719 3.106940 2.645429
v -2.426450 4.160280 3.285448
v -2.252713 3.873500 3.280207
v -2.254938 3.054357 2.499963
v -2.134618 4.972192 2.642487
v -2.362136 4.711929 3.045833
v -2.382429 4.465161 3.200908
v -2.432901 3.697190 3.219740
v -2.445857 3.438030 3.077072
v -2.248492 5.023471 2.467258
v -2.605408 4.295255 3.213758
v -2.817178 4.112002 3.142664
v -2.631238 3.902221 3.223396
v -2.751550 3.610671 3.068740
v -2.485842 3.236610 2.850166
v -2.427512 4.903960 2.796852
v -2.645602 4.730984 2.941348
v -2.722498 4.488371 3.084404
v -2.737434 3.380369 2.889000
v -2.485354 4.989009 2.551544
v -2.973912 4.235334 3.007053
v -3.084811 3.925830 2.882463
v -2.912154 3.801179 3.037587
v -2.497194 3.134836 2.665955
v -2.866188 4.740888 2.735681
v -2.990510 4.500854 2.845883
v -3.034491 3.617409 2.796783
v -2.756529 3.251865 2.676139
v -3.073457 4.592984 2.585911
v -3.155737 4.320223 2.707221
v -3.193722 4.125413 2.703358
v -3.168824 3.639204 2.520738
v -2.726021 4.923703 2.498183
v -2.911360 4.806213 2.450141
v -3.272800 4.192200 2.342843
v -3.243959 3.925096 2.535126
v -2.985754 3.387809 2.563826
v -2.782968 3.184719 2.430740
v -2.499134 3.073448 2.441074
v -3.130054 4.582168 2.325212
v -3.243885 3.795294 2.203620
v -2.840787 4.862256 2.149374
v -3.231641 4.304046 2.141923
v -3.072255 3.438203 2.225759
v -2.684800 3.131093 2.154231
v -2.596338 4.990355 2.241580
v -3.075274 4.564102 1.982206
v -3.206528 4.096059 1.935682
v -3.208072 3.899561 1.964469
v -2.867419 3.242921 2.165292
v -2.946755 4.543062 1.753565
v -3.098908 4.195539 1.743936
v -3.094159 3.696569 1.837898
v -3.018573 3.438249 1.986424
v -2.477054 3.057953 2.170412
v -2.800980 4.775154 1.865331
v -3.006383 3.870024 1.635340
v -2.908774 3.503994 1.734657
v -2.406691 5.031676 2.238494
v -2.519791 4.928512 1.906049
v -2.763587 4.522178 1.567536
v -2.836013 4.246109 1.496313
v -2.845004 4.048224 1.474708
v -2.845928 3.732648 1.525443
v -2.720945 3.257131 1.835239
v -2.579543 3.386257 1.580621
v -2.177344 5.001795 2.067284
v -2.463841 4.743333 1.614143
v -2.448887 4.490546 1.418985
v -2.504960 4.141856 1.322668
v -2.512936 3.818040 1.342195
v -2.518425 3.625653 1.406869
v -2.396835 3.184062 1.764050
v -2.428665 3.103773 1.941093
vn 0.1743 0.8210 -0.5436
vn 0.0813 -0.5668 -0.8199
vn 0.1347 0.0603 -0.9890
vn -0.0664 -0.9946 -0.0796
vn 0.3181 -0.1632 -0.9339
vn 0.2151 0.9129 -0.3469
vn 0.2271 -0.7128 -0.6636
vn 0.2577 0.4178 -0.8712
vn 0.2118 -0.8830 -0.4189
vn 0.4749 0.2195 -0.8522
vn 0.3183 0.8451 -0.4294
vn 0.4012 -0.5815 -0.7077
vn 0.1632 0.9798 -0.1158
vn 0.5881 -0.4358 -0.6813
vn 0.5272 0.6803 -0.5092
vn 0.6781 0.0018 -0.7350
vn 0.8014 0.2404 -0.5477
vn 0.7813 -0.2556 -0.5694
vn 0.6514 -0.6005 -0.4638
vn 0.5259 -0.7310 -0.4349
vn 0.8091 -0.4502 -0.3776
vn 0.5573 0.7974 -0.2315
vn 0.7770 0.5316 -0.3370
vn 0.2807 -0.9498 -0.1380
vn 0.9147 -0.0690 -0.3983
vn 0.9619 0.1818 -0.2044
vn 0.9407 -0.2145 -0.2627
vn 0.7996 -0.5769 -0.1667
vn 0.7063 0.6819 -0.1902
vn 0.4346 0.8986 -0.0603
vn 0.9736 0.1594 0.1633
vn 0.9785 0.0223 0.2049
vn 0.8144 -0.5558 0.1669
vn 0.7114 0.6991 0.0716
vn 0.8212 0.5474 0.1612
vn -0.0005 -0.9116 -0.4110
vn 0.5769 0.8021 0.1543
vn 0.5001 -0.8190 0.2815
vn 0.1380 -0.9838 0.1145
vn 0.0285 -0.9963 0.0808
vn 0.9264 -0.2188 0.3065
vn 0.2798 -0.9280 0.2460
vn 0.6325 0.6975 0.3369
vn 0.2900 0.9385 0.1874
vn 0.3464 0.8654 0.3620
vn 0.4729 0.6083 0.6375
vn 0.6167 0.4694 0.6319
vn 0.3730 0.5728 0.7300
vn 0.3570 0.0844 0.9303
vn 0.1314 0.9894 0.0623
vn 0.3396 -0.3578 0.8699
vn 0.2219 -0.1801 0.9583
vn 0.0467 -0.6164 0.7861
vn -0.0903 -0.7369 0.6700
vn 0.0266 -0.3485 0.9369
vn 0.0646 0.8616 0.5035
vn -0.0309 -0.4808 0.8763
vn -0.1558 -0.1123 0.9814
vn -0.1631 0.2854 0.9444
vn -0.1378 -0.9552 0.2619
vn -0.3471 0.0375 0.9371
vn -0.1117 -0.9832 0.1446
vn -0.0320 0.9535 0.2998
vn -0.3283 -0.3333 0.8838
vn -0.1815 0.7551 0.6300
vn -0.5142 -0.1295 0.8478
vn -0.4676 -0.2559 0.8461
vn -0.3683 -0.7809 0.5045
vn -0.5043 0.2482 0.8271
vn -0.0008 0.9993 0.0364
vn -0.3195 0.8695 0.3768
vn -0.6319 -0.4269 0.6468
vn -0.7467 -0.2883 0.5994
vn -0.6349 -0.6125 0.4709
vn -0.3854 -0.8786 0.2819
vn -0.7805 0.2880 0.5549
vn -0.8259 0.1503 0.5434
vn -0.9023 -0.1211 0.4137
vn -0.2110 0.9742 0.0798
vn -0.5644 0.7808 0.2679
vn -0.5860 -0.7633 0.2720
vn -0.7089 0.5625 0.4255
vn -0.7456 0.6526 0.1348
vn -0.9391 0.3437 -0.0010
vn -0.1924 -0.9805 0.0404
vn -0.9959 -0.0840 0.0327
vn -0.9610 -0.2576 0.1007
vn -0.4630 0.8863 -0.0038
vn -0.9013 -0.4332 0.0001
vn -0.5407 0.8407 0.0298
vn -0.8122 -0.5704 0.1228
vn -0.8788 -0.4346 -0.1972
vn -0.7337 0.6623 -0.1521
vn -0.9836 0.0522 -0.1724
vn -0.9011 -0.3314 -0.2795
vn -0.8781 0.2982 -0.3742
vn -0.6586 0.6194 -0.4272
vn -0.6023 -0.7401 -0.2992
vn -0.2110 0.9516 -0.2235
vn -0.3738 0.8932 -0.2499
vn -0.7511 -0.4802 -0.4530
vn -0.6926 0.1093 -0.7130
vn -0.7140 -0.3480 -0.6075
vn -0.6192 -0.6504 -0.4399
vn -0.5269 0.6140 -0.5877
vn -0.3516 -0.8836 -0.3093
vn -0.6296 -0.1215 -0.7673
vn -0.5073 -0.5017 -0.7007
vn -0.3373 0.7644 -0.5495
vn -0.3028 0.5711 -0.7630
vn -0.2972 -0.7748 -0.5580
vn 0.0252 0.9900 -0.1390
vn -0.2187 -0.5360 -0.8154
vn 0.0141 0.7018 -0.7123
vn -0.1203 -0.7232 -0.6801
vn 0.0397 0.4482 -0.8931
vn -0.0647 -0.2152 -0.9744
vn 0.1539 -0.0342 -0.9875
vn 0.1515 0.7471 -0.6473
vn 0.0696 -0.6602 -0.7478
vn -0.0428 -0.9767 -0.2103
vn 0.3188 -0.3023 -0.8983
vn 0.5577 0.5803 -0.5935
vn 0.2598 0.8622 -0.4349
vn 0.2771 -0.4369 -0.8557
vn 0.3510 0.5939 -0.7239
vn 0.3444 0.2750 -0.8977
vn 0.3761 -0.6317 -0.6778
vn 0.2432 -0.8607 -0.4472
vn 0.5443 0.0824 -0.8349
vn 0.5322 -0.3133 -0.7865
vn 0.6869 -0.0754 -0.7228
vn 0.2378 0.9568 -0.1670
vn 0.5767 -0.4659 -0.6710
vn 0.5605 -0.8191 -0.1221
vn 0.6207 0.4260 -0.6582
vn 0.5091 -0.7588 -0.4063
vn 0.7990 0.1303 -0.5870
vn 0.7768 -0.2761 -0.5660
vn 0.9146 -0.0707 -0.3982
vn 0.7855 -0.5085 -0.3527
vn 0.5876 0.7721 -0.2420
vn 0.8614 0.3114 -0.4012
vn 0.2631 -0.9560 -0.1299
vn 0.9786 -0.2034 -0.0328
vn 0.4224 -0.9018 -0.0919
vn 0.9670 0.1392 -0.2134
vn 0.7727 0.5894 -0.2354
vn 0.4481 0.8918 -0.0620
vn 0.8619 -0.5070 -0.0047
vn 0.9044 0.4261 -0.0210
vn 0.9626 0.2623 -0.0677
vn 0.8415 0.2608 0.4731
vn 0.8653 0.4841 0.1303
vn 0.9785 -0.1177 0.1692
vn 0.6175 -0.7731 0.1453
vn 0.8160 -0.4992 0.2913
vn 0.6011 0.7824 0.1631
vn 0.3770 -0.8966 0.2323
vn 0.9148 0.2957 0.2750
vn 0.8487 0.0523 0.5262
vn 0.1821 -0.9639 0.1942
vn 0.8345 -0.1399 0.5330
vn 0.5731 -0.1160 0.8112
vn 0.7445 -0.3565 0.5645
vn 0.7386 -0.5133 0.4370
vn 0.5919 -0.6460 0.4821
vn 0.7296 0.5860 0.3526
vn 0.5121 -0.7703 0.3799
vn 0.7462 0.4669 0.4745
vn 0.3510 0.8971 0.2685
vn 0.6360 0.0855 0.7669
vn 0.5485 -0.3199 0.7725
vn 0.4414 0.7528 0.4883
vn 0.5887 0.2703 0.7618
vn 0.4548 -0.5943 0.6634
vn 0.2736 -0.6387 0.7192
vn 0.4182 0.2978 0.8582
vn 0.2594 -0.7765 0.5743
vn 0.1747 -0.8417 0.5109
vn -0.0348 -0.8704 0.4911
vn 0.3833 -0.0298 0.9232
vn 0.1953 0.9682 0.1564
vn 0.2112 -0.2558 0.9434
vn 0.1484 0.6454 0.7493
vn 0.0517 0.5283 0.8475
vn 0.0708 0.2977 0.9520
vn 0.0763 0.7849 0.6150
vn -0.0495 -0.9252 0.3763
vn 0.0787 0.1308 0.9883
vn 0.0438 0.0083 0.9990
vn -0.2486 0.5395 0.8045
vn -0.1589 -0.1711 0.9724
vn -0.2915 -0.6893 0.6632
vn -0.5449 0.5564 0.6274
vn -0.2687 0.4183 0.8677
vn -0.3484 0.0514 0.9359
vn -0.0420 0.9409 0.3361
vn -0.2786 -0.4524 0.8472
vn -0.3525 -0.5891 0.7271
vn -0.3477 -0.8114 0.4697
vn -0.5042 0.2636 0.8224
vn -0.6800 -0.0453 0.7318
vn -0.6032 0.3860 0.6980
vn -0.3668 0.8269 0.4262
vn -0.1053 0.9885 0.1083
vn -0.8784 -0.2536 0.4050
vn -0.6006 -0.5145 0.6121
vn -0.6082 -0.6542 0.4495
vn -0.3614 -0.8987 0.2484
vn -0.8193 0.0642 0.5698
vn -0.8077 0.4253 0.4084
vn -0.9198 0.3496 0.1779
vn -0.2821 0.9536 0.1051
vn -0.7865 -0.5141 0.3422
vn -0.6794 0.6846 0.2641
vn -0.3529 -0.9348 0.0405
vn -0.9531 0.1810 0.2426
vn -0.9730 0.0561 0.2238
vn -0.6823 -0.7284 0.0622
vn -0.7057 0.7077 -0.0337
vn -0.9876 -0.0165 -0.1562
vn -0.5230 -0.8521 -0.0204
vn -0.8867 0.4322 -0.1644
vn -0.8536 -0.0698 -0.5163
vn -0.8935 0.2571 -0.3681
vn -0.8802 -0.4023 -0.2518
vn -0.6589 0.6883 -0.3034
vn -0.7054 -0.6909 -0.1584
vn -0.4177 0.8506 -0.3194
vn -0.5153 -0.8154 -0.2638
vn -0.7977 0.3626 -0.4818
vn -0.6697 0.3276 -0.6665
vn -0.8479 -0.1608 -0.5052
vn -0.7199 0.0268 -0.6936
vn -0.7102 -0.3590 -0.6056
vn -0.4240 -0.0931 -0.9009
vn -0.5028 -0.6256 -0.5965
vn -0.3999 0.6731 -0.6220
vn -0.3045 -0.9197 -0.2480
vn -0.0722 0.9568 -0.2816
vn -0.3711 0.3110 -0.8750
vn -0.4065 -0.2807 -0.8695
vn -0.0742 0.8846 -0.4603
vn -0.4309 -0.4554 -0.7791
vn -0.1671 0.8178 -0.5508
vn -0.2882 -0.8515 -0.4380
vn -0.0736 -0.3121 -0.9472
vn -0.4321 0.1173 -0.8942
vn -0.1938 -0.0543 -0.9795
vn -0.0810 -0.4291 -0.8996
vn -0.0441 0.6089 -0.7920
vn -0.1216 -0.7249 -0.6780
vn -0.0884 0.2784 -0.9564
vn -0.0389 0.1547 -0.9872
vt 0.781230 0.812500
vt 0.762032 0.875000
vt 0.685473 0.777944
vt 0.734697 0.375000
vt 0.703125 0.312500
vt 0.764235 0.312500
vt 0.741874 0.599249
vt 0.704616 0.531266
vt 0.763980 0.500000
vt 0.734375 0.000000
vt 0.879629 0.062500
vt 0.593677 0.062500
vt 0.670132 0.472235
vt 0.734536 0.437500
vt 0.734224 0.937500
vt 0.605595 0.875000
vt 0.658359 0.250000
vt 0.719918 0.218999
vt 0.734375 0.717281
vt 0.678319 0.660608
vt 0.606077 0.187500
vt 0.641330 0.592355
vt 0.623673 0.812500
vt 0.673680 0.375000
vt 0.639230 0.312500
vt 0.640625 1.000000
vt 0.479138 0.937500
vt 0.639064 0.437500
vt 0.612180 0.375000
vt 0.595563 0.750000
vt 0.606567 0.500000
vt 0.603325 0.667055
vt 0.578286 0.562500
vt 0.578286 0.437500
vt 0.577540 0.283466
vt 0.543444 0.396147
vt 0.512752 0.812500
vt 0.546915 0.655822
vt 0.503540 0.125000
vt 0.660224 0.125000
vt 0.544067 0.500000
vt 0.509405 0.537235
vt 0.515588 0.281661
vt 0.510998 0.724803
vt 0.449506 0.875000
vt 0.487180 0.625000
vt 0.453286 0.562500
vt 0.450317 0.500000
vt 0.485851 0.406417
vt 0.453088 0.281661
vt 0.455926 0.750000
vt 0.445771 0.665313
vt 0.799126 0.125000
vt 0.779637 0.187500
vt 0.402284 0.812500
vt 0.497588 0.187500
vt 0.386121 0.187500
vt 0.328120 0.062500
vt 0.453125 0.000000
vt 0.437500 0.406180
vt 0.347717 0.125000
vt 0.390588 0.718339
vt 0.293360 0.875000
vt 0.308534 0.812500
vt 0.316528 0.750000
vt 0.343750 0.656371
vt 0.393429 0.625000
vt 0.296915 0.655822
vt 0.343750 0.531273
vt 0.297036 0.562500
vt 0.294067 0.500000
vt 0.328125 1.000000
vt 0.230145 0.937500
vt 0.328286 0.437500
vt 0.296914 0.344178
vt 0.343750 0.343629
vt 0.265786 0.437500
vt 0.234338 0.281661
vt 0.296902 0.219059
vt 0.214815 0.187500
vt 0.237180 0.375000
vt 0.199790 0.812500
vt 0.237635 0.520573
vt 0.203286 0.437500
vt 0.237180 0.625000
vt 0.203286 0.562500
vt 0.190964 0.125000
vt 0.113605 0.062500
vt 0.169067 0.500000
vt 0.203125 0.000000
vt 0.137012 0.875000
vt 0.176363 0.337227
vt 0.171838 0.718339
vt 0.234338 0.718339
vt 0.148421 0.399333
vt 0.160278 0.250000
vt 0.121065 0.187500
vt 0.174680 0.625000
vt 0.134405 0.537235
vt 0.140625 1.000000
vt 0.030235 0.937500
vt 0.075252 0.812500
vt 0.102021 0.334687
vt 0.109536 0.437500
vt 0.066529 0.250000
vt 0.055088 0.153620
vt 0.112179 0.625000
vt 0.078286 0.562500
vt 0.075317 0.500000
vt 0.047036 0.437500
vt 0.032456 0.875000
vt 0.048167 0.750000
vt 0.108913 0.719958
vt 0.062500 0.658651
vt 0.015664 0.655822
vt 0.018885 0.520574
vt 0.000000 0.562500
vt 0.015625 0.000000
vt 0.000000 0.062500
vt 0.000000 0.399333
vt 0.046914 0.344178
vt 0.000000 0.784407
vt 0.000000 0.273040
vt 0.991904 0.273040
vt 0.992171 0.399333
vt 0.937867 0.282145
vt 1.000000 0.655822
vt 0.975379 0.784407
vt 0.953164 0.655822
vt 1.000000 0.500000
vt 0.984536 0.562500
vt 0.950317 0.500000
vt 0.953286 0.437500
vt 0.924679 0.375000
vt 0.915655 0.537235
vt 0.910279 0.750000
vt 0.906250 0.656371
vt 0.965747 0.187500
vt 0.868449 0.212346
vt 0.978825 0.875000
vt 0.921769 0.937500
vt 0.872374 0.843190
vt 0.887823 0.312500
vt 0.859536 0.562500
vt 0.856567 0.500000
vt 0.890786 0.437500
vt 0.855944 0.396148
vt 0.859414 0.655822
vt 0.939862 0.125000
vt 0.812867 0.282145
vt 0.814726 0.750000
vt 0.796945 0.653777
vt 0.828125 1.000000
vt 0.798190 0.375000
vt 0.797036 0.437500
vt 0.390786 0.562500
vt 0.387817 0.500000
vt 0.390786 0.437500
vt 0.390665 0.344178
vt 0.378980 0.250000
vt 0.000000 0.125000
vt 0.000000 0.187500
vt 0.801816 0.543181
s 0
f 2/1/1 6/2/1 13/3/1
f 11/4/2 14/5/2 4/6/2
f 8/7/3 9/8/3 3/9/3
f 5/10/4 127/11/4 44/12/4
f 9/8/5 16/13/5 10/14/5
f 139/15/6 32/16/6 6/2/6
f 14/5/7 21/17/7 12/18/7
f 7/19/8 15/20/8 8/7/8
f 12/18/9 21/17/9 31/21/9
f 15/20/10 18/22/10 9/8/10
f 32/16/11 22/23/11 13/3/11
f 14/5/12 17/24/12 20/25/12
f 139/15/13 1/26/13 59/27/13
f 19/28/14 25/29/14 17/24/14
f 22/23/15 27/30/15 13/3/15
f 16/13/16 18/22/16 24/31/16
f 18/22/17 23/32/17 28/33/17
f 24/31/18 29/34/18 19/28/18
f 20/25/19 25/29/19 30/35/19
f 20/25/20 30/35/20 21/17/20
f 29/34/21 35/36/21 25/29/21
f 32/16/22 41/37/22 22/23/22
f 23/32/23 27/30/23 33/38/23
f 31/21/24 51/39/24 26/40/24
f 24/31/25 28/33/25 34/41/25
f 28/33/26 33/38/26 37/42/26
f 34/41/27 35/36/27 29/34/27
f 30/35/28 35/36/28 38/43/28
f 41/37/29 36/44/29 27/30/29
f 32/16/30 59/27/30 40/45/30
f 37/42/31 42/46/31 47/47/31
f 37/42/32 47/47/32 48/48/32
f 38/43/33 43/49/33 50/50/33
f 41/37/34 45/51/34 36/44/34
f 36/44/35 45/51/35 46/52/35
f 26/40/36 146/53/36 145/54/36 12/18/36
f 41/37/37 40/45/37 52/55/37
f 39/56/38 50/50/38 64/57/38
f 44/12/39 51/39/39 76/58/39
f 5/59/40 44/12/40 76/58/40
f 48/48/41 49/60/41 43/49/41
f 64/57/42 73/61/42 51/39/42
f 52/55/43 54/62/43 45/51/43
f 59/27/44 77/63/44 40/45/44
f 52/55/45 77/63/45 67/64/45
f 54/62/46 68/65/46 60/66/46
f 54/62/47 60/66/47 55/67/47
f 60/66/48 68/65/48 69/68/48
f 61/69/49 65/70/49 70/71/49
f 59/27/50 1/72/50 82/73/50
f 66/74/51 71/75/51 62/76/51
f 70/71/52 75/77/52 66/74/52
f 71/75/53 81/78/53 72/79/53
f 72/79/54 81/78/54 87/80/54
f 75/77/55 80/81/55 71/75/55
f 67/64/56 77/63/56 88/82/56
f 71/75/57 80/81/57 81/78/57
f 74/83/58 85/84/58 75/77/58
f 74/83/59 79/85/59 83/86/59
f 96/87/60 111/88/60 76/58/60
f 74/83/61 83/86/61 84/89/61
f 5/90/62 76/58/62 111/88/62
f 77/63/63 82/73/63 92/91/63
f 85/84/64 86/92/64 80/81/64
f 88/82/65 89/93/65 78/94/65
f 84/89/66 95/95/66 85/84/66
f 85/84/67 95/95/67 86/92/67
f 87/80/68 91/96/68 100/97/68
f 83/86/69 90/98/69 93/99/69
f 82/73/70 1/100/70 131/101/70
f 92/91/71 105/102/71 88/82/71
f 86/92/72 95/95/72 99/103/72
f 94/104/73 99/103/73 95/95/73
f 99/103/74 109/105/74 91/96/74
f 100/97/75 110/106/75 96/87/75
f 93/99/76 98/107/76 102/108/76
f 93/99/77 102/108/77 103/109/77
f 103/109/78 108/110/78 94/104/78
f 131/101/79 118/111/79 92/91/79
f 105/102/80 106/112/80 97/113/80
f 100/97/81 109/105/81 110/106/81
f 97/113/82 101/114/82 98/107/82
f 101/114/83 106/112/83 112/115/83
f 107/116/84 112/115/84 115/117/84
f 5/118/85 111/88/85 127/119/85
f 107/116/86 113/120/86 108/110/86
f 108/110/87 113/120/87 104/121/87
f 105/102/88 118/111/88 114/122/88
f 104/121/89 113/120/89 116/123/89
f 105/102/90 114/122/90 106/112/90
f 104/121/91 116/123/91 109/105/91
f 116/124/92 113/125/92 126/126/92
f 112/127/93 114/128/93 119/129/93
f 107/130/94 115/131/94 120/132/94
f 121/133/95 125/134/95 113/125/95
f 115/131/96 119/129/96 124/135/96
f 119/129/97 128/136/97 123/137/97
f 122/138/98 126/126/98 137/139/98
f 118/140/99 131/141/99 132/142/99
f 118/140/100 132/142/100 114/128/100
f 126/126/101 125/134/101 130/143/101
f 124/135/102 134/144/102 135/145/102
f 129/146/103 136/147/103 125/134/103
f 130/143/104 137/139/104 126/126/104
f 123/137/105 128/136/105 133/148/105
f 137/139/106 146/53/106 117/149/106
f 135/145/107 136/147/107 129/146/107
f 130/143/108 136/147/108 138/150/108
f 132/142/109 140/151/109 128/136/109
f 133/148/110 140/151/110 141/152/110
f 137/139/111 138/150/111 145/54/111
f 131/141/112 1/153/112 139/15/112
f 138/150/113 144/154/113 4/6/113
f 140/151/114 2/1/114 7/19/114
f 4/6/115 12/18/115 138/150/115
f 141/152/116 7/19/116 8/7/116
f 3/9/117 10/14/117 143/155/117
f 3/9/118 9/8/118 10/14/118
f 7/19/119 2/1/119 13/3/119
f 4/6/120 14/5/120 12/18/120
f 44/12/121 127/11/121 146/53/121 26/40/121
f 17/24/122 11/4/122 10/14/122 16/13/122
f 23/32/123 15/20/123 13/3/123 27/30/123
f 6/2/124 32/16/124 13/3/124
f 11/4/125 17/24/125 14/5/125
f 7/19/126 13/3/126 15/20/126
f 9/8/127 8/7/127 15/20/127
f 21/17/128 14/5/128 20/25/128
f 12/18/129 31/21/129 26/40/129
f 9/8/130 18/22/130 16/13/130
f 16/13/131 19/28/131 17/24/131
f 16/13/132 24/31/132 19/28/132
f 139/15/133 59/27/133 32/16/133
f 20/25/134 17/24/134 25/29/134
f 38/43/135 39/56/135 31/21/135 30/35/135
f 15/20/136 23/32/136 18/22/136
f 21/17/137 30/35/137 31/21/137
f 24/31/138 18/22/138 28/33/138
f 19/28/139 29/34/139 25/29/139
f 24/31/140 34/41/140 29/34/140
f 30/35/141 25/29/141 35/36/141
f 22/23/142 41/37/142 27/30/142
f 28/33/143 23/32/143 33/38/143
f 44/12/144 26/40/144 51/39/144
f 43/49/145 35/36/145 34/41/145 37/42/145
f 51/39/146 31/21/146 39/56/146
f 34/41/147 28/33/147 37/42/147
f 33/38/148 27/30/148 36/44/148
f 32/16/149 40/45/149 41/37/149
f 38/43/150 35/36/150 43/49/150
f 33/38/151 36/44/151 42/46/151
f 37/42/152 33/38/152 42/46/152
f 55/67/153 56/156/153 47/47/153 46/52/153
f 36/44/154 46/52/154 42/46/154
f 37/42/155 48/48/155 43/49/155
f 39/56/156 38/43/156 50/50/156
f 50/50/157 43/49/157 49/60/157
f 41/37/158 52/55/158 45/51/158
f 39/56/159 64/57/159 51/39/159
f 47/47/160 42/46/160 46/52/160
f 56/156/161 57/157/161 48/48/161 47/47/161
f 51/39/162 73/61/162 76/58/162
f 58/158/163 49/60/163 48/48/163 57/157/163
f 66/74/164 58/158/164 57/157/164 61/69/164
f 49/60/165 58/158/165 53/159/165
f 50/50/166 49/60/166 53/159/166
f 50/50/167 53/159/167 63/160/167
f 46/52/168 45/51/168 54/62/168
f 64/57/169 50/50/169 63/160/169
f 46/52/170 54/62/170 55/67/170
f 40/45/171 77/63/171 52/55/171
f 57/157/172 56/156/172 61/69/172
f 62/76/173 53/159/173 58/158/173 66/74/173
f 68/65/174 54/62/174 52/55/174 67/64/174
f 60/66/175 61/69/175 56/156/175 55/67/175
f 53/159/176 62/76/176 63/160/176
f 72/79/177 63/160/177 62/76/177 71/75/177
f 69/68/178 65/70/178 61/69/178 60/66/178
f 64/57/179 63/160/179 72/79/179
f 64/57/180 72/79/180 73/61/180
f 96/87/181 73/61/181 72/79/181 87/80/181
f 61/69/182 70/71/182 66/74/182
f 59/27/183 82/73/183 77/63/183
f 66/74/184 75/77/184 71/75/184
f 69/68/185 68/65/185 78/94/185
f 69/68/186 78/94/186 79/85/186
f 79/85/187 74/83/187 65/70/187 69/68/187
f 78/94/188 68/65/188 67/64/188 88/82/188
f 76/58/189 73/61/189 96/87/189
f 70/71/190 65/70/190 74/83/190
f 70/71/191 74/83/191 75/77/191
f 90/98/192 79/85/192 78/94/192 89/93/192
f 75/77/193 85/84/193 80/81/193
f 87/80/194 81/78/194 91/96/194
f 98/107/195 90/98/195 89/93/195 97/113/195
f 83/86/196 79/85/196 90/98/196
f 74/83/197 84/89/197 85/84/197
f 77/63/198 92/91/198 88/82/198
f 81/78/199 80/81/199 86/92/199
f 81/78/200 86/92/200 91/96/200
f 87/80/201 100/97/201 96/87/201
f 84/89/202 83/86/202 93/99/202
f 94/104/203 95/95/203 84/89/203 93/99/203
f 93/99/204 90/98/204 98/107/204
f 97/113/205 89/93/205 88/82/205 105/102/205
f 82/73/206 131/101/206 92/91/206
f 104/121/207 99/103/207 94/104/207 108/110/207
f 86/92/208 99/103/208 91/96/208
f 100/97/209 91/96/209 109/105/209
f 96/87/210 110/106/210 111/88/210
f 93/99/211 103/109/211 94/104/211
f 102/108/212 98/107/212 101/114/212
f 112/115/213 107/116/213 102/108/213 101/114/213
f 92/91/214 118/111/214 105/102/214
f 99/103/215 104/121/215 109/105/215
f 97/113/216 106/112/216 101/114/216
f 127/119/217 111/88/217 110/106/217 117/161/217
f 103/109/218 102/108/218 107/116/218
f 103/109/219 107/116/219 108/110/219
f 116/123/220 122/162/220 110/106/220 109/105/220
f 112/115/221 106/112/221 114/122/221
f 121/133/222 113/125/222 107/130/222 120/132/222
f 110/106/223 122/162/223 117/161/223
f 115/131/224 112/127/224 119/129/224
f 129/146/225 121/133/225 120/132/225 124/135/225
f 120/132/226 115/131/226 124/135/226
f 126/126/227 113/125/227 125/134/227
f 119/129/228 114/128/228 128/136/228
f 122/138/229 116/124/229 126/126/229
f 114/128/230 132/142/230 128/136/230
f 117/149/231 122/138/231 137/139/231
f 124/135/232 119/129/232 123/137/232
f 133/148/233 134/144/233 124/135/233 123/137/233
f 121/133/234 129/146/234 125/134/234
f 124/135/235 135/145/235 129/146/235
f 130/143/236 125/134/236 136/147/236
f 143/155/237 136/147/237 135/145/237 142/163/237
f 130/143/238 138/150/238 137/139/238
f 133/148/239 128/136/239 140/151/239
f 117/149/240 146/53/240 127/11/240
f 139/15/241 6/2/241 132/142/241 131/141/241
f 141/152/242 142/163/242 134/144/242 133/148/242
f 136/147/243 143/155/243 144/154/243
f 132/142/244 6/2/244 2/1/244
f 138/150/245 136/147/245 144/154/245
f 132/142/246 2/1/246 140/151/246
f 137/139/247 145/54/247 146/53/247
f 11/4/248 144/154/248 143/155/248 10/14/248
f 135/145/249 134/144/249 142/163/249
f 142/163/250 3/9/250 143/155/250
f 144/154/251 11/4/251 4/6/251
f 141/152/252 140/151/252 7/19/252
f 145/54/253 138/150/253 12/18/253
f 142/163/254 141/152/254 8/7/254
f 3/9/255 142/163/255 8/7/255
