# Blender 5.0.0
# www.blender.org
mtllib prep_throw_ball0003.mtl
o Sphere
v -2.136218 4.910078 2.354633
v -2.237054 4.745267 1.813786
v -2.224675 3.892924 1.360501
v -2.223634 3.340095 1.537826
v -2.171923 2.910546 2.367927
v -2.160205 4.831062 1.966450
v -2.051844 4.527921 1.574238
v -2.073881 4.200191 1.401107
v -1.844374 3.992154 1.405099
v -2.044784 3.700200 1.383672
v -2.055733 3.512283 1.442555
v -2.052475 3.117687 1.740561
v -1.857374 4.676545 1.780836
v -1.905899 3.347642 1.564451
v -1.746254 4.380144 1.569038
v -1.656105 3.800890 1.489013
v -1.717844 3.512786 1.545755
v -1.531305 4.189439 1.618924
v -1.513992 3.683495 1.618098
v -1.620305 3.328699 1.734753
v -1.772985 3.176929 1.779592
v -1.734583 4.731668 1.970199
v -1.448946 4.392316 1.829581
v -1.355928 3.885993 1.748767
v -1.444557 3.502932 1.773176
v -1.955570 2.975887 2.040427
v -1.553183 4.610360 1.966865
v -1.274377 4.083062 1.906753
v -1.281416 3.688874 1.909374
v -1.463722 3.257882 2.015637
v -1.720722 3.061983 2.024997
v -1.832184 4.833710 2.123425
v -1.291030 4.363961 2.108918
v -1.183494 3.885930 2.099949
v -1.236599 3.570445 2.106227
v -1.376976 4.546669 2.316901
v -1.150667 4.002990 2.309738
v -1.388705 3.253565 2.303969
v -1.614238 3.061578 2.382850
v -1.769752 4.827913 2.481560
v -1.586647 4.739453 2.318813
v -1.224975 4.275861 2.446051
v -1.198588 3.597084 2.454405
v -2.001278 2.920625 2.257605
v -1.463476 4.605970 2.559666
v -1.323434 4.392212 2.654608
v -1.212969 4.089761 2.657865
v -1.203988 3.892642 2.682707
v -1.270999 3.602746 2.726939
v -1.425435 3.257622 2.605853
v -1.785684 2.972777 2.364405
v -1.688465 4.737674 2.683707
v -1.483373 3.426026 2.935796
v -1.552015 4.541429 2.862655
v -1.430904 4.285784 2.943934
v -1.399723 4.097527 2.994468
v -1.400716 3.900662 3.022338
v -1.406762 3.703339 2.997089
v -1.939279 4.892424 2.383184
v -1.664793 4.381448 3.100254
v -1.626084 4.006223 3.208542
v -1.681715 3.433735 3.106554
v -1.661178 3.191765 2.862433
v -1.753966 3.067191 2.738986
v -1.880358 4.111558 3.306089
v -1.707822 3.712609 3.237095
v -1.947592 4.745538 2.879573
v -1.864920 4.623814 3.009421
v -1.899727 4.389334 3.211795
v -1.896538 3.914998 3.330943
v -1.916703 3.438691 3.218115
v -1.987571 3.135337 2.978900
v -1.951582 2.982773 2.690095
v -2.263781 3.997862 3.361247
v -2.077356 3.721971 3.343966
v -2.079089 2.927347 2.548174
v -2.041318 4.844817 2.724925
v -2.236797 4.559530 3.130735
v -2.238103 4.307352 3.281376
v -2.251857 3.537127 3.286497
v -2.259611 3.281893 3.139229
v -2.165763 4.894518 2.555037
v -2.452065 4.124189 3.298810
v -2.658268 3.930867 3.231725
v -2.459104 3.730001 3.301431
v -2.573045 3.436454 3.145401
v -2.301075 3.085220 2.909962
v -2.322948 4.754809 2.888278
v -2.525547 4.564943 3.036965
v -2.584101 4.313931 3.177723
v -2.556915 3.212733 2.960713
v -2.396431 4.843621 2.647057
v -2.826917 4.048788 3.104406
v -2.929182 3.736976 2.977706
v -2.743645 3.618094 3.123914
v -2.316545 2.988443 2.724320
v -2.756006 4.567948 2.839681
v -2.863584 4.317692 2.949384
v -2.868766 3.434597 2.884087
v -2.580248 3.089668 2.746193
v -2.963152 4.412529 2.694563
v -3.026724 4.131750 2.813186
v -3.055754 3.935140 2.806762
v -3.017110 3.456664 2.613642
v -2.636094 4.765814 2.601106
v -2.817871 4.639017 2.557422
v -3.155128 4.007904 2.450865
v -3.104673 3.737213 2.636491
v -2.820689 3.215207 2.645012
v -2.615330 3.028396 2.500678
v -2.326462 2.933753 2.498533
v -3.031679 4.406168 2.435990
v -3.114536 3.617523 2.302750
v -2.764550 4.708103 2.255596
v -3.128940 4.127986 2.250957
v -2.925625 3.270498 2.311473
v -2.528210 2.988902 2.219875
v -2.522162 4.847662 2.341480
v -2.992707 4.401598 2.091048
v -3.104151 3.927982 2.039853
v -3.095171 3.730863 2.064695
v -2.715085 3.089435 2.239757
v -2.874513 4.394999 1.857622
v -3.010634 4.039367 1.846465
v -2.978176 3.538710 1.930071
v -2.883596 3.280852 2.070485
v -2.316750 2.927660 2.227080
v -2.734468 4.631970 1.968694
v -2.908417 3.723097 1.728092
v -2.789229 3.360477 1.816387
v -2.335010 4.900198 2.332403
v -2.459076 4.800450 2.002336
v -2.699746 4.390509 1.664793
v -2.762609 4.112753 1.590687
v -2.763422 3.915314 1.565436
v -2.747231 3.598698 1.609772
v -2.585500 3.122112 1.905103
v -2.462684 3.266962 1.648299
v -2.113036 4.889009 2.152532
v -2.408707 4.627592 1.705018
v -2.391438 4.381933 1.504446
v -2.435818 4.033391 1.403220
v -2.427783 3.709065 1.416472
v -2.421201 3.514747 1.477383
v -2.262151 3.070415 1.820852
v -2.281648 2.983101 1.997213
vn 0.1068 0.8429 -0.5274
vn 0.0829 -0.5431 -0.8355
vn 0.0942 0.0849 -0.9919
vn -0.0116 -0.9940 -0.1088
vn 0.2906 -0.1299 -0.9480
vn 0.1496 0.9326 -0.3283
vn 0.2410 -0.6822 -0.6903
vn 0.2013 0.4469 -0.8716
vn 0.2450 -0.8569 -0.4535
vn 0.4292 0.2573 -0.8658
vn 0.2542 0.8718 -0.4187
vn 0.4033 -0.5427 -0.7367
vn 0.1021 0.9906 -0.0916
vn 0.5805 -0.3904 -0.7145
vn 0.4703 0.7175 -0.5138
vn 0.6459 0.0473 -0.7619
vn 0.7648 0.2879 -0.5763
vn 0.7666 -0.2058 -0.6083
vn 0.6600 -0.5538 -0.5076
vn 0.5449 -0.6892 -0.4775
vn 0.8116 -0.4003 -0.4256
vn 0.5043 0.8316 -0.2326
vn 0.7351 0.5763 -0.3571
vn 0.3280 -0.9272 -0.1809
vn 0.8975 -0.0181 -0.4407
vn 0.9421 0.2310 -0.2433
vn 0.9360 -0.1638 -0.3116
vn 0.8183 -0.5306 -0.2209
vn 0.6619 0.7219 -0.2019
vn 0.3812 0.9231 -0.0515
vn 0.9714 0.2030 0.1233
vn 0.9850 0.0650 0.1601
vn 0.8484 -0.5178 0.1102
vn 0.6759 0.7345 0.0614
vn 0.7981 0.5857 0.1413
vn 0.0368 -0.8982 -0.4381
vn 0.5374 0.8291 0.1540
vn 0.5563 -0.7983 0.2308
vn 0.1988 -0.9771 0.0758
vn 0.0891 -0.9949 0.0469
vn 0.9497 -0.1804 0.2561
vn 0.3419 -0.9177 0.2023
vn 0.6060 0.7233 0.3311
vn 0.2423 0.9484 0.2045
vn 0.3092 0.8744 0.3739
vn 0.4612 0.6190 0.6357
vn 0.6141 0.4881 0.6202
vn 0.3662 0.5762 0.7306
vn 0.3871 0.0842 0.9182
vn 0.0762 0.9932 0.0884
vn 0.3941 -0.3591 0.8460
vn 0.2685 -0.1878 0.9448
vn 0.1121 -0.6313 0.7674
vn -0.0227 -0.7568 0.6533
vn 0.0818 -0.3655 0.9272
vn 0.0332 0.8501 0.5256
vn 0.0296 -0.5002 0.8654
vn -0.1125 -0.1377 0.9841
vn -0.1434 0.2584 0.9553
vn -0.0728 -0.9686 0.2378
vn -0.3125 0.0037 0.9499
vn -0.0493 -0.9918 0.1179
vn -0.0757 0.9407 0.3306
vn -0.2760 -0.3654 0.8890
vn -0.1996 0.7273 0.6567
vn -0.4730 -0.1689 0.8647
vn -0.4204 -0.2932 0.8587
vn -0.3054 -0.8112 0.4986
vn -0.4829 0.2070 0.8509
vn -0.0572 0.9960 0.0689
vn -0.3520 0.8385 0.4159
vn -0.5831 -0.4692 0.6632
vn -0.7061 -0.3343 0.6242
vn -0.5834 -0.6535 0.4823
vn -0.3250 -0.9056 0.2725
vn -0.7679 0.2381 0.5947
vn -0.8069 0.1001 0.5821
vn -0.8762 -0.1710 0.4505
vn -0.2628 0.9572 0.1208
vn -0.5927 0.7407 0.3164
vn -0.5335 -0.7996 0.2758
vn -0.7163 0.5145 0.4714
vn -0.7704 0.6088 0.1892
vn -0.9532 0.2975 0.0538
vn -0.1340 -0.9908 0.0174
vn -0.9883 -0.1318 0.0765
vn -0.9423 -0.3053 0.1373
vn -0.5108 0.8585 0.0465
vn -0.8782 -0.4774 0.0282
vn -0.5834 0.8081 0.0819
vn -0.7768 -0.6134 0.1427
vn -0.8635 -0.4744 -0.1710
vn -0.7732 0.6269 -0.0957
vn -0.9922 0.0087 -0.1247
vn -0.8949 -0.3703 -0.2491
vn -0.9088 0.2634 -0.3235
vn -0.7097 0.5957 -0.3762
vn -0.5717 -0.7652 -0.2961
vn -0.2739 0.9443 -0.1824
vn -0.4336 0.8780 -0.2029
vn -0.7424 -0.5093 -0.4353
vn -0.7278 0.0900 -0.6799
vn -0.7185 -0.3720 -0.5877
vn -0.5990 -0.6733 -0.4334
vn -0.5852 0.6010 -0.5444
vn -0.3115 -0.8941 -0.3217
vn -0.6530 -0.1377 -0.7448
vn -0.5044 -0.5133 -0.6943
vn -0.4027 0.7600 -0.5101
vn -0.3655 0.5731 -0.7334
vn -0.2722 -0.7766 -0.5682
vn -0.0373 0.9935 -0.1078
vn -0.2171 -0.5294 -0.8201
vn -0.0534 0.7187 -0.6933
vn -0.1030 -0.7122 -0.6944
vn -0.0196 0.4680 -0.8835
vn -0.0882 -0.1997 -0.9759
vn 0.1187 -0.0086 -0.9929
vn 0.0844 0.7695 -0.6330
vn 0.0794 -0.6375 -0.7664
vn 0.0059 -0.9709 -0.2394
vn 0.3001 -0.2682 -0.9154
vn 0.5030 0.6195 -0.6026
vn 0.1942 0.8861 -0.4208
vn 0.2678 -0.4039 -0.8747
vn 0.2904 0.6260 -0.7237
vn 0.2947 0.3077 -0.9047
vn 0.3826 -0.5940 -0.7077
vn 0.2735 -0.8324 -0.4820
vn 0.5057 0.1231 -0.8539
vn 0.5152 -0.2706 -0.8132
vn 0.6588 -0.0291 -0.7518
vn 0.1764 0.9732 -0.1473
vn 0.5712 -0.4208 -0.7047
vn 0.5975 -0.7828 -0.1736
vn 0.5716 0.4679 -0.6741
vn 0.5311 -0.7182 -0.4495
vn 0.7659 0.1783 -0.6178
vn 0.7632 -0.2263 -0.6052
vn 0.8975 -0.0198 -0.4407
vn 0.7923 -0.4593 -0.4016
vn 0.5358 0.8079 -0.2454
vn 0.8275 0.3595 -0.4313
vn 0.3114 -0.9345 -0.1723
vn 0.9842 -0.1556 -0.0849
vn 0.4672 -0.8730 -0.1400
vn 0.9487 0.1887 -0.2537
vn 0.7319 0.6326 -0.2533
vn 0.3950 0.9171 -0.0540
vn 0.8844 -0.4627 -0.0612
vn 0.8809 0.4708 -0.0496
vn 0.9452 0.3095 -0.1043
vn 0.8466 0.2931 0.4442
vn 0.8447 0.5247 0.1061
vn 0.9900 -0.0743 0.1196
vn 0.6637 -0.7424 0.0907
vn 0.8533 -0.4648 0.2364
vn 0.5632 0.8104 0.1611
vn 0.4362 -0.8806 0.1850
vn 0.9104 0.3351 0.2428
vn 0.8677 0.0832 0.4901
vn 0.2447 -0.9573 0.1540
vn 0.8642 -0.1105 0.4909
vn 0.6120 -0.1042 0.7840
vn 0.7873 -0.3323 0.5194
vn 0.7840 -0.4862 0.3858
vn 0.6472 -0.6270 0.4337
vn 0.7108 0.6163 0.3390
vn 0.5700 -0.7522 0.3306
vn 0.7390 0.4953 0.4567
vn 0.3088 0.9086 0.2814
vn 0.6615 0.1018 0.7430
vn 0.5978 -0.3094 0.7396
vn 0.4156 0.7647 0.4925
vn 0.6026 0.2849 0.7455
vn 0.5151 -0.5867 0.6248
vn 0.3385 -0.6414 0.6885
vn 0.4329 0.3020 0.8493
vn 0.3265 -0.7768 0.5385
vn 0.2430 -0.8449 0.4766
vn 0.0341 -0.8841 0.4661
vn 0.4202 -0.0288 0.9070
vn 0.1446 0.9732 0.1788
vn 0.2618 -0.2640 0.9283
vn 0.1381 0.6353 0.7598
vn 0.0523 0.5119 0.8574
vn 0.0885 0.2823 0.9552
vn 0.0533 0.7721 0.6332
vn 0.0182 -0.9368 0.3495
vn 0.1076 0.1160 0.9874
vn 0.0804 -0.0081 0.9967
vn -0.2472 0.5074 0.8255
vn -0.1127 -0.1965 0.9740
vn -0.2276 -0.7183 0.6574
vn -0.5463 0.5122 0.6627
vn -0.2580 0.3857 0.8858
vn -0.3146 0.0174 0.9491
vn -0.0835 0.9266 0.3666
vn -0.2212 -0.4823 0.8476
vn -0.2921 -0.6213 0.7271
vn -0.2842 -0.8403 0.4617
vn -0.4837 0.2222 0.8465
vn -0.6459 -0.0906 0.7580
vn -0.5922 0.3403 0.7304
vn -0.3942 0.7926 0.4652
vn -0.1577 0.9768 0.1448
vn -0.8469 -0.3024 0.4374
vn -0.5487 -0.5554 0.6249
vn -0.5552 -0.6939 0.4585
vn -0.3009 -0.9237 0.2370
vn -0.7954 0.0147 0.6059
vn -0.8075 0.3751 0.4551
vn -0.9256 0.3003 0.2306
vn -0.3310 0.9319 0.1485
vn -0.7453 -0.5591 0.3632
vn -0.7008 0.6401 0.3148
vn -0.2976 -0.9543 0.0266
vn -0.9477 0.1304 0.2913
vn -0.9628 0.0057 0.2700
vn -0.6400 -0.7651 0.0707
vn -0.7421 0.6699 0.0222
vn -0.9920 -0.0605 -0.1106
vn -0.4756 -0.8793 -0.0239
vn -0.9137 0.3916 -0.1084
vn -0.8712 -0.1012 -0.4805
vn -0.9218 0.2216 -0.3181
vn -0.8689 -0.4410 -0.2247
vn -0.7078 0.6609 -0.2496
vn -0.6734 -0.7242 -0.1486
vn -0.4778 0.8353 -0.2718
vn -0.4784 -0.8366 -0.2669
vn -0.8371 0.3340 -0.4333
vn -0.7153 0.3091 -0.6267
vn -0.8600 -0.1924 -0.4727
vn -0.7496 0.0054 -0.6618
vn -0.7139 -0.3828 -0.5864
vn -0.4528 -0.0968 -0.8863
vn -0.4888 -0.6389 -0.5941
vn -0.4631 0.6674 -0.5832
vn -0.2600 -0.9289 -0.2637
vn -0.1382 0.9591 -0.2472
vn -0.4231 0.3107 -0.8511
vn -0.4226 -0.2841 -0.8606
vn -0.1429 0.8918 -0.4293
vn -0.4332 -0.4615 -0.7742
vn -0.2355 0.8223 -0.5180
vn -0.2544 -0.8552 -0.4515
vn -0.0904 -0.2969 -0.9506
vn -0.4735 0.1137 -0.8735
vn -0.2270 -0.0454 -0.9728
vn -0.0891 -0.4143 -0.9058
vn -0.1093 0.6240 -0.7737
vn -0.1041 -0.7140 -0.6923
vn -0.1404 0.2926 -0.9459
vn -0.0847 0.1713 -0.9816
vt 0.781230 0.812500
vt 0.762032 0.875000
vt 0.685473 0.777944
vt 0.734697 0.375000
vt 0.703125 0.312500
vt 0.764235 0.312500
vt 0.741874 0.599249
vt 0.704616 0.531266
vt 0.763980 0.500000
vt 0.734375 0.000000
vt 0.879629 0.062500
vt 0.593677 0.062500
vt 0.670132 0.472235
vt 0.734536 0.437500
vt 0.734224 0.937500
vt 0.605595 0.875000
vt 0.658359 0.250000
vt 0.719918 0.218999
vt 0.734375 0.717281
vt 0.678319 0.660608
vt 0.606077 0.187500
vt 0.641330 0.592355
vt 0.623673 0.812500
vt 0.673680 0.375000
vt 0.639230 0.312500
vt 0.640625 1.000000
vt 0.479138 0.937500
vt 0.639064 0.437500
vt 0.612180 0.375000
vt 0.595563 0.750000
vt 0.606567 0.500000
vt 0.603325 0.667055
vt 0.578286 0.562500
vt 0.578286 0.437500
vt 0.577540 0.283466
vt 0.543444 0.396147
vt 0.512752 0.812500
vt 0.546915 0.655822
vt 0.503540 0.125000
vt 0.660224 0.125000
vt 0.544067 0.500000
vt 0.509405 0.537235
vt 0.515588 0.281661
vt 0.510998 0.724803
vt 0.449506 0.875000
vt 0.487180 0.625000
vt 0.453286 0.562500
vt 0.450317 0.500000
vt 0.485851 0.406417
vt 0.453088 0.281661
vt 0.455926 0.750000
vt 0.445771 0.665313
vt 0.799126 0.125000
vt 0.779637 0.187500
vt 0.402284 0.812500
vt 0.497588 0.187500
vt 0.386121 0.187500
vt 0.328120 0.062500
vt 0.453125 0.000000
vt 0.437500 0.406180
vt 0.347717 0.125000
vt 0.390588 0.718339
vt 0.293360 0.875000
vt 0.308534 0.812500
vt 0.316528 0.750000
vt 0.343750 0.656371
vt 0.393429 0.625000
vt 0.296915 0.655822
vt 0.343750 0.531273
vt 0.297036 0.562500
vt 0.294067 0.500000
vt 0.328125 1.000000
vt 0.230145 0.937500
vt 0.328286 0.437500
vt 0.296914 0.344178
vt 0.343750 0.343629
vt 0.265786 0.437500
vt 0.234338 0.281661
vt 0.296902 0.219059
vt 0.214815 0.187500
vt 0.237180 0.375000
vt 0.199790 0.812500
vt 0.237635 0.520573
vt 0.203286 0.437500
vt 0.237180 0.625000
vt 0.203286 0.562500
vt 0.190964 0.125000
vt 0.113605 0.062500
vt 0.169067 0.500000
vt 0.203125 0.000000
vt 0.137012 0.875000
vt 0.176363 0.337227
vt 0.171838 0.718339
vt 0.234338 0.718339
vt 0.148421 0.399333
vt 0.160278 0.250000
vt 0.121065 0.187500
vt 0.174680 0.625000
vt 0.134405 0.537235
vt 0.140625 1.000000
vt 0.030235 0.937500
vt 0.075252 0.812500
vt 0.102021 0.334687
vt 0.109536 0.437500
vt 0.066529 0.250000
vt 0.055088 0.153620
vt 0.112179 0.625000
vt 0.078286 0.562500
vt 0.075317 0.500000
vt 0.047036 0.437500
vt 0.032456 0.875000
vt 0.048167 0.750000
vt 0.108913 0.719958
vt 0.062500 0.658651
vt 0.015664 0.655822
vt 0.018885 0.520574
vt 0.000000 0.562500
vt 0.015625 0.000000
vt 0.000000 0.062500
vt 0.000000 0.399333
vt 0.046914 0.344178
vt 0.000000 0.784407
vt 0.000000 0.273040
vt 0.991904 0.273040
vt 0.992171 0.399333
vt 0.937867 0.282145
vt 1.000000 0.655822
vt 0.975379 0.784407
vt 0.953164 0.655822
vt 1.000000 0.500000
vt 0.984536 0.562500
vt 0.950317 0.500000
vt 0.953286 0.437500
vt 0.924679 0.375000
vt 0.915655 0.537235
vt 0.910279 0.750000
vt 0.906250 0.656371
vt 0.965747 0.187500
vt 0.868449 0.212346
vt 0.978825 0.875000
vt 0.921769 0.937500
vt 0.872374 0.843190
vt 0.887823 0.312500
vt 0.859536 0.562500
vt 0.856567 0.500000
vt 0.890786 0.437500
vt 0.855944 0.396148
vt 0.859414 0.655822
vt 0.939862 0.125000
vt 0.812867 0.282145
vt 0.814726 0.750000
vt 0.796945 0.653777
vt 0.828125 1.000000
vt 0.798190 0.375000
vt 0.797036 0.437500
vt 0.390786 0.562500
vt 0.387817 0.500000
vt 0.390786 0.437500
vt 0.390665 0.344178
vt 0.378980 0.250000
vt 0.000000 0.125000
vt 0.000000 0.187500
vt 0.801816 0.543181
s 0
f 2/1/1 6/2/1 13/3/1
f 11/4/2 14/5/2 4/6/2
f 8/7/3 9/8/3 3/9/3
f 5/10/4 127/11/4 44/12/4
f 9/8/5 16/13/5 10/14/5
f 139/15/6 32/16/6 6/2/6
f 14/5/7 21/17/7 12/18/7
f 7/19/8 15/20/8 8/7/8
f 12/18/9 21/17/9 31/21/9
f 15/20/10 18/22/10 9/8/10
f 32/16/11 22/23/11 13/3/11
f 14/5/12 17/24/12 20/25/12
f 139/15/13 1/26/13 59/27/13
f 19/28/14 25/29/14 17/24/14
f 22/23/15 27/30/15 13/3/15
f 16/13/16 18/22/16 24/31/16
f 18/22/17 23/32/17 28/33/17
f 24/31/18 29/34/18 19/28/18
f 20/25/19 25/29/19 30/35/19
f 20/25/20 30/35/20 21/17/20
f 29/34/21 35/36/21 25/29/21
f 32/16/22 41/37/22 22/23/22
f 23/32/23 27/30/23 33/38/23
f 31/21/24 51/39/24 26/40/24
f 24/31/25 28/33/25 34/41/25
f 28/33/26 33/38/26 37/42/26
f 34/41/27 35/36/27 29/34/27
f 30/35/28 35/36/28 38/43/28
f 41/37/29 36/44/29 27/30/29
f 32/16/30 59/27/30 40/45/30
f 37/42/31 42/46/31 47/47/31
f 37/42/32 47/47/32 48/48/32
f 38/43/33 43/49/33 50/50/33
f 41/37/34 45/51/34 36/44/34
f 36/44/35 45/51/35 46/52/35
f 26/40/36 146/53/36 145/54/36 12/18/36
f 41/37/37 40/45/37 52/55/37
f 39/56/38 50/50/38 64/57/38
f 44/12/39 51/39/39 76/58/39
f 5/59/40 44/12/40 76/58/40
f 48/48/41 49/60/41 43/49/41
f 64/57/42 73/61/42 51/39/42
f 52/55/43 54/62/43 45/51/43
f 59/27/44 77/63/44 40/45/44
f 52/55/45 77/63/45 67/64/45
f 54/62/46 68/65/46 60/66/46
f 54/62/47 60/66/47 55/67/47
f 60/66/48 68/65/48 69/68/48
f 61/69/49 65/70/49 70/71/49
f 59/27/50 1/72/50 82/73/50
f 66/74/51 71/75/51 62/76/51
f 70/71/52 75/77/52 66/74/52
f 71/75/53 81/78/53 72/79/53
f 72/79/54 81/78/54 87/80/54
f 75/77/55 80/81/55 71/75/55
f 67/64/56 77/63/56 88/82/56
f 71/75/57 80/81/57 81/78/57
f 74/83/58 85/84/58 75/77/58
f 74/83/59 79/85/59 83/86/59
f 96/87/60 111/88/60 76/58/60
f 74/83/61 83/86/61 84/89/61
f 5/90/62 76/58/62 111/88/62
f 77/63/63 82/73/63 92/91/63
f 85/84/64 86/92/64 80/81/64
f 88/82/65 89/93/65 78/94/65
f 84/89/66 95/95/66 85/84/66
f 85/84/67 95/95/67 86/92/67
f 87/80/68 91/96/68 100/97/68
f 83/86/69 90/98/69 93/99/69
f 82/73/70 1/100/70 131/101/70
f 92/91/71 105/102/71 88/82/71
f 86/92/72 95/95/72 99/103/72
f 94/104/73 99/103/73 95/95/73
f 99/103/74 109/105/74 91/96/74
f 100/97/75 110/106/75 96/87/75
f 93/99/76 98/107/76 102/108/76
f 93/99/77 102/108/77 103/109/77
f 103/109/78 108/110/78 94/104/78
f 131/101/79 118/111/79 92/91/79
f 105/102/80 106/112/80 97/113/80
f 100/97/81 109/105/81 110/106/81
f 97/113/82 101/114/82 98/107/82
f 101/114/83 106/112/83 112/115/83
f 107/116/84 112/115/84 115/117/84
f 5/118/85 111/88/85 127/119/85
f 107/116/86 113/120/86 108/110/86
f 108/110/87 113/120/87 104/121/87
f 105/102/88 118/111/88 114/122/88
f 104/121/89 113/120/89 116/123/89
f 105/102/90 114/122/90 106/112/90
f 104/121/91 116/123/91 109/105/91
f 116/124/92 113/125/92 126/126/92
f 112/127/93 114/128/93 119/129/93
f 107/130/94 115/131/94 120/132/94
f 121/133/95 125/134/95 113/125/95
f 115/131/96 119/129/96 124/135/96
f 119/129/97 128/136/97 123/137/97
f 122/138/98 126/126/98 137/139/98
f 118/140/99 131/141/99 132/142/99
f 118/140/100 132/142/100 114/128/100
f 126/126/101 125/134/101 130/143/101
f 124/135/102 134/144/102 135/145/102
f 129/146/103 136/147/103 125/134/103
f 130/143/104 137/139/104 126/126/104
f 123/137/105 128/136/105 133/148/105
f 137/139/106 146/53/106 117/149/106
f 135/145/107 136/147/107 129/146/107
f 130/143/108 136/147/108 138/150/108
f 132/142/109 140/151/109 128/136/109
f 133/148/110 140/151/110 141/152/110
f 137/139/111 138/150/111 145/54/111
f 131/141/112 1/153/112 139/15/112
f 138/150/113 144/154/113 4/6/113
f 140/151/114 2/1/114 7/19/114
f 4/6/115 12/18/115 138/150/115
f 141/152/116 7/19/116 8/7/116
f 3/9/117 10/14/117 143/155/117
f 3/9/118 9/8/118 10/14/118
f 7/19/119 2/1/119 13/3/119
f 4/6/120 14/5/120 12/18/120
f 44/12/121 127/11/121 146/53/121 26/40/121
f 17/24/122 11/4/122 10/14/122 16/13/122
f 23/32/123 15/20/123 13/3/123 27/30/123
f 6/2/124 32/16/124 13/3/124
f 11/4/125 17/24/125 14/5/125
f 7/19/126 13/3/126 15/20/126
f 9/8/127 8/7/127 15/20/127
f 21/17/128 14/5/128 20/25/128
f 12/18/129 31/21/129 26/40/129
f 9/8/130 18/22/130 16/13/130
f 16/13/131 19/28/131 17/24/131
f 16/13/132 24/31/132 19/28/132
f 139/15/133 59/27/133 32/16/133
f 20/25/134 17/24/134 25/29/134
f 38/43/135 39/56/135 31/21/135 30/35/135
f 15/20/136 23/32/136 18/22/136
f 21/17/137 30/35/137 31/21/137
f 24/31/138 18/22/138 28/33/138
f 19/28/139 29/34/139 25/29/139
f 24/31/140 34/41/140 29/34/140
f 30/35/141 25/29/141 35/36/141
f 22/23/142 41/37/142 27/30/142
f 28/33/143 23/32/143 33/38/143
f 44/12/144 26/40/144 51/39/144
f 43/49/145 35/36/145 34/41/145 37/42/145
f 51/39/146 31/21/146 39/56/146
f 34/41/147 28/33/147 37/42/147
f 33/38/148 27/30/148 36/44/148
f 32/16/149 40/45/149 41/37/149
f 38/43/150 35/36/150 43/49/150
f 33/38/151 36/44/151 42/46/151
f 37/42/152 33/38/152 42/46/152
f 55/67/153 56/156/153 47/47/153 46/52/153
f 36/44/154 46/52/154 42/46/154
f 37/42/155 48/48/155 43/49/155
f 39/56/156 38/43/156 50/50/156
f 50/50/157 43/49/157 49/60/157
f 41/37/158 52/55/158 45/51/158
f 39/56/159 64/57/159 51/39/159
f 47/47/160 42/46/160 46/52/160
f 56/156/161 57/157/161 48/48/161 47/47/161
f 51/39/162 73/61/162 76/58/162
f 58/158/163 49/60/163 48/48/163 57/157/163
f 66/74/164 58/158/164 57/157/164 61/69/164
f 49/60/165 58/158/165 53/159/165
f 50/50/166 49/60/166 53/159/166
f 50/50/167 53/159/167 63/160/167
f 46/52/168 45/51/168 54/62/168
f 64/57/169 50/50/169 63/160/169
f 46/52/170 54/62/170 55/67/170
f 40/45/171 77/63/171 52/55/171
f 57/157/172 56/156/172 61/69/172
f 62/76/173 53/159/173 58/158/173 66/74/173
f 68/65/174 54/62/174 52/55/174 67/64/174
f 60/66/175 61/69/175 56/156/175 55/67/175
f 53/159/176 62/76/176 63/160/176
f 72/79/177 63/160/177 62/76/177 71/75/177
f 69/68/178 65/70/178 61/69/178 60/66/178
f 64/57/179 63/160/179 72/79/179
f 64/57/180 72/79/180 73/61/180
f 96/87/181 73/61/181 72/79/181 87/80/181
f 61/69/182 70/71/182 66/74/182
f 59/27/183 82/73/183 77/63/183
f 66/74/184 75/77/184 71/75/184
f 69/68/185 68/65/185 78/94/185
f 69/68/186 78/94/186 79/85/186
f 79/85/187 74/83/187 65/70/187 69/68/187
f 78/94/188 68/65/188 67/64/188 88/82/188
f 76/58/189 73/61/189 96/87/189
f 70/71/190 65/70/190 74/83/190
f 70/71/191 74/83/191 75/77/191
f 90/98/192 79/85/192 78/94/192 89/93/192
f 75/77/193 85/84/193 80/81/193
f 87/80/194 81/78/194 91/96/194
f 98/107/195 90/98/195 89/93/195 97/113/195
f 83/86/196 79/85/196 90/98/196
f 74/83/197 84/89/197 85/84/197
f 77/63/198 92/91/198 88/82/198
f 81/78/199 80/81/199 86/92/199
f 81/78/200 86/92/200 91/96/200
f 87/80/201 100/97/201 96/87/201
f 84/89/202 83/86/202 93/99/202
f 94/104/203 95/95/203 84/89/203 93/99/203
f 93/99/204 90/98/204 98/107/204
f 97/113/205 89/93/205 88/82/205 105/102/205
f 82/73/206 131/101/206 92/91/206
f 104/121/207 99/103/207 94/104/207 108/110/207
f 86/92/208 99/103/208 91/96/208
f 100/97/209 91/96/209 109/105/209
f 96/87/210 110/106/210 111/88/210
f 93/99/211 103/109/211 94/104/211
f 102/108/212 98/107/212 101/114/212
f 112/115/213 107/116/213 102/108/213 101/114/213
f 92/91/214 118/111/214 105/102/214
f 99/103/215 104/121/215 109/105/215
f 97/113/216 106/112/216 101/114/216
f 127/119/217 111/88/217 110/106/217 117/161/217
f 103/109/218 102/108/218 107/116/218
f 103/109/219 107/116/219 108/110/219
f 116/123/220 122/162/220 110/106/220 109/105/220
f 112/115/221 106/112/221 114/122/221
f 121/133/222 113/125/222 107/130/222 120/132/222
f 110/106/223 122/162/223 117/161/223
f 115/131/224 112/127/224 119/129/224
f 129/146/225 121/133/225 120/132/225 124/135/225
f 120/132/226 115/131/226 124/135/226
f 126/126/227 113/125/227 125/134/227
f 119/129/228 114/128/228 128/136/228
f 122/138/229 116/124/229 126/126/229
f 114/128/230 132/142/230 128/136/230
f 117/149/231 122/138/231 137/139/231
f 124/135/232 119/129/232 123/137/232
f 133/148/233 134/144/233 124/135/233 123/137/233
f 121/133/234 129/146/234 125/134/234
f 124/135/235 135/145/235 129/146/235
f 130/143/236 125/134/236 136/147/236
f 143/155/237 136/147/237 135/145/237 142/163/237
f 130/143/238 138/150/238 137/139/238
f 133/148/239 128/136/239 140/151/239
f 117/149/240 146/53/240 127/11/240
f 139/15/241 6/2/241 132/142/241 131/141/241
f 141/152/242 142/163/242 134/144/242 133/148/242
f 136/147/243 143/155/243 144/154/243
f 132/142/244 6/2/244 2/1/244
f 138/150/245 136/147/245 144/154/245
f 132/142/246 2/1/246 140/151/246
f 137/139/247 145/54/247 146/53/247
f 11/4/248 144/154/248 143/155/248 10/14/248
f 135/145/249 134/144/249 142/163/249
f 142/163/250 3/9/250 143/155/250
f 144/154/251 11/4/251 4/6/251
f 141/152/252 140/151/252 7/19/252
f 145/54/253 138/150/253 12/18/253
f 142/163/254 141/152/254 8/7/254
f 3/9/255 142/163/255 8/7/255
