# Blender 5.0.0
# www.blender.org
mtllib prep_throw_ball0012.mtl
o Sphere
v -2.409956 5.798717 1.671708
v -2.412449 5.505619 1.157923
v -2.554415 4.570498 0.844190
v -2.776046 4.118631 1.081653
v -3.083134 3.974430 1.930068
v -2.355389 5.608472 1.310752
v -2.251303 5.166792 1.009694
v -2.330470 4.816486 0.883052
v -2.189895 4.550269 0.974169
v -2.458924 4.341010 0.938227
v -2.544137 4.190706 1.014642
v -2.744873 3.922750 1.345863
v -2.081754 5.305944 1.236329
v -2.492736 4.028931 1.189879
v -2.020186 4.927867 1.104636
v -2.102230 4.338983 1.127306
v -2.264832 4.112596 1.201046
v -1.899275 4.697259 1.232801
v -2.044644 4.225575 1.301219
v -2.284552 3.971934 1.427954
v -2.482978 3.897310 1.449011
v -2.002443 5.377209 1.439724
v -1.815064 4.924795 1.426622
v -1.871055 4.401832 1.439996
v -2.079834 4.086503 1.488363
v -2.780673 3.857052 1.671362
v -1.875891 5.204388 1.500139
v -1.775658 4.607266 1.584861
v -1.908368 4.247626 1.635794
v -2.238696 3.945667 1.742365
v -2.536426 3.853516 1.708089
v -2.098401 5.552985 1.544789
v -1.754061 4.936670 1.734510
v -1.806663 4.458158 1.815615
v -1.956978 4.187401 1.847730
v -1.828064 5.200530 1.883806
v -1.794456 4.622835 2.006456
v -2.247489 4.010035 2.033672
v -2.533637 3.933529 2.072546
v -2.137316 5.642721 1.898531
v -1.957073 5.448045 1.805437
v -1.810437 4.942663 2.079990
v -2.005076 4.311862 2.181505
v -2.896477 3.891523 1.870344
v -1.950997 5.362229 2.081391
v -1.917077 5.149777 2.234983
v -1.914255 4.835856 2.305930
v -1.975446 4.659477 2.356818
v -2.140125 4.429145 2.417639
v -2.358395 4.123507 2.307038
v -2.712449 3.902627 2.021136
v -2.145283 5.598071 2.121501
v -2.443467 4.404342 2.580159
v -2.130997 5.430081 2.350828
v -2.124009 5.180932 2.491918
v -2.168978 5.013659 2.571694
v -2.239915 4.841798 2.622753
v -2.301688 4.654019 2.622628
v -2.244623 5.726459 1.752959
v -2.346284 5.396983 2.564599
v -2.459129 5.073795 2.724504
v -2.665349 4.532330 2.687053
v -2.660048 4.223911 2.494046
v -2.751548 4.100088 2.369395
v -2.681426 5.286505 2.735332
v -2.634238 4.839851 2.767167
v -2.428749 5.754452 2.235861
v -2.426596 5.656997 2.395296
v -2.585780 5.518116 2.606143
v -2.765235 5.118980 2.779496
v -2.905831 4.650789 2.728976
v -3.004192 4.317735 2.524200
v -2.944712 4.072047 2.281889
v -3.079464 5.326695 2.700092
v -2.993987 5.005420 2.768476
v -3.040796 4.017400 2.121855
v -2.441588 5.826895 2.053064
v -2.815720 5.760225 2.418958
v -2.936669 5.577236 2.592338
v -3.195979 4.874516 2.691859
v -3.245859 4.594564 2.584042
v -2.494076 5.858954 1.854142
v -3.193457 5.485160 2.575422
v -3.424358 5.353845 2.482455
v -3.326168 5.125520 2.626355
v -3.482174 4.842646 2.487067
v -3.286176 4.353176 2.382779
v -2.768139 5.890138 2.143414
v -3.051084 5.830550 2.253674
v -3.220943 5.664404 2.402454
v -3.490587 4.571693 2.346397
v -2.743340 5.918260 1.885983
v -3.506279 5.477098 2.303104
v -3.665197 5.183025 2.196796
v -3.573220 5.059400 2.398490
v -3.282506 4.209224 2.216631
v -3.207343 5.845893 2.006891
v -3.413256 5.686645 2.113412
v -3.682369 4.854438 2.163461
v -3.494871 4.396817 2.154394
v -3.406615 5.724557 1.835525
v -3.584722 5.525521 1.965981
v -3.672014 5.352097 1.977361
v -3.739029 4.836478 1.867265
v -2.973261 5.911182 1.789256
v -3.166945 5.840571 1.716250
v -3.645808 5.336960 1.607385
v -3.734908 5.131093 1.829709
v -3.646240 4.559310 1.979606
v -3.481998 4.272688 1.922267
v -3.249893 4.089194 2.008865
v -3.403127 5.657830 1.575257
v -3.694743 4.916327 1.528837
v -3.017707 5.788945 1.437995
v -3.531541 5.374199 1.411179
v -3.636487 4.537159 1.631392
v -3.342245 4.116721 1.686581
v -2.776074 5.864863 1.565074
v -3.279094 5.529226 1.262099
v -3.517644 5.113670 1.244957
v -3.578835 4.937291 1.295846
v -3.484704 4.277584 1.642915
v -3.113090 5.408554 1.074955
v -3.346856 5.122708 1.073825
v -3.498892 4.678163 1.224902
v -3.532106 4.454878 1.414801
v -3.172069 3.992635 1.757192
v -2.939713 5.616177 1.186147
v -3.324113 4.759488 1.030082
v -3.354798 4.414781 1.190913
v -2.587397 5.848289 1.599419
v -2.645303 5.690897 1.269197
v -2.905771 5.284205 0.940670
v -3.031885 5.025425 0.889863
v -3.088955 4.835806 0.891136
v -3.186799 4.553353 0.977509
v -3.269396 4.156571 1.358671
v -3.044816 4.166210 1.131449
v -2.342833 5.706326 1.490669
v -2.577038 5.419014 1.025289
v -2.587260 5.122358 0.872800
v -2.712102 4.783537 0.810450
v -2.811666 4.486642 0.866444
v -2.883567 4.325294 0.950226
v -2.970896 3.974646 1.371784
v -3.062499 3.957741 1.543455
vn 0.5123 0.6116 -0.6029
vn 0.0296 -0.7301 -0.6827
vn 0.3249 -0.1482 -0.9341
vn -0.3778 -0.9207 0.0974
vn 0.4257 -0.4086 -0.8074
vn 0.5463 0.7192 -0.4293
vn 0.0926 -0.8863 -0.4537
vn 0.5278 0.1808 -0.8299
vn -0.0278 -0.9847 -0.1722
vn 0.6784 -0.0517 -0.7329
vn 0.6310 0.6218 -0.4639
vn 0.3232 -0.8166 -0.4782
vn 0.4874 0.8376 -0.2468
vn 0.5587 -0.7125 -0.4244
vn 0.7872 0.4180 -0.4534
vn 0.7957 -0.2950 -0.5290
vn 0.9377 -0.0547 -0.3432
vn 0.7854 -0.5502 -0.2836
vn 0.5156 -0.8444 -0.1457
vn 0.3373 -0.9328 -0.1271
vn 0.7026 -0.7104 -0.0407
vn 0.8008 0.5616 -0.2081
vn 0.9459 0.2577 -0.1973
vn -0.0348 -0.9901 0.1358
vn 0.9283 -0.3566 -0.1057
vn 0.9951 -0.0869 0.0476
vn 0.8757 -0.4785 0.0649
vn 0.5974 -0.7791 0.1902
vn 0.8952 0.4326 -0.1072
vn 0.6956 0.7109 -0.1038
vn 0.9158 -0.0460 0.3991
vn 0.8688 -0.1669 0.4662
vn 0.5390 -0.6778 0.5000
vn 0.8608 0.4910 0.1337
vn 0.8973 0.3436 0.2771
vn -0.2402 -0.9458 -0.2187
vn 0.7606 0.6308 0.1535
vn 0.1374 -0.8174 0.5595
vn -0.2182 -0.9171 0.3338
vn -0.3161 -0.9085 0.2733
vn 0.7216 -0.3598 0.5914
vn -0.0925 -0.8706 0.4832
vn 0.7491 0.5558 0.3605
vn 0.5451 0.8347 0.0784
vn 0.5471 0.7906 0.2749
vn 0.5325 0.5712 0.6247
vn 0.6132 0.4022 0.6798
vn 0.4159 0.5829 0.6980
vn 0.1970 0.1566 0.9678
vn 0.4371 0.8945 -0.0938
vn 0.0423 -0.2559 0.9658
vn -0.0213 -0.0541 0.9983
vn -0.2904 -0.4375 0.8510
vn -0.4317 -0.5340 0.7270
vn -0.2520 -0.1688 0.9529
vn 0.2683 0.9019 0.3386
vn -0.3353 -0.2860 0.8977
vn -0.3600 0.1016 0.9274
vn -0.2320 0.4929 0.8386
vn -0.4780 -0.7910 0.3819
vn -0.4945 0.2892 0.8197
vn -0.4466 -0.8470 0.2884
vn 0.2416 0.9660 0.0919
vn -0.5736 -0.0849 0.8148
vn -0.0261 0.9059 0.4226
vn -0.6916 0.1481 0.7069
vn -0.6799 0.0140 0.7331
vn -0.6695 -0.5417 0.5083
vn -0.5662 0.5258 0.6348
vn 0.3249 0.9324 -0.1581
vn -0.0732 0.9922 0.1013
vn -0.8440 -0.1433 0.5169
vn -0.9087 0.0051 0.4175
vn -0.8614 -0.3403 0.3770
vn -0.6784 -0.6629 0.3168
vn -0.7710 0.5801 0.2627
vn -0.8547 0.4475 0.2632
vn -0.9724 0.1694 0.1607
vn 0.1177 0.9776 -0.1747
vn -0.3212 0.9450 -0.0619
vn -0.8234 -0.5181 0.2314
vn -0.5771 0.8109 0.0968
vn -0.5115 0.8307 -0.2198
vn -0.7655 0.5447 -0.3424
vn -0.5031 -0.8474 0.1696
vn -0.9583 0.1562 -0.2394
vn -0.9915 -0.0028 -0.1304
vn -0.1323 0.9412 -0.3108
vn -0.9655 -0.1950 -0.1724
vn -0.2275 0.9283 -0.2942
vn -0.9475 -0.3197 -0.0062
vn -0.9076 -0.2337 -0.3486
vn -0.4313 0.7616 -0.4836
vn -0.8575 0.2434 -0.4532
vn -0.8801 -0.1480 -0.4511
vn -0.6370 0.4088 -0.6535
vn -0.3203 0.6410 -0.6975
vn -0.7419 -0.5953 -0.3085
vn 0.1587 0.8802 -0.4473
vn -0.0035 0.8614 -0.5080
vn -0.7643 -0.3481 -0.5429
vn -0.4683 0.1351 -0.8732
vn -0.6616 -0.2615 -0.7027
vn -0.7064 -0.5349 -0.4636
vn -0.1741 0.5739 -0.8002
vn -0.5652 -0.7945 -0.2221
vn -0.4821 -0.0992 -0.8705
vn -0.5164 -0.4732 -0.7138
vn 0.0378 0.6725 -0.7391
vn 0.0420 0.4556 -0.8892
vn -0.4439 -0.7623 -0.4711
vn 0.3707 0.8757 -0.3095
vn -0.2474 -0.6083 -0.7541
vn 0.3592 0.5122 -0.7802
vn -0.2438 -0.7926 -0.5589
vn 0.3364 0.2520 -0.9074
vn 0.0386 -0.3651 -0.9302
vn 0.3135 -0.2455 -0.9173
vn 0.4864 0.5339 -0.6917
vn -0.0281 -0.8046 -0.5932
vn -0.3317 -0.9431 -0.0226
vn 0.3742 -0.5452 -0.7502
vn 0.8038 0.3083 -0.5088
vn 0.5843 0.6485 -0.4879
vn 0.2777 -0.6639 -0.6943
vn 0.6384 0.3438 -0.6887
vn 0.5753 0.0239 -0.8176
vn 0.2738 -0.8533 -0.4437
vn 0.0153 -0.9804 -0.1962
vn 0.7058 -0.1997 -0.6796
vn 0.5652 -0.5928 -0.5737
vn 0.7803 -0.3733 -0.5018
vn 0.5539 0.7883 -0.2679
vn 0.5346 -0.7383 -0.4112
vn 0.2729 -0.9390 0.2092
vn 0.8353 0.1430 -0.5308
vn 0.3045 -0.9475 -0.0974
vn 0.9159 -0.1682 -0.3646
vn 0.7738 -0.5694 -0.2776
vn 0.9277 -0.3582 -0.1053
vn 0.6535 -0.7568 -0.0109
vn 0.8225 0.5307 -0.2048
vn 0.9805 0.0244 -0.1952
vn -0.0546 -0.9887 0.1395
vn 0.8556 -0.4263 0.2935
vn 0.1068 -0.9713 0.2124
vn 0.9903 -0.1302 0.0490
vn 0.9380 0.3274 -0.1136
vn 0.7057 0.7014 -0.1003
vn 0.6405 -0.6847 0.3476
vn 0.9705 0.1844 0.1552
vn 0.9869 0.0123 0.1608
vn 0.7683 0.1291 0.6270
vn 0.9231 0.2709 0.2731
vn 0.8330 -0.3041 0.4621
vn 0.2871 -0.8379 0.4643
vn 0.5317 -0.5971 0.6007
vn 0.7745 0.6087 0.1722
vn 0.0083 -0.8695 0.4939
vn 0.8820 0.1114 0.4579
vn 0.6958 -0.0543 0.7162
vn -0.1842 -0.8910 0.4149
vn 0.6177 -0.2252 0.7535
vn 0.3427 -0.0982 0.9343
vn 0.4586 -0.3958 0.7956
vn 0.4261 -0.5611 0.7097
vn 0.2409 -0.6382 0.7312
vn 0.7961 0.4328 0.4229
vn 0.1465 -0.7535 0.6409
vn 0.7520 0.3407 0.5643
vn 0.5748 0.7982 0.1804
vn 0.4754 0.0644 0.8774
vn 0.2584 -0.2834 0.9235
vn 0.5760 0.6862 0.4442
vn 0.4984 0.2459 0.8314
vn 0.1030 -0.5264 0.8440
vn -0.0825 -0.5165 0.8523
vn 0.3393 0.3313 0.8804
vn -0.1153 -0.6611 0.7414
vn -0.2013 -0.7121 0.6726
vn -0.3941 -0.6947 0.6017
vn 0.1827 0.0424 0.9823
vn 0.4743 0.8802 0.0167
vn -0.0533 -0.1236 0.9909
vn 0.2314 0.7230 0.6509
vn 0.0812 0.6567 0.7497
vn -0.0003 0.4412 0.8974
vn 0.2348 0.8512 0.4694
vn -0.4068 -0.7617 0.5043
vn -0.0565 0.2808 0.9581
vn -0.1326 0.1725 0.9760
vn -0.2030 0.7500 0.6295
vn -0.3793 0.0444 0.9242
vn -0.5997 -0.4510 0.6610
vn -0.4610 0.8124 0.3569
vn -0.2780 0.6446 0.7122
vn -0.4913 0.3033 0.8165
vn 0.2224 0.9667 0.1270
vn -0.5530 -0.2118 0.8058
vn -0.6390 -0.3387 0.6906
vn -0.6540 -0.5788 0.4870
vn -0.5602 0.5408 0.6275
vn -0.8088 0.2511 0.5318
vn -0.5944 0.6685 0.4469
vn -0.1439 0.9788 0.1458
vn 0.2153 0.9692 -0.1195
vn -0.9824 0.0348 0.1835
vn -0.8302 -0.2364 0.5049
vn -0.8441 -0.3869 0.3713
vn -0.6579 -0.6922 0.2966
vn -0.8792 0.3639 0.3077
vn -0.7172 0.6925 0.0773
vn -0.7913 0.5877 -0.1688
vn 0.0404 0.9850 -0.1680
vn -0.9510 -0.2388 0.1964
vn -0.4666 0.8807 -0.0810
vn -0.6314 -0.7668 0.1154
vn -0.8924 0.4438 -0.0814
vn -0.9434 0.3219 -0.0800
vn -0.8654 -0.5011 0.0041
vn -0.4157 0.8279 -0.3766
vn -0.8862 0.1832 -0.4255
vn -0.7480 -0.6636 -0.0044
vn -0.6479 0.5794 -0.4945
vn -0.7078 0.0411 -0.7052
vn -0.6658 0.3758 -0.6446
vn -0.8888 -0.2130 -0.4058
vn -0.3219 0.7313 -0.6013
vn -0.8390 -0.5001 -0.2144
vn -0.0453 0.8172 -0.5746
vn -0.6945 -0.6794 -0.2369
vn -0.5207 0.4287 -0.7383
vn -0.3826 0.3349 -0.8611
vn -0.7350 -0.0415 -0.6767
vn -0.5241 0.0694 -0.8488
vn -0.6622 -0.2722 -0.6981
vn -0.2658 -0.1437 -0.9533
vn -0.5713 -0.5716 -0.5889
vn -0.0354 0.5918 -0.8053
vn -0.5435 -0.8271 -0.1436
vn 0.2940 0.8379 -0.4599
vn -0.0852 0.2198 -0.9718
vn -0.3208 -0.3199 -0.8915
vn 0.2966 0.7373 -0.6070
vn -0.4192 -0.4640 -0.7803
vn 0.2069 0.6816 -0.7019
vn -0.4794 -0.8108 -0.3357
vn -0.0084 -0.4538 -0.8911
vn -0.2019 0.0542 -0.9779
vn -0.0276 -0.1763 -0.9839
vn -0.0650 -0.5593 -0.8264
vn 0.2915 0.4293 -0.8548
vn -0.2460 -0.7934 -0.5567
vn 0.1761 0.1150 -0.9776
vn 0.1882 -0.0162 -0.9820
vt 0.781230 0.812500
vt 0.762032 0.875000
vt 0.685473 0.777944
vt 0.734697 0.375000
vt 0.703125 0.312500
vt 0.764235 0.312500
vt 0.741874 0.599249
vt 0.704616 0.531266
vt 0.763980 0.500000
vt 0.734375 0.000000
vt 0.879629 0.062500
vt 0.593677 0.062500
vt 0.670132 0.472235
vt 0.734536 0.437500
vt 0.734224 0.937500
vt 0.605595 0.875000
vt 0.658359 0.250000
vt 0.719918 0.218999
vt 0.734375 0.717281
vt 0.678319 0.660608
vt 0.606077 0.187500
vt 0.641330 0.592355
vt 0.623673 0.812500
vt 0.673680 0.375000
vt 0.639230 0.312500
vt 0.640625 1.000000
vt 0.479138 0.937500
vt 0.639064 0.437500
vt 0.612180 0.375000
vt 0.595563 0.750000
vt 0.606567 0.500000
vt 0.603325 0.667055
vt 0.578286 0.562500
vt 0.578286 0.437500
vt 0.577540 0.283466
vt 0.543444 0.396147
vt 0.512752 0.812500
vt 0.546915 0.655822
vt 0.503540 0.125000
vt 0.660224 0.125000
vt 0.544067 0.500000
vt 0.509405 0.537235
vt 0.515588 0.281661
vt 0.510998 0.724803
vt 0.449506 0.875000
vt 0.487180 0.625000
vt 0.453286 0.562500
vt 0.450317 0.500000
vt 0.485851 0.406417
vt 0.453088 0.281661
vt 0.455926 0.750000
vt 0.445771 0.665313
vt 0.799126 0.125000
vt 0.779637 0.187500
vt 0.402284 0.812500
vt 0.497588 0.187500
vt 0.386121 0.187500
vt 0.328120 0.062500
vt 0.453125 0.000000
vt 0.437500 0.406180
vt 0.347717 0.125000
vt 0.390588 0.718339
vt 0.293360 0.875000
vt 0.308534 0.812500
vt 0.316528 0.750000
vt 0.343750 0.656371
vt 0.393429 0.625000
vt 0.296915 0.655822
vt 0.343750 0.531273
vt 0.297036 0.562500
vt 0.294067 0.500000
vt 0.328125 1.000000
vt 0.230145 0.937500
vt 0.328286 0.437500
vt 0.296914 0.344178
vt 0.343750 0.343629
vt 0.265786 0.437500
vt 0.234338 0.281661
vt 0.296902 0.219059
vt 0.214815 0.187500
vt 0.237180 0.375000
vt 0.199790 0.812500
vt 0.237635 0.520573
vt 0.203286 0.437500
vt 0.237180 0.625000
vt 0.203286 0.562500
vt 0.190964 0.125000
vt 0.113605 0.062500
vt 0.169067 0.500000
vt 0.203125 0.000000
vt 0.137012 0.875000
vt 0.176363 0.337227
vt 0.171838 0.718339
vt 0.234338 0.718339
vt 0.148421 0.399333
vt 0.160278 0.250000
vt 0.121065 0.187500
vt 0.174680 0.625000
vt 0.134405 0.537235
vt 0.140625 1.000000
vt 0.030235 0.937500
vt 0.075252 0.812500
vt 0.102021 0.334687
vt 0.109536 0.437500
vt 0.066529 0.250000
vt 0.055088 0.153620
vt 0.112179 0.625000
vt 0.078286 0.562500
vt 0.075317 0.500000
vt 0.047036 0.437500
vt 0.032456 0.875000
vt 0.048167 0.750000
vt 0.108913 0.719958
vt 0.062500 0.658651
vt 0.015664 0.655822
vt 0.018885 0.520574
vt 0.000000 0.562500
vt 0.015625 0.000000
vt 0.000000 0.062500
vt 0.000000 0.399333
vt 0.046914 0.344178
vt 0.000000 0.784407
vt 0.000000 0.273040
vt 0.991904 0.273040
vt 0.992171 0.399333
vt 0.937867 0.282145
vt 1.000000 0.655822
vt 0.975379 0.784407
vt 0.953164 0.655822
vt 1.000000 0.500000
vt 0.984536 0.562500
vt 0.950317 0.500000
vt 0.953286 0.437500
vt 0.924679 0.375000
vt 0.915655 0.537235
vt 0.910279 0.750000
vt 0.906250 0.656371
vt 0.965747 0.187500
vt 0.868449 0.212346
vt 0.978825 0.875000
vt 0.921769 0.937500
vt 0.872374 0.843190
vt 0.887823 0.312500
vt 0.859536 0.562500
vt 0.856567 0.500000
vt 0.890786 0.437500
vt 0.855944 0.396148
vt 0.859414 0.655822
vt 0.939862 0.125000
vt 0.812867 0.282145
vt 0.814726 0.750000
vt 0.796945 0.653777
vt 0.828125 1.000000
vt 0.798190 0.375000
vt 0.797036 0.437500
vt 0.390786 0.562500
vt 0.387817 0.500000
vt 0.390786 0.437500
vt 0.390665 0.344178
vt 0.378980 0.250000
vt 0.000000 0.125000
vt 0.000000 0.187500
vt 0.801816 0.543181
s 0
f 2/1/1 6/2/1 13/3/1
f 11/4/2 14/5/2 4/6/2
f 8/7/3 9/8/3 3/9/3
f 5/10/4 127/11/4 44/12/4
f 9/8/5 16/13/5 10/14/5
f 139/15/6 32/16/6 6/2/6
f 14/5/7 21/17/7 12/18/7
f 7/19/8 15/20/8 8/7/8
f 12/18/9 21/17/9 31/21/9
f 15/20/10 18/22/10 9/8/10
f 32/16/11 22/23/11 13/3/11
f 14/5/12 17/24/12 20/25/12
f 139/15/13 1/26/13 59/27/13
f 19/28/14 25/29/14 17/24/14
f 22/23/15 27/30/15 13/3/15
f 16/13/16 18/22/16 24/31/16
f 18/22/17 23/32/17 28/33/17
f 24/31/18 29/34/18 19/28/18
f 20/25/19 25/29/19 30/35/19
f 20/25/20 30/35/20 21/17/20
f 29/34/21 35/36/21 25/29/21
f 32/16/22 41/37/22 22/23/22
f 23/32/23 27/30/23 33/38/23
f 31/21/24 51/39/24 26/40/24
f 24/31/25 28/33/25 34/41/25
f 28/33/26 33/38/26 37/42/26
f 34/41/27 35/36/27 29/34/27
f 30/35/28 35/36/28 38/43/28
f 41/37/29 36/44/29 27/30/29
f 32/16/30 59/27/30 40/45/30
f 37/42/31 42/46/31 47/47/31
f 37/42/32 47/47/32 48/48/32
f 38/43/33 43/49/33 50/50/33
f 41/37/34 45/51/34 36/44/34
f 36/44/35 45/51/35 46/52/35
f 26/40/36 146/53/36 145/54/36 12/18/36
f 41/37/37 40/45/37 52/55/37
f 39/56/38 50/50/38 64/57/38
f 44/12/39 51/39/39 76/58/39
f 5/59/40 44/12/40 76/58/40
f 48/48/41 49/60/41 43/49/41
f 64/57/42 73/61/42 51/39/42
f 52/55/43 54/62/43 45/51/43
f 59/27/44 77/63/44 40/45/44
f 52/55/45 77/63/45 67/64/45
f 54/62/46 68/65/46 60/66/46
f 54/62/47 60/66/47 55/67/47
f 60/66/48 68/65/48 69/68/48
f 61/69/49 65/70/49 70/71/49
f 59/27/50 1/72/50 82/73/50
f 66/74/51 71/75/51 62/76/51
f 70/71/52 75/77/52 66/74/52
f 71/75/53 81/78/53 72/79/53
f 72/79/54 81/78/54 87/80/54
f 75/77/55 80/81/55 71/75/55
f 67/64/56 77/63/56 88/82/56
f 71/75/57 80/81/57 81/78/57
f 74/83/58 85/84/58 75/77/58
f 74/83/59 79/85/59 83/86/59
f 96/87/60 111/88/60 76/58/60
f 74/83/61 83/86/61 84/89/61
f 5/90/62 76/58/62 111/88/62
f 77/63/63 82/73/63 92/91/63
f 85/84/64 86/92/64 80/81/64
f 88/82/65 89/93/65 78/94/65
f 84/89/66 95/95/66 85/84/66
f 85/84/67 95/95/67 86/92/67
f 87/80/68 91/96/68 100/97/68
f 83/86/69 90/98/69 93/99/69
f 82/73/70 1/100/70 131/101/70
f 92/91/71 105/102/71 88/82/71
f 86/92/72 95/95/72 99/103/72
f 94/104/73 99/103/73 95/95/73
f 99/103/74 109/105/74 91/96/74
f 100/97/75 110/106/75 96/87/75
f 93/99/76 98/107/76 102/108/76
f 93/99/77 102/108/77 103/109/77
f 103/109/78 108/110/78 94/104/78
f 131/101/79 118/111/79 92/91/79
f 105/102/80 106/112/80 97/113/80
f 100/97/81 109/105/81 110/106/81
f 97/113/82 101/114/82 98/107/82
f 101/114/83 106/112/83 112/115/83
f 107/116/84 112/115/84 115/117/84
f 5/118/85 111/88/85 127/119/85
f 107/116/86 113/120/86 108/110/86
f 108/110/87 113/120/87 104/121/87
f 105/102/88 118/111/88 114/122/88
f 104/121/89 113/120/89 116/123/89
f 105/102/90 114/122/90 106/112/90
f 104/121/91 116/123/91 109/105/91
f 116/124/92 113/125/92 126/126/92
f 112/127/93 114/128/93 119/129/93
f 107/130/94 115/131/94 120/132/94
f 121/133/95 125/134/95 113/125/95
f 115/131/96 119/129/96 124/135/96
f 119/129/97 128/136/97 123/137/97
f 122/138/98 126/126/98 137/139/98
f 118/140/99 131/141/99 132/142/99
f 118/140/100 132/142/100 114/128/100
f 126/126/101 125/134/101 130/143/101
f 124/135/102 134/144/102 135/145/102
f 129/146/103 136/147/103 125/134/103
f 130/143/104 137/139/104 126/126/104
f 123/137/105 128/136/105 133/148/105
f 137/139/106 146/53/106 117/149/106
f 135/145/107 136/147/107 129/146/107
f 130/143/108 136/147/108 138/150/108
f 132/142/109 140/151/109 128/136/109
f 133/148/110 140/151/110 141/152/110
f 137/139/111 138/150/111 145/54/111
f 131/141/112 1/153/112 139/15/112
f 138/150/113 144/154/113 4/6/113
f 140/151/114 2/1/114 7/19/114
f 4/6/115 12/18/115 138/150/115
f 141/152/116 7/19/116 8/7/116
f 3/9/117 10/14/117 143/155/117
f 3/9/118 9/8/118 10/14/118
f 7/19/119 2/1/119 13/3/119
f 4/6/120 14/5/120 12/18/120
f 44/12/121 127/11/121 146/53/121 26/40/121
f 17/24/122 11/4/122 10/14/122 16/13/122
f 23/32/123 15/20/123 13/3/123 27/30/123
f 6/2/124 32/16/124 13/3/124
f 11/4/125 17/24/125 14/5/125
f 7/19/126 13/3/126 15/20/126
f 9/8/127 8/7/127 15/20/127
f 21/17/128 14/5/128 20/25/128
f 12/18/129 31/21/129 26/40/129
f 9/8/130 18/22/130 16/13/130
f 16/13/131 19/28/131 17/24/131
f 16/13/132 24/31/132 19/28/132
f 139/15/133 59/27/133 32/16/133
f 20/25/134 17/24/134 25/29/134
f 38/43/135 39/56/135 31/21/135 30/35/135
f 15/20/136 23/32/136 18/22/136
f 21/17/137 30/35/137 31/21/137
f 24/31/138 18/22/138 28/33/138
f 19/28/139 29/34/139 25/29/139
f 24/31/140 34/41/140 29/34/140
f 30/35/141 25/29/141 35/36/141
f 22/23/142 41/37/142 27/30/142
f 28/33/143 23/32/143 33/38/143
f 44/12/144 26/40/144 51/39/144
f 43/49/145 35/36/145 34/41/145 37/42/145
f 51/39/146 31/21/146 39/56/146
f 34/41/147 28/33/147 37/42/147
f 33/38/148 27/30/148 36/44/148
f 32/16/149 40/45/149 41/37/149
f 38/43/150 35/36/150 43/49/150
f 33/38/151 36/44/151 42/46/151
f 37/42/152 33/38/152 42/46/152
f 55/67/153 56/156/153 47/47/153 46/52/153
f 36/44/154 46/52/154 42/46/154
f 37/42/155 48/48/155 43/49/155
f 39/56/156 38/43/156 50/50/156
f 50/50/157 43/49/157 49/60/157
f 41/37/158 52/55/158 45/51/158
f 39/56/159 64/57/159 51/39/159
f 47/47/160 42/46/160 46/52/160
f 56/156/161 57/157/161 48/48/161 47/47/161
f 51/39/162 73/61/162 76/58/162
f 58/158/163 49/60/163 48/48/163 57/157/163
f 66/74/164 58/158/164 57/157/164 61/69/164
f 49/60/165 58/158/165 53/159/165
f 50/50/166 49/60/166 53/159/166
f 50/50/167 53/159/167 63/160/167
f 46/52/168 45/51/168 54/62/168
f 64/57/169 50/50/169 63/160/169
f 46/52/170 54/62/170 55/67/170
f 40/45/171 77/63/171 52/55/171
f 57/157/172 56/156/172 61/69/172
f 62/76/173 53/159/173 58/158/173 66/74/173
f 68/65/174 54/62/174 52/55/174 67/64/174
f 60/66/175 61/69/175 56/156/175 55/67/175
f 53/159/176 62/76/176 63/160/176
f 72/79/177 63/160/177 62/76/177 71/75/177
f 69/68/178 65/70/178 61/69/178 60/66/178
f 64/57/179 63/160/179 72/79/179
f 64/57/180 72/79/180 73/61/180
f 96/87/181 73/61/181 72/79/181 87/80/181
f 61/69/182 70/71/182 66/74/182
f 59/27/183 82/73/183 77/63/183
f 66/74/184 75/77/184 71/75/184
f 69/68/185 68/65/185 78/94/185
f 69/68/186 78/94/186 79/85/186
f 79/85/187 74/83/187 65/70/187 69/68/187
f 78/94/188 68/65/188 67/64/188 88/82/188
f 76/58/189 73/61/189 96/87/189
f 70/71/190 65/70/190 74/83/190
f 70/71/191 74/83/191 75/77/191
f 90/98/192 79/85/192 78/94/192 89/93/192
f 75/77/193 85/84/193 80/81/193
f 87/80/194 81/78/194 91/96/194
f 98/107/195 90/98/195 89/93/195 97/113/195
f 83/86/196 79/85/196 90/98/196
f 74/83/197 84/89/197 85/84/197
f 77/63/198 92/91/198 88/82/198
f 81/78/199 80/81/199 86/92/199
f 81/78/200 86/92/200 91/96/200
f 87/80/201 100/97/201 96/87/201
f 84/89/202 83/86/202 93/99/202
f 94/104/203 95/95/203 84/89/203 93/99/203
f 93/99/204 90/98/204 98/107/204
f 97/113/205 89/93/205 88/82/205 105/102/205
f 82/73/206 131/101/206 92/91/206
f 104/121/207 99/103/207 94/104/207 108/110/207
f 86/92/208 99/103/208 91/96/208
f 100/97/209 91/96/209 109/105/209
f 96/87/210 110/106/210 111/88/210
f 93/99/211 103/109/211 94/104/211
f 102/108/212 98/107/212 101/114/212
f 112/115/213 107/116/213 102/108/213 101/114/213
f 92/91/214 118/111/214 105/102/214
f 99/103/215 104/121/215 109/105/215
f 97/113/216 106/112/216 101/114/216
f 127/119/217 111/88/217 110/106/217 117/161/217
f 103/109/218 102/108/218 107/116/218
f 103/109/219 107/116/219 108/110/219
f 116/123/220 122/162/220 110/106/220 109/105/220
f 112/115/221 106/112/221 114/122/221
f 121/133/222 113/125/222 107/130/222 120/132/222
f 110/106/223 122/162/223 117/161/223
f 115/131/224 112/127/224 119/129/224
f 129/146/225 121/133/225 120/132/225 124/135/225
f 120/132/226 115/131/226 124/135/226
f 126/126/227 113/125/227 125/134/227
f 119/129/228 114/128/228 128/136/228
f 122/138/229 116/124/229 126/126/229
f 114/128/230 132/142/230 128/136/230
f 117/149/231 122/138/231 137/139/231
f 124/135/232 119/129/232 123/137/232
f 133/148/233 134/144/233 124/135/233 123/137/233
f 121/133/234 129/146/234 125/134/234
f 124/135/235 135/145/235 129/146/235
f 130/143/236 125/134/236 136/147/236
f 143/155/237 136/147/237 135/145/237 142/163/237
f 130/143/238 138/150/238 137/139/238
f 133/148/239 128/136/239 140/151/239
f 117/149/240 146/53/240 127/11/240
f 139/15/241 6/2/241 132/142/241 131/141/241
f 141/152/242 142/163/242 134/144/242 133/148/242
f 136/147/243 143/155/243 144/154/243
f 132/142/244 6/2/244 2/1/244
f 138/150/245 136/147/245 144/154/245
f 132/142/246 2/1/246 140/151/246
f 137/139/247 145/54/247 146/53/247
f 11/4/248 144/154/248 143/155/248 10/14/248
f 135/145/249 134/144/249 142/163/249
f 142/163/250 3/9/250 143/155/250
f 144/154/251 11/4/251 4/6/251
f 141/152/252 140/151/252 7/19/252
f 145/54/253 138/150/253 12/18/253
f 142/163/254 141/152/254 8/7/254
f 3/9/255 142/163/255 8/7/255
