# Blender 5.0.0
# www.blender.org
mtllib prep_throw_ball0006.mtl
o Sphere
v -2.252640 5.114915 2.206317
v -2.324099 4.929520 1.665989
v -2.344634 4.054006 1.241172
v -2.401394 3.513867 1.434949
v -2.448524 3.129024 2.278727
v -2.252715 5.016298 1.820345
v -2.138826 4.681685 1.445572
v -2.173441 4.347684 1.281697
v -1.962267 4.118840 1.306509
v -2.183028 3.846264 1.281507
v -2.213447 3.663665 1.345276
v -2.264737 3.287724 1.654610
v -1.949731 4.822805 1.659155
v -2.087116 3.492423 1.481251
v -1.846534 4.504991 1.464161
v -1.796925 3.915234 1.407867
v -1.885633 3.637671 1.469382
v -1.651999 4.297429 1.533266
v -1.675058 3.792167 1.549071
v -1.818014 3.455943 1.669542
v -1.985304 3.322111 1.709282
v -1.837982 4.876754 1.853923
v -1.570299 4.503534 1.742173
v -1.511965 3.986042 1.683033
v -1.632459 3.614696 1.713547
v -2.202963 3.154505 1.963930
v -1.667133 4.738426 1.865742
v -1.427453 4.183423 1.839572
v -1.466069 3.791924 1.853847
v -1.689810 3.386557 1.961519
v -1.961534 3.216778 1.960689
v -1.938701 4.996471 1.997360
v -1.437266 4.476193 2.031388
v -1.367813 3.989590 2.043898
v -1.446216 3.681052 2.056502
v -1.524215 4.678218 2.227656
v -1.342107 4.114986 2.251458
v -1.637936 3.391610 2.253743
v -1.883461 3.226694 2.324061
v -1.904855 5.005264 2.358408
v -1.717349 4.890316 2.210445
v -1.404754 4.401518 2.374259
v -1.433282 3.723899 2.405092
v -2.269605 3.116353 2.179204
v -1.624242 4.759469 2.462346
v -1.509469 4.538735 2.572350
v -1.424058 4.227303 2.591838
v -1.432769 4.031679 2.623216
v -1.525890 3.752121 2.671985
v -1.697487 3.416496 2.552183
v -2.059480 3.153703 2.297615
v -1.846924 4.919254 2.567768
v -1.767187 3.608597 2.872206
v -1.740830 4.721115 2.760734
v -1.647151 4.459724 2.857215
v -1.635084 4.272265 2.915325
v -1.653921 4.078025 2.949085
v -1.673701 3.880766 2.929600
v -2.060556 5.080089 2.247710
v -1.884049 4.586345 2.995355
v -1.883877 4.215394 3.117242
v -1.976892 3.645097 3.029675
v -1.956866 3.388291 2.795093
v -2.049441 3.266124 2.670043
v -2.135710 4.350224 3.195225
v -1.990715 3.932649 3.149573
v -2.118962 4.963181 2.746430
v -2.056567 4.841552 2.884787
v -2.125516 4.623134 3.091495
v -2.169380 4.157572 3.225015
v -2.218645 3.678976 3.125922
v -2.294724 3.370127 2.892361
v -2.248758 3.198259 2.611470
v -2.530057 4.277016 3.229558
v -2.365455 3.983552 3.232541
v -2.368892 3.147183 2.463700
v -2.192212 5.062108 2.583350
v -2.440624 4.820212 2.984265
v -2.473688 4.577996 3.142066
v -2.549143 3.813026 3.169959
v -2.565788 3.551291 3.030533
v -2.298758 5.113764 2.404670
v -2.702254 4.417227 3.151600
v -2.917374 4.240751 3.077698
v -2.740870 4.025728 3.165875
v -2.865410 3.735545 3.012210
v -2.604914 3.346369 2.805461
v -2.491895 5.008919 2.731196
v -2.719867 4.847920 2.872467
v -2.808960 4.611790 3.016780
v -2.852912 3.500736 2.836024
v -2.539158 5.090518 2.483428
v -3.065705 4.366989 2.936568
v -3.182370 4.059191 2.813430
v -3.018796 3.931462 2.974480
v -2.613626 3.240880 2.622437
v -2.933362 4.861700 2.661245
v -3.068704 4.629243 2.771497
v -3.139186 3.747073 2.733212
v -2.869297 3.368181 2.624531
v -3.140356 4.718561 2.508347
v -3.235094 4.452016 2.631196
v -3.279115 4.258752 2.629004
v -3.263897 3.767747 2.453655
v -2.779958 5.033435 2.424936
v -2.967316 4.922170 2.373851
v -3.344506 4.320281 2.265806
v -3.330317 4.056683 2.462301
v -3.090385 3.510388 2.504699
v -2.890030 3.296474 2.379509
v -2.610355 3.174442 2.398458
v -3.188937 4.703966 2.246518
v -3.323815 3.919352 2.132729
v -2.885453 4.968493 2.074267
v -3.293431 4.425811 2.064525
v -3.164427 3.556344 2.163970
v -2.784862 3.232695 2.106339
v -2.640114 5.089066 2.170833
v -3.123863 4.675883 1.905320
v -3.268394 4.212260 1.861828
v -3.277105 4.016637 1.893206
v -2.964089 3.351823 2.111306
v -2.988863 4.644580 1.680315
v -3.151611 4.303048 1.671551
v -3.165736 3.806442 1.772297
v -3.103176 3.548787 1.926114
v -2.580171 3.151869 2.128710
v -2.839411 4.873370 1.792553
v -3.066079 3.971674 1.569719
v -2.983379 3.604401 1.676357
v -2.449248 5.122877 2.171952
v -2.554927 5.016562 1.838241
v -2.800621 4.612278 1.499267
v -2.879489 4.337614 1.429982
v -2.894079 4.139737 1.410828
v -2.906660 3.825609 1.465759
v -2.806800 3.352708 1.784921
v -2.653326 3.470353 1.532255
v -2.215633 5.080124 2.006995
v -2.495629 4.822628 1.550394
v -2.482518 4.564963 1.359123
v -2.546562 4.216517 1.266145
v -2.565454 3.893714 1.289820
v -2.579118 3.703179 1.356910
v -2.483079 3.265399 1.722889
v -2.523070 3.190489 1.900116
vn 0.2190 0.8038 -0.5532
vn 0.0793 -0.5834 -0.8083
vn 0.1614 0.0420 -0.9860
vn -0.1038 -0.9928 -0.0601
vn 0.3356 -0.1871 -0.9232
vn 0.2585 0.8972 -0.3582
vn 0.2163 -0.7335 -0.6444
vn 0.2948 0.3961 -0.8696
vn 0.1879 -0.8994 -0.3946
vn 0.5044 0.1925 -0.8417
vn 0.3605 0.8249 -0.4353
vn 0.3980 -0.6083 -0.6867
vn 0.2042 0.9701 -0.1314
vn 0.5915 -0.4671 -0.6572
vn 0.5641 0.6536 -0.5047
vn 0.6982 -0.0301 -0.7153
vn 0.8242 0.2074 -0.5270
vn 0.7892 -0.2898 -0.5414
vn 0.6432 -0.6318 -0.4326
vn 0.5108 -0.7586 -0.4045
vn 0.8050 -0.4838 -0.3435
vn 0.5916 0.7728 -0.2296
vn 0.8034 0.5007 -0.3222
vn 0.2469 -0.9629 -0.1085
vn 0.9240 -0.1037 -0.3681
vn 0.9730 0.1485 -0.1769
vn 0.9414 -0.2485 -0.2282
vn 0.7841 -0.6071 -0.1287
vn 0.7344 0.6541 -0.1812
vn 0.4696 0.8804 -0.0655
vn 0.9728 0.1308 0.1911
vn 0.9718 -0.0055 0.2358
vn 0.7887 -0.5794 0.2057
vn 0.7339 0.6747 0.0792
vn 0.8350 0.5215 0.1753
vn -0.0266 -0.9195 -0.3921
vn 0.6024 0.7830 0.1550
vn 0.4602 -0.8299 0.3154
vn 0.0961 -0.9854 0.1403
vn -0.0130 -0.9946 0.1032
vn 0.9082 -0.2431 0.3408
vn 0.2365 -0.9319 0.2749
vn 0.6493 0.6798 0.3411
vn 0.3219 0.9303 0.1761
vn 0.3711 0.8584 0.3540
vn 0.4803 0.6013 0.6386
vn 0.6176 0.4575 0.6398
vn 0.3773 0.5710 0.7291
vn 0.3365 0.0862 0.9377
vn 0.1688 0.9846 0.0450
vn 0.3026 -0.3544 0.8848
vn 0.1905 -0.1728 0.9664
vn 0.0030 -0.6036 0.7973
vn -0.1352 -0.7208 0.6798
vn -0.0102 -0.3348 0.9422
vn 0.0866 0.8685 0.4880
vn -0.0712 -0.4654 0.8822
vn -0.1842 -0.0934 0.9784
vn -0.1755 0.3050 0.9361
vn -0.1814 -0.9435 0.2772
vn -0.3693 0.0619 0.9272
vn -0.1538 -0.9748 0.1619
vn -0.0016 0.9604 0.2786
vn -0.3625 -0.3099 0.8790
vn -0.1678 0.7737 0.6109
vn -0.5407 -0.1014 0.8351
vn -0.4982 -0.2290 0.8363
vn -0.4096 -0.7584 0.5071
vn -0.5173 0.2773 0.8096
vn 0.0379 0.9992 0.0146
vn -0.2956 0.8892 0.3492
vn -0.6632 -0.3971 0.6344
vn -0.7723 -0.2562 0.5812
vn -0.6680 -0.5836 0.4618
vn -0.4251 -0.8584 0.2872
vn -0.7869 0.3222 0.5262
vn -0.8367 0.1847 0.5156
vn -0.9178 -0.0870 0.3873
vn -0.1745 0.9833 0.0518
vn -0.5428 0.8066 0.2339
vn -0.6198 -0.7375 0.2683
vn -0.7014 0.5947 0.3928
vn -0.7260 0.6809 0.0967
vn -0.9267 0.3738 -0.0392
vn -0.2316 -0.9712 0.0554
vn -0.9986 -0.0522 0.0021
vn -0.9714 -0.2255 0.0748
vn -0.4286 0.9027 -0.0382
vn -0.9148 -0.4034 -0.0198
vn -0.5094 0.8605 -0.0061
vn -0.8341 -0.5409 0.1083
vn -0.8872 -0.4081 -0.2155
vn -0.7043 0.6839 -0.1906
vn -0.9754 0.0805 -0.2053
vn -0.9034 -0.3059 -0.3004
vn -0.8550 0.3197 -0.4084
vn -0.6221 0.6326 -0.4613
vn -0.6218 -0.7227 -0.3016
vn -0.1674 0.9535 -0.2507
vn -0.3318 0.9004 -0.2813
vn -0.7556 -0.4612 -0.4651
vn -0.6676 0.1203 -0.7348
vn -0.7098 -0.3329 -0.6207
vn -0.6318 -0.6350 -0.4445
vn -0.4862 0.6198 -0.6160
vn -0.3783 -0.8754 -0.3010
vn -0.6129 -0.1122 -0.7822
vn -0.5086 -0.4946 -0.7048
vn -0.2923 0.7641 -0.5750
vn -0.2600 0.5670 -0.7816
vn -0.3141 -0.7733 -0.5508
vn 0.0677 0.9849 -0.1593
vn -0.2200 -0.5411 -0.8116
vn 0.0591 0.6877 -0.7236
vn -0.1325 -0.7306 -0.6698
vn 0.0790 0.4325 -0.8982
vn -0.0493 -0.2272 -0.9726
vn 0.1769 -0.0532 -0.9828
vn 0.1960 0.7294 -0.6554
vn 0.0621 -0.6758 -0.7344
vn -0.0764 -0.9787 -0.1906
vn 0.3303 -0.3266 -0.8855
vn 0.5930 0.5523 -0.5860
vn 0.3031 0.8437 -0.4431
vn 0.2822 -0.4602 -0.8418
vn 0.3907 0.5702 -0.7226
vn 0.3768 0.2511 -0.8916
vn 0.3701 -0.6575 -0.6563
vn 0.2210 -0.8789 -0.4227
vn 0.5690 0.0535 -0.8206
vn 0.5421 -0.3432 -0.7670
vn 0.7043 -0.1076 -0.7017
vn 0.2787 0.9435 -0.1794
vn 0.5786 -0.4970 -0.6467
vn 0.5330 -0.8417 -0.0864
vn 0.6523 0.3963 -0.6461
vn 0.4919 -0.7855 -0.3756
vn 0.8196 0.0970 -0.5647
vn 0.7839 -0.3102 -0.5378
vn 0.9238 -0.1054 -0.3680
vn 0.7784 -0.5413 -0.3180
vn 0.6210 0.7466 -0.2385
vn 0.8823 0.2782 -0.3796
vn 0.2289 -0.9682 -0.1007
vn 0.9720 -0.2348 0.0035
vn 0.3899 -0.9190 -0.0587
vn 0.9771 0.1057 -0.1849
vn 0.7985 0.5595 -0.2222
vn 0.4828 0.8732 -0.0665
vn 0.8439 -0.5354 0.0345
vn 0.9182 0.3960 -0.0008
vn 0.9722 0.2305 -0.0420
vn 0.8364 0.2401 0.4928
vn 0.8773 0.4568 0.1473
vn 0.9682 -0.1458 0.2034
vn 0.5837 -0.7912 0.1824
vn 0.7883 -0.5203 0.3285
vn 0.6254 0.7627 0.1650
vn 0.3354 -0.9044 0.2639
vn 0.9159 0.2698 0.2973
vn 0.8342 0.0330 0.5505
vn 0.1389 -0.9654 0.2208
vn 0.8125 -0.1579 0.5611
vn 0.5460 -0.1218 0.8289
vn 0.7137 -0.3705 0.5945
vn 0.7057 -0.5290 0.4713
vn 0.5528 -0.6559 0.5141
vn 0.7408 0.5657 0.3622
vn 0.4712 -0.7795 0.4127
vn 0.7497 0.4483 0.4867
vn 0.3792 0.8881 0.2599
vn 0.6178 0.0761 0.7827
vn 0.5143 -0.3246 0.7938
vn 0.4582 0.7445 0.4855
vn 0.5785 0.2617 0.7726
vn 0.4130 -0.5965 0.6882
vn 0.2294 -0.6340 0.7386
vn 0.4079 0.2963 0.8636
vn 0.2135 -0.7731 0.5972
vn 0.1282 -0.8365 0.5328
vn -0.0810 -0.8583 0.5067
vn 0.3581 -0.0286 0.9333
vn 0.2294 0.9630 0.1416
vn 0.1772 -0.2480 0.9524
vn 0.1558 0.6526 0.7415
vn 0.0520 0.5401 0.8400
vn 0.0592 0.3094 0.9491
vn 0.0926 0.7931 0.6020
vn -0.0950 -0.9145 0.3933
vn 0.0596 0.1424 0.9880
vn 0.0196 0.0212 0.9996
vn -0.2482 0.5618 0.7892
vn -0.1893 -0.1521 0.9701
vn -0.3335 -0.6675 0.6657
vn -0.5419 0.5865 0.6019
vn -0.2748 0.4413 0.8543
vn -0.3701 0.0759 0.9259
vn -0.0130 0.9490 0.3150
vn -0.3163 -0.4303 0.8455
vn -0.3921 -0.5654 0.7257
vn -0.3894 -0.7899 0.4738
vn -0.5165 0.2927 0.8047
vn -0.7014 -0.0135 0.7126
vn -0.6089 0.4176 0.6745
vn -0.3464 0.8492 0.3985
vn -0.0688 0.9941 0.0834
vn -0.8977 -0.2201 0.3817
vn -0.6339 -0.4855 0.6020
vn -0.6423 -0.6260 0.4421
vn -0.4012 -0.8798 0.2551
vn -0.8335 0.0984 0.5437
vn -0.8053 0.4591 0.3751
vn -0.9132 0.3823 0.1408
vn -0.2473 0.9660 0.0754
vn -0.8124 -0.4829 0.3267
vn -0.6622 0.7137 0.2284
vn -0.3894 -0.9198 0.0492
vn -0.9542 0.2150 0.2082
vn -0.9774 0.0899 0.1912
vn -0.7092 -0.7028 0.0556
vn -0.6784 0.7312 -0.0723
vn -0.9822 0.0123 -0.1877
vn -0.5538 -0.8324 -0.0189
vn -0.8656 0.4578 -0.2028
vn -0.8399 -0.0502 -0.5404
vn -0.8720 0.2793 -0.4020
vn -0.8860 -0.3766 -0.2706
vn -0.6235 0.7042 -0.3397
vn -0.7255 -0.6680 -0.1656
vn -0.3754 0.8578 -0.3510
vn -0.5392 -0.8004 -0.2620
vn -0.7690 0.3797 -0.5142
vn -0.6374 0.3377 -0.6926
vn -0.8380 -0.1408 -0.5271
vn -0.6985 0.0393 -0.7145
vn -0.7065 -0.3439 -0.6186
vn -0.4042 -0.0923 -0.9100
vn -0.5117 -0.6169 -0.5980
vn -0.3564 0.6740 -0.6471
vn -0.3342 -0.9121 -0.2376
vn -0.0273 0.9523 -0.3039
vn -0.3357 0.3087 -0.8899
vn -0.3953 -0.2797 -0.8749
vn -0.0277 0.8768 -0.4801
vn -0.4289 -0.4522 -0.7820
vn -0.1205 0.8116 -0.5716
vn -0.3109 -0.8483 -0.4287
vn -0.0628 -0.3237 -0.9441
vn -0.4037 0.1176 -0.9073
vn -0.1716 -0.0621 -0.9832
vn -0.0760 -0.4402 -0.8947
vn -0.0005 0.5960 -0.8030
vn -0.1339 -0.7323 -0.6677
vn -0.0536 0.2666 -0.9623
vn -0.0085 0.1416 -0.9899
vt 0.781230 0.812500
vt 0.762032 0.875000
vt 0.685473 0.777944
vt 0.734697 0.375000
vt 0.703125 0.312500
vt 0.764235 0.312500
vt 0.741874 0.599249
vt 0.704616 0.531266
vt 0.763980 0.500000
vt 0.734375 0.000000
vt 0.879629 0.062500
vt 0.593677 0.062500
vt 0.670132 0.472235
vt 0.734536 0.437500
vt 0.734224 0.937500
vt 0.605595 0.875000
vt 0.658359 0.250000
vt 0.719918 0.218999
vt 0.734375 0.717281
vt 0.678319 0.660608
vt 0.606077 0.187500
vt 0.641330 0.592355
vt 0.623673 0.812500
vt 0.673680 0.375000
vt 0.639230 0.312500
vt 0.640625 1.000000
vt 0.479138 0.937500
vt 0.639064 0.437500
vt 0.612180 0.375000
vt 0.595563 0.750000
vt 0.606567 0.500000
vt 0.603325 0.667055
vt 0.578286 0.562500
vt 0.578286 0.437500
vt 0.577540 0.283466
vt 0.543444 0.396147
vt 0.512752 0.812500
vt 0.546915 0.655822
vt 0.503540 0.125000
vt 0.660224 0.125000
vt 0.544067 0.500000
vt 0.509405 0.537235
vt 0.515588 0.281661
vt 0.510998 0.724803
vt 0.449506 0.875000
vt 0.487180 0.625000
vt 0.453286 0.562500
vt 0.450317 0.500000
vt 0.485851 0.406417
vt 0.453088 0.281661
vt 0.455926 0.750000
vt 0.445771 0.665313
vt 0.799126 0.125000
vt 0.779637 0.187500
vt 0.402284 0.812500
vt 0.497588 0.187500
vt 0.386121 0.187500
vt 0.328120 0.062500
vt 0.453125 0.000000
vt 0.437500 0.406180
vt 0.347717 0.125000
vt 0.390588 0.718339
vt 0.293360 0.875000
vt 0.308534 0.812500
vt 0.316528 0.750000
vt 0.343750 0.656371
vt 0.393429 0.625000
vt 0.296915 0.655822
vt 0.343750 0.531273
vt 0.297036 0.562500
vt 0.294067 0.500000
vt 0.328125 1.000000
vt 0.230145 0.937500
vt 0.328286 0.437500
vt 0.296914 0.344178
vt 0.343750 0.343629
vt 0.265786 0.437500
vt 0.234338 0.281661
vt 0.296902 0.219059
vt 0.214815 0.187500
vt 0.237180 0.375000
vt 0.199790 0.812500
vt 0.237635 0.520573
vt 0.203286 0.437500
vt 0.237180 0.625000
vt 0.203286 0.562500
vt 0.190964 0.125000
vt 0.113605 0.062500
vt 0.169067 0.500000
vt 0.203125 0.000000
vt 0.137012 0.875000
vt 0.176363 0.337227
vt 0.171838 0.718339
vt 0.234338 0.718339
vt 0.148421 0.399333
vt 0.160278 0.250000
vt 0.121065 0.187500
vt 0.174680 0.625000
vt 0.134405 0.537235
vt 0.140625 1.000000
vt 0.030235 0.937500
vt 0.075252 0.812500
vt 0.102021 0.334687
vt 0.109536 0.437500
vt 0.066529 0.250000
vt 0.055088 0.153620
vt 0.112179 0.625000
vt 0.078286 0.562500
vt 0.075317 0.500000
vt 0.047036 0.437500
vt 0.032456 0.875000
vt 0.048167 0.750000
vt 0.108913 0.719958
vt 0.062500 0.658651
vt 0.015664 0.655822
vt 0.018885 0.520574
vt 0.000000 0.562500
vt 0.015625 0.000000
vt 0.000000 0.062500
vt 0.000000 0.399333
vt 0.046914 0.344178
vt 0.000000 0.784407
vt 0.000000 0.273040
vt 0.991904 0.273040
vt 0.992171 0.399333
vt 0.937867 0.282145
vt 1.000000 0.655822
vt 0.975379 0.784407
vt 0.953164 0.655822
vt 1.000000 0.500000
vt 0.984536 0.562500
vt 0.950317 0.500000
vt 0.953286 0.437500
vt 0.924679 0.375000
vt 0.915655 0.537235
vt 0.910279 0.750000
vt 0.906250 0.656371
vt 0.965747 0.187500
vt 0.868449 0.212346
vt 0.978825 0.875000
vt 0.921769 0.937500
vt 0.872374 0.843190
vt 0.887823 0.312500
vt 0.859536 0.562500
vt 0.856567 0.500000
vt 0.890786 0.437500
vt 0.855944 0.396148
vt 0.859414 0.655822
vt 0.939862 0.125000
vt 0.812867 0.282145
vt 0.814726 0.750000
vt 0.796945 0.653777
vt 0.828125 1.000000
vt 0.798190 0.375000
vt 0.797036 0.437500
vt 0.390786 0.562500
vt 0.387817 0.500000
vt 0.390786 0.437500
vt 0.390665 0.344178
vt 0.378980 0.250000
vt 0.000000 0.125000
vt 0.000000 0.187500
vt 0.801816 0.543181
s 0
f 2/1/1 6/2/1 13/3/1
f 11/4/2 14/5/2 4/6/2
f 8/7/3 9/8/3 3/9/3
f 5/10/4 127/11/4 44/12/4
f 9/8/5 16/13/5 10/14/5
f 139/15/6 32/16/6 6/2/6
f 14/5/7 21/17/7 12/18/7
f 7/19/8 15/20/8 8/7/8
f 12/18/9 21/17/9 31/21/9
f 15/20/10 18/22/10 9/8/10
f 32/16/11 22/23/11 13/3/11
f 14/5/12 17/24/12 20/25/12
f 139/15/13 1/26/13 59/27/13
f 19/28/14 25/29/14 17/24/14
f 22/23/15 27/30/15 13/3/15
f 16/13/16 18/22/16 24/31/16
f 18/22/17 23/32/17 28/33/17
f 24/31/18 29/34/18 19/28/18
f 20/25/19 25/29/19 30/35/19
f 20/25/20 30/35/20 21/17/20
f 29/34/21 35/36/21 25/29/21
f 32/16/22 41/37/22 22/23/22
f 23/32/23 27/30/23 33/38/23
f 31/21/24 51/39/24 26/40/24
f 24/31/25 28/33/25 34/41/25
f 28/33/26 33/38/26 37/42/26
f 34/41/27 35/36/27 29/34/27
f 30/35/28 35/36/28 38/43/28
f 41/37/29 36/44/29 27/30/29
f 32/16/30 59/27/30 40/45/30
f 37/42/31 42/46/31 47/47/31
f 37/42/32 47/47/32 48/48/32
f 38/43/33 43/49/33 50/50/33
f 41/37/34 45/51/34 36/44/34
f 36/44/35 45/51/35 46/52/35
f 26/40/36 146/53/36 145/54/36 12/18/36
f 41/37/37 40/45/37 52/55/37
f 39/56/38 50/50/38 64/57/38
f 44/12/39 51/39/39 76/58/39
f 5/59/40 44/12/40 76/58/40
f 48/48/41 49/60/41 43/49/41
f 64/57/42 73/61/42 51/39/42
f 52/55/43 54/62/43 45/51/43
f 59/27/44 77/63/44 40/45/44
f 52/55/45 77/63/45 67/64/45
f 54/62/46 68/65/46 60/66/46
f 54/62/47 60/66/47 55/67/47
f 60/66/48 68/65/48 69/68/48
f 61/69/49 65/70/49 70/71/49
f 59/27/50 1/72/50 82/73/50
f 66/74/51 71/75/51 62/76/51
f 70/71/52 75/77/52 66/74/52
f 71/75/53 81/78/53 72/79/53
f 72/79/54 81/78/54 87/80/54
f 75/77/55 80/81/55 71/75/55
f 67/64/56 77/63/56 88/82/56
f 71/75/57 80/81/57 81/78/57
f 74/83/58 85/84/58 75/77/58
f 74/83/59 79/85/59 83/86/59
f 96/87/60 111/88/60 76/58/60
f 74/83/61 83/86/61 84/89/61
f 5/90/62 76/58/62 111/88/62
f 77/63/63 82/73/63 92/91/63
f 85/84/64 86/92/64 80/81/64
f 88/82/65 89/93/65 78/94/65
f 84/89/66 95/95/66 85/84/66
f 85/84/67 95/95/67 86/92/67
f 87/80/68 91/96/68 100/97/68
f 83/86/69 90/98/69 93/99/69
f 82/73/70 1/100/70 131/101/70
f 92/91/71 105/102/71 88/82/71
f 86/92/72 95/95/72 99/103/72
f 94/104/73 99/103/73 95/95/73
f 99/103/74 109/105/74 91/96/74
f 100/97/75 110/106/75 96/87/75
f 93/99/76 98/107/76 102/108/76
f 93/99/77 102/108/77 103/109/77
f 103/109/78 108/110/78 94/104/78
f 131/101/79 118/111/79 92/91/79
f 105/102/80 106/112/80 97/113/80
f 100/97/81 109/105/81 110/106/81
f 97/113/82 101/114/82 98/107/82
f 101/114/83 106/112/83 112/115/83
f 107/116/84 112/115/84 115/117/84
f 5/118/85 111/88/85 127/119/85
f 107/116/86 113/120/86 108/110/86
f 108/110/87 113/120/87 104/121/87
f 105/102/88 118/111/88 114/122/88
f 104/121/89 113/120/89 116/123/89
f 105/102/90 114/122/90 106/112/90
f 104/121/91 116/123/91 109/105/91
f 116/124/92 113/125/92 126/126/92
f 112/127/93 114/128/93 119/129/93
f 107/130/94 115/131/94 120/132/94
f 121/133/95 125/134/95 113/125/95
f 115/131/96 119/129/96 124/135/96
f 119/129/97 128/136/97 123/137/97
f 122/138/98 126/126/98 137/139/98
f 118/140/99 131/141/99 132/142/99
f 118/140/100 132/142/100 114/128/100
f 126/126/101 125/134/101 130/143/101
f 124/135/102 134/144/102 135/145/102
f 129/146/103 136/147/103 125/134/103
f 130/143/104 137/139/104 126/126/104
f 123/137/105 128/136/105 133/148/105
f 137/139/106 146/53/106 117/149/106
f 135/145/107 136/147/107 129/146/107
f 130/143/108 136/147/108 138/150/108
f 132/142/109 140/151/109 128/136/109
f 133/148/110 140/151/110 141/152/110
f 137/139/111 138/150/111 145/54/111
f 131/141/112 1/153/112 139/15/112
f 138/150/113 144/154/113 4/6/113
f 140/151/114 2/1/114 7/19/114
f 4/6/115 12/18/115 138/150/115
f 141/152/116 7/19/116 8/7/116
f 3/9/117 10/14/117 143/155/117
f 3/9/118 9/8/118 10/14/118
f 7/19/119 2/1/119 13/3/119
f 4/6/120 14/5/120 12/18/120
f 44/12/121 127/11/121 146/53/121 26/40/121
f 17/24/122 11/4/122 10/14/122 16/13/122
f 23/32/123 15/20/123 13/3/123 27/30/123
f 6/2/124 32/16/124 13/3/124
f 11/4/125 17/24/125 14/5/125
f 7/19/126 13/3/126 15/20/126
f 9/8/127 8/7/127 15/20/127
f 21/17/128 14/5/128 20/25/128
f 12/18/129 31/21/129 26/40/129
f 9/8/130 18/22/130 16/13/130
f 16/13/131 19/28/131 17/24/131
f 16/13/132 24/31/132 19/28/132
f 139/15/133 59/27/133 32/16/133
f 20/25/134 17/24/134 25/29/134
f 38/43/135 39/56/135 31/21/135 30/35/135
f 15/20/136 23/32/136 18/22/136
f 21/17/137 30/35/137 31/21/137
f 24/31/138 18/22/138 28/33/138
f 19/28/139 29/34/139 25/29/139
f 24/31/140 34/41/140 29/34/140
f 30/35/141 25/29/141 35/36/141
f 22/23/142 41/37/142 27/30/142
f 28/33/143 23/32/143 33/38/143
f 44/12/144 26/40/144 51/39/144
f 43/49/145 35/36/145 34/41/145 37/42/145
f 51/39/146 31/21/146 39/56/146
f 34/41/147 28/33/147 37/42/147
f 33/38/148 27/30/148 36/44/148
f 32/16/149 40/45/149 41/37/149
f 38/43/150 35/36/150 43/49/150
f 33/38/151 36/44/151 42/46/151
f 37/42/152 33/38/152 42/46/152
f 55/67/153 56/156/153 47/47/153 46/52/153
f 36/44/154 46/52/154 42/46/154
f 37/42/155 48/48/155 43/49/155
f 39/56/156 38/43/156 50/50/156
f 50/50/157 43/49/157 49/60/157
f 41/37/158 52/55/158 45/51/158
f 39/56/159 64/57/159 51/39/159
f 47/47/160 42/46/160 46/52/160
f 56/156/161 57/157/161 48/48/161 47/47/161
f 51/39/162 73/61/162 76/58/162
f 58/158/163 49/60/163 48/48/163 57/157/163
f 66/74/164 58/158/164 57/157/164 61/69/164
f 49/60/165 58/158/165 53/159/165
f 50/50/166 49/60/166 53/159/166
f 50/50/167 53/159/167 63/160/167
f 46/52/168 45/51/168 54/62/168
f 64/57/169 50/50/169 63/160/169
f 46/52/170 54/62/170 55/67/170
f 40/45/171 77/63/171 52/55/171
f 57/157/172 56/156/172 61/69/172
f 62/76/173 53/159/173 58/158/173 66/74/173
f 68/65/174 54/62/174 52/55/174 67/64/174
f 60/66/175 61/69/175 56/156/175 55/67/175
f 53/159/176 62/76/176 63/160/176
f 72/79/177 63/160/177 62/76/177 71/75/177
f 69/68/178 65/70/178 61/69/178 60/66/178
f 64/57/179 63/160/179 72/79/179
f 64/57/180 72/79/180 73/61/180
f 96/87/181 73/61/181 72/79/181 87/80/181
f 61/69/182 70/71/182 66/74/182
f 59/27/183 82/73/183 77/63/183
f 66/74/184 75/77/184 71/75/184
f 69/68/185 68/65/185 78/94/185
f 69/68/186 78/94/186 79/85/186
f 79/85/187 74/83/187 65/70/187 69/68/187
f 78/94/188 68/65/188 67/64/188 88/82/188
f 76/58/189 73/61/189 96/87/189
f 70/71/190 65/70/190 74/83/190
f 70/71/191 74/83/191 75/77/191
f 90/98/192 79/85/192 78/94/192 89/93/192
f 75/77/193 85/84/193 80/81/193
f 87/80/194 81/78/194 91/96/194
f 98/107/195 90/98/195 89/93/195 97/113/195
f 83/86/196 79/85/196 90/98/196
f 74/83/197 84/89/197 85/84/197
f 77/63/198 92/91/198 88/82/198
f 81/78/199 80/81/199 86/92/199
f 81/78/200 86/92/200 91/96/200
f 87/80/201 100/97/201 96/87/201
f 84/89/202 83/86/202 93/99/202
f 94/104/203 95/95/203 84/89/203 93/99/203
f 93/99/204 90/98/204 98/107/204
f 97/113/205 89/93/205 88/82/205 105/102/205
f 82/73/206 131/101/206 92/91/206
f 104/121/207 99/103/207 94/104/207 108/110/207
f 86/92/208 99/103/208 91/96/208
f 100/97/209 91/96/209 109/105/209
f 96/87/210 110/106/210 111/88/210
f 93/99/211 103/109/211 94/104/211
f 102/108/212 98/107/212 101/114/212
f 112/115/213 107/116/213 102/108/213 101/114/213
f 92/91/214 118/111/214 105/102/214
f 99/103/215 104/121/215 109/105/215
f 97/113/216 106/112/216 101/114/216
f 127/119/217 111/88/217 110/106/217 117/161/217
f 103/109/218 102/108/218 107/116/218
f 103/109/219 107/116/219 108/110/219
f 116/123/220 122/162/220 110/106/220 109/105/220
f 112/115/221 106/112/221 114/122/221
f 121/133/222 113/125/222 107/130/222 120/132/222
f 110/106/223 122/162/223 117/161/223
f 115/131/224 112/127/224 119/129/224
f 129/146/225 121/133/225 120/132/225 124/135/225
f 120/132/226 115/131/226 124/135/226
f 126/126/227 113/125/227 125/134/227
f 119/129/228 114/128/228 128/136/228
f 122/138/229 116/124/229 126/126/229
f 114/128/230 132/142/230 128/136/230
f 117/149/231 122/138/231 137/139/231
f 124/135/232 119/129/232 123/137/232
f 133/148/233 134/144/233 124/135/233 123/137/233
f 121/133/234 129/146/234 125/134/234
f 124/135/235 135/145/235 129/146/235
f 130/143/236 125/134/236 136/147/236
f 143/155/237 136/147/237 135/145/237 142/163/237
f 130/143/238 138/150/238 137/139/238
f 133/148/239 128/136/239 140/151/239
f 117/149/240 146/53/240 127/11/240
f 139/15/241 6/2/241 132/142/241 131/141/241
f 141/152/242 142/163/242 134/144/242 133/148/242
f 136/147/243 143/155/243 144/154/243
f 132/142/244 6/2/244 2/1/244
f 138/150/245 136/147/245 144/154/245
f 132/142/246 2/1/246 140/151/246
f 137/139/247 145/54/247 146/53/247
f 11/4/248 144/154/248 143/155/248 10/14/248
f 135/145/249 134/144/249 142/163/249
f 142/163/250 3/9/250 143/155/250
f 144/154/251 11/4/251 4/6/251
f 141/152/252 140/151/252 7/19/252
f 145/54/253 138/150/253 12/18/253
f 142/163/254 141/152/254 8/7/254
f 3/9/255 142/163/255 8/7/255
