# Blender 5.0.0
# www.blender.org
mtllib prep_throw_ball0035.mtl
o Sphere
v -1.541948 6.611685 -0.269019
v -1.718401 5.944062 -0.400067
v -2.254152 5.216045 -0.074525
v -2.606135 5.318364 0.270002
v -2.843294 6.227527 0.770194
v -1.609559 6.129287 -0.354898
v -1.727326 5.565421 -0.244372
v -1.952135 5.293134 -0.134885
v -1.923812 5.202113 0.113455
v -2.250867 5.163001 0.141653
v -2.378448 5.198716 0.251598
v -2.627772 5.479538 0.549051
v -1.495767 5.801694 -0.146335
v -2.378252 5.278396 0.463775
v -1.607138 5.457853 0.014933
v -1.913661 5.221251 0.351598
v -2.140847 5.245697 0.483494
v -1.577932 5.429542 0.258803
v -1.888721 5.321120 0.536289
v -2.189714 5.415123 0.694262
v -2.393728 5.474105 0.696258
v -1.374221 6.014577 -0.046775
v -1.390439 5.707902 0.262318
v -1.648397 5.484577 0.561927
v -1.955097 5.456571 0.718489
v -2.649996 5.792510 0.769450
v -1.324315 5.943561 0.124827
v -1.465224 5.697917 0.552655
v -1.721771 5.622185 0.757526
v -2.124754 5.705654 0.907293
v -2.430197 5.736750 0.859876
v -1.377469 6.244364 -0.114342
v -1.297441 6.004920 0.453255
v -1.527087 5.871327 0.767562
v -1.765732 5.826834 0.904363
v -1.240972 6.315038 0.366009
v -1.429141 6.142611 0.786557
v -2.074600 6.037792 1.038582
v -2.355395 6.146870 1.028204
v -1.337032 6.663970 0.030577
v -1.265101 6.405505 0.139314
v -1.307013 6.381335 0.637706
v -1.721744 6.246642 1.014632
v -2.717167 6.055820 0.834707
v -1.263630 6.642342 0.353800
v -1.301681 6.681499 0.578212
v -1.417188 6.597968 0.805050
v -1.536682 6.585792 0.921841
v -1.768723 6.595892 1.047881
v -2.097531 6.414093 1.102582
v -2.532444 6.146164 0.967232
v -1.337394 6.872334 0.185868
v -2.030424 6.863015 1.075238
v -1.366716 7.018013 0.423395
v -1.444804 7.036405 0.654635
v -1.543036 7.052107 0.787516
v -1.669368 7.045982 0.899092
v -1.799583 6.976374 0.992386
v -1.414945 6.596993 -0.133596
v -1.547792 7.300335 0.509848
v -1.760030 7.346279 0.762891
v -2.164588 7.118257 1.002400
v -2.304831 6.767311 1.071306
v -2.449589 6.613379 1.045627
v -1.871206 7.545487 0.583651
v -2.004797 7.339985 0.877514
v -1.514106 7.172257 0.083931
v -1.533655 7.285989 0.235589
v -1.707581 7.492144 0.397754
v -2.008005 7.539291 0.685105
v -2.326283 7.309502 0.891830
v -2.569869 6.973226 0.939950
v -2.642237 6.582646 0.957804
v -2.212885 7.678440 0.430564
v -2.258133 7.557713 0.682792
v -2.767246 6.428463 0.869431
v -1.516665 7.026365 -0.069714
v -1.835631 7.506766 0.082601
v -1.997382 7.638636 0.259053
v -2.498664 7.490657 0.659360
v -2.667150 7.261301 0.746624
v -1.572446 6.858960 -0.219974
v -2.264476 7.672141 0.232996
v -2.532681 7.599034 0.192281
v -2.521024 7.596408 0.437867
v -2.788514 7.373260 0.479327
v -2.821992 6.952081 0.758853
v -1.771672 7.272001 -0.142874
v -2.034955 7.461029 -0.120286
v -2.236156 7.594435 0.018433
v -2.920151 7.099307 0.553298
v -1.766777 7.014036 -0.304150
v -2.575911 7.507589 -0.008039
v -2.846838 7.313644 0.058615
v -2.792349 7.423926 0.275054
v -2.894785 6.710257 0.746565
v -2.194986 7.275430 -0.317257
v -2.430145 7.382641 -0.217314
v -2.997515 7.124013 0.227214
v -3.015268 6.818839 0.541773
v -2.439727 7.115442 -0.401340
v -2.663470 7.217028 -0.256351
v -2.809350 7.175789 -0.171683
v -3.087800 6.834292 0.047919
v -1.984720 6.998005 -0.419749
v -2.193295 6.961257 -0.474185
v -2.832973 6.781179 -0.373428
v -2.970173 6.939755 -0.146031
v -3.104010 6.777411 0.302127
v -3.079218 6.516056 0.481521
v -2.936851 6.426947 0.703641
v -2.492116 6.815785 -0.514421
v -3.053785 6.511934 -0.186081
v -2.112030 6.596117 -0.566901
v -2.738114 6.556647 -0.479571
v -3.142671 6.407699 0.112816
v -3.043515 6.146421 0.472532
v -1.852724 6.672673 -0.470650
v -2.467975 6.386521 -0.589375
v -2.848559 6.253420 -0.420666
v -2.968053 6.241244 -0.303875
v -3.110509 6.234580 0.313464
v -2.389421 6.073970 -0.583340
v -2.711983 6.019382 -0.480051
v -3.008693 6.011144 -0.171662
v -3.106767 6.107129 0.062142
v -2.934158 6.093501 0.633442
v -2.139757 6.224843 -0.592413
v -2.842205 5.787105 -0.286340
v -2.989920 5.792611 0.002330
v -1.687822 6.628864 -0.389154
v -1.838869 6.236136 -0.506959
v -2.269771 5.798041 -0.532743
v -2.491254 5.665822 -0.445175
v -2.617872 5.594970 -0.348692
v -2.808563 5.580393 -0.158751
v -2.998977 5.804366 0.276011
v -2.820529 5.493274 0.197951
v -1.539298 6.356340 -0.303007
v -1.914103 5.827718 -0.472265
v -2.058959 5.529710 -0.390655
v -2.312673 5.345764 -0.262543
v -2.514037 5.293726 -0.082475
v -2.633396 5.326522 0.041928
v -2.805063 5.616219 0.472090
v -2.874329 5.817270 0.558046
vn 0.6688 -0.2198 -0.7102
vn -0.4205 -0.8493 0.3193
vn 0.1637 -0.9201 -0.3559
vn -0.6821 -0.2417 0.6901
vn 0.1247 -0.9894 0.0742
vn 0.7350 -0.0734 -0.6740
vn -0.3817 -0.7195 0.5803
vn 0.5414 -0.6576 -0.5238
vn -0.4653 -0.5137 0.7208
vn 0.5889 -0.7917 -0.1624
vn 0.7821 -0.1656 -0.6007
vn -0.1579 -0.7872 0.5962
vn 0.7312 0.0975 -0.6752
vn 0.1039 -0.7797 0.6175
vn 0.8678 -0.3162 -0.3833
vn 0.5605 -0.7821 0.2723
vn 0.8131 -0.5501 0.1905
vn 0.3933 -0.6760 0.6231
vn 0.0220 -0.5944 0.8039
vn -0.1544 -0.5615 0.8129
vn 0.2410 -0.5311 0.8123
vn 0.9306 -0.0911 -0.3544
vn 0.9586 -0.2838 -0.0254
vn -0.4294 -0.3279 0.8415
vn 0.6243 -0.5103 0.5915
vn 0.8344 -0.3081 0.4570
vn 0.5083 -0.4273 0.7477
vn 0.1364 -0.3819 0.9141
vn 0.9808 -0.1209 -0.1527
vn 0.8899 0.0700 -0.4508
vn 0.8066 -0.0451 0.5894
vn 0.7006 -0.0473 0.7119
vn 0.1586 -0.1561 0.9749
vn 0.9946 0.0659 -0.0796
vn 0.9853 0.0740 0.1542
vn -0.6310 -0.4770 0.6118
vn 0.9586 0.1711 -0.2274
vn -0.2017 -0.0772 0.9764
vn -0.5273 -0.1488 0.8365
vn -0.6083 -0.1543 0.7786
vn 0.4766 -0.0196 0.8789
vn -0.4026 -0.0816 0.9117
vn 0.9609 0.2727 -0.0486
vn 0.8228 0.2694 -0.5004
vn 0.8499 0.3750 -0.3702
vn 0.8438 0.5365 0.0154
vn 0.8481 0.4676 0.2492
vn 0.7666 0.6421 0.0059
vn 0.3877 0.7267 0.5671
vn 0.7234 0.2191 -0.6547
vn -0.0083 0.4953 0.8687
vn 0.0445 0.6942 0.7184
vn -0.4059 0.4108 0.8164
vn -0.5709 0.3158 0.7579
vn -0.2534 0.6629 0.7045
vn 0.6653 0.5358 -0.5199
vn -0.3899 0.5635 0.7283
vn -0.2287 0.8934 0.3866
vn 0.1305 0.9893 -0.0656
vn -0.6990 -0.0046 0.7151
vn -0.2683 0.9625 0.0394
vn -0.6959 -0.0886 0.7127
vn 0.6152 0.4031 -0.6775
vn -0.5479 0.7320 0.4048
vn 0.4392 0.6817 -0.5852
vn -0.5511 0.8337 0.0351
vn -0.6088 0.7672 0.2017
vn -0.7940 0.2464 0.5557
vn -0.2051 0.9113 -0.3571
vn 0.6351 0.2249 -0.7390
vn 0.3782 0.4959 -0.7817
vn -0.8270 0.5418 0.1499
vn -0.8159 0.5718 -0.0860
vn -0.9117 0.3323 0.2415
vn -0.8426 0.0717 0.5338
vn -0.3638 0.6661 -0.6511
vn -0.5125 0.6419 -0.5704
vn -0.7726 0.4814 -0.4139
vn 0.4842 0.2820 -0.8282
vn 0.1527 0.4423 -0.8838
vn -0.9367 0.1334 0.3238
vn -0.0894 0.5671 -0.8188
vn -0.0500 0.3603 -0.9315
vn -0.3916 0.2528 -0.8847
vn -0.7554 -0.1408 0.6399
vn -0.7672 0.2068 -0.6071
vn -0.8825 0.2118 -0.4200
vn 0.2695 0.2547 -0.9287
vn -0.9628 0.0848 -0.2567
vn 0.1955 0.2820 -0.9393
vn -0.9919 0.1221 -0.0359
vn -0.9505 -0.0622 -0.3044
vn -0.0378 0.1698 -0.9847
vn -0.6442 0.0870 -0.7599
vn -0.8946 -0.0931 -0.4371
vn -0.3862 -0.0180 -0.9222
vn -0.0214 -0.0247 -0.9995
vn -0.9588 -0.2588 0.1169
vn 0.4600 0.0881 -0.8835
vn 0.3235 0.0886 -0.9421
vn -0.9190 -0.2908 -0.2661
vn -0.4342 -0.3528 -0.8289
vn -0.8180 -0.3926 -0.4204
vn -0.9383 -0.3455 -0.0162
vn 0.0582 -0.1556 -0.9861
vn -0.8552 -0.3374 0.3934
vn -0.5962 -0.4897 -0.6362
vn -0.8082 -0.5653 -0.1652
vn 0.2754 -0.1316 -0.9523
vn 0.1852 -0.3423 -0.9212
vn -0.7997 -0.5297 0.2827
vn 0.6395 0.1079 -0.7611
vn -0.6413 -0.7657 0.0493
vn 0.4967 -0.3401 -0.7985
vn -0.6606 -0.6711 0.3364
vn 0.3769 -0.5962 -0.7089
vn -0.2727 -0.9353 -0.2254
vn 0.0950 -0.9665 -0.2386
vn 0.6214 -0.3105 -0.7194
vn -0.4837 -0.7736 0.4093
vn -0.6691 -0.3310 0.6654
vn -0.0037 -0.9717 0.2363
vn 0.8492 -0.4230 -0.3160
vn 0.7467 -0.1528 -0.6474
vn -0.1562 -0.9246 0.3474
vn 0.7066 -0.4749 -0.5245
vn 0.5223 -0.7797 -0.3453
vn -0.2121 -0.7545 0.6211
vn -0.4338 -0.5392 0.7219
vn 0.5356 -0.8433 0.0449
vn 0.1677 -0.8765 0.4513
vn 0.4983 -0.7890 0.3594
vn 0.7719 0.0474 -0.6340
vn 0.0704 -0.7694 0.6348
vn -0.1731 -0.3435 0.9231
vn 0.8194 -0.5499 -0.1620
vn -0.1825 -0.5380 0.8229
vn 0.7338 -0.6177 0.2827
vn 0.3723 -0.6747 0.6373
vn 0.6228 -0.5106 0.5928
vn 0.1801 -0.5133 0.8391
vn 0.9411 -0.1106 -0.3195
vn 0.8847 -0.4143 0.2136
vn -0.4436 -0.3206 0.8369
vn 0.5268 -0.2596 0.8094
vn -0.3082 -0.3126 0.8985
vn 0.8058 -0.3256 0.4947
vn 0.9806 -0.1911 -0.0445
vn 0.8964 0.0650 -0.4384
vn 0.2231 -0.2694 0.9368
vn 0.9606 -0.1022 0.2584
vn 0.8849 -0.1866 0.4268
vn 0.8162 0.2328 0.5288
vn 0.9729 0.0282 0.2296
vn 0.5888 -0.1019 0.8018
vn -0.1034 -0.1729 0.9795
vn 0.1993 -0.0663 0.9777
vn 0.9665 0.1689 -0.1932
vn -0.3236 -0.1005 0.9408
vn 0.8764 0.0786 0.4752
vn 0.6556 0.2172 0.7232
vn -0.4859 -0.1035 0.8679
vn 0.4888 0.1746 0.8547
vn 0.3554 0.4650 0.8108
vn 0.2629 0.1601 0.9515
vn 0.1430 0.0389 0.9890
vn -0.0374 0.0663 0.9971
vn 0.9628 0.2418 0.1211
vn -0.1649 -0.0095 0.9863
vn 0.9092 0.3058 0.2827
vn 0.8561 0.3098 -0.4137
vn 0.5691 0.4759 0.6705
vn 0.1688 0.3697 0.9137
vn 0.8797 0.4393 -0.1823
vn 0.6950 0.5419 0.4726
vn -0.0933 0.2276 0.9693
vn -0.2479 0.2956 0.9226
vn 0.6136 0.6989 0.3674
vn -0.3354 0.1605 0.9283
vn -0.4276 0.1202 0.8959
vn -0.5887 0.1421 0.7958
vn 0.3029 0.6644 0.6832
vn 0.7664 0.2684 -0.5835
vn -0.0276 0.6483 0.7608
vn 0.6475 0.7267 -0.2294
vn 0.5073 0.8455 -0.1669
vn 0.3504 0.9275 0.1300
vn 0.6509 0.6239 -0.4324
vn -0.6231 0.0581 0.7800
vn 0.2072 0.9189 0.3356
vn 0.0619 0.8959 0.4399
vn 0.2583 0.8648 -0.4305
vn -0.2808 0.8548 0.4365
vn -0.7025 0.3757 0.6045
vn 0.0246 0.7262 -0.6871
vn 0.1486 0.9359 -0.3193
vn -0.2567 0.9662 0.0225
vn 0.6061 0.4299 -0.6692
vn -0.5787 0.6246 0.5244
vn -0.7056 0.4798 0.5214
vn -0.7905 0.2087 0.5757
vn -0.1908 0.9079 -0.3733
vn -0.5986 0.7671 -0.2309
vn -0.1578 0.7956 -0.5849
vn 0.3247 0.5382 -0.7777
vn 0.5641 0.2865 -0.7744
vn -0.8557 0.4364 -0.2781
vn -0.8491 0.4720 0.2372
vn -0.9110 0.2972 0.2860
vn -0.8338 0.0404 0.5506
vn -0.5849 0.6505 -0.4846
vn -0.2609 0.5539 -0.7907
vn -0.3820 0.3790 -0.8429
vn 0.4283 0.3068 -0.8500
vn -0.9556 0.2947 0.0050
vn 0.0152 0.4469 -0.8945
vn -0.8485 -0.1048 0.5188
vn -0.5418 0.4081 -0.7348
vn -0.6547 0.3748 -0.6564
vn -0.9861 0.0153 0.1652
vn 0.0096 0.2481 -0.9687
vn -0.7019 0.0845 -0.7072
vn -0.9355 -0.0986 0.3393
vn -0.2906 0.1487 -0.9452
vn -0.6724 -0.2133 -0.7087
vn -0.4273 -0.0200 -0.9039
vn -0.9312 -0.0940 -0.3521
vn 0.0237 0.0668 -0.9975
vn -0.9907 -0.1267 0.0495
vn 0.2713 0.0458 -0.9614
vn -0.9326 -0.2633 0.2469
vn -0.2897 -0.0912 -0.9528
vn -0.2402 -0.2570 -0.9361
vn -0.7428 -0.2301 -0.6288
vn -0.5204 -0.3557 -0.7763
vn -0.8236 -0.3949 -0.4071
vn -0.4428 -0.6746 -0.5906
vn -0.8682 -0.4962 -0.0074
vn 0.1800 -0.1898 -0.9652
vn -0.8311 -0.3066 0.4640
vn 0.5543 0.0298 -0.8318
vn -0.0517 -0.5086 -0.8595
vn -0.5923 -0.7099 -0.3811
vn 0.5182 -0.0973 -0.8497
vn -0.7350 -0.6526 -0.1841
vn 0.4210 -0.1535 -0.8940
vn -0.8127 -0.4422 0.3794
vn -0.3651 -0.9239 -0.1146
vn -0.2595 -0.5838 -0.7693
vn -0.2336 -0.8328 -0.5019
vn -0.4635 -0.8858 0.0237
vn 0.4038 -0.4190 -0.8132
vn -0.6622 -0.6690 0.3374
vn 0.1479 -0.6945 -0.7041
vn 0.0891 -0.8067 -0.5843
vt 0.781230 0.812500
vt 0.762032 0.875000
vt 0.685473 0.777944
vt 0.734697 0.375000
vt 0.703125 0.312500
vt 0.764235 0.312500
vt 0.741874 0.599249
vt 0.704616 0.531266
vt 0.763980 0.500000
vt 0.734375 0.000000
vt 0.879629 0.062500
vt 0.593677 0.062500
vt 0.670132 0.472235
vt 0.734536 0.437500
vt 0.734224 0.937500
vt 0.605595 0.875000
vt 0.658359 0.250000
vt 0.719918 0.218999
vt 0.734375 0.717281
vt 0.678319 0.660608
vt 0.606077 0.187500
vt 0.641330 0.592355
vt 0.623673 0.812500
vt 0.673680 0.375000
vt 0.639230 0.312500
vt 0.640625 1.000000
vt 0.479138 0.937500
vt 0.639064 0.437500
vt 0.612180 0.375000
vt 0.595563 0.750000
vt 0.606567 0.500000
vt 0.603325 0.667055
vt 0.578286 0.562500
vt 0.578286 0.437500
vt 0.577540 0.283466
vt 0.543444 0.396147
vt 0.512752 0.812500
vt 0.546915 0.655822
vt 0.503540 0.125000
vt 0.660224 0.125000
vt 0.544067 0.500000
vt 0.509405 0.537235
vt 0.515588 0.281661
vt 0.510998 0.724803
vt 0.449506 0.875000
vt 0.487180 0.625000
vt 0.453286 0.562500
vt 0.450317 0.500000
vt 0.485851 0.406417
vt 0.453088 0.281661
vt 0.455926 0.750000
vt 0.445771 0.665313
vt 0.799126 0.125000
vt 0.779637 0.187500
vt 0.402284 0.812500
vt 0.497588 0.187500
vt 0.386121 0.187500
vt 0.328120 0.062500
vt 0.453125 0.000000
vt 0.437500 0.406180
vt 0.347717 0.125000
vt 0.390588 0.718339
vt 0.293360 0.875000
vt 0.308534 0.812500
vt 0.316528 0.750000
vt 0.343750 0.656371
vt 0.393429 0.625000
vt 0.296915 0.655822
vt 0.343750 0.531273
vt 0.297036 0.562500
vt 0.294067 0.500000
vt 0.328125 1.000000
vt 0.230145 0.937500
vt 0.328286 0.437500
vt 0.296914 0.344178
vt 0.343750 0.343629
vt 0.265786 0.437500
vt 0.234338 0.281661
vt 0.296902 0.219059
vt 0.214815 0.187500
vt 0.237180 0.375000
vt 0.199790 0.812500
vt 0.237635 0.520573
vt 0.203286 0.437500
vt 0.237180 0.625000
vt 0.203286 0.562500
vt 0.190964 0.125000
vt 0.113605 0.062500
vt 0.169067 0.500000
vt 0.203125 0.000000
vt 0.137012 0.875000
vt 0.176363 0.337227
vt 0.171838 0.718339
vt 0.234338 0.718339
vt 0.148421 0.399333
vt 0.160278 0.250000
vt 0.121065 0.187500
vt 0.174680 0.625000
vt 0.134405 0.537235
vt 0.140625 1.000000
vt 0.030235 0.937500
vt 0.075252 0.812500
vt 0.102021 0.334687
vt 0.109536 0.437500
vt 0.066529 0.250000
vt 0.055088 0.153620
vt 0.112179 0.625000
vt 0.078286 0.562500
vt 0.075317 0.500000
vt 0.047036 0.437500
vt 0.032456 0.875000
vt 0.048167 0.750000
vt 0.108913 0.719958
vt 0.062500 0.658651
vt 0.015664 0.655822
vt 0.018885 0.520574
vt 0.000000 0.562500
vt 0.015625 0.000000
vt 0.000000 0.062500
vt 0.000000 0.399333
vt 0.046914 0.344178
vt 0.000000 0.784407
vt 0.000000 0.273040
vt 0.991904 0.273040
vt 0.992171 0.399333
vt 0.937867 0.282145
vt 1.000000 0.655822
vt 0.975379 0.784407
vt 0.953164 0.655822
vt 1.000000 0.500000
vt 0.984536 0.562500
vt 0.950317 0.500000
vt 0.953286 0.437500
vt 0.924679 0.375000
vt 0.915655 0.537235
vt 0.910279 0.750000
vt 0.906250 0.656371
vt 0.965747 0.187500
vt 0.868449 0.212346
vt 0.978825 0.875000
vt 0.921769 0.937500
vt 0.872374 0.843190
vt 0.887823 0.312500
vt 0.859536 0.562500
vt 0.856567 0.500000
vt 0.890786 0.437500
vt 0.855944 0.396148
vt 0.859414 0.655822
vt 0.939862 0.125000
vt 0.812867 0.282145
vt 0.814726 0.750000
vt 0.796945 0.653777
vt 0.828125 1.000000
vt 0.798190 0.375000
vt 0.797036 0.437500
vt 0.390786 0.562500
vt 0.387817 0.500000
vt 0.390786 0.437500
vt 0.390665 0.344178
vt 0.378980 0.250000
vt 0.000000 0.125000
vt 0.000000 0.187500
vt 0.801816 0.543181
s 0
f 2/1/1 6/2/1 13/3/1
f 11/4/2 14/5/2 4/6/2
f 8/7/3 9/8/3 3/9/3
f 5/10/4 127/11/4 44/12/4
f 9/8/5 16/13/5 10/14/5
f 139/15/6 32/16/6 6/2/6
f 14/5/7 21/17/7 12/18/7
f 7/19/8 15/20/8 8/7/8
f 12/18/9 21/17/9 31/21/9
f 15/20/10 18/22/10 9/8/10
f 32/16/11 22/23/11 13/3/11
f 14/5/12 17/24/12 20/25/12
f 139/15/13 1/26/13 59/27/13
f 19/28/14 25/29/14 17/24/14
f 22/23/15 27/30/15 13/3/15
f 16/13/16 18/22/16 24/31/16
f 18/22/17 23/32/17 28/33/17
f 24/31/18 29/34/18 19/28/18
f 20/25/19 25/29/19 30/35/19
f 20/25/20 30/35/20 21/17/20
f 29/34/21 35/36/21 25/29/21
f 32/16/22 41/37/22 22/23/22
f 23/32/23 27/30/23 33/38/23
f 31/21/24 51/39/24 26/40/24
f 24/31/25 28/33/25 34/41/25
f 28/33/26 33/38/26 37/42/26
f 34/41/27 35/36/27 29/34/27
f 30/35/28 35/36/28 38/43/28
f 41/37/29 36/44/29 27/30/29
f 32/16/30 59/27/30 40/45/30
f 37/42/31 42/46/31 47/47/31
f 37/42/32 47/47/32 48/48/32
f 38/43/33 43/49/33 50/50/33
f 41/37/34 45/51/34 36/44/34
f 36/44/35 45/51/35 46/52/35
f 26/40/36 146/53/36 145/54/36 12/18/36
f 41/37/37 40/45/37 52/55/37
f 39/56/38 50/50/38 64/57/38
f 44/12/39 51/39/39 76/58/39
f 5/59/40 44/12/40 76/58/40
f 48/48/41 49/60/41 43/49/41
f 64/57/42 73/61/42 51/39/42
f 52/55/43 54/62/43 45/51/43
f 59/27/44 77/63/44 40/45/44
f 52/55/45 77/63/45 67/64/45
f 54/62/46 68/65/46 60/66/46
f 54/62/47 60/66/47 55/67/47
f 60/66/48 68/65/48 69/68/48
f 61/69/49 65/70/49 70/71/49
f 59/27/50 1/72/50 82/73/50
f 66/74/51 71/75/51 62/76/51
f 70/71/52 75/77/52 66/74/52
f 71/75/53 81/78/53 72/79/53
f 72/79/54 81/78/54 87/80/54
f 75/77/55 80/81/55 71/75/55
f 67/64/56 77/63/56 88/82/56
f 71/75/57 80/81/57 81/78/57
f 74/83/58 85/84/58 75/77/58
f 74/83/59 79/85/59 83/86/59
f 96/87/60 111/88/60 76/58/60
f 74/83/61 83/86/61 84/89/61
f 5/90/62 76/58/62 111/88/62
f 77/63/63 82/73/63 92/91/63
f 85/84/64 86/92/64 80/81/64
f 88/82/65 89/93/65 78/94/65
f 84/89/66 95/95/66 85/84/66
f 85/84/67 95/95/67 86/92/67
f 87/80/68 91/96/68 100/97/68
f 83/86/69 90/98/69 93/99/69
f 82/73/70 1/100/70 131/101/70
f 92/91/71 105/102/71 88/82/71
f 86/92/72 95/95/72 99/103/72
f 94/104/73 99/103/73 95/95/73
f 99/103/74 109/105/74 91/96/74
f 100/97/75 110/106/75 96/87/75
f 93/99/76 98/107/76 102/108/76
f 93/99/77 102/108/77 103/109/77
f 103/109/78 108/110/78 94/104/78
f 131/101/79 118/111/79 92/91/79
f 105/102/80 106/112/80 97/113/80
f 100/97/81 109/105/81 110/106/81
f 97/113/82 101/114/82 98/107/82
f 101/114/83 106/112/83 112/115/83
f 107/116/84 112/115/84 115/117/84
f 5/118/85 111/88/85 127/119/85
f 107/116/86 113/120/86 108/110/86
f 108/110/87 113/120/87 104/121/87
f 105/102/88 118/111/88 114/122/88
f 104/121/89 113/120/89 116/123/89
f 105/102/90 114/122/90 106/112/90
f 104/121/91 116/123/91 109/105/91
f 116/124/92 113/125/92 126/126/92
f 112/127/93 114/128/93 119/129/93
f 107/130/94 115/131/94 120/132/94
f 121/133/95 125/134/95 113/125/95
f 115/131/96 119/129/96 124/135/96
f 119/129/97 128/136/97 123/137/97
f 122/138/98 126/126/98 137/139/98
f 118/140/99 131/141/99 132/142/99
f 118/140/100 132/142/100 114/128/100
f 126/126/101 125/134/101 130/143/101
f 124/135/102 134/144/102 135/145/102
f 129/146/103 136/147/103 125/134/103
f 130/143/104 137/139/104 126/126/104
f 123/137/105 128/136/105 133/148/105
f 137/139/106 146/53/106 117/149/106
f 135/145/107 136/147/107 129/146/107
f 130/143/108 136/147/108 138/150/108
f 132/142/109 140/151/109 128/136/109
f 133/148/110 140/151/110 141/152/110
f 137/139/111 138/150/111 145/54/111
f 131/141/112 1/153/112 139/15/112
f 138/150/113 144/154/113 4/6/113
f 140/151/114 2/1/114 7/19/114
f 4/6/115 12/18/115 138/150/115
f 141/152/116 7/19/116 8/7/116
f 3/9/117 10/14/117 143/155/117
f 3/9/118 9/8/118 10/14/118
f 7/19/119 2/1/119 13/3/119
f 4/6/120 14/5/120 12/18/120
f 44/12/121 127/11/121 146/53/121 26/40/121
f 17/24/122 11/4/122 10/14/122 16/13/122
f 23/32/123 15/20/123 13/3/123 27/30/123
f 6/2/124 32/16/124 13/3/124
f 11/4/125 17/24/125 14/5/125
f 7/19/126 13/3/126 15/20/126
f 9/8/127 8/7/127 15/20/127
f 21/17/128 14/5/128 20/25/128
f 12/18/129 31/21/129 26/40/129
f 9/8/130 18/22/130 16/13/130
f 16/13/131 19/28/131 17/24/131
f 16/13/132 24/31/132 19/28/132
f 139/15/133 59/27/133 32/16/133
f 20/25/134 17/24/134 25/29/134
f 38/43/135 39/56/135 31/21/135 30/35/135
f 15/20/136 23/32/136 18/22/136
f 21/17/137 30/35/137 31/21/137
f 24/31/138 18/22/138 28/33/138
f 19/28/139 29/34/139 25/29/139
f 24/31/140 34/41/140 29/34/140
f 30/35/141 25/29/141 35/36/141
f 22/23/142 41/37/142 27/30/142
f 28/33/143 23/32/143 33/38/143
f 44/12/144 26/40/144 51/39/144
f 43/49/145 35/36/145 34/41/145 37/42/145
f 51/39/146 31/21/146 39/56/146
f 34/41/147 28/33/147 37/42/147
f 33/38/148 27/30/148 36/44/148
f 32/16/149 40/45/149 41/37/149
f 38/43/150 35/36/150 43/49/150
f 33/38/151 36/44/151 42/46/151
f 37/42/152 33/38/152 42/46/152
f 55/67/153 56/156/153 47/47/153 46/52/153
f 36/44/154 46/52/154 42/46/154
f 37/42/155 48/48/155 43/49/155
f 39/56/156 38/43/156 50/50/156
f 50/50/157 43/49/157 49/60/157
f 41/37/158 52/55/158 45/51/158
f 39/56/159 64/57/159 51/39/159
f 47/47/160 42/46/160 46/52/160
f 56/156/161 57/157/161 48/48/161 47/47/161
f 51/39/162 73/61/162 76/58/162
f 58/158/163 49/60/163 48/48/163 57/157/163
f 66/74/164 58/158/164 57/157/164 61/69/164
f 49/60/165 58/158/165 53/159/165
f 50/50/166 49/60/166 53/159/166
f 50/50/167 53/159/167 63/160/167
f 46/52/168 45/51/168 54/62/168
f 64/57/169 50/50/169 63/160/169
f 46/52/170 54/62/170 55/67/170
f 40/45/171 77/63/171 52/55/171
f 57/157/172 56/156/172 61/69/172
f 62/76/173 53/159/173 58/158/173 66/74/173
f 68/65/174 54/62/174 52/55/174 67/64/174
f 60/66/175 61/69/175 56/156/175 55/67/175
f 53/159/176 62/76/176 63/160/176
f 72/79/177 63/160/177 62/76/177 71/75/177
f 69/68/178 65/70/178 61/69/178 60/66/178
f 64/57/179 63/160/179 72/79/179
f 64/57/180 72/79/180 73/61/180
f 96/87/181 73/61/181 72/79/181 87/80/181
f 61/69/182 70/71/182 66/74/182
f 59/27/183 82/73/183 77/63/183
f 66/74/184 75/77/184 71/75/184
f 69/68/185 68/65/185 78/94/185
f 69/68/186 78/94/186 79/85/186
f 79/85/187 74/83/187 65/70/187 69/68/187
f 78/94/188 68/65/188 67/64/188 88/82/188
f 76/58/189 73/61/189 96/87/189
f 70/71/190 65/70/190 74/83/190
f 70/71/191 74/83/191 75/77/191
f 90/98/192 79/85/192 78/94/192 89/93/192
f 75/77/193 85/84/193 80/81/193
f 87/80/194 81/78/194 91/96/194
f 98/107/195 90/98/195 89/93/195 97/113/195
f 83/86/196 79/85/196 90/98/196
f 74/83/197 84/89/197 85/84/197
f 77/63/198 92/91/198 88/82/198
f 81/78/199 80/81/199 86/92/199
f 81/78/200 86/92/200 91/96/200
f 87/80/201 100/97/201 96/87/201
f 84/89/202 83/86/202 93/99/202
f 94/104/203 95/95/203 84/89/203 93/99/203
f 93/99/204 90/98/204 98/107/204
f 97/113/205 89/93/205 88/82/205 105/102/205
f 82/73/206 131/101/206 92/91/206
f 104/121/207 99/103/207 94/104/207 108/110/207
f 86/92/208 99/103/208 91/96/208
f 100/97/209 91/96/209 109/105/209
f 96/87/210 110/106/210 111/88/210
f 93/99/211 103/109/211 94/104/211
f 102/108/212 98/107/212 101/114/212
f 112/115/213 107/116/213 102/108/213 101/114/213
f 92/91/214 118/111/214 105/102/214
f 99/103/215 104/121/215 109/105/215
f 97/113/216 106/112/216 101/114/216
f 127/119/217 111/88/217 110/106/217 117/161/217
f 103/109/218 102/108/218 107/116/218
f 103/109/219 107/116/219 108/110/219
f 116/123/220 122/162/220 110/106/220 109/105/220
f 112/115/221 106/112/221 114/122/221
f 121/133/222 113/125/222 107/130/222 120/132/222
f 110/106/223 122/162/223 117/161/223
f 115/131/224 112/127/224 119/129/224
f 129/146/225 121/133/225 120/132/225 124/135/225
f 120/132/226 115/131/226 124/135/226
f 126/126/227 113/125/227 125/134/227
f 119/129/228 114/128/228 128/136/228
f 122/138/229 116/124/229 126/126/229
f 114/128/230 132/142/230 128/136/230
f 117/149/231 122/138/231 137/139/231
f 124/135/232 119/129/232 123/137/232
f 133/148/233 134/144/233 124/135/233 123/137/233
f 121/133/234 129/146/234 125/134/234
f 124/135/235 135/145/235 129/146/235
f 130/143/236 125/134/236 136/147/236
f 143/155/237 136/147/237 135/145/237 142/163/237
f 130/143/238 138/150/238 137/139/238
f 133/148/239 128/136/239 140/151/239
f 117/149/240 146/53/240 127/11/240
f 139/15/241 6/2/241 132/142/241 131/141/241
f 141/152/242 142/163/242 134/144/242 133/148/242
f 136/147/243 143/155/243 144/154/243
f 132/142/244 6/2/244 2/1/244
f 138/150/245 136/147/245 144/154/245
f 132/142/246 2/1/246 140/151/246
f 137/139/247 145/54/247 146/53/247
f 11/4/248 144/154/248 143/155/248 10/14/248
f 135/145/249 134/144/249 142/163/249
f 142/163/250 3/9/250 143/155/250
f 144/154/251 11/4/251 4/6/251
f 141/152/252 140/151/252 7/19/252
f 145/54/253 138/150/253 12/18/253
f 142/163/254 141/152/254 8/7/254
f 3/9/255 142/163/255 8/7/255
