# Blender 5.0.0
# www.blender.org
mtllib prep_throw_ball0032.mtl
o Sphere
v -1.621137 6.667403 -0.100355
v -1.771909 6.008570 -0.276061
v -2.288129 5.227832 -0.006687
v -2.649792 5.279800 0.337092
v -2.927528 6.124194 0.888830
v -1.670410 6.192931 -0.217508
v -1.770659 5.615074 -0.144917
v -1.987911 5.323317 -0.056814
v -1.961118 5.208334 0.185429
v -2.287063 5.152940 0.205467
v -2.417826 5.171943 0.315106
v -2.682205 5.410793 0.624980
v -1.549304 5.849936 -0.028356
v -2.424357 5.229533 0.531586
v -1.651716 5.486288 0.108783
v -1.956099 5.203369 0.424141
v -2.186399 5.204770 0.553241
v -1.626124 5.434262 0.350538
v -1.938091 5.284914 0.614925
v -2.245026 5.349864 0.773134
v -2.450937 5.399961 0.775349
v -1.437086 6.056787 0.086364
v -1.448481 5.718922 0.374796
v -1.704107 5.455042 0.654893
v -2.012502 5.398375 0.803907
v -2.719354 5.698979 0.863977
v -1.387984 5.970501 0.253760
v -1.528293 5.676074 0.662236
v -1.785835 5.568986 0.857244
v -2.194154 5.620064 1.004866
v -2.499514 5.643257 0.954342
v -1.447006 6.292467 0.033456
v -1.369405 5.999013 0.585398
v -1.600119 5.824173 0.886283
v -1.839580 5.755930 1.015728
v -1.322068 6.319198 0.518964
v -1.511991 6.096488 0.923990
v -2.157980 5.939485 1.157502
v -2.442103 6.037570 1.149229
v -1.423819 6.697207 0.205023
v -1.345056 6.431581 0.298330
v -1.395431 6.354605 0.792784
v -1.812202 6.164577 1.152838
v -2.796787 5.951765 0.944459
v -1.355788 6.645522 0.527040
v -1.399362 6.659909 0.752505
v -1.516129 6.548639 0.971328
v -1.637286 6.519573 1.084909
v -1.871832 6.507086 1.207185
v -2.195093 6.306776 1.244611
v -2.617830 6.035796 1.085389
v -1.434289 6.888789 0.372914
v -2.143046 6.759506 1.246807
v -1.473069 7.008292 0.618313
v -1.556056 6.999639 0.848589
v -1.657232 6.997569 0.980326
v -1.785331 6.974783 1.088973
v -1.914774 6.890481 1.175334
v -1.496274 6.644125 0.035854
v -1.665362 7.273124 0.719169
v -1.883740 7.284119 0.970614
v -2.284549 7.015660 1.188010
v -2.413832 6.653223 1.232159
v -2.552662 6.496543 1.194387
v -1.998345 7.496337 0.802638
v -2.130221 7.255949 1.080260
v -1.619302 7.190673 0.287205
v -1.645604 7.287575 0.445181
v -1.829539 7.469064 0.616812
v -2.136710 7.474085 0.901015
v -2.450640 7.210805 1.087103
v -2.683292 6.860834 1.109693
v -2.742434 6.466971 1.101628
v -2.341451 7.630332 0.652604
v -2.387211 7.482314 0.895590
v -2.860350 6.317296 1.001698
v -1.613939 7.061027 0.124843
v -1.952079 7.510681 0.301462
v -2.121550 7.617217 0.482856
v -2.624775 7.407971 0.863893
v -2.786822 7.163588 0.933519
v -1.661072 6.907400 -0.036413
v -2.389079 7.642205 0.454429
v -2.653759 7.562462 0.404654
v -2.646621 7.535117 0.649437
v -2.906941 7.297520 0.672112
v -2.931071 6.847925 0.923564
v -1.875841 7.302641 0.063051
v -2.145847 7.477701 0.092970
v -2.354080 7.588006 0.236183
v -3.030381 7.011606 0.726310
v -1.859015 7.062458 -0.113853
v -2.690039 7.490155 0.198511
v -2.955274 7.278916 0.248076
v -2.908698 7.368798 0.471662
v -2.995214 6.605306 0.894830
v -2.295634 7.306432 -0.117768
v -2.536163 7.393221 -0.015433
v -3.102424 7.066488 0.401569
v -3.115507 6.729495 0.695516
v -2.533057 7.145576 -0.215839
v -2.762830 7.222610 -0.068770
v -2.908742 7.166803 0.010513
v -3.179259 6.792583 0.203076
v -2.074047 7.049334 -0.233800
v -2.280149 7.009684 -0.293937
v -2.914929 6.793489 -0.215822
v -3.061748 6.922410 0.018447
v -3.198251 6.709159 0.452555
v -3.167809 6.431448 0.615290
v -3.026648 6.325783 0.833473
v -2.572927 6.856545 -0.348320
v -3.129752 6.496933 -0.049865
v -2.184601 6.658873 -0.407963
v -2.810407 6.584670 -0.334135
v -3.220556 6.358745 0.239922
v -3.119195 6.065678 0.583642
v -1.929971 6.735981 -0.302775
v -2.532569 6.437676 -0.449665
v -2.911379 6.272023 -0.296434
v -3.032535 6.242957 -0.182854
v -3.186198 6.167043 0.429526
v -2.443396 6.128995 -0.462006
v -2.765723 6.050663 -0.368032
v -3.067663 5.998512 -0.066290
v -3.173348 6.066053 0.171089
v -3.011120 6.000975 0.742540
v -2.198996 6.290539 -0.457266
v -2.891433 5.794027 -0.191851
v -3.044614 5.763759 0.093656
v -1.765226 6.690806 -0.221495
v -1.900363 6.305473 -0.366240
v -2.315264 5.853919 -0.426927
v -2.533624 5.704062 -0.351783
v -2.659489 5.618343 -0.262261
v -2.853066 5.576428 -0.077149
v -3.059196 5.746996 0.366991
v -2.868692 5.452538 0.272642
v -1.609029 6.416668 -0.150278
v -1.962067 5.891995 -0.358696
v -2.098026 5.580792 -0.298628
v -2.347560 5.373917 -0.186890
v -2.550322 5.295260 -0.014163
v -2.673039 5.310212 0.109841
v -2.862623 5.547493 0.553862
v -2.940386 5.736056 0.651013
vn 0.6852 -0.1510 -0.7125
vn -0.3931 -0.8914 0.2253
vn 0.2052 -0.8752 -0.4381
vn -0.6886 -0.3107 0.6552
vn 0.1661 -0.9858 -0.0240
vn 0.7481 -0.0058 -0.6636
vn -0.3657 -0.7810 0.5062
vn 0.5683 -0.5949 -0.5684
vn -0.4617 -0.5836 0.6680
vn 0.6190 -0.7518 -0.2273
vn 0.7958 -0.1006 -0.5971
vn -0.1351 -0.8432 0.5204
vn 0.7409 0.1654 -0.6509
vn 0.1307 -0.8264 0.5476
vn 0.8819 -0.2605 -0.3930
vn 0.5914 -0.7799 0.2048
vn 0.8327 -0.5326 0.1518
vn 0.4183 -0.7088 0.5681
vn 0.0366 -0.6545 0.7551
vn -0.1446 -0.6283 0.7644
vn 0.2558 -0.5813 0.7724
vn 0.9390 -0.0372 -0.3419
vn 0.9681 -0.2486 -0.0329
vn -0.4334 -0.4002 0.8075
vn 0.6417 -0.5289 0.5554
vn 0.8416 -0.3086 0.4433
vn 0.5201 -0.4604 0.7194
vn 0.1414 -0.4398 0.8869
vn 0.9867 -0.0781 -0.1426
vn 0.8964 0.1285 -0.4242
vn 0.7982 -0.0555 0.5999
vn 0.6911 -0.0690 0.7195
vn 0.1520 -0.2135 0.9650
vn 0.9933 0.1039 -0.0506
vn 0.9784 0.0966 0.1829
vn -0.6288 -0.5436 0.5560
vn 0.9576 0.2177 -0.1887
vn -0.2134 -0.1464 0.9659
vn -0.5373 -0.2209 0.8140
vn -0.6178 -0.2254 0.7533
vn 0.4639 -0.0595 0.8839
vn -0.4145 -0.1536 0.8970
vn 0.9516 0.3075 0.0006
vn 0.8256 0.3306 -0.4573
vn 0.8465 0.4294 -0.3149
vn 0.8218 0.5628 0.0889
vn 0.8211 0.4767 0.3138
vn 0.7402 0.6665 0.0885
vn 0.3425 0.6898 0.6378
vn 0.7301 0.2867 -0.6203
vn -0.0415 0.4309 0.9015
vn 0.0041 0.6349 0.7726
vn -0.4299 0.3398 0.8365
vn -0.5904 0.2455 0.7689
vn -0.2866 0.5960 0.7501
vn 0.6593 0.5980 -0.4558
vn -0.4177 0.4942 0.7624
vn -0.2683 0.8443 0.4638
vn 0.0889 0.9953 0.0383
vn -0.7111 -0.0735 0.6992
vn -0.3084 0.9422 0.1306
vn -0.7062 -0.1577 0.6902
vn 0.6164 0.4722 -0.6301
vn -0.5767 0.6756 0.4593
vn 0.4260 0.7448 -0.5137
vn -0.5835 0.8051 0.1070
vn -0.6378 0.7239 0.2630
vn -0.8087 0.1830 0.5590
vn -0.2412 0.9321 -0.2702
vn 0.6425 0.2953 -0.7071
vn 0.3747 0.5667 -0.7338
vn -0.8464 0.4995 0.1850
vn -0.8363 0.5464 -0.0455
vn -0.9248 0.2841 0.2532
vn -0.8535 0.0095 0.5210
vn -0.3880 0.7021 -0.5971
vn -0.5366 0.6650 -0.5195
vn -0.7889 0.4815 -0.3818
vn 0.4901 0.3543 -0.7964
vn 0.1489 0.5105 -0.8469
vn -0.9455 0.0811 0.3152
vn -0.1037 0.6249 -0.7738
vn -0.0527 0.4221 -0.9050
vn -0.3921 0.2970 -0.8707
vn -0.7637 -0.2076 0.6113
vn -0.7678 0.2194 -0.6019
vn -0.8849 0.2083 -0.4167
vn 0.2751 0.3256 -0.9046
vn -0.9609 0.0687 -0.2683
vn 0.1993 0.3516 -0.9147
vn -0.9948 0.0908 -0.0454
vn -0.9410 -0.0741 -0.3302
vn -0.0311 0.2322 -0.9722
vn -0.6365 0.1136 -0.7628
vn -0.8810 -0.0945 -0.4636
vn -0.3712 0.0279 -0.9281
vn -0.0059 0.0382 -0.9993
vn -0.9520 -0.2981 0.0692
vn 0.4717 0.1603 -0.8671
vn 0.3351 0.1599 -0.9285
vn -0.8997 -0.3026 -0.3145
vn -0.4020 -0.3096 -0.8617
vn -0.7896 -0.3893 -0.4743
vn -0.9242 -0.3750 -0.0723
vn 0.0787 -0.0899 -0.9928
vn -0.8535 -0.3931 0.3419
vn -0.5588 -0.4617 -0.6889
vn -0.7796 -0.5786 -0.2397
vn 0.2938 -0.0613 -0.9539
vn 0.2108 -0.2732 -0.9386
vn -0.7881 -0.5778 0.2121
vn 0.6500 0.1785 -0.7387
vn -0.6110 -0.7904 -0.0433
vn 0.5178 -0.2690 -0.8121
vn -0.6442 -0.7210 0.2555
vn 0.4057 -0.5275 -0.7464
vn -0.2271 -0.9187 -0.3232
vn 0.1384 -0.9337 -0.3303
vn 0.6400 -0.2411 -0.7296
vn -0.4630 -0.8253 0.3234
vn -0.6727 -0.3995 0.6228
vn 0.0349 -0.9899 0.1374
vn 0.8656 -0.3706 -0.3369
vn 0.7609 -0.0860 -0.6432
vn -0.1228 -0.9600 0.2517
vn 0.7266 -0.4120 -0.5498
vn 0.5528 -0.7275 -0.4064
vn -0.1921 -0.8140 0.5482
vn -0.4287 -0.6088 0.6675
vn 0.5687 -0.8220 -0.0291
vn 0.2013 -0.9074 0.3689
vn 0.5297 -0.7968 0.2906
vn 0.7821 0.1137 -0.6127
vn 0.0959 -0.8189 0.5659
vn -0.1741 -0.4125 0.8942
vn 0.8391 -0.5068 -0.1979
vn -0.1744 -0.6059 0.7762
vn 0.7568 -0.6098 0.2355
vn 0.3970 -0.7095 0.5823
vn 0.6403 -0.5293 0.5567
vn 0.1929 -0.5675 0.8004
vn 0.9494 -0.0586 -0.3087
vn 0.8981 -0.3966 0.1902
vn -0.4480 -0.3929 0.8031
vn 0.5287 -0.2941 0.7962
vn -0.3118 -0.3841 0.8690
vn 0.8137 -0.3296 0.4788
vn 0.9871 -0.1546 -0.0420
vn 0.9028 0.1230 -0.4121
vn 0.2230 -0.3235 0.9196
vn 0.9595 -0.0862 0.2682
vn 0.8859 -0.1836 0.4259
vn 0.7935 0.2242 0.5658
vn 0.9664 0.0458 0.2530
vn 0.5816 -0.1330 0.8025
vn -0.1109 -0.2399 0.9644
vn 0.1883 -0.1218 0.9745
vn 0.9647 0.2135 -0.1544
vn -0.3348 -0.1718 0.9265
vn 0.8628 0.0770 0.4996
vn 0.6308 0.1909 0.7521
vn -0.4971 -0.1757 0.8497
vn 0.4655 0.1350 0.8747
vn 0.3188 0.4174 0.8510
vn 0.2406 0.1071 0.9647
vn 0.1268 -0.0194 0.9917
vn -0.0546 0.0014 0.9985
vn 0.9497 0.2651 0.1666
vn -0.1790 -0.0778 0.9808
vn 0.8887 0.3160 0.3322
vn 0.8557 0.3667 -0.3651
vn 0.5319 0.4449 0.7205
vn 0.1378 0.3118 0.9401
vn 0.8684 0.4816 -0.1183
vn 0.6582 0.5280 0.5366
vn -0.1161 0.1608 0.9801
vn -0.2713 0.2255 0.9357
vn 0.5727 0.6872 0.4470
vn -0.3542 0.0894 0.9309
vn -0.4447 0.0485 0.8944
vn -0.6048 0.0713 0.7932
vn 0.2596 0.6177 0.7423
vn 0.7708 0.3334 -0.5429
vn -0.0652 0.5853 0.8082
vn 0.6252 0.7675 -0.1416
vn 0.4765 0.8764 -0.0695
vn 0.3070 0.9233 0.2307
vn 0.6391 0.6806 -0.3582
vn -0.6372 -0.0125 0.7706
vn 0.1607 0.8898 0.4272
vn 0.0167 0.8525 0.5225
vn 0.2306 0.9115 -0.3405
vn -0.3183 0.8009 0.5072
vn -0.7208 0.3098 0.6200
vn 0.0034 0.7828 -0.6222
vn 0.1141 0.9683 -0.2222
vn -0.2970 0.9480 0.1146
vn 0.6062 0.4987 -0.6195
vn -0.6041 0.5616 0.5653
vn -0.7257 0.4170 0.5472
vn -0.8047 0.1446 0.5758
vn -0.2265 0.9309 -0.2866
vn -0.6286 0.7599 -0.1656
vn -0.1864 0.8376 -0.5135
vn 0.3187 0.6081 -0.7271
vn 0.5698 0.3580 -0.7397
vn -0.8700 0.4240 -0.2518
vn -0.8663 0.4241 0.2639
vn -0.9235 0.2466 0.2939
vn -0.8443 -0.0226 0.5353
vn -0.6097 0.6640 -0.4328
vn -0.2772 0.6023 -0.7486
vn -0.3897 0.4227 -0.8182
vn 0.4330 0.3791 -0.8178
vn -0.9653 0.2608 0.0137
vn 0.0090 0.5108 -0.8596
vn -0.8555 -0.1665 0.4903
vn -0.5528 0.4387 -0.7085
vn -0.6645 0.3954 -0.6341
vn -0.9891 -0.0281 0.1444
vn 0.0131 0.3123 -0.9499
vn -0.6946 0.1058 -0.7116
vn -0.9390 -0.1515 0.3086
vn -0.2844 0.1995 -0.9377
vn -0.6480 -0.1885 -0.7379
vn -0.4123 0.0233 -0.9108
vn -0.9192 -0.1020 -0.3802
vn 0.0353 0.1312 -0.9907
vn -0.9866 -0.1625 0.0145
vn 0.2843 0.1163 -0.9517
vn -0.9293 -0.3107 0.1997
vn -0.2708 -0.0398 -0.9618
vn -0.2134 -0.2026 -0.9557
vn -0.7185 -0.2126 -0.6623
vn -0.4881 -0.3187 -0.8125
vn -0.7955 -0.3926 -0.4616
vn -0.3989 -0.6395 -0.6572
vn -0.8482 -0.5240 -0.0774
vn 0.2008 -0.1210 -0.9721
vn -0.8320 -0.3661 0.4168
vn 0.5672 0.1015 -0.8173
vn -0.0171 -0.4463 -0.8947
vn -0.5505 -0.6960 -0.4609
vn 0.5340 -0.0256 -0.8451
vn -0.7018 -0.6611 -0.2655
vn 0.4390 -0.0818 -0.8948
vn -0.8072 -0.4970 0.3185
vn -0.3222 -0.9218 -0.2156
vn -0.2193 -0.5321 -0.8178
vn -0.1872 -0.7924 -0.5806
vn -0.4264 -0.9013 -0.0770
vn 0.4281 -0.3480 -0.8341
vn -0.6459 -0.7190 0.2567
vn 0.1843 -0.6298 -0.7545
vn 0.1297 -0.7489 -0.6499
vt 0.781230 0.812500
vt 0.762032 0.875000
vt 0.685473 0.777944
vt 0.734697 0.375000
vt 0.703125 0.312500
vt 0.764235 0.312500
vt 0.741874 0.599249
vt 0.704616 0.531266
vt 0.763980 0.500000
vt 0.734375 0.000000
vt 0.879629 0.062500
vt 0.593677 0.062500
vt 0.670132 0.472235
vt 0.734536 0.437500
vt 0.734224 0.937500
vt 0.605595 0.875000
vt 0.658359 0.250000
vt 0.719918 0.218999
vt 0.734375 0.717281
vt 0.678319 0.660608
vt 0.606077 0.187500
vt 0.641330 0.592355
vt 0.623673 0.812500
vt 0.673680 0.375000
vt 0.639230 0.312500
vt 0.640625 1.000000
vt 0.479138 0.937500
vt 0.639064 0.437500
vt 0.612180 0.375000
vt 0.595563 0.750000
vt 0.606567 0.500000
vt 0.603325 0.667055
vt 0.578286 0.562500
vt 0.578286 0.437500
vt 0.577540 0.283466
vt 0.543444 0.396147
vt 0.512752 0.812500
vt 0.546915 0.655822
vt 0.503540 0.125000
vt 0.660224 0.125000
vt 0.544067 0.500000
vt 0.509405 0.537235
vt 0.515588 0.281661
vt 0.510998 0.724803
vt 0.449506 0.875000
vt 0.487180 0.625000
vt 0.453286 0.562500
vt 0.450317 0.500000
vt 0.485851 0.406417
vt 0.453088 0.281661
vt 0.455926 0.750000
vt 0.445771 0.665313
vt 0.799126 0.125000
vt 0.779637 0.187500
vt 0.402284 0.812500
vt 0.497588 0.187500
vt 0.386121 0.187500
vt 0.328120 0.062500
vt 0.453125 0.000000
vt 0.437500 0.406180
vt 0.347717 0.125000
vt 0.390588 0.718339
vt 0.293360 0.875000
vt 0.308534 0.812500
vt 0.316528 0.750000
vt 0.343750 0.656371
vt 0.393429 0.625000
vt 0.296915 0.655822
vt 0.343750 0.531273
vt 0.297036 0.562500
vt 0.294067 0.500000
vt 0.328125 1.000000
vt 0.230145 0.937500
vt 0.328286 0.437500
vt 0.296914 0.344178
vt 0.343750 0.343629
vt 0.265786 0.437500
vt 0.234338 0.281661
vt 0.296902 0.219059
vt 0.214815 0.187500
vt 0.237180 0.375000
vt 0.199790 0.812500
vt 0.237635 0.520573
vt 0.203286 0.437500
vt 0.237180 0.625000
vt 0.203286 0.562500
vt 0.190964 0.125000
vt 0.113605 0.062500
vt 0.169067 0.500000
vt 0.203125 0.000000
vt 0.137012 0.875000
vt 0.176363 0.337227
vt 0.171838 0.718339
vt 0.234338 0.718339
vt 0.148421 0.399333
vt 0.160278 0.250000
vt 0.121065 0.187500
vt 0.174680 0.625000
vt 0.134405 0.537235
vt 0.140625 1.000000
vt 0.030235 0.937500
vt 0.075252 0.812500
vt 0.102021 0.334687
vt 0.109536 0.437500
vt 0.066529 0.250000
vt 0.055088 0.153620
vt 0.112179 0.625000
vt 0.078286 0.562500
vt 0.075317 0.500000
vt 0.047036 0.437500
vt 0.032456 0.875000
vt 0.048167 0.750000
vt 0.108913 0.719958
vt 0.062500 0.658651
vt 0.015664 0.655822
vt 0.018885 0.520574
vt 0.000000 0.562500
vt 0.015625 0.000000
vt 0.000000 0.062500
vt 0.000000 0.399333
vt 0.046914 0.344178
vt 0.000000 0.784407
vt 0.000000 0.273040
vt 0.991904 0.273040
vt 0.992171 0.399333
vt 0.937867 0.282145
vt 1.000000 0.655822
vt 0.975379 0.784407
vt 0.953164 0.655822
vt 1.000000 0.500000
vt 0.984536 0.562500
vt 0.950317 0.500000
vt 0.953286 0.437500
vt 0.924679 0.375000
vt 0.915655 0.537235
vt 0.910279 0.750000
vt 0.906250 0.656371
vt 0.965747 0.187500
vt 0.868449 0.212346
vt 0.978825 0.875000
vt 0.921769 0.937500
vt 0.872374 0.843190
vt 0.887823 0.312500
vt 0.859536 0.562500
vt 0.856567 0.500000
vt 0.890786 0.437500
vt 0.855944 0.396148
vt 0.859414 0.655822
vt 0.939862 0.125000
vt 0.812867 0.282145
vt 0.814726 0.750000
vt 0.796945 0.653777
vt 0.828125 1.000000
vt 0.798190 0.375000
vt 0.797036 0.437500
vt 0.390786 0.562500
vt 0.387817 0.500000
vt 0.390786 0.437500
vt 0.390665 0.344178
vt 0.378980 0.250000
vt 0.000000 0.125000
vt 0.000000 0.187500
vt 0.801816 0.543181
s 0
f 2/1/1 6/2/1 13/3/1
f 11/4/2 14/5/2 4/6/2
f 8/7/3 9/8/3 3/9/3
f 5/10/4 127/11/4 44/12/4
f 9/8/5 16/13/5 10/14/5
f 139/15/6 32/16/6 6/2/6
f 14/5/7 21/17/7 12/18/7
f 7/19/8 15/20/8 8/7/8
f 12/18/9 21/17/9 31/21/9
f 15/20/10 18/22/10 9/8/10
f 32/16/11 22/23/11 13/3/11
f 14/5/12 17/24/12 20/25/12
f 139/15/13 1/26/13 59/27/13
f 19/28/14 25/29/14 17/24/14
f 22/23/15 27/30/15 13/3/15
f 16/13/16 18/22/16 24/31/16
f 18/22/17 23/32/17 28/33/17
f 24/31/18 29/34/18 19/28/18
f 20/25/19 25/29/19 30/35/19
f 20/25/20 30/35/20 21/17/20
f 29/34/21 35/36/21 25/29/21
f 32/16/22 41/37/22 22/23/22
f 23/32/23 27/30/23 33/38/23
f 31/21/24 51/39/24 26/40/24
f 24/31/25 28/33/25 34/41/25
f 28/33/26 33/38/26 37/42/26
f 34/41/27 35/36/27 29/34/27
f 30/35/28 35/36/28 38/43/28
f 41/37/29 36/44/29 27/30/29
f 32/16/30 59/27/30 40/45/30
f 37/42/31 42/46/31 47/47/31
f 37/42/32 47/47/32 48/48/32
f 38/43/33 43/49/33 50/50/33
f 41/37/34 45/51/34 36/44/34
f 36/44/35 45/51/35 46/52/35
f 26/40/36 146/53/36 145/54/36 12/18/36
f 41/37/37 40/45/37 52/55/37
f 39/56/38 50/50/38 64/57/38
f 44/12/39 51/39/39 76/58/39
f 5/59/40 44/12/40 76/58/40
f 48/48/41 49/60/41 43/49/41
f 64/57/42 73/61/42 51/39/42
f 52/55/43 54/62/43 45/51/43
f 59/27/44 77/63/44 40/45/44
f 52/55/45 77/63/45 67/64/45
f 54/62/46 68/65/46 60/66/46
f 54/62/47 60/66/47 55/67/47
f 60/66/48 68/65/48 69/68/48
f 61/69/49 65/70/49 70/71/49
f 59/27/50 1/72/50 82/73/50
f 66/74/51 71/75/51 62/76/51
f 70/71/52 75/77/52 66/74/52
f 71/75/53 81/78/53 72/79/53
f 72/79/54 81/78/54 87/80/54
f 75/77/55 80/81/55 71/75/55
f 67/64/56 77/63/56 88/82/56
f 71/75/57 80/81/57 81/78/57
f 74/83/58 85/84/58 75/77/58
f 74/83/59 79/85/59 83/86/59
f 96/87/60 111/88/60 76/58/60
f 74/83/61 83/86/61 84/89/61
f 5/90/62 76/58/62 111/88/62
f 77/63/63 82/73/63 92/91/63
f 85/84/64 86/92/64 80/81/64
f 88/82/65 89/93/65 78/94/65
f 84/89/66 95/95/66 85/84/66
f 85/84/67 95/95/67 86/92/67
f 87/80/68 91/96/68 100/97/68
f 83/86/69 90/98/69 93/99/69
f 82/73/70 1/100/70 131/101/70
f 92/91/71 105/102/71 88/82/71
f 86/92/72 95/95/72 99/103/72
f 94/104/73 99/103/73 95/95/73
f 99/103/74 109/105/74 91/96/74
f 100/97/75 110/106/75 96/87/75
f 93/99/76 98/107/76 102/108/76
f 93/99/77 102/108/77 103/109/77
f 103/109/78 108/110/78 94/104/78
f 131/101/79 118/111/79 92/91/79
f 105/102/80 106/112/80 97/113/80
f 100/97/81 109/105/81 110/106/81
f 97/113/82 101/114/82 98/107/82
f 101/114/83 106/112/83 112/115/83
f 107/116/84 112/115/84 115/117/84
f 5/118/85 111/88/85 127/119/85
f 107/116/86 113/120/86 108/110/86
f 108/110/87 113/120/87 104/121/87
f 105/102/88 118/111/88 114/122/88
f 104/121/89 113/120/89 116/123/89
f 105/102/90 114/122/90 106/112/90
f 104/121/91 116/123/91 109/105/91
f 116/124/92 113/125/92 126/126/92
f 112/127/93 114/128/93 119/129/93
f 107/130/94 115/131/94 120/132/94
f 121/133/95 125/134/95 113/125/95
f 115/131/96 119/129/96 124/135/96
f 119/129/97 128/136/97 123/137/97
f 122/138/98 126/126/98 137/139/98
f 118/140/99 131/141/99 132/142/99
f 118/140/100 132/142/100 114/128/100
f 126/126/101 125/134/101 130/143/101
f 124/135/102 134/144/102 135/145/102
f 129/146/103 136/147/103 125/134/103
f 130/143/104 137/139/104 126/126/104
f 123/137/105 128/136/105 133/148/105
f 137/139/106 146/53/106 117/149/106
f 135/145/107 136/147/107 129/146/107
f 130/143/108 136/147/108 138/150/108
f 132/142/109 140/151/109 128/136/109
f 133/148/110 140/151/110 141/152/110
f 137/139/111 138/150/111 145/54/111
f 131/141/112 1/153/112 139/15/112
f 138/150/113 144/154/113 4/6/113
f 140/151/114 2/1/114 7/19/114
f 4/6/115 12/18/115 138/150/115
f 141/152/116 7/19/116 8/7/116
f 3/9/117 10/14/117 143/155/117
f 3/9/118 9/8/118 10/14/118
f 7/19/119 2/1/119 13/3/119
f 4/6/120 14/5/120 12/18/120
f 44/12/121 127/11/121 146/53/121 26/40/121
f 17/24/122 11/4/122 10/14/122 16/13/122
f 23/32/123 15/20/123 13/3/123 27/30/123
f 6/2/124 32/16/124 13/3/124
f 11/4/125 17/24/125 14/5/125
f 7/19/126 13/3/126 15/20/126
f 9/8/127 8/7/127 15/20/127
f 21/17/128 14/5/128 20/25/128
f 12/18/129 31/21/129 26/40/129
f 9/8/130 18/22/130 16/13/130
f 16/13/131 19/28/131 17/24/131
f 16/13/132 24/31/132 19/28/132
f 139/15/133 59/27/133 32/16/133
f 20/25/134 17/24/134 25/29/134
f 38/43/135 39/56/135 31/21/135 30/35/135
f 15/20/136 23/32/136 18/22/136
f 21/17/137 30/35/137 31/21/137
f 24/31/138 18/22/138 28/33/138
f 19/28/139 29/34/139 25/29/139
f 24/31/140 34/41/140 29/34/140
f 30/35/141 25/29/141 35/36/141
f 22/23/142 41/37/142 27/30/142
f 28/33/143 23/32/143 33/38/143
f 44/12/144 26/40/144 51/39/144
f 43/49/145 35/36/145 34/41/145 37/42/145
f 51/39/146 31/21/146 39/56/146
f 34/41/147 28/33/147 37/42/147
f 33/38/148 27/30/148 36/44/148
f 32/16/149 40/45/149 41/37/149
f 38/43/150 35/36/150 43/49/150
f 33/38/151 36/44/151 42/46/151
f 37/42/152 33/38/152 42/46/152
f 55/67/153 56/156/153 47/47/153 46/52/153
f 36/44/154 46/52/154 42/46/154
f 37/42/155 48/48/155 43/49/155
f 39/56/156 38/43/156 50/50/156
f 50/50/157 43/49/157 49/60/157
f 41/37/158 52/55/158 45/51/158
f 39/56/159 64/57/159 51/39/159
f 47/47/160 42/46/160 46/52/160
f 56/156/161 57/157/161 48/48/161 47/47/161
f 51/39/162 73/61/162 76/58/162
f 58/158/163 49/60/163 48/48/163 57/157/163
f 66/74/164 58/158/164 57/157/164 61/69/164
f 49/60/165 58/158/165 53/159/165
f 50/50/166 49/60/166 53/159/166
f 50/50/167 53/159/167 63/160/167
f 46/52/168 45/51/168 54/62/168
f 64/57/169 50/50/169 63/160/169
f 46/52/170 54/62/170 55/67/170
f 40/45/171 77/63/171 52/55/171
f 57/157/172 56/156/172 61/69/172
f 62/76/173 53/159/173 58/158/173 66/74/173
f 68/65/174 54/62/174 52/55/174 67/64/174
f 60/66/175 61/69/175 56/156/175 55/67/175
f 53/159/176 62/76/176 63/160/176
f 72/79/177 63/160/177 62/76/177 71/75/177
f 69/68/178 65/70/178 61/69/178 60/66/178
f 64/57/179 63/160/179 72/79/179
f 64/57/180 72/79/180 73/61/180
f 96/87/181 73/61/181 72/79/181 87/80/181
f 61/69/182 70/71/182 66/74/182
f 59/27/183 82/73/183 77/63/183
f 66/74/184 75/77/184 71/75/184
f 69/68/185 68/65/185 78/94/185
f 69/68/186 78/94/186 79/85/186
f 79/85/187 74/83/187 65/70/187 69/68/187
f 78/94/188 68/65/188 67/64/188 88/82/188
f 76/58/189 73/61/189 96/87/189
f 70/71/190 65/70/190 74/83/190
f 70/71/191 74/83/191 75/77/191
f 90/98/192 79/85/192 78/94/192 89/93/192
f 75/77/193 85/84/193 80/81/193
f 87/80/194 81/78/194 91/96/194
f 98/107/195 90/98/195 89/93/195 97/113/195
f 83/86/196 79/85/196 90/98/196
f 74/83/197 84/89/197 85/84/197
f 77/63/198 92/91/198 88/82/198
f 81/78/199 80/81/199 86/92/199
f 81/78/200 86/92/200 91/96/200
f 87/80/201 100/97/201 96/87/201
f 84/89/202 83/86/202 93/99/202
f 94/104/203 95/95/203 84/89/203 93/99/203
f 93/99/204 90/98/204 98/107/204
f 97/113/205 89/93/205 88/82/205 105/102/205
f 82/73/206 131/101/206 92/91/206
f 104/121/207 99/103/207 94/104/207 108/110/207
f 86/92/208 99/103/208 91/96/208
f 100/97/209 91/96/209 109/105/209
f 96/87/210 110/106/210 111/88/210
f 93/99/211 103/109/211 94/104/211
f 102/108/212 98/107/212 101/114/212
f 112/115/213 107/116/213 102/108/213 101/114/213
f 92/91/214 118/111/214 105/102/214
f 99/103/215 104/121/215 109/105/215
f 97/113/216 106/112/216 101/114/216
f 127/119/217 111/88/217 110/106/217 117/161/217
f 103/109/218 102/108/218 107/116/218
f 103/109/219 107/116/219 108/110/219
f 116/123/220 122/162/220 110/106/220 109/105/220
f 112/115/221 106/112/221 114/122/221
f 121/133/222 113/125/222 107/130/222 120/132/222
f 110/106/223 122/162/223 117/161/223
f 115/131/224 112/127/224 119/129/224
f 129/146/225 121/133/225 120/132/225 124/135/225
f 120/132/226 115/131/226 124/135/226
f 126/126/227 113/125/227 125/134/227
f 119/129/228 114/128/228 128/136/228
f 122/138/229 116/124/229 126/126/229
f 114/128/230 132/142/230 128/136/230
f 117/149/231 122/138/231 137/139/231
f 124/135/232 119/129/232 123/137/232
f 133/148/233 134/144/233 124/135/233 123/137/233
f 121/133/234 129/146/234 125/134/234
f 124/135/235 135/145/235 129/146/235
f 130/143/236 125/134/236 136/147/236
f 143/155/237 136/147/237 135/145/237 142/163/237
f 130/143/238 138/150/238 137/139/238
f 133/148/239 128/136/239 140/151/239
f 117/149/240 146/53/240 127/11/240
f 139/15/241 6/2/241 132/142/241 131/141/241
f 141/152/242 142/163/242 134/144/242 133/148/242
f 136/147/243 143/155/243 144/154/243
f 132/142/244 6/2/244 2/1/244
f 138/150/245 136/147/245 144/154/245
f 132/142/246 2/1/246 140/151/246
f 137/139/247 145/54/247 146/53/247
f 11/4/248 144/154/248 143/155/248 10/14/248
f 135/145/249 134/144/249 142/163/249
f 142/163/250 3/9/250 143/155/250
f 144/154/251 11/4/251 4/6/251
f 141/152/252 140/151/252 7/19/252
f 145/54/253 138/150/253 12/18/253
f 142/163/254 141/152/254 8/7/254
f 3/9/255 142/163/255 8/7/255
