# Blender 5.0.0
# www.blender.org
mtllib prep_throw_ball0017.mtl
o Sphere
v -2.290747 6.321017 1.165300
v -2.289453 5.891448 0.714846
v -2.549778 4.927423 0.548319
v -2.864532 4.601009 0.828215
v -3.274093 4.761775 1.640660
v -2.232126 6.024324 0.852507
v -2.172128 5.494584 0.644559
v -2.294179 5.135412 0.570457
v -2.209188 4.881077 0.718099
v -2.503226 4.717194 0.687767
v -2.618917 4.609908 0.777100
v -2.892576 4.483590 1.120056
v -2.006131 5.663766 0.860311
v -2.612636 4.495988 0.979297
v -1.994396 5.251570 0.801467
v -2.173264 4.706789 0.911008
v -2.376906 4.539310 1.001657
v -1.926564 5.045627 0.977014
v -2.152887 4.637867 1.104669
v -2.442012 4.473173 1.242618
v -2.650637 4.442633 1.253294
v -1.937259 5.776961 1.054663
v -1.826392 5.305345 1.136976
v -1.968038 4.816614 1.229571
v -2.228887 4.564509 1.305091
v -2.971086 4.520800 1.442548
v -1.847650 5.605979 1.155646
v -1.855603 5.038979 1.346922
v -2.049460 4.731590 1.440634
v -2.433001 4.530631 1.556936
v -2.736173 4.484827 1.505818
v -2.013059 5.993166 1.117074
v -1.795658 5.394889 1.440387
v -1.933528 4.967833 1.591749
v -2.128206 4.743525 1.650672
v -1.840006 5.704622 1.533670
v -1.913840 5.179021 1.751158
v -2.460370 4.678165 1.827915
v -2.756995 4.666473 1.846456
v -2.072053 6.188433 1.441101
v -1.918009 5.942624 1.402744
v -1.884608 5.510392 1.768210
v -2.188512 4.968014 1.948618
v -3.098854 4.631864 1.617033
v -1.953820 5.938790 1.685129
v -1.970763 5.773017 1.872715
v -2.026438 5.491375 1.993355
v -2.120302 5.347416 2.064874
v -2.325325 5.172781 2.143410
v -2.577906 4.885755 2.062116
v -2.931983 4.653546 1.781850
v -2.109562 6.211335 1.663789
v -2.642764 5.249516 2.271476
v -2.146079 6.113626 1.915350
v -2.194136 5.913742 2.093849
v -2.273530 5.784008 2.193687
v -2.376217 5.646162 2.263548
v -2.467387 5.476619 2.287399
v -2.148818 6.245822 1.274284
v -2.383796 6.181624 2.104241
v -2.563194 5.937221 2.299856
v -2.849870 5.442595 2.329546
v -2.875689 5.089569 2.193568
v -2.973000 4.950771 2.082860
v -2.747204 6.184034 2.250809
v -2.777195 5.755715 2.360219
v -2.373086 6.444739 1.717614
v -2.402930 6.396764 1.888471
v -2.602703 6.352357 2.098106
v -2.861095 6.050639 2.311846
v -3.070218 5.611042 2.324108
v -3.200392 5.249275 2.169271
v -3.157947 4.932707 1.981186
v -3.126878 6.282847 2.165919
v -3.102556 5.978785 2.294442
v -3.244886 4.850967 1.824301
v -2.355447 6.463823 1.527019
v -2.769491 6.571582 1.851347
v -2.935266 6.467214 2.036124
v -3.314053 5.866590 2.219234
v -3.397818 5.575276 2.155087
v -2.381613 6.446457 1.323020
v -3.200078 6.419257 2.006368
v -3.438309 6.307055 1.912166
v -3.393935 6.111867 2.100081
v -3.578939 5.827421 1.994130
v -3.456523 5.292340 1.995046
v -2.673970 6.608418 1.568070
v -2.971869 6.633031 1.653422
v -3.180314 6.546389 1.806155
v -3.617324 5.527935 1.901242
v -2.619216 6.556707 1.316539
v -3.480360 6.388170 1.708918
v -3.673362 6.103002 1.636468
v -3.623769 6.026205 1.862561
v -3.459757 5.105389 1.857944
v -3.097576 6.604128 1.394248
v -3.335953 6.518283 1.500869
v -3.740531 5.780686 1.656164
v -3.630803 5.305210 1.743258
v -3.295324 6.473281 1.225880
v -3.515380 6.351202 1.365326
v -3.630349 6.203287 1.395150
v -3.769182 5.687903 1.365573
v -2.835804 6.562621 1.198410
v -3.029674 6.507932 1.117728
v -3.569975 6.077257 1.041726
v -3.713220 5.959410 1.281254
v -3.734908 5.437624 1.530298
v -3.615154 5.116624 1.539935
v -3.426557 4.924287 1.679761
v -3.276655 6.333382 0.984804
v -3.678749 5.659055 1.029160
v -2.864003 6.351579 0.872882
v -3.432271 6.036170 0.857993
v -3.693980 5.314049 1.197308
v -3.480103 4.873986 1.352448
v -2.627745 6.418507 1.010449
v -3.144739 6.097440 0.715949
v -3.444538 5.735376 0.741086
v -3.538401 5.591417 0.812605
v -3.588928 5.041127 1.267908
v -2.983090 5.898094 0.572656
v -3.258614 5.664441 0.592564
v -3.495337 5.307809 0.795191
v -3.583442 5.153981 1.012326
v -3.340833 4.745063 1.460155
v -2.790551 6.099049 0.665633
v -3.291310 5.298784 0.612274
v -3.393863 5.019445 0.821426
v -2.449141 6.379143 1.067391
v -2.498381 6.142778 0.766545
v -2.786897 5.703176 0.485809
v -2.947585 5.462150 0.465029
v -3.034590 5.290410 0.491060
v -3.185251 5.061258 0.610338
v -3.369293 4.804694 1.035966
v -3.124959 4.708626 0.838910
v -2.221920 6.168089 1.012327
v -2.451453 5.799027 0.582186
v -2.494622 5.471750 0.481853
v -2.665985 5.150257 0.463155
v -2.817637 4.898758 0.555152
v -2.922838 4.780635 0.654917
v -3.108035 4.580902 1.111626
v -3.217756 4.630434 1.270739
vn 0.6499 0.3933 -0.6503
vn -0.0700 -0.8700 -0.4880
vn 0.3739 -0.3690 -0.8509
vn -0.5482 -0.7896 0.2758
vn 0.4200 -0.6331 -0.6502
vn 0.6882 0.5170 -0.5090
vn -0.0564 -0.9785 -0.1984
vn 0.6217 -0.0500 -0.7817
vn -0.2142 -0.9726 0.0900
vn 0.7325 -0.2856 -0.6180
vn 0.7565 0.4119 -0.5080
vn 0.1960 -0.9579 -0.2100
vn 0.6429 0.6667 -0.3772
vn 0.4548 -0.8781 -0.1489
vn 0.8785 0.2058 -0.4312
vn 0.7918 -0.5115 -0.3338
vn 0.9497 -0.2513 -0.1867
vn 0.7009 -0.7131 -0.0169
vn 0.3492 -0.9235 0.1588
vn 0.1513 -0.9731 0.1736
vn 0.5508 -0.7957 0.2517
vn 0.8955 0.3805 -0.2306
vn 0.9894 0.0776 -0.1231
vn -0.2387 -0.8947 0.3775
vn 0.8565 -0.5002 0.1272
vn 0.9530 -0.2162 0.2122
vn 0.7561 -0.5732 0.3160
vn 0.4045 -0.7854 0.4685
vn 0.9599 0.2658 -0.0888
vn 0.8133 0.5518 -0.1844
vn 0.8456 -0.1016 0.5241
vn 0.7671 -0.1969 0.6105
vn 0.3377 -0.6139 0.7136
vn 0.9214 0.3690 0.1219
vn 0.9192 0.2501 0.3041
vn -0.4100 -0.9121 0.0040
vn 0.8502 0.5188 0.0898
vn -0.0713 -0.6692 0.7396
vn -0.4076 -0.7561 0.5121
vn -0.4950 -0.7481 0.4420
vn 0.5709 -0.3326 0.7506
vn -0.2901 -0.7004 0.6521
vn 0.8152 0.4900 0.3087
vn 0.6851 0.7255 -0.0657
vn 0.6723 0.7279 0.1351
vn 0.5979 0.5935 0.5388
vn 0.6346 0.4243 0.6459
vn 0.4832 0.6410 0.5963
vn 0.1524 0.3007 0.9415
vn 0.5993 0.7579 -0.2575
vn -0.0840 -0.0778 0.9934
vn -0.1098 0.1304 0.9854
vn -0.4280 -0.2211 0.8763
vn -0.5697 -0.3119 0.7604
vn -0.3554 0.0441 0.9337
vn 0.4236 0.8966 0.1290
vn -0.4518 -0.0660 0.8897
vn -0.4174 0.3253 0.8485
vn -0.2034 0.6961 0.6885
vn -0.6325 -0.5991 0.4910
vn -0.5146 0.5207 0.6812
vn -0.6078 -0.6720 0.4231
vn 0.4202 0.8980 -0.1303
vn -0.6530 0.1481 0.7427
vn 0.1296 0.9768 0.1707
vn -0.7293 0.3812 0.5682
vn -0.7394 0.2477 0.6261
vn -0.7850 -0.3261 0.5267
vn -0.5260 0.7405 0.4183
vn 0.5027 0.7940 -0.3419
vn 0.1218 0.9771 -0.1744
vn -0.9036 0.0753 0.4216
vn -0.9370 0.2122 0.2776
vn -0.9344 -0.1361 0.3293
vn -0.7996 -0.4697 0.3741
vn -0.6773 0.7356 -0.0101
vn -0.7881 0.6154 0.0141
vn -0.9422 0.3338 -0.0292
vn 0.3166 0.8612 -0.3977
vn -0.1157 0.9290 -0.3516
vn -0.9122 -0.3331 0.2388
vn -0.4118 0.8876 -0.2061
vn -0.3076 0.8124 -0.4953
vn -0.5990 0.5585 -0.5738
vn -0.6563 -0.6895 0.3065
vn -0.8806 0.2413 -0.4079
vn -0.9569 0.1143 -0.2670
vn 0.0826 0.8329 -0.5472
vn -0.9643 -0.0804 -0.2523
vn -0.0107 0.8395 -0.5433
vn -0.9834 -0.1722 -0.0570
vn -0.9016 -0.1567 -0.4032
vn -0.2203 0.6770 -0.7022
vn -0.7407 0.2694 -0.6154
vn -0.8488 -0.0970 -0.5198
vn -0.4738 0.3543 -0.8062
vn -0.1231 0.5115 -0.8504
vn -0.8187 -0.5186 -0.2466
vn 0.3514 0.7074 -0.6133
vn 0.2006 0.7002 -0.6852
vn -0.7755 -0.3223 -0.5430
vn -0.3570 0.0394 -0.9333
vn -0.6471 -0.2832 -0.7078
vn -0.7651 -0.4968 -0.4097
vn 0.0079 0.4136 -0.9104
vn -0.6920 -0.7168 -0.0854
vn -0.4247 -0.1824 -0.8868
vn -0.5554 -0.5171 -0.6513
vn 0.2200 0.4842 -0.8468
vn 0.1960 0.2637 -0.9445
vn -0.5602 -0.7630 -0.3226
vn 0.5422 0.7036 -0.4594
vn -0.3190 -0.7096 -0.6282
vn 0.5005 0.2923 -0.8149
vn -0.3669 -0.8503 -0.3774
vn 0.4484 0.0319 -0.8933
vn 0.0372 -0.5467 -0.8365
vn 0.3434 -0.4652 -0.8159
vn 0.6198 0.3108 -0.7206
vn -0.1514 -0.9119 -0.3814
vn -0.5043 -0.8453 0.1766
vn 0.3335 -0.7563 -0.5628
vn 0.8847 0.0907 -0.4573
vn 0.7172 0.4378 -0.5423
vn 0.2024 -0.8505 -0.4855
vn 0.7414 0.1155 -0.6610
vn 0.6465 -0.2098 -0.7335
vn 0.1341 -0.9760 -0.1715
vn -0.1699 -0.9828 0.0720
vn 0.7330 -0.4312 -0.5261
vn 0.5045 -0.7953 -0.3361
vn 0.7591 -0.5840 -0.2877
vn 0.6985 0.6091 -0.3757
vn 0.4229 -0.8966 -0.1318
vn 0.0582 -0.8771 0.4767
vn 0.8964 -0.0769 -0.4365
vn 0.1131 -0.9731 0.2009
vn 0.9128 -0.3657 -0.1817
vn 0.6844 -0.7291 -0.0073
vn 0.8555 -0.5017 0.1279
vn 0.4885 -0.8248 0.2849
vn 0.9115 0.3496 -0.2168
vn 0.9869 -0.1517 -0.0552
vn -0.2574 -0.8894 0.3776
vn 0.7174 -0.4715 0.5128
vn -0.1059 -0.8801 0.4628
vn 0.9400 -0.2571 0.2245
vn 0.9853 0.1596 -0.0616
vn 0.8212 0.5423 -0.1773
vn 0.4484 -0.6679 0.5940
vn 0.9686 0.0666 0.2394
vn 0.9510 -0.0990 0.2929
vn 0.7238 0.1260 0.6784
vn 0.9298 0.1765 0.3230
vn 0.7029 -0.3209 0.6348
vn 0.0713 -0.7284 0.6814
vn 0.3384 -0.5200 0.7843
vn 0.8585 0.4996 0.1157
vn -0.1968 -0.7109 0.6752
vn 0.8420 0.0630 0.5358
vn 0.6049 -0.0226 0.7960
vn -0.3753 -0.7203 0.5833
vn 0.4881 -0.1650 0.8571
vn 0.2404 0.0238 0.9704
vn 0.2961 -0.2924 0.9093
vn 0.2374 -0.4524 0.8596
vn 0.0470 -0.4920 0.8693
vn 0.8315 0.3769 0.4082
vn -0.0564 -0.5981 0.7994
vn 0.7607 0.3209 0.5642
vn 0.7032 0.7095 0.0455
vn 0.4096 0.1509 0.8997
vn 0.1208 -0.1402 0.9827
vn 0.6728 0.6604 0.3335
vn 0.4776 0.3168 0.8195
vn -0.0687 -0.3542 0.9326
vn -0.2425 -0.3197 0.9160
vn 0.3389 0.4371 0.8331
vn -0.2907 -0.4637 0.8369
vn -0.3756 -0.5101 0.7738
vn -0.5500 -0.4829 0.6814
vn 0.1123 0.1919 0.9750
vn 0.6282 0.7643 -0.1456
vn -0.1541 0.0660 0.9859
vn 0.3345 0.8054 0.4894
vn 0.1624 0.7896 0.5917
vn 0.0209 0.6128 0.7900
vn 0.3747 0.8872 0.2691
vn -0.5669 -0.5588 0.6053
vn -0.0753 0.4674 0.8809
vn -0.1762 0.3713 0.9117
vn -0.1002 0.9094 0.4036
vn -0.4463 0.2692 0.8534
vn -0.7158 -0.2254 0.6610
vn -0.3253 0.9432 0.0669
vn -0.2084 0.8348 0.5095
vn -0.5086 0.5344 0.6751
vn 0.4006 0.9108 -0.1001
vn -0.6491 0.0192 0.7605
vn -0.7415 -0.1102 0.6618
vn -0.7739 -0.3657 0.5170
vn -0.5160 0.7535 0.4075
vn -0.8127 0.4688 0.3459
vn -0.5037 0.8452 0.1790
vn 0.0470 0.9892 -0.1390
vn 0.4046 0.8524 -0.3313
vn -0.9778 0.2076 0.0277
vn -0.9010 -0.0189 0.4334
vn -0.9233 -0.1834 0.3373
vn -0.7835 -0.5028 0.3651
vn -0.8347 0.5452 0.0778
vn -0.5741 0.7903 -0.2142
vn -0.6364 0.6409 -0.4292
vn 0.2448 0.8811 -0.4046
vn -0.9914 -0.0590 0.1166
vn -0.2683 0.8875 -0.3746
vn -0.7621 -0.6095 0.2183
vn -0.7773 0.5387 -0.3249
vn -0.8524 0.4291 -0.2986
vn -0.9357 -0.3525 0.0121
vn -0.2017 0.7579 -0.6204
vn -0.7845 0.2221 -0.5790
vn -0.8506 -0.5220 0.0629
vn -0.4623 0.5416 -0.7021
vn -0.6203 0.0137 -0.7842
vn -0.5092 0.3297 -0.7950
vn -0.8747 -0.1497 -0.4610
vn -0.1141 0.6102 -0.7840
vn -0.8977 -0.3957 -0.1940
vn 0.1579 0.6535 -0.7403
vn -0.7928 -0.5912 -0.1482
vn -0.3521 0.3410 -0.8716
vn -0.2323 0.2153 -0.9485
vn -0.6679 -0.0558 -0.7422
vn -0.4272 -0.0105 -0.9041
vn -0.6505 -0.2927 -0.7008
vn -0.2184 -0.2743 -0.9365
vn -0.6373 -0.5799 -0.5075
vn 0.1415 0.4105 -0.9008
vn -0.6801 -0.7331 0.0018
vn 0.4711 0.6496 -0.5968
vn 0.0360 0.0488 -0.9982
vn -0.3173 -0.4309 -0.8448
vn 0.4652 0.5322 -0.7074
vn -0.4546 -0.5379 -0.7099
vn 0.3776 0.4771 -0.7936
vn -0.6094 -0.7722 -0.1798
vn -0.0330 -0.6232 -0.7814
vn -0.1106 -0.0939 -0.9894
vn 0.0137 -0.3507 -0.9364
vn -0.1189 -0.7091 -0.6950
vn 0.4281 0.2128 -0.8783
vn -0.3693 -0.8502 -0.3753
vn 0.2729 -0.0897 -0.9579
vn 0.2621 -0.2222 -0.9391
vt 0.781230 0.812500
vt 0.762032 0.875000
vt 0.685473 0.777944
vt 0.734697 0.375000
vt 0.703125 0.312500
vt 0.764235 0.312500
vt 0.741874 0.599249
vt 0.704616 0.531266
vt 0.763980 0.500000
vt 0.734375 0.000000
vt 0.879629 0.062500
vt 0.593677 0.062500
vt 0.670132 0.472235
vt 0.734536 0.437500
vt 0.734224 0.937500
vt 0.605595 0.875000
vt 0.658359 0.250000
vt 0.719918 0.218999
vt 0.734375 0.717281
vt 0.678319 0.660608
vt 0.606077 0.187500
vt 0.641330 0.592355
vt 0.623673 0.812500
vt 0.673680 0.375000
vt 0.639230 0.312500
vt 0.640625 1.000000
vt 0.479138 0.937500
vt 0.639064 0.437500
vt 0.612180 0.375000
vt 0.595563 0.750000
vt 0.606567 0.500000
vt 0.603325 0.667055
vt 0.578286 0.562500
vt 0.578286 0.437500
vt 0.577540 0.283466
vt 0.543444 0.396147
vt 0.512752 0.812500
vt 0.546915 0.655822
vt 0.503540 0.125000
vt 0.660224 0.125000
vt 0.544067 0.500000
vt 0.509405 0.537235
vt 0.515588 0.281661
vt 0.510998 0.724803
vt 0.449506 0.875000
vt 0.487180 0.625000
vt 0.453286 0.562500
vt 0.450317 0.500000
vt 0.485851 0.406417
vt 0.453088 0.281661
vt 0.455926 0.750000
vt 0.445771 0.665313
vt 0.799126 0.125000
vt 0.779637 0.187500
vt 0.402284 0.812500
vt 0.497588 0.187500
vt 0.386121 0.187500
vt 0.328120 0.062500
vt 0.453125 0.000000
vt 0.437500 0.406180
vt 0.347717 0.125000
vt 0.390588 0.718339
vt 0.293360 0.875000
vt 0.308534 0.812500
vt 0.316528 0.750000
vt 0.343750 0.656371
vt 0.393429 0.625000
vt 0.296915 0.655822
vt 0.343750 0.531273
vt 0.297036 0.562500
vt 0.294067 0.500000
vt 0.328125 1.000000
vt 0.230145 0.937500
vt 0.328286 0.437500
vt 0.296914 0.344178
vt 0.343750 0.343629
vt 0.265786 0.437500
vt 0.234338 0.281661
vt 0.296902 0.219059
vt 0.214815 0.187500
vt 0.237180 0.375000
vt 0.199790 0.812500
vt 0.237635 0.520573
vt 0.203286 0.437500
vt 0.237180 0.625000
vt 0.203286 0.562500
vt 0.190964 0.125000
vt 0.113605 0.062500
vt 0.169067 0.500000
vt 0.203125 0.000000
vt 0.137012 0.875000
vt 0.176363 0.337227
vt 0.171838 0.718339
vt 0.234338 0.718339
vt 0.148421 0.399333
vt 0.160278 0.250000
vt 0.121065 0.187500
vt 0.174680 0.625000
vt 0.134405 0.537235
vt 0.140625 1.000000
vt 0.030235 0.937500
vt 0.075252 0.812500
vt 0.102021 0.334687
vt 0.109536 0.437500
vt 0.066529 0.250000
vt 0.055088 0.153620
vt 0.112179 0.625000
vt 0.078286 0.562500
vt 0.075317 0.500000
vt 0.047036 0.437500
vt 0.032456 0.875000
vt 0.048167 0.750000
vt 0.108913 0.719958
vt 0.062500 0.658651
vt 0.015664 0.655822
vt 0.018885 0.520574
vt 0.000000 0.562500
vt 0.015625 0.000000
vt 0.000000 0.062500
vt 0.000000 0.399333
vt 0.046914 0.344178
vt 0.000000 0.784407
vt 0.000000 0.273040
vt 0.991904 0.273040
vt 0.992171 0.399333
vt 0.937867 0.282145
vt 1.000000 0.655822
vt 0.975379 0.784407
vt 0.953164 0.655822
vt 1.000000 0.500000
vt 0.984536 0.562500
vt 0.950317 0.500000
vt 0.953286 0.437500
vt 0.924679 0.375000
vt 0.915655 0.537235
vt 0.910279 0.750000
vt 0.906250 0.656371
vt 0.965747 0.187500
vt 0.868449 0.212346
vt 0.978825 0.875000
vt 0.921769 0.937500
vt 0.872374 0.843190
vt 0.887823 0.312500
vt 0.859536 0.562500
vt 0.856567 0.500000
vt 0.890786 0.437500
vt 0.855944 0.396148
vt 0.859414 0.655822
vt 0.939862 0.125000
vt 0.812867 0.282145
vt 0.814726 0.750000
vt 0.796945 0.653777
vt 0.828125 1.000000
vt 0.798190 0.375000
vt 0.797036 0.437500
vt 0.390786 0.562500
vt 0.387817 0.500000
vt 0.390786 0.437500
vt 0.390665 0.344178
vt 0.378980 0.250000
vt 0.000000 0.125000
vt 0.000000 0.187500
vt 0.801816 0.543181
s 0
f 2/1/1 6/2/1 13/3/1
f 11/4/2 14/5/2 4/6/2
f 8/7/3 9/8/3 3/9/3
f 5/10/4 127/11/4 44/12/4
f 9/8/5 16/13/5 10/14/5
f 139/15/6 32/16/6 6/2/6
f 14/5/7 21/17/7 12/18/7
f 7/19/8 15/20/8 8/7/8
f 12/18/9 21/17/9 31/21/9
f 15/20/10 18/22/10 9/8/10
f 32/16/11 22/23/11 13/3/11
f 14/5/12 17/24/12 20/25/12
f 139/15/13 1/26/13 59/27/13
f 19/28/14 25/29/14 17/24/14
f 22/23/15 27/30/15 13/3/15
f 16/13/16 18/22/16 24/31/16
f 18/22/17 23/32/17 28/33/17
f 24/31/18 29/34/18 19/28/18
f 20/25/19 25/29/19 30/35/19
f 20/25/20 30/35/20 21/17/20
f 29/34/21 35/36/21 25/29/21
f 32/16/22 41/37/22 22/23/22
f 23/32/23 27/30/23 33/38/23
f 31/21/24 51/39/24 26/40/24
f 24/31/25 28/33/25 34/41/25
f 28/33/26 33/38/26 37/42/26
f 34/41/27 35/36/27 29/34/27
f 30/35/28 35/36/28 38/43/28
f 41/37/29 36/44/29 27/30/29
f 32/16/30 59/27/30 40/45/30
f 37/42/31 42/46/31 47/47/31
f 37/42/32 47/47/32 48/48/32
f 38/43/33 43/49/33 50/50/33
f 41/37/34 45/51/34 36/44/34
f 36/44/35 45/51/35 46/52/35
f 26/40/36 146/53/36 145/54/36 12/18/36
f 41/37/37 40/45/37 52/55/37
f 39/56/38 50/50/38 64/57/38
f 44/12/39 51/39/39 76/58/39
f 5/59/40 44/12/40 76/58/40
f 48/48/41 49/60/41 43/49/41
f 64/57/42 73/61/42 51/39/42
f 52/55/43 54/62/43 45/51/43
f 59/27/44 77/63/44 40/45/44
f 52/55/45 77/63/45 67/64/45
f 54/62/46 68/65/46 60/66/46
f 54/62/47 60/66/47 55/67/47
f 60/66/48 68/65/48 69/68/48
f 61/69/49 65/70/49 70/71/49
f 59/27/50 1/72/50 82/73/50
f 66/74/51 71/75/51 62/76/51
f 70/71/52 75/77/52 66/74/52
f 71/75/53 81/78/53 72/79/53
f 72/79/54 81/78/54 87/80/54
f 75/77/55 80/81/55 71/75/55
f 67/64/56 77/63/56 88/82/56
f 71/75/57 80/81/57 81/78/57
f 74/83/58 85/84/58 75/77/58
f 74/83/59 79/85/59 83/86/59
f 96/87/60 111/88/60 76/58/60
f 74/83/61 83/86/61 84/89/61
f 5/90/62 76/58/62 111/88/62
f 77/63/63 82/73/63 92/91/63
f 85/84/64 86/92/64 80/81/64
f 88/82/65 89/93/65 78/94/65
f 84/89/66 95/95/66 85/84/66
f 85/84/67 95/95/67 86/92/67
f 87/80/68 91/96/68 100/97/68
f 83/86/69 90/98/69 93/99/69
f 82/73/70 1/100/70 131/101/70
f 92/91/71 105/102/71 88/82/71
f 86/92/72 95/95/72 99/103/72
f 94/104/73 99/103/73 95/95/73
f 99/103/74 109/105/74 91/96/74
f 100/97/75 110/106/75 96/87/75
f 93/99/76 98/107/76 102/108/76
f 93/99/77 102/108/77 103/109/77
f 103/109/78 108/110/78 94/104/78
f 131/101/79 118/111/79 92/91/79
f 105/102/80 106/112/80 97/113/80
f 100/97/81 109/105/81 110/106/81
f 97/113/82 101/114/82 98/107/82
f 101/114/83 106/112/83 112/115/83
f 107/116/84 112/115/84 115/117/84
f 5/118/85 111/88/85 127/119/85
f 107/116/86 113/120/86 108/110/86
f 108/110/87 113/120/87 104/121/87
f 105/102/88 118/111/88 114/122/88
f 104/121/89 113/120/89 116/123/89
f 105/102/90 114/122/90 106/112/90
f 104/121/91 116/123/91 109/105/91
f 116/124/92 113/125/92 126/126/92
f 112/127/93 114/128/93 119/129/93
f 107/130/94 115/131/94 120/132/94
f 121/133/95 125/134/95 113/125/95
f 115/131/96 119/129/96 124/135/96
f 119/129/97 128/136/97 123/137/97
f 122/138/98 126/126/98 137/139/98
f 118/140/99 131/141/99 132/142/99
f 118/140/100 132/142/100 114/128/100
f 126/126/101 125/134/101 130/143/101
f 124/135/102 134/144/102 135/145/102
f 129/146/103 136/147/103 125/134/103
f 130/143/104 137/139/104 126/126/104
f 123/137/105 128/136/105 133/148/105
f 137/139/106 146/53/106 117/149/106
f 135/145/107 136/147/107 129/146/107
f 130/143/108 136/147/108 138/150/108
f 132/142/109 140/151/109 128/136/109
f 133/148/110 140/151/110 141/152/110
f 137/139/111 138/150/111 145/54/111
f 131/141/112 1/153/112 139/15/112
f 138/150/113 144/154/113 4/6/113
f 140/151/114 2/1/114 7/19/114
f 4/6/115 12/18/115 138/150/115
f 141/152/116 7/19/116 8/7/116
f 3/9/117 10/14/117 143/155/117
f 3/9/118 9/8/118 10/14/118
f 7/19/119 2/1/119 13/3/119
f 4/6/120 14/5/120 12/18/120
f 44/12/121 127/11/121 146/53/121 26/40/121
f 17/24/122 11/4/122 10/14/122 16/13/122
f 23/32/123 15/20/123 13/3/123 27/30/123
f 6/2/124 32/16/124 13/3/124
f 11/4/125 17/24/125 14/5/125
f 7/19/126 13/3/126 15/20/126
f 9/8/127 8/7/127 15/20/127
f 21/17/128 14/5/128 20/25/128
f 12/18/129 31/21/129 26/40/129
f 9/8/130 18/22/130 16/13/130
f 16/13/131 19/28/131 17/24/131
f 16/13/132 24/31/132 19/28/132
f 139/15/133 59/27/133 32/16/133
f 20/25/134 17/24/134 25/29/134
f 38/43/135 39/56/135 31/21/135 30/35/135
f 15/20/136 23/32/136 18/22/136
f 21/17/137 30/35/137 31/21/137
f 24/31/138 18/22/138 28/33/138
f 19/28/139 29/34/139 25/29/139
f 24/31/140 34/41/140 29/34/140
f 30/35/141 25/29/141 35/36/141
f 22/23/142 41/37/142 27/30/142
f 28/33/143 23/32/143 33/38/143
f 44/12/144 26/40/144 51/39/144
f 43/49/145 35/36/145 34/41/145 37/42/145
f 51/39/146 31/21/146 39/56/146
f 34/41/147 28/33/147 37/42/147
f 33/38/148 27/30/148 36/44/148
f 32/16/149 40/45/149 41/37/149
f 38/43/150 35/36/150 43/49/150
f 33/38/151 36/44/151 42/46/151
f 37/42/152 33/38/152 42/46/152
f 55/67/153 56/156/153 47/47/153 46/52/153
f 36/44/154 46/52/154 42/46/154
f 37/42/155 48/48/155 43/49/155
f 39/56/156 38/43/156 50/50/156
f 50/50/157 43/49/157 49/60/157
f 41/37/158 52/55/158 45/51/158
f 39/56/159 64/57/159 51/39/159
f 47/47/160 42/46/160 46/52/160
f 56/156/161 57/157/161 48/48/161 47/47/161
f 51/39/162 73/61/162 76/58/162
f 58/158/163 49/60/163 48/48/163 57/157/163
f 66/74/164 58/158/164 57/157/164 61/69/164
f 49/60/165 58/158/165 53/159/165
f 50/50/166 49/60/166 53/159/166
f 50/50/167 53/159/167 63/160/167
f 46/52/168 45/51/168 54/62/168
f 64/57/169 50/50/169 63/160/169
f 46/52/170 54/62/170 55/67/170
f 40/45/171 77/63/171 52/55/171
f 57/157/172 56/156/172 61/69/172
f 62/76/173 53/159/173 58/158/173 66/74/173
f 68/65/174 54/62/174 52/55/174 67/64/174
f 60/66/175 61/69/175 56/156/175 55/67/175
f 53/159/176 62/76/176 63/160/176
f 72/79/177 63/160/177 62/76/177 71/75/177
f 69/68/178 65/70/178 61/69/178 60/66/178
f 64/57/179 63/160/179 72/79/179
f 64/57/180 72/79/180 73/61/180
f 96/87/181 73/61/181 72/79/181 87/80/181
f 61/69/182 70/71/182 66/74/182
f 59/27/183 82/73/183 77/63/183
f 66/74/184 75/77/184 71/75/184
f 69/68/185 68/65/185 78/94/185
f 69/68/186 78/94/186 79/85/186
f 79/85/187 74/83/187 65/70/187 69/68/187
f 78/94/188 68/65/188 67/64/188 88/82/188
f 76/58/189 73/61/189 96/87/189
f 70/71/190 65/70/190 74/83/190
f 70/71/191 74/83/191 75/77/191
f 90/98/192 79/85/192 78/94/192 89/93/192
f 75/77/193 85/84/193 80/81/193
f 87/80/194 81/78/194 91/96/194
f 98/107/195 90/98/195 89/93/195 97/113/195
f 83/86/196 79/85/196 90/98/196
f 74/83/197 84/89/197 85/84/197
f 77/63/198 92/91/198 88/82/198
f 81/78/199 80/81/199 86/92/199
f 81/78/200 86/92/200 91/96/200
f 87/80/201 100/97/201 96/87/201
f 84/89/202 83/86/202 93/99/202
f 94/104/203 95/95/203 84/89/203 93/99/203
f 93/99/204 90/98/204 98/107/204
f 97/113/205 89/93/205 88/82/205 105/102/205
f 82/73/206 131/101/206 92/91/206
f 104/121/207 99/103/207 94/104/207 108/110/207
f 86/92/208 99/103/208 91/96/208
f 100/97/209 91/96/209 109/105/209
f 96/87/210 110/106/210 111/88/210
f 93/99/211 103/109/211 94/104/211
f 102/108/212 98/107/212 101/114/212
f 112/115/213 107/116/213 102/108/213 101/114/213
f 92/91/214 118/111/214 105/102/214
f 99/103/215 104/121/215 109/105/215
f 97/113/216 106/112/216 101/114/216
f 127/119/217 111/88/217 110/106/217 117/161/217
f 103/109/218 102/108/218 107/116/218
f 103/109/219 107/116/219 108/110/219
f 116/123/220 122/162/220 110/106/220 109/105/220
f 112/115/221 106/112/221 114/122/221
f 121/133/222 113/125/222 107/130/222 120/132/222
f 110/106/223 122/162/223 117/161/223
f 115/131/224 112/127/224 119/129/224
f 129/146/225 121/133/225 120/132/225 124/135/225
f 120/132/226 115/131/226 124/135/226
f 126/126/227 113/125/227 125/134/227
f 119/129/228 114/128/228 128/136/228
f 122/138/229 116/124/229 126/126/229
f 114/128/230 132/142/230 128/136/230
f 117/149/231 122/138/231 137/139/231
f 124/135/232 119/129/232 123/137/232
f 133/148/233 134/144/233 124/135/233 123/137/233
f 121/133/234 129/146/234 125/134/234
f 124/135/235 135/145/235 129/146/235
f 130/143/236 125/134/236 136/147/236
f 143/155/237 136/147/237 135/145/237 142/163/237
f 130/143/238 138/150/238 137/139/238
f 133/148/239 128/136/239 140/151/239
f 117/149/240 146/53/240 127/11/240
f 139/15/241 6/2/241 132/142/241 131/141/241
f 141/152/242 142/163/242 134/144/242 133/148/242
f 136/147/243 143/155/243 144/154/243
f 132/142/244 6/2/244 2/1/244
f 138/150/245 136/147/245 144/154/245
f 132/142/246 2/1/246 140/151/246
f 137/139/247 145/54/247 146/53/247
f 11/4/248 144/154/248 143/155/248 10/14/248
f 135/145/249 134/144/249 142/163/249
f 142/163/250 3/9/250 143/155/250
f 144/154/251 11/4/251 4/6/251
f 141/152/252 140/151/252 7/19/252
f 145/54/253 138/150/253 12/18/253
f 142/163/254 141/152/254 8/7/254
f 3/9/255 142/163/255 8/7/255
