# Blender 5.0.0
# www.blender.org
mtllib prep_throw_ball0034.mtl
o Sphere
v -1.565949 6.631649 -0.215069
v -1.734420 5.966299 -0.360576
v -2.264486 5.220844 -0.052780
v -2.619771 5.307170 0.291845
v -2.869851 6.196394 0.809090
v -1.627855 6.151388 -0.311083
v -1.740323 5.582569 -0.212681
v -1.962923 5.303844 -0.109956
v -1.935249 5.205056 0.136596
v -2.262042 5.160748 0.162261
v -2.390709 5.191158 0.272219
v -2.644938 5.458810 0.573959
v -1.511940 5.818552 -0.108651
v -2.392742 5.263824 0.485942
v -1.620687 5.468082 0.044982
v -1.926853 5.216480 0.375098
v -2.155137 5.233599 0.506244
v -1.592768 5.432138 0.288345
v -1.904181 5.310555 0.561886
v -2.207177 5.395378 0.720124
v -2.411815 5.451599 0.722240
v -1.393321 6.029664 -0.004156
v -1.408280 5.712725 0.298508
v -1.665786 5.476250 0.592108
v -1.973180 5.439084 0.746425
v -2.671930 5.764110 0.800525
v -1.343779 5.953680 0.166206
v -1.484842 5.692208 0.588145
v -1.741893 5.606401 0.790048
v -2.146705 5.679629 0.939330
v -2.452144 5.708273 0.890947
v -1.398577 6.261539 -0.067045
v -1.319698 6.004555 0.495908
v -1.549946 5.857662 0.806174
v -1.788987 5.805558 0.940761
v -1.265970 6.318159 0.415295
v -1.455023 6.129494 0.831195
v -2.100949 6.007968 1.077590
v -2.382814 6.113667 1.067949
v -1.363558 6.676734 0.086567
v -1.289586 6.415737 0.190392
v -1.334481 6.374621 0.687895
v -1.750193 6.222143 1.059758
v -2.742325 6.024284 0.870757
v -1.292034 6.645436 0.409625
v -1.331960 6.676692 0.634552
v -1.448043 6.584215 0.859002
v -1.568157 6.566634 0.974873
v -1.801106 6.569542 1.099848
v -2.128304 6.381710 1.149095
v -2.559443 6.112649 1.006048
v -1.367150 6.879897 0.246038
v -2.065808 6.832229 1.131242
v -1.399567 7.017314 0.486287
v -1.479350 7.027064 0.717407
v -1.578605 7.037099 0.850041
v -1.705586 7.025650 0.960785
v -1.835656 6.951293 1.051944
v -1.439681 6.614169 -0.079321
v -1.584199 7.294305 0.577492
v -1.798554 7.329121 0.830259
v -2.202206 7.088008 1.062910
v -2.339146 6.733099 1.123916
v -2.482084 6.578180 1.094352
v -1.910677 7.532693 0.654544
v -2.043978 7.315851 0.943419
v -1.546379 7.180741 0.149300
v -1.568125 7.289178 0.303113
v -1.745288 7.487634 0.468492
v -2.048058 7.521368 0.755113
v -2.365206 7.280699 0.955411
v -2.605500 6.939785 0.995391
v -2.673817 6.547827 1.004917
v -2.252746 7.666157 0.502407
v -2.298346 7.536582 0.751854
v -2.796597 6.394979 0.912780
v -1.546383 7.039932 -0.007271
v -1.871433 7.510947 0.153071
v -2.035723 7.634837 0.331286
v -2.537989 7.467175 0.725795
v -2.704584 7.232833 0.807476
v -1.599398 6.876810 -0.161176
v -2.302980 7.665689 0.304509
v -2.570118 7.590439 0.260905
v -2.560032 7.579882 0.506412
v -2.825391 7.351956 0.541907
v -2.856197 6.921308 0.812596
v -1.803510 7.284537 -0.076759
v -2.068931 7.469297 -0.051728
v -2.272439 7.595448 0.088591
v -2.954579 7.073955 0.609587
v -1.794817 7.032050 -0.243196
v -2.611066 7.505059 0.058568
v -2.880337 7.305450 0.119823
v -2.828437 7.409276 0.338716
v -2.926328 6.679033 0.795012
v -2.225688 7.288161 -0.253248
v -2.462620 7.388960 -0.152404
v -3.030078 7.108372 0.283712
v -3.046625 6.792735 0.591862
v -2.468156 7.127801 -0.341848
v -2.693906 7.221642 -0.196027
v -2.839885 7.175723 -0.112998
v -3.116101 6.823488 0.098113
v -2.011818 7.016976 -0.360233
v -2.219629 6.979304 -0.416499
v -2.857988 6.787605 -0.322819
v -2.998346 6.936834 -0.093004
v -3.133358 6.758050 0.350989
v -3.106951 6.491220 0.525138
v -2.965092 6.396699 0.746120
v -2.516612 6.831301 -0.461258
v -3.077131 6.509409 -0.142178
v -2.133877 6.618428 -0.516176
v -2.760055 6.567899 -0.432988
v -3.166844 6.394213 0.154024
v -3.067253 6.122498 0.508826
v -1.876036 6.695179 -0.417032
v -2.487411 6.404995 -0.544785
v -2.867642 6.261409 -0.380852
v -2.987756 6.243829 -0.264981
v -3.134146 6.214980 0.351252
v -2.405573 6.093400 -0.544690
v -2.728198 6.031209 -0.444252
v -3.026801 6.008937 -0.137707
v -3.127411 6.095902 0.097447
v -2.958390 6.065734 0.669182
v -2.157480 6.247780 -0.549374
v -2.857194 5.790945 -0.256020
v -3.006833 5.785010 0.031880
v -1.711211 6.650866 -0.335584
v -1.857294 6.260196 -0.462129
v -2.283323 5.817484 -0.499087
v -2.503948 5.679535 -0.415410
v -2.630427 5.603878 -0.321070
v -2.822182 5.580557 -0.132499
v -3.017796 5.787633 0.305656
v -2.835541 5.481574 0.222243
v -1.560358 6.377562 -0.254223
v -1.928396 5.849816 -0.436148
v -2.070594 5.547345 -0.361390
v -2.323160 5.355934 -0.238404
v -2.525124 5.295352 -0.060522
v -2.645632 5.322475 0.063873
v -2.823170 5.595647 0.498866
v -2.895131 5.792881 0.588513
vn 0.6742 -0.1979 -0.7115
vn -0.4126 -0.8636 0.2897
vn 0.1769 -0.9066 -0.3831
vn -0.6846 -0.2638 0.6795
vn 0.1375 -0.9896 0.0426
vn 0.7394 -0.0519 -0.6713
vn -0.3773 -0.7396 0.5573
vn 0.5501 -0.6379 -0.5389
vn -0.4648 -0.5362 0.7046
vn 0.5985 -0.7798 -0.1838
vn 0.7866 -0.1449 -0.6002
vn -0.1514 -0.8057 0.5726
vn 0.7346 0.1191 -0.6680
vn 0.1118 -0.7953 0.5958
vn 0.8724 -0.2987 -0.3869
vn 0.5701 -0.7824 0.2507
vn 0.8193 -0.5451 0.1779
vn 0.4008 -0.6872 0.6059
vn 0.0260 -0.6139 0.7889
vn -0.1519 -0.5831 0.7981
vn 0.2452 -0.5475 0.8001
vn 0.9335 -0.0740 -0.3509
vn 0.9616 -0.2729 -0.0281
vn -0.4311 -0.3510 0.8312
vn 0.6295 -0.5168 0.5802
vn 0.8366 -0.3086 0.4527
vn 0.5116 -0.4383 0.7390
vn 0.1374 -0.4006 0.9059
vn 0.9829 -0.1074 -0.1498
vn 0.8922 0.0886 -0.4428
vn 0.8038 -0.0486 0.5930
vn 0.6974 -0.0544 0.7146
vn 0.1560 -0.1746 0.9722
vn 0.9945 0.0780 -0.0706
vn 0.9832 0.0811 0.1633
vn -0.6309 -0.4984 0.5946
vn 0.9586 0.1860 -0.2154
vn -0.2058 -0.0993 0.9735
vn -0.5309 -0.1718 0.8298
vn -0.6117 -0.1770 0.7711
vn 0.4722 -0.0325 0.8809
vn -0.4068 -0.1045 0.9075
vn 0.9583 0.2839 -0.0331
vn 0.8241 0.2890 -0.4872
vn 0.8493 0.3925 -0.3530
vn 0.8373 0.5453 0.0389
vn 0.8398 0.4709 0.2701
vn 0.7588 0.6505 0.0323
vn 0.3734 0.7154 0.5906
vn 0.7260 0.2407 -0.6443
vn -0.0191 0.4747 0.8799
vn 0.0315 0.6756 0.7366
vn -0.4137 0.3882 0.8235
vn -0.5772 0.2935 0.7620
vn -0.2642 0.6418 0.7200
vn 0.6640 0.5560 -0.5000
vn -0.3989 0.5415 0.7400
vn -0.2413 0.8785 0.4122
vn 0.1178 0.9925 -0.0323
vn -0.7031 -0.0265 0.7106
vn -0.2809 0.9572 0.0690
vn -0.6995 -0.1106 0.7060
vn 0.6161 0.4253 -0.6630
vn -0.5572 0.7145 0.4231
vn 0.4357 0.7022 -0.5630
vn -0.5613 0.8255 0.0586
vn -0.6181 0.7541 0.2220
vn -0.7988 0.2263 0.5573
vn -0.2161 0.9191 -0.3296
vn 0.6378 0.2474 -0.7294
vn 0.3777 0.5186 -0.7671
vn -0.8332 0.5288 0.1617
vn -0.8223 0.5643 -0.0727
vn -0.9160 0.3172 0.2457
vn -0.8463 0.0520 0.5302
vn -0.3710 0.6782 -0.6343
vn -0.5198 0.6500 -0.5544
vn -0.7776 0.4820 -0.4037
vn 0.4866 0.3051 -0.8186
vn 0.1521 0.4642 -0.8726
vn -0.9397 0.1169 0.3215
vn -0.0934 0.5859 -0.8050
vn -0.0503 0.3802 -0.9236
vn -0.3913 0.2672 -0.8806
vn -0.7584 -0.1621 0.6313
vn -0.7672 0.2111 -0.6056
vn -0.8831 0.2110 -0.4190
vn 0.2718 0.2773 -0.9215
vn -0.9622 0.0798 -0.2604
vn 0.1972 0.3043 -0.9320
vn -0.9929 0.1123 -0.0387
vn -0.9476 -0.0660 -0.3127
vn -0.0352 0.1898 -0.9812
vn -0.6415 0.0957 -0.7611
vn -0.8903 -0.0935 -0.4457
vn -0.3810 -0.0032 -0.9246
vn -0.0161 -0.0045 -0.9999
vn -0.9570 -0.2714 0.1020
vn 0.4641 0.1111 -0.8788
vn 0.3276 0.1114 -0.9382
vn -0.9131 -0.2947 -0.2817
vn -0.4237 -0.3391 -0.8400
vn -0.8091 -0.3918 -0.4380
vn -0.9342 -0.3551 -0.0340
vn 0.0651 -0.1346 -0.9888
vn -0.8552 -0.3553 0.3774
vn -0.5843 -0.4810 -0.6536
vn -0.7996 -0.5700 -0.1892
vn 0.2816 -0.1091 -0.9533
vn 0.1936 -0.3202 -0.9273
vn -0.7967 -0.5454 0.2605
vn 0.6432 0.1304 -0.7545
vn -0.6323 -0.7744 0.0197
vn 0.5036 -0.3174 -0.8035
vn -0.6561 -0.6876 0.3111
vn 0.3862 -0.5744 -0.7217
vn -0.2585 -0.9311 -0.2573
vn 0.1087 -0.9571 -0.2687
vn 0.6275 -0.2884 -0.7233
vn -0.4779 -0.7908 0.3824
vn -0.6707 -0.3529 0.6524
vn 0.0080 -0.9788 0.2048
vn 0.8545 -0.4066 -0.3232
vn 0.7514 -0.1316 -0.6466
vn -0.1463 -0.9370 0.3172
vn 0.7131 -0.4550 -0.5333
vn 0.5320 -0.7637 -0.3657
vn -0.2065 -0.7741 0.5985
vn -0.4328 -0.5616 0.7052
vn 0.5460 -0.8375 0.0209
vn 0.1778 -0.8874 0.4253
vn 0.5080 -0.7925 0.3375
vn 0.7754 0.0685 -0.6277
vn 0.0778 -0.7859 0.6134
vn -0.1740 -0.3656 0.9144
vn 0.8257 -0.5366 -0.1740
vn -0.1806 -0.5599 0.8086
vn 0.7410 -0.6159 0.2676
vn 0.3797 -0.6865 0.6201
vn 0.6281 -0.5171 0.5815
vn 0.1836 -0.5310 0.8273
vn 0.9439 -0.0941 -0.3165
vn 0.8889 -0.4092 0.2060
vn -0.4455 -0.3437 0.8267
vn 0.5270 -0.2709 0.8055
vn -0.3099 -0.3354 0.8896
vn 0.8082 -0.3273 0.4897
vn 0.9827 -0.1797 -0.0440
vn 0.8987 0.0835 -0.4305
vn 0.2225 -0.2869 0.9318
vn 0.9603 -0.0973 0.2615
vn 0.8852 -0.1859 0.4265
vn 0.8089 0.2302 0.5410
vn 0.9709 0.0338 0.2370
vn 0.5862 -0.1120 0.8024
vn -0.1062 -0.1943 0.9752
vn 0.1954 -0.0841 0.9771
vn 0.9662 0.1832 -0.1811
vn -0.3276 -0.1233 0.9367
vn 0.8720 0.0780 0.4832
vn 0.6476 0.2088 0.7328
vn -0.4898 -0.1265 0.8626
vn 0.4811 0.1619 0.8616
vn 0.3436 0.4499 0.8243
vn 0.2554 0.1431 0.9562
vn 0.1375 0.0202 0.9903
vn -0.0433 0.0456 0.9980
vn 0.9589 0.2493 0.1356
vn -0.1698 -0.0313 0.9850
vn 0.9029 0.3092 0.2986
vn 0.8564 0.3281 -0.3987
vn 0.5572 0.4662 0.6871
vn 0.1586 0.3512 0.9228
vn 0.8766 0.4531 -0.1622
vn 0.6835 0.5379 0.4936
vn -0.1009 0.2062 0.9733
vn -0.2557 0.2732 0.9274
vn 0.6009 0.6958 0.3934
vn -0.3417 0.1378 0.9297
vn -0.4333 0.0973 0.8960
vn -0.5940 0.1196 0.7955
vn 0.2890 0.6498 0.7030
vn 0.7682 0.2892 -0.5711
vn -0.0398 0.6284 0.7769
vn 0.6412 0.7404 -0.2017
vn 0.4982 0.8563 -0.1360
vn 0.3371 0.9273 0.1626
vn 0.6479 0.6424 -0.4093
vn -0.6278 0.0356 0.7775
vn 0.1926 0.9106 0.3657
vn 0.0476 0.8828 0.4673
vn 0.2503 0.8806 -0.4023
vn -0.2928 0.8382 0.4601
vn -0.7084 0.3548 0.6101
vn 0.0186 0.7448 -0.6670
vn 0.1383 0.9474 -0.2886
vn -0.2693 0.9616 0.0524
vn 0.6067 0.4520 -0.6540
vn -0.5869 0.6048 0.5383
vn -0.7121 0.4600 0.5303
vn -0.7952 0.1884 0.5763
vn -0.2017 0.9164 -0.3459
vn -0.6080 0.7657 -0.2099
vn -0.1663 0.8098 -0.5626
vn 0.3235 0.5607 -0.7622
vn 0.5664 0.3094 -0.7639
vn -0.8602 0.4329 -0.2696
vn -0.8546 0.4571 0.2463
vn -0.9151 0.2813 0.2890
vn -0.8374 0.0204 0.5463
vn -0.5925 0.6556 -0.4682
vn -0.2655 0.5698 -0.7777
vn -0.3840 0.3933 -0.8354
vn 0.4303 0.3299 -0.8403
vn -0.9587 0.2842 0.0081
vn 0.0138 0.4675 -0.8839
vn -0.8510 -0.1244 0.5102
vn -0.5449 0.4183 -0.7267
vn -0.6575 0.3818 -0.6495
vn -0.9873 0.0015 0.1589
vn 0.0112 0.2687 -0.9632
vn -0.6993 0.0915 -0.7089
vn -0.9369 -0.1155 0.3300
vn -0.2881 0.1651 -0.9433
vn -0.6645 -0.2054 -0.7185
vn -0.4221 -0.0060 -0.9065
vn -0.9275 -0.0965 -0.3611
vn 0.0278 0.0874 -0.9958
vn -0.9897 -0.1381 0.0385
vn 0.2758 0.0683 -0.9588
vn -0.9319 -0.2785 0.2322
vn -0.2833 -0.0747 -0.9561
vn -0.2313 -0.2396 -0.9429
vn -0.7350 -0.2245 -0.6399
vn -0.5099 -0.3439 -0.7885
vn -0.8149 -0.3944 -0.4248
vn -0.4288 -0.6638 -0.6127
vn -0.8624 -0.5054 -0.0297
vn 0.1869 -0.1678 -0.9679
vn -0.8318 -0.3257 0.4494
vn 0.5587 0.0526 -0.8277
vn -0.0404 -0.4887 -0.8715
vn -0.5793 -0.7061 -0.4072
vn 0.5235 -0.0744 -0.8488
vn -0.7249 -0.6559 -0.2103
vn 0.4270 -0.1306 -0.8947
vn -0.8115 -0.4599 0.3605
vn -0.3519 -0.9244 -0.1473
vn -0.2465 -0.5675 -0.7856
vn -0.2189 -0.8206 -0.5280
vn -0.4524 -0.8918 -0.0086
vn 0.4118 -0.3964 -0.8206
vn -0.6578 -0.6855 0.3121
vn 0.1597 -0.6741 -0.7212
vn 0.1021 -0.7887 -0.6063
vt 0.781230 0.812500
vt 0.762032 0.875000
vt 0.685473 0.777944
vt 0.734697 0.375000
vt 0.703125 0.312500
vt 0.764235 0.312500
vt 0.741874 0.599249
vt 0.704616 0.531266
vt 0.763980 0.500000
vt 0.734375 0.000000
vt 0.879629 0.062500
vt 0.593677 0.062500
vt 0.670132 0.472235
vt 0.734536 0.437500
vt 0.734224 0.937500
vt 0.605595 0.875000
vt 0.658359 0.250000
vt 0.719918 0.218999
vt 0.734375 0.717281
vt 0.678319 0.660608
vt 0.606077 0.187500
vt 0.641330 0.592355
vt 0.623673 0.812500
vt 0.673680 0.375000
vt 0.639230 0.312500
vt 0.640625 1.000000
vt 0.479138 0.937500
vt 0.639064 0.437500
vt 0.612180 0.375000
vt 0.595563 0.750000
vt 0.606567 0.500000
vt 0.603325 0.667055
vt 0.578286 0.562500
vt 0.578286 0.437500
vt 0.577540 0.283466
vt 0.543444 0.396147
vt 0.512752 0.812500
vt 0.546915 0.655822
vt 0.503540 0.125000
vt 0.660224 0.125000
vt 0.544067 0.500000
vt 0.509405 0.537235
vt 0.515588 0.281661
vt 0.510998 0.724803
vt 0.449506 0.875000
vt 0.487180 0.625000
vt 0.453286 0.562500
vt 0.450317 0.500000
vt 0.485851 0.406417
vt 0.453088 0.281661
vt 0.455926 0.750000
vt 0.445771 0.665313
vt 0.799126 0.125000
vt 0.779637 0.187500
vt 0.402284 0.812500
vt 0.497588 0.187500
vt 0.386121 0.187500
vt 0.328120 0.062500
vt 0.453125 0.000000
vt 0.437500 0.406180
vt 0.347717 0.125000
vt 0.390588 0.718339
vt 0.293360 0.875000
vt 0.308534 0.812500
vt 0.316528 0.750000
vt 0.343750 0.656371
vt 0.393429 0.625000
vt 0.296915 0.655822
vt 0.343750 0.531273
vt 0.297036 0.562500
vt 0.294067 0.500000
vt 0.328125 1.000000
vt 0.230145 0.937500
vt 0.328286 0.437500
vt 0.296914 0.344178
vt 0.343750 0.343629
vt 0.265786 0.437500
vt 0.234338 0.281661
vt 0.296902 0.219059
vt 0.214815 0.187500
vt 0.237180 0.375000
vt 0.199790 0.812500
vt 0.237635 0.520573
vt 0.203286 0.437500
vt 0.237180 0.625000
vt 0.203286 0.562500
vt 0.190964 0.125000
vt 0.113605 0.062500
vt 0.169067 0.500000
vt 0.203125 0.000000
vt 0.137012 0.875000
vt 0.176363 0.337227
vt 0.171838 0.718339
vt 0.234338 0.718339
vt 0.148421 0.399333
vt 0.160278 0.250000
vt 0.121065 0.187500
vt 0.174680 0.625000
vt 0.134405 0.537235
vt 0.140625 1.000000
vt 0.030235 0.937500
vt 0.075252 0.812500
vt 0.102021 0.334687
vt 0.109536 0.437500
vt 0.066529 0.250000
vt 0.055088 0.153620
vt 0.112179 0.625000
vt 0.078286 0.562500
vt 0.075317 0.500000
vt 0.047036 0.437500
vt 0.032456 0.875000
vt 0.048167 0.750000
vt 0.108913 0.719958
vt 0.062500 0.658651
vt 0.015664 0.655822
vt 0.018885 0.520574
vt 0.000000 0.562500
vt 0.015625 0.000000
vt 0.000000 0.062500
vt 0.000000 0.399333
vt 0.046914 0.344178
vt 0.000000 0.784407
vt 0.000000 0.273040
vt 0.991904 0.273040
vt 0.992171 0.399333
vt 0.937867 0.282145
vt 1.000000 0.655822
vt 0.975379 0.784407
vt 0.953164 0.655822
vt 1.000000 0.500000
vt 0.984536 0.562500
vt 0.950317 0.500000
vt 0.953286 0.437500
vt 0.924679 0.375000
vt 0.915655 0.537235
vt 0.910279 0.750000
vt 0.906250 0.656371
vt 0.965747 0.187500
vt 0.868449 0.212346
vt 0.978825 0.875000
vt 0.921769 0.937500
vt 0.872374 0.843190
vt 0.887823 0.312500
vt 0.859536 0.562500
vt 0.856567 0.500000
vt 0.890786 0.437500
vt 0.855944 0.396148
vt 0.859414 0.655822
vt 0.939862 0.125000
vt 0.812867 0.282145
vt 0.814726 0.750000
vt 0.796945 0.653777
vt 0.828125 1.000000
vt 0.798190 0.375000
vt 0.797036 0.437500
vt 0.390786 0.562500
vt 0.387817 0.500000
vt 0.390786 0.437500
vt 0.390665 0.344178
vt 0.378980 0.250000
vt 0.000000 0.125000
vt 0.000000 0.187500
vt 0.801816 0.543181
s 0
f 2/1/1 6/2/1 13/3/1
f 11/4/2 14/5/2 4/6/2
f 8/7/3 9/8/3 3/9/3
f 5/10/4 127/11/4 44/12/4
f 9/8/5 16/13/5 10/14/5
f 139/15/6 32/16/6 6/2/6
f 14/5/7 21/17/7 12/18/7
f 7/19/8 15/20/8 8/7/8
f 12/18/9 21/17/9 31/21/9
f 15/20/10 18/22/10 9/8/10
f 32/16/11 22/23/11 13/3/11
f 14/5/12 17/24/12 20/25/12
f 139/15/13 1/26/13 59/27/13
f 19/28/14 25/29/14 17/24/14
f 22/23/15 27/30/15 13/3/15
f 16/13/16 18/22/16 24/31/16
f 18/22/17 23/32/17 28/33/17
f 24/31/18 29/34/18 19/28/18
f 20/25/19 25/29/19 30/35/19
f 20/25/20 30/35/20 21/17/20
f 29/34/21 35/36/21 25/29/21
f 32/16/22 41/37/22 22/23/22
f 23/32/23 27/30/23 33/38/23
f 31/21/24 51/39/24 26/40/24
f 24/31/25 28/33/25 34/41/25
f 28/33/26 33/38/26 37/42/26
f 34/41/27 35/36/27 29/34/27
f 30/35/28 35/36/28 38/43/28
f 41/37/29 36/44/29 27/30/29
f 32/16/30 59/27/30 40/45/30
f 37/42/31 42/46/31 47/47/31
f 37/42/32 47/47/32 48/48/32
f 38/43/33 43/49/33 50/50/33
f 41/37/34 45/51/34 36/44/34
f 36/44/35 45/51/35 46/52/35
f 26/40/36 146/53/36 145/54/36 12/18/36
f 41/37/37 40/45/37 52/55/37
f 39/56/38 50/50/38 64/57/38
f 44/12/39 51/39/39 76/58/39
f 5/59/40 44/12/40 76/58/40
f 48/48/41 49/60/41 43/49/41
f 64/57/42 73/61/42 51/39/42
f 52/55/43 54/62/43 45/51/43
f 59/27/44 77/63/44 40/45/44
f 52/55/45 77/63/45 67/64/45
f 54/62/46 68/65/46 60/66/46
f 54/62/47 60/66/47 55/67/47
f 60/66/48 68/65/48 69/68/48
f 61/69/49 65/70/49 70/71/49
f 59/27/50 1/72/50 82/73/50
f 66/74/51 71/75/51 62/76/51
f 70/71/52 75/77/52 66/74/52
f 71/75/53 81/78/53 72/79/53
f 72/79/54 81/78/54 87/80/54
f 75/77/55 80/81/55 71/75/55
f 67/64/56 77/63/56 88/82/56
f 71/75/57 80/81/57 81/78/57
f 74/83/58 85/84/58 75/77/58
f 74/83/59 79/85/59 83/86/59
f 96/87/60 111/88/60 76/58/60
f 74/83/61 83/86/61 84/89/61
f 5/90/62 76/58/62 111/88/62
f 77/63/63 82/73/63 92/91/63
f 85/84/64 86/92/64 80/81/64
f 88/82/65 89/93/65 78/94/65
f 84/89/66 95/95/66 85/84/66
f 85/84/67 95/95/67 86/92/67
f 87/80/68 91/96/68 100/97/68
f 83/86/69 90/98/69 93/99/69
f 82/73/70 1/100/70 131/101/70
f 92/91/71 105/102/71 88/82/71
f 86/92/72 95/95/72 99/103/72
f 94/104/73 99/103/73 95/95/73
f 99/103/74 109/105/74 91/96/74
f 100/97/75 110/106/75 96/87/75
f 93/99/76 98/107/76 102/108/76
f 93/99/77 102/108/77 103/109/77
f 103/109/78 108/110/78 94/104/78
f 131/101/79 118/111/79 92/91/79
f 105/102/80 106/112/80 97/113/80
f 100/97/81 109/105/81 110/106/81
f 97/113/82 101/114/82 98/107/82
f 101/114/83 106/112/83 112/115/83
f 107/116/84 112/115/84 115/117/84
f 5/118/85 111/88/85 127/119/85
f 107/116/86 113/120/86 108/110/86
f 108/110/87 113/120/87 104/121/87
f 105/102/88 118/111/88 114/122/88
f 104/121/89 113/120/89 116/123/89
f 105/102/90 114/122/90 106/112/90
f 104/121/91 116/123/91 109/105/91
f 116/124/92 113/125/92 126/126/92
f 112/127/93 114/128/93 119/129/93
f 107/130/94 115/131/94 120/132/94
f 121/133/95 125/134/95 113/125/95
f 115/131/96 119/129/96 124/135/96
f 119/129/97 128/136/97 123/137/97
f 122/138/98 126/126/98 137/139/98
f 118/140/99 131/141/99 132/142/99
f 118/140/100 132/142/100 114/128/100
f 126/126/101 125/134/101 130/143/101
f 124/135/102 134/144/102 135/145/102
f 129/146/103 136/147/103 125/134/103
f 130/143/104 137/139/104 126/126/104
f 123/137/105 128/136/105 133/148/105
f 137/139/106 146/53/106 117/149/106
f 135/145/107 136/147/107 129/146/107
f 130/143/108 136/147/108 138/150/108
f 132/142/109 140/151/109 128/136/109
f 133/148/110 140/151/110 141/152/110
f 137/139/111 138/150/111 145/54/111
f 131/141/112 1/153/112 139/15/112
f 138/150/113 144/154/113 4/6/113
f 140/151/114 2/1/114 7/19/114
f 4/6/115 12/18/115 138/150/115
f 141/152/116 7/19/116 8/7/116
f 3/9/117 10/14/117 143/155/117
f 3/9/118 9/8/118 10/14/118
f 7/19/119 2/1/119 13/3/119
f 4/6/120 14/5/120 12/18/120
f 44/12/121 127/11/121 146/53/121 26/40/121
f 17/24/122 11/4/122 10/14/122 16/13/122
f 23/32/123 15/20/123 13/3/123 27/30/123
f 6/2/124 32/16/124 13/3/124
f 11/4/125 17/24/125 14/5/125
f 7/19/126 13/3/126 15/20/126
f 9/8/127 8/7/127 15/20/127
f 21/17/128 14/5/128 20/25/128
f 12/18/129 31/21/129 26/40/129
f 9/8/130 18/22/130 16/13/130
f 16/13/131 19/28/131 17/24/131
f 16/13/132 24/31/132 19/28/132
f 139/15/133 59/27/133 32/16/133
f 20/25/134 17/24/134 25/29/134
f 38/43/135 39/56/135 31/21/135 30/35/135
f 15/20/136 23/32/136 18/22/136
f 21/17/137 30/35/137 31/21/137
f 24/31/138 18/22/138 28/33/138
f 19/28/139 29/34/139 25/29/139
f 24/31/140 34/41/140 29/34/140
f 30/35/141 25/29/141 35/36/141
f 22/23/142 41/37/142 27/30/142
f 28/33/143 23/32/143 33/38/143
f 44/12/144 26/40/144 51/39/144
f 43/49/145 35/36/145 34/41/145 37/42/145
f 51/39/146 31/21/146 39/56/146
f 34/41/147 28/33/147 37/42/147
f 33/38/148 27/30/148 36/44/148
f 32/16/149 40/45/149 41/37/149
f 38/43/150 35/36/150 43/49/150
f 33/38/151 36/44/151 42/46/151
f 37/42/152 33/38/152 42/46/152
f 55/67/153 56/156/153 47/47/153 46/52/153
f 36/44/154 46/52/154 42/46/154
f 37/42/155 48/48/155 43/49/155
f 39/56/156 38/43/156 50/50/156
f 50/50/157 43/49/157 49/60/157
f 41/37/158 52/55/158 45/51/158
f 39/56/159 64/57/159 51/39/159
f 47/47/160 42/46/160 46/52/160
f 56/156/161 57/157/161 48/48/161 47/47/161
f 51/39/162 73/61/162 76/58/162
f 58/158/163 49/60/163 48/48/163 57/157/163
f 66/74/164 58/158/164 57/157/164 61/69/164
f 49/60/165 58/158/165 53/159/165
f 50/50/166 49/60/166 53/159/166
f 50/50/167 53/159/167 63/160/167
f 46/52/168 45/51/168 54/62/168
f 64/57/169 50/50/169 63/160/169
f 46/52/170 54/62/170 55/67/170
f 40/45/171 77/63/171 52/55/171
f 57/157/172 56/156/172 61/69/172
f 62/76/173 53/159/173 58/158/173 66/74/173
f 68/65/174 54/62/174 52/55/174 67/64/174
f 60/66/175 61/69/175 56/156/175 55/67/175
f 53/159/176 62/76/176 63/160/176
f 72/79/177 63/160/177 62/76/177 71/75/177
f 69/68/178 65/70/178 61/69/178 60/66/178
f 64/57/179 63/160/179 72/79/179
f 64/57/180 72/79/180 73/61/180
f 96/87/181 73/61/181 72/79/181 87/80/181
f 61/69/182 70/71/182 66/74/182
f 59/27/183 82/73/183 77/63/183
f 66/74/184 75/77/184 71/75/184
f 69/68/185 68/65/185 78/94/185
f 69/68/186 78/94/186 79/85/186
f 79/85/187 74/83/187 65/70/187 69/68/187
f 78/94/188 68/65/188 67/64/188 88/82/188
f 76/58/189 73/61/189 96/87/189
f 70/71/190 65/70/190 74/83/190
f 70/71/191 74/83/191 75/77/191
f 90/98/192 79/85/192 78/94/192 89/93/192
f 75/77/193 85/84/193 80/81/193
f 87/80/194 81/78/194 91/96/194
f 98/107/195 90/98/195 89/93/195 97/113/195
f 83/86/196 79/85/196 90/98/196
f 74/83/197 84/89/197 85/84/197
f 77/63/198 92/91/198 88/82/198
f 81/78/199 80/81/199 86/92/199
f 81/78/200 86/92/200 91/96/200
f 87/80/201 100/97/201 96/87/201
f 84/89/202 83/86/202 93/99/202
f 94/104/203 95/95/203 84/89/203 93/99/203
f 93/99/204 90/98/204 98/107/204
f 97/113/205 89/93/205 88/82/205 105/102/205
f 82/73/206 131/101/206 92/91/206
f 104/121/207 99/103/207 94/104/207 108/110/207
f 86/92/208 99/103/208 91/96/208
f 100/97/209 91/96/209 109/105/209
f 96/87/210 110/106/210 111/88/210
f 93/99/211 103/109/211 94/104/211
f 102/108/212 98/107/212 101/114/212
f 112/115/213 107/116/213 102/108/213 101/114/213
f 92/91/214 118/111/214 105/102/214
f 99/103/215 104/121/215 109/105/215
f 97/113/216 106/112/216 101/114/216
f 127/119/217 111/88/217 110/106/217 117/161/217
f 103/109/218 102/108/218 107/116/218
f 103/109/219 107/116/219 108/110/219
f 116/123/220 122/162/220 110/106/220 109/105/220
f 112/115/221 106/112/221 114/122/221
f 121/133/222 113/125/222 107/130/222 120/132/222
f 110/106/223 122/162/223 117/161/223
f 115/131/224 112/127/224 119/129/224
f 129/146/225 121/133/225 120/132/225 124/135/225
f 120/132/226 115/131/226 124/135/226
f 126/126/227 113/125/227 125/134/227
f 119/129/228 114/128/228 128/136/228
f 122/138/229 116/124/229 126/126/229
f 114/128/230 132/142/230 128/136/230
f 117/149/231 122/138/231 137/139/231
f 124/135/232 119/129/232 123/137/232
f 133/148/233 134/144/233 124/135/233 123/137/233
f 121/133/234 129/146/234 125/134/234
f 124/135/235 135/145/235 129/146/235
f 130/143/236 125/134/236 136/147/236
f 143/155/237 136/147/237 135/145/237 142/163/237
f 130/143/238 138/150/238 137/139/238
f 133/148/239 128/136/239 140/151/239
f 117/149/240 146/53/240 127/11/240
f 139/15/241 6/2/241 132/142/241 131/141/241
f 141/152/242 142/163/242 134/144/242 133/148/242
f 136/147/243 143/155/243 144/154/243
f 132/142/244 6/2/244 2/1/244
f 138/150/245 136/147/245 144/154/245
f 132/142/246 2/1/246 140/151/246
f 137/139/247 145/54/247 146/53/247
f 11/4/248 144/154/248 143/155/248 10/14/248
f 135/145/249 134/144/249 142/163/249
f 142/163/250 3/9/250 143/155/250
f 144/154/251 11/4/251 4/6/251
f 141/152/252 140/151/252 7/19/252
f 145/54/253 138/150/253 12/18/253
f 142/163/254 141/152/254 8/7/254
f 3/9/255 142/163/255 8/7/255
