# Blender 5.0.0
# www.blender.org
mtllib prep_throw_ball0036.mtl
o Sphere
v -1.520278 6.590834 -0.320304
v -1.704116 5.921521 -0.437451
v -2.244793 5.210591 -0.095231
v -2.593466 5.328020 0.248906
v -2.818400 6.255466 0.732388
v -1.593172 6.106752 -0.396434
v -1.715714 5.548012 -0.274391
v -1.942444 5.282032 -0.158543
v -1.913369 5.198485 0.091352
v -2.240595 5.164307 0.121895
v -2.367089 5.205030 0.231730
v -2.611676 5.498156 0.524833
v -1.481212 5.784418 -0.182112
v -2.364708 5.291334 0.442286
v -1.594870 5.447134 -0.013659
v -1.901455 5.224961 0.328997
v -2.127510 5.256337 0.461480
v -1.564328 5.426123 0.230542
v -1.874317 5.330278 0.511562
v -2.173320 5.432915 0.669119
v -2.376728 5.494455 0.670958
v -1.356933 5.998847 -0.087321
v -1.374103 5.702178 0.227723
v -1.632242 5.491516 0.532840
v -1.938155 5.472214 0.691389
v -2.629378 5.818201 0.739175
v -1.306590 5.932622 0.085366
v -1.447057 5.702228 0.518525
v -1.702969 5.636113 0.726053
v -2.104113 5.729221 0.876109
v -2.409541 5.762585 0.829588
v -1.358381 6.226470 -0.159325
v -1.276942 6.003930 0.412363
v -1.505795 5.883078 0.730287
v -1.743952 5.845835 0.869072
v -1.218021 6.310501 0.318831
v -1.405078 6.153649 0.743517
v -2.049843 6.064736 1.000644
v -2.329618 6.176913 0.989512
v -1.312882 6.649969 -0.022820
v -1.242765 6.394122 0.090565
v -1.281610 6.386111 0.589471
v -1.695129 6.268406 0.970917
v -2.693535 6.084289 0.799611
v -1.237556 6.637582 0.300363
v -1.273736 6.684233 0.524125
v -1.388548 6.609273 0.753080
v -1.507379 6.602239 0.870652
v -1.738469 6.619151 0.997584
v -2.068667 6.443190 1.057407
v -2.507065 6.176479 0.929434
v -1.310177 6.863132 0.128366
v -1.997355 6.890262 1.021004
v -1.336498 7.016570 0.363122
v -1.412870 7.043172 0.594309
v -1.510060 7.064248 0.727320
v -1.635703 7.063184 0.839594
v -1.765972 6.998134 0.934848
v -1.392531 6.578828 -0.185257
v -1.514227 7.303735 0.444931
v -1.724323 7.360217 0.698032
v -2.129494 7.144781 0.943873
v -2.272704 6.797854 1.020272
v -2.419126 6.644960 0.998304
v -1.834728 7.555101 0.515511
v -1.968373 7.360540 0.813931
v -1.484616 7.161929 0.021482
v -1.502047 7.280616 0.170971
v -1.672869 7.493928 0.329916
v -1.970906 7.553777 0.617719
v -2.290039 7.334483 0.830401
v -2.536577 7.002844 0.886239
v -2.612642 6.613860 0.912045
v -2.176094 7.687418 0.361547
v -2.220850 7.575205 0.616266
v -2.739735 6.458504 0.827311
v -1.489620 7.011302 -0.129261
v -1.802854 7.500239 0.015203
v -1.962134 7.639591 0.189817
v -2.462173 7.510406 0.595317
v -2.632312 7.285950 0.687840
v -1.548030 6.839932 -0.275941
v -2.229052 7.675561 0.164417
v -2.498221 7.604513 0.126444
v -2.484964 7.609447 0.371945
v -2.754342 7.390980 0.419039
v -2.790086 6.979136 0.706839
v -1.742690 7.257699 -0.205940
v -2.003953 7.450614 -0.185758
v -2.202915 7.590804 -0.048702
v -2.888159 7.121071 0.498961
v -1.741387 6.994709 -0.362164
v -2.543669 7.507351 -0.071821
v -2.816031 7.318910 -0.000093
v -2.759034 7.435268 0.213864
v -2.865321 6.737914 0.699619
v -2.167092 7.260879 -0.378273
v -2.400522 7.374086 -0.279305
v -2.967435 7.136495 0.172878
v -2.986089 6.841518 0.493364
v -2.413936 7.101331 -0.458023
v -2.635709 7.210187 -0.313969
v -2.781420 7.173419 -0.227816
v -3.061735 6.842370 -0.000279
v -1.960235 6.977746 -0.476353
v -2.169514 6.941878 -0.529041
v -2.810237 6.772917 -0.421696
v -2.944370 6.940260 -0.196793
v -3.076817 6.793684 0.255033
v -3.053395 6.537745 0.439339
v -2.910439 6.453880 0.662429
v -2.470002 6.798882 -0.564977
v -3.032426 6.512371 -0.228092
v -2.092442 6.572961 -0.615013
v -2.718286 6.543967 -0.523895
v -3.120345 6.418645 0.073170
v -3.021370 6.167523 0.437376
v -1.831769 6.649308 -0.521545
v -2.450558 6.367127 -0.631666
v -2.831298 6.244061 -0.458567
v -2.950129 6.237027 -0.340995
v -3.088551 6.251486 0.276969
v -2.375028 6.053911 -0.619929
v -2.697415 6.006561 -0.514041
v -2.992140 6.011659 -0.204146
v -3.087720 6.116153 0.028191
v -2.911474 6.118320 0.598733
v -2.123968 6.201364 -0.633152
v -2.828617 5.782052 -0.315235
v -2.974355 5.798432 -0.026046
v -1.666768 6.606038 -0.440025
v -1.822426 6.211621 -0.549410
v -2.257752 5.778194 -0.564557
v -2.479931 5.651501 -0.473366
v -2.606593 5.585264 -0.374917
v -2.796154 5.579003 -0.183825
v -2.981484 5.818879 0.247362
v -2.806610 5.503251 0.174517
v -1.520352 6.334484 -0.349323
v -1.901420 5.805369 -0.506408
v -2.048639 5.511817 -0.418316
v -2.303285 5.335087 -0.285429
v -2.503951 5.291200 -0.103426
v -2.622156 5.329358 0.020879
v -2.788127 5.634559 0.446098
v -2.854851 5.839088 0.528448
vn 0.6635 -0.2406 -0.7084
vn -0.4273 -0.8349 0.3470
vn 0.1513 -0.9321 -0.3292
vn -0.6794 -0.2208 0.6997
vn 0.1130 -0.9881 0.1044
vn 0.7307 -0.0938 -0.6762
vn -0.3851 -0.6999 0.6015
vn 0.5332 -0.6760 -0.5087
vn -0.4653 -0.4922 0.7357
vn 0.5798 -0.8024 -0.1416
vn 0.7777 -0.1851 -0.6008
vn -0.1635 -0.7690 0.6179
vn 0.7277 0.0769 -0.6815
vn 0.0971 -0.7642 0.6376
vn 0.8634 -0.3327 -0.3793
vn 0.5516 -0.7810 0.2929
vn 0.8073 -0.5542 0.2026
vn 0.3867 -0.6649 0.6391
vn 0.0187 -0.5755 0.8176
vn -0.1562 -0.5409 0.8265
vn 0.2376 -0.5151 0.8235
vn 0.9278 -0.1071 -0.3574
vn 0.9556 -0.2939 -0.0226
vn -0.4273 -0.3059 0.8508
vn 0.6196 -0.5037 0.6020
vn 0.8325 -0.3072 0.4610
vn 0.5055 -0.4165 0.7556
vn 0.1359 -0.3640 0.9214
vn 0.9788 -0.1336 -0.1551
vn 0.8874 0.0523 -0.4580
vn 0.8094 -0.0417 0.5858
vn 0.7040 -0.0404 0.7091
vn 0.1614 -0.1385 0.9771
vn 0.9946 0.0544 -0.0879
vn 0.9871 0.0672 0.1456
vn -0.6306 -0.4565 0.6276
vn 0.9584 0.1570 -0.2385
vn -0.1974 -0.0561 0.9787
vn -0.5237 -0.1270 0.8424
vn -0.6048 -0.1328 0.7852
vn 0.4810 -0.0072 0.8767
vn -0.3984 -0.0598 0.9153
vn 0.9630 0.2619 -0.0632
vn 0.8213 0.2507 -0.5125
vn 0.8501 0.3582 -0.3861
vn 0.8494 0.5276 -0.0068
vn 0.8556 0.4642 0.2292
vn 0.7734 0.6336 -0.0191
vn 0.4012 0.7369 0.5441
vn 0.7208 0.1986 -0.6641
vn 0.0022 0.5147 0.8574
vn 0.0569 0.7117 0.7002
vn -0.3983 0.4323 0.8090
vn -0.5647 0.3370 0.7534
vn -0.2431 0.6828 0.6890
vn 0.6660 0.5165 -0.5382
vn -0.3812 0.5843 0.7164
vn -0.2168 0.9069 0.3614
vn 0.1420 0.9851 -0.0974
vn -0.6949 0.0162 0.7190
vn -0.2566 0.9665 0.0108
vn -0.6922 -0.0677 0.7185
vn 0.6139 0.3821 -0.6908
vn -0.5392 0.7482 0.3867
vn 0.4419 0.6618 -0.6056
vn -0.5414 0.8407 0.0123
vn -0.6000 0.7790 0.1819
vn -0.7893 0.2654 0.5536
vn -0.1951 0.9029 -0.3830
vn 0.6321 0.2036 -0.7476
vn 0.3781 0.4742 -0.7951
vn -0.8211 0.5538 0.1383
vn -0.8098 0.5784 -0.0988
vn -0.9076 0.3464 0.2370
vn -0.8389 0.0904 0.5367
vn -0.3575 0.6540 -0.6667
vn -0.5059 0.6336 -0.5853
vn -0.7680 0.4804 -0.4236
vn 0.4817 0.2601 -0.8369
vn 0.1528 0.4213 -0.8939
vn -0.9337 0.1490 0.3255
vn -0.0862 0.5490 -0.8314
vn -0.0501 0.3412 -0.9386
vn -0.3923 0.2389 -0.8883
vn -0.7523 -0.1206 0.6477
vn -0.7674 0.2024 -0.6083
vn -0.8819 0.2123 -0.4210
vn 0.2670 0.2331 -0.9351
vn -0.9632 0.0893 -0.2533
vn 0.1934 0.2608 -0.9458
vn -0.9908 0.1312 -0.0335
vn -0.9532 -0.0587 -0.2965
vn -0.0407 0.1507 -0.9877
vn -0.6471 0.0786 -0.7584
vn -0.8987 -0.0928 -0.4287
vn -0.3914 -0.0321 -0.9197
vn -0.0268 -0.0439 -0.9987
vn -0.9602 -0.2466 0.1309
vn 0.4559 0.0662 -0.8876
vn 0.3193 0.0670 -0.9453
vn -0.9244 -0.2870 -0.2512
vn -0.4443 -0.3658 -0.8178
vn -0.8262 -0.3932 -0.4035
vn -0.9418 -0.3361 0.0006
vn 0.0513 -0.1756 -0.9831
vn -0.8549 -0.3203 0.4082
vn -0.6075 -0.4977 -0.6190
vn -0.8159 -0.5603 -0.1423
vn 0.2693 -0.1530 -0.9508
vn 0.1770 -0.3633 -0.9147
vn -0.8021 -0.5144 0.3033
vn 0.6358 0.0866 -0.7670
vn -0.6491 -0.7568 0.0772
vn 0.4900 -0.3615 -0.7932
vn -0.6642 -0.6551 0.3601
vn 0.3679 -0.6167 -0.6959
vn -0.2857 -0.9384 -0.1945
vn 0.0822 -0.9744 -0.2093
vn 0.6154 -0.3313 -0.7152
vn -0.4885 -0.7567 0.4344
vn -0.6671 -0.3101 0.6773
vn -0.0143 -0.9639 0.2660
vn 0.8442 -0.4383 -0.3086
vn 0.7421 -0.1728 -0.6476
vn -0.1649 -0.9120 0.3757
vn 0.7004 -0.4935 -0.5156
vn 0.5129 -0.7944 -0.3253
vn -0.2167 -0.7355 0.6419
vn -0.4342 -0.5177 0.7372
vn 0.5258 -0.8479 0.0681
vn 0.1586 -0.8653 0.4756
vn 0.4894 -0.7849 0.3800
vn 0.7684 0.0274 -0.6394
vn 0.0639 -0.7532 0.6546
vn -0.1719 -0.3224 0.9309
vn 0.8134 -0.5620 -0.1501
vn -0.1838 -0.5171 0.8360
vn 0.7271 -0.6188 0.2972
vn 0.3658 -0.6630 0.6532
vn 0.6181 -0.5039 0.6034
vn 0.1773 -0.4963 0.8498
vn 0.9383 -0.1261 -0.3219
vn 0.8808 -0.4188 0.2210
vn -0.4415 -0.2986 0.8461
vn 0.5269 -0.2486 0.8127
vn -0.3062 -0.2908 0.9065
vn 0.8037 -0.3236 0.4993
vn 0.9784 -0.2017 -0.0447
vn 0.8940 0.0476 -0.4455
vn 0.2240 -0.2527 0.9412
vn 0.9609 -0.1067 0.2556
vn 0.8847 -0.1870 0.4269
vn 0.8230 0.2353 0.5170
vn 0.9746 0.0230 0.2226
vn 0.5915 -0.0921 0.8010
vn -0.1002 -0.1525 0.9832
vn 0.2034 -0.0492 0.9779
vn 0.9665 0.1554 -0.2043
vn -0.3195 -0.0788 0.9443
vn 0.8805 0.0792 0.4675
vn 0.6634 0.2252 0.7136
vn -0.4819 -0.0816 0.8724
vn 0.4964 0.1868 0.8478
vn 0.3669 0.4793 0.7973
vn 0.2702 0.1763 0.9465
vn 0.1487 0.0567 0.9873
vn -0.0315 0.0861 0.9958
vn 0.9662 0.2345 0.1073
vn -0.1599 0.0113 0.9871
vn 0.9149 0.3023 0.2674
vn 0.8554 0.2924 -0.4276
vn 0.5804 0.4849 0.6542
vn 0.1787 0.3873 0.9045
vn 0.8821 0.4259 -0.2012
vn 0.7058 0.5454 0.4521
vn -0.0858 0.2479 0.9650
vn -0.2404 0.3169 0.9175
vn 0.6254 0.7013 0.3422
vn -0.3292 0.1821 0.9265
vn -0.4219 0.1419 0.8954
vn -0.5834 0.1635 0.7956
vn 0.3161 0.6780 0.6636
vn 0.7644 0.2486 -0.5949
vn -0.0159 0.6671 0.7448
vn 0.6529 0.7131 -0.2554
vn 0.5151 0.8344 -0.1960
vn 0.3625 0.9267 0.0986
vn 0.6532 0.6060 -0.4539
vn -0.6183 0.0794 0.7819
vn 0.2208 0.9260 0.3062
vn 0.0754 0.9076 0.4131
vn 0.2652 0.8491 -0.4568
vn -0.2694 0.8699 0.4132
vn -0.6967 0.3953 0.5986
vn 0.0298 0.7080 -0.7056
vn 0.1577 0.9241 -0.3482
vn -0.2450 0.9695 -0.0063
vn 0.6051 0.4088 -0.6832
vn -0.5708 0.6431 0.5104
vn -0.6994 0.4984 0.5123
vn -0.7860 0.2279 0.5747
vn -0.1810 0.8989 -0.3990
vn -0.5898 0.7675 -0.2510
vn -0.1503 0.7814 -0.6056
vn 0.3254 0.5167 -0.7919
vn 0.5616 0.2648 -0.7839
vn -0.8516 0.4392 -0.2863
vn -0.8437 0.4859 0.2281
vn -0.9070 0.3121 0.2826
vn -0.8302 0.0593 0.5543
vn -0.5779 0.6450 -0.4999
vn -0.2570 0.5385 -0.8025
vn -0.3805 0.3652 -0.8496
vn 0.4260 0.2848 -0.8587
vn -0.9526 0.3044 0.0018
vn 0.0160 0.4272 -0.9040
vn -0.8458 -0.0861 0.5265
vn -0.5392 0.3981 -0.7421
vn -0.6524 0.3678 -0.6627
vn -0.9849 0.0282 0.1709
vn 0.0077 0.2285 -0.9735
vn -0.7046 0.0777 -0.7053
vn -0.9339 -0.0826 0.3479
vn -0.2932 0.1330 -0.9467
vn -0.6801 -0.2208 -0.6991
vn -0.4324 -0.0333 -0.9010
vn -0.9347 -0.0916 -0.3433
vn 0.0194 0.0471 -0.9987
vn -0.9915 -0.1158 0.0597
vn 0.2667 0.0244 -0.9635
vn -0.9329 -0.2487 0.2605
vn -0.2960 -0.1070 -0.9492
vn -0.2488 -0.2735 -0.9291
vn -0.7502 -0.2353 -0.6179
vn -0.5305 -0.3667 -0.7643
vn -0.8318 -0.3951 -0.3900
vn -0.4560 -0.6844 -0.5689
vn -0.8733 -0.4870 0.0136
vn 0.1731 -0.2107 -0.9621
vn -0.8300 -0.2885 0.4773
vn 0.5499 0.0081 -0.8352
vn -0.0626 -0.5273 -0.8473
vn -0.6043 -0.7129 -0.3558
vn 0.5129 -0.1189 -0.8502
vn -0.7441 -0.6489 -0.1589
vn 0.4152 -0.1752 -0.8927
vn -0.8134 -0.4252 0.3970
vn -0.3770 -0.9225 -0.0832
vn -0.2720 -0.5991 -0.7530
vn -0.2474 -0.8438 -0.4762
vn -0.4735 -0.8791 0.0544
vn 0.3962 -0.4404 -0.8056
vn -0.6658 -0.6529 0.3610
vn 0.1367 -0.7136 -0.6871
vn 0.0767 -0.8233 -0.5625
vt 0.781230 0.812500
vt 0.762032 0.875000
vt 0.685473 0.777944
vt 0.734697 0.375000
vt 0.703125 0.312500
vt 0.764235 0.312500
vt 0.741874 0.599249
vt 0.704616 0.531266
vt 0.763980 0.500000
vt 0.734375 0.000000
vt 0.879629 0.062500
vt 0.593677 0.062500
vt 0.670132 0.472235
vt 0.734536 0.437500
vt 0.734224 0.937500
vt 0.605595 0.875000
vt 0.658359 0.250000
vt 0.719918 0.218999
vt 0.734375 0.717281
vt 0.678319 0.660608
vt 0.606077 0.187500
vt 0.641330 0.592355
vt 0.623673 0.812500
vt 0.673680 0.375000
vt 0.639230 0.312500
vt 0.640625 1.000000
vt 0.479138 0.937500
vt 0.639064 0.437500
vt 0.612180 0.375000
vt 0.595563 0.750000
vt 0.606567 0.500000
vt 0.603325 0.667055
vt 0.578286 0.562500
vt 0.578286 0.437500
vt 0.577540 0.283466
vt 0.543444 0.396147
vt 0.512752 0.812500
vt 0.546915 0.655822
vt 0.503540 0.125000
vt 0.660224 0.125000
vt 0.544067 0.500000
vt 0.509405 0.537235
vt 0.515588 0.281661
vt 0.510998 0.724803
vt 0.449506 0.875000
vt 0.487180 0.625000
vt 0.453286 0.562500
vt 0.450317 0.500000
vt 0.485851 0.406417
vt 0.453088 0.281661
vt 0.455926 0.750000
vt 0.445771 0.665313
vt 0.799126 0.125000
vt 0.779637 0.187500
vt 0.402284 0.812500
vt 0.497588 0.187500
vt 0.386121 0.187500
vt 0.328120 0.062500
vt 0.453125 0.000000
vt 0.437500 0.406180
vt 0.347717 0.125000
vt 0.390588 0.718339
vt 0.293360 0.875000
vt 0.308534 0.812500
vt 0.316528 0.750000
vt 0.343750 0.656371
vt 0.393429 0.625000
vt 0.296915 0.655822
vt 0.343750 0.531273
vt 0.297036 0.562500
vt 0.294067 0.500000
vt 0.328125 1.000000
vt 0.230145 0.937500
vt 0.328286 0.437500
vt 0.296914 0.344178
vt 0.343750 0.343629
vt 0.265786 0.437500
vt 0.234338 0.281661
vt 0.296902 0.219059
vt 0.214815 0.187500
vt 0.237180 0.375000
vt 0.199790 0.812500
vt 0.237635 0.520573
vt 0.203286 0.437500
vt 0.237180 0.625000
vt 0.203286 0.562500
vt 0.190964 0.125000
vt 0.113605 0.062500
vt 0.169067 0.500000
vt 0.203125 0.000000
vt 0.137012 0.875000
vt 0.176363 0.337227
vt 0.171838 0.718339
vt 0.234338 0.718339
vt 0.148421 0.399333
vt 0.160278 0.250000
vt 0.121065 0.187500
vt 0.174680 0.625000
vt 0.134405 0.537235
vt 0.140625 1.000000
vt 0.030235 0.937500
vt 0.075252 0.812500
vt 0.102021 0.334687
vt 0.109536 0.437500
vt 0.066529 0.250000
vt 0.055088 0.153620
vt 0.112179 0.625000
vt 0.078286 0.562500
vt 0.075317 0.500000
vt 0.047036 0.437500
vt 0.032456 0.875000
vt 0.048167 0.750000
vt 0.108913 0.719958
vt 0.062500 0.658651
vt 0.015664 0.655822
vt 0.018885 0.520574
vt 0.000000 0.562500
vt 0.015625 0.000000
vt 0.000000 0.062500
vt 0.000000 0.399333
vt 0.046914 0.344178
vt 0.000000 0.784407
vt 0.000000 0.273040
vt 0.991904 0.273040
vt 0.992171 0.399333
vt 0.937867 0.282145
vt 1.000000 0.655822
vt 0.975379 0.784407
vt 0.953164 0.655822
vt 1.000000 0.500000
vt 0.984536 0.562500
vt 0.950317 0.500000
vt 0.953286 0.437500
vt 0.924679 0.375000
vt 0.915655 0.537235
vt 0.910279 0.750000
vt 0.906250 0.656371
vt 0.965747 0.187500
vt 0.868449 0.212346
vt 0.978825 0.875000
vt 0.921769 0.937500
vt 0.872374 0.843190
vt 0.887823 0.312500
vt 0.859536 0.562500
vt 0.856567 0.500000
vt 0.890786 0.437500
vt 0.855944 0.396148
vt 0.859414 0.655822
vt 0.939862 0.125000
vt 0.812867 0.282145
vt 0.814726 0.750000
vt 0.796945 0.653777
vt 0.828125 1.000000
vt 0.798190 0.375000
vt 0.797036 0.437500
vt 0.390786 0.562500
vt 0.387817 0.500000
vt 0.390786 0.437500
vt 0.390665 0.344178
vt 0.378980 0.250000
vt 0.000000 0.125000
vt 0.000000 0.187500
vt 0.801816 0.543181
s 0
f 2/1/1 6/2/1 13/3/1
f 11/4/2 14/5/2 4/6/2
f 8/7/3 9/8/3 3/9/3
f 5/10/4 127/11/4 44/12/4
f 9/8/5 16/13/5 10/14/5
f 139/15/6 32/16/6 6/2/6
f 14/5/7 21/17/7 12/18/7
f 7/19/8 15/20/8 8/7/8
f 12/18/9 21/17/9 31/21/9
f 15/20/10 18/22/10 9/8/10
f 32/16/11 22/23/11 13/3/11
f 14/5/12 17/24/12 20/25/12
f 139/15/13 1/26/13 59/27/13
f 19/28/14 25/29/14 17/24/14
f 22/23/15 27/30/15 13/3/15
f 16/13/16 18/22/16 24/31/16
f 18/22/17 23/32/17 28/33/17
f 24/31/18 29/34/18 19/28/18
f 20/25/19 25/29/19 30/35/19
f 20/25/20 30/35/20 21/17/20
f 29/34/21 35/36/21 25/29/21
f 32/16/22 41/37/22 22/23/22
f 23/32/23 27/30/23 33/38/23
f 31/21/24 51/39/24 26/40/24
f 24/31/25 28/33/25 34/41/25
f 28/33/26 33/38/26 37/42/26
f 34/41/27 35/36/27 29/34/27
f 30/35/28 35/36/28 38/43/28
f 41/37/29 36/44/29 27/30/29
f 32/16/30 59/27/30 40/45/30
f 37/42/31 42/46/31 47/47/31
f 37/42/32 47/47/32 48/48/32
f 38/43/33 43/49/33 50/50/33
f 41/37/34 45/51/34 36/44/34
f 36/44/35 45/51/35 46/52/35
f 26/40/36 146/53/36 145/54/36 12/18/36
f 41/37/37 40/45/37 52/55/37
f 39/56/38 50/50/38 64/57/38
f 44/12/39 51/39/39 76/58/39
f 5/59/40 44/12/40 76/58/40
f 48/48/41 49/60/41 43/49/41
f 64/57/42 73/61/42 51/39/42
f 52/55/43 54/62/43 45/51/43
f 59/27/44 77/63/44 40/45/44
f 52/55/45 77/63/45 67/64/45
f 54/62/46 68/65/46 60/66/46
f 54/62/47 60/66/47 55/67/47
f 60/66/48 68/65/48 69/68/48
f 61/69/49 65/70/49 70/71/49
f 59/27/50 1/72/50 82/73/50
f 66/74/51 71/75/51 62/76/51
f 70/71/52 75/77/52 66/74/52
f 71/75/53 81/78/53 72/79/53
f 72/79/54 81/78/54 87/80/54
f 75/77/55 80/81/55 71/75/55
f 67/64/56 77/63/56 88/82/56
f 71/75/57 80/81/57 81/78/57
f 74/83/58 85/84/58 75/77/58
f 74/83/59 79/85/59 83/86/59
f 96/87/60 111/88/60 76/58/60
f 74/83/61 83/86/61 84/89/61
f 5/90/62 76/58/62 111/88/62
f 77/63/63 82/73/63 92/91/63
f 85/84/64 86/92/64 80/81/64
f 88/82/65 89/93/65 78/94/65
f 84/89/66 95/95/66 85/84/66
f 85/84/67 95/95/67 86/92/67
f 87/80/68 91/96/68 100/97/68
f 83/86/69 90/98/69 93/99/69
f 82/73/70 1/100/70 131/101/70
f 92/91/71 105/102/71 88/82/71
f 86/92/72 95/95/72 99/103/72
f 94/104/73 99/103/73 95/95/73
f 99/103/74 109/105/74 91/96/74
f 100/97/75 110/106/75 96/87/75
f 93/99/76 98/107/76 102/108/76
f 93/99/77 102/108/77 103/109/77
f 103/109/78 108/110/78 94/104/78
f 131/101/79 118/111/79 92/91/79
f 105/102/80 106/112/80 97/113/80
f 100/97/81 109/105/81 110/106/81
f 97/113/82 101/114/82 98/107/82
f 101/114/83 106/112/83 112/115/83
f 107/116/84 112/115/84 115/117/84
f 5/118/85 111/88/85 127/119/85
f 107/116/86 113/120/86 108/110/86
f 108/110/87 113/120/87 104/121/87
f 105/102/88 118/111/88 114/122/88
f 104/121/89 113/120/89 116/123/89
f 105/102/90 114/122/90 106/112/90
f 104/121/91 116/123/91 109/105/91
f 116/124/92 113/125/92 126/126/92
f 112/127/93 114/128/93 119/129/93
f 107/130/94 115/131/94 120/132/94
f 121/133/95 125/134/95 113/125/95
f 115/131/96 119/129/96 124/135/96
f 119/129/97 128/136/97 123/137/97
f 122/138/98 126/126/98 137/139/98
f 118/140/99 131/141/99 132/142/99
f 118/140/100 132/142/100 114/128/100
f 126/126/101 125/134/101 130/143/101
f 124/135/102 134/144/102 135/145/102
f 129/146/103 136/147/103 125/134/103
f 130/143/104 137/139/104 126/126/104
f 123/137/105 128/136/105 133/148/105
f 137/139/106 146/53/106 117/149/106
f 135/145/107 136/147/107 129/146/107
f 130/143/108 136/147/108 138/150/108
f 132/142/109 140/151/109 128/136/109
f 133/148/110 140/151/110 141/152/110
f 137/139/111 138/150/111 145/54/111
f 131/141/112 1/153/112 139/15/112
f 138/150/113 144/154/113 4/6/113
f 140/151/114 2/1/114 7/19/114
f 4/6/115 12/18/115 138/150/115
f 141/152/116 7/19/116 8/7/116
f 3/9/117 10/14/117 143/155/117
f 3/9/118 9/8/118 10/14/118
f 7/19/119 2/1/119 13/3/119
f 4/6/120 14/5/120 12/18/120
f 44/12/121 127/11/121 146/53/121 26/40/121
f 17/24/122 11/4/122 10/14/122 16/13/122
f 23/32/123 15/20/123 13/3/123 27/30/123
f 6/2/124 32/16/124 13/3/124
f 11/4/125 17/24/125 14/5/125
f 7/19/126 13/3/126 15/20/126
f 9/8/127 8/7/127 15/20/127
f 21/17/128 14/5/128 20/25/128
f 12/18/129 31/21/129 26/40/129
f 9/8/130 18/22/130 16/13/130
f 16/13/131 19/28/131 17/24/131
f 16/13/132 24/31/132 19/28/132
f 139/15/133 59/27/133 32/16/133
f 20/25/134 17/24/134 25/29/134
f 38/43/135 39/56/135 31/21/135 30/35/135
f 15/20/136 23/32/136 18/22/136
f 21/17/137 30/35/137 31/21/137
f 24/31/138 18/22/138 28/33/138
f 19/28/139 29/34/139 25/29/139
f 24/31/140 34/41/140 29/34/140
f 30/35/141 25/29/141 35/36/141
f 22/23/142 41/37/142 27/30/142
f 28/33/143 23/32/143 33/38/143
f 44/12/144 26/40/144 51/39/144
f 43/49/145 35/36/145 34/41/145 37/42/145
f 51/39/146 31/21/146 39/56/146
f 34/41/147 28/33/147 37/42/147
f 33/38/148 27/30/148 36/44/148
f 32/16/149 40/45/149 41/37/149
f 38/43/150 35/36/150 43/49/150
f 33/38/151 36/44/151 42/46/151
f 37/42/152 33/38/152 42/46/152
f 55/67/153 56/156/153 47/47/153 46/52/153
f 36/44/154 46/52/154 42/46/154
f 37/42/155 48/48/155 43/49/155
f 39/56/156 38/43/156 50/50/156
f 50/50/157 43/49/157 49/60/157
f 41/37/158 52/55/158 45/51/158
f 39/56/159 64/57/159 51/39/159
f 47/47/160 42/46/160 46/52/160
f 56/156/161 57/157/161 48/48/161 47/47/161
f 51/39/162 73/61/162 76/58/162
f 58/158/163 49/60/163 48/48/163 57/157/163
f 66/74/164 58/158/164 57/157/164 61/69/164
f 49/60/165 58/158/165 53/159/165
f 50/50/166 49/60/166 53/159/166
f 50/50/167 53/159/167 63/160/167
f 46/52/168 45/51/168 54/62/168
f 64/57/169 50/50/169 63/160/169
f 46/52/170 54/62/170 55/67/170
f 40/45/171 77/63/171 52/55/171
f 57/157/172 56/156/172 61/69/172
f 62/76/173 53/159/173 58/158/173 66/74/173
f 68/65/174 54/62/174 52/55/174 67/64/174
f 60/66/175 61/69/175 56/156/175 55/67/175
f 53/159/176 62/76/176 63/160/176
f 72/79/177 63/160/177 62/76/177 71/75/177
f 69/68/178 65/70/178 61/69/178 60/66/178
f 64/57/179 63/160/179 72/79/179
f 64/57/180 72/79/180 73/61/180
f 96/87/181 73/61/181 72/79/181 87/80/181
f 61/69/182 70/71/182 66/74/182
f 59/27/183 82/73/183 77/63/183
f 66/74/184 75/77/184 71/75/184
f 69/68/185 68/65/185 78/94/185
f 69/68/186 78/94/186 79/85/186
f 79/85/187 74/83/187 65/70/187 69/68/187
f 78/94/188 68/65/188 67/64/188 88/82/188
f 76/58/189 73/61/189 96/87/189
f 70/71/190 65/70/190 74/83/190
f 70/71/191 74/83/191 75/77/191
f 90/98/192 79/85/192 78/94/192 89/93/192
f 75/77/193 85/84/193 80/81/193
f 87/80/194 81/78/194 91/96/194
f 98/107/195 90/98/195 89/93/195 97/113/195
f 83/86/196 79/85/196 90/98/196
f 74/83/197 84/89/197 85/84/197
f 77/63/198 92/91/198 88/82/198
f 81/78/199 80/81/199 86/92/199
f 81/78/200 86/92/200 91/96/200
f 87/80/201 100/97/201 96/87/201
f 84/89/202 83/86/202 93/99/202
f 94/104/203 95/95/203 84/89/203 93/99/203
f 93/99/204 90/98/204 98/107/204
f 97/113/205 89/93/205 88/82/205 105/102/205
f 82/73/206 131/101/206 92/91/206
f 104/121/207 99/103/207 94/104/207 108/110/207
f 86/92/208 99/103/208 91/96/208
f 100/97/209 91/96/209 109/105/209
f 96/87/210 110/106/210 111/88/210
f 93/99/211 103/109/211 94/104/211
f 102/108/212 98/107/212 101/114/212
f 112/115/213 107/116/213 102/108/213 101/114/213
f 92/91/214 118/111/214 105/102/214
f 99/103/215 104/121/215 109/105/215
f 97/113/216 106/112/216 101/114/216
f 127/119/217 111/88/217 110/106/217 117/161/217
f 103/109/218 102/108/218 107/116/218
f 103/109/219 107/116/219 108/110/219
f 116/123/220 122/162/220 110/106/220 109/105/220
f 112/115/221 106/112/221 114/122/221
f 121/133/222 113/125/222 107/130/222 120/132/222
f 110/106/223 122/162/223 117/161/223
f 115/131/224 112/127/224 119/129/224
f 129/146/225 121/133/225 120/132/225 124/135/225
f 120/132/226 115/131/226 124/135/226
f 126/126/227 113/125/227 125/134/227
f 119/129/228 114/128/228 128/136/228
f 122/138/229 116/124/229 126/126/229
f 114/128/230 132/142/230 128/136/230
f 117/149/231 122/138/231 137/139/231
f 124/135/232 119/129/232 123/137/232
f 133/148/233 134/144/233 124/135/233 123/137/233
f 121/133/234 129/146/234 125/134/234
f 124/135/235 135/145/235 129/146/235
f 130/143/236 125/134/236 136/147/236
f 143/155/237 136/147/237 135/145/237 142/163/237
f 130/143/238 138/150/238 137/139/238
f 133/148/239 128/136/239 140/151/239
f 117/149/240 146/53/240 127/11/240
f 139/15/241 6/2/241 132/142/241 131/141/241
f 141/152/242 142/163/242 134/144/242 133/148/242
f 136/147/243 143/155/243 144/154/243
f 132/142/244 6/2/244 2/1/244
f 138/150/245 136/147/245 144/154/245
f 132/142/246 2/1/246 140/151/246
f 137/139/247 145/54/247 146/53/247
f 11/4/248 144/154/248 143/155/248 10/14/248
f 135/145/249 134/144/249 142/163/249
f 142/163/250 3/9/250 143/155/250
f 144/154/251 11/4/251 4/6/251
f 141/152/252 140/151/252 7/19/252
f 145/54/253 138/150/253 12/18/253
f 142/163/254 141/152/254 8/7/254
f 3/9/255 142/163/255 8/7/255
