# Blender 5.0.0
# www.blender.org
mtllib prep_throw_ball0020.mtl
o Sphere
v -2.152747 6.532470 0.864080
v -2.171875 6.026873 0.465830
v -2.502814 5.070420 0.398387
v -2.850821 4.828980 0.700432
v -3.270734 5.173657 1.472369
v -2.108430 6.177537 0.589353
v -2.084539 5.611714 0.444099
v -2.232420 5.255527 0.406176
v -2.172604 5.023564 0.583222
v -2.477504 4.884074 0.561137
v -2.603990 4.805384 0.657355
v -2.897063 4.768863 1.001145
v -1.912396 5.802160 0.644628
v -2.613025 4.729199 0.870178
v -1.931767 5.383883 0.632264
v -2.156653 4.883375 0.794535
v -2.375549 4.753831 0.895657
v -1.886035 5.206325 0.830990
v -2.147804 4.848690 0.994436
v -2.453043 4.738521 1.139099
v -2.663527 4.729951 1.145830
v -1.840765 5.942633 0.826806
v -1.770502 5.482098 0.964069
v -1.953341 5.030284 1.104679
v -2.235476 4.819915 1.198191
v -2.982167 4.871544 1.313392
v -1.768275 5.783953 0.948659
v -1.827267 5.260326 1.200142
v -2.047668 4.992449 1.320060
v -2.449140 4.851458 1.444046
v -2.753082 4.825491 1.388061
v -1.900917 6.174305 0.862098
v -1.742078 5.622653 1.255438
v -1.918043 5.241984 1.447518
v -2.131570 5.049790 1.523829
v -1.764406 5.949211 1.312046
v -1.886498 5.477364 1.582624
v -2.472947 5.048766 1.694929
v -2.769791 5.068481 1.704326
v -1.954037 6.431295 1.159110
v -1.819078 6.167448 1.153580
v -1.831499 5.804490 1.563966
v -2.182865 5.330982 1.791770
v -3.105885 5.024785 1.469365
v -1.863709 6.218352 1.432146
v -1.899554 6.090561 1.635428
v -1.981144 5.839983 1.783917
v -2.088273 5.719839 1.867308
v -2.308742 5.581166 1.957188
v -2.580616 5.307084 1.899692
v -2.943068 5.060438 1.635795
v -1.996395 6.497875 1.375607
v -2.622621 5.709944 2.064476
v -2.048265 6.450671 1.634004
v -2.117530 6.290515 1.830984
v -2.209987 6.188186 1.941323
v -2.325364 6.074598 2.022097
v -2.430387 5.920310 2.061242
v -2.020773 6.464787 0.985092
v -2.285332 6.574395 1.805184
v -2.489443 6.385791 2.019473
v -2.815222 5.930362 2.093493
v -2.864897 5.559947 1.996996
v -2.969454 5.412099 1.899412
v -2.651475 6.637560 1.937385
v -2.718841 6.237885 2.091822
v -2.241823 6.762589 1.394030
v -2.280608 6.749136 1.567329
v -2.489492 6.762218 1.772735
v -2.777381 6.527811 2.008550
v -3.021020 6.116193 2.061935
v -3.174717 5.743536 1.944143
v -3.151919 5.393189 1.794431
v -3.019022 6.755256 1.829402
v -3.022990 6.476483 1.990922
v -3.240181 5.292241 1.645228
v -2.216887 6.745113 1.203970
v -2.630506 6.949232 1.498676
v -2.809556 6.895470 1.687272
v -3.240207 6.372052 1.921586
v -3.344864 6.080993 1.887353
v -2.238062 6.693374 1.003154
v -3.076131 6.867657 1.653983
v -3.319384 6.762280 1.564934
v -3.296532 6.599781 1.773901
v -3.500159 6.317410 1.694058
v -3.420957 5.778412 1.758186
v -2.523765 6.925097 1.217648
v -2.821032 6.992877 1.289098
v -3.040171 6.954783 1.442566
v -3.559401 6.008804 1.633855
v -2.465648 6.823246 0.976387
v -3.348547 6.809284 1.353455
v -3.561223 6.533043 1.306559
v -3.524908 6.493740 1.540424
v -3.434873 5.569441 1.643046
v -2.940543 6.929088 1.031533
v -3.188005 6.886212 1.138258
v -3.654401 6.225089 1.359266
v -3.585727 5.761723 1.501646
v -3.142697 6.788040 0.872560
v -3.375814 6.713677 1.016388
v -3.502993 6.584038 1.058237
v -3.681403 6.083475 1.081011
v -2.677200 6.827964 0.851389
v -2.872114 6.777590 0.770906
v -3.442077 6.389852 0.724555
v -3.601450 6.330633 0.969584
v -3.672287 5.863382 1.272761
v -3.578938 5.537332 1.321821
v -3.410783 5.355350 1.487874
v -3.127861 6.604515 0.650120
v -3.583334 5.985390 0.754480
v -2.712108 6.563339 0.551623
v -3.302605 6.303003 0.552060
v -3.631165 5.677158 0.958353
v -3.458059 5.251293 1.167744
v -2.475760 6.632136 0.688499
v -3.007071 6.310588 0.414694
v -3.335208 5.986288 0.469140
v -3.442337 5.866144 0.552532
v -3.550493 5.410980 1.061919
v -2.857615 6.072773 0.300486
v -3.151184 5.871871 0.336436
v -3.421534 5.579258 0.568060
v -3.528187 5.475305 0.796804
v -3.332976 5.130644 1.293325
v -2.652743 6.269744 0.376960
v -3.213494 5.517941 0.395126
v -3.344293 5.290124 0.629313
v -2.302816 6.586882 0.755338
v -2.361450 6.303748 0.482058
v -2.675144 5.846337 0.242825
v -2.853713 5.619978 0.243297
v -2.954832 5.463528 0.284984
v -3.126770 5.273390 0.423061
v -3.343537 5.115033 0.866095
v -3.101868 4.961522 0.690161
v -2.091713 6.347394 0.731973
v -2.336469 5.926849 0.339182
v -2.402462 5.589934 0.274514
v -2.598139 5.285606 0.285550
v -2.772009 5.068567 0.399064
v -2.889234 4.980100 0.507162
v -3.103573 4.883542 0.974640
v -3.213755 4.971614 1.122812
vn 0.6909 0.2616 -0.6739
vn -0.1480 -0.9291 -0.3389
vn 0.3668 -0.5028 -0.7827
vn -0.6161 -0.6899 0.3799
vn 0.3842 -0.7557 -0.5304
vn 0.7341 0.3928 -0.5539
vn -0.1494 -0.9885 -0.0247
vn 0.6401 -0.1864 -0.7454
vn -0.3072 -0.9186 0.2487
vn 0.7319 -0.4157 -0.5399
vn 0.7948 0.2878 -0.5344
vn 0.1062 -0.9939 -0.0287
vn 0.6990 0.5536 -0.4527
vn 0.3733 -0.9272 0.0297
vn 0.9022 0.0878 -0.4224
vn 0.7611 -0.6143 -0.2080
vn 0.9339 -0.3438 -0.0984
vn 0.6312 -0.7624 0.1425
vn 0.2495 -0.9091 0.3335
vn 0.0492 -0.9368 0.3463
vn 0.4580 -0.7885 0.4105
vn 0.9262 0.2791 -0.2535
vn 0.9957 -0.0120 -0.0913
vn -0.3257 -0.7980 0.5070
vn 0.8002 -0.5437 0.2533
vn 0.9206 -0.2608 0.2906
vn 0.6818 -0.5811 0.4443
vn 0.3061 -0.7340 0.6063
vn 0.9796 0.1788 -0.0917
vn 0.8569 0.4556 -0.2410
vn 0.8144 -0.1044 0.5709
vn 0.7227 -0.1816 0.6669
vn 0.2510 -0.5349 0.8068
vn 0.9470 0.3067 0.0957
vn 0.9313 0.2111 0.2969
vn -0.4929 -0.8577 0.1463
vn 0.8901 0.4545 0.0344
vn -0.1498 -0.5525 0.8199
vn -0.4781 -0.6374 0.6043
vn -0.5616 -0.6326 0.5333
vn 0.5089 -0.2818 0.8134
vn -0.3618 -0.5764 0.7327
vn 0.8527 0.4562 0.2545
vn 0.7451 0.6472 -0.1612
vn 0.7341 0.6782 0.0339
vn 0.6484 0.6073 0.4590
vn 0.6652 0.4475 0.5977
vn 0.5393 0.6735 0.5055
vn 0.1625 0.3988 0.9025
vn 0.6634 0.6587 -0.3551
vn -0.1148 0.0414 0.9925
vn -0.1214 0.2513 0.9603
vn -0.4655 -0.0864 0.8808
vn -0.6090 -0.1769 0.7732
vn -0.3756 0.1772 0.9097
vn 0.5054 0.8628 -0.0130
vn -0.4792 0.0694 0.8749
vn -0.4150 0.4605 0.7847
vn -0.1553 0.8080 0.5683
vn -0.6848 -0.4766 0.5513
vn -0.4932 0.6506 0.5775
vn -0.6654 -0.5555 0.4987
vn 0.5012 0.8237 -0.2651
vn -0.6646 0.2838 0.6912
vn 0.2225 0.9749 0.0008
vn -0.7198 0.5077 0.4735
vn -0.7418 0.3783 0.5537
vn -0.8182 -0.2010 0.5386
vn -0.4731 0.8400 0.2657
vn 0.5724 0.6885 -0.4454
vn 0.2181 0.9168 -0.3345
vn -0.9104 0.1916 0.3666
vn -0.9285 0.3147 0.1971
vn -0.9510 -0.0266 0.3080
vn -0.8391 -0.3554 0.4118
vn -0.6036 0.7785 -0.1720
vn -0.7286 0.6722 -0.1317
vn -0.9077 0.3985 -0.1310
vn 0.3981 0.7578 -0.5170
vn -0.0143 0.8628 -0.5053
vn -0.9396 -0.2310 0.2527
vn -0.3131 0.8722 -0.3757
vn -0.2081 0.7476 -0.6307
vn -0.5166 0.5205 -0.6798
vn -0.7136 -0.5832 0.3882
vn -0.8374 0.2567 -0.4826
vn -0.9325 0.1545 -0.3265
vn 0.1720 0.7285 -0.6631
vn -0.9600 -0.0348 -0.2779
vn 0.0827 0.7423 -0.6649
vn -0.9924 -0.1017 -0.0696
vn -0.9022 -0.1316 -0.4107
vn -0.1313 0.5863 -0.7994
vn -0.6879 0.2493 -0.6817
vn -0.8407 -0.0899 -0.5339
vn -0.4096 0.2889 -0.8653
vn -0.0503 0.4065 -0.9123
vn -0.8589 -0.4764 -0.1878
vn 0.4211 0.5833 -0.6946
vn 0.2761 0.5786 -0.7675
vn -0.7939 -0.3214 -0.5162
vn -0.3286 -0.0391 -0.9437
vn -0.6600 -0.3121 -0.6833
vn -0.8037 -0.4796 -0.3521
vn 0.0689 0.2980 -0.9521
vn -0.7521 -0.6589 0.0121
vn -0.4233 -0.2496 -0.8709
vn -0.5970 -0.5488 -0.5851
vn 0.2800 0.3565 -0.8914
vn 0.2407 0.1373 -0.9608
vn -0.6283 -0.7493 -0.2092
vn 0.6041 0.5853 -0.5408
vn -0.3817 -0.7634 -0.5210
vn 0.5406 0.1570 -0.8265
vn -0.4454 -0.8623 -0.2409
vn 0.4736 -0.1035 -0.8746
vn 0.0026 -0.6576 -0.7534
vn 0.3260 -0.5964 -0.7335
vn 0.6576 0.1767 -0.7323
vn -0.2359 -0.9453 -0.2253
vn -0.5783 -0.7600 0.2966
vn 0.2796 -0.8628 -0.4211
vn 0.9025 -0.0289 -0.4298
vn 0.7580 0.3115 -0.5730
vn 0.1323 -0.9350 -0.3291
vn 0.7664 -0.0165 -0.6422
vn 0.6538 -0.3453 -0.6733
vn 0.0410 -0.9991 0.0102
vn -0.2647 -0.9352 0.2354
vn 0.7179 -0.5539 -0.4217
vn 0.4415 -0.8806 -0.1723
vn 0.7188 -0.6789 -0.1496
vn 0.7492 0.4953 -0.4397
vn 0.3384 -0.9398 0.0486
vn -0.0392 -0.7907 0.6110
vn 0.9036 -0.1944 -0.3816
vn 0.0111 -0.9288 0.3704
vn 0.8872 -0.4553 -0.0746
vn 0.6124 -0.7754 0.1540
vn 0.7990 -0.5449 0.2542
vn 0.3918 -0.8059 0.4439
vn 0.9397 0.2495 -0.2340
vn 0.9728 -0.2313 0.0167
vn -0.3433 -0.7916 0.5054
vn 0.6454 -0.4544 0.6140
vn -0.1973 -0.7824 0.5907
vn 0.9029 -0.2985 0.3092
vn 0.9961 0.0759 -0.0451
vn 0.8640 0.4468 -0.2321
vn 0.3567 -0.6096 0.7080
vn 0.9633 0.0195 0.2677
vn 0.9272 -0.1360 0.3489
vn 0.7173 0.1460 0.6813
vn 0.9339 0.1399 0.3291
vn 0.6438 -0.2939 0.7066
vn -0.0168 -0.6254 0.7801
vn 0.2598 -0.4382 0.8605
vn 0.8965 0.4384 0.0635
vn -0.2731 -0.5900 0.7598
vn 0.8297 0.0587 0.5550
vn 0.5788 0.0216 0.8152
vn -0.4448 -0.5973 0.6673
vn 0.4446 -0.1021 0.8899
vn 0.2193 0.1148 0.9689
vn 0.2402 -0.2049 0.9488
vn 0.1670 -0.3583 0.9186
vn -0.0220 -0.3805 0.9245
vn 0.8566 0.3552 0.3743
vn -0.1303 -0.4803 0.8674
vn 0.7789 0.3238 0.5371
vn 0.7622 0.6455 -0.0494
vn 0.4042 0.2206 0.8877
vn 0.0825 -0.0365 0.9959
vn 0.7293 0.6395 0.2430
vn 0.4937 0.3732 0.7855
vn -0.1233 -0.2347 0.9642
vn -0.2903 -0.1910 0.9377
vn 0.3686 0.5096 0.7774
vn -0.3470 -0.3332 0.8767
vn -0.4320 -0.3780 0.8189
vn -0.5989 -0.3505 0.7201
vn 0.1094 0.2947 0.9493
vn 0.6924 0.6777 -0.2476
vn -0.1720 0.1896 0.9667
vn 0.4083 0.8381 0.3618
vn 0.2320 0.8549 0.4640
vn 0.0651 0.7150 0.6961
vn 0.4567 0.8807 0.1256
vn -0.6193 -0.4298 0.6571
vn -0.0510 0.5839 0.8102
vn -0.1649 0.4962 0.8524
vn -0.0195 0.9710 0.2381
vn -0.4490 0.4053 0.7963
vn -0.7467 -0.0933 0.6585
vn -0.2327 0.9655 -0.1168
vn -0.1409 0.9236 0.3566
vn -0.4856 0.6636 0.5691
vn 0.4833 0.8422 -0.2391
vn -0.6689 0.1550 0.7270
vn -0.7662 0.0218 0.6422
vn -0.8094 -0.2412 0.5355
vn -0.4610 0.8507 0.2526
vn -0.7867 0.5741 0.2269
vn -0.4277 0.9039 0.0041
vn 0.1459 0.9406 -0.3065
vn 0.4821 0.7522 -0.4492
vn -0.9577 0.2829 -0.0535
vn -0.9139 0.0986 0.3938
vn -0.9431 -0.0730 0.3243
vn -0.8253 -0.3893 0.4090
vn -0.7862 0.6152 -0.0580
vn -0.4835 0.7910 -0.3747
vn -0.5505 0.6212 -0.5578
vn 0.3306 0.7809 -0.5300
vn -0.9962 0.0298 0.0815
vn -0.1661 0.8330 -0.5278
vn -0.8110 -0.5105 0.2857
vn -0.7062 0.5482 -0.4480
vn -0.7941 0.4511 -0.4075
vn -0.9612 -0.2740 0.0327
vn -0.1074 0.6708 -0.7338
vn -0.7380 0.2109 -0.6410
vn -0.8910 -0.4390 0.1159
vn -0.3803 0.4779 -0.7918
vn -0.5954 -0.0278 -0.8029
vn -0.4475 0.2693 -0.8528
vn -0.8737 -0.1333 -0.4679
vn -0.0335 0.5060 -0.8619
vn -0.9254 -0.3431 -0.1611
vn 0.2319 0.5315 -0.8147
vn -0.8401 -0.5370 -0.0764
vn -0.2905 0.2597 -0.9210
vn -0.1852 0.1216 -0.9751
vn -0.6520 -0.0880 -0.7531
vn -0.4047 -0.0798 -0.9110
vn -0.6646 -0.3205 -0.6749
vn -0.2264 -0.3656 -0.9028
vn -0.6861 -0.5860 -0.4311
vn 0.1986 0.2864 -0.9373
vn -0.7412 -0.6637 0.1007
vn 0.5323 0.5228 -0.6658
vn 0.0644 -0.0670 -0.9957
vn -0.3459 -0.5066 -0.7897
vn 0.5197 0.4001 -0.7549
vn -0.4982 -0.5866 -0.6385
vn 0.4319 0.3446 -0.8335
vn -0.6767 -0.7331 -0.0675
vn -0.0788 -0.7234 -0.6859
vn -0.0969 -0.1973 -0.9755
vn 0.0010 -0.4641 -0.8858
vn -0.1776 -0.7921 -0.5840
vn 0.4650 0.0782 -0.8818
vn -0.4478 -0.8616 -0.2389
vn 0.2892 -0.2198 -0.9317
vn 0.2669 -0.3522 -0.8971
vt 0.781230 0.812500
vt 0.762032 0.875000
vt 0.685473 0.777944
vt 0.734697 0.375000
vt 0.703125 0.312500
vt 0.764235 0.312500
vt 0.741874 0.599249
vt 0.704616 0.531266
vt 0.763980 0.500000
vt 0.734375 0.000000
vt 0.879629 0.062500
vt 0.593677 0.062500
vt 0.670132 0.472235
vt 0.734536 0.437500
vt 0.734224 0.937500
vt 0.605595 0.875000
vt 0.658359 0.250000
vt 0.719918 0.218999
vt 0.734375 0.717281
vt 0.678319 0.660608
vt 0.606077 0.187500
vt 0.641330 0.592355
vt 0.623673 0.812500
vt 0.673680 0.375000
vt 0.639230 0.312500
vt 0.640625 1.000000
vt 0.479138 0.937500
vt 0.639064 0.437500
vt 0.612180 0.375000
vt 0.595563 0.750000
vt 0.606567 0.500000
vt 0.603325 0.667055
vt 0.578286 0.562500
vt 0.578286 0.437500
vt 0.577540 0.283466
vt 0.543444 0.396147
vt 0.512752 0.812500
vt 0.546915 0.655822
vt 0.503540 0.125000
vt 0.660224 0.125000
vt 0.544067 0.500000
vt 0.509405 0.537235
vt 0.515588 0.281661
vt 0.510998 0.724803
vt 0.449506 0.875000
vt 0.487180 0.625000
vt 0.453286 0.562500
vt 0.450317 0.500000
vt 0.485851 0.406417
vt 0.453088 0.281661
vt 0.455926 0.750000
vt 0.445771 0.665313
vt 0.799126 0.125000
vt 0.779637 0.187500
vt 0.402284 0.812500
vt 0.497588 0.187500
vt 0.386121 0.187500
vt 0.328120 0.062500
vt 0.453125 0.000000
vt 0.437500 0.406180
vt 0.347717 0.125000
vt 0.390588 0.718339
vt 0.293360 0.875000
vt 0.308534 0.812500
vt 0.316528 0.750000
vt 0.343750 0.656371
vt 0.393429 0.625000
vt 0.296915 0.655822
vt 0.343750 0.531273
vt 0.297036 0.562500
vt 0.294067 0.500000
vt 0.328125 1.000000
vt 0.230145 0.937500
vt 0.328286 0.437500
vt 0.296914 0.344178
vt 0.343750 0.343629
vt 0.265786 0.437500
vt 0.234338 0.281661
vt 0.296902 0.219059
vt 0.214815 0.187500
vt 0.237180 0.375000
vt 0.199790 0.812500
vt 0.237635 0.520573
vt 0.203286 0.437500
vt 0.237180 0.625000
vt 0.203286 0.562500
vt 0.190964 0.125000
vt 0.113605 0.062500
vt 0.169067 0.500000
vt 0.203125 0.000000
vt 0.137012 0.875000
vt 0.176363 0.337227
vt 0.171838 0.718339
vt 0.234338 0.718339
vt 0.148421 0.399333
vt 0.160278 0.250000
vt 0.121065 0.187500
vt 0.174680 0.625000
vt 0.134405 0.537235
vt 0.140625 1.000000
vt 0.030235 0.937500
vt 0.075252 0.812500
vt 0.102021 0.334687
vt 0.109536 0.437500
vt 0.066529 0.250000
vt 0.055088 0.153620
vt 0.112179 0.625000
vt 0.078286 0.562500
vt 0.075317 0.500000
vt 0.047036 0.437500
vt 0.032456 0.875000
vt 0.048167 0.750000
vt 0.108913 0.719958
vt 0.062500 0.658651
vt 0.015664 0.655822
vt 0.018885 0.520574
vt 0.000000 0.562500
vt 0.015625 0.000000
vt 0.000000 0.062500
vt 0.000000 0.399333
vt 0.046914 0.344178
vt 0.000000 0.784407
vt 0.000000 0.273040
vt 0.991904 0.273040
vt 0.992171 0.399333
vt 0.937867 0.282145
vt 1.000000 0.655822
vt 0.975379 0.784407
vt 0.953164 0.655822
vt 1.000000 0.500000
vt 0.984536 0.562500
vt 0.950317 0.500000
vt 0.953286 0.437500
vt 0.924679 0.375000
vt 0.915655 0.537235
vt 0.910279 0.750000
vt 0.906250 0.656371
vt 0.965747 0.187500
vt 0.868449 0.212346
vt 0.978825 0.875000
vt 0.921769 0.937500
vt 0.872374 0.843190
vt 0.887823 0.312500
vt 0.859536 0.562500
vt 0.856567 0.500000
vt 0.890786 0.437500
vt 0.855944 0.396148
vt 0.859414 0.655822
vt 0.939862 0.125000
vt 0.812867 0.282145
vt 0.814726 0.750000
vt 0.796945 0.653777
vt 0.828125 1.000000
vt 0.798190 0.375000
vt 0.797036 0.437500
vt 0.390786 0.562500
vt 0.387817 0.500000
vt 0.390786 0.437500
vt 0.390665 0.344178
vt 0.378980 0.250000
vt 0.000000 0.125000
vt 0.000000 0.187500
vt 0.801816 0.543181
s 0
f 2/1/1 6/2/1 13/3/1
f 11/4/2 14/5/2 4/6/2
f 8/7/3 9/8/3 3/9/3
f 5/10/4 127/11/4 44/12/4
f 9/8/5 16/13/5 10/14/5
f 139/15/6 32/16/6 6/2/6
f 14/5/7 21/17/7 12/18/7
f 7/19/8 15/20/8 8/7/8
f 12/18/9 21/17/9 31/21/9
f 15/20/10 18/22/10 9/8/10
f 32/16/11 22/23/11 13/3/11
f 14/5/12 17/24/12 20/25/12
f 139/15/13 1/26/13 59/27/13
f 19/28/14 25/29/14 17/24/14
f 22/23/15 27/30/15 13/3/15
f 16/13/16 18/22/16 24/31/16
f 18/22/17 23/32/17 28/33/17
f 24/31/18 29/34/18 19/28/18
f 20/25/19 25/29/19 30/35/19
f 20/25/20 30/35/20 21/17/20
f 29/34/21 35/36/21 25/29/21
f 32/16/22 41/37/22 22/23/22
f 23/32/23 27/30/23 33/38/23
f 31/21/24 51/39/24 26/40/24
f 24/31/25 28/33/25 34/41/25
f 28/33/26 33/38/26 37/42/26
f 34/41/27 35/36/27 29/34/27
f 30/35/28 35/36/28 38/43/28
f 41/37/29 36/44/29 27/30/29
f 32/16/30 59/27/30 40/45/30
f 37/42/31 42/46/31 47/47/31
f 37/42/32 47/47/32 48/48/32
f 38/43/33 43/49/33 50/50/33
f 41/37/34 45/51/34 36/44/34
f 36/44/35 45/51/35 46/52/35
f 26/40/36 146/53/36 145/54/36 12/18/36
f 41/37/37 40/45/37 52/55/37
f 39/56/38 50/50/38 64/57/38
f 44/12/39 51/39/39 76/58/39
f 5/59/40 44/12/40 76/58/40
f 48/48/41 49/60/41 43/49/41
f 64/57/42 73/61/42 51/39/42
f 52/55/43 54/62/43 45/51/43
f 59/27/44 77/63/44 40/45/44
f 52/55/45 77/63/45 67/64/45
f 54/62/46 68/65/46 60/66/46
f 54/62/47 60/66/47 55/67/47
f 60/66/48 68/65/48 69/68/48
f 61/69/49 65/70/49 70/71/49
f 59/27/50 1/72/50 82/73/50
f 66/74/51 71/75/51 62/76/51
f 70/71/52 75/77/52 66/74/52
f 71/75/53 81/78/53 72/79/53
f 72/79/54 81/78/54 87/80/54
f 75/77/55 80/81/55 71/75/55
f 67/64/56 77/63/56 88/82/56
f 71/75/57 80/81/57 81/78/57
f 74/83/58 85/84/58 75/77/58
f 74/83/59 79/85/59 83/86/59
f 96/87/60 111/88/60 76/58/60
f 74/83/61 83/86/61 84/89/61
f 5/90/62 76/58/62 111/88/62
f 77/63/63 82/73/63 92/91/63
f 85/84/64 86/92/64 80/81/64
f 88/82/65 89/93/65 78/94/65
f 84/89/66 95/95/66 85/84/66
f 85/84/67 95/95/67 86/92/67
f 87/80/68 91/96/68 100/97/68
f 83/86/69 90/98/69 93/99/69
f 82/73/70 1/100/70 131/101/70
f 92/91/71 105/102/71 88/82/71
f 86/92/72 95/95/72 99/103/72
f 94/104/73 99/103/73 95/95/73
f 99/103/74 109/105/74 91/96/74
f 100/97/75 110/106/75 96/87/75
f 93/99/76 98/107/76 102/108/76
f 93/99/77 102/108/77 103/109/77
f 103/109/78 108/110/78 94/104/78
f 131/101/79 118/111/79 92/91/79
f 105/102/80 106/112/80 97/113/80
f 100/97/81 109/105/81 110/106/81
f 97/113/82 101/114/82 98/107/82
f 101/114/83 106/112/83 112/115/83
f 107/116/84 112/115/84 115/117/84
f 5/118/85 111/88/85 127/119/85
f 107/116/86 113/120/86 108/110/86
f 108/110/87 113/120/87 104/121/87
f 105/102/88 118/111/88 114/122/88
f 104/121/89 113/120/89 116/123/89
f 105/102/90 114/122/90 106/112/90
f 104/121/91 116/123/91 109/105/91
f 116/124/92 113/125/92 126/126/92
f 112/127/93 114/128/93 119/129/93
f 107/130/94 115/131/94 120/132/94
f 121/133/95 125/134/95 113/125/95
f 115/131/96 119/129/96 124/135/96
f 119/129/97 128/136/97 123/137/97
f 122/138/98 126/126/98 137/139/98
f 118/140/99 131/141/99 132/142/99
f 118/140/100 132/142/100 114/128/100
f 126/126/101 125/134/101 130/143/101
f 124/135/102 134/144/102 135/145/102
f 129/146/103 136/147/103 125/134/103
f 130/143/104 137/139/104 126/126/104
f 123/137/105 128/136/105 133/148/105
f 137/139/106 146/53/106 117/149/106
f 135/145/107 136/147/107 129/146/107
f 130/143/108 136/147/108 138/150/108
f 132/142/109 140/151/109 128/136/109
f 133/148/110 140/151/110 141/152/110
f 137/139/111 138/150/111 145/54/111
f 131/141/112 1/153/112 139/15/112
f 138/150/113 144/154/113 4/6/113
f 140/151/114 2/1/114 7/19/114
f 4/6/115 12/18/115 138/150/115
f 141/152/116 7/19/116 8/7/116
f 3/9/117 10/14/117 143/155/117
f 3/9/118 9/8/118 10/14/118
f 7/19/119 2/1/119 13/3/119
f 4/6/120 14/5/120 12/18/120
f 44/12/121 127/11/121 146/53/121 26/40/121
f 17/24/122 11/4/122 10/14/122 16/13/122
f 23/32/123 15/20/123 13/3/123 27/30/123
f 6/2/124 32/16/124 13/3/124
f 11/4/125 17/24/125 14/5/125
f 7/19/126 13/3/126 15/20/126
f 9/8/127 8/7/127 15/20/127
f 21/17/128 14/5/128 20/25/128
f 12/18/129 31/21/129 26/40/129
f 9/8/130 18/22/130 16/13/130
f 16/13/131 19/28/131 17/24/131
f 16/13/132 24/31/132 19/28/132
f 139/15/133 59/27/133 32/16/133
f 20/25/134 17/24/134 25/29/134
f 38/43/135 39/56/135 31/21/135 30/35/135
f 15/20/136 23/32/136 18/22/136
f 21/17/137 30/35/137 31/21/137
f 24/31/138 18/22/138 28/33/138
f 19/28/139 29/34/139 25/29/139
f 24/31/140 34/41/140 29/34/140
f 30/35/141 25/29/141 35/36/141
f 22/23/142 41/37/142 27/30/142
f 28/33/143 23/32/143 33/38/143
f 44/12/144 26/40/144 51/39/144
f 43/49/145 35/36/145 34/41/145 37/42/145
f 51/39/146 31/21/146 39/56/146
f 34/41/147 28/33/147 37/42/147
f 33/38/148 27/30/148 36/44/148
f 32/16/149 40/45/149 41/37/149
f 38/43/150 35/36/150 43/49/150
f 33/38/151 36/44/151 42/46/151
f 37/42/152 33/38/152 42/46/152
f 55/67/153 56/156/153 47/47/153 46/52/153
f 36/44/154 46/52/154 42/46/154
f 37/42/155 48/48/155 43/49/155
f 39/56/156 38/43/156 50/50/156
f 50/50/157 43/49/157 49/60/157
f 41/37/158 52/55/158 45/51/158
f 39/56/159 64/57/159 51/39/159
f 47/47/160 42/46/160 46/52/160
f 56/156/161 57/157/161 48/48/161 47/47/161
f 51/39/162 73/61/162 76/58/162
f 58/158/163 49/60/163 48/48/163 57/157/163
f 66/74/164 58/158/164 57/157/164 61/69/164
f 49/60/165 58/158/165 53/159/165
f 50/50/166 49/60/166 53/159/166
f 50/50/167 53/159/167 63/160/167
f 46/52/168 45/51/168 54/62/168
f 64/57/169 50/50/169 63/160/169
f 46/52/170 54/62/170 55/67/170
f 40/45/171 77/63/171 52/55/171
f 57/157/172 56/156/172 61/69/172
f 62/76/173 53/159/173 58/158/173 66/74/173
f 68/65/174 54/62/174 52/55/174 67/64/174
f 60/66/175 61/69/175 56/156/175 55/67/175
f 53/159/176 62/76/176 63/160/176
f 72/79/177 63/160/177 62/76/177 71/75/177
f 69/68/178 65/70/178 61/69/178 60/66/178
f 64/57/179 63/160/179 72/79/179
f 64/57/180 72/79/180 73/61/180
f 96/87/181 73/61/181 72/79/181 87/80/181
f 61/69/182 70/71/182 66/74/182
f 59/27/183 82/73/183 77/63/183
f 66/74/184 75/77/184 71/75/184
f 69/68/185 68/65/185 78/94/185
f 69/68/186 78/94/186 79/85/186
f 79/85/187 74/83/187 65/70/187 69/68/187
f 78/94/188 68/65/188 67/64/188 88/82/188
f 76/58/189 73/61/189 96/87/189
f 70/71/190 65/70/190 74/83/190
f 70/71/191 74/83/191 75/77/191
f 90/98/192 79/85/192 78/94/192 89/93/192
f 75/77/193 85/84/193 80/81/193
f 87/80/194 81/78/194 91/96/194
f 98/107/195 90/98/195 89/93/195 97/113/195
f 83/86/196 79/85/196 90/98/196
f 74/83/197 84/89/197 85/84/197
f 77/63/198 92/91/198 88/82/198
f 81/78/199 80/81/199 86/92/199
f 81/78/200 86/92/200 91/96/200
f 87/80/201 100/97/201 96/87/201
f 84/89/202 83/86/202 93/99/202
f 94/104/203 95/95/203 84/89/203 93/99/203
f 93/99/204 90/98/204 98/107/204
f 97/113/205 89/93/205 88/82/205 105/102/205
f 82/73/206 131/101/206 92/91/206
f 104/121/207 99/103/207 94/104/207 108/110/207
f 86/92/208 99/103/208 91/96/208
f 100/97/209 91/96/209 109/105/209
f 96/87/210 110/106/210 111/88/210
f 93/99/211 103/109/211 94/104/211
f 102/108/212 98/107/212 101/114/212
f 112/115/213 107/116/213 102/108/213 101/114/213
f 92/91/214 118/111/214 105/102/214
f 99/103/215 104/121/215 109/105/215
f 97/113/216 106/112/216 101/114/216
f 127/119/217 111/88/217 110/106/217 117/161/217
f 103/109/218 102/108/218 107/116/218
f 103/109/219 107/116/219 108/110/219
f 116/123/220 122/162/220 110/106/220 109/105/220
f 112/115/221 106/112/221 114/122/221
f 121/133/222 113/125/222 107/130/222 120/132/222
f 110/106/223 122/162/223 117/161/223
f 115/131/224 112/127/224 119/129/224
f 129/146/225 121/133/225 120/132/225 124/135/225
f 120/132/226 115/131/226 124/135/226
f 126/126/227 113/125/227 125/134/227
f 119/129/228 114/128/228 128/136/228
f 122/138/229 116/124/229 126/126/229
f 114/128/230 132/142/230 128/136/230
f 117/149/231 122/138/231 137/139/231
f 124/135/232 119/129/232 123/137/232
f 133/148/233 134/144/233 124/135/233 123/137/233
f 121/133/234 129/146/234 125/134/234
f 124/135/235 135/145/235 129/146/235
f 130/143/236 125/134/236 136/147/236
f 143/155/237 136/147/237 135/145/237 142/163/237
f 130/143/238 138/150/238 137/139/238
f 133/148/239 128/136/239 140/151/239
f 117/149/240 146/53/240 127/11/240
f 139/15/241 6/2/241 132/142/241 131/141/241
f 141/152/242 142/163/242 134/144/242 133/148/242
f 136/147/243 143/155/243 144/154/243
f 132/142/244 6/2/244 2/1/244
f 138/150/245 136/147/245 144/154/245
f 132/142/246 2/1/246 140/151/246
f 137/139/247 145/54/247 146/53/247
f 11/4/248 144/154/248 143/155/248 10/14/248
f 135/145/249 134/144/249 142/163/249
f 142/163/250 3/9/250 143/155/250
f 144/154/251 11/4/251 4/6/251
f 141/152/252 140/151/252 7/19/252
f 145/54/253 138/150/253 12/18/253
f 142/163/254 141/152/254 8/7/254
f 3/9/255 142/163/255 8/7/255
