# Blender 5.0.0
# www.blender.org
mtllib prep_throw_ball0029.mtl
o Sphere
v -1.722529 6.705523 0.086230
v -1.842699 6.062357 -0.137143
v -2.331138 5.229481 0.067754
v -2.700908 5.224423 0.407268
v -3.023380 5.988506 1.010346
v -1.750008 6.244208 -0.064230
v -1.827672 5.656045 -0.033806
v -2.034280 5.345019 0.029819
v -2.007288 5.204543 0.263572
v -2.330933 5.131026 0.273864
v -2.464364 5.131067 0.382035
v -2.744038 5.320613 0.702482
v -1.618430 5.887520 0.102521
v -2.477288 5.163572 0.601506
v -1.708283 5.505100 0.212046
v -2.006510 5.172862 0.501052
v -2.238997 5.148261 0.625605
v -1.685076 5.427265 0.449659
v -1.995435 5.233323 0.697031
v -2.307625 5.264873 0.853613
v -2.515396 5.304279 0.855614
v -1.517005 6.085931 0.233122
v -1.519828 5.716564 0.496735
v -1.769485 5.409671 0.752815
v -2.077950 5.321173 0.891778
v -2.797466 5.578512 0.959823
v -1.467520 5.983575 0.394724
v -1.603127 5.637480 0.778598
v -1.859577 5.496127 0.960779
v -2.272261 5.510052 1.104043
v -2.577273 5.523729 1.049880
v -1.535643 6.325933 0.196599
v -1.456309 5.975370 0.727312
v -1.685140 5.755958 1.010715
v -1.923911 5.661566 1.130619
v -1.420988 6.303823 0.684202
v -1.609041 6.027023 1.068729
v -2.252135 5.812423 1.278854
v -2.539809 5.896896 1.272342
v -1.532357 6.710419 0.395949
v -1.444476 6.439457 0.471857
v -1.500818 6.304465 0.958045
v -1.915960 6.054042 1.295997
v -2.886723 5.817113 1.056124
v -1.468268 6.625948 0.714276
v -1.516578 6.612616 0.939035
v -1.632692 6.471377 1.147159
v -1.754619 6.423617 1.256093
v -1.990646 6.385758 1.372812
v -2.305963 6.166209 1.390417
v -2.714065 5.893651 1.205502
v -1.553834 6.881551 0.576252
v -2.272678 6.619025 1.424933
v -1.602059 6.970797 0.828240
v -1.688874 6.932044 1.055489
v -1.792296 6.910082 1.184735
v -1.921325 6.868785 1.289068
v -2.048746 6.768730 1.366915
v -1.599390 6.673139 0.222497
v -1.806914 7.213396 0.943615
v -2.030164 7.185100 1.190891
v -2.423475 6.873554 1.381616
v -2.538487 6.501522 1.398136
v -2.669992 6.343018 1.347172
v -2.150253 7.409586 1.036274
v -2.277230 7.132473 1.293730
v -1.749473 7.182473 0.508527
v -1.782678 7.259732 0.672105
v -1.977066 7.411814 0.852334
v -2.289367 7.369473 1.130233
v -2.595534 7.070920 1.291690
v -2.813905 6.708614 1.285758
v -2.856593 6.314688 1.249353
v -2.495681 7.542899 0.890020
v -2.539808 7.365877 1.120926
v -2.966340 6.171215 1.137344
v -1.735753 7.072091 0.337934
v -2.095309 7.482813 0.538974
v -2.272344 7.559924 0.723987
v -2.773435 7.283728 1.079959
v -2.926511 7.024663 1.129455
v -1.773498 6.935125 0.165842
v -2.540055 7.574762 0.692630
v -2.800207 7.487942 0.632800
v -2.796504 7.433409 0.874810
v -3.047144 7.181541 0.876262
v -3.057393 6.704550 1.095071
v -2.006151 7.306533 0.288473
v -2.283607 7.463979 0.325589
v -2.498803 7.547240 0.472145
v -3.159661 6.884808 0.908203
v -1.976155 7.088373 0.095938
v -2.829628 7.437504 0.421839
v -3.086763 7.208581 0.451811
v -3.048107 7.275043 0.681547
v -3.110925 6.463207 1.048481
v -2.422236 7.309972 0.101160
v -2.667960 7.372856 0.204798
v -3.227838 6.972568 0.587313
v -3.232486 6.603361 0.856449
v -2.650922 7.149250 -0.011907
v -2.886332 7.197902 0.135797
v -3.031245 7.126185 0.208278
v -3.289600 6.718659 0.369264
v -2.188158 7.078233 -0.028269
v -2.391262 7.035378 -0.094591
v -3.017828 6.780005 -0.043132
v -3.174144 6.874534 0.196496
v -3.309772 6.606501 0.611595
v -3.270949 6.313273 0.754945
v -3.129660 6.190450 0.967427
v -2.676367 6.874656 -0.164604
v -3.223260 6.455522 0.097739
v -2.279247 6.703926 -0.230774
v -2.902622 6.590770 -0.173575
v -3.313652 6.280759 0.375132
v -3.206729 5.955299 0.698927
v -2.030056 6.781361 -0.116121
v -2.616908 6.471318 -0.293863
v -2.991290 6.270411 -0.159517
v -3.113217 6.222651 -0.050582
v -3.274962 6.070271 0.551276
v -2.514889 6.169975 -0.325970
v -2.835352 6.065452 -0.243572
v -3.140398 5.964500 0.047922
v -3.253157 5.999637 0.287124
v -3.099072 5.878300 0.854617
v -2.277527 6.342279 -0.305679
v -2.953613 5.783947 -0.088158
v -3.110676 5.713966 0.191342
v -1.865157 6.735375 -0.035365
v -1.981559 6.361628 -0.208655
v -2.376226 5.898636 -0.307823
v -2.589547 5.730218 -0.247282
v -2.713395 5.628573 -0.166321
v -2.908457 5.556356 0.011666
v -3.129635 5.665661 0.462133
v -2.925467 5.392757 0.351152
v -1.699173 6.462274 0.019337
v -2.026289 5.946291 -0.230922
v -2.150376 5.623109 -0.195113
v -2.393166 5.392274 -0.102639
v -2.595658 5.284443 0.060302
v -2.721152 5.279227 0.182643
v -2.928552 5.455747 0.637913
v -3.015800 5.628543 0.746354
vn 0.7011 -0.0730 -0.7093
vn -0.3538 -0.9280 0.1166
vn 0.2514 -0.8165 -0.5197
vn -0.6908 -0.3878 0.6102
vn 0.2157 -0.9678 -0.1298
vn 0.7597 0.0707 -0.6465
vn -0.3391 -0.8436 0.4163
vn 0.5969 -0.5213 -0.6099
vn -0.4502 -0.6597 0.6018
vn 0.6523 -0.6991 -0.2927
vn 0.8087 -0.0266 -0.5876
vn -0.1010 -0.8978 0.4287
vn 0.7478 0.2418 -0.6183
vn 0.1679 -0.8700 0.4636
vn 0.8961 -0.1958 -0.3984
vn 0.6280 -0.7672 0.1303
vn 0.8551 -0.5065 0.1106
vn 0.4516 -0.7375 0.5022
vn 0.0606 -0.7175 0.6939
vn -0.1260 -0.6999 0.7030
vn 0.2789 -0.6330 0.7222
vn 0.9460 0.0243 -0.3233
vn 0.9778 -0.2061 -0.0380
vn -0.4318 -0.4807 0.7632
vn 0.6649 -0.5435 0.5124
vn 0.8513 -0.3051 0.4270
vn 0.5382 -0.4927 0.6838
vn 0.1535 -0.5022 0.8510
vn 0.9914 -0.0285 -0.1279
vn 0.9002 0.1943 -0.3897
vn 0.7905 -0.0654 0.6090
vn 0.6832 -0.0915 0.7245
vn 0.1503 -0.2765 0.9492
vn 0.9891 0.1466 -0.0157
vn 0.9688 0.1221 0.2155
vn -0.6192 -0.6159 0.4870
vn 0.9526 0.2692 -0.1420
vn -0.2215 -0.2238 0.9491
vn -0.5437 -0.3019 0.7831
vn -0.6239 -0.3053 0.7194
vn 0.4541 -0.1027 0.8850
vn -0.4232 -0.2344 0.8752
vn 0.9370 0.3446 0.0573
vn 0.8235 0.3983 -0.4039
vn 0.8367 0.4880 -0.2485
vn 0.7914 0.5870 0.1708
vn 0.7875 0.4827 0.3832
vn 0.7042 0.6868 0.1801
vn 0.2922 0.6436 0.7074
vn 0.7327 0.3624 -0.5760
vn -0.0753 0.3584 0.9305
vn -0.0387 0.5661 0.8234
vn -0.4541 0.2597 0.8523
vn -0.6097 0.1660 0.7750
vn -0.3214 0.5192 0.7919
vn 0.6450 0.6642 -0.3779
vn -0.4465 0.4153 0.7926
vn -0.3119 0.7819 0.5398
vn 0.0370 0.9878 0.1511
vn -0.7212 -0.1514 0.6760
vn -0.3548 0.9072 0.2262
vn -0.7139 -0.2355 0.6595
vn 0.6114 0.5483 -0.5705
vn -0.6076 0.6076 0.5116
vn 0.4025 0.8099 -0.4267
vn -0.6199 0.7634 0.1815
vn -0.6696 0.6682 0.3242
vn -0.8231 0.1105 0.5571
vn -0.2866 0.9426 -0.1713
vn 0.6458 0.3741 -0.6656
vn 0.3635 0.6440 -0.6731
vn -0.8673 0.4471 0.2190
vn -0.8592 0.5116 -0.0034
vn -0.9381 0.2273 0.2615
vn -0.8629 -0.0611 0.5016
vn -0.4206 0.7348 -0.5321
vn -0.5678 0.6830 -0.4595
vn -0.8090 0.4756 -0.3453
vn 0.4910 0.4351 -0.7547
vn 0.1375 0.5852 -0.7991
vn -0.9533 0.0210 0.3012
vn -0.1271 0.6853 -0.7171
vn -0.0623 0.4895 -0.8698
vn -0.3979 0.3440 -0.8505
vn -0.7688 -0.2827 0.5737
vn -0.7710 0.2303 -0.5938
vn -0.8886 0.2013 -0.4122
vn 0.2754 0.4047 -0.8720
vn -0.9583 0.0489 -0.2815
vn 0.1974 0.4289 -0.8815
vn -0.9969 0.0540 -0.0580
vn -0.9295 -0.0879 -0.3582
vn -0.0294 0.3011 -0.9531
vn -0.6313 0.1413 -0.7625
vn -0.8657 -0.0963 -0.4912
vn -0.3590 0.0780 -0.9301
vn 0.0065 0.1081 -0.9941
vn -0.9401 -0.3406 0.0135
vn 0.4803 0.2414 -0.8432
vn 0.3433 0.2399 -0.9081
vn -0.8758 -0.3138 -0.3667
vn -0.3691 -0.2608 -0.8920
vn -0.7564 -0.3827 -0.5304
vn -0.9040 -0.4054 -0.1356
vn 0.0973 -0.0168 -0.9951
vn -0.8461 -0.4538 0.2796
vn -0.5177 -0.4277 -0.7410
vn -0.7429 -0.5878 -0.3205
vn 0.3104 0.0175 -0.9504
vn 0.2359 -0.1960 -0.9518
vn -0.7680 -0.6272 0.1295
vn 0.6575 0.2578 -0.7080
vn -0.5698 -0.8087 -0.1460
vn 0.5388 -0.1889 -0.8210
vn -0.6174 -0.7701 0.1607
vn 0.4358 -0.4490 -0.7801
vn -0.1727 -0.8888 -0.4244
vn 0.1878 -0.8862 -0.4235
vn 0.6585 -0.1625 -0.7348
vn -0.4309 -0.8747 0.2220
vn -0.6710 -0.4754 0.5690
vn 0.0839 -0.9961 0.0269
vn 0.8826 -0.3087 -0.3546
vn 0.7741 -0.0103 -0.6330
vn -0.0777 -0.9869 0.1416
vn 0.7474 -0.3392 -0.5712
vn 0.5860 -0.6629 -0.4660
vn -0.1612 -0.8734 0.4595
vn -0.4154 -0.6842 0.5994
vn 0.6065 -0.7879 -0.1071
vn 0.2448 -0.9303 0.2732
vn 0.5679 -0.7950 0.2132
vn 0.7898 0.1885 -0.5836
vn 0.1321 -0.8658 0.4826
vn -0.1686 -0.4889 0.8559
vn 0.8603 -0.4536 -0.2326
vn -0.1578 -0.6791 0.7169
vn 0.7838 -0.5932 0.1838
vn 0.4302 -0.7405 0.5163
vn 0.6634 -0.5441 0.5136
vn 0.2141 -0.6241 0.7514
vn 0.9564 0.0011 -0.2922
vn 0.9134 -0.3718 0.1656
vn -0.4468 -0.4735 0.7591
vn 0.5354 -0.3296 0.7776
vn -0.3098 -0.4637 0.8301
vn 0.8245 -0.3299 0.4597
vn 0.9931 -0.1115 -0.0362
vn 0.9065 0.1882 -0.3779
vn 0.2288 -0.3819 0.8954
vn 0.9579 -0.0663 0.2794
vn 0.8881 -0.1772 0.4241
vn 0.7683 0.2138 0.6034
vn 0.9580 0.0662 0.2791
vn 0.5774 -0.1657 0.7995
vn -0.1137 -0.3145 0.9424
vn 0.1813 -0.1829 0.9663
vn 0.9588 0.2627 -0.1080
vn -0.3425 -0.2518 0.9052
vn 0.8480 0.0757 0.5245
vn 0.6053 0.1612 0.7795
vn -0.5052 -0.2568 0.8239
vn 0.4429 0.0911 0.8919
vn 0.2806 0.3631 0.8885
vn 0.2201 0.0484 0.9743
vn 0.1136 -0.0838 0.9900
vn -0.0690 -0.0708 0.9951
vn 0.9321 0.2897 0.2175
vn -0.1900 -0.1541 0.9696
vn 0.8635 0.3253 0.3854
vn 0.8500 0.4289 -0.3059
vn 0.4916 0.4079 0.7694
vn 0.1069 0.2470 0.9631
vn 0.8498 0.5253 -0.0440
vn 0.6157 0.5083 0.6021
vn -0.1377 0.0864 0.9867
vn -0.2940 0.1471 0.9444
vn 0.5241 0.6674 0.5291
vn -0.3715 0.0097 0.9284
vn -0.4602 -0.0321 0.8872
vn -0.6198 -0.0087 0.7847
vn 0.2129 0.5622 0.7991
vn 0.7704 0.4056 -0.4918
vn -0.1047 0.5130 0.8520
vn 0.5919 0.8050 -0.0409
vn 0.4340 0.9000 0.0402
vn 0.2537 0.9066 0.3373
vn 0.6177 0.7387 -0.2697
vn -0.6497 -0.0921 0.7546
vn 0.1069 0.8474 0.5200
vn -0.0339 0.7963 0.6040
vn 0.1911 0.9530 -0.2349
vn -0.3592 0.7342 0.5761
vn -0.7395 0.2346 0.6310
vn -0.0284 0.8394 -0.5427
vn 0.0680 0.9915 -0.1110
vn -0.3437 0.9150 0.2114
vn 0.5998 0.5742 -0.5572
vn -0.6310 0.4881 0.6030
vn -0.7467 0.3444 0.5691
vn -0.8184 0.0715 0.5702
vn -0.2718 0.9439 -0.1878
vn -0.6638 0.7420 -0.0943
vn -0.2251 0.8751 -0.4284
vn 0.3042 0.6837 -0.6633
vn 0.5707 0.4379 -0.6947
vn -0.8867 0.4048 -0.2234
vn -0.8847 0.3665 0.2882
vn -0.9360 0.1874 0.2979
vn -0.8532 -0.0939 0.5131
vn -0.6408 0.6709 -0.3731
vn -0.3020 0.6515 -0.6960
vn -0.4041 0.4680 -0.7860
vn 0.4324 0.4598 -0.7756
vn -0.9754 0.2197 0.0205
vn -0.0050 0.5801 -0.8145
vn -0.8596 -0.2358 0.4533
vn -0.5696 0.4684 -0.6754
vn -0.6790 0.4140 -0.6063
vn -0.9900 -0.0775 0.1179
vn 0.0108 0.3831 -0.9236
vn -0.6892 0.1275 -0.7132
vn -0.9395 -0.2108 0.2700
vn -0.2829 0.2547 -0.9247
vn -0.6227 -0.1606 -0.7658
vn -0.3998 0.0706 -0.9139
vn -0.9051 -0.1111 -0.4104
vn 0.0431 0.2028 -0.9783
vn -0.9790 -0.2023 -0.0267
vn 0.2940 0.1952 -0.9357
vn -0.9209 -0.3624 0.1434
vn -0.2542 0.0170 -0.9670
vn -0.1876 -0.1421 -0.9719
vn -0.6925 -0.1924 -0.6953
vn -0.4544 -0.2766 -0.8468
vn -0.7624 -0.3872 -0.5184
vn -0.3501 -0.5958 -0.7228
vn -0.8203 -0.5504 -0.1556
vn 0.2202 -0.0443 -0.9745
vn -0.8276 -0.4315 0.3589
vn 0.5776 0.1822 -0.7958
vn 0.0183 -0.3760 -0.9264
vn -0.5013 -0.6738 -0.5429
vn 0.5484 0.0551 -0.8344
vn -0.6597 -0.6636 -0.3528
vn 0.4556 -0.0013 -0.8902
vn -0.7945 -0.5553 0.2457
vn -0.2692 -0.9074 -0.3227
vn -0.1768 -0.4723 -0.8635
vn -0.1353 -0.7405 -0.6582
vn -0.3778 -0.9068 -0.1872
vn 0.4525 -0.2680 -0.8505
vn -0.6193 -0.7682 0.1621
vn 0.2227 -0.5552 -0.8013
vn 0.1735 -0.6798 -0.7126
vt 0.781230 0.812500
vt 0.762032 0.875000
vt 0.685473 0.777944
vt 0.734697 0.375000
vt 0.703125 0.312500
vt 0.764235 0.312500
vt 0.741874 0.599249
vt 0.704616 0.531266
vt 0.763980 0.500000
vt 0.734375 0.000000
vt 0.879629 0.062500
vt 0.593677 0.062500
vt 0.670132 0.472235
vt 0.734536 0.437500
vt 0.734224 0.937500
vt 0.605595 0.875000
vt 0.658359 0.250000
vt 0.719918 0.218999
vt 0.734375 0.717281
vt 0.678319 0.660608
vt 0.606077 0.187500
vt 0.641330 0.592355
vt 0.623673 0.812500
vt 0.673680 0.375000
vt 0.639230 0.312500
vt 0.640625 1.000000
vt 0.479138 0.937500
vt 0.639064 0.437500
vt 0.612180 0.375000
vt 0.595563 0.750000
vt 0.606567 0.500000
vt 0.603325 0.667055
vt 0.578286 0.562500
vt 0.578286 0.437500
vt 0.577540 0.283466
vt 0.543444 0.396147
vt 0.512752 0.812500
vt 0.546915 0.655822
vt 0.503540 0.125000
vt 0.660224 0.125000
vt 0.544067 0.500000
vt 0.509405 0.537235
vt 0.515588 0.281661
vt 0.510998 0.724803
vt 0.449506 0.875000
vt 0.487180 0.625000
vt 0.453286 0.562500
vt 0.450317 0.500000
vt 0.485851 0.406417
vt 0.453088 0.281661
vt 0.455926 0.750000
vt 0.445771 0.665313
vt 0.799126 0.125000
vt 0.779637 0.187500
vt 0.402284 0.812500
vt 0.497588 0.187500
vt 0.386121 0.187500
vt 0.328120 0.062500
vt 0.453125 0.000000
vt 0.437500 0.406180
vt 0.347717 0.125000
vt 0.390588 0.718339
vt 0.293360 0.875000
vt 0.308534 0.812500
vt 0.316528 0.750000
vt 0.343750 0.656371
vt 0.393429 0.625000
vt 0.296915 0.655822
vt 0.343750 0.531273
vt 0.297036 0.562500
vt 0.294067 0.500000
vt 0.328125 1.000000
vt 0.230145 0.937500
vt 0.328286 0.437500
vt 0.296914 0.344178
vt 0.343750 0.343629
vt 0.265786 0.437500
vt 0.234338 0.281661
vt 0.296902 0.219059
vt 0.214815 0.187500
vt 0.237180 0.375000
vt 0.199790 0.812500
vt 0.237635 0.520573
vt 0.203286 0.437500
vt 0.237180 0.625000
vt 0.203286 0.562500
vt 0.190964 0.125000
vt 0.113605 0.062500
vt 0.169067 0.500000
vt 0.203125 0.000000
vt 0.137012 0.875000
vt 0.176363 0.337227
vt 0.171838 0.718339
vt 0.234338 0.718339
vt 0.148421 0.399333
vt 0.160278 0.250000
vt 0.121065 0.187500
vt 0.174680 0.625000
vt 0.134405 0.537235
vt 0.140625 1.000000
vt 0.030235 0.937500
vt 0.075252 0.812500
vt 0.102021 0.334687
vt 0.109536 0.437500
vt 0.066529 0.250000
vt 0.055088 0.153620
vt 0.112179 0.625000
vt 0.078286 0.562500
vt 0.075317 0.500000
vt 0.047036 0.437500
vt 0.032456 0.875000
vt 0.048167 0.750000
vt 0.108913 0.719958
vt 0.062500 0.658651
vt 0.015664 0.655822
vt 0.018885 0.520574
vt 0.000000 0.562500
vt 0.015625 0.000000
vt 0.000000 0.062500
vt 0.000000 0.399333
vt 0.046914 0.344178
vt 0.000000 0.784407
vt 0.000000 0.273040
vt 0.991904 0.273040
vt 0.992171 0.399333
vt 0.937867 0.282145
vt 1.000000 0.655822
vt 0.975379 0.784407
vt 0.953164 0.655822
vt 1.000000 0.500000
vt 0.984536 0.562500
vt 0.950317 0.500000
vt 0.953286 0.437500
vt 0.924679 0.375000
vt 0.915655 0.537235
vt 0.910279 0.750000
vt 0.906250 0.656371
vt 0.965747 0.187500
vt 0.868449 0.212346
vt 0.978825 0.875000
vt 0.921769 0.937500
vt 0.872374 0.843190
vt 0.887823 0.312500
vt 0.859536 0.562500
vt 0.856567 0.500000
vt 0.890786 0.437500
vt 0.855944 0.396148
vt 0.859414 0.655822
vt 0.939862 0.125000
vt 0.812867 0.282145
vt 0.814726 0.750000
vt 0.796945 0.653777
vt 0.828125 1.000000
vt 0.798190 0.375000
vt 0.797036 0.437500
vt 0.390786 0.562500
vt 0.387817 0.500000
vt 0.390786 0.437500
vt 0.390665 0.344178
vt 0.378980 0.250000
vt 0.000000 0.125000
vt 0.000000 0.187500
vt 0.801816 0.543181
s 0
f 2/1/1 6/2/1 13/3/1
f 11/4/2 14/5/2 4/6/2
f 8/7/3 9/8/3 3/9/3
f 5/10/4 127/11/4 44/12/4
f 9/8/5 16/13/5 10/14/5
f 139/15/6 32/16/6 6/2/6
f 14/5/7 21/17/7 12/18/7
f 7/19/8 15/20/8 8/7/8
f 12/18/9 21/17/9 31/21/9
f 15/20/10 18/22/10 9/8/10
f 32/16/11 22/23/11 13/3/11
f 14/5/12 17/24/12 20/25/12
f 139/15/13 1/26/13 59/27/13
f 19/28/14 25/29/14 17/24/14
f 22/23/15 27/30/15 13/3/15
f 16/13/16 18/22/16 24/31/16
f 18/22/17 23/32/17 28/33/17
f 24/31/18 29/34/18 19/28/18
f 20/25/19 25/29/19 30/35/19
f 20/25/20 30/35/20 21/17/20
f 29/34/21 35/36/21 25/29/21
f 32/16/22 41/37/22 22/23/22
f 23/32/23 27/30/23 33/38/23
f 31/21/24 51/39/24 26/40/24
f 24/31/25 28/33/25 34/41/25
f 28/33/26 33/38/26 37/42/26
f 34/41/27 35/36/27 29/34/27
f 30/35/28 35/36/28 38/43/28
f 41/37/29 36/44/29 27/30/29
f 32/16/30 59/27/30 40/45/30
f 37/42/31 42/46/31 47/47/31
f 37/42/32 47/47/32 48/48/32
f 38/43/33 43/49/33 50/50/33
f 41/37/34 45/51/34 36/44/34
f 36/44/35 45/51/35 46/52/35
f 26/40/36 146/53/36 145/54/36 12/18/36
f 41/37/37 40/45/37 52/55/37
f 39/56/38 50/50/38 64/57/38
f 44/12/39 51/39/39 76/58/39
f 5/59/40 44/12/40 76/58/40
f 48/48/41 49/60/41 43/49/41
f 64/57/42 73/61/42 51/39/42
f 52/55/43 54/62/43 45/51/43
f 59/27/44 77/63/44 40/45/44
f 52/55/45 77/63/45 67/64/45
f 54/62/46 68/65/46 60/66/46
f 54/62/47 60/66/47 55/67/47
f 60/66/48 68/65/48 69/68/48
f 61/69/49 65/70/49 70/71/49
f 59/27/50 1/72/50 82/73/50
f 66/74/51 71/75/51 62/76/51
f 70/71/52 75/77/52 66/74/52
f 71/75/53 81/78/53 72/79/53
f 72/79/54 81/78/54 87/80/54
f 75/77/55 80/81/55 71/75/55
f 67/64/56 77/63/56 88/82/56
f 71/75/57 80/81/57 81/78/57
f 74/83/58 85/84/58 75/77/58
f 74/83/59 79/85/59 83/86/59
f 96/87/60 111/88/60 76/58/60
f 74/83/61 83/86/61 84/89/61
f 5/90/62 76/58/62 111/88/62
f 77/63/63 82/73/63 92/91/63
f 85/84/64 86/92/64 80/81/64
f 88/82/65 89/93/65 78/94/65
f 84/89/66 95/95/66 85/84/66
f 85/84/67 95/95/67 86/92/67
f 87/80/68 91/96/68 100/97/68
f 83/86/69 90/98/69 93/99/69
f 82/73/70 1/100/70 131/101/70
f 92/91/71 105/102/71 88/82/71
f 86/92/72 95/95/72 99/103/72
f 94/104/73 99/103/73 95/95/73
f 99/103/74 109/105/74 91/96/74
f 100/97/75 110/106/75 96/87/75
f 93/99/76 98/107/76 102/108/76
f 93/99/77 102/108/77 103/109/77
f 103/109/78 108/110/78 94/104/78
f 131/101/79 118/111/79 92/91/79
f 105/102/80 106/112/80 97/113/80
f 100/97/81 109/105/81 110/106/81
f 97/113/82 101/114/82 98/107/82
f 101/114/83 106/112/83 112/115/83
f 107/116/84 112/115/84 115/117/84
f 5/118/85 111/88/85 127/119/85
f 107/116/86 113/120/86 108/110/86
f 108/110/87 113/120/87 104/121/87
f 105/102/88 118/111/88 114/122/88
f 104/121/89 113/120/89 116/123/89
f 105/102/90 114/122/90 106/112/90
f 104/121/91 116/123/91 109/105/91
f 116/124/92 113/125/92 126/126/92
f 112/127/93 114/128/93 119/129/93
f 107/130/94 115/131/94 120/132/94
f 121/133/95 125/134/95 113/125/95
f 115/131/96 119/129/96 124/135/96
f 119/129/97 128/136/97 123/137/97
f 122/138/98 126/126/98 137/139/98
f 118/140/99 131/141/99 132/142/99
f 118/140/100 132/142/100 114/128/100
f 126/126/101 125/134/101 130/143/101
f 124/135/102 134/144/102 135/145/102
f 129/146/103 136/147/103 125/134/103
f 130/143/104 137/139/104 126/126/104
f 123/137/105 128/136/105 133/148/105
f 137/139/106 146/53/106 117/149/106
f 135/145/107 136/147/107 129/146/107
f 130/143/108 136/147/108 138/150/108
f 132/142/109 140/151/109 128/136/109
f 133/148/110 140/151/110 141/152/110
f 137/139/111 138/150/111 145/54/111
f 131/141/112 1/153/112 139/15/112
f 138/150/113 144/154/113 4/6/113
f 140/151/114 2/1/114 7/19/114
f 4/6/115 12/18/115 138/150/115
f 141/152/116 7/19/116 8/7/116
f 3/9/117 10/14/117 143/155/117
f 3/9/118 9/8/118 10/14/118
f 7/19/119 2/1/119 13/3/119
f 4/6/120 14/5/120 12/18/120
f 44/12/121 127/11/121 146/53/121 26/40/121
f 17/24/122 11/4/122 10/14/122 16/13/122
f 23/32/123 15/20/123 13/3/123 27/30/123
f 6/2/124 32/16/124 13/3/124
f 11/4/125 17/24/125 14/5/125
f 7/19/126 13/3/126 15/20/126
f 9/8/127 8/7/127 15/20/127
f 21/17/128 14/5/128 20/25/128
f 12/18/129 31/21/129 26/40/129
f 9/8/130 18/22/130 16/13/130
f 16/13/131 19/28/131 17/24/131
f 16/13/132 24/31/132 19/28/132
f 139/15/133 59/27/133 32/16/133
f 20/25/134 17/24/134 25/29/134
f 38/43/135 39/56/135 31/21/135 30/35/135
f 15/20/136 23/32/136 18/22/136
f 21/17/137 30/35/137 31/21/137
f 24/31/138 18/22/138 28/33/138
f 19/28/139 29/34/139 25/29/139
f 24/31/140 34/41/140 29/34/140
f 30/35/141 25/29/141 35/36/141
f 22/23/142 41/37/142 27/30/142
f 28/33/143 23/32/143 33/38/143
f 44/12/144 26/40/144 51/39/144
f 43/49/145 35/36/145 34/41/145 37/42/145
f 51/39/146 31/21/146 39/56/146
f 34/41/147 28/33/147 37/42/147
f 33/38/148 27/30/148 36/44/148
f 32/16/149 40/45/149 41/37/149
f 38/43/150 35/36/150 43/49/150
f 33/38/151 36/44/151 42/46/151
f 37/42/152 33/38/152 42/46/152
f 55/67/153 56/156/153 47/47/153 46/52/153
f 36/44/154 46/52/154 42/46/154
f 37/42/155 48/48/155 43/49/155
f 39/56/156 38/43/156 50/50/156
f 50/50/157 43/49/157 49/60/157
f 41/37/158 52/55/158 45/51/158
f 39/56/159 64/57/159 51/39/159
f 47/47/160 42/46/160 46/52/160
f 56/156/161 57/157/161 48/48/161 47/47/161
f 51/39/162 73/61/162 76/58/162
f 58/158/163 49/60/163 48/48/163 57/157/163
f 66/74/164 58/158/164 57/157/164 61/69/164
f 49/60/165 58/158/165 53/159/165
f 50/50/166 49/60/166 53/159/166
f 50/50/167 53/159/167 63/160/167
f 46/52/168 45/51/168 54/62/168
f 64/57/169 50/50/169 63/160/169
f 46/52/170 54/62/170 55/67/170
f 40/45/171 77/63/171 52/55/171
f 57/157/172 56/156/172 61/69/172
f 62/76/173 53/159/173 58/158/173 66/74/173
f 68/65/174 54/62/174 52/55/174 67/64/174
f 60/66/175 61/69/175 56/156/175 55/67/175
f 53/159/176 62/76/176 63/160/176
f 72/79/177 63/160/177 62/76/177 71/75/177
f 69/68/178 65/70/178 61/69/178 60/66/178
f 64/57/179 63/160/179 72/79/179
f 64/57/180 72/79/180 73/61/180
f 96/87/181 73/61/181 72/79/181 87/80/181
f 61/69/182 70/71/182 66/74/182
f 59/27/183 82/73/183 77/63/183
f 66/74/184 75/77/184 71/75/184
f 69/68/185 68/65/185 78/94/185
f 69/68/186 78/94/186 79/85/186
f 79/85/187 74/83/187 65/70/187 69/68/187
f 78/94/188 68/65/188 67/64/188 88/82/188
f 76/58/189 73/61/189 96/87/189
f 70/71/190 65/70/190 74/83/190
f 70/71/191 74/83/191 75/77/191
f 90/98/192 79/85/192 78/94/192 89/93/192
f 75/77/193 85/84/193 80/81/193
f 87/80/194 81/78/194 91/96/194
f 98/107/195 90/98/195 89/93/195 97/113/195
f 83/86/196 79/85/196 90/98/196
f 74/83/197 84/89/197 85/84/197
f 77/63/198 92/91/198 88/82/198
f 81/78/199 80/81/199 86/92/199
f 81/78/200 86/92/200 91/96/200
f 87/80/201 100/97/201 96/87/201
f 84/89/202 83/86/202 93/99/202
f 94/104/203 95/95/203 84/89/203 93/99/203
f 93/99/204 90/98/204 98/107/204
f 97/113/205 89/93/205 88/82/205 105/102/205
f 82/73/206 131/101/206 92/91/206
f 104/121/207 99/103/207 94/104/207 108/110/207
f 86/92/208 99/103/208 91/96/208
f 100/97/209 91/96/209 109/105/209
f 96/87/210 110/106/210 111/88/210
f 93/99/211 103/109/211 94/104/211
f 102/108/212 98/107/212 101/114/212
f 112/115/213 107/116/213 102/108/213 101/114/213
f 92/91/214 118/111/214 105/102/214
f 99/103/215 104/121/215 109/105/215
f 97/113/216 106/112/216 101/114/216
f 127/119/217 111/88/217 110/106/217 117/161/217
f 103/109/218 102/108/218 107/116/218
f 103/109/219 107/116/219 108/110/219
f 116/123/220 122/162/220 110/106/220 109/105/220
f 112/115/221 106/112/221 114/122/221
f 121/133/222 113/125/222 107/130/222 120/132/222
f 110/106/223 122/162/223 117/161/223
f 115/131/224 112/127/224 119/129/224
f 129/146/225 121/133/225 120/132/225 124/135/225
f 120/132/226 115/131/226 124/135/226
f 126/126/227 113/125/227 125/134/227
f 119/129/228 114/128/228 128/136/228
f 122/138/229 116/124/229 126/126/229
f 114/128/230 132/142/230 128/136/230
f 117/149/231 122/138/231 137/139/231
f 124/135/232 119/129/232 123/137/232
f 133/148/233 134/144/233 124/135/233 123/137/233
f 121/133/234 129/146/234 125/134/234
f 124/135/235 135/145/235 129/146/235
f 130/143/236 125/134/236 136/147/236
f 143/155/237 136/147/237 135/145/237 142/163/237
f 130/143/238 138/150/238 137/139/238
f 133/148/239 128/136/239 140/151/239
f 117/149/240 146/53/240 127/11/240
f 139/15/241 6/2/241 132/142/241 131/141/241
f 141/152/242 142/163/242 134/144/242 133/148/242
f 136/147/243 143/155/243 144/154/243
f 132/142/244 6/2/244 2/1/244
f 138/150/245 136/147/245 144/154/245
f 132/142/246 2/1/246 140/151/246
f 137/139/247 145/54/247 146/53/247
f 11/4/248 144/154/248 143/155/248 10/14/248
f 135/145/249 134/144/249 142/163/249
f 142/163/250 3/9/250 143/155/250
f 144/154/251 11/4/251 4/6/251
f 141/152/252 140/151/252 7/19/252
f 145/54/253 138/150/253 12/18/253
f 142/163/254 141/152/254 8/7/254
f 3/9/255 142/163/255 8/7/255
