# Blender 5.0.0
# www.blender.org
mtllib prep_throw_ball0011.mtl
o Sphere
v -2.407341 5.676566 1.771515
v -2.417618 5.408189 1.249507
v -2.536766 4.482830 0.911472
v -2.733235 4.010120 1.140745
v -3.004312 3.811642 1.991827
v -2.358884 5.506276 1.403780
v -2.249720 5.084401 1.086935
v -2.320632 4.736979 0.951882
v -2.167336 4.473375 1.031116
v -2.429720 4.253668 0.995922
v -2.506641 4.096020 1.069916
v -2.685546 3.803454 1.397872
v -2.077316 5.220447 1.313077
v -2.443173 3.928568 1.238682
v -2.006853 4.852065 1.168443
v -2.066649 4.259219 1.175353
v -2.218198 4.022144 1.246397
v -1.873158 4.621345 1.286277
v -1.998803 4.140408 1.344103
v -2.224670 3.870021 1.469280
v -2.419380 3.785309 1.493252
v -1.993405 5.285628 1.516312
v -1.790357 4.843236 1.484568
v -1.826854 4.317857 1.483513
v -2.022207 3.991041 1.527724
v -2.707262 3.720754 1.721927
v -1.858597 5.116081 1.568085
v -1.733834 4.520523 1.631940
v -1.851521 4.152872 1.675373
v -2.166662 3.831003 1.781314
v -2.461892 3.726811 1.752093
v -2.091841 5.451694 1.629109
v -1.718836 4.843313 1.790849
v -1.751134 4.359261 1.858704
v -1.890296 4.080429 1.886503
v -1.796951 5.096243 1.949922
v -1.738072 4.515191 2.053999
v -2.167341 3.881041 2.074460
v -2.448952 3.789536 2.118473
v -2.121285 5.522699 1.986175
v -1.937562 5.341105 1.882550
v -1.762982 4.830288 2.137578
v -1.930884 4.186627 2.224922
v -2.817036 3.740358 1.924758
v -1.918502 5.242612 2.155409
v -1.871431 5.024778 2.301475
v -1.854703 4.708112 2.362729
v -1.907603 4.526756 2.409806
v -2.061546 4.286258 2.467880
v -2.272421 3.976220 2.353856
v -2.628251 3.752826 2.070879
v -2.119638 5.467170 2.207733
v -2.357770 4.239710 2.637414
v -2.091074 5.289223 2.431310
v -2.070018 5.034093 2.564481
v -2.106012 4.861211 2.640262
v -2.168804 4.683904 2.687901
v -2.223699 4.493560 2.683694
v -2.236698 5.608235 1.846136
v -2.297224 5.236046 2.649470
v -2.392488 4.900542 2.802330
v -2.580168 4.352133 2.753891
v -2.570617 4.053600 2.551607
v -2.661977 3.931640 2.425746
v -2.621809 5.102094 2.825439
v -2.557366 4.656816 2.842432
v -2.404301 5.604730 2.334145
v -2.392911 5.499962 2.490374
v -2.539304 5.343909 2.700928
v -2.697860 4.928846 2.866662
v -2.823124 4.457263 2.805672
v -2.916627 4.129882 2.593606
v -2.857006 3.898835 2.342561
v -3.022043 5.125428 2.801908
v -2.922594 4.805375 2.858209
v -2.956717 3.847409 2.183580
v -2.426294 5.685137 2.154103
v -2.784415 5.583855 2.527354
v -2.892368 5.387314 2.698144
v -3.122323 4.668941 2.783009
v -3.165860 4.392228 2.668126
v -2.486999 5.724151 1.957769
v -3.146091 5.284272 2.685190
v -3.375263 5.146863 2.594405
v -3.263778 4.916621 2.728623
v -3.414324 4.633561 2.585003
v -3.204590 4.158897 2.460830
v -2.751470 5.728847 2.254835
v -3.027937 5.650994 2.370579
v -3.186228 5.470168 2.518594
v -3.417951 4.369316 2.436492
v -2.736943 5.770289 1.997915
v -3.467963 5.274632 2.421161
v -3.619830 4.978691 2.310219
v -3.516273 4.849955 2.505504
v -3.201662 4.023223 2.290412
v -3.193385 5.670774 2.128658
v -3.389446 5.497168 2.235619
v -3.626273 4.651402 2.267395
v -3.422772 4.203625 2.239519
v -3.394140 5.548514 1.959039
v -3.560132 5.335337 2.087970
v -3.640620 5.157595 2.096359
v -3.692817 4.644897 1.972493
v -2.969770 5.757147 1.907122
v -3.163257 5.681125 1.837141
v -3.627152 5.161252 1.725677
v -3.700716 4.941024 1.943822
v -3.586087 4.367136 2.073847
v -3.413734 4.091301 2.003561
v -3.172187 3.914752 2.078392
v -3.397561 5.494403 1.696965
v -3.663602 4.742733 1.635731
v -3.022312 5.649705 1.553733
v -3.521411 5.213043 1.527837
v -3.588017 4.361994 1.725120
v -3.276957 3.953244 1.759752
v -2.779194 5.730684 1.676626
v -3.280250 5.386612 1.377019
v -3.504050 4.961453 1.353536
v -3.556950 4.780097 1.400613
v -3.426620 4.109319 1.724762
v -3.116795 5.282710 1.182077
v -3.339942 4.986520 1.178401
v -3.470268 4.528448 1.319786
v -3.488550 4.294960 1.503549
v -3.099981 3.833896 1.822044
v -2.947183 5.492774 1.294892
v -3.305641 4.626998 1.123081
v -3.318041 4.273774 1.274057
v -2.588934 5.721259 1.705475
v -2.652891 5.577095 1.372386
v -2.910054 5.174544 1.038734
v -3.028450 4.912729 0.983438
v -3.078532 4.720698 0.980448
v -3.162925 4.430049 1.060707
v -3.217391 4.011971 1.431532
v -3.001593 4.042793 1.198980
v -2.343444 5.596023 1.586125
v -2.583604 5.320377 1.118720
v -2.588530 5.030946 0.957671
v -2.703170 4.689821 0.888381
v -2.789846 4.386115 0.937904
v -2.852808 4.217708 1.018573
v -2.912224 3.843555 1.431270
v -2.996946 3.814281 1.604627
vn 0.4708 0.6523 -0.5940
vn 0.0432 -0.7010 -0.7118
vn 0.3038 -0.1079 -0.9466
vn -0.3345 -0.9401 0.0653
vn 0.4170 -0.3647 -0.8325
vn 0.5050 0.7567 -0.4152
vn 0.1188 -0.8605 -0.4954
vn 0.4963 0.2247 -0.8386
vn 0.0118 -0.9757 -0.2186
vn 0.6566 -0.0047 -0.7542
vn 0.5933 0.6624 -0.4574
vn 0.3426 -0.7806 -0.5228
vn 0.4450 0.8672 -0.2234
vn 0.5719 -0.6705 -0.4726
vn 0.7578 0.4618 -0.4610
vn 0.7869 -0.2473 -0.5653
vn 0.9265 -0.0095 -0.3762
vn 0.7944 -0.5073 -0.3341
vn 0.5449 -0.8136 -0.2030
vn 0.3732 -0.9095 -0.1831
vn 0.7284 -0.6780 -0.0989
vn 0.7726 0.5997 -0.2086
vn 0.9293 0.2989 -0.2171
vn 0.0137 -0.9960 0.0884
vn 0.9359 -0.3168 -0.1539
vn 0.9987 -0.0510 0.0094
vn 0.8952 -0.4456 0.0115
vn 0.6362 -0.7603 0.1312
vn 0.8748 0.4702 -0.1168
vn 0.6632 0.7426 -0.0930
vn 0.9303 -0.0236 0.3662
vn 0.8909 -0.1484 0.4293
vn 0.5854 -0.6745 0.4499
vn 0.8442 0.5202 0.1288
vn 0.8910 0.3695 0.2639
vn -0.2029 -0.9451 -0.2562
vn 0.7379 0.6559 0.1589
vn 0.1910 -0.8338 0.5180
vn -0.1684 -0.9397 0.2978
vn -0.2688 -0.9326 0.2407
vn 0.7568 -0.3514 0.5511
vn -0.0401 -0.8938 0.4466
vn 0.7346 0.5735 0.3626
vn 0.5104 0.8540 0.1010
vn 0.5188 0.8024 0.2950
vn 0.5226 0.5711 0.6330
vn 0.6134 0.4047 0.6782
vn 0.4071 0.5753 0.7094
vn 0.2162 0.1352 0.9669
vn 0.3953 0.9162 -0.0650
vn 0.0809 -0.2837 0.9555
vn 0.0088 -0.0842 0.9964
vn -0.2484 -0.4757 0.8438
vn -0.3897 -0.5747 0.7196
vn -0.2182 -0.2063 0.9538
vn 0.2359 0.8977 0.3721
vn -0.2983 -0.3256 0.8972
vn -0.3371 0.0605 0.9395
vn -0.2285 0.4543 0.8611
vn -0.4344 -0.8249 0.3617
vn -0.4801 0.2441 0.8425
vn -0.4026 -0.8766 0.2634
vn 0.2003 0.9709 0.1310
vn -0.5457 -0.1298 0.8279
vn -0.0548 0.8842 0.4638
vn -0.6736 0.1007 0.7322
vn -0.6569 -0.0328 0.7532
vn -0.6339 -0.5841 0.5069
vn -0.5650 0.4796 0.6713
vn 0.2794 0.9522 -0.1238
vn -0.1146 0.9817 0.1519
vn -0.8216 -0.1896 0.5376
vn -0.8936 -0.0409 0.4469
vn -0.8368 -0.3840 0.3903
vn -0.6429 -0.7008 0.3090
vn -0.7821 0.5381 0.3144
vn -0.8600 0.4041 0.3115
vn -0.9712 0.1277 0.2013
vn 0.0689 0.9890 -0.1310
vn -0.3643 0.9313 -0.0046
vn -0.7963 -0.5574 0.2348
vn -0.6061 0.7801 0.1551
vn -0.5542 0.8166 -0.1614
vn -0.7996 0.5261 -0.2896
vn -0.4621 -0.8748 0.1457
vn -0.9717 0.1274 -0.1991
vn -0.9947 -0.0359 -0.0967
vn -0.1838 0.9477 -0.2608
vn -0.9626 -0.2261 -0.1492
vn -0.2780 0.9298 -0.2413
vn -0.9347 -0.3554 0.0104
vn -0.9082 -0.2577 -0.3297
vn -0.4808 0.7624 -0.4331
vn -0.8826 0.2251 -0.4128
vn -0.8875 -0.1678 -0.4292
vn -0.6765 0.4060 -0.6145
vn -0.3710 0.6537 -0.6595
vn -0.7243 -0.6144 -0.3128
vn 0.1073 0.9048 -0.4122
vn -0.0568 0.8816 -0.4686
vn -0.7643 -0.3608 -0.5345
vn -0.5003 0.1438 -0.8538
vn -0.6697 -0.2656 -0.6935
vn -0.6951 -0.5475 -0.4659
vn -0.2238 0.5952 -0.7718
vn -0.5356 -0.8091 -0.2420
vn -0.5022 -0.0916 -0.8599
vn -0.5135 -0.4702 -0.7178
vn -0.0131 0.7010 -0.7130
vn -0.0031 0.4863 -0.8738
vn -0.4211 -0.7622 -0.4917
vn 0.3244 0.9033 -0.2807
vn -0.2391 -0.5911 -0.7703
vn 0.3163 0.5516 -0.7718
vn -0.2220 -0.7797 -0.5855
vn 0.3004 0.2917 -0.9081
vn 0.0291 -0.3336 -0.9423
vn 0.2968 -0.2051 -0.9327
vn 0.4456 0.5754 -0.6858
vn -0.0081 -0.7802 -0.6255
vn -0.2899 -0.9553 -0.0577
vn 0.3733 -0.5026 -0.7798
vn 0.7765 0.3536 -0.5216
vn 0.5447 0.6885 -0.4788
vn 0.2848 -0.6248 -0.7270
vn 0.6050 0.3886 -0.6950
vn 0.5494 0.0692 -0.8327
vn 0.2966 -0.8202 -0.4893
vn 0.0538 -0.9684 -0.2435
vn 0.6901 -0.1520 -0.7075
vn 0.5686 -0.5475 -0.6140
vn 0.7752 -0.3260 -0.5412
vn 0.5136 0.8210 -0.2494
vn 0.5496 -0.6974 -0.4600
vn 0.3210 -0.9345 0.1538
vn 0.8126 0.1894 -0.5512
vn 0.3423 -0.9270 -0.1533
vn 0.9076 -0.1225 -0.4016
vn 0.7838 -0.5269 -0.3287
vn 0.9354 -0.3185 -0.1536
vn 0.6829 -0.7272 -0.0699
vn 0.7956 0.5692 -0.2075
vn 0.9716 0.0666 -0.2269
vn -0.0061 -0.9957 0.0929
vn 0.8824 -0.4027 0.2433
vn 0.1567 -0.9744 0.1613
vn 0.9955 -0.0944 0.0088
vn 0.9215 0.3662 -0.1297
vn 0.6739 0.7333 -0.0903
vn 0.6813 -0.6711 0.2923
vn 0.9675 0.2162 0.1313
vn 0.9908 0.0444 0.1278
vn 0.7813 0.1395 0.6084
vn 0.9199 0.2977 0.2554
vn 0.8611 -0.2870 0.4196
vn 0.3392 -0.8442 0.4151
vn 0.5779 -0.5975 0.5558
vn 0.7533 0.6337 0.1761
vn 0.0616 -0.8890 0.4538
vn 0.8912 0.1311 0.4342
vn 0.7202 -0.0496 0.6920
vn -0.1333 -0.9154 0.3797
vn 0.6514 -0.2252 0.7245
vn 0.3740 -0.1132 0.9205
vn 0.5013 -0.4043 0.7650
vn 0.4739 -0.5694 0.6717
vn 0.2920 -0.6552 0.6967
vn 0.7892 0.4505 0.4175
vn 0.1997 -0.7721 0.6033
vn 0.7528 0.3523 0.5560
vn 0.5441 0.8148 0.2002
vn 0.4975 0.0564 0.8656
vn 0.2982 -0.3023 0.9054
vn 0.5565 0.6934 0.4576
vn 0.5100 0.2399 0.8261
vn 0.1511 -0.5512 0.8206
vn -0.0358 -0.5483 0.8355
vn 0.3476 0.3169 0.8825
vn -0.0654 -0.6924 0.7185
vn -0.1518 -0.7450 0.6496
vn -0.3486 -0.7321 0.5853
vn 0.2079 0.0203 0.9779
vn 0.4359 0.8989 0.0439
vn -0.0203 -0.1549 0.9877
vn 0.2151 0.7071 0.6736
vn 0.0716 0.6316 0.7720
vn 0.0046 0.4112 0.9115
vn 0.2080 0.8406 0.5001
vn -0.3609 -0.7971 0.4842
vn -0.0424 0.2488 0.9676
vn -0.1128 0.1380 0.9840
vn -0.2167 0.7147 0.6650
vn -0.3542 0.0031 0.9352
vn -0.5633 -0.4946 0.6619
vn -0.4822 0.7754 0.4078
vn -0.2838 0.6053 0.7437
vn -0.4776 0.2582 0.8397
vn 0.1819 0.9691 0.1666
vn -0.5211 -0.2560 0.8142
vn -0.6057 -0.3835 0.6972
vn -0.6175 -0.6205 0.4834
vn -0.5599 0.4948 0.6646
vn -0.7984 0.2034 0.5667
vn -0.6046 0.6250 0.4938
vn -0.1830 0.9631 0.1976
vn 0.1686 0.9825 -0.0794
vn -0.9759 -0.0072 0.2181
vn -0.8053 -0.2821 0.5215
vn -0.8180 -0.4301 0.3819
vn -0.6216 -0.7290 0.2866
vn -0.8796 0.3192 0.3526
vn -0.7407 0.6582 0.1348
vn -0.8200 0.5612 -0.1126
vn -0.0088 0.9926 -0.1212
vn -0.9351 -0.2801 0.2172
vn -0.5065 0.8619 -0.0217
vn -0.5960 -0.7968 0.0997
vn -0.9111 0.4112 -0.0290
vn -0.9571 0.2881 -0.0319
vn -0.8449 -0.5348 0.0090
vn -0.4644 0.8248 -0.3224
vn -0.9076 0.1628 -0.3869
vn -0.7204 -0.6934 -0.0115
vn -0.6896 0.5712 -0.4453
vn -0.7313 0.0355 -0.6812
vn -0.7035 0.3713 -0.6060
vn -0.8919 -0.2345 -0.3867
vn -0.3737 0.7411 -0.5578
vn -0.8240 -0.5260 -0.2108
vn -0.0988 0.8380 -0.5367
vn -0.6712 -0.6990 -0.2469
vn -0.5635 0.4333 -0.7034
vn -0.4238 0.3478 -0.8363
vn -0.7537 -0.0491 -0.6554
vn -0.5524 0.0750 -0.8302
vn -0.6696 -0.2765 -0.6893
vn -0.2853 -0.1254 -0.9502
vn -0.5607 -0.5743 -0.5964
vn -0.0850 0.6187 -0.7810
vn -0.5106 -0.8437 -0.1659
vn 0.2451 0.8681 -0.4317
vn -0.1224 0.2460 -0.9615
vn -0.3300 -0.3046 -0.8935
vn 0.2484 0.7718 -0.5853
vn -0.4183 -0.4550 -0.7861
vn 0.1580 0.7153 -0.6807
vn -0.4513 -0.8172 -0.3585
vn -0.0124 -0.4242 -0.9055
vn -0.2317 0.0755 -0.9699
vn -0.0467 -0.1478 -0.9879
vn -0.0620 -0.5325 -0.8441
vn 0.2497 0.4676 -0.8479
vn -0.2241 -0.7807 -0.5834
vn 0.1438 0.1503 -0.9781
vn 0.1614 0.0197 -0.9867
vt 0.781230 0.812500
vt 0.762032 0.875000
vt 0.685473 0.777944
vt 0.734697 0.375000
vt 0.703125 0.312500
vt 0.764235 0.312500
vt 0.741874 0.599249
vt 0.704616 0.531266
vt 0.763980 0.500000
vt 0.734375 0.000000
vt 0.879629 0.062500
vt 0.593677 0.062500
vt 0.670132 0.472235
vt 0.734536 0.437500
vt 0.734224 0.937500
vt 0.605595 0.875000
vt 0.658359 0.250000
vt 0.719918 0.218999
vt 0.734375 0.717281
vt 0.678319 0.660608
vt 0.606077 0.187500
vt 0.641330 0.592355
vt 0.623673 0.812500
vt 0.673680 0.375000
vt 0.639230 0.312500
vt 0.640625 1.000000
vt 0.479138 0.937500
vt 0.639064 0.437500
vt 0.612180 0.375000
vt 0.595563 0.750000
vt 0.606567 0.500000
vt 0.603325 0.667055
vt 0.578286 0.562500
vt 0.578286 0.437500
vt 0.577540 0.283466
vt 0.543444 0.396147
vt 0.512752 0.812500
vt 0.546915 0.655822
vt 0.503540 0.125000
vt 0.660224 0.125000
vt 0.544067 0.500000
vt 0.509405 0.537235
vt 0.515588 0.281661
vt 0.510998 0.724803
vt 0.449506 0.875000
vt 0.487180 0.625000
vt 0.453286 0.562500
vt 0.450317 0.500000
vt 0.485851 0.406417
vt 0.453088 0.281661
vt 0.455926 0.750000
vt 0.445771 0.665313
vt 0.799126 0.125000
vt 0.779637 0.187500
vt 0.402284 0.812500
vt 0.497588 0.187500
vt 0.386121 0.187500
vt 0.328120 0.062500
vt 0.453125 0.000000
vt 0.437500 0.406180
vt 0.347717 0.125000
vt 0.390588 0.718339
vt 0.293360 0.875000
vt 0.308534 0.812500
vt 0.316528 0.750000
vt 0.343750 0.656371
vt 0.393429 0.625000
vt 0.296915 0.655822
vt 0.343750 0.531273
vt 0.297036 0.562500
vt 0.294067 0.500000
vt 0.328125 1.000000
vt 0.230145 0.937500
vt 0.328286 0.437500
vt 0.296914 0.344178
vt 0.343750 0.343629
vt 0.265786 0.437500
vt 0.234338 0.281661
vt 0.296902 0.219059
vt 0.214815 0.187500
vt 0.237180 0.375000
vt 0.199790 0.812500
vt 0.237635 0.520573
vt 0.203286 0.437500
vt 0.237180 0.625000
vt 0.203286 0.562500
vt 0.190964 0.125000
vt 0.113605 0.062500
vt 0.169067 0.500000
vt 0.203125 0.000000
vt 0.137012 0.875000
vt 0.176363 0.337227
vt 0.171838 0.718339
vt 0.234338 0.718339
vt 0.148421 0.399333
vt 0.160278 0.250000
vt 0.121065 0.187500
vt 0.174680 0.625000
vt 0.134405 0.537235
vt 0.140625 1.000000
vt 0.030235 0.937500
vt 0.075252 0.812500
vt 0.102021 0.334687
vt 0.109536 0.437500
vt 0.066529 0.250000
vt 0.055088 0.153620
vt 0.112179 0.625000
vt 0.078286 0.562500
vt 0.075317 0.500000
vt 0.047036 0.437500
vt 0.032456 0.875000
vt 0.048167 0.750000
vt 0.108913 0.719958
vt 0.062500 0.658651
vt 0.015664 0.655822
vt 0.018885 0.520574
vt 0.000000 0.562500
vt 0.015625 0.000000
vt 0.000000 0.062500
vt 0.000000 0.399333
vt 0.046914 0.344178
vt 0.000000 0.784407
vt 0.000000 0.273040
vt 0.991904 0.273040
vt 0.992171 0.399333
vt 0.937867 0.282145
vt 1.000000 0.655822
vt 0.975379 0.784407
vt 0.953164 0.655822
vt 1.000000 0.500000
vt 0.984536 0.562500
vt 0.950317 0.500000
vt 0.953286 0.437500
vt 0.924679 0.375000
vt 0.915655 0.537235
vt 0.910279 0.750000
vt 0.906250 0.656371
vt 0.965747 0.187500
vt 0.868449 0.212346
vt 0.978825 0.875000
vt 0.921769 0.937500
vt 0.872374 0.843190
vt 0.887823 0.312500
vt 0.859536 0.562500
vt 0.856567 0.500000
vt 0.890786 0.437500
vt 0.855944 0.396148
vt 0.859414 0.655822
vt 0.939862 0.125000
vt 0.812867 0.282145
vt 0.814726 0.750000
vt 0.796945 0.653777
vt 0.828125 1.000000
vt 0.798190 0.375000
vt 0.797036 0.437500
vt 0.390786 0.562500
vt 0.387817 0.500000
vt 0.390786 0.437500
vt 0.390665 0.344178
vt 0.378980 0.250000
vt 0.000000 0.125000
vt 0.000000 0.187500
vt 0.801816 0.543181
s 0
f 2/1/1 6/2/1 13/3/1
f 11/4/2 14/5/2 4/6/2
f 8/7/3 9/8/3 3/9/3
f 5/10/4 127/11/4 44/12/4
f 9/8/5 16/13/5 10/14/5
f 139/15/6 32/16/6 6/2/6
f 14/5/7 21/17/7 12/18/7
f 7/19/8 15/20/8 8/7/8
f 12/18/9 21/17/9 31/21/9
f 15/20/10 18/22/10 9/8/10
f 32/16/11 22/23/11 13/3/11
f 14/5/12 17/24/12 20/25/12
f 139/15/13 1/26/13 59/27/13
f 19/28/14 25/29/14 17/24/14
f 22/23/15 27/30/15 13/3/15
f 16/13/16 18/22/16 24/31/16
f 18/22/17 23/32/17 28/33/17
f 24/31/18 29/34/18 19/28/18
f 20/25/19 25/29/19 30/35/19
f 20/25/20 30/35/20 21/17/20
f 29/34/21 35/36/21 25/29/21
f 32/16/22 41/37/22 22/23/22
f 23/32/23 27/30/23 33/38/23
f 31/21/24 51/39/24 26/40/24
f 24/31/25 28/33/25 34/41/25
f 28/33/26 33/38/26 37/42/26
f 34/41/27 35/36/27 29/34/27
f 30/35/28 35/36/28 38/43/28
f 41/37/29 36/44/29 27/30/29
f 32/16/30 59/27/30 40/45/30
f 37/42/31 42/46/31 47/47/31
f 37/42/32 47/47/32 48/48/32
f 38/43/33 43/49/33 50/50/33
f 41/37/34 45/51/34 36/44/34
f 36/44/35 45/51/35 46/52/35
f 26/40/36 146/53/36 145/54/36 12/18/36
f 41/37/37 40/45/37 52/55/37
f 39/56/38 50/50/38 64/57/38
f 44/12/39 51/39/39 76/58/39
f 5/59/40 44/12/40 76/58/40
f 48/48/41 49/60/41 43/49/41
f 64/57/42 73/61/42 51/39/42
f 52/55/43 54/62/43 45/51/43
f 59/27/44 77/63/44 40/45/44
f 52/55/45 77/63/45 67/64/45
f 54/62/46 68/65/46 60/66/46
f 54/62/47 60/66/47 55/67/47
f 60/66/48 68/65/48 69/68/48
f 61/69/49 65/70/49 70/71/49
f 59/27/50 1/72/50 82/73/50
f 66/74/51 71/75/51 62/76/51
f 70/71/52 75/77/52 66/74/52
f 71/75/53 81/78/53 72/79/53
f 72/79/54 81/78/54 87/80/54
f 75/77/55 80/81/55 71/75/55
f 67/64/56 77/63/56 88/82/56
f 71/75/57 80/81/57 81/78/57
f 74/83/58 85/84/58 75/77/58
f 74/83/59 79/85/59 83/86/59
f 96/87/60 111/88/60 76/58/60
f 74/83/61 83/86/61 84/89/61
f 5/90/62 76/58/62 111/88/62
f 77/63/63 82/73/63 92/91/63
f 85/84/64 86/92/64 80/81/64
f 88/82/65 89/93/65 78/94/65
f 84/89/66 95/95/66 85/84/66
f 85/84/67 95/95/67 86/92/67
f 87/80/68 91/96/68 100/97/68
f 83/86/69 90/98/69 93/99/69
f 82/73/70 1/100/70 131/101/70
f 92/91/71 105/102/71 88/82/71
f 86/92/72 95/95/72 99/103/72
f 94/104/73 99/103/73 95/95/73
f 99/103/74 109/105/74 91/96/74
f 100/97/75 110/106/75 96/87/75
f 93/99/76 98/107/76 102/108/76
f 93/99/77 102/108/77 103/109/77
f 103/109/78 108/110/78 94/104/78
f 131/101/79 118/111/79 92/91/79
f 105/102/80 106/112/80 97/113/80
f 100/97/81 109/105/81 110/106/81
f 97/113/82 101/114/82 98/107/82
f 101/114/83 106/112/83 112/115/83
f 107/116/84 112/115/84 115/117/84
f 5/118/85 111/88/85 127/119/85
f 107/116/86 113/120/86 108/110/86
f 108/110/87 113/120/87 104/121/87
f 105/102/88 118/111/88 114/122/88
f 104/121/89 113/120/89 116/123/89
f 105/102/90 114/122/90 106/112/90
f 104/121/91 116/123/91 109/105/91
f 116/124/92 113/125/92 126/126/92
f 112/127/93 114/128/93 119/129/93
f 107/130/94 115/131/94 120/132/94
f 121/133/95 125/134/95 113/125/95
f 115/131/96 119/129/96 124/135/96
f 119/129/97 128/136/97 123/137/97
f 122/138/98 126/126/98 137/139/98
f 118/140/99 131/141/99 132/142/99
f 118/140/100 132/142/100 114/128/100
f 126/126/101 125/134/101 130/143/101
f 124/135/102 134/144/102 135/145/102
f 129/146/103 136/147/103 125/134/103
f 130/143/104 137/139/104 126/126/104
f 123/137/105 128/136/105 133/148/105
f 137/139/106 146/53/106 117/149/106
f 135/145/107 136/147/107 129/146/107
f 130/143/108 136/147/108 138/150/108
f 132/142/109 140/151/109 128/136/109
f 133/148/110 140/151/110 141/152/110
f 137/139/111 138/150/111 145/54/111
f 131/141/112 1/153/112 139/15/112
f 138/150/113 144/154/113 4/6/113
f 140/151/114 2/1/114 7/19/114
f 4/6/115 12/18/115 138/150/115
f 141/152/116 7/19/116 8/7/116
f 3/9/117 10/14/117 143/155/117
f 3/9/118 9/8/118 10/14/118
f 7/19/119 2/1/119 13/3/119
f 4/6/120 14/5/120 12/18/120
f 44/12/121 127/11/121 146/53/121 26/40/121
f 17/24/122 11/4/122 10/14/122 16/13/122
f 23/32/123 15/20/123 13/3/123 27/30/123
f 6/2/124 32/16/124 13/3/124
f 11/4/125 17/24/125 14/5/125
f 7/19/126 13/3/126 15/20/126
f 9/8/127 8/7/127 15/20/127
f 21/17/128 14/5/128 20/25/128
f 12/18/129 31/21/129 26/40/129
f 9/8/130 18/22/130 16/13/130
f 16/13/131 19/28/131 17/24/131
f 16/13/132 24/31/132 19/28/132
f 139/15/133 59/27/133 32/16/133
f 20/25/134 17/24/134 25/29/134
f 38/43/135 39/56/135 31/21/135 30/35/135
f 15/20/136 23/32/136 18/22/136
f 21/17/137 30/35/137 31/21/137
f 24/31/138 18/22/138 28/33/138
f 19/28/139 29/34/139 25/29/139
f 24/31/140 34/41/140 29/34/140
f 30/35/141 25/29/141 35/36/141
f 22/23/142 41/37/142 27/30/142
f 28/33/143 23/32/143 33/38/143
f 44/12/144 26/40/144 51/39/144
f 43/49/145 35/36/145 34/41/145 37/42/145
f 51/39/146 31/21/146 39/56/146
f 34/41/147 28/33/147 37/42/147
f 33/38/148 27/30/148 36/44/148
f 32/16/149 40/45/149 41/37/149
f 38/43/150 35/36/150 43/49/150
f 33/38/151 36/44/151 42/46/151
f 37/42/152 33/38/152 42/46/152
f 55/67/153 56/156/153 47/47/153 46/52/153
f 36/44/154 46/52/154 42/46/154
f 37/42/155 48/48/155 43/49/155
f 39/56/156 38/43/156 50/50/156
f 50/50/157 43/49/157 49/60/157
f 41/37/158 52/55/158 45/51/158
f 39/56/159 64/57/159 51/39/159
f 47/47/160 42/46/160 46/52/160
f 56/156/161 57/157/161 48/48/161 47/47/161
f 51/39/162 73/61/162 76/58/162
f 58/158/163 49/60/163 48/48/163 57/157/163
f 66/74/164 58/158/164 57/157/164 61/69/164
f 49/60/165 58/158/165 53/159/165
f 50/50/166 49/60/166 53/159/166
f 50/50/167 53/159/167 63/160/167
f 46/52/168 45/51/168 54/62/168
f 64/57/169 50/50/169 63/160/169
f 46/52/170 54/62/170 55/67/170
f 40/45/171 77/63/171 52/55/171
f 57/157/172 56/156/172 61/69/172
f 62/76/173 53/159/173 58/158/173 66/74/173
f 68/65/174 54/62/174 52/55/174 67/64/174
f 60/66/175 61/69/175 56/156/175 55/67/175
f 53/159/176 62/76/176 63/160/176
f 72/79/177 63/160/177 62/76/177 71/75/177
f 69/68/178 65/70/178 61/69/178 60/66/178
f 64/57/179 63/160/179 72/79/179
f 64/57/180 72/79/180 73/61/180
f 96/87/181 73/61/181 72/79/181 87/80/181
f 61/69/182 70/71/182 66/74/182
f 59/27/183 82/73/183 77/63/183
f 66/74/184 75/77/184 71/75/184
f 69/68/185 68/65/185 78/94/185
f 69/68/186 78/94/186 79/85/186
f 79/85/187 74/83/187 65/70/187 69/68/187
f 78/94/188 68/65/188 67/64/188 88/82/188
f 76/58/189 73/61/189 96/87/189
f 70/71/190 65/70/190 74/83/190
f 70/71/191 74/83/191 75/77/191
f 90/98/192 79/85/192 78/94/192 89/93/192
f 75/77/193 85/84/193 80/81/193
f 87/80/194 81/78/194 91/96/194
f 98/107/195 90/98/195 89/93/195 97/113/195
f 83/86/196 79/85/196 90/98/196
f 74/83/197 84/89/197 85/84/197
f 77/63/198 92/91/198 88/82/198
f 81/78/199 80/81/199 86/92/199
f 81/78/200 86/92/200 91/96/200
f 87/80/201 100/97/201 96/87/201
f 84/89/202 83/86/202 93/99/202
f 94/104/203 95/95/203 84/89/203 93/99/203
f 93/99/204 90/98/204 98/107/204
f 97/113/205 89/93/205 88/82/205 105/102/205
f 82/73/206 131/101/206 92/91/206
f 104/121/207 99/103/207 94/104/207 108/110/207
f 86/92/208 99/103/208 91/96/208
f 100/97/209 91/96/209 109/105/209
f 96/87/210 110/106/210 111/88/210
f 93/99/211 103/109/211 94/104/211
f 102/108/212 98/107/212 101/114/212
f 112/115/213 107/116/213 102/108/213 101/114/213
f 92/91/214 118/111/214 105/102/214
f 99/103/215 104/121/215 109/105/215
f 97/113/216 106/112/216 101/114/216
f 127/119/217 111/88/217 110/106/217 117/161/217
f 103/109/218 102/108/218 107/116/218
f 103/109/219 107/116/219 108/110/219
f 116/123/220 122/162/220 110/106/220 109/105/220
f 112/115/221 106/112/221 114/122/221
f 121/133/222 113/125/222 107/130/222 120/132/222
f 110/106/223 122/162/223 117/161/223
f 115/131/224 112/127/224 119/129/224
f 129/146/225 121/133/225 120/132/225 124/135/225
f 120/132/226 115/131/226 124/135/226
f 126/126/227 113/125/227 125/134/227
f 119/129/228 114/128/228 128/136/228
f 122/138/229 116/124/229 126/126/229
f 114/128/230 132/142/230 128/136/230
f 117/149/231 122/138/231 137/139/231
f 124/135/232 119/129/232 123/137/232
f 133/148/233 134/144/233 124/135/233 123/137/233
f 121/133/234 129/146/234 125/134/234
f 124/135/235 135/145/235 129/146/235
f 130/143/236 125/134/236 136/147/236
f 143/155/237 136/147/237 135/145/237 142/163/237
f 130/143/238 138/150/238 137/139/238
f 133/148/239 128/136/239 140/151/239
f 117/149/240 146/53/240 127/11/240
f 139/15/241 6/2/241 132/142/241 131/141/241
f 141/152/242 142/163/242 134/144/242 133/148/242
f 136/147/243 143/155/243 144/154/243
f 132/142/244 6/2/244 2/1/244
f 138/150/245 136/147/245 144/154/245
f 132/142/246 2/1/246 140/151/246
f 137/139/247 145/54/247 146/53/247
f 11/4/248 144/154/248 143/155/248 10/14/248
f 135/145/249 134/144/249 142/163/249
f 142/163/250 3/9/250 143/155/250
f 144/154/251 11/4/251 4/6/251
f 141/152/252 140/151/252 7/19/252
f 145/54/253 138/150/253 12/18/253
f 142/163/254 141/152/254 8/7/254
f 3/9/255 142/163/255 8/7/255
