# Blender 5.0.0
# www.blender.org
mtllib prep_throw_ball0013.mtl
o Sphere
v -2.402255 5.917247 1.571199
v -2.399537 5.597527 1.067342
v -2.564487 4.653256 0.780389
v -2.808726 4.223998 1.026570
v -3.145944 4.137849 1.871036
v -2.343544 5.705903 1.218097
v -2.245917 5.244608 0.934068
v -2.333392 4.891486 0.816832
v -2.204972 4.624595 0.919790
v -2.479910 4.425088 0.883985
v -2.572553 4.282652 0.963020
v -2.792331 4.041096 1.297482
v -2.078509 5.388397 1.160137
v -2.532097 4.128242 1.144473
v -2.026219 5.001357 1.042193
v -2.129351 4.418056 1.081640
v -2.301867 4.202774 1.158540
v -1.917313 4.772807 1.180534
v -2.080993 4.311607 1.260376
v -2.333267 4.075171 1.389183
v -2.534704 4.010131 1.407735
v -2.002905 5.466975 1.362952
v -1.831088 5.006696 1.368912
v -1.905622 4.487623 1.397608
v -2.126599 4.184139 1.450875
v -2.840142 3.994235 1.623807
v -1.884321 5.292297 1.431917
v -1.807524 4.696384 1.538071
v -1.954135 4.345593 1.597181
v -2.297807 4.063654 1.705175
v -2.597389 3.982367 1.666588
v -2.095790 5.652073 1.459922
v -1.778974 5.032277 1.677543
v -1.850608 4.561028 1.772548
v -2.011146 4.298725 1.809592
v -1.848188 5.306736 1.816413
v -1.838405 4.735030 1.958196
v -2.313087 4.143707 1.993856
v -2.602750 4.081424 2.028114
v -2.142149 5.762024 1.809412
v -1.966089 5.555142 1.727069
v -1.845442 5.058917 2.021029
v -2.064870 4.442677 2.137806
v -2.960587 4.044056 1.818608
v -1.971284 5.483810 2.005579
v -1.949404 5.278395 2.166603
v -1.959641 4.968605 2.247563
v -2.028430 4.797774 2.302526
v -2.202770 4.577955 2.366596
v -2.428121 4.276135 2.260546
v -2.780899 4.055376 1.973372
v -2.158349 5.729580 2.033344
v -2.511516 4.574560 2.522278
v -2.156806 5.573390 2.268110
v -2.162730 5.331807 2.417160
v -2.215865 5.170913 2.501082
v -2.294238 5.005011 2.555831
v -2.362476 4.820123 2.560192
v -2.242056 5.842443 1.658712
v -2.379420 5.560719 2.477402
v -2.508187 5.251254 2.644673
v -2.731904 4.717342 2.619515
v -2.731556 4.398973 2.436726
v -2.823526 4.272600 2.313941
v -2.723159 5.473557 2.643245
v -2.692526 5.027308 2.690468
v -2.439490 5.903697 2.135621
v -2.445514 5.814743 2.298029
v -2.615681 5.693939 2.509156
v -2.814033 5.312161 2.690653
v -2.969256 4.847955 2.651708
v -3.072959 4.508730 2.455412
v -3.014829 4.248104 2.222703
v -3.118303 5.528573 2.597009
v -3.046155 5.207826 2.677669
v -3.107909 4.189118 2.062255
v -2.444310 5.966892 1.950417
v -2.831325 5.935439 2.308827
v -2.963712 5.767005 2.484880
v -3.250182 5.081576 2.600378
v -3.306519 4.798460 2.500414
v -2.489658 5.990584 1.749426
v -3.222915 5.684988 2.464633
v -3.455344 5.558679 2.370316
v -3.369526 5.334197 2.523743
v -3.531029 5.050965 2.389839
v -3.349157 4.548501 2.306120
v -2.771009 6.048562 2.030633
v -3.059025 6.006812 2.135729
v -3.238943 5.855951 2.285475
v -3.544646 4.773350 2.257791
v -2.737538 6.061973 1.773224
v -3.527504 5.675694 2.185237
v -3.693295 5.383149 2.084560
v -3.611773 5.266521 2.292213
v -3.345519 4.395828 2.144863
v -3.207175 6.015649 1.884927
v -3.421600 5.870956 1.991360
v -3.720886 5.054040 2.061343
v -3.549253 4.588770 2.071503
v -3.405312 5.893823 1.712761
v -3.594064 5.709502 1.845054
v -3.687637 5.540628 1.859822
v -3.769225 5.022819 1.764692
v -2.964550 6.059465 1.671207
v -3.158289 5.993254 1.595799
v -3.650889 5.504833 1.491421
v -3.753726 5.314807 1.717870
v -3.689555 4.748128 1.888026
v -3.533752 4.452012 1.843940
v -3.310888 4.263621 1.941984
v -3.396343 5.813282 1.455028
v -3.712057 5.082767 1.425209
v -3.002666 5.920702 1.323188
v -3.529567 5.526821 1.297064
v -3.670140 4.707174 1.541182
v -3.392513 4.277936 1.616949
v -2.762469 5.993055 1.453609
v -3.267530 5.663087 1.149399
v -3.519769 5.257322 1.139709
v -3.588558 5.086491 1.194672
v -3.527906 4.442230 1.564704
v -3.100296 5.525715 0.970406
v -3.343721 5.250101 0.972681
v -3.515595 4.820652 1.134052
v -3.562241 4.609168 1.330041
v -3.228962 4.150620 1.695608
v -2.923218 5.731596 1.079078
v -3.332334 4.884182 0.941154
v -3.379809 4.549822 1.112052
v -2.575607 5.970383 1.493066
v -2.629023 5.798202 1.166854
v -2.893506 5.385731 0.845337
v -3.026966 5.129979 0.799770
v -3.090611 4.943129 0.805702
v -3.200770 4.669811 0.898596
v -3.308521 4.297304 1.289949
v -3.077038 4.285450 1.068199
v -2.332991 5.812595 1.394977
v -2.562981 5.510968 0.933603
v -2.578944 5.207140 0.790527
v -2.713573 4.870810 0.736019
v -2.825042 4.581538 0.798991
v -2.904993 4.427905 0.886065
v -3.017076 4.103796 1.316174
v -3.114316 4.099857 1.485932
vn 0.5480 0.5693 -0.6128
vn 0.0139 -0.7600 -0.6498
vn 0.3416 -0.1906 -0.9203
vn -0.4175 -0.8990 0.1321
vn 0.4308 -0.4536 -0.7802
vn 0.5823 0.6803 -0.4451
vn 0.0651 -0.9107 -0.4079
vn 0.5541 0.1354 -0.8213
vn -0.0667 -0.9902 -0.1224
vn 0.6958 -0.0990 -0.7114
vn 0.6635 0.5803 -0.4722
vn 0.3018 -0.8510 -0.4297
vn 0.5252 0.8062 -0.2723
vn 0.5428 -0.7523 -0.3734
vn 0.8120 0.3744 -0.4478
vn 0.8009 -0.3416 -0.4919
vn 0.9453 -0.0979 -0.3112
vn 0.7735 -0.5899 -0.2318
vn 0.4847 -0.8705 -0.0861
vn 0.3008 -0.9512 -0.0684
vn 0.6749 -0.7376 0.0184
vn 0.8251 0.5243 -0.2104
vn 0.9591 0.2185 -0.1801
vn -0.0805 -0.9794 0.1849
vn 0.9180 -0.3924 -0.0579
vn 0.9894 -0.1188 0.0837
vn 0.8543 -0.5063 0.1176
vn 0.5583 -0.7914 0.2490
vn 0.9124 0.3968 -0.1006
vn 0.7243 0.6794 -0.1177
vn 0.9011 -0.0636 0.4289
vn 0.8470 -0.1801 0.5002
vn 0.4945 -0.6745 0.5482
vn 0.8754 0.4641 0.1352
vn 0.9026 0.3210 0.2869
vn -0.2763 -0.9445 -0.1775
vn 0.7812 0.6073 0.1445
vn 0.0881 -0.7952 0.5999
vn -0.2634 -0.8905 0.3709
vn -0.3589 -0.8812 0.3077
vn 0.6879 -0.3623 0.6289
vn -0.1401 -0.8426 0.5199
vn 0.7629 0.5406 0.3546
vn 0.5770 0.8150 0.0524
vn 0.5740 0.7794 0.2510
vn 0.5433 0.5740 0.6127
vn 0.6145 0.4033 0.6780
vn 0.4263 0.5932 0.6830
vn 0.1815 0.1817 0.9665
vn 0.4752 0.8709 -0.1254
vn 0.0088 -0.2242 0.9745
vn -0.0466 -0.0205 0.9987
vn -0.3267 -0.3966 0.8579
vn -0.4679 -0.4913 0.7347
vn -0.2807 -0.1286 0.9511
vn 0.3002 0.9051 0.3010
vn -0.3669 -0.2440 0.8977
vn -0.3786 0.1447 0.9142
vn -0.2322 0.5332 0.8135
vn -0.5165 -0.7551 0.4039
vn -0.5050 0.3354 0.7953
vn -0.4860 -0.8151 0.3152
vn 0.2808 0.9585 0.0496
vn -0.5967 -0.0387 0.8016
vn 0.0034 0.9261 0.3773
vn -0.7056 0.1957 0.6810
vn -0.6985 0.0612 0.7130
vn -0.6999 -0.4986 0.5114
vn -0.5641 0.5716 0.5959
vn 0.3666 0.9098 -0.1946
vn -0.0325 0.9983 0.0478
vn -0.8621 -0.0977 0.4973
vn -0.9199 0.0497 0.3890
vn -0.8818 -0.2976 0.3659
vn -0.7092 -0.6245 0.3270
vn -0.7571 0.6188 0.2096
vn -0.8464 0.4877 0.2141
vn -0.9706 0.2079 0.1212
vn 0.1632 0.9617 -0.2201
vn -0.2786 0.9528 -0.1209
vn -0.8465 -0.4798 0.2307
vn -0.5464 0.8367 0.0367
vn -0.4691 0.8382 -0.2782
vn -0.7313 0.5571 -0.3935
vn -0.5399 -0.8186 0.1959
vn -0.9437 0.1803 -0.2773
vn -0.9865 0.0265 -0.1615
vn -0.0837 0.9287 -0.3611
vn -0.9670 -0.1673 -0.1924
vn -0.1794 0.9204 -0.3473
vn -0.9578 -0.2867 -0.0198
vn -0.9065 -0.2136 -0.3641
vn -0.3841 0.7542 -0.5325
vn -0.8327 0.2563 -0.4908
vn -0.8728 -0.1324 -0.4697
vn -0.5997 0.4058 -0.6897
vn -0.2736 0.6224 -0.7333
vn -0.7584 -0.5784 -0.3005
vn 0.2053 0.8513 -0.4829
vn 0.0452 0.8359 -0.5470
vn -0.7649 -0.3390 -0.5478
vn -0.4397 0.1215 -0.8899
vn -0.6553 -0.2615 -0.7087
vn -0.7176 -0.5250 -0.4576
vn -0.1293 0.5476 -0.8267
vn -0.5930 -0.7803 -0.1985
vn -0.4651 -0.1111 -0.8783
vn -0.5209 -0.4794 -0.7063
vn 0.0832 0.6397 -0.7641
vn 0.0817 0.4211 -0.9033
vn -0.4667 -0.7635 -0.4464
vn 0.4123 0.8453 -0.3399
vn -0.2577 -0.6278 -0.7345
vn 0.3962 0.4703 -0.7886
vn -0.2666 -0.8062 -0.5282
vn 0.3670 0.2100 -0.9062
vn 0.0445 -0.3993 -0.9158
vn 0.3262 -0.2879 -0.9004
vn 0.5214 0.4906 -0.6982
vn -0.0497 -0.8292 -0.5568
vn -0.3706 -0.9286 0.0155
vn 0.3719 -0.5886 -0.7178
vn 0.8264 0.2635 -0.4976
vn 0.6186 0.6073 -0.4985
vn 0.2679 -0.7034 -0.6583
vn 0.6665 0.2983 -0.6833
vn 0.5966 -0.0224 -0.8022
vn 0.2493 -0.8845 -0.3944
vn -0.0227 -0.9891 -0.1454
vn 0.7176 -0.2474 -0.6510
vn 0.5587 -0.6373 -0.5307
vn 0.7819 -0.4194 -0.4613
vn 0.5896 0.7544 -0.2887
vn 0.5169 -0.7769 -0.3594
vn 0.2264 -0.9372 0.2654
vn 0.8538 0.0972 -0.5115
vn 0.2663 -0.9631 -0.0388
vn 0.9206 -0.2119 -0.3280
vn 0.7608 -0.6087 -0.2251
vn 0.9173 -0.3940 -0.0574
vn 0.6226 -0.7810 0.0491
vn 0.8455 0.4931 -0.2049
vn 0.9861 -0.0152 -0.1653
vn -0.1003 -0.9771 0.1879
vn 0.8281 -0.4443 0.3418
vn 0.0594 -0.9625 0.2646
vn 0.9830 -0.1619 0.0871
vn 0.9515 0.2907 -0.1003
vn 0.7339 0.6697 -0.1133
vn 0.6002 -0.6917 0.4016
vn 0.9719 0.1561 0.1760
vn 0.9814 -0.0158 0.1911
vn 0.7565 0.1231 0.6423
vn 0.9252 0.2476 0.2875
vn 0.8053 -0.3155 0.5019
vn 0.2380 -0.8251 0.5124
vn 0.4879 -0.5902 0.6431
vn 0.7937 0.5855 0.1648
vn -0.0405 -0.8447 0.5337
vn 0.8729 0.0962 0.4784
vn 0.6734 -0.0541 0.7373
vn -0.2303 -0.8625 0.4507
vn 0.5866 -0.2198 0.7795
vn 0.3153 -0.0788 0.9457
vn 0.4195 -0.3818 0.8236
vn 0.3817 -0.5468 0.7451
vn 0.1943 -0.6156 0.7638
vn 0.8029 0.4184 0.4246
vn 0.0980 -0.7293 0.6772
vn 0.7519 0.3327 0.5692
vn 0.6034 0.7819 0.1569
vn 0.4565 0.0768 0.8864
vn 0.2232 -0.2598 0.9395
vn 0.5953 0.6807 0.4269
vn 0.4894 0.2560 0.8337
vn 0.0600 -0.4970 0.8657
vn -0.1235 -0.4810 0.8680
vn 0.3339 0.3491 0.8756
vn -0.1594 -0.6258 0.7635
vn -0.2451 -0.6756 0.6954
vn -0.4339 -0.6548 0.6189
vn 0.1616 0.0683 0.9845
vn 0.5097 0.8602 -0.0136
vn -0.0814 -0.0890 0.9927
vn 0.2491 0.7403 0.6244
vn 0.0930 0.6836 0.7239
vn -0.0019 0.4737 0.8807
vn 0.2619 0.8617 0.4346
vn -0.4471 -0.7239 0.5255
vn -0.0668 0.3156 0.9465
vn -0.1483 0.2097 0.9665
vn -0.1869 0.7852 0.5903
vn -0.4000 0.0878 0.9123
vn -0.6308 -0.4063 0.6611
vn -0.4378 0.8466 0.3028
vn -0.2695 0.6845 0.6773
vn -0.5012 0.3494 0.7916
vn 0.2610 0.9617 0.0840
vn -0.5798 -0.1662 0.7976
vn -0.6670 -0.2931 0.6850
vn -0.6854 -0.5365 0.4924
vn -0.5572 0.5863 0.5880
vn -0.8155 0.2977 0.4962
vn -0.5815 0.7099 0.3973
vn -0.1051 0.9903 0.0909
vn 0.2587 0.9523 -0.1618
vn -0.9858 0.0741 0.1505
vn -0.8506 -0.1913 0.4898
vn -0.8658 -0.3446 0.3628
vn -0.6896 -0.6549 0.3091
vn -0.8755 0.4059 0.2624
vn -0.6918 0.7219 0.0188
vn -0.7614 0.6083 -0.2242
vn 0.0865 0.9725 -0.2164
vn -0.9636 -0.1995 0.1780
vn -0.4265 0.8934 -0.1413
vn -0.6630 -0.7365 0.1341
vn -0.8718 0.4715 -0.1328
vn -0.9277 0.3511 -0.1267
vn -0.8831 -0.4692 0.0024
vn -0.3688 0.8241 -0.4299
vn -0.8648 0.1983 -0.4612
vn -0.7726 -0.6348 0.0061
vn -0.6074 0.5811 -0.5416
vn -0.6863 0.0417 -0.7262
vn -0.6301 0.3743 -0.6803
vn -0.8855 -0.1954 -0.4216
vn -0.2737 0.7152 -0.6431
vn -0.8525 -0.4767 -0.2144
vn 0.0034 0.7911 -0.6117
vn -0.7162 -0.6612 -0.2231
vn -0.4809 0.4184 -0.7705
vn -0.3453 0.3169 -0.8834
vn -0.7181 -0.0386 -0.6949
vn -0.4989 0.0590 -0.8647
vn -0.6565 -0.2720 -0.7036
vn -0.2499 -0.1658 -0.9540
vn -0.5827 -0.5715 -0.5777
vn 0.0088 0.5604 -0.8282
vn -0.5741 -0.8103 -0.1178
vn 0.3376 0.8044 -0.4888
vn -0.0529 0.1897 -0.9804
vn -0.3147 -0.3388 -0.8867
vn 0.3391 0.6996 -0.6289
vn -0.4222 -0.4763 -0.7713
vn 0.2501 0.6444 -0.7227
vn -0.5066 -0.8049 -0.3089
vn -0.0075 -0.4860 -0.8739
vn -0.1763 0.0288 -0.9839
vn -0.0126 -0.2081 -0.9780
vn -0.0706 -0.5884 -0.8055
vn 0.3275 0.3884 -0.8613
vn -0.2688 -0.8068 -0.5260
vn 0.2033 0.0768 -0.9761
vn 0.2105 -0.0548 -0.9761
vt 0.781230 0.812500
vt 0.762032 0.875000
vt 0.685473 0.777944
vt 0.734697 0.375000
vt 0.703125 0.312500
vt 0.764235 0.312500
vt 0.741874 0.599249
vt 0.704616 0.531266
vt 0.763980 0.500000
vt 0.734375 0.000000
vt 0.879629 0.062500
vt 0.593677 0.062500
vt 0.670132 0.472235
vt 0.734536 0.437500
vt 0.734224 0.937500
vt 0.605595 0.875000
vt 0.658359 0.250000
vt 0.719918 0.218999
vt 0.734375 0.717281
vt 0.678319 0.660608
vt 0.606077 0.187500
vt 0.641330 0.592355
vt 0.623673 0.812500
vt 0.673680 0.375000
vt 0.639230 0.312500
vt 0.640625 1.000000
vt 0.479138 0.937500
vt 0.639064 0.437500
vt 0.612180 0.375000
vt 0.595563 0.750000
vt 0.606567 0.500000
vt 0.603325 0.667055
vt 0.578286 0.562500
vt 0.578286 0.437500
vt 0.577540 0.283466
vt 0.543444 0.396147
vt 0.512752 0.812500
vt 0.546915 0.655822
vt 0.503540 0.125000
vt 0.660224 0.125000
vt 0.544067 0.500000
vt 0.509405 0.537235
vt 0.515588 0.281661
vt 0.510998 0.724803
vt 0.449506 0.875000
vt 0.487180 0.625000
vt 0.453286 0.562500
vt 0.450317 0.500000
vt 0.485851 0.406417
vt 0.453088 0.281661
vt 0.455926 0.750000
vt 0.445771 0.665313
vt 0.799126 0.125000
vt 0.779637 0.187500
vt 0.402284 0.812500
vt 0.497588 0.187500
vt 0.386121 0.187500
vt 0.328120 0.062500
vt 0.453125 0.000000
vt 0.437500 0.406180
vt 0.347717 0.125000
vt 0.390588 0.718339
vt 0.293360 0.875000
vt 0.308534 0.812500
vt 0.316528 0.750000
vt 0.343750 0.656371
vt 0.393429 0.625000
vt 0.296915 0.655822
vt 0.343750 0.531273
vt 0.297036 0.562500
vt 0.294067 0.500000
vt 0.328125 1.000000
vt 0.230145 0.937500
vt 0.328286 0.437500
vt 0.296914 0.344178
vt 0.343750 0.343629
vt 0.265786 0.437500
vt 0.234338 0.281661
vt 0.296902 0.219059
vt 0.214815 0.187500
vt 0.237180 0.375000
vt 0.199790 0.812500
vt 0.237635 0.520573
vt 0.203286 0.437500
vt 0.237180 0.625000
vt 0.203286 0.562500
vt 0.190964 0.125000
vt 0.113605 0.062500
vt 0.169067 0.500000
vt 0.203125 0.000000
vt 0.137012 0.875000
vt 0.176363 0.337227
vt 0.171838 0.718339
vt 0.234338 0.718339
vt 0.148421 0.399333
vt 0.160278 0.250000
vt 0.121065 0.187500
vt 0.174680 0.625000
vt 0.134405 0.537235
vt 0.140625 1.000000
vt 0.030235 0.937500
vt 0.075252 0.812500
vt 0.102021 0.334687
vt 0.109536 0.437500
vt 0.066529 0.250000
vt 0.055088 0.153620
vt 0.112179 0.625000
vt 0.078286 0.562500
vt 0.075317 0.500000
vt 0.047036 0.437500
vt 0.032456 0.875000
vt 0.048167 0.750000
vt 0.108913 0.719958
vt 0.062500 0.658651
vt 0.015664 0.655822
vt 0.018885 0.520574
vt 0.000000 0.562500
vt 0.015625 0.000000
vt 0.000000 0.062500
vt 0.000000 0.399333
vt 0.046914 0.344178
vt 0.000000 0.784407
vt 0.000000 0.273040
vt 0.991904 0.273040
vt 0.992171 0.399333
vt 0.937867 0.282145
vt 1.000000 0.655822
vt 0.975379 0.784407
vt 0.953164 0.655822
vt 1.000000 0.500000
vt 0.984536 0.562500
vt 0.950317 0.500000
vt 0.953286 0.437500
vt 0.924679 0.375000
vt 0.915655 0.537235
vt 0.910279 0.750000
vt 0.906250 0.656371
vt 0.965747 0.187500
vt 0.868449 0.212346
vt 0.978825 0.875000
vt 0.921769 0.937500
vt 0.872374 0.843190
vt 0.887823 0.312500
vt 0.859536 0.562500
vt 0.856567 0.500000
vt 0.890786 0.437500
vt 0.855944 0.396148
vt 0.859414 0.655822
vt 0.939862 0.125000
vt 0.812867 0.282145
vt 0.814726 0.750000
vt 0.796945 0.653777
vt 0.828125 1.000000
vt 0.798190 0.375000
vt 0.797036 0.437500
vt 0.390786 0.562500
vt 0.387817 0.500000
vt 0.390786 0.437500
vt 0.390665 0.344178
vt 0.378980 0.250000
vt 0.000000 0.125000
vt 0.000000 0.187500
vt 0.801816 0.543181
s 0
f 2/1/1 6/2/1 13/3/1
f 11/4/2 14/5/2 4/6/2
f 8/7/3 9/8/3 3/9/3
f 5/10/4 127/11/4 44/12/4
f 9/8/5 16/13/5 10/14/5
f 139/15/6 32/16/6 6/2/6
f 14/5/7 21/17/7 12/18/7
f 7/19/8 15/20/8 8/7/8
f 12/18/9 21/17/9 31/21/9
f 15/20/10 18/22/10 9/8/10
f 32/16/11 22/23/11 13/3/11
f 14/5/12 17/24/12 20/25/12
f 139/15/13 1/26/13 59/27/13
f 19/28/14 25/29/14 17/24/14
f 22/23/15 27/30/15 13/3/15
f 16/13/16 18/22/16 24/31/16
f 18/22/17 23/32/17 28/33/17
f 24/31/18 29/34/18 19/28/18
f 20/25/19 25/29/19 30/35/19
f 20/25/20 30/35/20 21/17/20
f 29/34/21 35/36/21 25/29/21
f 32/16/22 41/37/22 22/23/22
f 23/32/23 27/30/23 33/38/23
f 31/21/24 51/39/24 26/40/24
f 24/31/25 28/33/25 34/41/25
f 28/33/26 33/38/26 37/42/26
f 34/41/27 35/36/27 29/34/27
f 30/35/28 35/36/28 38/43/28
f 41/37/29 36/44/29 27/30/29
f 32/16/30 59/27/30 40/45/30
f 37/42/31 42/46/31 47/47/31
f 37/42/32 47/47/32 48/48/32
f 38/43/33 43/49/33 50/50/33
f 41/37/34 45/51/34 36/44/34
f 36/44/35 45/51/35 46/52/35
f 26/40/36 146/53/36 145/54/36 12/18/36
f 41/37/37 40/45/37 52/55/37
f 39/56/38 50/50/38 64/57/38
f 44/12/39 51/39/39 76/58/39
f 5/59/40 44/12/40 76/58/40
f 48/48/41 49/60/41 43/49/41
f 64/57/42 73/61/42 51/39/42
f 52/55/43 54/62/43 45/51/43
f 59/27/44 77/63/44 40/45/44
f 52/55/45 77/63/45 67/64/45
f 54/62/46 68/65/46 60/66/46
f 54/62/47 60/66/47 55/67/47
f 60/66/48 68/65/48 69/68/48
f 61/69/49 65/70/49 70/71/49
f 59/27/50 1/72/50 82/73/50
f 66/74/51 71/75/51 62/76/51
f 70/71/52 75/77/52 66/74/52
f 71/75/53 81/78/53 72/79/53
f 72/79/54 81/78/54 87/80/54
f 75/77/55 80/81/55 71/75/55
f 67/64/56 77/63/56 88/82/56
f 71/75/57 80/81/57 81/78/57
f 74/83/58 85/84/58 75/77/58
f 74/83/59 79/85/59 83/86/59
f 96/87/60 111/88/60 76/58/60
f 74/83/61 83/86/61 84/89/61
f 5/90/62 76/58/62 111/88/62
f 77/63/63 82/73/63 92/91/63
f 85/84/64 86/92/64 80/81/64
f 88/82/65 89/93/65 78/94/65
f 84/89/66 95/95/66 85/84/66
f 85/84/67 95/95/67 86/92/67
f 87/80/68 91/96/68 100/97/68
f 83/86/69 90/98/69 93/99/69
f 82/73/70 1/100/70 131/101/70
f 92/91/71 105/102/71 88/82/71
f 86/92/72 95/95/72 99/103/72
f 94/104/73 99/103/73 95/95/73
f 99/103/74 109/105/74 91/96/74
f 100/97/75 110/106/75 96/87/75
f 93/99/76 98/107/76 102/108/76
f 93/99/77 102/108/77 103/109/77
f 103/109/78 108/110/78 94/104/78
f 131/101/79 118/111/79 92/91/79
f 105/102/80 106/112/80 97/113/80
f 100/97/81 109/105/81 110/106/81
f 97/113/82 101/114/82 98/107/82
f 101/114/83 106/112/83 112/115/83
f 107/116/84 112/115/84 115/117/84
f 5/118/85 111/88/85 127/119/85
f 107/116/86 113/120/86 108/110/86
f 108/110/87 113/120/87 104/121/87
f 105/102/88 118/111/88 114/122/88
f 104/121/89 113/120/89 116/123/89
f 105/102/90 114/122/90 106/112/90
f 104/121/91 116/123/91 109/105/91
f 116/124/92 113/125/92 126/126/92
f 112/127/93 114/128/93 119/129/93
f 107/130/94 115/131/94 120/132/94
f 121/133/95 125/134/95 113/125/95
f 115/131/96 119/129/96 124/135/96
f 119/129/97 128/136/97 123/137/97
f 122/138/98 126/126/98 137/139/98
f 118/140/99 131/141/99 132/142/99
f 118/140/100 132/142/100 114/128/100
f 126/126/101 125/134/101 130/143/101
f 124/135/102 134/144/102 135/145/102
f 129/146/103 136/147/103 125/134/103
f 130/143/104 137/139/104 126/126/104
f 123/137/105 128/136/105 133/148/105
f 137/139/106 146/53/106 117/149/106
f 135/145/107 136/147/107 129/146/107
f 130/143/108 136/147/108 138/150/108
f 132/142/109 140/151/109 128/136/109
f 133/148/110 140/151/110 141/152/110
f 137/139/111 138/150/111 145/54/111
f 131/141/112 1/153/112 139/15/112
f 138/150/113 144/154/113 4/6/113
f 140/151/114 2/1/114 7/19/114
f 4/6/115 12/18/115 138/150/115
f 141/152/116 7/19/116 8/7/116
f 3/9/117 10/14/117 143/155/117
f 3/9/118 9/8/118 10/14/118
f 7/19/119 2/1/119 13/3/119
f 4/6/120 14/5/120 12/18/120
f 44/12/121 127/11/121 146/53/121 26/40/121
f 17/24/122 11/4/122 10/14/122 16/13/122
f 23/32/123 15/20/123 13/3/123 27/30/123
f 6/2/124 32/16/124 13/3/124
f 11/4/125 17/24/125 14/5/125
f 7/19/126 13/3/126 15/20/126
f 9/8/127 8/7/127 15/20/127
f 21/17/128 14/5/128 20/25/128
f 12/18/129 31/21/129 26/40/129
f 9/8/130 18/22/130 16/13/130
f 16/13/131 19/28/131 17/24/131
f 16/13/132 24/31/132 19/28/132
f 139/15/133 59/27/133 32/16/133
f 20/25/134 17/24/134 25/29/134
f 38/43/135 39/56/135 31/21/135 30/35/135
f 15/20/136 23/32/136 18/22/136
f 21/17/137 30/35/137 31/21/137
f 24/31/138 18/22/138 28/33/138
f 19/28/139 29/34/139 25/29/139
f 24/31/140 34/41/140 29/34/140
f 30/35/141 25/29/141 35/36/141
f 22/23/142 41/37/142 27/30/142
f 28/33/143 23/32/143 33/38/143
f 44/12/144 26/40/144 51/39/144
f 43/49/145 35/36/145 34/41/145 37/42/145
f 51/39/146 31/21/146 39/56/146
f 34/41/147 28/33/147 37/42/147
f 33/38/148 27/30/148 36/44/148
f 32/16/149 40/45/149 41/37/149
f 38/43/150 35/36/150 43/49/150
f 33/38/151 36/44/151 42/46/151
f 37/42/152 33/38/152 42/46/152
f 55/67/153 56/156/153 47/47/153 46/52/153
f 36/44/154 46/52/154 42/46/154
f 37/42/155 48/48/155 43/49/155
f 39/56/156 38/43/156 50/50/156
f 50/50/157 43/49/157 49/60/157
f 41/37/158 52/55/158 45/51/158
f 39/56/159 64/57/159 51/39/159
f 47/47/160 42/46/160 46/52/160
f 56/156/161 57/157/161 48/48/161 47/47/161
f 51/39/162 73/61/162 76/58/162
f 58/158/163 49/60/163 48/48/163 57/157/163
f 66/74/164 58/158/164 57/157/164 61/69/164
f 49/60/165 58/158/165 53/159/165
f 50/50/166 49/60/166 53/159/166
f 50/50/167 53/159/167 63/160/167
f 46/52/168 45/51/168 54/62/168
f 64/57/169 50/50/169 63/160/169
f 46/52/170 54/62/170 55/67/170
f 40/45/171 77/63/171 52/55/171
f 57/157/172 56/156/172 61/69/172
f 62/76/173 53/159/173 58/158/173 66/74/173
f 68/65/174 54/62/174 52/55/174 67/64/174
f 60/66/175 61/69/175 56/156/175 55/67/175
f 53/159/176 62/76/176 63/160/176
f 72/79/177 63/160/177 62/76/177 71/75/177
f 69/68/178 65/70/178 61/69/178 60/66/178
f 64/57/179 63/160/179 72/79/179
f 64/57/180 72/79/180 73/61/180
f 96/87/181 73/61/181 72/79/181 87/80/181
f 61/69/182 70/71/182 66/74/182
f 59/27/183 82/73/183 77/63/183
f 66/74/184 75/77/184 71/75/184
f 69/68/185 68/65/185 78/94/185
f 69/68/186 78/94/186 79/85/186
f 79/85/187 74/83/187 65/70/187 69/68/187
f 78/94/188 68/65/188 67/64/188 88/82/188
f 76/58/189 73/61/189 96/87/189
f 70/71/190 65/70/190 74/83/190
f 70/71/191 74/83/191 75/77/191
f 90/98/192 79/85/192 78/94/192 89/93/192
f 75/77/193 85/84/193 80/81/193
f 87/80/194 81/78/194 91/96/194
f 98/107/195 90/98/195 89/93/195 97/113/195
f 83/86/196 79/85/196 90/98/196
f 74/83/197 84/89/197 85/84/197
f 77/63/198 92/91/198 88/82/198
f 81/78/199 80/81/199 86/92/199
f 81/78/200 86/92/200 91/96/200
f 87/80/201 100/97/201 96/87/201
f 84/89/202 83/86/202 93/99/202
f 94/104/203 95/95/203 84/89/203 93/99/203
f 93/99/204 90/98/204 98/107/204
f 97/113/205 89/93/205 88/82/205 105/102/205
f 82/73/206 131/101/206 92/91/206
f 104/121/207 99/103/207 94/104/207 108/110/207
f 86/92/208 99/103/208 91/96/208
f 100/97/209 91/96/209 109/105/209
f 96/87/210 110/106/210 111/88/210
f 93/99/211 103/109/211 94/104/211
f 102/108/212 98/107/212 101/114/212
f 112/115/213 107/116/213 102/108/213 101/114/213
f 92/91/214 118/111/214 105/102/214
f 99/103/215 104/121/215 109/105/215
f 97/113/216 106/112/216 101/114/216
f 127/119/217 111/88/217 110/106/217 117/161/217
f 103/109/218 102/108/218 107/116/218
f 103/109/219 107/116/219 108/110/219
f 116/123/220 122/162/220 110/106/220 109/105/220
f 112/115/221 106/112/221 114/122/221
f 121/133/222 113/125/222 107/130/222 120/132/222
f 110/106/223 122/162/223 117/161/223
f 115/131/224 112/127/224 119/129/224
f 129/146/225 121/133/225 120/132/225 124/135/225
f 120/132/226 115/131/226 124/135/226
f 126/126/227 113/125/227 125/134/227
f 119/129/228 114/128/228 128/136/228
f 122/138/229 116/124/229 126/126/229
f 114/128/230 132/142/230 128/136/230
f 117/149/231 122/138/231 137/139/231
f 124/135/232 119/129/232 123/137/232
f 133/148/233 134/144/233 124/135/233 123/137/233
f 121/133/234 129/146/234 125/134/234
f 124/135/235 135/145/235 129/146/235
f 130/143/236 125/134/236 136/147/236
f 143/155/237 136/147/237 135/145/237 142/163/237
f 130/143/238 138/150/238 137/139/238
f 133/148/239 128/136/239 140/151/239
f 117/149/240 146/53/240 127/11/240
f 139/15/241 6/2/241 132/142/241 131/141/241
f 141/152/242 142/163/242 134/144/242 133/148/242
f 136/147/243 143/155/243 144/154/243
f 132/142/244 6/2/244 2/1/244
f 138/150/245 136/147/245 144/154/245
f 132/142/246 2/1/246 140/151/246
f 137/139/247 145/54/247 146/53/247
f 11/4/248 144/154/248 143/155/248 10/14/248
f 135/145/249 134/144/249 142/163/249
f 142/163/250 3/9/250 143/155/250
f 144/154/251 11/4/251 4/6/251
f 141/152/252 140/151/252 7/19/252
f 145/54/253 138/150/253 12/18/253
f 142/163/254 141/152/254 8/7/254
f 3/9/255 142/163/255 8/7/255
