# Blender 5.0.0
# www.blender.org
mtllib prep_throw_ball0048.mtl
o Sphere
v -1.410032 6.414289 -0.647237
v -1.635828 5.745141 -0.671939
v -2.196650 5.154978 -0.227748
v -2.520628 5.366622 0.106974
v -2.669930 6.395006 0.472117
v -1.513010 5.927559 -0.658402
v -1.659624 5.411223 -0.463136
v -1.894433 5.189790 -0.308246
v -1.857456 5.156009 -0.052002
v -2.184088 5.153118 -0.007839
v -2.302480 5.225005 0.099027
v -2.515624 5.591519 0.357925
v -1.408226 5.645159 -0.409229
v -2.284811 5.352532 0.295596
v -1.531541 5.355679 -0.196709
v -1.832191 5.229391 0.178631
v -2.049235 5.304143 0.311971
v -1.489968 5.382222 0.045897
v -1.790202 5.368108 0.344437
v -2.074831 5.523608 0.495572
v -2.274205 5.599868 0.495553
v -1.267815 5.866239 -0.346780
v -1.285331 5.639246 0.002270
v -1.538929 5.513042 0.337688
v -1.837067 5.549167 0.505563
v -2.505011 5.951531 0.529001
v -1.212561 5.832261 -0.169518
v -1.343468 5.703757 0.291211
v -1.591845 5.699955 0.511880
v -1.979223 5.852220 0.659855
v -2.284297 5.898584 0.618757
v -1.260430 6.075926 -0.446787
v -1.162674 5.966589 0.142990
v -1.381516 5.929236 0.478715
v -1.614061 5.938594 0.627381
v -1.091856 6.245129 0.009896
v -1.265626 6.190837 0.454263
v -1.900508 6.203847 0.738261
v -2.173915 6.333083 0.721250
v -1.185049 6.517292 -0.367541
v -1.123423 6.283045 -0.225155
v -1.137536 6.379266 0.269034
v -1.537158 6.371768 0.672466
v -2.551402 6.230673 0.556555
v -1.094380 6.564987 -0.049467
v -1.116667 6.659036 0.166325
v -1.223752 6.640271 0.405078
v -1.336725 6.666115 0.525441
v -1.559858 6.725874 0.655300
v -1.895735 6.589507 0.746516
v -2.353899 6.333797 0.667307
v -1.163102 6.757695 -0.245716
v -1.802010 7.017081 0.651470
v -1.169168 6.958406 -0.032997
v -1.232256 7.037234 0.193865
v -1.321337 7.092270 0.325226
v -1.441042 7.123431 0.439803
v -1.569714 7.088469 0.545895
v -1.276520 6.420262 -0.516302
v -1.326582 7.271172 0.016306
v -1.520281 7.393916 0.264923
v -1.923733 7.262032 0.546843
v -2.081667 6.946602 0.670684
v -2.237137 6.802560 0.672857
v -1.628886 7.557127 0.063326
v -1.757800 7.436072 0.386402
v -1.326079 7.043397 -0.384083
v -1.329463 7.191921 -0.251283
v -1.480153 7.447076 -0.116691
v -1.759616 7.586781 0.168321
v -2.079150 7.437909 0.415486
v -2.340316 7.141125 0.520157
v -2.436137 6.768969 0.597483
v -1.969783 7.681853 -0.095292
v -2.007752 7.626362 0.171550
v -2.575619 6.608320 0.537499
v -1.346876 6.864848 -0.513380
v -1.625232 7.399221 -0.424019
v -1.767670 7.583847 -0.264880
v -2.252986 7.576419 0.166298
v -2.430267 7.386900 0.291212
v -1.421857 6.670705 -0.634445
v -2.033140 7.634169 -0.286621
v -2.307338 7.576708 -0.307042
v -2.281517 7.630367 -0.065952
v -2.559710 7.444987 0.016333
v -2.603414 7.100429 0.353759
v -1.589608 7.110974 -0.612946
v -1.838568 7.324689 -0.609925
v -2.022417 7.505502 -0.486758
v -2.703890 7.205420 0.133546
v -1.610534 6.820175 -0.733501
v -2.367928 7.444215 -0.488829
v -2.646217 7.293626 -0.385993
v -2.572273 7.447342 -0.191520
v -2.691987 6.867038 0.379639
v -2.021288 7.111027 -0.770749
v -2.242895 7.260128 -0.680684
v -2.798477 7.160424 -0.187658
v -2.817108 6.936313 0.166587
v -2.280161 6.956255 -0.821740
v -2.488117 7.109340 -0.687000
v -2.631097 7.101546 -0.593034
v -2.917288 6.842707 -0.318111
v -1.835425 6.796744 -0.837475
v -2.048718 6.766449 -0.878667
v -2.691469 6.669938 -0.732291
v -2.804775 6.890443 -0.527873
v -2.922164 6.847674 -0.059666
v -2.903545 6.631228 0.154054
v -2.754375 6.583143 0.380534
v -2.357976 6.640896 -0.886974
v -2.917548 6.469287 -0.501547
v -1.996353 6.379883 -0.918668
v -2.617429 6.416814 -0.806592
v -2.995209 6.444687 -0.189884
v -2.891952 6.263800 0.198402
v -1.727551 6.454456 -0.843944
v -2.365544 6.200680 -0.898236
v -2.743237 6.143180 -0.700561
v -2.856210 6.169024 -0.580199
v -2.962408 6.319004 0.031485
v -2.306763 5.888906 -0.848936
v -2.625506 5.887963 -0.728930
v -2.903550 5.977976 -0.415244
v -2.981475 6.135194 -0.196618
v -2.776952 6.239814 0.360557
v -2.049017 6.012592 -0.888217
v -2.758625 5.717026 -0.500346
v -2.888527 5.802761 -0.212926
v -1.561289 6.415982 -0.762910
v -1.743564 6.017033 -0.815861
v -2.202113 5.619781 -0.762625
v -2.426009 5.530187 -0.649955
v -2.550988 5.494432 -0.540668
v -2.730754 5.541262 -0.345806
v -2.880785 5.878890 0.054309
v -2.727323 5.540123 0.017562
v -1.425579 6.155934 -0.643149
v -1.842386 5.631577 -0.719288
v -2.000812 5.371387 -0.590606
v -2.257724 5.243407 -0.429473
v -2.451077 5.252171 -0.238446
v -2.560617 5.323843 -0.117227
v -2.688071 5.723144 0.268095
v -2.739287 5.946295 0.325190
vn 0.6271 -0.3714 -0.6847
vn -0.4541 -0.7283 0.5133
vn 0.0761 -0.9871 -0.1411
vn -0.6554 -0.0873 0.7502
vn 0.0487 -0.9533 0.2980
vn 0.6996 -0.2225 -0.6790
vn -0.3927 -0.5679 0.7233
vn 0.4795 -0.7841 -0.3940
vn -0.4542 -0.3528 0.8181
vn 0.5235 -0.8520 0.0035
vn 0.7467 -0.3076 -0.5898
vn -0.1838 -0.6432 0.7433
vn 0.7004 -0.0534 -0.7117
vn 0.0669 -0.6536 0.7539
vn 0.8338 -0.4327 -0.3428
vn 0.5012 -0.7551 0.4226
vn 0.7733 -0.5677 0.2823
vn 0.3551 -0.5816 0.7319
vn 0.0108 -0.4497 0.8931
vn -0.1551 -0.4053 0.9009
vn 0.2275 -0.4070 0.8847
vn 0.9068 -0.2070 -0.3671
vn 0.9362 -0.3515 0.0016
vn -0.4053 -0.1651 0.8992
vn 0.5975 -0.4507 0.6632
vn 0.8241 -0.2938 0.4842
vn 0.4968 -0.3402 0.7984
vn 0.1434 -0.2459 0.9586
vn 0.9638 -0.2107 -0.1634
vn 0.8671 -0.0593 -0.4945
vn 0.8301 -0.0163 0.5574
vn 0.7298 0.0068 0.6836
vn 0.1886 -0.0233 0.9818
vn 0.9906 -0.0174 -0.1358
vn 0.9955 0.0249 0.0919
vn -0.6179 -0.3234 0.7167
vn 0.9509 0.0664 -0.3023
vn -0.1626 0.0795 0.9835
vn -0.4939 0.0122 0.8694
vn -0.5763 0.0043 0.8173
vn 0.5164 0.0745 0.8531
vn -0.3648 0.0799 0.9276
vn 0.9698 0.1907 -0.1523
vn 0.8041 0.1311 -0.5799
vn 0.8421 0.2485 -0.4787
vn 0.8741 0.4631 -0.1465
vn 0.8951 0.4351 0.0977
vn 0.8038 0.5680 -0.1769
vn 0.4832 0.7893 0.3787
vn 0.6970 0.0678 -0.7138
vn 0.0731 0.6374 0.7670
vn 0.1374 0.8154 0.5624
vn -0.3467 0.5683 0.7462
vn -0.5224 0.4710 0.7108
vn -0.1758 0.8033 0.5691
vn 0.6588 0.3894 -0.6437
vn -0.3237 0.7129 0.6221
vn -0.1435 0.9728 0.1819
vn 0.2013 0.9327 -0.2991
vn -0.6642 0.1483 0.7327
vn -0.1891 0.9657 -0.1781
vn -0.6636 0.0649 0.7453
vn 0.5962 0.2462 -0.7641
vn -0.4832 0.8379 0.2540
vn 0.4451 0.5287 -0.7227
vn -0.4832 0.8641 -0.1406
vn -0.5453 0.8372 0.0424
vn -0.7574 0.3835 0.5284
vn -0.1438 0.8289 -0.5406
vn 0.6066 0.0675 -0.7922
vn 0.3667 0.3336 -0.8684
vn -0.7838 0.6187 0.0544
vn -0.7728 0.6068 -0.1858
vn -0.8807 0.4298 0.1991
vn -0.8125 0.2078 0.5447
vn -0.3283 0.5655 -0.7566
vn -0.4733 0.5682 -0.6731
vn -0.7434 0.4624 -0.4833
vn 0.4572 0.1198 -0.8812
vn 0.1425 0.2855 -0.9477
vn -0.9125 0.2451 0.3277
vn -0.0783 0.4276 -0.9006
vn -0.0618 0.2168 -0.9743
vn -0.4057 0.1462 -0.9022
vn -0.7271 0.0079 0.6865
vn -0.7735 0.1689 -0.6109
vn -0.8808 0.2093 -0.4248
vn 0.2422 0.0946 -0.9656
vn -0.9660 0.1145 -0.2317
vn 0.1711 0.1243 -0.9774
vn -0.9824 0.1852 -0.0221
vn -0.9689 -0.0377 -0.2444
vn -0.0681 0.0267 -0.9973
vn -0.6710 0.0213 -0.7412
vn -0.9240 -0.0915 -0.3712
vn -0.4319 -0.1246 -0.8933
vn -0.0690 -0.1685 -0.9833
vn -0.9621 -0.1673 0.2152
vn 0.4231 -0.0735 -0.9031
vn 0.2856 -0.0718 -0.9557
vn -0.9536 -0.2591 -0.1536
vn -0.5127 -0.4476 -0.7327
vn -0.8740 -0.3916 -0.2877
vn -0.9564 -0.2726 0.1054
vn 0.0012 -0.3050 -0.9524
vn -0.8444 -0.2091 0.4931
vn -0.6782 -0.5429 -0.4952
vn -0.8548 -0.5190 0.0064
vn 0.2246 -0.2906 -0.9301
vn 0.1198 -0.4978 -0.8590
vn -0.8056 -0.4112 0.4266
vn 0.6064 -0.0490 -0.7937
vn -0.6838 -0.6845 0.2526
vn 0.4443 -0.4975 -0.7450
vn -0.6732 -0.5439 0.5009
vn 0.3087 -0.7429 -0.5940
vn -0.3573 -0.9339 0.0125
vn 0.0076 -0.9999 -0.0089
vn 0.5753 -0.4628 -0.6745
vn -0.5037 -0.6383 0.5821
vn -0.6467 -0.1765 0.7421
vn -0.0677 -0.8908 0.4492
vn 0.8112 -0.5287 -0.2499
vn 0.7099 -0.2992 -0.6376
vn -0.2048 -0.8126 0.5456
vn 0.6597 -0.6067 -0.4436
vn 0.4543 -0.8724 -0.1806
vn -0.2317 -0.6056 0.7613
vn -0.4251 -0.3782 0.8223
vn 0.4679 -0.8557 0.2210
vn 0.1139 -0.7760 0.6204
vn 0.4406 -0.7403 0.5078
vn 0.7412 -0.0994 -0.6639
vn 0.0364 -0.6387 0.7686
vn -0.1540 -0.1862 0.9704
vn 0.7754 -0.6282 -0.0641
vn -0.1800 -0.3802 0.9072
vn 0.6890 -0.6112 0.3896
vn 0.3352 -0.5764 0.7452
vn 0.5960 -0.4506 0.6646
vn 0.1711 -0.3821 0.9081
vn 0.9180 -0.2221 -0.3287
vn 0.8576 -0.4375 0.2703
vn -0.4190 -0.1579 0.8942
vn 0.5360 -0.1733 0.8263
vn -0.2843 -0.1511 0.9467
vn 0.7949 -0.3030 0.5257
vn 0.9636 -0.2642 -0.0403
vn 0.8741 -0.0628 -0.4817
vn 0.2398 -0.1425 0.9603
vn 0.9625 -0.1312 0.2376
vn 0.8860 -0.1840 0.4256
vn 0.8655 0.2496 0.4343
vn 0.9841 -0.0082 0.1777
vn 0.6157 -0.0258 0.7876
vn -0.0717 -0.0205 0.9972
vn 0.2380 0.0622 0.9693
vn 0.9607 0.0687 -0.2690
vn -0.2864 0.0600 0.9562
vn 0.9067 0.0841 0.4133
vn 0.7156 0.2757 0.6418
vn -0.4500 0.0580 0.8912
vn 0.5499 0.2650 0.7921
vn 0.4427 0.5672 0.6945
vn 0.3240 0.2813 0.9032
vn 0.1923 0.1726 0.9660
vn 0.0131 0.2142 0.9767
vn 0.9824 0.1859 0.0204
vn -0.1211 0.1455 0.9819
vn 0.9463 0.2771 0.1669
vn 0.8431 0.1799 -0.5068
vn 0.6521 0.5370 0.5352
vn 0.2470 0.4993 0.8305
vn 0.8875 0.3360 -0.3153
vn 0.7688 0.5589 0.3106
vn -0.0320 0.3791 0.9248
vn -0.1874 0.4535 0.8713
vn 0.6910 0.7025 0.1705
vn -0.2845 0.3207 0.9034
vn -0.3811 0.2811 0.8808
vn -0.5461 0.2996 0.7823
vn 0.3995 0.7557 0.5189
vn 0.7442 0.1221 -0.6567
vn 0.0607 0.7812 0.6213
vn 0.6720 0.6147 -0.4130
vn 0.5488 0.7469 -0.3754
vn 0.4261 0.8983 -0.1070
vn 0.6547 0.4854 -0.5795
vn -0.5841 0.2149 0.7827
vn 0.2987 0.9487 0.1040
vn 0.1564 0.9623 0.2224
vn 0.2932 0.7345 -0.6119
vn -0.1985 0.9490 0.2448
vn -0.6582 0.5173 0.5470
vn 0.0487 0.5837 -0.8105
vn 0.1999 0.8290 -0.5223
vn -0.1777 0.9644 -0.1956
vn 0.5889 0.2730 -0.7607
vn -0.5200 0.7526 0.4039
vn -0.6584 0.6112 0.4392
vn -0.7546 0.3481 0.5563
vn -0.1308 0.8214 -0.5551
vn -0.5397 0.7518 -0.3789
vn -0.1159 0.6779 -0.7260
vn 0.3181 0.3769 -0.8700
vn 0.5376 0.1262 -0.8337
vn -0.8279 0.4467 -0.3391
vn -0.8095 0.5651 0.1592
vn -0.8806 0.4014 0.2517
vn -0.8039 0.1784 0.5674
vn -0.5416 0.5962 -0.5926
vn -0.2438 0.4328 -0.8679
vn -0.3811 0.2714 -0.8838
vn 0.4029 0.1440 -0.9039
vn -0.9330 0.3590 -0.0245
vn 0.0097 0.2982 -0.9545
vn -0.8238 0.0321 0.5659
vn -0.5315 0.3265 -0.7816
vn -0.6443 0.3150 -0.6969
vn -0.9736 0.1087 0.2005
vn -0.0143 0.1010 -0.9948
vn -0.7266 0.0305 -0.6864
vn -0.9189 0.0186 0.3940
vn -0.3191 0.0297 -0.9472
vn -0.7312 -0.2683 -0.6272
vn -0.4726 -0.1210 -0.8729
vn -0.9554 -0.0773 -0.2850
vn -0.0162 -0.0803 -0.9966
vn -0.9916 -0.0466 0.1205
vn 0.2306 -0.1132 -0.9664
vn -0.9275 -0.1544 0.3405
vn -0.3440 -0.2096 -0.9153
vn -0.3102 -0.3802 -0.8713
vn -0.7985 -0.2677 -0.5392
vn -0.5975 -0.4353 -0.6735
vn -0.8787 -0.3912 -0.2735
vn -0.5365 -0.7361 -0.4127
vn -0.8951 -0.4213 0.1460
vn 0.1234 -0.3455 -0.9303
vn -0.8154 -0.1713 0.5530
vn 0.5165 -0.1300 -0.8464
vn -0.1361 -0.6453 -0.7517
vn -0.6718 -0.7178 -0.1827
vn 0.4749 -0.2573 -0.8416
vn -0.7903 -0.6126 0.0055
vn 0.3729 -0.3143 -0.8730
vn -0.8075 -0.3132 0.4998
vn -0.4390 -0.8902 0.1216
vn -0.3531 -0.6916 -0.6301
vn -0.3304 -0.8971 -0.2932
vn -0.5210 -0.8165 0.2487
vn 0.3442 -0.5762 -0.7413
vn -0.6747 -0.5417 0.5014
vn 0.0635 -0.8283 -0.5566
vn -0.0013 -0.9160 -0.4011
vt 0.781230 0.812500
vt 0.762032 0.875000
vt 0.685473 0.777944
vt 0.734697 0.375000
vt 0.703125 0.312500
vt 0.764235 0.312500
vt 0.741874 0.599249
vt 0.704616 0.531266
vt 0.763980 0.500000
vt 0.734375 0.000000
vt 0.879629 0.062500
vt 0.593677 0.062500
vt 0.670132 0.472235
vt 0.734536 0.437500
vt 0.734224 0.937500
vt 0.605595 0.875000
vt 0.658359 0.250000
vt 0.719918 0.218999
vt 0.734375 0.717281
vt 0.678319 0.660608
vt 0.606077 0.187500
vt 0.641330 0.592355
vt 0.623673 0.812500
vt 0.673680 0.375000
vt 0.639230 0.312500
vt 0.640625 1.000000
vt 0.479138 0.937500
vt 0.639064 0.437500
vt 0.612180 0.375000
vt 0.595563 0.750000
vt 0.606567 0.500000
vt 0.603325 0.667055
vt 0.578286 0.562500
vt 0.578286 0.437500
vt 0.577540 0.283466
vt 0.543444 0.396147
vt 0.512752 0.812500
vt 0.546915 0.655822
vt 0.503540 0.125000
vt 0.660224 0.125000
vt 0.544067 0.500000
vt 0.509405 0.537235
vt 0.515588 0.281661
vt 0.510998 0.724803
vt 0.449506 0.875000
vt 0.487180 0.625000
vt 0.453286 0.562500
vt 0.450317 0.500000
vt 0.485851 0.406417
vt 0.453088 0.281661
vt 0.455926 0.750000
vt 0.445771 0.665313
vt 0.799126 0.125000
vt 0.779637 0.187500
vt 0.402284 0.812500
vt 0.497588 0.187500
vt 0.386121 0.187500
vt 0.328120 0.062500
vt 0.453125 0.000000
vt 0.437500 0.406180
vt 0.347717 0.125000
vt 0.390588 0.718339
vt 0.293360 0.875000
vt 0.308534 0.812500
vt 0.316528 0.750000
vt 0.343750 0.656371
vt 0.393429 0.625000
vt 0.296915 0.655822
vt 0.343750 0.531273
vt 0.297036 0.562500
vt 0.294067 0.500000
vt 0.328125 1.000000
vt 0.230145 0.937500
vt 0.328286 0.437500
vt 0.296914 0.344178
vt 0.343750 0.343629
vt 0.265786 0.437500
vt 0.234338 0.281661
vt 0.296902 0.219059
vt 0.214815 0.187500
vt 0.237180 0.375000
vt 0.199790 0.812500
vt 0.237635 0.520573
vt 0.203286 0.437500
vt 0.237180 0.625000
vt 0.203286 0.562500
vt 0.190964 0.125000
vt 0.113605 0.062500
vt 0.169067 0.500000
vt 0.203125 0.000000
vt 0.137012 0.875000
vt 0.176363 0.337227
vt 0.171838 0.718339
vt 0.234338 0.718339
vt 0.148421 0.399333
vt 0.160278 0.250000
vt 0.121065 0.187500
vt 0.174680 0.625000
vt 0.134405 0.537235
vt 0.140625 1.000000
vt 0.030235 0.937500
vt 0.075252 0.812500
vt 0.102021 0.334687
vt 0.109536 0.437500
vt 0.066529 0.250000
vt 0.055088 0.153620
vt 0.112179 0.625000
vt 0.078286 0.562500
vt 0.075317 0.500000
vt 0.047036 0.437500
vt 0.032456 0.875000
vt 0.048167 0.750000
vt 0.108913 0.719958
vt 0.062500 0.658651
vt 0.015664 0.655822
vt 0.018885 0.520574
vt 0.000000 0.562500
vt 0.015625 0.000000
vt 0.000000 0.062500
vt 0.000000 0.399333
vt 0.046914 0.344178
vt 0.000000 0.784407
vt 0.000000 0.273040
vt 0.991904 0.273040
vt 0.992171 0.399333
vt 0.937867 0.282145
vt 1.000000 0.655822
vt 0.975379 0.784407
vt 0.953164 0.655822
vt 1.000000 0.500000
vt 0.984536 0.562500
vt 0.950317 0.500000
vt 0.953286 0.437500
vt 0.924679 0.375000
vt 0.915655 0.537235
vt 0.910279 0.750000
vt 0.906250 0.656371
vt 0.965747 0.187500
vt 0.868449 0.212346
vt 0.978825 0.875000
vt 0.921769 0.937500
vt 0.872374 0.843190
vt 0.887823 0.312500
vt 0.859536 0.562500
vt 0.856567 0.500000
vt 0.890786 0.437500
vt 0.855944 0.396148
vt 0.859414 0.655822
vt 0.939862 0.125000
vt 0.812867 0.282145
vt 0.814726 0.750000
vt 0.796945 0.653777
vt 0.828125 1.000000
vt 0.798190 0.375000
vt 0.797036 0.437500
vt 0.390786 0.562500
vt 0.387817 0.500000
vt 0.390786 0.437500
vt 0.390665 0.344178
vt 0.378980 0.250000
vt 0.000000 0.125000
vt 0.000000 0.187500
vt 0.801816 0.543181
s 0
f 2/1/1 6/2/1 13/3/1
f 11/4/2 14/5/2 4/6/2
f 8/7/3 9/8/3 3/9/3
f 5/10/4 127/11/4 44/12/4
f 9/8/5 16/13/5 10/14/5
f 139/15/6 32/16/6 6/2/6
f 14/5/7 21/17/7 12/18/7
f 7/19/8 15/20/8 8/7/8
f 12/18/9 21/17/9 31/21/9
f 15/20/10 18/22/10 9/8/10
f 32/16/11 22/23/11 13/3/11
f 14/5/12 17/24/12 20/25/12
f 139/15/13 1/26/13 59/27/13
f 19/28/14 25/29/14 17/24/14
f 22/23/15 27/30/15 13/3/15
f 16/13/16 18/22/16 24/31/16
f 18/22/17 23/32/17 28/33/17
f 24/31/18 29/34/18 19/28/18
f 20/25/19 25/29/19 30/35/19
f 20/25/20 30/35/20 21/17/20
f 29/34/21 35/36/21 25/29/21
f 32/16/22 41/37/22 22/23/22
f 23/32/23 27/30/23 33/38/23
f 31/21/24 51/39/24 26/40/24
f 24/31/25 28/33/25 34/41/25
f 28/33/26 33/38/26 37/42/26
f 34/41/27 35/36/27 29/34/27
f 30/35/28 35/36/28 38/43/28
f 41/37/29 36/44/29 27/30/29
f 32/16/30 59/27/30 40/45/30
f 37/42/31 42/46/31 47/47/31
f 37/42/32 47/47/32 48/48/32
f 38/43/33 43/49/33 50/50/33
f 41/37/34 45/51/34 36/44/34
f 36/44/35 45/51/35 46/52/35
f 26/40/36 146/53/36 145/54/36 12/18/36
f 41/37/37 40/45/37 52/55/37
f 39/56/38 50/50/38 64/57/38
f 44/12/39 51/39/39 76/58/39
f 5/59/40 44/12/40 76/58/40
f 48/48/41 49/60/41 43/49/41
f 64/57/42 73/61/42 51/39/42
f 52/55/43 54/62/43 45/51/43
f 59/27/44 77/63/44 40/45/44
f 52/55/45 77/63/45 67/64/45
f 54/62/46 68/65/46 60/66/46
f 54/62/47 60/66/47 55/67/47
f 60/66/48 68/65/48 69/68/48
f 61/69/49 65/70/49 70/71/49
f 59/27/50 1/72/50 82/73/50
f 66/74/51 71/75/51 62/76/51
f 70/71/52 75/77/52 66/74/52
f 71/75/53 81/78/53 72/79/53
f 72/79/54 81/78/54 87/80/54
f 75/77/55 80/81/55 71/75/55
f 67/64/56 77/63/56 88/82/56
f 71/75/57 80/81/57 81/78/57
f 74/83/58 85/84/58 75/77/58
f 74/83/59 79/85/59 83/86/59
f 96/87/60 111/88/60 76/58/60
f 74/83/61 83/86/61 84/89/61
f 5/90/62 76/58/62 111/88/62
f 77/63/63 82/73/63 92/91/63
f 85/84/64 86/92/64 80/81/64
f 88/82/65 89/93/65 78/94/65
f 84/89/66 95/95/66 85/84/66
f 85/84/67 95/95/67 86/92/67
f 87/80/68 91/96/68 100/97/68
f 83/86/69 90/98/69 93/99/69
f 82/73/70 1/100/70 131/101/70
f 92/91/71 105/102/71 88/82/71
f 86/92/72 95/95/72 99/103/72
f 94/104/73 99/103/73 95/95/73
f 99/103/74 109/105/74 91/96/74
f 100/97/75 110/106/75 96/87/75
f 93/99/76 98/107/76 102/108/76
f 93/99/77 102/108/77 103/109/77
f 103/109/78 108/110/78 94/104/78
f 131/101/79 118/111/79 92/91/79
f 105/102/80 106/112/80 97/113/80
f 100/97/81 109/105/81 110/106/81
f 97/113/82 101/114/82 98/107/82
f 101/114/83 106/112/83 112/115/83
f 107/116/84 112/115/84 115/117/84
f 5/118/85 111/88/85 127/119/85
f 107/116/86 113/120/86 108/110/86
f 108/110/87 113/120/87 104/121/87
f 105/102/88 118/111/88 114/122/88
f 104/121/89 113/120/89 116/123/89
f 105/102/90 114/122/90 106/112/90
f 104/121/91 116/123/91 109/105/91
f 116/124/92 113/125/92 126/126/92
f 112/127/93 114/128/93 119/129/93
f 107/130/94 115/131/94 120/132/94
f 121/133/95 125/134/95 113/125/95
f 115/131/96 119/129/96 124/135/96
f 119/129/97 128/136/97 123/137/97
f 122/138/98 126/126/98 137/139/98
f 118/140/99 131/141/99 132/142/99
f 118/140/100 132/142/100 114/128/100
f 126/126/101 125/134/101 130/143/101
f 124/135/102 134/144/102 135/145/102
f 129/146/103 136/147/103 125/134/103
f 130/143/104 137/139/104 126/126/104
f 123/137/105 128/136/105 133/148/105
f 137/139/106 146/53/106 117/149/106
f 135/145/107 136/147/107 129/146/107
f 130/143/108 136/147/108 138/150/108
f 132/142/109 140/151/109 128/136/109
f 133/148/110 140/151/110 141/152/110
f 137/139/111 138/150/111 145/54/111
f 131/141/112 1/153/112 139/15/112
f 138/150/113 144/154/113 4/6/113
f 140/151/114 2/1/114 7/19/114
f 4/6/115 12/18/115 138/150/115
f 141/152/116 7/19/116 8/7/116
f 3/9/117 10/14/117 143/155/117
f 3/9/118 9/8/118 10/14/118
f 7/19/119 2/1/119 13/3/119
f 4/6/120 14/5/120 12/18/120
f 44/12/121 127/11/121 146/53/121 26/40/121
f 17/24/122 11/4/122 10/14/122 16/13/122
f 23/32/123 15/20/123 13/3/123 27/30/123
f 6/2/124 32/16/124 13/3/124
f 11/4/125 17/24/125 14/5/125
f 7/19/126 13/3/126 15/20/126
f 9/8/127 8/7/127 15/20/127
f 21/17/128 14/5/128 20/25/128
f 12/18/129 31/21/129 26/40/129
f 9/8/130 18/22/130 16/13/130
f 16/13/131 19/28/131 17/24/131
f 16/13/132 24/31/132 19/28/132
f 139/15/133 59/27/133 32/16/133
f 20/25/134 17/24/134 25/29/134
f 38/43/135 39/56/135 31/21/135 30/35/135
f 15/20/136 23/32/136 18/22/136
f 21/17/137 30/35/137 31/21/137
f 24/31/138 18/22/138 28/33/138
f 19/28/139 29/34/139 25/29/139
f 24/31/140 34/41/140 29/34/140
f 30/35/141 25/29/141 35/36/141
f 22/23/142 41/37/142 27/30/142
f 28/33/143 23/32/143 33/38/143
f 44/12/144 26/40/144 51/39/144
f 43/49/145 35/36/145 34/41/145 37/42/145
f 51/39/146 31/21/146 39/56/146
f 34/41/147 28/33/147 37/42/147
f 33/38/148 27/30/148 36/44/148
f 32/16/149 40/45/149 41/37/149
f 38/43/150 35/36/150 43/49/150
f 33/38/151 36/44/151 42/46/151
f 37/42/152 33/38/152 42/46/152
f 55/67/153 56/156/153 47/47/153 46/52/153
f 36/44/154 46/52/154 42/46/154
f 37/42/155 48/48/155 43/49/155
f 39/56/156 38/43/156 50/50/156
f 50/50/157 43/49/157 49/60/157
f 41/37/158 52/55/158 45/51/158
f 39/56/159 64/57/159 51/39/159
f 47/47/160 42/46/160 46/52/160
f 56/156/161 57/157/161 48/48/161 47/47/161
f 51/39/162 73/61/162 76/58/162
f 58/158/163 49/60/163 48/48/163 57/157/163
f 66/74/164 58/158/164 57/157/164 61/69/164
f 49/60/165 58/158/165 53/159/165
f 50/50/166 49/60/166 53/159/166
f 50/50/167 53/159/167 63/160/167
f 46/52/168 45/51/168 54/62/168
f 64/57/169 50/50/169 63/160/169
f 46/52/170 54/62/170 55/67/170
f 40/45/171 77/63/171 52/55/171
f 57/157/172 56/156/172 61/69/172
f 62/76/173 53/159/173 58/158/173 66/74/173
f 68/65/174 54/62/174 52/55/174 67/64/174
f 60/66/175 61/69/175 56/156/175 55/67/175
f 53/159/176 62/76/176 63/160/176
f 72/79/177 63/160/177 62/76/177 71/75/177
f 69/68/178 65/70/178 61/69/178 60/66/178
f 64/57/179 63/160/179 72/79/179
f 64/57/180 72/79/180 73/61/180
f 96/87/181 73/61/181 72/79/181 87/80/181
f 61/69/182 70/71/182 66/74/182
f 59/27/183 82/73/183 77/63/183
f 66/74/184 75/77/184 71/75/184
f 69/68/185 68/65/185 78/94/185
f 69/68/186 78/94/186 79/85/186
f 79/85/187 74/83/187 65/70/187 69/68/187
f 78/94/188 68/65/188 67/64/188 88/82/188
f 76/58/189 73/61/189 96/87/189
f 70/71/190 65/70/190 74/83/190
f 70/71/191 74/83/191 75/77/191
f 90/98/192 79/85/192 78/94/192 89/93/192
f 75/77/193 85/84/193 80/81/193
f 87/80/194 81/78/194 91/96/194
f 98/107/195 90/98/195 89/93/195 97/113/195
f 83/86/196 79/85/196 90/98/196
f 74/83/197 84/89/197 85/84/197
f 77/63/198 92/91/198 88/82/198
f 81/78/199 80/81/199 86/92/199
f 81/78/200 86/92/200 91/96/200
f 87/80/201 100/97/201 96/87/201
f 84/89/202 83/86/202 93/99/202
f 94/104/203 95/95/203 84/89/203 93/99/203
f 93/99/204 90/98/204 98/107/204
f 97/113/205 89/93/205 88/82/205 105/102/205
f 82/73/206 131/101/206 92/91/206
f 104/121/207 99/103/207 94/104/207 108/110/207
f 86/92/208 99/103/208 91/96/208
f 100/97/209 91/96/209 109/105/209
f 96/87/210 110/106/210 111/88/210
f 93/99/211 103/109/211 94/104/211
f 102/108/212 98/107/212 101/114/212
f 112/115/213 107/116/213 102/108/213 101/114/213
f 92/91/214 118/111/214 105/102/214
f 99/103/215 104/121/215 109/105/215
f 97/113/216 106/112/216 101/114/216
f 127/119/217 111/88/217 110/106/217 117/161/217
f 103/109/218 102/108/218 107/116/218
f 103/109/219 107/116/219 108/110/219
f 116/123/220 122/162/220 110/106/220 109/105/220
f 112/115/221 106/112/221 114/122/221
f 121/133/222 113/125/222 107/130/222 120/132/222
f 110/106/223 122/162/223 117/161/223
f 115/131/224 112/127/224 119/129/224
f 129/146/225 121/133/225 120/132/225 124/135/225
f 120/132/226 115/131/226 124/135/226
f 126/126/227 113/125/227 125/134/227
f 119/129/228 114/128/228 128/136/228
f 122/138/229 116/124/229 126/126/229
f 114/128/230 132/142/230 128/136/230
f 117/149/231 122/138/231 137/139/231
f 124/135/232 119/129/232 123/137/232
f 133/148/233 134/144/233 124/135/233 123/137/233
f 121/133/234 129/146/234 125/134/234
f 124/135/235 135/145/235 129/146/235
f 130/143/236 125/134/236 136/147/236
f 143/155/237 136/147/237 135/145/237 142/163/237
f 130/143/238 138/150/238 137/139/238
f 133/148/239 128/136/239 140/151/239
f 117/149/240 146/53/240 127/11/240
f 139/15/241 6/2/241 132/142/241 131/141/241
f 141/152/242 142/163/242 134/144/242 133/148/242
f 136/147/243 143/155/243 144/154/243
f 132/142/244 6/2/244 2/1/244
f 138/150/245 136/147/245 144/154/245
f 132/142/246 2/1/246 140/151/246
f 137/139/247 145/54/247 146/53/247
f 11/4/248 144/154/248 143/155/248 10/14/248
f 135/145/249 134/144/249 142/163/249
f 142/163/250 3/9/250 143/155/250
f 144/154/251 11/4/251 4/6/251
f 141/152/252 140/151/252 7/19/252
f 145/54/253 138/150/253 12/18/253
f 142/163/254 141/152/254 8/7/254
f 3/9/255 142/163/255 8/7/255
