# Blender 5.0.0
# www.blender.org
mtllib prep_throw_ball0046.mtl
o Sphere
v -1.412624 6.421074 -0.636811
v -1.637264 5.751635 -0.664572
v -2.197792 5.157333 -0.223522
v -2.522643 5.366052 0.111685
v -2.674229 6.391655 0.480923
v -1.514772 5.934213 -0.650126
v -1.660828 5.416268 -0.457190
v -1.895509 5.193311 -0.303509
v -1.858875 5.157883 -0.047365
v -2.185570 5.154020 -0.003609
v -2.304248 5.224941 0.103412
v -2.518405 5.589267 0.363574
v -1.409906 5.650358 -0.402007
v -2.287097 5.351181 0.300530
v -1.533068 5.359198 -0.190844
v -1.834091 5.229765 0.183601
v -2.051467 5.303170 0.316988
v -1.491917 5.384195 0.051919
v -1.792592 5.367451 0.350033
v -2.077715 5.521343 0.501469
v -2.277215 5.597189 0.501527
v -1.269961 5.871305 -0.338468
v -1.287642 5.641931 0.009611
v -1.541551 5.512949 0.344192
v -1.840009 5.547326 0.511854
v -2.508659 5.948145 0.536160
v -1.214926 5.836249 -0.161283
v -1.346336 5.704377 0.298745
v -1.595049 5.698577 0.519095
v -1.982911 5.849043 0.667234
v -2.287998 5.895051 0.625960
v -1.262769 6.081676 -0.437591
v -1.165750 5.968576 0.151840
v -1.385051 5.928513 0.487140
v -1.617844 5.936389 0.635561
v -1.095189 6.248154 0.019992
v -1.269560 6.190514 0.463917
v -1.904904 6.200300 0.747198
v -2.178500 6.329082 0.730395
v -1.188248 6.522659 -0.356418
v -1.126454 6.287585 -0.214935
v -1.141496 6.380451 0.279630
v -1.541733 6.369411 0.682542
v -2.555559 6.227002 0.564819
v -1.098155 6.568401 -0.038041
v -1.120934 6.660951 0.178113
v -1.228359 6.640358 0.416655
v -1.341562 6.665159 0.536987
v -1.564997 6.723581 0.666824
v -1.900788 6.585907 0.757064
v -2.358401 6.329787 0.676238
v -1.166893 6.762284 -0.233567
v -1.807629 7.014308 0.663913
v -1.173624 6.961549 -0.020023
v -1.237197 7.038719 0.207087
v -1.326574 7.092686 0.338568
v -1.446509 7.122828 0.453129
v -1.575287 7.086886 0.558918
v -1.279326 6.426442 -0.505691
v -1.331637 7.273652 0.030391
v -1.525927 7.394321 0.279282
v -1.929596 7.259708 0.560161
v -2.087197 6.943123 0.682496
v -2.242429 6.798747 0.683881
v -1.634490 7.558661 0.078236
v -1.763704 7.435168 0.400647
v -1.330130 7.048575 -0.370939
v -1.333968 7.196196 -0.237527
v -1.485293 7.450131 -0.102057
v -1.765432 7.587337 0.183195
v -2.085102 7.436144 0.429350
v -2.345935 7.138121 0.532468
v -2.441255 6.765252 0.608127
v -1.975347 7.683747 -0.080273
v -2.013638 7.626383 0.186289
v -2.580376 6.604720 0.547307
v -1.350428 6.870856 -0.501003
v -1.629814 7.404044 -0.409755
v -1.772807 7.587301 -0.250022
v -2.258781 7.575969 0.180532
v -2.435940 7.385246 0.304441
v -1.424896 6.677375 -0.622965
v -2.038327 7.637219 -0.271874
v -2.312396 7.579330 -0.292865
v -2.287040 7.631420 -0.051524
v -2.565051 7.444913 0.029652
v -2.608706 7.098000 0.365585
v -1.593415 7.117146 -0.599837
v -1.842736 7.330322 -0.596226
v -2.027077 7.509924 -0.472531
v -2.709013 7.204263 0.145691
v -1.613668 6.827119 -0.721626
v -2.372482 7.447936 -0.475275
v -2.650679 7.296082 -0.373403
v -2.577295 7.448641 -0.178204
v -2.696929 6.864256 0.390386
v -2.024848 7.117367 -0.758159
v -2.246844 7.265402 -0.667741
v -2.803025 7.161233 -0.175810
v -2.821834 6.934704 0.177475
v -2.283383 6.962405 -0.810106
v -2.491803 7.114151 -0.674982
v -2.634917 7.105430 -0.581223
v -2.921103 6.844152 -0.307727
v -1.838357 6.803923 -0.825968
v -2.051535 6.773465 -0.867543
v -2.694352 6.674640 -0.722348
v -2.808343 6.893532 -0.517152
v -2.926390 6.847371 -0.049271
v -2.907743 6.629529 0.163567
v -2.758845 6.580231 0.390023
v -2.360570 6.647329 -0.876746
v -2.920454 6.471972 -0.492715
v -1.998463 6.387281 -0.909089
v -2.619774 6.422173 -0.797612
v -2.998560 6.445115 -0.181254
v -2.895605 6.261832 0.206398
v -1.729902 6.461907 -0.833731
v -2.367386 6.207180 -0.889850
v -2.745290 6.147570 -0.692874
v -2.858493 6.172370 -0.572542
v -2.965894 6.318013 0.039628
v -2.308162 5.895201 -0.841778
v -2.627090 5.892791 -0.722163
v -2.905771 5.980117 -0.408443
v -2.984299 6.135701 -0.189259
v -2.780818 6.236995 0.368590
v -2.050562 6.019682 -0.880232
v -2.760278 5.720043 -0.494455
v -2.890771 5.803575 -0.206840
v -1.563703 6.423232 -0.752658
v -1.745230 6.024268 -0.807490
v -2.203198 5.625715 -0.756462
v -2.427119 5.534902 -0.644438
v -2.552208 5.498154 -0.535452
v -2.732356 5.543300 -0.340616
v -2.883572 5.877921 0.060718
v -2.729488 5.539724 0.022747
v -1.427746 6.162663 -0.633817
v -1.843559 5.637964 -0.712642
v -2.001751 5.376585 -0.585237
v -2.258699 5.246992 -0.424949
v -2.452364 5.254070 -0.234123
v -2.562212 5.324698 -0.112740
v -2.690932 5.721138 0.274086
v -2.742609 5.943795 0.332047
vn 0.6283 -0.3673 -0.6858
vn -0.4537 -0.7320 0.5083
vn 0.0783 -0.9859 -0.1476
vn -0.6564 -0.0915 0.7488
vn 0.0504 -0.9551 0.2919
vn 0.7007 -0.2184 -0.6792
vn -0.3929 -0.5723 0.7198
vn 0.4812 -0.7810 -0.3982
vn -0.4549 -0.3573 0.8158
vn 0.5252 -0.8510 -0.0014
vn 0.7477 -0.3038 -0.5905
vn -0.1836 -0.6475 0.7396
vn 0.7014 -0.0493 -0.7110
vn 0.0674 -0.6574 0.7505
vn 0.8348 -0.4297 -0.3443
vn 0.5025 -0.7565 0.4186
vn 0.7742 -0.5677 0.2798
vn 0.3558 -0.5845 0.7292
vn 0.0107 -0.4538 0.8910
vn -0.1555 -0.4097 0.8989
vn 0.2274 -0.4106 0.8830
vn 0.9076 -0.2040 -0.3670
vn 0.9368 -0.3499 0.0007
vn -0.4062 -0.1696 0.8979
vn 0.5979 -0.4527 0.6615
vn 0.8243 -0.2945 0.4836
vn 0.4967 -0.3429 0.7973
vn 0.1428 -0.2497 0.9577
vn 0.9643 -0.2084 -0.1633
vn 0.8679 -0.0558 -0.4936
vn 0.8293 -0.0173 0.5585
vn 0.7289 0.0052 0.6846
vn 0.1874 -0.0271 0.9819
vn 0.9908 -0.0152 -0.1344
vn 0.9953 0.0262 0.0937
vn -0.6186 -0.3277 0.7141
vn 0.9513 0.0692 -0.3004
vn -0.1639 0.0751 0.9836
vn -0.4950 0.0078 0.8688
vn -0.5773 -0.0001 0.8165
vn 0.5151 0.0717 0.8541
vn -0.3661 0.0754 0.9275
vn 0.9697 0.1930 -0.1495
vn 0.8048 0.1349 -0.5780
vn 0.8426 0.2521 -0.4759
vn 0.8737 0.4653 -0.1421
vn 0.8941 0.4362 0.1021
vn 0.8032 0.5703 -0.1719
vn 0.4808 0.7880 0.3845
vn 0.6980 0.0719 -0.7125
vn 0.0707 0.6336 0.7705
vn 0.1349 0.8123 0.5674
vn -0.3484 0.5640 0.7487
vn -0.5238 0.4667 0.7126
vn -0.1779 0.7996 0.5735
vn 0.6594 0.3935 -0.6406
vn -0.3256 0.7089 0.6256
vn -0.1457 0.9713 0.1881
vn 0.1999 0.9351 -0.2928
vn -0.6653 0.1441 0.7325
vn -0.1910 0.9664 -0.1719
vn -0.6646 0.0607 0.7447
vn 0.5971 0.2506 -0.7621
vn -0.4849 0.8354 0.2587
vn 0.4454 0.5331 -0.7193
vn -0.4849 0.8640 -0.1355
vn -0.5469 0.8358 0.0472
vn -0.7585 0.3799 0.5296
vn -0.1450 0.8318 -0.5358
vn 0.6076 0.0718 -0.7910
vn 0.3674 0.3382 -0.8664
vn -0.7849 0.6170 0.0573
vn -0.7739 0.6063 -0.1829
vn -0.8815 0.4274 0.2006
vn -0.8134 0.2041 0.5447
vn -0.3288 0.5687 -0.7540
vn -0.4741 0.5707 -0.6705
vn -0.7440 0.4633 -0.4815
vn 0.4582 0.1243 -0.8801
vn 0.1431 0.2899 -0.9463
vn -0.9132 0.2421 0.3278
vn -0.0782 0.4317 -0.8986
vn -0.0612 0.2209 -0.9734
vn -0.4050 0.1493 -0.9020
vn -0.7280 0.0038 0.6856
vn -0.7731 0.1702 -0.6110
vn -0.8807 0.2096 -0.4248
vn 0.2432 0.0990 -0.9649
vn -0.9659 0.1138 -0.2324
vn 0.1721 0.1287 -0.9766
vn -0.9827 0.1837 -0.0224
vn -0.9685 -0.0383 -0.2462
vn -0.0670 0.0307 -0.9973
vn -0.6700 0.0233 -0.7420
vn -0.9232 -0.0915 -0.3732
vn -0.4304 -0.1215 -0.8944
vn -0.0674 -0.1644 -0.9841
vn -0.9623 -0.1698 0.2126
vn 0.4244 -0.0690 -0.9029
vn 0.2869 -0.0673 -0.9556
vn -0.9528 -0.2600 -0.1568
vn -0.5104 -0.4450 -0.7359
vn -0.8726 -0.3917 -0.2917
vn -0.9561 -0.2746 0.1020
vn 0.0030 -0.3008 -0.9537
vn -0.8450 -0.2127 0.4906
vn -0.6761 -0.5416 -0.4996
vn -0.8538 -0.5205 0.0016
vn 0.2261 -0.2862 -0.9311
vn 0.1217 -0.4935 -0.8612
vn -0.8058 -0.4146 0.4229
vn 0.6075 -0.0447 -0.7931
vn -0.6832 -0.6872 0.2471
vn 0.4458 -0.4932 -0.7470
vn -0.6734 -0.5477 0.4966
vn 0.3106 -0.7390 -0.5979
vn -0.3554 -0.9347 0.0057
vn 0.0097 -0.9998 -0.0156
vn 0.5766 -0.4586 -0.6762
vn -0.5037 -0.6423 0.5777
vn -0.6476 -0.1807 0.7403
vn -0.0665 -0.8938 0.4436
vn 0.8122 -0.5261 -0.2520
vn 0.7110 -0.2952 -0.6382
vn -0.2041 -0.8162 0.5405
vn 0.6610 -0.6033 -0.4463
vn 0.4561 -0.8704 -0.1856
vn -0.2317 -0.6099 0.7579
vn -0.4258 -0.3827 0.8199
vn 0.4695 -0.8561 0.2161
vn 0.1149 -0.7793 0.6160
vn 0.4419 -0.7422 0.5038
vn 0.7422 -0.0954 -0.6634
vn 0.0368 -0.6427 0.7653
vn -0.1549 -0.1906 0.9694
vn 0.7765 -0.6265 -0.0671
vn -0.1805 -0.3847 0.9052
vn 0.6900 -0.6118 0.3867
vn 0.3359 -0.5795 0.7426
vn 0.5965 -0.4526 0.6628
vn 0.1710 -0.3859 0.9066
vn 0.9187 -0.2192 -0.3287
vn 0.8583 -0.4373 0.2687
vn -0.4199 -0.1624 0.8929
vn 0.5354 -0.1758 0.8261
vn -0.2853 -0.1556 0.9457
vn 0.7950 -0.3039 0.5250
vn 0.9641 -0.2624 -0.0405
vn 0.8749 -0.0594 -0.4807
vn 0.2390 -0.1462 0.9600
vn 0.9624 -0.1306 0.2382
vn 0.8859 -0.1843 0.4257
vn 0.8642 0.2492 0.4372
vn 0.9838 -0.0073 0.1792
vn 0.6147 -0.0281 0.7883
vn -0.0729 -0.0247 0.9970
vn 0.2366 0.0586 0.9698
vn 0.9610 0.0714 -0.2671
vn -0.2876 0.0555 0.9561
vn 0.9059 0.0839 0.4152
vn 0.7139 0.2741 0.6444
vn -0.4512 0.0535 0.8908
vn 0.5481 0.2624 0.7942
vn 0.4403 0.5644 0.6983
vn 0.3221 0.2779 0.9050
vn 0.1907 0.1688 0.9670
vn 0.0115 0.2101 0.9776
vn 0.9820 0.1874 0.0232
vn -0.1225 0.1411 0.9824
vn 0.9454 0.2779 0.1702
vn 0.8437 0.1835 -0.5045
vn 0.6498 0.5355 0.5394
vn 0.2447 0.4957 0.8333
vn 0.8876 0.3389 -0.3118
vn 0.7670 0.5587 0.3155
vn -0.0339 0.3749 0.9265
vn -0.1892 0.4491 0.8732
vn 0.6892 0.7028 0.1763
vn -0.2861 0.3163 0.9045
vn -0.3825 0.2767 0.8816
vn -0.5474 0.2953 0.7830
vn 0.3970 0.7535 0.5241
vn 0.7450 0.1261 -0.6550
vn 0.0583 0.7778 0.6259
vn 0.6718 0.6181 -0.4081
vn 0.5482 0.7501 -0.3698
vn 0.4245 0.8998 -0.1004
vn 0.6550 0.4893 -0.5758
vn -0.5853 0.2106 0.7830
vn 0.2966 0.9486 0.1108
vn 0.1541 0.9612 0.2290
vn 0.2928 0.7385 -0.6073
vn -0.2006 0.9470 0.2507
vn -0.6595 0.5135 0.5490
vn 0.0485 0.5878 -0.8075
vn 0.1991 0.8325 -0.5170
vn -0.1795 0.9653 -0.1895
vn 0.5897 0.2774 -0.7585
vn -0.5216 0.7494 0.4078
vn -0.6597 0.6078 0.4420
vn -0.7556 0.3443 0.5572
vn -0.1320 0.8244 -0.5504
vn -0.5411 0.7528 -0.3748
vn -0.1166 0.6815 -0.7224
vn 0.3186 0.3814 -0.8678
vn 0.5386 0.1306 -0.8324
vn -0.8286 0.4468 -0.3375
vn -0.8106 0.5629 0.1617
vn -0.8815 0.3988 0.2529
vn -0.8048 0.1747 0.5672
vn -0.5425 0.5981 -0.5899
vn -0.2438 0.4363 -0.8661
vn -0.3808 0.2746 -0.8830
vn 0.4039 0.1486 -0.9027
vn -0.9336 0.3575 -0.0236
vn 0.0103 0.3024 -0.9531
vn -0.8247 0.0284 0.5649
vn -0.5314 0.3290 -0.7806
vn -0.6443 0.3169 -0.6960
vn -0.9741 0.1062 0.1997
vn -0.0133 0.1051 -0.9944
vn -0.7257 0.0322 -0.6872
vn -0.9195 0.0154 0.3927
vn -0.3180 0.0331 -0.9475
vn -0.7295 -0.2667 -0.6298
vn -0.4711 -0.1181 -0.8741
vn -0.9548 -0.0777 -0.2869
vn -0.0148 -0.0762 -0.9970
vn -0.9917 -0.0488 0.1186
vn 0.2319 -0.1088 -0.9666
vn -0.9279 -0.1574 0.3381
vn -0.3423 -0.2062 -0.9167
vn -0.3081 -0.3768 -0.8736
vn -0.7970 -0.2666 -0.5420
vn -0.5953 -0.4332 -0.6768
vn -0.8774 -0.3914 -0.2775
vn -0.5341 -0.7347 -0.4182
vn -0.8947 -0.4236 0.1418
vn 0.1251 -0.3412 -0.9316
vn -0.8161 -0.1750 0.5508
vn 0.5177 -0.1256 -0.8463
vn -0.1337 -0.6416 -0.7553
vn -0.6700 -0.7180 -0.1885
vn 0.4762 -0.2529 -0.8422
vn -0.7892 -0.6141 0.0002
vn 0.3744 -0.3099 -0.8740
vn -0.8080 -0.3168 0.4967
vn -0.4375 -0.8918 0.1150
vn -0.3505 -0.6888 -0.6346
vn -0.3280 -0.8959 -0.2996
vn -0.5200 -0.8190 0.2426
vn 0.3459 -0.5719 -0.7438
vn -0.6748 -0.5454 0.4972
vn 0.0658 -0.8249 -0.5614
vn 0.0010 -0.9135 -0.4069
vt 0.781230 0.812500
vt 0.762032 0.875000
vt 0.685473 0.777944
vt 0.734697 0.375000
vt 0.703125 0.312500
vt 0.764235 0.312500
vt 0.741874 0.599249
vt 0.704616 0.531266
vt 0.763980 0.500000
vt 0.734375 0.000000
vt 0.879629 0.062500
vt 0.593677 0.062500
vt 0.670132 0.472235
vt 0.734536 0.437500
vt 0.734224 0.937500
vt 0.605595 0.875000
vt 0.658359 0.250000
vt 0.719918 0.218999
vt 0.734375 0.717281
vt 0.678319 0.660608
vt 0.606077 0.187500
vt 0.641330 0.592355
vt 0.623673 0.812500
vt 0.673680 0.375000
vt 0.639230 0.312500
vt 0.640625 1.000000
vt 0.479138 0.937500
vt 0.639064 0.437500
vt 0.612180 0.375000
vt 0.595563 0.750000
vt 0.606567 0.500000
vt 0.603325 0.667055
vt 0.578286 0.562500
vt 0.578286 0.437500
vt 0.577540 0.283466
vt 0.543444 0.396147
vt 0.512752 0.812500
vt 0.546915 0.655822
vt 0.503540 0.125000
vt 0.660224 0.125000
vt 0.544067 0.500000
vt 0.509405 0.537235
vt 0.515588 0.281661
vt 0.510998 0.724803
vt 0.449506 0.875000
vt 0.487180 0.625000
vt 0.453286 0.562500
vt 0.450317 0.500000
vt 0.485851 0.406417
vt 0.453088 0.281661
vt 0.455926 0.750000
vt 0.445771 0.665313
vt 0.799126 0.125000
vt 0.779637 0.187500
vt 0.402284 0.812500
vt 0.497588 0.187500
vt 0.386121 0.187500
vt 0.328120 0.062500
vt 0.453125 0.000000
vt 0.437500 0.406180
vt 0.347717 0.125000
vt 0.390588 0.718339
vt 0.293360 0.875000
vt 0.308534 0.812500
vt 0.316528 0.750000
vt 0.343750 0.656371
vt 0.393429 0.625000
vt 0.296915 0.655822
vt 0.343750 0.531273
vt 0.297036 0.562500
vt 0.294067 0.500000
vt 0.328125 1.000000
vt 0.230145 0.937500
vt 0.328286 0.437500
vt 0.296914 0.344178
vt 0.343750 0.343629
vt 0.265786 0.437500
vt 0.234338 0.281661
vt 0.296902 0.219059
vt 0.214815 0.187500
vt 0.237180 0.375000
vt 0.199790 0.812500
vt 0.237635 0.520573
vt 0.203286 0.437500
vt 0.237180 0.625000
vt 0.203286 0.562500
vt 0.190964 0.125000
vt 0.113605 0.062500
vt 0.169067 0.500000
vt 0.203125 0.000000
vt 0.137012 0.875000
vt 0.176363 0.337227
vt 0.171838 0.718339
vt 0.234338 0.718339
vt 0.148421 0.399333
vt 0.160278 0.250000
vt 0.121065 0.187500
vt 0.174680 0.625000
vt 0.134405 0.537235
vt 0.140625 1.000000
vt 0.030235 0.937500
vt 0.075252 0.812500
vt 0.102021 0.334687
vt 0.109536 0.437500
vt 0.066529 0.250000
vt 0.055088 0.153620
vt 0.112179 0.625000
vt 0.078286 0.562500
vt 0.075317 0.500000
vt 0.047036 0.437500
vt 0.032456 0.875000
vt 0.048167 0.750000
vt 0.108913 0.719958
vt 0.062500 0.658651
vt 0.015664 0.655822
vt 0.018885 0.520574
vt 0.000000 0.562500
vt 0.015625 0.000000
vt 0.000000 0.062500
vt 0.000000 0.399333
vt 0.046914 0.344178
vt 0.000000 0.784407
vt 0.000000 0.273040
vt 0.991904 0.273040
vt 0.992171 0.399333
vt 0.937867 0.282145
vt 1.000000 0.655822
vt 0.975379 0.784407
vt 0.953164 0.655822
vt 1.000000 0.500000
vt 0.984536 0.562500
vt 0.950317 0.500000
vt 0.953286 0.437500
vt 0.924679 0.375000
vt 0.915655 0.537235
vt 0.910279 0.750000
vt 0.906250 0.656371
vt 0.965747 0.187500
vt 0.868449 0.212346
vt 0.978825 0.875000
vt 0.921769 0.937500
vt 0.872374 0.843190
vt 0.887823 0.312500
vt 0.859536 0.562500
vt 0.856567 0.500000
vt 0.890786 0.437500
vt 0.855944 0.396148
vt 0.859414 0.655822
vt 0.939862 0.125000
vt 0.812867 0.282145
vt 0.814726 0.750000
vt 0.796945 0.653777
vt 0.828125 1.000000
vt 0.798190 0.375000
vt 0.797036 0.437500
vt 0.390786 0.562500
vt 0.387817 0.500000
vt 0.390786 0.437500
vt 0.390665 0.344178
vt 0.378980 0.250000
vt 0.000000 0.125000
vt 0.000000 0.187500
vt 0.801816 0.543181
s 0
f 2/1/1 6/2/1 13/3/1
f 11/4/2 14/5/2 4/6/2
f 8/7/3 9/8/3 3/9/3
f 5/10/4 127/11/4 44/12/4
f 9/8/5 16/13/5 10/14/5
f 139/15/6 32/16/6 6/2/6
f 14/5/7 21/17/7 12/18/7
f 7/19/8 15/20/8 8/7/8
f 12/18/9 21/17/9 31/21/9
f 15/20/10 18/22/10 9/8/10
f 32/16/11 22/23/11 13/3/11
f 14/5/12 17/24/12 20/25/12
f 139/15/13 1/26/13 59/27/13
f 19/28/14 25/29/14 17/24/14
f 22/23/15 27/30/15 13/3/15
f 16/13/16 18/22/16 24/31/16
f 18/22/17 23/32/17 28/33/17
f 24/31/18 29/34/18 19/28/18
f 20/25/19 25/29/19 30/35/19
f 20/25/20 30/35/20 21/17/20
f 29/34/21 35/36/21 25/29/21
f 32/16/22 41/37/22 22/23/22
f 23/32/23 27/30/23 33/38/23
f 31/21/24 51/39/24 26/40/24
f 24/31/25 28/33/25 34/41/25
f 28/33/26 33/38/26 37/42/26
f 34/41/27 35/36/27 29/34/27
f 30/35/28 35/36/28 38/43/28
f 41/37/29 36/44/29 27/30/29
f 32/16/30 59/27/30 40/45/30
f 37/42/31 42/46/31 47/47/31
f 37/42/32 47/47/32 48/48/32
f 38/43/33 43/49/33 50/50/33
f 41/37/34 45/51/34 36/44/34
f 36/44/35 45/51/35 46/52/35
f 26/40/36 146/53/36 145/54/36 12/18/36
f 41/37/37 40/45/37 52/55/37
f 39/56/38 50/50/38 64/57/38
f 44/12/39 51/39/39 76/58/39
f 5/59/40 44/12/40 76/58/40
f 48/48/41 49/60/41 43/49/41
f 64/57/42 73/61/42 51/39/42
f 52/55/43 54/62/43 45/51/43
f 59/27/44 77/63/44 40/45/44
f 52/55/45 77/63/45 67/64/45
f 54/62/46 68/65/46 60/66/46
f 54/62/47 60/66/47 55/67/47
f 60/66/48 68/65/48 69/68/48
f 61/69/49 65/70/49 70/71/49
f 59/27/50 1/72/50 82/73/50
f 66/74/51 71/75/51 62/76/51
f 70/71/52 75/77/52 66/74/52
f 71/75/53 81/78/53 72/79/53
f 72/79/54 81/78/54 87/80/54
f 75/77/55 80/81/55 71/75/55
f 67/64/56 77/63/56 88/82/56
f 71/75/57 80/81/57 81/78/57
f 74/83/58 85/84/58 75/77/58
f 74/83/59 79/85/59 83/86/59
f 96/87/60 111/88/60 76/58/60
f 74/83/61 83/86/61 84/89/61
f 5/90/62 76/58/62 111/88/62
f 77/63/63 82/73/63 92/91/63
f 85/84/64 86/92/64 80/81/64
f 88/82/65 89/93/65 78/94/65
f 84/89/66 95/95/66 85/84/66
f 85/84/67 95/95/67 86/92/67
f 87/80/68 91/96/68 100/97/68
f 83/86/69 90/98/69 93/99/69
f 82/73/70 1/100/70 131/101/70
f 92/91/71 105/102/71 88/82/71
f 86/92/72 95/95/72 99/103/72
f 94/104/73 99/103/73 95/95/73
f 99/103/74 109/105/74 91/96/74
f 100/97/75 110/106/75 96/87/75
f 93/99/76 98/107/76 102/108/76
f 93/99/77 102/108/77 103/109/77
f 103/109/78 108/110/78 94/104/78
f 131/101/79 118/111/79 92/91/79
f 105/102/80 106/112/80 97/113/80
f 100/97/81 109/105/81 110/106/81
f 97/113/82 101/114/82 98/107/82
f 101/114/83 106/112/83 112/115/83
f 107/116/84 112/115/84 115/117/84
f 5/118/85 111/88/85 127/119/85
f 107/116/86 113/120/86 108/110/86
f 108/110/87 113/120/87 104/121/87
f 105/102/88 118/111/88 114/122/88
f 104/121/89 113/120/89 116/123/89
f 105/102/90 114/122/90 106/112/90
f 104/121/91 116/123/91 109/105/91
f 116/124/92 113/125/92 126/126/92
f 112/127/93 114/128/93 119/129/93
f 107/130/94 115/131/94 120/132/94
f 121/133/95 125/134/95 113/125/95
f 115/131/96 119/129/96 124/135/96
f 119/129/97 128/136/97 123/137/97
f 122/138/98 126/126/98 137/139/98
f 118/140/99 131/141/99 132/142/99
f 118/140/100 132/142/100 114/128/100
f 126/126/101 125/134/101 130/143/101
f 124/135/102 134/144/102 135/145/102
f 129/146/103 136/147/103 125/134/103
f 130/143/104 137/139/104 126/126/104
f 123/137/105 128/136/105 133/148/105
f 137/139/106 146/53/106 117/149/106
f 135/145/107 136/147/107 129/146/107
f 130/143/108 136/147/108 138/150/108
f 132/142/109 140/151/109 128/136/109
f 133/148/110 140/151/110 141/152/110
f 137/139/111 138/150/111 145/54/111
f 131/141/112 1/153/112 139/15/112
f 138/150/113 144/154/113 4/6/113
f 140/151/114 2/1/114 7/19/114
f 4/6/115 12/18/115 138/150/115
f 141/152/116 7/19/116 8/7/116
f 3/9/117 10/14/117 143/155/117
f 3/9/118 9/8/118 10/14/118
f 7/19/119 2/1/119 13/3/119
f 4/6/120 14/5/120 12/18/120
f 44/12/121 127/11/121 146/53/121 26/40/121
f 17/24/122 11/4/122 10/14/122 16/13/122
f 23/32/123 15/20/123 13/3/123 27/30/123
f 6/2/124 32/16/124 13/3/124
f 11/4/125 17/24/125 14/5/125
f 7/19/126 13/3/126 15/20/126
f 9/8/127 8/7/127 15/20/127
f 21/17/128 14/5/128 20/25/128
f 12/18/129 31/21/129 26/40/129
f 9/8/130 18/22/130 16/13/130
f 16/13/131 19/28/131 17/24/131
f 16/13/132 24/31/132 19/28/132
f 139/15/133 59/27/133 32/16/133
f 20/25/134 17/24/134 25/29/134
f 38/43/135 39/56/135 31/21/135 30/35/135
f 15/20/136 23/32/136 18/22/136
f 21/17/137 30/35/137 31/21/137
f 24/31/138 18/22/138 28/33/138
f 19/28/139 29/34/139 25/29/139
f 24/31/140 34/41/140 29/34/140
f 30/35/141 25/29/141 35/36/141
f 22/23/142 41/37/142 27/30/142
f 28/33/143 23/32/143 33/38/143
f 44/12/144 26/40/144 51/39/144
f 43/49/145 35/36/145 34/41/145 37/42/145
f 51/39/146 31/21/146 39/56/146
f 34/41/147 28/33/147 37/42/147
f 33/38/148 27/30/148 36/44/148
f 32/16/149 40/45/149 41/37/149
f 38/43/150 35/36/150 43/49/150
f 33/38/151 36/44/151 42/46/151
f 37/42/152 33/38/152 42/46/152
f 55/67/153 56/156/153 47/47/153 46/52/153
f 36/44/154 46/52/154 42/46/154
f 37/42/155 48/48/155 43/49/155
f 39/56/156 38/43/156 50/50/156
f 50/50/157 43/49/157 49/60/157
f 41/37/158 52/55/158 45/51/158
f 39/56/159 64/57/159 51/39/159
f 47/47/160 42/46/160 46/52/160
f 56/156/161 57/157/161 48/48/161 47/47/161
f 51/39/162 73/61/162 76/58/162
f 58/158/163 49/60/163 48/48/163 57/157/163
f 66/74/164 58/158/164 57/157/164 61/69/164
f 49/60/165 58/158/165 53/159/165
f 50/50/166 49/60/166 53/159/166
f 50/50/167 53/159/167 63/160/167
f 46/52/168 45/51/168 54/62/168
f 64/57/169 50/50/169 63/160/169
f 46/52/170 54/62/170 55/67/170
f 40/45/171 77/63/171 52/55/171
f 57/157/172 56/156/172 61/69/172
f 62/76/173 53/159/173 58/158/173 66/74/173
f 68/65/174 54/62/174 52/55/174 67/64/174
f 60/66/175 61/69/175 56/156/175 55/67/175
f 53/159/176 62/76/176 63/160/176
f 72/79/177 63/160/177 62/76/177 71/75/177
f 69/68/178 65/70/178 61/69/178 60/66/178
f 64/57/179 63/160/179 72/79/179
f 64/57/180 72/79/180 73/61/180
f 96/87/181 73/61/181 72/79/181 87/80/181
f 61/69/182 70/71/182 66/74/182
f 59/27/183 82/73/183 77/63/183
f 66/74/184 75/77/184 71/75/184
f 69/68/185 68/65/185 78/94/185
f 69/68/186 78/94/186 79/85/186
f 79/85/187 74/83/187 65/70/187 69/68/187
f 78/94/188 68/65/188 67/64/188 88/82/188
f 76/58/189 73/61/189 96/87/189
f 70/71/190 65/70/190 74/83/190
f 70/71/191 74/83/191 75/77/191
f 90/98/192 79/85/192 78/94/192 89/93/192
f 75/77/193 85/84/193 80/81/193
f 87/80/194 81/78/194 91/96/194
f 98/107/195 90/98/195 89/93/195 97/113/195
f 83/86/196 79/85/196 90/98/196
f 74/83/197 84/89/197 85/84/197
f 77/63/198 92/91/198 88/82/198
f 81/78/199 80/81/199 86/92/199
f 81/78/200 86/92/200 91/96/200
f 87/80/201 100/97/201 96/87/201
f 84/89/202 83/86/202 93/99/202
f 94/104/203 95/95/203 84/89/203 93/99/203
f 93/99/204 90/98/204 98/107/204
f 97/113/205 89/93/205 88/82/205 105/102/205
f 82/73/206 131/101/206 92/91/206
f 104/121/207 99/103/207 94/104/207 108/110/207
f 86/92/208 99/103/208 91/96/208
f 100/97/209 91/96/209 109/105/209
f 96/87/210 110/106/210 111/88/210
f 93/99/211 103/109/211 94/104/211
f 102/108/212 98/107/212 101/114/212
f 112/115/213 107/116/213 102/108/213 101/114/213
f 92/91/214 118/111/214 105/102/214
f 99/103/215 104/121/215 109/105/215
f 97/113/216 106/112/216 101/114/216
f 127/119/217 111/88/217 110/106/217 117/161/217
f 103/109/218 102/108/218 107/116/218
f 103/109/219 107/116/219 108/110/219
f 116/123/220 122/162/220 110/106/220 109/105/220
f 112/115/221 106/112/221 114/122/221
f 121/133/222 113/125/222 107/130/222 120/132/222
f 110/106/223 122/162/223 117/161/223
f 115/131/224 112/127/224 119/129/224
f 129/146/225 121/133/225 120/132/225 124/135/225
f 120/132/226 115/131/226 124/135/226
f 126/126/227 113/125/227 125/134/227
f 119/129/228 114/128/228 128/136/228
f 122/138/229 116/124/229 126/126/229
f 114/128/230 132/142/230 128/136/230
f 117/149/231 122/138/231 137/139/231
f 124/135/232 119/129/232 123/137/232
f 133/148/233 134/144/233 124/135/233 123/137/233
f 121/133/234 129/146/234 125/134/234
f 124/135/235 135/145/235 129/146/235
f 130/143/236 125/134/236 136/147/236
f 143/155/237 136/147/237 135/145/237 142/163/237
f 130/143/238 138/150/238 137/139/238
f 133/148/239 128/136/239 140/151/239
f 117/149/240 146/53/240 127/11/240
f 139/15/241 6/2/241 132/142/241 131/141/241
f 141/152/242 142/163/242 134/144/242 133/148/242
f 136/147/243 143/155/243 144/154/243
f 132/142/244 6/2/244 2/1/244
f 138/150/245 136/147/245 144/154/245
f 132/142/246 2/1/246 140/151/246
f 137/139/247 145/54/247 146/53/247
f 11/4/248 144/154/248 143/155/248 10/14/248
f 135/145/249 134/144/249 142/163/249
f 142/163/250 3/9/250 143/155/250
f 144/154/251 11/4/251 4/6/251
f 141/152/252 140/151/252 7/19/252
f 145/54/253 138/150/253 12/18/253
f 142/163/254 141/152/254 8/7/254
f 3/9/255 142/163/255 8/7/255
