# WaveFront *.obj file (generated by Autodesk ATF)

mtllib left_wall.mtl

g left_wall

v -29.000001 0.000000 -37.000000
v -29.000001 12.000000 -37.000000
v -28.992295 0.000000 36.999998
v -28.992295 12.000000 36.999998
v -28.000000 0.000000 -37.000103
v -28.000000 12.000000 -37.000103
v -27.992294 0.000000 36.999896
v -27.992294 12.000000 36.999896
vt 0.000000 0.000000 0.000000
vt 1.200000 0.000000 0.000000
vt 1.200000 0.100000 0.000000
vt 0.000000 0.100000 0.000000
vt 0.000000 0.000000 0.000000
vt 7.400000 0.000000 0.000000
vt 7.400000 0.100000 0.000000
vt 0.000000 0.100000 0.000000
vt 0.000000 0.000000 0.000000
vt 1.200000 0.000000 0.000000
vt 1.200000 0.100000 0.000000
vt 0.000000 0.100000 0.000000
vt 0.000000 0.000000 0.000000
vt 7.400000 0.000000 0.000000
vt 7.400000 0.100000 0.000000
vt 0.000000 0.100000 0.000000
vt -3.700000 -0.600000 0.000000
vt 3.700000 -0.600000 0.000000
vt 3.700000 0.600000 0.000000
vt -3.700000 0.600000 0.000000
vt -3.700000 -0.600000 0.000000
vt 3.700000 -0.600000 0.000000
vt 3.700000 0.600000 0.000000
vt -3.700000 0.600000 0.000000
vn -0.000010 0.000000 -0.100000
vn -0.000010 0.000000 -0.100000
vn -0.000010 0.000000 -0.100000
vn -0.000010 0.000000 -0.100000
vn 0.000000 -0.100000 0.000000
vn 0.000000 -0.100000 0.000000
vn 0.000000 -0.100000 0.000000
vn 0.000000 -0.100000 0.000000
vn 0.000010 0.000000 0.100000
vn 0.000010 0.000000 0.100000
vn 0.000010 0.000000 0.100000
vn 0.000010 0.000000 0.100000
vn 0.000000 0.100000 0.000000
vn 0.000000 0.100000 0.000000
vn 0.000000 0.100000 0.000000
vn 0.000000 0.100000 0.000000
vn -0.100000 0.000000 0.000010
vn -0.100000 0.000000 0.000010
vn -0.100000 0.000000 0.000010
vn -0.100000 0.000000 0.000010
vn 0.100000 0.000000 -0.000010
vn 0.100000 0.000000 -0.000010
vn 0.100000 0.000000 -0.000010
vn 0.100000 0.000000 -0.000010
usemtl 191,191,191
f 1/1/1 2/2/2 5/4/4
f 5/4/4 2/2/2 6/3/3
f 3/5/5 1/6/6 7/8/8
f 7/8/8 1/6/6 5/7/7
f 4/9/9 3/10/10 8/12/12
f 8/12/12 3/10/10 7/11/11
f 2/13/13 4/14/14 6/16/16
f 6/16/16 4/14/14 8/15/15
f 4/17/17 2/18/18 3/20/20
f 3/20/20 2/18/18 1/19/19
f 6/21/21 8/22/22 5/24/24
f 5/24/24 8/22/22 7/23/23
# 8 vertices
# 24 texture params
# 24 normals
# 12 facets

# 1 groups
