# WaveFront *.obj file (generated by Autodesk ATF)

mtllib outer_court.mtl

g outer_court

v -23.499999 -1.000000 -35.999999
v -23.499999 -1.000000 35.999999
v -23.499999 0.000000 -35.999999
v -23.499999 0.000000 35.999999
v -12.500000 -1.000000 -25.000000
v -12.500000 -1.000000 25.000000
v -12.500000 0.000000 -25.000000
v -12.500000 0.000000 25.000000
v 12.500000 -1.000000 -25.000000
v 12.500000 -1.000000 25.000000
v 12.500000 0.000000 -25.000000
v 12.500000 0.000000 25.000000
v 23.499999 -1.000000 -35.999999
v 23.499999 -1.000000 35.999999
v 23.499999 0.000000 -35.999999
v 23.499999 0.000000 35.999999
vt -0.000000 0.100000 0.000000
vt -2.500000 0.100000 0.000000
vt -2.500000 0.000000 0.000000
vt -0.000000 0.000000 0.000000
vt -0.000000 0.100000 0.000000
vt -5.000000 0.100000 0.000000
vt -5.000000 0.000000 0.000000
vt -0.000000 0.000000 0.000000
vt -0.000000 0.100000 0.000000
vt -2.500000 0.100000 0.000000
vt -2.500000 0.000000 0.000000
vt -0.000000 0.000000 0.000000
vt -0.000000 0.100000 0.000000
vt -5.000000 0.100000 0.000000
vt -5.000000 0.000000 0.000000
vt -0.000000 0.000000 0.000000
vt 0.000000 0.000000 0.000000
vt 7.200000 0.000000 0.000000
vt 7.200000 0.100000 0.000000
vt 0.000000 0.100000 0.000000
vt 0.000000 0.000000 0.000000
vt 4.700000 0.000000 0.000000
vt 4.700000 0.100000 0.000000
vt 0.000000 0.100000 0.000000
vt 0.000000 0.000000 0.000000
vt 7.200000 0.000000 0.000000
vt 7.200000 0.100000 0.000000
vt 0.000000 0.100000 0.000000
vt 0.000000 0.000000 0.000000
vt 4.700000 0.000000 0.000000
vt 4.700000 0.100000 0.000000
vt 0.000000 0.100000 0.000000
vt 2.500000 1.250000 0.000000
vt 2.500000 -1.250000 0.000000
vt -2.500000 -1.250000 0.000000
vt -2.500000 1.250000 0.000000
vt 3.600000 -2.350000 0.000000
vt 3.600000 2.350000 0.000000
vt -3.600000 2.350000 0.000000
vt -3.600000 -2.350000 0.000000
vt -2.500000 -1.250000 0.000000
vt -2.500000 1.250000 0.000000
vt 2.500000 1.250000 0.000000
vt 2.500000 -1.250000 0.000000
vt -3.600000 2.350000 0.000000
vt -3.600000 -2.350000 0.000000
vt 3.600000 -2.350000 0.000000
vt 3.600000 2.350000 0.000000
vn 0.000000 0.000000 0.100000
vn 0.000000 0.000000 0.100000
vn 0.000000 0.000000 0.100000
vn 0.000000 0.000000 0.100000
vn 0.100000 0.000000 0.000000
vn 0.100000 0.000000 0.000000
vn 0.100000 0.000000 0.000000
vn 0.100000 0.000000 0.000000
vn 0.000000 0.000000 -0.100000
vn 0.000000 0.000000 -0.100000
vn 0.000000 0.000000 -0.100000
vn 0.000000 0.000000 -0.100000
vn -0.100000 0.000000 0.000000
vn -0.100000 0.000000 0.000000
vn -0.100000 0.000000 0.000000
vn -0.100000 0.000000 0.000000
vn -0.100000 0.000000 0.000000
vn -0.100000 0.000000 0.000000
vn -0.100000 0.000000 0.000000
vn -0.100000 0.000000 0.000000
vn 0.000000 0.000000 -0.100000
vn 0.000000 0.000000 -0.100000
vn 0.000000 0.000000 -0.100000
vn 0.000000 0.000000 -0.100000
vn 0.100000 0.000000 0.000000
vn 0.100000 0.000000 0.000000
vn 0.100000 0.000000 0.000000
vn 0.100000 0.000000 0.000000
vn 0.000000 0.000000 0.100000
vn 0.000000 0.000000 0.100000
vn 0.000000 0.000000 0.100000
vn 0.000000 0.000000 0.100000
vn 0.000000 -0.100000 0.000000
vn 0.000000 -0.100000 0.000000
vn 0.000000 -0.100000 0.000000
vn 0.000000 -0.100000 0.000000
vn 0.000000 -0.100000 0.000000
vn 0.000000 -0.100000 0.000000
vn 0.000000 -0.100000 0.000000
vn 0.000000 -0.100000 0.000000
vn 0.000000 0.100000 0.000000
vn 0.000000 0.100000 0.000000
vn 0.000000 0.100000 0.000000
vn 0.000000 0.100000 0.000000
vn 0.000000 0.100000 0.000000
vn 0.000000 0.100000 0.000000
vn 0.000000 0.100000 0.000000
vn 0.000000 0.100000 0.000000
usemtl 191,191,191
f 5/1/1 9/2/2 7/4/4
f 7/4/4 9/2/2 11/3/3
f 6/5/5 5/6/6 8/8/8
f 8/8/8 5/6/6 7/7/7
f 10/9/9 6/10/10 12/12/12
f 12/12/12 6/10/10 8/11/11
f 9/13/13 10/14/14 11/16/16
f 11/16/16 10/14/14 12/15/15
f 1/17/17 2/18/18 3/20/20
f 3/20/20 2/18/18 4/19/19
f 13/21/21 1/22/22 15/24/24
f 15/24/24 1/22/22 3/23/23
f 14/25/25 13/26/26 16/28/28
f 16/28/28 13/26/26 15/27/27
f 2/29/29 14/30/30 4/32/32
f 4/32/32 14/30/30 16/31/31
f 10/34/34 14/37/37 6/33/33
f 6/33/33 14/37/37 2/38/38
f 6/33/33 2/38/38 1/39/39
f 10/34/34 9/35/35 14/37/37
f 14/37/37 9/35/35 13/40/40
f 13/40/40 9/35/35 5/36/36
f 13/40/40 5/36/36 1/39/39
f 1/39/39 5/36/36 6/33/33
f 8/42/42 16/46/46 12/41/41
f 12/41/41 16/46/46 15/47/47
f 12/41/41 15/47/47 11/44/44
f 11/44/44 15/47/47 7/43/43
f 7/43/43 15/47/47 3/48/48
f 7/43/43 3/48/48 4/45/45
f 16/46/46 8/42/42 4/45/45
f 4/45/45 8/42/42 7/43/43
# 16 vertices
# 48 texture params
# 48 normals
# 32 facets

# 1 groups
