# WaveFront *.obj file (generated by Autodesk ATF)

mtllib right_wall.mtl

g right_wall

v 27.893980 0.000000 -37.000000
v 27.893980 0.000000 37.000000
v 27.893980 12.000000 -37.000000
v 27.893980 12.000000 37.000000
v 28.893979 0.000000 -37.000000
v 28.893979 0.000000 37.000000
v 28.893979 12.000000 -37.000000
v 28.893979 12.000000 37.000000
vt 0.000000 0.000000 0.000000
vt 7.400000 0.000000 0.000000
vt 7.400000 0.100000 0.000000
vt 0.000000 0.100000 0.000000
vt 0.000000 0.000000 0.000000
vt 1.200000 0.000000 0.000000
vt 1.200000 0.100000 0.000000
vt 0.000000 0.100000 0.000000
vt 0.000000 0.000000 0.000000
vt 7.400000 0.000000 0.000000
vt 7.400000 0.100000 0.000000
vt 0.000000 0.100000 0.000000
vt 0.000000 0.000000 0.000000
vt 1.200000 0.000000 0.000000
vt 1.200000 0.100000 0.000000
vt 0.000000 0.100000 0.000000
vt 3.700000 -0.600000 0.000000
vt 3.700000 0.600000 0.000000
vt -3.700000 0.600000 0.000000
vt -3.700000 -0.600000 0.000000
vt -3.700000 0.600000 0.000000
vt -3.700000 -0.600000 0.000000
vt 3.700000 -0.600000 0.000000
vt 3.700000 0.600000 0.000000
vn 0.000000 -0.100000 0.000000
vn 0.000000 -0.100000 0.000000
vn 0.000000 -0.100000 0.000000
vn 0.000000 -0.100000 0.000000
vn 0.000000 0.000000 -0.100000
vn 0.000000 0.000000 -0.100000
vn 0.000000 0.000000 -0.100000
vn 0.000000 0.000000 -0.100000
vn 0.000000 0.100000 0.000000
vn 0.000000 0.100000 0.000000
vn 0.000000 0.100000 0.000000
vn 0.000000 0.100000 0.000000
vn 0.000000 0.000000 0.100000
vn 0.000000 0.000000 0.100000
vn 0.000000 0.000000 0.100000
vn 0.000000 0.000000 0.100000
vn 0.100000 0.000000 0.000000
vn 0.100000 0.000000 0.000000
vn 0.100000 0.000000 0.000000
vn 0.100000 0.000000 0.000000
vn -0.100000 0.000000 0.000000
vn -0.100000 0.000000 0.000000
vn -0.100000 0.000000 0.000000
vn -0.100000 0.000000 0.000000
usemtl 191,191,191
f 5/1/1 6/2/2 1/4/4
f 1/4/4 6/2/2 2/3/3
f 7/5/5 5/6/6 3/8/8
f 3/8/8 5/6/6 1/7/7
f 8/9/9 7/10/10 4/12/12
f 4/12/12 7/10/10 3/11/11
f 6/13/13 8/14/14 2/16/16
f 2/16/16 8/14/14 4/15/15
f 6/18/18 5/19/19 8/17/17
f 8/17/17 5/19/19 7/20/20
f 4/22/22 3/23/23 2/21/21
f 2/21/21 3/23/23 1/24/24
# 8 vertices
# 24 texture params
# 24 normals
# 12 facets

# 1 groups
