# Blender 5.0.0
# www.blender.org
mtllib Walk_Forward0025.mtl
o Sphere
v -0.574513 6.190816 2.378238
v -0.937509 5.651404 2.190023
v -0.898296 4.623532 2.196234
v -0.566458 4.309812 2.469835
v 0.183706 4.585211 3.039568
v -0.816824 5.835949 2.200039
v -0.883594 5.298563 2.006317
v -0.886264 4.903899 2.026367
v -0.644535 4.741512 1.948606
v -0.684106 4.487304 2.155921
v -0.580038 4.379489 2.255314
v -0.228239 4.284002 2.545446
v -0.670363 5.575625 1.952182
v -0.332295 4.339544 2.280751
v -0.618704 5.178852 1.856070
v -0.385013 4.652059 1.936684
v -0.278659 4.461123 2.098737
v -0.363436 5.064673 1.807895
v -0.156148 4.655572 1.956152
v -0.015205 4.455124 2.201253
v -0.032317 4.364340 2.371298
v -0.481831 5.763418 1.963365
v -0.245979 5.387295 1.810079
v -0.039062 4.918855 1.865406
v 0.064128 4.626686 2.056313
v 0.091616 4.395197 2.697384
v -0.311751 5.665041 1.884640
v 0.045306 5.197324 1.840306
v 0.194781 4.880795 1.970681
v 0.305863 4.610131 2.282225
v 0.210338 4.455915 2.512459
v -0.487583 5.959480 2.079300
v 0.058549 5.575459 1.875931
v 0.311984 5.183854 1.953527
v 0.401580 4.933103 2.090355
v 0.065777 5.877830 1.989807
v 0.427873 5.435932 2.013752
v 0.549753 4.823485 2.398170
v 0.520360 4.724868 2.646301
v -0.205720 6.223778 2.242965
v -0.152444 6.032548 2.063113
v 0.360910 5.757585 2.051463
v 0.647440 5.215859 2.253681
v 0.224843 4.512701 2.866012
v 0.143368 6.106565 2.162556
v 0.385563 6.006641 2.194550
v 0.581120 5.766056 2.221740
v 0.680041 5.625542 2.292239
v 0.775187 5.423728 2.451166
v 0.722152 5.052457 2.590022
v 0.424117 4.637330 2.772781
v 0.018856 6.303245 2.333569
v 0.834801 5.434951 2.759243
v 0.307262 6.280349 2.409571
v 0.543573 6.136137 2.459118
v 0.671366 6.022285 2.527181
v 0.765298 5.884128 2.605633
v 0.820841 5.705755 2.657555
v -0.412772 6.200230 2.274867
v 0.448180 6.327780 2.665315
v 0.691694 6.106250 2.820108
v 0.807551 5.566776 2.978764
v 0.754216 5.188706 2.904783
v 0.656826 4.994535 2.933560
v 0.539665 6.261445 3.003129
v 0.767751 5.889516 2.980737
v -0.033867 6.453295 2.605747
v 0.156114 6.453192 2.664740
v 0.356479 6.414968 2.874694
v 0.620996 6.121100 3.089427
v 0.716961 5.651610 3.189112
v 0.627483 5.226569 3.195287
v 0.520702 4.887428 3.058140
v 0.355220 6.206464 3.313422
v 0.579408 5.972833 3.272459
v 0.360358 4.734872 3.076735
v -0.239172 6.416564 2.546905
v 0.004200 6.487812 2.989322
v 0.200401 6.396932 3.154497
v 0.492468 5.778448 3.409243
v 0.488678 5.461882 3.411891
v -0.456567 6.328012 2.514637
v 0.135010 6.259551 3.357933
v 0.023101 6.050746 3.512106
v 0.284485 5.943022 3.488308
v 0.216383 5.587709 3.565522
v 0.384781 5.130806 3.371322
v -0.291020 6.462942 2.845971
v -0.259295 6.418591 3.118145
v -0.109621 6.320584 3.313730
v 0.192183 5.268846 3.522011
v -0.535454 6.353145 2.728883
v -0.223133 6.048673 3.510309
v -0.256731 5.700711 3.602377
v 0.014017 5.716355 3.604384
v 0.288975 4.913401 3.307261
v -0.549942 6.270568 3.152500
v -0.454935 6.149341 3.361493
v -0.159748 5.387040 3.606816
v 0.082053 5.008486 3.454995
v -0.728703 6.033920 3.251411
v -0.585589 5.895231 3.447125
v -0.533770 5.731267 3.524001
v -0.449357 5.200568 3.541875
v -0.701243 6.253090 2.879720
v -0.806579 6.115834 3.010553
v -0.865601 5.522310 3.363905
v -0.603374 5.443283 3.521748
v -0.199468 5.031309 3.511066
v -0.080582 4.774686 3.358493
v 0.154203 4.699987 3.203805
v -0.944326 5.834307 3.151459
v -0.784230 5.096504 3.378050
v -0.995795 5.946183 2.785112
v -1.026004 5.469875 3.196920
v -0.513614 4.824919 3.372592
v -0.190530 4.533466 3.157700
v -0.825661 6.126060 2.635517
v -1.143410 5.572696 2.934122
v -1.070848 5.150485 3.125567
v -0.971927 5.009970 3.196066
v -0.345423 4.627394 3.255766
v -1.213340 5.393895 2.729872
v -1.177065 5.096690 2.922260
v -0.905607 4.755279 3.106730
v -0.647719 4.653265 3.207082
v -0.015978 4.491853 3.046863
v -1.134989 5.670136 2.628658
v -1.062173 4.753742 2.890626
v -0.781142 4.528352 2.979108
v -0.722701 6.163873 2.495033
v -0.987749 5.834628 2.419596
v -1.218197 5.247865 2.511885
v -1.203028 4.967266 2.597778
v -1.143827 4.788858 2.646415
v -0.980789 4.566505 2.761024
v -0.489534 4.404629 2.974944
v -0.630342 4.330707 2.706802
v -0.683796 6.022686 2.256485
v -1.082359 5.472885 2.274938
v -1.107768 5.124416 2.228695
v -1.070334 4.766540 2.309945
v -0.930471 4.514581 2.414680
v -0.810473 4.403319 2.506106
v -0.301771 4.303522 2.738625
v -0.164981 4.364866 2.877772
vn -0.5451 0.3966 -0.7386
vn -0.1218 -0.9462 -0.2996
vn -0.5232 -0.4251 -0.7386
vn 0.3948 -0.8107 0.4323
vn -0.2391 -0.5910 -0.7704
vn -0.4610 0.5410 -0.7034
vn 0.1577 -0.9521 -0.2618
vn -0.5067 -0.0403 -0.8612
vn 0.3635 -0.9314 -0.0207
vn -0.2615 -0.1850 -0.9473
vn -0.4073 0.4560 -0.7913
vn 0.1791 -0.8417 -0.5094
vn -0.4155 0.6950 -0.5868
vn 0.2344 -0.6666 -0.7077
vn -0.2491 0.3049 -0.9192
vn 0.0345 -0.2994 -0.9535
vn 0.0871 -0.0250 -0.9959
vn 0.3113 -0.4305 -0.8472
vn 0.4711 -0.6861 -0.5543
vn 0.4780 -0.7939 -0.3757
vn 0.5248 -0.5016 -0.6877
vn -0.1502 0.4999 -0.8529
vn 0.0423 0.2684 -0.9624
vn 0.5710 -0.8150 0.0990
vn 0.3749 -0.1953 -0.9063
vn 0.3731 0.0741 -0.9248
vn 0.5316 -0.2514 -0.8088
vn 0.6901 -0.5097 -0.5137
vn 0.0058 0.4348 -0.9005
vn -0.1873 0.6538 -0.7332
vn 0.5923 0.2144 -0.7767
vn 0.6900 0.1284 -0.7123
vn 0.8649 -0.3484 -0.3614
vn 0.1306 0.5689 -0.8120
vn 0.3137 0.5022 -0.8059
vn 0.2414 -0.9525 0.1858
vn 0.0464 0.6912 -0.7212
vn 0.8547 -0.5135 0.0760
vn 0.6095 -0.7087 0.3553
vn 0.5289 -0.7312 0.4308
vn 0.8479 -0.0176 -0.5299
vn 0.7398 -0.6099 0.2841
vn 0.2302 0.7174 -0.6575
vn -0.1769 0.8222 -0.5410
vn -0.0173 0.8742 -0.4853
vn 0.3684 0.8564 -0.3618
vn 0.5343 0.7280 -0.4295
vn 0.3865 0.8992 -0.2051
vn 0.7998 0.5732 0.1783
vn -0.3589 0.7949 -0.4892
vn 0.9283 0.1123 0.3545
vn 0.8352 0.3189 0.4481
vn 0.7512 -0.1488 0.6431
vn 0.6341 -0.2870 0.7181
vn 0.7326 0.1409 0.6659
vn -0.1251 0.9769 -0.1732
vn 0.6994 -0.0024 0.7147
vn 0.5244 0.3687 0.7675
vn 0.3000 0.7430 0.5982
vn 0.4879 -0.6105 0.6239
vn 0.2820 0.4675 0.8378
vn 0.4625 -0.6856 0.5622
vn -0.3374 0.9125 -0.2313
vn 0.4296 0.1124 0.8960
vn -0.1679 0.9697 0.1776
vn 0.1919 0.2562 0.9474
vn 0.2790 0.1525 0.9481
vn 0.3858 -0.3796 0.8409
vn -0.0002 0.5859 0.8104
vn -0.4595 0.7929 -0.4002
vn -0.4467 0.8892 0.0988
vn 0.1454 -0.0694 0.9869
vn -0.0081 0.0117 0.9999
vn 0.1382 -0.2718 0.9524
vn 0.3109 -0.5393 0.7826
vn -0.3351 0.4511 0.8272
vn -0.2951 0.3276 0.8976
vn -0.2660 0.0568 0.9623
vn -0.5639 0.8019 -0.1975
vn -0.6064 0.7408 0.2889
vn 0.1377 -0.4582 0.8781
vn -0.5034 0.6282 0.5932
vn -0.7136 0.5599 0.4211
vn -0.7365 0.2438 0.6309
vn 0.3632 -0.7318 0.5767
vn -0.5304 -0.0733 0.8445
vn -0.3893 -0.1720 0.9049
vn -0.7228 0.6910 0.0088
vn -0.3252 -0.3417 0.8817
vn -0.7340 0.6699 0.1119
vn -0.1485 -0.3851 0.9109
vn -0.4220 -0.4365 0.7946
vn -0.8598 0.4419 0.2557
vn -0.7111 -0.0567 0.7008
vn -0.5361 -0.4003 0.7432
vn -0.9038 0.0533 0.4246
vn -0.9530 0.2952 0.0679
vn -0.1693 -0.7280 0.6644
vn -0.6940 0.6360 -0.3374
vn -0.7884 0.5833 -0.1954
vn -0.4852 -0.6154 0.6212
vn -0.9471 -0.2648 0.1814
vn -0.6429 -0.6048 0.4701
vn -0.3083 -0.7466 0.5895
vn -0.9654 0.2262 -0.1300
vn 0.0507 -0.8535 0.5187
vn -0.8368 -0.5069 0.2069
vn -0.4964 -0.8098 0.3128
vn -0.8722 0.3604 -0.3307
vn -0.9061 0.1199 -0.4056
vn -0.1086 -0.9422 0.3168
vn -0.5181 0.6964 -0.4967
vn -0.3597 -0.9330 -0.0147
vn -0.6968 0.2446 -0.6743
vn -0.0900 -0.9939 0.0634
vn -0.6913 -0.0320 -0.7219
vn -0.5397 -0.7189 -0.4381
vn -0.4635 -0.5156 -0.7206
vn -0.5844 0.3027 -0.7529
vn -0.0316 -0.9806 -0.1933
vn 0.3417 -0.8735 0.3468
vn -0.1433 -0.7070 -0.6925
vn -0.2297 0.2010 -0.9523
vn -0.4536 0.4673 -0.7589
vn -0.0737 -0.8191 -0.5689
vn -0.4318 0.1589 -0.8879
vn -0.4017 -0.1668 -0.9004
vn 0.2063 -0.8717 -0.4446
vn 0.3590 -0.9303 -0.0750
vn -0.1428 -0.2881 -0.9469
vn 0.0759 -0.6203 -0.7807
vn 0.0846 -0.3581 -0.9298
vn -0.3822 0.6513 -0.6556
vn 0.2489 -0.6896 -0.6800
vn 0.6918 -0.6972 -0.1879
vn -0.1574 0.0640 -0.9855
vn 0.4959 -0.8025 -0.3318
vn 0.1186 -0.1247 -0.9851
vn 0.3212 -0.4466 -0.8351
vn 0.3757 -0.1966 -0.9056
vn 0.5545 -0.5403 -0.6329
vn -0.1265 0.4772 -0.8697
vn 0.1589 0.0871 -0.9835
vn 0.5663 -0.8153 0.1207
vn 0.6674 -0.1461 -0.7303
vn 0.6596 -0.7514 -0.0181
vn 0.3922 0.0393 -0.9191
vn 0.0628 0.3504 -0.9345
vn -0.1770 0.6477 -0.7411
vn 0.7736 -0.3795 -0.5075
vn 0.3192 0.3273 -0.8894
vn 0.4053 0.1892 -0.8944
vn 0.6672 0.4489 -0.5944
vn 0.3518 0.4399 -0.8263
vn 0.7397 0.0045 -0.6729
vn 0.8371 -0.5351 -0.1135
vn 0.9117 -0.2517 -0.3248
vn 0.0746 0.6808 -0.7287
vn 0.7832 -0.5936 0.1851
vn 0.5592 0.3707 -0.7416
vn 0.8182 0.3061 -0.4867
vn 0.6665 -0.6578 0.3509
vn 0.9114 0.1484 -0.3838
vn 0.9504 0.3108 -0.0107
vn 0.9817 -0.0204 -0.1892
vn 0.9624 -0.2043 -0.1788
vn 0.9551 -0.2947 0.0303
vn 0.3537 0.6383 -0.6837
vn 0.8953 -0.4347 0.0970
vn 0.5038 0.6182 -0.6034
vn -0.0786 0.8379 -0.5401
vn 0.8591 0.4732 -0.1953
vn 0.9908 0.1042 0.0861
vn 0.1729 0.8683 -0.4648
vn 0.7267 0.6417 -0.2451
vn 0.9573 -0.1794 0.2266
vn 0.8819 -0.1931 0.4300
vn 0.6736 0.7381 -0.0375
vn 0.8374 -0.3590 0.4121
vn 0.7699 -0.4323 0.4695
vn 0.6301 -0.4565 0.6282
vn 0.8674 0.4546 0.2026
vn -0.2652 0.8300 -0.4908
vn 0.8455 0.2381 0.4779
vn 0.1989 0.9799 -0.0114
vn 0.2623 0.9425 0.2071
vn 0.4836 0.7900 0.3768
vn -0.0140 0.9960 -0.0882
vn 0.5861 -0.5426 0.6017
vn 0.6045 0.6411 0.4729
vn 0.6425 0.5175 0.5652
vn 0.0055 0.8881 0.4597
vn 0.5413 0.3083 0.7822
vn 0.4772 -0.2529 0.8416
vn -0.3007 0.7504 0.5885
vn 0.0976 0.8099 0.5783
vn 0.2737 0.4799 0.8336
vn -0.3206 0.9260 -0.1992
vn 0.4919 0.0014 0.8707
vn 0.4306 -0.1540 0.8893
vn 0.3944 -0.4153 0.8197
vn -0.0109 0.5977 0.8016
vn -0.0161 0.2617 0.9650
vn -0.2081 0.6286 0.7494
vn -0.4320 0.8819 0.1886
vn -0.4895 0.8268 -0.2772
vn -0.1935 -0.0440 0.9801
vn 0.1849 -0.1466 0.9718
vn 0.1615 -0.3095 0.9371
vn 0.3186 -0.5688 0.7583
vn -0.2345 0.2698 0.9339
vn -0.4957 0.4953 0.7134
vn -0.6339 0.3240 0.7023
vn -0.5886 0.8000 -0.1163
vn -0.0530 -0.2540 0.9657
vn -0.6281 0.6520 0.4248
vn 0.2437 -0.6925 0.6790
vn -0.5313 0.2161 0.8191
vn -0.4877 0.1111 0.8659
vn -0.0333 -0.5254 0.8502
vn -0.8023 0.5300 0.2746
vn -0.6683 -0.1027 0.7367
vn 0.0753 -0.6580 0.7492
vn -0.8445 0.2485 0.4745
vn -0.8047 -0.3154 0.5030
vn -0.8885 0.0224 0.4583
vn -0.4715 -0.4400 0.7643
vn -0.9104 0.4008 0.1028
vn -0.1767 -0.6082 0.7739
vn -0.8346 0.5215 -0.1775
vn -0.0603 -0.7667 0.6391
vn -0.9595 0.0610 0.2751
vn -0.9954 -0.0493 0.0816
vn -0.7461 -0.3849 0.5433
vn -0.9090 -0.3282 0.2567
vn -0.6332 -0.6130 0.4725
vn -0.8207 -0.5646 -0.0874
vn -0.3503 -0.8395 0.4154
vn -0.9234 0.2600 -0.2824
vn 0.1291 -0.8442 0.5202
vn -0.6331 0.6102 -0.4763
vn -0.9377 -0.1582 -0.3094
vn -0.6840 -0.7295 0.0100
vn -0.6927 0.4821 -0.5364
vn -0.5306 -0.8291 0.1763
vn -0.7768 0.3982 -0.4878
vn 0.0067 -0.9174 0.3979
vn -0.4744 -0.8018 -0.3635
vn -0.9186 -0.3531 -0.1772
vn -0.7272 -0.5654 -0.3891
vn -0.3791 -0.8869 -0.2641
vn -0.7501 0.1405 -0.6462
vn -0.0887 -0.9938 0.0667
vn -0.7673 -0.2172 -0.6033
vn -0.7007 -0.3475 -0.6231
vt 0.781230 0.812500
vt 0.762032 0.875000
vt 0.685473 0.777944
vt 0.734697 0.375000
vt 0.703125 0.312500
vt 0.764235 0.312500
vt 0.741874 0.599249
vt 0.704616 0.531266
vt 0.763980 0.500000
vt 0.734375 0.000000
vt 0.879629 0.062500
vt 0.593677 0.062500
vt 0.670132 0.472235
vt 0.734536 0.437500
vt 0.734224 0.937500
vt 0.605595 0.875000
vt 0.658359 0.250000
vt 0.719918 0.218999
vt 0.734375 0.717281
vt 0.678319 0.660608
vt 0.606077 0.187500
vt 0.641330 0.592355
vt 0.623673 0.812500
vt 0.673680 0.375000
vt 0.639230 0.312500
vt 0.640625 1.000000
vt 0.479138 0.937500
vt 0.639064 0.437500
vt 0.612180 0.375000
vt 0.595563 0.750000
vt 0.606567 0.500000
vt 0.603325 0.667055
vt 0.578286 0.562500
vt 0.578286 0.437500
vt 0.577540 0.283466
vt 0.543444 0.396147
vt 0.512752 0.812500
vt 0.546915 0.655822
vt 0.503540 0.125000
vt 0.660224 0.125000
vt 0.544067 0.500000
vt 0.509405 0.537235
vt 0.515588 0.281661
vt 0.510998 0.724803
vt 0.449506 0.875000
vt 0.487180 0.625000
vt 0.453286 0.562500
vt 0.450317 0.500000
vt 0.485851 0.406417
vt 0.453088 0.281661
vt 0.455926 0.750000
vt 0.445771 0.665313
vt 0.799126 0.125000
vt 0.779637 0.187500
vt 0.402284 0.812500
vt 0.497588 0.187500
vt 0.386121 0.187500
vt 0.328120 0.062500
vt 0.453125 0.000000
vt 0.437500 0.406180
vt 0.347717 0.125000
vt 0.390588 0.718339
vt 0.293360 0.875000
vt 0.308534 0.812500
vt 0.316528 0.750000
vt 0.343750 0.656371
vt 0.393429 0.625000
vt 0.296915 0.655822
vt 0.343750 0.531273
vt 0.297036 0.562500
vt 0.294067 0.500000
vt 0.328125 1.000000
vt 0.230145 0.937500
vt 0.328286 0.437500
vt 0.296914 0.344178
vt 0.343750 0.343629
vt 0.265786 0.437500
vt 0.234338 0.281661
vt 0.296902 0.219059
vt 0.214815 0.187500
vt 0.237180 0.375000
vt 0.199790 0.812500
vt 0.237635 0.520573
vt 0.203286 0.437500
vt 0.237180 0.625000
vt 0.203286 0.562500
vt 0.190964 0.125000
vt 0.113605 0.062500
vt 0.169067 0.500000
vt 0.203125 0.000000
vt 0.137012 0.875000
vt 0.176363 0.337227
vt 0.171838 0.718339
vt 0.234338 0.718339
vt 0.148421 0.399333
vt 0.160278 0.250000
vt 0.121065 0.187500
vt 0.174680 0.625000
vt 0.134405 0.537235
vt 0.140625 1.000000
vt 0.030235 0.937500
vt 0.075252 0.812500
vt 0.102021 0.334687
vt 0.109536 0.437500
vt 0.066529 0.250000
vt 0.055088 0.153620
vt 0.112179 0.625000
vt 0.078286 0.562500
vt 0.075317 0.500000
vt 0.047036 0.437500
vt 0.032456 0.875000
vt 0.048167 0.750000
vt 0.108913 0.719958
vt 0.062500 0.658651
vt 0.015664 0.655822
vt 0.018885 0.520574
vt 0.000000 0.562500
vt 0.015625 0.000000
vt 0.000000 0.062500
vt 0.000000 0.399333
vt 0.046914 0.344178
vt 0.000000 0.784407
vt 0.000000 0.273040
vt 0.991904 0.273040
vt 0.992171 0.399333
vt 0.937867 0.282145
vt 1.000000 0.655822
vt 0.975379 0.784407
vt 0.953164 0.655822
vt 1.000000 0.500000
vt 0.984536 0.562500
vt 0.950317 0.500000
vt 0.953286 0.437500
vt 0.924679 0.375000
vt 0.915655 0.537235
vt 0.910279 0.750000
vt 0.906250 0.656371
vt 0.965747 0.187500
vt 0.868449 0.212346
vt 0.978825 0.875000
vt 0.921769 0.937500
vt 0.872374 0.843190
vt 0.887823 0.312500
vt 0.859536 0.562500
vt 0.856567 0.500000
vt 0.890786 0.437500
vt 0.855944 0.396148
vt 0.859414 0.655822
vt 0.939862 0.125000
vt 0.812867 0.282145
vt 0.814726 0.750000
vt 0.796945 0.653777
vt 0.828125 1.000000
vt 0.798190 0.375000
vt 0.797036 0.437500
vt 0.390786 0.562500
vt 0.387817 0.500000
vt 0.390786 0.437500
vt 0.390665 0.344178
vt 0.378980 0.250000
vt 0.000000 0.125000
vt 0.000000 0.187500
vt 0.801816 0.543181
s 0
f 2/1/1 6/2/1 13/3/1
f 11/4/2 14/5/2 4/6/2
f 8/7/3 9/8/3 3/9/3
f 5/10/4 127/11/4 44/12/4
f 9/8/5 16/13/5 10/14/5
f 139/15/6 32/16/6 6/2/6
f 14/5/7 21/17/7 12/18/7
f 7/19/8 15/20/8 8/7/8
f 12/18/9 21/17/9 31/21/9
f 15/20/10 18/22/10 9/8/10
f 32/16/11 22/23/11 13/3/11
f 14/5/12 17/24/12 20/25/12
f 139/15/13 1/26/13 59/27/13
f 19/28/14 25/29/14 17/24/14
f 22/23/15 27/30/15 13/3/15
f 16/13/16 18/22/16 24/31/16
f 18/22/17 23/32/17 28/33/17
f 24/31/18 29/34/18 19/28/18
f 20/25/19 25/29/19 30/35/19
f 20/25/20 30/35/20 21/17/20
f 29/34/21 35/36/21 25/29/21
f 32/16/22 41/37/22 22/23/22
f 23/32/23 27/30/23 33/38/23
f 31/21/24 51/39/24 26/40/24
f 24/31/25 28/33/25 34/41/25
f 28/33/26 33/38/26 37/42/26
f 34/41/27 35/36/27 29/34/27
f 30/35/28 35/36/28 38/43/28
f 41/37/29 36/44/29 27/30/29
f 32/16/30 59/27/30 40/45/30
f 37/42/31 42/46/31 47/47/31
f 37/42/32 47/47/32 48/48/32
f 38/43/33 43/49/33 50/50/33
f 41/37/34 45/51/34 36/44/34
f 36/44/35 45/51/35 46/52/35
f 26/40/36 146/53/36 145/54/36 12/18/36
f 41/37/37 40/45/37 52/55/37
f 39/56/38 50/50/38 64/57/38
f 44/12/39 51/39/39 76/58/39
f 5/59/40 44/12/40 76/58/40
f 48/48/41 49/60/41 43/49/41
f 64/57/42 73/61/42 51/39/42
f 52/55/43 54/62/43 45/51/43
f 59/27/44 77/63/44 40/45/44
f 52/55/45 77/63/45 67/64/45
f 54/62/46 68/65/46 60/66/46
f 54/62/47 60/66/47 55/67/47
f 60/66/48 68/65/48 69/68/48
f 61/69/49 65/70/49 70/71/49
f 59/27/50 1/72/50 82/73/50
f 66/74/51 71/75/51 62/76/51
f 70/71/52 75/77/52 66/74/52
f 71/75/53 81/78/53 72/79/53
f 72/79/54 81/78/54 87/80/54
f 75/77/55 80/81/55 71/75/55
f 67/64/56 77/63/56 88/82/56
f 71/75/57 80/81/57 81/78/57
f 74/83/58 85/84/58 75/77/58
f 74/83/59 79/85/59 83/86/59
f 96/87/60 111/88/60 76/58/60
f 74/83/61 83/86/61 84/89/61
f 5/90/62 76/58/62 111/88/62
f 77/63/63 82/73/63 92/91/63
f 85/84/64 86/92/64 80/81/64
f 88/82/65 89/93/65 78/94/65
f 84/89/66 95/95/66 85/84/66
f 85/84/67 95/95/67 86/92/67
f 87/80/68 91/96/68 100/97/68
f 83/86/69 90/98/69 93/99/69
f 82/73/70 1/100/70 131/101/70
f 92/91/71 105/102/71 88/82/71
f 86/92/72 95/95/72 99/103/72
f 94/104/73 99/103/73 95/95/73
f 99/103/74 109/105/74 91/96/74
f 100/97/75 110/106/75 96/87/75
f 93/99/76 98/107/76 102/108/76
f 93/99/77 102/108/77 103/109/77
f 103/109/78 108/110/78 94/104/78
f 131/101/79 118/111/79 92/91/79
f 105/102/80 106/112/80 97/113/80
f 100/97/81 109/105/81 110/106/81
f 97/113/82 101/114/82 98/107/82
f 101/114/83 106/112/83 112/115/83
f 107/116/84 112/115/84 115/117/84
f 5/118/85 111/88/85 127/119/85
f 107/116/86 113/120/86 108/110/86
f 108/110/87 113/120/87 104/121/87
f 105/102/88 118/111/88 114/122/88
f 104/121/89 113/120/89 116/123/89
f 105/102/90 114/122/90 106/112/90
f 104/121/91 116/123/91 109/105/91
f 116/124/92 113/125/92 126/126/92
f 112/127/93 114/128/93 119/129/93
f 107/130/94 115/131/94 120/132/94
f 121/133/95 125/134/95 113/125/95
f 115/131/96 119/129/96 124/135/96
f 119/129/97 128/136/97 123/137/97
f 122/138/98 126/126/98 137/139/98
f 118/140/99 131/141/99 132/142/99
f 118/140/100 132/142/100 114/128/100
f 126/126/101 125/134/101 130/143/101
f 124/135/102 134/144/102 135/145/102
f 129/146/103 136/147/103 125/134/103
f 130/143/104 137/139/104 126/126/104
f 123/137/105 128/136/105 133/148/105
f 137/139/106 146/53/106 117/149/106
f 135/145/107 136/147/107 129/146/107
f 130/143/108 136/147/108 138/150/108
f 132/142/109 140/151/109 128/136/109
f 133/148/110 140/151/110 141/152/110
f 137/139/111 138/150/111 145/54/111
f 131/141/112 1/153/112 139/15/112
f 138/150/113 144/154/113 4/6/113
f 140/151/114 2/1/114 7/19/114
f 4/6/115 12/18/115 138/150/115
f 141/152/116 7/19/116 8/7/116
f 3/9/117 10/14/117 143/155/117
f 3/9/118 9/8/118 10/14/118
f 7/19/119 2/1/119 13/3/119
f 4/6/120 14/5/120 12/18/120
f 44/12/121 127/11/121 146/53/121 26/40/121
f 17/24/122 11/4/122 10/14/122 16/13/122
f 23/32/123 15/20/123 13/3/123 27/30/123
f 6/2/124 32/16/124 13/3/124
f 11/4/125 17/24/125 14/5/125
f 7/19/126 13/3/126 15/20/126
f 9/8/127 8/7/127 15/20/127
f 21/17/128 14/5/128 20/25/128
f 12/18/129 31/21/129 26/40/129
f 9/8/130 18/22/130 16/13/130
f 16/13/131 19/28/131 17/24/131
f 16/13/132 24/31/132 19/28/132
f 139/15/133 59/27/133 32/16/133
f 20/25/134 17/24/134 25/29/134
f 38/43/135 39/56/135 31/21/135 30/35/135
f 15/20/136 23/32/136 18/22/136
f 21/17/137 30/35/137 31/21/137
f 24/31/138 18/22/138 28/33/138
f 19/28/139 29/34/139 25/29/139
f 24/31/140 34/41/140 29/34/140
f 30/35/141 25/29/141 35/36/141
f 22/23/142 41/37/142 27/30/142
f 28/33/143 23/32/143 33/38/143
f 44/12/144 26/40/144 51/39/144
f 43/49/145 35/36/145 34/41/145 37/42/145
f 51/39/146 31/21/146 39/56/146
f 34/41/147 28/33/147 37/42/147
f 33/38/148 27/30/148 36/44/148
f 32/16/149 40/45/149 41/37/149
f 38/43/150 35/36/150 43/49/150
f 33/38/151 36/44/151 42/46/151
f 37/42/152 33/38/152 42/46/152
f 55/67/153 56/156/153 47/47/153 46/52/153
f 36/44/154 46/52/154 42/46/154
f 37/42/155 48/48/155 43/49/155
f 39/56/156 38/43/156 50/50/156
f 50/50/157 43/49/157 49/60/157
f 41/37/158 52/55/158 45/51/158
f 39/56/159 64/57/159 51/39/159
f 47/47/160 42/46/160 46/52/160
f 56/156/161 57/157/161 48/48/161 47/47/161
f 51/39/162 73/61/162 76/58/162
f 58/158/163 49/60/163 48/48/163 57/157/163
f 66/74/164 58/158/164 57/157/164 61/69/164
f 49/60/165 58/158/165 53/159/165
f 50/50/166 49/60/166 53/159/166
f 50/50/167 53/159/167 63/160/167
f 46/52/168 45/51/168 54/62/168
f 64/57/169 50/50/169 63/160/169
f 46/52/170 54/62/170 55/67/170
f 40/45/171 77/63/171 52/55/171
f 57/157/172 56/156/172 61/69/172
f 62/76/173 53/159/173 58/158/173 66/74/173
f 68/65/174 54/62/174 52/55/174 67/64/174
f 60/66/175 61/69/175 56/156/175 55/67/175
f 53/159/176 62/76/176 63/160/176
f 72/79/177 63/160/177 62/76/177 71/75/177
f 69/68/178 65/70/178 61/69/178 60/66/178
f 64/57/179 63/160/179 72/79/179
f 64/57/180 72/79/180 73/61/180
f 96/87/181 73/61/181 72/79/181 87/80/181
f 61/69/182 70/71/182 66/74/182
f 59/27/183 82/73/183 77/63/183
f 66/74/184 75/77/184 71/75/184
f 69/68/185 68/65/185 78/94/185
f 69/68/186 78/94/186 79/85/186
f 79/85/187 74/83/187 65/70/187 69/68/187
f 78/94/188 68/65/188 67/64/188 88/82/188
f 76/58/189 73/61/189 96/87/189
f 70/71/190 65/70/190 74/83/190
f 70/71/191 74/83/191 75/77/191
f 90/98/192 79/85/192 78/94/192 89/93/192
f 75/77/193 85/84/193 80/81/193
f 87/80/194 81/78/194 91/96/194
f 98/107/195 90/98/195 89/93/195 97/113/195
f 83/86/196 79/85/196 90/98/196
f 74/83/197 84/89/197 85/84/197
f 77/63/198 92/91/198 88/82/198
f 81/78/199 80/81/199 86/92/199
f 81/78/200 86/92/200 91/96/200
f 87/80/201 100/97/201 96/87/201
f 84/89/202 83/86/202 93/99/202
f 94/104/203 95/95/203 84/89/203 93/99/203
f 93/99/204 90/98/204 98/107/204
f 97/113/205 89/93/205 88/82/205 105/102/205
f 82/73/206 131/101/206 92/91/206
f 104/121/207 99/103/207 94/104/207 108/110/207
f 86/92/208 99/103/208 91/96/208
f 100/97/209 91/96/209 109/105/209
f 96/87/210 110/106/210 111/88/210
f 93/99/211 103/109/211 94/104/211
f 102/108/212 98/107/212 101/114/212
f 112/115/213 107/116/213 102/108/213 101/114/213
f 92/91/214 118/111/214 105/102/214
f 99/103/215 104/121/215 109/105/215
f 97/113/216 106/112/216 101/114/216
f 127/119/217 111/88/217 110/106/217 117/161/217
f 103/109/218 102/108/218 107/116/218
f 103/109/219 107/116/219 108/110/219
f 116/123/220 122/162/220 110/106/220 109/105/220
f 112/115/221 106/112/221 114/122/221
f 121/133/222 113/125/222 107/130/222 120/132/222
f 110/106/223 122/162/223 117/161/223
f 115/131/224 112/127/224 119/129/224
f 129/146/225 121/133/225 120/132/225 124/135/225
f 120/132/226 115/131/226 124/135/226
f 126/126/227 113/125/227 125/134/227
f 119/129/228 114/128/228 128/136/228
f 122/138/229 116/124/229 126/126/229
f 114/128/230 132/142/230 128/136/230
f 117/149/231 122/138/231 137/139/231
f 124/135/232 119/129/232 123/137/232
f 133/148/233 134/144/233 124/135/233 123/137/233
f 121/133/234 129/146/234 125/134/234
f 124/135/235 135/145/235 129/146/235
f 130/143/236 125/134/236 136/147/236
f 143/155/237 136/147/237 135/145/237 142/163/237
f 130/143/238 138/150/238 137/139/238
f 133/148/239 128/136/239 140/151/239
f 117/149/240 146/53/240 127/11/240
f 139/15/241 6/2/241 132/142/241 131/141/241
f 141/152/242 142/163/242 134/144/242 133/148/242
f 136/147/243 143/155/243 144/154/243
f 132/142/244 6/2/244 2/1/244
f 138/150/245 136/147/245 144/154/245
f 132/142/246 2/1/246 140/151/246
f 137/139/247 145/54/247 146/53/247
f 11/4/248 144/154/248 143/155/248 10/14/248
f 135/145/249 134/144/249 142/163/249
f 142/163/250 3/9/250 143/155/250
f 144/154/251 11/4/251 4/6/251
f 141/152/252 140/151/252 7/19/252
f 145/54/253 138/150/253 12/18/253
f 142/163/254 141/152/254 8/7/254
f 3/9/255 142/163/255 8/7/255
