# Blender 5.0.0
# www.blender.org
mtllib Walk_Forward0031.mtl
o Sphere
v -1.798104 4.506265 1.680230
v -2.027850 4.469631 1.155204
v -2.082534 3.756438 0.573677
v -2.001057 3.173757 0.646733
v -1.706600 2.552500 1.353520
v -1.918442 4.524447 1.301247
v -1.897621 4.342658 0.855167
v -1.944355 4.064674 0.637629
v -1.707769 3.890894 0.562983
v -1.890013 3.586294 0.529127
v -1.873655 3.387120 0.554724
v -1.768054 2.928184 0.769696
v -1.663741 4.460182 1.041698
v -1.686117 3.215450 0.614628
v -1.593295 4.239682 0.768120
v -1.491261 3.707892 0.574994
v -1.518618 3.405199 0.590610
v -1.359857 4.069279 0.742881
v -1.312228 3.579381 0.651349
v -1.363032 3.190873 0.720738
v -1.490152 3.012100 0.765427
v -1.498224 4.481808 1.208894
v -1.237061 4.224075 0.963403
v -1.136923 3.763826 0.781613
v -1.193043 3.373429 0.754976
v -1.586574 2.726886 1.012861
v -1.315579 4.388060 1.151175
v -1.028381 3.926187 0.951110
v -1.010342 3.541022 0.886702
v -1.132963 3.071167 0.947066
v -1.367949 2.844937 0.969622
v -1.558999 4.529736 1.390552
v -1.008708 4.146254 1.195358
v -0.877354 3.697244 1.084210
v -0.907898 3.381785 1.045425
v -1.048745 4.260337 1.440974
v -0.797600 3.762345 1.298218
v -0.984192 3.003744 1.207081
v -1.170623 2.767807 1.290712
v -1.404028 4.441592 1.719127
v -1.263590 4.420345 1.514934
v -0.850685 3.983798 1.489017
v -0.781236 3.324565 1.374645
v -1.570540 2.612274 1.218618
v -1.072617 4.245462 1.698470
v -0.898645 4.031547 1.726012
v -0.772010 3.750684 1.656350
v -0.744679 3.553742 1.644243
v -0.780327 3.251787 1.648609
v -0.940845 2.926595 1.502123
v -1.336434 2.663890 1.289491
v -1.266524 4.313164 1.881023
v -0.920802 2.999535 1.856251
v -1.075061 4.094580 1.992278
v -0.920482 3.840910 2.003061
v -0.865400 3.648964 2.012854
v -0.846971 3.450214 2.005520
v -0.847361 3.263799 1.948446
v -1.598364 4.507329 1.667943
v -1.112344 3.864225 2.211771
v -1.023323 3.476705 2.242832
v -1.068973 2.938205 2.056921
v -1.098278 2.767134 1.778728
v -1.213107 2.665132 1.656752
v -1.250994 3.521660 2.401005
v -1.077155 3.173193 2.234344
v -1.467114 4.237775 2.116879
v -1.345314 4.097173 2.204206
v -1.311589 3.813313 2.362835
v -1.248115 3.322006 2.393661
v -1.268085 2.884429 2.207506
v -1.381060 2.640565 1.940272
v -1.412582 2.569797 1.632128
v -1.601714 3.347493 2.504791
v -1.408368 3.107494 2.406111
v -1.570203 2.535267 1.510943
v -1.604779 4.361379 2.004090
v -1.670492 3.955853 2.377421
v -1.616744 3.672185 2.477516
v -1.581496 2.919590 2.351666
v -1.612023 2.707459 2.168664
v -1.773220 4.436620 1.873888
v -1.808615 3.461871 2.502006
v -2.014519 3.264049 2.442796
v -1.790576 3.076705 2.437598
v -1.924125 2.815777 2.259262
v -1.700390 2.568695 1.923925
v -1.829744 4.196063 2.196203
v -1.975719 3.947500 2.342451
v -1.980205 3.660064 2.443922
v -1.943225 2.646864 2.041651
v -1.969843 4.333993 1.995398
v -2.218878 3.389195 2.373123
v -2.332273 3.104584 2.217404
v -2.106504 2.975911 2.301780
v -1.758202 2.519468 1.733216
v -2.251391 3.970520 2.197684
v -2.311661 3.685337 2.278774
v -2.279655 2.841822 2.064736
v -2.014637 2.578344 1.820342
v -2.481020 3.829196 2.070882
v -2.494362 3.517744 2.147048
v -2.512165 3.324290 2.112278
v -2.495996 2.912512 1.838392
v -2.209764 4.238910 1.982497
v -2.389897 4.103065 1.952570
v -2.706514 3.472257 1.804256
v -2.592203 3.168421 1.924896
v -2.282288 2.695010 1.790162
v -2.109381 2.576275 1.582374
v -1.823744 2.522069 1.510523
v -2.615025 3.879542 1.836164
v -2.682044 3.135078 1.588120
v -2.421612 4.253523 1.667171
v -2.740939 3.643057 1.629776
v -2.475095 2.819601 1.501440
v -2.096108 2.620125 1.291959
v -2.172350 4.398951 1.728289
v -2.667466 3.967372 1.499605
v -2.760025 3.505024 1.389506
v -2.732693 3.308081 1.377400
v -2.278449 2.688765 1.362859
v -2.613612 4.035267 1.254261
v -2.726851 3.674416 1.207278
v -2.642681 3.170268 1.194282
v -2.498196 2.896059 1.265916
v -1.885203 2.586049 1.249112
v -2.463055 4.255886 1.375157
v -2.639303 3.409801 1.020896
v -2.478186 3.050009 1.020208
v -1.996294 4.476569 1.694116
v -2.197248 4.446937 1.385414
v -2.494316 4.102264 1.037487
v -2.557747 3.842588 0.930469
v -2.553053 3.656736 0.872404
v -2.506274 3.339512 0.856857
v -2.242521 2.821955 1.025783
v -2.199608 3.043740 0.783522
v -1.827363 4.539873 1.479794
v -2.215800 4.360433 1.062991
v -2.236619 4.174336 0.826244
v -2.284886 3.855025 0.677727
v -2.253711 3.537104 0.632746
v -2.219410 3.333455 0.655924
v -1.947602 2.834765 0.876779
v -1.914874 2.702674 1.033262
vn -0.0701 0.9501 -0.3041
vn -0.0451 -0.3727 -0.9268
vn -0.1179 0.2521 -0.9605
vn 0.0416 -0.9283 -0.3694
vn 0.0986 0.0515 -0.9938
vn 0.0077 0.9959 -0.0900
vn 0.1381 -0.5007 -0.8546
vn -0.0158 0.6179 -0.7861
vn 0.1997 -0.6963 -0.6895
vn 0.2255 0.4378 -0.8703
vn 0.0985 0.9698 -0.2229
vn 0.2681 -0.3503 -0.8975
vn 0.0049 0.9863 0.1647
vn 0.4264 -0.1974 -0.8827
vn 0.3080 0.8558 -0.4156
vn 0.4630 0.2294 -0.8562
vn 0.6062 0.4517 -0.6546
vn 0.6127 -0.0245 -0.7899
vn 0.5473 -0.3687 -0.7514
vn 0.4558 -0.5070 -0.7315
vn 0.6981 -0.2275 -0.6788
vn 0.3863 0.9155 -0.1123
vn 0.6085 0.7061 -0.3622
vn 0.3378 -0.8045 -0.4886
vn 0.7665 0.1415 -0.6264
vn 0.8462 0.3601 -0.3926
vn 0.8341 -0.0130 -0.5514
vn 0.7569 -0.3801 -0.5316
vn 0.5562 0.8170 -0.1520
vn 0.2902 0.9497 0.1179
vn 0.9580 0.2807 -0.0593
vn 0.9878 0.1411 -0.0660
vn 0.8721 -0.4265 -0.2397
vn 0.6166 0.7806 0.1023
vn 0.7645 0.6356 0.1076
vn 0.0150 -0.7638 -0.6452
vn 0.4883 0.8365 0.2488
vn 0.6449 -0.7520 -0.1361
vn 0.2789 -0.9286 -0.2449
vn 0.1696 -0.9530 -0.2512
vn 0.9925 -0.1177 -0.0346
vn 0.4412 -0.8856 -0.1452
vn 0.5971 0.7115 0.3704
vn 0.1999 0.8974 0.3934
vn 0.3012 0.8037 0.5131
vn 0.5214 0.5429 0.6583
vn 0.6845 0.4418 0.5799
vn 0.4511 0.4756 0.7552
vn 0.5675 -0.0221 0.8231
vn 0.0157 0.9415 0.3366
vn 0.6107 -0.4635 0.6420
vn 0.4854 -0.3153 0.8154
vn 0.3295 -0.7626 0.5566
vn 0.1762 -0.8822 0.4366
vn 0.3094 -0.5164 0.7985
vn 0.0703 0.7140 0.6967
vn 0.2551 -0.6524 0.7137
vn 0.1026 -0.3064 0.9463
vn 0.0337 0.0852 0.9958
vn 0.0520 -0.9983 -0.0270
vn -0.1111 -0.1771 0.9779
vn 0.0516 -0.9869 -0.1528
vn -0.0750 0.8183 0.5699
vn -0.0621 -0.5413 0.8385
vn -0.1099 0.5512 0.8271
vn -0.2730 -0.3512 0.8956
vn -0.2162 -0.4731 0.8541
vn -0.1385 -0.9325 0.3334
vn -0.3025 0.0174 0.9530
vn -0.1149 0.9300 0.3492
vn -0.3032 0.6735 0.6741
vn -0.4057 -0.6363 0.6562
vn -0.5387 -0.5013 0.6771
vn -0.4308 -0.7941 0.4287
vn -0.1950 -0.9770 0.0861
vn -0.6175 0.0565 0.7846
vn -0.6533 -0.0753 0.7533
vn -0.7409 -0.3256 0.5873
vn -0.2931 0.8540 0.4299
vn -0.5372 0.5768 0.6154
vn -0.4098 -0.8960 0.1710
vn -0.6047 0.3335 0.7233
vn -0.7238 0.4622 0.5124
vn -0.9175 0.1783 0.3555
vn -0.0505 -0.9728 -0.2262
vn -0.9312 -0.2422 0.2724
vn -0.8666 -0.4179 0.2726
vn -0.5334 0.7490 0.3931
vn -0.8180 -0.5655 0.1052
vn -0.5886 0.6863 0.4272
vn -0.6877 -0.7097 0.1530
vn -0.8439 -0.5291 -0.0890
vn -0.8026 0.5346 0.2646
vn -0.9897 -0.0751 0.1218
vn -0.8993 -0.4183 -0.1273
vn -0.9766 0.2146 -0.0166
vn -0.8202 0.5717 -0.0218
vn -0.5531 -0.7530 -0.3565
vn -0.3732 0.9147 0.1551
vn -0.5259 0.8362 0.1552
vn -0.7734 -0.5069 -0.3806
vn -0.8783 0.1222 -0.4623
vn -0.7955 -0.3479 -0.4961
vn -0.6139 -0.6455 -0.4544
vn -0.7469 0.6285 -0.2168
vn -0.2924 -0.8326 -0.4705
vn -0.7917 -0.0871 -0.6047
vn -0.5871 -0.4403 -0.6793
vn -0.5692 0.8017 -0.1823
vn -0.5749 0.6671 -0.4738
vn -0.3099 -0.6733 -0.6713
vn -0.1332 0.9741 0.1828
vn -0.3282 -0.3994 -0.8560
vn -0.2597 0.8437 -0.4698
vn -0.1785 -0.5707 -0.8015
vn -0.2458 0.6227 -0.7429
vn -0.2673 -0.0505 -0.9623
vn -0.0857 0.1605 -0.9833
vn -0.1100 0.8973 -0.4275
vn -0.0280 -0.4686 -0.8829
vn 0.0304 -0.8750 -0.4832
vn 0.1228 -0.0839 -0.9889
vn 0.3298 0.7749 -0.5393
vn 0.0368 0.9779 -0.2060
vn 0.1092 -0.2191 -0.9696
vn 0.0916 0.7867 -0.6105
vn 0.0817 0.4852 -0.8706
vn 0.2578 -0.4028 -0.8782
vn 0.2182 -0.6655 -0.7138
vn 0.3087 0.3061 -0.9006
vn 0.3424 -0.0792 -0.9362
vn 0.4794 0.1545 -0.8639
vn 0.0674 0.9937 0.0898
vn 0.4211 -0.2274 -0.8780
vn 0.5776 -0.6424 -0.5038
vn 0.3923 0.6358 -0.6647
vn 0.4509 -0.5392 -0.7113
vn 0.6018 0.3481 -0.7188
vn 0.6107 -0.0444 -0.7906
vn 0.7665 0.1399 -0.6268
vn 0.6877 -0.2871 -0.6668
vn 0.4170 0.8982 -0.1393
vn 0.6932 0.5068 -0.5124
vn 0.3249 -0.8152 -0.4794
vn 0.9344 -0.0353 -0.3545
vn 0.4715 -0.7468 -0.4691
vn 0.8515 0.3206 -0.4149
vn 0.6216 0.7442 -0.2444
vn 0.3039 0.9463 0.1105
vn 0.8568 -0.3391 -0.3886
vn 0.8167 0.5627 -0.1282
vn 0.8763 0.4174 -0.2406
vn 0.9010 0.3076 0.3058
vn 0.8084 0.5869 0.0454
vn 0.9895 0.0118 -0.1442
vn 0.7047 -0.6542 -0.2746
vn 0.9100 -0.4000 -0.1093
vn 0.5166 0.8206 0.2444
vn 0.5239 -0.8340 -0.1731
vn 0.9161 0.3864 0.1075
vn 0.9530 0.0961 0.2873
vn 0.3394 -0.9236 -0.1782
vn 0.9673 -0.0967 0.2344
vn 0.7887 -0.1665 0.5918
vn 0.9179 -0.3313 0.2185
vn 0.8878 -0.4581 0.0441
vn 0.7782 -0.6224 0.0841
vn 0.7128 0.6215 0.3251
vn 0.6827 -0.7300 -0.0323
vn 0.7758 0.4896 0.3981
vn 0.2812 0.8537 0.4384
vn 0.8043 0.0527 0.5918
vn 0.7861 -0.3701 0.4951
vn 0.4356 0.6957 0.5712
vn 0.7229 0.2258 0.6530
vn 0.6984 -0.6401 0.3201
vn 0.5421 -0.7309 0.4146
vn 0.5720 0.2069 0.7937
vn 0.5023 -0.8348 0.2252
vn 0.4088 -0.8977 0.1644
vn 0.2012 -0.9600 0.1949
vn 0.6128 -0.1305 0.7794
vn 0.0998 0.9120 0.3979
vn 0.4836 -0.3925 0.7824
vn 0.2308 0.4954 0.8374
vn 0.1792 0.3574 0.9166
vn 0.2551 0.1330 0.9577
vn 0.1155 0.6280 0.7696
vn 0.1632 -0.9842 0.0681
vn 0.2977 -0.0308 0.9542
vn 0.2856 -0.1585 0.9451
vn -0.1063 0.3228 0.9405
vn 0.1056 -0.3653 0.9249
vn -0.0346 -0.8640 0.5023
vn -0.4107 0.3188 0.8542
vn -0.0968 0.2018 0.9746
vn -0.1141 -0.1636 0.9799
vn -0.0741 0.7971 0.5992
vn -0.0066 -0.6527 0.7576
vn -0.0929 -0.7826 0.6156
vn -0.1224 -0.9514 0.2827
vn -0.3048 0.0323 0.9519
vn -0.4625 -0.2715 0.8441
vn -0.4320 0.1481 0.8896
vn -0.3283 0.6184 0.7141
vn -0.1917 0.8805 0.4335
vn -0.7124 -0.4520 0.5368
vn -0.3746 -0.7162 0.5888
vn -0.4048 -0.8284 0.3871
vn -0.1765 -0.9835 0.0404
vn -0.6361 -0.1596 0.7549
vn -0.6872 0.2002 0.6984
vn -0.8468 0.1548 0.5089
vn -0.3481 0.8156 0.4622
vn -0.6182 -0.6907 0.3752
vn -0.6310 0.4749 0.6134
vn -0.2104 -0.9628 -0.1698
vn -0.8492 -0.0167 0.5278
vn -0.8659 -0.1345 0.4818
vn -0.5550 -0.8318 0.0072
vn -0.7436 0.5538 0.3746
vn -0.9826 -0.1449 0.1160
vn -0.4002 -0.9033 -0.1547
vn -0.9277 0.2996 0.2227
vn -0.9524 -0.1158 -0.2820
vn -0.9850 0.1712 -0.0201
vn -0.8628 -0.4886 -0.1299
vn -0.7860 0.6071 0.1165
vn -0.6307 -0.7542 -0.1830
vn -0.5836 0.8071 0.0894
vn -0.4497 -0.8133 -0.3693
vn -0.9426 0.3115 -0.1207
vn -0.8742 0.3359 -0.3507
vn -0.9306 -0.2059 -0.3025
vn -0.8864 0.0320 -0.4617
vn -0.7894 -0.3580 -0.4987
vn -0.6256 -0.0024 -0.7802
vn -0.5386 -0.5718 -0.6188
vn -0.6417 0.7187 -0.2676
vn -0.2294 -0.8692 -0.4381
vn -0.2590 0.9636 0.0661
vn -0.6364 0.4109 -0.6528
vn -0.5663 -0.1867 -0.8028
vn -0.3015 0.9447 -0.1287
vn -0.5382 -0.3703 -0.7572
vn -0.4100 0.8866 -0.2143
vn -0.2645 -0.7635 -0.5892
vn -0.2545 -0.1477 -0.9557
vn -0.6700 0.2059 -0.7132
vn -0.4220 0.0863 -0.9025
vn -0.2329 -0.2645 -0.9358
vn -0.3274 0.7566 -0.5660
vn -0.1790 -0.5728 -0.7999
vn -0.3660 0.4374 -0.8214
vn -0.3040 0.3223 -0.8965
vt 0.781230 0.812500
vt 0.762032 0.875000
vt 0.685473 0.777944
vt 0.734697 0.375000
vt 0.703125 0.312500
vt 0.764235 0.312500
vt 0.741874 0.599249
vt 0.704616 0.531266
vt 0.763980 0.500000
vt 0.734375 0.000000
vt 0.879629 0.062500
vt 0.593677 0.062500
vt 0.670132 0.472235
vt 0.734536 0.437500
vt 0.734224 0.937500
vt 0.605595 0.875000
vt 0.658359 0.250000
vt 0.719918 0.218999
vt 0.734375 0.717281
vt 0.678319 0.660608
vt 0.606077 0.187500
vt 0.641330 0.592355
vt 0.623673 0.812500
vt 0.673680 0.375000
vt 0.639230 0.312500
vt 0.640625 1.000000
vt 0.479138 0.937500
vt 0.639064 0.437500
vt 0.612180 0.375000
vt 0.595563 0.750000
vt 0.606567 0.500000
vt 0.603325 0.667055
vt 0.578286 0.562500
vt 0.578286 0.437500
vt 0.577540 0.283466
vt 0.543444 0.396147
vt 0.512752 0.812500
vt 0.546915 0.655822
vt 0.503540 0.125000
vt 0.660224 0.125000
vt 0.544067 0.500000
vt 0.509405 0.537235
vt 0.515588 0.281661
vt 0.510998 0.724803
vt 0.449506 0.875000
vt 0.487180 0.625000
vt 0.453286 0.562500
vt 0.450317 0.500000
vt 0.485851 0.406417
vt 0.453088 0.281661
vt 0.455926 0.750000
vt 0.445771 0.665313
vt 0.799126 0.125000
vt 0.779637 0.187500
vt 0.402284 0.812500
vt 0.497588 0.187500
vt 0.386121 0.187500
vt 0.328120 0.062500
vt 0.453125 0.000000
vt 0.437500 0.406180
vt 0.347717 0.125000
vt 0.390588 0.718339
vt 0.293360 0.875000
vt 0.308534 0.812500
vt 0.316528 0.750000
vt 0.343750 0.656371
vt 0.393429 0.625000
vt 0.296915 0.655822
vt 0.343750 0.531273
vt 0.297036 0.562500
vt 0.294067 0.500000
vt 0.328125 1.000000
vt 0.230145 0.937500
vt 0.328286 0.437500
vt 0.296914 0.344178
vt 0.343750 0.343629
vt 0.265786 0.437500
vt 0.234338 0.281661
vt 0.296902 0.219059
vt 0.214815 0.187500
vt 0.237180 0.375000
vt 0.199790 0.812500
vt 0.237635 0.520573
vt 0.203286 0.437500
vt 0.237180 0.625000
vt 0.203286 0.562500
vt 0.190964 0.125000
vt 0.113605 0.062500
vt 0.169067 0.500000
vt 0.203125 0.000000
vt 0.137012 0.875000
vt 0.176363 0.337227
vt 0.171838 0.718339
vt 0.234338 0.718339
vt 0.148421 0.399333
vt 0.160278 0.250000
vt 0.121065 0.187500
vt 0.174680 0.625000
vt 0.134405 0.537235
vt 0.140625 1.000000
vt 0.030235 0.937500
vt 0.075252 0.812500
vt 0.102021 0.334687
vt 0.109536 0.437500
vt 0.066529 0.250000
vt 0.055088 0.153620
vt 0.112179 0.625000
vt 0.078286 0.562500
vt 0.075317 0.500000
vt 0.047036 0.437500
vt 0.032456 0.875000
vt 0.048167 0.750000
vt 0.108913 0.719958
vt 0.062500 0.658651
vt 0.015664 0.655822
vt 0.018885 0.520574
vt 0.000000 0.562500
vt 0.015625 0.000000
vt 0.000000 0.062500
vt 0.000000 0.399333
vt 0.046914 0.344178
vt 0.000000 0.784407
vt 0.000000 0.273040
vt 0.991904 0.273040
vt 0.992171 0.399333
vt 0.937867 0.282145
vt 1.000000 0.655822
vt 0.975379 0.784407
vt 0.953164 0.655822
vt 1.000000 0.500000
vt 0.984536 0.562500
vt 0.950317 0.500000
vt 0.953286 0.437500
vt 0.924679 0.375000
vt 0.915655 0.537235
vt 0.910279 0.750000
vt 0.906250 0.656371
vt 0.965747 0.187500
vt 0.868449 0.212346
vt 0.978825 0.875000
vt 0.921769 0.937500
vt 0.872374 0.843190
vt 0.887823 0.312500
vt 0.859536 0.562500
vt 0.856567 0.500000
vt 0.890786 0.437500
vt 0.855944 0.396148
vt 0.859414 0.655822
vt 0.939862 0.125000
vt 0.812867 0.282145
vt 0.814726 0.750000
vt 0.796945 0.653777
vt 0.828125 1.000000
vt 0.798190 0.375000
vt 0.797036 0.437500
vt 0.390786 0.562500
vt 0.387817 0.500000
vt 0.390786 0.437500
vt 0.390665 0.344178
vt 0.378980 0.250000
vt 0.000000 0.125000
vt 0.000000 0.187500
vt 0.801816 0.543181
s 0
f 2/1/1 6/2/1 13/3/1
f 11/4/2 14/5/2 4/6/2
f 8/7/3 9/8/3 3/9/3
f 5/10/4 127/11/4 44/12/4
f 9/8/5 16/13/5 10/14/5
f 139/15/6 32/16/6 6/2/6
f 14/5/7 21/17/7 12/18/7
f 7/19/8 15/20/8 8/7/8
f 12/18/9 21/17/9 31/21/9
f 15/20/10 18/22/10 9/8/10
f 32/16/11 22/23/11 13/3/11
f 14/5/12 17/24/12 20/25/12
f 139/15/13 1/26/13 59/27/13
f 19/28/14 25/29/14 17/24/14
f 22/23/15 27/30/15 13/3/15
f 16/13/16 18/22/16 24/31/16
f 18/22/17 23/32/17 28/33/17
f 24/31/18 29/34/18 19/28/18
f 20/25/19 25/29/19 30/35/19
f 20/25/20 30/35/20 21/17/20
f 29/34/21 35/36/21 25/29/21
f 32/16/22 41/37/22 22/23/22
f 23/32/23 27/30/23 33/38/23
f 31/21/24 51/39/24 26/40/24
f 24/31/25 28/33/25 34/41/25
f 28/33/26 33/38/26 37/42/26
f 34/41/27 35/36/27 29/34/27
f 30/35/28 35/36/28 38/43/28
f 41/37/29 36/44/29 27/30/29
f 32/16/30 59/27/30 40/45/30
f 37/42/31 42/46/31 47/47/31
f 37/42/32 47/47/32 48/48/32
f 38/43/33 43/49/33 50/50/33
f 41/37/34 45/51/34 36/44/34
f 36/44/35 45/51/35 46/52/35
f 26/40/36 146/53/36 145/54/36 12/18/36
f 41/37/37 40/45/37 52/55/37
f 39/56/38 50/50/38 64/57/38
f 44/12/39 51/39/39 76/58/39
f 5/59/40 44/12/40 76/58/40
f 48/48/41 49/60/41 43/49/41
f 64/57/42 73/61/42 51/39/42
f 52/55/43 54/62/43 45/51/43
f 59/27/44 77/63/44 40/45/44
f 52/55/45 77/63/45 67/64/45
f 54/62/46 68/65/46 60/66/46
f 54/62/47 60/66/47 55/67/47
f 60/66/48 68/65/48 69/68/48
f 61/69/49 65/70/49 70/71/49
f 59/27/50 1/72/50 82/73/50
f 66/74/51 71/75/51 62/76/51
f 70/71/52 75/77/52 66/74/52
f 71/75/53 81/78/53 72/79/53
f 72/79/54 81/78/54 87/80/54
f 75/77/55 80/81/55 71/75/55
f 67/64/56 77/63/56 88/82/56
f 71/75/57 80/81/57 81/78/57
f 74/83/58 85/84/58 75/77/58
f 74/83/59 79/85/59 83/86/59
f 96/87/60 111/88/60 76/58/60
f 74/83/61 83/86/61 84/89/61
f 5/90/62 76/58/62 111/88/62
f 77/63/63 82/73/63 92/91/63
f 85/84/64 86/92/64 80/81/64
f 88/82/65 89/93/65 78/94/65
f 84/89/66 95/95/66 85/84/66
f 85/84/67 95/95/67 86/92/67
f 87/80/68 91/96/68 100/97/68
f 83/86/69 90/98/69 93/99/69
f 82/73/70 1/100/70 131/101/70
f 92/91/71 105/102/71 88/82/71
f 86/92/72 95/95/72 99/103/72
f 94/104/73 99/103/73 95/95/73
f 99/103/74 109/105/74 91/96/74
f 100/97/75 110/106/75 96/87/75
f 93/99/76 98/107/76 102/108/76
f 93/99/77 102/108/77 103/109/77
f 103/109/78 108/110/78 94/104/78
f 131/101/79 118/111/79 92/91/79
f 105/102/80 106/112/80 97/113/80
f 100/97/81 109/105/81 110/106/81
f 97/113/82 101/114/82 98/107/82
f 101/114/83 106/112/83 112/115/83
f 107/116/84 112/115/84 115/117/84
f 5/118/85 111/88/85 127/119/85
f 107/116/86 113/120/86 108/110/86
f 108/110/87 113/120/87 104/121/87
f 105/102/88 118/111/88 114/122/88
f 104/121/89 113/120/89 116/123/89
f 105/102/90 114/122/90 106/112/90
f 104/121/91 116/123/91 109/105/91
f 116/124/92 113/125/92 126/126/92
f 112/127/93 114/128/93 119/129/93
f 107/130/94 115/131/94 120/132/94
f 121/133/95 125/134/95 113/125/95
f 115/131/96 119/129/96 124/135/96
f 119/129/97 128/136/97 123/137/97
f 122/138/98 126/126/98 137/139/98
f 118/140/99 131/141/99 132/142/99
f 118/140/100 132/142/100 114/128/100
f 126/126/101 125/134/101 130/143/101
f 124/135/102 134/144/102 135/145/102
f 129/146/103 136/147/103 125/134/103
f 130/143/104 137/139/104 126/126/104
f 123/137/105 128/136/105 133/148/105
f 137/139/106 146/53/106 117/149/106
f 135/145/107 136/147/107 129/146/107
f 130/143/108 136/147/108 138/150/108
f 132/142/109 140/151/109 128/136/109
f 133/148/110 140/151/110 141/152/110
f 137/139/111 138/150/111 145/54/111
f 131/141/112 1/153/112 139/15/112
f 138/150/113 144/154/113 4/6/113
f 140/151/114 2/1/114 7/19/114
f 4/6/115 12/18/115 138/150/115
f 141/152/116 7/19/116 8/7/116
f 3/9/117 10/14/117 143/155/117
f 3/9/118 9/8/118 10/14/118
f 7/19/119 2/1/119 13/3/119
f 4/6/120 14/5/120 12/18/120
f 44/12/121 127/11/121 146/53/121 26/40/121
f 17/24/122 11/4/122 10/14/122 16/13/122
f 23/32/123 15/20/123 13/3/123 27/30/123
f 6/2/124 32/16/124 13/3/124
f 11/4/125 17/24/125 14/5/125
f 7/19/126 13/3/126 15/20/126
f 9/8/127 8/7/127 15/20/127
f 21/17/128 14/5/128 20/25/128
f 12/18/129 31/21/129 26/40/129
f 9/8/130 18/22/130 16/13/130
f 16/13/131 19/28/131 17/24/131
f 16/13/132 24/31/132 19/28/132
f 139/15/133 59/27/133 32/16/133
f 20/25/134 17/24/134 25/29/134
f 38/43/135 39/56/135 31/21/135 30/35/135
f 15/20/136 23/32/136 18/22/136
f 21/17/137 30/35/137 31/21/137
f 24/31/138 18/22/138 28/33/138
f 19/28/139 29/34/139 25/29/139
f 24/31/140 34/41/140 29/34/140
f 30/35/141 25/29/141 35/36/141
f 22/23/142 41/37/142 27/30/142
f 28/33/143 23/32/143 33/38/143
f 44/12/144 26/40/144 51/39/144
f 43/49/145 35/36/145 34/41/145 37/42/145
f 51/39/146 31/21/146 39/56/146
f 34/41/147 28/33/147 37/42/147
f 33/38/148 27/30/148 36/44/148
f 32/16/149 40/45/149 41/37/149
f 38/43/150 35/36/150 43/49/150
f 33/38/151 36/44/151 42/46/151
f 37/42/152 33/38/152 42/46/152
f 55/67/153 56/156/153 47/47/153 46/52/153
f 36/44/154 46/52/154 42/46/154
f 37/42/155 48/48/155 43/49/155
f 39/56/156 38/43/156 50/50/156
f 50/50/157 43/49/157 49/60/157
f 41/37/158 52/55/158 45/51/158
f 39/56/159 64/57/159 51/39/159
f 47/47/160 42/46/160 46/52/160
f 56/156/161 57/157/161 48/48/161 47/47/161
f 51/39/162 73/61/162 76/58/162
f 58/158/163 49/60/163 48/48/163 57/157/163
f 66/74/164 58/158/164 57/157/164 61/69/164
f 49/60/165 58/158/165 53/159/165
f 50/50/166 49/60/166 53/159/166
f 50/50/167 53/159/167 63/160/167
f 46/52/168 45/51/168 54/62/168
f 64/57/169 50/50/169 63/160/169
f 46/52/170 54/62/170 55/67/170
f 40/45/171 77/63/171 52/55/171
f 57/157/172 56/156/172 61/69/172
f 62/76/173 53/159/173 58/158/173 66/74/173
f 68/65/174 54/62/174 52/55/174 67/64/174
f 60/66/175 61/69/175 56/156/175 55/67/175
f 53/159/176 62/76/176 63/160/176
f 72/79/177 63/160/177 62/76/177 71/75/177
f 69/68/178 65/70/178 61/69/178 60/66/178
f 64/57/179 63/160/179 72/79/179
f 64/57/180 72/79/180 73/61/180
f 96/87/181 73/61/181 72/79/181 87/80/181
f 61/69/182 70/71/182 66/74/182
f 59/27/183 82/73/183 77/63/183
f 66/74/184 75/77/184 71/75/184
f 69/68/185 68/65/185 78/94/185
f 69/68/186 78/94/186 79/85/186
f 79/85/187 74/83/187 65/70/187 69/68/187
f 78/94/188 68/65/188 67/64/188 88/82/188
f 76/58/189 73/61/189 96/87/189
f 70/71/190 65/70/190 74/83/190
f 70/71/191 74/83/191 75/77/191
f 90/98/192 79/85/192 78/94/192 89/93/192
f 75/77/193 85/84/193 80/81/193
f 87/80/194 81/78/194 91/96/194
f 98/107/195 90/98/195 89/93/195 97/113/195
f 83/86/196 79/85/196 90/98/196
f 74/83/197 84/89/197 85/84/197
f 77/63/198 92/91/198 88/82/198
f 81/78/199 80/81/199 86/92/199
f 81/78/200 86/92/200 91/96/200
f 87/80/201 100/97/201 96/87/201
f 84/89/202 83/86/202 93/99/202
f 94/104/203 95/95/203 84/89/203 93/99/203
f 93/99/204 90/98/204 98/107/204
f 97/113/205 89/93/205 88/82/205 105/102/205
f 82/73/206 131/101/206 92/91/206
f 104/121/207 99/103/207 94/104/207 108/110/207
f 86/92/208 99/103/208 91/96/208
f 100/97/209 91/96/209 109/105/209
f 96/87/210 110/106/210 111/88/210
f 93/99/211 103/109/211 94/104/211
f 102/108/212 98/107/212 101/114/212
f 112/115/213 107/116/213 102/108/213 101/114/213
f 92/91/214 118/111/214 105/102/214
f 99/103/215 104/121/215 109/105/215
f 97/113/216 106/112/216 101/114/216
f 127/119/217 111/88/217 110/106/217 117/161/217
f 103/109/218 102/108/218 107/116/218
f 103/109/219 107/116/219 108/110/219
f 116/123/220 122/162/220 110/106/220 109/105/220
f 112/115/221 106/112/221 114/122/221
f 121/133/222 113/125/222 107/130/222 120/132/222
f 110/106/223 122/162/223 117/161/223
f 115/131/224 112/127/224 119/129/224
f 129/146/225 121/133/225 120/132/225 124/135/225
f 120/132/226 115/131/226 124/135/226
f 126/126/227 113/125/227 125/134/227
f 119/129/228 114/128/228 128/136/228
f 122/138/229 116/124/229 126/126/229
f 114/128/230 132/142/230 128/136/230
f 117/149/231 122/138/231 137/139/231
f 124/135/232 119/129/232 123/137/232
f 133/148/233 134/144/233 124/135/233 123/137/233
f 121/133/234 129/146/234 125/134/234
f 124/135/235 135/145/235 129/146/235
f 130/143/236 125/134/236 136/147/236
f 143/155/237 136/147/237 135/145/237 142/163/237
f 130/143/238 138/150/238 137/139/238
f 133/148/239 128/136/239 140/151/239
f 117/149/240 146/53/240 127/11/240
f 139/15/241 6/2/241 132/142/241 131/141/241
f 141/152/242 142/163/242 134/144/242 133/148/242
f 136/147/243 143/155/243 144/154/243
f 132/142/244 6/2/244 2/1/244
f 138/150/245 136/147/245 144/154/245
f 132/142/246 2/1/246 140/151/246
f 137/139/247 145/54/247 146/53/247
f 11/4/248 144/154/248 143/155/248 10/14/248
f 135/145/249 134/144/249 142/163/249
f 142/163/250 3/9/250 143/155/250
f 144/154/251 11/4/251 4/6/251
f 141/152/252 140/151/252 7/19/252
f 145/54/253 138/150/253 12/18/253
f 142/163/254 141/152/254 8/7/254
f 3/9/255 142/163/255 8/7/255
