# Blender 5.0.0
# www.blender.org
mtllib Walk_Forward0020.mtl
o Sphere
v -1.022438 5.499008 2.319792
v -1.403435 5.128650 1.972897
v -1.517187 4.141803 1.766913
v -1.311891 3.684651 2.009381
v -0.692017 3.600158 2.719836
v -1.262905 5.272174 2.039509
v -1.357239 4.834892 1.732066
v -1.422372 4.455005 1.667073
v -1.194110 4.266215 1.595067
v -1.320939 3.973388 1.731833
v -1.261318 3.817076 1.818758
v -1.009107 3.557472 2.126104
v -1.098184 5.063078 1.771285
v -1.035136 3.712749 1.871411
v -1.082400 4.702409 1.603846
v -0.954504 4.123073 1.603580
v -0.920428 3.868897 1.732636
v -0.841456 4.547463 1.572119
v -0.738656 4.066243 1.656961
v -0.693392 3.770400 1.867894
v -0.765485 3.638314 2.007301
v -0.892196 5.193203 1.849824
v -0.681937 4.825126 1.660072
v -0.564985 4.314981 1.644196
v -0.555913 3.956983 1.778689
v -0.723034 3.542276 2.341460
v -0.723289 5.082502 1.779761
v -0.436941 4.566623 1.691991
v -0.371802 4.192284 1.770855
v -0.382072 3.817363 2.025440
v -0.553860 3.626026 2.196754
v -0.898030 5.346604 2.000396
v -0.377924 4.911941 1.807837
v -0.210562 4.457120 1.836295
v -0.195045 4.157567 1.926267
v -0.355251 5.163771 1.980915
v -0.077309 4.651132 1.964090
v -0.145209 3.927791 2.216969
v -0.249725 3.768237 2.426905
v -0.629100 5.482329 2.253625
v -0.560905 5.340999 2.050585
v -0.104216 4.961302 2.057971
v 0.042025 4.319478 2.177707
v -0.619753 3.572558 2.546098
v -0.290300 5.311661 2.204712
v -0.079838 5.149792 2.250048
v 0.066434 4.866910 2.254069
v 0.123536 4.689276 2.305908
v 0.146021 4.428359 2.428023
v 0.006228 4.047737 2.473086
v -0.386616 3.670860 2.513884
v -0.424032 5.477709 2.389887
v 0.128217 4.334278 2.731345
v -0.168845 5.365031 2.500160
v 0.025120 5.157363 2.551875
v 0.114495 4.998884 2.611364
v 0.165158 4.822337 2.670497
v 0.179634 4.624545 2.690229
v -0.839688 5.499853 2.247953
v -0.090101 5.301361 2.773685
v 0.073281 4.987651 2.909865
v 0.066508 4.401369 2.963292
v -0.021511 4.076924 2.805112
v -0.150704 3.907319 2.776715
v -0.095969 5.117337 3.093526
v 0.074801 4.716612 3.027583
v -0.520715 5.552682 2.671807
v -0.352658 5.490052 2.756083
v -0.217801 5.344393 2.976937
v -0.059704 4.939403 3.157752
v -0.060708 4.441617 3.167131
v -0.210331 4.057623 3.069586
v -0.328345 3.801411 2.851791
v -0.358788 5.017817 3.348472
v -0.166967 4.754756 3.293637
v -0.509497 3.689276 2.813154
v -0.708927 5.583948 2.577583
v -0.574672 5.463646 3.048412
v -0.440340 5.282157 3.215043
v -0.313061 4.550715 3.369140
v -0.363543 4.250342 3.304028
v -0.922953 5.561090 2.495769
v -0.574001 5.107509 3.369022
v -0.750555 4.890608 3.454225
v -0.508862 4.733170 3.447886
v -0.645456 4.389398 3.435646
v -0.501680 3.972713 3.179923
v -0.826593 5.552400 2.863162
v -0.870386 5.422753 3.116512
v -0.789437 5.236629 3.303511
v -0.704404 4.105268 3.323242
v -1.048589 5.540738 2.692403
v -0.987309 4.947742 3.415305
v -1.093337 4.598375 3.423856
v -0.831073 4.548229 3.469510
v -0.609596 3.807964 3.058835
v -1.180169 5.341285 3.074313
v -1.158543 5.142182 3.260938
v -1.046891 4.276252 3.376105
v -0.831630 3.904020 3.188115
v -1.411326 5.130101 3.091248
v -1.342654 4.906882 3.268772
v -1.335879 4.716319 3.314654
v -1.336532 4.187226 3.231790
v -1.260286 5.440866 2.789432
v -1.414262 5.297178 2.868647
v -1.645701 4.643962 3.069067
v -1.444289 4.460173 3.241120
v -1.113126 3.976171 3.204054
v -0.998147 3.749141 3.022821
v -0.744599 3.667852 2.895430
v -1.622975 5.021292 2.922010
v -1.633051 4.216257 3.004433
v -1.564854 5.247413 2.590745
v -1.766046 4.681427 2.875710
v -1.410949 3.895690 2.982150
v -1.089059 3.605341 2.764962
v -1.337642 5.421659 2.512450
v -1.798494 4.884202 2.630836
v -1.837991 4.409890 2.733719
v -1.780889 4.232256 2.785558
v -1.248824 3.702521 2.854685
v -1.840940 4.791148 2.388900
v -1.897348 4.443852 2.513736
v -1.731965 4.000977 2.656828
v -1.523750 3.813298 2.768865
v -0.899566 3.556896 2.677150
v -1.700036 5.064478 2.363171
v -1.828950 4.100282 2.428263
v -1.613507 3.793474 2.506371
v -1.198052 5.474353 2.402667
v -1.482271 5.247044 2.221827
v -1.812575 4.717760 2.150601
v -1.860321 4.422550 2.174851
v -1.841511 4.224820 2.192007
v -1.745657 3.941284 2.277902
v -1.349964 3.607888 2.519770
v -1.429375 3.650029 2.228896
v -1.121752 5.401196 2.152440
v -1.590000 4.968690 1.993942
v -1.653748 4.657548 1.872497
v -1.690188 4.285052 1.879302
v -1.618486 3.981828 1.946103
v -1.542057 3.820796 2.027125
v -1.125159 3.536710 2.302380
v -1.019292 3.521501 2.467708
vn -0.3231 0.6399 -0.6972
vn -0.2182 -0.7734 -0.5952
vn -0.4148 -0.1599 -0.8957
vn 0.1560 -0.9634 0.2179
vn -0.1778 -0.3522 -0.9189
vn -0.2211 0.7680 -0.6011
vn 0.0280 -0.8522 -0.5224
vn -0.3266 0.2135 -0.9207
vn 0.1839 -0.9461 -0.2667
vn -0.1013 0.0459 -0.9938
vn -0.1649 0.6877 -0.7070
vn 0.1117 -0.7047 -0.7006
vn -0.1694 0.8914 -0.4204
vn 0.2306 -0.5262 -0.8185
vn -0.0080 0.5260 -0.8504
vn 0.1589 -0.1150 -0.9806
vn 0.2750 0.1432 -0.9507
vn 0.3770 -0.3081 -0.8735
vn 0.4253 -0.6259 -0.6538
vn 0.3804 -0.7615 -0.5248
vn 0.5399 -0.4462 -0.7137
vn 0.1168 0.6980 -0.7065
vn 0.2871 0.4415 -0.8501
vn 0.3896 -0.9179 -0.0757
vn 0.5029 -0.0927 -0.8593
vn 0.5681 0.1728 -0.8046
vn 0.6259 -0.1944 -0.7553
vn 0.6701 -0.5222 -0.5276
vn 0.2726 0.6091 -0.7448
vn 0.0843 0.8382 -0.5388
vn 0.7866 0.2404 -0.5688
vn 0.8495 0.1234 -0.5129
vn 0.8493 -0.4358 -0.2980
vn 0.4081 0.7027 -0.5828
vn 0.5775 0.5940 -0.5601
vn 0.0239 -0.9943 -0.1040
vn 0.3266 0.8236 -0.4636
vn 0.7308 -0.6797 0.0634
vn 0.4047 -0.8874 0.2208
vn 0.3062 -0.9122 0.2723
vn 0.9326 -0.0839 -0.3510
vn 0.5648 -0.7978 0.2109
vn 0.5006 0.7923 -0.3489
vn 0.0871 0.9565 -0.2786
vn 0.2439 0.9547 -0.1703
vn 0.5825 0.8125 0.0214
vn 0.7365 0.6742 -0.0551
vn 0.5653 0.8039 0.1850
vn 0.7989 0.3415 0.4951
vn -0.1120 0.9553 -0.2737
vn 0.8289 -0.1326 0.5435
vn 0.7430 0.0590 0.6667
vn 0.5766 -0.4049 0.7097
vn 0.4311 -0.5382 0.7242
vn 0.5869 -0.1241 0.8001
vn 0.0905 0.9851 0.1461
vn 0.5307 -0.2638 0.8054
vn 0.4035 0.1047 0.9090
vn 0.2867 0.5007 0.8168
vn 0.2511 -0.8275 0.5021
vn 0.1851 0.2251 0.9566
vn 0.2235 -0.8851 0.4082
vn -0.1168 0.9928 0.0281
vn 0.2576 -0.1364 0.9566
vn -0.0190 0.8914 0.4529
vn 0.0479 0.0333 0.9983
vn 0.1123 -0.0799 0.9905
vn 0.1470 -0.6138 0.7757
vn -0.0471 0.3884 0.9203
vn -0.2304 0.9512 -0.2053
vn -0.2859 0.9068 0.3097
vn -0.0636 -0.2786 0.9583
vn -0.2008 -0.1719 0.9644
vn -0.1037 -0.4774 0.8726
vn 0.0538 -0.7551 0.6534
vn -0.3919 0.3351 0.8568
vn -0.3931 0.2020 0.8970
vn -0.4383 -0.0717 0.8960
vn -0.3687 0.9293 -0.0227
vn -0.5020 0.7627 0.4078
vn -0.1264 -0.6572 0.7431
vn -0.4752 0.5737 0.6671
vn -0.6666 0.5919 0.4531
vn -0.7961 0.2608 0.5460
vn 0.1114 -0.9156 0.3863
vn -0.7083 -0.1259 0.6946
vn -0.6031 -0.2638 0.7528
vn -0.5817 0.8064 0.1065
vn -0.5721 -0.4443 0.6894
vn -0.6135 0.7651 0.1954
vn -0.4094 -0.5309 0.7420
vn -0.6693 -0.5018 0.5479
vn -0.8067 0.5443 0.2300
vn -0.8521 -0.0468 0.5213
vn -0.7623 -0.4303 0.4834
vn -0.9569 0.1484 0.2497
vn -0.8894 0.4567 -0.0196
vn -0.4438 -0.8183 0.3652
vn -0.5054 0.8272 -0.2455
vn -0.6328 0.7611 -0.1424
vn -0.7224 -0.6258 0.2943
vn -0.9895 -0.1029 -0.1016
vn -0.8306 -0.5447 0.1158
vn -0.5656 -0.7850 0.2527
vn -0.8727 0.4277 -0.2356
vn -0.2144 -0.9521 0.2182
vn -0.9249 -0.3544 -0.1376
vn -0.6818 -0.7275 -0.0763
vn -0.7259 0.5816 -0.3672
vn -0.7738 0.3616 -0.5202
vn -0.3395 -0.9396 -0.0434
vn -0.2898 0.8912 -0.3489
vn -0.4915 -0.7806 -0.3862
vn -0.5062 0.4978 -0.7043
vn -0.2731 -0.9170 -0.2908
vn -0.5256 0.2302 -0.8190
vn -0.5261 -0.4647 -0.7123
vn -0.3765 -0.2531 -0.8912
vn -0.3736 0.5522 -0.7453
vn -0.1636 -0.8497 -0.5013
vn 0.1069 -0.9893 0.0993
vn -0.1246 -0.4841 -0.8661
vn -0.0015 0.4212 -0.9070
vn -0.2159 0.7014 -0.6793
vn -0.1032 -0.6173 -0.7799
vn -0.2203 0.4028 -0.8884
vn -0.2386 0.0806 -0.9678
vn 0.1200 -0.7509 -0.6494
vn 0.1891 -0.9294 -0.3168
vn -0.0075 -0.0719 -0.9974
vn 0.1051 -0.4390 -0.8923
vn 0.1905 -0.1825 -0.9646
vn -0.1304 0.8565 -0.4994
vn 0.2349 -0.5547 -0.7982
vn 0.5786 -0.7645 -0.2843
vn 0.0505 0.2751 -0.9601
vn 0.3887 -0.7833 -0.4851
vn 0.2822 0.0385 -0.9586
vn 0.3808 -0.3268 -0.8650
vn 0.5033 -0.0942 -0.8589
vn 0.5507 -0.4980 -0.6698
vn 0.1399 0.6730 -0.7263
vn 0.3686 0.2384 -0.8985
vn 0.3813 -0.9227 -0.0559
vn 0.7695 -0.1357 -0.6240
vn 0.5089 -0.8480 -0.1485
vn 0.5778 0.1335 -0.8052
vn 0.3198 0.5169 -0.7940
vn 0.0953 0.8317 -0.5470
vn 0.7797 -0.4193 -0.4651
vn 0.5645 0.4324 -0.7031
vn 0.6208 0.2760 -0.7338
vn 0.8613 0.4183 -0.2885
vn 0.6075 0.5270 -0.5943
vn 0.8628 -0.0150 -0.5053
vn 0.7418 -0.6578 -0.1306
vn 0.9068 -0.3592 -0.2205
vn 0.3548 0.8088 -0.4690
vn 0.6275 -0.7681 0.1277
vn 0.7786 0.3957 -0.4871
vn 0.9529 0.2267 -0.2016
vn 0.4717 -0.8468 0.2458
vn 0.9897 0.0370 -0.1382
vn 0.9547 0.1132 0.2751
vn 0.9848 -0.1739 0.0039
vn 0.9353 -0.3498 -0.0536
vn 0.8726 -0.4748 0.1146
vn 0.6142 0.6929 -0.3777
vn 0.7801 -0.6142 0.1192
vn 0.7362 0.6200 -0.2715
vn 0.1884 0.9494 -0.2514
vn 0.9380 0.3165 0.1414
vn 0.9462 -0.1050 0.3062
vn 0.4241 0.8985 -0.1129
vn 0.8518 0.5083 0.1264
vn 0.8516 -0.3976 0.3416
vn 0.7376 -0.4341 0.5172
vn 0.7600 0.5572 0.3345
vn 0.6771 -0.5895 0.4404
vn 0.5900 -0.6632 0.4605
vn 0.4189 -0.6951 0.5842
vn 0.8413 0.2193 0.4940
vn -0.0106 0.9699 -0.2432
vn 0.7383 -0.0218 0.6741
vn 0.3593 0.8647 0.3510
vn 0.3621 0.7615 0.5375
vn 0.4991 0.5481 0.6712
vn 0.1818 0.9508 0.2508
vn 0.3659 -0.7708 0.5215
vn 0.5661 0.3795 0.7318
vn 0.5663 0.2492 0.7856
vn 0.0736 0.7134 0.6968
vn 0.4085 0.0449 0.9117
vn 0.2588 -0.4986 0.8273
vn -0.2559 0.6371 0.7271
vn 0.1213 0.6026 0.7888
vn 0.1802 0.2383 0.9543
vn -0.1036 0.9924 0.0669
vn 0.3054 -0.2505 0.9187
vn 0.2196 -0.3979 0.8907
vn 0.1535 -0.6485 0.7455
vn -0.0532 0.4023 0.9140
vn -0.1510 0.0747 0.9857
vn -0.2207 0.4798 0.8492
vn -0.2879 0.8739 0.3916
vn -0.2760 0.9581 -0.0772
vn -0.3928 -0.1881 0.9002
vn -0.0364 -0.3611 0.9318
vn -0.0846 -0.5180 0.8512
vn 0.0609 -0.7820 0.6202
vn -0.3538 0.1300 0.9262
vn -0.5174 0.4295 0.7402
vn -0.6899 0.3026 0.6576
vn -0.4071 0.9120 0.0505
vn -0.2955 -0.4253 0.8555
vn -0.5636 0.6571 0.5006
vn -0.0231 -0.8765 0.4809
vn -0.6358 0.1592 0.7552
vn -0.6266 0.0418 0.7782
vn -0.3087 -0.6869 0.6579
vn -0.7357 0.6125 0.2890
vn -0.8281 -0.1070 0.5503
vn -0.2027 -0.8231 0.5305
vn -0.8710 0.3154 0.3766
vn -0.9458 -0.2417 0.2170
vn -0.9553 0.1095 0.2747
vn -0.7118 -0.4883 0.5049
vn -0.8366 0.5447 0.0591
vn -0.4539 -0.7238 0.5197
vn -0.6920 0.7049 -0.1556
vn -0.3363 -0.8748 0.3487
vn -0.9763 0.1934 0.0969
vn -0.9828 0.1286 -0.1324
vn -0.9122 -0.3289 0.2442
vn -0.9818 -0.1843 -0.0449
vn -0.8235 -0.5551 0.1172
vn -0.8394 -0.3483 -0.4172
vn -0.5767 -0.8160 0.0392
vn -0.7980 0.4814 -0.3627
vn -0.1348 -0.9615 0.2395
vn -0.4245 0.8212 -0.3814
vn -0.8518 0.0833 -0.5172
vn -0.7610 -0.5412 -0.3578
vn -0.4941 0.7140 -0.4961
vn -0.6794 -0.7017 -0.2145
vn -0.5984 0.6333 -0.4907
vn -0.2424 -0.9679 0.0662
vn -0.4955 -0.5626 -0.6618
vn -0.8838 -0.1232 -0.4514
vn -0.6842 -0.3075 -0.6613
vn -0.4450 -0.6758 -0.5876
vn -0.5759 0.3969 -0.7147
vn -0.2725 -0.9182 -0.2876
vn -0.6391 0.0485 -0.7676
vn -0.5880 -0.0786 -0.8050
vt 0.781230 0.812500
vt 0.762032 0.875000
vt 0.685473 0.777944
vt 0.734697 0.375000
vt 0.703125 0.312500
vt 0.764235 0.312500
vt 0.741874 0.599249
vt 0.704616 0.531266
vt 0.763980 0.500000
vt 0.734375 0.000000
vt 0.879629 0.062500
vt 0.593677 0.062500
vt 0.670132 0.472235
vt 0.734536 0.437500
vt 0.734224 0.937500
vt 0.605595 0.875000
vt 0.658359 0.250000
vt 0.719918 0.218999
vt 0.734375 0.717281
vt 0.678319 0.660608
vt 0.606077 0.187500
vt 0.641330 0.592355
vt 0.623673 0.812500
vt 0.673680 0.375000
vt 0.639230 0.312500
vt 0.640625 1.000000
vt 0.479138 0.937500
vt 0.639064 0.437500
vt 0.612180 0.375000
vt 0.595563 0.750000
vt 0.606567 0.500000
vt 0.603325 0.667055
vt 0.578286 0.562500
vt 0.578286 0.437500
vt 0.577540 0.283466
vt 0.543444 0.396147
vt 0.512752 0.812500
vt 0.546915 0.655822
vt 0.503540 0.125000
vt 0.660224 0.125000
vt 0.544067 0.500000
vt 0.509405 0.537235
vt 0.515588 0.281661
vt 0.510998 0.724803
vt 0.449506 0.875000
vt 0.487180 0.625000
vt 0.453286 0.562500
vt 0.450317 0.500000
vt 0.485851 0.406417
vt 0.453088 0.281661
vt 0.455926 0.750000
vt 0.445771 0.665313
vt 0.799126 0.125000
vt 0.779637 0.187500
vt 0.402284 0.812500
vt 0.497588 0.187500
vt 0.386121 0.187500
vt 0.328120 0.062500
vt 0.453125 0.000000
vt 0.437500 0.406180
vt 0.347717 0.125000
vt 0.390588 0.718339
vt 0.293360 0.875000
vt 0.308534 0.812500
vt 0.316528 0.750000
vt 0.343750 0.656371
vt 0.393429 0.625000
vt 0.296915 0.655822
vt 0.343750 0.531273
vt 0.297036 0.562500
vt 0.294067 0.500000
vt 0.328125 1.000000
vt 0.230145 0.937500
vt 0.328286 0.437500
vt 0.296914 0.344178
vt 0.343750 0.343629
vt 0.265786 0.437500
vt 0.234338 0.281661
vt 0.296902 0.219059
vt 0.214815 0.187500
vt 0.237180 0.375000
vt 0.199790 0.812500
vt 0.237635 0.520573
vt 0.203286 0.437500
vt 0.237180 0.625000
vt 0.203286 0.562500
vt 0.190964 0.125000
vt 0.113605 0.062500
vt 0.169067 0.500000
vt 0.203125 0.000000
vt 0.137012 0.875000
vt 0.176363 0.337227
vt 0.171838 0.718339
vt 0.234338 0.718339
vt 0.148421 0.399333
vt 0.160278 0.250000
vt 0.121065 0.187500
vt 0.174680 0.625000
vt 0.134405 0.537235
vt 0.140625 1.000000
vt 0.030235 0.937500
vt 0.075252 0.812500
vt 0.102021 0.334687
vt 0.109536 0.437500
vt 0.066529 0.250000
vt 0.055088 0.153620
vt 0.112179 0.625000
vt 0.078286 0.562500
vt 0.075317 0.500000
vt 0.047036 0.437500
vt 0.032456 0.875000
vt 0.048167 0.750000
vt 0.108913 0.719958
vt 0.062500 0.658651
vt 0.015664 0.655822
vt 0.018885 0.520574
vt 0.000000 0.562500
vt 0.015625 0.000000
vt 0.000000 0.062500
vt 0.000000 0.399333
vt 0.046914 0.344178
vt 0.000000 0.784407
vt 0.000000 0.273040
vt 0.991904 0.273040
vt 0.992171 0.399333
vt 0.937867 0.282145
vt 1.000000 0.655822
vt 0.975379 0.784407
vt 0.953164 0.655822
vt 1.000000 0.500000
vt 0.984536 0.562500
vt 0.950317 0.500000
vt 0.953286 0.437500
vt 0.924679 0.375000
vt 0.915655 0.537235
vt 0.910279 0.750000
vt 0.906250 0.656371
vt 0.965747 0.187500
vt 0.868449 0.212346
vt 0.978825 0.875000
vt 0.921769 0.937500
vt 0.872374 0.843190
vt 0.887823 0.312500
vt 0.859536 0.562500
vt 0.856567 0.500000
vt 0.890786 0.437500
vt 0.855944 0.396148
vt 0.859414 0.655822
vt 0.939862 0.125000
vt 0.812867 0.282145
vt 0.814726 0.750000
vt 0.796945 0.653777
vt 0.828125 1.000000
vt 0.798190 0.375000
vt 0.797036 0.437500
vt 0.390786 0.562500
vt 0.387817 0.500000
vt 0.390786 0.437500
vt 0.390665 0.344178
vt 0.378980 0.250000
vt 0.000000 0.125000
vt 0.000000 0.187500
vt 0.801816 0.543181
s 0
f 2/1/1 6/2/1 13/3/1
f 11/4/2 14/5/2 4/6/2
f 8/7/3 9/8/3 3/9/3
f 5/10/4 127/11/4 44/12/4
f 9/8/5 16/13/5 10/14/5
f 139/15/6 32/16/6 6/2/6
f 14/5/7 21/17/7 12/18/7
f 7/19/8 15/20/8 8/7/8
f 12/18/9 21/17/9 31/21/9
f 15/20/10 18/22/10 9/8/10
f 32/16/11 22/23/11 13/3/11
f 14/5/12 17/24/12 20/25/12
f 139/15/13 1/26/13 59/27/13
f 19/28/14 25/29/14 17/24/14
f 22/23/15 27/30/15 13/3/15
f 16/13/16 18/22/16 24/31/16
f 18/22/17 23/32/17 28/33/17
f 24/31/18 29/34/18 19/28/18
f 20/25/19 25/29/19 30/35/19
f 20/25/20 30/35/20 21/17/20
f 29/34/21 35/36/21 25/29/21
f 32/16/22 41/37/22 22/23/22
f 23/32/23 27/30/23 33/38/23
f 31/21/24 51/39/24 26/40/24
f 24/31/25 28/33/25 34/41/25
f 28/33/26 33/38/26 37/42/26
f 34/41/27 35/36/27 29/34/27
f 30/35/28 35/36/28 38/43/28
f 41/37/29 36/44/29 27/30/29
f 32/16/30 59/27/30 40/45/30
f 37/42/31 42/46/31 47/47/31
f 37/42/32 47/47/32 48/48/32
f 38/43/33 43/49/33 50/50/33
f 41/37/34 45/51/34 36/44/34
f 36/44/35 45/51/35 46/52/35
f 26/40/36 146/53/36 145/54/36 12/18/36
f 41/37/37 40/45/37 52/55/37
f 39/56/38 50/50/38 64/57/38
f 44/12/39 51/39/39 76/58/39
f 5/59/40 44/12/40 76/58/40
f 48/48/41 49/60/41 43/49/41
f 64/57/42 73/61/42 51/39/42
f 52/55/43 54/62/43 45/51/43
f 59/27/44 77/63/44 40/45/44
f 52/55/45 77/63/45 67/64/45
f 54/62/46 68/65/46 60/66/46
f 54/62/47 60/66/47 55/67/47
f 60/66/48 68/65/48 69/68/48
f 61/69/49 65/70/49 70/71/49
f 59/27/50 1/72/50 82/73/50
f 66/74/51 71/75/51 62/76/51
f 70/71/52 75/77/52 66/74/52
f 71/75/53 81/78/53 72/79/53
f 72/79/54 81/78/54 87/80/54
f 75/77/55 80/81/55 71/75/55
f 67/64/56 77/63/56 88/82/56
f 71/75/57 80/81/57 81/78/57
f 74/83/58 85/84/58 75/77/58
f 74/83/59 79/85/59 83/86/59
f 96/87/60 111/88/60 76/58/60
f 74/83/61 83/86/61 84/89/61
f 5/90/62 76/58/62 111/88/62
f 77/63/63 82/73/63 92/91/63
f 85/84/64 86/92/64 80/81/64
f 88/82/65 89/93/65 78/94/65
f 84/89/66 95/95/66 85/84/66
f 85/84/67 95/95/67 86/92/67
f 87/80/68 91/96/68 100/97/68
f 83/86/69 90/98/69 93/99/69
f 82/73/70 1/100/70 131/101/70
f 92/91/71 105/102/71 88/82/71
f 86/92/72 95/95/72 99/103/72
f 94/104/73 99/103/73 95/95/73
f 99/103/74 109/105/74 91/96/74
f 100/97/75 110/106/75 96/87/75
f 93/99/76 98/107/76 102/108/76
f 93/99/77 102/108/77 103/109/77
f 103/109/78 108/110/78 94/104/78
f 131/101/79 118/111/79 92/91/79
f 105/102/80 106/112/80 97/113/80
f 100/97/81 109/105/81 110/106/81
f 97/113/82 101/114/82 98/107/82
f 101/114/83 106/112/83 112/115/83
f 107/116/84 112/115/84 115/117/84
f 5/118/85 111/88/85 127/119/85
f 107/116/86 113/120/86 108/110/86
f 108/110/87 113/120/87 104/121/87
f 105/102/88 118/111/88 114/122/88
f 104/121/89 113/120/89 116/123/89
f 105/102/90 114/122/90 106/112/90
f 104/121/91 116/123/91 109/105/91
f 116/124/92 113/125/92 126/126/92
f 112/127/93 114/128/93 119/129/93
f 107/130/94 115/131/94 120/132/94
f 121/133/95 125/134/95 113/125/95
f 115/131/96 119/129/96 124/135/96
f 119/129/97 128/136/97 123/137/97
f 122/138/98 126/126/98 137/139/98
f 118/140/99 131/141/99 132/142/99
f 118/140/100 132/142/100 114/128/100
f 126/126/101 125/134/101 130/143/101
f 124/135/102 134/144/102 135/145/102
f 129/146/103 136/147/103 125/134/103
f 130/143/104 137/139/104 126/126/104
f 123/137/105 128/136/105 133/148/105
f 137/139/106 146/53/106 117/149/106
f 135/145/107 136/147/107 129/146/107
f 130/143/108 136/147/108 138/150/108
f 132/142/109 140/151/109 128/136/109
f 133/148/110 140/151/110 141/152/110
f 137/139/111 138/150/111 145/54/111
f 131/141/112 1/153/112 139/15/112
f 138/150/113 144/154/113 4/6/113
f 140/151/114 2/1/114 7/19/114
f 4/6/115 12/18/115 138/150/115
f 141/152/116 7/19/116 8/7/116
f 3/9/117 10/14/117 143/155/117
f 3/9/118 9/8/118 10/14/118
f 7/19/119 2/1/119 13/3/119
f 4/6/120 14/5/120 12/18/120
f 44/12/121 127/11/121 146/53/121 26/40/121
f 17/24/122 11/4/122 10/14/122 16/13/122
f 23/32/123 15/20/123 13/3/123 27/30/123
f 6/2/124 32/16/124 13/3/124
f 11/4/125 17/24/125 14/5/125
f 7/19/126 13/3/126 15/20/126
f 9/8/127 8/7/127 15/20/127
f 21/17/128 14/5/128 20/25/128
f 12/18/129 31/21/129 26/40/129
f 9/8/130 18/22/130 16/13/130
f 16/13/131 19/28/131 17/24/131
f 16/13/132 24/31/132 19/28/132
f 139/15/133 59/27/133 32/16/133
f 20/25/134 17/24/134 25/29/134
f 38/43/135 39/56/135 31/21/135 30/35/135
f 15/20/136 23/32/136 18/22/136
f 21/17/137 30/35/137 31/21/137
f 24/31/138 18/22/138 28/33/138
f 19/28/139 29/34/139 25/29/139
f 24/31/140 34/41/140 29/34/140
f 30/35/141 25/29/141 35/36/141
f 22/23/142 41/37/142 27/30/142
f 28/33/143 23/32/143 33/38/143
f 44/12/144 26/40/144 51/39/144
f 43/49/145 35/36/145 34/41/145 37/42/145
f 51/39/146 31/21/146 39/56/146
f 34/41/147 28/33/147 37/42/147
f 33/38/148 27/30/148 36/44/148
f 32/16/149 40/45/149 41/37/149
f 38/43/150 35/36/150 43/49/150
f 33/38/151 36/44/151 42/46/151
f 37/42/152 33/38/152 42/46/152
f 55/67/153 56/156/153 47/47/153 46/52/153
f 36/44/154 46/52/154 42/46/154
f 37/42/155 48/48/155 43/49/155
f 39/56/156 38/43/156 50/50/156
f 50/50/157 43/49/157 49/60/157
f 41/37/158 52/55/158 45/51/158
f 39/56/159 64/57/159 51/39/159
f 47/47/160 42/46/160 46/52/160
f 56/156/161 57/157/161 48/48/161 47/47/161
f 51/39/162 73/61/162 76/58/162
f 58/158/163 49/60/163 48/48/163 57/157/163
f 66/74/164 58/158/164 57/157/164 61/69/164
f 49/60/165 58/158/165 53/159/165
f 50/50/166 49/60/166 53/159/166
f 50/50/167 53/159/167 63/160/167
f 46/52/168 45/51/168 54/62/168
f 64/57/169 50/50/169 63/160/169
f 46/52/170 54/62/170 55/67/170
f 40/45/171 77/63/171 52/55/171
f 57/157/172 56/156/172 61/69/172
f 62/76/173 53/159/173 58/158/173 66/74/173
f 68/65/174 54/62/174 52/55/174 67/64/174
f 60/66/175 61/69/175 56/156/175 55/67/175
f 53/159/176 62/76/176 63/160/176
f 72/79/177 63/160/177 62/76/177 71/75/177
f 69/68/178 65/70/178 61/69/178 60/66/178
f 64/57/179 63/160/179 72/79/179
f 64/57/180 72/79/180 73/61/180
f 96/87/181 73/61/181 72/79/181 87/80/181
f 61/69/182 70/71/182 66/74/182
f 59/27/183 82/73/183 77/63/183
f 66/74/184 75/77/184 71/75/184
f 69/68/185 68/65/185 78/94/185
f 69/68/186 78/94/186 79/85/186
f 79/85/187 74/83/187 65/70/187 69/68/187
f 78/94/188 68/65/188 67/64/188 88/82/188
f 76/58/189 73/61/189 96/87/189
f 70/71/190 65/70/190 74/83/190
f 70/71/191 74/83/191 75/77/191
f 90/98/192 79/85/192 78/94/192 89/93/192
f 75/77/193 85/84/193 80/81/193
f 87/80/194 81/78/194 91/96/194
f 98/107/195 90/98/195 89/93/195 97/113/195
f 83/86/196 79/85/196 90/98/196
f 74/83/197 84/89/197 85/84/197
f 77/63/198 92/91/198 88/82/198
f 81/78/199 80/81/199 86/92/199
f 81/78/200 86/92/200 91/96/200
f 87/80/201 100/97/201 96/87/201
f 84/89/202 83/86/202 93/99/202
f 94/104/203 95/95/203 84/89/203 93/99/203
f 93/99/204 90/98/204 98/107/204
f 97/113/205 89/93/205 88/82/205 105/102/205
f 82/73/206 131/101/206 92/91/206
f 104/121/207 99/103/207 94/104/207 108/110/207
f 86/92/208 99/103/208 91/96/208
f 100/97/209 91/96/209 109/105/209
f 96/87/210 110/106/210 111/88/210
f 93/99/211 103/109/211 94/104/211
f 102/108/212 98/107/212 101/114/212
f 112/115/213 107/116/213 102/108/213 101/114/213
f 92/91/214 118/111/214 105/102/214
f 99/103/215 104/121/215 109/105/215
f 97/113/216 106/112/216 101/114/216
f 127/119/217 111/88/217 110/106/217 117/161/217
f 103/109/218 102/108/218 107/116/218
f 103/109/219 107/116/219 108/110/219
f 116/123/220 122/162/220 110/106/220 109/105/220
f 112/115/221 106/112/221 114/122/221
f 121/133/222 113/125/222 107/130/222 120/132/222
f 110/106/223 122/162/223 117/161/223
f 115/131/224 112/127/224 119/129/224
f 129/146/225 121/133/225 120/132/225 124/135/225
f 120/132/226 115/131/226 124/135/226
f 126/126/227 113/125/227 125/134/227
f 119/129/228 114/128/228 128/136/228
f 122/138/229 116/124/229 126/126/229
f 114/128/230 132/142/230 128/136/230
f 117/149/231 122/138/231 137/139/231
f 124/135/232 119/129/232 123/137/232
f 133/148/233 134/144/233 124/135/233 123/137/233
f 121/133/234 129/146/234 125/134/234
f 124/135/235 135/145/235 129/146/235
f 130/143/236 125/134/236 136/147/236
f 143/155/237 136/147/237 135/145/237 142/163/237
f 130/143/238 138/150/238 137/139/238
f 133/148/239 128/136/239 140/151/239
f 117/149/240 146/53/240 127/11/240
f 139/15/241 6/2/241 132/142/241 131/141/241
f 141/152/242 142/163/242 134/144/242 133/148/242
f 136/147/243 143/155/243 144/154/243
f 132/142/244 6/2/244 2/1/244
f 138/150/245 136/147/245 144/154/245
f 132/142/246 2/1/246 140/151/246
f 137/139/247 145/54/247 146/53/247
f 11/4/248 144/154/248 143/155/248 10/14/248
f 135/145/249 134/144/249 142/163/249
f 142/163/250 3/9/250 143/155/250
f 144/154/251 11/4/251 4/6/251
f 141/152/252 140/151/252 7/19/252
f 145/54/253 138/150/253 12/18/253
f 142/163/254 141/152/254 8/7/254
f 3/9/255 142/163/255 8/7/255
