# Blender 5.0.0
# www.blender.org
mtllib Walk_Forward0036.mtl
o Sphere
v -2.047059 4.014873 0.611918
v -2.042969 4.263186 0.083731
v -1.744273 3.934444 -0.637199
v -1.602688 3.369849 -0.725798
v -1.511526 2.429486 -0.224387
v -2.009645 4.235310 0.260026
v -1.782933 4.314357 -0.159846
v -1.693496 4.180763 -0.442050
v -1.417830 4.068992 -0.475272
v -1.521675 3.808719 -0.659505
v -1.484085 3.615165 -0.693251
v -1.397219 3.085560 -0.617519
v -1.661696 4.323498 0.112426
v -1.307421 3.431093 -0.630724
v -1.451739 4.274614 -0.158341
v -1.193610 3.901319 -0.446066
v -1.175180 3.618833 -0.534840
v -1.199199 4.138934 -0.150462
v -1.038412 3.747116 -0.359617
v -1.048828 3.357373 -0.437884
v -1.154011 3.169076 -0.499208
v -1.579791 4.255209 0.315660
v -1.199686 4.161089 0.123012
v -0.959581 3.846215 -0.134108
v -0.936321 3.506945 -0.294796
v -1.294246 2.774827 -0.413443
v -1.373585 4.205479 0.302259
v -0.954082 3.902710 0.094223
v -0.848507 3.590167 -0.070647
v -0.907928 3.130458 -0.206120
v -1.095587 2.909249 -0.337726
v -1.715866 4.198424 0.460568
v -1.069493 3.968916 0.371642
v -0.830697 3.626338 0.187619
v -0.791426 3.361876 0.048523
v -1.222873 3.937476 0.597194
v -0.853380 3.570175 0.413401
v -0.863735 2.930860 0.041489
v -1.029517 2.668569 -0.025372
v -1.689879 3.942899 0.761126
v -1.476028 4.037600 0.633178
v -1.014571 3.665327 0.621505
v -0.796789 3.133389 0.349242
v -1.342623 2.559569 -0.271415
v -1.344926 3.783379 0.798919
v -1.160887 3.578499 0.816902
v -0.970606 3.365147 0.717085
v -0.908284 3.194349 0.656409
v -0.893111 2.918495 0.555613
v -0.928747 2.701363 0.278791
v -1.164270 2.572145 -0.115523
v -1.606919 3.741393 0.904481
v -1.063388 2.574836 0.603017
v -1.439388 3.487056 0.996844
v -1.259951 3.255012 0.982022
v -1.181679 3.077342 0.950729
v -1.129139 2.902140 0.890394
v -1.076104 2.764799 0.785860
v -1.858838 4.026391 0.671203
v -1.523183 3.158726 1.096549
v -1.390039 2.793450 1.035092
v -1.269358 2.407304 0.700168
v -1.157332 2.403657 0.406072
v -1.197464 2.375695 0.233562
v -1.669598 2.743535 1.101707
v -1.386195 2.522835 0.916813
v -1.872750 3.540988 1.008499
v -1.772512 3.368779 1.080575
v -1.758030 3.026625 1.137854
v -1.631191 2.567221 1.035700
v -1.503420 2.272880 0.740247
v -1.460655 2.195884 0.404096
v -1.355234 2.299113 0.114868
v -2.004501 2.522894 1.013559
v -1.748095 2.363549 0.925139
v -1.446090 2.330848 -0.051234
v -1.974625 3.711396 0.904531
v -2.117007 3.140504 1.069136
v -2.060845 2.830781 1.084644
v -1.854556 2.220086 0.762497
v -1.774818 2.127493 0.534764
v -2.089883 3.846997 0.760644
v -2.212282 2.623734 0.974439
v -2.345326 2.473271 0.793449
v -2.106707 2.311191 0.809570
v -2.115448 2.169978 0.535152
v -1.735693 2.133672 0.257931
v -2.230634 3.453094 0.936238
v -2.382116 3.146089 0.931710
v -2.379382 2.831084 0.927042
v -2.018535 2.135492 0.295724
v -2.302042 3.684319 0.762465
v -2.525900 2.620306 0.702767
v -2.521241 2.445775 0.446953
v -2.326273 2.287962 0.556226
v -1.704744 2.191916 0.064003
v -2.581497 3.240368 0.722616
v -2.622264 2.937414 0.682327
v -2.368872 2.292535 0.257858
v -1.984719 2.192703 0.065707
v -2.718705 3.177288 0.494321
v -2.710077 2.854193 0.458177
v -2.680767 2.698011 0.364047
v -2.489092 2.475443 0.015889
v -2.501681 3.600800 0.639602
v -2.632906 3.490883 0.510837
v -2.760958 2.995629 0.085214
v -2.654023 2.657671 0.132669
v -2.237776 2.309348 -0.016585
v -1.976630 2.318563 -0.166008
v -1.676680 2.314244 -0.143444
v -2.756601 3.347970 0.267696
v -2.596929 2.809172 -0.189206
v -2.573106 3.781582 0.307955
v -2.751174 3.244261 -0.019993
v -2.320393 2.575369 -0.285933
v -1.855968 2.516554 -0.389995
v -2.392372 3.884512 0.489578
v -2.685164 3.609545 -0.004089
v -2.650301 3.250010 -0.268878
v -2.587978 3.079212 -0.329554
v -2.063015 2.536431 -0.373164
v -2.549127 3.805505 -0.169133
v -2.575097 3.502898 -0.357550
v -2.409678 3.056155 -0.492960
v -2.260375 2.772228 -0.466845
v -1.639538 2.513182 -0.363018
v -2.495252 3.941905 0.051028
v -2.376905 3.367017 -0.563198
v -2.169439 3.045473 -0.617674
v -2.229783 3.976647 0.545770
v -2.286561 4.114063 0.209922
v -2.364202 3.986365 -0.287976
v -2.337140 3.808811 -0.478303
v -2.279132 3.672617 -0.581728
v -2.177790 3.395406 -0.675215
v -1.917647 2.840976 -0.600931
v -1.818200 3.174070 -0.720269
v -1.999628 4.153798 0.445038
v -2.160948 4.211102 -0.091509
v -2.055165 4.171478 -0.352717
v -1.987834 3.962939 -0.590550
v -1.888988 3.700821 -0.714176
v -1.833215 3.504889 -0.745086
v -1.589459 2.939386 -0.618995
v -1.599998 2.735489 -0.517566
vn -0.1671 0.9685 0.1847
vn 0.3110 -0.0243 -0.9501
vn 0.1463 0.5956 -0.7898
vn 0.3142 -0.6560 -0.6862
vn 0.4130 0.4106 -0.8129
vn -0.1636 0.8995 0.4052
vn 0.4750 -0.1565 -0.8659
vn 0.1112 0.9114 -0.3962
vn 0.5061 -0.3703 -0.7789
vn 0.4318 0.7771 -0.4580
vn -0.0392 0.9423 0.3324
vn 0.5960 -0.0097 -0.8029
vn -0.2312 0.7790 0.5828
vn 0.7326 0.1312 -0.6679
vn 0.2422 0.9450 0.2199
vn 0.7090 0.5561 -0.4336
vn 0.7207 0.6911 -0.0547
vn 0.8654 0.2709 -0.4216
vn 0.8193 -0.0722 -0.5688
vn 0.7369 -0.2015 -0.6453
vn 0.9260 0.0353 -0.3759
vn 0.1942 0.8376 0.5106
vn 0.5336 0.7811 0.3243
vn 0.5893 -0.5249 -0.6142
vn 0.9210 0.3725 -0.1143
vn 0.8438 0.4820 0.2360
vn 0.9763 0.1947 -0.0946
vn 0.9439 -0.1536 -0.2923
vn 0.3781 0.7731 0.5093
vn 0.0333 0.7629 0.6457
vn 0.8167 0.2802 0.5045
vn 0.8791 0.1615 0.4484
vn 0.9570 -0.2894 -0.0177
vn 0.3482 0.6313 0.6929
vn 0.5028 0.5127 0.6959
vn 0.3388 -0.4345 -0.8345
vn 0.1830 0.6188 0.7639
vn 0.7701 -0.6091 -0.1895
vn 0.4918 -0.7090 -0.5054
vn 0.4001 -0.7231 -0.5631
vn 0.9321 -0.0780 0.3538
vn 0.6071 -0.7158 -0.3451
vn 0.2616 0.4770 0.8390
vn -0.1096 0.6173 0.7790
vn -0.0409 0.5025 0.8636
vn 0.1509 0.2518 0.9559
vn 0.3300 0.1962 0.9234
vn 0.0784 0.1678 0.9827
vn 0.2701 -0.2854 0.9196
vn -0.2585 0.6767 0.6894
vn 0.4733 -0.6454 0.5995
vn 0.2707 -0.5746 0.7724
vn 0.3039 -0.9195 0.2493
vn 0.2162 -0.9763 0.0088
vn 0.1563 -0.7892 0.5939
vn -0.2715 0.3778 0.8852
vn 0.1609 -0.8934 0.4196
vn -0.1459 -0.6490 0.7467
vn -0.3017 -0.2666 0.9154
vn 0.2479 -0.8488 -0.4670
vn -0.4007 -0.5379 0.7417
vn 0.2776 -0.7859 -0.5526
vn -0.3788 0.5027 0.7771
vn -0.2275 -0.8629 0.4513
vn -0.4467 0.2076 0.8702
vn -0.5082 -0.6980 0.5045
vn -0.4084 -0.8063 0.4279
vn -0.0392 -0.9683 -0.2466
vn -0.6154 -0.3326 0.7146
vn -0.3731 0.6668 0.6452
vn -0.5935 0.3584 0.7207
vn -0.4834 -0.8737 0.0556
vn -0.6544 -0.7517 0.0819
vn -0.3764 -0.8962 -0.2347
vn -0.0054 -0.8786 -0.4774
vn -0.8714 -0.2371 0.4294
vn -0.8777 -0.3572 0.3194
vn -0.8445 -0.5355 -0.0042
vn -0.5402 0.5832 0.6067
vn -0.7841 0.2989 0.5439
vn -0.2389 -0.8498 -0.4699
vn -0.8620 0.0489 0.5046
vn -0.9152 0.2331 0.3286
vn -0.9992 0.0272 -0.0287
vn 0.2054 -0.7423 -0.6378
vn -0.8924 -0.3262 -0.3118
vn -0.7944 -0.4830 -0.3683
vn -0.7354 0.5158 0.4395
vn -0.6456 -0.5403 -0.5397
vn -0.7882 0.4529 0.4166
vn -0.5178 -0.6827 -0.5155
vn -0.6013 -0.4335 -0.6712
vn -0.9181 0.3772 0.1217
vn -0.9188 -0.1226 -0.3752
vn -0.6608 -0.3288 -0.6747
vn -0.9220 0.1815 -0.3419
vn -0.8560 0.5064 -0.1043
vn -0.2210 -0.5142 -0.8287
vn -0.5524 0.7346 0.3940
vn -0.6791 0.6722 0.2948
vn -0.4485 -0.3129 -0.8372
vn -0.6709 0.2456 -0.6997
vn -0.4689 -0.1473 -0.8709
vn -0.2642 -0.3972 -0.8789
vn -0.7488 0.6297 -0.2069
vn 0.0418 -0.5390 -0.8412
vn -0.4991 0.1075 -0.8599
vn -0.2210 -0.1634 -0.9615
vn -0.6305 0.7761 -0.0129
vn -0.5349 0.7760 -0.3343
vn 0.0538 -0.3510 -0.9348
vn -0.3545 0.7657 0.5367
vn 0.0407 -0.0729 -0.9965
vn -0.2785 0.9556 -0.0965
vn 0.1848 -0.2304 -0.9554
vn -0.1359 0.8781 -0.4588
vn 0.0610 0.2781 -0.9586
vn 0.2043 0.5100 -0.8356
vn -0.1589 0.9866 0.0376
vn 0.3269 -0.1208 -0.9373
vn 0.3256 -0.5744 -0.7510
vn 0.4542 0.2718 -0.8484
vn 0.3287 0.9406 0.0854
vn -0.1018 0.9412 0.3223
vn 0.4510 0.1331 -0.8825
vn 0.1191 0.9891 -0.0862
vn 0.2720 0.8203 -0.5031
vn 0.5849 -0.0634 -0.8086
vn 0.5262 -0.3381 -0.7803
vn 0.5555 0.6532 -0.5146
vn 0.6565 0.2648 -0.7063
vn 0.7399 0.4812 -0.4701
vn -0.1587 0.8147 0.5577
vn 0.7283 0.1006 -0.6778
vn 0.7951 -0.3908 -0.4638
vn 0.4738 0.8778 -0.0703
vn 0.7287 -0.2357 -0.6429
vn 0.7670 0.6183 -0.1715
vn 0.8659 0.2513 -0.4325
vn 0.9214 0.3711 -0.1155
vn 0.9173 -0.0244 -0.3975
vn 0.2339 0.8359 0.4965
vn 0.7254 0.6738 0.1410
vn 0.5766 -0.5363 -0.6164
vn 0.9887 0.1036 0.1087
vn 0.6989 -0.4874 -0.5234
vn 0.8676 0.4551 0.2004
vn 0.4880 0.7555 0.4371
vn 0.0478 0.7630 0.6446
vn 0.9809 -0.1628 -0.1062
vn 0.6545 0.5475 0.5214
vn 0.7890 0.4692 0.3966
vn 0.6273 0.1765 0.7585
vn 0.5738 0.4973 0.6507
vn 0.9420 0.0740 0.3273
vn 0.8481 -0.4775 -0.2295
vn 0.9438 -0.3079 0.1200
vn 0.2110 0.6079 0.7655
vn 0.6814 -0.6636 -0.3087
vn 0.6901 0.3094 0.6542
vn 0.7318 0.0046 0.6815
vn 0.5289 -0.7321 -0.4292
vn 0.8118 -0.1468 0.5652
vn 0.5677 -0.3322 0.7532
vn 0.8328 -0.3539 0.4256
vn 0.8875 -0.4110 0.2082
vn 0.8108 -0.5744 0.1125
vn 0.3901 0.4222 0.8183
vn 0.7743 -0.6280 -0.0783
vn 0.4490 0.2933 0.8440
vn -0.0461 0.5664 0.8228
vn 0.5226 -0.1333 0.8421
vn 0.6470 -0.4898 0.5844
vn 0.0742 0.3989 0.9140
vn 0.3918 -0.0046 0.9201
vn 0.6808 -0.6817 0.2678
vn 0.5339 -0.8122 0.2351
vn 0.2279 -0.0683 0.9713
vn 0.5651 -0.8250 0.0023
vn 0.5055 -0.8543 -0.1207
vn 0.3190 -0.9223 -0.2182
vn 0.3502 -0.3710 0.8601
vn -0.1977 0.6294 0.7515
vn 0.2980 -0.6400 0.7082
vn -0.1371 0.1579 0.9779
vn -0.1831 0.0160 0.9830
vn -0.0868 -0.1984 0.9763
vn -0.2395 0.2865 0.9276
vn 0.3207 -0.8825 -0.3440
vn -0.0135 -0.3532 0.9355
vn 0.0048 -0.4792 0.8777
vn -0.4512 -0.0271 0.8920
vn -0.1232 -0.7029 0.7006
vn -0.0096 -0.9997 -0.0237
vn -0.7176 -0.0065 0.6964
vn -0.4385 -0.1509 0.8860
vn -0.4067 -0.5244 0.7480
vn -0.3828 0.4766 0.7914
vn -0.1161 -0.9336 0.3390
vn -0.1231 -0.9881 0.0925
vn -0.0044 -0.9575 -0.2883
vn -0.6190 -0.3170 0.7186
vn -0.6965 -0.5951 0.4008
vn -0.7363 -0.1817 0.6518
vn -0.6223 0.3006 0.7227
vn -0.4546 0.6002 0.6581
vn -0.7671 -0.6336 -0.1008
vn -0.4059 -0.9133 -0.0327
vn -0.3280 -0.9043 -0.2731
vn 0.0256 -0.8626 -0.5052
vn -0.8494 -0.4430 0.2868
vn -0.9202 -0.0677 0.3856
vn -0.9914 -0.0460 0.1228
vn -0.5931 0.5429 0.5946
vn -0.5517 -0.7739 -0.3109
vn -0.8624 0.2117 0.4598
vn 0.0517 -0.7533 -0.6557
vn -0.9754 -0.2143 0.0518
vn -0.9496 -0.3083 -0.0560
vn -0.3223 -0.7190 -0.6158
vn -0.9003 0.3580 0.2476
vn -0.8939 -0.1822 -0.4095
vn -0.1245 -0.7092 -0.6939
vn -0.9800 0.1807 -0.0836
vn -0.7279 -0.0232 -0.6853
vn -0.9183 0.1437 -0.3689
vn -0.6120 -0.3854 -0.6906
vn -0.8705 0.4904 0.0422
vn -0.3390 -0.5785 -0.7419
vn -0.7109 0.6729 0.2045
vn -0.1203 -0.5571 -0.8217
vn -0.8801 0.3031 -0.3655
vn -0.7565 0.4040 -0.5144
vn -0.6792 -0.0929 -0.7280
vn -0.6537 0.1644 -0.7386
vn -0.4606 -0.1547 -0.8740
vn -0.3275 0.2457 -0.9123
vn -0.1703 -0.2869 -0.9427
vn -0.6594 0.7349 -0.1585
vn 0.0919 -0.5794 -0.8099
vn -0.4361 0.8082 0.3956
vn -0.4802 0.5962 -0.6434
vn -0.2250 0.0890 -0.9703
vn -0.4243 0.8786 0.2191
vn -0.1731 -0.0815 -0.9815
vn -0.4926 0.8671 0.0739
vn 0.0851 -0.4473 -0.8903
vn 0.0895 0.1839 -0.9789
vn -0.4396 0.4169 -0.7956
vn -0.1305 0.3823 -0.9148
vn 0.1245 0.0711 -0.9897
vn -0.2979 0.9185 -0.2600
vn 0.1842 -0.2326 -0.9550
vn -0.1855 0.7122 -0.6770
vn -0.0747 0.6287 -0.7741
vt 0.781230 0.812500
vt 0.762032 0.875000
vt 0.685473 0.777944
vt 0.734697 0.375000
vt 0.703125 0.312500
vt 0.764235 0.312500
vt 0.741874 0.599249
vt 0.704616 0.531266
vt 0.763980 0.500000
vt 0.734375 0.000000
vt 0.879629 0.062500
vt 0.593677 0.062500
vt 0.670132 0.472235
vt 0.734536 0.437500
vt 0.734224 0.937500
vt 0.605595 0.875000
vt 0.658359 0.250000
vt 0.719918 0.218999
vt 0.734375 0.717281
vt 0.678319 0.660608
vt 0.606077 0.187500
vt 0.641330 0.592355
vt 0.623673 0.812500
vt 0.673680 0.375000
vt 0.639230 0.312500
vt 0.640625 1.000000
vt 0.479138 0.937500
vt 0.639064 0.437500
vt 0.612180 0.375000
vt 0.595563 0.750000
vt 0.606567 0.500000
vt 0.603325 0.667055
vt 0.578286 0.562500
vt 0.578286 0.437500
vt 0.577540 0.283466
vt 0.543444 0.396147
vt 0.512752 0.812500
vt 0.546915 0.655822
vt 0.503540 0.125000
vt 0.660224 0.125000
vt 0.544067 0.500000
vt 0.509405 0.537235
vt 0.515588 0.281661
vt 0.510998 0.724803
vt 0.449506 0.875000
vt 0.487180 0.625000
vt 0.453286 0.562500
vt 0.450317 0.500000
vt 0.485851 0.406417
vt 0.453088 0.281661
vt 0.455926 0.750000
vt 0.445771 0.665313
vt 0.799126 0.125000
vt 0.779637 0.187500
vt 0.402284 0.812500
vt 0.497588 0.187500
vt 0.386121 0.187500
vt 0.328120 0.062500
vt 0.453125 0.000000
vt 0.437500 0.406180
vt 0.347717 0.125000
vt 0.390588 0.718339
vt 0.293360 0.875000
vt 0.308534 0.812500
vt 0.316528 0.750000
vt 0.343750 0.656371
vt 0.393429 0.625000
vt 0.296915 0.655822
vt 0.343750 0.531273
vt 0.297036 0.562500
vt 0.294067 0.500000
vt 0.328125 1.000000
vt 0.230145 0.937500
vt 0.328286 0.437500
vt 0.296914 0.344178
vt 0.343750 0.343629
vt 0.265786 0.437500
vt 0.234338 0.281661
vt 0.296902 0.219059
vt 0.214815 0.187500
vt 0.237180 0.375000
vt 0.199790 0.812500
vt 0.237635 0.520573
vt 0.203286 0.437500
vt 0.237180 0.625000
vt 0.203286 0.562500
vt 0.190964 0.125000
vt 0.113605 0.062500
vt 0.169067 0.500000
vt 0.203125 0.000000
vt 0.137012 0.875000
vt 0.176363 0.337227
vt 0.171838 0.718339
vt 0.234338 0.718339
vt 0.148421 0.399333
vt 0.160278 0.250000
vt 0.121065 0.187500
vt 0.174680 0.625000
vt 0.134405 0.537235
vt 0.140625 1.000000
vt 0.030235 0.937500
vt 0.075252 0.812500
vt 0.102021 0.334687
vt 0.109536 0.437500
vt 0.066529 0.250000
vt 0.055088 0.153620
vt 0.112179 0.625000
vt 0.078286 0.562500
vt 0.075317 0.500000
vt 0.047036 0.437500
vt 0.032456 0.875000
vt 0.048167 0.750000
vt 0.108913 0.719958
vt 0.062500 0.658651
vt 0.015664 0.655822
vt 0.018885 0.520574
vt 0.000000 0.562500
vt 0.015625 0.000000
vt 0.000000 0.062500
vt 0.000000 0.399333
vt 0.046914 0.344178
vt 0.000000 0.784407
vt 0.000000 0.273040
vt 0.991904 0.273040
vt 0.992171 0.399333
vt 0.937867 0.282145
vt 1.000000 0.655822
vt 0.975379 0.784407
vt 0.953164 0.655822
vt 1.000000 0.500000
vt 0.984536 0.562500
vt 0.950317 0.500000
vt 0.953286 0.437500
vt 0.924679 0.375000
vt 0.915655 0.537235
vt 0.910279 0.750000
vt 0.906250 0.656371
vt 0.965747 0.187500
vt 0.868449 0.212346
vt 0.978825 0.875000
vt 0.921769 0.937500
vt 0.872374 0.843190
vt 0.887823 0.312500
vt 0.859536 0.562500
vt 0.856567 0.500000
vt 0.890786 0.437500
vt 0.855944 0.396148
vt 0.859414 0.655822
vt 0.939862 0.125000
vt 0.812867 0.282145
vt 0.814726 0.750000
vt 0.796945 0.653777
vt 0.828125 1.000000
vt 0.798190 0.375000
vt 0.797036 0.437500
vt 0.390786 0.562500
vt 0.387817 0.500000
vt 0.390786 0.437500
vt 0.390665 0.344178
vt 0.378980 0.250000
vt 0.000000 0.125000
vt 0.000000 0.187500
vt 0.801816 0.543181
s 0
f 2/1/1 6/2/1 13/3/1
f 11/4/2 14/5/2 4/6/2
f 8/7/3 9/8/3 3/9/3
f 5/10/4 127/11/4 44/12/4
f 9/8/5 16/13/5 10/14/5
f 139/15/6 32/16/6 6/2/6
f 14/5/7 21/17/7 12/18/7
f 7/19/8 15/20/8 8/7/8
f 12/18/9 21/17/9 31/21/9
f 15/20/10 18/22/10 9/8/10
f 32/16/11 22/23/11 13/3/11
f 14/5/12 17/24/12 20/25/12
f 139/15/13 1/26/13 59/27/13
f 19/28/14 25/29/14 17/24/14
f 22/23/15 27/30/15 13/3/15
f 16/13/16 18/22/16 24/31/16
f 18/22/17 23/32/17 28/33/17
f 24/31/18 29/34/18 19/28/18
f 20/25/19 25/29/19 30/35/19
f 20/25/20 30/35/20 21/17/20
f 29/34/21 35/36/21 25/29/21
f 32/16/22 41/37/22 22/23/22
f 23/32/23 27/30/23 33/38/23
f 31/21/24 51/39/24 26/40/24
f 24/31/25 28/33/25 34/41/25
f 28/33/26 33/38/26 37/42/26
f 34/41/27 35/36/27 29/34/27
f 30/35/28 35/36/28 38/43/28
f 41/37/29 36/44/29 27/30/29
f 32/16/30 59/27/30 40/45/30
f 37/42/31 42/46/31 47/47/31
f 37/42/32 47/47/32 48/48/32
f 38/43/33 43/49/33 50/50/33
f 41/37/34 45/51/34 36/44/34
f 36/44/35 45/51/35 46/52/35
f 26/40/36 146/53/36 145/54/36 12/18/36
f 41/37/37 40/45/37 52/55/37
f 39/56/38 50/50/38 64/57/38
f 44/12/39 51/39/39 76/58/39
f 5/59/40 44/12/40 76/58/40
f 48/48/41 49/60/41 43/49/41
f 64/57/42 73/61/42 51/39/42
f 52/55/43 54/62/43 45/51/43
f 59/27/44 77/63/44 40/45/44
f 52/55/45 77/63/45 67/64/45
f 54/62/46 68/65/46 60/66/46
f 54/62/47 60/66/47 55/67/47
f 60/66/48 68/65/48 69/68/48
f 61/69/49 65/70/49 70/71/49
f 59/27/50 1/72/50 82/73/50
f 66/74/51 71/75/51 62/76/51
f 70/71/52 75/77/52 66/74/52
f 71/75/53 81/78/53 72/79/53
f 72/79/54 81/78/54 87/80/54
f 75/77/55 80/81/55 71/75/55
f 67/64/56 77/63/56 88/82/56
f 71/75/57 80/81/57 81/78/57
f 74/83/58 85/84/58 75/77/58
f 74/83/59 79/85/59 83/86/59
f 96/87/60 111/88/60 76/58/60
f 74/83/61 83/86/61 84/89/61
f 5/90/62 76/58/62 111/88/62
f 77/63/63 82/73/63 92/91/63
f 85/84/64 86/92/64 80/81/64
f 88/82/65 89/93/65 78/94/65
f 84/89/66 95/95/66 85/84/66
f 85/84/67 95/95/67 86/92/67
f 87/80/68 91/96/68 100/97/68
f 83/86/69 90/98/69 93/99/69
f 82/73/70 1/100/70 131/101/70
f 92/91/71 105/102/71 88/82/71
f 86/92/72 95/95/72 99/103/72
f 94/104/73 99/103/73 95/95/73
f 99/103/74 109/105/74 91/96/74
f 100/97/75 110/106/75 96/87/75
f 93/99/76 98/107/76 102/108/76
f 93/99/77 102/108/77 103/109/77
f 103/109/78 108/110/78 94/104/78
f 131/101/79 118/111/79 92/91/79
f 105/102/80 106/112/80 97/113/80
f 100/97/81 109/105/81 110/106/81
f 97/113/82 101/114/82 98/107/82
f 101/114/83 106/112/83 112/115/83
f 107/116/84 112/115/84 115/117/84
f 5/118/85 111/88/85 127/119/85
f 107/116/86 113/120/86 108/110/86
f 108/110/87 113/120/87 104/121/87
f 105/102/88 118/111/88 114/122/88
f 104/121/89 113/120/89 116/123/89
f 105/102/90 114/122/90 106/112/90
f 104/121/91 116/123/91 109/105/91
f 116/124/92 113/125/92 126/126/92
f 112/127/93 114/128/93 119/129/93
f 107/130/94 115/131/94 120/132/94
f 121/133/95 125/134/95 113/125/95
f 115/131/96 119/129/96 124/135/96
f 119/129/97 128/136/97 123/137/97
f 122/138/98 126/126/98 137/139/98
f 118/140/99 131/141/99 132/142/99
f 118/140/100 132/142/100 114/128/100
f 126/126/101 125/134/101 130/143/101
f 124/135/102 134/144/102 135/145/102
f 129/146/103 136/147/103 125/134/103
f 130/143/104 137/139/104 126/126/104
f 123/137/105 128/136/105 133/148/105
f 137/139/106 146/53/106 117/149/106
f 135/145/107 136/147/107 129/146/107
f 130/143/108 136/147/108 138/150/108
f 132/142/109 140/151/109 128/136/109
f 133/148/110 140/151/110 141/152/110
f 137/139/111 138/150/111 145/54/111
f 131/141/112 1/153/112 139/15/112
f 138/150/113 144/154/113 4/6/113
f 140/151/114 2/1/114 7/19/114
f 4/6/115 12/18/115 138/150/115
f 141/152/116 7/19/116 8/7/116
f 3/9/117 10/14/117 143/155/117
f 3/9/118 9/8/118 10/14/118
f 7/19/119 2/1/119 13/3/119
f 4/6/120 14/5/120 12/18/120
f 44/12/121 127/11/121 146/53/121 26/40/121
f 17/24/122 11/4/122 10/14/122 16/13/122
f 23/32/123 15/20/123 13/3/123 27/30/123
f 6/2/124 32/16/124 13/3/124
f 11/4/125 17/24/125 14/5/125
f 7/19/126 13/3/126 15/20/126
f 9/8/127 8/7/127 15/20/127
f 21/17/128 14/5/128 20/25/128
f 12/18/129 31/21/129 26/40/129
f 9/8/130 18/22/130 16/13/130
f 16/13/131 19/28/131 17/24/131
f 16/13/132 24/31/132 19/28/132
f 139/15/133 59/27/133 32/16/133
f 20/25/134 17/24/134 25/29/134
f 38/43/135 39/56/135 31/21/135 30/35/135
f 15/20/136 23/32/136 18/22/136
f 21/17/137 30/35/137 31/21/137
f 24/31/138 18/22/138 28/33/138
f 19/28/139 29/34/139 25/29/139
f 24/31/140 34/41/140 29/34/140
f 30/35/141 25/29/141 35/36/141
f 22/23/142 41/37/142 27/30/142
f 28/33/143 23/32/143 33/38/143
f 44/12/144 26/40/144 51/39/144
f 43/49/145 35/36/145 34/41/145 37/42/145
f 51/39/146 31/21/146 39/56/146
f 34/41/147 28/33/147 37/42/147
f 33/38/148 27/30/148 36/44/148
f 32/16/149 40/45/149 41/37/149
f 38/43/150 35/36/150 43/49/150
f 33/38/151 36/44/151 42/46/151
f 37/42/152 33/38/152 42/46/152
f 55/67/153 56/156/153 47/47/153 46/52/153
f 36/44/154 46/52/154 42/46/154
f 37/42/155 48/48/155 43/49/155
f 39/56/156 38/43/156 50/50/156
f 50/50/157 43/49/157 49/60/157
f 41/37/158 52/55/158 45/51/158
f 39/56/159 64/57/159 51/39/159
f 47/47/160 42/46/160 46/52/160
f 56/156/161 57/157/161 48/48/161 47/47/161
f 51/39/162 73/61/162 76/58/162
f 58/158/163 49/60/163 48/48/163 57/157/163
f 66/74/164 58/158/164 57/157/164 61/69/164
f 49/60/165 58/158/165 53/159/165
f 50/50/166 49/60/166 53/159/166
f 50/50/167 53/159/167 63/160/167
f 46/52/168 45/51/168 54/62/168
f 64/57/169 50/50/169 63/160/169
f 46/52/170 54/62/170 55/67/170
f 40/45/171 77/63/171 52/55/171
f 57/157/172 56/156/172 61/69/172
f 62/76/173 53/159/173 58/158/173 66/74/173
f 68/65/174 54/62/174 52/55/174 67/64/174
f 60/66/175 61/69/175 56/156/175 55/67/175
f 53/159/176 62/76/176 63/160/176
f 72/79/177 63/160/177 62/76/177 71/75/177
f 69/68/178 65/70/178 61/69/178 60/66/178
f 64/57/179 63/160/179 72/79/179
f 64/57/180 72/79/180 73/61/180
f 96/87/181 73/61/181 72/79/181 87/80/181
f 61/69/182 70/71/182 66/74/182
f 59/27/183 82/73/183 77/63/183
f 66/74/184 75/77/184 71/75/184
f 69/68/185 68/65/185 78/94/185
f 69/68/186 78/94/186 79/85/186
f 79/85/187 74/83/187 65/70/187 69/68/187
f 78/94/188 68/65/188 67/64/188 88/82/188
f 76/58/189 73/61/189 96/87/189
f 70/71/190 65/70/190 74/83/190
f 70/71/191 74/83/191 75/77/191
f 90/98/192 79/85/192 78/94/192 89/93/192
f 75/77/193 85/84/193 80/81/193
f 87/80/194 81/78/194 91/96/194
f 98/107/195 90/98/195 89/93/195 97/113/195
f 83/86/196 79/85/196 90/98/196
f 74/83/197 84/89/197 85/84/197
f 77/63/198 92/91/198 88/82/198
f 81/78/199 80/81/199 86/92/199
f 81/78/200 86/92/200 91/96/200
f 87/80/201 100/97/201 96/87/201
f 84/89/202 83/86/202 93/99/202
f 94/104/203 95/95/203 84/89/203 93/99/203
f 93/99/204 90/98/204 98/107/204
f 97/113/205 89/93/205 88/82/205 105/102/205
f 82/73/206 131/101/206 92/91/206
f 104/121/207 99/103/207 94/104/207 108/110/207
f 86/92/208 99/103/208 91/96/208
f 100/97/209 91/96/209 109/105/209
f 96/87/210 110/106/210 111/88/210
f 93/99/211 103/109/211 94/104/211
f 102/108/212 98/107/212 101/114/212
f 112/115/213 107/116/213 102/108/213 101/114/213
f 92/91/214 118/111/214 105/102/214
f 99/103/215 104/121/215 109/105/215
f 97/113/216 106/112/216 101/114/216
f 127/119/217 111/88/217 110/106/217 117/161/217
f 103/109/218 102/108/218 107/116/218
f 103/109/219 107/116/219 108/110/219
f 116/123/220 122/162/220 110/106/220 109/105/220
f 112/115/221 106/112/221 114/122/221
f 121/133/222 113/125/222 107/130/222 120/132/222
f 110/106/223 122/162/223 117/161/223
f 115/131/224 112/127/224 119/129/224
f 129/146/225 121/133/225 120/132/225 124/135/225
f 120/132/226 115/131/226 124/135/226
f 126/126/227 113/125/227 125/134/227
f 119/129/228 114/128/228 128/136/228
f 122/138/229 116/124/229 126/126/229
f 114/128/230 132/142/230 128/136/230
f 117/149/231 122/138/231 137/139/231
f 124/135/232 119/129/232 123/137/232
f 133/148/233 134/144/233 124/135/233 123/137/233
f 121/133/234 129/146/234 125/134/234
f 124/135/235 135/145/235 129/146/235
f 130/143/236 125/134/236 136/147/236
f 143/155/237 136/147/237 135/145/237 142/163/237
f 130/143/238 138/150/238 137/139/238
f 133/148/239 128/136/239 140/151/239
f 117/149/240 146/53/240 127/11/240
f 139/15/241 6/2/241 132/142/241 131/141/241
f 141/152/242 142/163/242 134/144/242 133/148/242
f 136/147/243 143/155/243 144/154/243
f 132/142/244 6/2/244 2/1/244
f 138/150/245 136/147/245 144/154/245
f 132/142/246 2/1/246 140/151/246
f 137/139/247 145/54/247 146/53/247
f 11/4/248 144/154/248 143/155/248 10/14/248
f 135/145/249 134/144/249 142/163/249
f 142/163/250 3/9/250 143/155/250
f 144/154/251 11/4/251 4/6/251
f 141/152/252 140/151/252 7/19/252
f 145/54/253 138/150/253 12/18/253
f 142/163/254 141/152/254 8/7/254
f 3/9/255 142/163/255 8/7/255
