# Blender 5.0.0
# www.blender.org
mtllib Walk_Forward0029.mtl
o Sphere
v -1.286520 5.149106 2.193029
v -1.640031 4.880979 1.773127
v -1.778207 3.956179 1.439762
v -1.628863 3.442576 1.640146
v -1.107841 3.173714 2.382675
v -1.501543 4.998286 1.868578
v -1.579093 4.632970 1.504558
v -1.655265 4.276033 1.388397
v -1.429525 4.084564 1.314664
v -1.587829 3.780477 1.401984
v -1.547763 3.604980 1.473517
v -1.349785 3.270037 1.766002
v -1.315156 4.829119 1.593930
v -1.335417 3.473422 1.532448
v -1.297126 4.503784 1.386597
v -1.200312 3.921957 1.326650
v -1.195991 3.644114 1.425338
v -1.062125 4.337029 1.357712
v -0.995843 3.837956 1.391203
v -0.992914 3.502631 1.566232
v -1.088889 3.352019 1.680675
v -1.113924 4.925539 1.705239
v -0.900516 4.581006 1.492245
v -0.808996 4.071263 1.424470
v -0.835564 3.692085 1.513573
v -1.093904 3.190679 2.001025
v -0.943261 4.815621 1.637743
v -0.674904 4.299775 1.513574
v -0.639679 3.910346 1.550960
v -0.701463 3.493396 1.754292
v -0.903455 3.286587 1.884027
v -1.130729 5.048849 1.871481
v -0.613010 4.613521 1.674932
v -0.474190 4.145785 1.661951
v -0.485713 3.832115 1.715034
v -0.599254 4.827280 1.877866
v -0.348016 4.301923 1.823068
v -0.484873 3.546492 1.976948
v -0.623338 3.358157 2.154468
v -0.888789 5.112579 2.160698
v -0.802869 5.005918 1.949883
v -0.370429 4.592278 1.950947
v -0.273797 3.924643 2.002888
v -1.015667 3.173330 2.214948
v -0.555349 4.925460 2.121640
v -0.360669 4.739846 2.164943
v -0.230755 4.448021 2.147152
v -0.189871 4.258334 2.181371
v -0.196526 3.976114 2.271389
v -0.360689 3.603848 2.256694
v -0.775187 3.257041 2.215921
v -0.702754 5.065299 2.312141
v -0.257334 3.827519 2.556356
v -0.469333 4.912220 2.429231
v -0.294205 4.681605 2.471735
v -0.221271 4.506689 2.518669
v -0.187640 4.317229 2.559620
v -0.186046 4.117260 2.556056
v -1.096099 5.148373 2.138676
v -0.429012 4.791246 2.697169
v -0.300391 4.442640 2.806982
v -0.344324 3.854975 2.787055
v -0.428567 3.572209 2.584093
v -0.561981 3.421026 2.524001
v -0.484736 4.549849 2.988404
v -0.327817 4.153007 2.889587
v -0.830337 5.093984 2.589824
v -0.677481 5.002386 2.679806
v -0.579106 4.805863 2.890895
v -0.466103 4.359252 3.032919
v -0.494156 3.866697 2.981059
v -0.650264 3.518858 2.824946
v -0.753202 3.317122 2.569114
v -0.782819 4.425322 3.203532
v -0.599260 4.160388 3.134355
v -0.933889 3.228848 2.501412
v -1.003564 5.158203 2.484444
v -0.935993 4.939516 2.944231
v -0.833163 4.717947 3.097600
v -0.764336 3.957022 3.170651
v -0.821823 3.677304 3.065408
v -1.206782 5.168844 2.382348
v -0.994274 4.527711 3.215710
v -1.191462 4.312354 3.257273
v -0.959049 4.138283 3.253097
v -1.110897 3.812915 3.186889
v -0.957656 3.438417 2.897242
v -1.157963 5.082895 2.750819
v -1.240103 4.910820 2.980028
v -1.193046 4.685256 3.148131
v -1.169974 3.558848 3.036417
v -1.357288 5.122038 2.561988
v -1.418481 4.395655 3.205122
v -1.542915 4.058310 3.161358
v -1.291073 3.978516 3.223236
v -1.058018 3.307769 2.748538
v -1.546368 4.864114 2.901224
v -1.558797 4.630735 3.062132
v -1.507555 3.745837 3.079070
v -1.289622 3.396461 2.867740
v -1.788825 4.671813 2.871580
v -1.754682 4.412474 3.024744
v -1.763652 4.215332 3.047082
v -1.781351 3.709299 2.900773
v -1.584753 5.022758 2.626406
v -1.754980 4.878858 2.673048
v -2.043833 4.216032 2.769528
v -1.875252 3.985615 2.933867
v -1.567170 3.487913 2.867386
v -1.442037 3.288749 2.671631
v -1.178638 3.211653 2.558877
v -1.983127 4.614014 2.673255
v -2.045362 3.805433 2.654729
v -1.871930 4.894753 2.380566
v -2.136902 4.299469 2.573485
v -1.838855 3.475134 2.613168
v -1.507191 3.203186 2.392595
v -1.627569 5.062547 2.345039
v -2.127673 4.548368 2.354832
v -2.204489 4.064486 2.394333
v -2.163606 3.874799 2.428553
v -1.671967 3.295300 2.478562
v -2.144111 4.505824 2.101939
v -2.233872 4.144446 2.177081
v -2.110853 3.666998 2.278038
v -1.928156 3.443520 2.383524
v -1.310628 3.156307 2.317102
v -1.986860 4.768545 2.122586
v -2.173090 3.816131 2.057036
v -1.985135 3.480989 2.115225
v -1.472489 5.123684 2.255941
v -1.743488 4.957235 2.025288
v -2.089730 4.476120 1.861284
v -2.155505 4.184387 1.844728
v -2.149284 3.984607 1.839023
v -2.079752 3.680847 1.897155
v -1.734994 3.273623 2.128925
v -1.774908 3.376700 1.841243
v -1.369033 5.092491 2.007825
v -1.836101 4.734719 1.757736
v -1.900205 4.456122 1.594646
v -1.956579 4.090536 1.552477
v -1.909626 3.772970 1.587302
v -1.852385 3.592541 1.653939
v -1.488236 3.225879 1.926432
v -1.404841 3.170883 2.096380
vn -0.2182 0.7579 -0.6149
vn -0.2002 -0.6511 -0.7321
vn -0.3294 -0.0249 -0.9438
vn 0.0720 -0.9965 0.0419
vn -0.1072 -0.2225 -0.9690
vn -0.1149 0.8701 -0.4793
vn 0.0227 -0.7546 -0.6558
vn -0.2236 0.3445 -0.9118
vn 0.1442 -0.8961 -0.4199
vn -0.0009 0.1694 -0.9855
vn -0.0521 0.7995 -0.5983
vn 0.1291 -0.6006 -0.7891
vn -0.0712 0.9623 -0.2624
vn 0.2683 -0.4289 -0.8626
vn 0.1127 0.6411 -0.7591
vn 0.2458 -0.0093 -0.9693
vn 0.3823 0.2390 -0.8926
vn 0.4365 -0.2254 -0.8710
vn 0.4370 -0.5589 -0.7047
vn 0.3714 -0.7001 -0.6099
vn 0.5717 -0.3894 -0.7222
vn 0.2382 0.7914 -0.5629
vn 0.4098 0.5335 -0.7399
vn 0.3334 -0.9190 -0.2106
vn 0.5820 -0.0246 -0.8128
vn 0.6680 0.2319 -0.7071
vn 0.6858 -0.1459 -0.7131
vn 0.6788 -0.4952 -0.5422
vn 0.3962 0.6939 -0.6012
vn 0.1959 0.9104 -0.3645
vn 0.8665 0.2557 -0.4288
vn 0.9131 0.1269 -0.3876
vn 0.8457 -0.4527 -0.2826
vn 0.5215 0.7548 -0.3979
vn 0.6819 0.6276 -0.3756
vn -0.0301 -0.9560 -0.2919
vn 0.4318 0.8634 -0.2609
vn 0.6807 -0.7325 0.0116
vn 0.3271 -0.9408 0.0889
vn 0.2218 -0.9672 0.1241
vn 0.9609 -0.1045 -0.2565
vn 0.4952 -0.8611 0.1157
vn 0.5886 0.7979 -0.1303
vn 0.1774 0.9812 -0.0754
vn 0.3205 0.9459 0.0496
vn 0.6179 0.7473 0.2444
vn 0.7713 0.6155 0.1619
vn 0.5788 0.7136 0.3946
vn 0.7462 0.2197 0.6284
vn -0.0230 0.9953 -0.0941
vn 0.7592 -0.2489 0.6014
vn 0.6671 -0.0683 0.7418
vn 0.4853 -0.5299 0.6954
vn 0.3313 -0.6618 0.6725
vn 0.4968 -0.2552 0.8295
vn 0.1366 0.9297 0.3420
vn 0.4360 -0.3940 0.8091
vn 0.3149 -0.0295 0.9487
vn 0.2291 0.3659 0.9020
vn 0.1510 -0.9172 0.3688
vn 0.1036 0.0962 0.9900
vn 0.1278 -0.9578 0.2576
vn -0.0540 0.9764 0.2092
vn 0.1552 -0.2660 0.9514
vn -0.0050 0.8006 0.5992
vn -0.0475 -0.0873 0.9951
vn 0.0101 -0.2039 0.9789
vn 0.0319 -0.7312 0.6814
vn -0.1088 0.2728 0.9559
vn -0.1487 0.9881 -0.0404
vn -0.2504 0.8610 0.4428
vn -0.1788 -0.3926 0.9022
vn -0.3106 -0.2748 0.9099
vn -0.2264 -0.5861 0.7779
vn -0.0612 -0.8540 0.5166
vn -0.4473 0.2546 0.8574
vn -0.4646 0.1205 0.8773
vn -0.5361 -0.1490 0.8309
vn -0.3040 0.9452 0.1195
vn -0.4819 0.7281 0.4876
vn -0.2492 -0.7540 0.6078
vn -0.4920 0.5118 0.7043
vn -0.6632 0.5717 0.4831
vn -0.8302 0.2475 0.4995
vn 0.0140 -0.9763 0.2158
vn -0.7931 -0.1613 0.5874
vn -0.7059 -0.3158 0.6340
vn -0.5352 0.8213 0.1976
vn -0.6822 -0.4943 0.5388
vn -0.5765 0.7703 0.2724
vn -0.5299 -0.6027 0.5966
vn -0.7660 -0.5255 0.3702
vn -0.7891 0.5647 0.2418
vn -0.9104 -0.0511 0.4105
vn -0.8450 -0.4374 0.3076
vn -0.9692 0.1818 0.1660
vn -0.8566 0.5151 -0.0310
vn -0.5359 -0.8312 0.1481
vn -0.4307 0.8919 -0.1376
vn -0.5711 0.8185 -0.0625
vn -0.7904 -0.6069 0.0831
vn -0.9724 -0.0236 -0.2321
vn -0.8657 -0.4926 -0.0886
vn -0.6389 -0.7688 0.0283
vn -0.8223 0.5117 -0.2490
vn -0.2970 -0.9549 0.0015
vn -0.9134 -0.2678 -0.3067
vn -0.7019 -0.6500 -0.2912
vn -0.6573 0.6755 -0.3342
vn -0.7007 0.4736 -0.5336
vn -0.3868 -0.8838 -0.2630
vn -0.2000 0.9584 -0.2039
vn -0.4822 -0.6665 -0.5686
vn -0.4111 0.6213 -0.6670
vn -0.2925 -0.8254 -0.4828
vn -0.4309 0.3611 -0.8270
vn -0.4657 -0.3279 -0.8220
vn -0.2967 -0.1177 -0.9477
vn -0.2702 0.6760 -0.6856
vn -0.1622 -0.7392 -0.6537
vn 0.0325 -0.9958 -0.0860
vn -0.0686 -0.3566 -0.9318
vn 0.1176 0.5385 -0.8344
vn -0.1063 0.8128 -0.5728
vn -0.0641 -0.4923 -0.8680
vn -0.1090 0.5299 -0.8410
vn -0.1382 0.2097 -0.9679
vn 0.1293 -0.6508 -0.7481
vn 0.1549 -0.8726 -0.4632
vn 0.0848 0.0462 -0.9953
vn 0.1591 -0.3282 -0.9311
vn 0.2702 -0.0796 -0.9595
vn -0.0262 0.9379 -0.3460
vn 0.2684 -0.4584 -0.8472
vn 0.5484 -0.7539 -0.3618
vn 0.1654 0.3900 -0.9059
vn 0.3746 -0.7269 -0.5755
vn 0.3811 0.1331 -0.9149
vn 0.4378 -0.2447 -0.8651
vn 0.5822 -0.0262 -0.8126
vn 0.5740 -0.4452 -0.6873
vn 0.2624 0.7670 -0.5856
vn 0.4810 0.3241 -0.8146
vn 0.3232 -0.9264 -0.1933
vn 0.8228 -0.1131 -0.5570
vn 0.4626 -0.8493 -0.2544
vn 0.6742 0.1913 -0.7134
vn 0.4432 0.6020 -0.6642
vn 0.2076 0.9043 -0.3729
vn 0.7922 -0.4112 -0.4510
vn 0.6752 0.4845 -0.5561
vn 0.7227 0.3245 -0.6102
vn 0.9146 0.3911 -0.1027
vn 0.7120 0.5625 -0.4204
vn 0.9142 -0.0132 -0.4051
vn 0.7080 -0.6845 -0.1739
vn 0.9019 -0.3904 -0.1847
vn 0.4599 0.8472 -0.2660
vn 0.5665 -0.8228 0.0459
vn 0.8593 0.4018 -0.3163
vn 0.9819 0.1842 -0.0442
vn 0.3955 -0.9092 0.1301
vn 0.9998 -0.0132 -0.0152
vn 0.9174 0.0158 0.3976
vn 0.9678 -0.2380 0.0824
vn 0.9151 -0.4030 -0.0149
vn 0.8305 -0.5440 0.1196
vn 0.6996 0.6951 -0.1657
vn 0.7299 -0.6782 0.0858
vn 0.8003 0.5966 -0.0601
vn 0.2750 0.9607 -0.0379
vn 0.9243 0.2299 0.3047
vn 0.8996 -0.2017 0.3873
vn 0.4870 0.8659 0.1147
vn 0.8497 0.4218 0.3164
vn 0.7931 -0.4930 0.3577
vn 0.6625 -0.5451 0.5138
vn 0.7351 0.4461 0.5105
vn 0.6019 -0.6906 0.4011
vn 0.5087 -0.7637 0.3975
vn 0.3230 -0.8044 0.4986
vn 0.7843 0.1004 0.6123
vn 0.0767 0.9959 -0.0488
vn 0.6601 -0.1482 0.7365
vn 0.3650 0.7601 0.5376
vn 0.3418 0.6369 0.6910
vn 0.4476 0.4123 0.7935
vn 0.2114 0.8713 0.4428
vn 0.2700 -0.8696 0.4133
vn 0.4988 0.2431 0.8319
vn 0.4894 0.1133 0.8647
vn 0.0495 0.5939 0.8030
vn 0.3171 -0.0889 0.9442
vn 0.1486 -0.6243 0.7669
vn -0.2762 0.5461 0.7909
vn 0.0797 0.4762 0.8757
vn 0.0998 0.1095 0.9890
vn -0.0446 0.9678 0.2477
vn 0.2007 -0.3808 0.9026
vn 0.1084 -0.5251 0.8441
vn 0.0392 -0.7636 0.6444
vn -0.1131 0.2872 0.9512
vn -0.2417 -0.0317 0.9698
vn -0.2650 0.3807 0.8859
vn -0.2615 0.8173 0.5135
vn -0.2050 0.9753 0.0824
vn -0.5013 -0.2711 0.8217
vn -0.1546 -0.4766 0.8654
vn -0.2076 -0.6270 0.7509
vn -0.0522 -0.8770 0.4777
vn -0.4347 0.0436 0.8995
vn -0.5531 0.3685 0.7472
vn -0.7304 0.2679 0.6283
vn -0.3492 0.9190 0.1831
vn -0.4177 -0.5168 0.7473
vn -0.5589 0.6197 0.5510
vn -0.1298 -0.9437 0.3044
vn -0.6992 0.1118 0.7061
vn -0.7038 -0.0082 0.7104
vn -0.4286 -0.7583 0.4912
vn -0.7176 0.6184 0.3205
vn -0.8948 -0.1165 0.4309
vn -0.3146 -0.8844 0.3447
vn -0.8842 0.3263 0.3341
vn -0.9778 -0.2014 0.0573
vn -0.9730 0.1402 0.1832
vn -0.8016 -0.5024 0.3240
vn -0.8050 0.5891 0.0704
vn -0.5609 -0.7623 0.3230
vn -0.6332 0.7683 -0.0938
vn -0.4299 -0.8930 0.1329
vn -0.9692 0.2453 0.0217
vn -0.9538 0.2076 -0.2173
vn -0.9534 -0.2932 0.0706
vn -0.9752 -0.1104 -0.1918
vn -0.8595 -0.5034 -0.0885
vn -0.7946 -0.2329 -0.5607
vn -0.6209 -0.7613 -0.1866
vn -0.7344 0.5773 -0.3570
vn -0.2210 -0.9748 0.0300
vn -0.3384 0.9024 -0.2667
vn -0.7854 0.1983 -0.5863
vn -0.7325 -0.4279 -0.5294
vn -0.4059 0.8153 -0.4131
vn -0.6795 -0.6046 -0.4157
vn -0.5162 0.7378 -0.4349
vn -0.3074 -0.9392 -0.1531
vn -0.4457 -0.4272 -0.7867
vn -0.8281 -0.0098 -0.5605
vn -0.6169 -0.1753 -0.7672
vn -0.4107 -0.5449 -0.7310
vn -0.4845 0.5223 -0.7018
vn -0.2925 -0.8271 -0.4800
vn -0.5533 0.1792 -0.8135
vn -0.5034 0.0550 -0.8623
vt 0.781230 0.812500
vt 0.762032 0.875000
vt 0.685473 0.777944
vt 0.734697 0.375000
vt 0.703125 0.312500
vt 0.764235 0.312500
vt 0.741874 0.599249
vt 0.704616 0.531266
vt 0.763980 0.500000
vt 0.734375 0.000000
vt 0.879629 0.062500
vt 0.593677 0.062500
vt 0.670132 0.472235
vt 0.734536 0.437500
vt 0.734224 0.937500
vt 0.605595 0.875000
vt 0.658359 0.250000
vt 0.719918 0.218999
vt 0.734375 0.717281
vt 0.678319 0.660608
vt 0.606077 0.187500
vt 0.641330 0.592355
vt 0.623673 0.812500
vt 0.673680 0.375000
vt 0.639230 0.312500
vt 0.640625 1.000000
vt 0.479138 0.937500
vt 0.639064 0.437500
vt 0.612180 0.375000
vt 0.595563 0.750000
vt 0.606567 0.500000
vt 0.603325 0.667055
vt 0.578286 0.562500
vt 0.578286 0.437500
vt 0.577540 0.283466
vt 0.543444 0.396147
vt 0.512752 0.812500
vt 0.546915 0.655822
vt 0.503540 0.125000
vt 0.660224 0.125000
vt 0.544067 0.500000
vt 0.509405 0.537235
vt 0.515588 0.281661
vt 0.510998 0.724803
vt 0.449506 0.875000
vt 0.487180 0.625000
vt 0.453286 0.562500
vt 0.450317 0.500000
vt 0.485851 0.406417
vt 0.453088 0.281661
vt 0.455926 0.750000
vt 0.445771 0.665313
vt 0.799126 0.125000
vt 0.779637 0.187500
vt 0.402284 0.812500
vt 0.497588 0.187500
vt 0.386121 0.187500
vt 0.328120 0.062500
vt 0.453125 0.000000
vt 0.437500 0.406180
vt 0.347717 0.125000
vt 0.390588 0.718339
vt 0.293360 0.875000
vt 0.308534 0.812500
vt 0.316528 0.750000
vt 0.343750 0.656371
vt 0.393429 0.625000
vt 0.296915 0.655822
vt 0.343750 0.531273
vt 0.297036 0.562500
vt 0.294067 0.500000
vt 0.328125 1.000000
vt 0.230145 0.937500
vt 0.328286 0.437500
vt 0.296914 0.344178
vt 0.343750 0.343629
vt 0.265786 0.437500
vt 0.234338 0.281661
vt 0.296902 0.219059
vt 0.214815 0.187500
vt 0.237180 0.375000
vt 0.199790 0.812500
vt 0.237635 0.520573
vt 0.203286 0.437500
vt 0.237180 0.625000
vt 0.203286 0.562500
vt 0.190964 0.125000
vt 0.113605 0.062500
vt 0.169067 0.500000
vt 0.203125 0.000000
vt 0.137012 0.875000
vt 0.176363 0.337227
vt 0.171838 0.718339
vt 0.234338 0.718339
vt 0.148421 0.399333
vt 0.160278 0.250000
vt 0.121065 0.187500
vt 0.174680 0.625000
vt 0.134405 0.537235
vt 0.140625 1.000000
vt 0.030235 0.937500
vt 0.075252 0.812500
vt 0.102021 0.334687
vt 0.109536 0.437500
vt 0.066529 0.250000
vt 0.055088 0.153620
vt 0.112179 0.625000
vt 0.078286 0.562500
vt 0.075317 0.500000
vt 0.047036 0.437500
vt 0.032456 0.875000
vt 0.048167 0.750000
vt 0.108913 0.719958
vt 0.062500 0.658651
vt 0.015664 0.655822
vt 0.018885 0.520574
vt 0.000000 0.562500
vt 0.015625 0.000000
vt 0.000000 0.062500
vt 0.000000 0.399333
vt 0.046914 0.344178
vt 0.000000 0.784407
vt 0.000000 0.273040
vt 0.991904 0.273040
vt 0.992171 0.399333
vt 0.937867 0.282145
vt 1.000000 0.655822
vt 0.975379 0.784407
vt 0.953164 0.655822
vt 1.000000 0.500000
vt 0.984536 0.562500
vt 0.950317 0.500000
vt 0.953286 0.437500
vt 0.924679 0.375000
vt 0.915655 0.537235
vt 0.910279 0.750000
vt 0.906250 0.656371
vt 0.965747 0.187500
vt 0.868449 0.212346
vt 0.978825 0.875000
vt 0.921769 0.937500
vt 0.872374 0.843190
vt 0.887823 0.312500
vt 0.859536 0.562500
vt 0.856567 0.500000
vt 0.890786 0.437500
vt 0.855944 0.396148
vt 0.859414 0.655822
vt 0.939862 0.125000
vt 0.812867 0.282145
vt 0.814726 0.750000
vt 0.796945 0.653777
vt 0.828125 1.000000
vt 0.798190 0.375000
vt 0.797036 0.437500
vt 0.390786 0.562500
vt 0.387817 0.500000
vt 0.390786 0.437500
vt 0.390665 0.344178
vt 0.378980 0.250000
vt 0.000000 0.125000
vt 0.000000 0.187500
vt 0.801816 0.543181
s 0
f 2/1/1 6/2/1 13/3/1
f 11/4/2 14/5/2 4/6/2
f 8/7/3 9/8/3 3/9/3
f 5/10/4 127/11/4 44/12/4
f 9/8/5 16/13/5 10/14/5
f 139/15/6 32/16/6 6/2/6
f 14/5/7 21/17/7 12/18/7
f 7/19/8 15/20/8 8/7/8
f 12/18/9 21/17/9 31/21/9
f 15/20/10 18/22/10 9/8/10
f 32/16/11 22/23/11 13/3/11
f 14/5/12 17/24/12 20/25/12
f 139/15/13 1/26/13 59/27/13
f 19/28/14 25/29/14 17/24/14
f 22/23/15 27/30/15 13/3/15
f 16/13/16 18/22/16 24/31/16
f 18/22/17 23/32/17 28/33/17
f 24/31/18 29/34/18 19/28/18
f 20/25/19 25/29/19 30/35/19
f 20/25/20 30/35/20 21/17/20
f 29/34/21 35/36/21 25/29/21
f 32/16/22 41/37/22 22/23/22
f 23/32/23 27/30/23 33/38/23
f 31/21/24 51/39/24 26/40/24
f 24/31/25 28/33/25 34/41/25
f 28/33/26 33/38/26 37/42/26
f 34/41/27 35/36/27 29/34/27
f 30/35/28 35/36/28 38/43/28
f 41/37/29 36/44/29 27/30/29
f 32/16/30 59/27/30 40/45/30
f 37/42/31 42/46/31 47/47/31
f 37/42/32 47/47/32 48/48/32
f 38/43/33 43/49/33 50/50/33
f 41/37/34 45/51/34 36/44/34
f 36/44/35 45/51/35 46/52/35
f 26/40/36 146/53/36 145/54/36 12/18/36
f 41/37/37 40/45/37 52/55/37
f 39/56/38 50/50/38 64/57/38
f 44/12/39 51/39/39 76/58/39
f 5/59/40 44/12/40 76/58/40
f 48/48/41 49/60/41 43/49/41
f 64/57/42 73/61/42 51/39/42
f 52/55/43 54/62/43 45/51/43
f 59/27/44 77/63/44 40/45/44
f 52/55/45 77/63/45 67/64/45
f 54/62/46 68/65/46 60/66/46
f 54/62/47 60/66/47 55/67/47
f 60/66/48 68/65/48 69/68/48
f 61/69/49 65/70/49 70/71/49
f 59/27/50 1/72/50 82/73/50
f 66/74/51 71/75/51 62/76/51
f 70/71/52 75/77/52 66/74/52
f 71/75/53 81/78/53 72/79/53
f 72/79/54 81/78/54 87/80/54
f 75/77/55 80/81/55 71/75/55
f 67/64/56 77/63/56 88/82/56
f 71/75/57 80/81/57 81/78/57
f 74/83/58 85/84/58 75/77/58
f 74/83/59 79/85/59 83/86/59
f 96/87/60 111/88/60 76/58/60
f 74/83/61 83/86/61 84/89/61
f 5/90/62 76/58/62 111/88/62
f 77/63/63 82/73/63 92/91/63
f 85/84/64 86/92/64 80/81/64
f 88/82/65 89/93/65 78/94/65
f 84/89/66 95/95/66 85/84/66
f 85/84/67 95/95/67 86/92/67
f 87/80/68 91/96/68 100/97/68
f 83/86/69 90/98/69 93/99/69
f 82/73/70 1/100/70 131/101/70
f 92/91/71 105/102/71 88/82/71
f 86/92/72 95/95/72 99/103/72
f 94/104/73 99/103/73 95/95/73
f 99/103/74 109/105/74 91/96/74
f 100/97/75 110/106/75 96/87/75
f 93/99/76 98/107/76 102/108/76
f 93/99/77 102/108/77 103/109/77
f 103/109/78 108/110/78 94/104/78
f 131/101/79 118/111/79 92/91/79
f 105/102/80 106/112/80 97/113/80
f 100/97/81 109/105/81 110/106/81
f 97/113/82 101/114/82 98/107/82
f 101/114/83 106/112/83 112/115/83
f 107/116/84 112/115/84 115/117/84
f 5/118/85 111/88/85 127/119/85
f 107/116/86 113/120/86 108/110/86
f 108/110/87 113/120/87 104/121/87
f 105/102/88 118/111/88 114/122/88
f 104/121/89 113/120/89 116/123/89
f 105/102/90 114/122/90 106/112/90
f 104/121/91 116/123/91 109/105/91
f 116/124/92 113/125/92 126/126/92
f 112/127/93 114/128/93 119/129/93
f 107/130/94 115/131/94 120/132/94
f 121/133/95 125/134/95 113/125/95
f 115/131/96 119/129/96 124/135/96
f 119/129/97 128/136/97 123/137/97
f 122/138/98 126/126/98 137/139/98
f 118/140/99 131/141/99 132/142/99
f 118/140/100 132/142/100 114/128/100
f 126/126/101 125/134/101 130/143/101
f 124/135/102 134/144/102 135/145/102
f 129/146/103 136/147/103 125/134/103
f 130/143/104 137/139/104 126/126/104
f 123/137/105 128/136/105 133/148/105
f 137/139/106 146/53/106 117/149/106
f 135/145/107 136/147/107 129/146/107
f 130/143/108 136/147/108 138/150/108
f 132/142/109 140/151/109 128/136/109
f 133/148/110 140/151/110 141/152/110
f 137/139/111 138/150/111 145/54/111
f 131/141/112 1/153/112 139/15/112
f 138/150/113 144/154/113 4/6/113
f 140/151/114 2/1/114 7/19/114
f 4/6/115 12/18/115 138/150/115
f 141/152/116 7/19/116 8/7/116
f 3/9/117 10/14/117 143/155/117
f 3/9/118 9/8/118 10/14/118
f 7/19/119 2/1/119 13/3/119
f 4/6/120 14/5/120 12/18/120
f 44/12/121 127/11/121 146/53/121 26/40/121
f 17/24/122 11/4/122 10/14/122 16/13/122
f 23/32/123 15/20/123 13/3/123 27/30/123
f 6/2/124 32/16/124 13/3/124
f 11/4/125 17/24/125 14/5/125
f 7/19/126 13/3/126 15/20/126
f 9/8/127 8/7/127 15/20/127
f 21/17/128 14/5/128 20/25/128
f 12/18/129 31/21/129 26/40/129
f 9/8/130 18/22/130 16/13/130
f 16/13/131 19/28/131 17/24/131
f 16/13/132 24/31/132 19/28/132
f 139/15/133 59/27/133 32/16/133
f 20/25/134 17/24/134 25/29/134
f 38/43/135 39/56/135 31/21/135 30/35/135
f 15/20/136 23/32/136 18/22/136
f 21/17/137 30/35/137 31/21/137
f 24/31/138 18/22/138 28/33/138
f 19/28/139 29/34/139 25/29/139
f 24/31/140 34/41/140 29/34/140
f 30/35/141 25/29/141 35/36/141
f 22/23/142 41/37/142 27/30/142
f 28/33/143 23/32/143 33/38/143
f 44/12/144 26/40/144 51/39/144
f 43/49/145 35/36/145 34/41/145 37/42/145
f 51/39/146 31/21/146 39/56/146
f 34/41/147 28/33/147 37/42/147
f 33/38/148 27/30/148 36/44/148
f 32/16/149 40/45/149 41/37/149
f 38/43/150 35/36/150 43/49/150
f 33/38/151 36/44/151 42/46/151
f 37/42/152 33/38/152 42/46/152
f 55/67/153 56/156/153 47/47/153 46/52/153
f 36/44/154 46/52/154 42/46/154
f 37/42/155 48/48/155 43/49/155
f 39/56/156 38/43/156 50/50/156
f 50/50/157 43/49/157 49/60/157
f 41/37/158 52/55/158 45/51/158
f 39/56/159 64/57/159 51/39/159
f 47/47/160 42/46/160 46/52/160
f 56/156/161 57/157/161 48/48/161 47/47/161
f 51/39/162 73/61/162 76/58/162
f 58/158/163 49/60/163 48/48/163 57/157/163
f 66/74/164 58/158/164 57/157/164 61/69/164
f 49/60/165 58/158/165 53/159/165
f 50/50/166 49/60/166 53/159/166
f 50/50/167 53/159/167 63/160/167
f 46/52/168 45/51/168 54/62/168
f 64/57/169 50/50/169 63/160/169
f 46/52/170 54/62/170 55/67/170
f 40/45/171 77/63/171 52/55/171
f 57/157/172 56/156/172 61/69/172
f 62/76/173 53/159/173 58/158/173 66/74/173
f 68/65/174 54/62/174 52/55/174 67/64/174
f 60/66/175 61/69/175 56/156/175 55/67/175
f 53/159/176 62/76/176 63/160/176
f 72/79/177 63/160/177 62/76/177 71/75/177
f 69/68/178 65/70/178 61/69/178 60/66/178
f 64/57/179 63/160/179 72/79/179
f 64/57/180 72/79/180 73/61/180
f 96/87/181 73/61/181 72/79/181 87/80/181
f 61/69/182 70/71/182 66/74/182
f 59/27/183 82/73/183 77/63/183
f 66/74/184 75/77/184 71/75/184
f 69/68/185 68/65/185 78/94/185
f 69/68/186 78/94/186 79/85/186
f 79/85/187 74/83/187 65/70/187 69/68/187
f 78/94/188 68/65/188 67/64/188 88/82/188
f 76/58/189 73/61/189 96/87/189
f 70/71/190 65/70/190 74/83/190
f 70/71/191 74/83/191 75/77/191
f 90/98/192 79/85/192 78/94/192 89/93/192
f 75/77/193 85/84/193 80/81/193
f 87/80/194 81/78/194 91/96/194
f 98/107/195 90/98/195 89/93/195 97/113/195
f 83/86/196 79/85/196 90/98/196
f 74/83/197 84/89/197 85/84/197
f 77/63/198 92/91/198 88/82/198
f 81/78/199 80/81/199 86/92/199
f 81/78/200 86/92/200 91/96/200
f 87/80/201 100/97/201 96/87/201
f 84/89/202 83/86/202 93/99/202
f 94/104/203 95/95/203 84/89/203 93/99/203
f 93/99/204 90/98/204 98/107/204
f 97/113/205 89/93/205 88/82/205 105/102/205
f 82/73/206 131/101/206 92/91/206
f 104/121/207 99/103/207 94/104/207 108/110/207
f 86/92/208 99/103/208 91/96/208
f 100/97/209 91/96/209 109/105/209
f 96/87/210 110/106/210 111/88/210
f 93/99/211 103/109/211 94/104/211
f 102/108/212 98/107/212 101/114/212
f 112/115/213 107/116/213 102/108/213 101/114/213
f 92/91/214 118/111/214 105/102/214
f 99/103/215 104/121/215 109/105/215
f 97/113/216 106/112/216 101/114/216
f 127/119/217 111/88/217 110/106/217 117/161/217
f 103/109/218 102/108/218 107/116/218
f 103/109/219 107/116/219 108/110/219
f 116/123/220 122/162/220 110/106/220 109/105/220
f 112/115/221 106/112/221 114/122/221
f 121/133/222 113/125/222 107/130/222 120/132/222
f 110/106/223 122/162/223 117/161/223
f 115/131/224 112/127/224 119/129/224
f 129/146/225 121/133/225 120/132/225 124/135/225
f 120/132/226 115/131/226 124/135/226
f 126/126/227 113/125/227 125/134/227
f 119/129/228 114/128/228 128/136/228
f 122/138/229 116/124/229 126/126/229
f 114/128/230 132/142/230 128/136/230
f 117/149/231 122/138/231 137/139/231
f 124/135/232 119/129/232 123/137/232
f 133/148/233 134/144/233 124/135/233 123/137/233
f 121/133/234 129/146/234 125/134/234
f 124/135/235 135/145/235 129/146/235
f 130/143/236 125/134/236 136/147/236
f 143/155/237 136/147/237 135/145/237 142/163/237
f 130/143/238 138/150/238 137/139/238
f 133/148/239 128/136/239 140/151/239
f 117/149/240 146/53/240 127/11/240
f 139/15/241 6/2/241 132/142/241 131/141/241
f 141/152/242 142/163/242 134/144/242 133/148/242
f 136/147/243 143/155/243 144/154/243
f 132/142/244 6/2/244 2/1/244
f 138/150/245 136/147/245 144/154/245
f 132/142/246 2/1/246 140/151/246
f 137/139/247 145/54/247 146/53/247
f 11/4/248 144/154/248 143/155/248 10/14/248
f 135/145/249 134/144/249 142/163/249
f 142/163/250 3/9/250 143/155/250
f 144/154/251 11/4/251 4/6/251
f 141/152/252 140/151/252 7/19/252
f 145/54/253 138/150/253 12/18/253
f 142/163/254 141/152/254 8/7/254
f 3/9/255 142/163/255 8/7/255
