# Blender 5.0.0
# www.blender.org
mtllib Walk_Forward0030.mtl
o Sphere
v -1.562153 4.802848 1.975016
v -1.862661 4.650424 1.492137
v -1.981491 3.820123 1.025591
v -1.876741 3.262636 1.166247
v -1.471143 2.807246 1.907966
v -1.734979 4.737016 1.615451
v -1.772448 4.460238 1.201607
v -1.842706 4.138477 1.031479
v -1.614350 3.952172 0.955790
v -1.792726 3.643768 0.983683
v -1.768235 3.453284 1.033639
v -1.622610 3.048934 1.293719
v -1.517090 4.618125 1.342355
v -1.569766 3.298307 1.094568
v -1.480287 4.341307 1.096828
v -1.393574 3.775681 0.968243
v -1.411414 3.480815 1.027161
v -1.248221 4.169147 1.069318
v -1.202257 3.666779 1.040393
v -1.233818 3.299056 1.165970
v -1.349478 3.132105 1.247656
v -1.330004 4.676958 1.484614
v -1.099190 4.370621 1.250521
v -1.014453 3.877938 1.123618
v -1.064677 3.487267 1.156188
v -1.403819 2.904932 1.538396
v -1.154675 4.572913 1.420666
v -0.886879 4.075599 1.255509
v -0.868937 3.682186 1.242290
v -0.971097 3.231983 1.377883
v -1.195748 3.012870 1.456197
v -1.366014 4.763687 1.662412
v -0.838369 4.346029 1.462499
v -0.713047 3.880071 1.399687
v -0.741358 3.560684 1.407504
v -0.846414 4.512055 1.691635
v -0.605518 3.991544 1.591310
v -0.785548 3.223372 1.624658
v -0.953257 3.008344 1.758614
v -1.164236 4.749733 1.978290
v -1.052974 4.684759 1.766108
v -0.636700 4.251238 1.753894
v -0.568301 3.577184 1.722980
v -1.356436 2.837248 1.753106
v -0.833727 4.553749 1.947917
v -0.652251 4.349993 1.984386
v -0.529761 4.058732 1.940062
v -0.499709 3.862234 1.951661
v -0.527365 3.565584 2.000399
v -0.699459 3.212311 1.918588
v -1.115483 2.904854 1.789644
v -1.002154 4.659456 2.138605
v -0.631752 3.361923 2.252679
v -0.791506 4.469552 2.255586
v -0.630679 4.222862 2.283152
v -0.570151 4.036233 2.312425
v -0.548221 3.838955 2.329913
v -0.552209 3.642820 2.299207
v -1.365738 4.802244 1.940855
v -0.792374 4.290597 2.505137
v -0.690604 3.916171 2.577716
v -0.749238 3.344747 2.473357
v -0.813203 3.115083 2.227675
v -0.941788 2.987263 2.134815
v -0.895403 3.993951 2.751351
v -0.738061 3.615073 2.616105
v -1.166392 4.635876 2.401334
v -1.030035 4.517171 2.492138
v -0.967714 4.272538 2.681564
v -0.888880 3.795698 2.770664
v -0.924445 3.323763 2.649687
v -1.068174 3.024365 2.433708
v -1.140886 2.886918 2.145532
v -1.224734 3.843329 2.914814
v -1.041080 3.586301 2.829293
v -1.313400 2.825507 2.049101
v -1.321650 4.732170 2.289678
v -1.325086 4.414262 2.716229
v -1.251093 4.157085 2.846218
v -1.216035 3.388374 2.820390
v -1.266933 3.139136 2.673387
v -1.508739 4.776848 2.170889
v -1.433075 3.954298 2.919533
v -1.640981 3.745386 2.910918
v -1.415134 3.560884 2.906315
v -1.566437 3.264066 2.781776
v -1.385573 2.948321 2.462570
v -1.514073 4.610292 2.524418
v -1.632592 4.396771 2.716807
v -1.616091 4.135881 2.855064
v -1.611855 3.049868 2.593887
v -1.684396 4.701383 2.325087
v -1.856409 3.852306 2.848541
v -1.983999 3.537227 2.747065
v -1.745189 3.430168 2.821925
v -1.468447 2.857709 2.289168
v -1.926873 4.386260 2.602612
v -1.968618 4.122826 2.726794
v -1.946975 3.245204 2.627343
v -1.712048 2.933469 2.394669
v -2.169099 4.218050 2.522965
v -2.164359 3.927908 2.640691
v -2.182336 3.729640 2.634647
v -2.194927 3.264065 2.420483
v -1.921986 4.603645 2.351683
v -2.101685 4.462337 2.360525
v -2.421713 3.806821 2.335162
v -2.284288 3.534600 2.481265
v -1.984545 3.040367 2.379002
v -1.839281 2.878750 2.172818
v -1.564681 2.811092 2.078401
v -2.336059 4.215466 2.301579
v -2.419743 3.427432 2.166506
v -2.176609 4.547781 2.064894
v -2.484287 3.936612 2.145501
v -2.219141 3.098763 2.101348
v -1.867768 2.858321 1.881643
v -1.924190 4.705730 2.077632
v -2.437229 4.227895 1.966642
v -2.533586 3.747860 1.931320
v -2.503534 3.551362 1.942920
v -2.040361 2.940527 1.961810
v -2.419717 4.241247 1.711815
v -2.530148 3.874918 1.726827
v -2.436610 3.375930 1.772542
v -2.276803 3.122301 1.863448
v -1.663725 2.816462 1.821103
v -2.258628 4.485853 1.783755
v -2.463144 3.573860 1.570557
v -2.294940 3.220160 1.600439
v -1.756133 4.775608 2.014413
v -1.997981 4.677672 1.738837
v -2.333263 4.260321 1.477818
v -2.405058 3.980743 1.415084
v -2.404153 3.784973 1.382774
v -2.352462 3.469346 1.405018
v -2.055000 2.997983 1.610540
v -2.051529 3.163533 1.339268
v -1.620008 4.791842 1.777839
v -2.059454 4.521661 1.437389
v -2.108850 4.286330 1.233295
v -2.170004 3.938991 1.136340
v -2.137893 3.616142 1.131632
v -2.095835 3.420813 1.177848
v -1.783560 2.979463 1.430699
v -1.726097 2.883844 1.597761
vn -0.1264 0.8686 -0.4790
vn -0.1387 -0.5111 -0.8483
vn -0.2257 0.1163 -0.9672
vn 0.0292 -0.9851 -0.1692
vn -0.0108 -0.0839 -0.9964
vn -0.0307 0.9534 -0.3001
vn 0.0616 -0.6308 -0.7735
vn -0.1143 0.4837 -0.8677
vn 0.1493 -0.8069 -0.5715
vn 0.1133 0.3038 -0.9460
vn 0.0441 0.9014 -0.4308
vn 0.1837 -0.4769 -0.8595
vn -0.0063 0.9985 -0.0539
vn 0.3362 -0.3149 -0.8876
vn 0.2267 0.7580 -0.6116
vn 0.3517 0.1089 -0.9298
vn 0.4990 0.3456 -0.7947
vn 0.5182 -0.1275 -0.8457
vn 0.4789 -0.4689 -0.7421
vn 0.3970 -0.6104 -0.6854
vn 0.6261 -0.3134 -0.7140
vn 0.3377 0.8711 -0.3565
vn 0.5259 0.6273 -0.5743
vn 0.3135 -0.8786 -0.3601
vn 0.6741 0.0563 -0.7365
vn 0.7672 0.2974 -0.5683
vn 0.7583 -0.0830 -0.6466
vn 0.7080 -0.4455 -0.5479
vn 0.5005 0.7696 -0.3965
vn 0.2729 0.9529 -0.1322
vn 0.9287 0.2704 -0.2538
vn 0.9628 0.1334 -0.2348
vn 0.8526 -0.4494 -0.2666
vn 0.5994 0.7848 -0.1574
vn 0.7517 0.6441 -0.1420
vn -0.0337 -0.8735 -0.4857
vn 0.4927 0.8702 -0.0081
vn 0.6488 -0.7584 -0.0623
vn 0.2804 -0.9567 -0.0787
vn 0.1710 -0.9832 -0.0639
vn 0.9819 -0.1161 -0.1497
vn 0.4495 -0.8932 -0.0129
vn 0.6251 0.7704 0.1251
vn 0.2198 0.9614 0.1654
vn 0.3421 0.8925 0.2940
vn 0.5957 0.6518 0.4695
vn 0.7527 0.5338 0.3854
vn 0.5372 0.5977 0.5951
vn 0.6644 0.0941 0.7415
vn 0.0248 0.9919 0.1249
vn 0.6822 -0.3633 0.6346
vn 0.5766 -0.1971 0.7929
vn 0.3974 -0.6547 0.6430
vn 0.2398 -0.7831 0.5738
vn 0.3992 -0.3902 0.8297
vn 0.1293 0.8327 0.5384
vn 0.3387 -0.5284 0.7785
vn 0.2098 -0.1704 0.9628
vn 0.1405 0.2227 0.9647
vn 0.0774 -0.9803 0.1815
vn 0.0004 -0.0416 0.9991
vn 0.0639 -0.9963 0.0575
vn -0.0382 0.9140 0.4039
vn 0.0431 -0.4051 0.9132
vn -0.0373 0.6803 0.7320
vn -0.1594 -0.2191 0.9626
vn -0.1049 -0.3388 0.9350
vn -0.0718 -0.8451 0.5298
vn -0.1975 0.1451 0.9695
vn -0.1055 0.9816 0.1591
vn -0.2557 0.7779 0.5740
vn -0.2999 -0.5166 0.8020
vn -0.4297 -0.3886 0.8151
vn -0.3442 -0.6981 0.6279
vn -0.1530 -0.9355 0.3185
vn -0.5254 0.1583 0.8360
vn -0.5550 0.0250 0.8314
vn -0.6428 -0.2369 0.7285
vn -0.2755 0.9187 0.2831
vn -0.4930 0.6623 0.5642
vn -0.3534 -0.8408 0.4101
vn -0.5364 0.4279 0.7275
vn -0.6819 0.5261 0.5081
vn -0.8722 0.2188 0.4375
vn -0.0465 -0.9989 -0.0030
vn -0.8727 -0.2021 0.4444
vn -0.8008 -0.3703 0.4707
vn -0.5165 0.8010 0.3025
vn -0.7723 -0.5383 0.3374
vn -0.5662 0.7424 0.3581
vn -0.6321 -0.6675 0.3937
vn -0.8308 -0.5365 0.1483
vn -0.7863 0.5613 0.2583
vn -0.9596 -0.0611 0.2747
vn -0.8958 -0.4341 0.0951
vn -0.9758 0.2048 0.0767
vn -0.8310 0.5555 -0.0280
vn -0.5772 -0.8094 -0.1083
vn -0.3818 0.9242 0.0066
vn -0.5316 0.8458 0.0457
vn -0.8099 -0.5658 -0.1546
vn -0.9329 0.0544 -0.3559
vn -0.8535 -0.4238 -0.3031
vn -0.6573 -0.7200 -0.2226
vn -0.7770 0.5822 -0.2396
vn -0.3263 -0.9130 -0.2449
vn -0.8659 -0.1748 -0.4686
vn -0.6676 -0.5487 -0.5032
vn -0.6006 0.7535 -0.2675
vn -0.6299 0.5801 -0.5164
vn -0.3760 -0.7888 -0.4862
vn -0.1418 0.9898 -0.0136
vn -0.4234 -0.5327 -0.7328
vn -0.3229 0.7428 -0.5865
vn -0.2581 -0.7025 -0.6632
vn -0.3322 0.4965 -0.8019
vn -0.3746 -0.1851 -0.9085
vn -0.1951 0.0242 -0.9805
vn -0.1754 0.7979 -0.5768
vn -0.1137 -0.6052 -0.7879
vn 0.0038 -0.9553 -0.2955
vn 0.0178 -0.2186 -0.9756
vn 0.2360 0.6624 -0.7110
vn -0.0140 0.9127 -0.4085
vn 0.0104 -0.3543 -0.9351
vn 0.0019 0.6637 -0.7480
vn -0.0261 0.3486 -0.9369
vn 0.1775 -0.5290 -0.8298
vn 0.1647 -0.7786 -0.6055
vn 0.1950 0.1758 -0.9649
vn 0.2415 -0.2042 -0.9487
vn 0.3706 0.0362 -0.9281
vn 0.0474 0.9894 -0.1371
vn 0.3330 -0.3449 -0.8776
vn 0.5466 -0.7106 -0.4430
vn 0.2862 0.5150 -0.8080
vn 0.3956 -0.6408 -0.6580
vn 0.4930 0.2398 -0.8363
vn 0.5174 -0.1472 -0.8430
vn 0.6742 0.0547 -0.7365
vn 0.6209 -0.3718 -0.6902
vn 0.3645 0.8491 -0.3822
vn 0.5965 0.4176 -0.6854
vn 0.3018 -0.8882 -0.3466
vn 0.8805 -0.0782 -0.4675
vn 0.4479 -0.8134 -0.3713
vn 0.7715 0.2566 -0.5822
vn 0.5533 0.6836 -0.4759
vn 0.2856 0.9480 -0.1405
vn 0.8181 -0.3832 -0.4287
vn 0.7675 0.5316 -0.3582
vn 0.8150 0.3747 -0.4421
vn 0.9298 0.3528 0.1047
vn 0.7864 0.5852 -0.1977
vn 0.9591 -0.0038 -0.2830
vn 0.6934 -0.6833 -0.2288
vn 0.9021 -0.4047 -0.1500
vn 0.5209 0.8535 -0.0131
vn 0.5281 -0.8468 -0.0636
vn 0.9102 0.3995 -0.1097
vn 0.9824 0.1389 0.1248
vn 0.3464 -0.9378 -0.0225
vn 0.9919 -0.0596 0.1122
vn 0.8586 -0.0810 0.5062
vn 0.9437 -0.2928 0.1541
vn 0.8975 -0.4408 0.0155
vn 0.7961 -0.5959 0.1055
vn 0.7368 0.6710 0.0825
vn 0.6940 -0.7193 0.0291
vn 0.8156 0.5513 0.1757
vn 0.3099 0.9275 0.2090
vn 0.8767 0.1383 0.4607
vn 0.8428 -0.2936 0.4510
vn 0.4915 0.7938 0.3582
vn 0.8035 0.3232 0.5000
vn 0.7382 -0.5779 0.3480
vn 0.5926 -0.6490 0.4771
vn 0.6679 0.3241 0.6700
vn 0.5387 -0.7776 0.3243
vn 0.4429 -0.8475 0.2925
vn 0.2437 -0.8996 0.3623
vn 0.7036 -0.0203 0.7103
vn 0.1181 0.9763 0.1812
vn 0.5705 -0.2758 0.7736
vn 0.3185 0.6298 0.7085
vn 0.2764 0.4957 0.8233
vn 0.3614 0.2688 0.8928
vn 0.1873 0.7564 0.6267
vn 0.1956 -0.9474 0.2534
vn 0.4045 0.1018 0.9088
vn 0.3911 -0.0267 0.9200
vn -0.0139 0.4578 0.8889
vn 0.2112 -0.2295 0.9501
vn 0.0434 -0.7527 0.6569
vn -0.3299 0.4352 0.8377
vn 0.0032 0.3374 0.9413
vn -0.0027 -0.0283 0.9996
vn -0.0334 0.8979 0.4389
vn 0.0907 -0.5196 0.8496
vn -0.0028 -0.6591 0.7521
vn -0.0612 -0.8723 0.4851
vn -0.2006 0.1598 0.9666
vn -0.3502 -0.1506 0.9245
vn -0.3383 0.2659 0.9027
vn -0.2750 0.7266 0.6297
vn -0.1733 0.9481 0.2665
vn -0.6146 -0.3628 0.7004
vn -0.2750 -0.6004 0.7509
vn -0.3233 -0.7372 0.5933
vn -0.1401 -0.9514 0.2744
vn -0.5330 -0.0561 0.8443
vn -0.6116 0.2889 0.7365
vn -0.7846 0.2166 0.5810
vn -0.3268 0.8848 0.3322
vn -0.5341 -0.6107 0.5846
vn -0.5813 0.5557 0.5944
vn -0.1998 -0.9771 0.0733
vn -0.7737 0.0509 0.6315
vn -0.7879 -0.0693 0.6119
vn -0.5201 -0.8123 0.2640
vn -0.7189 0.5977 0.3549
vn -0.9503 -0.1300 0.2829
vn -0.3886 -0.9157 0.1023
vn -0.9033 0.3208 0.2848
vn -0.9807 -0.1577 -0.1154
vn -0.9833 0.1616 0.0839
vn -0.8578 -0.5037 0.1026
vn -0.7858 0.6112 0.0946
vn -0.6273 -0.7751 0.0753
vn -0.5932 0.8050 -0.0043
vn -0.4727 -0.8726 -0.1230
vn -0.9568 0.2863 -0.0508
vn -0.9150 0.2796 -0.2907
vn -0.9607 -0.2506 -0.1193
vn -0.9414 -0.0354 -0.3355
vn -0.8476 -0.4345 -0.3045
vn -0.7188 -0.1132 -0.6860
vn -0.6072 -0.6748 -0.4196
vn -0.6782 0.6608 -0.3217
vn -0.2566 -0.9428 -0.2128
vn -0.2774 0.9548 -0.1071
vn -0.7094 0.3115 -0.6323
vn -0.6630 -0.3046 -0.6839
vn -0.3356 0.8984 -0.2833
vn -0.6284 -0.4882 -0.6056
vn -0.4480 0.8280 -0.3372
vn -0.3157 -0.8663 -0.3872
vn -0.3605 -0.2837 -0.8886
vn -0.7526 0.1038 -0.6502
vn -0.5247 -0.0398 -0.8504
vn -0.3353 -0.4019 -0.8521
vn -0.3961 0.6476 -0.6509
vn -0.2584 -0.7045 -0.6610
vn -0.4574 0.3129 -0.8324
vn -0.4039 0.1926 -0.8943
vt 0.781230 0.812500
vt 0.762032 0.875000
vt 0.685473 0.777944
vt 0.734697 0.375000
vt 0.703125 0.312500
vt 0.764235 0.312500
vt 0.741874 0.599249
vt 0.704616 0.531266
vt 0.763980 0.500000
vt 0.734375 0.000000
vt 0.879629 0.062500
vt 0.593677 0.062500
vt 0.670132 0.472235
vt 0.734536 0.437500
vt 0.734224 0.937500
vt 0.605595 0.875000
vt 0.658359 0.250000
vt 0.719918 0.218999
vt 0.734375 0.717281
vt 0.678319 0.660608
vt 0.606077 0.187500
vt 0.641330 0.592355
vt 0.623673 0.812500
vt 0.673680 0.375000
vt 0.639230 0.312500
vt 0.640625 1.000000
vt 0.479138 0.937500
vt 0.639064 0.437500
vt 0.612180 0.375000
vt 0.595563 0.750000
vt 0.606567 0.500000
vt 0.603325 0.667055
vt 0.578286 0.562500
vt 0.578286 0.437500
vt 0.577540 0.283466
vt 0.543444 0.396147
vt 0.512752 0.812500
vt 0.546915 0.655822
vt 0.503540 0.125000
vt 0.660224 0.125000
vt 0.544067 0.500000
vt 0.509405 0.537235
vt 0.515588 0.281661
vt 0.510998 0.724803
vt 0.449506 0.875000
vt 0.487180 0.625000
vt 0.453286 0.562500
vt 0.450317 0.500000
vt 0.485851 0.406417
vt 0.453088 0.281661
vt 0.455926 0.750000
vt 0.445771 0.665313
vt 0.799126 0.125000
vt 0.779637 0.187500
vt 0.402284 0.812500
vt 0.497588 0.187500
vt 0.386121 0.187500
vt 0.328120 0.062500
vt 0.453125 0.000000
vt 0.437500 0.406180
vt 0.347717 0.125000
vt 0.390588 0.718339
vt 0.293360 0.875000
vt 0.308534 0.812500
vt 0.316528 0.750000
vt 0.343750 0.656371
vt 0.393429 0.625000
vt 0.296915 0.655822
vt 0.343750 0.531273
vt 0.297036 0.562500
vt 0.294067 0.500000
vt 0.328125 1.000000
vt 0.230145 0.937500
vt 0.328286 0.437500
vt 0.296914 0.344178
vt 0.343750 0.343629
vt 0.265786 0.437500
vt 0.234338 0.281661
vt 0.296902 0.219059
vt 0.214815 0.187500
vt 0.237180 0.375000
vt 0.199790 0.812500
vt 0.237635 0.520573
vt 0.203286 0.437500
vt 0.237180 0.625000
vt 0.203286 0.562500
vt 0.190964 0.125000
vt 0.113605 0.062500
vt 0.169067 0.500000
vt 0.203125 0.000000
vt 0.137012 0.875000
vt 0.176363 0.337227
vt 0.171838 0.718339
vt 0.234338 0.718339
vt 0.148421 0.399333
vt 0.160278 0.250000
vt 0.121065 0.187500
vt 0.174680 0.625000
vt 0.134405 0.537235
vt 0.140625 1.000000
vt 0.030235 0.937500
vt 0.075252 0.812500
vt 0.102021 0.334687
vt 0.109536 0.437500
vt 0.066529 0.250000
vt 0.055088 0.153620
vt 0.112179 0.625000
vt 0.078286 0.562500
vt 0.075317 0.500000
vt 0.047036 0.437500
vt 0.032456 0.875000
vt 0.048167 0.750000
vt 0.108913 0.719958
vt 0.062500 0.658651
vt 0.015664 0.655822
vt 0.018885 0.520574
vt 0.000000 0.562500
vt 0.015625 0.000000
vt 0.000000 0.062500
vt 0.000000 0.399333
vt 0.046914 0.344178
vt 0.000000 0.784407
vt 0.000000 0.273040
vt 0.991904 0.273040
vt 0.992171 0.399333
vt 0.937867 0.282145
vt 1.000000 0.655822
vt 0.975379 0.784407
vt 0.953164 0.655822
vt 1.000000 0.500000
vt 0.984536 0.562500
vt 0.950317 0.500000
vt 0.953286 0.437500
vt 0.924679 0.375000
vt 0.915655 0.537235
vt 0.910279 0.750000
vt 0.906250 0.656371
vt 0.965747 0.187500
vt 0.868449 0.212346
vt 0.978825 0.875000
vt 0.921769 0.937500
vt 0.872374 0.843190
vt 0.887823 0.312500
vt 0.859536 0.562500
vt 0.856567 0.500000
vt 0.890786 0.437500
vt 0.855944 0.396148
vt 0.859414 0.655822
vt 0.939862 0.125000
vt 0.812867 0.282145
vt 0.814726 0.750000
vt 0.796945 0.653777
vt 0.828125 1.000000
vt 0.798190 0.375000
vt 0.797036 0.437500
vt 0.390786 0.562500
vt 0.387817 0.500000
vt 0.390786 0.437500
vt 0.390665 0.344178
vt 0.378980 0.250000
vt 0.000000 0.125000
vt 0.000000 0.187500
vt 0.801816 0.543181
s 0
f 2/1/1 6/2/1 13/3/1
f 11/4/2 14/5/2 4/6/2
f 8/7/3 9/8/3 3/9/3
f 5/10/4 127/11/4 44/12/4
f 9/8/5 16/13/5 10/14/5
f 139/15/6 32/16/6 6/2/6
f 14/5/7 21/17/7 12/18/7
f 7/19/8 15/20/8 8/7/8
f 12/18/9 21/17/9 31/21/9
f 15/20/10 18/22/10 9/8/10
f 32/16/11 22/23/11 13/3/11
f 14/5/12 17/24/12 20/25/12
f 139/15/13 1/26/13 59/27/13
f 19/28/14 25/29/14 17/24/14
f 22/23/15 27/30/15 13/3/15
f 16/13/16 18/22/16 24/31/16
f 18/22/17 23/32/17 28/33/17
f 24/31/18 29/34/18 19/28/18
f 20/25/19 25/29/19 30/35/19
f 20/25/20 30/35/20 21/17/20
f 29/34/21 35/36/21 25/29/21
f 32/16/22 41/37/22 22/23/22
f 23/32/23 27/30/23 33/38/23
f 31/21/24 51/39/24 26/40/24
f 24/31/25 28/33/25 34/41/25
f 28/33/26 33/38/26 37/42/26
f 34/41/27 35/36/27 29/34/27
f 30/35/28 35/36/28 38/43/28
f 41/37/29 36/44/29 27/30/29
f 32/16/30 59/27/30 40/45/30
f 37/42/31 42/46/31 47/47/31
f 37/42/32 47/47/32 48/48/32
f 38/43/33 43/49/33 50/50/33
f 41/37/34 45/51/34 36/44/34
f 36/44/35 45/51/35 46/52/35
f 26/40/36 146/53/36 145/54/36 12/18/36
f 41/37/37 40/45/37 52/55/37
f 39/56/38 50/50/38 64/57/38
f 44/12/39 51/39/39 76/58/39
f 5/59/40 44/12/40 76/58/40
f 48/48/41 49/60/41 43/49/41
f 64/57/42 73/61/42 51/39/42
f 52/55/43 54/62/43 45/51/43
f 59/27/44 77/63/44 40/45/44
f 52/55/45 77/63/45 67/64/45
f 54/62/46 68/65/46 60/66/46
f 54/62/47 60/66/47 55/67/47
f 60/66/48 68/65/48 69/68/48
f 61/69/49 65/70/49 70/71/49
f 59/27/50 1/72/50 82/73/50
f 66/74/51 71/75/51 62/76/51
f 70/71/52 75/77/52 66/74/52
f 71/75/53 81/78/53 72/79/53
f 72/79/54 81/78/54 87/80/54
f 75/77/55 80/81/55 71/75/55
f 67/64/56 77/63/56 88/82/56
f 71/75/57 80/81/57 81/78/57
f 74/83/58 85/84/58 75/77/58
f 74/83/59 79/85/59 83/86/59
f 96/87/60 111/88/60 76/58/60
f 74/83/61 83/86/61 84/89/61
f 5/90/62 76/58/62 111/88/62
f 77/63/63 82/73/63 92/91/63
f 85/84/64 86/92/64 80/81/64
f 88/82/65 89/93/65 78/94/65
f 84/89/66 95/95/66 85/84/66
f 85/84/67 95/95/67 86/92/67
f 87/80/68 91/96/68 100/97/68
f 83/86/69 90/98/69 93/99/69
f 82/73/70 1/100/70 131/101/70
f 92/91/71 105/102/71 88/82/71
f 86/92/72 95/95/72 99/103/72
f 94/104/73 99/103/73 95/95/73
f 99/103/74 109/105/74 91/96/74
f 100/97/75 110/106/75 96/87/75
f 93/99/76 98/107/76 102/108/76
f 93/99/77 102/108/77 103/109/77
f 103/109/78 108/110/78 94/104/78
f 131/101/79 118/111/79 92/91/79
f 105/102/80 106/112/80 97/113/80
f 100/97/81 109/105/81 110/106/81
f 97/113/82 101/114/82 98/107/82
f 101/114/83 106/112/83 112/115/83
f 107/116/84 112/115/84 115/117/84
f 5/118/85 111/88/85 127/119/85
f 107/116/86 113/120/86 108/110/86
f 108/110/87 113/120/87 104/121/87
f 105/102/88 118/111/88 114/122/88
f 104/121/89 113/120/89 116/123/89
f 105/102/90 114/122/90 106/112/90
f 104/121/91 116/123/91 109/105/91
f 116/124/92 113/125/92 126/126/92
f 112/127/93 114/128/93 119/129/93
f 107/130/94 115/131/94 120/132/94
f 121/133/95 125/134/95 113/125/95
f 115/131/96 119/129/96 124/135/96
f 119/129/97 128/136/97 123/137/97
f 122/138/98 126/126/98 137/139/98
f 118/140/99 131/141/99 132/142/99
f 118/140/100 132/142/100 114/128/100
f 126/126/101 125/134/101 130/143/101
f 124/135/102 134/144/102 135/145/102
f 129/146/103 136/147/103 125/134/103
f 130/143/104 137/139/104 126/126/104
f 123/137/105 128/136/105 133/148/105
f 137/139/106 146/53/106 117/149/106
f 135/145/107 136/147/107 129/146/107
f 130/143/108 136/147/108 138/150/108
f 132/142/109 140/151/109 128/136/109
f 133/148/110 140/151/110 141/152/110
f 137/139/111 138/150/111 145/54/111
f 131/141/112 1/153/112 139/15/112
f 138/150/113 144/154/113 4/6/113
f 140/151/114 2/1/114 7/19/114
f 4/6/115 12/18/115 138/150/115
f 141/152/116 7/19/116 8/7/116
f 3/9/117 10/14/117 143/155/117
f 3/9/118 9/8/118 10/14/118
f 7/19/119 2/1/119 13/3/119
f 4/6/120 14/5/120 12/18/120
f 44/12/121 127/11/121 146/53/121 26/40/121
f 17/24/122 11/4/122 10/14/122 16/13/122
f 23/32/123 15/20/123 13/3/123 27/30/123
f 6/2/124 32/16/124 13/3/124
f 11/4/125 17/24/125 14/5/125
f 7/19/126 13/3/126 15/20/126
f 9/8/127 8/7/127 15/20/127
f 21/17/128 14/5/128 20/25/128
f 12/18/129 31/21/129 26/40/129
f 9/8/130 18/22/130 16/13/130
f 16/13/131 19/28/131 17/24/131
f 16/13/132 24/31/132 19/28/132
f 139/15/133 59/27/133 32/16/133
f 20/25/134 17/24/134 25/29/134
f 38/43/135 39/56/135 31/21/135 30/35/135
f 15/20/136 23/32/136 18/22/136
f 21/17/137 30/35/137 31/21/137
f 24/31/138 18/22/138 28/33/138
f 19/28/139 29/34/139 25/29/139
f 24/31/140 34/41/140 29/34/140
f 30/35/141 25/29/141 35/36/141
f 22/23/142 41/37/142 27/30/142
f 28/33/143 23/32/143 33/38/143
f 44/12/144 26/40/144 51/39/144
f 43/49/145 35/36/145 34/41/145 37/42/145
f 51/39/146 31/21/146 39/56/146
f 34/41/147 28/33/147 37/42/147
f 33/38/148 27/30/148 36/44/148
f 32/16/149 40/45/149 41/37/149
f 38/43/150 35/36/150 43/49/150
f 33/38/151 36/44/151 42/46/151
f 37/42/152 33/38/152 42/46/152
f 55/67/153 56/156/153 47/47/153 46/52/153
f 36/44/154 46/52/154 42/46/154
f 37/42/155 48/48/155 43/49/155
f 39/56/156 38/43/156 50/50/156
f 50/50/157 43/49/157 49/60/157
f 41/37/158 52/55/158 45/51/158
f 39/56/159 64/57/159 51/39/159
f 47/47/160 42/46/160 46/52/160
f 56/156/161 57/157/161 48/48/161 47/47/161
f 51/39/162 73/61/162 76/58/162
f 58/158/163 49/60/163 48/48/163 57/157/163
f 66/74/164 58/158/164 57/157/164 61/69/164
f 49/60/165 58/158/165 53/159/165
f 50/50/166 49/60/166 53/159/166
f 50/50/167 53/159/167 63/160/167
f 46/52/168 45/51/168 54/62/168
f 64/57/169 50/50/169 63/160/169
f 46/52/170 54/62/170 55/67/170
f 40/45/171 77/63/171 52/55/171
f 57/157/172 56/156/172 61/69/172
f 62/76/173 53/159/173 58/158/173 66/74/173
f 68/65/174 54/62/174 52/55/174 67/64/174
f 60/66/175 61/69/175 56/156/175 55/67/175
f 53/159/176 62/76/176 63/160/176
f 72/79/177 63/160/177 62/76/177 71/75/177
f 69/68/178 65/70/178 61/69/178 60/66/178
f 64/57/179 63/160/179 72/79/179
f 64/57/180 72/79/180 73/61/180
f 96/87/181 73/61/181 72/79/181 87/80/181
f 61/69/182 70/71/182 66/74/182
f 59/27/183 82/73/183 77/63/183
f 66/74/184 75/77/184 71/75/184
f 69/68/185 68/65/185 78/94/185
f 69/68/186 78/94/186 79/85/186
f 79/85/187 74/83/187 65/70/187 69/68/187
f 78/94/188 68/65/188 67/64/188 88/82/188
f 76/58/189 73/61/189 96/87/189
f 70/71/190 65/70/190 74/83/190
f 70/71/191 74/83/191 75/77/191
f 90/98/192 79/85/192 78/94/192 89/93/192
f 75/77/193 85/84/193 80/81/193
f 87/80/194 81/78/194 91/96/194
f 98/107/195 90/98/195 89/93/195 97/113/195
f 83/86/196 79/85/196 90/98/196
f 74/83/197 84/89/197 85/84/197
f 77/63/198 92/91/198 88/82/198
f 81/78/199 80/81/199 86/92/199
f 81/78/200 86/92/200 91/96/200
f 87/80/201 100/97/201 96/87/201
f 84/89/202 83/86/202 93/99/202
f 94/104/203 95/95/203 84/89/203 93/99/203
f 93/99/204 90/98/204 98/107/204
f 97/113/205 89/93/205 88/82/205 105/102/205
f 82/73/206 131/101/206 92/91/206
f 104/121/207 99/103/207 94/104/207 108/110/207
f 86/92/208 99/103/208 91/96/208
f 100/97/209 91/96/209 109/105/209
f 96/87/210 110/106/210 111/88/210
f 93/99/211 103/109/211 94/104/211
f 102/108/212 98/107/212 101/114/212
f 112/115/213 107/116/213 102/108/213 101/114/213
f 92/91/214 118/111/214 105/102/214
f 99/103/215 104/121/215 109/105/215
f 97/113/216 106/112/216 101/114/216
f 127/119/217 111/88/217 110/106/217 117/161/217
f 103/109/218 102/108/218 107/116/218
f 103/109/219 107/116/219 108/110/219
f 116/123/220 122/162/220 110/106/220 109/105/220
f 112/115/221 106/112/221 114/122/221
f 121/133/222 113/125/222 107/130/222 120/132/222
f 110/106/223 122/162/223 117/161/223
f 115/131/224 112/127/224 119/129/224
f 129/146/225 121/133/225 120/132/225 124/135/225
f 120/132/226 115/131/226 124/135/226
f 126/126/227 113/125/227 125/134/227
f 119/129/228 114/128/228 128/136/228
f 122/138/229 116/124/229 126/126/229
f 114/128/230 132/142/230 128/136/230
f 117/149/231 122/138/231 137/139/231
f 124/135/232 119/129/232 123/137/232
f 133/148/233 134/144/233 124/135/233 123/137/233
f 121/133/234 129/146/234 125/134/234
f 124/135/235 135/145/235 129/146/235
f 130/143/236 125/134/236 136/147/236
f 143/155/237 136/147/237 135/145/237 142/163/237
f 130/143/238 138/150/238 137/139/238
f 133/148/239 128/136/239 140/151/239
f 117/149/240 146/53/240 127/11/240
f 139/15/241 6/2/241 132/142/241 131/141/241
f 141/152/242 142/163/242 134/144/242 133/148/242
f 136/147/243 143/155/243 144/154/243
f 132/142/244 6/2/244 2/1/244
f 138/150/245 136/147/245 144/154/245
f 132/142/246 2/1/246 140/151/246
f 137/139/247 145/54/247 146/53/247
f 11/4/248 144/154/248 143/155/248 10/14/248
f 135/145/249 134/144/249 142/163/249
f 142/163/250 3/9/250 143/155/250
f 144/154/251 11/4/251 4/6/251
f 141/152/252 140/151/252 7/19/252
f 145/54/253 138/150/253 12/18/253
f 142/163/254 141/152/254 8/7/254
f 3/9/255 142/163/255 8/7/255
