# Blender 5.0.0
# www.blender.org
mtllib Walk_Forward0034.mtl
o Sphere
v -2.057421 4.064806 0.815251
v -2.095702 4.268323 0.276366
v -1.873657 3.868839 -0.443782
v -1.755797 3.292902 -0.511495
v -1.643470 2.393298 0.031213
v -2.046906 4.253893 0.450872
v -1.857855 4.288934 0.013296
v -1.798450 4.128734 -0.266426
v -1.529864 4.003746 -0.312648
v -1.657299 3.732915 -0.474709
v -1.628114 3.535619 -0.500515
v -1.548611 3.010386 -0.402865
v -1.711601 4.315973 0.275159
v -1.451204 3.350362 -0.440753
v -1.528820 4.236497 -0.006108
v -1.308230 3.830213 -0.290210
v -1.305592 3.540400 -0.364647
v -1.280100 4.091987 -0.008563
v -1.149695 3.677570 -0.206765
v -1.177668 3.282796 -0.263000
v -1.293137 3.094022 -0.306588
v -1.612983 4.261586 0.475246
v -1.254655 4.136857 0.262262
v -1.047634 3.792083 0.006720
v -1.048355 3.439470 -0.136531
v -1.435359 2.713472 -0.190419
v -1.410113 4.202827 0.450243
v -1.019498 3.867207 0.230394
v -0.937892 3.537685 0.075828
v -1.021843 3.070292 -0.030145
v -1.226863 2.846069 -0.136132
v -1.736627 4.222328 0.631865
v -1.107012 3.960820 0.510774
v -0.895257 3.594552 0.329505
v -0.876041 3.317713 0.202607
v -1.239749 3.954223 0.747443
v -0.898422 3.558218 0.558639
v -0.960168 2.890123 0.223730
v -1.138484 2.629465 0.182814
v -1.689666 3.991503 0.942662
v -1.485962 4.066947 0.795470
v -1.037198 3.676716 0.771716
v -0.859580 3.115088 0.514295
v -1.476107 2.512516 -0.034272
v -1.346740 3.822102 0.964807
v -1.167163 3.612099 0.980870
v -0.992508 3.383602 0.879797
v -0.940575 3.205793 0.824269
v -0.942120 2.921721 0.737748
v -1.009036 2.683544 0.476549
v -1.283644 2.531065 0.107691
v -1.599081 3.799243 1.090259
v -1.116485 2.589602 0.815144
v -1.430370 3.546754 1.184093
v -1.259139 3.307112 1.169306
v -1.188776 3.124272 1.142259
v -1.146674 2.942482 1.087986
v -1.107169 2.794751 0.987694
v -1.864108 4.073878 0.860507
v -1.513325 3.230897 1.306669
v -1.396069 2.856317 1.255858
v -1.317125 2.438657 0.935061
v -1.232870 2.406175 0.634979
v -1.289578 2.365502 0.467700
v -1.669730 2.822998 1.344223
v -1.410382 2.576457 1.152456
v -1.859594 3.618424 1.222929
v -1.757623 3.448775 1.296867
v -1.746968 3.111766 1.371156
v -1.642263 2.640178 1.285352
v -1.550162 2.317076 0.998398
v -1.540751 2.210651 0.665236
v -1.459787 2.285414 0.364729
v -2.017399 2.608704 1.291665
v -1.774378 2.432431 1.194435
v -1.564852 2.306786 0.204153
v -1.966198 3.783688 1.117485
v -2.107942 3.233627 1.321675
v -2.058774 2.923856 1.349785
v -1.899318 2.279987 1.047772
v -1.843440 2.165587 0.820700
v -2.090758 3.911441 0.975135
v -2.225349 2.714122 1.261805
v -2.378659 2.554208 1.099117
v -2.143743 2.384601 1.107240
v -2.181628 2.221284 0.842496
v -1.829950 2.147187 0.542329
v -2.225163 3.538732 1.180658
v -2.384642 3.238110 1.203136
v -2.390711 2.923480 1.215178
v -2.108180 2.163188 0.599485
v -2.306269 3.757646 1.000413
v -2.563055 2.700341 1.013611
v -2.586750 2.504823 0.768221
v -2.386577 2.348927 0.871794
v -1.815542 2.187924 0.344189
v -2.600149 3.322514 1.003998
v -2.652536 3.018635 0.982994
v -2.456543 2.330323 0.577774
v -2.094287 2.199780 0.365309
v -2.759671 3.245967 0.789873
v -2.762999 2.920419 0.770635
v -2.746666 2.755692 0.683349
v -2.593879 2.497285 0.335690
v -2.518759 3.671927 0.896579
v -2.664341 3.556722 0.783532
v -2.844496 3.032417 0.395672
v -2.742534 2.695166 0.453538
v -2.350924 2.319135 0.294815
v -2.104361 2.305697 0.127556
v -1.803561 2.291558 0.129371
v -2.813895 3.398801 0.557978
v -2.711461 2.817236 0.121336
v -2.615851 3.827402 0.562027
v -2.837900 3.271227 0.277040
v -2.451131 2.565234 0.018434
v -1.999654 2.479792 -0.114202
v -2.416234 3.938106 0.724575
v -2.760969 3.634249 0.268698
v -2.760315 3.252312 0.022195
v -2.708382 3.074503 -0.033334
v -2.203836 2.509098 -0.084131
v -2.635537 3.810624 0.084600
v -2.686899 3.494187 -0.084770
v -2.546505 3.030952 -0.207010
v -2.402878 2.744153 -0.176209
v -1.781626 2.470225 -0.102242
v -2.557843 3.962864 0.292503
v -2.512115 3.333832 -0.295796
v -2.319009 3.000544 -0.347175
v -2.246603 4.028315 0.764218
v -2.330643 4.139622 0.426794
v -2.457519 3.973876 -0.056142
v -2.452907 3.779919 -0.237798
v -2.408315 3.633230 -0.337395
v -2.323374 3.345049 -0.422567
v -2.072038 2.788175 -0.337077
v -1.975183 3.106537 -0.480521
v -2.021945 4.187610 0.638543
v -2.230859 4.206408 0.113077
v -2.150730 4.141028 -0.151935
v -2.111225 3.910645 -0.381977
v -2.031162 3.635105 -0.497759
v -1.983663 3.434964 -0.521881
v -1.744144 2.871998 -0.383135
v -1.750657 2.677515 -0.270604
vn -0.1219 0.9858 0.1156
vn 0.2402 -0.0826 -0.9672
vn 0.1071 0.5391 -0.8354
vn 0.2453 -0.7081 -0.6621
vn 0.3603 0.3483 -0.8654
vn -0.1055 0.9332 0.3436
vn 0.4053 -0.2151 -0.8885
vn 0.1110 0.8724 -0.4761
vn 0.4379 -0.4269 -0.7912
vn 0.4151 0.7239 -0.5510
vn 0.0160 0.9668 0.2549
vn 0.5315 -0.0692 -0.8442
vn -0.1652 0.8251 0.5403
vn 0.6775 0.0725 -0.7319
vn 0.2895 0.9502 0.1156
vn 0.6814 0.5010 -0.5337
vn 0.7311 0.6586 -0.1778
vn 0.8297 0.2183 -0.5138
vn 0.7675 -0.1260 -0.6286
vn 0.6788 -0.2563 -0.6882
vn 0.8895 -0.0131 -0.4567
vn 0.2612 0.8674 0.4236
vn 0.5845 0.7842 0.2082
vn 0.5290 -0.5770 -0.6223
vn 0.9147 0.3342 -0.2273
vn 0.8760 0.4678 0.1172
vn 0.9674 0.1579 -0.1980
vn 0.9114 -0.1972 -0.3613
vn 0.4446 0.7959 0.4109
vn 0.1062 0.8059 0.5825
vn 0.8680 0.2828 0.4081
vn 0.9211 0.1579 0.3557
vn 0.9441 -0.3201 -0.0790
vn 0.4245 0.6658 0.6136
vn 0.5771 0.5403 0.6124
vn 0.2658 -0.4910 -0.8297
vn 0.2619 0.6623 0.7020
vn 0.7367 -0.6441 -0.2061
vn 0.4344 -0.7556 -0.4903
vn 0.3382 -0.7711 -0.5395
vn 0.9569 -0.0893 0.2762
vn 0.5604 -0.7559 -0.3384
vn 0.3422 0.5196 0.7829
vn -0.0336 0.6692 0.7423
vn 0.0381 0.5549 0.8311
vn 0.2296 0.2991 0.9262
vn 0.4063 0.2359 0.8828
vn 0.1552 0.2173 0.9637
vn 0.3248 -0.2453 0.9134
vn -0.1885 0.7281 0.6591
vn 0.4910 -0.6250 0.6068
vn 0.3034 -0.5373 0.7869
vn 0.2888 -0.9096 0.2987
vn 0.1838 -0.9802 0.0737
vn 0.1699 -0.7520 0.6369
vn -0.1963 0.4343 0.8791
vn 0.1591 -0.8654 0.4751
vn -0.1114 -0.5933 0.7972
vn -0.2409 -0.2065 0.9483
vn 0.1877 -0.8887 -0.4183
vn -0.3567 -0.4759 0.8039
vn 0.2138 -0.8313 -0.5130
vn -0.3080 0.5582 0.7704
vn -0.2192 -0.8161 0.5348
vn -0.3760 0.2658 0.8877
vn -0.4835 -0.6412 0.5959
vn -0.3957 -0.7553 0.5225
vn -0.0892 -0.9833 -0.1589
vn -0.5629 -0.2707 0.7809
vn -0.3070 0.7180 0.6247
vn -0.5290 0.4140 0.7408
vn -0.5027 -0.8469 0.1732
vn -0.6650 -0.7185 0.2037
vn -0.4231 -0.8978 -0.1224
vn -0.0694 -0.9123 -0.4035
vn -0.8344 -0.1846 0.5194
vn -0.8524 -0.3083 0.4223
vn -0.8550 -0.5052 0.1177
vn -0.4792 0.6347 0.6063
vn -0.7315 0.3502 0.5851
vn -0.3034 -0.8751 -0.3770
vn -0.8148 0.1010 0.5709
vn -0.8787 0.2775 0.3884
vn -0.9966 0.0570 0.0593
vn 0.1364 -0.7906 -0.5970
vn -0.9272 -0.3151 -0.2025
vn -0.8399 -0.4793 -0.2547
vn -0.6869 0.5622 0.4606
vn -0.7087 -0.5535 -0.4374
vn -0.7422 0.4990 0.4473
vn -0.5828 -0.7003 -0.4122
vn -0.6716 -0.4550 -0.5847
vn -0.8949 0.4119 0.1715
vn -0.9528 -0.1136 -0.2816
vn -0.7279 -0.3469 -0.5915
vn -0.9421 0.1933 -0.2740
vn -0.8462 0.5282 -0.0705
vn -0.3016 -0.5582 -0.7730
vn -0.5020 0.7764 0.3811
vn -0.6370 0.7109 0.2980
vn -0.5252 -0.3465 -0.7773
vn -0.7144 0.2313 -0.6605
vn -0.5412 -0.1794 -0.8216
vn -0.3446 -0.4402 -0.8292
vn -0.7417 0.6423 -0.1931
vn -0.0368 -0.5910 -0.8058
vn -0.5591 0.0791 -0.8253
vn -0.2974 -0.2077 -0.9319
vn -0.6053 0.7956 -0.0232
vn -0.5301 0.7720 -0.3507
vn -0.0251 -0.4043 -0.9143
vn -0.2929 0.8117 0.5053
vn -0.0332 -0.1257 -0.9915
vn -0.2524 0.9554 -0.1533
vn 0.1088 -0.2863 -0.9520
vn -0.1375 0.8466 -0.5141
vn 0.0015 0.2241 -0.9746
vn 0.1579 0.4512 -0.8783
vn -0.1231 0.9918 -0.0336
vn 0.2545 -0.1788 -0.9504
vn 0.2546 -0.6288 -0.7347
vn 0.3948 0.2099 -0.8945
vn 0.3642 0.9310 -0.0260
vn -0.0478 0.9669 0.2505
vn 0.3863 0.0723 -0.9195
vn 0.1444 0.9728 -0.1811
vn 0.2573 0.7692 -0.5849
vn 0.5194 -0.1224 -0.8457
vn 0.4584 -0.3948 -0.7962
vn 0.5275 0.5954 -0.6060
vn 0.6024 0.2037 -0.7718
vn 0.7068 0.4248 -0.5657
vn -0.0926 0.8579 0.5054
vn 0.6721 0.0420 -0.7393
vn 0.7467 -0.4390 -0.4997
vn 0.4921 0.8502 -0.1871
vn 0.6704 -0.2902 -0.6829
vn 0.7635 0.5771 -0.2899
vn 0.8289 0.1985 -0.5230
vn 0.9150 0.3327 -0.2284
vn 0.8783 -0.0731 -0.4725
vn 0.3001 0.8633 0.4057
vn 0.7545 0.6561 0.0165
vn 0.5159 -0.5884 -0.6226
vn 0.9969 0.0780 0.0100
vn 0.6452 -0.5370 -0.5435
vn 0.8954 0.4377 0.0818
vn 0.5482 0.7689 0.3289
vn 0.1208 0.8056 0.5800
vn 0.9635 -0.1984 -0.1799
vn 0.7163 0.5593 0.4173
vn 0.8368 0.4674 0.2851
vn 0.6944 0.1981 0.6918
vn 0.6445 0.5195 0.5610
vn 0.9699 0.0615 0.2355
vn 0.8149 -0.5160 -0.2641
vn 0.9415 -0.3314 0.0610
vn 0.2901 0.6504 0.7020
vn 0.6385 -0.7031 -0.3128
vn 0.7549 0.3251 0.5695
vn 0.7861 0.0169 0.6179
vn 0.4762 -0.7754 -0.4148
vn 0.8508 -0.1439 0.5054
vn 0.6101 -0.3112 0.7287
vn 0.8523 -0.3588 0.3806
vn 0.8887 -0.4285 0.1631
vn 0.7993 -0.5943 0.0888
vn 0.4689 0.4587 0.7548
vn 0.7479 -0.6571 -0.0938
vn 0.5254 0.3269 0.7856
vn 0.0321 0.6181 0.7854
vn 0.5803 -0.1066 0.8074
vn 0.6709 -0.4792 0.5659
vn 0.1546 0.4489 0.8801
vn 0.4597 0.0308 0.8875
vn 0.6757 -0.6882 0.2642
vn 0.5215 -0.8141 0.2557
vn 0.2954 -0.0253 0.9550
vn 0.5375 -0.8429 0.0227
vn 0.4690 -0.8784 -0.0922
vn 0.2736 -0.9472 -0.1671
vn 0.3972 -0.3359 0.8541
vn -0.1242 0.6820 0.7208
vn 0.3236 -0.6060 0.7267
vn -0.0618 0.2130 0.9751
vn -0.1115 0.0722 0.9911
vn -0.0232 -0.1439 0.9893
vn -0.1639 0.3431 0.9249
vn 0.2683 -0.9163 -0.2975
vn 0.0413 -0.3006 0.9528
vn 0.0511 -0.4275 0.9026
vn -0.3836 0.0329 0.9229
vn -0.0941 -0.6491 0.7549
vn -0.0442 -0.9970 0.0638
vn -0.6588 0.0514 0.7505
vn -0.3742 -0.0900 0.9230
vn -0.3618 -0.4623 0.8096
vn -0.3117 0.5325 0.7870
vn -0.1207 -0.8982 0.4228
vn -0.1478 -0.9711 0.1875
vn -0.0571 -0.9771 -0.2050
vn -0.5658 -0.2552 0.7840
vn -0.6730 -0.5414 0.5040
vn -0.6831 -0.1228 0.7200
vn -0.5585 0.3566 0.7490
vn -0.3897 0.6528 0.6496
vn -0.7907 -0.6117 0.0237
vn -0.4353 -0.8965 0.0828
vn -0.3784 -0.9109 -0.1648
vn -0.0396 -0.8991 -0.4360
vn -0.8294 -0.3951 0.3949
vn -0.8834 -0.0186 0.4682
vn -0.9766 -0.0085 0.2147
vn -0.5337 0.5943 0.6016
vn -0.6011 -0.7753 -0.1937
vn -0.8165 0.2610 0.5150
vn -0.0206 -0.7990 -0.6009
vn -0.9711 -0.1797 0.1574
vn -0.9583 -0.2800 0.0565
vn -0.3951 -0.7506 -0.5296
vn -0.8680 0.3983 0.2967
vn -0.9331 -0.1762 -0.3134
vn -0.2004 -0.7518 -0.6282
vn -0.9783 0.2071 -0.0104
vn -0.7833 -0.0360 -0.6206
vn -0.9420 0.1540 -0.2982
vn -0.6822 -0.4069 -0.6075
vn -0.8505 0.5201 0.0783
vn -0.4171 -0.6152 -0.6689
vn -0.6747 0.7075 0.2104
vn -0.2003 -0.6043 -0.7711
vn -0.8972 0.3126 -0.3119
vn -0.7799 0.4016 -0.4801
vn -0.7407 -0.1102 -0.6627
vn -0.7038 0.1474 -0.6950
vn -0.5333 -0.1873 -0.8249
vn -0.3836 0.2084 -0.8997
vn -0.2497 -0.3336 -0.9090
vn -0.6451 0.7467 -0.1620
vn 0.0148 -0.6317 -0.7751
vn -0.3831 0.8480 0.3663
vn -0.5029 0.5744 -0.6459
vn -0.2915 0.0460 -0.9555
vn -0.3806 0.9068 0.1814
vn -0.2471 -0.1274 -0.9606
vn -0.4586 0.8876 0.0431
vn 0.0065 -0.5010 -0.8654
vn 0.0252 0.1294 -0.9913
vn -0.4804 0.3880 -0.7866
vn -0.1814 0.3357 -0.9243
vn 0.0555 0.0160 -0.9983
vn -0.2836 0.9076 -0.3097
vn 0.1082 -0.2885 -0.9514
vn -0.2072 0.6732 -0.7098
vn -0.1075 0.5814 -0.8065
vt 0.781230 0.812500
vt 0.762032 0.875000
vt 0.685473 0.777944
vt 0.734697 0.375000
vt 0.703125 0.312500
vt 0.764235 0.312500
vt 0.741874 0.599249
vt 0.704616 0.531266
vt 0.763980 0.500000
vt 0.734375 0.000000
vt 0.879629 0.062500
vt 0.593677 0.062500
vt 0.670132 0.472235
vt 0.734536 0.437500
vt 0.734224 0.937500
vt 0.605595 0.875000
vt 0.658359 0.250000
vt 0.719918 0.218999
vt 0.734375 0.717281
vt 0.678319 0.660608
vt 0.606077 0.187500
vt 0.641330 0.592355
vt 0.623673 0.812500
vt 0.673680 0.375000
vt 0.639230 0.312500
vt 0.640625 1.000000
vt 0.479138 0.937500
vt 0.639064 0.437500
vt 0.612180 0.375000
vt 0.595563 0.750000
vt 0.606567 0.500000
vt 0.603325 0.667055
vt 0.578286 0.562500
vt 0.578286 0.437500
vt 0.577540 0.283466
vt 0.543444 0.396147
vt 0.512752 0.812500
vt 0.546915 0.655822
vt 0.503540 0.125000
vt 0.660224 0.125000
vt 0.544067 0.500000
vt 0.509405 0.537235
vt 0.515588 0.281661
vt 0.510998 0.724803
vt 0.449506 0.875000
vt 0.487180 0.625000
vt 0.453286 0.562500
vt 0.450317 0.500000
vt 0.485851 0.406417
vt 0.453088 0.281661
vt 0.455926 0.750000
vt 0.445771 0.665313
vt 0.799126 0.125000
vt 0.779637 0.187500
vt 0.402284 0.812500
vt 0.497588 0.187500
vt 0.386121 0.187500
vt 0.328120 0.062500
vt 0.453125 0.000000
vt 0.437500 0.406180
vt 0.347717 0.125000
vt 0.390588 0.718339
vt 0.293360 0.875000
vt 0.308534 0.812500
vt 0.316528 0.750000
vt 0.343750 0.656371
vt 0.393429 0.625000
vt 0.296915 0.655822
vt 0.343750 0.531273
vt 0.297036 0.562500
vt 0.294067 0.500000
vt 0.328125 1.000000
vt 0.230145 0.937500
vt 0.328286 0.437500
vt 0.296914 0.344178
vt 0.343750 0.343629
vt 0.265786 0.437500
vt 0.234338 0.281661
vt 0.296902 0.219059
vt 0.214815 0.187500
vt 0.237180 0.375000
vt 0.199790 0.812500
vt 0.237635 0.520573
vt 0.203286 0.437500
vt 0.237180 0.625000
vt 0.203286 0.562500
vt 0.190964 0.125000
vt 0.113605 0.062500
vt 0.169067 0.500000
vt 0.203125 0.000000
vt 0.137012 0.875000
vt 0.176363 0.337227
vt 0.171838 0.718339
vt 0.234338 0.718339
vt 0.148421 0.399333
vt 0.160278 0.250000
vt 0.121065 0.187500
vt 0.174680 0.625000
vt 0.134405 0.537235
vt 0.140625 1.000000
vt 0.030235 0.937500
vt 0.075252 0.812500
vt 0.102021 0.334687
vt 0.109536 0.437500
vt 0.066529 0.250000
vt 0.055088 0.153620
vt 0.112179 0.625000
vt 0.078286 0.562500
vt 0.075317 0.500000
vt 0.047036 0.437500
vt 0.032456 0.875000
vt 0.048167 0.750000
vt 0.108913 0.719958
vt 0.062500 0.658651
vt 0.015664 0.655822
vt 0.018885 0.520574
vt 0.000000 0.562500
vt 0.015625 0.000000
vt 0.000000 0.062500
vt 0.000000 0.399333
vt 0.046914 0.344178
vt 0.000000 0.784407
vt 0.000000 0.273040
vt 0.991904 0.273040
vt 0.992171 0.399333
vt 0.937867 0.282145
vt 1.000000 0.655822
vt 0.975379 0.784407
vt 0.953164 0.655822
vt 1.000000 0.500000
vt 0.984536 0.562500
vt 0.950317 0.500000
vt 0.953286 0.437500
vt 0.924679 0.375000
vt 0.915655 0.537235
vt 0.910279 0.750000
vt 0.906250 0.656371
vt 0.965747 0.187500
vt 0.868449 0.212346
vt 0.978825 0.875000
vt 0.921769 0.937500
vt 0.872374 0.843190
vt 0.887823 0.312500
vt 0.859536 0.562500
vt 0.856567 0.500000
vt 0.890786 0.437500
vt 0.855944 0.396148
vt 0.859414 0.655822
vt 0.939862 0.125000
vt 0.812867 0.282145
vt 0.814726 0.750000
vt 0.796945 0.653777
vt 0.828125 1.000000
vt 0.798190 0.375000
vt 0.797036 0.437500
vt 0.390786 0.562500
vt 0.387817 0.500000
vt 0.390786 0.437500
vt 0.390665 0.344178
vt 0.378980 0.250000
vt 0.000000 0.125000
vt 0.000000 0.187500
vt 0.801816 0.543181
s 0
f 2/1/1 6/2/1 13/3/1
f 11/4/2 14/5/2 4/6/2
f 8/7/3 9/8/3 3/9/3
f 5/10/4 127/11/4 44/12/4
f 9/8/5 16/13/5 10/14/5
f 139/15/6 32/16/6 6/2/6
f 14/5/7 21/17/7 12/18/7
f 7/19/8 15/20/8 8/7/8
f 12/18/9 21/17/9 31/21/9
f 15/20/10 18/22/10 9/8/10
f 32/16/11 22/23/11 13/3/11
f 14/5/12 17/24/12 20/25/12
f 139/15/13 1/26/13 59/27/13
f 19/28/14 25/29/14 17/24/14
f 22/23/15 27/30/15 13/3/15
f 16/13/16 18/22/16 24/31/16
f 18/22/17 23/32/17 28/33/17
f 24/31/18 29/34/18 19/28/18
f 20/25/19 25/29/19 30/35/19
f 20/25/20 30/35/20 21/17/20
f 29/34/21 35/36/21 25/29/21
f 32/16/22 41/37/22 22/23/22
f 23/32/23 27/30/23 33/38/23
f 31/21/24 51/39/24 26/40/24
f 24/31/25 28/33/25 34/41/25
f 28/33/26 33/38/26 37/42/26
f 34/41/27 35/36/27 29/34/27
f 30/35/28 35/36/28 38/43/28
f 41/37/29 36/44/29 27/30/29
f 32/16/30 59/27/30 40/45/30
f 37/42/31 42/46/31 47/47/31
f 37/42/32 47/47/32 48/48/32
f 38/43/33 43/49/33 50/50/33
f 41/37/34 45/51/34 36/44/34
f 36/44/35 45/51/35 46/52/35
f 26/40/36 146/53/36 145/54/36 12/18/36
f 41/37/37 40/45/37 52/55/37
f 39/56/38 50/50/38 64/57/38
f 44/12/39 51/39/39 76/58/39
f 5/59/40 44/12/40 76/58/40
f 48/48/41 49/60/41 43/49/41
f 64/57/42 73/61/42 51/39/42
f 52/55/43 54/62/43 45/51/43
f 59/27/44 77/63/44 40/45/44
f 52/55/45 77/63/45 67/64/45
f 54/62/46 68/65/46 60/66/46
f 54/62/47 60/66/47 55/67/47
f 60/66/48 68/65/48 69/68/48
f 61/69/49 65/70/49 70/71/49
f 59/27/50 1/72/50 82/73/50
f 66/74/51 71/75/51 62/76/51
f 70/71/52 75/77/52 66/74/52
f 71/75/53 81/78/53 72/79/53
f 72/79/54 81/78/54 87/80/54
f 75/77/55 80/81/55 71/75/55
f 67/64/56 77/63/56 88/82/56
f 71/75/57 80/81/57 81/78/57
f 74/83/58 85/84/58 75/77/58
f 74/83/59 79/85/59 83/86/59
f 96/87/60 111/88/60 76/58/60
f 74/83/61 83/86/61 84/89/61
f 5/90/62 76/58/62 111/88/62
f 77/63/63 82/73/63 92/91/63
f 85/84/64 86/92/64 80/81/64
f 88/82/65 89/93/65 78/94/65
f 84/89/66 95/95/66 85/84/66
f 85/84/67 95/95/67 86/92/67
f 87/80/68 91/96/68 100/97/68
f 83/86/69 90/98/69 93/99/69
f 82/73/70 1/100/70 131/101/70
f 92/91/71 105/102/71 88/82/71
f 86/92/72 95/95/72 99/103/72
f 94/104/73 99/103/73 95/95/73
f 99/103/74 109/105/74 91/96/74
f 100/97/75 110/106/75 96/87/75
f 93/99/76 98/107/76 102/108/76
f 93/99/77 102/108/77 103/109/77
f 103/109/78 108/110/78 94/104/78
f 131/101/79 118/111/79 92/91/79
f 105/102/80 106/112/80 97/113/80
f 100/97/81 109/105/81 110/106/81
f 97/113/82 101/114/82 98/107/82
f 101/114/83 106/112/83 112/115/83
f 107/116/84 112/115/84 115/117/84
f 5/118/85 111/88/85 127/119/85
f 107/116/86 113/120/86 108/110/86
f 108/110/87 113/120/87 104/121/87
f 105/102/88 118/111/88 114/122/88
f 104/121/89 113/120/89 116/123/89
f 105/102/90 114/122/90 106/112/90
f 104/121/91 116/123/91 109/105/91
f 116/124/92 113/125/92 126/126/92
f 112/127/93 114/128/93 119/129/93
f 107/130/94 115/131/94 120/132/94
f 121/133/95 125/134/95 113/125/95
f 115/131/96 119/129/96 124/135/96
f 119/129/97 128/136/97 123/137/97
f 122/138/98 126/126/98 137/139/98
f 118/140/99 131/141/99 132/142/99
f 118/140/100 132/142/100 114/128/100
f 126/126/101 125/134/101 130/143/101
f 124/135/102 134/144/102 135/145/102
f 129/146/103 136/147/103 125/134/103
f 130/143/104 137/139/104 126/126/104
f 123/137/105 128/136/105 133/148/105
f 137/139/106 146/53/106 117/149/106
f 135/145/107 136/147/107 129/146/107
f 130/143/108 136/147/108 138/150/108
f 132/142/109 140/151/109 128/136/109
f 133/148/110 140/151/110 141/152/110
f 137/139/111 138/150/111 145/54/111
f 131/141/112 1/153/112 139/15/112
f 138/150/113 144/154/113 4/6/113
f 140/151/114 2/1/114 7/19/114
f 4/6/115 12/18/115 138/150/115
f 141/152/116 7/19/116 8/7/116
f 3/9/117 10/14/117 143/155/117
f 3/9/118 9/8/118 10/14/118
f 7/19/119 2/1/119 13/3/119
f 4/6/120 14/5/120 12/18/120
f 44/12/121 127/11/121 146/53/121 26/40/121
f 17/24/122 11/4/122 10/14/122 16/13/122
f 23/32/123 15/20/123 13/3/123 27/30/123
f 6/2/124 32/16/124 13/3/124
f 11/4/125 17/24/125 14/5/125
f 7/19/126 13/3/126 15/20/126
f 9/8/127 8/7/127 15/20/127
f 21/17/128 14/5/128 20/25/128
f 12/18/129 31/21/129 26/40/129
f 9/8/130 18/22/130 16/13/130
f 16/13/131 19/28/131 17/24/131
f 16/13/132 24/31/132 19/28/132
f 139/15/133 59/27/133 32/16/133
f 20/25/134 17/24/134 25/29/134
f 38/43/135 39/56/135 31/21/135 30/35/135
f 15/20/136 23/32/136 18/22/136
f 21/17/137 30/35/137 31/21/137
f 24/31/138 18/22/138 28/33/138
f 19/28/139 29/34/139 25/29/139
f 24/31/140 34/41/140 29/34/140
f 30/35/141 25/29/141 35/36/141
f 22/23/142 41/37/142 27/30/142
f 28/33/143 23/32/143 33/38/143
f 44/12/144 26/40/144 51/39/144
f 43/49/145 35/36/145 34/41/145 37/42/145
f 51/39/146 31/21/146 39/56/146
f 34/41/147 28/33/147 37/42/147
f 33/38/148 27/30/148 36/44/148
f 32/16/149 40/45/149 41/37/149
f 38/43/150 35/36/150 43/49/150
f 33/38/151 36/44/151 42/46/151
f 37/42/152 33/38/152 42/46/152
f 55/67/153 56/156/153 47/47/153 46/52/153
f 36/44/154 46/52/154 42/46/154
f 37/42/155 48/48/155 43/49/155
f 39/56/156 38/43/156 50/50/156
f 50/50/157 43/49/157 49/60/157
f 41/37/158 52/55/158 45/51/158
f 39/56/159 64/57/159 51/39/159
f 47/47/160 42/46/160 46/52/160
f 56/156/161 57/157/161 48/48/161 47/47/161
f 51/39/162 73/61/162 76/58/162
f 58/158/163 49/60/163 48/48/163 57/157/163
f 66/74/164 58/158/164 57/157/164 61/69/164
f 49/60/165 58/158/165 53/159/165
f 50/50/166 49/60/166 53/159/166
f 50/50/167 53/159/167 63/160/167
f 46/52/168 45/51/168 54/62/168
f 64/57/169 50/50/169 63/160/169
f 46/52/170 54/62/170 55/67/170
f 40/45/171 77/63/171 52/55/171
f 57/157/172 56/156/172 61/69/172
f 62/76/173 53/159/173 58/158/173 66/74/173
f 68/65/174 54/62/174 52/55/174 67/64/174
f 60/66/175 61/69/175 56/156/175 55/67/175
f 53/159/176 62/76/176 63/160/176
f 72/79/177 63/160/177 62/76/177 71/75/177
f 69/68/178 65/70/178 61/69/178 60/66/178
f 64/57/179 63/160/179 72/79/179
f 64/57/180 72/79/180 73/61/180
f 96/87/181 73/61/181 72/79/181 87/80/181
f 61/69/182 70/71/182 66/74/182
f 59/27/183 82/73/183 77/63/183
f 66/74/184 75/77/184 71/75/184
f 69/68/185 68/65/185 78/94/185
f 69/68/186 78/94/186 79/85/186
f 79/85/187 74/83/187 65/70/187 69/68/187
f 78/94/188 68/65/188 67/64/188 88/82/188
f 76/58/189 73/61/189 96/87/189
f 70/71/190 65/70/190 74/83/190
f 70/71/191 74/83/191 75/77/191
f 90/98/192 79/85/192 78/94/192 89/93/192
f 75/77/193 85/84/193 80/81/193
f 87/80/194 81/78/194 91/96/194
f 98/107/195 90/98/195 89/93/195 97/113/195
f 83/86/196 79/85/196 90/98/196
f 74/83/197 84/89/197 85/84/197
f 77/63/198 92/91/198 88/82/198
f 81/78/199 80/81/199 86/92/199
f 81/78/200 86/92/200 91/96/200
f 87/80/201 100/97/201 96/87/201
f 84/89/202 83/86/202 93/99/202
f 94/104/203 95/95/203 84/89/203 93/99/203
f 93/99/204 90/98/204 98/107/204
f 97/113/205 89/93/205 88/82/205 105/102/205
f 82/73/206 131/101/206 92/91/206
f 104/121/207 99/103/207 94/104/207 108/110/207
f 86/92/208 99/103/208 91/96/208
f 100/97/209 91/96/209 109/105/209
f 96/87/210 110/106/210 111/88/210
f 93/99/211 103/109/211 94/104/211
f 102/108/212 98/107/212 101/114/212
f 112/115/213 107/116/213 102/108/213 101/114/213
f 92/91/214 118/111/214 105/102/214
f 99/103/215 104/121/215 109/105/215
f 97/113/216 106/112/216 101/114/216
f 127/119/217 111/88/217 110/106/217 117/161/217
f 103/109/218 102/108/218 107/116/218
f 103/109/219 107/116/219 108/110/219
f 116/123/220 122/162/220 110/106/220 109/105/220
f 112/115/221 106/112/221 114/122/221
f 121/133/222 113/125/222 107/130/222 120/132/222
f 110/106/223 122/162/223 117/161/223
f 115/131/224 112/127/224 119/129/224
f 129/146/225 121/133/225 120/132/225 124/135/225
f 120/132/226 115/131/226 124/135/226
f 126/126/227 113/125/227 125/134/227
f 119/129/228 114/128/228 128/136/228
f 122/138/229 116/124/229 126/126/229
f 114/128/230 132/142/230 128/136/230
f 117/149/231 122/138/231 137/139/231
f 124/135/232 119/129/232 123/137/232
f 133/148/233 134/144/233 124/135/233 123/137/233
f 121/133/234 129/146/234 125/134/234
f 124/135/235 135/145/235 129/146/235
f 130/143/236 125/134/236 136/147/236
f 143/155/237 136/147/237 135/145/237 142/163/237
f 130/143/238 138/150/238 137/139/238
f 133/148/239 128/136/239 140/151/239
f 117/149/240 146/53/240 127/11/240
f 139/15/241 6/2/241 132/142/241 131/141/241
f 141/152/242 142/163/242 134/144/242 133/148/242
f 136/147/243 143/155/243 144/154/243
f 132/142/244 6/2/244 2/1/244
f 138/150/245 136/147/245 144/154/245
f 132/142/246 2/1/246 140/151/246
f 137/139/247 145/54/247 146/53/247
f 11/4/248 144/154/248 143/155/248 10/14/248
f 135/145/249 134/144/249 142/163/249
f 142/163/250 3/9/250 143/155/250
f 144/154/251 11/4/251 4/6/251
f 141/152/252 140/151/252 7/19/252
f 145/54/253 138/150/253 12/18/253
f 142/163/254 141/152/254 8/7/254
f 3/9/255 142/163/255 8/7/255
