# Blender 5.0.0
# www.blender.org
mtllib Walk_Forward0027.mtl
o Sphere
v -0.808772 5.807073 2.372793
v -1.193851 5.356421 2.095115
v -1.255715 4.338357 1.991675
v -0.995736 3.939848 2.256720
v -0.305880 4.015913 2.916209
v -1.058192 5.519845 2.136249
v -1.149962 5.031336 1.880277
v -1.193606 4.640029 1.856345
v -0.960237 4.459492 1.783854
v -1.052067 4.181318 1.956439
v -0.973291 4.044871 2.051904
v -0.674680 3.855746 2.359057
v -0.905288 5.283432 1.876825
v -0.736101 3.967385 2.095058
v -0.879765 4.901300 1.743205
v -0.711159 4.337681 1.785841
v -0.646689 4.109009 1.934070
v -0.632369 4.761581 1.706384
v -0.487575 4.306527 1.826186
v -0.401150 4.050350 2.058292
v -0.449904 3.935943 2.214199
v -0.702510 5.440536 1.925627
v -0.485437 5.062613 1.754707
v -0.334167 4.564183 1.776433
v -0.286553 4.231659 1.941648
v -0.368807 3.896712 2.549966
v -0.533516 5.333009 1.852724
v -0.220478 4.830707 1.790024
v -0.121338 4.477597 1.897153
v -0.080207 4.145709 2.184250
v -0.220667 3.969953 2.385325
v -0.704885 5.615612 2.060849
v -0.175551 5.195318 1.867922
v 0.026066 4.762526 1.924257
v 0.071614 4.481352 2.039542
v -0.154522 5.473574 2.013995
v 0.156736 4.984986 2.021831
v 0.165484 4.303473 2.344058
v 0.093261 4.170458 2.574884
v -0.423245 5.810602 2.276706
v -0.364830 5.644049 2.083390
v 0.116739 5.304700 2.088283
v 0.319558 4.699515 2.253826
v -0.248781 3.966863 2.741055
v -0.079175 5.660190 2.216330
v 0.145831 5.523377 2.258837
v 0.311812 5.255309 2.276898
v 0.386253 5.092043 2.339842
v 0.439029 4.854709 2.482778
v 0.331837 4.474204 2.573842
v -0.027371 4.077149 2.681060
v -0.206170 5.843329 2.395071
v 0.457183 4.807902 2.792808
v 0.065950 5.768882 2.493590
v 0.278472 5.586460 2.547974
v 0.384326 5.445857 2.614076
v 0.452992 5.284316 2.684660
v 0.483466 5.092747 2.721205
v -0.634209 5.810758 2.286724
v 0.174957 5.754966 2.763453
v 0.372816 5.478489 2.913624
v 0.413311 4.906014 3.021014
v 0.334022 4.553163 2.901711
v 0.215161 4.370808 2.899835
v 0.213008 5.622647 3.097126
v 0.405075 5.228822 3.054860
v -0.280554 5.954395 2.674824
v -0.101058 5.918659 2.750162
v 0.064519 5.819642 2.970906
v 0.267963 5.459419 3.174051
v 0.303611 4.968066 3.229264
v 0.173224 4.561034 3.180442
v 0.053527 4.264030 2.998365
v -0.016441 5.543884 3.379884
v 0.187714 5.289708 3.334197
v -0.122050 4.132931 2.985324
v -0.478769 5.955960 2.594189
v -0.291644 5.921309 3.059806
v -0.129214 5.778256 3.230282
v 0.064501 5.088297 3.439607
v 0.029688 4.776814 3.407032
v -0.697548 5.903902 2.532923
v -0.234666 5.619244 3.409559
v -0.386280 5.404271 3.528238
v -0.135526 5.266135 3.516688
v -0.247682 4.913343 3.547437
v -0.099475 4.471785 3.321210
v -0.565993 5.960534 2.889091
v -0.575890 5.868651 3.155116
v -0.464195 5.720082 3.350528
v -0.296603 4.609847 3.467301
v -0.802019 5.904955 2.739504
v -0.629263 5.436383 3.503875
v -0.708665 5.083687 3.553195
v -0.440200 5.061527 3.581484
v -0.206439 4.281307 3.225499
v -0.881769 5.757394 3.146258
v -0.828099 5.591328 3.347353
v -0.643981 4.760907 3.531855
v -0.421471 4.379538 3.362650
v -1.094571 5.533118 3.201382
v -0.993315 5.345389 3.391848
v -0.968503 5.164493 3.454214
v -0.939102 4.627669 3.421079
v -0.995807 5.804966 2.861972
v -1.130827 5.663272 2.966137
v -1.294575 5.030268 3.243424
v -1.064834 4.890983 3.413981
v -0.704713 4.431679 3.394808
v -0.591586 4.187343 3.227118
v -0.346132 4.106466 3.087893
v -1.313198 5.382414 3.061402
v -1.257494 4.597703 3.217883
v -1.303468 5.558652 2.708278
v -1.435333 5.027632 3.058646
v -1.016013 4.294064 3.207200
v -0.696278 3.997410 2.992855
v -1.097815 5.736408 2.596211
v -1.505600 5.187335 2.800506
v -1.500905 4.730944 2.949159
v -1.426464 4.567677 3.012103
v -0.853337 4.095352 3.085694
v -1.564271 5.053891 2.573342
v -1.583390 4.725373 2.733384
v -1.373605 4.322280 2.902124
v -1.142583 4.170234 3.013142
v -0.513009 3.950312 2.894981
v -1.446416 5.331316 2.511187
v -1.498978 4.377130 2.674925
v -1.255474 4.102383 2.762780
v -0.973480 5.782109 2.471383
v -1.256788 5.506662 2.336789
v -1.553675 4.945965 2.342166
v -1.577574 4.653859 2.397247
v -1.543048 4.462283 2.430886
v -1.419247 4.202541 2.534086
v -0.979105 3.941179 2.771549
v -1.088891 3.931005 2.486570
v -0.916434 5.676247 2.224468
v -1.365647 5.186948 2.145933
v -1.418263 4.854920 2.059738
v -1.427055 4.484442 2.103765
v -1.327661 4.200339 2.191878
v -1.232418 4.059593 2.280565
v -0.771554 3.853934 2.544760
v -0.649462 3.873072 2.700960
vn -0.4202 0.5336 -0.7339
vn -0.1976 -0.8633 -0.4643
vn -0.4741 -0.2773 -0.8357
vn 0.2528 -0.9071 0.3365
vn -0.2187 -0.4613 -0.8599
vn -0.3242 0.6703 -0.6675
vn 0.0669 -0.9133 -0.4018
vn -0.4109 0.1012 -0.9060
vn 0.2492 -0.9578 -0.1435
vn -0.1788 -0.0578 -0.9822
vn -0.2704 0.5862 -0.7637
vn 0.1253 -0.7784 -0.6152
vn -0.2724 0.8111 -0.5177
vn 0.2199 -0.5981 -0.7707
vn -0.1151 0.4272 -0.8968
vn 0.0962 -0.2006 -0.9749
vn 0.1880 0.0656 -0.9800
vn 0.3402 -0.3695 -0.8647
vn 0.4356 -0.6654 -0.6062
vn 0.4123 -0.7912 -0.4516
vn 0.5267 -0.4807 -0.7011
vn 0.0013 0.6113 -0.7914
vn 0.1785 0.3632 -0.9144
vn 0.4611 -0.8871 0.0202
vn 0.4423 -0.1435 -0.8853
vn 0.4815 0.1260 -0.8674
vn 0.5812 -0.2263 -0.7816
vn 0.6746 -0.5277 -0.5162
vn 0.1567 0.5321 -0.8321
vn -0.0302 0.7610 -0.6480
vn 0.7060 0.2277 -0.6706
vn 0.7845 0.1234 -0.6077
vn 0.8566 -0.4058 -0.3186
vn 0.2915 0.6466 -0.7049
vn 0.4679 0.5560 -0.6870
vn 0.1050 -0.9936 0.0426
vn 0.2112 0.7712 -0.6006
vn 0.7837 -0.6153 0.0853
vn 0.4894 -0.8180 0.3022
vn 0.3982 -0.8414 0.3654
vn 0.9008 -0.0588 -0.4302
vn 0.6383 -0.7233 0.2633
vn 0.3933 0.7672 -0.5066
vn -0.0192 0.9078 -0.4190
vn 0.1425 0.9324 -0.3323
vn 0.5091 0.8453 -0.1621
vn 0.6670 0.7077 -0.2329
vn 0.5100 0.8602 0.0033
vn 0.8184 0.4462 0.3622
vn -0.2127 0.8945 -0.3932
vn 0.8811 -0.0270 0.4722
vn 0.7953 0.1724 0.5812
vn 0.6561 -0.2936 0.6952
vn 0.5212 -0.4284 0.7381
vn 0.6581 -0.0085 0.7529
vn 0.0127 0.9999 -0.0118
vn 0.6096 -0.1495 0.7785
vn 0.4671 0.2213 0.8560
vn 0.3105 0.6131 0.7264
vn 0.3517 -0.7361 0.5783
vn 0.2394 0.3344 0.9115
vn 0.3236 -0.8035 0.4997
vn -0.2017 0.9736 -0.1070
vn 0.3393 -0.0259 0.9403
vn -0.0664 0.9439 0.3235
vn 0.1192 0.1341 0.9838
vn 0.1923 0.0244 0.9810
vn 0.2520 -0.5103 0.8223
vn -0.0138 0.4816 0.8763
vn -0.3236 0.8923 -0.3148
vn -0.3445 0.9165 0.2031
vn 0.0321 -0.1840 0.9824
vn -0.1116 -0.0878 0.9899
vn 0.0041 -0.3849 0.9229
vn 0.1645 -0.6615 0.7317
vn -0.3589 0.3942 0.8461
vn -0.3433 0.2637 0.9014
vn -0.3589 -0.0109 0.9333
vn -0.4468 0.8865 -0.1205
vn -0.5397 0.7679 0.3450
vn -0.0115 -0.5694 0.8220
vn -0.4791 0.6098 0.6314
vn -0.6827 0.5897 0.4315
vn -0.7698 0.2605 0.5827
vn 0.2159 -0.8418 0.4946
vn -0.6313 -0.0995 0.7691
vn -0.5098 -0.2210 0.8314
vn -0.6385 0.7682 0.0469
vn -0.4664 -0.3987 0.7896
vn -0.6613 0.7361 0.1441
vn -0.2963 -0.4661 0.8336
vn -0.5672 -0.4748 0.6729
vn -0.8293 0.5088 0.2311
vn -0.7942 -0.0480 0.6057
vn -0.6709 -0.4188 0.6120
vn -0.9394 0.1110 0.3244
vn -0.9198 0.3923 0.0071
vn -0.3339 -0.7864 0.5196
vn -0.5844 0.7511 -0.3071
vn -0.6983 0.6916 -0.1845
vn -0.6317 -0.6277 0.4549
vn -0.9846 -0.1739 0.0200
vn -0.7655 -0.5778 0.2829
vn -0.4669 -0.7775 0.4212
vn -0.9168 0.3441 -0.2027
vn -0.1100 -0.9207 0.3745
vn -0.9049 -0.4253 0.0150
vn -0.6223 -0.7756 0.1059
vn -0.7908 0.4890 -0.3682
vn -0.8361 0.2582 -0.4841
vn -0.2569 -0.9572 0.1331
vn -0.3850 0.8127 -0.4374
vn -0.4580 -0.8616 -0.2188
vn -0.5914 0.3875 -0.7072
vn -0.2142 -0.9689 -0.1241
vn -0.6036 0.1156 -0.7888
vn -0.5515 -0.5809 -0.5987
vn -0.4281 -0.3702 -0.8244
vn -0.4670 0.4428 -0.7654
vn -0.1269 -0.9238 -0.3611
vn 0.1997 -0.9521 0.2314
vn -0.1489 -0.5887 -0.7945
vn -0.1042 0.3223 -0.9409
vn -0.3191 0.5993 -0.7342
vn -0.1083 -0.7158 -0.6899
vn -0.3159 0.2943 -0.9020
vn -0.3172 -0.0294 -0.9479
vn 0.1417 -0.8187 -0.5565
vn 0.2499 -0.9480 -0.1969
vn -0.0754 -0.1702 -0.9825
vn 0.0794 -0.5264 -0.8465
vn 0.1354 -0.2649 -0.9547
vn -0.2368 0.7706 -0.5917
vn 0.2285 -0.6248 -0.7466
vn 0.6222 -0.7487 -0.2289
vn -0.0448 0.1796 -0.9827
vn 0.4251 -0.8075 -0.4089
vn 0.2049 -0.0375 -0.9781
vn 0.3465 -0.3873 -0.8544
vn 0.4429 -0.1450 -0.8848
vn 0.5457 -0.5275 -0.6511
vn 0.0243 0.5869 -0.8093
vn 0.2738 0.1686 -0.9469
vn 0.4544 -0.8898 0.0412
vn 0.7247 -0.1462 -0.6733
vn 0.5683 -0.8194 -0.0744
vn 0.4950 0.0883 -0.8644
vn 0.2072 0.4424 -0.8726
vn -0.0196 0.7545 -0.6560
vn 0.7756 -0.4109 -0.4791
vn 0.4592 0.3855 -0.8004
vn 0.5273 0.2356 -0.8164
vn 0.7886 0.4351 -0.4345
vn 0.5005 0.4900 -0.7137
vn 0.8125 -0.0103 -0.5829
vn 0.7815 -0.6142 -0.1094
vn 0.9116 -0.3189 -0.2595
vn 0.2395 0.7581 -0.6066
vn 0.6929 -0.7003 0.1718
vn 0.6899 0.3859 -0.6125
vn 0.9059 0.2625 -0.3323
vn 0.5530 -0.7719 0.3136
vn 0.9655 0.0843 -0.2463
vn 0.9674 0.2001 0.1552
vn 0.9911 -0.1102 -0.0747
vn 0.9512 -0.2919 -0.0998
vn 0.9112 -0.4018 0.0907
vn 0.5110 0.6751 -0.5321
vn 0.8306 -0.5427 0.1252
vn 0.6482 0.6258 -0.4339
vn 0.0823 0.9115 -0.4029
vn 0.9214 0.3886 -0.0069
vn 0.9757 -0.0154 0.2187
vn 0.3303 0.8987 -0.2884
vn 0.8178 0.5740 -0.0415
vn 0.9020 -0.3058 0.3049
vn 0.8039 -0.3311 0.4941
vn 0.7451 0.6447 0.1707
vn 0.7480 -0.4921 0.4454
vn 0.6682 -0.5656 0.4833
vn 0.5105 -0.5925 0.6232
vn 0.8692 0.3237 0.3737
vn -0.1132 0.9193 -0.3769
vn 0.7955 0.0912 0.5991
vn 0.3120 0.9321 0.1841
vn 0.3416 0.8544 0.3915
vn 0.5135 0.6609 0.5473
vn 0.1155 0.9894 0.0884
vn 0.4602 -0.6739 0.5780
vn 0.6007 0.4973 0.6260
vn 0.6144 0.3680 0.6979
vn 0.0627 0.8028 0.5929
vn 0.4763 0.1610 0.8644
vn 0.3563 -0.3898 0.8492
vn -0.2626 0.6995 0.6646
vn 0.1290 0.7030 0.6994
vn 0.2332 0.3474 0.9083
vn -0.1862 0.9800 -0.0703
vn 0.3920 -0.1389 0.9094
vn 0.3151 -0.2894 0.9039
vn 0.2589 -0.5458 0.7969
vn -0.0217 0.4949 0.8687
vn -0.0841 0.1612 0.9833
vn -0.2032 0.5545 0.8070
vn -0.3388 0.8948 0.2909
vn -0.3614 0.9134 -0.1874
vn -0.3023 -0.1212 0.9455
vn 0.0639 -0.2644 0.9623
vn 0.0246 -0.4246 0.9051
vn 0.1713 -0.6902 0.7030
vn -0.2949 0.1971 0.9350
vn -0.5010 0.4682 0.7278
vn -0.6625 0.3201 0.6772
vn -0.4791 0.8767 -0.0423
vn -0.1878 -0.3477 0.9186
vn -0.5850 0.6681 0.4598
vn 0.0886 -0.8007 0.5924
vn -0.5871 0.1907 0.7867
vn -0.5636 0.0775 0.8224
vn -0.1910 -0.6171 0.7633
vn -0.7623 0.5873 0.2721
vn -0.7620 -0.1025 0.6394
vn -0.0862 -0.7547 0.6504
vn -0.8610 0.2932 0.4157
vn -0.8959 -0.2752 0.3487
vn -0.9321 0.0752 0.3544
vn -0.6139 -0.4691 0.6349
vn -0.8694 0.4896 0.0658
vn -0.3391 -0.6770 0.6532
vn -0.7529 0.6321 -0.1831
vn -0.2254 -0.8359 0.5005
vn -0.9755 0.1396 0.1700
vn -0.9975 0.0533 -0.0457
vn -0.8520 -0.3557 0.3842
vn -0.9647 -0.2485 0.0875
vn -0.7574 -0.5875 0.2851
vn -0.8507 -0.4466 -0.2771
vn -0.4966 -0.8393 0.2213
vn -0.8554 0.3884 -0.3427
vn -0.0297 -0.9213 0.3877
vn -0.5127 0.7342 -0.4450
vn -0.8992 -0.0210 -0.4370
vn -0.7500 -0.6315 -0.1967
vn -0.5798 0.6156 -0.5337
vn -0.6377 -0.7695 -0.0360
vn -0.6764 0.5335 -0.5078
vn -0.1485 -0.9609 0.2338
vn -0.5076 -0.6747 -0.5358
vn -0.9136 -0.2242 -0.3391
vn -0.7202 -0.4226 -0.5502
vn -0.4392 -0.7790 -0.4476
vn -0.6554 0.2854 -0.6993
vn -0.2133 -0.9695 -0.1207
vn -0.7042 -0.0673 -0.7068
vn -0.6485 -0.1964 -0.7354
vt 0.781230 0.812500
vt 0.762032 0.875000
vt 0.685473 0.777944
vt 0.734697 0.375000
vt 0.703125 0.312500
vt 0.764235 0.312500
vt 0.741874 0.599249
vt 0.704616 0.531266
vt 0.763980 0.500000
vt 0.734375 0.000000
vt 0.879629 0.062500
vt 0.593677 0.062500
vt 0.670132 0.472235
vt 0.734536 0.437500
vt 0.734224 0.937500
vt 0.605595 0.875000
vt 0.658359 0.250000
vt 0.719918 0.218999
vt 0.734375 0.717281
vt 0.678319 0.660608
vt 0.606077 0.187500
vt 0.641330 0.592355
vt 0.623673 0.812500
vt 0.673680 0.375000
vt 0.639230 0.312500
vt 0.640625 1.000000
vt 0.479138 0.937500
vt 0.639064 0.437500
vt 0.612180 0.375000
vt 0.595563 0.750000
vt 0.606567 0.500000
vt 0.603325 0.667055
vt 0.578286 0.562500
vt 0.578286 0.437500
vt 0.577540 0.283466
vt 0.543444 0.396147
vt 0.512752 0.812500
vt 0.546915 0.655822
vt 0.503540 0.125000
vt 0.660224 0.125000
vt 0.544067 0.500000
vt 0.509405 0.537235
vt 0.515588 0.281661
vt 0.510998 0.724803
vt 0.449506 0.875000
vt 0.487180 0.625000
vt 0.453286 0.562500
vt 0.450317 0.500000
vt 0.485851 0.406417
vt 0.453088 0.281661
vt 0.455926 0.750000
vt 0.445771 0.665313
vt 0.799126 0.125000
vt 0.779637 0.187500
vt 0.402284 0.812500
vt 0.497588 0.187500
vt 0.386121 0.187500
vt 0.328120 0.062500
vt 0.453125 0.000000
vt 0.437500 0.406180
vt 0.347717 0.125000
vt 0.390588 0.718339
vt 0.293360 0.875000
vt 0.308534 0.812500
vt 0.316528 0.750000
vt 0.343750 0.656371
vt 0.393429 0.625000
vt 0.296915 0.655822
vt 0.343750 0.531273
vt 0.297036 0.562500
vt 0.294067 0.500000
vt 0.328125 1.000000
vt 0.230145 0.937500
vt 0.328286 0.437500
vt 0.296914 0.344178
vt 0.343750 0.343629
vt 0.265786 0.437500
vt 0.234338 0.281661
vt 0.296902 0.219059
vt 0.214815 0.187500
vt 0.237180 0.375000
vt 0.199790 0.812500
vt 0.237635 0.520573
vt 0.203286 0.437500
vt 0.237180 0.625000
vt 0.203286 0.562500
vt 0.190964 0.125000
vt 0.113605 0.062500
vt 0.169067 0.500000
vt 0.203125 0.000000
vt 0.137012 0.875000
vt 0.176363 0.337227
vt 0.171838 0.718339
vt 0.234338 0.718339
vt 0.148421 0.399333
vt 0.160278 0.250000
vt 0.121065 0.187500
vt 0.174680 0.625000
vt 0.134405 0.537235
vt 0.140625 1.000000
vt 0.030235 0.937500
vt 0.075252 0.812500
vt 0.102021 0.334687
vt 0.109536 0.437500
vt 0.066529 0.250000
vt 0.055088 0.153620
vt 0.112179 0.625000
vt 0.078286 0.562500
vt 0.075317 0.500000
vt 0.047036 0.437500
vt 0.032456 0.875000
vt 0.048167 0.750000
vt 0.108913 0.719958
vt 0.062500 0.658651
vt 0.015664 0.655822
vt 0.018885 0.520574
vt 0.000000 0.562500
vt 0.015625 0.000000
vt 0.000000 0.062500
vt 0.000000 0.399333
vt 0.046914 0.344178
vt 0.000000 0.784407
vt 0.000000 0.273040
vt 0.991904 0.273040
vt 0.992171 0.399333
vt 0.937867 0.282145
vt 1.000000 0.655822
vt 0.975379 0.784407
vt 0.953164 0.655822
vt 1.000000 0.500000
vt 0.984536 0.562500
vt 0.950317 0.500000
vt 0.953286 0.437500
vt 0.924679 0.375000
vt 0.915655 0.537235
vt 0.910279 0.750000
vt 0.906250 0.656371
vt 0.965747 0.187500
vt 0.868449 0.212346
vt 0.978825 0.875000
vt 0.921769 0.937500
vt 0.872374 0.843190
vt 0.887823 0.312500
vt 0.859536 0.562500
vt 0.856567 0.500000
vt 0.890786 0.437500
vt 0.855944 0.396148
vt 0.859414 0.655822
vt 0.939862 0.125000
vt 0.812867 0.282145
vt 0.814726 0.750000
vt 0.796945 0.653777
vt 0.828125 1.000000
vt 0.798190 0.375000
vt 0.797036 0.437500
vt 0.390786 0.562500
vt 0.387817 0.500000
vt 0.390786 0.437500
vt 0.390665 0.344178
vt 0.378980 0.250000
vt 0.000000 0.125000
vt 0.000000 0.187500
vt 0.801816 0.543181
s 0
f 2/1/1 6/2/1 13/3/1
f 11/4/2 14/5/2 4/6/2
f 8/7/3 9/8/3 3/9/3
f 5/10/4 127/11/4 44/12/4
f 9/8/5 16/13/5 10/14/5
f 139/15/6 32/16/6 6/2/6
f 14/5/7 21/17/7 12/18/7
f 7/19/8 15/20/8 8/7/8
f 12/18/9 21/17/9 31/21/9
f 15/20/10 18/22/10 9/8/10
f 32/16/11 22/23/11 13/3/11
f 14/5/12 17/24/12 20/25/12
f 139/15/13 1/26/13 59/27/13
f 19/28/14 25/29/14 17/24/14
f 22/23/15 27/30/15 13/3/15
f 16/13/16 18/22/16 24/31/16
f 18/22/17 23/32/17 28/33/17
f 24/31/18 29/34/18 19/28/18
f 20/25/19 25/29/19 30/35/19
f 20/25/20 30/35/20 21/17/20
f 29/34/21 35/36/21 25/29/21
f 32/16/22 41/37/22 22/23/22
f 23/32/23 27/30/23 33/38/23
f 31/21/24 51/39/24 26/40/24
f 24/31/25 28/33/25 34/41/25
f 28/33/26 33/38/26 37/42/26
f 34/41/27 35/36/27 29/34/27
f 30/35/28 35/36/28 38/43/28
f 41/37/29 36/44/29 27/30/29
f 32/16/30 59/27/30 40/45/30
f 37/42/31 42/46/31 47/47/31
f 37/42/32 47/47/32 48/48/32
f 38/43/33 43/49/33 50/50/33
f 41/37/34 45/51/34 36/44/34
f 36/44/35 45/51/35 46/52/35
f 26/40/36 146/53/36 145/54/36 12/18/36
f 41/37/37 40/45/37 52/55/37
f 39/56/38 50/50/38 64/57/38
f 44/12/39 51/39/39 76/58/39
f 5/59/40 44/12/40 76/58/40
f 48/48/41 49/60/41 43/49/41
f 64/57/42 73/61/42 51/39/42
f 52/55/43 54/62/43 45/51/43
f 59/27/44 77/63/44 40/45/44
f 52/55/45 77/63/45 67/64/45
f 54/62/46 68/65/46 60/66/46
f 54/62/47 60/66/47 55/67/47
f 60/66/48 68/65/48 69/68/48
f 61/69/49 65/70/49 70/71/49
f 59/27/50 1/72/50 82/73/50
f 66/74/51 71/75/51 62/76/51
f 70/71/52 75/77/52 66/74/52
f 71/75/53 81/78/53 72/79/53
f 72/79/54 81/78/54 87/80/54
f 75/77/55 80/81/55 71/75/55
f 67/64/56 77/63/56 88/82/56
f 71/75/57 80/81/57 81/78/57
f 74/83/58 85/84/58 75/77/58
f 74/83/59 79/85/59 83/86/59
f 96/87/60 111/88/60 76/58/60
f 74/83/61 83/86/61 84/89/61
f 5/90/62 76/58/62 111/88/62
f 77/63/63 82/73/63 92/91/63
f 85/84/64 86/92/64 80/81/64
f 88/82/65 89/93/65 78/94/65
f 84/89/66 95/95/66 85/84/66
f 85/84/67 95/95/67 86/92/67
f 87/80/68 91/96/68 100/97/68
f 83/86/69 90/98/69 93/99/69
f 82/73/70 1/100/70 131/101/70
f 92/91/71 105/102/71 88/82/71
f 86/92/72 95/95/72 99/103/72
f 94/104/73 99/103/73 95/95/73
f 99/103/74 109/105/74 91/96/74
f 100/97/75 110/106/75 96/87/75
f 93/99/76 98/107/76 102/108/76
f 93/99/77 102/108/77 103/109/77
f 103/109/78 108/110/78 94/104/78
f 131/101/79 118/111/79 92/91/79
f 105/102/80 106/112/80 97/113/80
f 100/97/81 109/105/81 110/106/81
f 97/113/82 101/114/82 98/107/82
f 101/114/83 106/112/83 112/115/83
f 107/116/84 112/115/84 115/117/84
f 5/118/85 111/88/85 127/119/85
f 107/116/86 113/120/86 108/110/86
f 108/110/87 113/120/87 104/121/87
f 105/102/88 118/111/88 114/122/88
f 104/121/89 113/120/89 116/123/89
f 105/102/90 114/122/90 106/112/90
f 104/121/91 116/123/91 109/105/91
f 116/124/92 113/125/92 126/126/92
f 112/127/93 114/128/93 119/129/93
f 107/130/94 115/131/94 120/132/94
f 121/133/95 125/134/95 113/125/95
f 115/131/96 119/129/96 124/135/96
f 119/129/97 128/136/97 123/137/97
f 122/138/98 126/126/98 137/139/98
f 118/140/99 131/141/99 132/142/99
f 118/140/100 132/142/100 114/128/100
f 126/126/101 125/134/101 130/143/101
f 124/135/102 134/144/102 135/145/102
f 129/146/103 136/147/103 125/134/103
f 130/143/104 137/139/104 126/126/104
f 123/137/105 128/136/105 133/148/105
f 137/139/106 146/53/106 117/149/106
f 135/145/107 136/147/107 129/146/107
f 130/143/108 136/147/108 138/150/108
f 132/142/109 140/151/109 128/136/109
f 133/148/110 140/151/110 141/152/110
f 137/139/111 138/150/111 145/54/111
f 131/141/112 1/153/112 139/15/112
f 138/150/113 144/154/113 4/6/113
f 140/151/114 2/1/114 7/19/114
f 4/6/115 12/18/115 138/150/115
f 141/152/116 7/19/116 8/7/116
f 3/9/117 10/14/117 143/155/117
f 3/9/118 9/8/118 10/14/118
f 7/19/119 2/1/119 13/3/119
f 4/6/120 14/5/120 12/18/120
f 44/12/121 127/11/121 146/53/121 26/40/121
f 17/24/122 11/4/122 10/14/122 16/13/122
f 23/32/123 15/20/123 13/3/123 27/30/123
f 6/2/124 32/16/124 13/3/124
f 11/4/125 17/24/125 14/5/125
f 7/19/126 13/3/126 15/20/126
f 9/8/127 8/7/127 15/20/127
f 21/17/128 14/5/128 20/25/128
f 12/18/129 31/21/129 26/40/129
f 9/8/130 18/22/130 16/13/130
f 16/13/131 19/28/131 17/24/131
f 16/13/132 24/31/132 19/28/132
f 139/15/133 59/27/133 32/16/133
f 20/25/134 17/24/134 25/29/134
f 38/43/135 39/56/135 31/21/135 30/35/135
f 15/20/136 23/32/136 18/22/136
f 21/17/137 30/35/137 31/21/137
f 24/31/138 18/22/138 28/33/138
f 19/28/139 29/34/139 25/29/139
f 24/31/140 34/41/140 29/34/140
f 30/35/141 25/29/141 35/36/141
f 22/23/142 41/37/142 27/30/142
f 28/33/143 23/32/143 33/38/143
f 44/12/144 26/40/144 51/39/144
f 43/49/145 35/36/145 34/41/145 37/42/145
f 51/39/146 31/21/146 39/56/146
f 34/41/147 28/33/147 37/42/147
f 33/38/148 27/30/148 36/44/148
f 32/16/149 40/45/149 41/37/149
f 38/43/150 35/36/150 43/49/150
f 33/38/151 36/44/151 42/46/151
f 37/42/152 33/38/152 42/46/152
f 55/67/153 56/156/153 47/47/153 46/52/153
f 36/44/154 46/52/154 42/46/154
f 37/42/155 48/48/155 43/49/155
f 39/56/156 38/43/156 50/50/156
f 50/50/157 43/49/157 49/60/157
f 41/37/158 52/55/158 45/51/158
f 39/56/159 64/57/159 51/39/159
f 47/47/160 42/46/160 46/52/160
f 56/156/161 57/157/161 48/48/161 47/47/161
f 51/39/162 73/61/162 76/58/162
f 58/158/163 49/60/163 48/48/163 57/157/163
f 66/74/164 58/158/164 57/157/164 61/69/164
f 49/60/165 58/158/165 53/159/165
f 50/50/166 49/60/166 53/159/166
f 50/50/167 53/159/167 63/160/167
f 46/52/168 45/51/168 54/62/168
f 64/57/169 50/50/169 63/160/169
f 46/52/170 54/62/170 55/67/170
f 40/45/171 77/63/171 52/55/171
f 57/157/172 56/156/172 61/69/172
f 62/76/173 53/159/173 58/158/173 66/74/173
f 68/65/174 54/62/174 52/55/174 67/64/174
f 60/66/175 61/69/175 56/156/175 55/67/175
f 53/159/176 62/76/176 63/160/176
f 72/79/177 63/160/177 62/76/177 71/75/177
f 69/68/178 65/70/178 61/69/178 60/66/178
f 64/57/179 63/160/179 72/79/179
f 64/57/180 72/79/180 73/61/180
f 96/87/181 73/61/181 72/79/181 87/80/181
f 61/69/182 70/71/182 66/74/182
f 59/27/183 82/73/183 77/63/183
f 66/74/184 75/77/184 71/75/184
f 69/68/185 68/65/185 78/94/185
f 69/68/186 78/94/186 79/85/186
f 79/85/187 74/83/187 65/70/187 69/68/187
f 78/94/188 68/65/188 67/64/188 88/82/188
f 76/58/189 73/61/189 96/87/189
f 70/71/190 65/70/190 74/83/190
f 70/71/191 74/83/191 75/77/191
f 90/98/192 79/85/192 78/94/192 89/93/192
f 75/77/193 85/84/193 80/81/193
f 87/80/194 81/78/194 91/96/194
f 98/107/195 90/98/195 89/93/195 97/113/195
f 83/86/196 79/85/196 90/98/196
f 74/83/197 84/89/197 85/84/197
f 77/63/198 92/91/198 88/82/198
f 81/78/199 80/81/199 86/92/199
f 81/78/200 86/92/200 91/96/200
f 87/80/201 100/97/201 96/87/201
f 84/89/202 83/86/202 93/99/202
f 94/104/203 95/95/203 84/89/203 93/99/203
f 93/99/204 90/98/204 98/107/204
f 97/113/205 89/93/205 88/82/205 105/102/205
f 82/73/206 131/101/206 92/91/206
f 104/121/207 99/103/207 94/104/207 108/110/207
f 86/92/208 99/103/208 91/96/208
f 100/97/209 91/96/209 109/105/209
f 96/87/210 110/106/210 111/88/210
f 93/99/211 103/109/211 94/104/211
f 102/108/212 98/107/212 101/114/212
f 112/115/213 107/116/213 102/108/213 101/114/213
f 92/91/214 118/111/214 105/102/214
f 99/103/215 104/121/215 109/105/215
f 97/113/216 106/112/216 101/114/216
f 127/119/217 111/88/217 110/106/217 117/161/217
f 103/109/218 102/108/218 107/116/218
f 103/109/219 107/116/219 108/110/219
f 116/123/220 122/162/220 110/106/220 109/105/220
f 112/115/221 106/112/221 114/122/221
f 121/133/222 113/125/222 107/130/222 120/132/222
f 110/106/223 122/162/223 117/161/223
f 115/131/224 112/127/224 119/129/224
f 129/146/225 121/133/225 120/132/225 124/135/225
f 120/132/226 115/131/226 124/135/226
f 126/126/227 113/125/227 125/134/227
f 119/129/228 114/128/228 128/136/228
f 122/138/229 116/124/229 126/126/229
f 114/128/230 132/142/230 128/136/230
f 117/149/231 122/138/231 137/139/231
f 124/135/232 119/129/232 123/137/232
f 133/148/233 134/144/233 124/135/233 123/137/233
f 121/133/234 129/146/234 125/134/234
f 124/135/235 135/145/235 129/146/235
f 130/143/236 125/134/236 136/147/236
f 143/155/237 136/147/237 135/145/237 142/163/237
f 130/143/238 138/150/238 137/139/238
f 133/148/239 128/136/239 140/151/239
f 117/149/240 146/53/240 127/11/240
f 139/15/241 6/2/241 132/142/241 131/141/241
f 141/152/242 142/163/242 134/144/242 133/148/242
f 136/147/243 143/155/243 144/154/243
f 132/142/244 6/2/244 2/1/244
f 138/150/245 136/147/245 144/154/245
f 132/142/246 2/1/246 140/151/246
f 137/139/247 145/54/247 146/53/247
f 11/4/248 144/154/248 143/155/248 10/14/248
f 135/145/249 134/144/249 142/163/249
f 142/163/250 3/9/250 143/155/250
f 144/154/251 11/4/251 4/6/251
f 141/152/252 140/151/252 7/19/252
f 145/54/253 138/150/253 12/18/253
f 142/163/254 141/152/254 8/7/254
f 3/9/255 142/163/255 8/7/255
