# Blender 5.0.0
# www.blender.org
mtllib Walk_Forward0016.mtl
o Sphere
v -1.957632 4.286586 1.354456
v -2.112575 4.352497 0.810419
v -2.073975 3.761071 0.148831
v -1.992844 3.171136 0.159494
v -1.787067 2.419758 0.809992
v -2.025111 4.378310 0.971995
v -1.939693 4.285673 0.514998
v -1.951133 4.053343 0.263339
v -1.702954 3.896440 0.194817
v -1.873743 3.601843 0.105511
v -1.857503 3.400056 0.108530
v -1.774203 2.904757 0.275788
v -1.735395 4.365697 0.737200
v -1.676597 3.218948 0.166931
v -1.623833 4.201228 0.450089
v -1.486490 3.713505 0.208012
v -1.510420 3.411321 0.184140
v -1.385651 4.038026 0.430085
v -1.317060 3.571829 0.286798
v -1.370153 3.174335 0.302860
v -1.499301 2.988823 0.311589
v -1.594574 4.354654 0.921592
v -1.296948 4.148130 0.678116
v -1.164321 3.728888 0.455518
v -1.209412 3.348244 0.376609
v -1.624059 2.658634 0.509714
v -1.403683 4.273474 0.873441
v -1.082861 3.856400 0.652879
v -1.049236 3.488373 0.545543
v -1.170913 3.012175 0.535278
v -1.403218 2.783962 0.504997
v -1.680796 4.366527 1.098936
v -1.100933 4.026260 0.920882
v -0.947269 3.604385 0.772273
v -0.966631 3.300190 0.693177
v -1.176570 4.091058 1.171106
v -0.898791 3.627078 0.998540
v -1.057934 2.895020 0.798234
v -1.250301 2.645361 0.831919
v -1.570751 4.215536 1.427317
v -1.402833 4.234511 1.239649
v -0.981723 3.808649 1.206452
v -0.885319 3.179599 1.022843
v -1.634490 2.505279 0.699508
v -1.235512 4.026128 1.419282
v -1.062857 3.809569 1.439426
v -0.922584 3.545757 1.351124
v -0.890292 3.353537 1.318617
v -0.920912 3.054267 1.282906
v -1.054239 2.761307 1.083019
v -1.412846 2.542727 0.800415
v -1.454335 4.057217 1.585529
v -1.084486 2.764359 1.441208
v -1.275783 3.819743 1.689095
v -1.119356 3.567147 1.685954
v -1.062634 3.375626 1.678512
v -1.039803 3.180680 1.649510
v -1.029009 3.007600 1.571176
v -1.757725 4.290257 1.364053
v -1.338968 3.549278 1.872759
v -1.248024 3.160389 1.866416
v -1.258126 2.664463 1.614701
v -1.245801 2.549627 1.318235
v -1.341128 2.472486 1.174028
v -1.496589 3.173718 2.002391
v -1.294890 2.862066 1.815954
v -1.684602 3.936510 1.786198
v -1.573270 3.780682 1.868130
v -1.556640 3.469292 1.993347
v -1.489174 2.977863 1.971596
v -1.475548 2.581740 1.734491
v -1.546480 2.392742 1.431043
v -1.534006 2.382857 1.116975
v -1.855881 2.980985 2.045538
v -1.646125 2.763284 1.940858
v -1.673109 2.372188 0.977010
v -1.807865 4.080487 1.675551
v -1.917373 3.606898 1.986050
v -1.872800 3.307133 2.056043
v -1.807098 2.588026 1.846314
v -1.808388 2.414054 1.638155
v -1.958410 4.180034 1.538721
v -2.062865 3.094320 2.034208
v -2.255534 2.910154 1.930274
v -2.029240 2.726293 1.926873
v -2.132549 2.503076 1.706348
v -1.859867 2.324552 1.372003
v -2.054691 3.879419 1.819929
v -2.215322 3.605120 1.917869
v -2.228666 3.301299 1.982487
v -2.118492 2.378571 1.470654
v -2.168484 4.054711 1.624416
v -2.450960 3.047174 1.854910
v -2.536968 2.796168 1.655902
v -2.322258 2.652819 1.747570
v -1.890064 2.313028 1.172850
v -2.469352 3.655786 1.748951
v -2.535287 3.358101 1.787840
v -2.459024 2.566343 1.480389
v -2.157623 2.353932 1.237717
v -2.677247 3.540601 1.582935
v -2.695463 3.217972 1.618905
v -2.704901 3.033567 1.559728
v -2.643766 2.680085 1.243567
v -2.403124 3.963001 1.574532
v -2.575356 3.834398 1.509512
v -2.857924 3.239622 1.254423
v -2.755722 2.915989 1.348675
v -2.421160 2.474801 1.193250
v -2.218791 2.398180 0.993884
v -1.924440 2.358945 0.947703
v -2.778758 3.635965 1.344334
v -2.797841 2.948605 1.004723
v -2.570138 4.038685 1.244214
v -2.871055 3.442380 1.100048
v -2.574899 2.653995 0.904242
v -2.166341 2.498149 0.715751
v -2.333772 4.170753 1.348419
v -2.785942 3.788318 1.019133
v -2.854406 3.352808 0.845831
v -2.822115 3.160588 0.813324
v -2.358302 2.551949 0.773855
v -2.699861 3.903306 0.792452
v -2.799356 3.555761 0.690973
v -2.705079 3.060211 0.626936
v -2.566698 2.775444 0.679925
v -1.950515 2.473067 0.692373
v -2.571034 4.097909 0.953651
v -2.682065 3.330718 0.485937
v -2.515682 2.975501 0.459544
v -2.155711 4.254312 1.343166
v -2.312042 4.284996 1.015221
v -2.552757 4.011909 0.600733
v -2.596338 3.776103 0.457856
v -2.580370 3.603778 0.379166
v -2.526168 3.293393 0.330979
v -2.278518 2.749324 0.463099
v -2.206453 3.015766 0.256687
v -1.959621 4.358844 1.158757
v -2.284447 4.262360 0.686661
v -2.269151 4.124604 0.429958
v -2.290900 3.837977 0.240876
v -2.248111 3.532625 0.162058
v -2.213651 3.326907 0.164103
v -1.965504 2.791364 0.350276
v -1.952261 2.630364 0.491452
vn -0.0592 0.9902 -0.1262
vn 0.0607 -0.2509 -0.9661
vn -0.0208 0.3723 -0.9279
vn 0.0982 -0.8480 -0.5208
vn 0.2051 0.1731 -0.9633
vn -0.0048 0.9944 0.1053
vn 0.2333 -0.3823 -0.8941
vn 0.0563 0.7323 -0.6786
vn 0.2785 -0.5870 -0.7602
vn 0.3185 0.5587 -0.7658
vn 0.1009 0.9947 -0.0175
vn 0.3653 -0.2350 -0.9007
vn -0.0338 0.9374 0.3465
vn 0.5234 -0.0884 -0.8475
vn 0.3391 0.9184 -0.2040
vn 0.5625 0.3407 -0.7533
vn 0.6840 0.5440 -0.4861
vn 0.7046 0.0730 -0.7058
vn 0.6286 -0.2720 -0.7286
vn 0.5339 -0.4066 -0.7414
vn 0.7747 -0.1431 -0.6159
vn 0.3753 0.9190 0.1209
vn 0.6393 0.7568 -0.1363
vn 0.3951 -0.7178 -0.5733
vn 0.8428 0.2210 -0.4907
vn 0.8892 0.4112 -0.2007
vn 0.8997 0.0553 -0.4329
vn 0.8154 -0.3104 -0.4886
vn 0.5521 0.8292 0.0869
vn 0.2502 0.9088 0.3340
vn 0.9497 0.2851 0.1298
vn 0.9838 0.1483 0.1006
vn 0.8993 -0.3913 -0.1954
vn 0.5748 0.7479 0.3322
vn 0.7228 0.6070 0.3305
vn 0.0968 -0.6531 -0.7510
vn 0.4284 0.7766 0.4619
vn 0.6667 -0.7213 -0.1875
vn 0.3174 -0.8715 -0.3738
vn 0.2116 -0.8924 -0.3986
vn 0.9904 -0.1111 0.0820
vn 0.4678 -0.8480 -0.2492
vn 0.5210 0.6387 0.5663
vn 0.1323 0.8122 0.5682
vn 0.2182 0.7052 0.6746
vn 0.4197 0.4408 0.7935
vn 0.5886 0.3555 0.7260
vn 0.3444 0.3660 0.8645
vn 0.4715 -0.1195 0.8737
vn -0.0399 0.8651 0.5001
vn 0.5543 -0.5410 0.6325
vn 0.4061 -0.4138 0.8148
vn 0.2918 -0.8410 0.4556
vn 0.1513 -0.9454 0.2886
vn 0.2396 -0.6221 0.7453
vn -0.0194 0.5987 0.8007
vn 0.1975 -0.7528 0.6279
vn 0.0082 -0.4269 0.9043
vn -0.0742 -0.0359 0.9966
vn 0.0759 -0.9747 -0.2104
vn -0.2150 -0.2997 0.9295
vn 0.0878 -0.9407 -0.3278
vn -0.1480 0.7152 0.6831
vn -0.1442 -0.6609 0.7365
vn -0.2035 0.4328 0.8782
vn -0.3712 -0.4716 0.7999
vn -0.3066 -0.5934 0.7442
vn -0.1551 -0.9794 0.1296
vn -0.4073 -0.0994 0.9078
vn -0.1672 0.8538 0.4930
vn -0.3777 0.5693 0.7302
vn -0.4760 -0.7357 0.4818
vn -0.6175 -0.5989 0.5099
vn -0.4672 -0.8583 0.2120
vn -0.1809 -0.9747 -0.1315
vn -0.7083 -0.0401 0.7048
vn -0.7432 -0.1697 0.6472
vn -0.8122 -0.4041 0.4207
vn -0.3467 0.7723 0.5323
vn -0.6028 0.4882 0.6311
vn -0.4072 -0.9111 -0.0632
vn -0.6837 0.2414 0.6887
vn -0.7794 0.3924 0.4884
vn -0.9574 0.1331 0.2563
vn -0.0044 -0.9131 -0.4077
vn -0.9569 -0.2757 0.0910
vn -0.8897 -0.4517 0.0661
vn -0.5784 0.6813 0.4486
vn -0.8110 -0.5726 -0.1206
vn -0.6359 0.6175 0.4630
vn -0.6857 -0.7231 -0.0836
vn -0.8067 -0.5068 -0.3039
vn -0.8331 0.4936 0.2497
vn -0.9954 -0.0900 -0.0335
vn -0.8590 -0.3938 -0.3273
vn -0.9707 0.2128 -0.1112
vn -0.8237 0.5664 -0.0255
vn -0.4792 -0.6800 -0.5549
vn -0.4020 0.8739 0.2734
vn -0.5516 0.7994 0.2381
vn -0.6967 -0.4435 -0.5639
vn -0.8182 0.1743 -0.5478
vn -0.7099 -0.2771 -0.6475
vn -0.5285 -0.5641 -0.6344
vn -0.7350 0.6491 -0.1962
vn -0.2137 -0.7386 -0.6394
vn -0.7065 -0.0135 -0.7076
vn -0.4840 -0.3418 -0.8056
vn -0.5661 0.8178 -0.1039
vn -0.5427 0.7262 -0.4220
vn -0.2127 -0.5618 -0.7995
vn -0.1701 0.9239 0.3428
vn -0.2191 -0.2829 -0.9338
vn -0.2317 0.9108 -0.3416
vn -0.0765 -0.4510 -0.8892
vn -0.1842 0.7264 -0.6622
vn -0.1609 0.0656 -0.9848
vn 0.0162 0.2814 -0.9594
vn -0.0854 0.9599 -0.2671
vn 0.0745 -0.3470 -0.9349
vn 0.0976 -0.7801 -0.6180
vn 0.2297 0.0367 -0.9726
vn 0.3798 0.8587 -0.3440
vn 0.0371 0.9993 -0.0079
vn 0.2149 -0.0987 -0.9716
vn 0.1434 0.8818 -0.4494
vn 0.1691 0.6067 -0.7768
vn 0.3530 -0.2877 -0.8903
vn 0.2986 -0.5554 -0.7761
vn 0.4088 0.4255 -0.8074
vn 0.4456 0.0354 -0.8946
vn 0.5796 0.2644 -0.7708
vn 0.0349 0.9577 0.2856
vn 0.5172 -0.1185 -0.8476
vn 0.6320 -0.5654 -0.5300
vn 0.4633 0.7366 -0.4927
vn 0.5268 -0.4397 -0.7274
vn 0.6884 0.4458 -0.5722
vn 0.7023 0.0530 -0.7099
vn 0.8429 0.2194 -0.4913
vn 0.7618 -0.2031 -0.6151
vn 0.4099 0.9071 0.0956
vn 0.7516 0.5789 -0.3162
vn 0.3818 -0.7290 -0.5681
vn 0.9741 0.0088 -0.2259
vn 0.5241 -0.6679 -0.5283
vn 0.8983 0.3744 -0.2300
vn 0.6333 0.7739 -0.0090
vn 0.2645 0.9068 0.3283
vn 0.9001 -0.2877 -0.3272
vn 0.8134 0.5734 0.0974
vn 0.8942 0.4464 -0.0331
vn 0.8391 0.2629 0.4763
vn 0.7769 0.5696 0.2683
vn 0.9995 0.0300 -0.0009
vn 0.7372 -0.6079 -0.2950
vn 0.9228 -0.3809 -0.0573
vn 0.4568 0.7622 0.4587
vn 0.5511 -0.7945 -0.2552
vn 0.8794 0.3656 0.3048
vn 0.9017 0.0604 0.4281
vn 0.3709 -0.8783 -0.3016
vn 0.9310 -0.1221 0.3440
vn 0.7191 -0.2338 0.6544
vn 0.8936 -0.3524 0.2780
vn 0.8860 -0.4569 0.0787
vn 0.7776 -0.6248 0.0710
vn 0.6414 0.5602 0.5242
vn 0.6951 -0.7148 -0.0771
vn 0.6973 0.4247 0.5774
vn 0.2061 0.7634 0.6122
vn 0.7221 -0.0183 0.6915
vn 0.7371 -0.4256 0.5248
vn 0.3427 0.5953 0.7268
vn 0.6272 0.1414 0.7659
vn 0.6781 -0.6754 0.2898
vn 0.5173 -0.7828 0.3459
vn 0.4676 0.1066 0.8775
vn 0.4967 -0.8580 0.1306
vn 0.4100 -0.9110 0.0450
vn 0.2017 -0.9789 0.0339
vn 0.5259 -0.2215 0.8212
vn 0.0354 0.8263 0.5621
vn 0.4111 -0.4886 0.7696
vn 0.1248 0.3759 0.9182
vn 0.0707 0.2368 0.9690
vn 0.1467 0.0158 0.9891
vn 0.0182 0.5089 0.8606
vn 0.1763 -0.9792 -0.1005
vn 0.1944 -0.1452 0.9701
vn 0.1879 -0.2726 0.9436
vn -0.2097 0.2025 0.9566
vn 0.0149 -0.4853 0.8742
vn -0.0706 -0.9413 0.3302
vn -0.5032 0.2105 0.8382
vn -0.2030 0.0812 0.9758
vn -0.2184 -0.2860 0.9330
vn -0.1496 0.6913 0.7069
vn -0.0755 -0.7649 0.6397
vn -0.1454 -0.8784 0.4553
vn -0.1323 -0.9882 0.0772
vn -0.4094 -0.0843 0.9084
vn -0.5607 -0.3828 0.7342
vn -0.5304 0.0388 0.8469
vn -0.4060 0.5127 0.7565
vn -0.2488 0.7952 0.5530
vn -0.7753 -0.5264 0.3490
vn -0.4336 -0.8072 0.4005
vn -0.4341 -0.8853 0.1666
vn -0.1569 -0.9721 -0.1743
vn -0.7269 -0.2561 0.6372
vn -0.7664 0.1138 0.6323
vn -0.9056 0.0916 0.4142
vn -0.4029 0.7322 0.5491
vn -0.6515 -0.7435 0.1511
vn -0.6968 0.3918 0.6008
vn -0.1661 -0.9123 -0.3743
vn -0.9121 -0.0822 0.4017
vn -0.9232 -0.1951 0.3310
vn -0.5291 -0.8169 -0.2296
vn -0.7850 0.4982 0.3682
vn -0.9860 -0.1583 -0.0517
vn -0.3536 -0.8570 -0.3747
vn -0.9520 0.2686 0.1469
vn -0.9009 -0.0802 -0.4265
vn -0.9775 0.1705 -0.1241
vn -0.8203 -0.4615 -0.3378
vn -0.8032 0.5832 0.1214
vn -0.5777 -0.7088 -0.4049
vn -0.6028 0.7815 0.1611
vn -0.3766 -0.7352 -0.5636
vn -0.9279 0.3210 -0.1895
vn -0.8368 0.3731 -0.4007
vn -0.8729 -0.1651 -0.4592
vn -0.8215 0.0855 -0.5638
vn -0.7032 -0.2864 -0.6507
vn -0.5312 0.0901 -0.8425
vn -0.4395 -0.4728 -0.7638
vn -0.6288 0.7473 -0.2147
vn -0.1563 -0.7784 -0.6080
vn -0.2827 0.9353 0.2130
vn -0.5762 0.4885 -0.6553
vn -0.4621 -0.0862 -0.8826
vn -0.3073 0.9515 0.0143
vn -0.4316 -0.2664 -0.8618
vn -0.4067 0.9084 -0.0967
vn -0.1759 -0.6572 -0.7329
vn -0.1458 -0.0304 -0.9888
vn -0.5927 0.2885 -0.7520
vn -0.3243 0.1936 -0.9259
vn -0.1233 -0.1457 -0.9816
vn -0.2886 0.8364 -0.4660
vn -0.0771 -0.4532 -0.8881
vn -0.2915 0.5421 -0.7882
vn -0.2172 0.4339 -0.8744
vt 0.781230 0.812500
vt 0.762032 0.875000
vt 0.685473 0.777944
vt 0.734697 0.375000
vt 0.703125 0.312500
vt 0.764235 0.312500
vt 0.741874 0.599249
vt 0.704616 0.531266
vt 0.763980 0.500000
vt 0.734375 0.000000
vt 0.879629 0.062500
vt 0.593677 0.062500
vt 0.670132 0.472235
vt 0.734536 0.437500
vt 0.734224 0.937500
vt 0.605595 0.875000
vt 0.658359 0.250000
vt 0.719918 0.218999
vt 0.734375 0.717281
vt 0.678319 0.660608
vt 0.606077 0.187500
vt 0.641330 0.592355
vt 0.623673 0.812500
vt 0.673680 0.375000
vt 0.639230 0.312500
vt 0.640625 1.000000
vt 0.479138 0.937500
vt 0.639064 0.437500
vt 0.612180 0.375000
vt 0.595563 0.750000
vt 0.606567 0.500000
vt 0.603325 0.667055
vt 0.578286 0.562500
vt 0.578286 0.437500
vt 0.577540 0.283466
vt 0.543444 0.396147
vt 0.512752 0.812500
vt 0.546915 0.655822
vt 0.503540 0.125000
vt 0.660224 0.125000
vt 0.544067 0.500000
vt 0.509405 0.537235
vt 0.515588 0.281661
vt 0.510998 0.724803
vt 0.449506 0.875000
vt 0.487180 0.625000
vt 0.453286 0.562500
vt 0.450317 0.500000
vt 0.485851 0.406417
vt 0.453088 0.281661
vt 0.455926 0.750000
vt 0.445771 0.665313
vt 0.799126 0.125000
vt 0.779637 0.187500
vt 0.402284 0.812500
vt 0.497588 0.187500
vt 0.386121 0.187500
vt 0.328120 0.062500
vt 0.453125 0.000000
vt 0.437500 0.406180
vt 0.347717 0.125000
vt 0.390588 0.718339
vt 0.293360 0.875000
vt 0.308534 0.812500
vt 0.316528 0.750000
vt 0.343750 0.656371
vt 0.393429 0.625000
vt 0.296915 0.655822
vt 0.343750 0.531273
vt 0.297036 0.562500
vt 0.294067 0.500000
vt 0.328125 1.000000
vt 0.230145 0.937500
vt 0.328286 0.437500
vt 0.296914 0.344178
vt 0.343750 0.343629
vt 0.265786 0.437500
vt 0.234338 0.281661
vt 0.296902 0.219059
vt 0.214815 0.187500
vt 0.237180 0.375000
vt 0.199790 0.812500
vt 0.237635 0.520573
vt 0.203286 0.437500
vt 0.237180 0.625000
vt 0.203286 0.562500
vt 0.190964 0.125000
vt 0.113605 0.062500
vt 0.169067 0.500000
vt 0.203125 0.000000
vt 0.137012 0.875000
vt 0.176363 0.337227
vt 0.171838 0.718339
vt 0.234338 0.718339
vt 0.148421 0.399333
vt 0.160278 0.250000
vt 0.121065 0.187500
vt 0.174680 0.625000
vt 0.134405 0.537235
vt 0.140625 1.000000
vt 0.030235 0.937500
vt 0.075252 0.812500
vt 0.102021 0.334687
vt 0.109536 0.437500
vt 0.066529 0.250000
vt 0.055088 0.153620
vt 0.112179 0.625000
vt 0.078286 0.562500
vt 0.075317 0.500000
vt 0.047036 0.437500
vt 0.032456 0.875000
vt 0.048167 0.750000
vt 0.108913 0.719958
vt 0.062500 0.658651
vt 0.015664 0.655822
vt 0.018885 0.520574
vt 0.000000 0.562500
vt 0.015625 0.000000
vt 0.000000 0.062500
vt 0.000000 0.399333
vt 0.046914 0.344178
vt 0.000000 0.784407
vt 0.000000 0.273040
vt 0.991904 0.273040
vt 0.992171 0.399333
vt 0.937867 0.282145
vt 1.000000 0.655822
vt 0.975379 0.784407
vt 0.953164 0.655822
vt 1.000000 0.500000
vt 0.984536 0.562500
vt 0.950317 0.500000
vt 0.953286 0.437500
vt 0.924679 0.375000
vt 0.915655 0.537235
vt 0.910279 0.750000
vt 0.906250 0.656371
vt 0.965747 0.187500
vt 0.868449 0.212346
vt 0.978825 0.875000
vt 0.921769 0.937500
vt 0.872374 0.843190
vt 0.887823 0.312500
vt 0.859536 0.562500
vt 0.856567 0.500000
vt 0.890786 0.437500
vt 0.855944 0.396148
vt 0.859414 0.655822
vt 0.939862 0.125000
vt 0.812867 0.282145
vt 0.814726 0.750000
vt 0.796945 0.653777
vt 0.828125 1.000000
vt 0.798190 0.375000
vt 0.797036 0.437500
vt 0.390786 0.562500
vt 0.387817 0.500000
vt 0.390786 0.437500
vt 0.390665 0.344178
vt 0.378980 0.250000
vt 0.000000 0.125000
vt 0.000000 0.187500
vt 0.801816 0.543181
s 0
f 2/1/1 6/2/1 13/3/1
f 11/4/2 14/5/2 4/6/2
f 8/7/3 9/8/3 3/9/3
f 5/10/4 127/11/4 44/12/4
f 9/8/5 16/13/5 10/14/5
f 139/15/6 32/16/6 6/2/6
f 14/5/7 21/17/7 12/18/7
f 7/19/8 15/20/8 8/7/8
f 12/18/9 21/17/9 31/21/9
f 15/20/10 18/22/10 9/8/10
f 32/16/11 22/23/11 13/3/11
f 14/5/12 17/24/12 20/25/12
f 139/15/13 1/26/13 59/27/13
f 19/28/14 25/29/14 17/24/14
f 22/23/15 27/30/15 13/3/15
f 16/13/16 18/22/16 24/31/16
f 18/22/17 23/32/17 28/33/17
f 24/31/18 29/34/18 19/28/18
f 20/25/19 25/29/19 30/35/19
f 20/25/20 30/35/20 21/17/20
f 29/34/21 35/36/21 25/29/21
f 32/16/22 41/37/22 22/23/22
f 23/32/23 27/30/23 33/38/23
f 31/21/24 51/39/24 26/40/24
f 24/31/25 28/33/25 34/41/25
f 28/33/26 33/38/26 37/42/26
f 34/41/27 35/36/27 29/34/27
f 30/35/28 35/36/28 38/43/28
f 41/37/29 36/44/29 27/30/29
f 32/16/30 59/27/30 40/45/30
f 37/42/31 42/46/31 47/47/31
f 37/42/32 47/47/32 48/48/32
f 38/43/33 43/49/33 50/50/33
f 41/37/34 45/51/34 36/44/34
f 36/44/35 45/51/35 46/52/35
f 26/40/36 146/53/36 145/54/36 12/18/36
f 41/37/37 40/45/37 52/55/37
f 39/56/38 50/50/38 64/57/38
f 44/12/39 51/39/39 76/58/39
f 5/59/40 44/12/40 76/58/40
f 48/48/41 49/60/41 43/49/41
f 64/57/42 73/61/42 51/39/42
f 52/55/43 54/62/43 45/51/43
f 59/27/44 77/63/44 40/45/44
f 52/55/45 77/63/45 67/64/45
f 54/62/46 68/65/46 60/66/46
f 54/62/47 60/66/47 55/67/47
f 60/66/48 68/65/48 69/68/48
f 61/69/49 65/70/49 70/71/49
f 59/27/50 1/72/50 82/73/50
f 66/74/51 71/75/51 62/76/51
f 70/71/52 75/77/52 66/74/52
f 71/75/53 81/78/53 72/79/53
f 72/79/54 81/78/54 87/80/54
f 75/77/55 80/81/55 71/75/55
f 67/64/56 77/63/56 88/82/56
f 71/75/57 80/81/57 81/78/57
f 74/83/58 85/84/58 75/77/58
f 74/83/59 79/85/59 83/86/59
f 96/87/60 111/88/60 76/58/60
f 74/83/61 83/86/61 84/89/61
f 5/90/62 76/58/62 111/88/62
f 77/63/63 82/73/63 92/91/63
f 85/84/64 86/92/64 80/81/64
f 88/82/65 89/93/65 78/94/65
f 84/89/66 95/95/66 85/84/66
f 85/84/67 95/95/67 86/92/67
f 87/80/68 91/96/68 100/97/68
f 83/86/69 90/98/69 93/99/69
f 82/73/70 1/100/70 131/101/70
f 92/91/71 105/102/71 88/82/71
f 86/92/72 95/95/72 99/103/72
f 94/104/73 99/103/73 95/95/73
f 99/103/74 109/105/74 91/96/74
f 100/97/75 110/106/75 96/87/75
f 93/99/76 98/107/76 102/108/76
f 93/99/77 102/108/77 103/109/77
f 103/109/78 108/110/78 94/104/78
f 131/101/79 118/111/79 92/91/79
f 105/102/80 106/112/80 97/113/80
f 100/97/81 109/105/81 110/106/81
f 97/113/82 101/114/82 98/107/82
f 101/114/83 106/112/83 112/115/83
f 107/116/84 112/115/84 115/117/84
f 5/118/85 111/88/85 127/119/85
f 107/116/86 113/120/86 108/110/86
f 108/110/87 113/120/87 104/121/87
f 105/102/88 118/111/88 114/122/88
f 104/121/89 113/120/89 116/123/89
f 105/102/90 114/122/90 106/112/90
f 104/121/91 116/123/91 109/105/91
f 116/124/92 113/125/92 126/126/92
f 112/127/93 114/128/93 119/129/93
f 107/130/94 115/131/94 120/132/94
f 121/133/95 125/134/95 113/125/95
f 115/131/96 119/129/96 124/135/96
f 119/129/97 128/136/97 123/137/97
f 122/138/98 126/126/98 137/139/98
f 118/140/99 131/141/99 132/142/99
f 118/140/100 132/142/100 114/128/100
f 126/126/101 125/134/101 130/143/101
f 124/135/102 134/144/102 135/145/102
f 129/146/103 136/147/103 125/134/103
f 130/143/104 137/139/104 126/126/104
f 123/137/105 128/136/105 133/148/105
f 137/139/106 146/53/106 117/149/106
f 135/145/107 136/147/107 129/146/107
f 130/143/108 136/147/108 138/150/108
f 132/142/109 140/151/109 128/136/109
f 133/148/110 140/151/110 141/152/110
f 137/139/111 138/150/111 145/54/111
f 131/141/112 1/153/112 139/15/112
f 138/150/113 144/154/113 4/6/113
f 140/151/114 2/1/114 7/19/114
f 4/6/115 12/18/115 138/150/115
f 141/152/116 7/19/116 8/7/116
f 3/9/117 10/14/117 143/155/117
f 3/9/118 9/8/118 10/14/118
f 7/19/119 2/1/119 13/3/119
f 4/6/120 14/5/120 12/18/120
f 44/12/121 127/11/121 146/53/121 26/40/121
f 17/24/122 11/4/122 10/14/122 16/13/122
f 23/32/123 15/20/123 13/3/123 27/30/123
f 6/2/124 32/16/124 13/3/124
f 11/4/125 17/24/125 14/5/125
f 7/19/126 13/3/126 15/20/126
f 9/8/127 8/7/127 15/20/127
f 21/17/128 14/5/128 20/25/128
f 12/18/129 31/21/129 26/40/129
f 9/8/130 18/22/130 16/13/130
f 16/13/131 19/28/131 17/24/131
f 16/13/132 24/31/132 19/28/132
f 139/15/133 59/27/133 32/16/133
f 20/25/134 17/24/134 25/29/134
f 38/43/135 39/56/135 31/21/135 30/35/135
f 15/20/136 23/32/136 18/22/136
f 21/17/137 30/35/137 31/21/137
f 24/31/138 18/22/138 28/33/138
f 19/28/139 29/34/139 25/29/139
f 24/31/140 34/41/140 29/34/140
f 30/35/141 25/29/141 35/36/141
f 22/23/142 41/37/142 27/30/142
f 28/33/143 23/32/143 33/38/143
f 44/12/144 26/40/144 51/39/144
f 43/49/145 35/36/145 34/41/145 37/42/145
f 51/39/146 31/21/146 39/56/146
f 34/41/147 28/33/147 37/42/147
f 33/38/148 27/30/148 36/44/148
f 32/16/149 40/45/149 41/37/149
f 38/43/150 35/36/150 43/49/150
f 33/38/151 36/44/151 42/46/151
f 37/42/152 33/38/152 42/46/152
f 55/67/153 56/156/153 47/47/153 46/52/153
f 36/44/154 46/52/154 42/46/154
f 37/42/155 48/48/155 43/49/155
f 39/56/156 38/43/156 50/50/156
f 50/50/157 43/49/157 49/60/157
f 41/37/158 52/55/158 45/51/158
f 39/56/159 64/57/159 51/39/159
f 47/47/160 42/46/160 46/52/160
f 56/156/161 57/157/161 48/48/161 47/47/161
f 51/39/162 73/61/162 76/58/162
f 58/158/163 49/60/163 48/48/163 57/157/163
f 66/74/164 58/158/164 57/157/164 61/69/164
f 49/60/165 58/158/165 53/159/165
f 50/50/166 49/60/166 53/159/166
f 50/50/167 53/159/167 63/160/167
f 46/52/168 45/51/168 54/62/168
f 64/57/169 50/50/169 63/160/169
f 46/52/170 54/62/170 55/67/170
f 40/45/171 77/63/171 52/55/171
f 57/157/172 56/156/172 61/69/172
f 62/76/173 53/159/173 58/158/173 66/74/173
f 68/65/174 54/62/174 52/55/174 67/64/174
f 60/66/175 61/69/175 56/156/175 55/67/175
f 53/159/176 62/76/176 63/160/176
f 72/79/177 63/160/177 62/76/177 71/75/177
f 69/68/178 65/70/178 61/69/178 60/66/178
f 64/57/179 63/160/179 72/79/179
f 64/57/180 72/79/180 73/61/180
f 96/87/181 73/61/181 72/79/181 87/80/181
f 61/69/182 70/71/182 66/74/182
f 59/27/183 82/73/183 77/63/183
f 66/74/184 75/77/184 71/75/184
f 69/68/185 68/65/185 78/94/185
f 69/68/186 78/94/186 79/85/186
f 79/85/187 74/83/187 65/70/187 69/68/187
f 78/94/188 68/65/188 67/64/188 88/82/188
f 76/58/189 73/61/189 96/87/189
f 70/71/190 65/70/190 74/83/190
f 70/71/191 74/83/191 75/77/191
f 90/98/192 79/85/192 78/94/192 89/93/192
f 75/77/193 85/84/193 80/81/193
f 87/80/194 81/78/194 91/96/194
f 98/107/195 90/98/195 89/93/195 97/113/195
f 83/86/196 79/85/196 90/98/196
f 74/83/197 84/89/197 85/84/197
f 77/63/198 92/91/198 88/82/198
f 81/78/199 80/81/199 86/92/199
f 81/78/200 86/92/200 91/96/200
f 87/80/201 100/97/201 96/87/201
f 84/89/202 83/86/202 93/99/202
f 94/104/203 95/95/203 84/89/203 93/99/203
f 93/99/204 90/98/204 98/107/204
f 97/113/205 89/93/205 88/82/205 105/102/205
f 82/73/206 131/101/206 92/91/206
f 104/121/207 99/103/207 94/104/207 108/110/207
f 86/92/208 99/103/208 91/96/208
f 100/97/209 91/96/209 109/105/209
f 96/87/210 110/106/210 111/88/210
f 93/99/211 103/109/211 94/104/211
f 102/108/212 98/107/212 101/114/212
f 112/115/213 107/116/213 102/108/213 101/114/213
f 92/91/214 118/111/214 105/102/214
f 99/103/215 104/121/215 109/105/215
f 97/113/216 106/112/216 101/114/216
f 127/119/217 111/88/217 110/106/217 117/161/217
f 103/109/218 102/108/218 107/116/218
f 103/109/219 107/116/219 108/110/219
f 116/123/220 122/162/220 110/106/220 109/105/220
f 112/115/221 106/112/221 114/122/221
f 121/133/222 113/125/222 107/130/222 120/132/222
f 110/106/223 122/162/223 117/161/223
f 115/131/224 112/127/224 119/129/224
f 129/146/225 121/133/225 120/132/225 124/135/225
f 120/132/226 115/131/226 124/135/226
f 126/126/227 113/125/227 125/134/227
f 119/129/228 114/128/228 128/136/228
f 122/138/229 116/124/229 126/126/229
f 114/128/230 132/142/230 128/136/230
f 117/149/231 122/138/231 137/139/231
f 124/135/232 119/129/232 123/137/232
f 133/148/233 134/144/233 124/135/233 123/137/233
f 121/133/234 129/146/234 125/134/234
f 124/135/235 135/145/235 129/146/235
f 130/143/236 125/134/236 136/147/236
f 143/155/237 136/147/237 135/145/237 142/163/237
f 130/143/238 138/150/238 137/139/238
f 133/148/239 128/136/239 140/151/239
f 117/149/240 146/53/240 127/11/240
f 139/15/241 6/2/241 132/142/241 131/141/241
f 141/152/242 142/163/242 134/144/242 133/148/242
f 136/147/243 143/155/243 144/154/243
f 132/142/244 6/2/244 2/1/244
f 138/150/245 136/147/245 144/154/245
f 132/142/246 2/1/246 140/151/246
f 137/139/247 145/54/247 146/53/247
f 11/4/248 144/154/248 143/155/248 10/14/248
f 135/145/249 134/144/249 142/163/249
f 142/163/250 3/9/250 143/155/250
f 144/154/251 11/4/251 4/6/251
f 141/152/252 140/151/252 7/19/252
f 145/54/253 138/150/253 12/18/253
f 142/163/254 141/152/254 8/7/254
f 3/9/255 142/163/255 8/7/255
