# Blender 5.0.0
# www.blender.org
mtllib Walk_Forward0026.mtl
o Sphere
v -0.660230 6.042747 2.383194
v -1.035488 5.536145 2.160267
v -1.039987 4.508192 2.127012
v -0.736162 4.160150 2.399997
v -0.005328 4.358614 3.007648
v -0.907801 5.713007 2.182147
v -0.987096 5.192504 1.964943
v -1.007421 4.797694 1.969134
v -0.769044 4.627216 1.894167
v -0.829917 4.363016 2.089417
v -0.735731 4.243623 2.188212
v -0.403643 4.111179 2.487131
v -0.759857 5.460535 1.929976
v -0.491508 4.188606 2.221317
v -0.720076 5.067795 1.820220
v -0.513230 4.524466 1.888468
v -0.423491 4.318164 2.046561
v -0.467683 4.942844 1.777203
v -0.285706 4.514208 1.916638
v -0.166130 4.291402 2.158518
v -0.195787 4.191298 2.323931
v -0.564391 5.636842 1.955701
v -0.336994 5.258114 1.796643
v -0.153104 4.776025 1.840977
v -0.072275 4.467129 2.023711
v -0.087608 4.195190 2.655188
v -0.394764 5.534214 1.879627
v -0.055891 5.050745 1.830193
v 0.073217 4.718735 1.953298
v 0.156615 4.423427 2.257556
v 0.042941 4.260639 2.477551
v -0.567839 5.825609 2.078971
v -0.028578 5.425055 1.881293
v 0.203822 5.015694 1.952655
v 0.275617 4.752193 2.082566
v -0.014489 5.719292 2.007230
v 0.326984 5.257098 2.027142
v 0.403006 4.615741 2.390911
v 0.356744 4.503686 2.633465
v -0.283867 6.063721 2.263398
v -0.229502 5.881104 2.078330
v 0.271775 5.579336 2.075059
v 0.524457 5.010716 2.266036
v 0.041603 4.294712 2.833133
v 0.063679 5.932579 2.191624
v 0.299500 5.817628 2.228675
v 0.483104 5.565208 2.253579
v 0.572265 5.415257 2.322047
v 0.650521 5.198910 2.476166
v 0.574806 4.822883 2.597940
v 0.250504 4.413847 2.752562
v -0.061087 6.125089 2.365410
v 0.694618 5.187855 2.786254
v 0.221827 6.081734 2.451178
v 0.449007 5.921843 2.503759
v 0.568226 5.797053 2.571943
v 0.652097 5.649238 2.648253
v 0.697334 5.465044 2.695048
v -0.493113 6.049629 2.286506
v 0.351275 6.105561 2.713545
v 0.576966 5.861656 2.868333
v 0.661676 5.307337 3.009516
v 0.596334 4.937655 2.918639
v 0.489489 4.747522 2.935960
v 0.422375 6.013551 3.051415
v 0.635458 5.631369 3.022839
v -0.121390 6.260907 2.640982
v 0.065144 6.246741 2.706984
v 0.252661 6.184675 2.922488
v 0.493176 5.863760 3.134994
v 0.564022 5.383983 3.219374
v 0.456508 4.964487 3.205247
v 0.342727 4.640467 3.050883
v 0.220028 5.949709 3.351901
v 0.436005 5.706854 3.310155
v 0.175340 4.495931 3.057334
v -0.324776 6.239158 2.573087
v -0.101701 6.269621 3.026518
v 0.081748 6.158011 3.195088
v 0.334017 5.509279 3.435630
v 0.316760 5.193513 3.425524
v -0.543778 6.164739 2.529191
v 0.000232 6.012015 3.390149
v -0.128174 5.800354 3.531461
v 0.129339 5.680005 3.513253
v 0.042436 5.324522 3.573590
v 0.201224 4.871431 3.367956
v -0.389959 6.269846 2.871392
v -0.374185 6.207092 3.142395
v -0.239030 6.089055 3.339275
v 0.007093 5.010430 3.516569
v -0.632470 6.180942 2.741000
v -0.373880 5.811913 3.520327
v -0.426807 5.460955 3.597075
v -0.156080 5.461575 3.609880
v 0.099761 4.663751 3.291777
v -0.672219 6.073260 3.159852
v -0.593284 5.934233 3.367131
v -0.343476 5.142435 3.592661
v -0.110321 4.760866 3.435192
v -0.865663 5.840897 3.242402
v -0.738775 5.682626 3.437545
v -0.697933 5.511474 3.509671
v -0.636981 4.976306 3.509549
v -0.809888 6.080935 2.881288
v -0.927520 5.941729 3.002407
v -1.029619 5.331093 3.329130
v -0.779407 5.228136 3.493339
v -0.393169 4.795632 3.481463
v -0.277493 4.542496 3.323479
v -0.038389 4.464618 3.174985
v -1.084091 5.659754 3.126614
v -0.967090 4.900966 3.329349
v -1.111872 5.796758 2.763593
v -1.183291 5.297875 3.154394
v -0.708212 4.615511 3.323265
v -0.387031 4.320258 3.109389
v -0.926818 5.976082 2.627885
v -1.282582 5.423085 2.891853
v -1.237822 4.986105 3.068795
v -1.148662 4.836153 3.137263
v -0.542686 4.416422 3.205155
v -1.349380 5.261133 2.678305
v -1.335611 4.950794 2.859799
v -1.088614 4.583933 3.040476
v -0.840742 4.461824 3.146242
v -0.208896 4.275991 3.003701
v -1.254345 5.538650 2.591258
v -1.233784 4.604308 2.818899
v -0.967405 4.358579 2.908780
v -0.815251 6.016808 2.493088
v -1.089722 5.707545 2.394742
v -1.349155 5.129148 2.454799
v -1.350264 4.843095 2.529902
v -1.301210 4.658867 2.573554
v -1.153789 4.421035 2.685188
v -0.681416 4.219400 2.910662
v -0.811231 4.169903 2.634872
v -0.770094 5.888519 2.250906
v -1.191924 5.360771 2.232441
v -1.229580 5.017379 2.171469
v -1.211488 4.653296 2.239699
v -1.087932 4.387810 2.339429
v -0.977586 4.264594 2.430737
v -0.486144 4.122787 2.677897
v -0.354225 4.167903 2.824324
vn -0.4965 0.4503 -0.7421
vn -0.1578 -0.9186 -0.3624
vn -0.5079 -0.3677 -0.7790
vn 0.3376 -0.8510 0.4024
vn -0.2356 -0.5419 -0.8067
vn -0.4072 0.5920 -0.6956
vn 0.1173 -0.9424 -0.3133
vn -0.4711 0.0149 -0.8820
vn 0.3155 -0.9468 -0.0630
vn -0.2315 -0.1360 -0.9633
vn -0.3537 0.5069 -0.7861
vn 0.1535 -0.8214 -0.5492
vn -0.3585 0.7417 -0.5669
vn 0.2252 -0.6433 -0.7318
vn -0.1972 0.3522 -0.9149
vn 0.0562 -0.2623 -0.9633
vn 0.1252 0.0093 -0.9921
vn 0.3204 -0.4092 -0.8543
vn 0.4548 -0.6821 -0.5726
vn 0.4496 -0.7976 -0.4021
vn 0.5240 -0.4966 -0.6919
vn -0.0907 0.5434 -0.8346
vn 0.0952 0.3047 -0.9477
vn 0.5263 -0.8470 0.0747
vn 0.4001 -0.1769 -0.8992
vn 0.4152 0.0932 -0.9049
vn 0.5503 -0.2438 -0.7986
vn 0.6833 -0.5201 -0.5125
vn 0.0650 0.4725 -0.8789
vn -0.1249 0.6964 -0.7067
vn 0.6381 0.2191 -0.7381
vn 0.7285 0.1257 -0.6734
vn 0.8623 -0.3733 -0.3421
vn 0.1946 0.5997 -0.7762
vn 0.3754 0.5236 -0.7648
vn 0.1846 -0.9733 0.1367
vn 0.1125 0.7236 -0.6810
vn 0.8271 -0.5556 0.0849
vn 0.5615 -0.7537 0.3415
vn 0.4766 -0.7763 0.4125
vn 0.8705 -0.0349 -0.4910
vn 0.6997 -0.6563 0.2822
vn 0.2967 0.7387 -0.6053
vn -0.1131 0.8580 -0.5010
vn 0.0483 0.9001 -0.4330
vn 0.4289 0.8558 -0.2893
vn 0.5914 0.7228 -0.3574
vn 0.4412 0.8882 -0.1281
vn 0.8133 0.5247 0.2514
vn -0.3001 0.8361 -0.4592
vn 0.9130 0.0573 0.4039
vn 0.8237 0.2615 0.5031
vn 0.7153 -0.2058 0.6678
vn 0.5906 -0.3425 0.7307
vn 0.7061 0.0822 0.7033
vn -0.0670 0.9909 -0.1166
vn 0.6662 -0.0602 0.7434
vn 0.5056 0.3114 0.8046
vn 0.3099 0.6945 0.6493
vn 0.4340 -0.6605 0.6127
vn 0.2692 0.4165 0.8684
vn 0.4073 -0.7330 0.5448
vn -0.2816 0.9406 -0.1899
vn 0.3964 0.0586 0.9162
vn -0.1234 0.9652 0.2307
vn 0.1660 0.2094 0.9636
vn 0.2473 0.1031 0.9634
vn 0.3338 -0.4305 0.8386
vn -0.0016 0.5475 0.8368
vn -0.4049 0.8343 -0.3742
vn -0.4039 0.9049 0.1343
vn 0.1024 -0.1134 0.9883
vn -0.0472 -0.0262 0.9985
vn 0.0864 -0.3154 0.9450
vn 0.2533 -0.5872 0.7688
vn -0.3422 0.4315 0.8347
vn -0.3121 0.3047 0.8998
vn -0.3013 0.0317 0.9530
vn -0.5165 0.8384 -0.1742
vn -0.5785 0.7558 0.3067
vn 0.0793 -0.5015 0.8615
vn -0.4918 0.6248 0.6064
vn -0.7007 0.5751 0.4222
vn -0.7499 0.2525 0.6115
vn 0.3044 -0.7763 0.5519
vn -0.5703 -0.0825 0.8173
vn -0.4366 -0.1903 0.8793
vn -0.6889 0.7246 0.0181
vn -0.3810 -0.3637 0.8500
vn -0.7047 0.6994 0.1194
vn -0.2066 -0.4164 0.8854
vn -0.4804 -0.4517 0.7518
vn -0.8482 0.4708 0.2426
vn -0.7449 -0.0523 0.6651
vn -0.5909 -0.4078 0.6961
vn -0.9198 0.0772 0.3847
vn -0.9413 0.3350 0.0404
vn -0.2361 -0.7526 0.6147
vn -0.6506 0.6830 -0.3321
vn -0.7530 0.6279 -0.1971
vn -0.5459 -0.6218 0.5615
vn -0.9662 -0.2294 0.1178
vn -0.6956 -0.5961 0.4009
vn -0.3738 -0.7610 0.5303
vn -0.9480 0.2737 -0.1626
vn -0.0149 -0.8826 0.4700
vn -0.8691 -0.4763 0.1329
vn -0.5517 -0.7999 0.2364
vn -0.8411 0.4119 -0.3505
vn -0.8805 0.1748 -0.4406
vn -0.1714 -0.9525 0.2516
vn -0.4651 0.7435 -0.4806
vn -0.4052 -0.9096 -0.0917
vn -0.6564 0.3008 -0.6918
vn -0.1444 -0.9895 -0.0051
vn -0.6590 0.0259 -0.7517
vn -0.5507 -0.6668 -0.5022
vn -0.4541 -0.4595 -0.7633
vn -0.5391 0.3575 -0.7626
vn -0.0749 -0.9638 -0.2560
vn 0.2839 -0.9076 0.3092
vn -0.1505 -0.6632 -0.7331
vn -0.1815 0.2478 -0.9517
vn -0.4010 0.5190 -0.7549
vn -0.0927 -0.7823 -0.6160
vn -0.3875 0.2115 -0.8973
vn -0.3710 -0.1135 -0.9217
vn 0.1765 -0.8558 -0.4863
vn 0.3129 -0.9425 -0.1173
vn -0.1191 -0.2431 -0.9627
vn 0.0735 -0.5863 -0.8068
vn 0.1019 -0.3235 -0.9407
vn -0.3245 0.6988 -0.6375
vn 0.2374 -0.6679 -0.7054
vn 0.6634 -0.7213 -0.1992
vn -0.1146 0.1084 -0.9875
vn 0.4656 -0.8093 -0.3582
vn 0.1508 -0.0920 -0.9843
vn 0.3288 -0.4260 -0.8428
vn 0.4009 -0.1782 -0.8986
vn 0.5495 -0.5388 -0.6386
vn -0.0674 0.5199 -0.8516
vn 0.2030 0.1179 -0.9721
vn 0.5208 -0.8482 0.0962
vn 0.6901 -0.1480 -0.7084
vn 0.6226 -0.7818 -0.0344
vn 0.4321 0.0572 -0.9000
vn 0.1192 0.3859 -0.9148
vn -0.1145 0.6901 -0.7146
vn 0.7745 -0.3945 -0.4945
vn 0.3744 0.3496 -0.8588
vn 0.4533 0.2066 -0.8671
vn 0.7181 0.4444 -0.5356
vn 0.4112 0.4596 -0.7872
vn 0.7695 -0.0025 -0.6387
vn 0.8153 -0.5690 -0.1073
vn 0.9129 -0.2800 -0.2969
vn 0.1408 0.7121 -0.6878
vn 0.7476 -0.6376 0.1859
vn 0.6123 0.3768 -0.6950
vn 0.8561 0.2893 -0.4282
vn 0.6214 -0.7044 0.3430
vn 0.9359 0.1229 -0.3302
vn 0.9619 0.2677 0.0555
vn 0.9882 -0.0566 -0.1425
vn 0.9598 -0.2402 -0.1451
vn 0.9393 -0.3383 0.0580
vn 0.4179 0.6541 -0.6305
vn 0.8706 -0.4789 0.1130
vn 0.5639 0.6228 -0.5424
vn -0.0132 0.8693 -0.4942
vn 0.8890 0.4412 -0.1224
vn 0.9884 0.0569 0.1406
vn 0.2385 0.8836 -0.4029
vn 0.7685 0.6175 -0.1678
vn 0.9374 -0.2299 0.2614
vn 0.8528 -0.2479 0.4596
vn 0.7086 0.7043 0.0427
vn 0.8031 -0.4121 0.4304
vn 0.7304 -0.4854 0.4805
vn 0.5834 -0.5102 0.6320
vn 0.8736 0.4039 0.2713
vn -0.2038 0.8674 -0.4540
vn 0.8296 0.1803 0.5285
vn 0.2496 0.9664 0.0611
vn 0.3002 0.9126 0.2775
vn 0.5021 0.7420 0.4442
vn 0.0418 0.9988 -0.0247
vn 0.5366 -0.5947 0.5987
vn 0.6089 0.5861 0.5346
vn 0.6365 0.4596 0.6194
vn 0.0335 0.8591 0.5107
vn 0.5191 0.2509 0.8170
vn 0.4307 -0.3062 0.8490
vn -0.2823 0.7347 0.6168
vn 0.1154 0.7715 0.6257
vn 0.2617 0.4292 0.8645
vn -0.2651 0.9516 -0.1558
vn 0.4545 -0.0533 0.8892
vn 0.3865 -0.2067 0.8989
vn 0.3416 -0.4662 0.8161
vn -0.0112 0.5599 0.8285
vn -0.0404 0.2238 0.9738
vn -0.2028 0.6028 0.7717
vn -0.3925 0.8921 0.2239
vn -0.4376 0.8639 -0.2493
vn -0.2352 -0.0730 0.9692
vn 0.1386 -0.1920 0.9716
vn 0.1085 -0.3539 0.9290
vn 0.2606 -0.6165 0.7430
vn -0.2563 0.2432 0.9355
vn -0.4961 0.4879 0.7183
vn -0.6446 0.3250 0.6920
vn -0.5442 0.8337 -0.0939
vn -0.1053 -0.2899 0.9512
vn -0.6097 0.6623 0.4354
vn 0.1820 -0.7358 0.6523
vn -0.5525 0.2083 0.8070
vn -0.5170 0.0996 0.8502
vn -0.0956 -0.5613 0.8221
vn -0.7865 0.5556 0.2699
vn -0.7063 -0.1017 0.7006
vn 0.0111 -0.6966 0.7174
vn -0.8518 0.2681 0.4500
vn -0.8440 -0.3000 0.4447
vn -0.9077 0.0442 0.4172
vn -0.5291 -0.4517 0.7183
vn -0.8951 0.4378 0.0842
vn -0.2417 -0.6358 0.7330
vn -0.8027 0.5668 -0.1853
vn -0.1272 -0.7957 0.5922
vn -0.9682 0.0929 0.2324
vn -0.9995 -0.0084 0.0297
vn -0.7911 -0.3741 0.4839
vn -0.9355 -0.2975 0.1909
vn -0.6866 -0.6050 0.4033
vn -0.8388 -0.5197 -0.1623
vn -0.4125 -0.8429 0.3454
vn -0.8981 0.3114 -0.3106
vn 0.0646 -0.8770 0.4761
vn -0.5855 0.6601 -0.4706
vn -0.9262 -0.1041 -0.3625
vn -0.7168 -0.6937 -0.0699
vn -0.6486 0.5352 -0.5412
vn -0.5792 -0.8094 0.0966
vn -0.7379 0.4520 -0.5011
vn -0.0577 -0.9383 0.3411
vn -0.4942 -0.7547 -0.4314
vn -0.9216 -0.3029 -0.2426
vn -0.7302 -0.5104 -0.4541
vn -0.4097 -0.8484 -0.3352
vn -0.7144 0.1975 -0.6713
vn -0.1432 -0.9897 -0.0017
vn -0.7458 -0.1583 -0.6470
vn -0.6842 -0.2884 -0.6699
vt 0.781230 0.812500
vt 0.762032 0.875000
vt 0.685473 0.777944
vt 0.734697 0.375000
vt 0.703125 0.312500
vt 0.764235 0.312500
vt 0.741874 0.599249
vt 0.704616 0.531266
vt 0.763980 0.500000
vt 0.734375 0.000000
vt 0.879629 0.062500
vt 0.593677 0.062500
vt 0.670132 0.472235
vt 0.734536 0.437500
vt 0.734224 0.937500
vt 0.605595 0.875000
vt 0.658359 0.250000
vt 0.719918 0.218999
vt 0.734375 0.717281
vt 0.678319 0.660608
vt 0.606077 0.187500
vt 0.641330 0.592355
vt 0.623673 0.812500
vt 0.673680 0.375000
vt 0.639230 0.312500
vt 0.640625 1.000000
vt 0.479138 0.937500
vt 0.639064 0.437500
vt 0.612180 0.375000
vt 0.595563 0.750000
vt 0.606567 0.500000
vt 0.603325 0.667055
vt 0.578286 0.562500
vt 0.578286 0.437500
vt 0.577540 0.283466
vt 0.543444 0.396147
vt 0.512752 0.812500
vt 0.546915 0.655822
vt 0.503540 0.125000
vt 0.660224 0.125000
vt 0.544067 0.500000
vt 0.509405 0.537235
vt 0.515588 0.281661
vt 0.510998 0.724803
vt 0.449506 0.875000
vt 0.487180 0.625000
vt 0.453286 0.562500
vt 0.450317 0.500000
vt 0.485851 0.406417
vt 0.453088 0.281661
vt 0.455926 0.750000
vt 0.445771 0.665313
vt 0.799126 0.125000
vt 0.779637 0.187500
vt 0.402284 0.812500
vt 0.497588 0.187500
vt 0.386121 0.187500
vt 0.328120 0.062500
vt 0.453125 0.000000
vt 0.437500 0.406180
vt 0.347717 0.125000
vt 0.390588 0.718339
vt 0.293360 0.875000
vt 0.308534 0.812500
vt 0.316528 0.750000
vt 0.343750 0.656371
vt 0.393429 0.625000
vt 0.296915 0.655822
vt 0.343750 0.531273
vt 0.297036 0.562500
vt 0.294067 0.500000
vt 0.328125 1.000000
vt 0.230145 0.937500
vt 0.328286 0.437500
vt 0.296914 0.344178
vt 0.343750 0.343629
vt 0.265786 0.437500
vt 0.234338 0.281661
vt 0.296902 0.219059
vt 0.214815 0.187500
vt 0.237180 0.375000
vt 0.199790 0.812500
vt 0.237635 0.520573
vt 0.203286 0.437500
vt 0.237180 0.625000
vt 0.203286 0.562500
vt 0.190964 0.125000
vt 0.113605 0.062500
vt 0.169067 0.500000
vt 0.203125 0.000000
vt 0.137012 0.875000
vt 0.176363 0.337227
vt 0.171838 0.718339
vt 0.234338 0.718339
vt 0.148421 0.399333
vt 0.160278 0.250000
vt 0.121065 0.187500
vt 0.174680 0.625000
vt 0.134405 0.537235
vt 0.140625 1.000000
vt 0.030235 0.937500
vt 0.075252 0.812500
vt 0.102021 0.334687
vt 0.109536 0.437500
vt 0.066529 0.250000
vt 0.055088 0.153620
vt 0.112179 0.625000
vt 0.078286 0.562500
vt 0.075317 0.500000
vt 0.047036 0.437500
vt 0.032456 0.875000
vt 0.048167 0.750000
vt 0.108913 0.719958
vt 0.062500 0.658651
vt 0.015664 0.655822
vt 0.018885 0.520574
vt 0.000000 0.562500
vt 0.015625 0.000000
vt 0.000000 0.062500
vt 0.000000 0.399333
vt 0.046914 0.344178
vt 0.000000 0.784407
vt 0.000000 0.273040
vt 0.991904 0.273040
vt 0.992171 0.399333
vt 0.937867 0.282145
vt 1.000000 0.655822
vt 0.975379 0.784407
vt 0.953164 0.655822
vt 1.000000 0.500000
vt 0.984536 0.562500
vt 0.950317 0.500000
vt 0.953286 0.437500
vt 0.924679 0.375000
vt 0.915655 0.537235
vt 0.910279 0.750000
vt 0.906250 0.656371
vt 0.965747 0.187500
vt 0.868449 0.212346
vt 0.978825 0.875000
vt 0.921769 0.937500
vt 0.872374 0.843190
vt 0.887823 0.312500
vt 0.859536 0.562500
vt 0.856567 0.500000
vt 0.890786 0.437500
vt 0.855944 0.396148
vt 0.859414 0.655822
vt 0.939862 0.125000
vt 0.812867 0.282145
vt 0.814726 0.750000
vt 0.796945 0.653777
vt 0.828125 1.000000
vt 0.798190 0.375000
vt 0.797036 0.437500
vt 0.390786 0.562500
vt 0.387817 0.500000
vt 0.390786 0.437500
vt 0.390665 0.344178
vt 0.378980 0.250000
vt 0.000000 0.125000
vt 0.000000 0.187500
vt 0.801816 0.543181
s 0
f 2/1/1 6/2/1 13/3/1
f 11/4/2 14/5/2 4/6/2
f 8/7/3 9/8/3 3/9/3
f 5/10/4 127/11/4 44/12/4
f 9/8/5 16/13/5 10/14/5
f 139/15/6 32/16/6 6/2/6
f 14/5/7 21/17/7 12/18/7
f 7/19/8 15/20/8 8/7/8
f 12/18/9 21/17/9 31/21/9
f 15/20/10 18/22/10 9/8/10
f 32/16/11 22/23/11 13/3/11
f 14/5/12 17/24/12 20/25/12
f 139/15/13 1/26/13 59/27/13
f 19/28/14 25/29/14 17/24/14
f 22/23/15 27/30/15 13/3/15
f 16/13/16 18/22/16 24/31/16
f 18/22/17 23/32/17 28/33/17
f 24/31/18 29/34/18 19/28/18
f 20/25/19 25/29/19 30/35/19
f 20/25/20 30/35/20 21/17/20
f 29/34/21 35/36/21 25/29/21
f 32/16/22 41/37/22 22/23/22
f 23/32/23 27/30/23 33/38/23
f 31/21/24 51/39/24 26/40/24
f 24/31/25 28/33/25 34/41/25
f 28/33/26 33/38/26 37/42/26
f 34/41/27 35/36/27 29/34/27
f 30/35/28 35/36/28 38/43/28
f 41/37/29 36/44/29 27/30/29
f 32/16/30 59/27/30 40/45/30
f 37/42/31 42/46/31 47/47/31
f 37/42/32 47/47/32 48/48/32
f 38/43/33 43/49/33 50/50/33
f 41/37/34 45/51/34 36/44/34
f 36/44/35 45/51/35 46/52/35
f 26/40/36 146/53/36 145/54/36 12/18/36
f 41/37/37 40/45/37 52/55/37
f 39/56/38 50/50/38 64/57/38
f 44/12/39 51/39/39 76/58/39
f 5/59/40 44/12/40 76/58/40
f 48/48/41 49/60/41 43/49/41
f 64/57/42 73/61/42 51/39/42
f 52/55/43 54/62/43 45/51/43
f 59/27/44 77/63/44 40/45/44
f 52/55/45 77/63/45 67/64/45
f 54/62/46 68/65/46 60/66/46
f 54/62/47 60/66/47 55/67/47
f 60/66/48 68/65/48 69/68/48
f 61/69/49 65/70/49 70/71/49
f 59/27/50 1/72/50 82/73/50
f 66/74/51 71/75/51 62/76/51
f 70/71/52 75/77/52 66/74/52
f 71/75/53 81/78/53 72/79/53
f 72/79/54 81/78/54 87/80/54
f 75/77/55 80/81/55 71/75/55
f 67/64/56 77/63/56 88/82/56
f 71/75/57 80/81/57 81/78/57
f 74/83/58 85/84/58 75/77/58
f 74/83/59 79/85/59 83/86/59
f 96/87/60 111/88/60 76/58/60
f 74/83/61 83/86/61 84/89/61
f 5/90/62 76/58/62 111/88/62
f 77/63/63 82/73/63 92/91/63
f 85/84/64 86/92/64 80/81/64
f 88/82/65 89/93/65 78/94/65
f 84/89/66 95/95/66 85/84/66
f 85/84/67 95/95/67 86/92/67
f 87/80/68 91/96/68 100/97/68
f 83/86/69 90/98/69 93/99/69
f 82/73/70 1/100/70 131/101/70
f 92/91/71 105/102/71 88/82/71
f 86/92/72 95/95/72 99/103/72
f 94/104/73 99/103/73 95/95/73
f 99/103/74 109/105/74 91/96/74
f 100/97/75 110/106/75 96/87/75
f 93/99/76 98/107/76 102/108/76
f 93/99/77 102/108/77 103/109/77
f 103/109/78 108/110/78 94/104/78
f 131/101/79 118/111/79 92/91/79
f 105/102/80 106/112/80 97/113/80
f 100/97/81 109/105/81 110/106/81
f 97/113/82 101/114/82 98/107/82
f 101/114/83 106/112/83 112/115/83
f 107/116/84 112/115/84 115/117/84
f 5/118/85 111/88/85 127/119/85
f 107/116/86 113/120/86 108/110/86
f 108/110/87 113/120/87 104/121/87
f 105/102/88 118/111/88 114/122/88
f 104/121/89 113/120/89 116/123/89
f 105/102/90 114/122/90 106/112/90
f 104/121/91 116/123/91 109/105/91
f 116/124/92 113/125/92 126/126/92
f 112/127/93 114/128/93 119/129/93
f 107/130/94 115/131/94 120/132/94
f 121/133/95 125/134/95 113/125/95
f 115/131/96 119/129/96 124/135/96
f 119/129/97 128/136/97 123/137/97
f 122/138/98 126/126/98 137/139/98
f 118/140/99 131/141/99 132/142/99
f 118/140/100 132/142/100 114/128/100
f 126/126/101 125/134/101 130/143/101
f 124/135/102 134/144/102 135/145/102
f 129/146/103 136/147/103 125/134/103
f 130/143/104 137/139/104 126/126/104
f 123/137/105 128/136/105 133/148/105
f 137/139/106 146/53/106 117/149/106
f 135/145/107 136/147/107 129/146/107
f 130/143/108 136/147/108 138/150/108
f 132/142/109 140/151/109 128/136/109
f 133/148/110 140/151/110 141/152/110
f 137/139/111 138/150/111 145/54/111
f 131/141/112 1/153/112 139/15/112
f 138/150/113 144/154/113 4/6/113
f 140/151/114 2/1/114 7/19/114
f 4/6/115 12/18/115 138/150/115
f 141/152/116 7/19/116 8/7/116
f 3/9/117 10/14/117 143/155/117
f 3/9/118 9/8/118 10/14/118
f 7/19/119 2/1/119 13/3/119
f 4/6/120 14/5/120 12/18/120
f 44/12/121 127/11/121 146/53/121 26/40/121
f 17/24/122 11/4/122 10/14/122 16/13/122
f 23/32/123 15/20/123 13/3/123 27/30/123
f 6/2/124 32/16/124 13/3/124
f 11/4/125 17/24/125 14/5/125
f 7/19/126 13/3/126 15/20/126
f 9/8/127 8/7/127 15/20/127
f 21/17/128 14/5/128 20/25/128
f 12/18/129 31/21/129 26/40/129
f 9/8/130 18/22/130 16/13/130
f 16/13/131 19/28/131 17/24/131
f 16/13/132 24/31/132 19/28/132
f 139/15/133 59/27/133 32/16/133
f 20/25/134 17/24/134 25/29/134
f 38/43/135 39/56/135 31/21/135 30/35/135
f 15/20/136 23/32/136 18/22/136
f 21/17/137 30/35/137 31/21/137
f 24/31/138 18/22/138 28/33/138
f 19/28/139 29/34/139 25/29/139
f 24/31/140 34/41/140 29/34/140
f 30/35/141 25/29/141 35/36/141
f 22/23/142 41/37/142 27/30/142
f 28/33/143 23/32/143 33/38/143
f 44/12/144 26/40/144 51/39/144
f 43/49/145 35/36/145 34/41/145 37/42/145
f 51/39/146 31/21/146 39/56/146
f 34/41/147 28/33/147 37/42/147
f 33/38/148 27/30/148 36/44/148
f 32/16/149 40/45/149 41/37/149
f 38/43/150 35/36/150 43/49/150
f 33/38/151 36/44/151 42/46/151
f 37/42/152 33/38/152 42/46/152
f 55/67/153 56/156/153 47/47/153 46/52/153
f 36/44/154 46/52/154 42/46/154
f 37/42/155 48/48/155 43/49/155
f 39/56/156 38/43/156 50/50/156
f 50/50/157 43/49/157 49/60/157
f 41/37/158 52/55/158 45/51/158
f 39/56/159 64/57/159 51/39/159
f 47/47/160 42/46/160 46/52/160
f 56/156/161 57/157/161 48/48/161 47/47/161
f 51/39/162 73/61/162 76/58/162
f 58/158/163 49/60/163 48/48/163 57/157/163
f 66/74/164 58/158/164 57/157/164 61/69/164
f 49/60/165 58/158/165 53/159/165
f 50/50/166 49/60/166 53/159/166
f 50/50/167 53/159/167 63/160/167
f 46/52/168 45/51/168 54/62/168
f 64/57/169 50/50/169 63/160/169
f 46/52/170 54/62/170 55/67/170
f 40/45/171 77/63/171 52/55/171
f 57/157/172 56/156/172 61/69/172
f 62/76/173 53/159/173 58/158/173 66/74/173
f 68/65/174 54/62/174 52/55/174 67/64/174
f 60/66/175 61/69/175 56/156/175 55/67/175
f 53/159/176 62/76/176 63/160/176
f 72/79/177 63/160/177 62/76/177 71/75/177
f 69/68/178 65/70/178 61/69/178 60/66/178
f 64/57/179 63/160/179 72/79/179
f 64/57/180 72/79/180 73/61/180
f 96/87/181 73/61/181 72/79/181 87/80/181
f 61/69/182 70/71/182 66/74/182
f 59/27/183 82/73/183 77/63/183
f 66/74/184 75/77/184 71/75/184
f 69/68/185 68/65/185 78/94/185
f 69/68/186 78/94/186 79/85/186
f 79/85/187 74/83/187 65/70/187 69/68/187
f 78/94/188 68/65/188 67/64/188 88/82/188
f 76/58/189 73/61/189 96/87/189
f 70/71/190 65/70/190 74/83/190
f 70/71/191 74/83/191 75/77/191
f 90/98/192 79/85/192 78/94/192 89/93/192
f 75/77/193 85/84/193 80/81/193
f 87/80/194 81/78/194 91/96/194
f 98/107/195 90/98/195 89/93/195 97/113/195
f 83/86/196 79/85/196 90/98/196
f 74/83/197 84/89/197 85/84/197
f 77/63/198 92/91/198 88/82/198
f 81/78/199 80/81/199 86/92/199
f 81/78/200 86/92/200 91/96/200
f 87/80/201 100/97/201 96/87/201
f 84/89/202 83/86/202 93/99/202
f 94/104/203 95/95/203 84/89/203 93/99/203
f 93/99/204 90/98/204 98/107/204
f 97/113/205 89/93/205 88/82/205 105/102/205
f 82/73/206 131/101/206 92/91/206
f 104/121/207 99/103/207 94/104/207 108/110/207
f 86/92/208 99/103/208 91/96/208
f 100/97/209 91/96/209 109/105/209
f 96/87/210 110/106/210 111/88/210
f 93/99/211 103/109/211 94/104/211
f 102/108/212 98/107/212 101/114/212
f 112/115/213 107/116/213 102/108/213 101/114/213
f 92/91/214 118/111/214 105/102/214
f 99/103/215 104/121/215 109/105/215
f 97/113/216 106/112/216 101/114/216
f 127/119/217 111/88/217 110/106/217 117/161/217
f 103/109/218 102/108/218 107/116/218
f 103/109/219 107/116/219 108/110/219
f 116/123/220 122/162/220 110/106/220 109/105/220
f 112/115/221 106/112/221 114/122/221
f 121/133/222 113/125/222 107/130/222 120/132/222
f 110/106/223 122/162/223 117/161/223
f 115/131/224 112/127/224 119/129/224
f 129/146/225 121/133/225 120/132/225 124/135/225
f 120/132/226 115/131/226 124/135/226
f 126/126/227 113/125/227 125/134/227
f 119/129/228 114/128/228 128/136/228
f 122/138/229 116/124/229 126/126/229
f 114/128/230 132/142/230 128/136/230
f 117/149/231 122/138/231 137/139/231
f 124/135/232 119/129/232 123/137/232
f 133/148/233 134/144/233 124/135/233 123/137/233
f 121/133/234 129/146/234 125/134/234
f 124/135/235 135/145/235 129/146/235
f 130/143/236 125/134/236 136/147/236
f 143/155/237 136/147/237 135/145/237 142/163/237
f 130/143/238 138/150/238 137/139/238
f 133/148/239 128/136/239 140/151/239
f 117/149/240 146/53/240 127/11/240
f 139/15/241 6/2/241 132/142/241 131/141/241
f 141/152/242 142/163/242 134/144/242 133/148/242
f 136/147/243 143/155/243 144/154/243
f 132/142/244 6/2/244 2/1/244
f 138/150/245 136/147/245 144/154/245
f 132/142/246 2/1/246 140/151/246
f 137/139/247 145/54/247 146/53/247
f 11/4/248 144/154/248 143/155/248 10/14/248
f 135/145/249 134/144/249 142/163/249
f 142/163/250 3/9/250 143/155/250
f 144/154/251 11/4/251 4/6/251
f 141/152/252 140/151/252 7/19/252
f 145/54/253 138/150/253 12/18/253
f 142/163/254 141/152/254 8/7/254
f 3/9/255 142/163/255 8/7/255
