# Blender 5.0.0
# www.blender.org
mtllib Walk_Forward0033.mtl
o Sphere
v -2.036470 4.144887 1.052438
v -2.125127 4.291686 0.506755
v -1.987467 3.808805 -0.197834
v -1.890682 3.223556 -0.234935
v -1.744349 2.381120 0.356180
v -2.058963 4.294034 0.677163
v -1.914867 4.275216 0.225988
v -1.888239 4.083660 -0.045285
v -1.628540 3.944093 -0.103316
v -1.778452 3.661953 -0.235926
v -1.756705 3.461614 -0.250365
v -1.679926 2.945908 -0.123857
v -1.741724 4.324467 0.472771
v -1.578814 3.276772 -0.192068
v -1.590519 4.208468 0.184986
v -1.409679 3.765265 -0.086297
v -1.421542 3.468617 -0.140664
v -1.346563 4.054870 0.173244
v -1.246879 3.616121 -0.005301
v -1.289825 3.218037 -0.032113
v -1.413718 3.029770 -0.053650
v -1.624274 4.287857 0.667449
v -1.292353 4.127407 0.437002
v -1.120637 3.749015 0.190923
v -1.144395 3.382629 0.072794
v -1.552365 2.668523 0.098453
v -1.426257 4.218996 0.631027
v -1.067877 3.846564 0.405624
v -1.010289 3.498855 0.268363
v -1.115789 3.025277 0.201436
v -1.336083 2.798458 0.127273
v -1.732211 4.270105 0.835059
v -1.123994 3.972940 0.684239
v -0.940443 3.580865 0.512965
v -0.940883 3.290929 0.404379
v -1.231991 3.996578 0.929769
v -0.920917 3.569178 0.743072
v -1.032565 2.870521 0.460888
v -1.220450 2.613328 0.451725
v -1.658985 4.071514 1.155577
v -1.469519 4.123275 0.988704
v -1.034395 3.715118 0.957147
v -0.897265 3.121672 0.726210
v -1.581638 2.486545 0.270213
v -1.319301 3.892176 1.162695
v -1.143827 3.677940 1.179102
v -0.985722 3.433010 1.080900
v -0.943920 3.248054 1.033890
v -0.961053 2.955996 0.967463
v -1.060126 2.693536 0.729593
v -1.375007 2.512835 0.395031
v -1.558180 3.892314 1.308158
v -1.134539 2.640073 1.080267
v -1.386539 3.644452 1.405470
v -1.223242 3.397732 1.393920
v -1.160286 3.210098 1.374099
v -1.128237 3.021683 1.329362
v -1.102697 2.862389 1.236839
v -1.839149 4.151417 1.081863
v -1.463995 3.346070 1.554974
v -1.361321 2.963176 1.521001
v -1.325539 2.510102 1.224971
v -1.273246 2.442634 0.922897
v -1.347846 2.386477 0.764018
v -1.625482 2.949757 1.632011
v -1.392799 2.674000 1.438517
v -1.808182 3.736216 1.472155
v -1.703074 3.571265 1.549222
v -1.692793 3.243135 1.645044
v -1.608500 2.760381 1.583906
v -1.553909 2.404582 1.314020
v -1.581274 2.262789 0.989904
v -1.529769 2.302206 0.680368
v -1.982071 2.743914 1.621168
v -1.754274 2.548814 1.517970
v -1.650358 2.310385 0.527642
v -1.921243 3.893621 1.364474
v -2.054376 3.372903 1.615420
v -2.009851 3.065528 1.660599
v -1.897326 2.386120 1.392398
v -1.867720 2.245912 1.170533
v -2.056857 4.010424 1.224101
v -2.189680 2.853598 1.600363
v -2.362797 2.682834 1.461579
v -2.132091 2.505889 1.463103
v -2.200857 2.316507 1.214390
v -1.883317 2.197458 0.894492
v -2.178358 3.666195 1.463745
v -2.341921 3.375233 1.518762
v -2.354156 3.063401 1.552574
v -2.154068 2.230011 0.971528
v -2.272450 3.868108 1.276223
v -2.551710 2.826254 1.380969
v -2.605122 2.606325 1.152563
v -2.398877 2.454506 1.250551
v -1.888363 2.216402 0.693979
v -2.574937 3.446265 1.331975
v -2.636424 3.143378 1.335825
v -2.499173 2.407345 0.965413
v -2.163425 2.241012 0.735575
v -2.757554 3.353290 1.136953
v -2.770530 3.027153 1.140255
v -2.767124 2.853194 1.063577
v -2.656825 2.553068 0.724380
v -2.496690 3.779738 1.195352
v -2.655960 3.658489 1.102196
v -2.887536 3.101884 0.766795
v -2.788045 2.768308 0.839311
v -2.423349 2.362097 0.677241
v -2.195374 2.321581 0.493201
v -1.896052 2.296301 0.472825
v -2.831748 3.482879 0.900599
v -2.788349 2.853356 0.498943
v -2.624044 3.902659 0.860239
v -2.887516 3.326845 0.632319
v -2.545691 2.581578 0.393934
v -2.111852 2.465276 0.233387
v -2.406001 4.022645 0.998669
v -2.803211 3.684582 0.593437
v -2.836898 3.277954 0.374728
v -2.795096 3.092998 0.327718
v -2.311350 2.505394 0.276944
v -2.693079 3.835898 0.389096
v -2.769082 3.504680 0.246482
v -2.652803 3.025016 0.145872
v -2.513419 2.737229 0.184893
v -1.893786 2.448765 0.229136
v -2.590778 4.006694 0.579090
v -2.620533 3.315909 0.034519
v -2.441428 2.971205 -0.008660
v -2.230918 4.110280 1.018828
v -2.346617 4.188414 0.682863
v -2.526450 3.976767 0.224628
v -2.545097 3.764101 0.057188
v -2.514396 3.605726 -0.035108
v -2.445383 3.306444 -0.106569
v -2.199527 2.751426 -0.003195
v -2.110317 3.049556 -0.174648
v -2.016402 4.247045 0.865994
v -2.277920 4.217769 0.359314
v -2.226910 4.121425 0.094599
v -2.216648 3.866013 -0.121068
v -2.155338 3.576249 -0.223392
v -2.115252 3.372561 -0.237375
v -1.875835 2.817589 -0.079825
v -1.875352 2.636121 0.045576
vn -0.0835 0.9963 0.0187
vn 0.1602 -0.1534 -0.9751
vn 0.0552 0.4692 -0.8813
vn 0.1740 -0.7696 -0.6144
vn 0.2948 0.2737 -0.9155
vn -0.0510 0.9664 0.2520
vn 0.3275 -0.2858 -0.9006
vn 0.0965 0.8175 -0.5678
vn 0.3640 -0.4950 -0.7890
vn 0.3815 0.6557 -0.6516
vn 0.0650 0.9871 0.1464
vn 0.4576 -0.1399 -0.8781
vn -0.0991 0.8771 0.4699
vn 0.6108 0.0033 -0.7918
vn 0.3254 0.9454 -0.0185
vn 0.6364 0.4332 -0.6382
vn 0.7232 0.6135 -0.3173
vn 0.7793 0.1559 -0.6069
vn 0.7062 -0.1891 -0.6823
vn 0.6132 -0.3209 -0.7218
vn 0.8415 -0.0695 -0.5357
vn 0.3236 0.8963 0.3033
vn 0.6235 0.7794 0.0624
vn 0.4652 -0.6383 -0.6133
vn 0.8920 0.2867 -0.3494
vn 0.8944 0.4466 -0.0224
vn 0.9446 0.1139 -0.3079
vn 0.8701 -0.2471 -0.4265
vn 0.5050 0.8166 0.2796
vn 0.1790 0.8541 0.4883
vn 0.9136 0.2849 0.2901
vn 0.9571 0.1539 0.2456
vn 0.9254 -0.3531 -0.1377
vn 0.5006 0.7043 0.5033
vn 0.6508 0.5713 0.5000
vn 0.1871 -0.5596 -0.8074
vn 0.3433 0.7133 0.6110
vn 0.7019 -0.6811 -0.2084
vn 0.3763 -0.8084 -0.4527
vn 0.2754 -0.8260 -0.4917
vn 0.9768 -0.1004 0.1893
vn 0.5136 -0.7995 -0.3116
vn 0.4272 0.5710 0.7010
vn 0.0459 0.7313 0.6805
vn 0.1226 0.6188 0.7759
vn 0.3162 0.3581 0.8785
vn 0.4898 0.2856 0.8237
vn 0.2405 0.2790 0.9297
vn 0.3884 -0.1940 0.9008
vn -0.1161 0.7886 0.6039
vn 0.5153 -0.5937 0.6180
vn 0.3452 -0.4877 0.8019
vn 0.2821 -0.8875 0.3644
vn 0.1595 -0.9738 0.1619
vn 0.1943 -0.7007 0.6865
vn -0.1147 0.5035 0.8564
vn 0.1681 -0.8230 0.5425
vn -0.0638 -0.5238 0.8494
vn -0.1688 -0.1343 0.9765
vn 0.1294 -0.9311 -0.3409
vn -0.2987 -0.4010 0.8660
vn 0.1501 -0.8822 -0.4463
vn -0.2326 0.6252 0.7450
vn -0.1953 -0.7535 0.6278
vn -0.2976 0.3363 0.8935
vn -0.4419 -0.5702 0.6925
vn -0.3658 -0.6889 0.6257
vn -0.1308 -0.9906 -0.0410
vn -0.4971 -0.1973 0.8449
vn -0.2389 0.7780 0.5810
vn -0.4589 0.4804 0.7475
vn -0.5046 -0.8055 0.3107
vn -0.6570 -0.6717 0.3422
vn -0.4572 -0.8891 0.0193
vn -0.1296 -0.9459 -0.2974
vn -0.7831 -0.1224 0.6097
vn -0.8110 -0.2492 0.5293
vn -0.8480 -0.4646 0.2550
vn -0.4154 0.6950 0.5869
vn -0.6725 0.4102 0.6160
vn -0.3620 -0.8978 -0.2507
vn -0.7576 0.1618 0.6323
vn -0.8348 0.3282 0.4420
vn -0.9842 0.0908 0.1518
vn 0.0665 -0.8462 -0.5288
vn -0.9511 -0.2998 -0.0741
vn -0.8745 -0.4707 -0.1168
vn -0.6351 0.6153 0.4670
vn -0.7658 -0.5654 -0.3063
vn -0.6922 0.5516 0.4654
vn -0.6412 -0.7155 -0.2774
vn -0.7406 -0.4792 -0.4711
vn -0.8670 0.4496 0.2147
vn -0.9795 -0.1033 -0.1729
vn -0.7941 -0.3680 -0.4838
vn -0.9583 0.2041 -0.2001
vn -0.8349 0.5487 -0.0437
vn -0.3864 -0.6111 -0.6909
vn -0.4515 0.8222 0.3467
vn -0.5942 0.7528 0.2834
vn -0.6063 -0.3878 -0.6943
vn -0.7614 0.2098 -0.6134
vn -0.6191 -0.2199 -0.7539
vn -0.4307 -0.4929 -0.7560
vn -0.7359 0.6504 -0.1885
vn -0.1204 -0.6542 -0.7467
vn -0.6254 0.0418 -0.7792
vn -0.3818 -0.2633 -0.8859
vn -0.5825 0.8113 -0.0501
vn -0.5306 0.7585 -0.3783
vn -0.1111 -0.4702 -0.8755
vn -0.2312 0.8635 0.4482
vn -0.1162 -0.1911 -0.9747
vn -0.2342 0.9444 -0.2308
vn 0.0248 -0.3551 -0.9345
vn -0.1503 0.8006 -0.5801
vn -0.0686 0.1578 -0.9851
vn 0.0991 0.3797 -0.9198
vn -0.0959 0.9869 -0.1297
vn 0.1735 -0.2494 -0.9527
vn 0.1798 -0.6940 -0.6972
vn 0.3236 0.1361 -0.9363
vn 0.3853 0.9082 -0.1633
vn 0.0007 0.9889 0.1484
vn 0.3111 -0.0004 -0.9504
vn 0.1562 0.9418 -0.2976
vn 0.2270 0.7027 -0.6743
vn 0.4449 -0.1927 -0.8746
vn 0.3846 -0.4631 -0.7985
vn 0.4826 0.5239 -0.7019
vn 0.5355 0.1315 -0.8342
vn 0.6571 0.3565 -0.6642
vn -0.0274 0.9054 0.4236
vn 0.6047 -0.0270 -0.7960
vn 0.6934 -0.4946 -0.5240
vn 0.4930 0.8077 -0.3234
vn 0.6050 -0.3545 -0.7129
vn 0.7414 0.5234 -0.4200
vn 0.7775 0.1359 -0.6140
vn 0.8922 0.2851 -0.3503
vn 0.8287 -0.1297 -0.5445
vn 0.3610 0.8891 0.2816
vn 0.7673 0.6279 -0.1302
vn 0.4519 -0.6497 -0.6113
vn 0.9940 0.0480 -0.0980
vn 0.5878 -0.5945 -0.5487
vn 0.9089 0.4132 -0.0561
vn 0.5997 0.7776 0.1889
vn 0.1936 0.8532 0.4844
vn 0.9378 -0.2384 -0.2525
vn 0.7714 0.5692 0.2845
vn 0.8745 0.4616 0.1489
vn 0.7638 0.2253 0.6049
vn 0.7131 0.5437 0.4426
vn 0.9903 0.0474 0.1307
vn 0.7782 -0.5582 -0.2879
vn 0.9347 -0.3555 0.0030
vn 0.3715 0.7004 0.6095
vn 0.5949 -0.7460 -0.2993
vn 0.8183 0.3434 0.4610
vn 0.8416 0.0340 0.5390
vn 0.4232 -0.8233 -0.3782
vn 0.8896 -0.1369 0.4358
vn 0.6579 -0.2813 0.6986
vn 0.8715 -0.3596 0.3333
vn 0.8877 -0.4444 0.1206
vn 0.7874 -0.6120 0.0738
vn 0.5515 0.5027 0.6657
vn 0.7210 -0.6863 -0.0959
vn 0.6064 0.3684 0.7047
vn 0.1147 0.6806 0.7236
vn 0.6441 -0.0713 0.7616
vn 0.6988 -0.4605 0.5474
vn 0.2416 0.5106 0.8252
vn 0.5351 0.0760 0.8414
vn 0.6732 -0.6883 0.2703
vn 0.5139 -0.8073 0.2902
vn 0.3717 0.0289 0.9279
vn 0.5132 -0.8560 0.0616
vn 0.4358 -0.8991 -0.0420
vn 0.2326 -0.9684 -0.0896
vn 0.4524 -0.2898 0.8434
vn -0.0475 0.7448 0.6656
vn 0.3581 -0.5595 0.7475
vn 0.0222 0.2809 0.9595
vn -0.0305 0.1410 0.9895
vn 0.0508 -0.0771 0.9957
vn -0.0808 0.4125 0.9074
vn 0.2188 -0.9498 -0.2236
vn 0.1067 -0.2358 0.9659
vn 0.1083 -0.3631 0.9255
vn -0.3065 0.1047 0.9461
vn -0.0519 -0.5812 0.8121
vn -0.0679 -0.9820 0.1762
vn -0.5902 0.1197 0.7984
vn -0.2992 -0.0173 0.9540
vn -0.3029 -0.3874 0.8708
vn -0.2357 0.6001 0.7644
vn -0.1109 -0.8467 0.5203
vn -0.1590 -0.9393 0.3039
vn -0.1024 -0.9906 -0.0910
vn -0.4995 -0.1819 0.8470
vn -0.6317 -0.4747 0.6129
vn -0.6176 -0.0533 0.7847
vn -0.4883 0.4233 0.7631
vn -0.3219 0.7149 0.6207
vn -0.7975 -0.5794 0.1684
vn -0.4488 -0.8657 0.2219
vn -0.4174 -0.9084 -0.0258
vn -0.1019 -0.9367 -0.3349
vn -0.7922 -0.3364 0.5091
vn -0.8347 0.0388 0.5493
vn -0.9502 0.0352 0.3097
vn -0.4712 0.6546 0.5912
vn -0.6381 -0.7685 -0.0472
vn -0.7630 0.3181 0.5628
vn -0.0933 -0.8512 -0.5166
vn -0.9527 -0.1380 0.2709
vn -0.9525 -0.2446 0.1814
vn -0.4654 -0.7840 -0.4109
vn -0.8303 0.4433 0.3378
vn -0.9652 -0.1688 -0.1998
vn -0.2770 -0.8003 -0.5317
vn -0.9697 0.2355 0.0646
vn -0.8399 -0.0535 -0.5401
vn -0.9618 0.1632 -0.2200
vn -0.7518 -0.4317 -0.4985
vn -0.8279 0.5507 0.1058
vn -0.4966 -0.6577 -0.5664
vn -0.6382 0.7435 0.1996
vn -0.2845 -0.6611 -0.6942
vn -0.9126 0.3194 -0.2554
vn -0.8051 0.3932 -0.4440
vn -0.8041 -0.1327 -0.5796
vn -0.7576 0.1235 -0.6409
vn -0.6118 -0.2284 -0.7573
vn -0.4480 0.1604 -0.8795
vn -0.3366 -0.3917 -0.8563
vn -0.6334 0.7530 -0.1785
vn -0.0666 -0.6949 -0.7160
vn -0.3312 0.8904 0.3122
vn -0.5321 0.5419 -0.6505
vn -0.3669 -0.0083 -0.9302
vn -0.3401 0.9328 0.1192
vn -0.3298 -0.1848 -0.9258
vn -0.4284 0.9035 -0.0090
vn -0.0783 -0.5669 -0.8201
vn -0.0495 0.0626 -0.9968
vn -0.5283 0.3487 -0.7741
vn -0.2423 0.2771 -0.9298
vn -0.0234 -0.0516 -0.9984
vn -0.2778 0.8843 -0.3754
vn 0.0241 -0.3573 -0.9337
vn -0.2391 0.6208 -0.7466
vn -0.1514 0.5209 -0.8401
vt 0.781230 0.812500
vt 0.762032 0.875000
vt 0.685473 0.777944
vt 0.734697 0.375000
vt 0.703125 0.312500
vt 0.764235 0.312500
vt 0.741874 0.599249
vt 0.704616 0.531266
vt 0.763980 0.500000
vt 0.734375 0.000000
vt 0.879629 0.062500
vt 0.593677 0.062500
vt 0.670132 0.472235
vt 0.734536 0.437500
vt 0.734224 0.937500
vt 0.605595 0.875000
vt 0.658359 0.250000
vt 0.719918 0.218999
vt 0.734375 0.717281
vt 0.678319 0.660608
vt 0.606077 0.187500
vt 0.641330 0.592355
vt 0.623673 0.812500
vt 0.673680 0.375000
vt 0.639230 0.312500
vt 0.640625 1.000000
vt 0.479138 0.937500
vt 0.639064 0.437500
vt 0.612180 0.375000
vt 0.595563 0.750000
vt 0.606567 0.500000
vt 0.603325 0.667055
vt 0.578286 0.562500
vt 0.578286 0.437500
vt 0.577540 0.283466
vt 0.543444 0.396147
vt 0.512752 0.812500
vt 0.546915 0.655822
vt 0.503540 0.125000
vt 0.660224 0.125000
vt 0.544067 0.500000
vt 0.509405 0.537235
vt 0.515588 0.281661
vt 0.510998 0.724803
vt 0.449506 0.875000
vt 0.487180 0.625000
vt 0.453286 0.562500
vt 0.450317 0.500000
vt 0.485851 0.406417
vt 0.453088 0.281661
vt 0.455926 0.750000
vt 0.445771 0.665313
vt 0.799126 0.125000
vt 0.779637 0.187500
vt 0.402284 0.812500
vt 0.497588 0.187500
vt 0.386121 0.187500
vt 0.328120 0.062500
vt 0.453125 0.000000
vt 0.437500 0.406180
vt 0.347717 0.125000
vt 0.390588 0.718339
vt 0.293360 0.875000
vt 0.308534 0.812500
vt 0.316528 0.750000
vt 0.343750 0.656371
vt 0.393429 0.625000
vt 0.296915 0.655822
vt 0.343750 0.531273
vt 0.297036 0.562500
vt 0.294067 0.500000
vt 0.328125 1.000000
vt 0.230145 0.937500
vt 0.328286 0.437500
vt 0.296914 0.344178
vt 0.343750 0.343629
vt 0.265786 0.437500
vt 0.234338 0.281661
vt 0.296902 0.219059
vt 0.214815 0.187500
vt 0.237180 0.375000
vt 0.199790 0.812500
vt 0.237635 0.520573
vt 0.203286 0.437500
vt 0.237180 0.625000
vt 0.203286 0.562500
vt 0.190964 0.125000
vt 0.113605 0.062500
vt 0.169067 0.500000
vt 0.203125 0.000000
vt 0.137012 0.875000
vt 0.176363 0.337227
vt 0.171838 0.718339
vt 0.234338 0.718339
vt 0.148421 0.399333
vt 0.160278 0.250000
vt 0.121065 0.187500
vt 0.174680 0.625000
vt 0.134405 0.537235
vt 0.140625 1.000000
vt 0.030235 0.937500
vt 0.075252 0.812500
vt 0.102021 0.334687
vt 0.109536 0.437500
vt 0.066529 0.250000
vt 0.055088 0.153620
vt 0.112179 0.625000
vt 0.078286 0.562500
vt 0.075317 0.500000
vt 0.047036 0.437500
vt 0.032456 0.875000
vt 0.048167 0.750000
vt 0.108913 0.719958
vt 0.062500 0.658651
vt 0.015664 0.655822
vt 0.018885 0.520574
vt 0.000000 0.562500
vt 0.015625 0.000000
vt 0.000000 0.062500
vt 0.000000 0.399333
vt 0.046914 0.344178
vt 0.000000 0.784407
vt 0.000000 0.273040
vt 0.991904 0.273040
vt 0.992171 0.399333
vt 0.937867 0.282145
vt 1.000000 0.655822
vt 0.975379 0.784407
vt 0.953164 0.655822
vt 1.000000 0.500000
vt 0.984536 0.562500
vt 0.950317 0.500000
vt 0.953286 0.437500
vt 0.924679 0.375000
vt 0.915655 0.537235
vt 0.910279 0.750000
vt 0.906250 0.656371
vt 0.965747 0.187500
vt 0.868449 0.212346
vt 0.978825 0.875000
vt 0.921769 0.937500
vt 0.872374 0.843190
vt 0.887823 0.312500
vt 0.859536 0.562500
vt 0.856567 0.500000
vt 0.890786 0.437500
vt 0.855944 0.396148
vt 0.859414 0.655822
vt 0.939862 0.125000
vt 0.812867 0.282145
vt 0.814726 0.750000
vt 0.796945 0.653777
vt 0.828125 1.000000
vt 0.798190 0.375000
vt 0.797036 0.437500
vt 0.390786 0.562500
vt 0.387817 0.500000
vt 0.390786 0.437500
vt 0.390665 0.344178
vt 0.378980 0.250000
vt 0.000000 0.125000
vt 0.000000 0.187500
vt 0.801816 0.543181
s 0
f 2/1/1 6/2/1 13/3/1
f 11/4/2 14/5/2 4/6/2
f 8/7/3 9/8/3 3/9/3
f 5/10/4 127/11/4 44/12/4
f 9/8/5 16/13/5 10/14/5
f 139/15/6 32/16/6 6/2/6
f 14/5/7 21/17/7 12/18/7
f 7/19/8 15/20/8 8/7/8
f 12/18/9 21/17/9 31/21/9
f 15/20/10 18/22/10 9/8/10
f 32/16/11 22/23/11 13/3/11
f 14/5/12 17/24/12 20/25/12
f 139/15/13 1/26/13 59/27/13
f 19/28/14 25/29/14 17/24/14
f 22/23/15 27/30/15 13/3/15
f 16/13/16 18/22/16 24/31/16
f 18/22/17 23/32/17 28/33/17
f 24/31/18 29/34/18 19/28/18
f 20/25/19 25/29/19 30/35/19
f 20/25/20 30/35/20 21/17/20
f 29/34/21 35/36/21 25/29/21
f 32/16/22 41/37/22 22/23/22
f 23/32/23 27/30/23 33/38/23
f 31/21/24 51/39/24 26/40/24
f 24/31/25 28/33/25 34/41/25
f 28/33/26 33/38/26 37/42/26
f 34/41/27 35/36/27 29/34/27
f 30/35/28 35/36/28 38/43/28
f 41/37/29 36/44/29 27/30/29
f 32/16/30 59/27/30 40/45/30
f 37/42/31 42/46/31 47/47/31
f 37/42/32 47/47/32 48/48/32
f 38/43/33 43/49/33 50/50/33
f 41/37/34 45/51/34 36/44/34
f 36/44/35 45/51/35 46/52/35
f 26/40/36 146/53/36 145/54/36 12/18/36
f 41/37/37 40/45/37 52/55/37
f 39/56/38 50/50/38 64/57/38
f 44/12/39 51/39/39 76/58/39
f 5/59/40 44/12/40 76/58/40
f 48/48/41 49/60/41 43/49/41
f 64/57/42 73/61/42 51/39/42
f 52/55/43 54/62/43 45/51/43
f 59/27/44 77/63/44 40/45/44
f 52/55/45 77/63/45 67/64/45
f 54/62/46 68/65/46 60/66/46
f 54/62/47 60/66/47 55/67/47
f 60/66/48 68/65/48 69/68/48
f 61/69/49 65/70/49 70/71/49
f 59/27/50 1/72/50 82/73/50
f 66/74/51 71/75/51 62/76/51
f 70/71/52 75/77/52 66/74/52
f 71/75/53 81/78/53 72/79/53
f 72/79/54 81/78/54 87/80/54
f 75/77/55 80/81/55 71/75/55
f 67/64/56 77/63/56 88/82/56
f 71/75/57 80/81/57 81/78/57
f 74/83/58 85/84/58 75/77/58
f 74/83/59 79/85/59 83/86/59
f 96/87/60 111/88/60 76/58/60
f 74/83/61 83/86/61 84/89/61
f 5/90/62 76/58/62 111/88/62
f 77/63/63 82/73/63 92/91/63
f 85/84/64 86/92/64 80/81/64
f 88/82/65 89/93/65 78/94/65
f 84/89/66 95/95/66 85/84/66
f 85/84/67 95/95/67 86/92/67
f 87/80/68 91/96/68 100/97/68
f 83/86/69 90/98/69 93/99/69
f 82/73/70 1/100/70 131/101/70
f 92/91/71 105/102/71 88/82/71
f 86/92/72 95/95/72 99/103/72
f 94/104/73 99/103/73 95/95/73
f 99/103/74 109/105/74 91/96/74
f 100/97/75 110/106/75 96/87/75
f 93/99/76 98/107/76 102/108/76
f 93/99/77 102/108/77 103/109/77
f 103/109/78 108/110/78 94/104/78
f 131/101/79 118/111/79 92/91/79
f 105/102/80 106/112/80 97/113/80
f 100/97/81 109/105/81 110/106/81
f 97/113/82 101/114/82 98/107/82
f 101/114/83 106/112/83 112/115/83
f 107/116/84 112/115/84 115/117/84
f 5/118/85 111/88/85 127/119/85
f 107/116/86 113/120/86 108/110/86
f 108/110/87 113/120/87 104/121/87
f 105/102/88 118/111/88 114/122/88
f 104/121/89 113/120/89 116/123/89
f 105/102/90 114/122/90 106/112/90
f 104/121/91 116/123/91 109/105/91
f 116/124/92 113/125/92 126/126/92
f 112/127/93 114/128/93 119/129/93
f 107/130/94 115/131/94 120/132/94
f 121/133/95 125/134/95 113/125/95
f 115/131/96 119/129/96 124/135/96
f 119/129/97 128/136/97 123/137/97
f 122/138/98 126/126/98 137/139/98
f 118/140/99 131/141/99 132/142/99
f 118/140/100 132/142/100 114/128/100
f 126/126/101 125/134/101 130/143/101
f 124/135/102 134/144/102 135/145/102
f 129/146/103 136/147/103 125/134/103
f 130/143/104 137/139/104 126/126/104
f 123/137/105 128/136/105 133/148/105
f 137/139/106 146/53/106 117/149/106
f 135/145/107 136/147/107 129/146/107
f 130/143/108 136/147/108 138/150/108
f 132/142/109 140/151/109 128/136/109
f 133/148/110 140/151/110 141/152/110
f 137/139/111 138/150/111 145/54/111
f 131/141/112 1/153/112 139/15/112
f 138/150/113 144/154/113 4/6/113
f 140/151/114 2/1/114 7/19/114
f 4/6/115 12/18/115 138/150/115
f 141/152/116 7/19/116 8/7/116
f 3/9/117 10/14/117 143/155/117
f 3/9/118 9/8/118 10/14/118
f 7/19/119 2/1/119 13/3/119
f 4/6/120 14/5/120 12/18/120
f 44/12/121 127/11/121 146/53/121 26/40/121
f 17/24/122 11/4/122 10/14/122 16/13/122
f 23/32/123 15/20/123 13/3/123 27/30/123
f 6/2/124 32/16/124 13/3/124
f 11/4/125 17/24/125 14/5/125
f 7/19/126 13/3/126 15/20/126
f 9/8/127 8/7/127 15/20/127
f 21/17/128 14/5/128 20/25/128
f 12/18/129 31/21/129 26/40/129
f 9/8/130 18/22/130 16/13/130
f 16/13/131 19/28/131 17/24/131
f 16/13/132 24/31/132 19/28/132
f 139/15/133 59/27/133 32/16/133
f 20/25/134 17/24/134 25/29/134
f 38/43/135 39/56/135 31/21/135 30/35/135
f 15/20/136 23/32/136 18/22/136
f 21/17/137 30/35/137 31/21/137
f 24/31/138 18/22/138 28/33/138
f 19/28/139 29/34/139 25/29/139
f 24/31/140 34/41/140 29/34/140
f 30/35/141 25/29/141 35/36/141
f 22/23/142 41/37/142 27/30/142
f 28/33/143 23/32/143 33/38/143
f 44/12/144 26/40/144 51/39/144
f 43/49/145 35/36/145 34/41/145 37/42/145
f 51/39/146 31/21/146 39/56/146
f 34/41/147 28/33/147 37/42/147
f 33/38/148 27/30/148 36/44/148
f 32/16/149 40/45/149 41/37/149
f 38/43/150 35/36/150 43/49/150
f 33/38/151 36/44/151 42/46/151
f 37/42/152 33/38/152 42/46/152
f 55/67/153 56/156/153 47/47/153 46/52/153
f 36/44/154 46/52/154 42/46/154
f 37/42/155 48/48/155 43/49/155
f 39/56/156 38/43/156 50/50/156
f 50/50/157 43/49/157 49/60/157
f 41/37/158 52/55/158 45/51/158
f 39/56/159 64/57/159 51/39/159
f 47/47/160 42/46/160 46/52/160
f 56/156/161 57/157/161 48/48/161 47/47/161
f 51/39/162 73/61/162 76/58/162
f 58/158/163 49/60/163 48/48/163 57/157/163
f 66/74/164 58/158/164 57/157/164 61/69/164
f 49/60/165 58/158/165 53/159/165
f 50/50/166 49/60/166 53/159/166
f 50/50/167 53/159/167 63/160/167
f 46/52/168 45/51/168 54/62/168
f 64/57/169 50/50/169 63/160/169
f 46/52/170 54/62/170 55/67/170
f 40/45/171 77/63/171 52/55/171
f 57/157/172 56/156/172 61/69/172
f 62/76/173 53/159/173 58/158/173 66/74/173
f 68/65/174 54/62/174 52/55/174 67/64/174
f 60/66/175 61/69/175 56/156/175 55/67/175
f 53/159/176 62/76/176 63/160/176
f 72/79/177 63/160/177 62/76/177 71/75/177
f 69/68/178 65/70/178 61/69/178 60/66/178
f 64/57/179 63/160/179 72/79/179
f 64/57/180 72/79/180 73/61/180
f 96/87/181 73/61/181 72/79/181 87/80/181
f 61/69/182 70/71/182 66/74/182
f 59/27/183 82/73/183 77/63/183
f 66/74/184 75/77/184 71/75/184
f 69/68/185 68/65/185 78/94/185
f 69/68/186 78/94/186 79/85/186
f 79/85/187 74/83/187 65/70/187 69/68/187
f 78/94/188 68/65/188 67/64/188 88/82/188
f 76/58/189 73/61/189 96/87/189
f 70/71/190 65/70/190 74/83/190
f 70/71/191 74/83/191 75/77/191
f 90/98/192 79/85/192 78/94/192 89/93/192
f 75/77/193 85/84/193 80/81/193
f 87/80/194 81/78/194 91/96/194
f 98/107/195 90/98/195 89/93/195 97/113/195
f 83/86/196 79/85/196 90/98/196
f 74/83/197 84/89/197 85/84/197
f 77/63/198 92/91/198 88/82/198
f 81/78/199 80/81/199 86/92/199
f 81/78/200 86/92/200 91/96/200
f 87/80/201 100/97/201 96/87/201
f 84/89/202 83/86/202 93/99/202
f 94/104/203 95/95/203 84/89/203 93/99/203
f 93/99/204 90/98/204 98/107/204
f 97/113/205 89/93/205 88/82/205 105/102/205
f 82/73/206 131/101/206 92/91/206
f 104/121/207 99/103/207 94/104/207 108/110/207
f 86/92/208 99/103/208 91/96/208
f 100/97/209 91/96/209 109/105/209
f 96/87/210 110/106/210 111/88/210
f 93/99/211 103/109/211 94/104/211
f 102/108/212 98/107/212 101/114/212
f 112/115/213 107/116/213 102/108/213 101/114/213
f 92/91/214 118/111/214 105/102/214
f 99/103/215 104/121/215 109/105/215
f 97/113/216 106/112/216 101/114/216
f 127/119/217 111/88/217 110/106/217 117/161/217
f 103/109/218 102/108/218 107/116/218
f 103/109/219 107/116/219 108/110/219
f 116/123/220 122/162/220 110/106/220 109/105/220
f 112/115/221 106/112/221 114/122/221
f 121/133/222 113/125/222 107/130/222 120/132/222
f 110/106/223 122/162/223 117/161/223
f 115/131/224 112/127/224 119/129/224
f 129/146/225 121/133/225 120/132/225 124/135/225
f 120/132/226 115/131/226 124/135/226
f 126/126/227 113/125/227 125/134/227
f 119/129/228 114/128/228 128/136/228
f 122/138/229 116/124/229 126/126/229
f 114/128/230 132/142/230 128/136/230
f 117/149/231 122/138/231 137/139/231
f 124/135/232 119/129/232 123/137/232
f 133/148/233 134/144/233 124/135/233 123/137/233
f 121/133/234 129/146/234 125/134/234
f 124/135/235 135/145/235 129/146/235
f 130/143/236 125/134/236 136/147/236
f 143/155/237 136/147/237 135/145/237 142/163/237
f 130/143/238 138/150/238 137/139/238
f 133/148/239 128/136/239 140/151/239
f 117/149/240 146/53/240 127/11/240
f 139/15/241 6/2/241 132/142/241 131/141/241
f 141/152/242 142/163/242 134/144/242 133/148/242
f 136/147/243 143/155/243 144/154/243
f 132/142/244 6/2/244 2/1/244
f 138/150/245 136/147/245 144/154/245
f 132/142/246 2/1/246 140/151/246
f 137/139/247 145/54/247 146/53/247
f 11/4/248 144/154/248 143/155/248 10/14/248
f 135/145/249 134/144/249 142/163/249
f 142/163/250 3/9/250 143/155/250
f 144/154/251 11/4/251 4/6/251
f 141/152/252 140/151/252 7/19/252
f 145/54/253 138/150/253 12/18/253
f 142/163/254 141/152/254 8/7/254
f 3/9/255 142/163/255 8/7/255
