# Blender 5.0.0
# www.blender.org
mtllib thrower_prep0013.mtl
o Cylinder
v 0.000000 3.270831 -0.249686
v 0.000000 3.270831 0.249686
v -1.254404 3.891392 0.364583
v 0.318839 3.239539 0.249686
v 0.625427 3.146865 -0.249686
v 0.625427 3.146865 0.249686
v 0.907978 2.996371 -0.249686
v 0.907978 2.996371 0.249686
v 1.155637 2.793840 -0.249686
v 1.155637 2.793840 0.249686
v 1.358886 2.547055 -0.249686
v 1.358886 2.547055 0.249686
v 1.509913 2.265501 -0.249686
v 1.509913 2.265501 0.249686
v 1.602915 1.959997 -0.249686
v 1.602915 1.959997 0.249686
v 1.634318 1.642283 -0.249686
v 1.634318 1.642283 0.249686
v 1.602915 1.324569 -0.249686
v 1.602915 1.324569 0.249686
v 1.509913 1.019064 -0.249686
v 1.509913 1.019064 0.249686
v 1.358886 0.737510 -0.249686
v 1.358886 0.737510 0.249686
v 1.155637 0.490726 -0.249686
v 1.155637 0.490726 0.249686
v 0.907979 0.288195 -0.249686
v 0.907978 0.288195 0.249686
v 0.625426 0.137701 -0.249686
v 0.625427 0.137701 0.249686
v 0.318840 0.045027 -0.249686
v 0.318840 0.045027 0.249686
v 0.000000 0.013735 -0.249686
v 0.000000 0.013735 0.249686
v -0.318839 0.045027 -0.249686
v -0.318839 0.045027 0.249686
v -0.625426 0.137701 -0.249686
v -0.625426 0.137701 0.249686
v -0.907978 0.288194 -0.249686
v -0.907978 0.288194 0.249686
v -1.155637 0.490725 -0.249686
v -1.155637 0.490725 0.249686
v -1.358885 0.737510 -0.249686
v -1.358885 0.737510 0.249686
v -1.509912 1.019064 -0.249686
v -1.509912 1.019064 0.249686
v -1.602914 1.324569 -0.249686
v -1.602915 1.324569 0.249686
v -1.634318 1.642283 -0.249686
v -1.634318 1.642283 0.249686
v -1.602915 1.959997 -0.249686
v -1.602915 1.959997 0.249686
v -1.509912 2.265501 -0.249686
v -1.509912 2.265501 0.249686
v -1.358885 2.547055 -0.249686
v -1.358885 2.547055 0.249686
v -1.155637 2.793840 -0.249686
v -1.155637 2.793840 0.249686
v -0.907978 2.996371 -0.249686
v -0.882682 3.065243 0.685882
v -0.625426 3.146865 -0.249686
v -0.625426 3.146865 0.249686
v -0.318839 3.239539 -0.249686
v -0.318839 3.239539 0.249686
vn -0.4178 -0.8836 0.2114
vn 0.3706 0.9271 0.0555
vn 0.4701 0.8826 -0.0000
vn 0.6331 0.7741 -0.0000
vn 0.7719 0.6357 -0.0000
vn 0.8812 0.4727 -0.0000
vn 0.9567 0.2912 -0.0000
vn 0.9952 0.0984 -0.0000
vn 0.9952 -0.0984 -0.0000
vn 0.9567 -0.2912 -0.0000
vn 0.8812 -0.4727 -0.0000
vn 0.7719 -0.6357 -0.0000
vn 0.6331 -0.7741 -0.0000
vn 0.4701 -0.8826 -0.0000
vn 0.2893 -0.9572 -0.0000
vn 0.0977 -0.9952 -0.0000
vn -0.0977 -0.9952 -0.0000
vn -0.2893 -0.9572 -0.0000
vn -0.4701 -0.8826 -0.0000
vn -0.6331 -0.7741 -0.0000
vn -0.7719 -0.6357 -0.0000
vn -0.8812 -0.4727 -0.0000
vn -0.9567 -0.2912 -0.0000
vn -0.9952 -0.0984 -0.0000
vn -0.9952 0.0984 -0.0000
vn -0.9567 0.2912 -0.0000
vn -0.8812 0.4727 -0.0000
vn -0.7719 0.6357 -0.0000
vn -0.6618 0.7493 -0.0243
vn -0.4193 0.9071 -0.0361
vn 0.0093 -0.0139 0.9999
vn -0.2893 0.9572 -0.0000
vn -0.0977 0.9952 -0.0000
vn 0.0045 0.0228 -0.9997
vt 1.000000 0.500000
vt 1.000000 1.000000
vt 0.968750 1.000000
vt 0.968750 0.500000
vt 0.937500 1.000000
vt 0.937500 0.500000
vt 0.906250 1.000000
vt 0.906250 0.500000
vt 0.875000 1.000000
vt 0.875000 0.500000
vt 0.843750 1.000000
vt 0.843750 0.500000
vt 0.812500 1.000000
vt 0.812500 0.500000
vt 0.781250 1.000000
vt 0.781250 0.500000
vt 0.750000 1.000000
vt 0.750000 0.500000
vt 0.718750 1.000000
vt 0.718750 0.500000
vt 0.687500 1.000000
vt 0.687500 0.500000
vt 0.656250 1.000000
vt 0.656250 0.500000
vt 0.625000 1.000000
vt 0.625000 0.500000
vt 0.593750 1.000000
vt 0.593750 0.500000
vt 0.562500 1.000000
vt 0.562500 0.500000
vt 0.531250 1.000000
vt 0.531250 0.500000
vt 0.500000 1.000000
vt 0.500000 0.500000
vt 0.468750 1.000000
vt 0.468750 0.500000
vt 0.437500 1.000000
vt 0.437500 0.500000
vt 0.406250 1.000000
vt 0.406250 0.500000
vt 0.375000 1.000000
vt 0.375000 0.500000
vt 0.343750 1.000000
vt 0.343750 0.500000
vt 0.312500 1.000000
vt 0.312500 0.500000
vt 0.281250 1.000000
vt 0.281250 0.500000
vt 0.250000 1.000000
vt 0.250000 0.500000
vt 0.218750 1.000000
vt 0.218750 0.500000
vt 0.187500 1.000000
vt 0.187500 0.500000
vt 0.156250 1.000000
vt 0.156250 0.500000
vt 0.125000 1.000000
vt 0.125000 0.500000
vt 0.093750 1.000000
vt 0.093750 0.500000
vt 0.062500 1.000000
vt 0.062500 0.500000
vt 0.296822 0.485388
vt 0.250000 0.490000
vt 0.203178 0.485388
vt 0.158156 0.471731
vt 0.116663 0.449553
vt 0.080294 0.419706
vt 0.050447 0.383337
vt 0.028269 0.341844
vt 0.014612 0.296822
vt 0.010000 0.250000
vt 0.014612 0.203178
vt 0.028269 0.158156
vt 0.050447 0.116663
vt 0.080294 0.080294
vt 0.116663 0.050447
vt 0.158156 0.028269
vt 0.203178 0.014612
vt 0.250000 0.010000
vt 0.296822 0.014612
vt 0.341844 0.028269
vt 0.383337 0.050447
vt 0.419706 0.080294
vt 0.449553 0.116663
vt 0.471731 0.158156
vt 0.485388 0.203178
vt 0.490000 0.250000
vt 0.485388 0.296822
vt 0.471731 0.341844
vt 0.449553 0.383337
vt 0.419706 0.419706
vt 0.383337 0.449553
vt 0.341844 0.471731
vt 0.031250 1.000000
vt 0.031250 0.500000
vt 0.000000 1.000000
vt 0.000000 0.500000
vt 0.750000 0.490000
vt 0.796822 0.485388
vt 0.841844 0.471731
vt 0.883337 0.449553
vt 0.919706 0.419706
vt 0.949553 0.383337
vt 0.971731 0.341844
vt 0.985388 0.296822
vt 0.990000 0.250000
vt 0.985388 0.203178
vt 0.971731 0.158156
vt 0.949553 0.116663
vt 0.919706 0.080294
vt 0.883337 0.050447
vt 0.841844 0.028269
vt 0.796822 0.014612
vt 0.750000 0.010000
vt 0.703178 0.014612
vt 0.658156 0.028269
vt 0.616663 0.050447
vt 0.580294 0.080294
vt 0.550447 0.116663
vt 0.528269 0.158156
vt 0.514612 0.203178
vt 0.510000 0.250000
vt 0.514612 0.296822
vt 0.528269 0.341844
vt 0.550447 0.383337
vt 0.580294 0.419706
vt 0.616663 0.449553
vt 0.658156 0.471731
vt 0.703178 0.485388
s 0
f 1/1/1 2/2/1 4/3/1 3/4/1
f 3/4/2 4/3/2 6/5/2 5/6/2
f 5/6/3 6/5/3 8/7/3 7/8/3
f 7/8/4 8/7/4 10/9/4 9/10/4
f 9/10/5 10/9/5 12/11/5 11/12/5
f 11/12/6 12/11/6 14/13/6 13/14/6
f 13/14/7 14/13/7 16/15/7 15/16/7
f 15/16/8 16/15/8 18/17/8 17/18/8
f 17/18/9 18/17/9 20/19/9 19/20/9
f 19/20/10 20/19/10 22/21/10 21/22/10
f 21/22/11 22/21/11 24/23/11 23/24/11
f 23/24/12 24/23/12 26/25/12 25/26/12
f 25/26/13 26/25/13 28/27/13 27/28/13
f 27/28/14 28/27/14 30/29/14 29/30/14
f 29/30/15 30/29/15 32/31/15 31/32/15
f 31/32/16 32/31/16 34/33/16 33/34/16
f 33/34/17 34/33/17 36/35/17 35/36/17
f 35/36/18 36/35/18 38/37/18 37/38/18
f 37/38/19 38/37/19 40/39/19 39/40/19
f 39/40/20 40/39/20 42/41/20 41/42/20
f 41/42/21 42/41/21 44/43/21 43/44/21
f 43/44/22 44/43/22 46/45/22 45/46/22
f 45/46/23 46/45/23 48/47/23 47/48/23
f 47/48/24 48/47/24 50/49/24 49/50/24
f 49/50/25 50/49/25 52/51/25 51/52/25
f 51/52/26 52/51/26 54/53/26 53/54/26
f 53/54/27 54/53/27 56/55/27 55/56/27
f 55/56/28 56/55/28 58/57/28 57/58/28
f 57/58/29 58/57/29 60/59/29 59/60/29
f 59/60/30 60/59/30 62/61/30 61/62/30
f 4/63/31 2/64/31 64/65/31 62/66/31 60/67/31 58/68/31 56/69/31 54/70/31 52/71/31 50/72/31 48/73/31 46/74/31 44/75/31 42/76/31 40/77/31 38/78/31 36/79/31 34/80/31 32/81/31 30/82/31 28/83/31 26/84/31 24/85/31 22/86/31 20/87/31 18/88/31 16/89/31 14/90/31 12/91/31 10/92/31 8/93/31 6/94/31
f 61/62/32 62/61/32 64/95/32 63/96/32
f 63/96/33 64/95/33 2/97/33 1/98/33
f 1/99/34 3/100/34 5/101/34 7/102/34 9/103/34 11/104/34 13/105/34 15/106/34 17/107/34 19/108/34 21/109/34 23/110/34 25/111/34 27/112/34 29/113/34 31/114/34 33/115/34 35/116/34 37/117/34 39/118/34 41/119/34 43/120/34 45/121/34 47/122/34 49/123/34 51/124/34 53/125/34 55/126/34 57/127/34 59/128/34 61/129/34 63/130/34
o Mball.006
v 3.958829 5.679254 -0.936901
v 3.752352 5.595195 -0.930232
v 3.884751 5.465466 -1.147983
v 4.091228 5.549524 -1.154652
v 3.360186 5.162807 -0.755402
v 3.492585 5.033079 -0.973152
v 3.200612 4.753383 -0.545435
v 3.333011 4.623654 -0.763186
v 4.086877 4.617238 -0.278582
v 4.219275 4.487509 -0.496333
v 4.558609 4.978710 -0.394558
v 4.691007 4.848981 -0.612309
v 4.823406 4.719252 -0.830060
v 4.351675 4.357780 -0.714084
v 5.015533 5.291759 -0.807506
v 5.147932 5.162030 -1.025256
v 4.977492 5.413379 -0.887800
v 5.109891 5.283650 -1.105550
v 4.223627 5.419795 -1.372404
v 4.339972 5.270461 -1.581865
v 5.226235 5.134316 -1.315012
v 4.017150 5.335737 -1.365734
v 4.171227 5.202678 -1.576958
v 3.624984 4.903350 -1.190903
v 3.774878 4.770933 -1.403386
v 3.465411 4.493925 -0.980937
v 3.613881 4.383821 -1.206986
v 4.500145 4.247676 -0.940132
v 4.700630 4.201087 -1.193036
v 3.814365 4.337232 -1.459889
v 4.938312 4.592210 -1.053078
v 5.002981 4.472886 -1.291222
v 5.258655 5.035630 -1.249534
v 5.302126 4.919562 -1.494062
v 5.297903 4.930428 -1.501408
v 5.300171 4.911849 -1.513522
v 4.411640 5.066573 -1.768261
v 4.413907 5.047995 -1.780374
v 4.995033 4.422132 -1.416017
v 4.108768 4.558277 -1.682869
v 4.392554 5.059288 -1.767933
v 3.975007 4.630800 -1.600745
v 3.951218 4.751730 -0.048240
v 4.423106 5.111046 -0.170539
v 3.753007 4.895651 0.180548
v 4.216259 5.263748 0.080223
v 4.516255 5.720064 -0.086390
v 4.739303 5.562603 -0.343621
v 4.496147 5.837595 -0.170351
v 4.706192 5.683421 -0.423971
v 3.760513 5.926603 -0.505936
v 3.858286 5.806953 -0.710134
v 3.571578 5.835561 -0.511709
v 3.653828 5.721263 -0.707353
v 4.845093 5.543108 -0.670048
v 3.930514 6.042339 0.065438
v 3.595491 6.006725 -0.450750
v 3.418909 6.158662 0.125229
v 3.196089 6.087882 -0.442318
v 3.101463 5.986564 -0.489804
v 3.469830 5.892215 -0.496271
v 2.742559 5.508639 -0.435336
v 3.125472 5.417008 -0.425899
v 2.485791 5.131174 -0.240904
v 2.863905 5.026172 -0.208933
v 2.692062 5.208789 0.339106
v 3.177396 5.069355 0.319544
v 2.990879 5.617615 0.338288
v 3.510935 5.488498 0.309423
v 3.373755 6.075032 0.213090
v 3.890781 5.939792 0.165603
v 2.565226 5.726764 0.351053
v 2.892475 6.186590 0.193907
v 2.907831 6.214664 0.160450
v 2.483067 6.302642 0.192393
v 2.479827 6.294352 0.208957
v 2.304640 6.218959 -0.392476
v 2.729403 6.130980 -0.424419
v 2.292680 6.206579 -0.404496
v 2.697909 6.095338 -0.443864
v 2.034732 5.852797 -0.899998
v 2.067401 5.762754 -0.899998
v 2.337517 5.619967 -0.395359
v 2.086263 5.256305 -0.232076
v 2.110820 5.243497 -0.899998
v 1.746282 5.236774 -0.193660
v 2.034732 5.243497 -1.046490
v 2.034732 5.762754 -0.957779
v 2.034732 4.724241 -1.046490
v 2.110820 4.724241 -0.899998
v 2.034732 4.204984 -1.046490
v 2.110820 4.204984 -0.899998
v 2.034732 3.685727 -1.046490
v 2.110820 3.685727 -0.899998
v 2.034732 3.166471 -0.957779
v 2.067402 3.166471 -0.899998
v 2.034732 3.076428 -0.899998
v 2.034732 2.956795 -0.299999
v 2.115814 3.166471 -0.299999
v 2.034732 2.956795 0.300000
v 2.115814 3.166471 0.299999
v 2.153902 3.685727 0.300000
v 2.153902 3.685727 -0.299999
v 2.153902 4.204984 0.299999
v 2.153902 4.204984 -0.299999
v 2.153902 4.724240 0.299999
v 2.153902 4.724240 -0.299999
v 1.924709 5.320457 0.391209
v 2.110820 4.724240 0.899998
v 2.110821 5.243497 0.899998
v 2.264689 5.339989 0.352793
v 2.067402 5.762754 0.899998
v 2.034732 5.243497 1.046490
v 2.034732 5.762754 0.957779
v 2.034732 5.852797 0.899998
v 1.582569 5.808151 1.499997
v 1.582570 6.282010 1.143507
v 1.765596 6.282010 0.899998
v 1.604984 5.762753 1.499997
v 1.582569 6.436028 0.899998
v 1.130407 6.631892 0.899998
v 1.130407 6.282010 1.472477
v 1.130407 6.663046 0.299999
v 1.582569 6.484239 0.300000
v 1.117979 6.582713 -0.297287
v 1.582569 6.484239 -0.299999
v 1.130407 6.631892 -0.899998
v 1.582569 6.436028 -0.899998
v 1.130407 6.282010 -1.472477
v 1.582569 6.282010 -1.143507
v 1.130407 6.255620 -1.499997
v 1.582569 5.808151 -1.499997
v 1.604984 5.762753 -1.499997
v 1.765596 6.282010 -0.899998
v 1.582569 5.762753 -1.523737
v 1.582569 5.243497 -1.610848
v 1.681839 5.243497 -1.499997
v 1.582569 4.724240 -1.610848
v 1.681839 4.724240 -1.499997
v 1.582569 4.204984 -1.610848
v 1.681839 4.204984 -1.499997
v 1.582569 3.685728 -1.610848
v 1.681839 3.685727 -1.499997
v 1.582569 3.166471 -1.523737
v 1.604985 3.166471 -1.499997
v 1.582569 3.121074 -1.499997
v 1.130407 2.673604 -1.499997
v 1.130407 3.166471 -1.914503
v 1.130407 2.647214 -1.472477
v 1.582569 2.647214 -1.143507
v 1.130406 2.297333 -0.899998
v 1.582569 2.493196 -0.899999
v 1.130407 2.266178 -0.299999
v 1.582569 2.445172 -0.299999
v 1.130407 2.266178 0.300000
v 1.582569 2.445172 0.299999
v 1.130407 2.297333 0.899998
v 1.582569 2.493196 0.899998
v 1.130407 2.647214 1.472477
v 1.582569 2.647214 1.143507
v 1.130407 2.673604 1.499997
v 1.582569 3.121074 1.499997
v 1.130407 3.166471 1.914503
v 1.582569 3.166471 1.523737
v 1.130407 3.685727 2.037386
v 1.582569 3.685727 1.610848
v 1.130407 4.204984 2.037386
v 1.582569 4.204984 1.610848
v 1.130407 4.724240 2.037386
v 1.582569 4.724240 1.610848
v 1.130407 5.243497 2.037386
v 1.582569 5.243497 1.610848
v 1.130407 5.762754 1.914503
v 1.582569 5.762753 1.523737
v 1.130407 6.255620 1.499997
v 0.678244 5.762753 2.037206
v 0.678244 6.282010 1.562223
v 1.053943 6.282010 1.499997
v 0.678244 6.331481 1.499997
v 0.226081 5.762754 2.037206
v 0.226081 6.282010 1.562223
v 0.226081 5.617282 2.099996
v 0.678244 5.617282 2.099996
v 0.678244 5.243497 2.152194
v 0.226082 5.243497 2.152194
v 1.003732 5.243497 2.099996
v 0.678244 4.724240 2.152194
v 1.003732 4.724240 2.099996
v 0.678244 4.204984 2.152194
v 1.003732 4.204984 2.099996
v 0.678244 3.685727 2.152194
v 1.003731 3.685728 2.099996
v 0.678244 3.311943 2.099996
v 0.226081 3.311943 2.099996
v 0.226081 3.685727 2.152194
v 0.678244 3.166471 2.037206
v 0.226081 3.166471 2.037206
v -0.226081 3.311943 2.099996
v -0.226082 3.166471 2.037206
v -0.226081 2.647214 1.562223
v 0.226081 2.647214 1.562223
v -0.226081 2.597744 1.499997
v 0.226081 2.597744 1.499997
v 0.226081 2.268450 0.899998
v -0.226082 2.268450 0.899998
v 0.226081 2.236985 0.299999
v -0.226082 2.236985 0.299999
v 0.226081 2.236985 -0.299999
v -0.226081 2.236985 -0.299999
v 0.226081 2.268450 -0.899998
v -0.226081 2.268450 -0.899998
v 0.226081 2.597744 -1.499997
v -0.226082 2.597744 -1.499997
v 0.226081 2.647214 -1.562223
v -0.226081 2.647214 -1.562223
v 0.226081 3.166471 -2.037206
v -0.226082 3.166471 -2.037206
v -0.226081 3.311943 -2.099996
v 0.226081 3.311943 -2.099996
v 0.226081 3.685727 -2.152194
v -0.226082 3.685727 -2.152194
v 0.226081 4.204984 -2.152194
v -0.226082 4.204984 -2.152194
v 0.226081 4.724240 -2.152194
v -0.226081 4.724240 -2.152194
v 0.226081 5.243497 -2.152194
v -0.226082 5.243497 -2.152194
v -0.226081 5.617282 -2.099996
v 0.226081 5.617282 -2.099996
v 0.226081 5.762753 -2.037206
v -0.226082 5.762753 -2.037206
v 0.226081 6.282010 -1.562223
v -0.226081 6.282010 -1.562223
v -0.226081 6.331481 -1.499997
v 0.226081 6.331481 -1.499997
v -0.304877 6.545445 -0.951853
v 0.146616 6.543419 -0.966081
v 0.203640 6.756699 -0.388064
v -0.247558 6.758121 -0.374221
v 0.220839 7.158711 -0.722694
v -0.231210 7.163001 -0.719945
v 0.333169 6.754972 -0.386489
v 0.670567 7.019570 -0.433217
v 0.676537 7.187432 -0.608194
v 0.692559 7.171814 0.144998
v 0.381778 6.848560 0.204874
v 0.705741 6.741645 0.209592
v 0.654981 6.652844 -0.383351
v 0.226081 6.660774 0.899998
v 0.254607 6.847115 0.210099
v 0.678244 6.660774 0.899998
v 0.226081 6.331481 1.499997
v -0.226081 6.331481 1.499997
v -0.226081 6.660774 0.899998
v -0.226081 6.282010 1.562223
v -0.678244 6.331481 1.499997
v -0.678244 6.282010 1.562223
v -0.678244 5.762754 2.037206
v -0.226082 5.762754 2.037206
v -0.678244 5.617282 2.099996
v -0.226081 5.617282 2.099996
v -0.226082 5.243497 2.152194
v -0.678244 5.243497 2.152194
v -0.678244 4.724240 2.152194
v -0.226082 4.724240 2.152194
v -0.678244 4.204984 2.152194
v -0.226081 4.204984 2.152194
v -0.678244 3.685727 2.152194
v -0.226081 3.685727 2.152194
v -0.678244 3.311943 2.099996
v -1.003732 3.685728 2.099996
v -1.130407 3.166471 1.914503
v -1.130407 3.685727 2.037386
v -0.678244 3.166471 2.037206
v -1.130407 4.204984 2.037386
v -1.003732 4.204984 2.099996
v -1.130407 4.724240 2.037386
v -1.003732 4.724240 2.099996
v -1.130407 5.243497 2.037386
v -1.003732 5.243497 2.099996
v -1.582570 4.204984 1.610848
v -1.582570 4.724240 1.610848
v -1.681839 4.204984 1.499997
v -1.681839 4.724241 1.499997
v -1.681839 5.243497 1.499997
v -1.582569 5.243497 1.610848
v -1.604984 5.762753 1.499997
v -1.582569 5.762753 1.523737
v -1.582569 5.808151 1.499997
v -2.034732 5.852797 0.899998
v -1.765597 6.282010 0.899998
v -1.582569 6.282011 1.143507
v -2.034732 5.762753 0.957779
v -1.582570 6.436028 0.899998
v -2.364359 6.263025 0.300438
v -1.582570 6.484123 0.299999
v -2.363377 6.261322 0.302834
v -2.326509 6.270323 -0.299106
v -1.582569 6.484123 -0.299999
v -2.325225 6.268678 -0.301494
v -1.765597 6.282010 -0.899998
v -1.582570 6.436028 -0.899998
v -2.034732 5.852797 -0.899998
v -2.034732 5.762753 -0.957779
v -1.604984 5.762754 -1.499997
v -1.582570 5.808151 -1.499997
v -1.582570 6.282010 -1.143507
v -2.034732 5.243497 -1.046490
v -1.681839 5.243497 -1.499997
v -2.034732 4.724240 -1.046490
v -1.681839 4.724240 -1.499997
v -2.034732 4.204984 -1.046490
v -1.681839 4.204984 -1.499997
v -2.034732 3.685728 -1.046490
v -1.681839 3.685727 -1.499997
v -2.034732 3.166471 -0.957779
v -1.604984 3.166471 -1.499997
v -2.034733 3.076428 -0.899998
v -1.765597 2.647214 -0.899999
v -1.582570 2.647214 -1.143507
v -1.582569 3.121074 -1.499997
v -1.582569 2.493196 -0.899998
v -1.130407 2.297333 -0.899998
v -1.130407 2.647214 -1.472477
v -1.582569 2.445172 -0.300000
v -1.130407 2.266178 -0.299999
v -1.582570 2.445172 0.299999
v -1.130407 2.266178 0.299999
v -1.582569 2.493196 0.899998
v -1.130407 2.297333 0.899998
v -1.582569 2.647214 1.143507
v -1.130407 2.647214 1.472477
v -1.582569 3.121074 1.499997
v -1.130407 2.673604 1.499997
v -1.053943 2.647214 1.499997
v -2.034732 3.076428 0.899998
v -2.034732 3.166471 0.957779
v -1.604984 3.166471 1.499997
v -1.765596 2.647214 0.899998
v -2.034732 3.685728 1.046490
v -1.681839 3.685727 1.499997
v -2.034732 4.204984 1.046490
v -2.110820 3.685727 0.899998
v -2.110820 4.204984 0.899998
v -2.110821 4.724240 0.899998
v -2.034732 4.724240 1.046490
v -2.110821 5.243497 0.899998
v -2.034732 5.243497 1.046490
v -2.067402 5.762753 0.899998
v -2.199285 5.300751 0.292353
v -2.461838 5.680248 0.370636
v -1.846406 5.264822 0.299574
v -2.784750 6.163365 0.311540
v -2.895122 5.580426 0.378180
v -3.252574 6.057953 0.359278
v -3.305988 6.152115 0.292140
v -2.800828 6.189373 0.290075
v -3.220365 6.163790 -0.293266
v -2.762978 6.196671 -0.309470
v -3.150410 6.072059 -0.361748
v -2.744198 6.171183 -0.330803
v -2.833199 5.591933 -0.412863
v -2.413981 5.689475 -0.387426
v -2.569153 5.183849 -0.302611
v -2.161435 5.308048 -0.307191
v -2.639093 5.172897 0.293075
v -3.161098 5.039210 0.288010
v -2.965708 5.060594 -0.262146
v -3.428875 5.468365 0.376112
v -3.910784 4.914197 0.157205
v -4.237256 5.343338 0.185569
v -4.387144 5.850132 0.149764
v -3.761675 5.950902 0.345378
v -4.341408 5.976656 0.090448
v -3.804318 6.068237 0.268517
v -3.661996 6.039280 -0.291843
v -3.589482 6.090934 -0.272175
v -3.513431 5.930604 -0.335511
v -3.494806 5.979285 -0.347323
v -3.240078 5.434624 -0.303529
v -3.214428 5.493379 -0.387740
v -3.210719 4.978359 -0.216174
v -3.414648 4.931851 -0.410509
v -3.410943 5.393435 -0.506152
v -4.241252 4.856412 -0.077099
v -3.662841 5.891264 -0.530868
v -4.629924 5.925566 -0.153952
v -3.821777 5.999372 -0.493283
v -4.867898 5.881472 -0.402071
v -4.014644 5.958924 -0.724205
v -5.100239 5.834884 -0.624743
v -4.246985 5.912336 -0.946877
v -4.087208 5.803950 -0.981398
v -3.854865 5.850538 -0.758726
v -4.943530 5.751717 -0.347717
v -5.175872 5.705128 -0.570388
v -5.029411 5.195525 -0.515899
v -4.797069 5.242114 -0.293228
v -4.721453 4.762880 -0.535460
v -4.489111 4.809469 -0.312789
v -4.558853 5.288707 -0.064602
v -4.953795 4.716292 -0.758132
v -5.261752 5.148937 -0.738570
v -3.868200 4.840333 -0.857594
v -4.100542 4.793744 -1.080265
v -3.875626 5.300258 -0.951494
v -4.107968 5.253669 -1.174165
v -4.319549 5.757361 -1.204069
v -4.354959 5.205751 -1.391306
v -4.570014 5.709127 -1.419898
v -4.704689 5.799404 -1.390574
v -4.479327 5.865747 -1.169548
v -5.557942 5.721952 -1.068440
v -5.332581 5.788296 -0.847414
v -5.408213 5.658540 -0.793059
v -5.622432 5.613596 -1.022572
v -5.479446 5.103678 -0.966772
v -5.650964 5.062611 -1.212406
v -5.775393 5.574214 -1.275213
v -5.456976 4.732066 -1.212548
v -5.193112 4.689443 -0.982447
v -4.339859 4.766895 -1.304581
v -4.603723 4.809518 -1.534682
v -4.648123 5.153642 -1.591014
v -4.848259 5.121719 -1.682901
v -5.701512 5.044267 -1.360767
v -4.933763 5.647119 -1.635473
v -5.787016 5.569666 -1.313339
v -5.761916 5.595078 -1.284424
v -4.908663 5.672531 -1.606558
v -4.881737 5.655334 -1.612600
v -1.808556 5.272120 -0.299970
v -2.110821 5.243497 -0.899998
v -2.067402 5.762753 -0.899998
v -2.153902 4.724241 0.300000
v -2.153902 4.724240 -0.299999
v -2.153902 4.204984 0.299999
v -2.153902 4.204984 -0.299999
v -2.153902 3.685727 0.300000
v -2.153902 3.685727 -0.299999
v -2.115815 3.166471 0.300000
v -2.115814 3.166471 -0.299999
v -2.034732 2.956795 0.299999
v -2.034732 2.956795 -0.299999
v -2.067402 3.166471 -0.899998
v -2.067402 3.166471 0.899998
v -1.823385 2.647214 0.299999
v -1.823385 2.647214 -0.299999
v -2.110821 3.685727 -0.899998
v -2.110821 4.204984 -0.899998
v -2.110821 4.724240 -0.899998
v -1.582570 3.166471 1.523737
v -1.582570 3.685727 1.610848
v -0.678244 2.597744 1.499997
v -0.678244 2.268450 0.899998
v -0.678244 2.647214 1.562223
v -0.678244 2.236985 0.299999
v -0.678244 2.236985 -0.299999
v -0.678244 2.268450 -0.899998
v -0.678244 2.597744 -1.499997
v -1.053943 2.647214 -1.499997
v -1.130407 2.673604 -1.499997
v -0.678244 2.647214 -1.562223
v -0.678244 3.166471 -2.037206
v -1.130407 3.166471 -1.914503
v -1.582570 3.166471 -1.523737
v -1.130407 3.685727 -2.037386
v -1.582569 3.685727 -1.610848
v -1.130407 4.204984 -2.037386
v -1.582569 4.204984 -1.610848
v -1.130407 4.724240 -2.037386
v -1.582569 4.724241 -1.610848
v -1.130407 5.243497 -2.037386
v -1.582569 5.243497 -1.610848
v -1.130407 5.762754 -1.914503
v -1.582569 5.762754 -1.523736
v -1.130407 6.255620 -1.499997
v -1.003732 5.243497 -2.099996
v -0.678244 5.617282 -2.099996
v -0.678244 5.762753 -2.037206
v -0.678244 5.243497 -2.152194
v -0.678244 4.724240 -2.152194
v -1.003732 4.724240 -2.099996
v -0.678244 4.204984 -2.152194
v -1.003732 4.204984 -2.099996
v -0.678244 3.685728 -2.152194
v -1.003732 3.685727 -2.099996
v -0.678244 3.311943 -2.099996
v -1.130407 6.282010 -1.472477
v -1.130407 6.631892 -0.899998
v -1.053943 6.282010 -1.499997
v -0.678244 6.331481 -1.499997
v -0.678244 6.660774 -0.899998
v -0.678244 6.282010 -1.562223
v -1.130407 6.663046 -0.299999
v -0.700703 6.662241 -0.348445
v -1.130407 6.663046 0.299999
v -0.649204 6.749113 0.248090
v -1.130407 6.631892 0.899998
v -0.678244 6.660774 0.899998
v -1.053943 6.282010 1.499997
v -1.130407 6.282010 1.472477
v -0.327498 6.853078 0.224111
v -0.197424 6.850422 0.223037
v -0.377758 6.763505 -0.372136
v -0.662620 7.182008 0.159556
v -0.684803 7.030246 -0.419413
v -0.757463 7.235745 -0.483267
v -0.741901 7.402119 0.092190
v -0.759868 7.725993 -0.644010
v -0.749383 7.903510 -0.070573
v -0.744845 8.218276 -0.806693
v -0.736095 8.399676 -0.234794
v -0.625500 8.828117 -0.371242
v -0.634251 8.646717 -0.943141
v -0.648197 8.172335 -0.948585
v -0.635109 8.443632 -0.093265
v -0.579660 8.711639 -0.964007
v -0.570909 8.893042 -0.392108
v -0.168309 9.009813 -0.431169
v -0.177059 8.828413 -1.003068
v -0.182501 8.663492 -1.103884
v 0.269583 8.658949 -1.104715
v 0.275025 8.823870 -1.003899
v -0.197681 8.135289 -1.051882
v 0.254404 8.130745 -1.052713
v 0.708056 8.158705 -0.951076
v 0.722002 8.633087 -0.945632
v 0.671000 8.699071 -0.966305
v 0.730753 8.814487 -0.373733
v 0.679751 8.880472 -0.394406
v 0.283776 9.005270 -0.432000
v 0.282592 8.928619 -0.254529
v -0.169492 8.933163 -0.253698
v -0.181457 8.471590 0.008371
v 0.270627 8.467049 0.007541
v -0.194260 7.974581 0.170395
v 0.257713 7.970367 0.168598
v -0.202568 7.463340 0.323411
v 0.249191 7.459738 0.320001
v 0.708141 7.933443 0.066044
v 0.697526 7.422684 0.198856
v 0.804392 7.888378 -0.076057
v 0.774840 7.388372 0.082507
v 0.794281 7.710049 -0.649414
v 0.759551 7.221380 -0.492613
v 0.817792 8.384061 -0.237648
v 0.809041 8.202660 -0.809547
v 0.693228 7.666293 -0.791531
v -0.658640 7.435643 0.206564
v -0.647982 7.946605 0.070577
v -0.680074 7.201283 -0.599730
v -0.663452 7.680634 -0.786759
v -0.212043 7.641949 -0.893158
v -1.130407 6.255620 1.499997
v -1.130407 5.762754 1.914503
v 0.226081 4.204984 2.152194
v 0.226081 4.724241 2.152194
v 0.598110 6.541393 -0.980310
v 0.678244 6.331481 -1.499997
v 0.678244 6.282010 -1.562223
v 1.053942 6.282010 -1.499997
v 0.678244 5.762753 -2.037206
v 1.130407 5.762754 -1.914503
v 0.678244 5.617282 -2.099996
v 1.003732 5.243497 -2.099996
v 1.130407 5.243497 -2.037386
v 1.130407 4.724240 -2.037386
v 1.003732 4.724240 -2.099996
v 1.130407 4.204984 -2.037386
v 1.003731 4.204984 -2.099996
v 1.130406 3.685728 -2.037386
v 1.003732 3.685727 -2.099996
v 0.678244 3.311943 -2.099996
v 0.678244 3.166471 -2.037206
v 0.678244 3.685727 -2.152194
v 0.678244 4.204984 -2.152194
v 0.678244 4.724241 -2.152194
v 0.678244 5.243497 -2.152193
v 0.678244 2.647214 -1.562223
v 0.678244 2.597744 -1.499997
v 1.053942 2.647214 -1.499997
v 0.678244 2.268450 -0.899998
v 0.678244 2.236985 0.299999
v 0.678244 2.236985 -0.299999
v 0.678244 2.268450 0.899998
v 0.678244 2.597744 1.499997
v 0.678244 2.647214 1.562223
v 1.053942 2.647214 1.499997
v 1.681839 5.243497 1.499997
v 1.681839 4.724240 1.499997
v 1.681839 4.204984 1.499997
v 2.034732 4.204984 1.046490
v 2.034732 4.724240 1.046490
v 2.034732 3.685727 1.046490
v 1.681839 3.685727 1.499997
v 2.034732 3.166471 0.957779
v 1.604984 3.166471 1.499997
v 2.110821 3.685727 0.899998
v 2.067401 3.166471 0.899998
v 2.034732 3.076428 0.899998
v 2.110820 4.204984 0.899998
v 1.765596 2.647214 0.899998
v 1.823385 2.647214 0.299999
v 1.823385 2.647214 -0.299999
v 1.765596 2.647214 -0.899999
v 2.999401 4.990748 -0.145458
v 3.153054 5.405548 -0.342274
v 4.883135 5.421487 -0.589755
v 3.227787 5.292537 -0.537651
v 3.086709 4.880118 -0.327837
v 0.721144 8.430002 -0.095757
v 0.240250 7.637010 -0.894574
v -4.697488 5.796799 -0.099180
v -3.643285 5.346846 -0.728823
v -3.635858 4.886921 -0.634923
vn -0.0417 0.8545 -0.5177
vn -0.5293 0.5738 -0.6250
vn -0.5194 0.5573 -0.6478
vn -0.0279 0.8512 -0.5241
vn -0.7834 0.2213 -0.5807
vn -0.7764 0.2068 -0.5953
vn -0.8053 -0.5784 -0.1302
vn -0.7976 -0.5879 -0.1347
vn 0.1693 -0.7996 0.5761
vn 0.1694 -0.7980 0.5784
vn 0.6600 -0.4021 0.6346
vn 0.6587 -0.3987 0.6381
vn 0.6706 -0.4109 0.6177
vn 0.1701 -0.8236 0.5410
vn 0.8766 0.1073 0.4691
vn 0.8956 0.0884 0.4361
vn 0.6562 0.7529 -0.0496
vn 0.6732 0.7338 -0.0908
vn -0.0138 0.8361 -0.5483
vn 0.0257 0.7614 -0.6478
vn 0.7267 0.6479 -0.2283
vn -0.5124 0.5385 -0.6690
vn -0.4728 0.4730 -0.7435
vn -0.7654 0.1941 -0.6136
vn -0.7155 0.1552 -0.6812
vn -0.7781 -0.6081 -0.1576
vn -0.7001 -0.6621 -0.2673
vn 0.2034 -0.8932 0.4009
vn 0.3697 -0.9291 -0.0082
vn -0.4947 -0.6900 -0.5283
vn 0.7165 -0.4559 0.5279
vn 0.7739 -0.5450 0.3225
vn 0.9523 0.0149 0.3049
vn 0.9913 -0.0888 0.0975
vn 0.7617 0.5040 -0.4071
vn 0.8572 -0.1214 -0.5005
vn 0.0568 0.6253 -0.7783
vn 0.0322 0.1793 -0.9833
vn 0.6235 -0.6859 -0.3751
vn -0.1785 -0.3667 -0.9131
vn -0.3956 0.3746 -0.8385
vn -0.5985 0.0706 -0.7980
vn 0.1763 -0.7708 0.6122
vn 0.6411 -0.3664 0.6743
vn 0.0844 -0.6399 0.7638
vn 0.4907 -0.2003 0.8480
vn 0.6717 0.2243 0.7061
vn 0.8488 0.1198 0.5149
vn 0.5488 0.8163 0.1802
vn 0.6564 0.7543 0.0118
vn 0.0632 0.8704 -0.4883
vn -0.0296 0.8687 -0.4945
vn -0.2958 0.3923 -0.8710
vn -0.5295 0.6053 -0.5944
vn 0.6583 0.7508 -0.0535
vn 0.3595 0.8890 0.2835
vn 0.1261 0.7909 -0.5988
vn 0.1978 0.9365 0.2897
vn 0.1030 0.7951 -0.5977
vn -0.0147 0.1673 -0.9858
vn 0.0781 0.0414 -0.9961
vn -0.0914 -0.2344 -0.9678
vn 0.1515 -0.3805 -0.9123
vn -0.2645 -0.8709 -0.4143
vn -0.0688 -0.9223 -0.3804
vn -0.1682 -0.6489 0.7421
vn -0.0995 -0.6460 0.7568
vn 0.0572 0.1083 0.9925
vn 0.1898 0.0340 0.9812
vn 0.1412 0.4640 0.8745
vn 0.3242 0.3693 0.8709
vn 0.3572 0.0521 0.9326
vn 0.2170 0.5300 0.8198
vn 0.1617 0.9504 0.2657
vn 0.2265 0.9675 0.1125
vn 0.4064 0.7286 0.5514
vn 0.1679 0.8362 -0.5221
vn 0.0969 0.8068 -0.5829
vn 0.2361 0.6889 -0.6854
vn 0.0935 0.2876 -0.9532
vn 0.7248 0.2498 -0.6421
vn 0.8663 -0.1133 -0.4865
vn 0.4889 -0.3650 -0.7923
vn 0.1845 -0.9739 -0.1322
vn 0.9699 -0.0468 -0.2390
vn 0.9492 -0.3091 0.0580
vn 0.8384 0.0472 -0.5430
vn 0.8123 0.2170 -0.5414
vn 0.8431 -0.0000 -0.5378
vn 0.9764 0.0902 -0.1963
vn 0.9643 -0.0000 -0.2646
vn 0.8384 -0.0472 -0.5430
vn 0.9632 -0.0393 -0.2657
vn 0.8123 -0.2170 -0.5414
vn 0.9420 -0.2046 -0.2659
vn 0.8518 -0.4237 -0.3081
vn 0.8853 -0.4631 -0.0424
vn 0.9756 -0.2164 -0.0374
vn 0.8853 -0.4631 0.0424
vn 0.9756 -0.2164 0.0374
vn 0.9986 -0.0378 0.0368
vn 0.9986 -0.0378 -0.0368
vn 0.9994 -0.0000 0.0358
vn 0.9994 -0.0000 -0.0358
vn 0.9809 0.1874 -0.0512
vn 0.9775 0.2108 0.0038
vn 0.9524 -0.3050 0.0019
vn 0.9737 0.0558 0.2209
vn 0.9689 -0.0274 0.2460
vn 0.2991 -0.8212 0.4861
vn 0.8515 0.0415 0.5228
vn 0.8384 0.0472 0.5430
vn 0.8123 0.2170 0.5414
vn 0.6992 0.3552 0.6205
vn 0.6274 0.4605 0.6280
vn 0.5499 0.6218 0.5576
vn 0.6212 0.5435 0.5645
vn 0.7418 0.2346 0.6283
vn 0.4154 0.8497 0.3249
vn 0.2394 0.9285 0.2839
vn 0.3097 0.7357 0.6023
vn 0.2441 0.9697 -0.0103
vn 0.2864 0.9581 -0.0025
vn 0.1998 0.9774 -0.0684
vn 0.3127 0.9459 -0.0870
vn 0.1508 0.9550 -0.2554
vn 0.4137 0.8665 -0.2794
vn 0.2925 0.7490 -0.5945
vn 0.5499 0.6218 -0.5576
vn 0.3768 0.6015 -0.7044
vn 0.6274 0.4605 -0.6280
vn 0.7418 0.2346 -0.6283
vn 0.5990 0.6769 -0.4277
vn 0.6660 0.2921 -0.6864
vn 0.7096 0.0651 -0.7016
vn 0.7659 0.0552 -0.6406
vn 0.7165 -0.0000 -0.6975
vn 0.7678 -0.0000 -0.6407
vn 0.7096 -0.0651 -0.7016
vn 0.7659 -0.0552 -0.6406
vn 0.6660 -0.2921 -0.6864
vn 0.7418 -0.2346 -0.6283
vn 0.6274 -0.4605 -0.6280
vn 0.3602 -0.6041 -0.7109
vn 0.4386 -0.4090 -0.8002
vn 0.3037 -0.7307 -0.6114
vn 0.5499 -0.6218 -0.5576
vn 0.2235 -0.9342 -0.2782
vn 0.5001 -0.8250 -0.2632
vn 0.2233 -0.9743 -0.0285
vn 0.5159 -0.8561 -0.0308
vn 0.2233 -0.9743 0.0285
vn 0.5159 -0.8561 0.0308
vn 0.2265 -0.9346 0.2741
vn 0.5001 -0.8250 0.2632
vn 0.3175 -0.7261 0.6099
vn 0.5499 -0.6218 0.5576
vn 0.3671 -0.6008 0.7101
vn 0.6274 -0.4605 0.6280
vn 0.4418 -0.4124 0.7967
vn 0.6660 -0.2921 0.6864
vn 0.5425 -0.0998 0.8341
vn 0.7096 -0.0651 0.7016
vn 0.5752 -0.0000 0.8180
vn 0.7165 -0.0000 0.6975
vn 0.5467 0.1145 0.8295
vn 0.7096 0.0651 0.7016
vn 0.4456 0.4022 0.7998
vn 0.6660 0.2921 0.6864
vn 0.3656 0.6090 0.7038
vn 0.1213 0.5045 0.8548
vn 0.0613 0.7273 0.6836
vn 0.1411 0.8176 0.5582
vn 0.0483 0.8307 0.5546
vn -0.0000 0.5460 0.8378
vn -0.0000 0.7318 0.6816
vn -0.0000 0.2709 0.9626
vn 0.1355 0.2548 0.9574
vn 0.0793 0.0690 0.9945
vn -0.0000 0.0694 0.9976
vn 0.3350 0.1563 0.9292
vn 0.0796 -0.0000 0.9968
vn 0.3069 -0.0000 0.9517
vn 0.0793 -0.0690 0.9945
vn 0.2988 -0.1096 0.9480
vn 0.1277 -0.2754 0.9528
vn -0.0000 -0.2709 0.9626
vn -0.0000 -0.0694 0.9976
vn 0.1053 -0.5349 0.8383
vn -0.0000 -0.5460 0.8378
vn -0.0000 -0.7318 0.6816
vn -0.0000 -0.8333 0.5529
vn -0.0000 -0.9630 0.2696
vn -0.0000 -0.9997 0.0262
vn -0.0000 -0.9997 -0.0262
vn -0.0000 -0.9630 -0.2696
vn -0.0000 -0.8333 -0.5529
vn -0.0000 -0.7318 -0.6816
vn -0.0000 -0.5460 -0.8378
vn -0.0000 -0.2709 -0.9626
vn -0.0000 -0.0694 -0.9976
vn -0.0000 -0.0000 -1.0000
vn -0.0000 0.0694 -0.9976
vn -0.0000 0.2709 -0.9626
vn -0.0000 0.5460 -0.8378
vn -0.0000 0.7318 -0.6816
vn 0.0217 0.8603 -0.5094
vn -0.0019 0.8666 -0.4989
vn 0.0295 0.9413 -0.3364
vn 0.0212 0.9379 -0.3464
vn 0.0983 0.3079 -0.9463
vn -0.1267 0.3378 -0.9327
vn 0.1118 -0.5020 -0.8576
vn -0.1401 -0.4935 -0.8584
vn 0.5875 0.4272 -0.6873
vn 0.7211 -0.6384 -0.2693
vn 0.5633 -0.4402 -0.6993
vn 0.7409 -0.4349 0.5118
vn 0.4889 0.6520 0.5796
vn 0.1873 0.9823 -0.0075
vn 0.1490 0.9757 -0.1606
vn 0.0269 0.9327 0.3598
vn 0.1439 0.5879 0.7960
vn 0.0507 0.9531 0.2983
vn -0.0000 0.8333 0.5529
vn 0.0018 0.9268 0.3756
vn -0.0459 0.8308 0.5546
vn -0.0613 0.7273 0.6836
vn -0.1213 0.5045 0.8548
vn -0.1355 0.2549 0.9574
vn -0.0793 0.0690 0.9945
vn -0.0796 -0.0000 0.9968
vn -0.0000 -0.0000 1.0000
vn -0.0793 -0.0690 0.9945
vn -0.1277 -0.2754 0.9528
vn -0.2988 -0.1096 0.9480
vn -0.4418 -0.4124 0.7967
vn -0.5425 -0.0998 0.8341
vn -0.1053 -0.5349 0.8383
vn -0.5752 -0.0000 0.8180
vn -0.3069 -0.0000 0.9517
vn -0.5467 0.1145 0.8295
vn -0.3350 0.1563 0.9292
vn -0.7165 -0.0000 0.6975
vn -0.7678 -0.0000 0.6407
vn -0.7659 0.0552 0.6406
vn -0.7096 0.0651 0.7016
vn -0.7418 0.2346 0.6283
vn -0.6660 0.2921 0.6864
vn -0.6274 0.4605 0.6280
vn -0.7152 0.3495 0.6052
vn -0.5827 0.6794 0.4460
vn -0.5499 0.6218 0.5576
vn -0.8123 0.2170 0.5414
vn -0.4154 0.8585 0.3007
vn -0.2821 0.8964 0.3420
vn -0.3466 0.9358 0.0640
vn -0.5252 0.4299 0.7344
vn -0.2554 0.9113 -0.3230
vn -0.3262 0.9446 -0.0352
vn -0.4722 0.5164 -0.7144
vn -0.6351 0.5559 -0.5364
vn -0.4273 0.8474 -0.3151
vn -0.7551 0.3391 -0.5611
vn -0.8123 0.2170 -0.5414
vn -0.7418 0.2346 -0.6283
vn -0.6274 0.4605 -0.6280
vn -0.5499 0.6218 -0.5576
vn -0.8384 0.0472 -0.5430
vn -0.7659 0.0552 -0.6406
vn -0.8431 -0.0000 -0.5378
vn -0.7678 -0.0000 -0.6407
vn -0.8384 -0.0472 -0.5430
vn -0.7659 -0.0552 -0.6406
vn -0.8123 -0.2170 -0.5414
vn -0.7418 -0.2346 -0.6283
vn -0.8518 -0.4237 -0.3081
vn -0.7316 -0.6148 -0.2946
vn -0.5499 -0.6218 -0.5576
vn -0.6274 -0.4605 -0.6280
vn -0.5001 -0.8250 -0.2632
vn -0.2277 -0.9342 -0.2746
vn -0.3340 -0.7202 -0.6080
vn -0.5159 -0.8561 -0.0308
vn -0.2233 -0.9743 -0.0285
vn -0.5159 -0.8561 0.0308
vn -0.2233 -0.9743 0.0285
vn -0.5001 -0.8250 0.2632
vn -0.2265 -0.9346 0.2741
vn -0.5499 -0.6218 0.5576
vn -0.3175 -0.7261 0.6099
vn -0.6274 -0.4605 0.6280
vn -0.3671 -0.6008 0.7101
vn -0.1469 -0.6810 0.7174
vn -0.8518 -0.4237 0.3081
vn -0.8123 -0.2170 0.5414
vn -0.7418 -0.2346 0.6283
vn -0.7316 -0.6148 0.2946
vn -0.8384 -0.0472 0.5430
vn -0.7659 -0.0552 0.6406
vn -0.8431 -0.0000 0.5378
vn -0.9632 -0.0393 0.2657
vn -0.9643 -0.0000 0.2646
vn -0.9754 0.0734 0.2080
vn -0.9572 -0.0779 0.2786
vn -0.8384 0.0472 0.5430
vn -0.8665 0.1179 0.4850
vn -0.2430 -0.9277 0.2833
vn -0.4247 -0.0363 0.9046
vn -0.9105 -0.3972 -0.1148
vn -0.1452 0.3892 0.9096
vn 0.0298 -0.0483 0.9984
vn -0.0416 0.3202 0.9464
vn -0.1316 0.8853 0.4459
vn -0.1070 0.8943 0.4345
vn -0.1407 0.8790 -0.4555
vn -0.1132 0.8925 -0.4366
vn -0.0694 0.3256 -0.9430
vn -0.0256 0.3883 -0.9212
vn 0.0117 -0.0683 -0.9976
vn -0.3629 -0.1000 -0.9264
vn 0.2174 -0.7890 -0.5746
vn -0.3407 -0.8887 -0.3068
vn 0.2198 -0.7688 0.6006
vn 0.1282 -0.7685 0.6269
vn 0.0951 -0.8359 -0.5406
vn -0.0957 -0.1102 0.9893
vn -0.0910 -0.7863 0.6111
vn -0.4138 -0.2248 0.8822
vn -0.5100 0.2214 0.8312
vn -0.2043 0.2422 0.9485
vn -0.3516 0.8463 0.4003
vn -0.2595 0.8571 0.4451
vn -0.0062 0.9211 -0.3893
vn -0.2221 0.8502 -0.4774
vn 0.0359 0.2487 -0.9679
vn -0.2605 0.2022 -0.9441
vn 0.1562 -0.1705 -0.9729
vn -0.2961 -0.2187 -0.9298
vn 0.3059 -0.8802 -0.3630
vn 0.5495 -0.7409 -0.3861
vn 0.7239 0.0928 -0.6837
vn -0.2414 -0.8399 0.4861
vn 0.5768 0.5554 -0.5990
vn -0.4166 0.8621 0.2885
vn 0.1560 0.9421 -0.2969
vn -0.4156 0.8763 0.2437
vn 0.1516 0.9327 -0.3272
vn -0.4132 0.8763 0.2478
vn 0.1362 0.9316 -0.3370
vn 0.5404 0.5086 -0.6703
vn 0.5598 0.5270 -0.6395
vn -0.7005 0.2534 0.6672
vn -0.6951 0.2563 0.6717
vn -0.6339 -0.2816 0.7203
vn -0.6362 -0.2849 0.7170
vn -0.2607 -0.8537 0.4507
vn -0.2618 -0.8537 0.4502
vn -0.6031 -0.2780 0.7477
vn -0.2732 -0.8667 0.4174
vn -0.6483 -0.2847 0.7062
vn 0.5343 -0.7436 -0.4020
vn 0.5179 -0.7478 -0.4154
vn 0.6860 0.0484 -0.7260
vn 0.6734 0.0465 -0.7378
vn 0.5281 0.5012 -0.6855
vn 0.6189 0.0447 -0.7842
vn 0.4729 0.4742 -0.7426
vn 0.0688 0.8951 -0.4405
vn 0.1221 0.9267 -0.3554
vn -0.4944 0.8644 0.0916
vn -0.4295 0.8774 0.2139
vn -0.7160 0.2537 0.6503
vn -0.7966 0.2418 0.5541
vn -0.7108 -0.2904 0.6406
vn -0.8314 -0.3143 0.4582
vn -0.9000 0.2191 0.3768
vn -0.5780 -0.8134 -0.0662
vn -0.3389 -0.8935 0.2946
vn 0.4485 -0.7456 -0.4929
vn 0.2491 -0.6712 -0.6981
vn 0.4979 0.0369 -0.8665
vn -0.0018 -0.1883 -0.9821
vn -0.8661 -0.3699 -0.3361
vn -0.0854 0.4807 -0.8727
vn -0.9111 0.2853 -0.2976
vn -0.5758 0.8145 -0.0711
vn -0.0004 0.8182 -0.5749
vn 0.3763 0.4284 -0.8215
vn -0.9792 -0.1979 0.0440
vn -0.9801 -0.0203 -0.1974
vn -0.8852 0.0198 -0.4648
vn -0.9796 0.1987 -0.0295
vn -0.9783 0.2058 0.0233
vn -0.9994 -0.0000 0.0358
vn -0.9994 -0.0000 -0.0358
vn -0.9986 -0.0378 0.0368
vn -0.9986 -0.0378 -0.0368
vn -0.9756 -0.2164 0.0374
vn -0.9756 -0.2164 -0.0374
vn -0.8853 -0.4631 0.0424
vn -0.8853 -0.4631 -0.0424
vn -0.9420 -0.2046 -0.2659
vn -0.9420 -0.2046 0.2659
vn -0.7491 -0.6613 0.0399
vn -0.7491 -0.6613 -0.0399
vn -0.9632 -0.0393 -0.2657
vn -0.9643 -0.0000 -0.2646
vn -0.9759 0.0807 -0.2028
vn -0.6660 -0.2921 0.6864
vn -0.7096 -0.0651 0.7016
vn -0.0492 -0.8300 0.5556
vn -0.0307 -0.9629 0.2682
vn -0.0691 -0.7237 0.6867
vn -0.0321 -0.9991 0.0261
vn -0.0321 -0.9991 -0.0261
vn -0.0372 -0.9616 -0.2721
vn -0.0459 -0.8308 -0.5546
vn -0.1402 -0.7660 -0.6274
vn -0.3656 -0.6090 -0.7038
vn -0.0613 -0.7273 -0.6836
vn -0.1178 -0.5114 -0.8512
vn -0.4489 -0.4056 -0.7962
vn -0.6660 -0.2921 -0.6864
vn -0.5651 -0.0899 -0.8201
vn -0.7096 -0.0651 -0.7016
vn -0.5752 -0.0000 -0.8180
vn -0.7165 -0.0000 -0.6975
vn -0.5456 0.1134 -0.8303
vn -0.7096 0.0651 -0.7016
vn -0.4299 0.4028 -0.8081
vn -0.6660 0.2921 -0.6864
vn -0.3671 0.6008 -0.7101
vn -0.3351 0.1565 -0.9291
vn -0.1814 0.2950 -0.9381
vn -0.1330 0.5157 -0.8464
vn -0.0793 0.0690 -0.9945
vn -0.0796 -0.0000 -0.9968
vn -0.3069 -0.0000 -0.9517
vn -0.0793 -0.0690 -0.9945
vn -0.3126 -0.1102 -0.9435
vn -0.1270 -0.2629 -0.9564
vn -0.3175 0.7261 -0.6099
vn -0.2189 0.9380 -0.2687
vn -0.1469 0.6810 -0.7174
vn -0.0236 0.8401 -0.5419
vn 0.0011 0.9614 -0.2753
vn -0.0691 0.7237 -0.6867
vn -0.2256 0.9734 -0.0403
vn -0.1080 0.9882 -0.1085
vn -0.2453 0.9692 0.0235
vn -0.1905 0.9815 0.0197
vn -0.2408 0.9281 0.2840
vn -0.0754 0.9433 0.3233
vn -0.1402 0.7660 0.6274
vn -0.3340 0.7202 0.6080
vn -0.4315 0.7143 0.5510
vn -0.0796 0.6202 0.7804
vn -0.4877 -0.2737 -0.8290
vn -0.7363 -0.3995 0.5461
vn -0.7459 -0.6277 -0.2228
vn -0.9562 -0.2245 -0.1880
vn -0.9475 -0.0646 0.3132
vn -0.9662 -0.0710 -0.2477
vn -0.9570 0.0969 0.2735
vn -0.9594 0.0413 -0.2790
vn -0.9515 0.2070 0.2274
vn -0.7863 0.5385 0.3030
vn -0.8069 0.2703 -0.5252
vn -0.5986 -0.1229 -0.7916
vn -0.5690 0.3858 0.7262
vn -0.5499 0.5535 -0.6255
vn -0.5354 0.8100 0.2393
vn -0.1295 0.9907 0.0407
vn -0.1357 0.7986 -0.5863
vn -0.1350 0.2299 -0.9638
vn 0.1527 0.2095 -0.9658
vn 0.1509 0.7937 -0.5892
vn -0.1347 -0.1879 -0.9729
vn 0.1269 -0.1952 -0.9725
vn 0.5806 -0.1457 -0.8010
vn 0.8031 0.2478 -0.5419
vn 0.5440 0.5386 -0.6434
vn 0.8138 0.4998 0.2966
vn 0.5661 0.7906 0.2334
vn 0.1530 0.9875 0.0390
vn 0.1576 0.7375 0.6566
vn -0.1373 0.7426 0.6555
vn -0.1239 0.4164 0.9007
vn 0.1367 0.4095 0.9020
vn -0.1141 0.2952 0.9486
vn 0.1269 0.2882 0.9491
vn -0.1181 0.0614 0.9911
vn 0.1364 0.0541 0.9892
vn 0.6057 0.2143 0.7663
vn 0.5919 0.0230 0.8057
vn 0.9652 0.0401 0.2583
vn 0.9509 -0.1167 0.2867
vn 0.9566 -0.1307 -0.2606
vn 0.9364 -0.2820 -0.2088
vn 0.9638 0.1528 0.2185
vn 0.9575 -0.0140 -0.2879
vn 0.5899 -0.2831 -0.7562
vn -0.5741 0.0534 0.8171
vn -0.5881 0.2471 0.7701
vn -0.5873 -0.4390 -0.6800
vn -0.6079 -0.2475 -0.7544
vn -0.1287 -0.3200 -0.9386
vn -0.3656 0.6090 0.7038
vn -0.4456 0.4022 0.7998
vn 0.0348 0.9521 -0.3039
vn 0.0601 0.8681 -0.4927
vn 0.0563 0.7292 -0.6820
vn 0.1584 0.8069 -0.5690
vn 0.1059 0.5335 -0.8391
vn 0.4500 0.4045 -0.7962
vn 0.1277 0.2754 -0.9528
vn 0.2988 0.1096 -0.9480
vn 0.5425 0.0998 -0.8341
vn 0.5752 -0.0000 -0.8180
vn 0.3069 -0.0000 -0.9517
vn 0.5467 -0.1145 -0.8295
vn 0.3350 -0.1563 -0.9292
vn 0.1355 -0.2549 -0.9574
vn 0.1268 -0.5097 -0.8510
vn 0.0793 -0.0690 -0.9945
vn 0.0796 -0.0000 -0.9968
vn 0.0793 0.0690 -0.9945
vn 0.0681 -0.7237 -0.6867
vn 0.0547 -0.8330 -0.5505
vn 0.1230 -0.7587 -0.6397
vn 0.0390 -0.9613 -0.2728
vn 0.0321 -0.9991 0.0261
vn 0.0321 -0.9991 -0.0261
vn 0.0307 -0.9629 0.2682
vn 0.0492 -0.8300 0.5556
vn 0.0691 -0.7237 0.6867
vn 0.1469 -0.6810 0.7174
vn 0.7659 0.0552 0.6406
vn 0.7678 -0.0000 0.6407
vn 0.8431 -0.0000 0.5378
vn 0.8384 -0.0472 0.5430
vn 0.7659 -0.0552 0.6406
vn 0.8123 -0.2170 0.5414
vn 0.7418 -0.2346 0.6283
vn 0.9632 -0.0393 0.2657
vn 0.9420 -0.2046 0.2659
vn 0.8518 -0.4237 0.3081
vn 0.9643 -0.0000 0.2646
vn 0.7316 -0.6148 0.2946
vn 0.7491 -0.6613 0.0399
vn 0.7491 -0.6613 -0.0399
vn 0.7316 -0.6148 -0.2946
vn -0.3751 -0.9206 -0.1084
vn -0.3187 -0.1847 -0.9297
vn 0.8791 0.1024 0.4655
vn -0.8063 0.2544 -0.5341
vn -0.8251 -0.5566 -0.0968
vn 0.5886 0.3560 0.7258
vn 0.1156 -0.3263 -0.9382
vn -0.6786 0.2359 0.6956
vn 0.6977 0.0603 -0.7139
vn 0.5378 -0.7406 -0.4029
s 1
f 68//38 67//37 66//36 65//35
f 66//36 67//37 70//40 69//39
f 69//39 70//40 72//42 71//41
f 71//41 72//42 74//44 73//43
f 74//44 76//46 75//45 73//43
f 78//48 77//47 76//46 74//44
f 77//47 80//50 79//49 76//46
f 79//49 80//50 82//52 81//51
f 82//52 83//53 68//38 81//51
f 85//55 84//54 83//53 82//52
f 84//54 87//57 86//56 83//53
f 86//56 87//57 89//59 88//58
f 88//58 89//59 91//61 90//60
f 90//60 91//61 92//62 78//48
f 91//61 94//64 93//63 92//62
f 93//63 96//66 95//65 92//62
f 96//66 98//68 97//67 95//65
f 97//67 98//68 99//69 85//55
f 98//68 100//70 99//69
f 100//70 102//72 101//71 99//69
f 104//74 102//72 100//70 103//73
f 102//72 105//75 101//71
f 103//73 100//70 98//68 96//66
f 103//73 96//66 93//63
f 94//64 104//74 103//73 93//63
f 106//76 104//74 94//64
f 89//59 106//76 94//64 91//61
f 87//57 105//75 106//76 89//59
f 101//71 105//75 87//57 84//54
f 99//69 101//71 84//54 85//55
f 80//50 97//67 85//55 82//52
f 95//65 97//67 80//50 77//47
f 92//62 95//65 77//47 78//48
f 73//43 75//45 108//78 107//77
f 107//77 108//78 110//80 109//79
f 108//78 112//82 111//81 110//80
f 111//81 112//82 114//84 113//83
f 114//84 116//86 115//85 113//83
f 116//86 118//88 117//87 115//85
f 119//89 65//35 116//86 114//84
f 113//83 115//85 121//91 120//90
f 120//90 121//91 123//93 122//92
f 121//91 125//95 124//94 123//93
f 124//94 125//95 127//97 126//96
f 126//96 127//97 129//99 128//98
f 128//98 129//99 131//101 130//100
f 131//101 133//103 132//102 130//100
f 133//103 135//105 134//104 132//102
f 132//102 134//104 137//107 136//106
f 137//107 134//104 122//92 138//108
f 140//110 137//107 138//108 139//109
f 138//108 142//112 141//111 139//109
f 142//112 144//114 143//113 141//111
f 144//114 147//117 146//116 145//115
f 143//113 144//114 145//115
f 149//119 146//116 147//117 148//118
f 150//120 149//119 148//118
f 152//122 146//116 149//119 151//121
f 151//121 149//119 154//124 153//123
f 153//123 154//124 156//125 155//123
f 155//123 156//125 158//127 157//126
f 157//126 158//127 160//129 159//128
f 159//128 160//129 161//130
f 161//130 160//129 163//132 162//131
f 162//131 163//132 165//134 164//133
f 163//132 167//136 166//135 165//134
f 167//136 169//138 168//137 166//135
f 169//138 171//140 170//139 168//137
f 171//140 150//120 172//141 170//139
f 170//139 172//141 174//143 173//142
f 176//145 174//143 172//141 175//144
f 136//106 176//145 175//144
f 174//143 176//145 178//147 177//146
f 178//147 176//145 179//148
f 179//148 182//151 181//150 180//149
f 183//152 178//147 179//148 180//149
f 181//150 182//151 184//153
f 186//155 181//150 184//153 185//154
f 184//153 188//157 187//156 185//154
f 188//157 190//159 189//158 187//156
f 190//159 192//161 191//160 189//158
f 192//161 194//163 193//162 191//160
f 193//162 194//163 196//165 195//164
f 145//115 152//122 197//166 196//165
f 194//163 198//167 145//115 196//165
f 197//166 199//168 196//165
f 199//168 197//166 201//170 200//169
f 200//169 201//170 203//172 202//171
f 202//171 203//172 205//172 204//171
f 204//171 205//172 207//174 206//173
f 206//173 207//174 209//176 208//175
f 208//175 209//176 210//177
f 212//179 208//175 210//177 211//178
f 210//177 214//181 213//180 211//178
f 213//180 214//181 216//183 215//182
f 215//182 216//183 218//185 217//184
f 217//184 218//185 220//187 219//186
f 219//186 220//187 222//189 221//188
f 222//189 224//191 223//190 221//188
f 223//190 224//191 226//193 225//192
f 226//193 228//195 227//194 225//192
f 228//195 230//197 229//196 227//194
f 230//197 232//199 231//198 229//196
f 232//199 234//199 233//198 231//198
f 234//199 236//201 235//200 233//198
f 236//201 238//203 237//202 235//200
f 237//202 238//203 180//149 239//204
f 239//204 242//207 241//206 240//205
f 237//202 239//204 240//205
f 241//206 242//207 243//208
f 186//155 242//207 239//204
f 240//205 241//206 245//210 244//209
f 247//212 240//205 244//209 246//211
f 249//214 248//213 247//212 246//211
f 248//213 250//215 247//212
f 252//217 250//215 248//213 251//216
f 254//217 252//217 251//216 253//216
f 256//219 254//217 253//216 255//218
f 256//219 255//218 257//220
f 257//220 255//218 259//222 258//221
f 261//224 260//223 257//220 258//221
f 263//224 261//224 258//221 262//221
f 265//225 261//224 263//224 264//225
f 267//226 265//225 264//225 266//226
f 269//227 268//227 267//226 266//226
f 271//228 270//228 268//227 269//227
f 273//229 272//229 270//228 271//228
f 275//230 274//230 272//229 273//229
f 277//231 276//231 274//230 275//230
f 279//232 278//232 276//231 277//231
f 281//233 280//233 278//232 279//232
f 283//234 280//233 281//233 282//234
f 285//235 284//235 283//234 282//234
f 287//236 286//236 284//235 285//235
f 289//236 288//236 286//236 287//236
f 291//237 290//237 288//236 289//236
f 293//238 290//237 291//237 292//238
f 295//239 294//239 293//238 292//238
f 297//240 296//240 294//239 295//239
f 299//242 296//240 297//240 298//241
f 301//244 299//242 298//241 300//243
f 303//246 302//245 301//244 300//243
f 305//248 304//247 302//245 303//246
f 308//251 307//250 306//249 302//245
f 304//247 308//251 302//245
f 310//253 306//249 307//250 309//252
f 312//255 306//249 310//253 311//254
f 311//254 310//253 314//257 313//256
f 315//258 311//254 313//256
f 243//208 315//258 313//256 316//259
f 316//259 313//256 318//260 317//259
f 319//210 245//210 316//259 317//259
f 321//262 319//210 317//259 320//261
f 323//209 319//210 321//262 322//263
f 325//211 323//209 322//263 324//264
f 327//265 326//214 325//211 324//264
f 329//267 326//214 327//265 328//266
f 331//267 329//267 328//266 330//266
f 333//222 331//267 330//266 332//268
f 262//221 333//222 332//268 334//269
f 332//268 335//270 334//269
f 334//269 335//270 337//272 336//271
f 338//273 334//269 336//271
f 335//270 340//275 339//274 337//272
f 340//275 342//275 341//274 339//274
f 342//275 344//277 343//276 341//274
f 339//274 341//274 346//278 345//278
f 346//278 348//279 347//279 345//278
f 350//281 349//280 348//279 346//278
f 352//283 351//282 349//280 350//281
f 351//282 352//283 353//284
f 353//284 356//287 355//286 354//285
f 357//288 351//282 353//284 354//285
f 355//286 356//287 358//289
f 355//286 358//289 360//291 359//290
f 361//292 355//286 359//290
f 360//291 363//294 362//293 359//290
f 366//297 365//296 364//295 362//293
f 363//294 366//297 362//293
f 364//295 365//296 367//298
f 370//301 369//300 368//299 367//298
f 365//296 371//302 370//301 367//298
f 368//299 369//300 373//304 372//303
f 372//303 373//304 375//306 374//305
f 374//305 375//306 377//306 376//305
f 376//305 377//306 379//308 378//307
f 378//307 379//308 381//310 380//309
f 385//314 384//313 383//312 382//311
f 380//309 381//310 385//314 382//311
f 383//312 384//313 386//315
f 384//313 388//317 387//316 386//315
f 386//315 387//316 390//319 389//318
f 389//318 390//319 392//321 391//320
f 391//320 392//321 394//323 393//322
f 394//323 396//325 395//324 393//322
f 395//324 396//325 398//327 397//326
f 396//325 399//328 398//327
f 397//326 402//331 401//330 400//329
f 403//332 395//324 397//326 400//329
f 402//331 405//334 404//333 401//330
f 405//334 347//279 406//335 404//333
f 406//335 408//337 407//336 404//333
f 410//335 409//338 408//337 406//335
f 412//340 411//339 409//338 410//335
f 357//288 413//341 411//339 412//340
f 411//339 413//341 415//343 414//342
f 416//344 411//339 414//342
f 354//285 361//292 417//345 415//343
f 413//341 354//285 415//343
f 415//343 417//345 419//347 418//346
f 419//347 417//345 421//349 420//348
f 421//349 423//351 422//350 420//348
f 423//351 425//353 424//352 422//350
f 424//352 425//353 427//355 426//354
f 426//354 427//355 429//357 428//356
f 428//356 429//357 414//342 430//358
f 432//360 428//356 430//358 431//359
f 430//358 418//346 433//361 431//359
f 431//359 433//361 435//363 434//362
f 433//361 437//365 436//364 435//363
f 436//364 437//365 439//367 438//366
f 439//367 441//369 440//368 438//366
f 441//369 443//371 442//370 440//368
f 442//370 443//371 445//373 444//372
f 444//372 445//373 432//360 446//374
f 448//376 444//372 446//374 447//375
f 447//375 446//374 434//362 449//377
f 450//378 442//370 444//372 448//376
f 438//366 440//368 452//380 451//379
f 451//379 452//380 454//382 453//381
f 453//381 454//382 456//384 455//383
f 454//382 458//386 457//385 456//384
f 460//388 459//387 453//381 455//383
f 462//390 459//387 460//388 461//389
f 464//392 462//390 461//389 463//391
f 449//377 465//393 462//390 464//392
f 463//391 461//389 467//395 466//394
f 469//397 468//396 463//391 466//394
f 471//399 470//398 468//396 469//397
f 472//400 457//385 470//398 471//399
f 474//402 472//400 471//399 473//401
f 476//404 472//400 474//402 475//403
f 478//406 476//404 475//403 477//405
f 480//408 479//407 478//406 477//405
f 467//395 479//407 480//408 481//409
f 481//409 480//408 483//411 482//410
f 485//413 481//409 482//410 484//412
f 487//415 486//414 485//413 484//412
f 488//416 473//401 486//414 487//415
f 489//417 488//416 487//415
f 490//418 489//417 487//415 484//412
f 492//420 491//419 489//417 490//418
f 494//422 491//419 492//420 493//421
f 495//423 491//419 494//422
f 492//420 483//411 493//421
f 482//410 490//418 484//412
f 483//411 492//420 490//418 482//410
f 483//411 480//408 477//405 493//421
f 477//405 475//403 494//422 493//421
f 475//403 474//402 495//423 494//422
f 495//423 474//402 473//401 488//416
f 473//401 471//399 469//397 486//414
f 486//414 469//397 466//394 485//413
f 466//394 467//395 481//409 485//413
f 455//383 456//384 476//404 478//406
f 434//362 435//363 465//393 449//377
f 446//374 432//360 431//359 434//362
f 498//426 497//425 496//424 429//357
f 427//355 498//426 429//357
f 445//373 426//354 428//356 432//360
f 443//371 424//352 426//354 445//373
f 422//350 424//352 443//371 441//369
f 420//348 422//350 441//369 439//367
f 437//365 419//347 420//348 439//367
f 418//346 419//347 437//365 433//361
f 429//357 496//424 416//344 414//342
f 416//344 496//424 500//428 499//427
f 499//427 500//428 502//430 501//429
f 501//429 502//430 504//432 503//431
f 503//431 504//432 506//434 505//433
f 505//433 506//434 508//436 507//435
f 506//434 509//437 382//311 508//436
f 510//438 505//433 507//435 400//329
f 508//436 512//440 511//439 507//435
f 504//432 513//441 509//437 506//434
f 407//336 503//431 505//433 510//438
f 502//430 514//442 513//441 504//432
f 500//428 515//443 514//442 502//430
f 414//342 415//343 418//346 430//358
f 411//339 416//344 499//427 409//338
f 409//338 499//427 501//429 408//337
f 408//337 501//429 503//431 407//336
f 517//445 405//334 402//331 516//444
f 404//333 407//336 510//438 401//330
f 507//435 511//439 403//332 400//329
f 516//444 402//331 397//326
f 401//330 510//438 400//329
f 518//446 399//328 396//325 394//323
f 519//447 518//446 394//323
f 520//448 399//328 518//446
f 395//324 403//332 393//322
f 392//321 521//449 519//447 394//323
f 403//332 511//439 391//320 393//322
f 390//319 522//450 521//449 392//321
f 511//439 512//440 389//318 391//320
f 387//316 523//451 522//450 390//319
f 525//453 524//452 523//451 387//316
f 388//317 525//453 387//316
f 525//453 388//317 526//454
f 528//456 527//455 525//453 526//454
f 529//457 528//456 526//454
f 530//458 529//457 526//454 385//314
f 532//460 531//459 529//457 530//458
f 534//462 533//461 531//459 532//460
f 536//462 535//461 533//461 534//462
f 538//464 537//463 535//461 536//462
f 540//466 539//465 537//463 538//464
f 541//467 539//465 540//466 370//301
f 544//470 543//469 542//468 537//463
f 539//465 544//470 537//463
f 545//471 542//468 543//469
f 547//473 542//468 545//471 546//472
f 549//473 547//473 546//472 548//472
f 551//475 549//473 548//472 550//474
f 551//475 550//474 552//476
f 535//461 547//473 549//473 533//461
f 533//461 549//473 551//475 531//459
f 525//453 527//455 524//452
f 381//310 530//458 385//314
f 382//311 383//312 512//440 508//436
f 526//454 388//317 384//313 385//314
f 509//437 380//309 382//311
f 381//310 379//308 532//460 530//458
f 509//437 513//441 378//307 380//309
f 379//308 377//306 534//462 532//460
f 513//441 514//442 376//305 378//307
f 377//306 375//306 536//462 534//462
f 514//442 515//443 374//305 376//305
f 375//306 373//304 538//464 536//462
f 515//443 497//425 372//303 374//305
f 373//304 369//300 540//466 538//464
f 497//425 498//426 368//299 372//303
f 540//466 369//300 370//301
f 371//302 553//477 541//467 370//301
f 554//478 553//477 371//302 366//297
f 556//480 555//479 553//477 554//478
f 557//481 556//480 554//478
f 558//482 555//479 556//480
f 560//484 557//481 554//478 559//483
f 562//486 560//484 559//483 561//485
f 564//488 562//486 561//485 563//487
f 565//489 320//261 564//488 563//487
f 566//490 565//489 563//487
f 568//492 567//491 562//486 564//488
f 318//260 568//492 564//488
f 567//491 569//493 560//484 562//486
f 571//495 569//493 567//491 570//494
f 573//497 572//496 571//495 570//494
f 575//499 574//498 572//496 573//497
f 577//501 576//500 574//498 575//499
f 579//503 576//500 577//501 578//502
f 580//504 576//500 579//503
f 577//501 581//505 578//502
f 583//507 582//506 579//503 578//502
f 585//509 582//506 583//507 584//508
f 586//510 582//506 585//509
f 588//512 587//511 586//510 585//509
f 586//510 587//511 590//514 589//513
f 593//517 592//516 591//515 590//514
f 587//511 593//517 590//514
f 592//516 593//517 595//519 594//518
f 595//519 593//517 588//512 596//520
f 597//521 595//519 596//520
f 598//522 597//521 596//520 584//508
f 600//524 597//521 598//522 599//523
f 602//526 600//524 599//523 601//525
f 604//528 602//526 601//525 603//527
f 314//257 604//528 603//527 568//492
f 606//530 605//529 602//526 604//528
f 608//532 607//531 605//529 606//530
f 610//534 609//533 607//531 608//532
f 609//533 612//536 611//535 607//531
f 613//537 609//533 610//534 308//251
f 603//527 601//525 615//539 614//538
f 611//535 612//536 592//516 594//518
f 583//507 598//522 584//508
f 596//520 588//512 585//509 584//508
f 581//505 577//501 575//499 615//539
f 572//496 574//498 617//541 616//540
f 617//541 618//542 305//248 616//540
f 580//504 589//513 618//542 617//541
f 615//539 575//499 573//497 614//538
f 572//496 616//540 571//495
f 614//538 573//497 570//494
f 553//477 555//479 541//467
f 368//299 498//426 367//298
f 364//295 367//298 498//426 427//355
f 425//353 364//295 427//355
f 371//302 365//296 366//297
f 362//293 364//295 425//353 423//351
f 561//485 559//483 363//294 360//291
f 359//290 362//293 423//351 421//349
f 563//487 561//485 360//291 358//289
f 417//345 361//292 359//290 421//349
f 356//287 566//490 563//487 358//289
f 355//286 361//292 354//285
f 619//543 566//490 356//287 353//284
f 413//341 357//288 354//285
f 352//283 620//544 619//543 353//284
f 349//280 351//282 357//288 412//340
f 343//276 620//544 352//283 350//281
f 348//279 349//280 412//340 410//335
f 345//278 347//279 405//334 517//445
f 347//279 348//279 410//335 406//335
f 337//272 339//274 345//278 517//445
f 520//448 338//273 336//271 398//327
f 399//328 520//448 398//327
f 336//271 337//272 517//445 516//444
f 259//222 621//267 331//267 333//222
f 330//266 340//275 335//270 332//268
f 621//267 622//267 329//267 331//267
f 328//266 342//275 340//275 330//266
f 622//267 249//214 326//214 329//267
f 327//265 344//277 342//275 328//266
f 344//277 327//265 324//264
f 324//264 322//263 620//544 343//276
f 344//277 324//264 343//276
f 322//263 321//262 565//489 619//543
f 620//544 322//263 619//543
f 565//489 321//262 320//261
f 317//259 318//260 564//488 320//261
f 313//256 314//257 568//492 318//260
f 307//250 610//534 608//532 309//252
f 306//249 312//255 623//545 301//244
f 302//245 306//249 301//244
f 303//246 300//243 557//481 560//484
f 569//493 303//246 560//484
f 623//545 624//546 299//242 301//244
f 300//243 298//241 556//480 557//481
f 624//546 625//547 296//240 299//242
f 626//548 625//547 624//546
f 626//548 195//164 628//550 627//549
f 625//547 626//548 627//549
f 628//550 631//553 630//552 629//551
f 627//549 628//550 629//551
f 633//555 630//552 631//553 632//554
f 635//555 633//555 632//554 634//554
f 637//557 635//555 634//554 636//556
f 636//556 212//179 639//559 638//558
f 637//557 636//556 638//558
f 640//560 637//557 638//558
f 641//561 635//555 637//557 640//560
f 642//561 633//555 635//555 641//561
f 643//562 630//552 633//555 642//561
f 630//552 643//562 629//551
f 298//241 297//240 558//482 556//480
f 558//482 297//240 295//239 544//470
f 294//239 627//549 629//551 293//238
f 544//470 295//239 292//238 543//469
f 629//551 643//562 290//237 293//238
f 292//238 291//237 545//471 543//469
f 545//471 291//237 289//236 546//472
f 288//236 642//561 641//561 286//236
f 546//472 289//236 287//236 548//472
f 286//236 641//561 640//560 284//235
f 548//472 287//236 285//235 550//474
f 284//235 640//560 638//558 283//234
f 550//474 285//235 282//234 552//476
f 282//234 281//233 528//456 552//476
f 280//233 639//559 644//563 278//232
f 528//456 281//233 279//232 527//455
f 278//232 644//563 645//564 276//231
f 644//563 646//565 645//564
f 527//455 279//232 277//231 524//452
f 276//231 645//564 647//566 274//230
f 524//452 277//231 275//230 523//451
f 523//451 275//230 273//229 522//450
f 272//229 649//568 648//567 270//228
f 522//450 273//229 271//228 521//449
f 270//228 648//567 650//569 268//227
f 521//449 271//228 269//227 519//447
f 268//227 650//569 651//570 267//226
f 519//447 269//227 266//226 518//446
f 651//570 652//571 265//225 267//226
f 653//572 652//571 651//570
f 266//226 264//225 520//448 518//446
f 264//225 263//224 338//273 520//448
f 338//273 263//224 262//221 334//269
f 258//221 259//222 333//222 262//221
f 255//218 253//216 621//267 259//222
f 253//216 251//216 622//267 621//267
f 326//214 249//214 246//211 325//211
f 246//211 244//209 323//209 325//211
f 244//209 245//210 319//210 323//209
f 654//573 183//152 238//203 236//201
f 235//200 237//202 240//205 247//212
f 250//215 235//200 247//212
f 235//200 250//215 252//217 233//198
f 656//574 655//574 234//199 232//199
f 658//575 655//574 656//574 657//575
f 177//146 654//573 655//574 658//575
f 657//575 656//574 660//577 659//576
f 659//576 660//577 662//579 661//578
f 664//581 663//580 659//576 661//578
f 664//581 661//578 665//582
f 663//580 666//583 657//575 659//576
f 666//583 173//142 658//575 657//575
f 233//198 252//217 254//217 231//198
f 660//577 656//574 232//199 230//197
f 231//198 254//217 256//219 229//196
f 662//579 660//577 230//197 228//195
f 227//194 229//196 256//219 257//220
f 260//223 227//194 257//220
f 225//192 227//194 260//223 652//571
f 653//572 225//192 652//571
f 665//582 661//578 662//579 226//193
f 224//191 667//584 665//582 226//193
f 667//584 668//585 164//133 665//582
f 653//572 223//190 225//192
f 667//584 224//191 222//189
f 221//188 223//190 653//572 651//570
f 650//569 221//188 651//570
f 220//187 668//585 667//584 222//189
f 648//567 219//186 221//188 650//569
f 218//185 669//586 668//585 220//187
f 649//568 217//184 219//186 648//567
f 216//183 670//587 669//586 218//185
f 647//566 215//182 217//184 649//568
f 214//181 670//587 216//183
f 646//565 213//180 215//182 647//566
f 645//564 646//565 647//566
f 213//180 646//565 211//178
f 212//179 211//178 646//565 644//563
f 639//559 212//179 644//563
f 634//554 204//171 206//173 636//556
f 632//554 202//171 204//171 634//554
f 628//550 199//168 200//169 631//553
f 626//548 193//162 195//164
f 198//167 194//163 192//161
f 193//162 626//548 624//546 623//545
f 191//160 193//162 623//545
f 189//158 191//160 623//545 312//255
f 187//156 189//158 312//255 311//254
f 185//154 187//156 311//254 315//258
f 186//155 185//154 315//258 243//208
f 242//207 186//155 243//208
f 140//110 182//151 179//148
f 238//203 183//152 180//149
f 178//147 183//152 654//573 177//146
f 173//142 174//143 177//146 658//575
f 168//137 170//139 173//142 666//583
f 166//135 168//137 666//583 663//580
f 165//134 166//135 663//580 664//581
f 164//133 165//134 664//581 665//582
f 668//585 669//586 162//131 164//133
f 161//130 670//587 214//181 210//177
f 209//176 159//128 161//130 210//177
f 160//129 158//127 167//136 163//132
f 209//176 207//174 157//126 159//128
f 158//127 156//125 169//138 167//136
f 207//174 205//172 155//123 157//126
f 156//125 154//124 171//140 169//138
f 205//172 203//172 153//123 155//123
f 203//172 201//170 151//121 153//123
f 201//170 197//166 152//122 151//121
f 172//141 150//120 148//118 175//144
f 146//116 152//122 145//115
f 198//167 143//113 145//115
f 139//109 141//111 190//159 188//157
f 140//110 139//109 188//157 184//153
f 182//151 140//110 184//153
f 136//106 137//107 140//110 179//148
f 176//145 136//106 179//148
f 130//100 132//102 136//106 175//144
f 129//99 671//588 109//79 131//101
f 148//118 128//98 130//100 175//144
f 127//97 672//589 671//588 129//99
f 147//117 126//96 128//98 148//118
f 125//95 117//87 672//589 127//97
f 144//114 124//94 126//96 147//117
f 123//93 124//94 144//114 142//112
f 134//104 135//105 120//90 122//92
f 122//92 123//93 142//112 138//108
f 109//79 110//80 133//103 131//101
f 72//42 90//60 78//48 74//44
f 70//40 88//58 90//60 72//42
f 67//37 86//56 88//58 70//40
f 81//51 68//38 65//35 119//89
f 83//53 86//56 67//37 68//38
f 105//75 102//72 104//74 106//76
f 673//590 79//49 81//51 119//89
f 76//46 79//49 673//590 75//45
f 118//88 66//36 69//39 674//591
f 65//35 66//36 118//88 116//86
f 674//591 69//39 71//41 675//592
f 112//82 673//590 119//89 114//84
f 75//45 673//590 112//82 108//78
f 675//592 71//41 73//43 107//77
f 117//87 118//88 674//591 672//589
f 115//85 117//87 125//95 121//91
f 672//589 674//591 675//592 671//588
f 135//105 111//81 113//83 120//90
f 110//80 111//81 135//105 133//103
f 671//588 675//592 107//77 109//79
f 612//536 591//515 592//516
f 591//515 612//536 609//533 613//537
f 308//251 610//534 307//250
f 676//593 611//535 594//518
f 607//531 611//535 676//593 605//529
f 608//532 606//530 309//252
f 590//514 591//515 613//537 677//594
f 677//594 613//537 308//251 304//247
f 593//517 587//511 588//512
f 594//518 595//519 597//521 600//524
f 676//593 594//518 600//524
f 605//529 676//593 600//524 602//526
f 309//252 606//530 604//528 314//257
f 310//253 309//252 314//257
f 589//513 590//514 677//594 618//542
f 618//542 677//594 304//247 305//248
f 586//510 589//513 580//504 579//503
f 582//506 586//510 579//503
f 574//498 576//500 580//504 617//541
f 305//248 303//246 569//493 571//495
f 616//540 305//248 571//495
f 599//523 598//522 583//507 578//502
f 581//505 599//523 578//502
f 601//525 599//523 581//505 615//539
f 568//492 603//527 614//538 570//494
f 567//491 568//492 570//494
f 196//165 199//168 628//550 195//164
f 631//553 200//169 202//171 632//554
f 636//556 206//173 208//175 212//179
f 143//113 198//167 192//161 190//159
f 141//111 143//113 190//159
f 154//124 149//119 150//120 171//140
f 669//586 670//587 161//130 162//131
f 180//149 181//150 186//155 239//204
f 655//574 654//573 236//201 234//199
f 662//579 228//195 226//193
f 296//240 625//547 627//549 294//239
f 290//237 643//562 642//561 288//236
f 638//558 639//559 280//233 283//234
f 274//230 647//566 649//568 272//229
f 245//210 241//206 243//208 316//259
f 251//216 248//213 249//214 622//267
f 652//571 260//223 261//224 265//225
f 558//482 544//470 539//465 541//467
f 555//479 558//482 541//467
f 537//463 542//468 547//473 535//461
f 551//475 552//476 528//456 529//457
f 531//459 551//475 529//457
f 559//483 554//478 366//297 363//294
f 496//424 497//425 515//443 500//428
f 512//440 383//312 386//315 389//318
f 565//489 566//490 619//543
f 341//274 343//276 350//281 346//278
f 398//327 336//271 516//444 397//326
f 440//368 442//370 450//378 452//380
f 678//595 436//364 438//366 451//379
f 435//363 436//364 678//595 465//393
f 458//386 450//378 448//376 679//596
f 452//380 450//378 458//386 454//382
f 679//596 448//376 447//375 680//597
f 459//387 678//595 451//379 453//381
f 465//393 678//595 459//387 462//390
f 680//597 447//375 449//377 464//392
f 457//385 458//386 679//596 470//398
f 456//384 457//385 472//400 476//404
f 489//417 491//419 495//423 488//416
f 470//398 679//596 680//597 468//396
f 479//407 460//388 455//383 478//406
f 461//389 460//388 479//407 467//395
f 468//396 680//597 464//392 463//391
