# Blender 5.0.0
# www.blender.org
mtllib thrower_prep0019.mtl
o Cylinder
v 0.000000 3.270831 -0.249686
v 0.000000 3.270831 0.249686
v 1.091688 3.178223 0.638049
v 0.318839 3.239539 0.249686
v 0.625427 3.146865 -0.249686
v 0.625427 3.146865 0.249686
v 0.907978 2.996371 -0.249686
v 0.907978 2.996371 0.249686
v 1.155637 2.793840 -0.249686
v 1.155637 2.793840 0.249686
v 1.358886 2.547055 -0.249686
v 1.358886 2.547055 0.249686
v 1.509913 2.265501 -0.249686
v 1.509913 2.265501 0.249686
v 1.602915 1.959997 -0.249686
v 1.602915 1.959997 0.249686
v 1.634318 1.642283 -0.249686
v 1.634318 1.642283 0.249686
v 1.602915 1.324569 -0.249686
v 1.602915 1.324569 0.249686
v 1.509913 1.019064 -0.249686
v 1.509913 1.019064 0.249686
v 1.358886 0.737510 -0.249686
v 1.358886 0.737510 0.249686
v 1.155637 0.490726 -0.249686
v 1.155637 0.490726 0.249686
v 0.907979 0.288195 -0.249686
v 0.907978 0.288195 0.249686
v 0.625426 0.137701 -0.249686
v 0.625427 0.137701 0.249686
v 0.318840 0.045027 -0.249686
v 0.318840 0.045027 0.249686
v 0.000000 0.013735 -0.249686
v 0.000000 0.013735 0.249686
v -0.318839 0.045027 -0.249686
v -0.318839 0.045027 0.249686
v -0.625426 0.137701 -0.249686
v -0.625426 0.137701 0.249686
v -0.907978 0.288194 -0.249686
v -0.907978 0.288194 0.249686
v -1.155637 0.490725 -0.249686
v -1.155637 0.490725 0.249686
v -1.358885 0.737510 -0.249686
v -1.358885 0.737510 0.249686
v -1.509912 1.019064 -0.249686
v -1.509912 1.019064 0.249686
v -1.602914 1.324569 -0.249686
v -1.602915 1.324569 0.249686
v -1.634318 1.642283 -0.249686
v -1.634318 1.642283 0.249686
v -1.602915 1.959997 -0.249686
v -1.602915 1.959997 0.249686
v -1.509912 2.265501 -0.249686
v -1.509912 2.265501 0.249686
v -1.358885 2.547055 -0.249686
v -1.358885 2.547055 0.249686
v -1.155637 2.793840 -0.249686
v -1.155637 2.793840 0.249686
v -0.907978 2.996371 -0.249686
v -0.849461 3.130935 0.932573
v -0.625426 3.146865 -0.249686
v -0.625426 3.146865 0.249686
v -0.318839 3.239539 -0.249686
v -0.318839 3.239539 0.249686
vn 0.0806 0.9967 0.0110
vn -0.0570 -0.9873 0.1482
vn 0.4701 0.8826 -0.0000
vn 0.6331 0.7741 -0.0000
vn 0.7719 0.6357 -0.0000
vn 0.8812 0.4727 -0.0000
vn 0.9567 0.2912 -0.0000
vn 0.9952 0.0984 -0.0000
vn 0.9952 -0.0984 -0.0000
vn 0.9567 -0.2912 -0.0000
vn 0.8812 -0.4727 -0.0000
vn 0.7719 -0.6357 -0.0000
vn 0.6331 -0.7741 -0.0000
vn 0.4701 -0.8826 -0.0000
vn 0.2893 -0.9572 -0.0000
vn 0.0977 -0.9952 -0.0000
vn -0.0977 -0.9952 -0.0000
vn -0.2893 -0.9572 -0.0000
vn -0.4701 -0.8826 -0.0000
vn -0.6331 -0.7741 -0.0000
vn -0.7719 -0.6357 -0.0000
vn -0.8812 -0.4727 -0.0000
vn -0.9567 -0.2912 -0.0000
vn -0.9952 -0.0984 -0.0000
vn -0.9952 0.0984 -0.0000
vn -0.9567 0.2912 -0.0000
vn -0.8812 0.4727 -0.0000
vn -0.7719 0.6357 -0.0000
vn -0.6746 0.7373 -0.0355
vn -0.3840 0.9213 -0.0604
vn 0.0145 -0.0217 0.9997
vn -0.2893 0.9572 -0.0000
vn -0.0977 0.9952 -0.0000
vn 0.0066 0.0333 -0.9994
vt 1.000000 0.500000
vt 1.000000 1.000000
vt 0.968750 1.000000
vt 0.968750 0.500000
vt 0.937500 1.000000
vt 0.937500 0.500000
vt 0.906250 1.000000
vt 0.906250 0.500000
vt 0.875000 1.000000
vt 0.875000 0.500000
vt 0.843750 1.000000
vt 0.843750 0.500000
vt 0.812500 1.000000
vt 0.812500 0.500000
vt 0.781250 1.000000
vt 0.781250 0.500000
vt 0.750000 1.000000
vt 0.750000 0.500000
vt 0.718750 1.000000
vt 0.718750 0.500000
vt 0.687500 1.000000
vt 0.687500 0.500000
vt 0.656250 1.000000
vt 0.656250 0.500000
vt 0.625000 1.000000
vt 0.625000 0.500000
vt 0.593750 1.000000
vt 0.593750 0.500000
vt 0.562500 1.000000
vt 0.562500 0.500000
vt 0.531250 1.000000
vt 0.531250 0.500000
vt 0.500000 1.000000
vt 0.500000 0.500000
vt 0.468750 1.000000
vt 0.468750 0.500000
vt 0.437500 1.000000
vt 0.437500 0.500000
vt 0.406250 1.000000
vt 0.406250 0.500000
vt 0.375000 1.000000
vt 0.375000 0.500000
vt 0.343750 1.000000
vt 0.343750 0.500000
vt 0.312500 1.000000
vt 0.312500 0.500000
vt 0.281250 1.000000
vt 0.281250 0.500000
vt 0.250000 1.000000
vt 0.250000 0.500000
vt 0.218750 1.000000
vt 0.218750 0.500000
vt 0.187500 1.000000
vt 0.187500 0.500000
vt 0.156250 1.000000
vt 0.156250 0.500000
vt 0.125000 1.000000
vt 0.125000 0.500000
vt 0.093750 1.000000
vt 0.093750 0.500000
vt 0.062500 1.000000
vt 0.062500 0.500000
vt 0.296822 0.485388
vt 0.250000 0.490000
vt 0.203178 0.485388
vt 0.158156 0.471731
vt 0.116663 0.449553
vt 0.080294 0.419706
vt 0.050447 0.383337
vt 0.028269 0.341844
vt 0.014612 0.296822
vt 0.010000 0.250000
vt 0.014612 0.203178
vt 0.028269 0.158156
vt 0.050447 0.116663
vt 0.080294 0.080294
vt 0.116663 0.050447
vt 0.158156 0.028269
vt 0.203178 0.014612
vt 0.250000 0.010000
vt 0.296822 0.014612
vt 0.341844 0.028269
vt 0.383337 0.050447
vt 0.419706 0.080294
vt 0.449553 0.116663
vt 0.471731 0.158156
vt 0.485388 0.203178
vt 0.490000 0.250000
vt 0.485388 0.296822
vt 0.471731 0.341844
vt 0.449553 0.383337
vt 0.419706 0.419706
vt 0.383337 0.449553
vt 0.341844 0.471731
vt 0.031250 1.000000
vt 0.031250 0.500000
vt 0.000000 1.000000
vt 0.000000 0.500000
vt 0.750000 0.490000
vt 0.796822 0.485388
vt 0.841844 0.471731
vt 0.883337 0.449553
vt 0.919706 0.419706
vt 0.949553 0.383337
vt 0.971731 0.341844
vt 0.985388 0.296822
vt 0.990000 0.250000
vt 0.985388 0.203178
vt 0.971731 0.158156
vt 0.949553 0.116663
vt 0.919706 0.080294
vt 0.883337 0.050447
vt 0.841844 0.028269
vt 0.796822 0.014612
vt 0.750000 0.010000
vt 0.703178 0.014612
vt 0.658156 0.028269
vt 0.616663 0.050447
vt 0.580294 0.080294
vt 0.550447 0.116663
vt 0.528269 0.158156
vt 0.514612 0.203178
vt 0.510000 0.250000
vt 0.514612 0.296822
vt 0.528269 0.341844
vt 0.550447 0.383337
vt 0.580294 0.419706
vt 0.616663 0.449553
vt 0.658156 0.471731
vt 0.703178 0.485388
s 0
f 1/1/1 2/2/1 4/3/1 3/4/1
f 3/4/2 4/3/2 6/5/2 5/6/2
f 5/6/3 6/5/3 8/7/3 7/8/3
f 7/8/4 8/7/4 10/9/4 9/10/4
f 9/10/5 10/9/5 12/11/5 11/12/5
f 11/12/6 12/11/6 14/13/6 13/14/6
f 13/14/7 14/13/7 16/15/7 15/16/7
f 15/16/8 16/15/8 18/17/8 17/18/8
f 17/18/9 18/17/9 20/19/9 19/20/9
f 19/20/10 20/19/10 22/21/10 21/22/10
f 21/22/11 22/21/11 24/23/11 23/24/11
f 23/24/12 24/23/12 26/25/12 25/26/12
f 25/26/13 26/25/13 28/27/13 27/28/13
f 27/28/14 28/27/14 30/29/14 29/30/14
f 29/30/15 30/29/15 32/31/15 31/32/15
f 31/32/16 32/31/16 34/33/16 33/34/16
f 33/34/17 34/33/17 36/35/17 35/36/17
f 35/36/18 36/35/18 38/37/18 37/38/18
f 37/38/19 38/37/19 40/39/19 39/40/19
f 39/40/20 40/39/20 42/41/20 41/42/20
f 41/42/21 42/41/21 44/43/21 43/44/21
f 43/44/22 44/43/22 46/45/22 45/46/22
f 45/46/23 46/45/23 48/47/23 47/48/23
f 47/48/24 48/47/24 50/49/24 49/50/24
f 49/50/25 50/49/25 52/51/25 51/52/25
f 51/52/26 52/51/26 54/53/26 53/54/26
f 53/54/27 54/53/27 56/55/27 55/56/27
f 55/56/28 56/55/28 58/57/28 57/58/28
f 57/58/29 58/57/29 60/59/29 59/60/29
f 59/60/30 60/59/30 62/61/30 61/62/30
f 4/63/31 2/64/31 64/65/31 62/66/31 60/67/31 58/68/31 56/69/31 54/70/31 52/71/31 50/72/31 48/73/31 46/74/31 44/75/31 42/76/31 40/77/31 38/78/31 36/79/31 34/80/31 32/81/31 30/82/31 28/83/31 26/84/31 24/85/31 22/86/31 20/87/31 18/88/31 16/89/31 14/90/31 12/91/31 10/92/31 8/93/31 6/94/31
f 61/62/32 62/61/32 64/95/32 63/96/32
f 63/96/33 64/95/33 2/97/33 1/98/33
f 1/99/34 3/100/34 5/101/34 7/102/34 9/103/34 11/104/34 13/105/34 15/106/34 17/107/34 19/108/34 21/109/34 23/110/34 25/111/34 27/112/34 29/113/34 31/114/34 33/115/34 35/116/34 37/117/34 39/118/34 41/119/34 43/120/34 45/121/34 47/122/34 49/123/34 51/124/34 53/125/34 55/126/34 57/127/34 59/128/34 61/129/34 63/130/34
o Mball.006
v 2.709913 6.135641 -1.043946
v 2.630911 6.021142 -0.963321
v 2.500042 5.896111 -1.184231
v 2.579043 6.010611 -1.264856
v 2.813961 5.563232 -0.742358
v 2.683092 5.438202 -0.963268
v 3.173606 5.171071 -0.594380
v 3.042737 5.046041 -0.815289
v 4.119641 5.224437 -0.816860
v 3.988772 5.099406 -1.037770
v 4.093205 5.635394 -1.043200
v 3.962337 5.510364 -1.264110
v 3.831468 5.385333 -1.485019
v 3.857903 4.974375 -1.258680
v 3.707086 5.964200 -1.468093
v 3.576218 5.839169 -1.689002
v 3.525078 6.063976 -1.487337
v 3.394209 5.938945 -1.708247
v 2.448175 5.885580 -1.485766
v 2.327124 5.740125 -1.697156
v 3.273159 5.793490 -1.919636
v 2.369174 5.771080 -1.405140
v 2.261445 5.647355 -1.631492
v 2.552223 5.313171 -1.184177
v 2.440028 5.189194 -1.409479
v 2.911868 4.921010 -1.036199
v 2.771170 4.816425 -1.266638
v 3.717204 4.869790 -1.489119
v 3.544698 4.831374 -1.750398
v 2.598663 4.778008 -1.527918
v 3.681925 5.259249 -1.701537
v 3.478758 5.130140 -1.905445
v 3.422209 5.712833 -1.904471
v 3.196415 5.582448 -2.103057
v 3.179430 5.591201 -2.104537
v 3.174388 5.572587 -2.116313
v 2.233395 5.537835 -1.882057
v 2.228354 5.519222 -1.893832
v 3.340945 5.066467 -1.992619
v 2.394911 5.013103 -1.770137
v 2.225500 5.527678 -1.874725
v 2.381457 5.068241 -1.647390
v 4.259069 5.356397 -0.577640
v 4.226441 5.763671 -0.812457
v 4.316892 5.478870 -0.310197
v 4.295431 5.897833 -0.511632
v 4.037693 6.365050 -0.665753
v 3.982891 6.229320 -0.983020
v 3.874922 6.465137 -0.698553
v 3.807136 6.329740 -1.004726
v 3.052128 6.392159 -0.640348
v 2.890658 6.270322 -0.826479
v 2.982992 6.272777 -0.584749
v 2.810309 6.153821 -0.751999
v 3.655947 6.189007 -1.266427
v 3.469711 6.541339 -0.243898
v 2.976899 6.417488 -0.619673
v 2.973741 6.502892 -0.056901
v 2.572567 6.364338 -0.555256
v 2.554703 6.247911 -0.596106
v 2.948535 6.283496 -0.647534
v 2.660385 5.724919 -0.550629
v 3.087144 5.770949 -0.588536
v 2.869440 5.332788 -0.366276
v 3.323367 5.368906 -0.381870
v 3.262039 5.476374 0.156654
v 3.801051 5.497003 0.020662
v 3.156124 5.915891 0.161906
v 3.704822 5.951024 0.001906
v 3.048065 6.419597 0.023261
v 3.572297 6.442540 -0.160589
v 2.714522 5.885538 0.255637
v 2.526270 6.374319 0.108997
v 2.499369 6.402073 0.077890
v 2.090883 6.354465 0.183921
v 2.103144 6.346854 0.199314
v 1.728997 6.211850 -0.358948
v 2.137483 6.259459 -0.464980
v 1.723571 6.197269 -0.370087
v 2.131652 6.218804 -0.482975
v 2.034732 5.852797 -0.899998
v 2.067401 5.762754 -0.899998
v 2.252682 5.703532 -0.437175
v 2.426749 5.320383 -0.284993
v 2.110820 5.243497 -0.899998
v 2.180811 5.204902 -0.198390
v 2.034732 5.243497 -1.046490
v 2.034732 5.762754 -0.957779
v 2.034732 4.724241 -1.046490
v 2.110820 4.724241 -0.899998
v 2.034732 4.204984 -1.046490
v 2.110820 4.204984 -0.899998
v 2.034732 3.685727 -1.046490
v 2.110820 3.685727 -0.899998
v 2.034732 3.166471 -0.957779
v 2.067402 3.166471 -0.899998
v 2.034732 3.076428 -0.899998
v 2.034732 2.956795 -0.299999
v 2.115814 3.166471 -0.299999
v 2.034732 2.956795 0.300000
v 2.115814 3.166471 0.299999
v 2.153902 3.685727 0.300000
v 2.153902 3.685727 -0.299999
v 2.153902 4.204984 0.299999
v 2.153902 4.204984 -0.299999
v 2.153902 4.724240 0.299999
v 2.153902 4.724240 -0.299999
v 2.542696 5.347517 0.344479
v 2.110820 4.724240 0.899998
v 2.110821 5.243497 0.899998
v 2.788635 5.462997 0.257877
v 2.067402 5.762754 0.899998
v 2.034732 5.243497 1.046490
v 2.034732 5.762754 0.957779
v 2.034732 5.852797 0.899998
v 1.582569 5.808151 1.499997
v 1.582570 6.282010 1.143507
v 1.765596 6.282010 0.899998
v 1.604984 5.762753 1.499997
v 1.582569 6.436028 0.899998
v 1.130407 6.631892 0.899998
v 1.130407 6.282010 1.472477
v 1.130407 6.663046 0.299999
v 1.582569 6.484239 0.300000
v 1.111210 6.551548 -0.286909
v 1.582569 6.484239 -0.299999
v 1.130407 6.631892 -0.899998
v 1.582569 6.436028 -0.899998
v 1.130407 6.282010 -1.472477
v 1.582569 6.282010 -1.143507
v 1.130407 6.255620 -1.499997
v 1.582569 5.808151 -1.499997
v 1.604984 5.762753 -1.499997
v 1.765596 6.282010 -0.899998
v 1.582569 5.762753 -1.523737
v 1.582569 5.243497 -1.610848
v 1.681839 5.243497 -1.499997
v 1.582569 4.724240 -1.610848
v 1.681839 4.724240 -1.499997
v 1.582569 4.204984 -1.610848
v 1.681839 4.204984 -1.499997
v 1.582569 3.685728 -1.610848
v 1.681839 3.685727 -1.499997
v 1.582569 3.166471 -1.523737
v 1.604985 3.166471 -1.499997
v 1.582569 3.121074 -1.499997
v 1.130407 2.673604 -1.499997
v 1.130407 3.166471 -1.914503
v 1.130407 2.647214 -1.472477
v 1.582569 2.647214 -1.143507
v 1.130406 2.297333 -0.899998
v 1.582569 2.493196 -0.899999
v 1.130407 2.266178 -0.299999
v 1.582569 2.445172 -0.299999
v 1.130407 2.266178 0.300000
v 1.582569 2.445172 0.299999
v 1.130407 2.297333 0.899998
v 1.582569 2.493196 0.899998
v 1.130407 2.647214 1.472477
v 1.582569 2.647214 1.143507
v 1.130407 2.673604 1.499997
v 1.582569 3.121074 1.499997
v 1.130407 3.166471 1.914503
v 1.582569 3.166471 1.523737
v 1.130407 3.685727 2.037386
v 1.582569 3.685727 1.610848
v 1.130407 4.204984 2.037386
v 1.582569 4.204984 1.610848
v 1.130407 4.724240 2.037386
v 1.582569 4.724240 1.610848
v 1.130407 5.243497 2.037386
v 1.582569 5.243497 1.610848
v 1.130407 5.762754 1.914503
v 1.582569 5.762753 1.523737
v 1.130407 6.255620 1.499997
v 0.678244 5.762753 2.037206
v 0.678244 6.282010 1.562223
v 1.053943 6.282010 1.499997
v 0.678244 6.331481 1.499997
v 0.226081 5.762754 2.037206
v 0.226081 6.282010 1.562223
v 0.226081 5.617282 2.099996
v 0.678244 5.617282 2.099996
v 0.678244 5.243497 2.152194
v 0.226082 5.243497 2.152194
v 1.003732 5.243497 2.099996
v 0.678244 4.724240 2.152194
v 1.003732 4.724240 2.099996
v 0.678244 4.204984 2.152194
v 1.003732 4.204984 2.099996
v 0.678244 3.685727 2.152194
v 1.003731 3.685728 2.099996
v 0.678244 3.311943 2.099996
v 0.226081 3.311943 2.099996
v 0.226081 3.685727 2.152194
v 0.678244 3.166471 2.037206
v 0.226081 3.166471 2.037206
v -0.226081 3.311943 2.099996
v -0.226082 3.166471 2.037206
v -0.226081 2.647214 1.562223
v 0.226081 2.647214 1.562223
v -0.226081 2.597744 1.499997
v 0.226081 2.597744 1.499997
v 0.226081 2.268450 0.899998
v -0.226082 2.268450 0.899998
v 0.226081 2.236985 0.299999
v -0.226082 2.236985 0.299999
v 0.226081 2.236985 -0.299999
v -0.226081 2.236985 -0.299999
v 0.226081 2.268450 -0.899998
v -0.226081 2.268450 -0.899998
v 0.226081 2.597744 -1.499997
v -0.226082 2.597744 -1.499997
v 0.226081 2.647214 -1.562223
v -0.226081 2.647214 -1.562223
v 0.226081 3.166471 -2.037206
v -0.226082 3.166471 -2.037206
v -0.226081 3.311943 -2.099996
v 0.226081 3.311943 -2.099996
v 0.226081 3.685727 -2.152194
v -0.226082 3.685727 -2.152194
v 0.226081 4.204984 -2.152194
v -0.226082 4.204984 -2.152194
v 0.226081 4.724240 -2.152194
v -0.226081 4.724240 -2.152194
v 0.226081 5.243497 -2.152194
v -0.226082 5.243497 -2.152194
v -0.226081 5.617282 -2.099996
v 0.226081 5.617282 -2.099996
v 0.226081 5.762753 -2.037206
v -0.226082 5.762753 -2.037206
v 0.226081 6.282010 -1.562223
v -0.226081 6.282010 -1.562223
v -0.226081 6.331481 -1.499997
v 0.226081 6.331481 -1.499997
v -0.352811 6.476025 -0.973683
v 0.097689 6.471983 -0.995974
v 0.187006 6.726770 -0.433589
v -0.263047 6.729791 -0.411785
v 0.209591 7.052541 -0.803989
v -0.242321 7.057832 -0.800083
v 0.316880 6.724349 -0.432568
v 0.660304 6.966687 -0.500031
v 0.667116 7.098170 -0.698065
v 0.694457 7.202202 0.046125
v 0.393404 6.870711 0.145419
v 0.717930 6.762393 0.153408
v 0.637958 6.623206 -0.427970
v 0.226081 6.660774 0.899998
v 0.267272 6.868339 0.152337
v 0.678244 6.660774 0.899998
v 0.226081 6.331481 1.499997
v -0.226081 6.331481 1.499997
v -0.226081 6.660774 0.899998
v -0.226081 6.282010 1.562223
v -0.678244 6.331481 1.499997
v -0.678244 6.282010 1.562223
v -0.678244 5.762754 2.037206
v -0.226082 5.762754 2.037206
v -0.678244 5.617282 2.099996
v -0.226081 5.617282 2.099996
v -0.226082 5.243497 2.152194
v -0.678244 5.243497 2.152194
v -0.678244 4.724240 2.152194
v -0.226082 4.724240 2.152194
v -0.678244 4.204984 2.152194
v -0.226081 4.204984 2.152194
v -0.678244 3.685727 2.152194
v -0.226081 3.685727 2.152194
v -0.678244 3.311943 2.099996
v -1.003732 3.685728 2.099996
v -1.130407 3.166471 1.914503
v -1.130407 3.685727 2.037386
v -0.678244 3.166471 2.037206
v -1.130407 4.204984 2.037386
v -1.003732 4.204984 2.099996
v -1.130407 4.724240 2.037386
v -1.003732 4.724240 2.099996
v -1.130407 5.243497 2.037386
v -1.003732 5.243497 2.099996
v -1.582570 4.204984 1.610848
v -1.582570 4.724240 1.610848
v -1.681839 4.204984 1.499997
v -1.681839 4.724241 1.499997
v -1.681839 5.243497 1.499997
v -1.582569 5.243497 1.610848
v -1.604984 5.762753 1.499997
v -1.582569 5.762753 1.523737
v -1.582569 5.808151 1.499997
v -2.034732 5.852797 0.899998
v -1.765597 6.282010 0.899998
v -1.582569 6.282011 1.143507
v -2.034732 5.762753 0.957779
v -1.582570 6.436028 0.899998
v -2.041513 6.311565 0.257607
v -1.582570 6.484123 0.299999
v -2.042690 6.310059 0.260104
v -1.846483 6.243119 -0.327385
v -1.582569 6.484123 -0.299999
v -1.846103 6.241066 -0.329556
v -1.765597 6.282010 -0.899998
v -1.582570 6.436028 -0.899998
v -2.034732 5.852797 -0.899998
v -2.034732 5.762753 -0.957779
v -1.604984 5.762754 -1.499997
v -1.582570 5.808151 -1.499997
v -1.582570 6.282010 -1.143507
v -2.034732 5.243497 -1.046490
v -1.681839 5.243497 -1.499997
v -2.034732 4.724240 -1.046490
v -1.681839 4.724240 -1.499997
v -2.034732 4.204984 -1.046490
v -1.681839 4.204984 -1.499997
v -2.034732 3.685728 -1.046490
v -1.681839 3.685727 -1.499997
v -2.034732 3.166471 -0.957779
v -1.604984 3.166471 -1.499997
v -2.034733 3.076428 -0.899998
v -1.765597 2.647214 -0.899999
v -1.582570 2.647214 -1.143507
v -1.582569 3.121074 -1.499997
v -1.582569 2.493196 -0.899998
v -1.130407 2.297333 -0.899998
v -1.130407 2.647214 -1.472477
v -1.582569 2.445172 -0.300000
v -1.130407 2.266178 -0.299999
v -1.582570 2.445172 0.299999
v -1.130407 2.266178 0.299999
v -1.582569 2.493196 0.899998
v -1.130407 2.297333 0.899998
v -1.582569 2.647214 1.143507
v -1.130407 2.647214 1.472477
v -1.582569 3.121074 1.499997
v -1.130407 2.673604 1.499997
v -1.053943 2.647214 1.499997
v -2.034732 3.076428 0.899998
v -2.034732 3.166471 0.957779
v -1.604984 3.166471 1.499997
v -1.765596 2.647214 0.899998
v -2.034732 3.685728 1.046490
v -1.681839 3.685727 1.499997
v -2.034732 4.204984 1.046490
v -2.110820 3.685727 0.899998
v -2.110820 4.204984 0.899998
v -2.110821 4.724240 0.899998
v -2.034732 4.724240 1.046490
v -2.110821 5.243497 0.899998
v -2.034732 5.243497 1.046490
v -2.067402 5.762753 0.899998
v -2.686957 5.421431 0.287933
v -2.622294 5.834923 0.328222
v -2.413989 5.293520 0.334246
v -2.488792 6.341140 0.224793
v -3.086247 5.868710 0.287874
v -3.015135 6.387101 0.213457
v -2.966273 6.477011 0.141850
v -2.475709 6.366068 0.201406
v -2.725822 6.398891 -0.405396
v -2.280679 6.297622 -0.383586
v -2.722101 6.291645 -0.462280
v -2.279839 6.267807 -0.401959
v -2.810695 5.775563 -0.480065
v -2.375699 5.748380 -0.411440
v -2.960361 5.358795 -0.330496
v -2.491927 5.352983 -0.297058
v -3.192656 5.434353 0.236602
v -3.794546 5.469301 0.145511
v -3.453045 5.369259 -0.311350
v -3.673594 5.925066 0.196043
v -4.520226 5.562428 -0.199109
v -4.404330 6.025465 -0.251013
v -4.039489 6.493280 -0.265947
v -3.553567 6.436358 0.114928
v -3.860941 6.579419 -0.279622
v -3.469360 6.541327 0.042818
v -3.088736 6.384055 -0.321478
v -3.113811 6.437751 -0.393771
v -3.048272 6.242680 -0.313327
v -3.105979 6.305596 -0.448749
v -3.291076 5.745907 -0.239501
v -3.252899 5.799296 -0.467924
v -3.731738 5.363188 -0.220943
v -3.668986 5.321323 -0.432140
v -3.175240 5.695382 -0.448489
v -4.574762 5.545910 -0.513620
v -2.913134 6.187910 -0.504151
v -3.848629 6.551957 -0.590773
v -2.959849 6.331057 -0.524484
v -3.765890 6.512229 -0.886705
v -2.838835 6.282615 -0.779685
v -3.706283 6.473948 -1.146720
v -2.779228 6.244335 -1.039700
v -2.735082 6.101323 -1.014978
v -2.794690 6.139603 -0.754963
v -3.977517 6.432567 -0.891510
v -3.917910 6.394286 -1.151524
v -4.309604 5.929309 -1.113233
v -4.369211 5.967589 -0.853218
v -4.460207 5.471574 -1.057059
v -4.519815 5.509854 -0.797045
v -4.428284 6.005139 -0.582983
v -4.400599 5.433294 -1.317074
v -4.249996 5.891028 -1.373247
v -3.533153 5.241961 -0.950039
v -3.473545 5.203680 -1.210054
v -3.056024 5.618821 -0.968518
v -2.996416 5.580541 -1.228533
v -2.675474 6.063043 -1.274992
v -2.952724 5.546203 -1.490385
v -2.635557 6.029639 -1.537280
v -2.673906 6.149302 -1.558077
v -2.719620 6.206055 -1.299714
v -3.600960 6.378916 -1.665097
v -3.646675 6.435668 -1.406734
v -3.858302 6.356006 -1.411539
v -3.779004 6.312849 -1.669280
v -4.174473 5.848806 -1.631425
v -4.048780 5.794158 -1.883810
v -3.633149 6.253207 -1.919339
v -4.204760 5.458608 -1.846215
v -4.327109 5.413471 -1.578739
v -3.400055 5.183857 -1.471719
v -3.277706 5.228994 -1.739195
v -2.959200 5.524290 -1.758028
v -3.008307 5.523767 -1.907680
v -3.935361 5.753380 -2.014699
v -2.675981 6.012914 -1.845399
v -3.603036 6.242527 -1.952420
v -3.597816 6.265565 -1.918396
v -2.670761 6.035952 -1.811376
v -2.662196 6.012721 -1.807251
v -2.218958 5.225074 -0.250746
v -2.110821 5.243497 -0.899998
v -2.067402 5.762753 -0.899998
v -2.153902 4.724241 0.300000
v -2.153902 4.724240 -0.299999
v -2.153902 4.204984 0.299999
v -2.153902 4.204984 -0.299999
v -2.153902 3.685727 0.300000
v -2.153902 3.685727 -0.299999
v -2.115815 3.166471 0.300000
v -2.115814 3.166471 -0.299999
v -2.034732 2.956795 0.299999
v -2.034732 2.956795 -0.299999
v -2.067402 3.166471 -0.899998
v -2.067402 3.166471 0.899998
v -1.823385 2.647214 0.299999
v -1.823385 2.647214 -0.299999
v -2.110821 3.685727 -0.899998
v -2.110821 4.204984 -0.899998
v -2.110821 4.724240 -0.899998
v -1.582570 3.166471 1.523737
v -1.582570 3.685727 1.610848
v -0.678244 2.597744 1.499997
v -0.678244 2.268450 0.899998
v -0.678244 2.647214 1.562223
v -0.678244 2.236985 0.299999
v -0.678244 2.236985 -0.299999
v -0.678244 2.268450 -0.899998
v -0.678244 2.597744 -1.499997
v -1.053943 2.647214 -1.499997
v -1.130407 2.673604 -1.499997
v -0.678244 2.647214 -1.562223
v -0.678244 3.166471 -2.037206
v -1.130407 3.166471 -1.914503
v -1.582570 3.166471 -1.523737
v -1.130407 3.685727 -2.037386
v -1.582569 3.685727 -1.610848
v -1.130407 4.204984 -2.037386
v -1.582569 4.204984 -1.610848
v -1.130407 4.724240 -2.037386
v -1.582569 4.724241 -1.610848
v -1.130407 5.243497 -2.037386
v -1.582569 5.243497 -1.610848
v -1.130407 5.762754 -1.914503
v -1.582569 5.762754 -1.523736
v -1.130407 6.255620 -1.499997
v -1.003732 5.243497 -2.099996
v -0.678244 5.617282 -2.099996
v -0.678244 5.762753 -2.037206
v -0.678244 5.243497 -2.152194
v -0.678244 4.724240 -2.152194
v -1.003732 4.724240 -2.099996
v -0.678244 4.204984 -2.152194
v -1.003732 4.204984 -2.099996
v -0.678244 3.685728 -2.152194
v -1.003732 3.685727 -2.099996
v -0.678244 3.311943 -2.099996
v -1.130407 6.282010 -1.472477
v -1.130407 6.631892 -0.899998
v -1.053943 6.282010 -1.499997
v -0.678244 6.331481 -1.499997
v -0.678244 6.660774 -0.899998
v -0.678244 6.282010 -1.562223
v -1.130407 6.663046 -0.299999
v -0.715797 6.638971 -0.373900
v -1.130407 6.663046 0.299999
v -0.634496 6.775857 0.213465
v -1.130407 6.631892 0.899998
v -0.678244 6.660774 0.899998
v -1.053943 6.282010 1.499997
v -1.130407 6.282010 1.472477
v -0.314735 6.878530 0.175309
v -0.184133 6.874127 0.172365
v -0.394079 6.737476 -0.411088
v -0.659465 7.215151 0.068224
v -0.693953 6.980241 -0.479202
v -0.765065 7.168649 -0.576856
v -0.741127 7.425720 -0.037728
v -0.765647 7.619770 -0.824028
v -0.749769 7.893874 -0.290201
v -0.749432 8.073767 -1.074643
v -0.736345 8.353642 -0.543968
v -0.625206 8.750950 -0.754397
v -0.638292 8.471075 -1.285071
v -0.653863 8.003259 -1.206326
v -0.634291 8.421831 -0.412660
v -0.583620 8.531189 -1.317216
v -0.570533 8.811063 -0.786541
v -0.167801 8.918453 -0.846432
v -0.180887 8.638578 -1.377107
v -0.187539 8.458409 -1.447087
v 0.264519 8.453104 -1.447944
v 0.271170 8.633272 -1.377964
v -0.204150 7.947807 -1.302264
v 0.247909 7.942501 -1.303121
v 0.702312 7.987342 -1.208897
v 0.717883 8.455158 -1.287643
v 0.666968 8.516512 -1.319587
v 0.730969 8.735031 -0.756968
v 0.680055 8.796385 -0.788912
v 0.284258 8.913147 -0.847289
v 0.283974 8.869165 -0.659041
v -0.168084 8.874470 -0.658184
v -0.179888 8.466671 -0.318436
v 0.272170 8.461366 -0.319294
v -0.192653 8.005144 -0.067945
v 0.259184 8.000162 -0.070377
v -0.198208 7.522057 0.178164
v 0.253218 7.517709 0.173091
v 0.708796 7.945049 -0.165175
v 0.699363 7.461652 0.057514
v 0.803731 7.875870 -0.297354
v 0.774976 7.408886 -0.051677
v 0.788441 7.600511 -0.830898
v 0.751481 7.150913 -0.590158
v 0.817452 8.335405 -0.546914
v 0.804366 8.055531 -1.077589
v 0.686253 7.532516 -0.963164
v -0.656430 7.477561 0.068372
v -0.647080 7.960640 -0.159321
v -0.689341 7.115625 -0.686197
v -0.670485 7.550001 -0.957164
v -0.219516 7.491365 -1.057636
v -1.130407 6.255620 1.499997
v -1.130407 5.762754 1.914503
v 0.226081 4.204984 2.152194
v 0.226081 4.724241 2.152194
v 0.548189 6.467941 -1.018265
v 0.678244 6.331481 -1.499997
v 0.678244 6.282010 -1.562223
v 1.053942 6.282010 -1.499997
v 0.678244 5.762753 -2.037206
v 1.130407 5.762754 -1.914503
v 0.678244 5.617282 -2.099996
v 1.003732 5.243497 -2.099996
v 1.130407 5.243497 -2.037386
v 1.130407 4.724240 -2.037386
v 1.003732 4.724240 -2.099996
v 1.130407 4.204984 -2.037386
v 1.003731 4.204984 -2.099996
v 1.130406 3.685728 -2.037386
v 1.003732 3.685727 -2.099996
v 0.678244 3.311943 -2.099996
v 0.678244 3.166471 -2.037206
v 0.678244 3.685727 -2.152194
v 0.678244 4.204984 -2.152194
v 0.678244 4.724241 -2.152194
v 0.678244 5.243497 -2.152193
v 0.678244 2.647214 -1.562223
v 0.678244 2.597744 -1.499997
v 1.053942 2.647214 -1.499997
v 0.678244 2.268450 -0.899998
v 0.678244 2.236985 0.299999
v 0.678244 2.236985 -0.299999
v 0.678244 2.268450 0.899998
v 0.678244 2.597744 1.499997
v 0.678244 2.647214 1.562223
v 1.053942 2.647214 1.499997
v 1.681839 5.243497 1.499997
v 1.681839 4.724240 1.499997
v 1.681839 4.204984 1.499997
v 2.034732 4.204984 1.046490
v 2.034732 4.724240 1.046490
v 2.034732 3.685727 1.046490
v 1.681839 3.685727 1.499997
v 2.034732 3.166471 0.957779
v 1.604984 3.166471 1.499997
v 2.110821 3.685727 0.899998
v 2.067401 3.166471 0.899998
v 2.034732 3.076428 0.899998
v 2.110820 4.204984 0.899998
v 1.765596 2.647214 0.899998
v 1.823385 2.647214 0.299999
v 1.823385 2.647214 -0.299999
v 1.765596 2.647214 -0.899999
v 3.480787 5.409040 -0.230560
v 3.126862 5.808093 -0.358195
v 3.837955 6.089231 -1.247183
v 2.944830 5.688263 -0.521449
v 3.327986 5.298548 -0.382629
v 0.721884 8.405915 -0.415232
v 0.232842 7.485324 -1.059332
v -4.050224 6.470447 -0.591810
v -3.115632 5.657102 -0.708504
v -3.592760 5.280241 -0.690024
vn -0.5295 0.8414 -0.1079
vn -0.8647 0.3242 0.3836
vn -0.8851 0.3040 0.3523
vn -0.5332 0.8317 -0.1549
vn -0.7643 -0.2099 0.6098
vn -0.7737 -0.2318 0.5896
vn -0.3097 -0.7274 0.6124
vn -0.3096 -0.7371 0.6006
vn 0.7198 -0.6935 -0.0310
vn 0.7177 -0.6956 -0.0315
vn 0.8631 0.0072 -0.5050
vn 0.8602 0.0008 -0.5100
vn 0.8478 -0.0105 -0.5302
vn 0.6989 -0.7131 -0.0552
vn 0.6455 0.4344 -0.6282
vn 0.6364 0.4152 -0.6501
vn 0.1440 0.8222 -0.5507
vn 0.1308 0.8072 -0.5757
vn -0.5458 0.8153 -0.1936
vn -0.5883 0.7408 -0.3242
vn 0.0920 0.7336 -0.6733
vn -0.9038 0.2854 0.3189
vn -0.9592 0.2115 0.1874
vn -0.7876 -0.2436 0.5660
vn -0.8390 -0.2855 0.4632
vn -0.3125 -0.7639 0.5646
vn -0.3483 -0.8360 0.4241
vn 0.6283 -0.7598 -0.1671
vn 0.4378 -0.7794 -0.4482
vn -0.4947 -0.8690 -0.0069
vn 0.7944 -0.0432 -0.6059
vn 0.6698 -0.1045 -0.7352
vn 0.5880 0.3517 -0.7284
vn 0.4946 0.2612 -0.8289
vn 0.0530 0.6009 -0.7975
vn 0.0622 0.1569 -0.9857
vn -0.6197 0.6108 -0.4928
vn -0.8179 0.0110 -0.5753
vn 0.1957 -0.4278 -0.8824
vn -0.6987 -0.5764 -0.4238
vn -0.9942 0.1056 -0.0223
vn -0.8962 -0.3744 0.2380
vn 0.7921 -0.6101 0.0173
vn 0.9193 0.0872 -0.3838
vn 0.8422 -0.3400 0.4185
vn 0.9416 0.2902 0.1708
vn 0.7584 0.6499 0.0493
vn 0.7117 0.4998 -0.4937
vn 0.3312 0.9330 -0.1407
vn 0.2109 0.8381 -0.5031
vn -0.1704 0.8900 -0.4228
vn -0.5102 0.8569 -0.0740
vn -0.0491 0.9947 -0.0905
vn -0.8039 0.3781 0.4591
vn 0.1493 0.8244 -0.5459
vn 0.1376 0.9718 0.1916
vn -0.0505 0.7517 -0.6576
vn -0.0457 0.9567 0.2873
vn -0.2482 0.7862 -0.5660
vn -0.2101 0.1056 -0.9720
vn 0.2458 0.0565 -0.9677
vn -0.1448 -0.3022 -0.9422
vn 0.5494 -0.0230 -0.8353
vn 0.0039 -0.9153 -0.4028
vn 0.5997 -0.6730 -0.4328
vn 0.2023 -0.6408 0.7406
vn 0.3854 -0.5396 0.7485
vn 0.2248 0.1936 0.9550
vn 0.4674 0.3015 0.8311
vn 0.1775 0.5566 0.8116
vn 0.4449 0.6355 0.6310
vn 0.3937 0.2920 0.8716
vn 0.1850 0.6546 0.7330
vn -0.0883 0.9596 0.2671
vn 0.1412 0.9897 0.0242
vn 0.3370 0.8082 0.4830
vn 0.1960 0.7392 -0.6443
vn -0.2513 0.7964 -0.5501
vn 0.5078 0.7334 -0.4520
vn -0.0728 0.4345 -0.8977
vn 0.7872 0.4185 -0.4531
vn 0.8863 0.1790 -0.4272
vn 0.5741 -0.0232 -0.8185
vn 0.4057 -0.8378 -0.3655
vn 0.9338 -0.0204 -0.3572
vn 0.8297 -0.5368 -0.1532
vn 0.8384 0.0472 -0.5430
vn 0.8123 0.2170 -0.5414
vn 0.8431 -0.0000 -0.5378
vn 0.9632 -0.0047 -0.2686
vn 0.9643 -0.0000 -0.2646
vn 0.8384 -0.0472 -0.5430
vn 0.9632 -0.0393 -0.2657
vn 0.8123 -0.2170 -0.5414
vn 0.9420 -0.2046 -0.2659
vn 0.8518 -0.4237 -0.3081
vn 0.8853 -0.4631 -0.0424
vn 0.9756 -0.2164 -0.0374
vn 0.8853 -0.4631 0.0424
vn 0.9756 -0.2164 0.0374
vn 0.9986 -0.0378 0.0368
vn 0.9986 -0.0378 -0.0368
vn 0.9994 -0.0000 0.0358
vn 0.9994 -0.0000 -0.0358
vn 0.9864 -0.1602 0.0371
vn 0.9925 -0.0730 -0.0977
vn 0.8009 -0.5091 0.3152
vn 0.9386 -0.0803 0.3356
vn 0.8651 -0.1012 0.4914
vn 0.4479 -0.6069 0.6566
vn 0.7846 0.1377 0.6045
vn 0.8384 0.0472 0.5430
vn 0.8123 0.2170 0.5414
vn 0.6976 0.4148 0.5841
vn 0.6274 0.4605 0.6280
vn 0.5499 0.6218 0.5576
vn 0.6788 0.5794 0.4511
vn 0.7418 0.2346 0.6283
vn 0.4432 0.8413 0.3094
vn 0.2437 0.9264 0.2870
vn 0.3097 0.7357 0.6023
vn 0.2532 0.9671 -0.0258
vn 0.3410 0.9391 -0.0425
vn 0.1907 0.9771 -0.0942
vn 0.4604 0.8839 -0.0823
vn 0.1117 0.9625 -0.2473
vn 0.5426 0.8122 -0.2143
vn 0.2794 0.7601 -0.5867
vn 0.5499 0.6218 -0.5576
vn 0.3768 0.6015 -0.7044
vn 0.6274 0.4605 -0.6280
vn 0.7418 0.2346 -0.6283
vn 0.7957 0.5704 -0.2036
vn 0.6660 0.2921 -0.6864
vn 0.7096 0.0651 -0.7016
vn 0.7659 0.0552 -0.6406
vn 0.7165 -0.0000 -0.6975
vn 0.7678 -0.0000 -0.6407
vn 0.7096 -0.0651 -0.7016
vn 0.7659 -0.0552 -0.6406
vn 0.6660 -0.2921 -0.6864
vn 0.7418 -0.2346 -0.6283
vn 0.6274 -0.4605 -0.6280
vn 0.3602 -0.6041 -0.7109
vn 0.4386 -0.4090 -0.8002
vn 0.3037 -0.7307 -0.6114
vn 0.5499 -0.6218 -0.5576
vn 0.2235 -0.9342 -0.2782
vn 0.5001 -0.8250 -0.2632
vn 0.2233 -0.9743 -0.0285
vn 0.5159 -0.8561 -0.0308
vn 0.2233 -0.9743 0.0285
vn 0.5159 -0.8561 0.0308
vn 0.2265 -0.9346 0.2741
vn 0.5001 -0.8250 0.2632
vn 0.3175 -0.7261 0.6099
vn 0.5499 -0.6218 0.5576
vn 0.3671 -0.6008 0.7101
vn 0.6274 -0.4605 0.6280
vn 0.4418 -0.4124 0.7967
vn 0.6660 -0.2921 0.6864
vn 0.5425 -0.0998 0.8341
vn 0.7096 -0.0651 0.7016
vn 0.5752 -0.0000 0.8180
vn 0.7165 -0.0000 0.6975
vn 0.5467 0.1145 0.8295
vn 0.7096 0.0651 0.7016
vn 0.4456 0.4022 0.7998
vn 0.6660 0.2921 0.6864
vn 0.3656 0.6090 0.7038
vn 0.1213 0.5045 0.8548
vn 0.0613 0.7273 0.6836
vn 0.1411 0.8176 0.5582
vn 0.0483 0.8307 0.5546
vn -0.0000 0.5460 0.8378
vn -0.0000 0.7318 0.6816
vn -0.0000 0.2709 0.9626
vn 0.1355 0.2548 0.9574
vn 0.0793 0.0690 0.9945
vn -0.0000 0.0694 0.9976
vn 0.3350 0.1563 0.9292
vn 0.0796 -0.0000 0.9968
vn 0.3069 -0.0000 0.9517
vn 0.0793 -0.0690 0.9945
vn 0.2988 -0.1096 0.9480
vn 0.1277 -0.2754 0.9528
vn -0.0000 -0.2709 0.9626
vn -0.0000 -0.0694 0.9976
vn 0.1053 -0.5349 0.8383
vn -0.0000 -0.5460 0.8378
vn -0.0000 -0.7318 0.6816
vn -0.0000 -0.8333 0.5529
vn -0.0000 -0.9630 0.2696
vn -0.0000 -0.9997 0.0262
vn -0.0000 -0.9997 -0.0262
vn -0.0000 -0.9630 -0.2696
vn -0.0000 -0.8333 -0.5529
vn -0.0000 -0.7318 -0.6816
vn -0.0000 -0.5460 -0.8378
vn -0.0000 -0.2709 -0.9626
vn -0.0000 -0.0694 -0.9976
vn -0.0000 -0.0000 -1.0000
vn -0.0000 0.0694 -0.9976
vn -0.0000 0.2709 -0.9626
vn -0.0000 0.5460 -0.8378
vn -0.0000 0.7318 -0.6816
vn 0.0378 0.8820 -0.4697
vn -0.0012 0.8928 -0.4505
vn 0.0796 0.9433 -0.3223
vn 0.0183 0.9435 -0.3308
vn 0.1012 0.1760 -0.9792
vn -0.1181 0.2229 -0.9677
vn 0.1066 -0.6425 -0.7588
vn -0.1466 -0.6335 -0.7597
vn 0.6038 0.3304 -0.7254
vn 0.7142 -0.6767 -0.1790
vn 0.5556 -0.5610 -0.6136
vn 0.7462 -0.3533 0.5642
vn 0.4905 0.6744 0.5518
vn 0.2134 0.9757 -0.0502
vn 0.1377 0.9660 -0.2188
vn 0.0265 0.9309 0.3644
vn 0.1410 0.6366 0.7582
vn 0.0546 0.9504 0.3062
vn -0.0000 0.8333 0.5529
vn 0.0030 0.9247 0.3808
vn -0.0459 0.8308 0.5546
vn -0.0613 0.7273 0.6836
vn -0.1213 0.5045 0.8548
vn -0.1355 0.2549 0.9574
vn -0.0793 0.0690 0.9945
vn -0.0796 -0.0000 0.9968
vn -0.0000 -0.0000 1.0000
vn -0.0793 -0.0690 0.9945
vn -0.1277 -0.2754 0.9528
vn -0.2988 -0.1096 0.9480
vn -0.4418 -0.4124 0.7967
vn -0.5425 -0.0998 0.8341
vn -0.1053 -0.5349 0.8383
vn -0.5752 -0.0000 0.8180
vn -0.3069 -0.0000 0.9517
vn -0.5467 0.1145 0.8295
vn -0.3350 0.1563 0.9292
vn -0.7165 -0.0000 0.6975
vn -0.7678 -0.0000 0.6407
vn -0.7659 0.0552 0.6406
vn -0.7096 0.0651 0.7016
vn -0.7418 0.2346 0.6283
vn -0.6660 0.2921 0.6864
vn -0.6274 0.4605 0.6280
vn -0.6996 0.4175 0.5798
vn -0.6541 0.6503 0.3864
vn -0.5499 0.6218 0.5576
vn -0.8123 0.2170 0.5414
vn -0.4431 0.8488 0.2885
vn -0.2443 0.9559 0.1627
vn -0.4247 0.9050 0.0244
vn -0.4005 0.7336 0.5490
vn -0.3268 0.8994 -0.2905
vn -0.4788 0.8756 -0.0640
vn -0.5258 0.7295 -0.4375
vn -0.7347 0.6155 -0.2851
vn -0.5055 0.8228 -0.2597
vn -0.7474 0.5285 -0.4026
vn -0.8123 0.2170 -0.5414
vn -0.7418 0.2346 -0.6283
vn -0.6274 0.4605 -0.6280
vn -0.5499 0.6218 -0.5576
vn -0.8384 0.0472 -0.5430
vn -0.7659 0.0552 -0.6406
vn -0.8431 -0.0000 -0.5378
vn -0.7678 -0.0000 -0.6407
vn -0.8384 -0.0472 -0.5430
vn -0.7659 -0.0552 -0.6406
vn -0.8123 -0.2170 -0.5414
vn -0.7418 -0.2346 -0.6283
vn -0.8518 -0.4237 -0.3081
vn -0.7316 -0.6148 -0.2946
vn -0.5499 -0.6218 -0.5576
vn -0.6274 -0.4605 -0.6280
vn -0.5001 -0.8250 -0.2632
vn -0.2277 -0.9342 -0.2746
vn -0.3340 -0.7202 -0.6080
vn -0.5159 -0.8561 -0.0308
vn -0.2233 -0.9743 -0.0285
vn -0.5159 -0.8561 0.0308
vn -0.2233 -0.9743 0.0285
vn -0.5001 -0.8250 0.2632
vn -0.2265 -0.9346 0.2741
vn -0.5499 -0.6218 0.5576
vn -0.3175 -0.7261 0.6099
vn -0.6274 -0.4605 0.6280
vn -0.3671 -0.6008 0.7101
vn -0.1469 -0.6810 0.7174
vn -0.8518 -0.4237 0.3081
vn -0.8123 -0.2170 0.5414
vn -0.7418 -0.2346 0.6283
vn -0.7316 -0.6148 0.2946
vn -0.8384 -0.0472 0.5430
vn -0.7659 -0.0552 0.6406
vn -0.8431 -0.0000 0.5378
vn -0.9632 -0.0393 0.2657
vn -0.9643 -0.0000 0.2646
vn -0.9467 -0.0598 0.3165
vn -0.8815 -0.0762 0.4661
vn -0.8384 0.0472 0.5430
vn -0.7873 0.1688 0.5931
vn -0.4171 -0.7144 0.5619
vn -0.3640 0.1979 0.9101
vn -0.7005 -0.7096 0.0762
vn -0.1189 0.5613 0.8190
vn -0.1106 0.0474 0.9927
vn -0.0635 0.4163 0.9070
vn 0.0913 0.9224 0.3752
vn 0.1161 0.9229 0.3670
vn 0.1534 0.8422 -0.5169
vn 0.1847 0.8470 -0.4985
vn 0.0741 0.2450 -0.9667
vn 0.1641 0.2658 -0.9500
vn 0.0456 -0.1563 -0.9867
vn -0.4065 0.1136 -0.9065
vn -0.0185 -0.8691 -0.4943
vn -0.4612 -0.7494 -0.4750
vn -0.1081 -0.7248 0.6804
vn -0.2903 -0.6188 0.7299
vn -0.5033 -0.6971 -0.5106
vn -0.3277 0.1392 0.9345
vn -0.7979 -0.3937 0.4565
vn -0.8085 0.4007 0.4311
vn -0.6108 0.7076 0.3553
vn -0.3095 0.4976 0.8103
vn -0.1974 0.9670 0.1611
vn -0.0476 0.9476 0.3160
vn -0.2199 0.9474 0.2325
vn -0.1774 0.9268 -0.3311
vn 0.0922 0.2119 0.9729
vn -0.8069 0.2083 -0.5527
vn -0.2636 -0.6492 0.7135
vn -0.6527 0.1540 -0.7418
vn -0.0964 -0.9754 0.1983
vn 0.1952 -0.9498 0.2446
vn 0.7159 -0.5634 0.4122
vn -0.9228 -0.3851 0.0081
vn 0.8894 -0.0405 0.4553
vn -0.1004 0.9876 -0.1210
vn 0.6570 0.7202 0.2228
vn -0.0458 0.9879 -0.1481
vn 0.6993 0.7029 0.1297
vn -0.0479 0.9866 -0.1562
vn 0.6977 0.7143 0.0548
vn 0.9663 -0.1013 0.2364
vn 0.9490 -0.0836 0.3038
vn -0.5709 0.7841 -0.2433
vn -0.5688 0.7848 -0.2459
vn -0.8558 0.4462 -0.2619
vn -0.8586 0.4455 -0.2539
vn -0.8787 -0.4582 -0.1340
vn -0.8836 -0.4502 -0.1291
vn -0.8875 0.4501 -0.0984
vn -0.8670 -0.4686 -0.1694
vn -0.8500 0.4423 -0.2860
vn 0.2067 -0.9600 0.1887
vn 0.2013 -0.9675 0.1530
vn 0.7216 -0.6417 0.2599
vn 0.7285 -0.6434 0.2353
vn 0.9742 -0.1063 0.1990
vn 0.7529 -0.6457 0.1273
vn 0.9913 -0.1228 0.0480
vn 0.7193 0.6790 -0.1472
vn 0.7040 0.7101 0.0124
vn -0.0124 0.9511 -0.3087
vn -0.0377 0.9819 -0.1855
vn -0.5677 0.7768 -0.2727
vn -0.5462 0.7476 -0.3778
vn -0.8169 0.4337 -0.3802
vn -0.7217 0.3998 -0.5650
vn -0.4827 0.6963 -0.5311
vn -0.6580 -0.4017 -0.6369
vn -0.8173 -0.4807 -0.3177
vn 0.2095 -0.9778 0.0069
vn 0.3093 -0.8677 -0.3891
vn 0.7637 -0.6382 -0.0974
vn 0.5102 -0.4867 -0.7091
vn -0.3395 0.0426 -0.9396
vn 0.7305 0.1073 -0.6744
vn -0.0942 0.5533 -0.8276
vn -0.0023 0.8763 -0.4818
vn 0.7031 0.6088 -0.3675
vn 0.9736 -0.1338 -0.1848
vn -0.8981 -0.3842 -0.2139
vn -0.9197 -0.0809 -0.3841
vn -0.8511 0.2554 -0.4587
vn -0.9904 -0.1295 0.0483
vn -0.9933 -0.0806 -0.0834
vn -0.9994 -0.0000 0.0358
vn -0.9994 -0.0000 -0.0358
vn -0.9986 -0.0378 0.0368
vn -0.9986 -0.0378 -0.0368
vn -0.9756 -0.2164 0.0374
vn -0.9756 -0.2164 -0.0374
vn -0.8853 -0.4631 0.0424
vn -0.8853 -0.4631 -0.0424
vn -0.9420 -0.2046 -0.2659
vn -0.9420 -0.2046 0.2659
vn -0.7491 -0.6613 0.0399
vn -0.7491 -0.6613 -0.0399
vn -0.9632 -0.0393 -0.2657
vn -0.9643 -0.0000 -0.2646
vn -0.9607 -0.0151 -0.2773
vn -0.6660 -0.2921 0.6864
vn -0.7096 -0.0651 0.7016
vn -0.0492 -0.8300 0.5556
vn -0.0307 -0.9629 0.2682
vn -0.0691 -0.7237 0.6867
vn -0.0321 -0.9991 0.0261
vn -0.0321 -0.9991 -0.0261
vn -0.0372 -0.9616 -0.2721
vn -0.0459 -0.8308 -0.5546
vn -0.1402 -0.7660 -0.6274
vn -0.3656 -0.6090 -0.7038
vn -0.0613 -0.7273 -0.6836
vn -0.1178 -0.5114 -0.8512
vn -0.4489 -0.4056 -0.7962
vn -0.6660 -0.2921 -0.6864
vn -0.5651 -0.0899 -0.8201
vn -0.7096 -0.0651 -0.7016
vn -0.5752 -0.0000 -0.8180
vn -0.7165 -0.0000 -0.6975
vn -0.5456 0.1134 -0.8303
vn -0.7096 0.0651 -0.7016
vn -0.4299 0.4028 -0.8081
vn -0.6660 0.2921 -0.6864
vn -0.3671 0.6008 -0.7101
vn -0.3351 0.1565 -0.9291
vn -0.1814 0.2950 -0.9381
vn -0.1330 0.5157 -0.8464
vn -0.0793 0.0690 -0.9945
vn -0.0796 -0.0000 -0.9968
vn -0.3069 -0.0000 -0.9517
vn -0.0793 -0.0690 -0.9945
vn -0.3126 -0.1102 -0.9435
vn -0.1270 -0.2629 -0.9564
vn -0.3175 0.7261 -0.6099
vn -0.2122 0.9409 -0.2639
vn -0.1469 0.6810 -0.7174
vn -0.0018 0.8480 -0.5300
vn 0.0479 0.9632 -0.2643
vn -0.0691 0.7237 -0.6867
vn -0.2243 0.9734 -0.0464
vn -0.0853 0.9875 -0.1323
vn -0.2544 0.9669 0.0203
vn -0.1991 0.9800 0.0033
vn -0.2459 0.9256 0.2877
vn -0.0782 0.9402 0.3316
vn -0.1402 0.7660 0.6274
vn -0.3340 0.7202 0.6080
vn -0.3867 0.7439 0.5451
vn -0.0612 0.6674 0.7422
vn -0.5084 -0.3899 -0.7678
vn -0.7289 -0.3037 0.6135
vn -0.7473 -0.6549 -0.1125
vn -0.9581 -0.2506 -0.1391
vn -0.9444 -0.0034 0.3288
vn -0.9681 -0.1102 -0.2249
vn -0.9540 0.1495 0.2599
vn -0.9608 -0.0063 -0.2771
vn -0.9490 0.2495 0.1926
vn -0.7790 0.5901 0.2120
vn -0.8098 0.1726 -0.5607
vn -0.6012 -0.2622 -0.7548
vn -0.5624 0.5131 0.6484
vn -0.5534 0.4318 -0.7122
vn -0.5293 0.8415 0.1082
vn -0.1276 0.9836 -0.1272
vn -0.1366 0.6827 -0.7178
vn -0.1373 0.0509 -0.9892
vn 0.1513 0.0289 -0.9881
vn 0.1508 0.6761 -0.7212
vn -0.1376 -0.3592 -0.9231
vn 0.1245 -0.3669 -0.9219
vn 0.5764 -0.2903 -0.7639
vn 0.8026 0.1411 -0.5796
vn 0.5440 0.4097 -0.7323
vn 0.8118 0.5464 0.2059
vn 0.5653 0.8186 0.1016
vn 0.1541 0.9795 -0.1296
vn 0.1599 0.8417 0.5157
vn -0.1343 0.8469 0.5146
vn -0.1213 0.5715 0.8116
vn 0.1395 0.5644 0.8136
vn -0.1104 0.4613 0.8804
vn 0.1296 0.4539 0.8816
vn -0.1099 0.2283 0.9674
vn 0.1404 0.2196 0.9654
vn 0.6081 0.3478 0.7136
vn 0.5964 0.1602 0.7865
vn 0.9670 0.0823 0.2413
vn 0.9537 -0.0690 0.2926
vn 0.9538 -0.1817 -0.2394
vn 0.9316 -0.3238 -0.1654
vn 0.9652 0.1867 0.1833
vn 0.9557 -0.0706 -0.2859
vn 0.5846 -0.4194 -0.6945
vn -0.5659 0.1964 0.8007
vn -0.5813 0.3840 0.7173
vn -0.5890 -0.5544 -0.5880
vn -0.6112 -0.3790 -0.6948
vn -0.1325 -0.4862 -0.8637
vn -0.3656 0.6090 0.7038
vn -0.4456 0.4022 0.7998
vn 0.0137 0.9577 -0.2873
vn 0.0631 0.8957 -0.4401
vn 0.0563 0.7292 -0.6820
vn 0.1593 0.8376 -0.5225
vn 0.1059 0.5335 -0.8391
vn 0.4500 0.4045 -0.7962
vn 0.1277 0.2754 -0.9528
vn 0.2988 0.1096 -0.9480
vn 0.5425 0.0998 -0.8341
vn 0.5752 -0.0000 -0.8180
vn 0.3069 -0.0000 -0.9517
vn 0.5467 -0.1145 -0.8295
vn 0.3350 -0.1563 -0.9292
vn 0.1355 -0.2549 -0.9574
vn 0.1268 -0.5097 -0.8510
vn 0.0793 -0.0690 -0.9945
vn 0.0796 -0.0000 -0.9968
vn 0.0793 0.0690 -0.9945
vn 0.0681 -0.7237 -0.6867
vn 0.0547 -0.8330 -0.5505
vn 0.1230 -0.7587 -0.6397
vn 0.0390 -0.9613 -0.2728
vn 0.0321 -0.9991 0.0261
vn 0.0321 -0.9991 -0.0261
vn 0.0307 -0.9629 0.2682
vn 0.0492 -0.8300 0.5556
vn 0.0691 -0.7237 0.6867
vn 0.1469 -0.6810 0.7174
vn 0.7659 0.0552 0.6406
vn 0.7678 -0.0000 0.6407
vn 0.8431 -0.0000 0.5378
vn 0.8384 -0.0472 0.5430
vn 0.7659 -0.0552 0.6406
vn 0.8123 -0.2170 0.5414
vn 0.7418 -0.2346 0.6283
vn 0.9632 -0.0393 0.2657
vn 0.9420 -0.2046 0.2659
vn 0.8518 -0.4237 0.3081
vn 0.9643 -0.0000 0.2646
vn 0.7316 -0.6148 0.2946
vn 0.7491 -0.6613 0.0399
vn 0.7491 -0.6613 -0.0399
vn 0.7316 -0.6148 -0.2946
vn 0.1382 -0.9012 0.4109
vn 0.4812 0.4555 0.7490
vn 0.6512 0.4410 -0.6176
vn -0.7155 -0.1310 0.6862
vn -0.2731 -0.6893 0.6711
vn 0.5897 0.4806 0.6491
vn 0.1129 -0.4928 -0.8628
vn -0.6168 0.7751 -0.1367
vn 0.7222 -0.6266 0.2928
vn 0.2128 -0.9573 0.1958
s 1
f 68//38 67//37 66//36 65//35
f 66//36 67//37 70//40 69//39
f 69//39 70//40 72//42 71//41
f 71//41 72//42 74//44 73//43
f 74//44 76//46 75//45 73//43
f 78//48 77//47 76//46 74//44
f 77//47 80//50 79//49 76//46
f 79//49 80//50 82//52 81//51
f 82//52 83//53 68//38 81//51
f 85//55 84//54 83//53 82//52
f 84//54 87//57 86//56 83//53
f 86//56 87//57 89//59 88//58
f 88//58 89//59 91//61 90//60
f 90//60 91//61 92//62 78//48
f 91//61 94//64 93//63 92//62
f 93//63 96//66 95//65 92//62
f 96//66 98//68 97//67 95//65
f 97//67 98//68 99//69 85//55
f 98//68 100//70 99//69
f 100//70 102//72 101//71 99//69
f 104//74 102//72 100//70 103//73
f 102//72 105//75 101//71
f 103//73 100//70 98//68 96//66
f 103//73 96//66 93//63
f 94//64 104//74 103//73 93//63
f 106//76 104//74 94//64
f 89//59 106//76 94//64 91//61
f 87//57 105//75 106//76 89//59
f 101//71 105//75 87//57 84//54
f 99//69 101//71 84//54 85//55
f 80//50 97//67 85//55 82//52
f 95//65 97//67 80//50 77//47
f 92//62 95//65 77//47 78//48
f 73//43 75//45 108//78 107//77
f 107//77 108//78 110//80 109//79
f 108//78 112//82 111//81 110//80
f 111//81 112//82 114//84 113//83
f 114//84 116//86 115//85 113//83
f 116//86 118//88 117//87 115//85
f 119//89 65//35 116//86 114//84
f 113//83 115//85 121//91 120//90
f 120//90 121//91 123//93 122//92
f 121//91 125//95 124//94 123//93
f 124//94 125//95 127//97 126//96
f 126//96 127//97 129//99 128//98
f 128//98 129//99 131//101 130//100
f 131//101 133//103 132//102 130//100
f 133//103 135//105 134//104 132//102
f 132//102 134//104 137//107 136//106
f 137//107 134//104 122//92 138//108
f 140//110 137//107 138//108 139//109
f 138//108 142//112 141//111 139//109
f 142//112 144//114 143//113 141//111
f 144//114 147//117 146//116 145//115
f 143//113 144//114 145//115
f 149//119 146//116 147//117 148//118
f 150//120 149//119 148//118
f 152//122 146//116 149//119 151//121
f 151//121 149//119 154//124 153//123
f 153//123 154//124 156//125 155//123
f 155//123 156//125 158//127 157//126
f 157//126 158//127 160//129 159//128
f 159//128 160//129 161//130
f 161//130 160//129 163//132 162//131
f 162//131 163//132 165//134 164//133
f 163//132 167//136 166//135 165//134
f 167//136 169//138 168//137 166//135
f 169//138 171//140 170//139 168//137
f 171//140 150//120 172//141 170//139
f 170//139 172//141 174//143 173//142
f 176//145 174//143 172//141 175//144
f 136//106 176//145 175//144
f 174//143 176//145 178//147 177//146
f 178//147 176//145 179//148
f 179//148 182//151 181//150 180//149
f 183//152 178//147 179//148 180//149
f 181//150 182//151 184//153
f 186//155 181//150 184//153 185//154
f 184//153 188//157 187//156 185//154
f 188//157 190//159 189//158 187//156
f 190//159 192//161 191//160 189//158
f 192//161 194//163 193//162 191//160
f 193//162 194//163 196//165 195//164
f 145//115 152//122 197//166 196//165
f 194//163 198//167 145//115 196//165
f 197//166 199//168 196//165
f 199//168 197//166 201//170 200//169
f 200//169 201//170 203//172 202//171
f 202//171 203//172 205//172 204//171
f 204//171 205//172 207//174 206//173
f 206//173 207//174 209//176 208//175
f 208//175 209//176 210//177
f 212//179 208//175 210//177 211//178
f 210//177 214//181 213//180 211//178
f 213//180 214//181 216//183 215//182
f 215//182 216//183 218//185 217//184
f 217//184 218//185 220//187 219//186
f 219//186 220//187 222//189 221//188
f 222//189 224//191 223//190 221//188
f 223//190 224//191 226//193 225//192
f 226//193 228//195 227//194 225//192
f 228//195 230//197 229//196 227//194
f 230//197 232//199 231//198 229//196
f 232//199 234//199 233//198 231//198
f 234//199 236//201 235//200 233//198
f 236//201 238//203 237//202 235//200
f 237//202 238//203 180//149 239//204
f 239//204 242//207 241//206 240//205
f 237//202 239//204 240//205
f 241//206 242//207 243//208
f 186//155 242//207 239//204
f 240//205 241//206 245//210 244//209
f 247//212 240//205 244//209 246//211
f 249//214 248//213 247//212 246//211
f 248//213 250//215 247//212
f 252//217 250//215 248//213 251//216
f 254//217 252//217 251//216 253//216
f 256//219 254//217 253//216 255//218
f 256//219 255//218 257//220
f 257//220 255//218 259//222 258//221
f 261//224 260//223 257//220 258//221
f 263//224 261//224 258//221 262//221
f 265//225 261//224 263//224 264//225
f 267//226 265//225 264//225 266//226
f 269//227 268//227 267//226 266//226
f 271//228 270//228 268//227 269//227
f 273//229 272//229 270//228 271//228
f 275//230 274//230 272//229 273//229
f 277//231 276//231 274//230 275//230
f 279//232 278//232 276//231 277//231
f 281//233 280//233 278//232 279//232
f 283//234 280//233 281//233 282//234
f 285//235 284//235 283//234 282//234
f 287//236 286//236 284//235 285//235
f 289//236 288//236 286//236 287//236
f 291//237 290//237 288//236 289//236
f 293//238 290//237 291//237 292//238
f 295//239 294//239 293//238 292//238
f 297//240 296//240 294//239 295//239
f 299//242 296//240 297//240 298//241
f 301//244 299//242 298//241 300//243
f 303//246 302//245 301//244 300//243
f 305//248 304//247 302//245 303//246
f 308//251 307//250 306//249 302//245
f 304//247 308//251 302//245
f 310//253 306//249 307//250 309//252
f 312//255 306//249 310//253 311//254
f 311//254 310//253 314//257 313//256
f 315//258 311//254 313//256
f 243//208 315//258 313//256 316//259
f 316//259 313//256 318//260 317//259
f 319//210 245//210 316//259 317//259
f 321//262 319//210 317//259 320//261
f 323//209 319//210 321//262 322//263
f 325//211 323//209 322//263 324//264
f 327//265 326//214 325//211 324//264
f 329//267 326//214 327//265 328//266
f 331//267 329//267 328//266 330//266
f 333//222 331//267 330//266 332//268
f 262//221 333//222 332//268 334//269
f 332//268 335//270 334//269
f 334//269 335//270 337//272 336//271
f 338//273 334//269 336//271
f 335//270 340//275 339//274 337//272
f 340//275 342//275 341//274 339//274
f 342//275 344//277 343//276 341//274
f 339//274 341//274 346//278 345//278
f 346//278 348//279 347//279 345//278
f 350//281 349//280 348//279 346//278
f 352//283 351//282 349//280 350//281
f 351//282 352//283 353//284
f 353//284 356//287 355//286 354//285
f 357//288 351//282 353//284 354//285
f 355//286 356//287 358//289
f 355//286 358//289 360//291 359//290
f 361//292 355//286 359//290
f 360//291 363//294 362//293 359//290
f 366//297 365//296 364//295 362//293
f 363//294 366//297 362//293
f 364//295 365//296 367//298
f 370//301 369//300 368//299 367//298
f 365//296 371//302 370//301 367//298
f 368//299 369//300 373//304 372//303
f 372//303 373//304 375//306 374//305
f 374//305 375//306 377//306 376//305
f 376//305 377//306 379//308 378//307
f 378//307 379//308 381//310 380//309
f 385//314 384//313 383//312 382//311
f 380//309 381//310 385//314 382//311
f 383//312 384//313 386//315
f 384//313 388//317 387//316 386//315
f 386//315 387//316 390//319 389//318
f 389//318 390//319 392//321 391//320
f 391//320 392//321 394//323 393//322
f 394//323 396//325 395//324 393//322
f 395//324 396//325 398//327 397//326
f 396//325 399//328 398//327
f 397//326 402//331 401//330 400//329
f 403//332 395//324 397//326 400//329
f 402//331 405//334 404//333 401//330
f 405//334 347//279 406//335 404//333
f 406//335 408//337 407//336 404//333
f 410//335 409//338 408//337 406//335
f 412//340 411//339 409//338 410//335
f 357//288 413//341 411//339 412//340
f 411//339 413//341 415//343 414//342
f 416//344 411//339 414//342
f 354//285 361//292 417//345 415//343
f 413//341 354//285 415//343
f 415//343 417//345 419//347 418//346
f 419//347 417//345 421//349 420//348
f 421//349 423//351 422//350 420//348
f 423//351 425//353 424//352 422//350
f 424//352 425//353 427//355 426//354
f 426//354 427//355 429//357 428//356
f 428//356 429//357 414//342 430//358
f 432//360 428//356 430//358 431//359
f 430//358 418//346 433//361 431//359
f 431//359 433//361 435//363 434//362
f 433//361 437//365 436//364 435//363
f 436//364 437//365 439//367 438//366
f 439//367 441//369 440//368 438//366
f 441//369 443//371 442//370 440//368
f 442//370 443//371 445//373 444//372
f 444//372 445//373 432//360 446//374
f 448//376 444//372 446//374 447//375
f 447//375 446//374 434//362 449//377
f 450//378 442//370 444//372 448//376
f 438//366 440//368 452//380 451//379
f 451//379 452//380 454//382 453//381
f 453//381 454//382 456//384 455//383
f 454//382 458//386 457//385 456//384
f 460//388 459//387 453//381 455//383
f 462//390 459//387 460//388 461//389
f 464//392 462//390 461//389 463//391
f 449//377 465//393 462//390 464//392
f 463//391 461//389 467//395 466//394
f 469//397 468//396 463//391 466//394
f 471//399 470//398 468//396 469//397
f 472//400 457//385 470//398 471//399
f 474//402 472//400 471//399 473//401
f 476//404 472//400 474//402 475//403
f 478//406 476//404 475//403 477//405
f 480//408 479//407 478//406 477//405
f 467//395 479//407 480//408 481//409
f 481//409 480//408 483//411 482//410
f 485//413 481//409 482//410 484//412
f 487//415 486//414 485//413 484//412
f 488//416 473//401 486//414 487//415
f 489//417 488//416 487//415
f 490//418 489//417 487//415 484//412
f 492//420 491//419 489//417 490//418
f 494//422 491//419 492//420 493//421
f 495//423 491//419 494//422
f 492//420 483//411 493//421
f 482//410 490//418 484//412
f 483//411 492//420 490//418 482//410
f 483//411 480//408 477//405 493//421
f 477//405 475//403 494//422 493//421
f 475//403 474//402 495//423 494//422
f 495//423 474//402 473//401 488//416
f 473//401 471//399 469//397 486//414
f 486//414 469//397 466//394 485//413
f 466//394 467//395 481//409 485//413
f 455//383 456//384 476//404 478//406
f 434//362 435//363 465//393 449//377
f 446//374 432//360 431//359 434//362
f 498//426 497//425 496//424 429//357
f 427//355 498//426 429//357
f 445//373 426//354 428//356 432//360
f 443//371 424//352 426//354 445//373
f 422//350 424//352 443//371 441//369
f 420//348 422//350 441//369 439//367
f 437//365 419//347 420//348 439//367
f 418//346 419//347 437//365 433//361
f 429//357 496//424 416//344 414//342
f 416//344 496//424 500//428 499//427
f 499//427 500//428 502//430 501//429
f 501//429 502//430 504//432 503//431
f 503//431 504//432 506//434 505//433
f 505//433 506//434 508//436 507//435
f 506//434 509//437 382//311 508//436
f 510//438 505//433 507//435 400//329
f 508//436 512//440 511//439 507//435
f 504//432 513//441 509//437 506//434
f 407//336 503//431 505//433 510//438
f 502//430 514//442 513//441 504//432
f 500//428 515//443 514//442 502//430
f 414//342 415//343 418//346 430//358
f 411//339 416//344 499//427 409//338
f 409//338 499//427 501//429 408//337
f 408//337 501//429 503//431 407//336
f 517//445 405//334 402//331 516//444
f 404//333 407//336 510//438 401//330
f 507//435 511//439 403//332 400//329
f 516//444 402//331 397//326
f 401//330 510//438 400//329
f 518//446 399//328 396//325 394//323
f 519//447 518//446 394//323
f 520//448 399//328 518//446
f 395//324 403//332 393//322
f 392//321 521//449 519//447 394//323
f 403//332 511//439 391//320 393//322
f 390//319 522//450 521//449 392//321
f 511//439 512//440 389//318 391//320
f 387//316 523//451 522//450 390//319
f 525//453 524//452 523//451 387//316
f 388//317 525//453 387//316
f 525//453 388//317 526//454
f 528//456 527//455 525//453 526//454
f 529//457 528//456 526//454
f 530//458 529//457 526//454 385//314
f 532//460 531//459 529//457 530//458
f 534//462 533//461 531//459 532//460
f 536//462 535//461 533//461 534//462
f 538//464 537//463 535//461 536//462
f 540//466 539//465 537//463 538//464
f 541//467 539//465 540//466 370//301
f 544//470 543//469 542//468 537//463
f 539//465 544//470 537//463
f 545//471 542//468 543//469
f 547//473 542//468 545//471 546//472
f 549//473 547//473 546//472 548//472
f 551//475 549//473 548//472 550//474
f 551//475 550//474 552//476
f 535//461 547//473 549//473 533//461
f 533//461 549//473 551//475 531//459
f 525//453 527//455 524//452
f 381//310 530//458 385//314
f 382//311 383//312 512//440 508//436
f 526//454 388//317 384//313 385//314
f 509//437 380//309 382//311
f 381//310 379//308 532//460 530//458
f 509//437 513//441 378//307 380//309
f 379//308 377//306 534//462 532//460
f 513//441 514//442 376//305 378//307
f 377//306 375//306 536//462 534//462
f 514//442 515//443 374//305 376//305
f 375//306 373//304 538//464 536//462
f 515//443 497//425 372//303 374//305
f 373//304 369//300 540//466 538//464
f 497//425 498//426 368//299 372//303
f 540//466 369//300 370//301
f 371//302 553//477 541//467 370//301
f 554//478 553//477 371//302 366//297
f 556//480 555//479 553//477 554//478
f 557//481 556//480 554//478
f 558//482 555//479 556//480
f 560//484 557//481 554//478 559//483
f 562//486 560//484 559//483 561//485
f 564//488 562//486 561//485 563//487
f 565//489 320//261 564//488 563//487
f 566//490 565//489 563//487
f 568//492 567//491 562//486 564//488
f 318//260 568//492 564//488
f 567//491 569//493 560//484 562//486
f 571//495 569//493 567//491 570//494
f 573//497 572//496 571//495 570//494
f 575//499 574//498 572//496 573//497
f 577//501 576//500 574//498 575//499
f 579//503 576//500 577//501 578//502
f 580//504 576//500 579//503
f 577//501 581//505 578//502
f 583//507 582//506 579//503 578//502
f 585//509 582//506 583//507 584//508
f 586//510 582//506 585//509
f 588//512 587//511 586//510 585//509
f 586//510 587//511 590//514 589//513
f 593//517 592//516 591//515 590//514
f 587//511 593//517 590//514
f 592//516 593//517 595//519 594//518
f 595//519 593//517 588//512 596//520
f 597//521 595//519 596//520
f 598//522 597//521 596//520 584//508
f 600//524 597//521 598//522 599//523
f 602//526 600//524 599//523 601//525
f 604//528 602//526 601//525 603//527
f 314//257 604//528 603//527 568//492
f 606//530 605//529 602//526 604//528
f 608//532 607//531 605//529 606//530
f 610//534 609//533 607//531 608//532
f 609//533 612//536 611//535 607//531
f 613//537 609//533 610//534 308//251
f 603//527 601//525 615//539 614//538
f 611//535 612//536 592//516 594//518
f 583//507 598//522 584//508
f 596//520 588//512 585//509 584//508
f 581//505 577//501 575//499 615//539
f 572//496 574//498 617//541 616//540
f 617//541 618//542 305//248 616//540
f 580//504 589//513 618//542 617//541
f 615//539 575//499 573//497 614//538
f 572//496 616//540 571//495
f 614//538 573//497 570//494
f 553//477 555//479 541//467
f 368//299 498//426 367//298
f 364//295 367//298 498//426 427//355
f 425//353 364//295 427//355
f 371//302 365//296 366//297
f 362//293 364//295 425//353 423//351
f 561//485 559//483 363//294 360//291
f 359//290 362//293 423//351 421//349
f 563//487 561//485 360//291 358//289
f 417//345 361//292 359//290 421//349
f 356//287 566//490 563//487 358//289
f 355//286 361//292 354//285
f 619//543 566//490 356//287 353//284
f 413//341 357//288 354//285
f 352//283 620//544 619//543 353//284
f 349//280 351//282 357//288 412//340
f 343//276 620//544 352//283 350//281
f 348//279 349//280 412//340 410//335
f 345//278 347//279 405//334 517//445
f 347//279 348//279 410//335 406//335
f 337//272 339//274 345//278 517//445
f 520//448 338//273 336//271 398//327
f 399//328 520//448 398//327
f 336//271 337//272 517//445 516//444
f 259//222 621//267 331//267 333//222
f 330//266 340//275 335//270 332//268
f 621//267 622//267 329//267 331//267
f 328//266 342//275 340//275 330//266
f 622//267 249//214 326//214 329//267
f 327//265 344//277 342//275 328//266
f 344//277 327//265 324//264
f 324//264 322//263 620//544 343//276
f 344//277 324//264 343//276
f 322//263 321//262 565//489 619//543
f 620//544 322//263 619//543
f 565//489 321//262 320//261
f 317//259 318//260 564//488 320//261
f 313//256 314//257 568//492 318//260
f 307//250 610//534 608//532 309//252
f 306//249 312//255 623//545 301//244
f 302//245 306//249 301//244
f 303//246 300//243 557//481 560//484
f 569//493 303//246 560//484
f 623//545 624//546 299//242 301//244
f 300//243 298//241 556//480 557//481
f 624//546 625//547 296//240 299//242
f 626//548 625//547 624//546
f 626//548 195//164 628//550 627//549
f 625//547 626//548 627//549
f 628//550 631//553 630//552 629//551
f 627//549 628//550 629//551
f 633//555 630//552 631//553 632//554
f 635//555 633//555 632//554 634//554
f 637//557 635//555 634//554 636//556
f 636//556 212//179 639//559 638//558
f 637//557 636//556 638//558
f 640//560 637//557 638//558
f 641//561 635//555 637//557 640//560
f 642//561 633//555 635//555 641//561
f 643//562 630//552 633//555 642//561
f 630//552 643//562 629//551
f 298//241 297//240 558//482 556//480
f 558//482 297//240 295//239 544//470
f 294//239 627//549 629//551 293//238
f 544//470 295//239 292//238 543//469
f 629//551 643//562 290//237 293//238
f 292//238 291//237 545//471 543//469
f 545//471 291//237 289//236 546//472
f 288//236 642//561 641//561 286//236
f 546//472 289//236 287//236 548//472
f 286//236 641//561 640//560 284//235
f 548//472 287//236 285//235 550//474
f 284//235 640//560 638//558 283//234
f 550//474 285//235 282//234 552//476
f 282//234 281//233 528//456 552//476
f 280//233 639//559 644//563 278//232
f 528//456 281//233 279//232 527//455
f 278//232 644//563 645//564 276//231
f 644//563 646//565 645//564
f 527//455 279//232 277//231 524//452
f 276//231 645//564 647//566 274//230
f 524//452 277//231 275//230 523//451
f 523//451 275//230 273//229 522//450
f 272//229 649//568 648//567 270//228
f 522//450 273//229 271//228 521//449
f 270//228 648//567 650//569 268//227
f 521//449 271//228 269//227 519//447
f 268//227 650//569 651//570 267//226
f 519//447 269//227 266//226 518//446
f 651//570 652//571 265//225 267//226
f 653//572 652//571 651//570
f 266//226 264//225 520//448 518//446
f 264//225 263//224 338//273 520//448
f 338//273 263//224 262//221 334//269
f 258//221 259//222 333//222 262//221
f 255//218 253//216 621//267 259//222
f 253//216 251//216 622//267 621//267
f 326//214 249//214 246//211 325//211
f 246//211 244//209 323//209 325//211
f 244//209 245//210 319//210 323//209
f 654//573 183//152 238//203 236//201
f 235//200 237//202 240//205 247//212
f 250//215 235//200 247//212
f 235//200 250//215 252//217 233//198
f 656//574 655//574 234//199 232//199
f 658//575 655//574 656//574 657//575
f 177//146 654//573 655//574 658//575
f 657//575 656//574 660//577 659//576
f 659//576 660//577 662//579 661//578
f 664//581 663//580 659//576 661//578
f 664//581 661//578 665//582
f 663//580 666//583 657//575 659//576
f 666//583 173//142 658//575 657//575
f 233//198 252//217 254//217 231//198
f 660//577 656//574 232//199 230//197
f 231//198 254//217 256//219 229//196
f 662//579 660//577 230//197 228//195
f 227//194 229//196 256//219 257//220
f 260//223 227//194 257//220
f 225//192 227//194 260//223 652//571
f 653//572 225//192 652//571
f 665//582 661//578 662//579 226//193
f 224//191 667//584 665//582 226//193
f 667//584 668//585 164//133 665//582
f 653//572 223//190 225//192
f 667//584 224//191 222//189
f 221//188 223//190 653//572 651//570
f 650//569 221//188 651//570
f 220//187 668//585 667//584 222//189
f 648//567 219//186 221//188 650//569
f 218//185 669//586 668//585 220//187
f 649//568 217//184 219//186 648//567
f 216//183 670//587 669//586 218//185
f 647//566 215//182 217//184 649//568
f 214//181 670//587 216//183
f 646//565 213//180 215//182 647//566
f 645//564 646//565 647//566
f 213//180 646//565 211//178
f 212//179 211//178 646//565 644//563
f 639//559 212//179 644//563
f 634//554 204//171 206//173 636//556
f 632//554 202//171 204//171 634//554
f 628//550 199//168 200//169 631//553
f 626//548 193//162 195//164
f 198//167 194//163 192//161
f 193//162 626//548 624//546 623//545
f 191//160 193//162 623//545
f 189//158 191//160 623//545 312//255
f 187//156 189//158 312//255 311//254
f 185//154 187//156 311//254 315//258
f 186//155 185//154 315//258 243//208
f 242//207 186//155 243//208
f 140//110 182//151 179//148
f 238//203 183//152 180//149
f 178//147 183//152 654//573 177//146
f 173//142 174//143 177//146 658//575
f 168//137 170//139 173//142 666//583
f 166//135 168//137 666//583 663//580
f 165//134 166//135 663//580 664//581
f 164//133 165//134 664//581 665//582
f 668//585 669//586 162//131 164//133
f 161//130 670//587 214//181 210//177
f 209//176 159//128 161//130 210//177
f 160//129 158//127 167//136 163//132
f 209//176 207//174 157//126 159//128
f 158//127 156//125 169//138 167//136
f 207//174 205//172 155//123 157//126
f 156//125 154//124 171//140 169//138
f 205//172 203//172 153//123 155//123
f 203//172 201//170 151//121 153//123
f 201//170 197//166 152//122 151//121
f 172//141 150//120 148//118 175//144
f 146//116 152//122 145//115
f 198//167 143//113 145//115
f 139//109 141//111 190//159 188//157
f 140//110 139//109 188//157 184//153
f 182//151 140//110 184//153
f 136//106 137//107 140//110 179//148
f 176//145 136//106 179//148
f 130//100 132//102 136//106 175//144
f 129//99 671//588 109//79 131//101
f 148//118 128//98 130//100 175//144
f 127//97 672//589 671//588 129//99
f 147//117 126//96 128//98 148//118
f 125//95 117//87 672//589 127//97
f 144//114 124//94 126//96 147//117
f 123//93 124//94 144//114 142//112
f 134//104 135//105 120//90 122//92
f 122//92 123//93 142//112 138//108
f 109//79 110//80 133//103 131//101
f 72//42 90//60 78//48 74//44
f 70//40 88//58 90//60 72//42
f 67//37 86//56 88//58 70//40
f 81//51 68//38 65//35 119//89
f 83//53 86//56 67//37 68//38
f 105//75 102//72 104//74 106//76
f 673//590 79//49 81//51 119//89
f 76//46 79//49 673//590 75//45
f 118//88 66//36 69//39 674//591
f 65//35 66//36 118//88 116//86
f 674//591 69//39 71//41 675//592
f 112//82 673//590 119//89 114//84
f 75//45 673//590 112//82 108//78
f 675//592 71//41 73//43 107//77
f 117//87 118//88 674//591 672//589
f 115//85 117//87 125//95 121//91
f 672//589 674//591 675//592 671//588
f 135//105 111//81 113//83 120//90
f 110//80 111//81 135//105 133//103
f 671//588 675//592 107//77 109//79
f 612//536 591//515 592//516
f 591//515 612//536 609//533 613//537
f 308//251 610//534 307//250
f 676//593 611//535 594//518
f 607//531 611//535 676//593 605//529
f 608//532 606//530 309//252
f 590//514 591//515 613//537 677//594
f 677//594 613//537 308//251 304//247
f 593//517 587//511 588//512
f 594//518 595//519 597//521 600//524
f 676//593 594//518 600//524
f 605//529 676//593 600//524 602//526
f 309//252 606//530 604//528 314//257
f 310//253 309//252 314//257
f 589//513 590//514 677//594 618//542
f 618//542 677//594 304//247 305//248
f 586//510 589//513 580//504 579//503
f 582//506 586//510 579//503
f 574//498 576//500 580//504 617//541
f 305//248 303//246 569//493 571//495
f 616//540 305//248 571//495
f 599//523 598//522 583//507 578//502
f 581//505 599//523 578//502
f 601//525 599//523 581//505 615//539
f 568//492 603//527 614//538 570//494
f 567//491 568//492 570//494
f 196//165 199//168 628//550 195//164
f 631//553 200//169 202//171 632//554
f 636//556 206//173 208//175 212//179
f 143//113 198//167 192//161 190//159
f 141//111 143//113 190//159
f 154//124 149//119 150//120 171//140
f 669//586 670//587 161//130 162//131
f 180//149 181//150 186//155 239//204
f 655//574 654//573 236//201 234//199
f 662//579 228//195 226//193
f 296//240 625//547 627//549 294//239
f 290//237 643//562 642//561 288//236
f 638//558 639//559 280//233 283//234
f 274//230 647//566 649//568 272//229
f 245//210 241//206 243//208 316//259
f 251//216 248//213 249//214 622//267
f 652//571 260//223 261//224 265//225
f 558//482 544//470 539//465 541//467
f 555//479 558//482 541//467
f 537//463 542//468 547//473 535//461
f 551//475 552//476 528//456 529//457
f 531//459 551//475 529//457
f 559//483 554//478 366//297 363//294
f 496//424 497//425 515//443 500//428
f 512//440 383//312 386//315 389//318
f 565//489 566//490 619//543
f 341//274 343//276 350//281 346//278
f 398//327 336//271 516//444 397//326
f 440//368 442//370 450//378 452//380
f 678//595 436//364 438//366 451//379
f 435//363 436//364 678//595 465//393
f 458//386 450//378 448//376 679//596
f 452//380 450//378 458//386 454//382
f 679//596 448//376 447//375 680//597
f 459//387 678//595 451//379 453//381
f 465//393 678//595 459//387 462//390
f 680//597 447//375 449//377 464//392
f 457//385 458//386 679//596 470//398
f 456//384 457//385 472//400 476//404
f 489//417 491//419 495//423 488//416
f 470//398 679//596 680//597 468//396
f 479//407 460//388 455//383 478//406
f 461//389 460//388 479//407 467//395
f 468//396 680//597 464//392 463//391
