# Blender 5.0.0
# www.blender.org
mtllib thrower_reset0066.mtl
o Cylinder
v 0.000000 3.270831 -0.249686
v 0.000000 3.270831 0.249686
v -2.306558 5.845598 -0.993120
v 0.318839 3.239539 0.249686
v 0.625427 3.146865 -0.249686
v 0.625427 3.146865 0.249686
v 0.907978 2.996371 -0.249686
v 0.907978 2.996371 0.249686
v 1.155637 2.793840 -0.249686
v 1.155637 2.793840 0.249686
v 1.358886 2.547055 -0.249686
v 1.358886 2.547055 0.249686
v 1.509913 2.265501 -0.249686
v 1.509913 2.265501 0.249686
v 1.602915 1.959997 -0.249686
v 1.602915 1.959997 0.249686
v 1.634318 1.642283 -0.249686
v 1.634318 1.642283 0.249686
v 1.602915 1.324569 -0.249686
v 1.602915 1.324569 0.249686
v 1.509913 1.019064 -0.249686
v 1.509913 1.019064 0.249686
v 1.358886 0.737510 -0.249686
v 1.358886 0.737510 0.249686
v 1.155637 0.490726 -0.249686
v 1.155637 0.490726 0.249686
v 0.907979 0.288195 -0.249686
v 0.907978 0.288195 0.249686
v 0.625426 0.137701 -0.249686
v 0.625427 0.137701 0.249686
v 0.318840 0.045027 -0.249686
v 0.318840 0.045027 0.249686
v 0.000000 0.013735 -0.249686
v 0.000000 0.013735 0.249686
v -0.318839 0.045027 -0.249686
v -0.318839 0.045027 0.249686
v -0.625426 0.137701 -0.249686
v -0.625426 0.137701 0.249686
v -0.907978 0.288194 -0.249686
v -0.907978 0.288194 0.249686
v -1.155637 0.490725 -0.249686
v -1.155637 0.490725 0.249686
v -1.358885 0.737510 -0.249686
v -1.358885 0.737510 0.249686
v -1.509912 1.019064 -0.249686
v -1.509912 1.019064 0.249686
v -1.602914 1.324569 -0.249686
v -1.602915 1.324569 0.249686
v -1.634318 1.642283 -0.249686
v -1.634318 1.642283 0.249686
v -1.602915 1.959997 -0.249686
v -1.602915 1.959997 0.249686
v -1.509912 2.265501 -0.249686
v -1.509912 2.265501 0.249686
v -1.358885 2.547055 -0.249686
v -1.358885 2.547055 0.249686
v -1.155637 2.793840 -0.249686
v -1.155637 2.793840 0.249686
v -0.907978 2.996371 -0.249686
v -0.990409 2.997431 0.150225
v -0.625426 3.146865 -0.249686
v -0.625426 3.146865 0.249686
v -0.318839 3.239539 -0.249686
v -0.318839 3.239539 0.249686
vn -0.7608 -0.4610 0.4568
vn 0.6046 0.7627 0.2297
vn 0.4701 0.8826 -0.0000
vn 0.6331 0.7741 -0.0000
vn 0.7719 0.6357 -0.0000
vn 0.8812 0.4727 -0.0000
vn 0.9567 0.2912 -0.0000
vn 0.9952 0.0984 -0.0000
vn 0.9952 -0.0984 -0.0000
vn 0.9567 -0.2912 -0.0000
vn 0.8812 -0.4727 -0.0000
vn 0.7719 -0.6357 -0.0000
vn 0.6331 -0.7741 -0.0000
vn 0.4701 -0.8826 -0.0000
vn 0.2893 -0.9572 -0.0000
vn 0.0977 -0.9952 -0.0000
vn -0.0977 -0.9952 -0.0000
vn -0.2893 -0.9572 -0.0000
vn -0.4701 -0.8826 -0.0000
vn -0.6331 -0.7741 -0.0000
vn -0.7719 -0.6357 -0.0000
vn -0.8812 -0.4727 -0.0000
vn -0.9567 -0.2912 -0.0000
vn -0.9952 -0.0984 -0.0000
vn -0.9952 0.0984 -0.0000
vn -0.9567 0.2912 -0.0000
vn -0.8812 0.4727 -0.0000
vn -0.7719 0.6357 -0.0000
vn -0.7077 0.7034 -0.0657
vn -0.4150 0.9090 -0.0391
vn -0.0021 0.0032 1.0000
vn -0.2893 0.9572 -0.0000
vn -0.0977 0.9952 -0.0000
vn -0.0051 -0.0259 -0.9997
vt 1.000000 0.500000
vt 1.000000 1.000000
vt 0.968750 1.000000
vt 0.968750 0.500000
vt 0.937500 1.000000
vt 0.937500 0.500000
vt 0.906250 1.000000
vt 0.906250 0.500000
vt 0.875000 1.000000
vt 0.875000 0.500000
vt 0.843750 1.000000
vt 0.843750 0.500000
vt 0.812500 1.000000
vt 0.812500 0.500000
vt 0.781250 1.000000
vt 0.781250 0.500000
vt 0.750000 1.000000
vt 0.750000 0.500000
vt 0.718750 1.000000
vt 0.718750 0.500000
vt 0.687500 1.000000
vt 0.687500 0.500000
vt 0.656250 1.000000
vt 0.656250 0.500000
vt 0.625000 1.000000
vt 0.625000 0.500000
vt 0.593750 1.000000
vt 0.593750 0.500000
vt 0.562500 1.000000
vt 0.562500 0.500000
vt 0.531250 1.000000
vt 0.531250 0.500000
vt 0.500000 1.000000
vt 0.500000 0.500000
vt 0.468750 1.000000
vt 0.468750 0.500000
vt 0.437500 1.000000
vt 0.437500 0.500000
vt 0.406250 1.000000
vt 0.406250 0.500000
vt 0.375000 1.000000
vt 0.375000 0.500000
vt 0.343750 1.000000
vt 0.343750 0.500000
vt 0.312500 1.000000
vt 0.312500 0.500000
vt 0.281250 1.000000
vt 0.281250 0.500000
vt 0.250000 1.000000
vt 0.250000 0.500000
vt 0.218750 1.000000
vt 0.218750 0.500000
vt 0.187500 1.000000
vt 0.187500 0.500000
vt 0.156250 1.000000
vt 0.156250 0.500000
vt 0.125000 1.000000
vt 0.125000 0.500000
vt 0.093750 1.000000
vt 0.093750 0.500000
vt 0.062500 1.000000
vt 0.062500 0.500000
vt 0.296822 0.485388
vt 0.250000 0.490000
vt 0.203178 0.485388
vt 0.158156 0.471731
vt 0.116663 0.449553
vt 0.080294 0.419706
vt 0.050447 0.383337
vt 0.028269 0.341844
vt 0.014612 0.296822
vt 0.010000 0.250000
vt 0.014612 0.203178
vt 0.028269 0.158156
vt 0.050447 0.116663
vt 0.080294 0.080294
vt 0.116663 0.050447
vt 0.158156 0.028269
vt 0.203178 0.014612
vt 0.250000 0.010000
vt 0.296822 0.014612
vt 0.341844 0.028269
vt 0.383337 0.050447
vt 0.419706 0.080294
vt 0.449553 0.116663
vt 0.471731 0.158156
vt 0.485388 0.203178
vt 0.490000 0.250000
vt 0.485388 0.296822
vt 0.471731 0.341844
vt 0.449553 0.383337
vt 0.419706 0.419706
vt 0.383337 0.449553
vt 0.341844 0.471731
vt 0.031250 1.000000
vt 0.031250 0.500000
vt 0.000000 1.000000
vt 0.000000 0.500000
vt 0.750000 0.490000
vt 0.796822 0.485388
vt 0.841844 0.471731
vt 0.883337 0.449553
vt 0.919706 0.419706
vt 0.949553 0.383337
vt 0.971731 0.341844
vt 0.985388 0.296822
vt 0.990000 0.250000
vt 0.985388 0.203178
vt 0.971731 0.158156
vt 0.949553 0.116663
vt 0.919706 0.080294
vt 0.883337 0.050447
vt 0.841844 0.028269
vt 0.796822 0.014612
vt 0.750000 0.010000
vt 0.703178 0.014612
vt 0.658156 0.028269
vt 0.616663 0.050447
vt 0.580294 0.080294
vt 0.550447 0.116663
vt 0.528269 0.158156
vt 0.514612 0.203178
vt 0.510000 0.250000
vt 0.514612 0.296822
vt 0.528269 0.341844
vt 0.550447 0.383337
vt 0.580294 0.419706
vt 0.616663 0.449553
vt 0.658156 0.471731
vt 0.703178 0.485388
s 0
f 1/1/1 2/2/1 4/3/1 3/4/1
f 3/4/2 4/3/2 6/5/2 5/6/2
f 5/6/3 6/5/3 8/7/3 7/8/3
f 7/8/4 8/7/4 10/9/4 9/10/4
f 9/10/5 10/9/5 12/11/5 11/12/5
f 11/12/6 12/11/6 14/13/6 13/14/6
f 13/14/7 14/13/7 16/15/7 15/16/7
f 15/16/8 16/15/8 18/17/8 17/18/8
f 17/18/9 18/17/9 20/19/9 19/20/9
f 19/20/10 20/19/10 22/21/10 21/22/10
f 21/22/11 22/21/11 24/23/11 23/24/11
f 23/24/12 24/23/12 26/25/12 25/26/12
f 25/26/13 26/25/13 28/27/13 27/28/13
f 27/28/14 28/27/14 30/29/14 29/30/14
f 29/30/15 30/29/15 32/31/15 31/32/15
f 31/32/16 32/31/16 34/33/16 33/34/16
f 33/34/17 34/33/17 36/35/17 35/36/17
f 35/36/18 36/35/18 38/37/18 37/38/18
f 37/38/19 38/37/19 40/39/19 39/40/19
f 39/40/20 40/39/20 42/41/20 41/42/20
f 41/42/21 42/41/21 44/43/21 43/44/21
f 43/44/22 44/43/22 46/45/22 45/46/22
f 45/46/23 46/45/23 48/47/23 47/48/23
f 47/48/24 48/47/24 50/49/24 49/50/24
f 49/50/25 50/49/25 52/51/25 51/52/25
f 51/52/26 52/51/26 54/53/26 53/54/26
f 53/54/27 54/53/27 56/55/27 55/56/27
f 55/56/28 56/55/28 58/57/28 57/58/28
f 57/58/29 58/57/29 60/59/29 59/60/29
f 59/60/30 60/59/30 62/61/30 61/62/30
f 4/63/31 2/64/31 64/65/31 62/66/31 60/67/31 58/68/31 56/69/31 54/70/31 52/71/31 50/72/31 48/73/31 46/74/31 44/75/31 42/76/31 40/77/31 38/78/31 36/79/31 34/80/31 32/81/31 30/82/31 28/83/31 26/84/31 24/85/31 22/86/31 20/87/31 18/88/31 16/89/31 14/90/31 12/91/31 10/92/31 8/93/31 6/94/31
f 61/62/32 62/61/32 64/95/32 63/96/32
f 63/96/33 64/95/33 2/97/33 1/98/33
f 1/99/34 3/100/34 5/101/34 7/102/34 9/103/34 11/104/34 13/105/34 15/106/34 17/107/34 19/108/34 21/109/34 23/110/34 25/111/34 27/112/34 29/113/34 31/114/34 33/115/34 35/116/34 37/117/34 39/118/34 41/119/34 43/120/34 45/121/34 47/122/34 49/123/34 51/124/34 53/125/34 55/126/34 57/127/34 59/128/34 61/129/34 63/130/34
o Mball.006
v 3.926487 4.528789 0.334008
v 3.785360 4.466127 0.229214
v 3.915592 4.226140 0.311834
v 4.056719 4.288802 0.416627
v 3.001343 4.269478 0.086526
v 3.131575 4.029491 0.169145
v 2.240606 4.123000 0.076704
v 2.370839 3.883013 0.159323
v 1.906218 4.250505 0.629180
v 2.036450 4.010519 0.711800
v 2.549176 4.441893 0.833595
v 2.679409 4.201906 0.916214
v 2.809641 3.961919 0.998834
v 2.166682 3.770531 0.794420
v 3.488945 4.388824 1.016738
v 3.619177 4.148837 1.099358
v 3.722331 4.416306 0.969105
v 3.852563 4.176320 1.051724
v 4.186952 4.048815 0.499247
v 4.281487 3.800235 0.576418
v 3.947097 3.927740 1.128895
v 4.045825 3.986154 0.394454
v 4.167879 3.749285 0.490587
v 3.261808 3.789505 0.251765
v 3.385440 3.552034 0.345290
v 2.501071 3.643026 0.241943
v 2.667039 3.411640 0.330017
v 2.332650 3.539145 0.882494
v 2.614268 3.335597 0.988218
v 2.948657 3.208091 0.435741
v 2.946474 3.719416 1.070548
v 3.102261 3.469684 1.110947
v 3.757589 3.905731 1.168464
v 3.921375 3.652949 1.195649
v 3.942296 3.655252 1.190906
v 3.935311 3.633694 1.194436
v 4.276686 3.527746 0.638429
v 4.269701 3.506189 0.641959
v 3.190872 3.345466 1.106032
v 3.525262 3.217961 0.553555
v 4.264557 3.522091 0.628642
v 3.490118 3.321792 0.470131
v 1.776174 4.491320 0.547742
v 2.419491 4.681933 0.751053
v 1.648480 4.735077 0.470512
v 2.296225 4.922956 0.669942
v 3.113063 5.105830 0.764733
v 3.231844 4.867843 0.850152
v 3.346014 5.131968 0.715177
v 3.465179 4.894938 0.801965
v 3.665542 5.003083 0.160665
v 3.795628 4.767143 0.249058
v 3.521383 4.941411 0.057268
v 3.653815 4.704816 0.144737
v 3.592098 4.656294 0.886485
v 3.260373 5.363331 0.620462
v 3.541387 5.229813 0.059165
v 3.120987 5.597342 0.535004
v 3.390983 5.462732 -0.027903
v 3.260226 5.412642 -0.112989
v 3.388167 5.169975 -0.041656
v 2.450062 5.234944 -0.230204
v 2.579597 4.989525 -0.161354
v 1.714842 5.111478 -0.218790
v 1.812903 4.859018 -0.148423
v 1.447043 5.245918 0.343884
v 1.534538 4.992311 0.412566
v 2.098528 5.412912 0.513208
v 2.206854 5.170438 0.598201
v 2.926883 5.579006 0.582684
v 3.030308 5.340358 0.674545
v 1.984326 5.653354 0.423186
v 2.830471 5.811975 0.463156
v 2.898456 5.817532 0.443963
v 2.739830 6.052877 0.361754
v 2.715179 6.052392 0.373483
v 3.005556 5.917914 -0.201674
v 3.164181 5.682569 -0.119466
v 2.993892 5.910833 -0.217482
v 3.120231 5.664804 -0.151235
v 2.034732 5.852797 -0.899998
v 2.067401 5.762754 -0.899998
v 2.323446 5.481113 -0.295863
v 1.627573 5.362410 -0.292117
v 2.110820 5.243497 -0.899998
v 1.384908 5.490406 -0.362216
v 2.034732 5.243497 -1.046490
v 2.034732 5.762754 -0.957779
v 2.034732 4.724241 -1.046490
v 2.110820 4.724241 -0.899998
v 2.034732 4.204984 -1.046490
v 2.110820 4.204984 -0.899998
v 2.034732 3.685727 -1.046490
v 2.110820 3.685727 -0.899998
v 2.034732 3.166471 -0.957779
v 2.067402 3.166471 -0.899998
v 2.034732 3.076428 -0.899998
v 2.034732 2.956795 -0.299999
v 2.115814 3.166471 -0.299999
v 2.034732 2.956795 0.300000
v 2.115814 3.166471 0.299999
v 2.153902 3.685727 0.300000
v 2.153902 3.685727 -0.299999
v 2.153902 4.204984 0.299999
v 2.153902 4.204984 -0.299999
v 2.153902 4.724240 0.299999
v 2.153902 4.724240 -0.299999
v 1.119182 5.625369 0.201212
v 2.110820 4.724240 0.899998
v 2.110821 5.243497 0.899998
v 1.361848 5.497373 0.271312
v 2.067402 5.762754 0.899998
v 2.034732 5.243497 1.046490
v 2.034732 5.762754 0.957779
v 2.034732 5.852797 0.899998
v 1.582569 5.808151 1.499997
v 1.582570 6.282010 1.143507
v 1.765596 6.282010 0.899998
v 1.604984 5.762753 1.499997
v 1.582569 6.436028 0.899998
v 1.130407 6.631892 0.899998
v 1.130407 6.282010 1.472477
v 1.130407 6.663046 0.299999
v 1.582569 6.484239 0.300000
v 1.153290 6.667973 -0.279578
v 1.582569 6.484239 -0.299999
v 1.130407 6.631892 -0.899998
v 1.582569 6.436028 -0.899998
v 1.130407 6.282010 -1.472477
v 1.582569 6.282010 -1.143507
v 1.130407 6.255620 -1.499997
v 1.582569 5.808151 -1.499997
v 1.604984 5.762753 -1.499997
v 1.765596 6.282010 -0.899998
v 1.582569 5.762753 -1.523737
v 1.582569 5.243497 -1.610848
v 1.681839 5.243497 -1.499997
v 1.582569 4.724240 -1.610848
v 1.681839 4.724240 -1.499997
v 1.582569 4.204984 -1.610848
v 1.681839 4.204984 -1.499997
v 1.582569 3.685728 -1.610848
v 1.681839 3.685727 -1.499997
v 1.582569 3.166471 -1.523737
v 1.604985 3.166471 -1.499997
v 1.582569 3.121074 -1.499997
v 1.130407 2.673604 -1.499997
v 1.130407 3.166471 -1.914503
v 1.130407 2.647214 -1.472477
v 1.582569 2.647214 -1.143507
v 1.130406 2.297333 -0.899998
v 1.582569 2.493196 -0.899999
v 1.130407 2.266178 -0.299999
v 1.582569 2.445172 -0.299999
v 1.130407 2.266178 0.300000
v 1.582569 2.445172 0.299999
v 1.130407 2.297333 0.899998
v 1.582569 2.493196 0.899998
v 1.130407 2.647214 1.472477
v 1.582569 2.647214 1.143507
v 1.130407 2.673604 1.499997
v 1.582569 3.121074 1.499997
v 1.130407 3.166471 1.914503
v 1.582569 3.166471 1.523737
v 1.130407 3.685727 2.037386
v 1.582569 3.685727 1.610848
v 1.130407 4.204984 2.037386
v 1.582569 4.204984 1.610848
v 1.130407 4.724240 2.037386
v 1.582569 4.724240 1.610848
v 1.130407 5.243497 2.037386
v 1.582569 5.243497 1.610848
v 1.130407 5.762754 1.914503
v 1.582569 5.762753 1.523737
v 1.130407 6.255620 1.499997
v 0.678244 5.762753 2.037206
v 0.678244 6.282010 1.562223
v 1.053943 6.282010 1.499997
v 0.678244 6.331481 1.499997
v 0.226081 5.762754 2.037206
v 0.226081 6.282010 1.562223
v 0.226081 5.617282 2.099996
v 0.678244 5.617282 2.099996
v 0.678244 5.243497 2.152194
v 0.226082 5.243497 2.152194
v 1.003732 5.243497 2.099996
v 0.678244 4.724240 2.152194
v 1.003732 4.724240 2.099996
v 0.678244 4.204984 2.152194
v 1.003732 4.204984 2.099996
v 0.678244 3.685727 2.152194
v 1.003731 3.685728 2.099996
v 0.678244 3.311943 2.099996
v 0.226081 3.311943 2.099996
v 0.226081 3.685727 2.152194
v 0.678244 3.166471 2.037206
v 0.226081 3.166471 2.037206
v -0.226081 3.311943 2.099996
v -0.226082 3.166471 2.037206
v -0.226081 2.647214 1.562223
v 0.226081 2.647214 1.562223
v -0.226081 2.597744 1.499997
v 0.226081 2.597744 1.499997
v 0.226081 2.268450 0.899998
v -0.226082 2.268450 0.899998
v 0.226081 2.236985 0.299999
v -0.226082 2.236985 0.299999
v 0.226081 2.236985 -0.299999
v -0.226081 2.236985 -0.299999
v 0.226081 2.268450 -0.899998
v -0.226081 2.268450 -0.899998
v 0.226081 2.597744 -1.499997
v -0.226082 2.597744 -1.499997
v 0.226081 2.647214 -1.562223
v -0.226081 2.647214 -1.562223
v 0.226081 3.166471 -2.037206
v -0.226082 3.166471 -2.037206
v -0.226081 3.311943 -2.099996
v 0.226081 3.311943 -2.099996
v 0.226081 3.685727 -2.152194
v -0.226082 3.685727 -2.152194
v 0.226081 4.204984 -2.152194
v -0.226082 4.204984 -2.152194
v 0.226081 4.724240 -2.152194
v -0.226081 4.724240 -2.152194
v 0.226081 5.243497 -2.152194
v -0.226082 5.243497 -2.152194
v -0.226081 5.617282 -2.099996
v 0.226081 5.617282 -2.099996
v 0.226081 5.762753 -2.037206
v -0.226082 5.762753 -2.037206
v 0.226081 6.282010 -1.562223
v -0.226081 6.282010 -1.562223
v -0.226081 6.331481 -1.499997
v 0.226081 6.331481 -1.499997
v -0.206186 6.689188 -0.883977
v 0.245912 6.685176 -0.882937
v 0.245463 6.807208 -0.281817
v -0.206531 6.810821 -0.282851
v 0.254633 7.333341 -0.507098
v -0.197508 7.334529 -0.508226
v 0.374447 6.806125 -0.278471
v 0.703567 7.105247 -0.268695
v 0.705762 7.328795 -0.383441
v 0.699008 7.088336 0.331054
v 0.369981 6.787946 0.321257
v 0.690637 6.681626 0.318804
v 0.695058 6.699862 -0.280930
v 0.226081 6.660774 0.899998
v 0.240953 6.788749 0.323936
v 0.678244 6.660774 0.899998
v 0.226081 6.331481 1.499997
v -0.226081 6.331481 1.499997
v -0.226081 6.660774 0.899998
v -0.226081 6.282010 1.562223
v -0.678244 6.331481 1.499997
v -0.678244 6.282010 1.562223
v -0.678244 5.762754 2.037206
v -0.226082 5.762754 2.037206
v -0.678244 5.617282 2.099996
v -0.226081 5.617282 2.099996
v -0.226082 5.243497 2.152194
v -0.678244 5.243497 2.152194
v -0.678244 4.724240 2.152194
v -0.226082 4.724240 2.152194
v -0.678244 4.204984 2.152194
v -0.226081 4.204984 2.152194
v -0.678244 3.685727 2.152194
v -0.226081 3.685727 2.152194
v -0.678244 3.311943 2.099996
v -1.003732 3.685728 2.099996
v -1.130407 3.166471 1.914503
v -1.130407 3.685727 2.037386
v -0.678244 3.166471 2.037206
v -1.130407 4.204984 2.037386
v -1.003732 4.204984 2.099996
v -1.130407 4.724240 2.037386
v -1.003732 4.724240 2.099996
v -1.130407 5.243497 2.037386
v -1.003732 5.243497 2.099996
v -1.582570 4.204984 1.610848
v -1.582570 4.724240 1.610848
v -1.681839 4.204984 1.499997
v -1.681839 4.724241 1.499997
v -1.681839 5.243497 1.499997
v -1.582569 5.243497 1.610848
v -1.604984 5.762753 1.499997
v -1.582569 5.762753 1.523737
v -1.582569 5.808151 1.499997
v -2.034732 5.852797 0.899998
v -1.765597 6.282010 0.899998
v -1.582569 6.282011 1.143507
v -2.034732 5.762753 0.957779
v -1.582570 6.436028 0.899998
v -2.580910 6.042136 0.425804
v -1.582570 6.484123 0.299999
v -2.576847 6.041404 0.427467
v -2.940991 6.041713 -0.135816
v -1.582569 6.484123 -0.299999
v -2.939801 6.040978 -0.138636
v -1.765597 6.282010 -0.899998
v -1.582570 6.436028 -0.899998
v -2.034732 5.852797 -0.899998
v -2.034732 5.762753 -0.957779
v -1.604984 5.762754 -1.499997
v -1.582570 5.808151 -1.499997
v -1.582570 6.282010 -1.143507
v -2.034732 5.243497 -1.046490
v -1.681839 5.243497 -1.499997
v -2.034732 4.724240 -1.046490
v -1.681839 4.724240 -1.499997
v -2.034732 4.204984 -1.046490
v -1.681839 4.204984 -1.499997
v -2.034732 3.685728 -1.046490
v -1.681839 3.685727 -1.499997
v -2.034732 3.166471 -0.957779
v -1.604984 3.166471 -1.499997
v -2.034733 3.076428 -0.899998
v -1.765597 2.647214 -0.899999
v -1.582570 2.647214 -1.143507
v -1.582569 3.121074 -1.499997
v -1.582569 2.493196 -0.899998
v -1.130407 2.297333 -0.899998
v -1.130407 2.647214 -1.472477
v -1.582569 2.445172 -0.300000
v -1.130407 2.266178 -0.299999
v -1.582570 2.445172 0.299999
v -1.130407 2.266178 0.299999
v -1.582569 2.493196 0.899998
v -1.130407 2.297333 0.899998
v -1.582569 2.647214 1.143507
v -1.130407 2.647214 1.472477
v -1.582569 3.121074 1.499997
v -1.130407 2.673604 1.499997
v -1.053943 2.647214 1.499997
v -2.034732 3.076428 0.899998
v -2.034732 3.166471 0.957779
v -1.604984 3.166471 1.499997
v -1.765596 2.647214 0.899998
v -2.034732 3.685728 1.046490
v -1.681839 3.685727 1.499997
v -2.034732 4.204984 1.046490
v -2.110820 3.685727 0.899998
v -2.110820 4.204984 0.899998
v -2.110821 4.724240 0.899998
v -2.034732 4.724240 1.046490
v -2.110821 5.243497 0.899998
v -2.034732 5.243497 1.046490
v -2.067402 5.762753 0.899998
v -1.397717 5.421454 0.165139
v -1.946986 5.588128 0.370920
v -1.120820 5.540341 0.104065
v -2.738549 5.799355 0.483501
v -2.110646 5.346127 0.422975
v -2.880719 5.558175 0.565078
v -3.067744 5.598887 0.532823
v -2.791795 5.810616 0.472357
v -3.429865 5.597608 -0.028281
v -3.151875 5.810193 -0.089263
v -3.325834 5.556672 -0.124882
v -3.124334 5.798902 -0.118210
v -2.584478 5.345520 -0.315140
v -2.402272 5.587595 -0.339192
v -1.893692 5.167841 -0.367259
v -1.757798 5.421031 -0.396481
v -1.532615 5.168546 0.193768
v -1.672765 4.916784 0.221704
v -2.039031 4.913828 -0.338185
v -2.273199 5.105142 0.469351
v -1.843919 4.673598 0.254554
v -2.430544 4.870344 0.505182
v -3.191308 5.089641 0.657914
v -3.039158 5.319160 0.615633
v -3.419830 5.139690 0.622067
v -3.266677 5.369019 0.577998
v -3.806106 5.128150 0.066806
v -3.634222 5.365398 0.018115
v -3.684481 5.074769 -0.050489
v -3.507766 5.314699 -0.098771
v -2.956437 4.853147 -0.244987
v -2.766635 5.101926 -0.288182
v -2.231502 4.661398 -0.300656
v -2.412123 4.419469 -0.252281
v -3.135376 4.612709 -0.195071
v -2.019402 4.433811 0.301582
v -3.861316 4.835760 0.000258
v -3.590015 4.903701 0.671695
v -3.981665 4.889866 0.117704
v -3.764249 4.665886 0.722037
v -4.157896 4.651153 0.168404
v -3.940489 4.426619 0.771361
v -4.334136 4.411886 0.217728
v -4.214205 4.357501 0.100127
v -4.037965 4.596767 0.050803
v -3.535711 4.615565 0.757183
v -3.711951 4.376298 0.806506
v -2.955559 4.154098 0.652209
v -2.779319 4.393365 0.602886
v -2.371841 3.955281 0.400186
v -2.195602 4.194548 0.350862
v -2.603367 4.632453 0.553492
v -2.548081 3.716015 0.449509
v -3.131799 3.914832 0.701532
v -2.765489 3.940548 -0.153448
v -2.941728 3.701281 -0.104124
v -3.487855 4.134176 -0.096424
v -3.664095 3.894909 -0.047100
v -4.390444 4.118234 0.149450
v -3.833578 3.655895 0.011728
v -4.558323 3.879280 0.210533
v -4.657708 3.924666 0.309535
v -4.510375 4.172619 0.267051
v -4.264060 3.939400 0.863168
v -4.116728 4.187352 0.820684
v -3.888191 4.137032 0.855830
v -4.072791 3.897452 0.893395
v -3.314797 3.675312 0.741351
v -3.519097 3.434995 0.751210
v -4.285653 3.656815 0.891211
v -3.059987 3.285385 0.585880
v -2.753205 3.485427 0.505667
v -3.146852 3.470693 -0.047966
v -3.453634 3.270651 0.032246
v -3.981757 3.417679 0.100517
v -4.042326 3.289893 0.175655
v -3.648679 3.304626 0.729288
v -4.712761 3.608959 0.331226
v -4.319113 3.623693 0.884860
v -4.322821 3.664834 0.884693
v -4.716468 3.650100 0.331060
v -4.697940 3.641384 0.311363
v -1.480901 5.539918 -0.457555
v -2.110821 5.243497 -0.899998
v -2.067402 5.762753 -0.899998
v -2.153902 4.724241 0.300000
v -2.153902 4.724240 -0.299999
v -2.153902 4.204984 0.299999
v -2.153902 4.204984 -0.299999
v -2.153902 3.685727 0.300000
v -2.153902 3.685727 -0.299999
v -2.115815 3.166471 0.300000
v -2.115814 3.166471 -0.299999
v -2.034732 2.956795 0.299999
v -2.034732 2.956795 -0.299999
v -2.067402 3.166471 -0.899998
v -2.067402 3.166471 0.899998
v -1.823385 2.647214 0.299999
v -1.823385 2.647214 -0.299999
v -2.110821 3.685727 -0.899998
v -2.110821 4.204984 -0.899998
v -2.110821 4.724240 -0.899998
v -1.582570 3.166471 1.523737
v -1.582570 3.685727 1.610848
v -0.678244 2.597744 1.499997
v -0.678244 2.268450 0.899998
v -0.678244 2.647214 1.562223
v -0.678244 2.236985 0.299999
v -0.678244 2.236985 -0.299999
v -0.678244 2.268450 -0.899998
v -0.678244 2.597744 -1.499997
v -1.053943 2.647214 -1.499997
v -1.130407 2.673604 -1.499997
v -0.678244 2.647214 -1.562223
v -0.678244 3.166471 -2.037206
v -1.130407 3.166471 -1.914503
v -1.582570 3.166471 -1.523737
v -1.130407 3.685727 -2.037386
v -1.582569 3.685727 -1.610848
v -1.130407 4.204984 -2.037386
v -1.582569 4.204984 -1.610848
v -1.130407 4.724240 -2.037386
v -1.582569 4.724241 -1.610848
v -1.130407 5.243497 -2.037386
v -1.582569 5.243497 -1.610848
v -1.130407 5.762754 -1.914503
v -1.582569 5.762754 -1.523736
v -1.130407 6.255620 -1.499997
v -1.003732 5.243497 -2.099996
v -0.678244 5.617282 -2.099996
v -0.678244 5.762753 -2.037206
v -0.678244 5.243497 -2.152194
v -0.678244 4.724240 -2.152194
v -1.003732 4.724240 -2.099996
v -0.678244 4.204984 -2.152194
v -1.003732 4.204984 -2.099996
v -0.678244 3.685728 -2.152194
v -1.003732 3.685727 -2.099996
v -0.678244 3.311943 -2.099996
v -1.130407 6.282010 -1.472477
v -1.130407 6.631892 -0.899998
v -1.053943 6.282010 -1.499997
v -0.678244 6.331481 -1.499997
v -0.678244 6.660774 -0.899998
v -0.678244 6.282010 -1.562223
v -1.130407 6.663046 -0.299999
v -0.661872 6.711545 -0.284169
v -1.130407 6.663046 0.299999
v -0.665626 6.692561 0.315657
v -1.130407 6.631892 0.899998
v -0.678244 6.660774 0.899998
v -1.053943 6.282010 1.499997
v -1.130407 6.282010 1.472477
v -0.339725 6.793430 0.319607
v -0.211086 6.792373 0.322895
v -0.335944 6.812217 -0.280220
v -0.657369 7.093287 0.327716
v -0.652880 7.110198 -0.272044
v -0.731933 7.329164 -0.266188
v -0.736431 7.312470 0.333578
v -0.748292 7.847557 -0.252100
v -0.752746 7.831089 0.347679
v -0.746616 8.366381 -0.238010
v -0.751141 8.349971 0.361759
v -0.650304 8.800224 0.374335
v -0.645778 8.816633 -0.225434
v -0.646662 8.370289 -0.386376
v -0.653430 8.345747 0.510625
v -0.592667 8.885201 -0.223422
v -0.597193 8.868792 0.376347
v -0.197279 8.994837 0.380824
v -0.192753 9.011248 -0.218945
v -0.192216 8.888554 -0.368336
v 0.259939 8.887830 -0.367192
v 0.259402 9.010523 -0.217800
v -0.193696 8.372505 -0.492692
v 0.258460 8.371780 -0.491548
v 0.709804 8.368118 -0.382944
v 0.710688 8.814463 -0.222002
v 0.658189 8.883198 -0.220257
v 0.706162 8.798054 0.377767
v 0.653663 8.866789 0.379512
v 0.254877 8.994114 0.381968
v 0.253212 8.863436 0.524426
v -0.198944 8.864159 0.523282
v -0.202086 8.342084 0.619229
v 0.250070 8.341360 0.620374
v -0.203889 7.823008 0.605111
v 0.248202 7.822201 0.606242
v -0.205574 7.304255 0.578288
v 0.246533 7.303021 0.579410
v 0.701313 7.824287 0.499946
v 0.699519 7.305293 0.457984
v 0.801277 7.828184 0.351582
v 0.780884 7.308450 0.337360
v 0.805694 7.844697 -0.248203
v 0.785385 7.325178 -0.262403
v 0.802989 8.347485 0.365691
v 0.807515 8.363894 -0.234077
v 0.707900 7.848973 -0.397081
v -0.656959 7.308848 0.454589
v -0.655082 7.826806 0.496536
v -0.650579 7.332304 -0.386814
v -0.648404 7.851435 -0.400478
v -0.195780 7.853488 -0.506857
v -1.130407 6.255620 1.499997
v -1.130407 5.762754 1.914503
v 0.226081 4.204984 2.152194
v 0.226081 4.724241 2.152194
v 0.698011 6.681165 -0.881896
v 0.678244 6.331481 -1.499997
v 0.678244 6.282010 -1.562223
v 1.053942 6.282010 -1.499997
v 0.678244 5.762753 -2.037206
v 1.130407 5.762754 -1.914503
v 0.678244 5.617282 -2.099996
v 1.003732 5.243497 -2.099996
v 1.130407 5.243497 -2.037386
v 1.130407 4.724240 -2.037386
v 1.003732 4.724240 -2.099996
v 1.130407 4.204984 -2.037386
v 1.003731 4.204984 -2.099996
v 1.130406 3.685728 -2.037386
v 1.003732 3.685727 -2.099996
v 0.678244 3.311943 -2.099996
v 0.678244 3.166471 -2.037206
v 0.678244 3.685727 -2.152194
v 0.678244 4.204984 -2.152194
v 0.678244 4.724241 -2.152194
v 0.678244 5.243497 -2.152193
v 0.678244 2.647214 -1.562223
v 0.678244 2.597744 -1.499997
v 1.053942 2.647214 -1.499997
v 0.678244 2.268450 -0.899998
v 0.678244 2.236985 0.299999
v 0.678244 2.236985 -0.299999
v 0.678244 2.268450 0.899998
v 0.678244 2.597744 1.499997
v 0.678244 2.647214 1.562223
v 1.053942 2.647214 1.499997
v 1.681839 5.243497 1.499997
v 1.681839 4.724240 1.499997
v 1.681839 4.204984 1.499997
v 2.034732 4.204984 1.046490
v 2.034732 4.724240 1.046490
v 2.034732 3.685727 1.046490
v 1.681839 3.685727 1.499997
v 2.034732 3.166471 0.957779
v 1.604984 3.166471 1.499997
v 2.110821 3.685727 0.899998
v 2.067401 3.166471 0.899998
v 2.034732 3.076428 0.899998
v 2.110820 4.204984 0.899998
v 1.765596 2.647214 0.899998
v 1.823385 2.647214 0.299999
v 1.823385 2.647214 -0.299999
v 1.765596 2.647214 -0.899999
v 1.970241 4.605941 -0.084350
v 2.735277 4.749061 -0.079298
v 3.358712 4.628811 0.934119
v 2.871110 4.509466 0.003906
v 2.108487 4.363374 -0.005373
v 0.703036 8.343576 0.514057
v 0.256314 7.852720 -0.505725
v -3.361438 4.853490 0.707066
v -3.311616 4.373443 -0.145747
v -2.589249 4.179815 -0.202771
vn 0.8839 0.3906 -0.2571
vn 0.4219 -0.0839 -0.9027
vn 0.4217 -0.0820 -0.9030
vn 0.8837 0.3908 -0.2577
vn 0.1472 -0.2504 -0.9569
vn 0.1475 -0.2495 -0.9571
vn -0.4608 -0.5016 -0.7322
vn -0.4611 -0.5021 -0.7317
vn -0.8655 -0.3460 0.3620
vn -0.8658 -0.3452 0.3622
vn -0.2566 0.1881 0.9481
vn -0.2569 0.1870 0.9482
vn -0.2516 0.1692 0.9529
vn -0.8460 -0.3865 0.3673
vn -0.0160 0.3177 0.9481
vn -0.0119 0.2947 0.9555
vn 0.5349 0.5196 0.6662
vn 0.5602 0.4824 0.6734
vn 0.9145 0.3350 -0.2268
vn 0.9821 0.1218 -0.1436
vn 0.6252 0.3100 0.7162
vn 0.4301 -0.1078 -0.8963
vn 0.4609 -0.2097 -0.8623
vn 0.1530 -0.2667 -0.9516
vn 0.1774 -0.3341 -0.9257
vn -0.4540 -0.5488 -0.7019
vn -0.3789 -0.6912 -0.6154
vn -0.7446 -0.5194 0.4192
vn -0.4616 -0.7001 0.5448
vn -0.0967 -0.9033 -0.4180
vn -0.2256 0.1023 0.9688
vn -0.1698 -0.0497 0.9842
vn 0.0085 0.2053 0.9787
vn 0.0451 0.0654 0.9968
vn 0.6276 0.0498 0.7770
vn 0.4296 -0.4546 0.7802
vn 0.9830 -0.1667 -0.0767
vn 0.7662 -0.6390 -0.0683
vn -0.0048 -0.7072 0.7070
vn 0.2663 -0.9343 -0.2370
vn 0.4981 -0.3634 -0.7873
vn 0.2201 -0.4784 -0.8501
vn -0.8651 -0.3465 0.3626
vn -0.2546 0.1897 0.9483
vn -0.8678 -0.3425 0.3599
vn -0.2465 0.1900 0.9503
vn -0.0119 0.3332 0.9428
vn -0.0151 0.3251 0.9456
vn 0.5436 0.5155 0.6624
vn 0.5363 0.5225 0.6629
vn 0.8951 0.3606 -0.2624
vn 0.8854 0.3855 -0.2599
vn 0.4144 -0.1172 -0.9025
vn 0.4202 -0.0914 -0.9028
vn 0.5341 0.5209 0.6659
vn 0.5820 0.5456 0.6030
vn 0.8822 0.3601 -0.3035
vn 0.5380 0.6464 0.5411
vn 0.8062 0.4818 -0.3435
vn 0.3645 -0.0196 -0.9310
vn 0.3867 -0.1065 -0.9160
vn 0.1065 -0.1971 -0.9746
vn 0.1122 -0.2321 -0.9662
vn -0.5601 -0.4014 -0.7247
vn -0.5504 -0.4471 -0.7051
vn -0.9062 -0.1997 0.3728
vn -0.8895 -0.2631 0.3735
vn -0.2142 0.2560 0.9426
vn -0.2252 0.2118 0.9510
vn 0.0170 0.4007 0.9160
vn 0.0129 0.3535 0.9353
vn 0.1051 -0.4402 0.8917
vn 0.1688 0.2556 0.9519
vn 0.5282 0.6399 0.5582
vn 0.4793 0.7997 0.3615
vn 0.4993 0.5878 0.6365
vn 0.6941 0.6464 -0.3169
vn 0.7697 0.5196 -0.3709
vn 0.5307 0.4070 -0.7434
vn 0.4657 -0.0057 -0.8849
vn 0.6787 0.1937 -0.7084
vn 0.7994 -0.3250 -0.5053
vn 0.3628 -0.5536 -0.7495
vn -0.4398 -0.8212 -0.3637
vn 0.9879 -0.0361 -0.1506
vn 0.8376 -0.4612 0.2927
vn 0.8384 0.0472 -0.5430
vn 0.8123 0.2170 -0.5414
vn 0.8431 -0.0000 -0.5378
vn 0.9766 0.1309 -0.1705
vn 0.9643 -0.0000 -0.2646
vn 0.8384 -0.0472 -0.5430
vn 0.9632 -0.0393 -0.2657
vn 0.8123 -0.2170 -0.5414
vn 0.9420 -0.2046 -0.2659
vn 0.8518 -0.4237 -0.3081
vn 0.8853 -0.4631 -0.0424
vn 0.9756 -0.2164 -0.0374
vn 0.8853 -0.4631 0.0424
vn 0.9756 -0.2164 0.0374
vn 0.9986 -0.0378 0.0368
vn 0.9986 -0.0378 -0.0368
vn 0.9994 -0.0000 0.0358
vn 0.9994 -0.0000 -0.0358
vn 0.9439 0.3239 -0.0650
vn 0.9439 0.3184 0.0876
vn 0.9033 -0.0127 -0.4288
vn 0.9763 0.1393 0.1657
vn 0.9824 0.1849 -0.0259
vn -0.3525 -0.8835 -0.3084
vn 0.9984 0.0505 0.0248
vn 0.8384 0.0472 0.5430
vn 0.8123 0.2170 0.5414
vn 0.7782 0.2316 0.5838
vn 0.6274 0.4605 0.6280
vn 0.5499 0.6218 0.5576
vn 0.5903 0.5300 0.6088
vn 0.7418 0.2346 0.6283
vn 0.4282 0.8484 0.3112
vn 0.2250 0.9352 0.2735
vn 0.3097 0.7357 0.6023
vn 0.2198 0.9749 0.0348
vn 0.3692 0.9288 0.0330
vn 0.2387 0.9709 -0.0212
vn 0.3894 0.9187 -0.0666
vn 0.2312 0.9302 -0.2850
vn 0.4345 0.8507 -0.2957
vn 0.3127 0.7304 -0.6073
vn 0.5499 0.6218 -0.5576
vn 0.3768 0.6015 -0.7044
vn 0.6274 0.4605 -0.6280
vn 0.7418 0.2346 -0.6283
vn 0.5809 0.6918 -0.4288
vn 0.6660 0.2921 -0.6864
vn 0.7096 0.0651 -0.7016
vn 0.7659 0.0552 -0.6406
vn 0.7165 -0.0000 -0.6975
vn 0.7678 -0.0000 -0.6407
vn 0.7096 -0.0651 -0.7016
vn 0.7659 -0.0552 -0.6406
vn 0.6660 -0.2921 -0.6864
vn 0.7418 -0.2346 -0.6283
vn 0.6274 -0.4605 -0.6280
vn 0.3602 -0.6041 -0.7109
vn 0.4386 -0.4090 -0.8002
vn 0.3037 -0.7307 -0.6114
vn 0.5499 -0.6218 -0.5576
vn 0.2235 -0.9342 -0.2782
vn 0.5001 -0.8250 -0.2632
vn 0.2233 -0.9743 -0.0285
vn 0.5159 -0.8561 -0.0308
vn 0.2233 -0.9743 0.0285
vn 0.5159 -0.8561 0.0308
vn 0.2265 -0.9346 0.2741
vn 0.5001 -0.8250 0.2632
vn 0.3175 -0.7261 0.6099
vn 0.5499 -0.6218 0.5576
vn 0.3671 -0.6008 0.7101
vn 0.6274 -0.4605 0.6280
vn 0.4418 -0.4124 0.7967
vn 0.6660 -0.2921 0.6864
vn 0.5425 -0.0998 0.8341
vn 0.7096 -0.0651 0.7016
vn 0.5752 -0.0000 0.8180
vn 0.7165 -0.0000 0.6975
vn 0.5467 0.1145 0.8295
vn 0.7096 0.0651 0.7016
vn 0.4456 0.4022 0.7998
vn 0.6660 0.2921 0.6864
vn 0.3656 0.6090 0.7038
vn 0.1213 0.5045 0.8548
vn 0.0613 0.7273 0.6836
vn 0.1411 0.8176 0.5582
vn 0.0483 0.8307 0.5546
vn -0.0000 0.5460 0.8378
vn -0.0000 0.7318 0.6816
vn -0.0000 0.2709 0.9626
vn 0.1355 0.2548 0.9574
vn 0.0793 0.0690 0.9945
vn -0.0000 0.0694 0.9976
vn 0.3350 0.1563 0.9292
vn 0.0796 -0.0000 0.9968
vn 0.3069 -0.0000 0.9517
vn 0.0793 -0.0690 0.9945
vn 0.2988 -0.1096 0.9480
vn 0.1277 -0.2754 0.9528
vn -0.0000 -0.2709 0.9626
vn -0.0000 -0.0694 0.9976
vn 0.1053 -0.5349 0.8383
vn -0.0000 -0.5460 0.8378
vn -0.0000 -0.7318 0.6816
vn -0.0000 -0.8333 0.5529
vn -0.0000 -0.9630 0.2696
vn -0.0000 -0.9997 0.0262
vn -0.0000 -0.9997 -0.0262
vn -0.0000 -0.9630 -0.2696
vn -0.0000 -0.8333 -0.5529
vn -0.0000 -0.7318 -0.6816
vn -0.0000 -0.5460 -0.8378
vn -0.0000 -0.2709 -0.9626
vn -0.0000 -0.0694 -0.9976
vn -0.0000 -0.0000 -1.0000
vn -0.0000 0.0694 -0.9976
vn -0.0000 0.2709 -0.9626
vn -0.0000 0.5460 -0.8378
vn -0.0000 0.7318 -0.6816
vn -0.0036 0.8285 -0.5599
vn 0.0022 0.8279 -0.5608
vn -0.0362 0.9425 -0.3321
vn 0.0352 0.9412 -0.3361
vn 0.1000 0.5329 -0.8402
vn -0.1392 0.5260 -0.8390
vn 0.1264 -0.2023 -0.9711
vn -0.1226 -0.1964 -0.9728
vn 0.5702 0.5878 -0.5738
vn 0.7398 -0.5276 -0.4175
vn 0.5817 -0.1759 -0.7942
vn 0.7298 -0.5618 0.3895
vn 0.4931 0.6086 0.6216
vn 0.1367 0.9886 0.0625
vn 0.1516 0.9880 -0.0309
vn 0.0308 0.9411 0.3366
vn 0.1613 0.4950 0.8538
vn 0.0363 0.9629 0.2673
vn -0.0000 0.8333 0.5529
vn 0.0009 0.9358 0.3526
vn -0.0459 0.8308 0.5546
vn -0.0613 0.7273 0.6836
vn -0.1213 0.5045 0.8548
vn -0.1355 0.2549 0.9574
vn -0.0793 0.0690 0.9945
vn -0.0796 -0.0000 0.9968
vn -0.0000 -0.0000 1.0000
vn -0.0793 -0.0690 0.9945
vn -0.1277 -0.2754 0.9528
vn -0.2988 -0.1096 0.9480
vn -0.4418 -0.4124 0.7967
vn -0.5425 -0.0998 0.8341
vn -0.1053 -0.5349 0.8383
vn -0.5752 -0.0000 0.8180
vn -0.3069 -0.0000 0.9517
vn -0.5467 0.1145 0.8295
vn -0.3350 0.1563 0.9292
vn -0.7165 -0.0000 0.6975
vn -0.7678 -0.0000 0.6407
vn -0.7659 0.0552 0.6406
vn -0.7096 0.0651 0.7016
vn -0.7418 0.2346 0.6283
vn -0.6660 0.2921 0.6864
vn -0.6274 0.4605 0.6280
vn -0.7892 0.2243 0.5718
vn -0.5879 0.6881 0.4253
vn -0.5499 0.6218 0.5576
vn -0.8123 0.2170 0.5414
vn -0.4357 0.8515 0.2918
vn -0.4112 0.7233 0.5547
vn -0.3790 0.9218 0.0820
vn -0.3907 -0.2494 0.8861
vn -0.6380 0.7524 -0.1636
vn -0.3524 0.9358 -0.0106
vn -0.5223 0.3675 -0.7695
vn -0.6018 0.5404 -0.5880
vn -0.4252 0.8496 -0.3120
vn -0.7166 0.2138 -0.6639
vn -0.8123 0.2170 -0.5414
vn -0.7418 0.2346 -0.6283
vn -0.6274 0.4605 -0.6280
vn -0.5499 0.6218 -0.5576
vn -0.8384 0.0472 -0.5430
vn -0.7659 0.0552 -0.6406
vn -0.8431 -0.0000 -0.5378
vn -0.7678 -0.0000 -0.6407
vn -0.8384 -0.0472 -0.5430
vn -0.7659 -0.0552 -0.6406
vn -0.8123 -0.2170 -0.5414
vn -0.7418 -0.2346 -0.6283
vn -0.8518 -0.4237 -0.3081
vn -0.7316 -0.6148 -0.2946
vn -0.5499 -0.6218 -0.5576
vn -0.6274 -0.4605 -0.6280
vn -0.5001 -0.8250 -0.2632
vn -0.2277 -0.9342 -0.2746
vn -0.3340 -0.7202 -0.6080
vn -0.5159 -0.8561 -0.0308
vn -0.2233 -0.9743 -0.0285
vn -0.5159 -0.8561 0.0308
vn -0.2233 -0.9743 0.0285
vn -0.5001 -0.8250 0.2632
vn -0.2265 -0.9346 0.2741
vn -0.5499 -0.6218 0.5576
vn -0.3175 -0.7261 0.6099
vn -0.6274 -0.4605 0.6280
vn -0.3671 -0.6008 0.7101
vn -0.1469 -0.6810 0.7174
vn -0.8518 -0.4237 0.3081
vn -0.8123 -0.2170 0.5414
vn -0.7418 -0.2346 0.6283
vn -0.7316 -0.6148 0.2946
vn -0.8384 -0.0472 0.5430
vn -0.7659 -0.0552 0.6406
vn -0.8431 -0.0000 0.5378
vn -0.9632 -0.0393 0.2657
vn -0.9643 -0.0000 0.2646
vn -0.9763 0.1398 0.1654
vn -0.9964 0.0814 0.0223
vn -0.8384 0.0472 0.5430
vn -0.9918 0.1211 0.0401
vn 0.4742 -0.8799 0.0321
vn -0.4875 -0.4863 0.7251
vn -0.9379 -0.2787 -0.2064
vn -0.0796 0.1089 0.9909
vn 0.2771 0.0223 0.9606
vn 0.0571 0.2159 0.9747
vn -0.4006 0.5999 0.6926
vn -0.3931 0.5877 0.7071
vn -0.7133 0.6758 -0.1858
vn -0.6714 0.7132 -0.2014
vn -0.4002 0.2678 -0.8764
vn -0.4228 0.2948 -0.8570
vn -0.1602 0.0337 -0.9865
vn -0.3898 -0.2833 -0.8762
vn 0.4310 -0.3268 -0.8411
vn 0.0855 -0.9139 -0.3968
vn 0.8632 -0.4270 0.2695
vn 0.8363 -0.4799 0.2652
vn 0.4184 -0.3830 -0.8235
vn 0.2797 -0.0238 0.9598
vn 0.7991 -0.5344 0.2754
vn 0.2875 -0.0301 0.9573
vn 0.0577 0.1497 0.9870
vn 0.0505 0.1562 0.9864
vn -0.4481 0.4712 0.7598
vn -0.4537 0.5020 0.7363
vn -0.8151 0.5562 -0.1622
vn -0.7972 0.5793 -0.1700
vn -0.4473 0.1495 -0.8818
vn -0.4279 0.1840 -0.8849
vn -0.1808 -0.0534 -0.9821
vn -0.1653 -0.0154 -0.9861
vn 0.3724 -0.4193 -0.8280
vn 0.3632 -0.4360 -0.8234
vn -0.1873 -0.0647 -0.9802
vn 0.7989 -0.5309 0.2827
vn -0.4524 0.1489 -0.8793
vn -0.4405 0.4819 0.7575
vn -0.8112 0.5627 -0.1591
vn -0.4394 0.4815 0.7583
vn -0.8105 0.5643 -0.1572
vn -0.4400 0.4805 0.7586
vn -0.8103 0.5644 -0.1575
vn -0.4528 0.1524 -0.8785
vn -0.4531 0.1512 -0.8785
vn 0.0627 0.1589 0.9853
vn 0.0624 0.1572 0.9856
vn 0.2942 -0.0197 0.9555
vn 0.2942 -0.0188 0.9555
vn 0.7992 -0.5303 0.2831
vn 0.7990 -0.5304 0.2833
vn 0.2935 -0.0185 0.9558
vn 0.7800 -0.5578 0.2836
vn 0.2883 -0.0347 0.9569
vn 0.3628 -0.4369 -0.8231
vn 0.3534 -0.4763 -0.8051
vn -0.1879 -0.0636 -0.9801
vn -0.1938 -0.0781 -0.9779
vn -0.4625 0.1308 -0.8769
vn -0.2213 -0.1396 -0.9652
vn -0.5025 0.0374 -0.8638
vn -0.9377 0.3365 -0.0865
vn -0.8421 0.5210 -0.1393
vn -0.5346 0.3164 0.7836
vn -0.4612 0.4541 0.7623
vn 0.0575 0.1370 0.9889
vn 0.0327 0.0552 0.9979
vn 0.2590 -0.0935 0.9613
vn 0.1928 -0.2337 0.9530
vn -0.0127 -0.0765 0.9970
vn 0.4212 -0.8130 0.4020
vn 0.6846 -0.6588 0.3120
vn 0.2842 -0.6036 -0.7449
vn 0.0177 -0.8250 -0.5648
vn -0.2742 -0.2888 -0.9173
vn -0.3557 -0.8633 -0.3580
vn -0.0224 -0.8137 0.5809
vn -0.8649 -0.4906 -0.1060
vn -0.4622 -0.5033 0.7301
vn -0.5812 0.0724 0.8105
vn -0.9969 0.0616 -0.0481
vn -0.5582 -0.1211 -0.8209
vn -0.9213 -0.2102 0.3271
vn -0.9946 0.1001 -0.0282
vn -0.8471 -0.3018 -0.4374
vn -0.9463 0.3212 -0.0377
vn -0.9437 0.3102 0.1146
vn -0.9994 -0.0000 0.0358
vn -0.9994 -0.0000 -0.0358
vn -0.9986 -0.0378 0.0368
vn -0.9986 -0.0378 -0.0368
vn -0.9756 -0.2164 0.0374
vn -0.9756 -0.2164 -0.0374
vn -0.8853 -0.4631 0.0424
vn -0.8853 -0.4631 -0.0424
vn -0.9420 -0.2046 -0.2659
vn -0.9420 -0.2046 0.2659
vn -0.7491 -0.6613 0.0399
vn -0.7491 -0.6613 -0.0399
vn -0.9632 -0.0393 -0.2657
vn -0.9643 -0.0000 -0.2646
vn -0.9768 0.1215 -0.1760
vn -0.6660 -0.2921 0.6864
vn -0.7096 -0.0651 0.7016
vn -0.0492 -0.8300 0.5556
vn -0.0307 -0.9629 0.2682
vn -0.0691 -0.7237 0.6867
vn -0.0321 -0.9991 0.0261
vn -0.0321 -0.9991 -0.0261
vn -0.0372 -0.9616 -0.2721
vn -0.0459 -0.8308 -0.5546
vn -0.1402 -0.7660 -0.6274
vn -0.3656 -0.6090 -0.7038
vn -0.0613 -0.7273 -0.6836
vn -0.1178 -0.5114 -0.8512
vn -0.4489 -0.4056 -0.7962
vn -0.6660 -0.2921 -0.6864
vn -0.5651 -0.0899 -0.8201
vn -0.7096 -0.0651 -0.7016
vn -0.5752 -0.0000 -0.8180
vn -0.7165 -0.0000 -0.6975
vn -0.5456 0.1134 -0.8303
vn -0.7096 0.0651 -0.7016
vn -0.4299 0.4028 -0.8081
vn -0.6660 0.2921 -0.6864
vn -0.3671 0.6008 -0.7101
vn -0.3351 0.1565 -0.9291
vn -0.1814 0.2950 -0.9381
vn -0.1330 0.5157 -0.8464
vn -0.0793 0.0690 -0.9945
vn -0.0796 -0.0000 -0.9968
vn -0.3069 -0.0000 -0.9517
vn -0.0793 -0.0690 -0.9945
vn -0.3126 -0.1102 -0.9435
vn -0.1270 -0.2629 -0.9564
vn -0.3175 0.7261 -0.6099
vn -0.2311 0.9326 -0.2774
vn -0.1469 0.6810 -0.7174
vn -0.0538 0.8281 -0.5580
vn -0.0736 0.9519 -0.2975
vn -0.0691 0.7237 -0.6867
vn -0.2325 0.9722 -0.0284
vn -0.1505 0.9873 -0.0505
vn -0.2281 0.9731 0.0323
vn -0.1663 0.9849 0.0488
vn -0.2278 0.9342 0.2747
vn -0.0659 0.9522 0.2981
vn -0.1402 0.7660 0.6274
vn -0.3340 0.7202 0.6080
vn -0.5118 0.6700 0.5378
vn -0.1190 0.5293 0.8400
vn -0.4408 -0.0372 -0.8968
vn -0.7405 -0.5530 0.3818
vn -0.7350 -0.5348 -0.4169
vn -0.9476 -0.1672 -0.2721
vn -0.9508 -0.1820 0.2506
vn -0.9602 -0.0060 -0.2792
vn -0.9637 -0.0209 0.2660
vn -0.9565 0.1124 -0.2692
vn -0.9600 0.0977 0.2623
vn -0.8089 0.3907 0.4393
vn -0.8027 0.4188 -0.4246
vn -0.5887 0.1360 -0.7968
vn -0.5860 0.1083 0.8030
vn -0.5460 0.7225 -0.4241
vn -0.5585 0.6860 0.4664
vn -0.1419 0.9262 0.3492
vn -0.1395 0.9432 -0.3015
vn -0.1315 0.5376 -0.8329
vn 0.1542 0.5256 -0.8366
vn 0.1450 0.9429 -0.2999
vn -0.1270 0.1430 -0.9815
vn 0.1341 0.1418 -0.9808
vn 0.5891 0.1435 -0.7952
vn 0.7955 0.4351 -0.4218
vn 0.5348 0.7284 -0.4283
vn 0.8076 0.3837 0.4478
vn 0.5574 0.6829 0.4722
vn 0.1429 0.9254 0.3511
vn 0.1468 0.4792 0.8653
vn -0.1501 0.4807 0.8640
vn -0.1328 0.0898 0.9871
vn 0.1275 0.0885 0.9879
vn -0.1238 -0.0423 0.9914
vn 0.1182 -0.0431 0.9920
vn -0.1334 -0.2595 0.9565
vn 0.1266 -0.2607 0.9571
vn 0.5949 -0.0418 0.8027
vn 0.5782 -0.2305 0.7827
vn 0.9601 -0.0280 0.2784
vn 0.9460 -0.1903 0.2625
vn 0.9636 -0.0132 -0.2671
vn 0.9494 -0.1757 -0.2603
vn 0.9573 0.0901 0.2747
vn 0.9606 0.1050 -0.2572
vn 0.6025 0.0017 -0.7981
vn -0.5873 -0.2258 0.7772
vn -0.6028 -0.0375 0.7970
vn -0.5745 -0.1957 -0.7947
vn -0.5951 0.0062 -0.8036
vn -0.1184 0.0118 -0.9929
vn -0.3656 0.6090 0.7038
vn -0.4456 0.4022 0.7998
vn 0.0860 0.9523 -0.2928
vn 0.0576 0.8290 -0.5562
vn 0.0563 0.7292 -0.6820
vn 0.1569 0.7646 -0.6251
vn 0.1059 0.5335 -0.8391
vn 0.4500 0.4045 -0.7962
vn 0.1277 0.2754 -0.9528
vn 0.2988 0.1096 -0.9480
vn 0.5425 0.0998 -0.8341
vn 0.5752 -0.0000 -0.8180
vn 0.3069 -0.0000 -0.9517
vn 0.5467 -0.1145 -0.8295
vn 0.3350 -0.1563 -0.9292
vn 0.1355 -0.2549 -0.9574
vn 0.1268 -0.5097 -0.8510
vn 0.0793 -0.0690 -0.9945
vn 0.0796 -0.0000 -0.9968
vn 0.0793 0.0690 -0.9945
vn 0.0681 -0.7237 -0.6867
vn 0.0547 -0.8330 -0.5505
vn 0.1230 -0.7587 -0.6397
vn 0.0390 -0.9613 -0.2728
vn 0.0321 -0.9991 0.0261
vn 0.0321 -0.9991 -0.0261
vn 0.0307 -0.9629 0.2682
vn 0.0492 -0.8300 0.5556
vn 0.0691 -0.7237 0.6867
vn 0.1469 -0.6810 0.7174
vn 0.7659 0.0552 0.6406
vn 0.7678 -0.0000 0.6407
vn 0.8431 -0.0000 0.5378
vn 0.8384 -0.0472 0.5430
vn 0.7659 -0.0552 0.6406
vn 0.8123 -0.2170 0.5414
vn 0.7418 -0.2346 0.6283
vn 0.9632 -0.0393 0.2657
vn 0.9420 -0.2046 0.2659
vn 0.8518 -0.4237 0.3081
vn 0.9643 -0.0000 0.2646
vn 0.7316 -0.6148 0.2946
vn 0.7491 -0.6613 0.0399
vn 0.7491 -0.6613 -0.0399
vn 0.7316 -0.6148 -0.2946
vn -0.4781 -0.4810 -0.7349
vn 0.1364 -0.2534 -0.9577
vn -0.0163 0.3200 0.9473
vn 0.1456 -0.2517 -0.9568
vn -0.4630 -0.4989 -0.7326
vn 0.5784 0.1036 0.8091
vn 0.1236 0.0109 -0.9923
vn 0.0621 0.1600 0.9852
vn -0.1879 -0.0644 -0.9801
vn 0.3626 -0.4370 -0.8231
s 1
f 68//38 67//37 66//36 65//35
f 66//36 67//37 70//40 69//39
f 69//39 70//40 72//42 71//41
f 71//41 72//42 74//44 73//43
f 74//44 76//46 75//45 73//43
f 78//48 77//47 76//46 74//44
f 77//47 80//50 79//49 76//46
f 79//49 80//50 82//52 81//51
f 82//52 83//53 68//38 81//51
f 85//55 84//54 83//53 82//52
f 84//54 87//57 86//56 83//53
f 86//56 87//57 89//59 88//58
f 88//58 89//59 91//61 90//60
f 90//60 91//61 92//62 78//48
f 91//61 94//64 93//63 92//62
f 93//63 96//66 95//65 92//62
f 96//66 98//68 97//67 95//65
f 97//67 98//68 99//69 85//55
f 98//68 100//70 99//69
f 100//70 102//72 101//71 99//69
f 104//74 102//72 100//70 103//73
f 102//72 105//75 101//71
f 103//73 100//70 98//68 96//66
f 103//73 96//66 93//63
f 94//64 104//74 103//73 93//63
f 106//76 104//74 94//64
f 89//59 106//76 94//64 91//61
f 87//57 105//75 106//76 89//59
f 101//71 105//75 87//57 84//54
f 99//69 101//71 84//54 85//55
f 80//50 97//67 85//55 82//52
f 95//65 97//67 80//50 77//47
f 92//62 95//65 77//47 78//48
f 73//43 75//45 108//78 107//77
f 107//77 108//78 110//80 109//79
f 108//78 112//82 111//81 110//80
f 111//81 112//82 114//84 113//83
f 114//84 116//86 115//85 113//83
f 116//86 118//88 117//87 115//85
f 119//89 65//35 116//86 114//84
f 113//83 115//85 121//91 120//90
f 120//90 121//91 123//93 122//92
f 121//91 125//95 124//94 123//93
f 124//94 125//95 127//97 126//96
f 126//96 127//97 129//99 128//98
f 128//98 129//99 131//101 130//100
f 131//101 133//103 132//102 130//100
f 133//103 135//105 134//104 132//102
f 132//102 134//104 137//107 136//106
f 137//107 134//104 122//92 138//108
f 140//110 137//107 138//108 139//109
f 138//108 142//112 141//111 139//109
f 142//112 144//114 143//113 141//111
f 144//114 147//117 146//116 145//115
f 143//113 144//114 145//115
f 149//119 146//116 147//117 148//118
f 150//120 149//119 148//118
f 152//122 146//116 149//119 151//121
f 151//121 149//119 154//124 153//123
f 153//123 154//124 156//125 155//123
f 155//123 156//125 158//127 157//126
f 157//126 158//127 160//129 159//128
f 159//128 160//129 161//130
f 161//130 160//129 163//132 162//131
f 162//131 163//132 165//134 164//133
f 163//132 167//136 166//135 165//134
f 167//136 169//138 168//137 166//135
f 169//138 171//140 170//139 168//137
f 171//140 150//120 172//141 170//139
f 170//139 172//141 174//143 173//142
f 176//145 174//143 172//141 175//144
f 136//106 176//145 175//144
f 174//143 176//145 178//147 177//146
f 178//147 176//145 179//148
f 179//148 182//151 181//150 180//149
f 183//152 178//147 179//148 180//149
f 181//150 182//151 184//153
f 186//155 181//150 184//153 185//154
f 184//153 188//157 187//156 185//154
f 188//157 190//159 189//158 187//156
f 190//159 192//161 191//160 189//158
f 192//161 194//163 193//162 191//160
f 193//162 194//163 196//165 195//164
f 145//115 152//122 197//166 196//165
f 194//163 198//167 145//115 196//165
f 197//166 199//168 196//165
f 199//168 197//166 201//170 200//169
f 200//169 201//170 203//172 202//171
f 202//171 203//172 205//172 204//171
f 204//171 205//172 207//174 206//173
f 206//173 207//174 209//176 208//175
f 208//175 209//176 210//177
f 212//179 208//175 210//177 211//178
f 210//177 214//181 213//180 211//178
f 213//180 214//181 216//183 215//182
f 215//182 216//183 218//185 217//184
f 217//184 218//185 220//187 219//186
f 219//186 220//187 222//189 221//188
f 222//189 224//191 223//190 221//188
f 223//190 224//191 226//193 225//192
f 226//193 228//195 227//194 225//192
f 228//195 230//197 229//196 227//194
f 230//197 232//199 231//198 229//196
f 232//199 234//199 233//198 231//198
f 234//199 236//201 235//200 233//198
f 236//201 238//203 237//202 235//200
f 237//202 238//203 180//149 239//204
f 239//204 242//207 241//206 240//205
f 237//202 239//204 240//205
f 241//206 242//207 243//208
f 186//155 242//207 239//204
f 240//205 241//206 245//210 244//209
f 247//212 240//205 244//209 246//211
f 249//214 248//213 247//212 246//211
f 248//213 250//215 247//212
f 252//217 250//215 248//213 251//216
f 254//217 252//217 251//216 253//216
f 256//219 254//217 253//216 255//218
f 256//219 255//218 257//220
f 257//220 255//218 259//222 258//221
f 261//224 260//223 257//220 258//221
f 263//224 261//224 258//221 262//221
f 265//225 261//224 263//224 264//225
f 267//226 265//225 264//225 266//226
f 269//227 268//227 267//226 266//226
f 271//228 270//228 268//227 269//227
f 273//229 272//229 270//228 271//228
f 275//230 274//230 272//229 273//229
f 277//231 276//231 274//230 275//230
f 279//232 278//232 276//231 277//231
f 281//233 280//233 278//232 279//232
f 283//234 280//233 281//233 282//234
f 285//235 284//235 283//234 282//234
f 287//236 286//236 284//235 285//235
f 289//236 288//236 286//236 287//236
f 291//237 290//237 288//236 289//236
f 293//238 290//237 291//237 292//238
f 295//239 294//239 293//238 292//238
f 297//240 296//240 294//239 295//239
f 299//242 296//240 297//240 298//241
f 301//244 299//242 298//241 300//243
f 303//246 302//245 301//244 300//243
f 305//248 304//247 302//245 303//246
f 308//251 307//250 306//249 302//245
f 304//247 308//251 302//245
f 310//253 306//249 307//250 309//252
f 312//255 306//249 310//253 311//254
f 311//254 310//253 314//257 313//256
f 315//258 311//254 313//256
f 243//208 315//258 313//256 316//259
f 316//259 313//256 318//260 317//259
f 319//210 245//210 316//259 317//259
f 321//262 319//210 317//259 320//261
f 323//209 319//210 321//262 322//263
f 325//211 323//209 322//263 324//264
f 327//265 326//214 325//211 324//264
f 329//267 326//214 327//265 328//266
f 331//267 329//267 328//266 330//266
f 333//222 331//267 330//266 332//268
f 262//221 333//222 332//268 334//269
f 332//268 335//270 334//269
f 334//269 335//270 337//272 336//271
f 338//273 334//269 336//271
f 335//270 340//275 339//274 337//272
f 340//275 342//275 341//274 339//274
f 342//275 344//277 343//276 341//274
f 339//274 341//274 346//278 345//278
f 346//278 348//279 347//279 345//278
f 350//281 349//280 348//279 346//278
f 352//283 351//282 349//280 350//281
f 351//282 352//283 353//284
f 353//284 356//287 355//286 354//285
f 357//288 351//282 353//284 354//285
f 355//286 356//287 358//289
f 355//286 358//289 360//291 359//290
f 361//292 355//286 359//290
f 360//291 363//294 362//293 359//290
f 366//297 365//296 364//295 362//293
f 363//294 366//297 362//293
f 364//295 365//296 367//298
f 370//301 369//300 368//299 367//298
f 365//296 371//302 370//301 367//298
f 368//299 369//300 373//304 372//303
f 372//303 373//304 375//306 374//305
f 374//305 375//306 377//306 376//305
f 376//305 377//306 379//308 378//307
f 378//307 379//308 381//310 380//309
f 385//314 384//313 383//312 382//311
f 380//309 381//310 385//314 382//311
f 383//312 384//313 386//315
f 384//313 388//317 387//316 386//315
f 386//315 387//316 390//319 389//318
f 389//318 390//319 392//321 391//320
f 391//320 392//321 394//323 393//322
f 394//323 396//325 395//324 393//322
f 395//324 396//325 398//327 397//326
f 396//325 399//328 398//327
f 397//326 402//331 401//330 400//329
f 403//332 395//324 397//326 400//329
f 402//331 405//334 404//333 401//330
f 405//334 347//279 406//335 404//333
f 406//335 408//337 407//336 404//333
f 410//335 409//338 408//337 406//335
f 412//340 411//339 409//338 410//335
f 357//288 413//341 411//339 412//340
f 411//339 413//341 415//343 414//342
f 416//344 411//339 414//342
f 354//285 361//292 417//345 415//343
f 413//341 354//285 415//343
f 415//343 417//345 419//347 418//346
f 419//347 417//345 421//349 420//348
f 421//349 423//351 422//350 420//348
f 423//351 425//353 424//352 422//350
f 424//352 425//353 427//355 426//354
f 426//354 427//355 429//357 428//356
f 428//356 429//357 414//342 430//358
f 432//360 428//356 430//358 431//359
f 430//358 418//346 433//361 431//359
f 431//359 433//361 435//363 434//362
f 433//361 437//365 436//364 435//363
f 436//364 437//365 439//367 438//366
f 439//367 441//369 440//368 438//366
f 441//369 443//371 442//370 440//368
f 442//370 443//371 445//373 444//372
f 444//372 445//373 432//360 446//374
f 448//376 444//372 446//374 447//375
f 447//375 446//374 434//362 449//377
f 450//378 442//370 444//372 448//376
f 438//366 440//368 452//380 451//379
f 451//379 452//380 454//382 453//381
f 453//381 454//382 456//384 455//383
f 454//382 458//386 457//385 456//384
f 460//388 459//387 453//381 455//383
f 462//390 459//387 460//388 461//389
f 464//392 462//390 461//389 463//391
f 449//377 465//393 462//390 464//392
f 463//391 461//389 467//395 466//394
f 469//397 468//396 463//391 466//394
f 471//399 470//398 468//396 469//397
f 472//400 457//385 470//398 471//399
f 474//402 472//400 471//399 473//401
f 476//404 472//400 474//402 475//403
f 478//406 476//404 475//403 477//405
f 480//408 479//407 478//406 477//405
f 467//395 479//407 480//408 481//409
f 481//409 480//408 483//411 482//410
f 485//413 481//409 482//410 484//412
f 487//415 486//414 485//413 484//412
f 488//416 473//401 486//414 487//415
f 489//417 488//416 487//415
f 490//418 489//417 487//415 484//412
f 492//420 491//419 489//417 490//418
f 494//422 491//419 492//420 493//421
f 495//423 491//419 494//422
f 492//420 483//411 493//421
f 482//410 490//418 484//412
f 483//411 492//420 490//418 482//410
f 483//411 480//408 477//405 493//421
f 477//405 475//403 494//422 493//421
f 475//403 474//402 495//423 494//422
f 495//423 474//402 473//401 488//416
f 473//401 471//399 469//397 486//414
f 486//414 469//397 466//394 485//413
f 466//394 467//395 481//409 485//413
f 455//383 456//384 476//404 478//406
f 434//362 435//363 465//393 449//377
f 446//374 432//360 431//359 434//362
f 498//426 497//425 496//424 429//357
f 427//355 498//426 429//357
f 445//373 426//354 428//356 432//360
f 443//371 424//352 426//354 445//373
f 422//350 424//352 443//371 441//369
f 420//348 422//350 441//369 439//367
f 437//365 419//347 420//348 439//367
f 418//346 419//347 437//365 433//361
f 429//357 496//424 416//344 414//342
f 416//344 496//424 500//428 499//427
f 499//427 500//428 502//430 501//429
f 501//429 502//430 504//432 503//431
f 503//431 504//432 506//434 505//433
f 505//433 506//434 508//436 507//435
f 506//434 509//437 382//311 508//436
f 510//438 505//433 507//435 400//329
f 508//436 512//440 511//439 507//435
f 504//432 513//441 509//437 506//434
f 407//336 503//431 505//433 510//438
f 502//430 514//442 513//441 504//432
f 500//428 515//443 514//442 502//430
f 414//342 415//343 418//346 430//358
f 411//339 416//344 499//427 409//338
f 409//338 499//427 501//429 408//337
f 408//337 501//429 503//431 407//336
f 517//445 405//334 402//331 516//444
f 404//333 407//336 510//438 401//330
f 507//435 511//439 403//332 400//329
f 516//444 402//331 397//326
f 401//330 510//438 400//329
f 518//446 399//328 396//325 394//323
f 519//447 518//446 394//323
f 520//448 399//328 518//446
f 395//324 403//332 393//322
f 392//321 521//449 519//447 394//323
f 403//332 511//439 391//320 393//322
f 390//319 522//450 521//449 392//321
f 511//439 512//440 389//318 391//320
f 387//316 523//451 522//450 390//319
f 525//453 524//452 523//451 387//316
f 388//317 525//453 387//316
f 525//453 388//317 526//454
f 528//456 527//455 525//453 526//454
f 529//457 528//456 526//454
f 530//458 529//457 526//454 385//314
f 532//460 531//459 529//457 530//458
f 534//462 533//461 531//459 532//460
f 536//462 535//461 533//461 534//462
f 538//464 537//463 535//461 536//462
f 540//466 539//465 537//463 538//464
f 541//467 539//465 540//466 370//301
f 544//470 543//469 542//468 537//463
f 539//465 544//470 537//463
f 545//471 542//468 543//469
f 547//473 542//468 545//471 546//472
f 549//473 547//473 546//472 548//472
f 551//475 549//473 548//472 550//474
f 551//475 550//474 552//476
f 535//461 547//473 549//473 533//461
f 533//461 549//473 551//475 531//459
f 525//453 527//455 524//452
f 381//310 530//458 385//314
f 382//311 383//312 512//440 508//436
f 526//454 388//317 384//313 385//314
f 509//437 380//309 382//311
f 381//310 379//308 532//460 530//458
f 509//437 513//441 378//307 380//309
f 379//308 377//306 534//462 532//460
f 513//441 514//442 376//305 378//307
f 377//306 375//306 536//462 534//462
f 514//442 515//443 374//305 376//305
f 375//306 373//304 538//464 536//462
f 515//443 497//425 372//303 374//305
f 373//304 369//300 540//466 538//464
f 497//425 498//426 368//299 372//303
f 540//466 369//300 370//301
f 371//302 553//477 541//467 370//301
f 554//478 553//477 371//302 366//297
f 556//480 555//479 553//477 554//478
f 557//481 556//480 554//478
f 558//482 555//479 556//480
f 560//484 557//481 554//478 559//483
f 562//486 560//484 559//483 561//485
f 564//488 562//486 561//485 563//487
f 565//489 320//261 564//488 563//487
f 566//490 565//489 563//487
f 568//492 567//491 562//486 564//488
f 318//260 568//492 564//488
f 567//491 569//493 560//484 562//486
f 571//495 569//493 567//491 570//494
f 573//497 572//496 571//495 570//494
f 575//499 574//498 572//496 573//497
f 577//501 576//500 574//498 575//499
f 579//503 576//500 577//501 578//502
f 580//504 576//500 579//503
f 577//501 581//505 578//502
f 583//507 582//506 579//503 578//502
f 585//509 582//506 583//507 584//508
f 586//510 582//506 585//509
f 588//512 587//511 586//510 585//509
f 586//510 587//511 590//514 589//513
f 593//517 592//516 591//515 590//514
f 587//511 593//517 590//514
f 592//516 593//517 595//519 594//518
f 595//519 593//517 588//512 596//520
f 597//521 595//519 596//520
f 598//522 597//521 596//520 584//508
f 600//524 597//521 598//522 599//523
f 602//526 600//524 599//523 601//525
f 604//528 602//526 601//525 603//527
f 314//257 604//528 603//527 568//492
f 606//530 605//529 602//526 604//528
f 608//532 607//531 605//529 606//530
f 610//534 609//533 607//531 608//532
f 609//533 612//536 611//535 607//531
f 613//537 609//533 610//534 308//251
f 603//527 601//525 615//539 614//538
f 611//535 612//536 592//516 594//518
f 583//507 598//522 584//508
f 596//520 588//512 585//509 584//508
f 581//505 577//501 575//499 615//539
f 572//496 574//498 617//541 616//540
f 617//541 618//542 305//248 616//540
f 580//504 589//513 618//542 617//541
f 615//539 575//499 573//497 614//538
f 572//496 616//540 571//495
f 614//538 573//497 570//494
f 553//477 555//479 541//467
f 368//299 498//426 367//298
f 364//295 367//298 498//426 427//355
f 425//353 364//295 427//355
f 371//302 365//296 366//297
f 362//293 364//295 425//353 423//351
f 561//485 559//483 363//294 360//291
f 359//290 362//293 423//351 421//349
f 563//487 561//485 360//291 358//289
f 417//345 361//292 359//290 421//349
f 356//287 566//490 563//487 358//289
f 355//286 361//292 354//285
f 619//543 566//490 356//287 353//284
f 413//341 357//288 354//285
f 352//283 620//544 619//543 353//284
f 349//280 351//282 357//288 412//340
f 343//276 620//544 352//283 350//281
f 348//279 349//280 412//340 410//335
f 345//278 347//279 405//334 517//445
f 347//279 348//279 410//335 406//335
f 337//272 339//274 345//278 517//445
f 520//448 338//273 336//271 398//327
f 399//328 520//448 398//327
f 336//271 337//272 517//445 516//444
f 259//222 621//267 331//267 333//222
f 330//266 340//275 335//270 332//268
f 621//267 622//267 329//267 331//267
f 328//266 342//275 340//275 330//266
f 622//267 249//214 326//214 329//267
f 327//265 344//277 342//275 328//266
f 344//277 327//265 324//264
f 324//264 322//263 620//544 343//276
f 344//277 324//264 343//276
f 322//263 321//262 565//489 619//543
f 620//544 322//263 619//543
f 565//489 321//262 320//261
f 317//259 318//260 564//488 320//261
f 313//256 314//257 568//492 318//260
f 307//250 610//534 608//532 309//252
f 306//249 312//255 623//545 301//244
f 302//245 306//249 301//244
f 303//246 300//243 557//481 560//484
f 569//493 303//246 560//484
f 623//545 624//546 299//242 301//244
f 300//243 298//241 556//480 557//481
f 624//546 625//547 296//240 299//242
f 626//548 625//547 624//546
f 626//548 195//164 628//550 627//549
f 625//547 626//548 627//549
f 628//550 631//553 630//552 629//551
f 627//549 628//550 629//551
f 633//555 630//552 631//553 632//554
f 635//555 633//555 632//554 634//554
f 637//557 635//555 634//554 636//556
f 636//556 212//179 639//559 638//558
f 637//557 636//556 638//558
f 640//560 637//557 638//558
f 641//561 635//555 637//557 640//560
f 642//561 633//555 635//555 641//561
f 643//562 630//552 633//555 642//561
f 630//552 643//562 629//551
f 298//241 297//240 558//482 556//480
f 558//482 297//240 295//239 544//470
f 294//239 627//549 629//551 293//238
f 544//470 295//239 292//238 543//469
f 629//551 643//562 290//237 293//238
f 292//238 291//237 545//471 543//469
f 545//471 291//237 289//236 546//472
f 288//236 642//561 641//561 286//236
f 546//472 289//236 287//236 548//472
f 286//236 641//561 640//560 284//235
f 548//472 287//236 285//235 550//474
f 284//235 640//560 638//558 283//234
f 550//474 285//235 282//234 552//476
f 282//234 281//233 528//456 552//476
f 280//233 639//559 644//563 278//232
f 528//456 281//233 279//232 527//455
f 278//232 644//563 645//564 276//231
f 644//563 646//565 645//564
f 527//455 279//232 277//231 524//452
f 276//231 645//564 647//566 274//230
f 524//452 277//231 275//230 523//451
f 523//451 275//230 273//229 522//450
f 272//229 649//568 648//567 270//228
f 522//450 273//229 271//228 521//449
f 270//228 648//567 650//569 268//227
f 521//449 271//228 269//227 519//447
f 268//227 650//569 651//570 267//226
f 519//447 269//227 266//226 518//446
f 651//570 652//571 265//225 267//226
f 653//572 652//571 651//570
f 266//226 264//225 520//448 518//446
f 264//225 263//224 338//273 520//448
f 338//273 263//224 262//221 334//269
f 258//221 259//222 333//222 262//221
f 255//218 253//216 621//267 259//222
f 253//216 251//216 622//267 621//267
f 326//214 249//214 246//211 325//211
f 246//211 244//209 323//209 325//211
f 244//209 245//210 319//210 323//209
f 654//573 183//152 238//203 236//201
f 235//200 237//202 240//205 247//212
f 250//215 235//200 247//212
f 235//200 250//215 252//217 233//198
f 656//574 655//574 234//199 232//199
f 658//575 655//574 656//574 657//575
f 177//146 654//573 655//574 658//575
f 657//575 656//574 660//577 659//576
f 659//576 660//577 662//579 661//578
f 664//581 663//580 659//576 661//578
f 664//581 661//578 665//582
f 663//580 666//583 657//575 659//576
f 666//583 173//142 658//575 657//575
f 233//198 252//217 254//217 231//198
f 660//577 656//574 232//199 230//197
f 231//198 254//217 256//219 229//196
f 662//579 660//577 230//197 228//195
f 227//194 229//196 256//219 257//220
f 260//223 227//194 257//220
f 225//192 227//194 260//223 652//571
f 653//572 225//192 652//571
f 665//582 661//578 662//579 226//193
f 224//191 667//584 665//582 226//193
f 667//584 668//585 164//133 665//582
f 653//572 223//190 225//192
f 667//584 224//191 222//189
f 221//188 223//190 653//572 651//570
f 650//569 221//188 651//570
f 220//187 668//585 667//584 222//189
f 648//567 219//186 221//188 650//569
f 218//185 669//586 668//585 220//187
f 649//568 217//184 219//186 648//567
f 216//183 670//587 669//586 218//185
f 647//566 215//182 217//184 649//568
f 214//181 670//587 216//183
f 646//565 213//180 215//182 647//566
f 645//564 646//565 647//566
f 213//180 646//565 211//178
f 212//179 211//178 646//565 644//563
f 639//559 212//179 644//563
f 634//554 204//171 206//173 636//556
f 632//554 202//171 204//171 634//554
f 628//550 199//168 200//169 631//553
f 626//548 193//162 195//164
f 198//167 194//163 192//161
f 193//162 626//548 624//546 623//545
f 191//160 193//162 623//545
f 189//158 191//160 623//545 312//255
f 187//156 189//158 312//255 311//254
f 185//154 187//156 311//254 315//258
f 186//155 185//154 315//258 243//208
f 242//207 186//155 243//208
f 140//110 182//151 179//148
f 238//203 183//152 180//149
f 178//147 183//152 654//573 177//146
f 173//142 174//143 177//146 658//575
f 168//137 170//139 173//142 666//583
f 166//135 168//137 666//583 663//580
f 165//134 166//135 663//580 664//581
f 164//133 165//134 664//581 665//582
f 668//585 669//586 162//131 164//133
f 161//130 670//587 214//181 210//177
f 209//176 159//128 161//130 210//177
f 160//129 158//127 167//136 163//132
f 209//176 207//174 157//126 159//128
f 158//127 156//125 169//138 167//136
f 207//174 205//172 155//123 157//126
f 156//125 154//124 171//140 169//138
f 205//172 203//172 153//123 155//123
f 203//172 201//170 151//121 153//123
f 201//170 197//166 152//122 151//121
f 172//141 150//120 148//118 175//144
f 146//116 152//122 145//115
f 198//167 143//113 145//115
f 139//109 141//111 190//159 188//157
f 140//110 139//109 188//157 184//153
f 182//151 140//110 184//153
f 136//106 137//107 140//110 179//148
f 176//145 136//106 179//148
f 130//100 132//102 136//106 175//144
f 129//99 671//588 109//79 131//101
f 148//118 128//98 130//100 175//144
f 127//97 672//589 671//588 129//99
f 147//117 126//96 128//98 148//118
f 125//95 117//87 672//589 127//97
f 144//114 124//94 126//96 147//117
f 123//93 124//94 144//114 142//112
f 134//104 135//105 120//90 122//92
f 122//92 123//93 142//112 138//108
f 109//79 110//80 133//103 131//101
f 72//42 90//60 78//48 74//44
f 70//40 88//58 90//60 72//42
f 67//37 86//56 88//58 70//40
f 81//51 68//38 65//35 119//89
f 83//53 86//56 67//37 68//38
f 105//75 102//72 104//74 106//76
f 673//590 79//49 81//51 119//89
f 76//46 79//49 673//590 75//45
f 118//88 66//36 69//39 674//591
f 65//35 66//36 118//88 116//86
f 674//591 69//39 71//41 675//592
f 112//82 673//590 119//89 114//84
f 75//45 673//590 112//82 108//78
f 675//592 71//41 73//43 107//77
f 117//87 118//88 674//591 672//589
f 115//85 117//87 125//95 121//91
f 672//589 674//591 675//592 671//588
f 135//105 111//81 113//83 120//90
f 110//80 111//81 135//105 133//103
f 671//588 675//592 107//77 109//79
f 612//536 591//515 592//516
f 591//515 612//536 609//533 613//537
f 308//251 610//534 307//250
f 676//593 611//535 594//518
f 607//531 611//535 676//593 605//529
f 608//532 606//530 309//252
f 590//514 591//515 613//537 677//594
f 677//594 613//537 308//251 304//247
f 593//517 587//511 588//512
f 594//518 595//519 597//521 600//524
f 676//593 594//518 600//524
f 605//529 676//593 600//524 602//526
f 309//252 606//530 604//528 314//257
f 310//253 309//252 314//257
f 589//513 590//514 677//594 618//542
f 618//542 677//594 304//247 305//248
f 586//510 589//513 580//504 579//503
f 582//506 586//510 579//503
f 574//498 576//500 580//504 617//541
f 305//248 303//246 569//493 571//495
f 616//540 305//248 571//495
f 599//523 598//522 583//507 578//502
f 581//505 599//523 578//502
f 601//525 599//523 581//505 615//539
f 568//492 603//527 614//538 570//494
f 567//491 568//492 570//494
f 196//165 199//168 628//550 195//164
f 631//553 200//169 202//171 632//554
f 636//556 206//173 208//175 212//179
f 143//113 198//167 192//161 190//159
f 141//111 143//113 190//159
f 154//124 149//119 150//120 171//140
f 669//586 670//587 161//130 162//131
f 180//149 181//150 186//155 239//204
f 655//574 654//573 236//201 234//199
f 662//579 228//195 226//193
f 296//240 625//547 627//549 294//239
f 290//237 643//562 642//561 288//236
f 638//558 639//559 280//233 283//234
f 274//230 647//566 649//568 272//229
f 245//210 241//206 243//208 316//259
f 251//216 248//213 249//214 622//267
f 652//571 260//223 261//224 265//225
f 558//482 544//470 539//465 541//467
f 555//479 558//482 541//467
f 537//463 542//468 547//473 535//461
f 551//475 552//476 528//456 529//457
f 531//459 551//475 529//457
f 559//483 554//478 366//297 363//294
f 496//424 497//425 515//443 500//428
f 512//440 383//312 386//315 389//318
f 565//489 566//490 619//543
f 341//274 343//276 350//281 346//278
f 398//327 336//271 516//444 397//326
f 440//368 442//370 450//378 452//380
f 678//595 436//364 438//366 451//379
f 435//363 436//364 678//595 465//393
f 458//386 450//378 448//376 679//596
f 452//380 450//378 458//386 454//382
f 679//596 448//376 447//375 680//597
f 459//387 678//595 451//379 453//381
f 465//393 678//595 459//387 462//390
f 680//597 447//375 449//377 464//392
f 457//385 458//386 679//596 470//398
f 456//384 457//385 472//400 476//404
f 489//417 491//419 495//423 488//416
f 470//398 679//596 680//597 468//396
f 479//407 460//388 455//383 478//406
f 461//389 460//388 479//407 467//395
f 468//396 680//597 464//392 463//391
