# Blender 5.0.0
# www.blender.org
mtllib thrower_reset0068.mtl
o Cylinder
v 0.000000 3.270831 -0.249686
v 0.000000 3.270831 0.249686
v -2.367692 6.129623 -0.815032
v 0.318839 3.239539 0.249686
v 0.625427 3.146865 -0.249686
v 0.625427 3.146865 0.249686
v 0.907978 2.996371 -0.249686
v 0.907978 2.996371 0.249686
v 1.155637 2.793840 -0.249686
v 1.155637 2.793840 0.249686
v 1.358886 2.547055 -0.249686
v 1.358886 2.547055 0.249686
v 1.509913 2.265501 -0.249686
v 1.509913 2.265501 0.249686
v 1.602915 1.959997 -0.249686
v 1.602915 1.959997 0.249686
v 1.634318 1.642283 -0.249686
v 1.634318 1.642283 0.249686
v 1.602915 1.324569 -0.249686
v 1.602915 1.324569 0.249686
v 1.509913 1.019064 -0.249686
v 1.509913 1.019064 0.249686
v 1.358886 0.737510 -0.249686
v 1.358886 0.737510 0.249686
v 1.155637 0.490726 -0.249686
v 1.155637 0.490726 0.249686
v 0.907979 0.288195 -0.249686
v 0.907978 0.288195 0.249686
v 0.625426 0.137701 -0.249686
v 0.625427 0.137701 0.249686
v 0.318840 0.045027 -0.249686
v 0.318840 0.045027 0.249686
v 0.000000 0.013735 -0.249686
v 0.000000 0.013735 0.249686
v -0.318839 0.045027 -0.249686
v -0.318839 0.045027 0.249686
v -0.625426 0.137701 -0.249686
v -0.625426 0.137701 0.249686
v -0.907978 0.288194 -0.249686
v -0.907978 0.288194 0.249686
v -1.155637 0.490725 -0.249686
v -1.155637 0.490725 0.249686
v -1.358885 0.737510 -0.249686
v -1.358885 0.737510 0.249686
v -1.509912 1.019064 -0.249686
v -1.509912 1.019064 0.249686
v -1.602914 1.324569 -0.249686
v -1.602915 1.324569 0.249686
v -1.634318 1.642283 -0.249686
v -1.634318 1.642283 0.249686
v -1.602915 1.959997 -0.249686
v -1.602915 1.959997 0.249686
v -1.509912 2.265501 -0.249686
v -1.509912 2.265501 0.249686
v -1.358885 2.547055 -0.249686
v -1.358885 2.547055 0.249686
v -1.155637 2.793840 -0.249686
v -1.155637 2.793840 0.249686
v -0.907978 2.996371 -0.249686
v -0.907978 2.996371 0.249686
v -0.625426 3.146865 -0.249686
v -0.625426 3.146865 0.249686
v -0.318839 3.239539 -0.249686
v -0.318839 3.239539 0.249686
vn -0.7611 -0.4601 0.4571
vn 0.6355 0.7288 0.2549
vn 0.4701 0.8826 -0.0000
vn 0.6331 0.7741 -0.0000
vn 0.7719 0.6357 -0.0000
vn 0.8812 0.4727 -0.0000
vn 0.9567 0.2912 -0.0000
vn 0.9952 0.0984 -0.0000
vn 0.9952 -0.0984 -0.0000
vn 0.9567 -0.2912 -0.0000
vn 0.8812 -0.4727 -0.0000
vn 0.7719 -0.6357 -0.0000
vn 0.6331 -0.7741 -0.0000
vn 0.4701 -0.8826 -0.0000
vn 0.2893 -0.9572 -0.0000
vn 0.0977 -0.9952 -0.0000
vn -0.0977 -0.9952 -0.0000
vn -0.2893 -0.9572 -0.0000
vn -0.4701 -0.8826 -0.0000
vn -0.6331 -0.7741 -0.0000
vn -0.7719 -0.6357 -0.0000
vn -0.8812 -0.4727 -0.0000
vn -0.9567 -0.2912 -0.0000
vn -0.9952 -0.0984 -0.0000
vn -0.9952 0.0984 -0.0000
vn -0.9567 0.2912 -0.0000
vn -0.8812 0.4727 -0.0000
vn -0.7719 0.6357 -0.0000
vn -0.6331 0.7741 -0.0000
vn -0.4701 0.8826 -0.0000
vn -0.0000 -0.0000 1.0000
vn -0.2893 0.9572 -0.0000
vn -0.0977 0.9952 -0.0000
vn -0.0039 -0.0195 -0.9998
vt 1.000000 0.500000
vt 1.000000 1.000000
vt 0.968750 1.000000
vt 0.968750 0.500000
vt 0.937500 1.000000
vt 0.937500 0.500000
vt 0.906250 1.000000
vt 0.906250 0.500000
vt 0.875000 1.000000
vt 0.875000 0.500000
vt 0.843750 1.000000
vt 0.843750 0.500000
vt 0.812500 1.000000
vt 0.812500 0.500000
vt 0.781250 1.000000
vt 0.781250 0.500000
vt 0.750000 1.000000
vt 0.750000 0.500000
vt 0.718750 1.000000
vt 0.718750 0.500000
vt 0.687500 1.000000
vt 0.687500 0.500000
vt 0.656250 1.000000
vt 0.656250 0.500000
vt 0.625000 1.000000
vt 0.625000 0.500000
vt 0.593750 1.000000
vt 0.593750 0.500000
vt 0.562500 1.000000
vt 0.562500 0.500000
vt 0.531250 1.000000
vt 0.531250 0.500000
vt 0.500000 1.000000
vt 0.500000 0.500000
vt 0.468750 1.000000
vt 0.468750 0.500000
vt 0.437500 1.000000
vt 0.437500 0.500000
vt 0.406250 1.000000
vt 0.406250 0.500000
vt 0.375000 1.000000
vt 0.375000 0.500000
vt 0.343750 1.000000
vt 0.343750 0.500000
vt 0.312500 1.000000
vt 0.312500 0.500000
vt 0.281250 1.000000
vt 0.281250 0.500000
vt 0.250000 1.000000
vt 0.250000 0.500000
vt 0.218750 1.000000
vt 0.218750 0.500000
vt 0.187500 1.000000
vt 0.187500 0.500000
vt 0.156250 1.000000
vt 0.156250 0.500000
vt 0.125000 1.000000
vt 0.125000 0.500000
vt 0.093750 1.000000
vt 0.093750 0.500000
vt 0.062500 1.000000
vt 0.062500 0.500000
vt 0.296822 0.485388
vt 0.250000 0.490000
vt 0.203178 0.485388
vt 0.158156 0.471731
vt 0.116663 0.449553
vt 0.080294 0.419706
vt 0.050447 0.383337
vt 0.028269 0.341844
vt 0.014612 0.296822
vt 0.010000 0.250000
vt 0.014612 0.203178
vt 0.028269 0.158156
vt 0.050447 0.116663
vt 0.080294 0.080294
vt 0.116663 0.050447
vt 0.158156 0.028269
vt 0.203178 0.014612
vt 0.250000 0.010000
vt 0.296822 0.014612
vt 0.341844 0.028269
vt 0.383337 0.050447
vt 0.419706 0.080294
vt 0.449553 0.116663
vt 0.471731 0.158156
vt 0.485388 0.203178
vt 0.490000 0.250000
vt 0.485388 0.296822
vt 0.471731 0.341844
vt 0.449553 0.383337
vt 0.419706 0.419706
vt 0.383337 0.449553
vt 0.341844 0.471731
vt 0.031250 1.000000
vt 0.031250 0.500000
vt 0.000000 1.000000
vt 0.000000 0.500000
vt 0.750000 0.490000
vt 0.796822 0.485388
vt 0.841844 0.471731
vt 0.883337 0.449553
vt 0.919706 0.419706
vt 0.949553 0.383337
vt 0.971731 0.341844
vt 0.985388 0.296822
vt 0.990000 0.250000
vt 0.985388 0.203178
vt 0.971731 0.158156
vt 0.949553 0.116663
vt 0.919706 0.080294
vt 0.883337 0.050447
vt 0.841844 0.028269
vt 0.796822 0.014612
vt 0.750000 0.010000
vt 0.703178 0.014612
vt 0.658156 0.028269
vt 0.616663 0.050447
vt 0.580294 0.080294
vt 0.550447 0.116663
vt 0.528269 0.158156
vt 0.514612 0.203178
vt 0.510000 0.250000
vt 0.514612 0.296822
vt 0.528269 0.341844
vt 0.550447 0.383337
vt 0.580294 0.419706
vt 0.616663 0.449553
vt 0.658156 0.471731
vt 0.703178 0.485388
s 0
f 1/1/1 2/2/1 4/3/1 3/4/1
f 3/4/2 4/3/2 6/5/2 5/6/2
f 5/6/3 6/5/3 8/7/3 7/8/3
f 7/8/4 8/7/4 10/9/4 9/10/4
f 9/10/5 10/9/5 12/11/5 11/12/5
f 11/12/6 12/11/6 14/13/6 13/14/6
f 13/14/7 14/13/7 16/15/7 15/16/7
f 15/16/8 16/15/8 18/17/8 17/18/8
f 17/18/9 18/17/9 20/19/9 19/20/9
f 19/20/10 20/19/10 22/21/10 21/22/10
f 21/22/11 22/21/11 24/23/11 23/24/11
f 23/24/12 24/23/12 26/25/12 25/26/12
f 25/26/13 26/25/13 28/27/13 27/28/13
f 27/28/14 28/27/14 30/29/14 29/30/14
f 29/30/15 30/29/15 32/31/15 31/32/15
f 31/32/16 32/31/16 34/33/16 33/34/16
f 33/34/17 34/33/17 36/35/17 35/36/17
f 35/36/18 36/35/18 38/37/18 37/38/18
f 37/38/19 38/37/19 40/39/19 39/40/19
f 39/40/20 40/39/20 42/41/20 41/42/20
f 41/42/21 42/41/21 44/43/21 43/44/21
f 43/44/22 44/43/22 46/45/22 45/46/22
f 45/46/23 46/45/23 48/47/23 47/48/23
f 47/48/24 48/47/24 50/49/24 49/50/24
f 49/50/25 50/49/25 52/51/25 51/52/25
f 51/52/26 52/51/26 54/53/26 53/54/26
f 53/54/27 54/53/27 56/55/27 55/56/27
f 55/56/28 56/55/28 58/57/28 57/58/28
f 57/58/29 58/57/29 60/59/29 59/60/29
f 59/60/30 60/59/30 62/61/30 61/62/30
f 4/63/31 2/64/31 64/65/31 62/66/31 60/67/31 58/68/31 56/69/31 54/70/31 52/71/31 50/72/31 48/73/31 46/74/31 44/75/31 42/76/31 40/77/31 38/78/31 36/79/31 34/80/31 32/81/31 30/82/31 28/83/31 26/84/31 24/85/31 22/86/31 20/87/31 18/88/31 16/89/31 14/90/31 12/91/31 10/92/31 8/93/31 6/94/31
f 61/62/32 62/61/32 64/95/32 63/96/32
f 63/96/33 64/95/33 2/97/33 1/98/33
f 1/99/34 3/100/34 5/101/34 7/102/34 9/103/34 11/104/34 13/105/34 15/106/34 17/107/34 19/108/34 21/109/34 23/110/34 25/111/34 27/112/34 29/113/34 31/114/34 33/115/34 35/116/34 37/117/34 39/118/34 41/119/34 43/120/34 45/121/34 47/122/34 49/123/34 51/124/34 53/125/34 55/126/34 57/127/34 59/128/34 61/129/34 63/130/34
o Mball.006
v 3.706032 4.386107 0.185038
v 3.529576 4.339553 0.090793
v 3.616020 4.088327 0.158484
v 3.792476 4.134881 0.252728
v 2.681123 4.214920 0.005610
v 2.767566 3.963694 0.073300
v 1.896447 4.133205 0.051264
v 1.982892 3.881979 0.118955
v 1.718556 4.267048 0.626736
v 1.804999 4.015823 0.694427
v 2.440575 4.395905 0.783773
v 2.527019 4.144679 0.851464
v 2.613463 3.893453 0.919155
v 1.891444 3.764597 0.762118
v 3.389048 4.259097 0.892728
v 3.475492 4.007872 0.960419
v 3.614585 4.268724 0.828201
v 3.701029 4.017498 0.895891
v 3.878920 3.883656 0.320419
v 3.927048 3.627075 0.385277
v 3.749156 3.760918 0.960750
v 3.702464 3.837102 0.226175
v 3.784557 3.589150 0.307941
v 2.854011 3.712469 0.140991
v 2.936944 3.463884 0.220041
v 2.069336 3.630754 0.186645
v 2.194137 3.384890 0.257171
v 2.016246 3.518732 0.832644
v 2.265183 3.290215 0.912347
v 2.443074 3.156373 0.336875
v 2.703419 3.639585 0.975486
v 2.803457 3.378132 0.999198
v 3.566288 3.753372 1.014033
v 3.670582 3.488717 1.023981
v 3.690658 3.489436 1.017725
v 3.679253 3.468554 1.021373
v 3.868550 3.355593 0.442253
v 3.857145 3.334711 0.445900
v 2.858752 3.248065 0.985352
v 3.036644 3.114223 0.409880
v 3.853152 3.351354 0.433375
v 3.009794 3.222888 0.331710
v 1.632111 4.518274 0.559046
v 2.354131 4.647130 0.716083
v 1.545668 4.769500 0.491355
v 2.267686 4.898356 0.648392
v 3.129715 5.012774 0.689656
v 3.216160 4.761549 0.757347
v 3.355252 5.022401 0.625129
v 3.441697 4.771175 0.692820
v 3.533144 4.888559 0.049656
v 3.619588 4.637333 0.117347
v 3.356687 4.842005 -0.044588
v 3.443132 4.590778 0.023103
v 3.528141 4.519950 0.760510
v 3.268808 5.273627 0.557438
v 3.446699 5.139784 -0.018034
v 3.150890 5.520453 0.487421
v 3.328781 5.386611 -0.088052
v 3.180235 5.347136 -0.168443
v 3.270244 5.093230 -0.112279
v 2.332468 5.221988 -0.255844
v 2.421790 4.968596 -0.197463
v 1.581925 5.142476 -0.217188
v 1.637115 4.886882 -0.151808
v 1.404034 5.276319 0.358284
v 1.459224 5.020725 0.423664
v 2.097675 5.398642 0.503702
v 2.181242 5.149581 0.580701
v 2.960390 5.512545 0.542748
v 3.043272 5.264000 0.621965
v 2.015115 5.646946 0.423448
v 2.886878 5.754041 0.433224
v 2.953192 5.756131 0.411506
v 2.827382 6.001855 0.340905
v 2.804132 6.002484 0.353570
v 3.005273 5.868012 -0.234568
v 3.131083 5.622288 -0.163967
v 2.990717 5.862100 -0.250027
v 3.080859 5.608092 -0.194300
v 2.034732 5.852797 -0.899998
v 2.067401 5.762754 -0.899998
v 2.242140 5.476135 -0.310972
v 1.531295 5.398707 -0.282231
v 2.110820 5.243497 -0.899998
v 1.304823 5.542227 -0.339755
v 2.034732 5.243497 -1.046490
v 2.034732 5.762754 -0.957779
v 2.034732 4.724241 -1.046490
v 2.110820 4.724241 -0.899998
v 2.034732 4.204984 -1.046490
v 2.110820 4.204984 -0.899998
v 2.034732 3.685727 -1.046490
v 2.110820 3.685727 -0.899998
v 2.034732 3.166471 -0.957779
v 2.067402 3.166471 -0.899998
v 2.034732 3.076428 -0.899998
v 2.034732 2.956795 -0.299999
v 2.115814 3.166471 -0.299999
v 2.034732 2.956795 0.300000
v 2.115814 3.166471 0.299999
v 2.153902 3.685727 0.300000
v 2.153902 3.685727 -0.299999
v 2.153902 4.204984 0.299999
v 2.153902 4.204984 -0.299999
v 2.153902 4.724240 0.299999
v 2.153902 4.724240 -0.299999
v 1.126931 5.676069 0.235718
v 2.110820 4.724240 0.899998
v 2.110821 5.243497 0.899998
v 1.353403 5.532550 0.293241
v 2.067402 5.762754 0.899998
v 2.034732 5.243497 1.046490
v 2.034732 5.762754 0.957779
v 2.034732 5.852797 0.899998
v 1.582569 5.808151 1.499997
v 1.582570 6.282010 1.143507
v 1.765596 6.282010 0.899998
v 1.604984 5.762753 1.499997
v 1.582569 6.436028 0.899998
v 1.130407 6.631892 0.899998
v 1.130407 6.282010 1.472477
v 1.130407 6.663046 0.299999
v 1.582569 6.484239 0.300000
v 1.130407 6.663046 -0.299999
v 1.582569 6.484239 -0.299999
v 1.130407 6.631892 -0.899998
v 1.582569 6.436028 -0.899998
v 1.130407 6.282010 -1.472477
v 1.582569 6.282010 -1.143507
v 1.130407 6.255620 -1.499997
v 1.582569 5.808151 -1.499997
v 1.604984 5.762753 -1.499997
v 1.765596 6.282010 -0.899998
v 1.582569 5.762753 -1.523737
v 1.582569 5.243497 -1.610848
v 1.681839 5.243497 -1.499997
v 1.582569 4.724240 -1.610848
v 1.681839 4.724240 -1.499997
v 1.582569 4.204984 -1.610848
v 1.681839 4.204984 -1.499997
v 1.582569 3.685728 -1.610848
v 1.681839 3.685727 -1.499997
v 1.582569 3.166471 -1.523737
v 1.604985 3.166471 -1.499997
v 1.582569 3.121074 -1.499997
v 1.130407 2.673604 -1.499997
v 1.130407 3.166471 -1.914503
v 1.130407 2.647214 -1.472477
v 1.582569 2.647214 -1.143507
v 1.130406 2.297333 -0.899998
v 1.582569 2.493196 -0.899999
v 1.130407 2.266178 -0.299999
v 1.582569 2.445172 -0.299999
v 1.130407 2.266178 0.300000
v 1.582569 2.445172 0.299999
v 1.130407 2.297333 0.899998
v 1.582569 2.493196 0.899998
v 1.130407 2.647214 1.472477
v 1.582569 2.647214 1.143507
v 1.130407 2.673604 1.499997
v 1.582569 3.121074 1.499997
v 1.130407 3.166471 1.914503
v 1.582569 3.166471 1.523737
v 1.130407 3.685727 2.037386
v 1.582569 3.685727 1.610848
v 1.130407 4.204984 2.037386
v 1.582569 4.204984 1.610848
v 1.130407 4.724240 2.037386
v 1.582569 4.724240 1.610848
v 1.130407 5.243497 2.037386
v 1.582569 5.243497 1.610848
v 1.130407 5.762754 1.914503
v 1.582569 5.762753 1.523737
v 1.130407 6.255620 1.499997
v 0.678244 5.762753 2.037206
v 0.678244 6.282010 1.562223
v 1.053943 6.282010 1.499997
v 0.678244 6.331481 1.499997
v 0.226081 5.762754 2.037206
v 0.226081 6.282010 1.562223
v 0.226081 5.617282 2.099996
v 0.678244 5.617282 2.099996
v 0.678244 5.243497 2.152194
v 0.226082 5.243497 2.152194
v 1.003732 5.243497 2.099996
v 0.678244 4.724240 2.152194
v 1.003732 4.724240 2.099996
v 0.678244 4.204984 2.152194
v 1.003732 4.204984 2.099996
v 0.678244 3.685727 2.152194
v 1.003731 3.685728 2.099996
v 0.678244 3.311943 2.099996
v 0.226081 3.311943 2.099996
v 0.226081 3.685727 2.152194
v 0.678244 3.166471 2.037206
v 0.226081 3.166471 2.037206
v -0.226081 3.311943 2.099996
v -0.226082 3.166471 2.037206
v -0.226081 2.647214 1.562223
v 0.226081 2.647214 1.562223
v -0.226081 2.597744 1.499997
v 0.226081 2.597744 1.499997
v 0.226081 2.268450 0.899998
v -0.226082 2.268450 0.899998
v 0.226081 2.236985 0.299999
v -0.226082 2.236985 0.299999
v 0.226081 2.236985 -0.299999
v -0.226081 2.236985 -0.299999
v 0.226081 2.268450 -0.899998
v -0.226081 2.268450 -0.899998
v 0.226081 2.597744 -1.499997
v -0.226082 2.597744 -1.499997
v 0.226081 2.647214 -1.562223
v -0.226081 2.647214 -1.562223
v 0.226081 3.166471 -2.037206
v -0.226082 3.166471 -2.037206
v -0.226081 3.311943 -2.099996
v 0.226081 3.311943 -2.099996
v 0.226081 3.685727 -2.152194
v -0.226082 3.685727 -2.152194
v 0.226081 4.204984 -2.152194
v -0.226082 4.204984 -2.152194
v 0.226081 4.724240 -2.152194
v -0.226081 4.724240 -2.152194
v 0.226081 5.243497 -2.152194
v -0.226082 5.243497 -2.152194
v -0.226081 5.617282 -2.099996
v 0.226081 5.617282 -2.099996
v 0.226081 5.762753 -2.037206
v -0.226082 5.762753 -2.037206
v 0.226081 6.282010 -1.562223
v -0.226081 6.282010 -1.562223
v -0.226081 6.331481 -1.499997
v 0.226081 6.331481 -1.499997
v -0.226081 6.660774 -0.899998
v 0.226082 6.660774 -0.899998
v 0.226082 6.801267 -0.303015
v -0.226081 6.801267 -0.303015
v 0.226081 7.320523 -0.543463
v -0.226082 7.320523 -0.543462
v 0.354920 6.801267 -0.299999
v 0.678244 7.100893 -0.299999
v 0.678244 7.320523 -0.420872
v 0.678244 7.100893 0.299999
v 0.354920 6.801267 0.299999
v 0.678244 6.697668 0.299999
v 0.678244 6.697668 -0.299999
v 0.226081 6.660774 0.899998
v 0.226081 6.801267 0.303015
v 0.678244 6.660774 0.899998
v 0.226081 6.331481 1.499997
v -0.226081 6.331481 1.499997
v -0.226081 6.660774 0.899998
v -0.226081 6.282010 1.562223
v -0.678244 6.331481 1.499997
v -0.678244 6.282010 1.562223
v -0.678244 5.762754 2.037206
v -0.226082 5.762754 2.037206
v -0.678244 5.617282 2.099996
v -0.226081 5.617282 2.099996
v -0.226082 5.243497 2.152194
v -0.678244 5.243497 2.152194
v -0.678244 4.724240 2.152194
v -0.226082 4.724240 2.152194
v -0.678244 4.204984 2.152194
v -0.226081 4.204984 2.152194
v -0.678244 3.685727 2.152194
v -0.226081 3.685727 2.152194
v -0.678244 3.311943 2.099996
v -1.003732 3.685728 2.099996
v -1.130407 3.166471 1.914503
v -1.130407 3.685727 2.037386
v -0.678244 3.166471 2.037206
v -1.130407 4.204984 2.037386
v -1.003732 4.204984 2.099996
v -1.130407 4.724240 2.037386
v -1.003732 4.724240 2.099996
v -1.130407 5.243497 2.037386
v -1.003732 5.243497 2.099996
v -1.582570 4.204984 1.610848
v -1.582570 4.724240 1.610848
v -1.681839 4.204984 1.499997
v -1.681839 4.724241 1.499997
v -1.681839 5.243497 1.499997
v -1.582569 5.243497 1.610848
v -1.604984 5.762753 1.499997
v -1.582569 5.762753 1.523737
v -1.582569 5.808151 1.499997
v -2.034732 5.852797 0.899998
v -1.765597 6.282010 0.899998
v -1.582569 6.282011 1.143507
v -2.034732 5.762753 0.957779
v -1.582570 6.436028 0.899998
v -2.656793 6.000123 0.417235
v -1.582570 6.484123 0.299999
v -2.652819 5.999499 0.419011
v -2.959184 6.008822 -0.155895
v -1.582569 6.484123 -0.299999
v -2.957623 6.008268 -0.158694
v -1.765597 6.282010 -0.899998
v -1.582570 6.436028 -0.899998
v -2.034732 5.852797 -0.899998
v -2.034732 5.762753 -0.957779
v -1.604984 5.762754 -1.499997
v -1.582570 5.808151 -1.499997
v -1.582570 6.282010 -1.143507
v -2.034732 5.243497 -1.046490
v -1.681839 5.243497 -1.499997
v -2.034732 4.724240 -1.046490
v -1.681839 4.724240 -1.499997
v -2.034732 4.204984 -1.046490
v -1.681839 4.204984 -1.499997
v -2.034732 3.685728 -1.046490
v -1.681839 3.685727 -1.499997
v -2.034732 3.166471 -0.957779
v -1.604984 3.166471 -1.499997
v -2.034733 3.076428 -0.899998
v -1.765597 2.647214 -0.899999
v -1.582570 2.647214 -1.143507
v -1.582569 3.121074 -1.499997
v -1.582569 2.493196 -0.899998
v -1.130407 2.297333 -0.899998
v -1.130407 2.647214 -1.472477
v -1.582569 2.445172 -0.300000
v -1.130407 2.266178 -0.299999
v -1.582570 2.445172 0.299999
v -1.130407 2.266178 0.299999
v -1.582569 2.493196 0.899998
v -1.130407 2.297333 0.899998
v -1.582569 2.647214 1.143507
v -1.130407 2.647214 1.472477
v -1.582569 3.121074 1.499997
v -1.130407 2.673604 1.499997
v -1.053943 2.647214 1.499997
v -2.034732 3.076428 0.899998
v -2.034732 3.166471 0.957779
v -1.604984 3.166471 1.499997
v -1.765596 2.647214 0.899998
v -2.034732 3.685728 1.046490
v -1.681839 3.685727 1.499997
v -2.034732 4.204984 1.046490
v -2.110820 3.685727 0.899998
v -2.110820 4.204984 0.899998
v -2.110821 4.724240 0.899998
v -2.034732 4.724240 1.046490
v -2.110821 5.243497 0.899998
v -2.034732 5.243497 1.046490
v -2.067402 5.762753 0.899998
v -1.371276 5.445264 0.175370
v -1.960490 5.578094 0.367374
v -1.105234 5.578534 0.129179
v -2.787463 5.748816 0.459448
v -2.097087 5.327468 0.404110
v -2.907771 5.497721 0.527057
v -3.096129 5.531437 0.489643
v -2.840837 5.758194 0.446858
v -3.398520 5.540136 -0.083488
v -3.143227 5.766893 -0.126273
v -3.279593 5.508418 -0.177670
v -3.111440 5.758137 -0.154596
v -2.494696 5.338906 -0.349491
v -2.342832 5.589094 -0.357291
v -1.778044 5.195070 -0.382855
v -1.673667 5.453964 -0.397760
v -1.475653 5.186371 0.190275
v -1.586186 4.928788 0.206317
v -1.888577 4.937488 -0.366813
v -2.235673 5.076899 0.437075
v -1.730416 4.678381 0.228585
v -2.379904 4.826492 0.459343
v -3.189233 4.996706 0.584857
v -3.045003 5.247113 0.562589
v -3.418442 5.037832 0.540432
v -3.274212 5.288238 0.518164
v -3.720833 5.046531 -0.032699
v -3.576602 5.296938 -0.054966
v -3.575053 5.007806 -0.146399
v -3.430823 5.258212 -0.168667
v -2.788801 4.838255 -0.315654
v -2.644571 5.088662 -0.337922
v -2.032807 4.687081 -0.344546
v -2.177038 4.436674 -0.322278
v -2.933032 4.587848 -0.293387
v -1.874647 4.427974 0.250852
v -3.719284 4.757399 -0.124132
v -3.562673 4.787425 0.562699
v -3.865063 4.796124 -0.010431
v -3.706903 4.537018 0.584967
v -4.009293 4.545717 0.011836
v -3.851134 4.286611 0.607234
v -4.153524 4.295310 0.034104
v -4.007744 4.256585 -0.079597
v -3.863514 4.506992 -0.101865
v -3.477694 4.495893 0.629392
v -3.621924 4.245486 0.651659
v -2.812595 4.075271 0.526145
v -2.668365 4.325678 0.503878
v -2.163108 3.927161 0.295387
v -2.018877 4.177568 0.273120
v -2.524134 4.576085 0.481610
v -2.307338 3.676754 0.317655
v -2.956825 3.824864 0.548413
v -2.465498 3.935860 -0.277743
v -2.609729 3.685453 -0.255476
v -3.221493 4.087035 -0.248852
v -3.365723 3.836628 -0.226584
v -4.151975 4.006178 -0.057329
v -3.504762 3.586071 -0.194477
v -4.289783 3.755586 -0.022889
v -4.410878 3.787872 0.072892
v -4.297754 4.044903 0.056371
v -4.108487 3.779173 0.646022
v -3.995364 4.036204 0.629502
v -3.766155 3.995079 0.673927
v -3.916808 3.744856 0.684021
v -3.106247 3.574607 0.560841
v -3.272033 3.324820 0.542253
v -4.089170 3.495259 0.652968
v -2.767358 3.212472 0.393884
v -2.482651 3.432966 0.345664
v -2.785042 3.441665 -0.227466
v -3.069748 3.221171 -0.179247
v -3.627438 3.335044 -0.131355
v -3.678739 3.199195 -0.069103
v -3.376348 3.190495 0.504027
v -4.418477 3.469866 0.069318
v -4.116086 3.461166 0.642449
v -4.126297 3.501846 0.644935
v -4.428688 3.510546 0.071805
v -4.405880 3.504370 0.052699
v -1.407625 5.587234 -0.443951
v -2.110821 5.243497 -0.899998
v -2.067402 5.762753 -0.899998
v -2.153902 4.724241 0.300000
v -2.153902 4.724240 -0.299999
v -2.153902 4.204984 0.299999
v -2.153902 4.204984 -0.299999
v -2.153902 3.685727 0.300000
v -2.153902 3.685727 -0.299999
v -2.115815 3.166471 0.300000
v -2.115814 3.166471 -0.299999
v -2.034732 2.956795 0.299999
v -2.034732 2.956795 -0.299999
v -2.067402 3.166471 -0.899998
v -2.067402 3.166471 0.899998
v -1.823385 2.647214 0.299999
v -1.823385 2.647214 -0.299999
v -2.110821 3.685727 -0.899998
v -2.110821 4.204984 -0.899998
v -2.110821 4.724240 -0.899998
v -1.582570 3.166471 1.523737
v -1.582570 3.685727 1.610848
v -0.678244 2.597744 1.499997
v -0.678244 2.268450 0.899998
v -0.678244 2.647214 1.562223
v -0.678244 2.236985 0.299999
v -0.678244 2.236985 -0.299999
v -0.678244 2.268450 -0.899998
v -0.678244 2.597744 -1.499997
v -1.053943 2.647214 -1.499997
v -1.130407 2.673604 -1.499997
v -0.678244 2.647214 -1.562223
v -0.678244 3.166471 -2.037206
v -1.130407 3.166471 -1.914503
v -1.582570 3.166471 -1.523737
v -1.130407 3.685727 -2.037386
v -1.582569 3.685727 -1.610848
v -1.130407 4.204984 -2.037386
v -1.582569 4.204984 -1.610848
v -1.130407 4.724240 -2.037386
v -1.582569 4.724241 -1.610848
v -1.130407 5.243497 -2.037386
v -1.582569 5.243497 -1.610848
v -1.130407 5.762754 -1.914503
v -1.582569 5.762754 -1.523736
v -1.130407 6.255620 -1.499997
v -1.003732 5.243497 -2.099996
v -0.678244 5.617282 -2.099996
v -0.678244 5.762753 -2.037206
v -0.678244 5.243497 -2.152194
v -0.678244 4.724240 -2.152194
v -1.003732 4.724240 -2.099996
v -0.678244 4.204984 -2.152194
v -1.003732 4.204984 -2.099996
v -0.678244 3.685728 -2.152194
v -1.003732 3.685727 -2.099996
v -0.678244 3.311943 -2.099996
v -1.130407 6.282010 -1.472477
v -1.130407 6.631892 -0.899998
v -1.053943 6.282010 -1.499997
v -0.678244 6.331481 -1.499997
v -0.678244 6.660774 -0.899998
v -0.678244 6.282010 -1.562223
v -1.130407 6.663046 -0.299999
v -0.678244 6.697668 -0.299999
v -1.130407 6.663046 0.299999
v -0.678244 6.697668 0.299999
v -1.130407 6.631892 0.899998
v -0.678244 6.660774 0.899998
v -1.053943 6.282010 1.499997
v -1.130407 6.282010 1.472477
v -0.354920 6.801267 0.299999
v -0.226081 6.801267 0.303015
v -0.354920 6.801267 -0.299999
v -0.678244 7.100893 0.299999
v -0.678244 7.100893 -0.299999
v -0.758702 7.320524 -0.299999
v -0.758702 7.320523 0.299999
v -0.777078 7.839780 -0.299999
v -0.777078 7.839780 0.300000
v -0.777078 8.359037 -0.299999
v -0.777078 8.359037 0.299999
v -0.678244 8.809616 0.299999
v -0.678244 8.809616 -0.299999
v -0.678244 8.359037 -0.448673
v -0.678244 8.359037 0.448673
v -0.625438 8.878293 -0.299999
v -0.625438 8.878293 0.299999
v -0.226082 9.005027 0.300000
v -0.226081 9.005027 -0.299999
v -0.226081 8.878293 -0.445980
v 0.226081 8.878293 -0.445980
v 0.226081 9.005026 -0.299999
v -0.226082 8.359037 -0.556174
v 0.226081 8.359037 -0.556174
v 0.678244 8.359037 -0.448673
v 0.678244 8.809616 -0.299999
v 0.625438 8.878293 -0.299999
v 0.678244 8.809616 0.299999
v 0.625438 8.878293 0.299999
v 0.226081 9.005026 0.300000
v 0.226081 8.878293 0.445980
v -0.226081 8.878293 0.445980
v -0.226082 8.359037 0.556174
v 0.226081 8.359037 0.556174
v -0.226082 7.839780 0.556174
v 0.226081 7.839780 0.556174
v -0.226081 7.320524 0.543463
v 0.226081 7.320524 0.543463
v 0.678244 7.839780 0.448673
v 0.678244 7.320524 0.420872
v 0.777078 7.839780 0.299999
v 0.758702 7.320523 0.299999
v 0.777078 7.839780 -0.299999
v 0.758702 7.320523 -0.300000
v 0.777078 8.359037 0.299999
v 0.777078 8.359036 -0.299999
v 0.678244 7.839780 -0.448673
v -0.678244 7.320523 0.420872
v -0.678244 7.839780 0.448673
v -0.678244 7.320523 -0.420872
v -0.678244 7.839780 -0.448673
v -0.226082 7.839780 -0.556174
v -1.130407 6.255620 1.499997
v -1.130407 5.762754 1.914503
v 0.226081 4.204984 2.152194
v 0.226081 4.724241 2.152194
v 0.678244 6.660774 -0.899998
v 0.678244 6.331481 -1.499997
v 0.678244 6.282010 -1.562223
v 1.053942 6.282010 -1.499997
v 0.678244 5.762753 -2.037206
v 1.130407 5.762754 -1.914503
v 0.678244 5.617282 -2.099996
v 1.003732 5.243497 -2.099996
v 1.130407 5.243497 -2.037386
v 1.130407 4.724240 -2.037386
v 1.003732 4.724240 -2.099996
v 1.130407 4.204984 -2.037386
v 1.003731 4.204984 -2.099996
v 1.130406 3.685728 -2.037386
v 1.003732 3.685727 -2.099996
v 0.678244 3.311943 -2.099996
v 0.678244 3.166471 -2.037206
v 0.678244 3.685727 -2.152194
v 0.678244 4.204984 -2.152194
v 0.678244 4.724241 -2.152194
v 0.678244 5.243497 -2.152193
v 0.678244 2.647214 -1.562223
v 0.678244 2.597744 -1.499997
v 1.053942 2.647214 -1.499997
v 0.678244 2.268450 -0.899998
v 0.678244 2.236985 0.299999
v 0.678244 2.236985 -0.299999
v 0.678244 2.268450 0.899998
v 0.678244 2.597744 1.499997
v 0.678244 2.647214 1.562223
v 1.053942 2.647214 1.499997
v 1.681839 5.243497 1.499997
v 1.681839 4.724240 1.499997
v 1.681839 4.204984 1.499997
v 2.034732 4.204984 1.046490
v 2.034732 4.724240 1.046490
v 2.034732 3.685727 1.046490
v 1.681839 3.685727 1.499997
v 2.034732 3.166471 0.957779
v 1.604984 3.166471 1.499997
v 2.110821 3.685727 0.899998
v 2.067401 3.166471 0.899998
v 2.034732 3.076428 0.899998
v 2.110820 4.204984 0.899998
v 1.765596 2.647214 0.899998
v 1.823385 2.647214 0.299999
v 1.823385 2.647214 -0.299999
v 1.765596 2.647214 -0.899999
v 1.723559 4.635657 -0.084117
v 2.508234 4.717371 -0.129772
v 3.302603 4.510323 0.825037
v 2.594678 4.466146 -0.062081
v 1.810003 4.384431 -0.016427
v 0.678244 8.359037 0.448673
v 0.226081 7.839780 -0.556174
v -3.333463 4.746299 0.607124
v -3.077262 4.337442 -0.271119
v -2.321268 4.186267 -0.300011
vn 0.9071 0.2146 -0.3621
vn 0.3167 -0.1437 -0.9376
vn 0.0507 -0.2435 -0.9686
vn -0.6411 -0.3975 -0.6566
vn -0.8759 -0.1809 0.4473
vn -0.1592 0.2054 0.9656
vn -0.1554 0.1868 0.9700
vn -0.8621 -0.2350 0.4491
vn 0.0874 0.2871 0.9539
vn 0.0904 0.2632 0.9605
vn 0.7028 0.4003 0.5881
vn 0.7276 0.3494 0.5903
vn 0.9308 0.1537 -0.3318
vn 0.9640 -0.0729 -0.2557
vn 0.7715 0.1399 0.6207
vn 0.3217 -0.1695 -0.9315
vn 0.3400 -0.2702 -0.9008
vn 0.0547 -0.2618 -0.9636
vn 0.0737 -0.3323 -0.9403
vn -0.6358 -0.4505 -0.6268
vn -0.5558 -0.6224 -0.5512
vn -0.7690 -0.4073 0.4927
vn -0.4681 -0.6516 0.5969
vn -0.2518 -0.8762 -0.4110
vn -0.1358 0.1155 0.9840
vn -0.0958 -0.0425 0.9945
vn 0.1048 0.1690 0.9800
vn 0.1300 0.0204 0.9913
vn 0.7248 -0.1344 0.6757
vn 0.4529 -0.5517 0.7004
vn 0.9099 -0.3616 -0.2034
vn 0.6311 -0.7538 -0.1829
vn -0.0031 -0.7224 0.6915
vn 0.1410 -0.9468 -0.2892
vn 0.3623 -0.4191 -0.8325
vn 0.1067 -0.4783 -0.8717
vn 0.6964 0.4428 0.5648
vn 0.8948 0.2577 -0.3646
vn 0.6452 0.5706 0.5082
vn 0.8326 0.3901 -0.3933
vn 0.3106 -0.0498 -0.9492
vn 0.3144 -0.1218 -0.9414
vn 0.0536 -0.1881 -0.9807
vn 0.0499 -0.2265 -0.9727
vn -0.6640 -0.3044 -0.6829
vn -0.6647 -0.3578 -0.6559
vn -0.9066 -0.0719 0.4158
vn -0.8985 -0.1316 0.4187
vn -0.1558 0.2609 0.9527
vn -0.1603 0.2227 0.9616
vn 0.0828 0.3695 0.9255
vn 0.0848 0.3068 0.9480
vn 0.1030 -0.4127 0.9050
vn 0.2215 0.2049 0.9534
vn 0.6281 0.5690 0.5308
vn 0.5633 0.7525 0.3412
vn 0.5093 0.5751 0.6402
vn 0.7285 0.5820 -0.3614
vn 0.8047 0.4185 -0.4210
vn 0.5196 0.3752 -0.7676
vn 0.4250 -0.0562 -0.9035
vn 0.6720 0.1919 -0.7153
vn 0.7919 -0.3575 -0.4951
vn 0.3244 -0.5968 -0.7339
vn -0.5432 -0.7590 -0.3589
vn 0.9924 -0.0189 -0.1214
vn 0.8491 -0.4545 0.2693
vn 0.8384 0.0472 -0.5430
vn 0.8123 0.2170 -0.5414
vn 0.8431 -0.0000 -0.5378
vn 0.9765 0.1344 -0.1684
vn 0.9643 -0.0000 -0.2646
vn 0.8384 -0.0472 -0.5430
vn 0.9632 -0.0393 -0.2657
vn 0.8123 -0.2170 -0.5414
vn 0.9420 -0.2046 -0.2659
vn 0.8518 -0.4237 -0.3081
vn 0.8853 -0.4631 -0.0424
vn 0.9756 -0.2164 -0.0374
vn 0.8853 -0.4631 0.0424
vn 0.9756 -0.2164 0.0374
vn 0.9986 -0.0378 0.0368
vn 0.9986 -0.0378 -0.0368
vn 0.9994 -0.0000 0.0358
vn 0.9994 -0.0000 -0.0358
vn 0.9445 0.3201 -0.0740
vn 0.9445 0.3191 0.0784
vn 0.8798 0.0012 -0.4753
vn 0.9764 0.1375 0.1667
vn 0.9816 0.1896 -0.0235
vn -0.5090 -0.8247 -0.2465
vn 0.9984 0.0382 0.0419
vn 0.8384 0.0472 0.5430
vn 0.8123 0.2170 0.5414
vn 0.7647 0.2360 0.5996
vn 0.6274 0.4605 0.6280
vn 0.5499 0.6218 0.5576
vn 0.5887 0.5300 0.6103
vn 0.7418 0.2346 0.6283
vn 0.4302 0.8481 0.3092
vn 0.2289 0.9334 0.2764
vn 0.3097 0.7357 0.6023
vn 0.2275 0.9733 0.0297
vn 0.3742 0.9270 0.0243
vn 0.2275 0.9733 -0.0297
vn 0.3930 0.9169 -0.0693
vn 0.2204 0.9336 -0.2826
vn 0.4376 0.8508 -0.2910
vn 0.3103 0.7327 -0.6057
vn 0.5499 0.6218 -0.5576
vn 0.3768 0.6015 -0.7044
vn 0.6274 0.4605 -0.6280
vn 0.7418 0.2346 -0.6283
vn 0.5880 0.6906 -0.4210
vn 0.6660 0.2921 -0.6864
vn 0.7096 0.0651 -0.7016
vn 0.7659 0.0552 -0.6406
vn 0.7165 -0.0000 -0.6975
vn 0.7678 -0.0000 -0.6407
vn 0.7096 -0.0651 -0.7016
vn 0.7659 -0.0552 -0.6406
vn 0.6660 -0.2921 -0.6864
vn 0.7418 -0.2346 -0.6283
vn 0.6274 -0.4605 -0.6280
vn 0.3602 -0.6041 -0.7109
vn 0.4386 -0.4090 -0.8002
vn 0.3037 -0.7307 -0.6114
vn 0.5499 -0.6218 -0.5576
vn 0.2235 -0.9342 -0.2782
vn 0.5001 -0.8250 -0.2632
vn 0.2233 -0.9743 -0.0285
vn 0.5159 -0.8561 -0.0308
vn 0.2233 -0.9743 0.0285
vn 0.5159 -0.8561 0.0308
vn 0.2265 -0.9346 0.2741
vn 0.5001 -0.8250 0.2632
vn 0.3175 -0.7261 0.6099
vn 0.5499 -0.6218 0.5576
vn 0.3671 -0.6008 0.7101
vn 0.6274 -0.4605 0.6280
vn 0.4418 -0.4124 0.7967
vn 0.6660 -0.2921 0.6864
vn 0.5425 -0.0998 0.8341
vn 0.7096 -0.0651 0.7016
vn 0.5752 -0.0000 0.8180
vn 0.7165 -0.0000 0.6975
vn 0.5467 0.1145 0.8295
vn 0.7096 0.0651 0.7016
vn 0.4456 0.4022 0.7998
vn 0.6660 0.2921 0.6864
vn 0.3656 0.6090 0.7038
vn 0.1213 0.5045 0.8548
vn 0.0613 0.7273 0.6836
vn 0.1411 0.8176 0.5582
vn 0.0483 0.8307 0.5546
vn -0.0000 0.5460 0.8378
vn -0.0000 0.7318 0.6816
vn -0.0000 0.2709 0.9626
vn 0.1355 0.2548 0.9574
vn 0.0793 0.0690 0.9945
vn -0.0000 0.0694 0.9976
vn 0.3350 0.1563 0.9292
vn 0.0796 -0.0000 0.9968
vn 0.3069 -0.0000 0.9517
vn 0.0793 -0.0690 0.9945
vn 0.2988 -0.1096 0.9480
vn 0.1277 -0.2754 0.9528
vn -0.0000 -0.2709 0.9626
vn -0.0000 -0.0694 0.9976
vn 0.1053 -0.5349 0.8383
vn -0.0000 -0.5460 0.8378
vn -0.0000 -0.7318 0.6816
vn -0.0000 -0.8333 0.5529
vn -0.0000 -0.9630 0.2696
vn -0.0000 -0.9997 0.0262
vn -0.0000 -0.9997 -0.0262
vn -0.0000 -0.9630 -0.2696
vn -0.0000 -0.8333 -0.5529
vn -0.0000 -0.7318 -0.6816
vn -0.0000 -0.5460 -0.8378
vn -0.0000 -0.2709 -0.9626
vn -0.0000 -0.0694 -0.9976
vn -0.0000 -0.0000 -1.0000
vn -0.0000 0.0694 -0.9976
vn -0.0000 0.2709 -0.9626
vn -0.0000 0.5460 -0.8378
vn -0.0000 0.7318 -0.6816
vn -0.0000 0.8333 -0.5529
vn -0.0292 0.9412 -0.3365
vn 0.0282 0.9390 -0.3427
vn 0.0934 0.5060 -0.8575
vn -0.1357 0.5030 -0.8535
vn 0.1241 -0.2286 -0.9656
vn -0.1246 -0.2242 -0.9665
vn 0.5609 0.5744 -0.5961
vn 0.7406 -0.5347 -0.4071
vn 0.5783 -0.1954 -0.7921
vn 0.7360 -0.5460 0.4003
vn 0.4866 0.6204 0.6151
vn 0.1426 0.9881 0.0572
vn 0.1470 0.9876 -0.0543
vn 0.0285 0.9394 0.3416
vn 0.1547 0.5047 0.8493
vn 0.0407 0.9601 0.2766
vn -0.0000 0.8333 0.5529
vn -0.0000 0.9343 0.3566
vn -0.0459 0.8308 0.5546
vn -0.0613 0.7273 0.6836
vn -0.1213 0.5045 0.8548
vn -0.1355 0.2549 0.9574
vn -0.0793 0.0690 0.9945
vn -0.0796 -0.0000 0.9968
vn -0.0000 -0.0000 1.0000
vn -0.0793 -0.0690 0.9945
vn -0.1277 -0.2754 0.9528
vn -0.2988 -0.1096 0.9480
vn -0.4418 -0.4124 0.7967
vn -0.5425 -0.0998 0.8341
vn -0.1053 -0.5349 0.8383
vn -0.5752 -0.0000 0.8180
vn -0.3069 -0.0000 0.9517
vn -0.5467 0.1145 0.8295
vn -0.3350 0.1563 0.9292
vn -0.7165 -0.0000 0.6975
vn -0.7678 -0.0000 0.6407
vn -0.7659 0.0552 0.6406
vn -0.7096 0.0651 0.7016
vn -0.7418 0.2346 0.6283
vn -0.6660 0.2921 0.6864
vn -0.6274 0.4605 0.6280
vn -0.7776 0.2220 0.5883
vn -0.5875 0.6894 0.4238
vn -0.5499 0.6218 0.5576
vn -0.8123 0.2170 0.5414
vn -0.4369 0.8510 0.2913
vn -0.4640 0.6915 0.5536
vn -0.3841 0.9198 0.0801
vn -0.3862 -0.2051 0.8993
vn -0.6726 0.7171 -0.1828
vn -0.3600 0.9329 -0.0116
vn -0.5088 0.3623 -0.7810
vn -0.6007 0.5406 -0.5890
vn -0.4275 0.8491 -0.3102
vn -0.7155 0.1967 -0.6704
vn -0.8123 0.2170 -0.5414
vn -0.7418 0.2346 -0.6283
vn -0.6274 0.4605 -0.6280
vn -0.5499 0.6218 -0.5576
vn -0.8384 0.0472 -0.5430
vn -0.7659 0.0552 -0.6406
vn -0.8431 -0.0000 -0.5378
vn -0.7678 -0.0000 -0.6407
vn -0.8384 -0.0472 -0.5430
vn -0.7659 -0.0552 -0.6406
vn -0.8123 -0.2170 -0.5414
vn -0.7418 -0.2346 -0.6283
vn -0.8518 -0.4237 -0.3081
vn -0.7316 -0.6148 -0.2946
vn -0.5499 -0.6218 -0.5576
vn -0.6274 -0.4605 -0.6280
vn -0.5001 -0.8250 -0.2632
vn -0.2277 -0.9342 -0.2746
vn -0.3340 -0.7202 -0.6080
vn -0.5159 -0.8561 -0.0308
vn -0.2233 -0.9743 -0.0285
vn -0.5159 -0.8561 0.0308
vn -0.2233 -0.9743 0.0285
vn -0.5001 -0.8250 0.2632
vn -0.2265 -0.9346 0.2741
vn -0.5499 -0.6218 0.5576
vn -0.3175 -0.7261 0.6099
vn -0.6274 -0.4605 0.6280
vn -0.3671 -0.6008 0.7101
vn -0.1469 -0.6810 0.7174
vn -0.8518 -0.4237 0.3081
vn -0.8123 -0.2170 0.5414
vn -0.7418 -0.2346 0.6283
vn -0.7316 -0.6148 0.2946
vn -0.8384 -0.0472 0.5430
vn -0.7659 -0.0552 0.6406
vn -0.8431 -0.0000 0.5378
vn -0.9632 -0.0393 0.2657
vn -0.9643 -0.0000 0.2646
vn -0.9763 0.1400 0.1653
vn -0.9969 0.0741 0.0250
vn -0.8384 0.0472 0.5430
vn -0.9923 0.1139 0.0478
vn 0.5478 -0.8341 0.0644
vn -0.4504 -0.5087 0.7337
vn -0.9220 -0.2942 -0.2519
vn -0.1148 0.0613 0.9915
vn 0.2373 0.0179 0.9713
vn 0.0113 0.1816 0.9833
vn -0.4782 0.5441 0.6894
vn -0.4659 0.5324 0.7067
vn -0.7560 0.6202 -0.2093
vn -0.7186 0.6579 -0.2253
vn -0.3742 0.2508 -0.8928
vn -0.3989 0.2732 -0.8754
vn -0.1257 0.0524 -0.9907
vn -0.3533 -0.3302 -0.8753
vn 0.5104 -0.2539 -0.8216
vn 0.1940 -0.9138 -0.3567
vn 0.8932 -0.3409 0.2931
vn 0.8702 -0.3991 0.2890
vn 0.5041 -0.3139 -0.8046
vn 0.2386 -0.0286 0.9707
vn 0.8355 -0.4537 0.3099
vn 0.2352 -0.0491 0.9707
vn -0.0021 0.0898 0.9960
vn 0.0029 0.1120 0.9937
vn -0.5481 0.3819 0.7442
vn -0.5367 0.4271 0.7277
vn -0.8565 0.4755 -0.2009
vn -0.8361 0.5113 -0.1987
vn -0.3953 0.1471 -0.9067
vn -0.3896 0.1727 -0.9047
vn -0.1279 -0.0145 -0.9917
vn -0.1253 0.0062 -0.9921
vn 0.4762 -0.3462 -0.8083
vn 0.8169 -0.4884 0.3069
vn 0.2304 -0.0648 0.9709
vn 0.4680 -0.3898 -0.7931
vn -0.1328 -0.0297 -0.9907
vn -0.4028 0.1249 -0.9067
vn -0.1561 -0.0944 -0.9832
vn -0.4330 0.0292 -0.9009
vn -0.9642 0.2198 -0.1485
vn -0.8856 0.4257 -0.1860
vn -0.6431 0.1847 0.7432
vn -0.5713 0.3491 0.7428
vn -0.0061 0.0689 0.9976
vn -0.0263 -0.0168 0.9995
vn 0.2057 -0.1276 0.9702
vn 0.1511 -0.2748 0.9496
vn -0.0637 -0.1547 0.9859
vn 0.4428 -0.8069 0.3910
vn 0.7201 -0.6137 0.3237
vn 0.3957 -0.5342 -0.7470
vn 0.1176 -0.7817 -0.6125
vn -0.1999 -0.2474 -0.9481
vn -0.2648 -0.8542 -0.4474
vn -0.0113 -0.8526 0.5225
vn -0.7931 -0.5704 -0.2135
vn -0.4703 -0.6103 0.6374
vn -0.6639 -0.0834 0.7432
vn -0.9878 -0.0745 -0.1367
vn -0.4739 -0.1317 -0.8707
vn -0.9266 -0.1705 0.3353
vn -0.9924 0.1224 -0.0111
vn -0.8407 -0.3530 -0.4106
vn -0.9460 0.3213 -0.0423
vn -0.9431 0.3132 0.1114
vn -0.9994 -0.0000 0.0358
vn -0.9994 -0.0000 -0.0358
vn -0.9986 -0.0378 0.0368
vn -0.9986 -0.0378 -0.0368
vn -0.9756 -0.2164 0.0374
vn -0.9756 -0.2164 -0.0374
vn -0.8853 -0.4631 0.0424
vn -0.8853 -0.4631 -0.0424
vn -0.9420 -0.2046 -0.2659
vn -0.9420 -0.2046 0.2659
vn -0.7491 -0.6613 0.0399
vn -0.7491 -0.6613 -0.0399
vn -0.9632 -0.0393 -0.2657
vn -0.9643 -0.0000 -0.2646
vn -0.9768 0.1262 -0.1732
vn -0.6660 -0.2921 0.6864
vn -0.7096 -0.0651 0.7016
vn -0.0492 -0.8300 0.5556
vn -0.0307 -0.9629 0.2682
vn -0.0691 -0.7237 0.6867
vn -0.0321 -0.9991 0.0261
vn -0.0321 -0.9991 -0.0261
vn -0.0372 -0.9616 -0.2721
vn -0.0459 -0.8308 -0.5546
vn -0.1402 -0.7660 -0.6274
vn -0.3656 -0.6090 -0.7038
vn -0.0613 -0.7273 -0.6836
vn -0.1178 -0.5114 -0.8512
vn -0.4489 -0.4056 -0.7962
vn -0.6660 -0.2921 -0.6864
vn -0.5651 -0.0899 -0.8201
vn -0.7096 -0.0651 -0.7016
vn -0.5752 -0.0000 -0.8180
vn -0.7165 -0.0000 -0.6975
vn -0.5456 0.1134 -0.8303
vn -0.7096 0.0651 -0.7016
vn -0.4299 0.4028 -0.8081
vn -0.6660 0.2921 -0.6864
vn -0.3671 0.6008 -0.7101
vn -0.3351 0.1565 -0.9291
vn -0.1814 0.2950 -0.9381
vn -0.1330 0.5157 -0.8464
vn -0.0793 0.0690 -0.9945
vn -0.0796 -0.0000 -0.9968
vn -0.3069 -0.0000 -0.9517
vn -0.0793 -0.0690 -0.9945
vn -0.3126 -0.1102 -0.9435
vn -0.1270 -0.2629 -0.9564
vn -0.3175 0.7261 -0.6099
vn -0.2280 0.9340 -0.2752
vn -0.1469 0.6810 -0.7174
vn -0.0492 0.8300 -0.5556
vn -0.0616 0.9542 -0.2926
vn -0.0691 0.7237 -0.6867
vn -0.2276 0.9733 -0.0296
vn -0.1426 0.9879 -0.0611
vn -0.2276 0.9733 0.0296
vn -0.1703 0.9845 0.0412
vn -0.2292 0.9335 0.2756
vn -0.0679 0.9508 0.3022
vn -0.1402 0.7660 0.6274
vn -0.3340 0.7202 0.6080
vn -0.5107 0.6697 0.5392
vn -0.1180 0.5362 0.8358
vn -0.4442 -0.0645 -0.8936
vn -0.7360 -0.5460 0.4003
vn -0.7327 -0.5517 -0.3985
vn -0.9485 -0.1789 -0.2615
vn -0.9485 -0.1789 0.2615
vn -0.9619 -0.0170 -0.2728
vn -0.9619 -0.0170 0.2728
vn -0.9586 0.1014 -0.2659
vn -0.9586 0.1014 0.2659
vn -0.8077 0.3997 0.4334
vn -0.8071 0.4037 -0.4309
vn -0.5929 0.1119 -0.7974
vn -0.5821 0.1281 0.8030
vn -0.5508 0.7094 -0.4397
vn -0.5573 0.6969 0.4513
vn -0.1423 0.9348 0.3255
vn -0.1423 0.9348 -0.3255
vn -0.1350 0.5139 -0.8472
vn 0.1508 0.5024 -0.8514
vn 0.1423 0.9348 -0.3255
vn -0.1298 0.1155 -0.9848
vn 0.1311 0.1153 -0.9846
vn 0.5851 0.1236 -0.8015
vn 0.7923 0.4255 -0.4373
vn 0.5312 0.7179 -0.4500
vn 0.8077 0.3997 0.4334
vn 0.5573 0.6969 0.4513
vn 0.1423 0.9348 0.3255
vn 0.1484 0.5039 0.8509
vn -0.1484 0.5039 0.8509
vn -0.1302 0.1162 0.9847
vn 0.1302 0.1162 0.9847
vn -0.1210 -0.0157 0.9925
vn 0.1210 -0.0157 0.9925
vn -0.1300 -0.2332 0.9637
vn 0.1300 -0.2332 0.9637
vn 0.5988 -0.0178 0.8007
vn 0.5830 -0.2062 0.7859
vn 0.9619 -0.0170 0.2728
vn 0.9485 -0.1789 0.2615
vn 0.9619 -0.0170 -0.2728
vn 0.9485 -0.1789 -0.2615
vn 0.9586 0.1014 0.2659
vn 0.9586 0.1014 -0.2659
vn 0.5988 -0.0178 -0.8007
vn -0.5830 -0.2062 0.7859
vn -0.5988 -0.0178 0.8007
vn -0.5776 -0.2201 -0.7861
vn -0.5988 -0.0178 -0.8007
vn -0.1210 -0.0157 -0.9925
vn -0.3656 0.6090 0.7038
vn -0.4456 0.4022 0.7998
vn 0.0738 0.9508 -0.3009
vn 0.0572 0.8337 -0.5493
vn 0.0563 0.7292 -0.6820
vn 0.1571 0.7694 -0.6192
vn 0.1059 0.5335 -0.8391
vn 0.4500 0.4045 -0.7962
vn 0.1277 0.2754 -0.9528
vn 0.2988 0.1096 -0.9480
vn 0.5425 0.0998 -0.8341
vn 0.5752 -0.0000 -0.8180
vn 0.3069 -0.0000 -0.9517
vn 0.5467 -0.1145 -0.8295
vn 0.3350 -0.1563 -0.9292
vn 0.1355 -0.2549 -0.9574
vn 0.1268 -0.5097 -0.8510
vn 0.0793 -0.0690 -0.9945
vn 0.0796 -0.0000 -0.9968
vn 0.0793 0.0690 -0.9945
vn 0.0681 -0.7237 -0.6867
vn 0.0547 -0.8330 -0.5505
vn 0.1230 -0.7587 -0.6397
vn 0.0390 -0.9613 -0.2728
vn 0.0321 -0.9991 0.0261
vn 0.0321 -0.9991 -0.0261
vn 0.0307 -0.9629 0.2682
vn 0.0492 -0.8300 0.5556
vn 0.0691 -0.7237 0.6867
vn 0.1469 -0.6810 0.7174
vn 0.7659 0.0552 0.6406
vn 0.7678 -0.0000 0.6407
vn 0.8431 -0.0000 0.5378
vn 0.8384 -0.0472 0.5430
vn 0.7659 -0.0552 0.6406
vn 0.8123 -0.2170 0.5414
vn 0.7418 -0.2346 0.6283
vn 0.9632 -0.0393 0.2657
vn 0.9420 -0.2046 0.2659
vn 0.8518 -0.4237 0.3081
vn 0.9643 -0.0000 0.2646
vn 0.7316 -0.6148 0.2946
vn 0.7491 -0.6613 0.0399
vn 0.7491 -0.6613 -0.0399
vn 0.7316 -0.6148 -0.2946
vn 0.5821 0.1281 0.8030
vn 0.1210 -0.0157 -0.9925
s 1
f 68//35 67//36 66//36 65//35
f 66//36 67//36 70//37 69//37
f 69//37 70//37 72//38 71//38
f 71//38 72//38 74//39 73//39
f 74//39 76//40 75//40 73//39
f 78//42 77//41 76//40 74//39
f 77//41 80//44 79//43 76//40
f 79//43 80//44 82//46 81//45
f 82//46 83//47 68//35 81//45
f 85//49 84//48 83//47 82//46
f 84//48 87//51 86//50 83//47
f 86//50 87//51 89//53 88//52
f 88//52 89//53 91//55 90//54
f 90//54 91//55 92//56 78//42
f 91//55 94//58 93//57 92//56
f 93//57 96//60 95//59 92//56
f 96//60 98//62 97//61 95//59
f 97//61 98//62 99//63 85//49
f 98//62 100//64 99//63
f 100//64 102//66 101//65 99//63
f 104//68 102//66 100//64 103//67
f 102//66 105//69 101//65
f 103//67 100//64 98//62 96//60
f 103//67 96//60 93//57
f 94//58 104//68 103//67 93//57
f 106//70 104//68 94//58
f 89//53 106//70 94//58 91//55
f 87//51 105//69 106//70 89//53
f 101//65 105//69 87//51 84//48
f 99//63 101//65 84//48 85//49
f 80//44 97//61 85//49 82//46
f 95//59 97//61 80//44 77//41
f 92//56 95//59 77//41 78//42
f 73//39 75//40 108//40 107//39
f 107//39 108//40 110//40 109//39
f 108//40 112//43 111//43 110//40
f 111//43 112//43 114//45 113//45
f 114//45 116//35 115//35 113//45
f 116//35 118//36 117//36 115//35
f 119//45 65//35 116//35 114//45
f 113//45 115//35 121//72 120//71
f 120//71 121//72 123//74 122//73
f 121//72 125//76 124//75 123//74
f 124//75 125//76 127//78 126//77
f 126//77 127//78 129//80 128//79
f 128//79 129//80 131//82 130//81
f 131//82 133//84 132//83 130//81
f 133//84 135//86 134//85 132//83
f 132//83 134//85 137//88 136//87
f 137//88 134//85 122//73 138//89
f 140//91 137//88 138//89 139//90
f 138//89 142//93 141//92 139//90
f 142//93 144//95 143//94 141//92
f 144//95 147//98 146//97 145//96
f 143//94 144//95 145//96
f 149//100 146//97 147//98 148//99
f 150//101 149//100 148//99
f 152//103 146//97 149//100 151//102
f 151//102 149//100 154//105 153//104
f 153//104 154//105 156//106 155//104
f 155//104 156//106 158//108 157//107
f 157//107 158//108 160//110 159//109
f 159//109 160//110 161//111
f 161//111 160//110 163//113 162//112
f 162//112 163//113 165//115 164//114
f 163//113 167//117 166//116 165//115
f 167//117 169//119 168//118 166//116
f 169//119 171//121 170//120 168//118
f 171//121 150//101 172//122 170//120
f 170//120 172//122 174//124 173//123
f 176//126 174//124 172//122 175//125
f 136//87 176//126 175//125
f 174//124 176//126 178//128 177//127
f 178//128 176//126 179//129
f 179//129 182//132 181//131 180//130
f 183//133 178//128 179//129 180//130
f 181//131 182//132 184//134
f 186//136 181//131 184//134 185//135
f 184//134 188//138 187//137 185//135
f 188//138 190//140 189//139 187//137
f 190//140 192//142 191//141 189//139
f 192//142 194//144 193//143 191//141
f 193//143 194//144 196//146 195//145
f 145//96 152//103 197//147 196//146
f 194//144 198//148 145//96 196//146
f 197//147 199//149 196//146
f 199//149 197//147 201//151 200//150
f 200//150 201//151 203//153 202//152
f 202//152 203//153 205//153 204//152
f 204//152 205//153 207//155 206//154
f 206//154 207//155 209//157 208//156
f 208//156 209//157 210//158
f 212//160 208//156 210//158 211//159
f 210//158 214//162 213//161 211//159
f 213//161 214//162 216//164 215//163
f 215//163 216//164 218//166 217//165
f 217//165 218//166 220//168 219//167
f 219//167 220//168 222//170 221//169
f 222//170 224//172 223//171 221//169
f 223//171 224//172 226//174 225//173
f 226//174 228//176 227//175 225//173
f 228//176 230//178 229//177 227//175
f 230//178 232//180 231//179 229//177
f 232//180 234//180 233//179 231//179
f 234//180 236//182 235//181 233//179
f 236//182 238//184 237//183 235//181
f 237//183 238//184 180//130 239//185
f 239//185 242//188 241//187 240//186
f 237//183 239//185 240//186
f 241//187 242//188 243//189
f 186//136 242//188 239//185
f 240//186 241//187 245//191 244//190
f 247//193 240//186 244//190 246//192
f 249//195 248//194 247//193 246//192
f 248//194 250//196 247//193
f 252//198 250//196 248//194 251//197
f 254//198 252//198 251//197 253//197
f 256//200 254//198 253//197 255//199
f 256//200 255//199 257//201
f 257//201 255//199 259//203 258//202
f 261//205 260//204 257//201 258//202
f 263//205 261//205 258//202 262//202
f 265//206 261//205 263//205 264//206
f 267//207 265//206 264//206 266//207
f 269//208 268//208 267//207 266//207
f 271//209 270//209 268//208 269//208
f 273//210 272//210 270//209 271//209
f 275//211 274//211 272//210 273//210
f 277//212 276//212 274//211 275//211
f 279//213 278//213 276//212 277//212
f 281//214 280//214 278//213 279//213
f 283//215 280//214 281//214 282//215
f 285//216 284//216 283//215 282//215
f 287//217 286//217 284//216 285//216
f 289//217 288//217 286//217 287//217
f 291//218 290//218 288//217 289//217
f 293//219 290//218 291//218 292//219
f 295//220 294//220 293//219 292//219
f 297//221 296//221 294//220 295//220
f 299//222 296//221 297//221 298//222
f 301//224 299//222 298//222 300//223
f 303//226 302//225 301//224 300//223
f 305//228 304//227 302//225 303//226
f 308//231 307//230 306//229 302//225
f 304//227 308//231 302//225
f 310//233 306//229 307//230 309//232
f 312//235 306//229 310//233 311//234
f 311//234 310//233 314//237 313//236
f 315//238 311//234 313//236
f 243//189 315//238 313//236 316//239
f 316//239 313//236 318//240 317//239
f 319//191 245//191 316//239 317//239
f 321//242 319//191 317//239 320//241
f 323//190 319//191 321//242 322//243
f 325//192 323//190 322//243 324//244
f 327//245 326//195 325//192 324//244
f 329//247 326//195 327//245 328//246
f 331//247 329//247 328//246 330//246
f 333//203 331//247 330//246 332//248
f 262//202 333//203 332//248 334//249
f 332//248 335//250 334//249
f 334//249 335//250 337//252 336//251
f 338//253 334//249 336//251
f 335//250 340//255 339//254 337//252
f 340//255 342//255 341//254 339//254
f 342//255 344//257 343//256 341//254
f 339//254 341//254 346//258 345//258
f 346//258 348//259 347//259 345//258
f 350//261 349//260 348//259 346//258
f 352//263 351//262 349//260 350//261
f 351//262 352//263 353//264
f 353//264 356//267 355//266 354//265
f 357//268 351//262 353//264 354//265
f 355//266 356//267 358//269
f 355//266 358//269 360//271 359//270
f 361//272 355//266 359//270
f 360//271 363//274 362//273 359//270
f 366//277 365//276 364//275 362//273
f 363//274 366//277 362//273
f 364//275 365//276 367//278
f 370//281 369//280 368//279 367//278
f 365//276 371//282 370//281 367//278
f 368//279 369//280 373//284 372//283
f 372//283 373//284 375//286 374//285
f 374//285 375//286 377//286 376//285
f 376//285 377//286 379//288 378//287
f 378//287 379//288 381//290 380//289
f 385//294 384//293 383//292 382//291
f 380//289 381//290 385//294 382//291
f 383//292 384//293 386//295
f 384//293 388//297 387//296 386//295
f 386//295 387//296 390//299 389//298
f 389//298 390//299 392//301 391//300
f 391//300 392//301 394//303 393//302
f 394//303 396//305 395//304 393//302
f 395//304 396//305 398//307 397//306
f 396//305 399//308 398//307
f 397//306 402//311 401//310 400//309
f 403//312 395//304 397//306 400//309
f 402//311 405//314 404//313 401//310
f 405//314 347//259 406//315 404//313
f 406//315 408//317 407//316 404//313
f 410//315 409//318 408//317 406//315
f 412//320 411//319 409//318 410//315
f 357//268 413//321 411//319 412//320
f 411//319 413//321 415//323 414//322
f 416//324 411//319 414//322
f 354//265 361//272 417//325 415//323
f 413//321 354//265 415//323
f 415//323 417//325 419//327 418//326
f 419//327 417//325 421//329 420//328
f 421//329 423//331 422//330 420//328
f 423//331 425//333 424//332 422//330
f 424//332 425//333 427//335 426//334
f 426//334 427//335 429//337 428//336
f 428//336 429//337 414//322 430//338
f 432//340 428//336 430//338 431//339
f 430//338 418//326 433//341 431//339
f 431//339 433//341 435//343 434//342
f 433//341 437//345 436//344 435//343
f 436//344 437//345 439//347 438//346
f 439//347 441//349 440//348 438//346
f 441//349 443//351 442//350 440//348
f 442//350 443//351 445//353 444//352
f 444//352 445//353 432//340 446//354
f 448//352 444//352 446//354 447//354
f 447//354 446//354 434//342 449//342
f 450//350 442//350 444//352 448//352
f 438//346 440//348 452//348 451//346
f 451//346 452//348 454//348 453//346
f 453//346 454//348 456//348 455//346
f 454//348 458//350 457//350 456//348
f 460//344 459//344 453//346 455//346
f 462//343 459//344 460//344 461//343
f 464//342 462//343 461//343 463//342
f 449//342 465//343 462//343 464//342
f 463//342 461//343 467//356 466//355
f 469//357 468//354 463//342 466//355
f 471//358 470//352 468//354 469//357
f 472//359 457//350 470//352 471//358
f 474//361 472//359 471//358 473//360
f 476//363 472//359 474//361 475//362
f 478//365 476//363 475//362 477//364
f 480//367 479//366 478//365 477//364
f 467//356 479//366 480//367 481//368
f 481//368 480//367 483//370 482//369
f 485//372 481//368 482//369 484//371
f 487//374 486//373 485//372 484//371
f 488//375 473//360 486//373 487//374
f 489//376 488//375 487//374
f 490//377 489//376 487//374 484//371
f 492//379 491//378 489//376 490//377
f 494//381 491//378 492//379 493//380
f 495//382 491//378 494//381
f 492//379 483//370 493//380
f 482//369 490//377 484//371
f 483//370 492//379 490//377 482//369
f 483//370 480//367 477//364 493//380
f 477//364 475//362 494//381 493//380
f 475//362 474//361 495//382 494//381
f 495//382 474//361 473//360 488//375
f 473//360 471//358 469//357 486//373
f 486//373 469//357 466//355 485//372
f 466//355 467//356 481//368 485//372
f 455//346 456//348 476//363 478//365
f 434//342 435//343 465//343 449//342
f 446//354 432//340 431//339 434//342
f 498//385 497//384 496//383 429//337
f 427//335 498//385 429//337
f 445//353 426//334 428//336 432//340
f 443//351 424//332 426//334 445//353
f 422//330 424//332 443//351 441//349
f 420//328 422//330 441//349 439//347
f 437//345 419//327 420//328 439//347
f 418//326 419//327 437//345 433//341
f 429//337 496//383 416//324 414//322
f 416//324 496//383 500//387 499//386
f 499//386 500//387 502//389 501//388
f 501//388 502//389 504//391 503//390
f 503//390 504//391 506//393 505//392
f 505//392 506//393 508//395 507//394
f 506//393 509//396 382//291 508//395
f 510//397 505//392 507//394 400//309
f 508//395 512//399 511//398 507//394
f 504//391 513//400 509//396 506//393
f 407//316 503//390 505//392 510//397
f 502//389 514//401 513//400 504//391
f 500//387 515//402 514//401 502//389
f 414//322 415//323 418//326 430//338
f 411//319 416//324 499//386 409//318
f 409//318 499//386 501//388 408//317
f 408//317 501//388 503//390 407//316
f 517//404 405//314 402//311 516//403
f 404//313 407//316 510//397 401//310
f 507//394 511//398 403//312 400//309
f 516//403 402//311 397//306
f 401//310 510//397 400//309
f 518//405 399//308 396//305 394//303
f 519//406 518//405 394//303
f 520//407 399//308 518//405
f 395//304 403//312 393//302
f 392//301 521//408 519//406 394//303
f 403//312 511//398 391//300 393//302
f 390//299 522//409 521//408 392//301
f 511//398 512//399 389//298 391//300
f 387//296 523//410 522//409 390//299
f 525//412 524//411 523//410 387//296
f 388//297 525//412 387//296
f 525//412 388//297 526//413
f 528//415 527//414 525//412 526//413
f 529//416 528//415 526//413
f 530//417 529//416 526//413 385//294
f 532//419 531//418 529//416 530//417
f 534//421 533//420 531//418 532//419
f 536//421 535//420 533//420 534//421
f 538//423 537//422 535//420 536//421
f 540//425 539//424 537//422 538//423
f 541//426 539//424 540//425 370//281
f 544//429 543//428 542//427 537//422
f 539//424 544//429 537//422
f 545//430 542//427 543//428
f 547//432 542//427 545//430 546//431
f 549//432 547//432 546//431 548//431
f 551//434 549//432 548//431 550//433
f 551//434 550//433 552//435
f 535//420 547//432 549//432 533//420
f 533//420 549//432 551//434 531//418
f 525//412 527//414 524//411
f 381//290 530//417 385//294
f 382//291 383//292 512//399 508//395
f 526//413 388//297 384//293 385//294
f 509//396 380//289 382//291
f 381//290 379//288 532//419 530//417
f 509//396 513//400 378//287 380//289
f 379//288 377//286 534//421 532//419
f 513//400 514//401 376//285 378//287
f 377//286 375//286 536//421 534//421
f 514//401 515//402 374//285 376//285
f 375//286 373//284 538//423 536//421
f 515//402 497//384 372//283 374//285
f 373//284 369//280 540//425 538//423
f 497//384 498//385 368//279 372//283
f 540//425 369//280 370//281
f 371//282 553//436 541//426 370//281
f 554//437 553//436 371//282 366//277
f 556//439 555//438 553//436 554//437
f 557//440 556//439 554//437
f 558//441 555//438 556//439
f 560//443 557//440 554//437 559//442
f 562//445 560//443 559//442 561//444
f 564//447 562//445 561//444 563//446
f 565//448 320//241 564//447 563//446
f 566//449 565//448 563//446
f 568//451 567//450 562//445 564//447
f 318//240 568//451 564//447
f 567//450 569//452 560//443 562//445
f 571//454 569//452 567//450 570//453
f 573//456 572//455 571//454 570//453
f 575//458 574//457 572//455 573//456
f 577//460 576//459 574//457 575//458
f 579//462 576//459 577//460 578//461
f 580//463 576//459 579//462
f 577//460 581//464 578//461
f 583//466 582//465 579//462 578//461
f 585//468 582//465 583//466 584//467
f 586//469 582//465 585//468
f 588//471 587//470 586//469 585//468
f 586//469 587//470 590//473 589//472
f 593//476 592//475 591//474 590//473
f 587//470 593//476 590//473
f 592//475 593//476 595//478 594//477
f 595//478 593//476 588//471 596//479
f 597//480 595//478 596//479
f 598//481 597//480 596//479 584//467
f 600//483 597//480 598//481 599//482
f 602//485 600//483 599//482 601//484
f 604//487 602//485 601//484 603//486
f 314//237 604//487 603//486 568//451
f 606//489 605//488 602//485 604//487
f 608//491 607//490 605//488 606//489
f 610//493 609//492 607//490 608//491
f 609//492 612//495 611//494 607//490
f 613//496 609//492 610//493 308//231
f 603//486 601//484 615//498 614//497
f 611//494 612//495 592//475 594//477
f 583//466 598//481 584//467
f 596//479 588//471 585//468 584//467
f 581//464 577//460 575//458 615//498
f 572//455 574//457 617//500 616//499
f 617//500 618//501 305//228 616//499
f 580//463 589//472 618//501 617//500
f 615//498 575//458 573//456 614//497
f 572//455 616//499 571//454
f 614//497 573//456 570//453
f 553//436 555//438 541//426
f 368//279 498//385 367//278
f 364//275 367//278 498//385 427//335
f 425//333 364//275 427//335
f 371//282 365//276 366//277
f 362//273 364//275 425//333 423//331
f 561//444 559//442 363//274 360//271
f 359//270 362//273 423//331 421//329
f 563//446 561//444 360//271 358//269
f 417//325 361//272 359//270 421//329
f 356//267 566//449 563//446 358//269
f 355//266 361//272 354//265
f 619//502 566//449 356//267 353//264
f 413//321 357//268 354//265
f 352//263 620//503 619//502 353//264
f 349//260 351//262 357//268 412//320
f 343//256 620//503 352//263 350//261
f 348//259 349//260 412//320 410//315
f 345//258 347//259 405//314 517//404
f 347//259 348//259 410//315 406//315
f 337//252 339//254 345//258 517//404
f 520//407 338//253 336//251 398//307
f 399//308 520//407 398//307
f 336//251 337//252 517//404 516//403
f 259//203 621//247 331//247 333//203
f 330//246 340//255 335//250 332//248
f 621//247 622//247 329//247 331//247
f 328//246 342//255 340//255 330//246
f 622//247 249//195 326//195 329//247
f 327//245 344//257 342//255 328//246
f 344//257 327//245 324//244
f 324//244 322//243 620//503 343//256
f 344//257 324//244 343//256
f 322//243 321//242 565//448 619//502
f 620//503 322//243 619//502
f 565//448 321//242 320//241
f 317//239 318//240 564//447 320//241
f 313//236 314//237 568//451 318//240
f 307//230 610//493 608//491 309//232
f 306//229 312//235 623//504 301//224
f 302//225 306//229 301//224
f 303//226 300//223 557//440 560//443
f 569//452 303//226 560//443
f 623//504 624//505 299//222 301//224
f 300//223 298//222 556//439 557//440
f 624//505 625//506 296//221 299//222
f 626//507 625//506 624//505
f 626//507 195//145 628//509 627//508
f 625//506 626//507 627//508
f 628//509 631//512 630//511 629//510
f 627//508 628//509 629//510
f 633//514 630//511 631//512 632//513
f 635//514 633//514 632//513 634//513
f 637//516 635//514 634//513 636//515
f 636//515 212//160 639//518 638//517
f 637//516 636//515 638//517
f 640//519 637//516 638//517
f 641//520 635//514 637//516 640//519
f 642//520 633//514 635//514 641//520
f 643//521 630//511 633//514 642//520
f 630//511 643//521 629//510
f 298//222 297//221 558//441 556//439
f 558//441 297//221 295//220 544//429
f 294//220 627//508 629//510 293//219
f 544//429 295//220 292//219 543//428
f 629//510 643//521 290//218 293//219
f 292//219 291//218 545//430 543//428
f 545//430 291//218 289//217 546//431
f 288//217 642//520 641//520 286//217
f 546//431 289//217 287//217 548//431
f 286//217 641//520 640//519 284//216
f 548//431 287//217 285//216 550//433
f 284//216 640//519 638//517 283//215
f 550//433 285//216 282//215 552//435
f 282//215 281//214 528//415 552//435
f 280//214 639//518 644//522 278//213
f 528//415 281//214 279//213 527//414
f 278//213 644//522 645//523 276//212
f 644//522 646//524 645//523
f 527//414 279//213 277//212 524//411
f 276//212 645//523 647//525 274//211
f 524//411 277//212 275//211 523//410
f 523//410 275//211 273//210 522//409
f 272//210 649//527 648//526 270//209
f 522//409 273//210 271//209 521//408
f 270//209 648//526 650//528 268//208
f 521//408 271//209 269//208 519//406
f 268//208 650//528 651//529 267//207
f 519//406 269//208 266//207 518//405
f 651//529 652//530 265//206 267//207
f 653//531 652//530 651//529
f 266//207 264//206 520//407 518//405
f 264//206 263//205 338//253 520//407
f 338//253 263//205 262//202 334//249
f 258//202 259//203 333//203 262//202
f 255//199 253//197 621//247 259//203
f 253//197 251//197 622//247 621//247
f 326//195 249//195 246//192 325//192
f 246//192 244//190 323//190 325//192
f 244//190 245//191 319//191 323//190
f 654//532 183//133 238//184 236//182
f 235//181 237//183 240//186 247//193
f 250//196 235//181 247//193
f 235//181 250//196 252//198 233//179
f 656//533 655//533 234//180 232//180
f 658//534 655//533 656//533 657//534
f 177//127 654//532 655//533 658//534
f 657//534 656//533 660//536 659//535
f 659//535 660//536 662//538 661//537
f 664//540 663//539 659//535 661//537
f 664//540 661//537 665//541
f 663//539 666//542 657//534 659//535
f 666//542 173//123 658//534 657//534
f 233//179 252//198 254//198 231//179
f 660//536 656//533 232//180 230//178
f 231//179 254//198 256//200 229//177
f 662//538 660//536 230//178 228//176
f 227//175 229//177 256//200 257//201
f 260//204 227//175 257//201
f 225//173 227//175 260//204 652//530
f 653//531 225//173 652//530
f 665//541 661//537 662//538 226//174
f 224//172 667//543 665//541 226//174
f 667//543 668//544 164//114 665//541
f 653//531 223//171 225//173
f 667//543 224//172 222//170
f 221//169 223//171 653//531 651//529
f 650//528 221//169 651//529
f 220//168 668//544 667//543 222//170
f 648//526 219//167 221//169 650//528
f 218//166 669//545 668//544 220//168
f 649//527 217//165 219//167 648//526
f 216//164 670//546 669//545 218//166
f 647//525 215//163 217//165 649//527
f 214//162 670//546 216//164
f 646//524 213//161 215//163 647//525
f 645//523 646//524 647//525
f 213//161 646//524 211//159
f 212//160 211//159 646//524 644//522
f 639//518 212//160 644//522
f 634//513 204//152 206//154 636//515
f 632//513 202//152 204//152 634//513
f 628//509 199//149 200//150 631//512
f 626//507 193//143 195//145
f 198//148 194//144 192//142
f 193//143 626//507 624//505 623//504
f 191//141 193//143 623//504
f 189//139 191//141 623//504 312//235
f 187//137 189//139 312//235 311//234
f 185//135 187//137 311//234 315//238
f 186//136 185//135 315//238 243//189
f 242//188 186//136 243//189
f 140//91 182//132 179//129
f 238//184 183//133 180//130
f 178//128 183//133 654//532 177//127
f 173//123 174//124 177//127 658//534
f 168//118 170//120 173//123 666//542
f 166//116 168//118 666//542 663//539
f 165//115 166//116 663//539 664//540
f 164//114 165//115 664//540 665//541
f 668//544 669//545 162//112 164//114
f 161//111 670//546 214//162 210//158
f 209//157 159//109 161//111 210//158
f 160//110 158//108 167//117 163//113
f 209//157 207//155 157//107 159//109
f 158//108 156//106 169//119 167//117
f 207//155 205//153 155//104 157//107
f 156//106 154//105 171//121 169//119
f 205//153 203//153 153//104 155//104
f 203//153 201//151 151//102 153//104
f 201//151 197//147 152//103 151//102
f 172//122 150//101 148//99 175//125
f 146//97 152//103 145//96
f 198//148 143//94 145//96
f 139//90 141//92 190//140 188//138
f 140//91 139//90 188//138 184//134
f 182//132 140//91 184//134
f 136//87 137//88 140//91 179//129
f 176//126 136//87 179//129
f 130//81 132//83 136//87 175//125
f 129//80 671//38 109//39 131//82
f 148//99 128//79 130//81 175//125
f 127//78 672//37 671//38 129//80
f 147//98 126//77 128//79 148//99
f 125//76 117//36 672//37 127//78
f 144//95 124//75 126//77 147//98
f 123//74 124//75 144//95 142//93
f 134//85 135//86 120//71 122//73
f 122//73 123//74 142//93 138//89
f 109//39 110//40 133//84 131//82
f 72//38 90//54 78//42 74//39
f 70//37 88//52 90//54 72//38
f 67//36 86//50 88//52 70//37
f 81//45 68//35 65//35 119//45
f 83//47 86//50 67//36 68//35
f 105//69 102//66 104//68 106//70
f 673//43 79//43 81//45 119//45
f 76//40 79//43 673//43 75//40
f 118//36 66//36 69//37 674//37
f 65//35 66//36 118//36 116//35
f 674//37 69//37 71//38 675//38
f 112//43 673//43 119//45 114//45
f 75//40 673//43 112//43 108//40
f 675//38 71//38 73//39 107//39
f 117//36 118//36 674//37 672//37
f 115//35 117//36 125//76 121//72
f 672//37 674//37 675//38 671//38
f 135//86 111//43 113//45 120//71
f 110//40 111//43 135//86 133//84
f 671//38 675//38 107//39 109//39
f 612//495 591//474 592//475
f 591//474 612//495 609//492 613//496
f 308//231 610//493 307//230
f 676//547 611//494 594//477
f 607//490 611//494 676//547 605//488
f 608//491 606//489 309//232
f 590//473 591//474 613//496 677//548
f 677//548 613//496 308//231 304//227
f 593//476 587//470 588//471
f 594//477 595//478 597//480 600//483
f 676//547 594//477 600//483
f 605//488 676//547 600//483 602//485
f 309//232 606//489 604//487 314//237
f 310//233 309//232 314//237
f 589//472 590//473 677//548 618//501
f 618//501 677//548 304//227 305//228
f 586//469 589//472 580//463 579//462
f 582//465 586//469 579//462
f 574//457 576//459 580//463 617//500
f 305//228 303//226 569//452 571//454
f 616//499 305//228 571//454
f 599//482 598//481 583//466 578//461
f 581//464 599//482 578//461
f 601//484 599//482 581//464 615//498
f 568//451 603//486 614//497 570//453
f 567//450 568//451 570//453
f 196//146 199//149 628//509 195//145
f 631//512 200//150 202//152 632//513
f 636//515 206//154 208//156 212//160
f 143//94 198//148 192//142 190//140
f 141//92 143//94 190//140
f 154//105 149//100 150//101 171//121
f 669//545 670//546 161//111 162//112
f 180//130 181//131 186//136 239//185
f 655//533 654//532 236//182 234//180
f 662//538 228//176 226//174
f 296//221 625//506 627//508 294//220
f 290//218 643//521 642//520 288//217
f 638//517 639//518 280//214 283//215
f 274//211 647//525 649//527 272//210
f 245//191 241//187 243//189 316//239
f 251//197 248//194 249//195 622//247
f 652//530 260//204 261//205 265//206
f 558//441 544//429 539//424 541//426
f 555//438 558//441 541//426
f 537//422 542//427 547//432 535//420
f 551//434 552//435 528//415 529//416
f 531//418 551//434 529//416
f 559//442 554//437 366//277 363//274
f 496//383 497//384 515//402 500//387
f 512//399 383//292 386//295 389//298
f 565//448 566//449 619//502
f 341//254 343//256 350//261 346//258
f 398//307 336//251 516//403 397//306
f 440//348 442//350 450//350 452//348
f 678//344 436//344 438//346 451//346
f 435//343 436//344 678//344 465//343
f 458//350 450//350 448//352 679//352
f 452//348 450//350 458//350 454//348
f 679//352 448//352 447//354 680//354
f 459//344 678//344 451//346 453//346
f 465//343 678//344 459//344 462//343
f 680//354 447//354 449//342 464//342
f 457//350 458//350 679//352 470//352
f 456//348 457//350 472//359 476//363
f 489//376 491//378 495//382 488//375
f 470//352 679//352 680//354 468//354
f 479//366 460//344 455//346 478//365
f 461//343 460//344 479//366 467//356
f 468//354 680//354 464//342 463//342
