# WaveFront *.obj file (generated by Autodesk ATF)

mtllib pole.mtl

g Pole

v -0.150000 0.000000 -0.150000
v -0.150000 0.000000 0.150000
v -0.150000 3.032000 -0.150000
v -0.150000 3.032000 0.150000
v 0.150000 0.000000 -0.150000
v 0.150000 0.000000 0.150000
v 0.150000 3.032000 -0.150000
v 0.150000 3.032000 0.150000
vt 0.000000 0.000000 0.000000
vt 0.030000 0.000000 0.000000
vt 0.030000 0.303200 0.000000
vt 0.000000 0.303200 0.000000
vt 0.000000 0.000000 0.000000
vt 0.030000 0.000000 0.000000
vt 0.030000 0.303200 0.000000
vt 0.000000 0.303200 0.000000
vt 0.000000 0.000000 0.000000
vt 0.030000 0.000000 0.000000
vt 0.030000 0.303200 0.000000
vt 0.000000 0.303200 0.000000
vt 0.000000 0.000000 0.000000
vt 0.030000 0.000000 0.000000
vt 0.030000 0.303200 0.000000
vt 0.000000 0.303200 0.000000
vt -0.015000 0.015000 0.000000
vt -0.015000 -0.015000 0.000000
vt 0.015000 -0.015000 0.000000
vt 0.015000 0.015000 0.000000
vt 0.015000 -0.015000 0.000000
vt 0.015000 0.015000 0.000000
vt -0.015000 0.015000 0.000000
vt -0.015000 -0.015000 0.000000
vn -0.100000 0.000000 0.000000
vn -0.100000 0.000000 0.000000
vn -0.100000 0.000000 0.000000
vn -0.100000 0.000000 0.000000
vn 0.000000 0.000000 0.100000
vn 0.000000 0.000000 0.100000
vn 0.000000 0.000000 0.100000
vn 0.000000 0.000000 0.100000
vn 0.100000 0.000000 0.000000
vn 0.100000 0.000000 0.000000
vn 0.100000 0.000000 0.000000
vn 0.100000 0.000000 0.000000
vn 0.000000 0.000000 -0.100000
vn 0.000000 0.000000 -0.100000
vn 0.000000 0.000000 -0.100000
vn 0.000000 0.000000 -0.100000
vn 0.000000 0.100000 0.000000
vn 0.000000 0.100000 0.000000
vn 0.000000 0.100000 0.000000
vn 0.000000 0.100000 0.000000
vn 0.000000 -0.100000 0.000000
vn 0.000000 -0.100000 0.000000
vn 0.000000 -0.100000 0.000000
vn 0.000000 -0.100000 0.000000
usemtl 191,191,191
f 1/1/1 2/2/2 3/4/4
f 3/4/4 2/2/2 4/3/3
f 2/5/5 6/6/6 4/8/8
f 4/8/8 6/6/6 8/7/7
f 6/9/9 5/10/10 8/12/12
f 8/12/12 5/10/10 7/11/11
f 5/13/13 1/14/14 7/16/16
f 7/16/16 1/14/14 3/15/15
f 3/18/18 4/19/19 7/17/17
f 7/17/17 4/19/19 8/20/20
f 5/22/22 6/23/23 1/21/21
f 1/21/21 6/23/23 2/24/24
# 8 vertices
# 24 texture params
# 24 normals
# 12 facets

# 1 groups
