# WaveFront *.obj file (generated by Autodesk ATF)

mtllib target_main.mtl

g Solid1

v -2.500000 -0.500000 0.000000
v -2.500000 0.500000 0.000000
v -2.485837 -0.500000 -0.265734
v -2.485837 -0.500000 0.265734
v -2.485837 0.500000 -0.265734
v -2.485837 0.500000 0.265734
v -2.443509 -0.500000 -0.528457
v -2.443509 -0.500000 0.528457
v -2.443509 0.500000 -0.528457
v -2.443509 0.500000 0.528457
v -2.373494 -0.500000 -0.785192
v -2.373494 -0.500000 0.785192
v -2.373494 0.500000 -0.785192
v -2.373494 0.500000 0.785192
v -2.276587 -0.500000 -1.033030
v -2.276587 -0.500000 1.033030
v -2.276587 0.500000 -1.033030
v -2.276587 0.500000 1.033030
v -2.153885 -0.500000 -1.269165
v -2.153885 -0.500000 1.269165
v -2.153885 0.500000 -1.269165
v -2.153885 0.500000 1.269165
v -2.006779 -0.500000 -1.490918
v -2.006779 -0.500000 1.490918
v -2.006779 0.500000 -1.490918
v -2.006779 0.500000 1.490918
v -1.836935 -0.500000 -1.695780
v -1.836935 -0.500000 1.695780
v -1.836935 0.500000 -1.695780
v -1.836935 0.500000 1.695780
v -1.646279 -0.500000 -1.881427
v -1.646279 -0.500000 1.881427
v -1.646279 0.500000 -1.881427
v -1.646279 0.500000 1.881427
v -1.436969 -0.500000 -2.045757
v -1.436969 -0.500000 2.045757
v -1.436969 0.500000 -2.045757
v -1.436969 0.500000 2.045757
v -1.211377 -0.500000 -2.186908
v -1.211377 -0.500000 2.186908
v -1.211377 0.500000 -2.186908
v -1.211377 0.500000 2.186908
v -0.972060 -0.500000 -2.303280
v -0.972060 -0.500000 2.303280
v -0.972060 0.500000 -2.303280
v -0.972060 0.500000 2.303280
v -0.721730 -0.500000 -2.393555
v -0.721730 -0.500000 2.393555
v -0.721730 0.500000 -2.393555
v -0.721730 0.500000 2.393555
v -0.463222 -0.500000 -2.456710
v -0.463222 -0.500000 2.456710
v -0.463222 0.500000 -2.456710
v -0.463222 0.500000 2.456710
v -0.199465 -0.500000 -2.492030
v -0.199465 -0.500000 2.492030
v -0.199465 0.500000 -2.492030
v -0.199465 0.500000 2.492030
v 0.066551 -0.500000 -2.499114
v 0.066551 -0.500000 2.499114
v 0.066551 0.500000 -2.499114
v 0.066551 0.500000 2.499114
v 0.331814 -0.500000 -2.477882
v 0.331814 -0.500000 2.477882
v 0.331814 0.500000 -2.477882
v 0.331814 0.500000 2.477882
v 0.593317 -0.500000 -2.428575
v 0.593317 -0.500000 2.428575
v 0.593317 0.500000 -2.428575
v 0.593317 0.500000 2.428575
v 0.848097 -0.500000 -2.351751
v 0.848097 -0.500000 2.351751
v 0.848097 0.500000 -2.351751
v 0.848097 0.500000 2.351751
v 1.093268 -0.500000 -2.248280
v 1.093268 -0.500000 2.248280
v 1.093268 0.500000 -2.248280
v 1.093268 0.500000 2.248280
v 1.326052 -0.500000 -2.119336
v 1.326052 -0.500000 2.119336
v 1.326052 0.500000 -2.119336
v 1.326052 0.500000 2.119336
v 1.543812 -0.500000 -1.966379
v 1.543812 -0.500000 1.966379
v 1.543812 0.500000 -1.966379
v 1.543812 0.500000 1.966379
v 1.744079 -0.500000 -1.791142
v 1.744079 -0.500000 1.791142
v 1.744079 0.500000 -1.791142
v 1.744079 0.500000 1.791142
v 1.924585 -0.500000 -1.595611
v 1.924585 -0.500000 1.595611
v 1.924585 0.500000 -1.595611
v 1.924585 0.500000 1.595611
v 2.083285 -0.500000 -1.382000
v 2.083285 -0.500000 1.382000
v 2.083285 0.500000 -1.382000
v 2.083285 0.500000 1.382000
v 2.218380 -0.500000 -1.152731
v 2.218380 -0.500000 1.152731
v 2.218380 0.500000 -1.152731
v 2.218380 0.500000 1.152731
v 2.328340 -0.500000 -0.910401
v 2.328340 -0.500000 0.910401
v 2.328340 0.500000 -0.910401
v 2.328340 0.500000 0.910401
v 2.411920 -0.500000 -0.657756
v 2.411920 -0.500000 0.657756
v 2.411920 0.500000 -0.657756
v 2.411920 0.500000 0.657756
v 2.468171 -0.500000 -0.397659
v 2.468171 -0.500000 0.397659
v 2.468171 0.500000 -0.397659
v 2.468171 0.500000 0.397659
v 2.496457 -0.500000 -0.133055
v 2.496457 -0.500000 0.133055
v 2.496457 0.500000 -0.133055
v 2.496457 0.500000 0.133055
vt -0.000000 -0.250000 0.000000
vt 0.026573 -0.248584 0.000000
vt 0.052846 -0.244351 0.000000
vt 0.078519 -0.237349 0.000000
vt 0.103303 -0.227659 0.000000
vt 0.126916 -0.215389 0.000000
vt 0.149092 -0.200678 0.000000
vt 0.169578 -0.183694 0.000000
vt 0.188143 -0.164628 0.000000
vt 0.204576 -0.143697 0.000000
vt 0.218691 -0.121138 0.000000
vt 0.230328 -0.097206 0.000000
vt 0.239356 -0.072173 0.000000
vt 0.245671 -0.046322 0.000000
vt 0.249203 -0.019947 0.000000
vt 0.249911 0.006655 0.000000
vt 0.247788 0.033181 0.000000
vt 0.242857 0.059332 0.000000
vt 0.235175 0.084810 0.000000
vt 0.224828 0.109327 0.000000
vt 0.211934 0.132605 0.000000
vt 0.196638 0.154381 0.000000
vt 0.179114 0.174408 0.000000
vt 0.159561 0.192458 0.000000
vt 0.138200 0.208328 0.000000
vt 0.115273 0.221838 0.000000
vt 0.091040 0.232834 0.000000
vt 0.065776 0.241192 0.000000
vt 0.039766 0.246817 0.000000
vt 0.013306 0.249646 0.000000
vt -0.013306 0.249646 0.000000
vt -0.039766 0.246817 0.000000
vt -0.065776 0.241192 0.000000
vt -0.091040 0.232834 0.000000
vt -0.115273 0.221838 0.000000
vt -0.138200 0.208328 0.000000
vt -0.159561 0.192458 0.000000
vt -0.179114 0.174408 0.000000
vt -0.196638 0.154381 0.000000
vt -0.211934 0.132605 0.000000
vt -0.224828 0.109327 0.000000
vt -0.235175 0.084810 0.000000
vt -0.242857 0.059332 0.000000
vt -0.247788 0.033181 0.000000
vt -0.249911 0.006655 0.000000
vt -0.249203 -0.019947 0.000000
vt -0.245671 -0.046322 0.000000
vt -0.239356 -0.072173 0.000000
vt -0.230328 -0.097206 0.000000
vt -0.218691 -0.121138 0.000000
vt -0.204576 -0.143697 0.000000
vt -0.188143 -0.164628 0.000000
vt -0.169578 -0.183694 0.000000
vt -0.149092 -0.200678 0.000000
vt -0.126916 -0.215389 0.000000
vt -0.103303 -0.227659 0.000000
vt -0.078519 -0.237349 0.000000
vt -0.052846 -0.244351 0.000000
vt -0.026573 -0.248584 0.000000
vt 0.050000 0.000000 0.000000
vt 0.050000 0.026624 0.000000
vt 0.050000 0.053247 0.000000
vt 0.050000 0.079871 0.000000
vt 0.050000 0.106495 0.000000
vt 0.050000 0.133118 0.000000
vt 0.050000 0.159742 0.000000
vt 0.050000 0.186366 0.000000
vt 0.050000 0.212989 0.000000
vt 0.050000 0.239613 0.000000
vt 0.050000 0.266237 0.000000
vt 0.050000 0.292860 0.000000
vt 0.050000 0.319484 0.000000
vt 0.050000 0.346108 0.000000
vt 0.050000 0.372731 0.000000
vt 0.050000 0.399355 0.000000
vt 0.050000 0.425979 0.000000
vt 0.050000 0.452602 0.000000
vt 0.050000 0.479226 0.000000
vt 0.050000 0.505850 0.000000
vt 0.050000 0.532473 0.000000
vt 0.050000 0.559097 0.000000
vt 0.050000 0.585721 0.000000
vt 0.050000 0.612344 0.000000
vt 0.050000 0.638968 0.000000
vt 0.050000 0.665592 0.000000
vt 0.050000 0.692215 0.000000
vt 0.050000 0.718839 0.000000
vt 0.050000 0.745463 0.000000
vt 0.050000 0.772086 0.000000
vt 0.050000 -0.772086 0.000000
vt 0.050000 -0.745463 0.000000
vt 0.050000 -0.718839 0.000000
vt 0.050000 -0.692215 0.000000
vt 0.050000 -0.665592 0.000000
vt 0.050000 -0.638968 0.000000
vt 0.050000 -0.612344 0.000000
vt 0.050000 -0.585721 0.000000
vt 0.050000 -0.559097 0.000000
vt 0.050000 -0.532473 0.000000
vt 0.050000 -0.505850 0.000000
vt 0.050000 -0.479226 0.000000
vt 0.050000 -0.452602 0.000000
vt 0.050000 -0.425979 0.000000
vt 0.050000 -0.399355 0.000000
vt 0.050000 -0.372731 0.000000
vt 0.050000 -0.346108 0.000000
vt 0.050000 -0.319484 0.000000
vt 0.050000 -0.292860 0.000000
vt 0.050000 -0.266237 0.000000
vt 0.050000 -0.239613 0.000000
vt 0.050000 -0.212989 0.000000
vt 0.050000 -0.186366 0.000000
vt 0.050000 -0.159742 0.000000
vt 0.050000 -0.133118 0.000000
vt 0.050000 -0.106495 0.000000
vt 0.050000 -0.079871 0.000000
vt 0.050000 -0.053247 0.000000
vt 0.050000 -0.026624 0.000000
vt -0.050000 0.000000 0.000000
vt -0.050000 -0.026624 0.000000
vt -0.050000 -0.053247 0.000000
vt -0.050000 -0.079871 0.000000
vt -0.050000 -0.106495 0.000000
vt -0.050000 -0.133118 0.000000
vt -0.050000 -0.159742 0.000000
vt -0.050000 -0.186366 0.000000
vt -0.050000 -0.212989 0.000000
vt -0.050000 -0.239613 0.000000
vt -0.050000 -0.266237 0.000000
vt -0.050000 -0.292860 0.000000
vt -0.050000 -0.319484 0.000000
vt -0.050000 -0.346108 0.000000
vt -0.050000 -0.372731 0.000000
vt -0.050000 -0.399355 0.000000
vt -0.050000 -0.425979 0.000000
vt -0.050000 -0.452602 0.000000
vt -0.050000 -0.479226 0.000000
vt -0.050000 -0.505850 0.000000
vt -0.050000 -0.532473 0.000000
vt -0.050000 -0.559097 0.000000
vt -0.050000 -0.585721 0.000000
vt -0.050000 -0.612344 0.000000
vt -0.050000 -0.638968 0.000000
vt -0.050000 -0.665592 0.000000
vt -0.050000 -0.692215 0.000000
vt -0.050000 -0.718839 0.000000
vt -0.050000 -0.745463 0.000000
vt -0.050000 0.798710 0.000000
vt -0.050000 0.772086 0.000000
vt -0.050000 0.745463 0.000000
vt -0.050000 0.718839 0.000000
vt -0.050000 0.692215 0.000000
vt -0.050000 0.665592 0.000000
vt -0.050000 0.638968 0.000000
vt -0.050000 0.612344 0.000000
vt -0.050000 0.585721 0.000000
vt -0.050000 0.559097 0.000000
vt -0.050000 0.532473 0.000000
vt -0.050000 0.505850 0.000000
vt -0.050000 0.479226 0.000000
vt -0.050000 0.452602 0.000000
vt -0.050000 0.425979 0.000000
vt -0.050000 0.399355 0.000000
vt -0.050000 0.372731 0.000000
vt -0.050000 0.346108 0.000000
vt -0.050000 0.319484 0.000000
vt -0.050000 0.292860 0.000000
vt -0.050000 0.266237 0.000000
vt -0.050000 0.239613 0.000000
vt -0.050000 0.212989 0.000000
vt -0.050000 0.186366 0.000000
vt -0.050000 0.159742 0.000000
vt -0.050000 0.133118 0.000000
vt -0.050000 0.106495 0.000000
vt -0.050000 0.079871 0.000000
vt -0.050000 0.053247 0.000000
vt -0.050000 0.026624 0.000000
vt -0.050000 -0.772086 0.000000
vt -0.050000 -0.772086 0.000000
vt 0.050000 0.798710 0.000000
vt 0.050000 0.798710 0.000000
vt 0.000000 -0.250000 0.000000
vt 0.026573 -0.248584 0.000000
vt 0.052846 -0.244351 0.000000
vt 0.078519 -0.237349 0.000000
vt 0.103303 -0.227659 0.000000
vt 0.126916 -0.215389 0.000000
vt 0.149092 -0.200678 0.000000
vt 0.169578 -0.183694 0.000000
vt 0.188143 -0.164628 0.000000
vt 0.204576 -0.143697 0.000000
vt 0.218691 -0.121138 0.000000
vt 0.230328 -0.097206 0.000000
vt 0.239356 -0.072173 0.000000
vt 0.245671 -0.046322 0.000000
vt 0.249203 -0.019947 0.000000
vt 0.249911 0.006655 0.000000
vt 0.247788 0.033181 0.000000
vt 0.242857 0.059332 0.000000
vt 0.235175 0.084810 0.000000
vt 0.224828 0.109327 0.000000
vt 0.211934 0.132605 0.000000
vt 0.196638 0.154381 0.000000
vt 0.179114 0.174408 0.000000
vt 0.159561 0.192458 0.000000
vt 0.138200 0.208328 0.000000
vt 0.115273 0.221838 0.000000
vt 0.091040 0.232834 0.000000
vt 0.065776 0.241192 0.000000
vt 0.039766 0.246817 0.000000
vt 0.013306 0.249646 0.000000
vt -0.013306 0.249646 0.000000
vt -0.039766 0.246817 0.000000
vt -0.065776 0.241192 0.000000
vt -0.091040 0.232834 0.000000
vt -0.115273 0.221838 0.000000
vt -0.138200 0.208328 0.000000
vt -0.159561 0.192458 0.000000
vt -0.179114 0.174408 0.000000
vt -0.196638 0.154381 0.000000
vt -0.211934 0.132605 0.000000
vt -0.224828 0.109327 0.000000
vt -0.235175 0.084810 0.000000
vt -0.242857 0.059332 0.000000
vt -0.247788 0.033181 0.000000
vt -0.249911 0.006655 0.000000
vt -0.249203 -0.019947 0.000000
vt -0.245671 -0.046322 0.000000
vt -0.239356 -0.072173 0.000000
vt -0.230328 -0.097206 0.000000
vt -0.218691 -0.121138 0.000000
vt -0.204576 -0.143697 0.000000
vt -0.188143 -0.164628 0.000000
vt -0.169578 -0.183694 0.000000
vt -0.149092 -0.200678 0.000000
vt -0.126916 -0.215389 0.000000
vt -0.103303 -0.227659 0.000000
vt -0.078519 -0.237349 0.000000
vt -0.052846 -0.244351 0.000000
vt -0.026573 -0.248584 0.000000
vn 0.000000 -0.100000 0.000000
vn 0.000000 -0.100000 0.000000
vn 0.000000 -0.100000 0.000000
vn 0.000000 -0.100000 0.000000
vn 0.000000 -0.100000 0.000000
vn 0.000000 -0.100000 0.000000
vn 0.000000 -0.100000 0.000000
vn 0.000000 -0.100000 0.000000
vn 0.000000 -0.100000 0.000000
vn 0.000000 -0.100000 0.000000
vn 0.000000 -0.100000 0.000000
vn 0.000000 -0.100000 0.000000
vn 0.000000 -0.100000 0.000000
vn 0.000000 -0.100000 0.000000
vn 0.000000 -0.100000 0.000000
vn 0.000000 -0.100000 0.000000
vn 0.000000 -0.100000 0.000000
vn 0.000000 -0.100000 0.000000
vn 0.000000 -0.100000 0.000000
vn 0.000000 -0.100000 0.000000
vn 0.000000 -0.100000 0.000000
vn 0.000000 -0.100000 0.000000
vn 0.000000 -0.100000 0.000000
vn 0.000000 -0.100000 0.000000
vn 0.000000 -0.100000 0.000000
vn 0.000000 -0.100000 0.000000
vn 0.000000 -0.100000 0.000000
vn 0.000000 -0.100000 0.000000
vn 0.000000 -0.100000 0.000000
vn 0.000000 -0.100000 0.000000
vn 0.000000 -0.100000 0.000000
vn 0.000000 -0.100000 0.000000
vn 0.000000 -0.100000 0.000000
vn 0.000000 -0.100000 0.000000
vn 0.000000 -0.100000 0.000000
vn 0.000000 -0.100000 0.000000
vn 0.000000 -0.100000 0.000000
vn 0.000000 -0.100000 0.000000
vn 0.000000 -0.100000 0.000000
vn 0.000000 -0.100000 0.000000
vn 0.000000 -0.100000 0.000000
vn 0.000000 -0.100000 0.000000
vn 0.000000 -0.100000 0.000000
vn 0.000000 -0.100000 0.000000
vn 0.000000 -0.100000 0.000000
vn 0.000000 -0.100000 0.000000
vn 0.000000 -0.100000 0.000000
vn 0.000000 -0.100000 0.000000
vn 0.000000 -0.100000 0.000000
vn 0.000000 -0.100000 0.000000
vn 0.000000 -0.100000 0.000000
vn 0.000000 -0.100000 0.000000
vn 0.000000 -0.100000 0.000000
vn 0.000000 -0.100000 0.000000
vn 0.000000 -0.100000 0.000000
vn 0.000000 -0.100000 0.000000
vn 0.000000 -0.100000 0.000000
vn 0.000000 -0.100000 0.000000
vn 0.000000 -0.100000 0.000000
vn -0.100000 0.000000 0.000000
vn -0.099433 0.000000 0.010629
vn -0.097740 0.000000 0.021138
vn -0.094940 0.000000 0.031408
vn -0.091063 0.000000 0.041321
vn -0.086155 0.000000 0.050767
vn -0.080271 0.000000 0.059637
vn -0.073477 0.000000 0.067831
vn -0.065851 0.000000 0.075257
vn -0.057479 0.000000 0.081830
vn -0.048455 0.000000 0.087476
vn -0.038882 0.000000 0.092131
vn -0.028869 0.000000 0.095742
vn -0.018529 0.000000 0.098268
vn -0.007979 0.000000 0.099681
vn 0.002662 0.000000 0.099965
vn 0.013273 0.000000 0.099115
vn 0.023733 0.000000 0.097143
vn 0.033924 0.000000 0.094070
vn 0.043731 0.000000 0.089931
vn 0.053042 0.000000 0.084773
vn 0.061752 0.000000 0.078655
vn 0.069763 0.000000 0.071646
vn 0.076983 0.000000 0.063824
vn 0.083331 0.000000 0.055280
vn 0.088735 0.000000 0.046109
vn 0.093134 0.000000 0.036416
vn 0.096477 0.000000 0.026310
vn 0.098727 0.000000 0.015906
vn 0.099858 0.000000 0.005322
vn 0.099858 0.000000 -0.005322
vn 0.098727 0.000000 -0.015906
vn 0.096477 0.000000 -0.026310
vn 0.093134 0.000000 -0.036416
vn 0.088735 0.000000 -0.046109
vn 0.083331 0.000000 -0.055280
vn 0.076983 0.000000 -0.063824
vn 0.069763 0.000000 -0.071646
vn 0.061752 0.000000 -0.078655
vn 0.053042 0.000000 -0.084773
vn 0.043731 0.000000 -0.089931
vn 0.033924 0.000000 -0.094070
vn 0.023733 0.000000 -0.097143
vn 0.013273 0.000000 -0.099115
vn 0.002662 0.000000 -0.099965
vn -0.007979 0.000000 -0.099681
vn -0.018529 0.000000 -0.098268
vn -0.028869 0.000000 -0.095742
vn -0.038882 0.000000 -0.092131
vn -0.048455 0.000000 -0.087476
vn -0.057479 0.000000 -0.081830
vn -0.065851 0.000000 -0.075257
vn -0.073477 0.000000 -0.067831
vn -0.080271 0.000000 -0.059637
vn -0.086155 0.000000 -0.050767
vn -0.091063 0.000000 -0.041321
vn -0.094940 0.000000 -0.031408
vn -0.097740 0.000000 -0.021138
vn -0.099433 0.000000 -0.010629
vn -0.100000 0.000000 0.000000
vn -0.099433 0.000000 -0.010629
vn -0.097740 0.000000 -0.021138
vn -0.094940 0.000000 -0.031408
vn -0.091063 0.000000 -0.041321
vn -0.086155 0.000000 -0.050767
vn -0.080271 0.000000 -0.059637
vn -0.073477 0.000000 -0.067831
vn -0.065851 0.000000 -0.075257
vn -0.057479 0.000000 -0.081830
vn -0.048455 0.000000 -0.087476
vn -0.038882 0.000000 -0.092131
vn -0.028869 0.000000 -0.095742
vn -0.018529 0.000000 -0.098268
vn -0.007979 0.000000 -0.099681
vn 0.002662 0.000000 -0.099965
vn 0.013273 0.000000 -0.099115
vn 0.023733 0.000000 -0.097143
vn 0.033924 0.000000 -0.094070
vn 0.043731 0.000000 -0.089931
vn 0.053042 0.000000 -0.084773
vn 0.061752 0.000000 -0.078655
vn 0.069763 0.000000 -0.071646
vn 0.076983 0.000000 -0.063824
vn 0.083331 0.000000 -0.055280
vn 0.088735 0.000000 -0.046109
vn 0.093134 0.000000 -0.036416
vn 0.096477 0.000000 -0.026310
vn 0.098727 0.000000 -0.015906
vn 0.099858 0.000000 -0.005322
vn 0.099858 0.000000 0.005322
vn 0.098727 0.000000 0.015906
vn 0.096477 0.000000 0.026310
vn 0.093134 0.000000 0.036416
vn 0.088735 0.000000 0.046109
vn 0.083331 0.000000 0.055280
vn 0.076983 0.000000 0.063824
vn 0.069763 0.000000 0.071646
vn 0.061752 0.000000 0.078655
vn 0.053042 0.000000 0.084773
vn 0.043731 0.000000 0.089931
vn 0.033924 0.000000 0.094070
vn 0.023733 0.000000 0.097143
vn 0.013273 0.000000 0.099115
vn 0.002662 0.000000 0.099965
vn -0.007979 0.000000 0.099681
vn -0.018529 0.000000 0.098268
vn -0.028869 0.000000 0.095742
vn -0.038882 0.000000 0.092131
vn -0.048455 0.000000 0.087476
vn -0.057479 0.000000 0.081830
vn -0.065851 0.000000 0.075257
vn -0.073477 0.000000 0.067831
vn -0.080271 0.000000 0.059637
vn -0.086155 0.000000 0.050767
vn -0.091063 0.000000 0.041321
vn -0.094940 0.000000 0.031408
vn -0.097740 0.000000 0.021138
vn -0.099433 0.000000 0.010629
vn 0.099858 0.000000 -0.005322
vn 0.099858 0.000000 -0.005322
vn 0.099858 0.000000 -0.005322
vn 0.099858 0.000000 -0.005322
vn 0.000000 0.100000 0.000000
vn 0.000000 0.100000 0.000000
vn 0.000000 0.100000 0.000000
vn 0.000000 0.100000 0.000000
vn 0.000000 0.100000 0.000000
vn 0.000000 0.100000 0.000000
vn 0.000000 0.100000 0.000000
vn 0.000000 0.100000 0.000000
vn 0.000000 0.100000 0.000000
vn 0.000000 0.100000 0.000000
vn 0.000000 0.100000 0.000000
vn 0.000000 0.100000 0.000000
vn 0.000000 0.100000 0.000000
vn 0.000000 0.100000 0.000000
vn 0.000000 0.100000 0.000000
vn 0.000000 0.100000 0.000000
vn 0.000000 0.100000 0.000000
vn 0.000000 0.100000 0.000000
vn 0.000000 0.100000 0.000000
vn 0.000000 0.100000 0.000000
vn 0.000000 0.100000 0.000000
vn 0.000000 0.100000 0.000000
vn 0.000000 0.100000 0.000000
vn 0.000000 0.100000 0.000000
vn 0.000000 0.100000 0.000000
vn 0.000000 0.100000 0.000000
vn 0.000000 0.100000 0.000000
vn 0.000000 0.100000 0.000000
vn 0.000000 0.100000 0.000000
vn 0.000000 0.100000 0.000000
vn 0.000000 0.100000 0.000000
vn 0.000000 0.100000 0.000000
vn 0.000000 0.100000 0.000000
vn 0.000000 0.100000 0.000000
vn 0.000000 0.100000 0.000000
vn 0.000000 0.100000 0.000000
vn 0.000000 0.100000 0.000000
vn 0.000000 0.100000 0.000000
vn 0.000000 0.100000 0.000000
vn 0.000000 0.100000 0.000000
vn 0.000000 0.100000 0.000000
vn 0.000000 0.100000 0.000000
vn 0.000000 0.100000 0.000000
vn 0.000000 0.100000 0.000000
vn 0.000000 0.100000 0.000000
vn 0.000000 0.100000 0.000000
vn 0.000000 0.100000 0.000000
vn 0.000000 0.100000 0.000000
vn 0.000000 0.100000 0.000000
vn 0.000000 0.100000 0.000000
vn 0.000000 0.100000 0.000000
vn 0.000000 0.100000 0.000000
vn 0.000000 0.100000 0.000000
vn 0.000000 0.100000 0.000000
vn 0.000000 0.100000 0.000000
vn 0.000000 0.100000 0.000000
vn 0.000000 0.100000 0.000000
vn 0.000000 0.100000 0.000000
vn 0.000000 0.100000 0.000000
usemtl 191,191,191
f 1/1/1 3/2/2 4/59/59
f 4/59/59 3/2/2 8/58/58
f 8/58/58 3/2/2 7/3/3
f 8/58/58 7/3/3 12/57/57
f 12/57/57 7/3/3 11/4/4
f 12/57/57 11/4/4 16/56/56
f 16/56/56 11/4/4 15/5/5
f 16/56/56 15/5/5 20/55/55
f 20/55/55 15/5/5 19/6/6
f 20/55/55 19/6/6 24/54/54
f 24/54/54 19/6/6 23/7/7
f 24/54/54 23/7/7 28/53/53
f 28/53/53 23/7/7 27/8/8
f 28/53/53 27/8/8 32/52/52
f 32/52/52 27/8/8 31/9/9
f 32/52/52 31/9/9 36/51/51
f 36/51/51 31/9/9 35/10/10
f 36/51/51 35/10/10 40/50/50
f 40/50/50 35/10/10 39/11/11
f 40/50/50 39/11/11 44/49/49
f 44/49/49 39/11/11 43/12/12
f 44/49/49 43/12/12 48/48/48
f 48/48/48 43/12/12 47/13/13
f 48/48/48 47/13/13 52/47/47
f 52/47/47 47/13/13 51/14/14
f 52/47/47 51/14/14 56/46/46
f 56/46/46 51/14/14 55/15/15
f 56/46/46 55/15/15 60/45/45
f 60/45/45 55/15/15 59/16/16
f 60/45/45 59/16/16 64/44/44
f 64/44/44 59/16/16 63/17/17
f 64/44/44 63/17/17 68/43/43
f 68/43/43 63/17/17 67/18/18
f 68/43/43 67/18/18 72/42/42
f 72/42/42 67/18/18 71/19/19
f 72/42/42 71/19/19 76/41/41
f 76/41/41 71/19/19 75/20/20
f 76/41/41 75/20/20 80/40/40
f 80/40/40 75/20/20 79/21/21
f 80/40/40 79/21/21 84/39/39
f 84/39/39 79/21/21 83/22/22
f 84/39/39 83/22/22 88/38/38
f 88/38/38 83/22/22 87/23/23
f 88/38/38 87/23/23 92/37/37
f 92/37/37 87/23/23 91/24/24
f 92/37/37 91/24/24 96/36/36
f 96/36/36 91/24/24 95/25/25
f 96/36/36 95/25/25 100/35/35
f 100/35/35 95/25/25 99/26/26
f 100/35/35 99/26/26 104/34/34
f 104/34/34 99/26/26 103/27/27
f 104/34/34 103/27/27 108/33/33
f 108/33/33 103/27/27 107/28/28
f 108/33/33 107/28/28 112/32/32
f 112/32/32 107/28/28 111/29/29
f 112/32/32 111/29/29 116/31/31
f 116/31/31 111/29/29 115/30/30
f 4/61/61 2/119/119 1/60/60
f 1/60/60 2/119/119 5/120/120
f 1/60/60 5/120/120 3/118/118
f 3/118/118 5/120/120 9/121/121
f 3/118/118 9/121/121 7/117/117
f 7/117/117 9/121/121 13/122/122
f 7/117/117 13/122/122 11/116/116
f 11/116/116 13/122/122 17/123/123
f 11/116/116 17/123/123 15/115/115
f 15/115/115 17/123/123 21/124/124
f 15/115/115 21/124/124 19/114/114
f 19/114/114 21/124/124 25/125/125
f 19/114/114 25/125/125 23/113/113
f 23/113/113 25/125/125 29/126/126
f 23/113/113 29/126/126 27/112/112
f 27/112/112 29/126/126 33/127/127
f 27/112/112 33/127/127 31/111/111
f 31/111/111 33/127/127 37/128/128
f 31/111/111 37/128/128 35/110/110
f 35/110/110 37/128/128 41/129/129
f 35/110/110 41/129/129 39/109/109
f 39/109/109 41/129/129 45/130/130
f 39/109/109 45/130/130 43/108/108
f 43/108/108 45/130/130 49/131/131
f 43/108/108 49/131/131 47/107/107
f 47/107/107 49/131/131 53/132/132
f 47/107/107 53/132/132 51/106/106
f 51/106/106 53/132/132 57/133/133
f 51/106/106 57/133/133 55/105/105
f 55/105/105 57/133/133 61/134/134
f 55/105/105 61/134/134 59/104/104
f 59/104/104 61/134/134 65/135/135
f 59/104/104 65/135/135 63/103/103
f 63/103/103 65/135/135 69/136/136
f 63/103/103 69/136/136 67/102/102
f 67/102/102 69/136/136 73/137/137
f 67/102/102 73/137/137 71/101/101
f 71/101/101 73/137/137 77/138/138
f 71/101/101 77/138/138 75/100/100
f 75/100/100 77/138/138 81/139/139
f 75/100/100 81/139/139 79/99/99
f 79/99/99 81/139/139 85/140/140
f 79/99/99 85/140/140 83/98/98
f 83/98/98 85/140/140 89/141/141
f 83/98/98 89/141/141 87/97/97
f 87/97/97 89/141/141 93/142/142
f 87/97/97 93/142/142 91/96/96
f 91/96/96 93/142/142 97/143/143
f 91/96/96 97/143/143 95/95/95
f 95/95/95 97/143/143 101/144/144
f 95/95/95 101/144/144 99/94/94
f 99/94/94 101/144/144 105/145/145
f 99/94/94 105/145/145 103/93/93
f 103/93/93 105/145/145 109/146/146
f 103/93/93 109/146/146 107/92/92
f 107/92/92 109/146/146 113/147/147
f 107/92/92 113/147/147 111/91/91
f 111/91/91 113/147/147 117/178/178
f 111/91/91 117/179/179 115/90/90
f 115/180/180 117/148/148 118/149/149
f 115/181/181 118/149/149 116/89/89
f 116/89/89 118/149/149 114/150/150
f 116/89/89 114/150/150 112/88/88
f 112/88/88 114/150/150 110/151/151
f 112/88/88 110/151/151 108/87/87
f 108/87/87 110/151/151 106/152/152
f 108/87/87 106/152/152 104/86/86
f 104/86/86 106/152/152 102/153/153
f 104/86/86 102/153/153 100/85/85
f 100/85/85 102/153/153 98/154/154
f 100/85/85 98/154/154 96/84/84
f 96/84/84 98/154/154 94/155/155
f 96/84/84 94/155/155 92/83/83
f 92/83/83 94/155/155 90/156/156
f 92/83/83 90/156/156 88/82/82
f 88/82/82 90/156/156 86/157/157
f 88/82/82 86/157/157 84/81/81
f 84/81/81 86/157/157 82/158/158
f 84/81/81 82/158/158 80/80/80
f 80/80/80 82/158/158 78/159/159
f 80/80/80 78/159/159 76/79/79
f 76/79/79 78/159/159 74/160/160
f 76/79/79 74/160/160 72/78/78
f 72/78/78 74/160/160 70/161/161
f 72/78/78 70/161/161 68/77/77
f 68/77/77 70/161/161 66/162/162
f 68/77/77 66/162/162 64/76/76
f 64/76/76 66/162/162 62/163/163
f 64/76/76 62/163/163 60/75/75
f 60/75/75 62/163/163 58/164/164
f 60/75/75 58/164/164 56/74/74
f 56/74/74 58/164/164 54/165/165
f 56/74/74 54/165/165 52/73/73
f 52/73/73 54/165/165 50/166/166
f 52/73/73 50/166/166 48/72/72
f 48/72/72 50/166/166 46/167/167
f 48/72/72 46/167/167 44/71/71
f 44/71/71 46/167/167 42/168/168
f 44/71/71 42/168/168 40/70/70
f 40/70/70 42/168/168 38/169/169
f 40/70/70 38/169/169 36/69/69
f 36/69/69 38/169/169 34/170/170
f 36/69/69 34/170/170 32/68/68
f 32/68/68 34/170/170 30/171/171
f 32/68/68 30/171/171 28/67/67
f 28/67/67 30/171/171 26/172/172
f 28/67/67 26/172/172 24/66/66
f 24/66/66 26/172/172 22/173/173
f 24/66/66 22/173/173 20/65/65
f 20/65/65 22/173/173 18/174/174
f 20/65/65 18/174/174 16/64/64
f 16/64/64 18/174/174 14/175/175
f 16/64/64 14/175/175 12/63/63
f 12/63/63 14/175/175 10/176/176
f 12/63/63 10/176/176 8/62/62
f 8/62/62 10/176/176 6/177/177
f 8/62/62 6/177/177 4/61/61
f 4/61/61 6/177/177 2/119/119
f 2/182/182 6/183/183 5/240/240
f 5/240/240 6/183/183 9/239/239
f 9/239/239 6/183/183 10/184/184
f 9/239/239 10/184/184 13/238/238
f 13/238/238 10/184/184 14/185/185
f 13/238/238 14/185/185 17/237/237
f 17/237/237 14/185/185 18/186/186
f 17/237/237 18/186/186 21/236/236
f 21/236/236 18/186/186 22/187/187
f 21/236/236 22/187/187 25/235/235
f 25/235/235 22/187/187 26/188/188
f 25/235/235 26/188/188 29/234/234
f 29/234/234 26/188/188 30/189/189
f 29/234/234 30/189/189 33/233/233
f 33/233/233 30/189/189 34/190/190
f 33/233/233 34/190/190 37/232/232
f 37/232/232 34/190/190 38/191/191
f 37/232/232 38/191/191 41/231/231
f 41/231/231 38/191/191 42/192/192
f 41/231/231 42/192/192 45/230/230
f 45/230/230 42/192/192 46/193/193
f 45/230/230 46/193/193 49/229/229
f 49/229/229 46/193/193 50/194/194
f 49/229/229 50/194/194 53/228/228
f 53/228/228 50/194/194 54/195/195
f 53/228/228 54/195/195 57/227/227
f 57/227/227 54/195/195 58/196/196
f 57/227/227 58/196/196 61/226/226
f 61/226/226 58/196/196 62/197/197
f 61/226/226 62/197/197 65/225/225
f 65/225/225 62/197/197 66/198/198
f 65/225/225 66/198/198 69/224/224
f 69/224/224 66/198/198 70/199/199
f 69/224/224 70/199/199 73/223/223
f 73/223/223 70/199/199 74/200/200
f 73/223/223 74/200/200 77/222/222
f 77/222/222 74/200/200 78/201/201
f 77/222/222 78/201/201 81/221/221
f 81/221/221 78/201/201 82/202/202
f 81/221/221 82/202/202 85/220/220
f 85/220/220 82/202/202 86/203/203
f 85/220/220 86/203/203 89/219/219
f 89/219/219 86/203/203 90/204/204
f 89/219/219 90/204/204 93/218/218
f 93/218/218 90/204/204 94/205/205
f 93/218/218 94/205/205 97/217/217
f 97/217/217 94/205/205 98/206/206
f 97/217/217 98/206/206 101/216/216
f 101/216/216 98/206/206 102/207/207
f 101/216/216 102/207/207 105/215/215
f 105/215/215 102/207/207 106/208/208
f 105/215/215 106/208/208 109/214/214
f 109/214/214 106/208/208 110/209/209
f 109/214/214 110/209/209 113/213/213
f 113/213/213 110/209/209 114/210/210
f 113/213/213 114/210/210 117/212/212
f 117/212/212 114/210/210 118/211/211
# 118 vertices
# 240 texture params
# 240 normals
# 232 facets

# 1 groups
