# WaveFront *.obj file (generated by Autodesk ATF)

mtllib target.mtl

g Target

v -0.150000 3.031828 -1.425000
v -0.150000 3.031828 1.425000
v -0.150000 5.500000 -2.850000
v -0.150000 5.500000 2.850000
v -0.150000 7.968172 -1.425000
v -0.150000 7.968172 1.425000
v 0.150000 3.031828 -1.425000
v 0.150000 3.031828 1.425000
v 0.150000 5.500000 -2.850000
v 0.150000 5.500000 2.850000
v 0.150000 7.968172 -1.425000
v 0.150000 7.968172 1.425000
vt 0.000000 0.000000 0.000000
vt 0.285000 0.000000 0.000000
vt 0.285000 0.030000 0.000000
vt 0.000000 0.030000 0.000000
vt 0.000000 0.000000 0.000000
vt 0.285000 0.000000 0.000000
vt 0.285000 0.030000 0.000000
vt 0.000000 0.030000 0.000000
vt 0.000000 0.000000 0.000000
vt 0.285000 0.000000 0.000000
vt 0.285000 0.030000 0.000000
vt 0.000000 0.030000 0.000000
vt 0.000000 0.000000 0.000000
vt 0.285000 0.000000 0.000000
vt 0.285000 0.030000 0.000000
vt 0.000000 0.030000 0.000000
vt 0.000000 0.000000 0.000000
vt 0.285000 0.000000 0.000000
vt 0.285000 0.030000 0.000000
vt 0.000000 0.030000 0.000000
vt 0.000000 0.000000 0.000000
vt 0.285000 0.000000 0.000000
vt 0.285000 0.030000 0.000000
vt 0.000000 0.030000 0.000000
vt -0.142500 0.246817 0.000000
vt -0.285000 0.000000 0.000000
vt -0.142500 -0.246817 0.000000
vt 0.142500 -0.246817 0.000000
vt 0.285000 0.000000 0.000000
vt 0.142500 0.246817 0.000000
vt 0.285000 0.000000 0.000000
vt 0.142500 0.246817 0.000000
vt -0.142500 0.246817 0.000000
vt -0.285000 0.000000 0.000000
vt -0.142500 -0.246817 0.000000
vt 0.142500 -0.246817 0.000000
vn 0.000000 -0.050000 0.086603
vn 0.000000 -0.050000 0.086603
vn 0.000000 -0.050000 0.086603
vn 0.000000 -0.050000 0.086603
vn 0.000000 -0.100000 0.000000
vn 0.000000 -0.100000 0.000000
vn 0.000000 -0.100000 0.000000
vn 0.000000 -0.100000 0.000000
vn 0.000000 -0.050000 -0.086603
vn 0.000000 -0.050000 -0.086603
vn 0.000000 -0.050000 -0.086603
vn 0.000000 -0.050000 -0.086603
vn 0.000000 0.050000 -0.086603
vn 0.000000 0.050000 -0.086603
vn 0.000000 0.050000 -0.086603
vn 0.000000 0.050000 -0.086603
vn 0.000000 0.100000 0.000000
vn 0.000000 0.100000 0.000000
vn 0.000000 0.100000 0.000000
vn 0.000000 0.100000 0.000000
vn 0.000000 0.050000 0.086603
vn 0.000000 0.050000 0.086603
vn 0.000000 0.050000 0.086603
vn 0.000000 0.050000 0.086603
vn 0.100000 0.000000 0.000000
vn 0.100000 0.000000 0.000000
vn 0.100000 0.000000 0.000000
vn 0.100000 0.000000 0.000000
vn 0.100000 0.000000 0.000000
vn 0.100000 0.000000 0.000000
vn -0.100000 0.000000 0.000000
vn -0.100000 0.000000 0.000000
vn -0.100000 0.000000 0.000000
vn -0.100000 0.000000 0.000000
vn -0.100000 0.000000 0.000000
vn -0.100000 0.000000 0.000000
usemtl 191,191,191
f 8/1/1 10/2/2 2/4/4
f 2/4/4 10/2/2 4/3/3
f 7/5/5 8/6/6 1/8/8
f 1/8/8 8/6/6 2/7/7
f 9/9/9 7/10/10 3/12/12
f 3/12/12 7/10/10 1/11/11
f 11/13/13 9/14/14 5/16/16
f 5/16/16 9/14/14 3/15/15
f 12/17/17 11/18/18 6/20/20
f 6/20/20 11/18/18 5/19/19
f 10/21/21 12/22/22 4/24/24
f 4/24/24 12/22/22 6/23/23
f 11/30/30 12/25/25 9/29/29
f 9/29/29 12/25/25 10/26/26
f 9/29/29 10/26/26 7/28/28
f 7/28/28 10/26/26 8/27/27
f 6/32/32 5/33/33 4/31/31
f 4/31/31 5/33/33 3/34/34
f 4/31/31 3/34/34 2/36/36
f 2/36/36 3/34/34 1/35/35
# 12 vertices
# 36 texture params
# 36 normals
# 20 facets

# 1 groups
