# Blender 5.0.0
# www.blender.org
mtllib Walk_Forward0014.mtl
o Mball.010
v 1.289342 3.674565 1.780761
v 0.954174 3.454674 1.804009
v 0.883637 3.659035 2.110512
v 1.200847 3.856174 2.092507
v 0.730727 3.585451 1.718449
v 0.681450 3.773316 2.034568
v 0.675630 4.039241 1.543764
v 0.624345 4.226786 1.859659
v 0.893545 4.278339 1.493623
v 0.825793 4.444864 1.814383
v 1.258309 4.162611 1.597678
v 1.192788 4.313628 1.916761
v 1.190197 4.317054 1.922779
v 1.278554 4.135423 1.611019
v 1.347644 3.950719 1.297109
v 1.327399 3.977907 1.283768
v 1.416397 3.765961 0.983161
v 1.396531 3.792640 0.970070
v 1.431633 3.315770 1.149772
v 1.362591 3.499825 1.463927
v 1.424928 3.672667 0.881721
v 1.404627 3.539634 0.707004
v 1.031748 3.908612 0.865923
v 1.097952 3.601524 0.626119
v 0.950448 3.457992 0.634749
v 0.814122 3.669883 0.915978
v 0.869252 3.216098 1.090667
v 1.017830 3.050765 0.748819
v 1.092329 3.085609 1.176060
v 1.169735 2.989644 0.791725
v 0.799816 3.400747 1.404539
v 1.023264 3.269970 1.490099
v 1.427180 3.305102 1.152903
v 1.358432 3.489861 1.466851
v 0.878021 3.376414 0.356769
v 1.191073 3.447635 0.281994
v 1.440926 3.143992 0.788140
v 1.498274 3.409753 0.579609
v 1.462305 3.646844 0.449645
v 1.391000 3.560473 0.759529
v 1.338649 3.783876 0.825263
v 1.486212 3.689868 0.519376
v 1.170728 4.251383 0.803927
v 1.335394 4.197647 0.433788
v 1.016758 4.720389 0.722404
v 1.177208 4.696333 0.353097
v 1.161103 4.653898 0.262906
v 1.314562 4.159235 0.351128
v 1.089729 4.232687 0.856196
v 0.937413 4.686833 0.778442
v 0.624755 4.494888 0.787875
v 0.729660 4.080713 0.869740
v 0.517614 4.324420 0.517792
v 0.565963 3.927239 0.623248
v 0.907303 3.657795 0.855070
v 0.732583 3.490246 0.647107
v 0.552067 5.113069 0.635214
v 0.693974 5.217413 0.268337
v 0.355240 5.483022 0.628043
v 0.488518 5.503097 0.247665
v 0.513433 5.875658 0.666180
v 0.646253 5.877082 0.283683
v 0.567751 5.907130 0.678699
v 0.700445 5.906495 0.296122
v 0.453204 5.950135 -0.189890
v 0.426827 5.911500 -0.124149
v 0.849723 6.090473 -0.084468
v 0.922993 6.264524 -0.249367
v 0.603505 6.307171 -0.528152
v 1.032118 6.246301 -0.036305
v 0.072413 5.993815 -0.291775
v 0.222714 6.350851 -0.630038
v 0.241652 6.420100 -0.666216
v 0.622443 6.376420 -0.564330
v 0.688691 6.704384 -0.668140
v 0.307900 6.748064 -0.770026
v 0.722715 7.102460 -0.660491
v 0.341924 7.146140 -0.762377
v 0.331848 7.475391 -0.645939
v 0.712639 7.431711 -0.544053
v 0.705577 7.501398 -0.505205
v 0.324786 7.545078 -0.607091
v 0.235862 7.906149 -0.255031
v 0.616653 7.862469 -0.153145
v 0.596846 7.901882 -0.085615
v 0.216055 7.945562 -0.187501
v 0.116376 8.061964 0.130594
v 0.497167 8.018284 0.232481
v -0.016236 8.064200 0.513269
v 0.364555 8.020519 0.615155
v 0.245293 7.907810 0.928848
v -0.135498 7.951491 0.826962
v -0.161975 7.912859 0.892993
v 0.218816 7.869178 0.994879
v 0.068515 7.512142 1.333141
v -0.312276 7.555823 1.231255
v -0.331214 7.486574 1.267433
v 0.049577 7.442893 1.369319
v -0.016671 7.114929 1.473129
v -0.397462 7.158610 1.371243
v -0.431486 6.760534 1.363594
v -0.050695 6.716853 1.465480
v -0.421410 6.431283 1.247157
v -0.040619 6.387602 1.349042
v -0.033557 6.317914 1.310194
v -0.414348 6.361595 1.208308
v -0.325424 6.000525 0.856248
v 0.055367 5.956844 0.958134
v 0.075073 5.917433 0.890894
v -0.305690 5.960931 0.788893
v -0.267779 5.548018 0.571077
v 0.106479 5.506603 0.690598
v -0.335463 5.028456 0.621172
v 0.051023 4.993977 0.737811
v -0.349880 4.602394 0.565476
v 0.036696 4.577634 0.676953
v -0.292081 4.260739 0.472110
v 0.066839 4.254566 0.541645
v -0.194451 3.885626 0.446907
v 0.168882 4.123968 0.454079
v -0.165035 3.504950 0.406603
v 0.185254 3.815812 0.540358
v -0.156845 3.124239 0.346965
v 0.178651 3.457636 0.637410
v -0.152008 2.748697 0.226517
v 0.168477 3.070262 0.673180
v 0.568753 3.427080 0.554560
v 0.556418 3.049634 0.662524
v 0.159194 2.662473 0.681512
v 0.538786 2.722368 0.854042
v 0.151647 2.350075 0.687954
v 0.529714 2.366750 0.999605
v 0.171309 2.262741 0.758944
v 0.559011 2.003958 1.129932
v 0.235294 1.896695 0.990426
v 0.588590 1.638865 1.255888
v 0.312664 1.533193 1.117813
v 0.618387 1.264463 1.374623
v 0.351270 1.177619 1.243506
v 0.567654 0.804000 1.353682
v 0.332112 0.834399 1.259478
v 0.516290 0.408304 1.364087
v 0.253923 0.444729 1.262690
v 0.476763 0.059913 1.289804
v 0.472948 0.002961 1.238892
v 0.376046 -0.002939 0.886814
v 0.238393 0.417009 0.870624
v 0.490564 -0.043455 0.893822
v 0.494924 -0.023461 0.867449
v 0.569495 -0.033769 0.896995
v 0.561650 0.353727 0.723361
v 0.834791 0.327353 0.897650
v 0.723882 0.369832 1.287424
v 0.814010 0.764886 1.279333
v 0.317987 1.010238 0.869645
v 0.269740 1.334394 0.754574
v 0.653025 0.947216 0.661274
v 0.627513 1.258590 0.541728
v 1.018622 1.065335 0.873620
v 0.969986 1.403311 0.761568
v 0.940044 1.188691 1.253484
v 0.908893 1.589759 1.125181
v 0.834630 1.953170 0.990533
v 0.152219 2.236341 0.674155
v -0.148007 2.054439 -0.167087
v -0.148064 2.029305 -0.182716
v -0.150633 1.646719 -0.424277
v 0.168283 1.881596 0.309249
v -0.167344 1.775871 -0.626811
v -0.171594 1.701648 -0.719956
v -0.235959 1.410406 -0.865079
v -0.285138 1.231596 -0.487984
v -0.188968 1.607311 -0.380085
v -0.483191 0.851163 -0.589878
v -0.378978 1.051291 -0.936946
v -0.573180 1.128412 -1.037401
v -0.583536 1.497537 -1.031634
v -0.858708 1.410358 -0.837466
v -0.890126 1.063645 -0.920304
v -0.579488 1.888081 -0.960765
v -0.879687 1.783576 -0.725257
v -0.765639 1.231559 -0.466679
v -0.802053 1.605992 -0.354204
v -0.546384 1.187973 -0.384977
v -0.537366 1.540231 -0.227996
v -0.768952 1.978979 -0.243891
v -0.529386 1.916712 -0.116429
v -0.747402 2.352850 -0.142332
v -0.529932 2.302391 -0.009316
v -0.737706 2.734049 -0.047914
v -0.541572 2.691071 0.108470
v -0.643811 3.122735 0.044804
v -0.557746 3.102896 0.133840
v -0.604053 3.512283 0.138133
v -0.570974 3.502198 0.177720
v -0.543640 3.975234 0.153863
v -0.517360 3.959849 0.193010
v -0.496720 4.418253 0.082659
v -0.476826 4.403154 0.144109
v -0.620412 4.585336 0.280176
v -0.685272 5.053756 0.339813
v -0.668866 5.141496 0.315048
v -0.466377 4.650696 -0.199395
v -0.438930 4.654127 -0.220726
v -0.487351 5.082914 -0.161477
v -0.058823 4.628016 -0.365241
v -0.053304 5.014588 -0.262402
v -0.547507 5.257231 -0.038053
v -0.050956 5.302357 -0.152265
v -0.532760 5.265997 -0.032701
v -0.063637 5.569191 -0.013631
v -0.252396 5.585214 0.049334
v 0.045966 5.955183 -0.225831
v -0.386632 5.994966 0.007066
v -0.441488 6.039433 -0.009706
v -0.292649 6.221515 -0.390126
v -0.574101 6.040464 0.372760
v -0.519338 5.993977 0.389434
v -0.753764 6.438185 -0.095986
v -0.886376 6.440421 0.286688
v -0.917767 6.514172 0.278035
v -0.785155 6.511935 -0.104639
v -0.445123 6.415756 -0.431562
v -0.587128 6.834024 -0.471012
v -0.647598 6.838696 -0.414219
v -0.553104 7.232100 -0.463363
v -0.613574 7.236773 -0.406570
v -0.694958 7.567225 -0.084362
v -0.343052 7.609983 -0.408615
v -0.651692 7.632412 -0.073040
v -0.277541 7.952066 0.025758
v -0.160657 7.765811 -0.360453
v -0.117308 7.589793 -0.532078
v -0.410154 7.954303 0.408432
v -0.784305 7.634648 0.309635
v -0.558494 7.772521 0.787571
v -0.740889 7.616693 0.739408
v -0.827571 7.569462 0.298312
v -0.950941 7.238810 0.684661
v -0.965127 7.242701 0.607892
v -0.999151 6.844625 0.600243
v -0.984965 6.840733 0.677012
v -0.761115 6.803352 1.114071
v -0.727091 7.201428 1.121720
v -0.733836 6.404242 0.929524
v -0.842960 6.422465 0.716462
v -0.673639 7.194024 1.177013
v -0.707663 6.795948 1.169365
v -0.999262 6.855349 0.255029
v -0.965239 7.253425 0.262678
v -0.866650 6.853112 -0.127645
v -0.832626 7.251188 -0.119996
v -0.631764 7.598470 0.952470
v -0.207754 7.983467 0.044288
v -0.340366 7.985703 0.426962
v -0.090029 7.190684 -0.716626
v -0.124053 6.792608 -0.724275
v -0.044601 6.784766 -0.744008
v -0.010577 7.182842 -0.736359
v -0.219379 6.395566 -0.555025
v -0.690486 6.228225 0.757898
v -0.385462 5.566856 0.429655
v 0.323243 5.526410 0.069229
v -0.549154 5.262776 -0.028912
v 0.349038 5.263145 -0.072952
v 0.368006 4.922150 -0.216182
v 0.719456 4.837806 0.013769
v 0.709244 5.165266 0.195344
v 0.344371 4.513844 -0.332963
v 0.651069 4.427654 -0.102465
v 0.701898 4.398595 0.043900
v 0.674865 4.299391 0.151735
v 0.939673 4.437158 0.069044
v 0.568324 4.370144 0.401292
v 0.629098 4.070079 0.240208
v 0.679538 3.942264 -0.116780
v 0.683572 3.725677 0.328031
v 0.697815 3.519576 -0.037727
v 0.668913 3.368711 0.464477
v 0.680236 3.151660 0.101781
v 0.636688 3.007724 0.598267
v 0.669371 2.790111 0.237674
v 0.722571 2.647760 0.736044
v 0.766097 2.433704 0.374775
v 0.766249 2.310276 0.864251
v 0.816864 2.104021 0.499941
v 0.559476 1.970748 0.283145
v 0.559702 2.340538 0.160578
v 0.166072 2.074642 0.205240
v 0.168687 2.404435 0.049238
v 0.573063 2.742769 0.117676
v 0.179378 2.750023 -0.110168
v 0.585190 3.103984 -0.024535
v 0.187542 3.091765 -0.274259
v 0.601507 3.479705 -0.160249
v 0.214294 3.495711 -0.380794
v -0.218853 3.339022 -0.548416
v -0.212930 3.729107 -0.503458
v -0.605811 3.312635 -0.429475
v -0.606913 3.672158 -0.282926
v -0.182445 4.145896 -0.451792
v -0.531326 4.152324 -0.233919
v -0.557876 4.137792 -0.199272
v -0.635845 3.656911 -0.243837
v -0.603531 2.966435 -0.605562
v -0.211173 2.955711 -0.577320
v -0.591487 2.599829 -0.717887
v -0.197095 2.565734 -0.575074
v -0.800237 2.887765 -0.425616
v -0.821529 2.509964 -0.518705
v -0.692140 3.272911 -0.333649
v -0.182061 2.164791 -0.561807
v 0.611672 3.924496 -0.231969
v 0.579638 3.782135 0.422787
v 0.536295 4.103831 0.332743
v -0.152583 2.024006 -0.182420
v -0.557216 0.836944 -0.555006
v -0.796400 0.850859 -0.578440
v -0.580282 0.486954 -0.846219
v -0.915594 0.606546 -0.896927
v -0.560339 0.348636 -1.153697
v -0.917765 0.475051 -1.212017
v -0.532389 0.301837 -1.416593
v -0.859432 0.858155 -1.534073
v -0.938393 0.511629 -1.224471
v -0.518464 0.343517 -1.488773
v -0.742450 0.785246 -1.637828
v -0.455737 0.734409 -1.630138
v -0.451704 0.780039 -1.620687
v -0.418879 0.739065 -1.606218
v -0.454309 1.049152 -1.369922
v -0.868855 0.967836 -1.362617
v -0.295182 0.854242 -1.297621
v -0.449553 0.408226 -1.166277
v -0.891959 0.943977 -1.356218
v -0.903109 1.023059 -1.082864
v -0.451574 0.546823 -0.859025
v -0.173368 1.782352 -0.665824
v -0.149108 2.385056 0.035678
v 0.532544 5.016481 0.668710
v 0.472661 4.631267 0.660490
v 0.301806 6.680151 1.439462
v 0.381258 6.672310 1.419729
v 0.408537 6.273200 1.235182
v 0.335830 7.078228 1.447111
v 0.415282 7.070386 1.427378
v 0.878357 7.028970 1.174115
v 0.844333 6.630894 1.166466
v 0.510608 7.467427 1.258128
v 0.736352 7.447238 1.134665
v 0.583878 7.641479 1.093229
v 0.904804 6.626222 1.109673
v 0.938827 7.024298 1.117322
v 1.157879 7.009881 0.830748
v 1.123855 6.611805 0.823099
v 1.076384 7.351059 0.807742
v 1.208996 7.348822 0.425068
v 1.290492 7.007645 0.448074
v 1.044993 7.424809 0.799089
v 1.177605 7.422572 0.416415
v 0.732219 7.823260 0.714090
v 0.864831 7.821024 0.331416
v 0.669102 7.869906 0.697060
v 0.801715 7.867670 0.314385
v 1.134189 7.440528 -0.013359
v 1.276194 7.022261 0.026091
v 1.290380 7.018369 0.102860
v 1.256356 6.620293 0.095211
v 1.242170 6.624184 0.018442
v 1.018320 6.661566 -0.418617
v 1.052344 7.059642 -0.410968
v 0.998892 7.067045 -0.466262
v 0.964868 6.668969 -0.473910
v 1.256468 6.609569 0.440425
v 1.118800 6.293531 0.404791
v 0.986187 6.295768 0.787465
v 1.075534 6.228345 0.393468
v 0.942921 6.230581 0.776143
v 0.634281 6.253010 1.111719
v 0.451886 6.097182 1.063556
v 0.981716 7.634769 -0.054795
v 1.025065 7.458752 -0.226420
v 0.784318 4.408124 2.133545
v 0.824459 3.933575 2.276371
v 1.293501 3.684529 1.777837
v 0.744720 3.854537 1.229854
v 0.962635 4.093635 1.179713
v 1.256974 3.782639 0.873646
v 1.049110 3.972100 0.153184
v 0.730428 3.870885 0.254653
v -0.576278 2.251219 -0.842264
v -0.841304 2.152524 -0.616473
v 0.462101 4.336461 0.465036
v 0.297141 4.066134 -0.425450
v 0.887158 1.750707 0.625380
v 0.586937 1.601995 0.415701
v 0.193381 1.696326 0.537408
v 0.928366 0.710333 0.896449
v 0.619989 0.716621 0.716573
v 0.315602 0.778084 0.875037
v -0.305114 0.951699 -1.017384
v -0.490819 1.138986 -1.105694
v -0.904600 1.028854 -1.062157
vn 0.7388 -0.4392 0.5111
vn -0.0474 -0.8548 0.5168
vn -0.0819 -0.7240 0.6849
vn 0.7214 -0.1671 0.6720
vn -0.8562 -0.4990 0.1337
vn -0.8592 -0.3623 0.3613
vn -0.9297 0.2129 -0.3007
vn -0.9525 0.3043 -0.0126
vn -0.1918 0.8435 -0.5018
vn -0.2182 0.9495 -0.2254
vn 0.6233 0.7380 -0.2584
vn 0.8184 0.5714 -0.0611
vn 0.7010 0.6648 0.2583
vn 0.9393 0.3413 0.0353
vn 0.9429 0.3330 0.0112
vn 0.6310 0.7211 -0.2860
vn 0.9478 0.3075 -0.0847
vn 0.6285 0.6647 -0.4039
vn 0.9908 -0.0289 0.1323
vn 0.9602 -0.0906 0.2642
vn 0.8636 0.3639 -0.3491
vn 0.9905 0.0803 0.1119
vn -0.1495 0.7502 -0.6441
vn -0.3737 -0.4271 -0.8233
vn -0.8523 -0.5048 0.1371
vn -0.8862 0.1715 -0.4303
vn -0.8305 -0.5567 0.0187
vn -0.5508 -0.7862 -0.2802
vn -0.0166 -0.9199 0.3917
vn 0.1273 -0.9789 -0.1600
vn -0.8532 -0.5095 0.1115
vn -0.0435 -0.8654 0.4992
vn 0.8204 -0.4651 0.3326
vn 0.7292 -0.5078 0.4588
vn -0.5651 -0.5961 -0.5704
vn 0.2545 -0.4282 -0.8671
vn 0.8078 -0.5795 -0.1074
vn 0.9410 -0.2846 -0.1830
vn 0.8020 -0.0387 -0.5961
vn 0.6184 -0.2177 0.7551
vn 0.7357 0.1355 0.6636
vn 0.9855 0.1692 0.0126
vn 0.7100 0.3101 0.6322
vn 0.9558 0.2941 0.0025
vn 0.6049 0.5041 0.6164
vn 0.8565 0.5162 0.0023
vn 0.7584 0.3163 -0.5699
vn 0.7909 0.1160 -0.6008
vn 0.2292 0.1781 0.9569
vn 0.1270 0.3055 0.9437
vn -0.4736 0.0180 0.8805
vn -0.4666 -0.0373 0.8837
vn -0.8871 -0.4265 0.1765
vn -0.9521 -0.2525 0.1725
vn -0.2025 -0.4579 0.8656
vn -0.7705 -0.5462 0.3286
vn 0.4715 0.4802 0.7396
vn 0.7671 0.6354 -0.0887
vn 0.5996 -0.0384 0.7994
vn 0.9772 0.0870 -0.1938
vn 0.4950 -0.7066 0.5057
vn 0.6888 -0.7152 -0.1185
vn 0.4366 -0.8297 0.3478
vn 0.5453 -0.8380 -0.0181
vn 0.2516 -0.8153 -0.5216
vn 0.3734 -0.7282 -0.5748
vn 0.5377 -0.7709 -0.3414
vn 0.6243 -0.5573 -0.5474
vn 0.3263 -0.5960 -0.7337
vn 0.7732 -0.5749 -0.2677
vn -0.1111 -0.7663 -0.6328
vn -0.0263 -0.5536 -0.8324
vn 0.0116 -0.3851 -0.9228
vn 0.3774 -0.4269 -0.8218
vn 0.3968 -0.1824 -0.8996
vn 0.0803 -0.1499 -0.9854
vn 0.4316 0.1462 -0.8901
vn 0.1145 0.1725 -0.9783
vn 0.0783 0.4306 -0.8991
vn 0.4598 0.3965 -0.7946
vn 0.4394 0.5736 -0.6913
vn 0.0864 0.5890 -0.8035
vn 0.0593 0.8104 -0.5828
vn 0.4166 0.7782 -0.4699
vn 0.3983 0.8641 -0.3077
vn 0.0168 0.9086 -0.4174
vn -0.0101 0.9839 -0.1786
vn 0.2981 0.9518 -0.0726
vn -0.0946 0.9867 0.1319
vn 0.2130 0.9482 0.2357
vn 0.1788 0.8544 0.4880
vn -0.1912 0.9124 0.3619
vn -0.2386 0.8124 0.5321
vn 0.1106 0.7677 0.6311
vn 0.0267 0.5512 0.8340
vn -0.3263 0.5960 0.7337
vn -0.3774 0.4269 0.8218
vn -0.0100 0.3826 0.9238
vn -0.0803 0.1499 0.9854
vn -0.3968 0.1824 0.8996
vn -0.4316 -0.1462 0.8901
vn -0.1145 -0.1725 0.9783
vn -0.4598 -0.3965 0.7946
vn -0.0976 -0.4220 0.9013
vn -0.0988 -0.5974 0.7958
vn -0.4394 -0.5736 0.6913
vn -0.4085 -0.7809 0.4725
vn -0.0573 -0.8032 0.5930
vn 0.0091 -0.7020 0.7121
vn -0.5093 -0.6869 0.5185
vn -0.5780 -0.1139 0.8080
vn 0.0058 -0.1531 0.9882
vn -0.5023 0.0209 0.8644
vn -0.0778 0.0029 0.9970
vn -0.5200 -0.2771 0.8080
vn -0.0701 -0.2687 0.9607
vn -0.5101 -0.2781 0.8139
vn 0.0203 -0.3531 0.9354
vn -0.4036 -0.0488 0.9136
vn 0.1306 -0.1313 0.9827
vn -0.4919 -0.0186 0.8704
vn -0.0204 0.1804 0.9834
vn -0.5595 -0.0972 0.8231
vn -0.2201 0.1351 0.9661
vn -0.5745 -0.1971 0.7944
vn -0.4375 0.0748 0.8961
vn 0.4710 0.2310 0.8513
vn 0.3547 0.2752 0.8936
vn -0.6745 0.0585 0.7360
vn 0.1218 0.3428 0.9315
vn -0.8305 0.0695 0.5527
vn -0.0233 0.3641 0.9311
vn -0.8478 0.1689 0.5027
vn -0.0219 0.3613 0.9322
vn -0.8259 0.1002 0.5548
vn -0.0374 0.3162 0.9480
vn -0.8213 0.0728 0.5659
vn -0.0280 0.1616 0.9865
vn -0.7958 0.0615 0.6024
vn -0.0363 0.0034 0.9993
vn -0.8051 0.0981 0.5849
vn -0.0336 -0.0876 0.9956
vn -0.8444 -0.1059 0.5252
vn -0.0917 -0.6790 0.7284
vn -0.0376 -0.8133 0.5806
vn -0.7213 -0.5899 -0.3629
vn -0.8778 -0.1000 -0.4685
vn -0.0931 -0.9648 -0.2460
vn -0.0084 -0.5667 -0.8239
vn 0.5581 -0.7775 -0.2896
vn 0.0415 -0.1679 -0.9849
vn 0.8620 -0.3933 -0.3198
vn 0.6772 -0.3063 0.6690
vn 0.6909 -0.1521 0.7068
vn -0.9101 -0.1291 -0.3938
vn -0.8912 -0.2928 -0.3464
vn 0.0458 -0.2567 -0.9654
vn 0.0598 -0.3577 -0.9319
vn 0.9410 -0.1593 -0.2986
vn 0.9169 -0.0066 -0.3991
vn 0.7674 0.0483 0.6393
vn 0.7996 0.2971 0.5219
vn 0.8185 0.3216 0.4761
vn -0.9626 -0.1218 0.2420
vn -0.4757 -0.3350 0.8133
vn -0.1762 -0.5420 0.8217
vn 0.8027 -0.5963 0.0109
vn -0.5857 -0.6906 -0.4244
vn 0.9722 -0.0986 -0.2124
vn 0.8544 0.1192 -0.5057
vn 0.8350 -0.0519 -0.5477
vn 0.7908 -0.4143 0.4505
vn 0.7324 -0.4204 0.5355
vn 0.6769 -0.4411 0.5893
vn 0.9820 0.1360 -0.1309
vn -0.0115 0.7275 -0.6860
vn -0.0439 0.1716 -0.9842
vn -0.9203 0.0519 -0.3878
vn -0.9490 0.3055 -0.0776
vn -0.0260 0.2579 -0.9658
vn -0.9465 0.0968 -0.3077
vn -0.7421 -0.2217 0.6326
vn -0.8081 -0.1781 0.5614
vn 0.0374 -0.3915 0.9194
vn -0.0412 -0.3523 0.9350
vn -0.8112 -0.1109 0.5742
vn -0.1320 -0.3237 0.9369
vn -0.8341 -0.1174 0.5390
vn -0.2836 -0.3175 0.9048
vn -0.8621 -0.0214 0.5063
vn -0.4367 -0.2224 0.8717
vn -0.8785 0.0407 0.4759
vn -0.5689 -0.1122 0.8147
vn -0.9075 0.0508 0.4169
vn -0.6502 -0.0497 0.7581
vn -0.9344 0.1325 0.3306
vn -0.7540 0.0323 0.6561
vn -0.9984 0.0489 -0.0295
vn -0.9431 -0.1286 0.3066
vn -0.9453 -0.2549 0.2034
vn -0.9667 0.0289 0.2542
vn -0.8515 0.3896 0.3510
vn -0.9120 0.0358 -0.4086
vn -0.6117 0.1131 -0.7829
vn -0.6189 0.1637 -0.7682
vn -0.0943 0.2063 -0.9739
vn -0.0281 0.3098 -0.9504
vn -0.6762 0.2659 -0.6871
vn -0.0010 0.4377 -0.8991
vn -0.5549 0.6825 -0.4757
vn -0.1189 0.0392 -0.9921
vn -0.6764 0.1375 -0.7235
vn -0.1785 -0.6618 -0.7281
vn -0.6072 -0.5980 -0.5231
vn -0.5813 -0.7130 -0.3921
vn -0.4077 -0.6500 -0.6413
vn -0.7041 -0.7075 -0.0606
vn -0.7834 -0.6203 0.0385
vn -0.7538 -0.4860 -0.4423
vn -0.8542 -0.5087 -0.1081
vn -0.9363 -0.3279 -0.1256
vn -0.8239 -0.3120 -0.4731
vn -0.5795 -0.4198 -0.6985
vn -0.6042 -0.1152 -0.7885
vn -0.7291 -0.1235 -0.6731
vn -0.5756 0.2426 -0.7809
vn -0.7089 0.2577 -0.6566
vn -0.7509 0.4814 -0.4520
vn -0.4853 0.5483 -0.6810
vn -0.6418 0.6504 -0.4063
vn -0.4188 0.8403 -0.3442
vn -0.2684 0.7436 -0.6124
vn -0.2318 0.5286 -0.8166
vn -0.5157 0.8567 0.0111
vn -0.7580 0.6484 -0.0709
vn -0.5409 0.7683 0.3422
vn -0.7741 0.5745 0.2658
vn -0.8699 0.4829 -0.1006
vn -0.9131 0.2672 0.3079
vn -0.9493 0.2918 0.1174
vn -0.9906 -0.1067 0.0859
vn -0.9507 -0.1097 0.2901
vn -0.7979 -0.1303 0.5886
vn -0.7625 0.2505 0.5966
vn -0.7271 -0.4587 0.5108
vn -0.8691 -0.4357 0.2343
vn -0.6240 0.2522 0.7396
vn -0.6529 -0.1518 0.7421
vn -0.9830 -0.0742 -0.1677
vn -0.9553 0.2491 -0.1591
vn -0.8809 -0.0741 -0.4675
vn -0.8534 0.2433 -0.4609
vn -0.6243 0.5573 0.5474
vn -0.2510 0.9181 -0.3068
vn -0.3415 0.9369 0.0744
vn -0.3157 0.2311 -0.9203
vn -0.3612 -0.1219 -0.9245
vn -0.1775 -0.1484 -0.9729
vn -0.1475 0.2349 -0.9608
vn -0.3338 -0.4430 -0.8320
vn -0.6857 -0.6641 0.2980
vn -0.9632 0.0520 0.2637
vn 0.5570 -0.0004 -0.8305
vn -0.9268 0.3226 -0.1921
vn 0.4331 0.4314 -0.7914
vn 0.4001 0.2958 -0.8674
vn 0.5733 0.2733 -0.7724
vn 0.6573 0.4870 -0.5751
vn 0.3724 0.1829 -0.9099
vn 0.6692 0.0227 -0.7428
vn 0.7405 -0.5560 -0.3775
vn -0.6758 -0.3110 -0.6683
vn 0.4242 -0.0761 -0.9024
vn -0.3334 -0.9139 0.2317
vn 0.9154 0.0423 0.4004
vn 0.9710 0.0191 -0.2382
vn 0.9243 0.1498 0.3511
vn 0.9577 -0.0744 -0.2780
vn 0.9138 0.0932 0.3953
vn 0.9579 -0.1394 -0.2510
vn 0.8920 0.2127 0.3988
vn 0.9464 -0.0212 -0.3224
vn 0.8688 0.3026 0.3918
vn 0.9346 0.0327 -0.3541
vn 0.8401 0.2890 0.4590
vn 0.9276 -0.0002 -0.3736
vn 0.3607 -0.3553 -0.8623
vn 0.5003 -0.2417 -0.8314
vn 0.6010 -0.3021 -0.7400
vn 0.6090 -0.2185 -0.7625
vn 0.6299 -0.2283 -0.7424
vn 0.6039 -0.2297 -0.7633
vn 0.6627 -0.2873 -0.6916
vn 0.5271 -0.2206 -0.8207
vn 0.6655 -0.1987 -0.7194
vn 0.3951 -0.1339 -0.9088
vn 0.1118 0.0801 -0.9905
vn -0.1255 0.0835 -0.9886
vn -0.5430 0.2802 -0.7916
vn -0.6656 0.2083 -0.7166
vn -0.1939 0.1337 -0.9719
vn -0.6365 0.1667 -0.7530
vn -0.9517 0.1663 -0.2580
vn -0.9602 0.1761 -0.2168
vn -0.3624 0.2614 -0.8946
vn 0.4073 0.0408 -0.9124
vn -0.2035 0.2136 -0.9555
vn 0.6335 0.0193 -0.7735
vn -0.9481 0.2000 -0.2472
vn -0.9506 0.1197 -0.2864
vn -0.9438 0.2363 -0.2311
vn 0.7669 0.1030 -0.6334
vn 0.7042 -0.0273 -0.7095
vn 0.5331 0.2777 0.7992
vn 0.5304 -0.0357 0.8470
vn 0.5563 -0.3980 0.7295
vn 0.0769 -0.5359 0.8408
vn -0.6562 -0.3383 0.6745
vn 0.0459 -0.8170 0.5748
vn -0.7979 -0.4572 0.3929
vn 0.0510 -0.9539 0.2959
vn -0.7514 -0.6566 -0.0661
vn 0.1939 -0.9169 -0.3489
vn -0.6641 0.2759 -0.6949
vn -0.9411 -0.3379 -0.0153
vn 0.2963 -0.7551 -0.5848
vn -0.3983 0.0690 -0.9147
vn 0.2861 -0.1192 -0.9507
vn 0.3847 0.4581 -0.8013
vn 0.8098 -0.0368 -0.5855
vn 0.3522 0.8242 -0.4435
vn -0.4657 0.7983 -0.3819
vn 0.9757 0.1230 -0.1815
vn 0.7763 -0.6167 0.1306
vn -0.8989 0.3681 -0.2376
vn -0.7812 0.5975 -0.1810
vn 0.7263 -0.5185 0.4513
vn 0.8349 0.1644 -0.5252
vn -0.5355 -0.2928 0.7921
vn 0.0763 0.2551 0.9639
vn -0.1905 -0.1690 0.9670
vn 0.1326 -0.2156 0.9674
vn 0.3124 -0.2242 0.9231
vn 0.2350 -0.5312 0.8140
vn 0.1885 0.1667 0.9678
vn 0.3532 0.1354 0.9257
vn 0.6082 0.1082 0.7864
vn 0.5704 -0.2489 0.7827
vn 0.3326 0.4421 0.8330
vn 0.5781 0.4206 0.6992
vn 0.4076 0.6499 0.6415
vn 0.6927 -0.2751 0.6667
vn 0.7416 0.1048 0.6626
vn 0.8809 0.0741 0.4675
vn 0.8534 -0.2433 0.4609
vn 0.8224 0.3217 0.4691
vn 0.9402 0.3175 0.1232
vn 0.9830 0.0742 0.1677
vn 0.7488 0.5017 0.4330
vn 0.8634 0.4938 0.1037
vn 0.5728 0.7242 0.3841
vn 0.6710 0.7406 0.0350
vn 0.4304 0.8302 0.3544
vn 0.5237 0.8516 -0.0220
vn 0.8698 0.4352 -0.2324
vn 0.9483 0.1173 -0.2949
vn 0.9865 0.1265 -0.1037
vn 0.9570 -0.2730 -0.0979
vn 0.9169 -0.2603 -0.3027
vn 0.7625 -0.2505 -0.5966
vn 0.7979 0.1303 -0.5886
vn 0.6529 0.1518 -0.7421
vn 0.6240 -0.2522 -0.7396
vn 0.9553 -0.2491 0.1591
vn 0.8639 -0.4932 0.1025
vn 0.7543 -0.4719 0.4566
vn 0.7464 -0.6614 0.0738
vn 0.6509 -0.6347 0.4166
vn 0.4871 -0.5464 0.6813
vn 0.2697 -0.7390 0.6173
vn 0.6834 0.6678 -0.2950
vn 0.7271 0.4587 -0.5108
vn -0.2876 0.6988 0.6549
vn -0.2323 -0.0560 0.9710
vn 0.8842 -0.0509 0.4643
vn -0.9233 0.2055 -0.3246
vn -0.1926 0.8264 -0.5292
vn 0.2626 -0.1182 0.9576
vn 0.2114 -0.1398 -0.9673
vn -0.6298 -0.2990 -0.7169
vn -0.0723 0.2718 -0.9596
vn -0.9473 0.1471 -0.2846
vn 0.1257 -0.6371 0.7605
vn 0.3458 0.0481 -0.9371
vn 0.9082 0.0168 -0.4182
vn 0.1719 -0.3945 -0.9027
vn -0.8606 -0.3380 -0.3810
vn 0.9092 -0.2513 -0.3319
vn 0.0319 -0.0956 -0.9949
vn -0.8565 0.0733 -0.5108
vn 0.9652 0.2182 0.1441
vn 0.3269 0.9347 -0.1399
vn -0.7961 0.6004 -0.0764
s 1
f 4//4 3//3 2//2 1//1
f 2//2 3//3 6//6 5//5
f 5//5 6//6 8//8 7//7
f 8//8 10//10 9//9 7//7
f 13//13 12//12 11//11 9//9
f 10//10 13//13 9//9
f 11//11 12//12 14//14
f 16//16 11//11 14//14 15//15
f 18//18 16//16 15//15 17//17
f 15//15 20//20 19//19 17//17
f 21//21 18//18 17//17
f 23//23 18//18 21//21 22//22
f 24//24 23//23 22//22
f 26//26 23//23 24//24 25//25
f 28//28 27//27 26//26 25//25
f 30//30 29//29 27//27 28//28
f 29//29 32//32 31//31 27//27
f 34//34 32//32 29//29 33//33
f 36//36 30//30 28//28 35//35
f 38//38 37//37 30//30 36//36
f 39//39 38//38 36//36
f 37//37 38//38 40//40 22//22
f 40//40 38//38 42//42 41//41
f 41//41 42//42 44//44 43//43
f 43//43 44//44 46//46 45//45
f 44//44 48//48 47//47 46//46
f 50//50 49//49 43//43 45//45
f 52//52 49//49 50//50 51//51
f 54//54 52//52 51//51 53//53
f 56//56 55//55 52//52 54//54
f 45//45 46//46 58//58 57//57
f 58//58 60//60 59//59 57//57
f 60//60 62//62 61//61 59//59
f 61//61 62//62 64//64 63//63
f 64//64 62//62 66//66 65//65
f 67//67 64//64 65//65
f 69//69 68//68 67//67 65//65
f 68//68 70//70 67//67
f 72//72 69//69 65//65 71//71
f 74//74 69//69 72//72 73//73
f 76//76 75//75 74//74 73//73
f 78//78 77//77 75//75 76//76
f 80//80 77//77 78//78 79//79
f 82//82 81//81 80//80 79//79
f 84//84 81//81 82//82 83//83
f 86//86 85//85 84//84 83//83
f 88//88 85//85 86//86 87//87
f 90//90 88//88 87//87 89//89
f 92//92 91//91 90//90 89//89
f 94//94 91//91 92//92 93//93
f 96//96 95//95 94//94 93//93
f 98//98 95//95 96//96 97//97
f 100//100 99//99 98//98 97//97
f 102//102 99//99 100//100 101//101
f 104//104 102//102 101//101 103//103
f 106//106 105//105 104//104 103//103
f 108//108 105//105 106//106 107//107
f 110//110 109//109 108//108 107//107
f 112//112 109//109 110//110 111//111
f 114//114 112//112 111//111 113//113
f 116//116 114//114 113//113 115//115
f 118//118 116//116 115//115 117//117
f 120//120 118//118 117//117 119//119
f 122//122 120//120 119//119 121//121
f 124//124 122//122 121//121 123//123
f 126//126 124//124 123//123 125//125
f 128//128 127//127 124//124 126//126
f 130//130 128//128 126//126 129//129
f 132//132 130//130 129//129 131//131
f 133//133 132//132 131//131
f 132//132 133//133 135//135 134//134
f 134//134 135//135 137//137 136//136
f 136//136 137//137 139//139 138//138
f 138//138 139//139 141//141 140//140
f 140//140 141//141 143//143 142//142
f 142//142 143//143 144//144
f 147//147 146//146 145//145 144//144
f 143//143 147//147 144//144
f 145//145 146//146 148//148
f 146//146 149//149 148//148
f 150//150 145//145 148//148
f 146//146 147//147 151//151 149//149
f 151//151 152//152 150//150 149//149
f 150//150 152//152 153//153 144//144
f 145//145 150//150 144//144
f 153//153 154//154 140//140 142//142
f 137//137 156//156 155//155 139//139
f 155//155 156//156 158//158 157//157
f 158//158 160//160 159//159 157//157
f 159//159 160//160 162//162 161//161
f 162//162 163//163 134//134 136//136
f 164//164 133//133 131//131
f 166//166 164//164 131//131 165//165
f 168//168 164//164 166//166 167//167
f 169//169 168//168 167//167
f 169//169 167//167 170//170
f 173//173 172//172 171//171 170//170
f 167//167 173//173 170//170
f 175//175 171//171 172//172 174//174
f 177//177 171//171 175//175 176//176
f 179//179 178//178 177//177 176//176
f 178//178 181//181 180//180 177//177
f 183//183 181//181 178//178 182//182
f 185//185 183//183 182//182 184//184
f 187//187 186//186 183//183 185//185
f 189//189 188//188 186//186 187//187
f 191//191 190//190 188//188 189//189
f 193//193 192//192 190//190 191//191
f 195//195 194//194 192//192 193//193
f 197//197 196//196 194//194 195//195
f 199//199 198//198 196//196 197//197
f 205//205 207//207 206//206 204//204
f 209//209 207//207 205//205 208//208
f 210//210 209//209 208//208
f 210//210 212//212 211//211 209//209
f 212//212 214//214 213//213 211//211
f 71//71 213//213 214//214 215//215
f 216//216 71//71 215//215
f 215//215 214//214 218//218 217//217
f 220//220 219//219 215//215 217//217
f 222//222 219//219 220//220 221//221
f 224//224 223//223 219//219 222//222
f 225//225 224//224 222//222
f 227//227 226//226 224//224 225//225
f 229//229 226//226 227//227 228//228
f 230//230 229//229 228//228
f 232//232 229//229 230//230 231//231
f 233//233 229//229 232//232
f 231//231 230//230 235//235 234//234
f 234//234 235//235 237//237 236//236
f 239//239 237//237 235//235 238//238
f 240//240 239//239 238//238
f 242//242 239//239 240//240 241//241
f 244//244 239//239 242//242 243//243
f 243//243 242//242 246//246 245//245
f 248//248 247//247 244//244 243//243
f 240//240 250//250 249//249 241//241
f 241//241 249//249 221//221
f 250//250 252//252 251//251 249//249
f 228//228 252//252 250//250 238//238
f 250//250 240//240 238//238
f 237//237 253//253 236//236
f 255//255 254//254 231//231 234//234
f 226//226 229//229 233//233 256//256
f 235//235 230//230 228//228 238//238
f 224//224 226//226 256//256 257//257
f 256//256 259//259 258//258 257//257
f 251//251 252//252 227//227 225//225
f 223//223 224//224 257//257 260//260
f 223//223 260//260 216//216
f 251//251 225//225 222//222
f 246//246 242//242 241//241 221//221
f 220//220 246//246 221//221
f 249//249 251//251 222//222 221//221
f 246//246 220//220 217//217 261//261
f 218//218 214//214 212//212 262//262
f 213//213 66//66 263//263 211//211
f 212//212 210//210 264//264 202//202
f 262//262 212//212 202//202
f 211//211 263//263 265//265 209//209
f 209//209 265//265 266//266 207//207
f 265//265 268//268 267//267 266//266
f 266//266 267//267 270//270 269//269
f 273//273 272//272 271//271 270//270
f 267//267 273//273 270//270
f 274//274 271//271 272//272 53//53
f 276//276 271//271 274//274 275//275
f 278//278 276//276 275//275 277//277
f 280//280 278//278 277//277 279//279
f 282//282 280//280 279//279 281//281
f 284//284 282//282 281//281 283//283
f 286//286 284//284 283//283 285//285
f 288//288 284//284 286//286 287//287
f 290//290 288//288 287//287 289//289
f 292//292 291//291 288//288 290//290
f 294//294 293//293 291//291 292//292
f 296//296 295//295 293//293 294//294
f 298//298 296//296 294//294 297//297
f 300//300 298//298 297//297 299//299
f 302//302 301//301 298//298 300//300
f 304//304 303//303 302//302 300//300
f 299//299 297//297 306//306 305//305
f 305//305 306//306 308//308 307//307
f 310//310 309//309 305//305 307//307
f 311//311 304//304 300//300 299//299
f 297//297 294//294 292//292 306//306
f 306//306 292//292 290//290 308//308
f 308//308 290//290 289//289 312//312
f 291//291 282//282 284//284 288//288
f 293//293 280//280 282//282 291//291
f 313//313 276//276 278//278 295//295
f 277//277 275//275 315//315 314//314
f 268//268 47//47 273//273 267//267
f 204//204 206//206 301//301 302//302
f 207//207 266//266 269//269 206//206
f 198//198 203//203 303//303 196//196
f 196//196 303//303 304//304 194//194
f 194//194 304//304 311//311 192//192
f 192//192 311//311 309//309 190//190
f 190//190 309//309 310//310 188//188
f 173//173 316//316 187//187 185//185
f 184//184 182//182 318//318 317//317
f 317//317 318//318 320//320 319//319
f 319//319 320//320 322//322 321//321
f 321//321 322//322 323//323
f 323//323 322//322 325//325 324//324
f 327//327 326//326 323//323 324//324
f 326//326 327//327 328//328
f 327//327 329//329 328//328
f 330//330 326//326 328//328
f 331//331 329//329 327//327 324//324
f 332//332 331//331 324//324
f 331//331 333//333 330//330 329//329
f 330//330 333//333 334//334 323//323
f 326//326 330//330 323//323
f 325//325 335//335 324//324
f 335//335 325//325 336//336
f 332//332 335//335 336//336
f 334//334 337//337 319//319 321//321
f 182//182 178//178 179//179 318//318
f 338//338 170//170 171//171 177//177
f 180//180 338//338 177//177
f 289//289 168//168 169//169 338//338
f 312//312 289//289 338//338
f 131//131 129//129 339//339 165//165
f 283//283 281//281 128//128 130//130
f 281//281 279//279 127//127 128//128
f 125//125 123//123 193//193 191//191
f 314//314 315//315 120//120 122//122
f 121//121 119//119 197//197 195//195
f 341//341 340//340 114//114 116//116
f 115//115 113//113 201//201 200//200
f 113//113 111//111 262//262 202//202
f 110//110 218//218 262//262 111//111
f 218//218 110//110 107//107 261//261
f 217//217 218//218 261//261
f 107//107 106//106 245//245 261//261
f 344//344 343//343 342//342 104//104
f 105//105 344//344 104//104
f 346//346 345//345 342//342 343//343
f 348//348 347//347 346//346 343//343
f 347//347 350//350 349//349 346//346
f 349//349 350//350 351//351
f 353//353 347//347 348//348 352//352
f 355//355 354//354 353//353 352//352
f 353//353 354//354 356//356
f 354//354 358//358 357//357 356//356
f 357//357 360//360 359//359 356//356
f 359//359 360//360 362//362 361//361
f 362//362 364//364 363//363 361//361
f 366//366 365//365 360//360 357//357
f 367//367 366//366 357//357
f 369//369 366//366 367//367 368//368
f 371//371 366//366 369//369 370//370
f 373//373 372//372 371//371 370//370
f 367//367 358//358 374//374 368//368
f 368//368 374//374 375//375
f 375//375 374//374 355//355 376//376
f 378//378 377//377 375//375 376//376
f 355//355 352//352 376//376
f 374//374 358//358 354//354 355//355
f 379//379 348//348 343//343 344//344
f 379//379 344//344 380//380
f 63//63 378//378 379//379 380//380
f 103//103 248//248 243//243 245//245
f 106//106 103//103 245//245
f 342//342 102//102 104//104
f 101//101 248//248 103//103
f 342//342 345//345 99//99 102//102
f 100//100 247//247 248//248 101//101
f 247//247 100//100 97//97
f 346//346 349//349 95//95 98//98
f 345//345 346//346 98//98
f 97//97 96//96 253//253 244//244
f 247//247 97//97 244//244
f 95//95 349//349 351//351 94//94
f 253//253 96//96 93//93 236//236
f 91//91 363//363 90//90
f 255//255 92//92 89//89
f 363//363 364//364 88//88 90//90
f 87//87 254//254 255//255 89//89
f 86//86 254//254 87//87
f 364//364 362//362 381//381 84//84
f 85//85 364//364 84//84
f 382//382 371//371 372//372 80//80
f 81//81 382//382 80//80
f 78//78 259//259 79//79
f 77//77 372//372 373//373 75//75
f 258//258 259//259 78//78 76//76
f 75//75 373//373 74//74
f 258//258 76//76 73//73
f 260//260 72//72 71//71 216//216
f 67//67 70//70 377//377 64//64
f 65//65 66//66 213//213 71//71
f 61//61 63//63 380//380 108//108
f 109//109 61//61 108//108
f 64//64 377//377 378//378 63//63
f 66//66 62//62 60//60 263//263
f 59//59 61//61 109//109 112//112
f 60//60 58//58 268//268 265//265
f 263//263 60//60 265//265
f 57//57 59//59 112//112 114//114
f 340//340 57//57 114//114
f 35//35 28//28 25//25 56//56
f 25//25 24//24 55//55 56//56
f 19//19 33//33 37//37 22//22
f 21//21 19//19 22//22
f 10//10 383//383 13//13
f 383//383 10//10 8//8
f 6//6 384//384 383//383 8//8
f 3//3 384//384 6//6
f 32//32 2//2 5//5 31//31
f 12//12 13//13 4//4 1//1
f 385//385 12//12 1//1
f 384//384 3//3 4//4
f 12//12 385//385 14//14
f 383//383 384//384 4//4 13//13
f 20//20 385//385 1//1 34//34
f 1//1 2//2 32//32 34//34
f 14//14 385//385 20//20 15//15
f 31//31 5//5 7//7 386//386
f 9//9 11//11 16//16 387//387
f 7//7 9//9 387//387 386//386
f 19//19 20//20 34//34 33//33
f 33//33 29//29 30//30 37//37
f 19//19 21//21 17//17
f 27//27 31//31 386//386 26//26
f 387//387 16//16 18//18 23//23
f 386//386 387//387 23//23 26//26
f 38//38 39//39 42//42
f 388//388 40//40 41//41
f 22//22 40//40 388//388 55//55
f 24//24 22//22 55//55
f 48//48 39//39 36//36 389//389
f 42//42 39//39 48//48 44//44
f 389//389 36//36 35//35 390//390
f 49//49 388//388 41//41 43//43
f 55//55 388//388 49//49 52//52
f 390//390 35//35 56//56 54//54
f 47//47 48//48 389//389 273//273
f 46//46 47//47 268//268 58//58
f 273//273 389//389 390//390 272//272
f 340//340 50//50 45//45 57//57
f 51//51 50//50 340//340 341//341
f 272//272 390//390 54//54 53//53
f 365//365 382//382 381//381
f 382//382 365//365 366//366 371//371
f 370//370 369//369 70//70 68//68
f 360//360 365//365 381//381 362//362
f 358//358 367//367 357//357
f 70//70 369//369 368//368 375//375
f 377//377 70//70 375//375
f 350//350 359//359 361//361 351//351
f 350//350 347//347 353//353 356//356
f 359//359 350//350 356//356
f 348//348 379//379 378//378 376//376
f 352//352 348//348 376//376
f 381//381 382//382 81//81 84//84
f 372//372 77//77 80//80
f 370//370 68//68 69//69 74//74
f 373//373 370//370 74//74
f 364//364 85//85 88//88
f 361//361 363//363 91//91 94//94
f 351//351 361//361 94//94
f 99//99 345//345 98//98
f 380//380 344//344 105//105 108//108
f 83//83 82//82 233//233 232//232
f 82//82 79//79 259//259 256//256
f 233//233 82//82 256//256
f 258//258 73//73 72//72 260//260
f 257//257 258//258 260//260
f 86//86 83//83 232//232 231//231
f 254//254 86//86 231//231
f 227//227 252//252 228//228
f 219//219 223//223 216//216 215//215
f 92//92 255//255 234//234 236//236
f 93//93 92//92 236//236
f 253//253 237//237 239//239 244//244
f 245//245 246//246 261//261
f 338//338 169//169 170//170
f 129//129 126//126 125//125 339//339
f 316//316 166//166 165//165
f 166//166 316//316 173//173 167//167
f 307//307 308//308 312//312 391//391
f 391//391 312//312 338//338 180//180
f 339//339 125//125 191//191 189//189
f 165//165 339//339 189//189 187//187
f 316//316 165//165 187//187
f 172//172 173//173 185//185 184//184
f 392//392 310//310 307//307 391//391
f 181//181 392//392 391//391 180//180
f 188//188 310//310 392//392 186//186
f 186//186 392//392 181//181 183//183
f 270//270 271//271 276//276 313//313
f 295//295 278//278 280//280 293//293
f 53//53 51//51 341//341 393//393
f 274//274 53//53 393//393
f 275//275 274//274 393//393 315//315
f 279//279 277//277 314//314 127//127
f 269//269 270//270 313//313 394//394
f 394//394 313//313 295//295 296//296
f 393//393 341//341 116//116 118//118
f 315//315 393//393 118//118 120//120
f 127//127 314//314 122//122 124//124
f 206//206 269//269 394//394 301//301
f 301//301 394//394 296//296 298//298
f 303//303 203//203 204//204 302//302
f 309//309 311//311 299//299 305//305
f 117//117 115//115 200//200 199//199
f 119//119 117//117 199//199 197//197
f 123//123 121//121 195//195 193//193
f 395//395 286//286 285//285 163//163
f 160//160 395//395 163//163 162//162
f 287//287 286//286 395//395 396//396
f 396//396 395//395 160//160 158//158
f 285//285 283//283 130//130 132//132
f 163//163 285//285 132//132 134//134
f 287//287 396//396 397//397 168//168
f 289//289 287//287 168//168
f 156//156 397//397 396//396 158//158
f 135//135 133//133 164//164 168//168
f 397//397 135//135 168//168
f 135//135 397//397 156//156 137//137
f 398//398 159//159 161//161 154//154
f 152//152 398//398 154//154 153//153
f 157//157 159//159 398//398 399//399
f 399//399 398//398 152//152 151//151
f 149//149 150//150 148//148
f 161//161 162//162 136//136 138//138
f 154//154 161//161 138//138 140//140
f 153//153 142//142 144//144
f 400//400 155//155 157//157 399//399
f 147//147 400//400 399//399 151//151
f 139//139 155//155 400//400 141//141
f 141//141 400//400 147//147 143//143
f 401//401 175//175 174//174 337//337
f 333//333 401//401 337//337 334//334
f 176//176 175//175 401//401 402//402
f 402//402 401//401 333//333 331//331
f 329//329 330//330 328//328
f 174//174 172//172 184//184 317//317
f 337//337 174//174 317//317 319//319
f 334//334 321//321 323//323
f 402//402 331//331 332//332 336//336
f 403//403 402//402 336//336
f 403//403 179//179 176//176 402//402
f 335//335 332//332 324//324
f 318//318 179//179 403//403 320//320
f 322//322 320//320 403//403 336//336
f 325//325 322//322 336//336
f 264//264 201//201 113//113 202//202
f 199//199 200//200 201//201 264//264 210//210 208//208 205//205 204//204 203//203 198//198
