# Blender 5.0.0
# www.blender.org
mtllib Walk_Forward0016.mtl
o Mball.010
v 1.601846 3.484652 1.334445
v 1.310027 3.196561 1.340808
v 1.247944 3.300766 1.678365
v 1.526298 3.561862 1.674377
v 1.060603 3.296747 1.293625
v 1.023054 3.387150 1.636423
v 0.915702 3.765602 1.203834
v 0.876207 3.855329 1.546485
v 1.086414 4.054197 1.181874
v 1.034603 4.119005 1.526732
v 1.474244 3.993650 1.240774
v 1.426772 4.044441 1.581231
v 1.424461 4.045668 1.587835
v 1.499877 3.968411 1.247893
v 1.556623 3.884673 0.906542
v 1.530990 3.909913 0.899424
v 1.613044 3.800822 0.565168
v 1.587890 3.825588 0.558182
v 1.717353 3.329050 0.650199
v 1.660783 3.412112 0.991674
v 1.624409 3.737328 0.448013
v 1.607071 3.647458 0.256187
v 1.199994 3.886388 0.499236
v 1.285700 3.664295 0.210409
v 1.161765 3.494292 0.204804
v 1.029498 3.598231 0.521157
v 1.174431 3.129387 0.610950
v 1.298708 3.090008 0.241598
v 1.423427 3.029442 0.658042
v 1.461740 3.052255 0.262273
v 1.117350 3.213009 0.952275
v 1.366774 3.112823 0.999458
v 1.715009 3.317061 0.651720
v 1.658593 3.400914 0.993095
v 1.041280 3.494861 -0.033648
v 1.318297 3.646549 -0.132637
v 1.704934 3.257224 0.264815
v 1.692294 3.577847 0.100948
v 1.600380 3.836404 0.028331
v 1.617375 3.643349 0.313151
v 1.558557 3.826233 0.429235
v 1.636084 3.860270 0.099713
v 1.337721 4.249898 0.533503
v 1.412850 4.343064 0.145881
v 1.118432 4.708834 0.575364
v 1.195301 4.809886 0.189530
v 1.163090 4.789060 0.098822
v 1.376325 4.328038 0.062849
v 1.273809 4.200668 0.591723
v 1.056343 4.646782 0.637225
v 0.771744 4.396952 0.665153
v 0.943865 3.983337 0.627741
v 0.619631 4.276706 0.410672
v 0.740674 3.882895 0.387102
v 1.161712 3.613564 0.491006
v 0.959543 3.484728 0.283666
v 0.602316 5.118107 0.587782
v 0.689664 5.249376 0.209851
v 0.392292 5.463863 0.612917
v 0.476921 5.541072 0.225085
v 0.535893 5.854050 0.674950
v 0.620484 5.920488 0.285367
v 0.589763 5.886449 0.686148
v 0.674309 5.951695 0.296464
v 0.366711 6.049952 -0.156356
v 0.350402 5.999978 -0.092866
v 0.766987 6.201455 -0.073965
v 0.811432 6.403761 -0.226355
v 0.457882 6.464949 -0.468957
v 0.946904 6.361650 -0.027521
v -0.025910 6.081407 -0.218773
v 0.065260 6.496404 -0.531374
v 0.076435 6.571777 -0.562044
v 0.469057 6.540322 -0.499627
v 0.507049 6.885546 -0.576129
v 0.114427 6.917001 -0.638546
v 0.523607 7.281328 -0.532920
v 0.130986 7.312783 -0.595338
v 0.120333 7.620988 -0.447501
v 0.512954 7.589533 -0.385083
v 0.507558 7.652296 -0.339333
v 0.114937 7.683751 -0.401750
v 0.053637 7.982722 -0.011204
v 0.446259 7.951267 0.051213
v 0.433132 7.978841 0.123470
v 0.040511 8.010296 0.061053
v -0.024495 8.071097 0.395249
v 0.368127 8.039642 0.457666
v -0.109015 8.006779 0.785033
v 0.283606 7.975324 0.847450
v 0.209070 7.808334 1.156778
v -0.183551 7.839789 1.094361
v -0.199924 7.789766 1.158147
v 0.192697 7.758311 1.220564
v 0.101527 7.343314 1.533165
v -0.291095 7.374769 1.470747
v -0.302270 7.299396 1.501417
v 0.090352 7.267941 1.563835
v 0.052360 6.922717 1.640337
v -0.340262 6.954172 1.577919
v -0.356821 6.558390 1.534711
v 0.035801 6.526935 1.597128
v -0.346167 6.250185 1.386874
v 0.046454 6.218730 1.449291
v 0.051850 6.155967 1.403541
v -0.340771 6.187422 1.341123
v -0.279472 5.888451 0.950578
v 0.113150 5.856996 1.012995
v 0.126212 5.829373 0.941034
v -0.266379 5.860751 0.878457
v -0.236432 5.492717 0.619382
v 0.151700 5.459665 0.700229
v -0.276407 5.009467 0.656452
v 0.120631 4.982106 0.733161
v -0.279784 4.604105 0.603250
v 0.108883 4.573404 0.677415
v -0.242991 4.269743 0.497615
v 0.122451 4.245448 0.552882
v -0.183009 3.929403 0.467604
v 0.173023 4.061886 0.480745
v -0.152736 3.545296 0.455987
v 0.170192 3.720510 0.536036
v -0.134654 3.150816 0.428785
v 0.154043 3.337832 0.595636
v -0.118092 2.756794 0.344273
v 0.134684 2.935154 0.582861
v 0.536741 3.293719 0.483005
v 0.511134 2.896780 0.531078
v 0.116808 2.520289 0.539932
v 0.478488 2.532201 0.671731
v 0.102274 2.203444 0.504951
v 0.451725 2.155416 0.764482
v 0.114022 2.103718 0.546607
v 0.470170 1.771238 0.848530
v 0.153902 1.699450 0.683832
v 0.489845 1.384822 0.928018
v 0.221295 1.313451 0.767018
v 0.511161 0.988222 0.999206
v 0.249963 0.932923 0.850643
v 0.487911 0.522467 0.878750
v 0.245128 0.576387 0.802497
v 0.452628 0.138275 0.796662
v 0.185385 0.196071 0.712735
v 0.424093 -0.168168 0.644662
v 0.420603 -0.203479 0.582774
v 0.310753 -0.081859 0.246980
v 0.154899 0.315852 0.335153
v 0.426961 -0.116501 0.242288
v 0.429527 -0.087233 0.221740
v 0.505509 -0.103890 0.246298
v 0.474714 0.327185 0.176283
v 0.755530 0.254227 0.329505
v 0.658520 0.142547 0.711079
v 0.731040 0.527454 0.797416
v 0.229289 0.855337 0.463768
v 0.194934 1.192987 0.384748
v 0.568771 0.848011 0.261343
v 0.561012 1.160318 0.181593
v 0.922930 0.930626 0.488545
v 0.892105 1.253528 0.429367
v 0.840531 0.941064 0.873589
v 0.815979 1.357402 0.807499
v 0.752949 1.744348 0.716246
v 0.102114 2.090653 0.481415
v -0.086892 2.008458 0.036758
v -0.085858 1.981087 0.024670
v -0.063504 1.577085 -0.134537
v 0.133477 1.777933 0.115377
v -0.093409 1.646023 -0.398071
v -0.086188 1.566086 -0.448303
v -0.130178 1.256303 -0.527100
v -0.177262 1.155668 -0.132280
v -0.097787 1.553102 -0.073997
v -0.358448 0.749419 -0.184708
v -0.257573 0.879963 -0.552626
v -0.453302 0.925296 -0.662249
v -0.478607 1.289818 -0.703980
v -0.752633 1.229989 -0.502293
v -0.768933 0.869668 -0.539325
v -0.491524 1.689801 -0.684258
v -0.790161 1.620071 -0.439614
v -0.657536 1.135365 -0.113139
v -0.710435 1.525817 -0.050460
v -0.437879 1.120596 -0.026073
v -0.445110 1.500746 0.083543
v -0.693647 1.918107 0.010829
v -0.453353 1.895164 0.145313
v -0.686113 2.309224 0.065277
v -0.467603 2.296778 0.202753
v -0.690664 2.704910 0.110951
v -0.495304 2.698052 0.264989
v -0.611935 3.110500 0.152157
v -0.526863 3.108503 0.238247
v -0.587519 3.514595 0.194561
v -0.554434 3.512549 0.234031
v -0.549752 3.974582 0.169984
v -0.520434 3.966811 0.209727
v -0.509864 4.393847 0.127706
v -0.476329 4.388842 0.187660
v -0.576875 4.590058 0.377546
v -0.653355 5.041864 0.424798
v -0.644475 5.126524 0.395625
v -0.524163 4.603109 -0.187330
v -0.495769 4.609889 -0.213409
v -0.548689 5.041355 -0.138003
v -0.117239 4.609473 -0.377902
v -0.111403 5.011693 -0.265611
v -0.578137 5.242331 0.021799
v -0.100926 5.309752 -0.140938
v -0.562737 5.252277 0.025595
v -0.106689 5.605712 0.023342
v -0.286905 5.599813 0.103399
v -0.042264 6.031398 -0.155076
v -0.444518 6.005303 0.115869
v -0.503251 6.048019 0.109308
v -0.410877 6.295820 -0.261217
v -0.587761 5.983006 0.498935
v -0.529046 5.939111 0.505384
v -0.842250 6.433899 0.091267
v -0.926770 6.369580 0.481050
v -0.962369 6.441732 0.482472
v -0.877848 6.506050 0.092688
v -0.576232 6.483676 -0.269663
v -0.741171 6.894000 -0.255309
v -0.794409 6.885859 -0.193406
v -0.724612 7.289782 -0.212101
v -0.777850 7.281641 -0.150198
v -0.833951 7.555261 0.207232
v -0.526556 7.671023 -0.140039
v -0.792573 7.621246 0.220891
v -0.423505 7.949859 0.316162
v -0.346639 7.831219 -0.093596
v -0.316756 7.685473 -0.283982
v -0.508025 7.885540 0.705946
v -0.877094 7.556928 0.610674
v -0.600200 7.638263 1.075755
v -0.780117 7.478068 1.029312
v -0.918472 7.490943 0.597015
v -0.978173 7.096827 0.957250
v -1.001912 7.111135 0.883110
v -1.018471 6.715352 0.839902
v -0.994732 6.701044 0.914042
v -0.716834 6.614659 1.321914
v -0.700275 7.010442 1.365122
v -0.694321 6.248609 1.098521
v -0.829794 6.290721 0.899688
v -0.640044 6.998647 1.414225
v -0.656603 6.602865 1.371017
v -1.061686 6.777498 0.500178
v -1.045127 7.173281 0.543386
v -0.977165 6.841816 0.110394
v -0.960607 7.237599 0.153602
v -0.644645 7.435956 1.228145
v -0.353365 7.983168 0.331290
v -0.437885 7.918849 0.721074
v -0.294244 7.319424 -0.507376
v -0.310802 6.923641 -0.550584
v -0.234000 6.924458 -0.577901
v -0.217442 7.320240 -0.534693
v -0.366432 6.498127 -0.413607
v -0.664439 6.102864 0.908134
v -0.371420 5.523554 0.491233
v 0.289557 5.578212 0.066624
v -0.578537 5.248110 0.031578
v 0.306932 5.282822 -0.099652
v 0.314867 4.933581 -0.243091
v 0.689271 4.874795 -0.046560
v 0.696234 5.197671 0.135659
v 0.295518 4.526896 -0.358586
v 0.630416 4.466772 -0.143369
v 0.700146 4.437460 -0.009538
v 0.697052 4.372514 0.027324
v 0.921038 4.592564 -0.085785
v 0.620080 4.349545 0.365619
v 0.639709 4.016908 0.247436
v 0.679217 3.962872 -0.133654
v 0.666383 3.635300 0.301874
v 0.688343 3.514007 -0.088220
v 0.637842 3.252039 0.384472
v 0.657816 3.120881 -0.002332
v 0.592786 2.867588 0.463873
v 0.633979 2.734887 0.079080
v 0.664932 2.479772 0.549770
v 0.718547 2.348988 0.165589
v 0.694729 2.122907 0.633277
v 0.762745 1.993335 0.249311
v 0.515130 1.909300 0.013640
v 0.520683 2.301945 -0.052013
v 0.135850 1.990351 0.031089
v 0.143333 2.358826 -0.107688
v 0.542265 2.712584 -0.040713
v 0.163002 2.735788 -0.231808
v 0.567180 3.098713 -0.129919
v 0.180273 3.108279 -0.364110
v 0.594062 3.498490 -0.215960
v 0.207138 3.530788 -0.434053
v -0.201160 3.241623 -0.506395
v -0.209740 3.649047 -0.490674
v -0.580462 3.207287 -0.348899
v -0.595364 3.593467 -0.242976
v -0.201902 4.082644 -0.462982
v -0.555150 4.087662 -0.236784
v -0.581086 4.076916 -0.199738
v -0.623289 3.583142 -0.200902
v -0.565693 2.829440 -0.484407
v -0.183461 2.846135 -0.502522
v -0.538302 2.443029 -0.544356
v -0.156682 2.448569 -0.454928
v -0.757010 2.776893 -0.281180
v -0.763756 2.383978 -0.326048
v -0.664092 3.180916 -0.241023
v -0.127898 2.044423 -0.395416
v 0.605605 3.962524 -0.254973
v 0.561392 3.676550 0.404283
v 0.546365 4.036922 0.348512
v -0.089282 1.977880 0.029077
v -0.432309 0.738847 -0.148740
v -0.671461 0.735473 -0.174506
v -0.439581 0.332167 -0.391921
v -0.778825 0.423871 -0.456421
v -0.413267 0.133368 -0.677810
v -0.774875 0.229336 -0.750443
v -0.382540 0.034391 -0.931342
v -0.729640 0.543430 -1.117264
v -0.796804 0.261871 -0.767336
v -0.369898 0.061267 -1.007923
v -0.609617 0.455634 -1.210689
v -0.321286 0.420457 -1.197449
v -0.319001 0.467577 -1.193954
v -0.284729 0.431690 -1.174546
v -0.332482 0.784408 -0.980791
v -0.743778 0.686415 -0.962053
v -0.166574 0.614573 -0.885035
v -0.304757 0.194690 -0.698144
v -0.766005 0.663135 -0.952628
v -0.780726 0.796637 -0.693191
v -0.313127 0.394599 -0.412487
v -0.096302 1.649631 -0.424605
v -0.101564 2.367499 0.195657
v 0.590505 5.018454 0.623252
v 0.542271 4.624835 0.620568
v 0.384229 6.519478 1.536484
v 0.461030 6.520294 1.509166
v 0.483543 6.154244 1.285773
v 0.400787 6.915261 1.579692
v 0.477589 6.916077 1.552374
v 0.907957 6.945719 1.257099
v 0.891398 6.549936 1.213891
v 0.533219 7.341591 1.415397
v 0.743019 7.356041 1.271454
v 0.577664 7.543898 1.263007
v 0.944637 6.558077 1.151989
v 0.961195 6.953859 1.195197
v 1.143952 6.997902 0.891397
v 1.127393 6.602119 0.848189
v 1.044635 7.333668 0.909102
v 1.129156 7.397986 0.519319
v 1.228473 7.062220 0.501613
v 1.009037 7.405819 0.910524
v 1.093557 7.470138 0.520740
v 0.669839 7.791175 0.893198
v 0.754360 7.855494 0.503414
v 0.602946 7.835463 0.886541
v 0.687466 7.899781 0.496757
v 0.996581 7.548997 0.102103
v 1.161519 7.138674 0.087748
v 1.185257 7.124366 0.161888
v 1.168699 6.728584 0.118680
v 1.144960 6.742891 0.044540
v 0.867062 6.829276 -0.363332
v 0.883621 7.225059 -0.320124
v 0.823390 7.236853 -0.369226
v 0.806831 6.841071 -0.412434
v 1.211914 6.666438 0.458405
v 1.085259 6.348775 0.404775
v 1.000738 6.284457 0.794559
v 1.043881 6.282791 0.391116
v 0.959360 6.218472 0.780900
v 0.693343 6.168694 1.141830
v 0.513426 6.008500 1.095386
v 0.831226 7.736854 0.093657
v 0.861108 7.591108 -0.096730
v 1.039321 3.994306 1.833945
v 1.168774 3.510378 1.890125
v 1.604036 3.495850 1.333025
v 0.972449 3.681864 0.862484
v 1.143161 3.970459 0.840524
v 1.490909 3.794503 0.486089
v 1.089061 4.162498 -0.122791
v 0.815485 3.974672 0.000989
v -0.505013 2.072950 -0.613710
v -0.768299 2.008664 -0.379141
v 0.514856 4.316123 0.449957
v 0.262171 4.081809 -0.451350
v 0.824234 1.617472 0.332451
v 0.534070 1.519468 0.093946
v 0.138384 1.579087 0.246242
v 0.833861 0.616169 0.423638
v 0.520374 0.666600 0.260197
v 0.217816 0.657843 0.426940
v -0.180732 0.768040 -0.620601
v -0.372678 0.925642 -0.731330
v -0.782470 0.806513 -0.673530
vn 0.8678 -0.3787 0.3216
vn 0.1662 -0.9445 0.2833
vn 0.1246 -0.8552 0.5031
vn 0.8099 -0.1527 0.5664
vn -0.7438 -0.6650 0.0668
vn -0.7485 -0.5725 0.3347
vn -0.9826 0.0941 -0.1600
vn -0.9822 0.1247 0.1407
vn -0.3982 0.8828 -0.2492
vn -0.4062 0.9128 0.0416
vn 0.4575 0.8831 -0.1040
vn 0.6965 0.7169 0.0292
vn 0.5934 0.7192 0.3614
vn 0.8697 0.4908 0.0514
vn 0.8728 0.4874 0.0251
vn 0.4668 0.8737 -0.1373
vn 0.8727 0.4825 -0.0740
vn 0.4629 0.8427 -0.2748
vn 0.9920 0.1198 0.0406
vn 0.9873 0.0349 0.1552
vn 0.7541 0.5756 -0.3163
vn 0.9921 0.1232 0.0250
vn -0.3538 0.8290 -0.4332
vn -0.3018 -0.2413 -0.9223
vn -0.7265 -0.6870 0.0150
vn -0.9479 0.0862 -0.3067
vn -0.7159 -0.6951 -0.0654
vn -0.4514 -0.7693 -0.4521
vn 0.1942 -0.9714 0.1363
vn 0.2492 -0.8733 -0.4186
vn -0.7406 -0.6707 0.0409
vn 0.1702 -0.9502 0.2609
vn 0.9197 -0.3706 0.1295
vn 0.8611 -0.4420 0.2512
vn -0.5711 -0.5371 -0.6208
vn 0.1482 -0.1829 -0.9719
vn 0.8561 -0.3888 -0.3404
vn 0.9180 -0.0976 -0.3844
vn 0.6651 0.1945 -0.7210
vn 0.8127 -0.2419 0.5300
vn 0.8298 0.1171 0.5457
vn 0.9413 0.3134 -0.1257
vn 0.7723 0.2881 0.5662
vn 0.8999 0.4262 -0.0921
vn 0.6499 0.4680 0.5989
vn 0.7899 0.6118 -0.0424
vn 0.5896 0.4875 -0.6439
vn 0.6394 0.3388 -0.6903
vn 0.3839 0.0213 0.9231
vn 0.2816 0.1748 0.9435
vn -0.2413 -0.1992 0.9498
vn -0.2600 -0.2926 0.9202
vn -0.8796 -0.4627 0.1103
vn -0.8609 -0.4351 0.2638
vn 0.0459 -0.6930 0.7195
vn -0.5936 -0.7455 0.3031
vn 0.5192 0.4645 0.7174
vn 0.7241 0.6774 -0.1295
vn 0.6957 -0.0531 0.7164
vn 0.9375 0.1314 -0.3222
vn 0.5902 -0.7345 0.3349
vn 0.7016 -0.6448 -0.3032
vn 0.5168 -0.8397 0.1667
vn 0.5805 -0.7878 -0.2058
vn 0.2383 -0.7215 -0.6501
vn 0.3461 -0.6209 -0.7033
vn 0.5307 -0.6819 -0.5034
vn 0.5816 -0.4507 -0.6772
vn 0.2786 -0.4871 -0.8277
vn 0.7575 -0.4894 -0.4321
vn -0.1262 -0.6892 -0.7135
vn -0.0739 -0.4604 -0.8846
vn -0.0552 -0.2899 -0.9555
vn 0.3109 -0.3164 -0.8962
vn 0.3129 -0.0715 -0.9471
vn -0.0069 -0.0501 -0.9987
vn 0.3350 0.2549 -0.9071
vn 0.0100 0.2731 -0.9619
vn -0.0342 0.5269 -0.8493
vn 0.3619 0.5002 -0.7866
vn 0.3434 0.6721 -0.6560
vn -0.0249 0.6825 -0.7305
vn -0.0438 0.8826 -0.4681
vn 0.3297 0.8553 -0.3997
vn 0.3212 0.9218 -0.2171
vn -0.0760 0.9578 -0.2773
vn -0.0832 0.9963 -0.0235
vn 0.2359 0.9709 0.0414
vn -0.1352 0.9476 0.2895
vn 0.1788 0.9192 0.3509
vn 0.1726 0.7940 0.5829
vn -0.2016 0.8374 0.5081
vn -0.2245 0.7189 0.6579
vn 0.1254 0.6912 0.7117
vn 0.0746 0.4579 0.8859
vn -0.2786 0.4871 0.8277
vn -0.3109 0.3164 0.8962
vn 0.0571 0.2875 0.9561
vn 0.0069 0.0501 0.9987
vn -0.3129 0.0715 0.9471
vn -0.3350 -0.2549 0.9071
vn -0.0100 -0.2731 0.9619
vn -0.3619 -0.5002 0.7866
vn 0.0139 -0.5193 0.8545
vn 0.0122 -0.6908 0.7230
vn -0.3434 -0.6721 0.6560
vn -0.3214 -0.8584 0.3999
vn 0.0470 -0.8765 0.4791
vn 0.1234 -0.7845 0.6077
vn -0.4255 -0.7733 0.4701
vn -0.4914 -0.1906 0.8498
vn 0.1155 -0.2175 0.9692
vn -0.4018 -0.0054 0.9157
vn 0.0170 -0.0096 0.9998
vn -0.4208 -0.2755 0.8643
vn 0.0072 -0.2528 0.9675
vn -0.4563 -0.2674 0.8487
vn 0.0617 -0.3130 0.9478
vn -0.3799 -0.0312 0.9245
vn 0.1325 -0.0985 0.9863
vn -0.4078 0.0134 0.9130
vn 0.0465 0.1056 0.9933
vn -0.4503 -0.0611 0.8908
vn -0.0934 0.0469 0.9945
vn -0.4587 -0.1595 0.8742
vn -0.2937 -0.0211 0.9557
vn 0.4959 0.0881 0.8639
vn 0.3871 0.1266 0.9133
vn -0.5715 -0.0202 0.8203
vn 0.1524 0.1938 0.9691
vn -0.7738 0.0066 0.6334
vn -0.0256 0.2170 0.9758
vn -0.8500 0.0900 0.5191
vn -0.0514 0.2245 0.9731
vn -0.8520 0.0322 0.5225
vn -0.0766 0.1880 0.9792
vn -0.8467 0.0162 0.5319
vn -0.0544 -0.0094 0.9985
vn -0.8071 -0.0348 0.5894
vn -0.0146 -0.2239 0.9745
vn -0.7873 -0.0591 0.6137
vn 0.0026 -0.3338 0.9427
vn -0.8255 -0.2888 0.4849
vn -0.0317 -0.8701 0.4918
vn 0.0149 -0.9653 0.2607
vn -0.6994 -0.4939 -0.5166
vn -0.8836 -0.0062 -0.4681
vn -0.0520 -0.8310 -0.5538
vn -0.0057 -0.3136 -0.9496
vn 0.5712 -0.6230 -0.5344
vn 0.0150 0.0961 -0.9953
vn 0.8580 -0.2443 -0.4518
vn 0.7255 -0.4389 0.5300
vn 0.7141 -0.2917 0.6364
vn -0.9070 -0.0349 -0.4198
vn -0.8712 -0.2196 -0.4391
vn 0.0747 -0.0781 -0.9941
vn 0.0956 -0.2354 -0.9672
vn 0.9470 -0.1151 -0.2999
vn 0.9365 0.0194 -0.3502
vn 0.7518 -0.0797 0.6546
vn 0.7708 0.2054 0.6030
vn 0.7903 0.2412 0.5632
vn -0.9608 -0.1371 0.2411
vn -0.3876 -0.2479 0.8879
vn 0.1006 -0.4565 0.8840
vn 0.7533 -0.6490 0.1063
vn -0.5688 -0.6783 -0.4651
vn 0.9748 -0.0572 -0.2157
vn 0.8602 0.0603 -0.5064
vn 0.8499 -0.1167 -0.5139
vn 0.7972 -0.3083 0.5191
vn 0.7515 -0.2714 0.6013
vn 0.6841 -0.3275 0.6517
vn 0.9750 0.1518 -0.1625
vn -0.0331 0.6058 -0.7949
vn -0.0488 0.0270 -0.9984
vn -0.9186 -0.0347 -0.3937
vn -0.9559 0.2558 -0.1442
vn -0.0609 0.1177 -0.9912
vn -0.9459 0.0147 -0.3242
vn -0.7343 -0.1677 0.6577
vn -0.8020 -0.1347 0.5819
vn 0.0441 -0.2598 0.9647
vn -0.0257 -0.2134 0.9766
vn -0.8096 -0.0687 0.5830
vn -0.0989 -0.1895 0.9769
vn -0.8283 -0.0783 0.5547
vn -0.2367 -0.2074 0.9492
vn -0.8598 0.0134 0.5105
vn -0.4023 -0.1244 0.9070
vn -0.8799 0.0659 0.4705
vn -0.5493 -0.0369 0.8348
vn -0.9082 0.0536 0.4151
vn -0.6387 0.0044 0.7694
vn -0.9278 0.1056 0.3578
vn -0.7254 0.0530 0.6863
vn -0.9928 0.0246 0.1170
vn -0.9014 -0.1310 0.4126
vn -0.8864 -0.2633 0.3808
vn -0.9177 0.0185 0.3968
vn -0.8111 0.3619 0.4596
vn -0.9597 0.0110 -0.2807
vn -0.6814 0.0986 -0.7252
vn -0.7324 0.1748 -0.6581
vn -0.1524 0.2052 -0.9668
vn -0.1022 0.3319 -0.9378
vn -0.7833 0.2725 -0.5588
vn -0.0984 0.4609 -0.8820
vn -0.6395 0.6508 -0.4093
vn -0.2067 0.0931 -0.9740
vn -0.7479 0.1487 -0.6470
vn -0.2056 -0.5824 -0.7865
vn -0.6150 -0.5755 -0.5390
vn -0.5715 -0.6998 -0.4285
vn -0.4253 -0.5992 -0.6783
vn -0.6646 -0.7420 -0.0877
vn -0.7428 -0.6689 0.0283
vn -0.7646 -0.4843 -0.4253
vn -0.8333 -0.5458 -0.0873
vn -0.9269 -0.3690 -0.0681
vn -0.8502 -0.3128 -0.4233
vn -0.6177 -0.3823 -0.6872
vn -0.6751 -0.0739 -0.7341
vn -0.7898 -0.1018 -0.6049
vn -0.6739 0.2875 -0.6806
vn -0.7954 0.2814 -0.5368
vn -0.8263 0.4831 -0.2895
vn -0.5922 0.5936 -0.5450
vn -0.7212 0.6533 -0.2305
vn -0.5005 0.8501 -0.1639
vn -0.3754 0.7987 -0.4703
vn -0.3473 0.6041 -0.7173
vn -0.5535 0.8087 0.1992
vn -0.7900 0.6022 0.1155
vn -0.5335 0.6793 0.5039
vn -0.7586 0.4893 0.4303
vn -0.8970 0.4358 0.0742
vn -0.8785 0.1794 0.4429
vn -0.9380 0.2209 0.2671
vn -0.9681 -0.1709 0.1831
vn -0.9067 -0.1915 0.3758
vn -0.7244 -0.2303 0.6497
vn -0.6994 0.1447 0.7000
vn -0.6517 -0.5508 0.5214
vn -0.8201 -0.5075 0.2645
vn -0.5511 0.1399 0.8226
vn -0.5675 -0.2587 0.7817
vn -0.9913 -0.1149 -0.0647
vn -0.9783 0.2069 -0.0095
vn -0.9235 -0.0804 -0.3752
vn -0.9157 0.2383 -0.3235
vn -0.5816 0.4507 0.6772
vn -0.3340 0.9329 -0.1349
vn -0.3793 0.8898 0.2536
vn -0.4230 0.3036 -0.8538
vn -0.4434 -0.0542 -0.8947
vn -0.2608 -0.0648 -0.9632
vn -0.2563 0.3222 -0.9113
vn -0.3838 -0.3751 -0.8438
vn -0.6207 -0.7349 0.2731
vn -0.9289 0.0038 0.3703
vn 0.4639 0.0681 -0.8833
vn -0.9582 0.2841 -0.0329
vn 0.3449 0.4435 -0.8273
vn 0.3206 0.3023 -0.8977
vn 0.3997 0.3335 -0.8538
vn 0.5389 0.5492 -0.6388
vn 0.3104 0.1926 -0.9309
vn 0.5786 0.0066 -0.8156
vn 0.7435 -0.4499 -0.4947
vn -0.7748 -0.2431 -0.5836
vn 0.2045 0.1467 -0.9678
vn -0.1926 -0.9802 0.0454
vn 0.9218 -0.0020 0.3876
vn 0.9671 0.0123 -0.2542
vn 0.9195 0.0595 0.3886
vn 0.9613 -0.0688 -0.2668
vn 0.9049 0.0064 0.4257
vn 0.9593 -0.1286 -0.2515
vn 0.8800 0.1255 0.4581
vn 0.9541 -0.0041 -0.2994
vn 0.8535 0.2181 0.4732
vn 0.9457 0.0619 -0.3191
vn 0.8159 0.2074 0.5398
vn 0.9423 0.0362 -0.3327
vn 0.3113 -0.2263 -0.9230
vn 0.4575 -0.1446 -0.8774
vn 0.4823 -0.2394 -0.8426
vn 0.4857 -0.1818 -0.8550
vn 0.6109 -0.1494 -0.7775
vn 0.4870 -0.1900 -0.8525
vn 0.6562 -0.2118 -0.7242
vn 0.4179 -0.1759 -0.8913
vn 0.6673 -0.1326 -0.7329
vn 0.3232 -0.0860 -0.9424
vn -0.0285 0.0190 -0.9994
vn -0.2021 0.0337 -0.9788
vn -0.5989 0.1625 -0.7842
vn -0.6948 0.0987 -0.7124
vn -0.2395 0.1006 -0.9657
vn -0.6637 0.1009 -0.7411
vn -0.9620 0.0986 -0.2546
vn -0.9685 0.0979 -0.2288
vn -0.4355 0.1255 -0.8914
vn 0.2422 -0.0349 -0.9696
vn -0.2759 0.0662 -0.9589
vn 0.4987 -0.0600 -0.8647
vn -0.9581 0.1241 -0.2581
vn -0.9556 0.0386 -0.2921
vn -0.9551 0.1652 -0.2460
vn 0.6722 0.0330 -0.7396
vn 0.6894 0.0131 -0.7243
vn 0.5460 0.1400 0.8260
vn 0.5516 -0.0515 0.8325
vn 0.6473 -0.2002 0.7355
vn 0.0926 -0.4019 0.9110
vn -0.6467 -0.2627 0.7161
vn 0.0788 -0.7036 0.7062
vn -0.7774 -0.4171 0.4709
vn 0.0907 -0.8766 0.4726
vn -0.7198 -0.6915 0.0613
vn 0.2267 -0.9588 -0.1713
vn -0.6735 0.1350 -0.7267
vn -0.9269 -0.3724 0.0463
vn 0.3198 -0.8336 -0.4504
vn -0.4112 -0.0949 -0.9066
vn 0.2982 -0.2382 -0.9243
vn 0.3601 0.3520 -0.8640
vn 0.8163 -0.0880 -0.5708
vn 0.3129 0.7473 -0.5862
vn -0.4893 0.6991 -0.5214
vn 0.9696 0.1317 -0.2062
vn 0.7963 -0.5534 0.2442
vn -0.9074 0.2930 -0.3013
vn -0.8019 0.5225 -0.2896
vn 0.7380 -0.4131 0.5336
vn 0.8006 0.1034 -0.5902
vn -0.4364 -0.2353 0.8684
vn 0.1979 0.2130 0.9568
vn 0.0222 -0.1941 0.9807
vn 0.2401 -0.3033 0.9221
vn 0.4196 -0.2971 0.8577
vn 0.3505 -0.6063 0.7138
vn 0.2697 0.0835 0.9593
vn 0.4347 0.0670 0.8981
vn 0.6794 0.0676 0.7307
vn 0.6692 -0.2947 0.6822
vn 0.3828 0.3740 0.8448
vn 0.6162 0.3831 0.6882
vn 0.4253 0.5992 0.6783
vn 0.7816 -0.3010 0.5464
vn 0.8027 0.0850 0.5903
vn 0.9235 0.0804 0.3752
vn 0.9157 -0.2383 0.3235
vn 0.8476 0.3233 0.4208
vn 0.9309 0.3596 0.0638
vn 0.9913 0.1149 0.0647
vn 0.7578 0.4999 0.4192
vn 0.8434 0.5313 0.0793
vn 0.5620 0.7103 0.4238
vn 0.6304 0.7729 0.0730
vn 0.4109 0.8070 0.4242
vn 0.4713 0.8806 0.0493
vn 0.8210 0.5068 -0.2630
vn 0.9035 0.1996 -0.3792
vn 0.9614 0.1919 -0.1971
vn 0.9474 -0.2043 -0.2462
vn 0.8824 -0.1733 -0.4374
vn 0.6994 -0.1447 -0.7000
vn 0.7244 0.2303 -0.6497
vn 0.5675 0.2587 -0.7817
vn 0.5511 -0.1399 -0.8226
vn 0.9783 -0.2069 0.0095
vn 0.8917 -0.4466 -0.0731
vn 0.8295 -0.4742 0.2950
vn 0.7800 -0.6155 -0.1133
vn 0.7309 -0.6379 0.2427
vn 0.5938 -0.5917 0.5452
vn 0.3769 -0.7952 0.4749
vn 0.6187 0.7378 -0.2699
vn 0.6517 0.5508 -0.5214
vn -0.3281 0.4824 0.8122
vn -0.1159 -0.2758 0.9542
vn 0.9277 0.0233 0.3725
vn -0.9783 0.0923 -0.1857
vn -0.3994 0.8726 -0.2810
vn 0.4580 -0.2872 0.8413
vn 0.0269 0.0830 -0.9962
vn -0.7156 -0.2393 -0.6562
vn -0.1269 0.1225 -0.9843
vn -0.9493 0.0665 -0.3073
vn 0.1260 -0.4916 0.8616
vn 0.2961 0.0726 -0.9524
vn 0.9295 0.0508 -0.3654
vn 0.1704 -0.2470 -0.9539
vn -0.8561 -0.2240 -0.4658
vn 0.8997 -0.1392 -0.4137
vn -0.0068 0.1645 -0.9864
vn -0.8727 0.1830 -0.4526
vn 0.9564 0.2778 0.0905
vn 0.2844 0.9019 -0.3252
vn -0.8192 0.5425 -0.1862
s 1
f 4//4 3//3 2//2 1//1
f 2//2 3//3 6//6 5//5
f 5//5 6//6 8//8 7//7
f 8//8 10//10 9//9 7//7
f 13//13 12//12 11//11 9//9
f 10//10 13//13 9//9
f 11//11 12//12 14//14
f 16//16 11//11 14//14 15//15
f 18//18 16//16 15//15 17//17
f 15//15 20//20 19//19 17//17
f 21//21 18//18 17//17
f 23//23 18//18 21//21 22//22
f 24//24 23//23 22//22
f 26//26 23//23 24//24 25//25
f 28//28 27//27 26//26 25//25
f 30//30 29//29 27//27 28//28
f 29//29 32//32 31//31 27//27
f 34//34 32//32 29//29 33//33
f 36//36 30//30 28//28 35//35
f 38//38 37//37 30//30 36//36
f 39//39 38//38 36//36
f 37//37 38//38 40//40 22//22
f 40//40 38//38 42//42 41//41
f 41//41 42//42 44//44 43//43
f 43//43 44//44 46//46 45//45
f 44//44 48//48 47//47 46//46
f 50//50 49//49 43//43 45//45
f 52//52 49//49 50//50 51//51
f 54//54 52//52 51//51 53//53
f 56//56 55//55 52//52 54//54
f 45//45 46//46 58//58 57//57
f 58//58 60//60 59//59 57//57
f 60//60 62//62 61//61 59//59
f 61//61 62//62 64//64 63//63
f 64//64 62//62 66//66 65//65
f 67//67 64//64 65//65
f 69//69 68//68 67//67 65//65
f 68//68 70//70 67//67
f 72//72 69//69 65//65 71//71
f 74//74 69//69 72//72 73//73
f 76//76 75//75 74//74 73//73
f 78//78 77//77 75//75 76//76
f 80//80 77//77 78//78 79//79
f 82//82 81//81 80//80 79//79
f 84//84 81//81 82//82 83//83
f 86//86 85//85 84//84 83//83
f 88//88 85//85 86//86 87//87
f 90//90 88//88 87//87 89//89
f 92//92 91//91 90//90 89//89
f 94//94 91//91 92//92 93//93
f 96//96 95//95 94//94 93//93
f 98//98 95//95 96//96 97//97
f 100//100 99//99 98//98 97//97
f 102//102 99//99 100//100 101//101
f 104//104 102//102 101//101 103//103
f 106//106 105//105 104//104 103//103
f 108//108 105//105 106//106 107//107
f 110//110 109//109 108//108 107//107
f 112//112 109//109 110//110 111//111
f 114//114 112//112 111//111 113//113
f 116//116 114//114 113//113 115//115
f 118//118 116//116 115//115 117//117
f 120//120 118//118 117//117 119//119
f 122//122 120//120 119//119 121//121
f 124//124 122//122 121//121 123//123
f 126//126 124//124 123//123 125//125
f 128//128 127//127 124//124 126//126
f 130//130 128//128 126//126 129//129
f 132//132 130//130 129//129 131//131
f 133//133 132//132 131//131
f 132//132 133//133 135//135 134//134
f 134//134 135//135 137//137 136//136
f 136//136 137//137 139//139 138//138
f 138//138 139//139 141//141 140//140
f 140//140 141//141 143//143 142//142
f 142//142 143//143 144//144
f 147//147 146//146 145//145 144//144
f 143//143 147//147 144//144
f 145//145 146//146 148//148
f 146//146 149//149 148//148
f 150//150 145//145 148//148
f 146//146 147//147 151//151 149//149
f 151//151 152//152 150//150 149//149
f 150//150 152//152 153//153 144//144
f 145//145 150//150 144//144
f 153//153 154//154 140//140 142//142
f 137//137 156//156 155//155 139//139
f 155//155 156//156 158//158 157//157
f 158//158 160//160 159//159 157//157
f 159//159 160//160 162//162 161//161
f 162//162 163//163 134//134 136//136
f 164//164 133//133 131//131
f 166//166 164//164 131//131 165//165
f 168//168 164//164 166//166 167//167
f 169//169 168//168 167//167
f 169//169 167//167 170//170
f 173//173 172//172 171//171 170//170
f 167//167 173//173 170//170
f 175//175 171//171 172//172 174//174
f 177//177 171//171 175//175 176//176
f 179//179 178//178 177//177 176//176
f 178//178 181//181 180//180 177//177
f 183//183 181//181 178//178 182//182
f 185//185 183//183 182//182 184//184
f 187//187 186//186 183//183 185//185
f 189//189 188//188 186//186 187//187
f 191//191 190//190 188//188 189//189
f 193//193 192//192 190//190 191//191
f 195//195 194//194 192//192 193//193
f 197//197 196//196 194//194 195//195
f 199//199 198//198 196//196 197//197
f 205//205 207//207 206//206 204//204
f 209//209 207//207 205//205 208//208
f 210//210 209//209 208//208
f 210//210 212//212 211//211 209//209
f 212//212 214//214 213//213 211//211
f 71//71 213//213 214//214 215//215
f 216//216 71//71 215//215
f 215//215 214//214 218//218 217//217
f 220//220 219//219 215//215 217//217
f 222//222 219//219 220//220 221//221
f 224//224 223//223 219//219 222//222
f 225//225 224//224 222//222
f 227//227 226//226 224//224 225//225
f 229//229 226//226 227//227 228//228
f 230//230 229//229 228//228
f 232//232 229//229 230//230 231//231
f 233//233 229//229 232//232
f 231//231 230//230 235//235 234//234
f 234//234 235//235 237//237 236//236
f 239//239 237//237 235//235 238//238
f 240//240 239//239 238//238
f 242//242 239//239 240//240 241//241
f 244//244 239//239 242//242 243//243
f 243//243 242//242 246//246 245//245
f 248//248 247//247 244//244 243//243
f 240//240 250//250 249//249 241//241
f 241//241 249//249 221//221
f 250//250 252//252 251//251 249//249
f 228//228 252//252 250//250 238//238
f 250//250 240//240 238//238
f 237//237 253//253 236//236
f 255//255 254//254 231//231 234//234
f 226//226 229//229 233//233 256//256
f 235//235 230//230 228//228 238//238
f 224//224 226//226 256//256 257//257
f 256//256 259//259 258//258 257//257
f 251//251 252//252 227//227 225//225
f 223//223 224//224 257//257 260//260
f 223//223 260//260 216//216
f 251//251 225//225 222//222
f 246//246 242//242 241//241 221//221
f 220//220 246//246 221//221
f 249//249 251//251 222//222 221//221
f 246//246 220//220 217//217 261//261
f 218//218 214//214 212//212 262//262
f 213//213 66//66 263//263 211//211
f 212//212 210//210 264//264 202//202
f 262//262 212//212 202//202
f 211//211 263//263 265//265 209//209
f 209//209 265//265 266//266 207//207
f 265//265 268//268 267//267 266//266
f 266//266 267//267 270//270 269//269
f 273//273 272//272 271//271 270//270
f 267//267 273//273 270//270
f 274//274 271//271 272//272 53//53
f 276//276 271//271 274//274 275//275
f 278//278 276//276 275//275 277//277
f 280//280 278//278 277//277 279//279
f 282//282 280//280 279//279 281//281
f 284//284 282//282 281//281 283//283
f 286//286 284//284 283//283 285//285
f 288//288 284//284 286//286 287//287
f 290//290 288//288 287//287 289//289
f 292//292 291//291 288//288 290//290
f 294//294 293//293 291//291 292//292
f 296//296 295//295 293//293 294//294
f 298//298 296//296 294//294 297//297
f 300//300 298//298 297//297 299//299
f 302//302 301//301 298//298 300//300
f 304//304 303//303 302//302 300//300
f 299//299 297//297 306//306 305//305
f 305//305 306//306 308//308 307//307
f 310//310 309//309 305//305 307//307
f 311//311 304//304 300//300 299//299
f 297//297 294//294 292//292 306//306
f 306//306 292//292 290//290 308//308
f 308//308 290//290 289//289 312//312
f 291//291 282//282 284//284 288//288
f 293//293 280//280 282//282 291//291
f 313//313 276//276 278//278 295//295
f 277//277 275//275 315//315 314//314
f 268//268 47//47 273//273 267//267
f 204//204 206//206 301//301 302//302
f 207//207 266//266 269//269 206//206
f 198//198 203//203 303//303 196//196
f 196//196 303//303 304//304 194//194
f 194//194 304//304 311//311 192//192
f 192//192 311//311 309//309 190//190
f 190//190 309//309 310//310 188//188
f 173//173 316//316 187//187 185//185
f 184//184 182//182 318//318 317//317
f 317//317 318//318 320//320 319//319
f 319//319 320//320 322//322 321//321
f 321//321 322//322 323//323
f 323//323 322//322 325//325 324//324
f 327//327 326//326 323//323 324//324
f 326//326 327//327 328//328
f 327//327 329//329 328//328
f 330//330 326//326 328//328
f 331//331 329//329 327//327 324//324
f 332//332 331//331 324//324
f 331//331 333//333 330//330 329//329
f 330//330 333//333 334//334 323//323
f 326//326 330//330 323//323
f 325//325 335//335 324//324
f 335//335 325//325 336//336
f 332//332 335//335 336//336
f 334//334 337//337 319//319 321//321
f 182//182 178//178 179//179 318//318
f 338//338 170//170 171//171 177//177
f 180//180 338//338 177//177
f 289//289 168//168 169//169 338//338
f 312//312 289//289 338//338
f 131//131 129//129 339//339 165//165
f 283//283 281//281 128//128 130//130
f 281//281 279//279 127//127 128//128
f 125//125 123//123 193//193 191//191
f 314//314 315//315 120//120 122//122
f 121//121 119//119 197//197 195//195
f 341//341 340//340 114//114 116//116
f 115//115 113//113 201//201 200//200
f 113//113 111//111 262//262 202//202
f 110//110 218//218 262//262 111//111
f 218//218 110//110 107//107 261//261
f 217//217 218//218 261//261
f 107//107 106//106 245//245 261//261
f 344//344 343//343 342//342 104//104
f 105//105 344//344 104//104
f 346//346 345//345 342//342 343//343
f 348//348 347//347 346//346 343//343
f 347//347 350//350 349//349 346//346
f 349//349 350//350 351//351
f 353//353 347//347 348//348 352//352
f 355//355 354//354 353//353 352//352
f 353//353 354//354 356//356
f 354//354 358//358 357//357 356//356
f 357//357 360//360 359//359 356//356
f 359//359 360//360 362//362 361//361
f 362//362 364//364 363//363 361//361
f 366//366 365//365 360//360 357//357
f 367//367 366//366 357//357
f 369//369 366//366 367//367 368//368
f 371//371 366//366 369//369 370//370
f 373//373 372//372 371//371 370//370
f 367//367 358//358 374//374 368//368
f 368//368 374//374 375//375
f 375//375 374//374 355//355 376//376
f 378//378 377//377 375//375 376//376
f 355//355 352//352 376//376
f 374//374 358//358 354//354 355//355
f 379//379 348//348 343//343 344//344
f 379//379 344//344 380//380
f 63//63 378//378 379//379 380//380
f 103//103 248//248 243//243 245//245
f 106//106 103//103 245//245
f 342//342 102//102 104//104
f 101//101 248//248 103//103
f 342//342 345//345 99//99 102//102
f 100//100 247//247 248//248 101//101
f 247//247 100//100 97//97
f 346//346 349//349 95//95 98//98
f 345//345 346//346 98//98
f 97//97 96//96 253//253 244//244
f 247//247 97//97 244//244
f 95//95 349//349 351//351 94//94
f 253//253 96//96 93//93 236//236
f 91//91 363//363 90//90
f 255//255 92//92 89//89
f 363//363 364//364 88//88 90//90
f 87//87 254//254 255//255 89//89
f 86//86 254//254 87//87
f 364//364 362//362 381//381 84//84
f 85//85 364//364 84//84
f 382//382 371//371 372//372 80//80
f 81//81 382//382 80//80
f 78//78 259//259 79//79
f 77//77 372//372 373//373 75//75
f 258//258 259//259 78//78 76//76
f 75//75 373//373 74//74
f 258//258 76//76 73//73
f 260//260 72//72 71//71 216//216
f 67//67 70//70 377//377 64//64
f 65//65 66//66 213//213 71//71
f 61//61 63//63 380//380 108//108
f 109//109 61//61 108//108
f 64//64 377//377 378//378 63//63
f 66//66 62//62 60//60 263//263
f 59//59 61//61 109//109 112//112
f 60//60 58//58 268//268 265//265
f 263//263 60//60 265//265
f 57//57 59//59 112//112 114//114
f 340//340 57//57 114//114
f 35//35 28//28 25//25 56//56
f 25//25 24//24 55//55 56//56
f 19//19 33//33 37//37 22//22
f 21//21 19//19 22//22
f 10//10 383//383 13//13
f 383//383 10//10 8//8
f 6//6 384//384 383//383 8//8
f 3//3 384//384 6//6
f 32//32 2//2 5//5 31//31
f 12//12 13//13 4//4 1//1
f 385//385 12//12 1//1
f 384//384 3//3 4//4
f 12//12 385//385 14//14
f 383//383 384//384 4//4 13//13
f 20//20 385//385 1//1 34//34
f 1//1 2//2 32//32 34//34
f 14//14 385//385 20//20 15//15
f 31//31 5//5 7//7 386//386
f 9//9 11//11 16//16 387//387
f 7//7 9//9 387//387 386//386
f 19//19 20//20 34//34 33//33
f 33//33 29//29 30//30 37//37
f 19//19 21//21 17//17
f 27//27 31//31 386//386 26//26
f 387//387 16//16 18//18 23//23
f 386//386 387//387 23//23 26//26
f 38//38 39//39 42//42
f 388//388 40//40 41//41
f 22//22 40//40 388//388 55//55
f 24//24 22//22 55//55
f 48//48 39//39 36//36 389//389
f 42//42 39//39 48//48 44//44
f 389//389 36//36 35//35 390//390
f 49//49 388//388 41//41 43//43
f 55//55 388//388 49//49 52//52
f 390//390 35//35 56//56 54//54
f 47//47 48//48 389//389 273//273
f 46//46 47//47 268//268 58//58
f 273//273 389//389 390//390 272//272
f 340//340 50//50 45//45 57//57
f 51//51 50//50 340//340 341//341
f 272//272 390//390 54//54 53//53
f 365//365 382//382 381//381
f 382//382 365//365 366//366 371//371
f 370//370 369//369 70//70 68//68
f 360//360 365//365 381//381 362//362
f 358//358 367//367 357//357
f 70//70 369//369 368//368 375//375
f 377//377 70//70 375//375
f 350//350 359//359 361//361 351//351
f 350//350 347//347 353//353 356//356
f 359//359 350//350 356//356
f 348//348 379//379 378//378 376//376
f 352//352 348//348 376//376
f 381//381 382//382 81//81 84//84
f 372//372 77//77 80//80
f 370//370 68//68 69//69 74//74
f 373//373 370//370 74//74
f 364//364 85//85 88//88
f 361//361 363//363 91//91 94//94
f 351//351 361//361 94//94
f 99//99 345//345 98//98
f 380//380 344//344 105//105 108//108
f 83//83 82//82 233//233 232//232
f 82//82 79//79 259//259 256//256
f 233//233 82//82 256//256
f 258//258 73//73 72//72 260//260
f 257//257 258//258 260//260
f 86//86 83//83 232//232 231//231
f 254//254 86//86 231//231
f 227//227 252//252 228//228
f 219//219 223//223 216//216 215//215
f 92//92 255//255 234//234 236//236
f 93//93 92//92 236//236
f 253//253 237//237 239//239 244//244
f 245//245 246//246 261//261
f 338//338 169//169 170//170
f 129//129 126//126 125//125 339//339
f 316//316 166//166 165//165
f 166//166 316//316 173//173 167//167
f 307//307 308//308 312//312 391//391
f 391//391 312//312 338//338 180//180
f 339//339 125//125 191//191 189//189
f 165//165 339//339 189//189 187//187
f 316//316 165//165 187//187
f 172//172 173//173 185//185 184//184
f 392//392 310//310 307//307 391//391
f 181//181 392//392 391//391 180//180
f 188//188 310//310 392//392 186//186
f 186//186 392//392 181//181 183//183
f 270//270 271//271 276//276 313//313
f 295//295 278//278 280//280 293//293
f 53//53 51//51 341//341 393//393
f 274//274 53//53 393//393
f 275//275 274//274 393//393 315//315
f 279//279 277//277 314//314 127//127
f 269//269 270//270 313//313 394//394
f 394//394 313//313 295//295 296//296
f 393//393 341//341 116//116 118//118
f 315//315 393//393 118//118 120//120
f 127//127 314//314 122//122 124//124
f 206//206 269//269 394//394 301//301
f 301//301 394//394 296//296 298//298
f 303//303 203//203 204//204 302//302
f 309//309 311//311 299//299 305//305
f 117//117 115//115 200//200 199//199
f 119//119 117//117 199//199 197//197
f 123//123 121//121 195//195 193//193
f 395//395 286//286 285//285 163//163
f 160//160 395//395 163//163 162//162
f 287//287 286//286 395//395 396//396
f 396//396 395//395 160//160 158//158
f 285//285 283//283 130//130 132//132
f 163//163 285//285 132//132 134//134
f 287//287 396//396 397//397 168//168
f 289//289 287//287 168//168
f 156//156 397//397 396//396 158//158
f 135//135 133//133 164//164 168//168
f 397//397 135//135 168//168
f 135//135 397//397 156//156 137//137
f 398//398 159//159 161//161 154//154
f 152//152 398//398 154//154 153//153
f 157//157 159//159 398//398 399//399
f 399//399 398//398 152//152 151//151
f 149//149 150//150 148//148
f 161//161 162//162 136//136 138//138
f 154//154 161//161 138//138 140//140
f 153//153 142//142 144//144
f 400//400 155//155 157//157 399//399
f 147//147 400//400 399//399 151//151
f 139//139 155//155 400//400 141//141
f 141//141 400//400 147//147 143//143
f 401//401 175//175 174//174 337//337
f 333//333 401//401 337//337 334//334
f 176//176 175//175 401//401 402//402
f 402//402 401//401 333//333 331//331
f 329//329 330//330 328//328
f 174//174 172//172 184//184 317//317
f 337//337 174//174 317//317 319//319
f 334//334 321//321 323//323
f 402//402 331//331 332//332 336//336
f 403//403 402//402 336//336
f 403//403 179//179 176//176 402//402
f 335//335 332//332 324//324
f 318//318 179//179 403//403 320//320
f 322//322 320//320 403//403 336//336
f 325//325 322//322 336//336
f 264//264 201//201 113//113 202//202
f 199//199 200//200 201//201 264//264 210//210 208//208 205//205 204//204 203//203 198//198
