# Blender 5.0.0
# www.blender.org
mtllib Walk_Forward0030.mtl
o Mball.010
v 1.840479 3.407366 0.626668
v 1.594923 3.075844 0.576244
v 1.574044 3.021542 0.924781
v 1.810455 3.324204 0.971150
v 1.329758 3.135402 0.576845
v 1.335590 3.071334 0.924824
v 1.110178 3.576498 0.628994
v 1.114174 3.511452 0.976794
v 1.234665 3.889285 0.673637
v 1.230334 3.797616 1.017700
v 1.631772 3.890947 0.684716
v 1.632881 3.788986 1.020584
v 1.631510 3.786938 1.027264
v 1.661408 3.870034 0.682770
v 1.673691 3.943748 0.336557
v 1.644055 3.964661 0.338503
v 1.685665 4.017299 -0.009685
v 1.656584 4.037820 -0.007775
v 1.865160 3.566869 -0.064162
v 1.853162 3.492513 0.281974
v 1.687735 4.008760 -0.140468
v 1.657355 3.999335 -0.345162
v 1.259369 4.036398 -0.018826
v 1.332545 3.965432 -0.355507
v 1.230594 3.784092 -0.395074
v 1.135028 3.724079 -0.063403
v 1.354639 3.283000 -0.115550
v 1.417782 3.424173 -0.478138
v 1.619338 3.223612 -0.116141
v 1.584737 3.415459 -0.482063
v 1.342040 3.209117 0.230632
v 1.607206 3.149559 0.230031
v 1.864732 3.554629 -0.065788
v 1.852761 3.481080 0.280456
v 1.054344 3.853731 -0.544092
v 1.269745 4.099063 -0.636297
v 1.796273 3.656265 -0.446873
v 1.710459 4.018929 -0.515286
v 1.572575 4.267632 -0.490476
v 1.704174 3.970039 -0.300246
v 1.668536 4.073975 -0.131632
v 1.628122 4.266571 -0.427043
v 1.448101 4.368049 0.134238
v 1.381043 4.638031 -0.199229
v 1.207403 4.739493 0.349714
v 1.153389 4.990910 0.008641
v 1.096245 4.996608 -0.070845
v 1.319778 4.651851 -0.270062
v 1.411482 4.282816 0.184660
v 1.172531 4.643882 0.404507
v 0.932772 4.328750 0.428393
v 1.130736 3.991051 0.218501
v 0.716190 4.264927 0.224517
v 0.866197 3.957379 0.015336
v 1.332551 3.761618 -0.068226
v 1.083598 3.687740 -0.253220
v 0.659789 5.128478 0.517589
v 0.671177 5.285115 0.140044
v 0.442616 5.460601 0.576091
v 0.458752 5.569674 0.185777
v 0.581173 5.849823 0.641530
v 0.597319 5.952331 0.249950
v 0.635129 5.883736 0.647968
v 0.651253 5.985518 0.256308
v 0.268046 6.104261 -0.145866
v 0.264299 6.048270 -0.083975
v 0.672121 6.270411 -0.106471
v 0.683457 6.487174 -0.251022
v 0.291301 6.548912 -0.442388
v 0.852079 6.436096 -0.074256
v -0.131558 6.119209 -0.156144
v -0.108303 6.563860 -0.452666
v -0.105036 6.642149 -0.480076
v 0.294568 6.627201 -0.469797
v 0.307187 6.979723 -0.530534
v -0.092417 6.994671 -0.540813
v 0.316857 7.371484 -0.467548
v -0.082747 7.386433 -0.477827
v -0.079401 7.680700 -0.313102
v 0.320203 7.665751 -0.302823
v 0.320311 7.724195 -0.253430
v -0.079293 7.739144 -0.263709
v -0.085104 8.001207 0.146436
v 0.314501 7.986259 0.156714
v 0.312637 8.007000 0.231251
v -0.086967 8.021948 0.220972
v -0.097485 8.051132 0.562471
v 0.302119 8.036184 0.572749
v -0.113597 7.949916 0.954206
v 0.286008 7.934968 0.964484
v 0.269925 7.738676 1.269731
v -0.129680 7.753625 1.259453
v -0.133439 7.697557 1.321640
v 0.266165 7.682610 1.331919
v 0.242911 7.237957 1.628441
v -0.156694 7.252906 1.618162
v -0.159961 7.174618 1.645572
v 0.239644 7.159669 1.655850
v 0.227025 6.807147 1.716587
v -0.172580 6.822096 1.706309
v -0.182250 6.430334 1.643323
v 0.217355 6.415385 1.653601
v -0.185596 6.136066 1.478598
v 0.214009 6.121119 1.488876
v 0.213900 6.062674 1.439483
v -0.185704 6.077622 1.429205
v -0.179893 5.815560 1.019060
v 0.219711 5.800611 1.029339
v 0.221562 5.779793 0.955100
v -0.178035 5.794726 0.944641
v -0.178767 5.454374 0.663924
v 0.219528 5.435638 0.693001
v -0.192599 4.995070 0.693020
v 0.210317 4.977931 0.718953
v -0.183109 4.611018 0.632513
v 0.202716 4.571198 0.667322
v -0.176582 4.280732 0.514634
v 0.193432 4.230616 0.555072
v -0.171675 3.992688 0.477988
v 0.173422 3.973482 0.493626
v -0.145972 3.621685 0.504254
v 0.145471 3.605801 0.502327
v -0.119620 3.225944 0.521340
v 0.117622 3.210417 0.508691
v -0.092108 2.823933 0.488349
v 0.088505 2.808224 0.431609
v 0.493796 3.148428 0.358751
v 0.453633 2.746874 0.324503
v 0.062057 2.405401 0.322354
v 0.402929 2.352743 0.390223
v 0.040676 2.099733 0.233738
v 0.355694 1.967748 0.409669
v 0.043784 1.989512 0.233966
v 0.361131 1.570375 0.428673
v 0.057053 1.555043 0.238681
v 0.368947 1.170869 0.442789
v 0.112273 1.153309 0.259233
v 0.380417 0.762060 0.446936
v 0.129060 0.754082 0.281524
v 0.386983 0.339100 0.227223
v 0.136695 0.406693 0.171094
v 0.365353 0.001339 0.059609
v 0.093132 0.071650 -0.003482
v 0.344685 -0.235602 -0.156695
v 0.340551 -0.246254 -0.223988
v 0.213930 -0.010870 -0.514765
v 0.043394 0.325233 -0.334388
v 0.331271 -0.035047 -0.528878
v 0.331860 0.000741 -0.541699
v 0.409292 -0.019726 -0.523148
v 0.356965 0.412944 -0.486336
v 0.645886 0.304518 -0.361949
v 0.567738 0.050134 -0.023848
v 0.624846 0.388436 0.149651
v 0.127001 0.786699 -0.104312
v 0.110585 1.138603 -0.132964
v 0.471480 0.836096 -0.286004
v 0.487311 1.151730 -0.315388
v 0.807271 0.862399 -0.043098
v 0.800721 1.167527 -0.042289
v 0.719164 0.751078 0.324450
v 0.702660 1.165779 0.338448
v 0.652938 1.569901 0.310571
v 0.039988 1.993738 0.198277
v -0.034032 2.034408 0.308548
v -0.031912 2.005195 0.301669
v 0.015326 1.589544 0.258334
v 0.092076 1.749611 -0.152382
v -0.025208 1.577282 -0.075619
v -0.006645 1.492087 -0.066248
v -0.030556 1.171399 -0.052467
v -0.078533 1.180077 0.350078
v -0.015325 1.587379 0.338728
v -0.243167 0.760468 0.368311
v -0.142836 0.790737 -0.013364
v -0.338803 0.795067 -0.128195
v -0.377767 1.137930 -0.231181
v -0.651684 1.121773 -0.024343
v -0.653525 0.759583 0.001395
v -0.406730 1.532959 -0.280540
v -0.705118 1.517708 -0.030040
v -0.557784 1.141787 0.371777
v -0.626472 1.537202 0.365991
v -0.338838 1.162331 0.459495
v -0.362079 1.562935 0.501328
v -0.625479 1.937757 0.358810
v -0.385971 1.964054 0.494102
v -0.631081 2.336054 0.346998
v -0.412945 2.370678 0.482862
v -0.648571 2.734824 0.325416
v -0.455511 2.772743 0.468279
v -0.583754 3.144417 0.295251
v -0.500526 3.164633 0.373070
v -0.573399 3.550168 0.267543
v -0.540646 3.558300 0.304842
v -0.557438 3.983485 0.195148
v -0.524664 3.985713 0.232902
v -0.511830 4.363291 0.195420
v -0.462617 4.371984 0.245877
v -0.488594 4.615606 0.479233
v -0.590653 5.036328 0.521559
v -0.593577 5.115259 0.489896
v -0.600248 4.525203 -0.143950
v -0.572492 4.535717 -0.178591
v -0.637378 4.964560 -0.080858
v -0.198074 4.573137 -0.380837
v -0.196310 4.995036 -0.259331
v -0.607947 5.218239 0.103831
v -0.166247 5.308372 -0.117135
v -0.592129 5.229493 0.105407
v -0.154103 5.618483 0.064292
v -0.318617 5.596577 0.165445
v -0.135314 6.063165 -0.094045
v -0.486642 5.992426 0.221916
v -0.547315 6.032343 0.225704
v -0.526692 6.315257 -0.137306
v -0.563422 5.930702 0.617329
v -0.502746 5.890059 0.613451
v -0.898983 6.399781 0.272853
v -0.915095 6.298565 0.664587
v -0.952580 6.368397 0.674572
v -0.936469 6.469614 0.282837
v -0.698146 6.494088 -0.114131
v -0.873201 6.892759 -0.055896
v -0.915186 6.876561 0.011458
v -0.863531 7.284521 0.007089
v -0.905516 7.268323 0.074444
v -0.910833 7.508164 0.449811
v -0.669136 7.669371 0.074827
v -0.869973 7.575065 0.461810
v -0.500820 7.914939 0.527892
v -0.489178 7.835056 0.107041
v -0.486346 7.707304 -0.092900
v -0.516932 7.813723 0.919627
v -0.886085 7.473848 0.853545
v -0.537514 7.531407 1.282245
v -0.717472 7.365722 1.250031
v -0.926945 7.406948 0.841545
v -0.911867 6.980871 1.182294
v -0.948228 7.000000 1.112924
v -0.957898 6.608238 1.049939
v -0.921537 6.589109 1.119308
v -0.575638 6.484332 1.481912
v -0.565968 6.876094 1.544898
v -0.577860 6.139360 1.237839
v -0.746482 6.190438 1.061074
v -0.497812 6.863563 1.585093
v -0.507482 6.471801 1.522107
v -1.059593 6.696094 0.723608
v -1.049923 7.087855 0.786593
v -1.043482 6.797310 0.331873
v -1.033812 7.189071 0.394859
v -0.548850 7.314644 1.426797
v -0.430137 7.950735 0.535860
v -0.446249 7.849518 0.927595
v -0.488568 7.362332 -0.336973
v -0.498238 6.970571 -0.399959
v -0.426923 6.977884 -0.436567
v -0.417253 7.369645 -0.373581
v -0.515356 6.532020 -0.281857
v -0.575028 6.011608 1.037898
v -0.334673 5.488041 0.555759
v 0.245742 5.609141 0.055513
v -0.606381 5.224658 0.114025
v 0.245257 5.298573 -0.125770
v 0.240024 4.945138 -0.269348
v 0.636113 4.918577 -0.112848
v 0.666084 5.235025 0.065954
v 0.227841 4.539580 -0.381882
v 0.592446 4.511832 -0.185086
v 0.680308 4.487900 -0.070618
v 0.669241 4.506284 -0.118152
v 0.822189 4.828571 -0.230490
v 0.678062 4.326646 0.297855
v 0.648587 3.942711 0.240118
v 0.674328 3.989229 -0.151469
v 0.641834 3.527779 0.246924
v 0.677685 3.524262 -0.155587
v 0.597410 3.130276 0.253355
v 0.633096 3.119154 -0.145500
v 0.537711 2.735231 0.256310
v 0.594409 2.721263 -0.140951
v 0.593829 2.330406 0.268032
v 0.664665 2.315542 -0.127485
v 0.607128 1.963229 0.288866
v 0.700528 1.939001 -0.104430
v 0.468192 1.928171 -0.353172
v 0.479583 2.333135 -0.337385
v 0.100677 1.977181 -0.205689
v 0.116216 2.378824 -0.313676
v 0.509484 2.733477 -0.253702
v 0.147527 2.777748 -0.384085
v 0.549184 3.132120 -0.267684
v 0.176847 3.172072 -0.467308
v 0.587104 3.542123 -0.283441
v 0.202088 3.596665 -0.486587
v -0.181189 3.148349 -0.426921
v -0.204341 3.560442 -0.451798
v -0.554493 3.111819 -0.221617
v -0.582592 3.517176 -0.174548
v -0.222411 3.999342 -0.459571
v -0.587036 4.004369 -0.219822
v -0.611847 3.999733 -0.180264
v -0.609807 3.514587 -0.129886
v -0.527769 2.707337 -0.297385
v -0.155179 2.753541 -0.379670
v -0.486422 2.310046 -0.284857
v -0.118058 2.362405 -0.273858
v -0.715420 2.695682 -0.069606
v -0.708934 2.298985 -0.047699
v -0.636379 3.106161 -0.101328
v -0.077860 1.971116 -0.155572
v 0.594836 4.011760 -0.275022
v 0.534295 3.547507 0.354998
v 0.555174 3.942360 0.348585
v -0.034286 2.004874 0.311456
v -0.317002 0.756472 0.405185
v -0.555457 0.734316 0.380473
v -0.308343 0.291502 0.237392
v -0.650328 0.348674 0.160663
v -0.275089 0.019001 -0.007407
v -0.639626 0.077365 -0.092432
v -0.240817 -0.146944 -0.237874
v -0.604745 0.283125 -0.504829
v -0.662626 0.103467 -0.114385
v -0.229029 -0.141582 -0.317310
v -0.481757 0.176429 -0.581616
v -0.192451 0.157737 -0.564542
v -0.191766 0.204744 -0.569282
v -0.156321 0.176587 -0.544380
v -0.215903 0.572581 -0.415929
v -0.623764 0.465216 -0.378027
v -0.044552 0.440577 -0.294263
v -0.168715 0.077594 -0.038551
v -0.645209 0.444232 -0.364661
v -0.664049 0.645916 -0.134853
v -0.184019 0.351951 0.205786
v -0.024857 1.576500 -0.084207
v -0.062168 2.416555 0.402398
v 0.659044 5.024379 0.552773
v 0.628571 4.619139 0.550336
v 0.551860 6.432173 1.549355
v 0.623175 6.439487 1.512748
v 0.620953 6.094515 1.268675
v 0.561530 6.823935 1.612341
v 0.632845 6.831248 1.575733
v 1.007808 6.909060 1.231671
v 0.998138 6.517298 1.168685
v 0.649963 7.269798 1.457632
v 0.832753 7.307730 1.289905
v 0.661299 7.486561 1.313081
v 1.040123 6.533495 1.101331
v 1.049793 6.925257 1.164317
v 1.178089 7.004508 0.843902
v 1.168419 6.612747 0.780916
v 1.071076 7.332204 0.892938
v 1.087187 7.433421 0.501203
v 1.194200 7.105725 0.452167
v 1.033590 7.402036 0.902922
v 1.049702 7.503253 0.511187
v 0.681881 7.768877 0.950463
v 0.697993 7.870093 0.558728
v 0.613094 7.809890 0.954843
v 0.629206 7.911106 0.563108
v 0.881089 7.611380 0.114701
v 1.056144 7.212708 0.056467
v 1.092505 7.193580 0.125836
v 1.082835 6.801818 0.062850
v 1.046474 6.820947 -0.006519
v 0.700575 6.925725 -0.369123
v 0.710245 7.317486 -0.306138
v 0.642089 7.330017 -0.346333
v 0.632419 6.938255 -0.409318
v 1.184530 6.713964 0.389181
v 1.061552 6.394871 0.334229
v 1.045440 6.293654 0.725964
v 1.020692 6.327970 0.322230
v 1.004580 6.226753 0.713965
v 0.803743 6.132447 1.100948
v 0.623785 5.966762 1.068734
v 0.709635 7.790210 0.137877
v 0.712467 7.662457 -0.062065
v 1.300940 3.557429 1.271590
v 1.502070 3.112814 1.185028
v 1.840879 3.418798 0.628186
v 1.122460 3.650213 0.282781
v 1.246947 3.962999 0.327424
v 1.625559 4.004813 -0.078318
v 0.998936 4.516601 -0.425709
v 0.798467 4.227416 -0.316090
v -0.436310 1.926115 -0.277159
v -0.699229 1.915110 -0.037295
v 0.579349 4.286431 0.412111
v 0.215155 4.100899 -0.471712
v 0.751102 1.546396 -0.081639
v 0.477138 1.525688 -0.346835
v 0.076267 1.544231 -0.158421
v 0.712573 0.611159 -0.183563
v 0.394754 0.699122 -0.324656
v 0.096122 0.618423 -0.167244
v -0.063456 0.663834 -0.062409
v -0.260179 0.778454 -0.196640
v -0.666084 0.660923 -0.117409
vn 0.9581 -0.2790 0.0649
vn 0.3523 -0.9223 -0.1587
vn 0.3334 -0.9361 0.1120
vn 0.8990 -0.1675 0.4047
vn -0.6166 -0.7713 -0.1577
vn -0.6097 -0.7778 0.1524
vn -0.9989 -0.0425 -0.0190
vn -0.9584 -0.1016 0.2667
vn -0.5619 0.8067 0.1830
vn -0.5264 0.7335 0.4299
vn 0.2893 0.9259 0.2429
vn 0.5706 0.7744 0.2733
vn 0.5112 0.6545 0.5571
vn 0.7823 0.5959 0.1813
vn 0.7838 0.6012 0.1554
vn 0.2965 0.9320 0.2084
vn 0.7754 0.6281 0.0644
vn 0.2817 0.9575 0.0626
vn 0.9614 0.2750 -0.0037
vn 0.9843 0.1621 0.0691
vn 0.6159 0.7794 -0.1151
vn 0.9735 0.1824 -0.1382
vn -0.5418 0.8399 -0.0299
vn -0.3480 0.1462 -0.9260
vn -0.6123 -0.7334 -0.2953
vn -0.9863 -0.0004 -0.1649
vn -0.5953 -0.7484 -0.2924
vn -0.4127 -0.6138 -0.6730
vn 0.3588 -0.8843 -0.2989
vn 0.2789 -0.6127 -0.7395
vn -0.6144 -0.7669 -0.1856
vn 0.3535 -0.9173 -0.1832
vn 0.9656 -0.2259 -0.1289
vn 0.9449 -0.3252 -0.0361
vn -0.6236 -0.4120 -0.6644
vn -0.0712 0.1449 -0.9869
vn 0.8179 -0.0990 -0.5668
vn 0.8011 0.1630 -0.5758
vn 0.4389 0.5056 -0.7428
vn 0.9650 -0.2113 0.1552
vn 0.9317 0.1110 0.3459
vn 0.8347 0.5069 -0.2154
vn 0.8526 0.2597 0.4535
vn 0.7935 0.5951 -0.1271
vn 0.7194 0.4200 0.5532
vn 0.6839 0.7288 -0.0332
vn 0.3248 0.7180 -0.6156
vn 0.3981 0.6380 -0.6591
vn 0.6216 -0.1654 0.7657
vn 0.5078 0.0217 0.8612
vn 0.1153 -0.4386 0.8913
vn 0.0555 -0.6133 0.7879
vn -0.7802 -0.5620 0.2747
vn -0.6986 -0.6680 0.2562
vn 0.3385 -0.8840 0.3225
vn -0.3559 -0.9319 0.0704
vn 0.5834 0.4450 0.6794
vn 0.6596 0.7322 -0.1699
vn 0.8022 -0.0450 0.5953
vn 0.8656 0.1708 -0.4708
vn 0.6630 -0.7297 0.1673
vn 0.6694 -0.5816 -0.4623
vn 0.5675 -0.8234 0.0055
vn 0.5725 -0.7360 -0.3613
vn 0.1779 -0.6597 -0.7302
vn 0.2713 -0.5503 -0.7897
vn 0.4770 -0.6140 -0.6288
vn 0.4936 -0.3781 -0.7832
vn 0.1850 -0.4210 -0.8880
vn 0.6971 -0.4215 -0.5799
vn -0.1868 -0.6483 -0.7382
vn -0.1675 -0.4117 -0.8958
vn -0.1662 -0.2408 -0.9562
vn 0.2003 -0.2506 -0.9471
vn 0.1869 -0.0072 -0.9823
vn -0.1353 0.0026 -0.9908
vn 0.2015 0.3172 -0.9267
vn -0.1288 0.3269 -0.9362
vn -0.1709 0.5773 -0.7985
vn 0.2342 0.5593 -0.7952
vn 0.2266 0.7269 -0.6482
vn -0.1518 0.7299 -0.6665
vn -0.1446 0.9136 -0.3801
vn 0.2377 0.8962 -0.3747
vn 0.2511 0.9505 -0.1832
vn -0.1537 0.9724 -0.1758
vn -0.1283 0.9885 0.0796
vn 0.1964 0.9764 0.0901
vn -0.1353 0.9116 0.3882
vn 0.1816 0.8994 0.3976
vn 0.2104 0.7607 0.6141
vn -0.1663 0.7837 0.5985
vn -0.1636 0.6579 0.7351
vn 0.1856 0.6506 0.7364
vn 0.1686 0.4092 0.8967
vn -0.1850 0.4210 0.8880
vn -0.2003 0.2506 0.9471
vn 0.1683 0.2385 0.9564
vn 0.1353 -0.0026 0.9908
vn -0.1869 0.0072 0.9823
vn -0.2015 -0.3172 0.9267
vn 0.1288 -0.3269 0.9362
vn -0.2342 -0.5593 0.7952
vn 0.1503 -0.5707 0.8073
vn 0.1384 -0.7382 0.6603
vn -0.2266 -0.7269 0.6482
vn -0.2295 -0.8991 0.3728
vn 0.1494 -0.9082 0.3911
vn 0.2411 -0.8224 0.5153
vn -0.3283 -0.8213 0.4666
vn -0.3686 -0.2399 0.8981
vn 0.2539 -0.2506 0.9342
vn -0.2752 -0.0346 0.9608
vn 0.1409 -0.0172 0.9899
vn -0.3056 -0.2740 0.9119
vn 0.1082 -0.2355 0.9658
vn -0.3825 -0.2482 0.8900
vn 0.1206 -0.2715 0.9549
vn -0.3386 -0.0099 0.9409
vn 0.1542 -0.0916 0.9838
vn -0.2391 0.0621 0.9690
vn 0.1835 0.0139 0.9829
vn -0.1236 0.0069 0.9923
vn 0.2125 -0.0680 0.9748
vn 0.0913 -0.0912 0.9916
vn 0.2329 -0.1463 0.9614
vn 0.5162 -0.0916 0.8516
vn 0.4210 -0.0608 0.9050
vn 0.2004 -0.1418 0.9694
vn 0.1933 -0.0033 0.9811
vn 0.1393 -0.1446 0.9796
vn -0.0240 0.0168 0.9996
vn -0.8669 -0.0224 0.4980
vn -0.0926 0.0425 0.9948
vn -0.8923 -0.0339 0.4501
vn -0.1309 0.0205 0.9912
vn -0.8809 -0.0436 0.4714
vn -0.0900 -0.2093 0.9737
vn -0.8306 -0.1242 0.5429
vn 0.0099 -0.4512 0.8924
vn -0.7730 -0.2168 0.5962
vn 0.0488 -0.5731 0.8180
vn -0.8044 -0.4544 0.3827
vn 0.0249 -0.9823 0.1858
vn 0.0628 -0.9927 -0.1029
vn -0.6771 -0.3672 -0.6377
vn -0.8957 0.0782 -0.4378
vn -0.0222 -0.6229 -0.7820
vn -0.0162 -0.0593 -0.9981
vn 0.5677 -0.4124 -0.7125
vn -0.0204 0.3532 -0.9353
vn 0.8456 -0.0696 -0.5293
vn 0.7742 -0.5277 0.3496
vn 0.7432 -0.4182 0.5224
vn -0.8951 0.1006 -0.4343
vn -0.8389 -0.0954 -0.5358
vn 0.1281 0.1142 -0.9852
vn 0.1408 -0.0679 -0.9877
vn 0.9536 -0.0838 -0.2893
vn 0.9584 0.0346 -0.2834
vn 0.7377 -0.2324 0.6339
vn 0.7330 0.0672 0.6769
vn 0.7487 0.1181 0.6524
vn -0.2702 -0.2884 0.9186
vn 0.6181 -0.0933 0.7806
vn 0.9209 -0.0369 0.3880
vn 0.8803 -0.4090 0.2404
vn -0.4072 -0.2238 -0.8855
vn 0.9291 -0.1661 -0.3304
vn 0.8776 -0.0383 -0.4779
vn 0.8712 -0.2094 -0.4440
vn 0.7990 -0.1710 0.5766
vn 0.7806 -0.0675 0.6214
vn 0.6865 -0.1845 0.7033
vn 0.9672 0.1402 -0.2120
vn -0.0424 0.4234 -0.9049
vn -0.0520 -0.1693 -0.9842
vn -0.9161 -0.1348 -0.3775
vn -0.9585 0.1858 -0.2164
vn -0.1196 -0.0756 -0.9899
vn -0.9437 -0.0812 -0.3206
vn -0.7280 -0.0822 0.6806
vn -0.7978 -0.0613 0.5999
vn 0.0447 -0.0847 0.9954
vn -0.0097 -0.0212 0.9997
vn -0.8102 0.0010 0.5862
vn -0.0484 0.0020 0.9988
vn -0.8244 -0.0091 0.5659
vn -0.1605 -0.0419 0.9862
vn -0.8582 0.0767 0.5075
vn -0.3425 0.0263 0.9391
vn -0.8802 0.1152 0.4605
vn -0.5130 0.0804 0.8546
vn -0.9044 0.0723 0.4205
vn -0.6136 0.0904 0.7845
vn -0.9087 0.0787 0.4099
vn -0.6695 0.0840 0.7381
vn -0.9448 -0.0096 0.3276
vn -0.8172 -0.1340 0.5606
vn -0.7702 -0.2681 0.5788
vn -0.8263 -0.0071 0.5632
vn -0.7457 0.3254 0.5814
vn -0.9955 -0.0269 -0.0908
vn -0.7688 0.0719 -0.6354
vn -0.8651 0.1589 -0.4757
vn -0.2409 0.1936 -0.9511
vn -0.2163 0.3485 -0.9120
vn -0.8917 0.2640 -0.3676
vn -0.2258 0.4775 -0.8491
vn -0.7262 0.6182 -0.3008
vn -0.3323 0.1215 -0.9353
vn -0.8388 0.1439 -0.5251
vn -0.2786 -0.5439 -0.7915
vn -0.6555 -0.5757 -0.4888
vn -0.5921 -0.7026 -0.3947
vn -0.4836 -0.5809 -0.6547
vn -0.6372 -0.7693 -0.0458
vn -0.7053 -0.7036 0.0866
vn -0.7966 -0.4987 -0.3417
vn -0.8148 -0.5797 0.0001
vn -0.9121 -0.4069 0.0495
vn -0.8911 -0.3301 -0.3114
vn -0.6901 -0.3756 -0.6186
vn -0.7722 -0.0653 -0.6320
vn -0.8683 -0.1067 -0.4844
vn -0.7823 0.2982 -0.5469
vn -0.8821 0.2771 -0.3810
vn -0.8797 0.4628 -0.1089
vn -0.6930 0.6028 -0.3954
vn -0.7731 0.6321 -0.0525
vn -0.5522 0.8337 -0.0047
vn -0.4725 0.8147 -0.3360
vn -0.4723 0.6368 -0.6095
vn -0.5480 0.7584 0.3530
vn -0.7812 0.5517 0.2922
vn -0.4795 0.6115 0.6294
vn -0.6984 0.4216 0.5783
vn -0.8864 0.3864 0.2549
vn -0.8033 0.1137 0.5846
vn -0.8885 0.1614 0.4296
vn -0.9203 -0.2225 0.3218
vn -0.8320 -0.2498 0.4954
vn -0.6151 -0.2943 0.7315
vn -0.5942 0.0745 0.8009
vn -0.5522 -0.6073 0.5712
vn -0.7541 -0.5572 0.3477
vn -0.4362 0.0697 0.8972
vn -0.4460 -0.3229 0.8347
vn -0.9840 -0.1558 0.0864
vn -0.9726 0.1621 0.1668
vn -0.9678 -0.1025 -0.2300
vn -0.9649 0.2152 -0.1507
vn -0.4936 0.3781 0.7832
vn -0.3888 0.9213 0.0042
vn -0.3743 0.8432 0.3859
vn -0.5538 0.3351 -0.7623
vn -0.5608 -0.0269 -0.8275
vn -0.3836 -0.0252 -0.9232
vn -0.3925 0.3652 -0.8441
vn -0.4760 -0.3473 -0.8080
vn -0.5481 -0.7788 0.3051
vn -0.8598 -0.0416 0.5090
vn 0.3356 0.1142 -0.9351
vn -0.9524 0.2430 0.1842
vn 0.2257 0.4556 -0.8611
vn 0.2166 0.3083 -0.9263
vn 0.1224 0.3948 -0.9106
vn 0.3533 0.6355 -0.6866
vn 0.2288 0.1975 -0.9532
vn 0.5310 0.0062 -0.8473
vn 0.0591 -0.5640 -0.8236
vn -0.4894 -0.3903 -0.7798
vn -0.1905 0.4096 -0.8921
vn 0.1414 -0.2641 -0.9541
vn 0.9304 -0.0568 0.3622
vn 0.9587 0.0132 -0.2840
vn 0.9107 -0.0518 0.4098
vn 0.9643 -0.0569 -0.2586
vn 0.8913 -0.1088 0.4401
vn 0.9603 -0.1129 -0.2549
vn 0.8611 0.0033 0.5084
vn 0.9624 0.0146 -0.2713
vn 0.8283 0.0930 0.5524
vn 0.9592 0.0926 -0.2673
vn 0.7795 0.0847 0.6207
vn 0.9603 0.0717 -0.2697
vn 0.2191 -0.0346 -0.9751
vn 0.3787 -0.0005 -0.9255
vn -0.2655 -0.1994 -0.9433
vn -0.0823 -0.1485 -0.9855
vn 0.5694 -0.0345 -0.8214
vn 0.1121 -0.1341 -0.9846
vn 0.6371 -0.1064 -0.7634
vn 0.1813 -0.1082 -0.9775
vn 0.6625 -0.0402 -0.7480
vn 0.2043 -0.0250 -0.9786
vn -0.2704 -0.0561 -0.9611
vn -0.3258 -0.0313 -0.9449
vn -0.6546 0.0257 -0.7555
vn -0.7213 -0.0297 -0.6920
vn -0.3075 0.0502 -0.9502
vn -0.6994 0.0163 -0.7145
vn -0.9742 0.0205 -0.2247
vn -0.9740 0.0114 -0.2264
vn -0.5168 -0.0399 -0.8552
vn -0.1443 -0.1308 -0.9809
vn -0.3686 -0.1201 -0.9218
vn -0.0353 -0.1982 -0.9795
vn -0.9658 0.0423 -0.2557
vn -0.9592 -0.0498 -0.2785
vn -0.9631 0.0906 -0.2534
vn 0.0427 -0.1688 -0.9847
vn 0.6640 0.0667 -0.7448
vn 0.5532 -0.0262 0.8326
vn 0.5748 -0.1004 0.8121
vn 0.7561 0.0635 0.6513
vn 0.1017 -0.2212 0.9699
vn -0.6412 -0.1502 0.7525
vn 0.1039 -0.5322 0.8402
vn -0.7591 -0.3350 0.5582
vn 0.1219 -0.7330 0.6693
vn -0.6856 -0.6864 0.2427
vn 0.2564 -0.9635 0.0775
vn -0.6824 -0.0456 -0.7296
vn -0.9112 -0.3873 0.1406
vn 0.3385 -0.9101 -0.2389
vn -0.4256 -0.3018 -0.8531
vn 0.3166 -0.4010 -0.8596
vn 0.3384 0.1946 -0.9207
vn 0.8263 -0.1647 -0.5386
vn 0.2768 0.6078 -0.7443
vn -0.5014 0.5498 -0.6680
vn 0.9629 0.1202 -0.2415
vn 0.8070 -0.4594 0.3710
vn -0.9119 0.1977 -0.3596
vn -0.8164 0.4141 -0.4026
vn 0.7442 -0.2740 0.6091
vn 0.4326 -0.0745 -0.8985
vn 0.3666 -0.1434 0.9192
vn 0.3589 0.1574 0.9200
vn 0.2683 -0.2296 0.9356
vn 0.3763 -0.3468 0.8591
vn 0.5506 -0.3289 0.7672
vn 0.4753 -0.6387 0.6052
vn 0.3909 0.0444 0.9194
vn 0.5519 0.0391 0.8330
vn 0.7764 0.0594 0.6275
vn 0.7780 -0.3060 0.5487
vn 0.4752 0.3461 0.8090
vn 0.6886 0.3763 0.6198
vn 0.4836 0.5810 0.6546
vn 0.8707 -0.2981 0.3912
vn 0.8801 0.0910 0.4659
vn 0.9678 0.1025 0.2300
vn 0.9649 -0.2152 0.1507
vn 0.8874 0.3410 0.3102
vn 0.9156 0.3982 -0.0550
vn 0.9840 0.1558 -0.0864
vn 0.7883 0.5140 0.3382
vn 0.8245 0.5657 -0.0111
vn 0.5816 0.7124 0.3926
vn 0.6018 0.7977 0.0403
vn 0.4257 0.7995 0.4237
vn 0.4343 0.8993 0.0514
vn 0.7552 0.5564 -0.3465
vn 0.8282 0.2580 -0.4975
vn 0.9110 0.2439 -0.3326
vn 0.9004 -0.1461 -0.4099
vn 0.8077 -0.1080 -0.5797
vn 0.5942 -0.0745 -0.8009
vn 0.6151 0.2943 -0.7315
vn 0.4460 0.3229 -0.8347
vn 0.4362 -0.0697 -0.8972
vn 0.9726 -0.1621 -0.1668
vn 0.8818 -0.3973 -0.2539
vn 0.8835 -0.4542 0.1147
vn 0.7724 -0.5652 -0.2896
vn 0.7842 -0.6171 0.0648
vn 0.6946 -0.6010 0.3954
vn 0.4743 -0.8119 0.3403
vn 0.5465 0.7812 -0.3016
vn 0.5522 0.6073 -0.5712
vn -0.2849 0.1299 0.9497
vn 0.0603 -0.5801 0.8123
vn 0.9595 0.0781 0.2708
vn -0.9984 -0.0364 -0.0436
vn -0.5670 0.8096 0.1517
vn 0.7237 -0.4580 0.5161
vn -0.2739 0.3712 -0.8872
vn -0.8345 -0.1658 -0.5255
vn -0.2123 -0.0770 -0.9742
vn -0.9495 -0.0271 -0.3127
vn 0.3633 -0.3949 0.8438
vn 0.2221 0.0991 -0.9700
vn 0.9542 0.0808 -0.2880
vn 0.1529 -0.0234 -0.9880
vn -0.8396 -0.0343 -0.5422
vn 0.8859 -0.0132 -0.4637
vn -0.0607 0.4345 -0.8986
vn -0.8924 0.2855 -0.3494
vn 0.9469 0.3216 -0.0005
vn 0.2433 0.7983 -0.5509
vn -0.8360 0.4534 -0.3090
s 1
f 4//4 3//3 2//2 1//1
f 2//2 3//3 6//6 5//5
f 5//5 6//6 8//8 7//7
f 8//8 10//10 9//9 7//7
f 13//13 12//12 11//11 9//9
f 10//10 13//13 9//9
f 11//11 12//12 14//14
f 16//16 11//11 14//14 15//15
f 18//18 16//16 15//15 17//17
f 15//15 20//20 19//19 17//17
f 21//21 18//18 17//17
f 23//23 18//18 21//21 22//22
f 24//24 23//23 22//22
f 26//26 23//23 24//24 25//25
f 28//28 27//27 26//26 25//25
f 30//30 29//29 27//27 28//28
f 29//29 32//32 31//31 27//27
f 34//34 32//32 29//29 33//33
f 36//36 30//30 28//28 35//35
f 38//38 37//37 30//30 36//36
f 39//39 38//38 36//36
f 37//37 38//38 40//40 22//22
f 40//40 38//38 42//42 41//41
f 41//41 42//42 44//44 43//43
f 43//43 44//44 46//46 45//45
f 44//44 48//48 47//47 46//46
f 50//50 49//49 43//43 45//45
f 52//52 49//49 50//50 51//51
f 54//54 52//52 51//51 53//53
f 56//56 55//55 52//52 54//54
f 45//45 46//46 58//58 57//57
f 58//58 60//60 59//59 57//57
f 60//60 62//62 61//61 59//59
f 61//61 62//62 64//64 63//63
f 64//64 62//62 66//66 65//65
f 67//67 64//64 65//65
f 69//69 68//68 67//67 65//65
f 68//68 70//70 67//67
f 72//72 69//69 65//65 71//71
f 74//74 69//69 72//72 73//73
f 76//76 75//75 74//74 73//73
f 78//78 77//77 75//75 76//76
f 80//80 77//77 78//78 79//79
f 82//82 81//81 80//80 79//79
f 84//84 81//81 82//82 83//83
f 86//86 85//85 84//84 83//83
f 88//88 85//85 86//86 87//87
f 90//90 88//88 87//87 89//89
f 92//92 91//91 90//90 89//89
f 94//94 91//91 92//92 93//93
f 96//96 95//95 94//94 93//93
f 98//98 95//95 96//96 97//97
f 100//100 99//99 98//98 97//97
f 102//102 99//99 100//100 101//101
f 104//104 102//102 101//101 103//103
f 106//106 105//105 104//104 103//103
f 108//108 105//105 106//106 107//107
f 110//110 109//109 108//108 107//107
f 112//112 109//109 110//110 111//111
f 114//114 112//112 111//111 113//113
f 116//116 114//114 113//113 115//115
f 118//118 116//116 115//115 117//117
f 120//120 118//118 117//117 119//119
f 122//122 120//120 119//119 121//121
f 124//124 122//122 121//121 123//123
f 126//126 124//124 123//123 125//125
f 128//128 127//127 124//124 126//126
f 130//130 128//128 126//126 129//129
f 132//132 130//130 129//129 131//131
f 133//133 132//132 131//131
f 132//132 133//133 135//135 134//134
f 134//134 135//135 137//137 136//136
f 136//136 137//137 139//139 138//138
f 138//138 139//139 141//141 140//140
f 140//140 141//141 143//143 142//142
f 142//142 143//143 144//144
f 147//147 146//146 145//145 144//144
f 143//143 147//147 144//144
f 145//145 146//146 148//148
f 146//146 149//149 148//148
f 150//150 145//145 148//148
f 146//146 147//147 151//151 149//149
f 151//151 152//152 150//150 149//149
f 150//150 152//152 153//153 144//144
f 145//145 150//150 144//144
f 153//153 154//154 140//140 142//142
f 137//137 156//156 155//155 139//139
f 155//155 156//156 158//158 157//157
f 158//158 160//160 159//159 157//157
f 159//159 160//160 162//162 161//161
f 162//162 163//163 134//134 136//136
f 164//164 133//133 131//131
f 166//166 164//164 131//131 165//165
f 168//168 164//164 166//166 167//167
f 169//169 168//168 167//167
f 169//169 167//167 170//170
f 173//173 172//172 171//171 170//170
f 167//167 173//173 170//170
f 175//175 171//171 172//172 174//174
f 177//177 171//171 175//175 176//176
f 179//179 178//178 177//177 176//176
f 178//178 181//181 180//180 177//177
f 183//183 181//181 178//178 182//182
f 185//185 183//183 182//182 184//184
f 187//187 186//186 183//183 185//185
f 189//189 188//188 186//186 187//187
f 191//191 190//190 188//188 189//189
f 193//193 192//192 190//190 191//191
f 195//195 194//194 192//192 193//193
f 197//197 196//196 194//194 195//195
f 199//199 198//198 196//196 197//197
f 205//205 207//207 206//206 204//204
f 209//209 207//207 205//205 208//208
f 210//210 209//209 208//208
f 210//210 212//212 211//211 209//209
f 212//212 214//214 213//213 211//211
f 71//71 213//213 214//214 215//215
f 216//216 71//71 215//215
f 215//215 214//214 218//218 217//217
f 220//220 219//219 215//215 217//217
f 222//222 219//219 220//220 221//221
f 224//224 223//223 219//219 222//222
f 225//225 224//224 222//222
f 227//227 226//226 224//224 225//225
f 229//229 226//226 227//227 228//228
f 230//230 229//229 228//228
f 232//232 229//229 230//230 231//231
f 233//233 229//229 232//232
f 231//231 230//230 235//235 234//234
f 234//234 235//235 237//237 236//236
f 239//239 237//237 235//235 238//238
f 240//240 239//239 238//238
f 242//242 239//239 240//240 241//241
f 244//244 239//239 242//242 243//243
f 243//243 242//242 246//246 245//245
f 248//248 247//247 244//244 243//243
f 240//240 250//250 249//249 241//241
f 241//241 249//249 221//221
f 250//250 252//252 251//251 249//249
f 228//228 252//252 250//250 238//238
f 250//250 240//240 238//238
f 237//237 253//253 236//236
f 255//255 254//254 231//231 234//234
f 226//226 229//229 233//233 256//256
f 235//235 230//230 228//228 238//238
f 224//224 226//226 256//256 257//257
f 256//256 259//259 258//258 257//257
f 251//251 252//252 227//227 225//225
f 223//223 224//224 257//257 260//260
f 223//223 260//260 216//216
f 251//251 225//225 222//222
f 246//246 242//242 241//241 221//221
f 220//220 246//246 221//221
f 249//249 251//251 222//222 221//221
f 246//246 220//220 217//217 261//261
f 218//218 214//214 212//212 262//262
f 213//213 66//66 263//263 211//211
f 212//212 210//210 264//264 202//202
f 262//262 212//212 202//202
f 211//211 263//263 265//265 209//209
f 209//209 265//265 266//266 207//207
f 265//265 268//268 267//267 266//266
f 266//266 267//267 270//270 269//269
f 273//273 272//272 271//271 270//270
f 267//267 273//273 270//270
f 274//274 271//271 272//272 53//53
f 276//276 271//271 274//274 275//275
f 278//278 276//276 275//275 277//277
f 280//280 278//278 277//277 279//279
f 282//282 280//280 279//279 281//281
f 284//284 282//282 281//281 283//283
f 286//286 284//284 283//283 285//285
f 288//288 284//284 286//286 287//287
f 290//290 288//288 287//287 289//289
f 292//292 291//291 288//288 290//290
f 294//294 293//293 291//291 292//292
f 296//296 295//295 293//293 294//294
f 298//298 296//296 294//294 297//297
f 300//300 298//298 297//297 299//299
f 302//302 301//301 298//298 300//300
f 304//304 303//303 302//302 300//300
f 299//299 297//297 306//306 305//305
f 305//305 306//306 308//308 307//307
f 310//310 309//309 305//305 307//307
f 311//311 304//304 300//300 299//299
f 297//297 294//294 292//292 306//306
f 306//306 292//292 290//290 308//308
f 308//308 290//290 289//289 312//312
f 291//291 282//282 284//284 288//288
f 293//293 280//280 282//282 291//291
f 313//313 276//276 278//278 295//295
f 277//277 275//275 315//315 314//314
f 268//268 47//47 273//273 267//267
f 204//204 206//206 301//301 302//302
f 207//207 266//266 269//269 206//206
f 198//198 203//203 303//303 196//196
f 196//196 303//303 304//304 194//194
f 194//194 304//304 311//311 192//192
f 192//192 311//311 309//309 190//190
f 190//190 309//309 310//310 188//188
f 173//173 316//316 187//187 185//185
f 184//184 182//182 318//318 317//317
f 317//317 318//318 320//320 319//319
f 319//319 320//320 322//322 321//321
f 321//321 322//322 323//323
f 323//323 322//322 325//325 324//324
f 327//327 326//326 323//323 324//324
f 326//326 327//327 328//328
f 327//327 329//329 328//328
f 330//330 326//326 328//328
f 331//331 329//329 327//327 324//324
f 332//332 331//331 324//324
f 331//331 333//333 330//330 329//329
f 330//330 333//333 334//334 323//323
f 326//326 330//330 323//323
f 325//325 335//335 324//324
f 335//335 325//325 336//336
f 332//332 335//335 336//336
f 334//334 337//337 319//319 321//321
f 182//182 178//178 179//179 318//318
f 338//338 170//170 171//171 177//177
f 180//180 338//338 177//177
f 289//289 168//168 169//169 338//338
f 312//312 289//289 338//338
f 131//131 129//129 339//339 165//165
f 283//283 281//281 128//128 130//130
f 281//281 279//279 127//127 128//128
f 125//125 123//123 193//193 191//191
f 314//314 315//315 120//120 122//122
f 121//121 119//119 197//197 195//195
f 341//341 340//340 114//114 116//116
f 115//115 113//113 201//201 200//200
f 113//113 111//111 262//262 202//202
f 110//110 218//218 262//262 111//111
f 218//218 110//110 107//107 261//261
f 217//217 218//218 261//261
f 107//107 106//106 245//245 261//261
f 344//344 343//343 342//342 104//104
f 105//105 344//344 104//104
f 346//346 345//345 342//342 343//343
f 348//348 347//347 346//346 343//343
f 347//347 350//350 349//349 346//346
f 349//349 350//350 351//351
f 353//353 347//347 348//348 352//352
f 355//355 354//354 353//353 352//352
f 353//353 354//354 356//356
f 354//354 358//358 357//357 356//356
f 357//357 360//360 359//359 356//356
f 359//359 360//360 362//362 361//361
f 362//362 364//364 363//363 361//361
f 366//366 365//365 360//360 357//357
f 367//367 366//366 357//357
f 369//369 366//366 367//367 368//368
f 371//371 366//366 369//369 370//370
f 373//373 372//372 371//371 370//370
f 367//367 358//358 374//374 368//368
f 368//368 374//374 375//375
f 375//375 374//374 355//355 376//376
f 378//378 377//377 375//375 376//376
f 355//355 352//352 376//376
f 374//374 358//358 354//354 355//355
f 379//379 348//348 343//343 344//344
f 379//379 344//344 380//380
f 63//63 378//378 379//379 380//380
f 103//103 248//248 243//243 245//245
f 106//106 103//103 245//245
f 342//342 102//102 104//104
f 101//101 248//248 103//103
f 342//342 345//345 99//99 102//102
f 100//100 247//247 248//248 101//101
f 247//247 100//100 97//97
f 346//346 349//349 95//95 98//98
f 345//345 346//346 98//98
f 97//97 96//96 253//253 244//244
f 247//247 97//97 244//244
f 95//95 349//349 351//351 94//94
f 253//253 96//96 93//93 236//236
f 91//91 363//363 90//90
f 255//255 92//92 89//89
f 363//363 364//364 88//88 90//90
f 87//87 254//254 255//255 89//89
f 86//86 254//254 87//87
f 364//364 362//362 381//381 84//84
f 85//85 364//364 84//84
f 382//382 371//371 372//372 80//80
f 81//81 382//382 80//80
f 78//78 259//259 79//79
f 77//77 372//372 373//373 75//75
f 258//258 259//259 78//78 76//76
f 75//75 373//373 74//74
f 258//258 76//76 73//73
f 260//260 72//72 71//71 216//216
f 67//67 70//70 377//377 64//64
f 65//65 66//66 213//213 71//71
f 61//61 63//63 380//380 108//108
f 109//109 61//61 108//108
f 64//64 377//377 378//378 63//63
f 66//66 62//62 60//60 263//263
f 59//59 61//61 109//109 112//112
f 60//60 58//58 268//268 265//265
f 263//263 60//60 265//265
f 57//57 59//59 112//112 114//114
f 340//340 57//57 114//114
f 35//35 28//28 25//25 56//56
f 25//25 24//24 55//55 56//56
f 19//19 33//33 37//37 22//22
f 21//21 19//19 22//22
f 10//10 383//383 13//13
f 383//383 10//10 8//8
f 6//6 384//384 383//383 8//8
f 3//3 384//384 6//6
f 32//32 2//2 5//5 31//31
f 12//12 13//13 4//4 1//1
f 385//385 12//12 1//1
f 384//384 3//3 4//4
f 12//12 385//385 14//14
f 383//383 384//384 4//4 13//13
f 20//20 385//385 1//1 34//34
f 1//1 2//2 32//32 34//34
f 14//14 385//385 20//20 15//15
f 31//31 5//5 7//7 386//386
f 9//9 11//11 16//16 387//387
f 7//7 9//9 387//387 386//386
f 19//19 20//20 34//34 33//33
f 33//33 29//29 30//30 37//37
f 19//19 21//21 17//17
f 27//27 31//31 386//386 26//26
f 387//387 16//16 18//18 23//23
f 386//386 387//387 23//23 26//26
f 38//38 39//39 42//42
f 388//388 40//40 41//41
f 22//22 40//40 388//388 55//55
f 24//24 22//22 55//55
f 48//48 39//39 36//36 389//389
f 42//42 39//39 48//48 44//44
f 389//389 36//36 35//35 390//390
f 49//49 388//388 41//41 43//43
f 55//55 388//388 49//49 52//52
f 390//390 35//35 56//56 54//54
f 47//47 48//48 389//389 273//273
f 46//46 47//47 268//268 58//58
f 273//273 389//389 390//390 272//272
f 340//340 50//50 45//45 57//57
f 51//51 50//50 340//340 341//341
f 272//272 390//390 54//54 53//53
f 365//365 382//382 381//381
f 382//382 365//365 366//366 371//371
f 370//370 369//369 70//70 68//68
f 360//360 365//365 381//381 362//362
f 358//358 367//367 357//357
f 70//70 369//369 368//368 375//375
f 377//377 70//70 375//375
f 350//350 359//359 361//361 351//351
f 350//350 347//347 353//353 356//356
f 359//359 350//350 356//356
f 348//348 379//379 378//378 376//376
f 352//352 348//348 376//376
f 381//381 382//382 81//81 84//84
f 372//372 77//77 80//80
f 370//370 68//68 69//69 74//74
f 373//373 370//370 74//74
f 364//364 85//85 88//88
f 361//361 363//363 91//91 94//94
f 351//351 361//361 94//94
f 99//99 345//345 98//98
f 380//380 344//344 105//105 108//108
f 83//83 82//82 233//233 232//232
f 82//82 79//79 259//259 256//256
f 233//233 82//82 256//256
f 258//258 73//73 72//72 260//260
f 257//257 258//258 260//260
f 86//86 83//83 232//232 231//231
f 254//254 86//86 231//231
f 227//227 252//252 228//228
f 219//219 223//223 216//216 215//215
f 92//92 255//255 234//234 236//236
f 93//93 92//92 236//236
f 253//253 237//237 239//239 244//244
f 245//245 246//246 261//261
f 338//338 169//169 170//170
f 129//129 126//126 125//125 339//339
f 316//316 166//166 165//165
f 166//166 316//316 173//173 167//167
f 307//307 308//308 312//312 391//391
f 391//391 312//312 338//338 180//180
f 339//339 125//125 191//191 189//189
f 165//165 339//339 189//189 187//187
f 316//316 165//165 187//187
f 172//172 173//173 185//185 184//184
f 392//392 310//310 307//307 391//391
f 181//181 392//392 391//391 180//180
f 188//188 310//310 392//392 186//186
f 186//186 392//392 181//181 183//183
f 270//270 271//271 276//276 313//313
f 295//295 278//278 280//280 293//293
f 53//53 51//51 341//341 393//393
f 274//274 53//53 393//393
f 275//275 274//274 393//393 315//315
f 279//279 277//277 314//314 127//127
f 269//269 270//270 313//313 394//394
f 394//394 313//313 295//295 296//296
f 393//393 341//341 116//116 118//118
f 315//315 393//393 118//118 120//120
f 127//127 314//314 122//122 124//124
f 206//206 269//269 394//394 301//301
f 301//301 394//394 296//296 298//298
f 303//303 203//203 204//204 302//302
f 309//309 311//311 299//299 305//305
f 117//117 115//115 200//200 199//199
f 119//119 117//117 199//199 197//197
f 123//123 121//121 195//195 193//193
f 395//395 286//286 285//285 163//163
f 160//160 395//395 163//163 162//162
f 287//287 286//286 395//395 396//396
f 396//396 395//395 160//160 158//158
f 285//285 283//283 130//130 132//132
f 163//163 285//285 132//132 134//134
f 287//287 396//396 397//397 168//168
f 289//289 287//287 168//168
f 156//156 397//397 396//396 158//158
f 135//135 133//133 164//164 168//168
f 397//397 135//135 168//168
f 135//135 397//397 156//156 137//137
f 398//398 159//159 161//161 154//154
f 152//152 398//398 154//154 153//153
f 157//157 159//159 398//398 399//399
f 399//399 398//398 152//152 151//151
f 149//149 150//150 148//148
f 161//161 162//162 136//136 138//138
f 154//154 161//161 138//138 140//140
f 153//153 142//142 144//144
f 400//400 155//155 157//157 399//399
f 147//147 400//400 399//399 151//151
f 139//139 155//155 400//400 141//141
f 141//141 400//400 147//147 143//143
f 401//401 175//175 174//174 337//337
f 333//333 401//401 337//337 334//334
f 176//176 175//175 401//401 402//402
f 402//402 401//401 333//333 331//331
f 329//329 330//330 328//328
f 174//174 172//172 184//184 317//317
f 337//337 174//174 317//317 319//319
f 334//334 321//321 323//323
f 402//402 331//331 332//332 336//336
f 403//403 402//402 336//336
f 403//403 179//179 176//176 402//402
f 335//335 332//332 324//324
f 318//318 179//179 403//403 320//320
f 322//322 320//320 403//403 336//336
f 325//325 322//322 336//336
f 264//264 201//201 113//113 202//202
f 199//199 200//200 201//201 264//264 210//210 208//208 205//205 204//204 203//203 198//198
