# Blender 5.0.0
# www.blender.org
mtllib Walk_Forward0021.mtl
o Mball.010
v 1.675288 3.629565 -0.370106
v 1.420776 3.347864 -0.504297
v 1.477421 3.083592 -0.225154
v 1.721849 3.341783 -0.104227
v 1.161305 3.372888 -0.440172
v 1.243950 3.103127 -0.169374
v 0.960858 3.702507 -0.190941
v 1.041655 3.431823 0.079605
v 1.095212 3.959422 -0.050463
v 1.166812 3.667058 0.207833
v 1.487136 3.993581 -0.101013
v 1.562171 3.697862 0.145472
v 1.562297 3.691825 0.150578
v 1.515610 3.979543 -0.115317
v 1.451196 4.258409 -0.383630
v 1.422721 4.272447 -0.369326
v 1.386472 4.537120 -0.651985
v 1.358530 4.550894 -0.637949
v 1.547019 4.196825 -0.900702
v 1.611690 3.917477 -0.632747
v 1.358764 4.613873 -0.771038
v 1.288688 4.731541 -0.949472
v 0.966510 4.516916 -0.587264
v 0.969711 4.671073 -0.916235
v 0.857430 4.524928 -1.000785
v 0.832316 4.260382 -0.727527
v 1.032794 3.930778 -0.976753
v 1.010650 4.280258 -1.235173
v 1.291812 3.905849 -1.040734
v 1.171236 4.293090 -1.268419
v 1.096891 3.651753 -0.708484
v 1.356362 3.626729 -0.772610
v 1.546146 4.187139 -0.906774
v 1.610874 3.908430 -0.638418
v 0.666515 4.592539 -0.994094
v 0.821018 4.902786 -1.021717
v 1.386514 4.506729 -1.182723
v 1.283577 4.857369 -1.087124
v 1.164490 5.027712 -0.929882
v 1.375763 4.692102 -0.950824
v 1.420084 4.670956 -0.769039
v 1.244823 5.001598 -0.898878
v 1.336962 4.706842 -0.372524
v 1.118790 5.121184 -0.497088
v 1.211313 4.858833 0.017584
v 1.014236 5.232761 -0.145772
v 0.928369 5.262093 -0.186700
v 1.029578 5.160884 -0.526477
v 1.327538 4.594635 -0.357425
v 1.204363 4.738142 0.039402
v 1.002184 4.383257 0.022559
v 1.088517 4.256313 -0.366126
v 0.718532 4.360051 -0.055265
v 0.751724 4.287670 -0.454085
v 1.141686 4.293830 -0.756018
v 0.827701 4.286378 -0.854935
v 0.721103 5.152045 0.402884
v 0.629554 5.318228 0.051619
v 0.500333 5.500971 0.496551
v 0.418620 5.576089 0.108111
v 0.627734 5.905973 0.513155
v 0.546091 5.969256 0.122774
v 0.679813 5.943892 0.507205
v 0.598179 6.005859 0.116719
v 0.123021 6.060842 -0.212107
v 0.137104 6.011331 -0.147985
v 0.517017 6.252850 -0.257029
v 0.481573 6.454227 -0.411978
v 0.050315 6.473934 -0.529957
v 0.690498 6.431152 -0.267750
v -0.270504 6.052375 -0.149527
v -0.343211 6.465467 -0.467377
v -0.351035 6.540730 -0.499001
v 0.042490 6.549197 -0.561581
v 0.019841 6.894489 -0.642451
v -0.373685 6.886023 -0.579871
v 0.020858 7.291532 -0.604253
v -0.372667 7.283065 -0.541673
v -0.348337 7.593280 -0.397738
v 0.045188 7.601747 -0.460318
v 0.053368 7.665060 -0.415363
v -0.340158 7.656593 -0.352783
v -0.265615 7.959742 0.033975
v 0.127911 7.968208 -0.028605
v 0.142255 7.996495 0.043302
v -0.251270 7.988028 0.105883
v -0.183596 8.051975 0.439306
v 0.209930 8.060442 0.376726
v -0.101969 7.991028 0.829900
v 0.291556 7.999496 0.767320
v 0.358645 7.834927 1.078758
v -0.034880 7.826459 1.141339
v -0.020735 7.776902 1.205757
v 0.372790 7.785369 1.143177
v 0.445497 7.372276 1.461027
v 0.051971 7.363809 1.523607
v 0.059796 7.288548 1.555231
v 0.453321 7.297014 1.492651
v 0.475971 6.951721 1.573521
v 0.082445 6.943254 1.636101
v 0.081428 6.546212 1.597903
v 0.474953 6.554679 1.535323
v 0.057097 6.235997 1.453968
v 0.450623 6.244464 1.391388
v 0.442444 6.181150 1.346432
v 0.048918 6.172684 1.409013
v -0.025625 5.869535 1.022255
v 0.367901 5.878002 0.959675
v 0.353618 5.849670 0.888064
v -0.039935 5.841114 0.950489
v -0.085768 5.469187 0.696116
v 0.311036 5.476188 0.652149
v -0.067234 4.991023 0.727444
v 0.332240 4.992225 0.685223
v -0.054711 4.618357 0.640120
v 0.330728 4.575061 0.632111
v -0.089641 4.285307 0.512123
v 0.286700 4.206585 0.532268
v -0.162262 4.074959 0.459672
v 0.165220 3.848653 0.466347
v -0.137323 3.755472 0.533119
v 0.107330 3.482094 0.403965
v -0.091726 3.392717 0.609791
v 0.069339 3.109150 0.334225
v -0.039981 3.013812 0.650851
v 0.034123 2.748000 0.173786
v 0.437255 3.022031 0.140394
v 0.383152 2.655131 -0.006324
v 0.003794 2.402589 -0.018356
v 0.312066 2.261560 -0.052300
v -0.020727 2.144672 -0.174164
v 0.241223 1.904343 -0.134233
v -0.028577 2.031813 -0.232679
v 0.231926 1.519197 -0.208083
v -0.048724 1.595838 -0.416102
v 0.226743 1.132158 -0.287440
v -0.007506 1.200961 -0.486033
v 0.228697 0.736945 -0.380501
v -0.003805 0.801349 -0.556802
v 0.305908 0.466208 -0.750776
v 0.043269 0.526690 -0.780910
v 0.326793 0.287807 -1.031938
v 0.047855 0.350368 -1.073946
v 0.335245 0.226882 -1.313944
v 0.332010 0.261595 -1.376052
v 0.174101 0.634272 -1.537281
v -0.039469 0.771067 -1.254131
v 0.293228 0.639688 -1.552027
v 0.289095 0.678486 -1.548494
v 0.368502 0.659897 -1.536217
v 0.258185 0.983315 -1.328861
v 0.560334 0.856806 -1.250798
v 0.520126 0.412620 -1.071362
v 0.530676 0.589279 -0.778763
v 0.024200 0.981028 -0.900595
v 0.031466 1.329620 -0.858109
v 0.372467 1.099649 -1.020844
v 0.421194 1.388613 -0.992264
v 0.673922 1.052917 -0.757153
v 0.701644 1.285262 -0.705288
v 0.579655 0.778449 -0.476431
v 0.569003 1.142179 -0.360129
v 0.535829 1.542959 -0.297769
v -0.019873 2.058460 -0.223198
v 0.075687 2.232306 0.662750
v 0.080070 2.202962 0.663642
v 0.172289 1.805098 0.784765
v 0.071952 1.929875 -0.521109
v 0.123505 1.684740 0.379446
v 0.160529 1.596723 0.471448
v 0.172595 1.285024 0.613934
v 0.114031 1.443097 0.995702
v 0.145444 1.831059 0.887198
v -0.017646 1.035357 1.113865
v 0.089684 0.927034 0.742237
v -0.102998 0.867822 0.632863
v -0.166118 1.149944 0.453237
v -0.442874 1.186715 0.655486
v -0.417058 0.853231 0.766646
v -0.225177 1.503207 0.312019
v -0.526989 1.555110 0.555906
v -0.360853 1.367244 1.027763
v -0.459913 1.733418 0.928284
v -0.146590 1.442296 1.105428
v -0.201985 1.836222 1.049878
v -0.489698 2.111482 0.826265
v -0.256130 2.211674 0.947664
v -0.521924 2.488321 0.723160
v -0.308508 2.591835 0.842619
v -0.565694 2.858905 0.609929
v -0.380169 2.962687 0.722704
v -0.528991 3.243052 0.481652
v -0.450630 3.296003 0.540263
v -0.546514 3.618963 0.358349
v -0.515353 3.641963 0.388908
v -0.555376 3.987691 0.235771
v -0.520602 4.003714 0.265834
v -0.476223 4.326463 0.296408
v -0.417308 4.349671 0.323424
v -0.347781 4.667933 0.552477
v -0.482810 5.036790 0.622521
v -0.501245 5.106758 0.595484
v -0.671663 4.400864 -0.021766
v -0.652002 4.412545 -0.069752
v -0.733402 4.834865 0.069958
v -0.310982 4.501552 -0.346670
v -0.320360 4.948216 -0.214552
v -0.628044 5.174665 0.227411
v -0.252330 5.284595 -0.065883
v -0.612666 5.187011 0.225651
v -0.211219 5.578388 0.099094
v -0.346893 5.557314 0.229538
v -0.256378 6.002831 -0.085197
v -0.521407 5.945812 0.292320
v -0.582238 5.982457 0.304449
v -0.663559 6.227448 -0.069288
v -0.500615 5.920748 0.694869
v -0.439753 5.882812 0.682614
v -0.936434 6.333445 0.394547
v -0.854807 6.272498 0.785141
v -0.893207 6.340956 0.797941
v -0.974833 6.401902 0.407347
v -0.836145 6.398305 -0.024976
v -1.017043 6.791433 0.042151
v -1.041375 6.779967 0.116448
v -1.016025 7.188475 0.080349
v -1.040357 7.177009 0.154647
v -0.972135 7.454453 0.508610
v -0.833092 7.589431 0.089618
v -0.933380 7.524570 0.509141
v -0.577514 7.890328 0.487149
v -0.659611 7.767734 0.078898
v -0.695950 7.619952 -0.109642
v -0.495887 7.829381 0.877743
v -0.851754 7.463624 0.899735
v -0.414731 7.584894 1.250679
v -0.588212 7.406591 1.261400
v -0.890508 7.393506 0.899204
v -0.771145 7.005635 1.252131
v -0.823967 7.015441 1.190103
v -0.824985 6.618399 1.151905
v -0.772163 6.608593 1.213932
v -0.343590 6.561258 1.509791
v -0.342572 6.958301 1.547989
v -0.382341 6.192390 1.291033
v -0.591266 6.215466 1.146805
v -0.265896 6.953804 1.575358
v -0.266914 6.556761 1.537160
v -1.005613 6.666273 0.847482
v -1.004595 7.063315 0.885681
v -1.087239 6.727220 0.456889
v -1.086221 7.124262 0.495087
v -0.379287 7.383516 1.405628
v -0.508740 7.930727 0.479973
v -0.427113 7.869781 0.870567
v -0.734701 7.251084 -0.328400
v -0.735719 6.854042 -0.366599
v -0.675046 6.861494 -0.415809
v -0.674028 7.258536 -0.377611
v -0.699003 6.428826 -0.224237
v -0.418680 6.044609 1.102493
v -0.265148 5.483272 0.617956
v 0.177748 5.590543 0.017508
v -0.623690 5.182374 0.237029
v 0.151017 5.300915 -0.146281
v 0.127586 4.954185 -0.288473
v 0.547656 4.963194 -0.183781
v 0.608205 5.271658 -0.018581
v 0.125932 4.548346 -0.393895
v 0.526067 4.556966 -0.222537
v 0.625685 4.549078 -0.132758
v 0.535948 4.722093 -0.231443
v 0.610167 5.130346 -0.275745
v 0.718231 4.317870 0.172892
v 0.645774 3.843224 0.198582
v 0.659248 4.022263 -0.166211
v 0.606332 3.412151 0.136196
v 0.667447 3.572195 -0.243967
v 0.545859 3.036235 0.034629
v 0.610483 3.192938 -0.340981
v 0.471562 2.667537 -0.070064
v 0.556837 2.819571 -0.445142
v 0.510660 2.279513 -0.164792
v 0.612335 2.425879 -0.537777
v 0.504481 1.928949 -0.231405
v 0.639974 2.049123 -0.604415
v 0.435732 2.149546 -0.847674
v 0.449999 2.535715 -0.714143
v 0.086875 2.156515 -0.524724
v 0.108768 2.564849 -0.577123
v 0.483885 2.880403 -0.535642
v 0.151113 2.953569 -0.564255
v 0.538595 3.255642 -0.442394
v 0.192463 3.338891 -0.570212
v 0.584130 3.636861 -0.358842
v 0.206521 3.721743 -0.519852
v -0.127473 3.085044 -0.278213
v -0.179326 3.466378 -0.358845
v -0.493036 3.035297 -0.017436
v -0.548852 3.432640 -0.055907
v -0.241403 3.879432 -0.419017
v -0.614517 3.875732 -0.152389
v -0.636583 3.880095 -0.111550
v -0.575726 3.439979 -0.010592
v -0.439565 2.627745 -0.004557
v -0.082683 2.725680 -0.175157
v -0.369974 2.247636 0.107307
v -0.024728 2.376864 0.002205
v -0.624878 2.666359 0.242649
v -0.591392 2.296436 0.355876
v -0.574058 3.055281 0.112014
v 0.037717 2.037604 0.191690
v 0.575598 4.074848 -0.282764
v 0.493807 3.402613 0.242849
v 0.554531 3.813083 0.307833
v 0.079091 2.206224 0.680272
v -0.091825 1.038417 1.150333
v -0.326961 0.984271 1.133273
v -0.046735 0.531757 1.100330
v -0.390649 0.527441 1.017592
v 0.007629 0.181455 0.931295
v -0.358893 0.173610 0.840842
v 0.055603 -0.061872 0.750642
v -0.333673 0.213669 0.398416
v -0.383367 0.188047 0.813994
v 0.067851 -0.086298 0.673506
v -0.202944 0.093128 0.349079
v 0.086600 0.106247 0.366253
v 0.084131 0.149153 0.350553
v 0.121121 0.134941 0.380548
v 0.033690 0.555631 0.409627
v -0.366293 0.433767 0.476216
v 0.212057 0.491364 0.554889
v 0.110034 0.234114 0.886378
v -0.386410 0.417161 0.494207
v -0.420489 0.694947 0.665301
v 0.073517 0.587692 1.054400
v 0.128994 1.676557 0.396839
v 0.018912 2.615074 0.658860
v 0.735198 5.043062 0.432063
v 0.726619 4.626906 0.417945
v 0.776314 6.579207 1.371261
v 0.836987 6.586659 1.322050
v 0.798236 6.217792 1.103292
v 0.777332 6.976250 1.409459
v 0.838005 6.983702 1.360248
v 1.119328 7.046311 0.951499
v 1.118311 6.649269 0.913301
v 0.801289 7.408917 1.217887
v 0.938431 7.439439 1.018626
v 0.765845 7.610295 1.062938
v 1.142643 6.660735 0.839003
v 1.143661 7.057776 0.877201
v 1.189525 7.110524 0.536761
v 1.188507 6.713482 0.498563
v 1.077119 7.435842 0.586303
v 0.995492 7.496788 0.195709
v 1.107898 7.171471 0.146168
v 1.038720 7.504299 0.599103
v 0.957093 7.565246 0.208509
v 0.684689 7.854783 0.690002
v 0.603063 7.915730 0.299409
v 0.616115 7.892227 0.704668
v 0.534488 7.953174 0.314074
v 0.693552 7.622278 -0.153155
v 0.874449 7.229150 -0.220282
v 0.927270 7.219345 -0.158255
v 0.926253 6.822303 -0.196453
v 0.873431 6.832108 -0.258481
v 0.444858 6.879443 -0.554339
v 0.445876 7.276485 -0.516141
v 0.369200 7.280982 -0.543510
v 0.368182 6.883940 -0.581708
v 1.106881 6.774428 0.107969
v 0.992794 6.444238 0.094446
v 1.074421 6.383291 0.485040
v 0.954040 6.374120 0.093915
v 1.035666 6.313173 0.484509
v 0.935378 6.248313 0.904031
v 0.761897 6.070010 0.914752
v 0.520966 7.793136 -0.108843
v 0.484627 7.645353 -0.297383
v 1.290735 3.308596 0.320173
v 1.465407 2.995302 0.043066
v 1.676104 3.638612 -0.364434
v 0.896444 3.981373 -0.459254
v 1.030798 4.238288 -0.318775
v 1.404516 4.570816 -0.745086
v 0.662980 5.064684 -0.601061
v 0.532819 4.703152 -0.574944
v -0.286444 1.875774 0.221763
v -0.552416 1.931255 0.454568
v 0.647094 4.252577 0.324139
v 0.147189 4.124202 -0.472726
v 0.678088 1.660403 -0.669309
v 0.434311 1.759989 -0.947733
v 0.027430 1.735873 -0.721496
v 0.586716 0.985566 -0.966451
v 0.262582 1.096968 -1.072463
v -0.024510 0.903427 -0.987439
v 0.176403 0.791697 0.723414
v -0.025577 0.831982 0.570381
v -0.423636 0.715653 0.678347
vn 0.9400 -0.1895 -0.2838
vn 0.2887 -0.6444 -0.7081
vn 0.3316 -0.7972 -0.5045
vn 0.9655 -0.2483 0.0789
vn -0.6272 -0.6261 -0.4633
vn -0.5826 -0.7868 -0.2036
vn -0.9822 -0.1137 0.1496
vn -0.8976 -0.2783 0.3418
vn -0.4868 0.5252 0.6980
vn -0.4163 0.3801 0.8259
vn 0.3150 0.6751 0.6670
vn 0.6068 0.5700 0.5540
vn 0.6027 0.3577 0.7133
vn 0.7904 0.4963 0.3590
vn 0.7885 0.5114 0.3417
vn 0.3160 0.6950 0.6458
vn 0.7715 0.5678 0.2870
vn 0.2855 0.7811 0.5553
vn 0.9470 0.3202 -0.0260
vn 0.9804 0.1939 -0.0343
vn 0.5937 0.7584 0.2689
vn 0.8804 0.2852 -0.3789
vn -0.5156 0.6558 0.5514
vn -0.5169 0.6161 -0.5943
vn -0.7047 -0.4487 -0.5496
vn -0.9986 -0.0158 0.0509
vn -0.6262 -0.5487 -0.5539
vn -0.5602 -0.2477 -0.7905
vn 0.2709 -0.5569 -0.7852
vn 0.0694 -0.1695 -0.9831
vn -0.6281 -0.6097 -0.4835
vn 0.2852 -0.6293 -0.7230
vn 0.8982 -0.0642 -0.4349
vn 0.8960 -0.1822 -0.4050
vn -0.8005 -0.1720 -0.5741
vn -0.4313 0.5617 -0.7060
vn 0.6578 0.2288 -0.7176
vn 0.5389 0.5009 -0.6773
vn 0.1409 0.8687 -0.4749
vn 0.9216 -0.0375 -0.3862
vn 0.9900 0.1394 -0.0216
vn 0.6879 0.7032 -0.1797
vn 0.9572 0.2092 0.2000
vn 0.6742 0.7382 -0.0224
vn 0.8404 0.3395 0.4224
vn 0.5792 0.8086 0.1029
vn -0.0137 0.9691 -0.2463
vn 0.1004 0.9599 -0.2616
vn 0.9017 -0.3413 0.2655
vn 0.8150 -0.1486 0.5600
vn 0.5536 -0.6749 0.4880
vn 0.3996 -0.8954 0.1964
vn -0.4926 -0.8497 0.1881
vn -0.5314 -0.8470 0.0137
vn 0.4329 -0.8093 -0.3971
vn -0.2653 -0.8557 -0.4443
vn 0.6879 0.4168 0.5942
vn 0.5563 0.8075 -0.1963
vn 0.9104 0.0134 0.4134
vn 0.7389 0.1851 -0.6479
vn 0.7268 -0.6830 0.0726
vn 0.6078 -0.5729 -0.5499
vn 0.6116 -0.7892 -0.0556
vn 0.5442 -0.7258 -0.4208
vn 0.0888 -0.7043 -0.7044
vn 0.1625 -0.5919 -0.7894
vn 0.3941 -0.6288 -0.6703
vn 0.3630 -0.4031 -0.8401
vn 0.0496 -0.4735 -0.8794
vn 0.5971 -0.4205 -0.6831
vn -0.2770 -0.7212 -0.6349
vn -0.3039 -0.4879 -0.8183
vn -0.3259 -0.3160 -0.8910
vn 0.0412 -0.3027 -0.9522
vn 0.0040 -0.0634 -0.9980
vn -0.3166 -0.0696 -0.9460
vn 0.0048 0.2601 -0.9656
vn -0.3205 0.2576 -0.9116
vn -0.3535 0.5118 -0.7830
vn 0.0421 0.5053 -0.8619
vn 0.0496 0.6774 -0.7340
vn -0.3196 0.6682 -0.6718
vn -0.2753 0.8691 -0.4110
vn 0.0966 0.8653 -0.4919
vn 0.1416 0.9372 -0.3187
vn -0.2513 0.9425 -0.2203
vn -0.1829 0.9829 0.0218
vn 0.1374 0.9896 -0.0433
vn -0.1287 0.9339 0.3335
vn 0.1870 0.9443 0.2708
vn 0.2681 0.8268 0.4946
vn -0.1117 0.8211 0.5598
vn -0.0743 0.7037 0.7066
vn 0.2754 0.7231 0.6335
vn 0.3052 0.4855 0.8192
vn -0.0496 0.4735 0.8794
vn -0.0412 0.3027 0.9522
vn 0.3283 0.3137 0.8910
vn 0.3166 0.0696 0.9460
vn -0.0040 0.0634 0.9980
vn -0.0048 -0.2601 0.9656
vn 0.3205 -0.2576 0.9116
vn -0.0421 -0.5053 0.8619
vn 0.3339 -0.5051 0.7959
vn 0.3061 -0.6773 0.6690
vn -0.0496 -0.6774 0.7340
vn -0.0889 -0.8676 0.4892
vn 0.2815 -0.8624 0.4207
vn 0.3855 -0.7671 0.5128
vn -0.1703 -0.7850 0.5957
vn -0.1787 -0.2174 0.9596
vn 0.4341 -0.2018 0.8780
vn -0.1174 -0.0732 0.9904
vn 0.3188 -0.0147 0.9477
vn -0.1773 -0.2807 0.9433
vn 0.2642 -0.2238 0.9381
vn -0.2700 -0.2330 0.9343
vn 0.2140 -0.2517 0.9439
vn -0.2861 0.0031 0.9582
vn 0.2351 -0.1330 0.9628
vn -0.0342 0.1357 0.9902
vn 0.4853 -0.1080 0.8677
vn 0.3425 0.1632 0.9252
vn 0.6993 -0.1764 0.6927
vn 0.6708 0.1519 0.7259
vn 0.7822 -0.2112 0.5862
vn 0.5121 -0.3323 0.7920
vn 0.4360 -0.3103 0.8448
vn 0.7506 -0.1910 0.6325
vn 0.2176 -0.2768 0.9360
vn 0.6524 -0.2329 0.7211
vn -0.0573 -0.2618 0.9634
vn -0.9640 -0.0526 0.2605
vn -0.1733 -0.2035 0.9636
vn -0.9508 -0.0382 0.3074
vn -0.2238 -0.2098 0.9518
vn -0.9284 -0.0929 0.3597
vn -0.1510 -0.5339 0.8320
vn -0.8600 -0.2887 0.4208
vn 0.0652 -0.8272 0.5581
vn -0.7482 -0.5420 0.3827
vn 0.1537 -0.9152 0.3726
vn -0.7314 -0.6819 0.0038
vn 0.1619 -0.8977 -0.4098
vn 0.2073 -0.7322 -0.6488
vn -0.5886 -0.0780 -0.8046
vn -0.9026 0.1749 -0.3935
vn 0.0657 -0.1766 -0.9821
vn -0.0160 0.4016 -0.9157
vn 0.5947 0.0589 -0.8018
vn -0.0886 0.7931 -0.6026
vn 0.8394 0.3240 -0.4363
vn 0.8541 -0.5188 0.0366
vn 0.7895 -0.5521 0.2683
vn -0.9139 0.3322 -0.2332
vn -0.7768 0.1045 -0.6210
vn 0.2475 0.5235 -0.8153
vn 0.2221 0.1350 -0.9656
vn 0.9744 -0.0647 -0.2154
vn 0.9816 0.0044 -0.1910
vn 0.7087 -0.4599 0.5349
vn 0.6723 -0.1486 0.7252
vn 0.6806 -0.0775 0.7285
vn 0.2916 0.6223 -0.7264
vn 0.9238 0.2284 0.3073
vn 0.9752 0.2208 -0.0142
vn 0.9767 -0.1188 0.1789
vn -0.8677 0.2808 -0.4102
vn 0.9294 0.3021 -0.2122
vn 0.9033 -0.1227 -0.4111
vn 0.9105 -0.2639 -0.3183
vn 0.7997 0.0487 0.5984
vn 0.8029 0.2080 0.5586
vn 0.6859 0.0336 0.7269
vn 0.9571 0.1250 -0.2616
vn -0.0478 0.1615 -0.9857
vn -0.0286 -0.4394 -0.8978
vn -0.9016 -0.2941 -0.3171
vn -0.9612 0.0437 -0.2722
vn -0.1795 -0.3505 -0.9192
vn -0.9323 -0.2352 -0.2746
vn -0.7259 0.0230 0.6874
vn -0.7995 0.0233 0.6003
vn 0.0324 0.1609 0.9864
vn -0.0052 0.2513 0.9679
vn -0.8187 0.0775 0.5689
vn 0.0074 0.2824 0.9593
vn -0.8261 0.0708 0.5590
vn -0.0470 0.2152 0.9754
vn -0.8643 0.1455 0.4815
vn -0.2456 0.2609 0.9336
vn -0.8858 0.1669 0.4331
vn -0.4540 0.2586 0.8526
vn -0.8981 0.0931 0.4299
vn -0.5716 0.2194 0.7906
vn -0.8670 0.0389 0.4968
vn -0.5532 0.0995 0.8271
vn -0.7770 -0.0844 0.6238
vn -0.6396 -0.1598 0.7519
vn -0.5804 -0.2771 0.7657
vn -0.6631 -0.0731 0.7450
vn -0.6439 0.2665 0.7172
vn -0.9746 -0.0895 0.2053
vn -0.8773 0.0237 -0.4793
vn -0.9809 0.0937 -0.1706
vn -0.3991 0.1594 -0.9029
vn -0.4118 0.3399 -0.8455
vn -0.9729 0.2170 -0.0797
vn -0.4089 0.4669 -0.7841
vn -0.8016 0.5850 -0.1237
vn -0.5148 0.0737 -0.8541
vn -0.9456 0.0919 -0.3121
vn -0.3865 -0.6278 -0.6756
vn -0.7035 -0.6538 -0.2787
vn -0.6110 -0.7687 -0.1892
vn -0.5662 -0.6637 -0.4888
vn -0.5779 -0.7977 0.1725
vn -0.6205 -0.7192 0.3126
vn -0.8188 -0.5647 -0.1038
vn -0.7521 -0.6131 0.2418
vn -0.8475 -0.4398 0.2971
vn -0.9164 -0.3949 -0.0659
vn -0.7827 -0.4591 -0.4202
vn -0.8864 -0.1454 -0.4396
vn -0.9476 -0.1815 -0.2628
vn -0.8963 0.2272 -0.3807
vn -0.9591 0.2121 -0.1874
vn -0.9091 0.4121 0.0603
vn -0.7937 0.5423 -0.2756
vn -0.8061 0.5869 0.0762
vn -0.5975 0.8002 0.0517
vn -0.5795 0.7633 -0.2857
vn -0.6195 0.5711 -0.5385
vn -0.5236 0.7495 0.4052
vn -0.7409 0.5265 0.4169
vn -0.3963 0.6258 0.6718
vn -0.5986 0.4203 0.6819
vn -0.8353 0.3571 0.4179
vn -0.6709 0.1138 0.7327
vn -0.7842 0.1452 0.6033
vn -0.8073 -0.2376 0.5401
vn -0.6865 -0.2473 0.6838
vn -0.4341 -0.2659 0.8608
vn -0.4307 0.0983 0.8971
vn -0.3813 -0.5775 0.7219
vn -0.6203 -0.5555 0.5538
vn -0.2651 0.1081 0.9581
vn -0.2555 -0.2795 0.9255
vn -0.9253 -0.1923 0.3268
vn -0.9190 0.1267 0.3733
vn -0.9866 -0.1624 0.0129
vn -0.9851 0.1602 0.0618
vn -0.3630 0.4031 0.8401
vn -0.4449 0.8954 0.0167
vn -0.3569 0.8480 0.3919
vn -0.7141 0.2608 -0.6496
vn -0.7150 -0.1094 -0.6905
vn -0.5525 -0.1057 -0.8268
vn -0.5671 0.2918 -0.7702
vn -0.6058 -0.4339 -0.6669
vn -0.4172 -0.7671 0.4873
vn -0.7213 -0.0738 0.6887
vn 0.1522 0.0937 -0.9839
vn -0.8596 0.2004 0.4701
vn 0.0487 0.4564 -0.8884
vn 0.0581 0.3085 -0.9495
vn -0.3544 0.3573 -0.8642
vn 0.0292 0.7612 -0.6479
vn 0.1006 0.1881 -0.9770
vn 0.6001 0.1037 -0.7932
vn 0.2779 -0.5396 -0.7947
vn -0.6201 -0.4238 -0.6602
vn -0.6574 0.6790 -0.3269
vn 0.5874 0.7678 0.2559
vn 0.9434 -0.1146 0.3112
vn 0.9453 0.0356 -0.3242
vn 0.8942 -0.1908 0.4050
vn 0.9697 -0.0257 -0.2428
vn 0.8692 -0.2682 0.4155
vn 0.9630 -0.0836 -0.2562
vn 0.8315 -0.1774 0.5265
vn 0.9735 0.0396 -0.2252
vn 0.7877 -0.1004 0.6078
vn 0.9770 0.1191 -0.1767
vn 0.7200 -0.1090 0.6853
vn 0.9825 0.0941 -0.1609
vn 0.1221 0.2742 -0.9539
vn 0.2604 0.2404 -0.9351
vn -0.8880 0.0014 -0.4599
vn -0.7182 0.0491 -0.6941
vn 0.4911 0.1674 -0.8549
vn -0.4267 0.0354 -0.9037
vn 0.5989 0.0708 -0.7977
vn -0.1325 0.0222 -0.9909
vn 0.6494 0.1129 -0.7520
vn 0.0617 0.0576 -0.9964
vn -0.6055 -0.1428 -0.7829
vn -0.5040 -0.1369 -0.8528
vn -0.6994 -0.1676 -0.6948
vn -0.7385 -0.2086 -0.6411
vn -0.4129 -0.0424 -0.9098
vn -0.7546 -0.1041 -0.6479
vn -0.9870 -0.0755 -0.1418
vn -0.9740 -0.1132 -0.1963
vn -0.5834 -0.2645 -0.7679
vn -0.6667 -0.2020 -0.7174
vn -0.4508 -0.3672 -0.8136
vn -0.6670 -0.3020 -0.6812
vn -0.9701 -0.0859 -0.2271
vn -0.9562 -0.1840 -0.2277
vn -0.9691 -0.0303 -0.2449
vn -0.5741 -0.4104 -0.7084
vn 0.6242 0.1457 -0.7675
vn 0.5409 -0.2387 0.8065
vn 0.6029 -0.1958 0.7734
vn 0.8050 0.3774 0.4577
vn 0.1045 0.0338 0.9939
vn -0.6388 -0.0116 0.7693
vn 0.1363 -0.2776 0.9510
vn -0.7335 -0.2241 0.6417
vn 0.1685 -0.4913 0.8545
vn -0.6189 -0.6212 0.4807
vn 0.3255 -0.8578 0.3979
vn -0.6837 -0.3036 -0.6637
vn -0.8756 -0.3968 0.2754
vn 0.3963 -0.9140 0.0874
vn -0.4140 -0.5706 -0.7093
vn 0.3712 -0.6015 -0.7074
vn 0.3227 -0.0233 -0.9462
vn 0.8511 -0.2345 -0.4698
vn 0.2255 0.3914 -0.8922
vn -0.5198 0.3111 -0.7957
vn 0.9514 0.1178 -0.2847
vn 0.8215 -0.2824 0.4953
vn -0.9182 0.0373 -0.3943
vn -0.8373 0.2266 -0.4976
vn 0.7528 -0.0569 0.6558
vn -0.6244 -0.4685 -0.6250
vn 0.8524 0.1464 0.5020
vn 0.5939 0.0817 0.8004
vn 0.5844 -0.2854 0.7596
vn 0.5528 -0.2735 0.7871
vn 0.7114 -0.2544 0.6552
vn 0.6218 -0.5732 0.5336
vn 0.5581 0.1258 0.8202
vn 0.7064 0.1220 0.6972
vn 0.8900 0.1391 0.4342
vn 0.8928 -0.2351 0.3843
vn 0.6052 0.4327 0.6682
vn 0.7815 0.4598 0.4217
vn 0.5662 0.6637 0.4888
vn 0.9513 -0.2328 0.2019
vn 0.9561 0.1644 0.2425
vn 0.9866 0.1624 -0.0129
vn 0.9851 -0.1602 -0.0618
vn 0.9117 0.4058 0.0647
vn 0.8503 0.4307 -0.3025
vn 0.9253 0.1923 -0.3268
vn 0.8086 0.5797 0.1009
vn 0.7597 0.5990 -0.2529
vn 0.5996 0.7778 0.1884
vn 0.5386 0.8248 -0.1719
vn 0.4442 0.8608 0.2485
vn 0.3680 0.9206 -0.1304
vn 0.6217 0.5550 -0.5527
vn 0.6821 0.2546 -0.6855
vn 0.7945 0.2574 -0.5500
vn 0.7980 -0.1286 -0.5888
vn 0.6756 -0.1076 -0.7294
vn 0.4307 -0.0983 -0.8971
vn 0.4341 0.2659 -0.8608
vn 0.2555 0.2795 -0.9255
vn 0.2651 -0.1081 -0.9581
vn 0.9190 -0.1267 -0.3733
vn 0.8322 -0.3675 -0.4153
vn 0.9136 -0.4027 -0.0561
vn 0.7340 -0.5404 -0.4114
vn 0.8181 -0.5710 -0.0682
vn 0.7952 -0.5402 0.2752
vn 0.5821 -0.7598 0.2896
vn 0.4162 0.7702 -0.4833
vn 0.3813 0.5775 -0.7219
vn -0.1119 -0.3464 0.9314
vn 0.2196 -0.9018 0.3722
vn 0.9956 0.0445 0.0825
vn -0.9861 -0.0992 0.1330
vn -0.4963 0.5400 0.6797
vn 0.8699 -0.4569 -0.1861
vn -0.6498 0.6833 -0.3330
vn -0.9798 -0.0766 -0.1847
vn -0.2967 -0.3500 -0.8885
vn -0.9431 -0.1781 -0.2809
vn 0.6499 -0.3191 0.6898
vn 0.1047 0.1191 -0.9873
vn 0.9817 0.0826 -0.1713
vn 0.1661 0.2865 -0.9436
vn -0.8072 0.2574 -0.5313
vn 0.8665 0.3563 -0.3496
vn -0.1993 0.9410 -0.2735
vn -0.9288 0.3655 -0.0611
vn 0.9207 0.3665 -0.1339
vn 0.1749 0.5987 -0.7816
vn -0.8590 0.2846 -0.4256
s 1
f 4//4 3//3 2//2 1//1
f 2//2 3//3 6//6 5//5
f 5//5 6//6 8//8 7//7
f 8//8 10//10 9//9 7//7
f 13//13 12//12 11//11 9//9
f 10//10 13//13 9//9
f 11//11 12//12 14//14
f 16//16 11//11 14//14 15//15
f 18//18 16//16 15//15 17//17
f 15//15 20//20 19//19 17//17
f 21//21 18//18 17//17
f 23//23 18//18 21//21 22//22
f 24//24 23//23 22//22
f 26//26 23//23 24//24 25//25
f 28//28 27//27 26//26 25//25
f 30//30 29//29 27//27 28//28
f 29//29 32//32 31//31 27//27
f 34//34 32//32 29//29 33//33
f 36//36 30//30 28//28 35//35
f 38//38 37//37 30//30 36//36
f 39//39 38//38 36//36
f 37//37 38//38 40//40 22//22
f 40//40 38//38 42//42 41//41
f 41//41 42//42 44//44 43//43
f 43//43 44//44 46//46 45//45
f 44//44 48//48 47//47 46//46
f 50//50 49//49 43//43 45//45
f 52//52 49//49 50//50 51//51
f 54//54 52//52 51//51 53//53
f 56//56 55//55 52//52 54//54
f 45//45 46//46 58//58 57//57
f 58//58 60//60 59//59 57//57
f 60//60 62//62 61//61 59//59
f 61//61 62//62 64//64 63//63
f 64//64 62//62 66//66 65//65
f 67//67 64//64 65//65
f 69//69 68//68 67//67 65//65
f 68//68 70//70 67//67
f 72//72 69//69 65//65 71//71
f 74//74 69//69 72//72 73//73
f 76//76 75//75 74//74 73//73
f 78//78 77//77 75//75 76//76
f 80//80 77//77 78//78 79//79
f 82//82 81//81 80//80 79//79
f 84//84 81//81 82//82 83//83
f 86//86 85//85 84//84 83//83
f 88//88 85//85 86//86 87//87
f 90//90 88//88 87//87 89//89
f 92//92 91//91 90//90 89//89
f 94//94 91//91 92//92 93//93
f 96//96 95//95 94//94 93//93
f 98//98 95//95 96//96 97//97
f 100//100 99//99 98//98 97//97
f 102//102 99//99 100//100 101//101
f 104//104 102//102 101//101 103//103
f 106//106 105//105 104//104 103//103
f 108//108 105//105 106//106 107//107
f 110//110 109//109 108//108 107//107
f 112//112 109//109 110//110 111//111
f 114//114 112//112 111//111 113//113
f 116//116 114//114 113//113 115//115
f 118//118 116//116 115//115 117//117
f 120//120 118//118 117//117 119//119
f 122//122 120//120 119//119 121//121
f 124//124 122//122 121//121 123//123
f 126//126 124//124 123//123 125//125
f 128//128 127//127 124//124 126//126
f 130//130 128//128 126//126 129//129
f 132//132 130//130 129//129 131//131
f 133//133 132//132 131//131
f 132//132 133//133 135//135 134//134
f 134//134 135//135 137//137 136//136
f 136//136 137//137 139//139 138//138
f 138//138 139//139 141//141 140//140
f 140//140 141//141 143//143 142//142
f 142//142 143//143 144//144
f 147//147 146//146 145//145 144//144
f 143//143 147//147 144//144
f 145//145 146//146 148//148
f 146//146 149//149 148//148
f 150//150 145//145 148//148
f 146//146 147//147 151//151 149//149
f 151//151 152//152 150//150 149//149
f 150//150 152//152 153//153 144//144
f 145//145 150//150 144//144
f 153//153 154//154 140//140 142//142
f 137//137 156//156 155//155 139//139
f 155//155 156//156 158//158 157//157
f 158//158 160//160 159//159 157//157
f 159//159 160//160 162//162 161//161
f 162//162 163//163 134//134 136//136
f 164//164 133//133 131//131
f 166//166 164//164 131//131 165//165
f 168//168 164//164 166//166 167//167
f 169//169 168//168 167//167
f 169//169 167//167 170//170
f 173//173 172//172 171//171 170//170
f 167//167 173//173 170//170
f 175//175 171//171 172//172 174//174
f 177//177 171//171 175//175 176//176
f 179//179 178//178 177//177 176//176
f 178//178 181//181 180//180 177//177
f 183//183 181//181 178//178 182//182
f 185//185 183//183 182//182 184//184
f 187//187 186//186 183//183 185//185
f 189//189 188//188 186//186 187//187
f 191//191 190//190 188//188 189//189
f 193//193 192//192 190//190 191//191
f 195//195 194//194 192//192 193//193
f 197//197 196//196 194//194 195//195
f 199//199 198//198 196//196 197//197
f 205//205 207//207 206//206 204//204
f 209//209 207//207 205//205 208//208
f 210//210 209//209 208//208
f 210//210 212//212 211//211 209//209
f 212//212 214//214 213//213 211//211
f 71//71 213//213 214//214 215//215
f 216//216 71//71 215//215
f 215//215 214//214 218//218 217//217
f 220//220 219//219 215//215 217//217
f 222//222 219//219 220//220 221//221
f 224//224 223//223 219//219 222//222
f 225//225 224//224 222//222
f 227//227 226//226 224//224 225//225
f 229//229 226//226 227//227 228//228
f 230//230 229//229 228//228
f 232//232 229//229 230//230 231//231
f 233//233 229//229 232//232
f 231//231 230//230 235//235 234//234
f 234//234 235//235 237//237 236//236
f 239//239 237//237 235//235 238//238
f 240//240 239//239 238//238
f 242//242 239//239 240//240 241//241
f 244//244 239//239 242//242 243//243
f 243//243 242//242 246//246 245//245
f 248//248 247//247 244//244 243//243
f 240//240 250//250 249//249 241//241
f 241//241 249//249 221//221
f 250//250 252//252 251//251 249//249
f 228//228 252//252 250//250 238//238
f 250//250 240//240 238//238
f 237//237 253//253 236//236
f 255//255 254//254 231//231 234//234
f 226//226 229//229 233//233 256//256
f 235//235 230//230 228//228 238//238
f 224//224 226//226 256//256 257//257
f 256//256 259//259 258//258 257//257
f 251//251 252//252 227//227 225//225
f 223//223 224//224 257//257 260//260
f 223//223 260//260 216//216
f 251//251 225//225 222//222
f 246//246 242//242 241//241 221//221
f 220//220 246//246 221//221
f 249//249 251//251 222//222 221//221
f 246//246 220//220 217//217 261//261
f 218//218 214//214 212//212 262//262
f 213//213 66//66 263//263 211//211
f 212//212 210//210 264//264 202//202
f 262//262 212//212 202//202
f 211//211 263//263 265//265 209//209
f 209//209 265//265 266//266 207//207
f 265//265 268//268 267//267 266//266
f 266//266 267//267 270//270 269//269
f 273//273 272//272 271//271 270//270
f 267//267 273//273 270//270
f 274//274 271//271 272//272 53//53
f 276//276 271//271 274//274 275//275
f 278//278 276//276 275//275 277//277
f 280//280 278//278 277//277 279//279
f 282//282 280//280 279//279 281//281
f 284//284 282//282 281//281 283//283
f 286//286 284//284 283//283 285//285
f 288//288 284//284 286//286 287//287
f 290//290 288//288 287//287 289//289
f 292//292 291//291 288//288 290//290
f 294//294 293//293 291//291 292//292
f 296//296 295//295 293//293 294//294
f 298//298 296//296 294//294 297//297
f 300//300 298//298 297//297 299//299
f 302//302 301//301 298//298 300//300
f 304//304 303//303 302//302 300//300
f 299//299 297//297 306//306 305//305
f 305//305 306//306 308//308 307//307
f 310//310 309//309 305//305 307//307
f 311//311 304//304 300//300 299//299
f 297//297 294//294 292//292 306//306
f 306//306 292//292 290//290 308//308
f 308//308 290//290 289//289 312//312
f 291//291 282//282 284//284 288//288
f 293//293 280//280 282//282 291//291
f 313//313 276//276 278//278 295//295
f 277//277 275//275 315//315 314//314
f 268//268 47//47 273//273 267//267
f 204//204 206//206 301//301 302//302
f 207//207 266//266 269//269 206//206
f 198//198 203//203 303//303 196//196
f 196//196 303//303 304//304 194//194
f 194//194 304//304 311//311 192//192
f 192//192 311//311 309//309 190//190
f 190//190 309//309 310//310 188//188
f 173//173 316//316 187//187 185//185
f 184//184 182//182 318//318 317//317
f 317//317 318//318 320//320 319//319
f 319//319 320//320 322//322 321//321
f 321//321 322//322 323//323
f 323//323 322//322 325//325 324//324
f 327//327 326//326 323//323 324//324
f 326//326 327//327 328//328
f 327//327 329//329 328//328
f 330//330 326//326 328//328
f 331//331 329//329 327//327 324//324
f 332//332 331//331 324//324
f 331//331 333//333 330//330 329//329
f 330//330 333//333 334//334 323//323
f 326//326 330//330 323//323
f 325//325 335//335 324//324
f 335//335 325//325 336//336
f 332//332 335//335 336//336
f 334//334 337//337 319//319 321//321
f 182//182 178//178 179//179 318//318
f 338//338 170//170 171//171 177//177
f 180//180 338//338 177//177
f 289//289 168//168 169//169 338//338
f 312//312 289//289 338//338
f 131//131 129//129 339//339 165//165
f 283//283 281//281 128//128 130//130
f 281//281 279//279 127//127 128//128
f 125//125 123//123 193//193 191//191
f 314//314 315//315 120//120 122//122
f 121//121 119//119 197//197 195//195
f 341//341 340//340 114//114 116//116
f 115//115 113//113 201//201 200//200
f 113//113 111//111 262//262 202//202
f 110//110 218//218 262//262 111//111
f 218//218 110//110 107//107 261//261
f 217//217 218//218 261//261
f 107//107 106//106 245//245 261//261
f 344//344 343//343 342//342 104//104
f 105//105 344//344 104//104
f 346//346 345//345 342//342 343//343
f 348//348 347//347 346//346 343//343
f 347//347 350//350 349//349 346//346
f 349//349 350//350 351//351
f 353//353 347//347 348//348 352//352
f 355//355 354//354 353//353 352//352
f 353//353 354//354 356//356
f 354//354 358//358 357//357 356//356
f 357//357 360//360 359//359 356//356
f 359//359 360//360 362//362 361//361
f 362//362 364//364 363//363 361//361
f 366//366 365//365 360//360 357//357
f 367//367 366//366 357//357
f 369//369 366//366 367//367 368//368
f 371//371 366//366 369//369 370//370
f 373//373 372//372 371//371 370//370
f 367//367 358//358 374//374 368//368
f 368//368 374//374 375//375
f 375//375 374//374 355//355 376//376
f 378//378 377//377 375//375 376//376
f 355//355 352//352 376//376
f 374//374 358//358 354//354 355//355
f 379//379 348//348 343//343 344//344
f 379//379 344//344 380//380
f 63//63 378//378 379//379 380//380
f 103//103 248//248 243//243 245//245
f 106//106 103//103 245//245
f 342//342 102//102 104//104
f 101//101 248//248 103//103
f 342//342 345//345 99//99 102//102
f 100//100 247//247 248//248 101//101
f 247//247 100//100 97//97
f 346//346 349//349 95//95 98//98
f 345//345 346//346 98//98
f 97//97 96//96 253//253 244//244
f 247//247 97//97 244//244
f 95//95 349//349 351//351 94//94
f 253//253 96//96 93//93 236//236
f 91//91 363//363 90//90
f 255//255 92//92 89//89
f 363//363 364//364 88//88 90//90
f 87//87 254//254 255//255 89//89
f 86//86 254//254 87//87
f 364//364 362//362 381//381 84//84
f 85//85 364//364 84//84
f 382//382 371//371 372//372 80//80
f 81//81 382//382 80//80
f 78//78 259//259 79//79
f 77//77 372//372 373//373 75//75
f 258//258 259//259 78//78 76//76
f 75//75 373//373 74//74
f 258//258 76//76 73//73
f 260//260 72//72 71//71 216//216
f 67//67 70//70 377//377 64//64
f 65//65 66//66 213//213 71//71
f 61//61 63//63 380//380 108//108
f 109//109 61//61 108//108
f 64//64 377//377 378//378 63//63
f 66//66 62//62 60//60 263//263
f 59//59 61//61 109//109 112//112
f 60//60 58//58 268//268 265//265
f 263//263 60//60 265//265
f 57//57 59//59 112//112 114//114
f 340//340 57//57 114//114
f 35//35 28//28 25//25 56//56
f 25//25 24//24 55//55 56//56
f 19//19 33//33 37//37 22//22
f 21//21 19//19 22//22
f 10//10 383//383 13//13
f 383//383 10//10 8//8
f 6//6 384//384 383//383 8//8
f 3//3 384//384 6//6
f 32//32 2//2 5//5 31//31
f 12//12 13//13 4//4 1//1
f 385//385 12//12 1//1
f 384//384 3//3 4//4
f 12//12 385//385 14//14
f 383//383 384//384 4//4 13//13
f 20//20 385//385 1//1 34//34
f 1//1 2//2 32//32 34//34
f 14//14 385//385 20//20 15//15
f 31//31 5//5 7//7 386//386
f 9//9 11//11 16//16 387//387
f 7//7 9//9 387//387 386//386
f 19//19 20//20 34//34 33//33
f 33//33 29//29 30//30 37//37
f 19//19 21//21 17//17
f 27//27 31//31 386//386 26//26
f 387//387 16//16 18//18 23//23
f 386//386 387//387 23//23 26//26
f 38//38 39//39 42//42
f 388//388 40//40 41//41
f 22//22 40//40 388//388 55//55
f 24//24 22//22 55//55
f 48//48 39//39 36//36 389//389
f 42//42 39//39 48//48 44//44
f 389//389 36//36 35//35 390//390
f 49//49 388//388 41//41 43//43
f 55//55 388//388 49//49 52//52
f 390//390 35//35 56//56 54//54
f 47//47 48//48 389//389 273//273
f 46//46 47//47 268//268 58//58
f 273//273 389//389 390//390 272//272
f 340//340 50//50 45//45 57//57
f 51//51 50//50 340//340 341//341
f 272//272 390//390 54//54 53//53
f 365//365 382//382 381//381
f 382//382 365//365 366//366 371//371
f 370//370 369//369 70//70 68//68
f 360//360 365//365 381//381 362//362
f 358//358 367//367 357//357
f 70//70 369//369 368//368 375//375
f 377//377 70//70 375//375
f 350//350 359//359 361//361 351//351
f 350//350 347//347 353//353 356//356
f 359//359 350//350 356//356
f 348//348 379//379 378//378 376//376
f 352//352 348//348 376//376
f 381//381 382//382 81//81 84//84
f 372//372 77//77 80//80
f 370//370 68//68 69//69 74//74
f 373//373 370//370 74//74
f 364//364 85//85 88//88
f 361//361 363//363 91//91 94//94
f 351//351 361//361 94//94
f 99//99 345//345 98//98
f 380//380 344//344 105//105 108//108
f 83//83 82//82 233//233 232//232
f 82//82 79//79 259//259 256//256
f 233//233 82//82 256//256
f 258//258 73//73 72//72 260//260
f 257//257 258//258 260//260
f 86//86 83//83 232//232 231//231
f 254//254 86//86 231//231
f 227//227 252//252 228//228
f 219//219 223//223 216//216 215//215
f 92//92 255//255 234//234 236//236
f 93//93 92//92 236//236
f 253//253 237//237 239//239 244//244
f 245//245 246//246 261//261
f 338//338 169//169 170//170
f 129//129 126//126 125//125 339//339
f 316//316 166//166 165//165
f 166//166 316//316 173//173 167//167
f 307//307 308//308 312//312 391//391
f 391//391 312//312 338//338 180//180
f 339//339 125//125 191//191 189//189
f 165//165 339//339 189//189 187//187
f 316//316 165//165 187//187
f 172//172 173//173 185//185 184//184
f 392//392 310//310 307//307 391//391
f 181//181 392//392 391//391 180//180
f 188//188 310//310 392//392 186//186
f 186//186 392//392 181//181 183//183
f 270//270 271//271 276//276 313//313
f 295//295 278//278 280//280 293//293
f 53//53 51//51 341//341 393//393
f 274//274 53//53 393//393
f 275//275 274//274 393//393 315//315
f 279//279 277//277 314//314 127//127
f 269//269 270//270 313//313 394//394
f 394//394 313//313 295//295 296//296
f 393//393 341//341 116//116 118//118
f 315//315 393//393 118//118 120//120
f 127//127 314//314 122//122 124//124
f 206//206 269//269 394//394 301//301
f 301//301 394//394 296//296 298//298
f 303//303 203//203 204//204 302//302
f 309//309 311//311 299//299 305//305
f 117//117 115//115 200//200 199//199
f 119//119 117//117 199//199 197//197
f 123//123 121//121 195//195 193//193
f 395//395 286//286 285//285 163//163
f 160//160 395//395 163//163 162//162
f 287//287 286//286 395//395 396//396
f 396//396 395//395 160//160 158//158
f 285//285 283//283 130//130 132//132
f 163//163 285//285 132//132 134//134
f 287//287 396//396 397//397 168//168
f 289//289 287//287 168//168
f 156//156 397//397 396//396 158//158
f 135//135 133//133 164//164 168//168
f 397//397 135//135 168//168
f 135//135 397//397 156//156 137//137
f 398//398 159//159 161//161 154//154
f 152//152 398//398 154//154 153//153
f 157//157 159//159 398//398 399//399
f 399//399 398//398 152//152 151//151
f 149//149 150//150 148//148
f 161//161 162//162 136//136 138//138
f 154//154 161//161 138//138 140//140
f 153//153 142//142 144//144
f 400//400 155//155 157//157 399//399
f 147//147 400//400 399//399 151//151
f 139//139 155//155 400//400 141//141
f 141//141 400//400 147//147 143//143
f 401//401 175//175 174//174 337//337
f 333//333 401//401 337//337 334//334
f 176//176 175//175 401//401 402//402
f 402//402 401//401 333//333 331//331
f 329//329 330//330 328//328
f 174//174 172//172 184//184 317//317
f 337//337 174//174 317//317 319//319
f 334//334 321//321 323//323
f 402//402 331//331 332//332 336//336
f 403//403 402//402 336//336
f 403//403 179//179 176//176 402//402
f 335//335 332//332 324//324
f 318//318 179//179 403//403 320//320
f 322//322 320//320 403//403 336//336
f 325//325 322//322 336//336
f 264//264 201//201 113//113 202//202
f 199//199 200//200 201//201 264//264 210//210 208//208 205//205 204//204 203//203 198//198
