# Blender 5.0.0
# www.blender.org
mtllib Walk_Forward0032.mtl
o Mball.010
v 1.609082 3.494143 1.336959
v 1.319481 3.203264 1.342889
v 1.255705 3.307160 1.680261
v 1.532044 3.570918 1.676695
v 1.069418 3.301008 1.295144
v 1.030268 3.391342 1.637815
v 0.921141 3.768375 1.204803
v 0.880051 3.858015 1.547323
v 1.089677 4.058580 1.183030
v 1.036457 4.123186 1.527746
v 1.477802 4.001815 1.242750
v 1.429042 4.052442 1.583081
v 1.426705 4.053651 1.589680
v 1.503610 3.976829 1.249935
v 1.561902 3.893345 0.908746
v 1.536094 3.918331 0.901562
v 1.619868 3.809745 0.567534
v 1.594542 3.834263 0.560483
v 1.727590 3.339067 0.653035
v 1.669480 3.421876 0.994349
v 1.632033 3.746262 0.450437
v 1.615894 3.656063 0.258626
v 1.206349 3.891281 0.500716
v 1.294527 3.669771 0.212186
v 1.171924 3.498579 0.206424
v 1.038025 3.601515 0.522450
v 1.186335 3.134160 0.612794
v 1.311885 3.095658 0.243717
v 1.435968 3.036653 0.660446
v 1.475148 3.059491 0.264744
v 1.127710 3.217524 0.953956
v 1.377772 3.119780 1.001701
v 1.725335 3.327057 0.654558
v 1.667373 3.410659 0.995772
v 1.052069 3.497784 -0.032273
v 1.328165 3.652044 -0.130783
v 1.716743 3.266792 0.267666
v 1.702061 3.587140 0.103598
v 1.608347 3.844741 0.030653
v 1.626079 3.652102 0.315613
v 1.565546 3.834515 0.431476
v 1.643676 3.869012 0.102094
v 1.341215 4.256051 0.535049
v 1.416647 4.349596 0.147528
v 1.118797 4.712539 0.576173
v 1.195922 4.813919 0.190426
v 1.164015 4.792696 0.099656
v 1.380447 4.334159 0.064432
v 1.277519 4.206274 0.593168
v 1.056911 4.649973 0.637939
v 0.773675 4.397548 0.665415
v 0.949142 3.985876 0.628648
v 0.622563 4.275376 0.410599
v 0.747369 3.883277 0.387652
v 1.170196 3.618093 0.492559
v 0.969576 3.487139 0.284880
v 0.602068 5.118354 0.587817
v 0.689420 5.249690 0.209900
v 0.392292 5.463863 0.612917
v 0.476921 5.541072 0.225085
v 0.535893 5.854050 0.674950
v 0.620484 5.920488 0.285367
v 0.589763 5.886449 0.686148
v 0.674309 5.951695 0.296464
v 0.366711 6.049952 -0.156356
v 0.350402 5.999978 -0.092866
v 0.766987 6.201455 -0.073965
v 0.811432 6.403761 -0.226355
v 0.457882 6.464949 -0.468957
v 0.946904 6.361650 -0.027521
v -0.025910 6.081407 -0.218773
v 0.065260 6.496404 -0.531374
v 0.076435 6.571777 -0.562044
v 0.469057 6.540322 -0.499627
v 0.507049 6.885546 -0.576129
v 0.114427 6.917001 -0.638546
v 0.523608 7.281328 -0.532920
v 0.130986 7.312783 -0.595338
v 0.120333 7.620988 -0.447501
v 0.512954 7.589533 -0.385083
v 0.507558 7.652296 -0.339333
v 0.114937 7.683751 -0.401750
v 0.053637 7.982722 -0.011204
v 0.446259 7.951267 0.051213
v 0.433132 7.978841 0.123470
v 0.040511 8.010296 0.061053
v -0.024495 8.071097 0.395249
v 0.368127 8.039642 0.457666
v -0.109015 8.006779 0.785033
v 0.283606 7.975324 0.847450
v 0.209070 7.808334 1.156778
v -0.183551 7.839789 1.094361
v -0.199924 7.789766 1.158147
v 0.192697 7.758311 1.220564
v 0.101527 7.343314 1.533165
v -0.291095 7.374769 1.470747
v -0.302270 7.299396 1.501417
v 0.090352 7.267941 1.563835
v 0.052360 6.922717 1.640336
v -0.340262 6.954172 1.577919
v -0.356821 6.558390 1.534711
v 0.035801 6.526935 1.597128
v -0.346167 6.250185 1.386874
v 0.046454 6.218730 1.449291
v 0.051850 6.155967 1.403541
v -0.340771 6.187422 1.341123
v -0.279472 5.888451 0.950578
v 0.113150 5.856996 1.012995
v 0.126212 5.829373 0.941034
v -0.266379 5.860751 0.878457
v -0.236432 5.492717 0.619382
v 0.151700 5.459665 0.700229
v -0.276407 5.009467 0.656452
v 0.120631 4.982106 0.733161
v -0.279739 4.604133 0.603245
v 0.108866 4.573390 0.677413
v -0.242385 4.270465 0.497563
v 0.122670 4.245371 0.552866
v -0.183452 3.932499 0.467825
v 0.172995 4.061531 0.480768
v -0.157285 3.548666 0.456845
v 0.169360 3.719985 0.536106
v -0.143387 3.153849 0.430263
v 0.152437 3.337198 0.595741
v -0.131191 2.759429 0.346400
v 0.132661 2.934483 0.582937
v 0.536641 3.293380 0.482818
v 0.511255 2.896594 0.530761
v 0.114391 2.519579 0.539974
v 0.478690 2.531952 0.671313
v 0.099635 2.202743 0.505017
v 0.452307 2.155137 0.763922
v 0.112164 2.103130 0.546549
v 0.470803 1.770928 0.847872
v 0.154200 1.699325 0.683564
v 0.490469 1.384480 0.927266
v 0.221599 1.313288 0.766629
v 0.511758 0.989095 0.998528
v 0.250369 0.934069 0.850046
v 0.479852 0.529705 0.902659
v 0.238338 0.581087 0.822385
v 0.435948 0.139819 0.843644
v 0.169351 0.196511 0.757690
v 0.399879 -0.179393 0.710295
v 0.395185 -0.220395 0.650682
v 0.285355 -0.128214 0.309129
v 0.139171 0.281121 0.372375
v 0.400771 -0.166267 0.305996
v 0.403791 -0.139113 0.283767
v 0.479590 -0.155391 0.308913
v 0.458207 0.269935 0.211252
v 0.737997 0.203369 0.368681
v 0.641219 0.130487 0.757166
v 0.722747 0.520123 0.819154
v 0.229119 0.850325 0.461839
v 0.194884 1.192206 0.383200
v 0.568135 0.833846 0.257911
v 0.560825 1.156619 0.178385
v 0.922329 0.910005 0.484910
v 0.892544 1.249475 0.425292
v 0.840557 0.938680 0.872922
v 0.816812 1.357016 0.805039
v 0.753332 1.743935 0.715189
v 0.099168 2.089920 0.481497
v -0.109250 2.010134 0.040204
v -0.108571 1.982727 0.028159
v -0.092753 1.578530 -0.130477
v 0.127981 1.776868 0.115660
v -0.120504 1.646746 -0.394423
v -0.115875 1.566894 -0.444299
v -0.165171 1.257906 -0.522281
v -0.212142 1.159063 -0.127170
v -0.127670 1.555409 -0.069720
v -0.398427 0.755471 -0.178431
v -0.297225 0.883452 -0.546912
v -0.492758 0.931406 -0.656161
v -0.513756 1.296218 -0.698320
v -0.787803 1.241090 -0.495825
v -0.808618 0.880898 -0.532301
v -0.521665 1.696401 -0.679260
v -0.820357 1.631874 -0.433736
v -0.692552 1.146088 -0.106757
v -0.740486 1.537474 -0.044609
v -0.472802 1.128229 -0.020232
v -0.475039 1.508749 0.088752
v -0.718783 1.929662 0.015875
v -0.478409 1.903448 0.149840
v -0.706615 2.320900 0.069132
v -0.488124 2.305520 0.206400
v -0.706282 2.716784 0.113949
v -0.510641 2.707105 0.267786
v -0.622453 3.121148 0.154275
v -0.537149 3.117790 0.240265
v -0.592954 3.524690 0.195864
v -0.559829 3.522119 0.235304
v -0.550233 3.982208 0.170406
v -0.520927 3.974069 0.210135
v -0.509345 4.395384 0.127695
v -0.475804 4.390218 0.187640
v -0.576875 4.590058 0.377546
v -0.653355 5.041864 0.424798
v -0.644475 5.126524 0.395625
v -0.523370 4.604918 -0.187372
v -0.494901 4.611702 -0.213462
v -0.548689 5.041355 -0.138003
v -0.116379 4.610026 -0.378011
v -0.111305 5.011731 -0.265624
v -0.578137 5.242331 0.021799
v -0.100926 5.309752 -0.140938
v -0.562737 5.252277 0.025595
v -0.106689 5.605712 0.023342
v -0.286905 5.599813 0.103399
v -0.042264 6.031398 -0.155076
v -0.444518 6.005303 0.115869
v -0.503251 6.048019 0.109308
v -0.410877 6.295820 -0.261217
v -0.587761 5.983006 0.498935
v -0.529046 5.939111 0.505384
v -0.842250 6.433899 0.091267
v -0.926770 6.369580 0.481050
v -0.962369 6.441732 0.482472
v -0.877848 6.506050 0.092688
v -0.576232 6.483676 -0.269663
v -0.741171 6.894000 -0.255309
v -0.794409 6.885859 -0.193406
v -0.724612 7.289782 -0.212101
v -0.777850 7.281641 -0.150198
v -0.833951 7.555261 0.207232
v -0.526556 7.671023 -0.140039
v -0.792573 7.621246 0.220891
v -0.423505 7.949859 0.316162
v -0.346639 7.831219 -0.093596
v -0.316756 7.685473 -0.283982
v -0.508025 7.885540 0.705946
v -0.877094 7.556928 0.610674
v -0.600200 7.638263 1.075755
v -0.780117 7.478068 1.029312
v -0.918472 7.490943 0.597015
v -0.978173 7.096827 0.957250
v -1.001912 7.111135 0.883110
v -1.018471 6.715352 0.839902
v -0.994732 6.701044 0.914042
v -0.716834 6.614659 1.321914
v -0.700275 7.010442 1.365122
v -0.694321 6.248609 1.098521
v -0.829794 6.290721 0.899688
v -0.640044 6.998647 1.414225
v -0.656603 6.602865 1.371017
v -1.061686 6.777498 0.500178
v -1.045127 7.173281 0.543386
v -0.977165 6.841816 0.110394
v -0.960607 7.237599 0.153602
v -0.644645 7.435956 1.228145
v -0.353365 7.983168 0.331290
v -0.437885 7.918849 0.721074
v -0.294243 7.319424 -0.507376
v -0.310802 6.923641 -0.550584
v -0.234000 6.924458 -0.577901
v -0.217442 7.320240 -0.534693
v -0.366432 6.498127 -0.413607
v -0.664439 6.102864 0.908134
v -0.371420 5.523554 0.491233
v 0.289557 5.578212 0.066624
v -0.578537 5.248110 0.031578
v 0.306932 5.282822 -0.099652
v 0.314858 4.933576 -0.243093
v 0.689231 4.874732 -0.046576
v 0.696032 5.197922 0.135698
v 0.295824 4.526775 -0.358637
v 0.630577 4.466346 -0.143448
v 0.700805 4.436673 -0.009659
v 0.700200 4.371499 0.027330
v 0.923474 4.593803 -0.085352
v 0.620699 4.348559 0.365465
v 0.639951 4.016417 0.247335
v 0.679460 3.962519 -0.133770
v 0.666414 3.635189 0.301749
v 0.688331 3.513984 -0.088375
v 0.637926 3.251928 0.384242
v 0.657857 3.120908 -0.002595
v 0.592904 2.867438 0.463544
v 0.634071 2.734905 0.078709
v 0.665116 2.479576 0.549292
v 0.718596 2.348940 0.165045
v 0.695094 2.122561 0.632406
v 0.762478 1.993088 0.248359
v 0.514297 1.909086 0.013018
v 0.520038 2.301600 -0.052413
v 0.130796 1.989265 0.031406
v 0.139903 2.357956 -0.107524
v 0.541950 2.712331 -0.041024
v 0.160379 2.734988 -0.231709
v 0.566866 3.098382 -0.130138
v 0.178506 3.107561 -0.364070
v 0.593905 3.498164 -0.216103
v 0.206432 3.530255 -0.434079
v -0.208762 3.243417 -0.505169
v -0.213123 3.651142 -0.490072
v -0.589882 3.215571 -0.347064
v -0.600113 3.602257 -0.241841
v -0.201468 4.084765 -0.462955
v -0.555190 4.094588 -0.236463
v -0.581187 4.084259 -0.199390
v -0.628196 3.592610 -0.199710
v -0.579716 2.837090 -0.481879
v -0.195186 2.847569 -0.500686
v -0.557529 2.450322 -0.541000
v -0.173115 2.449735 -0.452405
v -0.772133 2.788568 -0.278255
v -0.783868 2.395651 -0.322237
v -0.674066 3.191132 -0.239009
v -0.149178 2.045352 -0.392242
v 0.605761 3.962067 -0.255084
v 0.561280 3.676126 0.404190
v 0.546500 4.036304 0.348432
v -0.112189 1.979635 0.032602
v -0.472288 0.746111 -0.142256
v -0.711545 0.746294 -0.167401
v -0.485258 0.338630 -0.384133
v -0.823588 0.435035 -0.448119
v -0.462270 0.137878 -0.669352
v -0.822936 0.238824 -0.741415
v -0.433571 0.037033 -0.922611
v -0.775160 0.550158 -1.109443
v -0.844529 0.271589 -0.758367
v -0.420862 0.063288 -0.999317
v -0.656510 0.460056 -1.202860
v -0.368582 0.420655 -1.190218
v -0.365721 0.467756 -1.186894
v -0.331819 0.431471 -1.167447
v -0.374706 0.785993 -0.974837
v -0.787072 0.694221 -0.954711
v -0.210529 0.614216 -0.878895
v -0.353103 0.197461 -0.690172
v -0.809545 0.671327 -0.945147
v -0.821815 0.806613 -0.686195
v -0.358138 0.399060 -0.405243
v -0.124009 1.650446 -0.420856
v -0.119367 2.369662 0.198485
v 0.590248 5.018667 0.623279
v 0.542156 4.624678 0.620527
v 0.384228 6.519478 1.536484
v 0.461030 6.520294 1.509166
v 0.483543 6.154244 1.285773
v 0.400787 6.915261 1.579692
v 0.477589 6.916077 1.552374
v 0.907957 6.945719 1.257099
v 0.891398 6.549936 1.213891
v 0.533219 7.341591 1.415397
v 0.743019 7.356041 1.271454
v 0.577664 7.543898 1.263007
v 0.944637 6.558077 1.151989
v 0.961195 6.953859 1.195197
v 1.143952 6.997902 0.891397
v 1.127393 6.602119 0.848189
v 1.044635 7.333668 0.909102
v 1.129156 7.397986 0.519319
v 1.228473 7.062220 0.501613
v 1.009037 7.405819 0.910524
v 1.093557 7.470138 0.520740
v 0.669839 7.791175 0.893198
v 0.754360 7.855494 0.503414
v 0.602946 7.835463 0.886541
v 0.687467 7.899781 0.496757
v 0.996581 7.548997 0.102103
v 1.161519 7.138674 0.087749
v 1.185257 7.124366 0.161888
v 1.168699 6.728584 0.118680
v 1.144960 6.742891 0.044540
v 0.867062 6.829276 -0.363332
v 0.883621 7.225059 -0.320124
v 0.823390 7.236853 -0.369226
v 0.806831 6.841071 -0.412434
v 1.211914 6.666438 0.458405
v 1.085259 6.348775 0.404775
v 1.000738 6.284456 0.794559
v 1.043881 6.282791 0.391116
v 0.959360 6.218472 0.780900
v 0.693343 6.168694 1.141830
v 0.513426 6.008499 1.095386
v 0.831226 7.736854 0.093657
v 0.861108 7.591108 -0.096730
v 1.041327 3.998802 1.835036
v 1.174362 3.516185 1.891744
v 1.611189 3.505360 1.335537
v 0.979433 3.684891 0.863615
v 1.147968 3.975097 0.841842
v 1.497996 3.802185 0.488210
v 1.094930 4.165778 -0.121686
v 0.822488 3.975436 0.001643
v -0.530036 2.079884 -0.609405
v -0.793483 2.020267 -0.374109
v 0.514961 4.315565 0.449866
v 0.262318 4.081397 -0.451407
v 0.823891 1.617138 0.331287
v 0.533326 1.519345 0.093158
v 0.136238 1.578725 0.246137
v 0.825695 0.574845 0.438128
v 0.513189 0.621258 0.270915
v 0.211384 0.632076 0.439581
v -0.221979 0.769492 -0.615013
v -0.412389 0.929414 -0.725804
v -0.823376 0.816639 -0.666565
vn 0.8701 -0.3714 0.3240
vn 0.1741 -0.9428 0.2844
vn 0.1312 -0.8537 0.5040
vn 0.8097 -0.1456 0.5684
vn -0.7382 -0.6714 0.0655
vn -0.7443 -0.5786 0.3335
vn -0.9829 0.0861 -0.1626
vn -0.9835 0.1168 0.1382
vn -0.4054 0.8790 -0.2508
vn -0.4143 0.9093 0.0399
vn 0.4497 0.8872 -0.1036
vn 0.6902 0.7230 0.0305
vn 0.5862 0.7246 0.3623
vn 0.8655 0.4980 0.0533
vn 0.8687 0.4946 0.0270
vn 0.4591 0.8778 -0.1369
vn 0.8689 0.4897 -0.0723
vn 0.4558 0.8467 -0.2745
vn 0.9909 0.1275 0.0431
vn 0.9866 0.0427 0.1577
vn 0.7498 0.5818 -0.3152
vn 0.9910 0.1313 0.0273
vn -0.3601 0.8255 -0.4346
vn -0.2975 -0.2446 -0.9229
vn -0.7207 -0.6931 0.0137
vn -0.9478 0.0784 -0.3091
vn -0.7097 -0.7013 -0.0667
vn -0.4436 -0.7735 -0.4526
vn 0.2026 -0.9696 0.1375
vn 0.2581 -0.8714 -0.4172
vn -0.7349 -0.6770 0.0396
vn 0.1782 -0.9485 0.2621
vn 0.9225 -0.3628 0.1321
vn 0.8641 -0.4348 0.2536
vn -0.5650 -0.5423 -0.6219
vn 0.1519 -0.1823 -0.9714
vn 0.8602 -0.3820 -0.3379
vn 0.9197 -0.0906 -0.3819
vn 0.6650 0.1993 -0.7198
vn 0.8134 -0.2351 0.5320
vn 0.8275 0.1240 0.5476
vn 0.9390 0.3208 -0.1236
vn 0.7686 0.2942 0.5681
vn 0.8968 0.4331 -0.0904
vn 0.6457 0.4720 0.6003
vn 0.7861 0.6167 -0.0417
vn 0.5870 0.4907 -0.6440
vn 0.6378 0.3434 -0.6894
vn 0.3817 0.0247 0.9240
vn 0.2784 0.1765 0.9441
vn -0.2410 -0.2008 0.9495
vn -0.2591 -0.2943 0.9199
vn -0.8733 -0.4740 0.1130
vn -0.8574 -0.4427 0.2624
vn 0.0508 -0.6920 0.7201
vn -0.5879 -0.7504 0.3022
vn 0.5175 0.4653 0.7181
vn 0.7226 0.6790 -0.1297
vn 0.6957 -0.0531 0.7164
vn 0.9375 0.1313 -0.3222
vn 0.5902 -0.7345 0.3349
vn 0.7016 -0.6448 -0.3032
vn 0.5168 -0.8397 0.1667
vn 0.5805 -0.7878 -0.2058
vn 0.2383 -0.7215 -0.6501
vn 0.3461 -0.6209 -0.7033
vn 0.5307 -0.6819 -0.5034
vn 0.5816 -0.4507 -0.6772
vn 0.2786 -0.4871 -0.8277
vn 0.7575 -0.4894 -0.4321
vn -0.1262 -0.6892 -0.7135
vn -0.0739 -0.4604 -0.8846
vn -0.0552 -0.2899 -0.9555
vn 0.3109 -0.3164 -0.8962
vn 0.3129 -0.0715 -0.9471
vn -0.0069 -0.0501 -0.9987
vn 0.3350 0.2549 -0.9071
vn 0.0100 0.2731 -0.9619
vn -0.0342 0.5269 -0.8493
vn 0.3619 0.5002 -0.7866
vn 0.3434 0.6721 -0.6560
vn -0.0249 0.6825 -0.7305
vn -0.0438 0.8826 -0.4681
vn 0.3297 0.8553 -0.3997
vn 0.3212 0.9218 -0.2171
vn -0.0760 0.9578 -0.2773
vn -0.0832 0.9963 -0.0235
vn 0.2359 0.9709 0.0414
vn -0.1352 0.9476 0.2895
vn 0.1788 0.9192 0.3509
vn 0.1726 0.7940 0.5829
vn -0.2016 0.8374 0.5081
vn -0.2245 0.7189 0.6579
vn 0.1254 0.6912 0.7117
vn 0.0746 0.4579 0.8859
vn -0.2786 0.4871 0.8277
vn -0.3109 0.3164 0.8962
vn 0.0571 0.2875 0.9561
vn 0.0069 0.0501 0.9987
vn -0.3129 0.0715 0.9471
vn -0.3350 -0.2549 0.9071
vn -0.0100 -0.2731 0.9619
vn -0.3619 -0.5002 0.7866
vn 0.0139 -0.5193 0.8545
vn 0.0122 -0.6908 0.7230
vn -0.3434 -0.6721 0.6560
vn -0.3214 -0.8584 0.3999
vn 0.0470 -0.8765 0.4791
vn 0.1234 -0.7845 0.6077
vn -0.4255 -0.7733 0.4701
vn -0.4914 -0.1906 0.8498
vn 0.1156 -0.2175 0.9692
vn -0.4018 -0.0054 0.9157
vn 0.0170 -0.0096 0.9998
vn -0.4209 -0.2762 0.8640
vn 0.0070 -0.2529 0.9675
vn -0.4563 -0.2674 0.8487
vn 0.0614 -0.3131 0.9477
vn -0.3783 -0.0282 0.9253
vn 0.1325 -0.0979 0.9863
vn -0.4043 0.0184 0.9144
vn 0.0479 0.1066 0.9931
vn -0.4435 -0.0563 0.8945
vn -0.0890 0.0479 0.9949
vn -0.4475 -0.1563 0.8805
vn -0.2846 -0.0202 0.9584
vn 0.4955 0.0880 0.8641
vn 0.3874 0.1264 0.9132
vn -0.5578 -0.0205 0.8297
vn 0.1540 0.1933 0.9690
vn -0.7600 0.0041 0.6499
vn -0.0230 0.2161 0.9761
vn -0.8455 0.0876 0.5268
vn -0.0492 0.2238 0.9734
vn -0.8494 0.0302 0.5268
vn -0.0744 0.1881 0.9793
vn -0.8457 0.0159 0.5335
vn -0.0522 0.0138 0.9985
vn -0.8114 -0.0089 0.5844
vn -0.0167 -0.1679 0.9857
vn -0.7896 -0.0056 0.6136
vn -0.0009 -0.2723 0.9622
vn -0.8277 -0.2338 0.5101
vn -0.0491 -0.8280 0.5586
vn -0.0039 -0.9376 0.3476
vn -0.7168 -0.5134 -0.4718
vn -0.8874 -0.0207 -0.4606
vn -0.0775 -0.8723 -0.4829
vn -0.0192 -0.3785 -0.9254
vn 0.5562 -0.6750 -0.4848
vn 0.0130 0.0261 -0.9996
vn 0.8519 -0.2965 -0.4317
vn 0.7151 -0.4176 0.5606
vn 0.7118 -0.2681 0.6493
vn -0.9009 -0.0406 -0.4322
vn -0.8728 -0.2168 -0.4372
vn 0.0711 -0.1124 -0.9911
vn 0.0919 -0.2292 -0.9690
vn 0.9429 -0.1302 -0.3065
vn 0.9353 0.0203 -0.3532
vn 0.7556 -0.0669 0.6516
vn 0.7738 0.2041 0.5997
vn 0.7914 0.2404 0.5621
vn -0.9536 -0.1428 0.2652
vn -0.3716 -0.2480 0.8947
vn 0.1110 -0.4573 0.8824
vn 0.7230 -0.6813 0.1145
vn -0.5513 -0.6949 -0.4617
vn 0.9685 -0.0835 -0.2347
vn 0.8593 0.0423 -0.5097
vn 0.8468 -0.1296 -0.5159
vn 0.7942 -0.3179 0.5178
vn 0.7471 -0.2821 0.6019
vn 0.6816 -0.3346 0.6507
vn 0.9760 0.1387 -0.1681
vn -0.0256 0.6008 -0.7990
vn -0.0514 0.0256 -0.9983
vn -0.9202 -0.0240 -0.3906
vn -0.9529 0.2668 -0.1446
vn -0.0636 0.1163 -0.9912
vn -0.9466 0.0258 -0.3215
vn -0.7346 -0.1575 0.6600
vn -0.8020 -0.1237 0.5844
vn 0.0429 -0.2586 0.9650
vn -0.0264 -0.2115 0.9770
vn -0.8089 -0.0575 0.5851
vn -0.1001 -0.1867 0.9773
vn -0.8285 -0.0668 0.5560
vn -0.2390 -0.2024 0.9497
vn -0.8589 0.0253 0.5114
vn -0.4028 -0.1175 0.9077
vn -0.8784 0.0778 0.4715
vn -0.5482 -0.0287 0.8359
vn -0.9069 0.0652 0.4163
vn -0.6374 0.0131 0.7704
vn -0.9265 0.1132 0.3589
vn -0.7240 0.0591 0.6872
vn -0.9928 0.0266 0.1168
vn -0.9015 -0.1303 0.4128
vn -0.8862 -0.2647 0.3802
vn -0.9178 0.0182 0.3965
vn -0.8111 0.3619 0.4596
vn -0.9594 0.0121 -0.2817
vn -0.6802 0.0993 -0.7262
vn -0.7323 0.1743 -0.6583
vn -0.1516 0.2056 -0.9668
vn -0.1022 0.3320 -0.9377
vn -0.7831 0.2719 -0.5593
vn -0.0984 0.4610 -0.8820
vn -0.6395 0.6507 -0.4094
vn -0.2067 0.0931 -0.9740
vn -0.7479 0.1487 -0.6470
vn -0.2056 -0.5824 -0.7865
vn -0.6150 -0.5755 -0.5390
vn -0.5715 -0.6998 -0.4285
vn -0.4253 -0.5992 -0.6783
vn -0.6646 -0.7420 -0.0877
vn -0.7428 -0.6689 0.0283
vn -0.7646 -0.4843 -0.4253
vn -0.8333 -0.5458 -0.0873
vn -0.9269 -0.3690 -0.0681
vn -0.8502 -0.3128 -0.4233
vn -0.6177 -0.3823 -0.6872
vn -0.6751 -0.0739 -0.7341
vn -0.7898 -0.1018 -0.6049
vn -0.6739 0.2875 -0.6806
vn -0.7954 0.2814 -0.5368
vn -0.8263 0.4831 -0.2895
vn -0.5922 0.5936 -0.5450
vn -0.7212 0.6533 -0.2305
vn -0.5005 0.8501 -0.1639
vn -0.3754 0.7987 -0.4703
vn -0.3473 0.6041 -0.7173
vn -0.5536 0.8087 0.1992
vn -0.7900 0.6022 0.1155
vn -0.5335 0.6793 0.5039
vn -0.7586 0.4893 0.4303
vn -0.8970 0.4358 0.0742
vn -0.8785 0.1794 0.4429
vn -0.9380 0.2209 0.2671
vn -0.9681 -0.1709 0.1831
vn -0.9067 -0.1915 0.3758
vn -0.7244 -0.2303 0.6497
vn -0.6994 0.1447 0.7000
vn -0.6517 -0.5508 0.5214
vn -0.8201 -0.5075 0.2645
vn -0.5511 0.1399 0.8226
vn -0.5675 -0.2587 0.7817
vn -0.9913 -0.1149 -0.0647
vn -0.9783 0.2069 -0.0095
vn -0.9235 -0.0804 -0.3752
vn -0.9157 0.2383 -0.3235
vn -0.5816 0.4507 0.6772
vn -0.3340 0.9329 -0.1349
vn -0.3793 0.8898 0.2536
vn -0.4230 0.3036 -0.8538
vn -0.4434 -0.0542 -0.8947
vn -0.2608 -0.0648 -0.9632
vn -0.2563 0.3222 -0.9113
vn -0.3838 -0.3751 -0.8438
vn -0.6207 -0.7349 0.2731
vn -0.9289 0.0038 0.3703
vn 0.4639 0.0681 -0.8833
vn -0.9583 0.2837 -0.0334
vn 0.3449 0.4435 -0.8273
vn 0.3207 0.3025 -0.8976
vn 0.3986 0.3338 -0.8542
vn 0.5372 0.5500 -0.6395
vn 0.3108 0.1927 -0.9307
vn 0.5778 0.0074 -0.8162
vn 0.7372 -0.4555 -0.4990
vn -0.7632 -0.2659 -0.5890
vn 0.2043 0.1472 -0.9678
vn -0.1611 -0.9868 0.0155
vn 0.9216 -0.0028 0.3880
vn 0.9669 0.0119 -0.2549
vn 0.9193 0.0594 0.3890
vn 0.9612 -0.0690 -0.2672
vn 0.9048 0.0065 0.4258
vn 0.9591 -0.1286 -0.2522
vn 0.8800 0.1255 0.4582
vn 0.9538 -0.0043 -0.3004
vn 0.8538 0.2179 0.4729
vn 0.9454 0.0616 -0.3202
vn 0.8166 0.2069 0.5388
vn 0.9418 0.0359 -0.3342
vn 0.3103 -0.2264 -0.9233
vn 0.4558 -0.1448 -0.8782
vn 0.4668 -0.2455 -0.8496
vn 0.4715 -0.1873 -0.8617
vn 0.6091 -0.1497 -0.7788
vn 0.4771 -0.1934 -0.8573
vn 0.6550 -0.2122 -0.7252
vn 0.4121 -0.1780 -0.8936
vn 0.6666 -0.1331 -0.7334
vn 0.3211 -0.0872 -0.9430
vn -0.0311 0.0186 -0.9993
vn -0.2024 0.0350 -0.9787
vn -0.5961 0.1684 -0.7850
vn -0.6932 0.1051 -0.7131
vn -0.2385 0.1015 -0.9658
vn -0.6625 0.1044 -0.7418
vn -0.9613 0.1048 -0.2549
vn -0.9674 0.1085 -0.2289
vn -0.4340 0.1292 -0.8916
vn 0.2347 -0.0388 -0.9713
vn -0.2768 0.0676 -0.9585
vn 0.4862 -0.0680 -0.8712
vn -0.9565 0.1359 -0.2582
vn -0.9553 0.0502 -0.2913
vn -0.9528 0.1769 -0.2467
vn 0.6588 0.0217 -0.7520
vn 0.6889 0.0128 -0.7247
vn 0.5455 0.1397 0.8264
vn 0.5511 -0.0519 0.8328
vn 0.6407 -0.2103 0.7384
vn 0.0892 -0.4008 0.9118
vn -0.6483 -0.2525 0.7183
vn 0.0705 -0.7016 0.7091
vn -0.7815 -0.4050 0.4745
vn 0.0793 -0.8754 0.4769
vn -0.7287 -0.6816 0.0668
vn 0.2136 -0.9626 -0.1668
vn -0.6735 0.1407 -0.7256
vn -0.9313 -0.3606 0.0512
vn 0.3076 -0.8398 -0.4474
vn -0.4154 -0.0934 -0.9048
vn 0.2924 -0.2453 -0.9243
vn 0.3625 0.3439 -0.8662
vn 0.8135 -0.1004 -0.5728
vn 0.3215 0.7401 -0.5906
vn -0.4807 0.7031 -0.5240
vn 0.9706 0.1184 -0.2096
vn 0.7895 -0.5627 0.2450
vn -0.9044 0.3030 -0.3004
vn -0.7958 0.5314 -0.2905
vn 0.7339 -0.4204 0.5335
vn 0.7915 0.0893 -0.6046
vn -0.4219 -0.2332 0.8761
vn 0.1961 0.2129 0.9572
vn 0.0220 -0.1949 0.9806
vn 0.2401 -0.3033 0.9221
vn 0.4196 -0.2971 0.8577
vn 0.3505 -0.6063 0.7138
vn 0.2697 0.0835 0.9593
vn 0.4347 0.0670 0.8981
vn 0.6794 0.0676 0.7307
vn 0.6692 -0.2947 0.6822
vn 0.3828 0.3740 0.8448
vn 0.6162 0.3831 0.6882
vn 0.4253 0.5992 0.6783
vn 0.7816 -0.3010 0.5464
vn 0.8027 0.0850 0.5903
vn 0.9235 0.0804 0.3752
vn 0.9157 -0.2383 0.3235
vn 0.8476 0.3233 0.4208
vn 0.9309 0.3596 0.0638
vn 0.9913 0.1149 0.0647
vn 0.7578 0.4999 0.4192
vn 0.8434 0.5313 0.0793
vn 0.5620 0.7103 0.4238
vn 0.6304 0.7729 0.0730
vn 0.4109 0.8070 0.4242
vn 0.4713 0.8806 0.0493
vn 0.8210 0.5068 -0.2630
vn 0.9035 0.1996 -0.3792
vn 0.9614 0.1919 -0.1971
vn 0.9474 -0.2043 -0.2462
vn 0.8824 -0.1733 -0.4374
vn 0.6994 -0.1447 -0.7000
vn 0.7244 0.2303 -0.6497
vn 0.5675 0.2587 -0.7817
vn 0.5511 -0.1399 -0.8226
vn 0.9783 -0.2069 0.0095
vn 0.8917 -0.4466 -0.0731
vn 0.8295 -0.4742 0.2950
vn 0.7800 -0.6155 -0.1133
vn 0.7309 -0.6379 0.2427
vn 0.5938 -0.5917 0.5452
vn 0.3769 -0.7952 0.4749
vn 0.6187 0.7378 -0.2699
vn 0.6517 0.5508 -0.5214
vn -0.3341 0.4802 0.8111
vn -0.1157 -0.2763 0.9541
vn 0.9266 0.0307 0.3748
vn -0.9785 0.0843 -0.1883
vn -0.4065 0.8689 -0.2826
vn 0.4587 -0.2830 0.8423
vn 0.0285 0.0826 -0.9962
vn -0.7117 -0.2459 -0.6581
vn -0.1295 0.1217 -0.9841
vn -0.9491 0.0779 -0.3051
vn 0.1277 -0.4924 0.8609
vn 0.2960 0.0721 -0.9525
vn 0.9289 0.0529 -0.3665
vn 0.1688 -0.2438 -0.9550
vn -0.8567 -0.2282 -0.4625
vn 0.8969 -0.1831 -0.4025
vn -0.0015 0.0915 -0.9958
vn -0.8714 0.1663 -0.4615
vn 0.9603 0.2656 0.0852
vn 0.2961 0.8953 -0.3329
vn -0.8128 0.5514 -0.1880
s 1
f 4//4 3//3 2//2 1//1
f 2//2 3//3 6//6 5//5
f 5//5 6//6 8//8 7//7
f 8//8 10//10 9//9 7//7
f 13//13 12//12 11//11 9//9
f 10//10 13//13 9//9
f 11//11 12//12 14//14
f 16//16 11//11 14//14 15//15
f 18//18 16//16 15//15 17//17
f 15//15 20//20 19//19 17//17
f 21//21 18//18 17//17
f 23//23 18//18 21//21 22//22
f 24//24 23//23 22//22
f 26//26 23//23 24//24 25//25
f 28//28 27//27 26//26 25//25
f 30//30 29//29 27//27 28//28
f 29//29 32//32 31//31 27//27
f 34//34 32//32 29//29 33//33
f 36//36 30//30 28//28 35//35
f 38//38 37//37 30//30 36//36
f 39//39 38//38 36//36
f 37//37 38//38 40//40 22//22
f 40//40 38//38 42//42 41//41
f 41//41 42//42 44//44 43//43
f 43//43 44//44 46//46 45//45
f 44//44 48//48 47//47 46//46
f 50//50 49//49 43//43 45//45
f 52//52 49//49 50//50 51//51
f 54//54 52//52 51//51 53//53
f 56//56 55//55 52//52 54//54
f 45//45 46//46 58//58 57//57
f 58//58 60//60 59//59 57//57
f 60//60 62//62 61//61 59//59
f 61//61 62//62 64//64 63//63
f 64//64 62//62 66//66 65//65
f 67//67 64//64 65//65
f 69//69 68//68 67//67 65//65
f 68//68 70//70 67//67
f 72//72 69//69 65//65 71//71
f 74//74 69//69 72//72 73//73
f 76//76 75//75 74//74 73//73
f 78//78 77//77 75//75 76//76
f 80//80 77//77 78//78 79//79
f 82//82 81//81 80//80 79//79
f 84//84 81//81 82//82 83//83
f 86//86 85//85 84//84 83//83
f 88//88 85//85 86//86 87//87
f 90//90 88//88 87//87 89//89
f 92//92 91//91 90//90 89//89
f 94//94 91//91 92//92 93//93
f 96//96 95//95 94//94 93//93
f 98//98 95//95 96//96 97//97
f 100//100 99//99 98//98 97//97
f 102//102 99//99 100//100 101//101
f 104//104 102//102 101//101 103//103
f 106//106 105//105 104//104 103//103
f 108//108 105//105 106//106 107//107
f 110//110 109//109 108//108 107//107
f 112//112 109//109 110//110 111//111
f 114//114 112//112 111//111 113//113
f 116//116 114//114 113//113 115//115
f 118//118 116//116 115//115 117//117
f 120//120 118//118 117//117 119//119
f 122//122 120//120 119//119 121//121
f 124//124 122//122 121//121 123//123
f 126//126 124//124 123//123 125//125
f 128//128 127//127 124//124 126//126
f 130//130 128//128 126//126 129//129
f 132//132 130//130 129//129 131//131
f 133//133 132//132 131//131
f 132//132 133//133 135//135 134//134
f 134//134 135//135 137//137 136//136
f 136//136 137//137 139//139 138//138
f 138//138 139//139 141//141 140//140
f 140//140 141//141 143//143 142//142
f 142//142 143//143 144//144
f 147//147 146//146 145//145 144//144
f 143//143 147//147 144//144
f 145//145 146//146 148//148
f 146//146 149//149 148//148
f 150//150 145//145 148//148
f 146//146 147//147 151//151 149//149
f 151//151 152//152 150//150 149//149
f 150//150 152//152 153//153 144//144
f 145//145 150//150 144//144
f 153//153 154//154 140//140 142//142
f 137//137 156//156 155//155 139//139
f 155//155 156//156 158//158 157//157
f 158//158 160//160 159//159 157//157
f 159//159 160//160 162//162 161//161
f 162//162 163//163 134//134 136//136
f 164//164 133//133 131//131
f 166//166 164//164 131//131 165//165
f 168//168 164//164 166//166 167//167
f 169//169 168//168 167//167
f 169//169 167//167 170//170
f 173//173 172//172 171//171 170//170
f 167//167 173//173 170//170
f 175//175 171//171 172//172 174//174
f 177//177 171//171 175//175 176//176
f 179//179 178//178 177//177 176//176
f 178//178 181//181 180//180 177//177
f 183//183 181//181 178//178 182//182
f 185//185 183//183 182//182 184//184
f 187//187 186//186 183//183 185//185
f 189//189 188//188 186//186 187//187
f 191//191 190//190 188//188 189//189
f 193//193 192//192 190//190 191//191
f 195//195 194//194 192//192 193//193
f 197//197 196//196 194//194 195//195
f 199//199 198//198 196//196 197//197
f 205//205 207//207 206//206 204//204
f 209//209 207//207 205//205 208//208
f 210//210 209//209 208//208
f 210//210 212//212 211//211 209//209
f 212//212 214//214 213//213 211//211
f 71//71 213//213 214//214 215//215
f 216//216 71//71 215//215
f 215//215 214//214 218//218 217//217
f 220//220 219//219 215//215 217//217
f 222//222 219//219 220//220 221//221
f 224//224 223//223 219//219 222//222
f 225//225 224//224 222//222
f 227//227 226//226 224//224 225//225
f 229//229 226//226 227//227 228//228
f 230//230 229//229 228//228
f 232//232 229//229 230//230 231//231
f 233//233 229//229 232//232
f 231//231 230//230 235//235 234//234
f 234//234 235//235 237//237 236//236
f 239//239 237//237 235//235 238//238
f 240//240 239//239 238//238
f 242//242 239//239 240//240 241//241
f 244//244 239//239 242//242 243//243
f 243//243 242//242 246//246 245//245
f 248//248 247//247 244//244 243//243
f 240//240 250//250 249//249 241//241
f 241//241 249//249 221//221
f 250//250 252//252 251//251 249//249
f 228//228 252//252 250//250 238//238
f 250//250 240//240 238//238
f 237//237 253//253 236//236
f 255//255 254//254 231//231 234//234
f 226//226 229//229 233//233 256//256
f 235//235 230//230 228//228 238//238
f 224//224 226//226 256//256 257//257
f 256//256 259//259 258//258 257//257
f 251//251 252//252 227//227 225//225
f 223//223 224//224 257//257 260//260
f 223//223 260//260 216//216
f 251//251 225//225 222//222
f 246//246 242//242 241//241 221//221
f 220//220 246//246 221//221
f 249//249 251//251 222//222 221//221
f 246//246 220//220 217//217 261//261
f 218//218 214//214 212//212 262//262
f 213//213 66//66 263//263 211//211
f 212//212 210//210 264//264 202//202
f 262//262 212//212 202//202
f 211//211 263//263 265//265 209//209
f 209//209 265//265 266//266 207//207
f 265//265 268//268 267//267 266//266
f 266//266 267//267 270//270 269//269
f 273//273 272//272 271//271 270//270
f 267//267 273//273 270//270
f 274//274 271//271 272//272 53//53
f 276//276 271//271 274//274 275//275
f 278//278 276//276 275//275 277//277
f 280//280 278//278 277//277 279//279
f 282//282 280//280 279//279 281//281
f 284//284 282//282 281//281 283//283
f 286//286 284//284 283//283 285//285
f 288//288 284//284 286//286 287//287
f 290//290 288//288 287//287 289//289
f 292//292 291//291 288//288 290//290
f 294//294 293//293 291//291 292//292
f 296//296 295//295 293//293 294//294
f 298//298 296//296 294//294 297//297
f 300//300 298//298 297//297 299//299
f 302//302 301//301 298//298 300//300
f 304//304 303//303 302//302 300//300
f 299//299 297//297 306//306 305//305
f 305//305 306//306 308//308 307//307
f 310//310 309//309 305//305 307//307
f 311//311 304//304 300//300 299//299
f 297//297 294//294 292//292 306//306
f 306//306 292//292 290//290 308//308
f 308//308 290//290 289//289 312//312
f 291//291 282//282 284//284 288//288
f 293//293 280//280 282//282 291//291
f 313//313 276//276 278//278 295//295
f 277//277 275//275 315//315 314//314
f 268//268 47//47 273//273 267//267
f 204//204 206//206 301//301 302//302
f 207//207 266//266 269//269 206//206
f 198//198 203//203 303//303 196//196
f 196//196 303//303 304//304 194//194
f 194//194 304//304 311//311 192//192
f 192//192 311//311 309//309 190//190
f 190//190 309//309 310//310 188//188
f 173//173 316//316 187//187 185//185
f 184//184 182//182 318//318 317//317
f 317//317 318//318 320//320 319//319
f 319//319 320//320 322//322 321//321
f 321//321 322//322 323//323
f 323//323 322//322 325//325 324//324
f 327//327 326//326 323//323 324//324
f 326//326 327//327 328//328
f 327//327 329//329 328//328
f 330//330 326//326 328//328
f 331//331 329//329 327//327 324//324
f 332//332 331//331 324//324
f 331//331 333//333 330//330 329//329
f 330//330 333//333 334//334 323//323
f 326//326 330//330 323//323
f 325//325 335//335 324//324
f 335//335 325//325 336//336
f 332//332 335//335 336//336
f 334//334 337//337 319//319 321//321
f 182//182 178//178 179//179 318//318
f 338//338 170//170 171//171 177//177
f 180//180 338//338 177//177
f 289//289 168//168 169//169 338//338
f 312//312 289//289 338//338
f 131//131 129//129 339//339 165//165
f 283//283 281//281 128//128 130//130
f 281//281 279//279 127//127 128//128
f 125//125 123//123 193//193 191//191
f 314//314 315//315 120//120 122//122
f 121//121 119//119 197//197 195//195
f 341//341 340//340 114//114 116//116
f 115//115 113//113 201//201 200//200
f 113//113 111//111 262//262 202//202
f 110//110 218//218 262//262 111//111
f 218//218 110//110 107//107 261//261
f 217//217 218//218 261//261
f 107//107 106//106 245//245 261//261
f 344//344 343//343 342//342 104//104
f 105//105 344//344 104//104
f 346//346 345//345 342//342 343//343
f 348//348 347//347 346//346 343//343
f 347//347 350//350 349//349 346//346
f 349//349 350//350 351//351
f 353//353 347//347 348//348 352//352
f 355//355 354//354 353//353 352//352
f 353//353 354//354 356//356
f 354//354 358//358 357//357 356//356
f 357//357 360//360 359//359 356//356
f 359//359 360//360 362//362 361//361
f 362//362 364//364 363//363 361//361
f 366//366 365//365 360//360 357//357
f 367//367 366//366 357//357
f 369//369 366//366 367//367 368//368
f 371//371 366//366 369//369 370//370
f 373//373 372//372 371//371 370//370
f 367//367 358//358 374//374 368//368
f 368//368 374//374 375//375
f 375//375 374//374 355//355 376//376
f 378//378 377//377 375//375 376//376
f 355//355 352//352 376//376
f 374//374 358//358 354//354 355//355
f 379//379 348//348 343//343 344//344
f 379//379 344//344 380//380
f 63//63 378//378 379//379 380//380
f 103//103 248//248 243//243 245//245
f 106//106 103//103 245//245
f 342//342 102//102 104//104
f 101//101 248//248 103//103
f 342//342 345//345 99//99 102//102
f 100//100 247//247 248//248 101//101
f 247//247 100//100 97//97
f 346//346 349//349 95//95 98//98
f 345//345 346//346 98//98
f 97//97 96//96 253//253 244//244
f 247//247 97//97 244//244
f 95//95 349//349 351//351 94//94
f 253//253 96//96 93//93 236//236
f 91//91 363//363 90//90
f 255//255 92//92 89//89
f 363//363 364//364 88//88 90//90
f 87//87 254//254 255//255 89//89
f 86//86 254//254 87//87
f 364//364 362//362 381//381 84//84
f 85//85 364//364 84//84
f 382//382 371//371 372//372 80//80
f 81//81 382//382 80//80
f 78//78 259//259 79//79
f 77//77 372//372 373//373 75//75
f 258//258 259//259 78//78 76//76
f 75//75 373//373 74//74
f 258//258 76//76 73//73
f 260//260 72//72 71//71 216//216
f 67//67 70//70 377//377 64//64
f 65//65 66//66 213//213 71//71
f 61//61 63//63 380//380 108//108
f 109//109 61//61 108//108
f 64//64 377//377 378//378 63//63
f 66//66 62//62 60//60 263//263
f 59//59 61//61 109//109 112//112
f 60//60 58//58 268//268 265//265
f 263//263 60//60 265//265
f 57//57 59//59 112//112 114//114
f 340//340 57//57 114//114
f 35//35 28//28 25//25 56//56
f 25//25 24//24 55//55 56//56
f 19//19 33//33 37//37 22//22
f 21//21 19//19 22//22
f 10//10 383//383 13//13
f 383//383 10//10 8//8
f 6//6 384//384 383//383 8//8
f 3//3 384//384 6//6
f 32//32 2//2 5//5 31//31
f 12//12 13//13 4//4 1//1
f 385//385 12//12 1//1
f 384//384 3//3 4//4
f 12//12 385//385 14//14
f 383//383 384//384 4//4 13//13
f 20//20 385//385 1//1 34//34
f 1//1 2//2 32//32 34//34
f 14//14 385//385 20//20 15//15
f 31//31 5//5 7//7 386//386
f 9//9 11//11 16//16 387//387
f 7//7 9//9 387//387 386//386
f 19//19 20//20 34//34 33//33
f 33//33 29//29 30//30 37//37
f 19//19 21//21 17//17
f 27//27 31//31 386//386 26//26
f 387//387 16//16 18//18 23//23
f 386//386 387//387 23//23 26//26
f 38//38 39//39 42//42
f 388//388 40//40 41//41
f 22//22 40//40 388//388 55//55
f 24//24 22//22 55//55
f 48//48 39//39 36//36 389//389
f 42//42 39//39 48//48 44//44
f 389//389 36//36 35//35 390//390
f 49//49 388//388 41//41 43//43
f 55//55 388//388 49//49 52//52
f 390//390 35//35 56//56 54//54
f 47//47 48//48 389//389 273//273
f 46//46 47//47 268//268 58//58
f 273//273 389//389 390//390 272//272
f 340//340 50//50 45//45 57//57
f 51//51 50//50 340//340 341//341
f 272//272 390//390 54//54 53//53
f 365//365 382//382 381//381
f 382//382 365//365 366//366 371//371
f 370//370 369//369 70//70 68//68
f 360//360 365//365 381//381 362//362
f 358//358 367//367 357//357
f 70//70 369//369 368//368 375//375
f 377//377 70//70 375//375
f 350//350 359//359 361//361 351//351
f 350//350 347//347 353//353 356//356
f 359//359 350//350 356//356
f 348//348 379//379 378//378 376//376
f 352//352 348//348 376//376
f 381//381 382//382 81//81 84//84
f 372//372 77//77 80//80
f 370//370 68//68 69//69 74//74
f 373//373 370//370 74//74
f 364//364 85//85 88//88
f 361//361 363//363 91//91 94//94
f 351//351 361//361 94//94
f 99//99 345//345 98//98
f 380//380 344//344 105//105 108//108
f 83//83 82//82 233//233 232//232
f 82//82 79//79 259//259 256//256
f 233//233 82//82 256//256
f 258//258 73//73 72//72 260//260
f 257//257 258//258 260//260
f 86//86 83//83 232//232 231//231
f 254//254 86//86 231//231
f 227//227 252//252 228//228
f 219//219 223//223 216//216 215//215
f 92//92 255//255 234//234 236//236
f 93//93 92//92 236//236
f 253//253 237//237 239//239 244//244
f 245//245 246//246 261//261
f 338//338 169//169 170//170
f 129//129 126//126 125//125 339//339
f 316//316 166//166 165//165
f 166//166 316//316 173//173 167//167
f 307//307 308//308 312//312 391//391
f 391//391 312//312 338//338 180//180
f 339//339 125//125 191//191 189//189
f 165//165 339//339 189//189 187//187
f 316//316 165//165 187//187
f 172//172 173//173 185//185 184//184
f 392//392 310//310 307//307 391//391
f 181//181 392//392 391//391 180//180
f 188//188 310//310 392//392 186//186
f 186//186 392//392 181//181 183//183
f 270//270 271//271 276//276 313//313
f 295//295 278//278 280//280 293//293
f 53//53 51//51 341//341 393//393
f 274//274 53//53 393//393
f 275//275 274//274 393//393 315//315
f 279//279 277//277 314//314 127//127
f 269//269 270//270 313//313 394//394
f 394//394 313//313 295//295 296//296
f 393//393 341//341 116//116 118//118
f 315//315 393//393 118//118 120//120
f 127//127 314//314 122//122 124//124
f 206//206 269//269 394//394 301//301
f 301//301 394//394 296//296 298//298
f 303//303 203//203 204//204 302//302
f 309//309 311//311 299//299 305//305
f 117//117 115//115 200//200 199//199
f 119//119 117//117 199//199 197//197
f 123//123 121//121 195//195 193//193
f 395//395 286//286 285//285 163//163
f 160//160 395//395 163//163 162//162
f 287//287 286//286 395//395 396//396
f 396//396 395//395 160//160 158//158
f 285//285 283//283 130//130 132//132
f 163//163 285//285 132//132 134//134
f 287//287 396//396 397//397 168//168
f 289//289 287//287 168//168
f 156//156 397//397 396//396 158//158
f 135//135 133//133 164//164 168//168
f 397//397 135//135 168//168
f 135//135 397//397 156//156 137//137
f 398//398 159//159 161//161 154//154
f 152//152 398//398 154//154 153//153
f 157//157 159//159 398//398 399//399
f 399//399 398//398 152//152 151//151
f 149//149 150//150 148//148
f 161//161 162//162 136//136 138//138
f 154//154 161//161 138//138 140//140
f 153//153 142//142 144//144
f 400//400 155//155 157//157 399//399
f 147//147 400//400 399//399 151//151
f 139//139 155//155 400//400 141//141
f 141//141 400//400 147//147 143//143
f 401//401 175//175 174//174 337//337
f 333//333 401//401 337//337 334//334
f 176//176 175//175 401//401 402//402
f 402//402 401//401 333//333 331//331
f 329//329 330//330 328//328
f 174//174 172//172 184//184 317//317
f 337//337 174//174 317//317 319//319
f 334//334 321//321 323//323
f 402//402 331//331 332//332 336//336
f 403//403 402//402 336//336
f 403//403 179//179 176//176 402//402
f 335//335 332//332 324//324
f 318//318 179//179 403//403 320//320
f 322//322 320//320 403//403 336//336
f 325//325 322//322 336//336
f 264//264 201//201 113//113 202//202
f 199//199 200//200 201//201 264//264 210//210 208//208 205//205 204//204 203//203 198//198
