# Blender 5.0.0
# www.blender.org
mtllib Walk_Forward0018.mtl
o Mball.010
v 1.834593 3.398978 0.621025
v 1.586943 3.069259 0.571184
v 1.567463 3.014508 0.919740
v 1.805789 3.315438 0.965530
v 1.322121 3.130661 0.572847
v 1.329295 3.065958 0.920735
v 1.105271 3.573187 0.626283
v 1.110603 3.507520 0.973997
v 1.231724 3.885025 0.670780
v 1.228561 3.792800 1.014760
v 1.628884 3.883903 0.680362
v 1.631063 3.781362 1.016117
v 1.629713 3.779313 1.022799
v 1.658392 3.862787 0.678282
v 1.669395 3.937007 0.332103
v 1.639887 3.958122 0.334183
v 1.680089 4.011065 -0.014105
v 1.651133 4.031784 -0.012064
v 1.856791 3.559487 -0.069726
v 1.846068 3.484624 0.276374
v 1.681472 4.002736 -0.144903
v 1.650040 3.993872 -0.349490
v 1.253868 4.033147 -0.021617
v 1.324999 3.962249 -0.358644
v 1.221842 3.781690 -0.398014
v 1.127563 3.721776 -0.066048
v 1.344445 3.279266 -0.119481
v 1.406605 3.420617 -0.482157
v 1.608801 3.218038 -0.121132
v 1.573487 3.410747 -0.486722
v 1.333125 3.204880 0.226668
v 1.597946 3.143478 0.225005
v 1.856286 3.547253 -0.071363
v 1.845596 3.473197 0.274846
v 1.045258 3.852809 -0.546294
v 1.261577 4.096794 -0.639056
v 1.786537 3.650015 -0.452080
v 1.702420 4.013386 -0.519792
v 1.566054 4.263002 -0.494205
v 1.696913 3.964174 -0.304782
v 1.662681 4.068067 -0.135927
v 1.621903 4.261446 -0.430983
v 1.445157 4.363282 0.131106
v 1.377995 4.634288 -0.201826
v 1.207092 4.736381 0.347971
v 1.152990 4.988659 0.007347
v 1.095606 4.994864 -0.071908
v 1.316474 4.648645 -0.272416
v 1.408318 4.278209 0.181573
v 1.172014 4.640922 0.402807
v 0.931012 4.327332 0.427296
v 1.126143 3.988291 0.216146
v 0.713614 4.265492 0.224345
v 0.860431 3.956809 0.013946
v 1.325267 3.757948 -0.071578
v 1.075004 3.686121 -0.255707
v 0.659998 5.128232 0.517495
v 0.671397 5.284950 0.139996
v 0.442616 5.460601 0.576091
v 0.458752 5.569674 0.185777
v 0.581173 5.849823 0.641530
v 0.597319 5.952331 0.249950
v 0.635129 5.883736 0.647968
v 0.651253 5.985518 0.256308
v 0.268046 6.104261 -0.145866
v 0.264299 6.048270 -0.083976
v 0.672121 6.270411 -0.106471
v 0.683457 6.487174 -0.251022
v 0.291301 6.548912 -0.442388
v 0.852079 6.436096 -0.074256
v -0.131558 6.119209 -0.156144
v -0.108303 6.563860 -0.452666
v -0.105036 6.642149 -0.480076
v 0.294568 6.627200 -0.469797
v 0.307187 6.979723 -0.530534
v -0.092417 6.994671 -0.540813
v 0.316857 7.371484 -0.467548
v -0.082747 7.386433 -0.477827
v -0.079401 7.680700 -0.313102
v 0.320203 7.665751 -0.302823
v 0.320311 7.724195 -0.253430
v -0.079293 7.739144 -0.263709
v -0.085104 8.001207 0.146436
v 0.314501 7.986259 0.156714
v 0.312637 8.007000 0.231250
v -0.086967 8.021948 0.220972
v -0.097485 8.051132 0.562471
v 0.302119 8.036184 0.572749
v -0.113597 7.949917 0.954206
v 0.286008 7.934968 0.964484
v 0.269925 7.738676 1.269731
v -0.129680 7.753625 1.259453
v -0.133439 7.697557 1.321640
v 0.266165 7.682610 1.331919
v 0.242911 7.237957 1.628441
v -0.156694 7.252906 1.618162
v -0.159961 7.174618 1.645572
v 0.239644 7.159669 1.655850
v 0.227024 6.807147 1.716587
v -0.172580 6.822096 1.706309
v -0.182250 6.430334 1.643323
v 0.217354 6.415385 1.653601
v -0.185596 6.136066 1.478598
v 0.214009 6.121119 1.488876
v 0.213900 6.062674 1.439483
v -0.185704 6.077622 1.429205
v -0.179893 5.815560 1.019060
v 0.219711 5.800611 1.029339
v 0.221562 5.779793 0.955100
v -0.178035 5.794726 0.944641
v -0.178767 5.454374 0.663924
v 0.219528 5.435638 0.693001
v -0.192599 4.995070 0.693020
v 0.210317 4.977931 0.718953
v -0.183151 4.610995 0.632519
v 0.202729 4.571199 0.667325
v -0.177180 4.280130 0.514736
v 0.193205 4.230665 0.555101
v -0.171677 3.990167 0.478090
v 0.173314 3.973698 0.493632
v -0.142552 3.619008 0.503915
v 0.146016 3.606136 0.502242
v -0.112636 3.223609 0.520520
v 0.118819 3.210831 0.508515
v -0.081342 2.821986 0.487020
v 0.090083 2.808661 0.431381
v 0.493816 3.148532 0.358772
v 0.453465 2.746827 0.324554
v 0.063994 2.405877 0.322075
v 0.402676 2.352704 0.390279
v 0.042821 2.100224 0.233372
v 0.355101 1.967708 0.409744
v 0.045269 1.989886 0.233661
v 0.360472 1.570333 0.428752
v 0.056712 1.555003 0.238410
v 0.368274 1.170826 0.442871
v 0.111902 1.153265 0.258989
v 0.379794 0.761121 0.446595
v 0.128637 0.752848 0.280974
v 0.394410 0.343044 0.206328
v 0.142966 0.410270 0.153367
v 0.380329 0.018933 0.022218
v 0.107585 0.088430 -0.039679
v 0.365950 -0.200668 -0.205509
v 0.362679 -0.206013 -0.273227
v 0.234930 0.049421 -0.552935
v 0.056203 0.365973 -0.356452
v 0.352806 0.028878 -0.567177
v 0.352903 0.065624 -0.578203
v 0.430486 0.045341 -0.560017
v 0.369475 0.471134 -0.500674
v 0.659465 0.360348 -0.380373
v 0.582662 0.078519 -0.056885
v 0.631824 0.403482 0.134375
v 0.126849 0.789665 -0.102435
v 0.110491 1.138627 -0.132164
v 0.471338 0.845810 -0.280641
v 0.487185 1.153495 -0.312548
v 0.806784 0.877517 -0.035687
v 0.799999 1.169317 -0.038623
v 0.718853 0.753151 0.325205
v 0.701760 1.165233 0.339932
v 0.652473 1.569871 0.311021
v 0.042397 1.994272 0.197880
v -0.015099 2.033358 0.306177
v -0.012666 2.004180 0.299266
v 0.040238 1.588901 0.255570
v 0.096752 1.750577 -0.152967
v -0.001710 1.577140 -0.078226
v 0.019098 1.491924 -0.069077
v -0.000203 1.170674 -0.055811
v -0.048817 1.177887 0.346692
v 0.010046 1.586020 0.335878
v -0.208953 0.756053 0.364221
v -0.108432 0.788485 -0.017244
v -0.304274 0.790475 -0.132241
v -0.346787 1.132927 -0.234936
v -0.620791 1.112684 -0.028411
v -0.618769 0.750510 -0.003052
v -0.379992 1.527647 -0.283821
v -0.678483 1.507890 -0.033651
v -0.527651 1.133142 0.367834
v -0.600576 1.527621 0.362470
v -0.309060 1.156435 0.455810
v -0.336662 1.556614 0.498121
v -0.603827 1.928181 0.355871
v -0.364743 1.957392 0.491400
v -0.613434 2.326428 0.344983
v -0.395606 2.363633 0.480846
v -0.635109 2.724994 0.324046
v -0.442609 2.765380 0.466898
v -0.574700 3.135569 0.294439
v -0.491833 3.156971 0.372254
v -0.568711 3.541718 0.267284
v -0.536063 3.550312 0.304576
v -0.556995 3.977050 0.195360
v -0.524261 3.979603 0.233104
v -0.512267 4.361986 0.195532
v -0.463072 4.370817 0.245985
v -0.488594 4.615606 0.479233
v -0.590653 5.036328 0.521559
v -0.593577 5.115259 0.489896
v -0.600822 4.523638 -0.143809
v -0.573115 4.534142 -0.178443
v -0.637378 4.964560 -0.080858
v -0.198684 4.572624 -0.380736
v -0.196386 4.995001 -0.259320
v -0.607947 5.218239 0.103831
v -0.166247 5.308372 -0.117135
v -0.592129 5.229493 0.105407
v -0.154103 5.618483 0.064292
v -0.318617 5.596577 0.165444
v -0.135314 6.063165 -0.094045
v -0.486642 5.992426 0.221916
v -0.547315 6.032343 0.225704
v -0.526692 6.315257 -0.137306
v -0.563422 5.930702 0.617329
v -0.502746 5.890059 0.613451
v -0.898983 6.399781 0.272853
v -0.915095 6.298565 0.664587
v -0.952580 6.368397 0.674571
v -0.936469 6.469614 0.282837
v -0.698146 6.494088 -0.114131
v -0.873201 6.892759 -0.055896
v -0.915186 6.876561 0.011458
v -0.863531 7.284521 0.007089
v -0.905516 7.268323 0.074443
v -0.910833 7.508164 0.449811
v -0.669136 7.669371 0.074827
v -0.869973 7.575065 0.461810
v -0.500820 7.914939 0.527892
v -0.489178 7.835056 0.107041
v -0.486346 7.707304 -0.092900
v -0.516932 7.813723 0.919627
v -0.886085 7.473848 0.853545
v -0.537514 7.531407 1.282245
v -0.717472 7.365722 1.250031
v -0.926945 7.406948 0.841545
v -0.911867 6.980871 1.182294
v -0.948228 7.000000 1.112924
v -0.957898 6.608238 1.049938
v -0.921537 6.589109 1.119308
v -0.575638 6.484332 1.481912
v -0.565968 6.876094 1.544898
v -0.577860 6.139360 1.237839
v -0.746482 6.190438 1.061074
v -0.497812 6.863563 1.585093
v -0.507482 6.471801 1.522107
v -1.059593 6.696094 0.723608
v -1.049923 7.087855 0.786593
v -1.043482 6.797310 0.331873
v -1.033812 7.189071 0.394859
v -0.548850 7.314644 1.426797
v -0.430137 7.950735 0.535860
v -0.446249 7.849518 0.927595
v -0.488568 7.362332 -0.336973
v -0.498238 6.970571 -0.399959
v -0.426923 6.977884 -0.436567
v -0.417253 7.369645 -0.373581
v -0.515356 6.532020 -0.281858
v -0.575028 6.011608 1.037898
v -0.334673 5.488041 0.555759
v 0.245742 5.609141 0.055513
v -0.606381 5.224658 0.114025
v 0.245257 5.298573 -0.125770
v 0.240032 4.945147 -0.269342
v 0.636163 4.918773 -0.112733
v 0.666270 5.234925 0.065934
v 0.227615 4.539680 -0.381855
v 0.592320 4.512280 -0.184855
v 0.679757 4.488666 -0.070292
v 0.666604 4.507657 -0.117899
v 0.820263 4.828917 -0.230664
v 0.677495 4.327160 0.298043
v 0.648355 3.942944 0.240271
v 0.674122 3.989533 -0.151284
v 0.641772 3.527739 0.246973
v 0.677684 3.524272 -0.155543
v 0.597291 3.130207 0.253411
v 0.633035 3.119096 -0.145445
v 0.537548 2.735170 0.256367
v 0.594290 2.721185 -0.140886
v 0.593594 2.330342 0.268135
v 0.664563 2.315466 -0.127345
v 0.606706 1.963194 0.289230
v 0.700659 1.938972 -0.103984
v 0.468839 1.928270 -0.353027
v 0.480101 2.333405 -0.337389
v 0.105003 1.978143 -0.206277
v 0.119192 2.379589 -0.314104
v 0.509726 2.733674 -0.253704
v 0.149851 2.778470 -0.384409
v 0.549442 3.132409 -0.267692
v 0.178481 3.172743 -0.467538
v 0.587243 3.542428 -0.283435
v 0.202813 3.597177 -0.486691
v -0.174032 3.146785 -0.427793
v -0.200813 3.558571 -0.452181
v -0.545718 3.104772 -0.222470
v -0.577905 3.509661 -0.174847
v -0.222232 3.997409 -0.459514
v -0.586529 3.998397 -0.219638
v -0.611318 3.993419 -0.180068
v -0.605016 3.506509 -0.130174
v -0.514934 2.700854 -0.298801
v -0.144538 2.752343 -0.381012
v -0.469106 2.303926 -0.286899
v -0.103485 2.361524 -0.275704
v -0.701793 2.685848 -0.071009
v -0.691023 2.289198 -0.049757
v -0.627215 3.097512 -0.102163
v -0.059264 1.970562 -0.157884
v 0.594716 4.012192 -0.274884
v 0.534329 3.547715 0.355014
v 0.555011 3.942695 0.348693
v -0.014883 2.003770 0.309037
v -0.282790 0.750998 0.401011
v -0.520955 0.725702 0.376019
v -0.268970 0.286625 0.232118
v -0.611442 0.339627 0.155229
v -0.232539 0.015653 -0.013427
v -0.597566 0.069592 -0.098644
v -0.196236 -0.148796 -0.244318
v -0.564367 0.277643 -0.510435
v -0.620814 0.095487 -0.120547
v -0.184409 -0.142923 -0.323728
v -0.440165 0.172918 -0.587398
v -0.150703 0.157962 -0.570095
v -0.150509 0.204996 -0.574705
v -0.114799 0.177197 -0.549846
v -0.178717 0.571773 -0.420331
v -0.585462 0.458894 -0.383138
v -0.006131 0.441506 -0.298874
v -0.126755 0.075782 -0.044306
v -0.606701 0.437571 -0.369853
v -0.627939 0.637870 -0.139447
v -0.145255 0.348845 0.200807
v -0.000808 1.576283 -0.086873
v -0.047263 2.415048 0.400513
v 0.659256 5.024127 0.552676
v 0.628647 4.619085 0.550321
v 0.551860 6.432173 1.549355
v 0.623175 6.439487 1.512748
v 0.620953 6.094515 1.268675
v 0.561530 6.823935 1.612341
v 0.632845 6.831248 1.575733
v 1.007808 6.909060 1.231671
v 0.998138 6.517298 1.168685
v 0.649963 7.269798 1.457632
v 0.832753 7.307730 1.289905
v 0.661299 7.486561 1.313081
v 1.040123 6.533495 1.101331
v 1.049793 6.925257 1.164317
v 1.178089 7.004508 0.843902
v 1.168419 6.612747 0.780916
v 1.071076 7.332204 0.892938
v 1.087187 7.433421 0.501203
v 1.194200 7.105725 0.452167
v 1.033590 7.402037 0.902922
v 1.049702 7.503253 0.511187
v 0.681881 7.768877 0.950462
v 0.697993 7.870093 0.558728
v 0.613094 7.809890 0.954843
v 0.629206 7.911106 0.563108
v 0.881089 7.611380 0.114701
v 1.056144 7.212708 0.056466
v 1.092505 7.193580 0.125836
v 1.082835 6.801818 0.062850
v 1.046474 6.820947 -0.006519
v 0.700575 6.925725 -0.369123
v 0.710245 7.317486 -0.306138
v 0.642089 7.330017 -0.346333
v 0.632419 6.938255 -0.409319
v 1.184530 6.713964 0.389181
v 1.061552 6.394871 0.334229
v 1.045440 6.293654 0.725964
v 1.020692 6.327970 0.322230
v 1.004580 6.226753 0.713965
v 0.803743 6.132447 1.100948
v 0.623785 5.966762 1.068734
v 0.709635 7.790210 0.137877
v 0.712467 7.662457 -0.062065
v 1.299062 3.551692 1.268132
v 1.497274 3.105834 1.180351
v 1.835065 3.410405 0.622553
v 1.116274 3.647407 0.280103
v 1.242727 3.959244 0.324601
v 1.619579 3.999115 -0.082524
v 0.994141 4.515849 -0.427014
v 0.792595 4.227879 -0.316940
v -0.413986 1.920396 -0.279920
v -0.676927 1.905376 -0.040297
v 0.579233 4.286672 0.412233
v 0.215129 4.101253 -0.471719
v 0.751267 1.546379 -0.081077
v 0.477680 1.525669 -0.346613
v 0.078043 1.544541 -0.158782
v 0.718075 0.649753 -0.185137
v 0.399320 0.738431 -0.323029
v 0.100876 0.642592 -0.172266
v -0.027665 0.663360 -0.066366
v -0.225418 0.775904 -0.200463
v -0.630153 0.652759 -0.121961
vn 0.9568 -0.2846 0.0598
vn 0.3457 -0.9243 -0.1620
vn 0.3279 -0.9384 0.1090
vn 0.8998 -0.1734 0.4004
vn -0.6222 -0.7672 -0.1559
vn -0.6140 -0.7741 0.1540
vn -0.9992 -0.0367 -0.0142
vn -0.9578 -0.0963 0.2710
vn -0.5560 0.8099 0.1871
vn -0.5198 0.7361 0.4336
vn 0.2965 0.9236 0.2430
vn 0.5766 0.7705 0.2717
vn 0.5178 0.6505 0.5556
vn 0.7867 0.5910 0.1783
vn 0.7881 0.5963 0.1525
vn 0.3035 0.9298 0.2084
vn 0.7796 0.6233 0.0616
vn 0.2884 0.9555 0.0627
vn 0.9630 0.2696 -0.0079
vn 0.9856 0.1565 0.0645
vn 0.6203 0.7756 -0.1168
vn 0.9738 0.1769 -0.1428
vn -0.5366 0.8434 -0.0259
vn -0.3512 0.1499 -0.9242
vn -0.6182 -0.7292 -0.2935
vn -0.9871 0.0056 -0.1601
vn -0.6013 -0.7443 -0.2906
vn -0.4195 -0.6103 -0.6720
vn 0.3518 -0.8860 -0.3021
vn 0.2717 -0.6134 -0.7415
vn -0.6200 -0.7628 -0.1837
vn 0.3467 -0.9192 -0.1865
vn 0.9636 -0.2314 -0.1340
vn 0.9428 -0.3307 -0.0413
vn -0.6288 -0.4074 -0.6622
vn -0.0741 0.1464 -0.9864
vn 0.8148 -0.1030 -0.5705
vn 0.7996 0.1589 -0.5791
vn 0.4393 0.5037 -0.7438
vn 0.9645 -0.2174 0.1502
vn 0.9339 0.1052 0.3417
vn 0.8368 0.5020 -0.2184
vn 0.8559 0.2546 0.4501
vn 0.7966 0.5904 -0.1296
vn 0.7231 0.4165 0.5510
vn 0.6874 0.7255 -0.0342
vn 0.3269 0.7172 -0.6155
vn 0.3999 0.6362 -0.6598
vn 0.6238 -0.1696 0.7630
vn 0.5109 0.0192 0.8594
vn 0.1160 -0.4396 0.8907
vn 0.0544 -0.6145 0.7871
vn -0.7879 -0.5476 0.2816
vn -0.7021 -0.6634 0.2585
vn 0.3338 -0.8868 0.3197
vn -0.3615 -0.9297 0.0706
vn 0.5848 0.4441 0.6788
vn 0.6610 0.7310 -0.1695
vn 0.8022 -0.0450 0.5953
vn 0.8655 0.1709 -0.4708
vn 0.6630 -0.7297 0.1673
vn 0.6694 -0.5816 -0.4623
vn 0.5675 -0.8234 0.0055
vn 0.5725 -0.7360 -0.3613
vn 0.1779 -0.6597 -0.7302
vn 0.2713 -0.5503 -0.7897
vn 0.4770 -0.6140 -0.6288
vn 0.4936 -0.3781 -0.7832
vn 0.1850 -0.4210 -0.8880
vn 0.6971 -0.4215 -0.5799
vn -0.1868 -0.6483 -0.7382
vn -0.1675 -0.4117 -0.8958
vn -0.1662 -0.2408 -0.9562
vn 0.2003 -0.2506 -0.9471
vn 0.1869 -0.0072 -0.9823
vn -0.1353 0.0026 -0.9908
vn 0.2015 0.3172 -0.9267
vn -0.1288 0.3269 -0.9362
vn -0.1709 0.5773 -0.7985
vn 0.2342 0.5593 -0.7952
vn 0.2266 0.7269 -0.6482
vn -0.1518 0.7299 -0.6665
vn -0.1446 0.9136 -0.3801
vn 0.2377 0.8962 -0.3747
vn 0.2511 0.9505 -0.1832
vn -0.1537 0.9724 -0.1758
vn -0.1283 0.9885 0.0796
vn 0.1964 0.9764 0.0901
vn -0.1353 0.9116 0.3882
vn 0.1816 0.8994 0.3976
vn 0.2104 0.7607 0.6141
vn -0.1663 0.7837 0.5985
vn -0.1636 0.6579 0.7351
vn 0.1856 0.6506 0.7364
vn 0.1686 0.4092 0.8967
vn -0.1850 0.4210 0.8880
vn -0.2003 0.2506 0.9471
vn 0.1683 0.2385 0.9564
vn 0.1353 -0.0026 0.9908
vn -0.1869 0.0072 0.9823
vn -0.2015 -0.3172 0.9267
vn 0.1288 -0.3269 0.9362
vn -0.2342 -0.5593 0.7952
vn 0.1503 -0.5707 0.8073
vn 0.1384 -0.7382 0.6603
vn -0.2266 -0.7269 0.6482
vn -0.2295 -0.8991 0.3728
vn 0.1494 -0.9082 0.3911
vn 0.2411 -0.8224 0.5153
vn -0.3283 -0.8213 0.4666
vn -0.3686 -0.2399 0.8981
vn 0.2539 -0.2506 0.9342
vn -0.2752 -0.0346 0.9608
vn 0.1410 -0.0172 0.9899
vn -0.3054 -0.2734 0.9121
vn 0.1084 -0.2354 0.9658
vn -0.3824 -0.2478 0.8901
vn 0.1209 -0.2713 0.9549
vn -0.3394 -0.0119 0.9406
vn 0.1540 -0.0919 0.9838
vn -0.2404 0.0588 0.9689
vn 0.1830 0.0137 0.9830
vn -0.1242 0.0044 0.9923
vn 0.2129 -0.0678 0.9747
vn 0.0966 -0.0914 0.9911
vn 0.2394 -0.1454 0.9600
vn 0.5165 -0.0916 0.8514
vn 0.4209 -0.0608 0.9051
vn 0.2237 -0.1376 0.9649
vn 0.1920 -0.0032 0.9814
vn 0.1793 -0.1341 0.9746
vn -0.0263 0.0175 0.9995
vn -0.8723 -0.0180 0.4886
vn -0.0945 0.0430 0.9946
vn -0.8945 -0.0307 0.4461
vn -0.1329 0.0202 0.9909
vn -0.8816 -0.0433 0.4700
vn -0.0918 -0.2300 0.9689
vn -0.8276 -0.1475 0.5415
vn 0.0135 -0.4969 0.8677
vn -0.7707 -0.2631 0.5803
vn 0.0551 -0.6211 0.7818
vn -0.7997 -0.4932 0.3424
vn 0.0415 -0.9923 0.1166
vn 0.0822 -0.9807 -0.1774
vn -0.6604 -0.3409 -0.6691
vn -0.8931 0.0890 -0.4411
vn -0.0026 -0.5742 -0.8187
vn -0.0076 -0.0046 -1.0000
vn 0.5781 -0.3586 -0.7330
vn -0.0215 0.4116 -0.9111
vn 0.8497 -0.0197 -0.5269
vn 0.7832 -0.5334 0.3195
vn 0.7458 -0.4338 0.5056
vn -0.9030 0.1113 -0.4149
vn -0.8371 -0.0977 -0.5383
vn 0.1390 0.1532 -0.9784
vn 0.1446 -0.0755 -0.9866
vn 0.9579 -0.0748 -0.2771
vn 0.9591 0.0310 -0.2814
vn 0.7348 -0.2440 0.6329
vn 0.7305 0.0677 0.6795
vn 0.7477 0.1184 0.6534
vn -0.2211 -0.2227 0.9495
vn 0.6577 -0.0782 0.7492
vn 0.9392 -0.0111 0.3433
vn 0.8959 -0.3831 0.2248
vn -0.3985 -0.2029 -0.8944
vn 0.9409 -0.1248 -0.3147
vn 0.8780 -0.0220 -0.4781
vn 0.8740 -0.1980 -0.4437
vn 0.8005 -0.1626 0.5769
vn 0.7825 -0.0580 0.6200
vn 0.6877 -0.1782 0.7037
vn 0.9660 0.1519 -0.2091
vn -0.0478 0.4275 -0.9028
vn -0.0486 -0.1683 -0.9845
vn -0.9140 -0.1444 -0.3791
vn -0.9604 0.1768 -0.2153
vn -0.1163 -0.0752 -0.9904
vn -0.9424 -0.0910 -0.3220
vn -0.7278 -0.0909 0.6798
vn -0.7977 -0.0708 0.5989
vn 0.0446 -0.0855 0.9953
vn -0.0103 -0.0224 0.9997
vn -0.8106 -0.0085 0.5855
vn -0.0485 0.0005 0.9988
vn -0.8242 -0.0189 0.5660
vn -0.1590 -0.0451 0.9862
vn -0.8589 0.0666 0.5079
vn -0.3427 0.0212 0.9392
vn -0.8813 0.1051 0.4607
vn -0.5143 0.0738 0.8544
vn -0.9051 0.0624 0.4205
vn -0.6149 0.0830 0.7842
vn -0.9094 0.0725 0.4096
vn -0.6703 0.0794 0.7378
vn -0.9448 -0.0109 0.3275
vn -0.8172 -0.1341 0.5605
vn -0.7702 -0.2670 0.5792
vn -0.8262 -0.0068 0.5634
vn -0.7457 0.3254 0.5814
vn -0.9955 -0.0281 -0.0905
vn -0.7696 0.0709 -0.6345
vn -0.8651 0.1594 -0.4755
vn -0.2416 0.1931 -0.9510
vn -0.2163 0.3484 -0.9120
vn -0.8918 0.2645 -0.3672
vn -0.2258 0.4775 -0.8491
vn -0.7262 0.6183 -0.3007
vn -0.3323 0.1215 -0.9353
vn -0.8388 0.1439 -0.5251
vn -0.2786 -0.5439 -0.7915
vn -0.6555 -0.5757 -0.4888
vn -0.5921 -0.7026 -0.3947
vn -0.4836 -0.5809 -0.6547
vn -0.6372 -0.7693 -0.0458
vn -0.7053 -0.7036 0.0866
vn -0.7966 -0.4987 -0.3417
vn -0.8148 -0.5797 0.0001
vn -0.9121 -0.4069 0.0495
vn -0.8911 -0.3301 -0.3114
vn -0.6901 -0.3756 -0.6186
vn -0.7722 -0.0653 -0.6320
vn -0.8683 -0.1067 -0.4844
vn -0.7823 0.2982 -0.5469
vn -0.8821 0.2771 -0.3810
vn -0.8797 0.4628 -0.1089
vn -0.6930 0.6028 -0.3954
vn -0.7731 0.6321 -0.0525
vn -0.5522 0.8337 -0.0047
vn -0.4725 0.8147 -0.3360
vn -0.4723 0.6368 -0.6095
vn -0.5480 0.7584 0.3530
vn -0.7812 0.5517 0.2922
vn -0.4795 0.6115 0.6294
vn -0.6984 0.4216 0.5783
vn -0.8864 0.3864 0.2549
vn -0.8033 0.1137 0.5846
vn -0.8885 0.1614 0.4296
vn -0.9203 -0.2225 0.3218
vn -0.8320 -0.2498 0.4954
vn -0.6151 -0.2943 0.7315
vn -0.5942 0.0745 0.8009
vn -0.5522 -0.6073 0.5712
vn -0.7541 -0.5572 0.3477
vn -0.4362 0.0697 0.8972
vn -0.4460 -0.3229 0.8347
vn -0.9840 -0.1558 0.0864
vn -0.9726 0.1621 0.1668
vn -0.9678 -0.1025 -0.2300
vn -0.9649 0.2152 -0.1507
vn -0.4936 0.3781 0.7832
vn -0.3888 0.9213 0.0042
vn -0.3743 0.8432 0.3859
vn -0.5538 0.3351 -0.7623
vn -0.5608 -0.0269 -0.8275
vn -0.3836 -0.0252 -0.9232
vn -0.3925 0.3652 -0.8441
vn -0.4760 -0.3473 -0.8080
vn -0.5481 -0.7788 0.3051
vn -0.8598 -0.0416 0.5090
vn 0.3356 0.1142 -0.9351
vn -0.9522 0.2434 0.1845
vn 0.2257 0.4556 -0.8611
vn 0.2166 0.3081 -0.9264
vn 0.1218 0.3954 -0.9104
vn 0.3544 0.6355 -0.6860
vn 0.2286 0.1974 -0.9533
vn 0.5354 0.0059 -0.8446
vn 0.0578 -0.5391 -0.8403
vn -0.4969 -0.3867 -0.7769
vn -0.1921 0.4119 -0.8908
vn 0.1556 -0.1396 -0.9779
vn 0.9305 -0.0563 0.3620
vn 0.9589 0.0137 -0.2833
vn 0.9108 -0.0517 0.4097
vn 0.9645 -0.0567 -0.2580
vn 0.8913 -0.1089 0.4401
vn 0.9606 -0.1130 -0.2541
vn 0.8611 0.0032 0.5085
vn 0.9627 0.0146 -0.2702
vn 0.8281 0.0930 0.5528
vn 0.9595 0.0926 -0.2662
vn 0.7787 0.0848 0.6216
vn 0.9607 0.0718 -0.2682
vn 0.2193 -0.0345 -0.9750
vn 0.3798 -0.0006 -0.9251
vn -0.2695 -0.2002 -0.9420
vn -0.0811 -0.1486 -0.9856
vn 0.5710 -0.0343 -0.8202
vn 0.1147 -0.1338 -0.9843
vn 0.6384 -0.1062 -0.7623
vn 0.1828 -0.1077 -0.9772
vn 0.6633 -0.0397 -0.7473
vn 0.2049 -0.0244 -0.9785
vn -0.2705 -0.0577 -0.9610
vn -0.3261 -0.0332 -0.9447
vn -0.6561 0.0199 -0.7544
vn -0.7219 -0.0355 -0.6911
vn -0.3084 0.0490 -0.9500
vn -0.7001 0.0128 -0.7140
vn -0.9744 0.0148 -0.2242
vn -0.9742 0.0022 -0.2256
vn -0.5172 -0.0441 -0.8547
vn -0.1430 -0.1310 -0.9810
vn -0.3670 -0.1228 -0.9221
vn -0.0338 -0.1972 -0.9798
vn -0.9665 0.0322 -0.2547
vn -0.9587 -0.0599 -0.2782
vn -0.9644 0.0807 -0.2520
vn 0.0419 -0.1672 -0.9850
vn 0.6646 0.0672 -0.7442
vn 0.5535 -0.0260 0.8324
vn 0.5750 -0.1003 0.8120
vn 0.7583 0.0736 0.6477
vn 0.1035 -0.2218 0.9696
vn -0.6401 -0.1587 0.7517
vn 0.1100 -0.5336 0.8386
vn -0.7557 -0.3451 0.5566
vn 0.1306 -0.7339 0.6665
vn -0.6778 -0.6952 0.2393
vn 0.2674 -0.9608 0.0737
vn -0.6812 -0.0510 -0.7303
vn -0.9070 -0.3981 0.1377
vn 0.3491 -0.9052 -0.2422
vn -0.4207 -0.3039 -0.8548
vn 0.3224 -0.3947 -0.8604
vn 0.3369 0.2011 -0.9198
vn 0.8286 -0.1539 -0.5382
vn 0.2700 0.6138 -0.7419
vn -0.5077 0.5465 -0.6661
vn 0.9617 0.1318 -0.2402
vn 0.8120 -0.4516 0.3698
vn -0.9138 0.1889 -0.3596
vn -0.8208 0.4065 -0.4013
vn 0.7467 -0.2676 0.6089
vn 0.4419 -0.0616 -0.8950
vn 0.3867 -0.1391 0.9117
vn 0.3606 0.1570 0.9194
vn 0.2694 -0.2296 0.9353
vn 0.3763 -0.3468 0.8591
vn 0.5506 -0.3289 0.7672
vn 0.4753 -0.6387 0.6052
vn 0.3909 0.0444 0.9194
vn 0.5519 0.0391 0.8330
vn 0.7764 0.0594 0.6275
vn 0.7780 -0.3060 0.5487
vn 0.4752 0.3461 0.8090
vn 0.6886 0.3763 0.6198
vn 0.4836 0.5810 0.6546
vn 0.8707 -0.2981 0.3912
vn 0.8801 0.0910 0.4659
vn 0.9678 0.1025 0.2300
vn 0.9649 -0.2152 0.1507
vn 0.8874 0.3410 0.3102
vn 0.9156 0.3982 -0.0550
vn 0.9840 0.1558 -0.0864
vn 0.7883 0.5140 0.3382
vn 0.8245 0.5657 -0.0111
vn 0.5816 0.7124 0.3926
vn 0.6018 0.7977 0.0403
vn 0.4257 0.7995 0.4237
vn 0.4343 0.8993 0.0514
vn 0.7552 0.5564 -0.3465
vn 0.8282 0.2580 -0.4975
vn 0.9110 0.2439 -0.3326
vn 0.9004 -0.1461 -0.4099
vn 0.8077 -0.1080 -0.5797
vn 0.5942 -0.0745 -0.8009
vn 0.6151 0.2943 -0.7315
vn 0.4460 0.3229 -0.8347
vn 0.4362 -0.0697 -0.8972
vn 0.9726 -0.1621 -0.1668
vn 0.8818 -0.3973 -0.2539
vn 0.8835 -0.4542 0.1147
vn 0.7724 -0.5652 -0.2896
vn 0.7842 -0.6171 0.0648
vn 0.6946 -0.6010 0.3954
vn 0.4743 -0.8119 0.3403
vn 0.5465 0.7812 -0.3016
vn 0.5522 0.6073 -0.5712
vn -0.2800 0.1304 0.9511
vn 0.0602 -0.5815 0.8113
vn 0.9611 0.0723 0.2664
vn -0.9988 -0.0306 -0.0388
vn -0.5612 0.8129 0.1559
vn 0.7232 -0.4631 0.5124
vn -0.2755 0.3739 -0.8856
vn -0.8382 -0.1600 -0.5214
vn -0.2092 -0.0776 -0.9748
vn -0.9489 -0.0371 -0.3135
vn 0.3632 -0.3944 0.8441
vn 0.2221 0.0995 -0.9699
vn 0.9546 0.0785 -0.2874
vn 0.1541 -0.0259 -0.9877
vn -0.8388 -0.0300 -0.5437
vn 0.8873 0.0342 -0.4599
vn -0.0758 0.5107 -0.8564
vn -0.8937 0.3021 -0.3317
vn 0.9430 0.3327 0.0024
vn 0.2341 0.8044 -0.5461
vn -0.8407 0.4459 -0.3071
s 1
f 4//4 3//3 2//2 1//1
f 2//2 3//3 6//6 5//5
f 5//5 6//6 8//8 7//7
f 8//8 10//10 9//9 7//7
f 13//13 12//12 11//11 9//9
f 10//10 13//13 9//9
f 11//11 12//12 14//14
f 16//16 11//11 14//14 15//15
f 18//18 16//16 15//15 17//17
f 15//15 20//20 19//19 17//17
f 21//21 18//18 17//17
f 23//23 18//18 21//21 22//22
f 24//24 23//23 22//22
f 26//26 23//23 24//24 25//25
f 28//28 27//27 26//26 25//25
f 30//30 29//29 27//27 28//28
f 29//29 32//32 31//31 27//27
f 34//34 32//32 29//29 33//33
f 36//36 30//30 28//28 35//35
f 38//38 37//37 30//30 36//36
f 39//39 38//38 36//36
f 37//37 38//38 40//40 22//22
f 40//40 38//38 42//42 41//41
f 41//41 42//42 44//44 43//43
f 43//43 44//44 46//46 45//45
f 44//44 48//48 47//47 46//46
f 50//50 49//49 43//43 45//45
f 52//52 49//49 50//50 51//51
f 54//54 52//52 51//51 53//53
f 56//56 55//55 52//52 54//54
f 45//45 46//46 58//58 57//57
f 58//58 60//60 59//59 57//57
f 60//60 62//62 61//61 59//59
f 61//61 62//62 64//64 63//63
f 64//64 62//62 66//66 65//65
f 67//67 64//64 65//65
f 69//69 68//68 67//67 65//65
f 68//68 70//70 67//67
f 72//72 69//69 65//65 71//71
f 74//74 69//69 72//72 73//73
f 76//76 75//75 74//74 73//73
f 78//78 77//77 75//75 76//76
f 80//80 77//77 78//78 79//79
f 82//82 81//81 80//80 79//79
f 84//84 81//81 82//82 83//83
f 86//86 85//85 84//84 83//83
f 88//88 85//85 86//86 87//87
f 90//90 88//88 87//87 89//89
f 92//92 91//91 90//90 89//89
f 94//94 91//91 92//92 93//93
f 96//96 95//95 94//94 93//93
f 98//98 95//95 96//96 97//97
f 100//100 99//99 98//98 97//97
f 102//102 99//99 100//100 101//101
f 104//104 102//102 101//101 103//103
f 106//106 105//105 104//104 103//103
f 108//108 105//105 106//106 107//107
f 110//110 109//109 108//108 107//107
f 112//112 109//109 110//110 111//111
f 114//114 112//112 111//111 113//113
f 116//116 114//114 113//113 115//115
f 118//118 116//116 115//115 117//117
f 120//120 118//118 117//117 119//119
f 122//122 120//120 119//119 121//121
f 124//124 122//122 121//121 123//123
f 126//126 124//124 123//123 125//125
f 128//128 127//127 124//124 126//126
f 130//130 128//128 126//126 129//129
f 132//132 130//130 129//129 131//131
f 133//133 132//132 131//131
f 132//132 133//133 135//135 134//134
f 134//134 135//135 137//137 136//136
f 136//136 137//137 139//139 138//138
f 138//138 139//139 141//141 140//140
f 140//140 141//141 143//143 142//142
f 142//142 143//143 144//144
f 147//147 146//146 145//145 144//144
f 143//143 147//147 144//144
f 145//145 146//146 148//148
f 146//146 149//149 148//148
f 150//150 145//145 148//148
f 146//146 147//147 151//151 149//149
f 151//151 152//152 150//150 149//149
f 150//150 152//152 153//153 144//144
f 145//145 150//150 144//144
f 153//153 154//154 140//140 142//142
f 137//137 156//156 155//155 139//139
f 155//155 156//156 158//158 157//157
f 158//158 160//160 159//159 157//157
f 159//159 160//160 162//162 161//161
f 162//162 163//163 134//134 136//136
f 164//164 133//133 131//131
f 166//166 164//164 131//131 165//165
f 168//168 164//164 166//166 167//167
f 169//169 168//168 167//167
f 169//169 167//167 170//170
f 173//173 172//172 171//171 170//170
f 167//167 173//173 170//170
f 175//175 171//171 172//172 174//174
f 177//177 171//171 175//175 176//176
f 179//179 178//178 177//177 176//176
f 178//178 181//181 180//180 177//177
f 183//183 181//181 178//178 182//182
f 185//185 183//183 182//182 184//184
f 187//187 186//186 183//183 185//185
f 189//189 188//188 186//186 187//187
f 191//191 190//190 188//188 189//189
f 193//193 192//192 190//190 191//191
f 195//195 194//194 192//192 193//193
f 197//197 196//196 194//194 195//195
f 199//199 198//198 196//196 197//197
f 205//205 207//207 206//206 204//204
f 209//209 207//207 205//205 208//208
f 210//210 209//209 208//208
f 210//210 212//212 211//211 209//209
f 212//212 214//214 213//213 211//211
f 71//71 213//213 214//214 215//215
f 216//216 71//71 215//215
f 215//215 214//214 218//218 217//217
f 220//220 219//219 215//215 217//217
f 222//222 219//219 220//220 221//221
f 224//224 223//223 219//219 222//222
f 225//225 224//224 222//222
f 227//227 226//226 224//224 225//225
f 229//229 226//226 227//227 228//228
f 230//230 229//229 228//228
f 232//232 229//229 230//230 231//231
f 233//233 229//229 232//232
f 231//231 230//230 235//235 234//234
f 234//234 235//235 237//237 236//236
f 239//239 237//237 235//235 238//238
f 240//240 239//239 238//238
f 242//242 239//239 240//240 241//241
f 244//244 239//239 242//242 243//243
f 243//243 242//242 246//246 245//245
f 248//248 247//247 244//244 243//243
f 240//240 250//250 249//249 241//241
f 241//241 249//249 221//221
f 250//250 252//252 251//251 249//249
f 228//228 252//252 250//250 238//238
f 250//250 240//240 238//238
f 237//237 253//253 236//236
f 255//255 254//254 231//231 234//234
f 226//226 229//229 233//233 256//256
f 235//235 230//230 228//228 238//238
f 224//224 226//226 256//256 257//257
f 256//256 259//259 258//258 257//257
f 251//251 252//252 227//227 225//225
f 223//223 224//224 257//257 260//260
f 223//223 260//260 216//216
f 251//251 225//225 222//222
f 246//246 242//242 241//241 221//221
f 220//220 246//246 221//221
f 249//249 251//251 222//222 221//221
f 246//246 220//220 217//217 261//261
f 218//218 214//214 212//212 262//262
f 213//213 66//66 263//263 211//211
f 212//212 210//210 264//264 202//202
f 262//262 212//212 202//202
f 211//211 263//263 265//265 209//209
f 209//209 265//265 266//266 207//207
f 265//265 268//268 267//267 266//266
f 266//266 267//267 270//270 269//269
f 273//273 272//272 271//271 270//270
f 267//267 273//273 270//270
f 274//274 271//271 272//272 53//53
f 276//276 271//271 274//274 275//275
f 278//278 276//276 275//275 277//277
f 280//280 278//278 277//277 279//279
f 282//282 280//280 279//279 281//281
f 284//284 282//282 281//281 283//283
f 286//286 284//284 283//283 285//285
f 288//288 284//284 286//286 287//287
f 290//290 288//288 287//287 289//289
f 292//292 291//291 288//288 290//290
f 294//294 293//293 291//291 292//292
f 296//296 295//295 293//293 294//294
f 298//298 296//296 294//294 297//297
f 300//300 298//298 297//297 299//299
f 302//302 301//301 298//298 300//300
f 304//304 303//303 302//302 300//300
f 299//299 297//297 306//306 305//305
f 305//305 306//306 308//308 307//307
f 310//310 309//309 305//305 307//307
f 311//311 304//304 300//300 299//299
f 297//297 294//294 292//292 306//306
f 306//306 292//292 290//290 308//308
f 308//308 290//290 289//289 312//312
f 291//291 282//282 284//284 288//288
f 293//293 280//280 282//282 291//291
f 313//313 276//276 278//278 295//295
f 277//277 275//275 315//315 314//314
f 268//268 47//47 273//273 267//267
f 204//204 206//206 301//301 302//302
f 207//207 266//266 269//269 206//206
f 198//198 203//203 303//303 196//196
f 196//196 303//303 304//304 194//194
f 194//194 304//304 311//311 192//192
f 192//192 311//311 309//309 190//190
f 190//190 309//309 310//310 188//188
f 173//173 316//316 187//187 185//185
f 184//184 182//182 318//318 317//317
f 317//317 318//318 320//320 319//319
f 319//319 320//320 322//322 321//321
f 321//321 322//322 323//323
f 323//323 322//322 325//325 324//324
f 327//327 326//326 323//323 324//324
f 326//326 327//327 328//328
f 327//327 329//329 328//328
f 330//330 326//326 328//328
f 331//331 329//329 327//327 324//324
f 332//332 331//331 324//324
f 331//331 333//333 330//330 329//329
f 330//330 333//333 334//334 323//323
f 326//326 330//330 323//323
f 325//325 335//335 324//324
f 335//335 325//325 336//336
f 332//332 335//335 336//336
f 334//334 337//337 319//319 321//321
f 182//182 178//178 179//179 318//318
f 338//338 170//170 171//171 177//177
f 180//180 338//338 177//177
f 289//289 168//168 169//169 338//338
f 312//312 289//289 338//338
f 131//131 129//129 339//339 165//165
f 283//283 281//281 128//128 130//130
f 281//281 279//279 127//127 128//128
f 125//125 123//123 193//193 191//191
f 314//314 315//315 120//120 122//122
f 121//121 119//119 197//197 195//195
f 341//341 340//340 114//114 116//116
f 115//115 113//113 201//201 200//200
f 113//113 111//111 262//262 202//202
f 110//110 218//218 262//262 111//111
f 218//218 110//110 107//107 261//261
f 217//217 218//218 261//261
f 107//107 106//106 245//245 261//261
f 344//344 343//343 342//342 104//104
f 105//105 344//344 104//104
f 346//346 345//345 342//342 343//343
f 348//348 347//347 346//346 343//343
f 347//347 350//350 349//349 346//346
f 349//349 350//350 351//351
f 353//353 347//347 348//348 352//352
f 355//355 354//354 353//353 352//352
f 353//353 354//354 356//356
f 354//354 358//358 357//357 356//356
f 357//357 360//360 359//359 356//356
f 359//359 360//360 362//362 361//361
f 362//362 364//364 363//363 361//361
f 366//366 365//365 360//360 357//357
f 367//367 366//366 357//357
f 369//369 366//366 367//367 368//368
f 371//371 366//366 369//369 370//370
f 373//373 372//372 371//371 370//370
f 367//367 358//358 374//374 368//368
f 368//368 374//374 375//375
f 375//375 374//374 355//355 376//376
f 378//378 377//377 375//375 376//376
f 355//355 352//352 376//376
f 374//374 358//358 354//354 355//355
f 379//379 348//348 343//343 344//344
f 379//379 344//344 380//380
f 63//63 378//378 379//379 380//380
f 103//103 248//248 243//243 245//245
f 106//106 103//103 245//245
f 342//342 102//102 104//104
f 101//101 248//248 103//103
f 342//342 345//345 99//99 102//102
f 100//100 247//247 248//248 101//101
f 247//247 100//100 97//97
f 346//346 349//349 95//95 98//98
f 345//345 346//346 98//98
f 97//97 96//96 253//253 244//244
f 247//247 97//97 244//244
f 95//95 349//349 351//351 94//94
f 253//253 96//96 93//93 236//236
f 91//91 363//363 90//90
f 255//255 92//92 89//89
f 363//363 364//364 88//88 90//90
f 87//87 254//254 255//255 89//89
f 86//86 254//254 87//87
f 364//364 362//362 381//381 84//84
f 85//85 364//364 84//84
f 382//382 371//371 372//372 80//80
f 81//81 382//382 80//80
f 78//78 259//259 79//79
f 77//77 372//372 373//373 75//75
f 258//258 259//259 78//78 76//76
f 75//75 373//373 74//74
f 258//258 76//76 73//73
f 260//260 72//72 71//71 216//216
f 67//67 70//70 377//377 64//64
f 65//65 66//66 213//213 71//71
f 61//61 63//63 380//380 108//108
f 109//109 61//61 108//108
f 64//64 377//377 378//378 63//63
f 66//66 62//62 60//60 263//263
f 59//59 61//61 109//109 112//112
f 60//60 58//58 268//268 265//265
f 263//263 60//60 265//265
f 57//57 59//59 112//112 114//114
f 340//340 57//57 114//114
f 35//35 28//28 25//25 56//56
f 25//25 24//24 55//55 56//56
f 19//19 33//33 37//37 22//22
f 21//21 19//19 22//22
f 10//10 383//383 13//13
f 383//383 10//10 8//8
f 6//6 384//384 383//383 8//8
f 3//3 384//384 6//6
f 32//32 2//2 5//5 31//31
f 12//12 13//13 4//4 1//1
f 385//385 12//12 1//1
f 384//384 3//3 4//4
f 12//12 385//385 14//14
f 383//383 384//384 4//4 13//13
f 20//20 385//385 1//1 34//34
f 1//1 2//2 32//32 34//34
f 14//14 385//385 20//20 15//15
f 31//31 5//5 7//7 386//386
f 9//9 11//11 16//16 387//387
f 7//7 9//9 387//387 386//386
f 19//19 20//20 34//34 33//33
f 33//33 29//29 30//30 37//37
f 19//19 21//21 17//17
f 27//27 31//31 386//386 26//26
f 387//387 16//16 18//18 23//23
f 386//386 387//387 23//23 26//26
f 38//38 39//39 42//42
f 388//388 40//40 41//41
f 22//22 40//40 388//388 55//55
f 24//24 22//22 55//55
f 48//48 39//39 36//36 389//389
f 42//42 39//39 48//48 44//44
f 389//389 36//36 35//35 390//390
f 49//49 388//388 41//41 43//43
f 55//55 388//388 49//49 52//52
f 390//390 35//35 56//56 54//54
f 47//47 48//48 389//389 273//273
f 46//46 47//47 268//268 58//58
f 273//273 389//389 390//390 272//272
f 340//340 50//50 45//45 57//57
f 51//51 50//50 340//340 341//341
f 272//272 390//390 54//54 53//53
f 365//365 382//382 381//381
f 382//382 365//365 366//366 371//371
f 370//370 369//369 70//70 68//68
f 360//360 365//365 381//381 362//362
f 358//358 367//367 357//357
f 70//70 369//369 368//368 375//375
f 377//377 70//70 375//375
f 350//350 359//359 361//361 351//351
f 350//350 347//347 353//353 356//356
f 359//359 350//350 356//356
f 348//348 379//379 378//378 376//376
f 352//352 348//348 376//376
f 381//381 382//382 81//81 84//84
f 372//372 77//77 80//80
f 370//370 68//68 69//69 74//74
f 373//373 370//370 74//74
f 364//364 85//85 88//88
f 361//361 363//363 91//91 94//94
f 351//351 361//361 94//94
f 99//99 345//345 98//98
f 380//380 344//344 105//105 108//108
f 83//83 82//82 233//233 232//232
f 82//82 79//79 259//259 256//256
f 233//233 82//82 256//256
f 258//258 73//73 72//72 260//260
f 257//257 258//258 260//260
f 86//86 83//83 232//232 231//231
f 254//254 86//86 231//231
f 227//227 252//252 228//228
f 219//219 223//223 216//216 215//215
f 92//92 255//255 234//234 236//236
f 93//93 92//92 236//236
f 253//253 237//237 239//239 244//244
f 245//245 246//246 261//261
f 338//338 169//169 170//170
f 129//129 126//126 125//125 339//339
f 316//316 166//166 165//165
f 166//166 316//316 173//173 167//167
f 307//307 308//308 312//312 391//391
f 391//391 312//312 338//338 180//180
f 339//339 125//125 191//191 189//189
f 165//165 339//339 189//189 187//187
f 316//316 165//165 187//187
f 172//172 173//173 185//185 184//184
f 392//392 310//310 307//307 391//391
f 181//181 392//392 391//391 180//180
f 188//188 310//310 392//392 186//186
f 186//186 392//392 181//181 183//183
f 270//270 271//271 276//276 313//313
f 295//295 278//278 280//280 293//293
f 53//53 51//51 341//341 393//393
f 274//274 53//53 393//393
f 275//275 274//274 393//393 315//315
f 279//279 277//277 314//314 127//127
f 269//269 270//270 313//313 394//394
f 394//394 313//313 295//295 296//296
f 393//393 341//341 116//116 118//118
f 315//315 393//393 118//118 120//120
f 127//127 314//314 122//122 124//124
f 206//206 269//269 394//394 301//301
f 301//301 394//394 296//296 298//298
f 303//303 203//203 204//204 302//302
f 309//309 311//311 299//299 305//305
f 117//117 115//115 200//200 199//199
f 119//119 117//117 199//199 197//197
f 123//123 121//121 195//195 193//193
f 395//395 286//286 285//285 163//163
f 160//160 395//395 163//163 162//162
f 287//287 286//286 395//395 396//396
f 396//396 395//395 160//160 158//158
f 285//285 283//283 130//130 132//132
f 163//163 285//285 132//132 134//134
f 287//287 396//396 397//397 168//168
f 289//289 287//287 168//168
f 156//156 397//397 396//396 158//158
f 135//135 133//133 164//164 168//168
f 397//397 135//135 168//168
f 135//135 397//397 156//156 137//137
f 398//398 159//159 161//161 154//154
f 152//152 398//398 154//154 153//153
f 157//157 159//159 398//398 399//399
f 399//399 398//398 152//152 151//151
f 149//149 150//150 148//148
f 161//161 162//162 136//136 138//138
f 154//154 161//161 138//138 140//140
f 153//153 142//142 144//144
f 400//400 155//155 157//157 399//399
f 147//147 400//400 399//399 151//151
f 139//139 155//155 400//400 141//141
f 141//141 400//400 147//147 143//143
f 401//401 175//175 174//174 337//337
f 333//333 401//401 337//337 334//334
f 176//176 175//175 401//401 402//402
f 402//402 401//401 333//333 331//331
f 329//329 330//330 328//328
f 174//174 172//172 184//184 317//317
f 337//337 174//174 317//317 319//319
f 334//334 321//321 323//323
f 402//402 331//331 332//332 336//336
f 403//403 402//402 336//336
f 403//403 179//179 176//176 402//402
f 335//335 332//332 324//324
f 318//318 179//179 403//403 320//320
f 322//322 320//320 403//403 336//336
f 325//325 322//322 336//336
f 264//264 201//201 113//113 202//202
f 199//199 200//200 201//201 264//264 210//210 208//208 205//205 204//204 203//203 198//198
