# Blender 5.0.0
# www.blender.org
mtllib Walk_Forward0019.mtl
o Mball.010
v 1.845635 3.439271 0.238668
v 1.605964 3.113679 0.154073
v 1.616070 2.976345 0.488561
v 1.847099 3.274126 0.565402
v 1.340030 3.158704 0.179113
v 1.376990 3.013256 0.510028
v 1.113131 3.568120 0.309053
v 1.148273 3.421664 0.639754
v 1.232167 3.870645 0.392278
v 1.259443 3.698538 0.715824
v 1.628875 3.889517 0.380104
v 1.661173 3.709534 0.693765
v 1.660427 3.705866 0.700081
v 1.658840 3.870942 0.373332
v 1.639813 4.026342 0.044528
v 1.609849 4.044916 0.051301
v 1.620482 4.181573 -0.284311
v 1.591078 4.199799 -0.277665
v 1.807492 3.761544 -0.415577
v 1.826814 3.605548 -0.086961
v 1.611931 4.204977 -0.415481
v 1.566988 4.243105 -0.617177
v 1.194259 4.181150 -0.265421
v 1.243522 4.195176 -0.610864
v 1.142544 4.021250 -0.669319
v 1.075360 3.879077 -0.348521
v 1.302290 3.469677 -0.478457
v 1.328599 3.697441 -0.814357
v 1.567756 3.424794 -0.503435
v 1.494252 3.698495 -0.829900
v 1.321004 3.314104 -0.149691
v 1.586938 3.269079 -0.174731
v 1.807273 3.749900 -0.418975
v 1.826609 3.594671 -0.090135
v 0.949853 4.105307 -0.760667
v 1.137638 4.383426 -0.834851
v 1.701176 3.937819 -0.774203
v 1.597460 4.306220 -0.782471
v 1.456415 4.534454 -0.704567
v 1.631253 4.205886 -0.586232
v 1.622090 4.263364 -0.403052
v 1.522618 4.521802 -0.650626
v 1.439489 4.469319 -0.070540
v 1.304564 4.810488 -0.341359
v 1.225778 4.770910 0.224976
v 1.108830 5.082789 -0.063083
v 1.039152 5.100045 -0.130869
v 1.230879 4.836907 -0.399589
v 1.415252 4.370599 -0.030559
v 1.203373 4.662745 0.270069
v 0.981448 4.326810 0.282403
v 1.154186 4.054903 -0.008425
v 0.734030 4.286278 0.119458
v 0.857660 4.052697 -0.176047
v 1.312348 3.918056 -0.352749
v 1.036148 3.873555 -0.512632
v 0.685320 5.135502 0.477928
v 0.657973 5.299214 0.106851
v 0.466335 5.470644 0.550333
v 0.446787 5.575585 0.159488
v 0.603320 5.864031 0.603401
v 0.583776 5.961632 0.211165
v 0.657069 5.899228 0.605898
v 0.637508 5.996015 0.213577
v 0.218634 6.101203 -0.162753
v 0.221226 6.045996 -0.100383
v 0.621970 6.276296 -0.151693
v 0.616989 6.491261 -0.298170
v 0.208418 6.542168 -0.463225
v 0.801266 6.446142 -0.132815
v -0.180891 6.107659 -0.146413
v -0.191107 6.548625 -0.446885
v -0.191587 6.626587 -0.475008
v 0.207938 6.620130 -0.491348
v 0.209111 6.972000 -0.555341
v -0.190414 6.978457 -0.539001
v 0.217354 7.364736 -0.496067
v -0.182171 7.371193 -0.479727
v -0.169735 7.667722 -0.317873
v 0.229790 7.661265 -0.334213
v 0.233147 7.720375 -0.285403
v -0.166378 7.726832 -0.269063
v -0.141291 7.994340 0.138337
v 0.258234 7.987883 0.121996
v 0.262457 8.009603 0.196285
v -0.137068 8.016060 0.212625
v -0.118541 8.049704 0.553607
v 0.280984 8.043247 0.537267
v -0.098971 7.953549 0.946010
v 0.300554 7.947093 0.929669
v 0.314337 7.754699 1.236536
v -0.085188 7.761156 1.252876
v -0.082581 7.705877 1.315544
v 0.316944 7.699420 1.299204
v 0.327160 7.258454 1.599676
v -0.072365 7.264912 1.616016
v -0.071885 7.186950 1.644139
v 0.327640 7.180492 1.627799
v 0.326467 6.828622 1.691791
v -0.073058 6.835079 1.708132
v -0.081301 6.442343 1.648857
v 0.318224 6.435886 1.632517
v -0.093738 6.145814 1.487004
v 0.305787 6.139357 1.470664
v 0.302430 6.080246 1.421853
v -0.097095 6.086704 1.438193
v -0.122181 5.819196 1.030794
v 0.277344 5.812739 1.014454
v 0.273135 5.790946 0.940463
v -0.126398 5.797377 0.956626
v -0.145443 5.452656 0.679370
v 0.254466 5.442698 0.681867
v -0.147771 4.991956 0.707951
v 0.255317 4.980840 0.708775
v -0.134629 4.614678 0.639060
v 0.250042 4.571633 0.657423
v -0.144375 4.283607 0.516877
v 0.228169 4.222166 0.550400
v -0.167423 4.021499 0.475841
v 0.171403 3.927503 0.489881
v -0.139461 3.664730 0.519958
v 0.132322 3.555042 0.472910
v -0.103684 3.276659 0.558884
v 0.100462 3.162430 0.451163
v -0.064869 2.878788 0.552449
v 0.068387 2.769851 0.342178
v 0.472350 3.090903 0.284011
v 0.425943 2.696316 0.207710
v 0.039706 2.382695 0.200733
v 0.366925 2.296543 0.232963
v 0.016455 2.090267 0.085998
v 0.309986 1.916382 0.214661
v 0.014720 1.977283 0.064632
v 0.309433 1.519271 0.199579
v 0.013350 1.536201 0.000101
v 0.311919 1.120099 0.179402
v 0.062939 1.132989 -0.012380
v 0.319295 0.711186 0.147619
v 0.074323 0.728797 -0.023790
v 0.355330 0.337397 -0.146588
v 0.099656 0.405053 -0.189327
v 0.353244 0.059719 -0.373190
v 0.077998 0.129272 -0.425818
v 0.346818 -0.105363 -0.628090
v 0.343634 -0.095458 -0.695493
v 0.205814 0.212937 -0.935668
v 0.014719 0.470572 -0.697824
v 0.324339 0.201479 -0.951934
v 0.323022 0.240104 -0.957642
v 0.401337 0.219683 -0.942173
v 0.323425 0.619497 -0.822681
v 0.617933 0.498396 -0.719168
v 0.552995 0.145659 -0.441622
v 0.588930 0.423620 -0.206284
v 0.083067 0.820880 -0.397064
v 0.075606 1.172045 -0.400765
v 0.429517 0.904008 -0.556833
v 0.457402 1.206392 -0.565830
v 0.753669 0.908051 -0.304055
v 0.759311 1.179630 -0.283778
v 0.663020 0.722610 0.032940
v 0.648872 1.122358 0.086960
v 0.605968 1.529572 0.091237
v 0.016266 1.990213 0.045031
v 0.019476 2.083972 0.440604
v 0.022626 2.054405 0.436496
v 0.090451 1.640955 0.453282
v 0.083682 1.786627 -0.290664
v 0.044603 1.588511 0.089268
v 0.071765 1.501613 0.129099
v 0.064416 1.180322 0.190084
v 0.013211 1.243258 0.589320
v 0.061820 1.648827 0.542554
v -0.136354 0.821646 0.643649
v -0.034327 0.802568 0.261795
v -0.229458 0.782054 0.147052
v -0.279995 1.106331 0.014775
v -0.554630 1.106943 0.221271
v -0.543634 0.751012 0.278535
v -0.323021 1.490493 -0.068731
v -0.622251 1.496985 0.181085
v -0.464432 1.186640 0.613383
v -0.547196 1.575398 0.573103
v -0.247046 1.229235 0.699157
v -0.284935 1.631880 0.705832
v -0.560379 1.972398 0.531317
v -0.322804 2.028073 0.663790
v -0.578471 2.367132 0.486497
v -0.361806 2.429224 0.618265
v -0.608507 2.759831 0.431361
v -0.418183 2.823961 0.565098
v -0.557060 3.165288 0.365260
v -0.475666 3.198483 0.437033
v -0.560017 3.564873 0.302439
v -0.527792 3.578849 0.337751
v -0.558566 3.979703 0.209926
v -0.524632 3.987420 0.245442
v -0.504799 4.347313 0.232597
v -0.450074 4.362429 0.275346
v -0.436485 4.634362 0.515290
v -0.552723 5.036364 0.562980
v -0.561781 5.111967 0.531946
v -0.634180 4.478600 -0.106905
v -0.608346 4.490222 -0.146533
v -0.679565 4.918245 -0.035411
v -0.240939 4.548749 -0.373909
v -0.242203 4.980592 -0.248587
v -0.618478 5.203556 0.147627
v -0.198767 5.302158 -0.100971
v -0.602672 5.215306 0.147998
v -0.175543 5.610008 0.078876
v -0.330421 5.585973 0.190933
v -0.178288 6.052402 -0.083834
v -0.499976 5.978695 0.255326
v -0.560838 6.017375 0.262784
v -0.576605 6.295667 -0.102672
v -0.541267 5.920746 0.655065
v -0.480398 5.881258 0.647510
v -0.913771 6.378023 0.330531
v -0.894201 6.281868 0.722934
v -0.931927 6.351038 0.734879
v -0.951497 6.447192 0.342477
v -0.748652 6.471192 -0.069425
v -0.925097 6.866913 -0.002597
v -0.960847 6.850766 0.067483
v -0.916854 7.259649 0.056677
v -0.952604 7.243503 0.126757
v -0.929645 7.488327 0.499612
v -0.723923 7.649401 0.108398
v -0.889041 7.556231 0.508354
v -0.521246 7.904643 0.547079
v -0.544627 7.819248 0.127276
v -0.556856 7.688840 -0.071327
v -0.501676 7.808489 0.939482
v -0.869471 7.460076 0.900756
v -0.485917 7.530784 1.304483
v -0.665213 7.360937 1.285605
v -0.910075 7.392173 0.892014
v -0.858144 6.971186 1.233884
v -0.900725 6.988599 1.167008
v -0.908968 6.595862 1.107734
v -0.866388 6.578450 1.174610
v -0.488376 6.485897 1.513807
v -0.480133 6.878633 1.573081
v -0.505666 6.137610 1.273138
v -0.689943 6.182729 1.107783
v -0.408493 6.868080 1.608697
v -0.416737 6.475344 1.549423
v -1.040095 6.677095 0.788512
v -1.031852 7.069832 0.847786
v -1.059665 6.773250 0.396109
v -1.051422 7.165986 0.455384
v -0.480936 7.315818 1.450960
v -0.450717 7.942016 0.550038
v -0.431147 7.845861 0.942441
v -0.574146 7.340554 -0.311997
v -0.582389 6.947818 -0.371271
v -0.514586 6.956117 -0.412589
v -0.506343 7.348853 -0.353315
v -0.581586 6.510633 -0.249149
v -0.517896 6.007203 1.074535
v -0.310802 5.481652 0.581774
v 0.222475 5.608903 0.043470
v -0.615852 5.210418 0.157773
v 0.211695 5.301600 -0.135446
v 0.199909 4.949385 -0.278730
v 0.605133 4.937633 -0.141082
v 0.646842 5.250452 0.033719
v 0.191349 4.544151 -0.389083
v 0.569422 4.531519 -0.200945
v 0.662719 4.512986 -0.096109
v 0.627440 4.586543 -0.173746
v 0.746314 4.948828 -0.268640
v 0.698789 4.320344 0.255410
v 0.649633 3.905341 0.229116
v 0.669626 4.002360 -0.158049
v 0.628768 3.479993 0.210647
v 0.673247 3.537344 -0.189117
v 0.577479 3.084669 0.177227
v 0.622979 3.135809 -0.218616
v 0.511502 2.693648 0.140359
v 0.577875 2.741240 -0.254208
v 0.560492 2.289378 0.113015
v 0.641927 2.334419 -0.279469
v 0.565946 1.924069 0.101683
v 0.674439 1.953782 -0.288626
v 0.451993 1.983075 -0.538978
v 0.465171 2.386295 -0.480276
v 0.094650 2.016949 -0.326440
v 0.111984 2.426458 -0.415367
v 0.497385 2.771701 -0.360519
v 0.147522 2.827298 -0.455903
v 0.543461 3.167474 -0.335017
v 0.181331 3.223781 -0.511559
v 0.585214 3.572833 -0.314034
v 0.202888 3.638980 -0.504670
v -0.158098 3.114211 -0.378138
v -0.194112 3.519838 -0.423250
v -0.526912 3.068942 -0.150672
v -0.567845 3.475743 -0.134201
v -0.230471 3.953744 -0.449565
v -0.600014 3.952278 -0.200644
v -0.623957 3.950562 -0.160226
v -0.594748 3.476404 -0.088867
v -0.487840 2.659106 -0.194971
v -0.122845 2.728033 -0.310087
v -0.433020 2.263979 -0.146078
v -0.075190 2.348165 -0.176976
v -0.673496 2.663768 0.042113
v -0.654151 2.272528 0.097397
v -0.607896 3.071679 -0.025819
v -0.023846 1.971643 -0.031326
v 0.588165 4.036390 -0.280378
v 0.519666 3.488978 0.319462
v 0.556766 3.894167 0.339231
v 0.020928 2.055385 0.448897
v -0.210264 0.819540 0.680528
v -0.447540 0.783359 0.657522
v -0.185206 0.334177 0.553461
v -0.528611 0.366505 0.472838
v -0.142695 0.030867 0.333363
v -0.508700 0.062462 0.244518
v -0.102622 -0.164506 0.118424
v -0.479619 0.211188 -0.183122
v -0.532481 0.084431 0.220502
v -0.090850 -0.169701 0.038979
v -0.353114 0.099500 -0.250537
v -0.063429 0.094893 -0.232500
v -0.064249 0.140962 -0.241241
v -0.027971 0.117858 -0.214140
v -0.100407 0.526628 -0.120239
v -0.504709 0.408845 -0.072643
v 0.074776 0.419226 0.011697
v -0.038213 0.089027 0.297186
v -0.525499 0.388992 -0.057520
v -0.550961 0.620153 0.153599
v -0.062816 0.394890 0.516678
v 0.047297 1.585095 0.090116
v -0.021712 2.470311 0.499772
v 0.690254 5.029283 0.511584
v 0.668492 4.619219 0.506238
v 0.642396 6.458226 1.506106
v 0.710199 6.466525 1.464787
v 0.692909 6.118238 1.224117
v 0.650639 6.850963 1.565380
v 0.718442 6.859262 1.524062
v 1.061150 6.940166 1.155388
v 1.052907 6.547430 1.096113
v 0.717638 7.296447 1.401940
v 0.884705 7.335887 1.222215
v 0.712658 7.511413 1.255463
v 1.088657 6.563577 1.026033
v 1.096900 6.956313 1.085308
v 1.195718 7.033830 0.756681
v 1.187475 6.641093 0.697407
v 1.087550 7.359887 0.810314
v 1.067980 7.456041 0.417911
v 1.176148 7.129984 0.364279
v 1.049823 7.429056 0.822259
v 1.030253 7.525211 0.429857
v 0.696899 7.789117 0.890461
v 0.677329 7.885272 0.498059
v 0.627985 7.828743 0.899123
v 0.608416 7.924898 0.506721
v 0.825995 7.624351 0.045008
v 1.002440 7.228630 -0.021820
v 1.045021 7.211217 0.045057
v 1.036777 6.818480 -0.014217
v 0.994197 6.835894 -0.081094
v 0.616186 6.928447 -0.420291
v 0.624429 7.321182 -0.361017
v 0.552789 7.331736 -0.396632
v 0.544546 6.938999 -0.455907
v 1.167905 6.737247 0.305005
v 1.046127 6.414907 0.260777
v 1.065697 6.318752 0.653179
v 1.005524 6.347003 0.252034
v 1.025094 6.250849 0.644437
v 0.859975 6.157679 1.044393
v 0.680679 5.987832 1.025515
v 0.653948 7.799876 0.078256
v 0.641719 7.669469 -0.120347
v 1.357996 3.405922 0.924435
v 1.563702 3.000324 0.761344
v 1.845840 3.450148 0.241842
v 1.094105 3.723520 -0.019751
v 1.213140 4.026045 0.063475
v 1.591139 4.179492 -0.357833
v 0.890256 4.719916 -0.529848
v 0.721930 4.394480 -0.444301
v -0.367201 1.880478 -0.099488
v -0.630779 1.891302 0.139568
v 0.607901 4.272582 0.384545
v 0.190607 4.110365 -0.475873
v 0.720036 1.558825 -0.297682
v 0.456458 1.580995 -0.571510
v 0.054397 1.581968 -0.368011
v 0.665435 0.735394 -0.483546
v 0.344442 0.836089 -0.608574
v 0.049153 0.700100 -0.476540
v 0.048562 0.672484 0.223284
v -0.151263 0.759656 0.080284
v -0.553481 0.637359 0.169640
vn 0.9679 -0.2416 -0.0688
vn 0.3652 -0.8437 -0.3934
vn 0.3721 -0.9193 -0.1283
vn 0.9347 -0.1975 0.2954
vn -0.5967 -0.7486 -0.2890
vn -0.5755 -0.8175 0.0193
vn -0.9957 -0.0810 0.0458
vn -0.9343 -0.1843 0.3050
vn -0.5669 0.7182 0.4035
vn -0.5119 0.6081 0.6068
vn 0.2683 0.8629 0.4283
vn 0.5594 0.7252 0.4016
vn 0.5250 0.5605 0.6404
vn 0.7683 0.5851 0.2597
vn 0.7684 0.5947 0.2362
vn 0.2728 0.8760 0.3976
vn 0.7558 0.6357 0.1567
vn 0.2500 0.9311 0.2656
vn 0.9502 0.3114 -0.0113
vn 0.9815 0.1889 0.0321
vn 0.5826 0.8122 0.0316
vn 0.9471 0.2184 -0.2352
vn -0.5684 0.7973 0.2029
vn -0.4178 0.3466 -0.8398
vn -0.6216 -0.6515 -0.4350
vn -0.9960 -0.0151 -0.0876
vn -0.5833 -0.7003 -0.4115
vn -0.4497 -0.4881 -0.7480
vn 0.3591 -0.7799 -0.5126
vn 0.2228 -0.4517 -0.8639
vn -0.5957 -0.7388 -0.3152
vn 0.3641 -0.8336 -0.4155
vn 0.9532 -0.1630 -0.2544
vn 0.9448 -0.2716 -0.1835
vn -0.6818 -0.3248 -0.6555
vn -0.2078 0.3086 -0.9282
vn 0.7646 0.0335 -0.6437
vn 0.7117 0.2879 -0.6408
vn 0.3204 0.6530 -0.6862
vn 0.9830 -0.1727 -0.0617
vn 0.9703 0.1088 0.2159
vn 0.7775 0.5875 -0.2244
vn 0.8975 0.2362 0.3724
vn 0.7436 0.6597 -0.1086
vn 0.7648 0.3889 0.5137
vn 0.6381 0.7699 0.0017
vn 0.1886 0.8273 -0.5292
vn 0.2755 0.7782 -0.5644
vn 0.7450 -0.2513 0.6179
vn 0.6296 -0.0503 0.7753
vn 0.2954 -0.5428 0.7862
vn 0.2094 -0.7543 0.6222
vn -0.6797 -0.6700 0.2984
vn -0.6234 -0.7572 0.1950
vn 0.4202 -0.9057 0.0568
vn -0.2835 -0.9516 -0.1186
vn 0.6210 0.4338 0.6528
vn 0.6256 0.7581 -0.1841
vn 0.8470 -0.0287 0.5309
vn 0.8226 0.1804 -0.5393
vn 0.6871 -0.7169 0.1185
vn 0.6455 -0.5705 -0.5078
vn 0.5825 -0.8122 -0.0332
vn 0.5600 -0.7261 -0.3989
vn 0.1420 -0.6625 -0.7354
vn 0.2287 -0.5512 -0.8024
vn 0.4441 -0.6084 -0.6578
vn 0.4444 -0.3744 -0.8138
vn 0.1333 -0.4252 -0.8952
vn 0.6600 -0.4117 -0.6284
vn -0.2234 -0.6614 -0.7160
vn -0.2197 -0.4242 -0.8785
vn -0.2261 -0.2530 -0.9407
vn 0.1408 -0.2547 -0.9567
vn 0.1199 -0.0126 -0.9927
vn -0.2024 -0.0083 -0.9793
vn 0.1310 0.3113 -0.9412
vn -0.1990 0.3168 -0.9274
vn -0.2373 0.5676 -0.7884
vn 0.1669 0.5538 -0.8158
vn 0.1659 0.7222 -0.6715
vn -0.2118 0.7208 -0.6600
vn -0.1897 0.9067 -0.3767
vn 0.1916 0.8947 -0.4035
vn 0.2174 0.9521 -0.2151
vn -0.1857 0.9671 -0.1738
vn -0.1438 0.9865 0.0788
vn 0.1810 0.9815 0.0617
vn -0.1283 0.9127 0.3880
vn 0.1891 0.9089 0.3716
vn 0.2360 0.7733 0.5884
vn -0.1422 0.7860 0.6017
vn -0.1276 0.6612 0.7393
vn 0.2220 0.6636 0.7144
vn 0.2208 0.4218 0.8794
vn -0.1333 0.4252 0.8952
vn -0.1408 0.2547 0.9567
vn 0.2283 0.2507 0.9407
vn 0.2024 0.0083 0.9793
vn -0.1199 0.0126 0.9927
vn -0.1310 -0.3113 0.9412
vn 0.1990 -0.3168 0.9274
vn -0.1669 -0.5538 0.8158
vn 0.2169 -0.5611 0.7988
vn 0.1983 -0.7293 0.6548
vn -0.1659 -0.7222 0.6715
vn -0.1837 -0.8974 0.4011
vn 0.1951 -0.9011 0.3873
vn 0.2931 -0.8135 0.5023
vn -0.2766 -0.8194 0.5021
vn -0.3015 -0.2412 0.9225
vn 0.3210 -0.2430 0.9154
vn -0.2152 -0.0490 0.9753
vn 0.2051 -0.0181 0.9786
vn -0.2550 -0.2745 0.9271
vn 0.1625 -0.2294 0.9597
vn -0.3427 -0.2387 0.9086
vn 0.1533 -0.2585 0.9538
vn -0.3192 -0.0040 0.9477
vn 0.1788 -0.1004 0.9788
vn -0.1540 0.0846 0.9844
vn 0.2915 -0.0311 0.9561
vn 0.0736 0.0580 0.9956
vn 0.4496 -0.1141 0.8859
vn 0.4069 -0.0073 0.9135
vn 0.5942 -0.1606 0.7881
vn 0.5200 -0.1804 0.8349
vn 0.4316 -0.1532 0.8889
vn 0.6133 -0.1194 0.7808
vn 0.2073 -0.1035 0.9728
vn 0.5448 -0.1164 0.8305
vn -0.0310 -0.0857 0.9958
vn -0.9035 -0.0563 0.4250
vn -0.1202 -0.0487 0.9916
vn -0.9175 -0.0439 0.3953
vn -0.1644 -0.0647 0.9843
vn -0.8993 -0.0661 0.4322
vn -0.1125 -0.3426 0.9327
vn -0.8393 -0.2015 0.5049
vn 0.0299 -0.6280 0.7777
vn -0.7636 -0.3685 0.5302
vn 0.0869 -0.7495 0.6563
vn -0.7810 -0.5786 0.2353
vn 0.0815 -0.9931 -0.0849
vn 0.1225 -0.9177 -0.3779
vn -0.6353 -0.2513 -0.7302
vn -0.8973 0.1260 -0.4231
vn 0.0224 -0.4297 -0.9027
vn -0.0096 0.1471 -0.9891
vn 0.5823 -0.2093 -0.7856
vn -0.0428 0.5629 -0.8254
vn 0.8463 0.1047 -0.5224
vn 0.8102 -0.5473 0.2098
vn 0.7617 -0.4891 0.4249
vn -0.9037 0.1963 -0.3806
vn -0.8166 -0.0270 -0.5766
vn 0.1837 0.2769 -0.9432
vn 0.1714 0.0039 -0.9852
vn 0.9643 -0.0640 -0.2568
vn 0.9688 0.0271 -0.2465
vn 0.7261 -0.3252 0.6058
vn 0.7093 -0.0086 0.7048
vn 0.7240 0.0497 0.6880
vn -0.0689 0.8011 -0.5946
vn 0.8761 0.0860 0.4744
vn 0.9884 0.1191 0.0945
vn 0.9427 -0.2687 0.1978
vn -0.8595 0.1054 -0.5001
vn 0.9854 -0.1295 -0.1109
vn 0.8880 -0.0617 -0.4557
vn 0.8876 -0.2299 -0.3992
vn 0.8009 -0.0860 0.5926
vn 0.7940 0.0457 0.6062
vn 0.6879 -0.1014 0.7187
vn 0.9621 0.1449 -0.2310
vn -0.0505 0.3318 -0.9420
vn -0.0442 -0.2684 -0.9623
vn -0.9104 -0.1996 -0.3623
vn -0.9613 0.1306 -0.2424
vn -0.1441 -0.1761 -0.9738
vn -0.9395 -0.1444 -0.3107
vn -0.7260 -0.0501 0.6858
vn -0.7973 -0.0368 0.6025
vn 0.0419 0.0040 0.9991
vn -0.0056 0.0774 0.9970
vn -0.8127 0.0228 0.5823
vn -0.0239 0.1022 0.9945
vn -0.8238 0.0133 0.5668
vn -0.1159 0.0460 0.9922
vn -0.8598 0.0953 0.5017
vn -0.3075 0.1039 0.9459
vn -0.8823 0.1269 0.4532
vn -0.4932 0.1367 0.8591
vn -0.9024 0.0703 0.4250
vn -0.5997 0.1282 0.7899
vn -0.8958 0.0576 0.4408
vn -0.6337 0.0904 0.7683
vn -0.8985 -0.0328 0.4378
vn -0.7602 -0.1391 0.6346
vn -0.7018 -0.2685 0.6599
vn -0.7706 -0.0270 0.6368
vn -0.7100 0.3051 0.6347
vn -0.9986 -0.0501 0.0152
vn -0.8118 0.0543 -0.5814
vn -0.9189 0.1403 -0.3687
vn -0.2951 0.1830 -0.9378
vn -0.2835 0.3499 -0.8929
vn -0.9312 0.2520 -0.2633
vn -0.2919 0.4775 -0.8287
vn -0.7596 0.6050 -0.2387
vn -0.3988 0.1136 -0.9100
vn -0.8820 0.1298 -0.4531
vn -0.3214 -0.5600 -0.7636
vn -0.6790 -0.5964 -0.4281
vn -0.6056 -0.7209 -0.3371
vn -0.5182 -0.5998 -0.6096
vn -0.6234 -0.7817 0.0178
vn -0.6829 -0.7138 0.1554
vn -0.8119 -0.5185 -0.2683
vn -0.8007 -0.5942 0.0767
vn -0.8971 -0.4216 0.1323
vn -0.9078 -0.3497 -0.2316
vn -0.7287 -0.3962 -0.5585
vn -0.8184 -0.0846 -0.5684
vn -0.9032 -0.1268 -0.4101
vn -0.8280 0.2815 -0.4849
vn -0.9151 0.2597 -0.3083
vn -0.8938 0.4467 -0.0387
vn -0.7322 0.5885 -0.3429
vn -0.7867 0.6173 0.0066
vn -0.5676 0.8227 0.0326
vn -0.5114 0.8037 -0.3042
vn -0.5272 0.6245 -0.5762
vn -0.5368 0.7490 0.3885
vn -0.7668 0.5379 0.3502
vn -0.4466 0.6057 0.6586
vn -0.6614 0.4118 0.6269
vn -0.8700 0.3718 0.3238
vn -0.7572 0.1044 0.6448
vn -0.8536 0.1486 0.4992
vn -0.8859 -0.2342 0.4005
vn -0.7847 -0.2577 0.5638
vn -0.5527 -0.2960 0.7790
vn -0.5353 0.0708 0.8417
vn -0.4957 -0.6080 0.6202
vn -0.7131 -0.5646 0.4156
vn -0.3737 0.0698 0.9249
vn -0.3792 -0.3207 0.8680
vn -0.9701 -0.1715 0.1720
vn -0.9579 0.1464 0.2469
vn -0.9819 -0.1214 -0.1457
vn -0.9778 0.1976 -0.0702
vn -0.4444 0.3744 0.8138
vn -0.4069 0.9131 0.0269
vn -0.3645 0.8380 0.4062
vn -0.6147 0.3206 -0.7206
vn -0.6198 -0.0439 -0.7835
vn -0.4470 -0.0400 -0.8937
vn -0.4577 0.3527 -0.8162
vn -0.5264 -0.3654 -0.7677
vn -0.5078 -0.7829 0.3593
vn -0.8145 -0.0569 0.5773
vn 0.2689 0.1153 -0.9563
vn -0.9288 0.2263 0.2934
vn 0.1629 0.4577 -0.8741
vn 0.1613 0.3095 -0.9371
vn -0.0484 0.4040 -0.9135
vn 0.2456 0.6808 -0.6901
vn 0.1844 0.1965 -0.9630
vn 0.5442 0.0302 -0.8384
vn 0.1501 -0.5682 -0.8091
vn -0.4815 -0.3714 -0.7939
vn -0.3921 0.5299 -0.7520
vn 0.3631 0.8931 -0.2658
vn 0.9352 -0.0803 0.3449
vn 0.9540 0.0191 -0.2992
vn 0.9053 -0.1047 0.4116
vn 0.9660 -0.0475 -0.2540
vn 0.8837 -0.1675 0.4370
vn 0.9612 -0.1035 -0.2556
vn 0.8506 -0.0617 0.5222
vn 0.9667 0.0237 -0.2550
vn 0.8137 0.0244 0.5808
vn 0.9661 0.1048 -0.2358
vn 0.7580 0.0167 0.6520
vn 0.9693 0.0840 -0.2311
vn 0.1742 0.0743 -0.9819
vn 0.3350 0.0824 -0.9386
vn -0.7110 -0.1255 -0.6919
vn -0.4459 -0.0796 -0.8915
vn 0.5444 0.0328 -0.8382
vn -0.1287 -0.0821 -0.9883
vn 0.6256 -0.0465 -0.7787
vn 0.0524 -0.0644 -0.9965
vn 0.6590 0.0123 -0.7520
vn 0.1462 0.0060 -0.9892
vn -0.4121 -0.0908 -0.9066
vn -0.3962 -0.0689 -0.9156
vn -0.6772 -0.0493 -0.7342
vn -0.7309 -0.1004 -0.6751
vn -0.3470 0.0188 -0.9377
vn -0.7198 -0.0312 -0.6935
vn -0.9799 -0.0231 -0.1983
vn -0.9751 -0.0428 -0.2174
vn -0.5489 -0.1265 -0.8263
vn -0.4044 -0.1606 -0.9004
vn -0.4056 -0.2150 -0.8884
vn -0.4264 -0.2352 -0.8734
vn -0.9689 -0.0121 -0.2471
vn -0.9587 -0.1071 -0.2634
vn -0.9672 0.0397 -0.2511
vn -0.3903 -0.2703 -0.8801
vn 0.6506 0.0955 -0.7534
vn 0.5524 -0.1056 0.8269
vn 0.5861 -0.1326 0.7993
vn 0.7875 0.1986 0.5835
vn 0.1057 -0.1289 0.9860
vn -0.6386 -0.1052 0.7623
vn 0.1217 -0.4416 0.8889
vn -0.7465 -0.3031 0.5924
vn 0.1467 -0.6492 0.7463
vn -0.6559 -0.6788 0.3302
vn 0.2885 -0.9369 0.1973
vn -0.6833 -0.1451 -0.7156
vn -0.8959 -0.4029 0.1872
vn 0.3653 -0.9225 -0.1250
vn -0.4213 -0.4057 -0.8111
vn 0.3384 -0.4727 -0.8136
vn 0.3291 0.1207 -0.9366
vn 0.8363 -0.1851 -0.5161
vn 0.2516 0.5360 -0.8059
vn -0.5135 0.4624 -0.7228
vn 0.9578 0.1284 -0.2571
vn 0.8168 -0.3927 0.4226
vn -0.9158 0.1340 -0.3785
vn -0.8279 0.3422 -0.4444
vn 0.7496 -0.1912 0.6337
vn 0.6025 0.4392 -0.6664
vn 0.7193 -0.0118 0.6946
vn 0.4459 0.1283 0.8858
vn 0.3884 -0.2500 0.8869
vn 0.4420 -0.3343 0.8324
vn 0.6117 -0.3144 0.7259
vn 0.5300 -0.6265 0.5716
vn 0.4537 0.0594 0.8892
vn 0.6110 0.0562 0.7897
vn 0.8225 0.0786 0.5634
vn 0.8239 -0.2895 0.4872
vn 0.5256 0.3642 0.7688
vn 0.7273 0.3969 0.5599
vn 0.5182 0.5999 0.6095
vn 0.9050 -0.2808 0.3197
vn 0.9139 0.1109 0.3905
vn 0.9819 0.1214 0.1457
vn 0.9778 -0.1976 0.0702
vn 0.9037 0.3607 0.2306
vn 0.9003 0.4128 -0.1379
vn 0.9701 0.1715 -0.1720
vn 0.8030 0.5337 0.2652
vn 0.8097 0.5802 -0.0882
vn 0.5948 0.7305 0.3357
vn 0.5868 0.8094 -0.0206
vn 0.4383 0.8151 0.3788
vn 0.4174 0.9087 0.0036
vn 0.7143 0.5639 -0.4145
vn 0.7807 0.2657 -0.5656
vn 0.8753 0.2553 -0.4106
vn 0.8665 -0.1332 -0.4811
vn 0.7617 -0.0987 -0.6404
vn 0.5353 -0.0708 -0.8417
vn 0.5527 0.2960 -0.7790
vn 0.3792 0.3207 -0.8680
vn 0.3737 -0.0698 -0.9249
vn 0.9579 -0.1464 -0.2469
vn 0.8658 -0.3825 -0.3224
vn 0.8979 -0.4380 0.0441
vn 0.7586 -0.5516 -0.3468
vn 0.7985 -0.6020 0.0046
vn 0.7338 -0.5866 0.3428
vn 0.5134 -0.8008 0.3083
vn 0.5065 0.7855 -0.3556
vn 0.4957 0.6080 -0.6202
vn -0.2242 -0.0538 0.9731
vn 0.1405 -0.7228 0.6766
vn 0.9753 0.0740 0.2082
vn -0.9972 -0.0712 0.0235
vn -0.5743 0.7271 0.3762
vn 0.8224 -0.5011 0.2696
vn -0.4358 0.5109 -0.7410
vn -0.8990 -0.1219 -0.4206
vn -0.2486 -0.1790 -0.9519
vn -0.9475 -0.0894 -0.3071
vn 0.4819 -0.3626 0.7977
vn 0.1809 0.1098 -0.9773
vn 0.9657 0.0848 -0.2453
vn 0.1506 0.0918 -0.9843
vn -0.8266 0.0790 -0.5572
vn 0.8815 0.1395 -0.4511
vn -0.1227 0.6936 -0.7098
vn -0.9054 0.3464 -0.2455
vn 0.9353 0.3508 -0.0467
vn 0.2107 0.7364 -0.6429
vn -0.8488 0.3896 -0.3573
s 1
f 4//4 3//3 2//2 1//1
f 2//2 3//3 6//6 5//5
f 5//5 6//6 8//8 7//7
f 8//8 10//10 9//9 7//7
f 13//13 12//12 11//11 9//9
f 10//10 13//13 9//9
f 11//11 12//12 14//14
f 16//16 11//11 14//14 15//15
f 18//18 16//16 15//15 17//17
f 15//15 20//20 19//19 17//17
f 21//21 18//18 17//17
f 23//23 18//18 21//21 22//22
f 24//24 23//23 22//22
f 26//26 23//23 24//24 25//25
f 28//28 27//27 26//26 25//25
f 30//30 29//29 27//27 28//28
f 29//29 32//32 31//31 27//27
f 34//34 32//32 29//29 33//33
f 36//36 30//30 28//28 35//35
f 38//38 37//37 30//30 36//36
f 39//39 38//38 36//36
f 37//37 38//38 40//40 22//22
f 40//40 38//38 42//42 41//41
f 41//41 42//42 44//44 43//43
f 43//43 44//44 46//46 45//45
f 44//44 48//48 47//47 46//46
f 50//50 49//49 43//43 45//45
f 52//52 49//49 50//50 51//51
f 54//54 52//52 51//51 53//53
f 56//56 55//55 52//52 54//54
f 45//45 46//46 58//58 57//57
f 58//58 60//60 59//59 57//57
f 60//60 62//62 61//61 59//59
f 61//61 62//62 64//64 63//63
f 64//64 62//62 66//66 65//65
f 67//67 64//64 65//65
f 69//69 68//68 67//67 65//65
f 68//68 70//70 67//67
f 72//72 69//69 65//65 71//71
f 74//74 69//69 72//72 73//73
f 76//76 75//75 74//74 73//73
f 78//78 77//77 75//75 76//76
f 80//80 77//77 78//78 79//79
f 82//82 81//81 80//80 79//79
f 84//84 81//81 82//82 83//83
f 86//86 85//85 84//84 83//83
f 88//88 85//85 86//86 87//87
f 90//90 88//88 87//87 89//89
f 92//92 91//91 90//90 89//89
f 94//94 91//91 92//92 93//93
f 96//96 95//95 94//94 93//93
f 98//98 95//95 96//96 97//97
f 100//100 99//99 98//98 97//97
f 102//102 99//99 100//100 101//101
f 104//104 102//102 101//101 103//103
f 106//106 105//105 104//104 103//103
f 108//108 105//105 106//106 107//107
f 110//110 109//109 108//108 107//107
f 112//112 109//109 110//110 111//111
f 114//114 112//112 111//111 113//113
f 116//116 114//114 113//113 115//115
f 118//118 116//116 115//115 117//117
f 120//120 118//118 117//117 119//119
f 122//122 120//120 119//119 121//121
f 124//124 122//122 121//121 123//123
f 126//126 124//124 123//123 125//125
f 128//128 127//127 124//124 126//126
f 130//130 128//128 126//126 129//129
f 132//132 130//130 129//129 131//131
f 133//133 132//132 131//131
f 132//132 133//133 135//135 134//134
f 134//134 135//135 137//137 136//136
f 136//136 137//137 139//139 138//138
f 138//138 139//139 141//141 140//140
f 140//140 141//141 143//143 142//142
f 142//142 143//143 144//144
f 147//147 146//146 145//145 144//144
f 143//143 147//147 144//144
f 145//145 146//146 148//148
f 146//146 149//149 148//148
f 150//150 145//145 148//148
f 146//146 147//147 151//151 149//149
f 151//151 152//152 150//150 149//149
f 150//150 152//152 153//153 144//144
f 145//145 150//150 144//144
f 153//153 154//154 140//140 142//142
f 137//137 156//156 155//155 139//139
f 155//155 156//156 158//158 157//157
f 158//158 160//160 159//159 157//157
f 159//159 160//160 162//162 161//161
f 162//162 163//163 134//134 136//136
f 164//164 133//133 131//131
f 166//166 164//164 131//131 165//165
f 168//168 164//164 166//166 167//167
f 169//169 168//168 167//167
f 169//169 167//167 170//170
f 173//173 172//172 171//171 170//170
f 167//167 173//173 170//170
f 175//175 171//171 172//172 174//174
f 177//177 171//171 175//175 176//176
f 179//179 178//178 177//177 176//176
f 178//178 181//181 180//180 177//177
f 183//183 181//181 178//178 182//182
f 185//185 183//183 182//182 184//184
f 187//187 186//186 183//183 185//185
f 189//189 188//188 186//186 187//187
f 191//191 190//190 188//188 189//189
f 193//193 192//192 190//190 191//191
f 195//195 194//194 192//192 193//193
f 197//197 196//196 194//194 195//195
f 199//199 198//198 196//196 197//197
f 205//205 207//207 206//206 204//204
f 209//209 207//207 205//205 208//208
f 210//210 209//209 208//208
f 210//210 212//212 211//211 209//209
f 212//212 214//214 213//213 211//211
f 71//71 213//213 214//214 215//215
f 216//216 71//71 215//215
f 215//215 214//214 218//218 217//217
f 220//220 219//219 215//215 217//217
f 222//222 219//219 220//220 221//221
f 224//224 223//223 219//219 222//222
f 225//225 224//224 222//222
f 227//227 226//226 224//224 225//225
f 229//229 226//226 227//227 228//228
f 230//230 229//229 228//228
f 232//232 229//229 230//230 231//231
f 233//233 229//229 232//232
f 231//231 230//230 235//235 234//234
f 234//234 235//235 237//237 236//236
f 239//239 237//237 235//235 238//238
f 240//240 239//239 238//238
f 242//242 239//239 240//240 241//241
f 244//244 239//239 242//242 243//243
f 243//243 242//242 246//246 245//245
f 248//248 247//247 244//244 243//243
f 240//240 250//250 249//249 241//241
f 241//241 249//249 221//221
f 250//250 252//252 251//251 249//249
f 228//228 252//252 250//250 238//238
f 250//250 240//240 238//238
f 237//237 253//253 236//236
f 255//255 254//254 231//231 234//234
f 226//226 229//229 233//233 256//256
f 235//235 230//230 228//228 238//238
f 224//224 226//226 256//256 257//257
f 256//256 259//259 258//258 257//257
f 251//251 252//252 227//227 225//225
f 223//223 224//224 257//257 260//260
f 223//223 260//260 216//216
f 251//251 225//225 222//222
f 246//246 242//242 241//241 221//221
f 220//220 246//246 221//221
f 249//249 251//251 222//222 221//221
f 246//246 220//220 217//217 261//261
f 218//218 214//214 212//212 262//262
f 213//213 66//66 263//263 211//211
f 212//212 210//210 264//264 202//202
f 262//262 212//212 202//202
f 211//211 263//263 265//265 209//209
f 209//209 265//265 266//266 207//207
f 265//265 268//268 267//267 266//266
f 266//266 267//267 270//270 269//269
f 273//273 272//272 271//271 270//270
f 267//267 273//273 270//270
f 274//274 271//271 272//272 53//53
f 276//276 271//271 274//274 275//275
f 278//278 276//276 275//275 277//277
f 280//280 278//278 277//277 279//279
f 282//282 280//280 279//279 281//281
f 284//284 282//282 281//281 283//283
f 286//286 284//284 283//283 285//285
f 288//288 284//284 286//286 287//287
f 290//290 288//288 287//287 289//289
f 292//292 291//291 288//288 290//290
f 294//294 293//293 291//291 292//292
f 296//296 295//295 293//293 294//294
f 298//298 296//296 294//294 297//297
f 300//300 298//298 297//297 299//299
f 302//302 301//301 298//298 300//300
f 304//304 303//303 302//302 300//300
f 299//299 297//297 306//306 305//305
f 305//305 306//306 308//308 307//307
f 310//310 309//309 305//305 307//307
f 311//311 304//304 300//300 299//299
f 297//297 294//294 292//292 306//306
f 306//306 292//292 290//290 308//308
f 308//308 290//290 289//289 312//312
f 291//291 282//282 284//284 288//288
f 293//293 280//280 282//282 291//291
f 313//313 276//276 278//278 295//295
f 277//277 275//275 315//315 314//314
f 268//268 47//47 273//273 267//267
f 204//204 206//206 301//301 302//302
f 207//207 266//266 269//269 206//206
f 198//198 203//203 303//303 196//196
f 196//196 303//303 304//304 194//194
f 194//194 304//304 311//311 192//192
f 192//192 311//311 309//309 190//190
f 190//190 309//309 310//310 188//188
f 173//173 316//316 187//187 185//185
f 184//184 182//182 318//318 317//317
f 317//317 318//318 320//320 319//319
f 319//319 320//320 322//322 321//321
f 321//321 322//322 323//323
f 323//323 322//322 325//325 324//324
f 327//327 326//326 323//323 324//324
f 326//326 327//327 328//328
f 327//327 329//329 328//328
f 330//330 326//326 328//328
f 331//331 329//329 327//327 324//324
f 332//332 331//331 324//324
f 331//331 333//333 330//330 329//329
f 330//330 333//333 334//334 323//323
f 326//326 330//330 323//323
f 325//325 335//335 324//324
f 335//335 325//325 336//336
f 332//332 335//335 336//336
f 334//334 337//337 319//319 321//321
f 182//182 178//178 179//179 318//318
f 338//338 170//170 171//171 177//177
f 180//180 338//338 177//177
f 289//289 168//168 169//169 338//338
f 312//312 289//289 338//338
f 131//131 129//129 339//339 165//165
f 283//283 281//281 128//128 130//130
f 281//281 279//279 127//127 128//128
f 125//125 123//123 193//193 191//191
f 314//314 315//315 120//120 122//122
f 121//121 119//119 197//197 195//195
f 341//341 340//340 114//114 116//116
f 115//115 113//113 201//201 200//200
f 113//113 111//111 262//262 202//202
f 110//110 218//218 262//262 111//111
f 218//218 110//110 107//107 261//261
f 217//217 218//218 261//261
f 107//107 106//106 245//245 261//261
f 344//344 343//343 342//342 104//104
f 105//105 344//344 104//104
f 346//346 345//345 342//342 343//343
f 348//348 347//347 346//346 343//343
f 347//347 350//350 349//349 346//346
f 349//349 350//350 351//351
f 353//353 347//347 348//348 352//352
f 355//355 354//354 353//353 352//352
f 353//353 354//354 356//356
f 354//354 358//358 357//357 356//356
f 357//357 360//360 359//359 356//356
f 359//359 360//360 362//362 361//361
f 362//362 364//364 363//363 361//361
f 366//366 365//365 360//360 357//357
f 367//367 366//366 357//357
f 369//369 366//366 367//367 368//368
f 371//371 366//366 369//369 370//370
f 373//373 372//372 371//371 370//370
f 367//367 358//358 374//374 368//368
f 368//368 374//374 375//375
f 375//375 374//374 355//355 376//376
f 378//378 377//377 375//375 376//376
f 355//355 352//352 376//376
f 374//374 358//358 354//354 355//355
f 379//379 348//348 343//343 344//344
f 379//379 344//344 380//380
f 63//63 378//378 379//379 380//380
f 103//103 248//248 243//243 245//245
f 106//106 103//103 245//245
f 342//342 102//102 104//104
f 101//101 248//248 103//103
f 342//342 345//345 99//99 102//102
f 100//100 247//247 248//248 101//101
f 247//247 100//100 97//97
f 346//346 349//349 95//95 98//98
f 345//345 346//346 98//98
f 97//97 96//96 253//253 244//244
f 247//247 97//97 244//244
f 95//95 349//349 351//351 94//94
f 253//253 96//96 93//93 236//236
f 91//91 363//363 90//90
f 255//255 92//92 89//89
f 363//363 364//364 88//88 90//90
f 87//87 254//254 255//255 89//89
f 86//86 254//254 87//87
f 364//364 362//362 381//381 84//84
f 85//85 364//364 84//84
f 382//382 371//371 372//372 80//80
f 81//81 382//382 80//80
f 78//78 259//259 79//79
f 77//77 372//372 373//373 75//75
f 258//258 259//259 78//78 76//76
f 75//75 373//373 74//74
f 258//258 76//76 73//73
f 260//260 72//72 71//71 216//216
f 67//67 70//70 377//377 64//64
f 65//65 66//66 213//213 71//71
f 61//61 63//63 380//380 108//108
f 109//109 61//61 108//108
f 64//64 377//377 378//378 63//63
f 66//66 62//62 60//60 263//263
f 59//59 61//61 109//109 112//112
f 60//60 58//58 268//268 265//265
f 263//263 60//60 265//265
f 57//57 59//59 112//112 114//114
f 340//340 57//57 114//114
f 35//35 28//28 25//25 56//56
f 25//25 24//24 55//55 56//56
f 19//19 33//33 37//37 22//22
f 21//21 19//19 22//22
f 10//10 383//383 13//13
f 383//383 10//10 8//8
f 6//6 384//384 383//383 8//8
f 3//3 384//384 6//6
f 32//32 2//2 5//5 31//31
f 12//12 13//13 4//4 1//1
f 385//385 12//12 1//1
f 384//384 3//3 4//4
f 12//12 385//385 14//14
f 383//383 384//384 4//4 13//13
f 20//20 385//385 1//1 34//34
f 1//1 2//2 32//32 34//34
f 14//14 385//385 20//20 15//15
f 31//31 5//5 7//7 386//386
f 9//9 11//11 16//16 387//387
f 7//7 9//9 387//387 386//386
f 19//19 20//20 34//34 33//33
f 33//33 29//29 30//30 37//37
f 19//19 21//21 17//17
f 27//27 31//31 386//386 26//26
f 387//387 16//16 18//18 23//23
f 386//386 387//387 23//23 26//26
f 38//38 39//39 42//42
f 388//388 40//40 41//41
f 22//22 40//40 388//388 55//55
f 24//24 22//22 55//55
f 48//48 39//39 36//36 389//389
f 42//42 39//39 48//48 44//44
f 389//389 36//36 35//35 390//390
f 49//49 388//388 41//41 43//43
f 55//55 388//388 49//49 52//52
f 390//390 35//35 56//56 54//54
f 47//47 48//48 389//389 273//273
f 46//46 47//47 268//268 58//58
f 273//273 389//389 390//390 272//272
f 340//340 50//50 45//45 57//57
f 51//51 50//50 340//340 341//341
f 272//272 390//390 54//54 53//53
f 365//365 382//382 381//381
f 382//382 365//365 366//366 371//371
f 370//370 369//369 70//70 68//68
f 360//360 365//365 381//381 362//362
f 358//358 367//367 357//357
f 70//70 369//369 368//368 375//375
f 377//377 70//70 375//375
f 350//350 359//359 361//361 351//351
f 350//350 347//347 353//353 356//356
f 359//359 350//350 356//356
f 348//348 379//379 378//378 376//376
f 352//352 348//348 376//376
f 381//381 382//382 81//81 84//84
f 372//372 77//77 80//80
f 370//370 68//68 69//69 74//74
f 373//373 370//370 74//74
f 364//364 85//85 88//88
f 361//361 363//363 91//91 94//94
f 351//351 361//361 94//94
f 99//99 345//345 98//98
f 380//380 344//344 105//105 108//108
f 83//83 82//82 233//233 232//232
f 82//82 79//79 259//259 256//256
f 233//233 82//82 256//256
f 258//258 73//73 72//72 260//260
f 257//257 258//258 260//260
f 86//86 83//83 232//232 231//231
f 254//254 86//86 231//231
f 227//227 252//252 228//228
f 219//219 223//223 216//216 215//215
f 92//92 255//255 234//234 236//236
f 93//93 92//92 236//236
f 253//253 237//237 239//239 244//244
f 245//245 246//246 261//261
f 338//338 169//169 170//170
f 129//129 126//126 125//125 339//339
f 316//316 166//166 165//165
f 166//166 316//316 173//173 167//167
f 307//307 308//308 312//312 391//391
f 391//391 312//312 338//338 180//180
f 339//339 125//125 191//191 189//189
f 165//165 339//339 189//189 187//187
f 316//316 165//165 187//187
f 172//172 173//173 185//185 184//184
f 392//392 310//310 307//307 391//391
f 181//181 392//392 391//391 180//180
f 188//188 310//310 392//392 186//186
f 186//186 392//392 181//181 183//183
f 270//270 271//271 276//276 313//313
f 295//295 278//278 280//280 293//293
f 53//53 51//51 341//341 393//393
f 274//274 53//53 393//393
f 275//275 274//274 393//393 315//315
f 279//279 277//277 314//314 127//127
f 269//269 270//270 313//313 394//394
f 394//394 313//313 295//295 296//296
f 393//393 341//341 116//116 118//118
f 315//315 393//393 118//118 120//120
f 127//127 314//314 122//122 124//124
f 206//206 269//269 394//394 301//301
f 301//301 394//394 296//296 298//298
f 303//303 203//203 204//204 302//302
f 309//309 311//311 299//299 305//305
f 117//117 115//115 200//200 199//199
f 119//119 117//117 199//199 197//197
f 123//123 121//121 195//195 193//193
f 395//395 286//286 285//285 163//163
f 160//160 395//395 163//163 162//162
f 287//287 286//286 395//395 396//396
f 396//396 395//395 160//160 158//158
f 285//285 283//283 130//130 132//132
f 163//163 285//285 132//132 134//134
f 287//287 396//396 397//397 168//168
f 289//289 287//287 168//168
f 156//156 397//397 396//396 158//158
f 135//135 133//133 164//164 168//168
f 397//397 135//135 168//168
f 135//135 397//397 156//156 137//137
f 398//398 159//159 161//161 154//154
f 152//152 398//398 154//154 153//153
f 157//157 159//159 398//398 399//399
f 399//399 398//398 152//152 151//151
f 149//149 150//150 148//148
f 161//161 162//162 136//136 138//138
f 154//154 161//161 138//138 140//140
f 153//153 142//142 144//144
f 400//400 155//155 157//157 399//399
f 147//147 400//400 399//399 151//151
f 139//139 155//155 400//400 141//141
f 141//141 400//400 147//147 143//143
f 401//401 175//175 174//174 337//337
f 333//333 401//401 337//337 334//334
f 176//176 175//175 401//401 402//402
f 402//402 401//401 333//333 331//331
f 329//329 330//330 328//328
f 174//174 172//172 184//184 317//317
f 337//337 174//174 317//317 319//319
f 334//334 321//321 323//323
f 402//402 331//331 332//332 336//336
f 403//403 402//402 336//336
f 403//403 179//179 176//176 402//402
f 335//335 332//332 324//324
f 318//318 179//179 403//403 320//320
f 322//322 320//320 403//403 336//336
f 325//325 322//322 336//336
f 264//264 201//201 113//113 202//202
f 199//199 200//200 201//201 264//264 210//210 208//208 205//205 204//204 203//203 198//198
