# Blender 5.0.0
# www.blender.org
mtllib Walk_Forward0012.mtl
o Mball.010
v 1.152431 3.772334 1.925743
v 0.802638 3.582766 1.948241
v 0.733586 3.818536 2.240720
v 1.063733 3.987379 2.223979
v 0.592302 3.723564 1.848140
v 0.542929 3.942033 2.151825
v 0.575182 4.164330 1.648533
v 0.523796 4.382624 1.951938
v 0.810529 4.380179 1.594013
v 0.741115 4.579319 1.902764
v 1.161948 4.244501 1.716855
v 1.093778 4.427883 2.024816
v 1.091181 4.432025 2.030546
v 1.179740 4.216969 1.732290
v 1.248981 4.000229 1.431358
v 1.231189 4.027761 1.415923
v 1.317884 3.783461 1.130379
v 1.300424 3.810477 1.115233
v 1.295855 3.348805 1.320317
v 1.226608 3.564916 1.621529
v 1.323673 3.681996 1.034895
v 1.300240 3.537106 0.866514
v 0.949007 3.946392 0.992286
v 1.002791 3.615241 0.770696
v 0.846637 3.484273 0.781339
v 0.713977 3.730879 1.046711
v 0.731130 3.290116 1.246324
v 0.883392 3.082601 0.919543
v 0.941122 3.149620 1.346229
v 1.028965 3.013451 0.971414
v 0.661543 3.506824 1.547208
v 0.871878 3.366027 1.647308
v 1.290569 3.338825 1.323830
v 1.221671 3.555595 1.624810
v 0.791507 3.366735 0.494874
v 1.113701 3.408653 0.435343
v 1.309094 3.145958 0.970492
v 1.393411 3.387633 0.751932
v 1.380890 3.610894 0.605390
v 1.279083 3.567908 0.914446
v 1.233557 3.801446 0.960671
v 1.401200 3.660884 0.673143
v 1.094246 4.272391 0.895131
v 1.285974 4.164417 0.543062
v 0.972176 4.732367 0.772318
v 1.158542 4.662047 0.419196
v 1.147665 4.611527 0.330903
v 1.270109 4.117293 0.462337
v 1.008311 4.264898 0.942737
v 0.887711 4.709277 0.823870
v 0.567671 4.538412 0.821586
v 0.640598 4.136557 0.942522
v 0.476063 4.347983 0.549953
v 0.489985 3.963042 0.697833
v 0.794292 3.706676 0.971863
v 0.628397 3.525261 0.766207
v 0.530729 5.111804 0.652503
v 0.692703 5.204413 0.292630
v 0.342214 5.493688 0.630362
v 0.492618 5.483347 0.255736
v 0.510479 5.885390 0.654444
v 0.659992 5.852175 0.277779
v 0.565281 5.916313 0.666975
v 0.714598 5.880578 0.290270
v 0.490463 5.893188 -0.205696
v 0.460086 5.860865 -0.139182
v 0.885998 6.028169 -0.093324
v 0.971578 6.185953 -0.263696
v 0.666015 6.216856 -0.555185
v 1.070661 6.181278 -0.046443
v 0.115935 5.941515 -0.323011
v 0.291487 6.265183 -0.672501
v 0.314043 6.330688 -0.711302
v 0.688571 6.282361 -0.593987
v 0.769017 6.598853 -0.711242
v 0.394489 6.647181 -0.828557
v 0.814463 6.995393 -0.721936
v 0.439935 7.043721 -0.839251
v 0.434517 7.381908 -0.739652
v 0.809045 7.333581 -0.622336
v 0.802351 7.406476 -0.587267
v 0.427823 7.454804 -0.704583
v 0.334251 7.846472 -0.374385
v 0.708779 7.798144 -0.257069
v 0.687199 7.843595 -0.192366
v 0.312672 7.891923 -0.309681
v 0.202597 8.037153 -0.001732
v 0.577125 7.988826 0.115584
v 0.053410 8.074848 0.375047
v 0.427938 8.026521 0.492363
v 0.291708 7.943524 0.806467
v -0.082820 7.991852 0.689152
v -0.113310 7.959558 0.755952
v 0.261218 7.911230 0.873267
v 0.085666 7.587563 1.222757
v -0.288862 7.635890 1.105441
v -0.311417 7.570385 1.144243
v 0.063110 7.522058 1.261558
v -0.017336 7.205565 1.378813
v -0.391864 7.253893 1.261498
v -0.437310 6.857352 1.272192
v -0.062782 6.809025 1.389507
v -0.431892 6.519165 1.172592
v -0.057364 6.470838 1.289908
v -0.050670 6.397942 1.254839
v -0.425198 6.446269 1.137523
v -0.331626 6.054602 0.807326
v 0.042902 6.006274 0.924641
v 0.064368 5.960852 0.860223
v -0.310142 6.008944 0.742819
v -0.275394 5.575018 0.547710
v 0.091987 5.530977 0.682131
v -0.357177 5.038116 0.605339
v 0.023484 5.000914 0.737821
v -0.375589 4.603113 0.547228
v 0.008171 4.579915 0.674835
v -0.310300 4.257764 0.459199
v 0.044700 4.257547 0.535090
v -0.200142 3.871202 0.436324
v 0.166169 4.146381 0.440003
v -0.173952 3.495086 0.385396
v 0.189627 3.853900 0.537139
v -0.172268 3.122560 0.313808
v 0.186489 3.508471 0.647832
v -0.174613 2.756906 0.180524
v 0.180090 3.130542 0.702078
v 0.580795 3.483202 0.576607
v 0.574163 3.116932 0.706836
v 0.174430 2.729174 0.730191
v 0.562620 2.807311 0.916373
v 0.169894 2.421469 0.752621
v 0.561061 2.463197 1.081403
v 0.193262 2.339922 0.834307
v 0.594754 2.111172 1.228744
v 0.268376 1.992206 1.100369
v 0.628305 1.756825 1.371779
v 0.349719 1.639699 1.243923
v 0.661575 1.394396 1.507669
v 0.392411 1.296367 1.384332
v 0.595604 0.958533 1.537675
v 0.363707 0.972747 1.435614
v 0.532895 0.572702 1.600008
v 0.272949 0.595295 1.491557
v 0.484395 0.214787 1.572744
v 0.479586 0.147817 1.530122
v 0.386870 0.069134 1.182619
v 0.262337 0.483439 1.106275
v 0.500088 0.026978 1.196535
v 0.505335 0.040833 1.167940
v 0.579211 0.034613 1.199475
v 0.585558 0.379964 0.972610
v 0.855104 0.381965 1.153991
v 0.740214 0.511430 1.532507
v 0.842449 0.894926 1.471364
v 0.354088 1.090064 1.020055
v 0.300617 1.410504 0.890459
v 0.686748 0.999085 0.813717
v 0.654934 1.314540 0.675565
v 1.056059 1.127606 1.021200
v 1.001662 1.477036 0.882396
v 0.979722 1.307004 1.390591
v 0.946390 1.697680 1.237043
v 0.867395 2.050204 1.087373
v 0.170685 2.308345 0.742700
v -0.186461 2.088512 -0.243178
v -0.187146 2.064429 -0.260058
v -0.203492 1.693225 -0.531687
v 0.179882 1.939832 0.381198
v -0.212557 1.844818 -0.709355
v -0.222988 1.773326 -0.818246
v -0.298652 1.492125 -0.987469
v -0.349787 1.285089 -0.619630
v -0.244049 1.648541 -0.493890
v -0.557441 0.919459 -0.738826
v -0.450637 1.143799 -1.075956
v -0.643544 1.234374 -1.171337
v -0.645038 1.602476 -1.147281
v -0.921007 1.508041 -0.956111
v -0.961198 1.169607 -1.055848
v -0.631086 1.986253 -1.057366
v -0.932378 1.872029 -0.825651
v -0.829983 1.297370 -0.595435
v -0.856803 1.663030 -0.464519
v -0.611352 1.240974 -0.517381
v -0.593014 1.579634 -0.343416
v -0.814287 2.025409 -0.336434
v -0.575650 1.946220 -0.213609
v -0.784401 2.390014 -0.218013
v -0.568009 2.323138 -0.088316
v -0.766049 2.762852 -0.105760
v -0.570081 2.704243 0.049825
v -0.663056 3.141187 0.005649
v -0.576784 3.113650 0.094909
v -0.614099 3.521711 0.117600
v -0.581139 3.508231 0.156836
v -0.541824 3.980469 0.148796
v -0.516798 3.962024 0.187237
v -0.489452 4.428260 0.066597
v -0.474797 4.409506 0.127380
v -0.630554 4.587118 0.239455
v -0.693249 5.060503 0.304620
v -0.674378 5.149129 0.281931
v -0.444706 4.666934 -0.200805
v -0.417654 4.669078 -0.220695
v -0.465885 5.095201 -0.168332
v -0.036200 4.633449 -0.358673
v -0.031884 5.013824 -0.260206
v -0.533506 5.262453 -0.061007
v -0.031527 5.297653 -0.154960
v -0.519088 5.270730 -0.055062
v -0.045226 5.547299 -0.028082
v -0.236184 5.574305 0.027470
v 0.085479 5.909213 -0.256296
v -0.355890 5.982611 -0.040718
v -0.408458 6.027403 -0.061984
v -0.237585 6.173152 -0.445270
v -0.557665 6.063617 0.314577
v -0.505252 6.016358 0.335780
v -0.704603 6.428797 -0.179008
v -0.853790 6.466492 0.197771
v -0.882574 6.540430 0.184404
v -0.733387 6.502734 -0.192375
v -0.382283 6.368761 -0.501556
v -0.509971 6.787642 -0.566481
v -0.572720 6.798957 -0.512230
v -0.464525 7.184182 -0.577175
v -0.527275 7.195498 -0.522924
v -0.612912 7.553954 -0.220724
v -0.245947 7.558381 -0.533638
v -0.568267 7.618417 -0.211090
v -0.189463 7.932495 -0.114921
v -0.061284 7.711491 -0.486757
v -0.015669 7.520557 -0.647724
v -0.338650 7.970190 0.261858
v -0.717454 7.656113 0.165689
v -0.508845 7.824577 0.643580
v -0.693508 7.671468 0.596699
v -0.762099 7.591650 0.156054
v -0.912086 7.297268 0.553162
v -0.922766 7.295427 0.475909
v -0.968211 6.898887 0.486603
v -0.957531 6.900727 0.563856
v -0.754281 6.891137 1.009514
v -0.708835 7.287678 0.998820
v -0.730761 6.477171 0.846035
v -0.829844 6.481846 0.628781
v -0.658101 7.282939 1.056228
v -0.703546 6.886399 1.066922
v -0.952838 6.881677 0.141816
v -0.907393 7.278217 0.131122
v -0.803652 6.843982 -0.234963
v -0.758206 7.240522 -0.245657
v -0.594425 7.666792 0.813953
v -0.119649 7.962934 -0.095497
v -0.268836 8.000629 0.281282
v 0.007850 7.106591 -0.811204
v -0.037595 6.710051 -0.800510
v 0.042388 6.697922 -0.816972
v 0.087834 7.094462 -0.827667
v -0.152005 6.330936 -0.615642
v -0.685146 6.286238 0.685067
v -0.386298 5.586767 0.401982
v 0.336278 5.498225 0.070373
v -0.535569 5.267963 -0.052158
v 0.364046 5.253736 -0.060581
v 0.387859 4.917093 -0.203937
v 0.728258 4.823159 0.039621
v 0.711386 5.152297 0.220325
v 0.363076 4.507908 -0.321085
v 0.656871 4.411638 -0.084308
v 0.699484 4.383509 0.066039
v 0.658195 4.278226 0.199975
v 0.933675 4.386970 0.134952
v 0.547378 4.377234 0.411881
v 0.624318 4.089165 0.234690
v 0.678927 3.934089 -0.109485
v 0.689812 3.762182 0.334415
v 0.701747 3.524733 -0.018624
v 0.680916 3.418813 0.490491
v 0.689668 3.170174 0.140417
v 0.654009 3.070311 0.644202
v 0.684178 2.821491 0.296214
v 0.745545 2.724384 0.800733
v 0.785815 2.479616 0.451481
v 0.794960 2.396816 0.945254
v 0.838927 2.161988 0.591366
v 0.577912 2.011427 0.383938
v 0.576115 2.369389 0.240724
v 0.176190 2.123608 0.270521
v 0.178011 2.435533 0.109304
v 0.586065 2.764739 0.177310
v 0.185637 2.765766 -0.062349
v 0.592945 3.112865 0.015800
v 0.190746 3.092520 -0.237354
v 0.604799 3.475643 -0.137991
v 0.217671 3.485511 -0.357411
v -0.228880 3.383567 -0.559768
v -0.214703 3.763851 -0.504173
v -0.620212 3.364610 -0.455334
v -0.613160 3.711218 -0.294371
v -0.173128 4.171146 -0.444202
v -0.522182 4.180513 -0.229255
v -0.549022 4.164882 -0.195580
v -0.642693 3.694604 -0.256579
v -0.625425 3.033026 -0.645671
v -0.227783 3.007784 -0.600996
v -0.622661 2.676647 -0.777165
v -0.221904 2.623585 -0.616143
v -0.825450 2.947264 -0.475209
v -0.855570 2.578178 -0.585862
v -0.708230 3.321176 -0.364490
v -0.215622 2.226898 -0.620732
v 0.613521 3.909644 -0.221283
v 0.585990 3.824060 0.425469
v 0.531702 4.127763 0.323291
v -0.192249 2.058407 -0.261319
v -0.631562 0.904644 -0.704284
v -0.870476 0.927363 -0.725560
v -0.663778 0.578978 -1.011342
v -0.996414 0.711622 -1.055156
v -0.647654 0.464077 -1.324848
v -1.002244 0.604689 -1.375940
v -0.621367 0.436830 -1.589574
v -0.936011 1.010125 -1.679350
v -1.022067 0.642723 -1.386566
v -0.606669 0.483585 -1.659680
v -0.820948 0.942090 -1.786745
v -0.535457 0.882765 -1.782374
v -0.530373 0.927457 -1.770782
v -0.498451 0.884541 -1.758390
v -0.526409 1.176814 -1.507683
v -0.942589 1.106659 -1.502956
v -0.371537 0.972289 -1.445288
v -0.535586 0.521414 -1.334910
v -0.966206 1.083001 -1.497634
v -0.975129 1.141363 -1.220885
v -0.533810 0.636107 -1.021711
v -0.220176 1.852361 -0.752835
v -0.179704 2.405780 -0.025051
v 0.508408 5.016167 0.684819
v 0.444703 4.633484 0.673424
v 0.289319 6.758283 1.377922
v 0.369303 6.746154 1.361460
v 0.392822 6.332189 1.197981
v 0.334765 7.154823 1.367229
v 0.414748 7.142694 1.350766
v 0.887124 7.065104 1.116737
v 0.841678 6.668564 1.127431
v 0.529158 7.521810 1.165898
v 0.759436 7.483985 1.051812
v 0.614738 7.679594 0.995526
v 0.904427 6.657248 1.073180
v 0.949873 7.053789 1.062486
v 1.180804 7.008764 0.785219
v 1.135359 6.612224 0.795913
v 1.110540 7.350011 0.742631
v 1.259727 7.312316 0.365852
v 1.329991 6.971068 0.408440
v 1.081756 7.423949 0.729264
v 1.230943 7.386254 0.352485
v 0.784933 7.825207 0.613804
v 0.934120 7.787512 0.237025
v 0.724029 7.872514 0.592283
v 0.873216 7.834818 0.215504
v 1.206997 7.370899 -0.078525
v 1.334684 6.952019 -0.013599
v 1.345364 6.953859 0.063653
v 1.299919 6.557319 0.074347
v 1.289239 6.555478 -0.002905
v 1.085988 6.565068 -0.448564
v 1.131434 6.961608 -0.459258
v 1.080699 6.966347 -0.516666
v 1.035254 6.569806 -0.505972
v 1.284546 6.574529 0.419134
v 1.139252 6.261096 0.394202
v 0.990065 6.298791 0.770981
v 1.094607 6.196633 0.384567
v 0.945420 6.234328 0.761346
v 0.623100 6.294364 1.083894
v 0.438437 6.141255 1.037013
v 1.062299 7.566508 -0.134811
v 1.107914 7.375574 -0.295779
v 0.684232 4.573939 2.221376
v 0.686351 4.110955 2.389756
v 1.157368 3.781655 1.922461
v 0.644423 3.947591 1.347600
v 0.879770 4.163440 1.293081
v 1.148233 3.811158 1.003673
v 1.012613 3.921705 0.261234
v 0.681489 3.851995 0.347403
v -0.618173 2.338801 -0.921452
v -0.884442 2.230212 -0.699434
v 0.440950 4.342833 0.468312
v 0.310837 4.059628 -0.413008
v 0.912642 1.819476 0.732184
v 0.608820 1.653374 0.535619
v 0.215146 1.761911 0.645019
v 0.960274 0.760080 1.097185
v 0.654609 0.740956 0.911392
v 0.350742 0.839756 1.058516
v -0.378845 1.048346 -1.161037
v -0.560553 1.247332 -1.239570
v -0.976458 1.145614 -1.199917
vn 0.6782 -0.4545 0.5774
vn -0.1325 -0.8070 0.5755
vn -0.1615 -0.6672 0.7271
vn 0.6812 -0.1750 0.7109
vn -0.8937 -0.4286 0.1326
vn -0.8950 -0.2802 0.3471
vn -0.8975 0.2552 -0.3596
vn -0.9269 0.3669 -0.0796
vn -0.1059 0.8134 -0.5720
vn -0.1342 0.9419 -0.3080
vn 0.6839 0.6711 -0.2862
vn 0.8601 0.5056 -0.0680
vn 0.7415 0.6272 0.2382
vn 0.9591 0.2783 0.0508
vn 0.9629 0.2685 0.0277
vn 0.6908 0.6525 -0.3116
vn 0.9694 0.2365 -0.0662
vn 0.6880 0.5899 -0.4227
vn 0.9801 -0.0852 0.1794
vn 0.9390 -0.1381 0.3151
vn 0.8988 0.2811 -0.3364
vn 0.9882 0.0583 0.1417
vn -0.0672 0.7112 -0.6998
vn -0.4135 -0.4600 -0.7858
vn -0.8949 -0.4206 0.1494
vn -0.8531 0.2033 -0.4805
vn -0.8694 -0.4936 0.0248
vn -0.5973 -0.7696 -0.2255
vn -0.1035 -0.8815 0.4606
vn 0.0659 -0.9954 -0.0696
vn -0.8908 -0.4404 0.1116
vn -0.1289 -0.8187 0.5595
vn 0.7688 -0.4935 0.4067
vn 0.6663 -0.5241 0.5303
vn -0.5663 -0.6121 -0.5520
vn 0.2801 -0.5170 -0.8088
vn 0.7712 -0.6365 -0.0126
vn 0.9330 -0.3473 -0.0945
vn 0.8419 -0.1227 -0.5254
vn 0.5348 -0.1927 0.8227
vn 0.6964 0.1474 0.7023
vn 0.9895 0.1210 0.0789
vn 0.6845 0.3214 0.6544
vn 0.9673 0.2482 0.0521
vn 0.5884 0.5191 0.6199
vn 0.8757 0.4820 0.0294
vn 0.8128 0.2544 -0.5240
vn 0.8383 0.0354 -0.5441
vn 0.1770 0.2412 0.9542
vn 0.0723 0.3585 0.9307
vn -0.5454 0.1092 0.8310
vn -0.5337 0.0598 0.8435
vn -0.9274 -0.3322 0.1717
vn -0.9748 -0.1882 0.1195
vn -0.2910 -0.3598 0.8865
vn -0.8277 -0.4688 0.3086
vn 0.4515 0.4873 0.7475
vn 0.7814 0.6201 -0.0700
vn 0.5587 -0.0271 0.8290
vn 0.9880 0.0675 -0.1386
vn 0.4462 -0.6834 0.5777
vn 0.6689 -0.7428 -0.0297
vn 0.3917 -0.8144 0.4282
vn 0.5157 -0.8538 0.0717
vn 0.2424 -0.8589 -0.4511
vn 0.3705 -0.7798 -0.5046
vn 0.5256 -0.8103 -0.2590
vn 0.6302 -0.6099 -0.4805
vn 0.3342 -0.6516 -0.6810
vn 0.7669 -0.6136 -0.1883
vn -0.1183 -0.8037 -0.5832
vn -0.0182 -0.6022 -0.7982
vn 0.0297 -0.4360 -0.8995
vn 0.3952 -0.4848 -0.7802
vn 0.4244 -0.2414 -0.8727
vn 0.1092 -0.2036 -0.9729
vn 0.4672 0.0881 -0.8797
vn 0.1537 0.1183 -0.9810
vn 0.1237 0.3783 -0.9174
vn 0.4983 0.3406 -0.7973
vn 0.4793 0.5195 -0.7074
vn 0.1335 0.5371 -0.8329
vn 0.1073 0.7666 -0.6331
vn 0.4562 0.7332 -0.5043
vn 0.4365 0.8274 -0.3535
vn 0.0637 0.8742 -0.4813
vn 0.0319 0.9668 -0.2536
vn 0.3338 0.9333 -0.1322
vn -0.0630 0.9967 0.0506
vn 0.2403 0.9554 0.1714
vn 0.1954 0.8807 0.4314
vn -0.1714 0.9436 0.2833
vn -0.2299 0.8561 0.4628
vn 0.1179 0.8049 0.5816
vn 0.0184 0.5998 0.7999
vn -0.3342 0.6516 0.6810
vn -0.3952 0.4848 0.7802
vn -0.0282 0.4335 0.9007
vn -0.1092 0.2036 0.9729
vn -0.4244 0.2414 0.8727
vn -0.4672 -0.0881 0.8797
vn -0.1537 -0.1183 0.9810
vn -0.4983 -0.3406 0.7973
vn -0.1425 -0.3692 0.9184
vn -0.1457 -0.5455 0.8253
vn -0.4793 -0.5195 0.7074
vn -0.4483 -0.7355 0.5081
vn -0.1057 -0.7588 0.6427
vn -0.0419 -0.6542 0.7552
vn -0.5456 -0.6380 0.5433
vn -0.6100 -0.0737 0.7890
vn -0.0374 -0.1179 0.9923
vn -0.5416 0.0337 0.8400
vn -0.1155 0.0105 0.9933
vn -0.5603 -0.2773 0.7805
vn -0.1017 -0.2748 0.9561
vn -0.5309 -0.2805 0.7997
vn 0.0050 -0.3693 0.9293
vn -0.4088 -0.0540 0.9110
vn 0.1294 -0.1532 0.9797
vn -0.5132 -0.0276 0.8578
vn -0.0425 0.2122 0.9763
vn -0.5821 -0.1080 0.8059
vn -0.2569 0.1708 0.9512
vn -0.5954 -0.2099 0.7755
vn -0.4716 0.1105 0.8749
vn 0.4595 0.2884 0.8400
vn 0.3417 0.3344 0.8783
vn -0.6934 0.0842 0.7156
vn 0.1119 0.4003 0.9095
vn -0.8388 0.0868 0.5374
vn -0.0194 0.4199 0.9074
vn -0.8463 0.1963 0.4953
vn -0.0093 0.4135 0.9104
vn -0.8158 0.1288 0.5638
vn -0.0216 0.3664 0.9302
vn -0.8111 0.0974 0.5768
vn -0.0164 0.2432 0.9698
vn -0.7964 0.1166 0.5935
vn -0.0464 0.1325 0.9901
vn -0.8146 0.1900 0.5481
vn -0.0481 0.0525 0.9975
vn -0.8537 0.0015 0.5207
vn -0.1258 -0.5504 0.8254
vn -0.0699 -0.6895 0.7209
vn -0.7370 -0.6227 -0.2628
vn -0.8792 -0.1482 -0.4528
vn -0.1248 -0.9908 -0.0518
vn -0.0213 -0.7008 -0.7130
vn 0.5381 -0.8324 -0.1324
vn 0.0489 -0.3187 -0.9466
vn 0.8561 -0.4647 -0.2260
vn 0.6533 -0.2216 0.7239
vn 0.6827 -0.0735 0.7270
vn -0.9083 -0.1648 -0.3845
vn -0.8983 -0.3149 -0.3066
vn 0.0384 -0.3453 -0.9377
vn 0.0448 -0.4039 -0.9137
vn 0.9375 -0.1891 -0.2922
vn 0.9082 -0.0225 -0.4180
vn 0.7773 0.1044 0.6205
vn 0.8119 0.3279 0.4831
vn 0.8289 0.3487 0.4375
vn -0.9589 -0.1189 0.2577
vn -0.4937 -0.3630 0.7902
vn -0.2536 -0.5645 0.7855
vn 0.8082 -0.5886 -0.0168
vn -0.5687 -0.7204 -0.3969
vn 0.9659 -0.1277 -0.2254
vn 0.8537 0.1305 -0.5042
vn 0.8285 -0.0353 -0.5589
vn 0.7846 -0.4595 0.4163
vn 0.7248 -0.4761 0.4981
vn 0.6704 -0.4893 0.5579
vn 0.9849 0.1192 -0.1254
vn 0.0045 0.7678 -0.6406
vn -0.0418 0.2262 -0.9732
vn -0.9208 0.0927 -0.3787
vn -0.9430 0.3291 -0.0488
vn -0.0152 0.3100 -0.9506
vn -0.9460 0.1355 -0.2944
vn -0.7459 -0.2359 0.6229
vn -0.8110 -0.1874 0.5541
vn 0.0315 -0.4421 0.8964
vn -0.0493 -0.4038 0.9135
vn -0.8118 -0.1202 0.5714
vn -0.1443 -0.3718 0.9170
vn -0.8368 -0.1244 0.5332
vn -0.3005 -0.3548 0.8853
vn -0.8626 -0.0266 0.5051
vn -0.4482 -0.2543 0.8570
vn -0.8768 0.0387 0.4793
vn -0.5749 -0.1354 0.8070
vn -0.9054 0.0567 0.4207
vn -0.6526 -0.0651 0.7549
vn -0.9344 0.1477 0.3243
vn -0.7616 0.0280 0.6475
vn -0.9948 0.0596 -0.0827
vn -0.9552 -0.1254 0.2679
vn -0.9593 -0.2508 0.1300
vn -0.9802 0.0317 0.1956
vn -0.8636 0.4016 0.3050
vn -0.8888 0.0445 -0.4562
vn -0.5832 0.1167 -0.8039
vn -0.5736 0.1541 -0.8045
vn -0.0721 0.2043 -0.9762
vn -0.0006 0.3000 -0.9539
vn -0.6287 0.2614 -0.7324
vn 0.0381 0.4282 -0.9029
vn -0.5166 0.6978 -0.4961
vn -0.0878 0.0119 -0.9961
vn -0.6487 0.1309 -0.7497
vn -0.1799 -0.7022 -0.6889
vn -0.6134 -0.6082 -0.5038
vn -0.5951 -0.7168 -0.3633
vn -0.4117 -0.6753 -0.6119
vn -0.7267 -0.6859 -0.0388
vn -0.8046 -0.5915 0.0524
vn -0.7557 -0.4867 -0.4382
vn -0.8661 -0.4882 -0.1074
vn -0.9411 -0.3067 -0.1423
vn -0.8171 -0.3126 -0.4844
vn -0.5721 -0.4400 -0.6922
vn -0.5797 -0.1387 -0.8029
vn -0.7074 -0.1373 -0.6934
vn -0.5346 0.2156 -0.8171
vn -0.6707 0.2412 -0.7014
vn -0.7115 0.4740 -0.5187
vn -0.4360 0.5192 -0.7351
vn -0.5984 0.6407 -0.4812
vn -0.3729 0.8251 -0.4245
vn -0.2172 0.7082 -0.6718
vn -0.1823 0.4856 -0.8550
vn -0.4847 0.8711 -0.0792
vn -0.7313 0.6640 -0.1557
vn -0.5291 0.8078 0.2599
vn -0.7677 0.6130 0.1866
vn -0.8471 0.5008 -0.1777
vn -0.9184 0.3099 0.2458
vn -0.9445 0.3244 0.0510
vn -0.9961 -0.0747 0.0478
vn -0.9646 -0.0677 0.2549
vn -0.8238 -0.0777 0.5615
vn -0.7804 0.3046 0.5460
vn -0.7573 -0.4089 0.5091
vn -0.8893 -0.3970 0.2271
vn -0.6464 0.3108 0.6969
vn -0.6841 -0.0950 0.7232
vn -0.9769 -0.0553 -0.2062
vn -0.9381 0.2664 -0.2214
vn -0.8634 -0.0734 -0.4991
vn -0.8228 0.2411 -0.5146
vn -0.6302 0.6099 0.4805
vn -0.2048 0.8998 -0.3852
vn -0.3104 0.9505 -0.0144
vn -0.2735 0.1908 -0.9428
vn -0.3335 -0.1591 -0.9292
vn -0.1503 -0.1937 -0.9695
vn -0.1054 0.1873 -0.9766
vn -0.3232 -0.4792 -0.8160
vn -0.7151 -0.6239 0.3153
vn -0.9721 0.0752 0.2223
vn 0.5919 -0.0334 -0.8053
vn -0.9060 0.3404 -0.2514
vn 0.4668 0.4280 -0.7739
vn 0.4321 0.2932 -0.8529
vn 0.6328 0.2495 -0.7330
vn 0.6979 0.4650 -0.5447
vn 0.3975 0.1776 -0.9002
vn 0.7098 0.0247 -0.7040
vn 0.7319 -0.5978 -0.3270
vn -0.6357 -0.3516 -0.6872
vn 0.4868 -0.1589 -0.8590
vn -0.3493 -0.9092 0.2265
vn 0.9124 0.0586 0.4050
vn 0.9719 0.0232 -0.2343
vn 0.9254 0.1861 0.3301
vn 0.9558 -0.0763 -0.2841
vn 0.9168 0.1268 0.3787
vn 0.9571 -0.1438 -0.2515
vn 0.8959 0.2450 0.3706
vn 0.9429 -0.0292 -0.3318
vn 0.8737 0.3324 0.3553
vn 0.9300 0.0196 -0.3669
vn 0.8488 0.3174 0.4228
vn 0.9214 -0.0169 -0.3882
vn 0.3713 -0.4038 -0.8361
vn 0.5116 -0.2785 -0.8128
vn 0.6214 -0.3284 -0.7114
vn 0.6300 -0.2391 -0.7388
vn 0.6339 -0.2589 -0.7288
vn 0.6256 -0.2496 -0.7391
vn 0.6629 -0.3171 -0.6783
vn 0.5516 -0.2404 -0.7987
vn 0.6633 -0.2246 -0.7139
vn 0.4146 -0.1541 -0.8968
vn 0.1569 0.1026 -0.9823
vn -0.0986 0.1031 -0.9898
vn -0.5165 0.3315 -0.7895
vn -0.6504 0.2564 -0.7150
vn -0.1765 0.1451 -0.9736
vn -0.6243 0.1930 -0.7570
vn -0.9468 0.1966 -0.2549
vn -0.9546 0.2138 -0.2076
vn -0.3311 0.3170 -0.8888
vn 0.4519 0.0644 -0.8897
vn -0.1761 0.2711 -0.9463
vn 0.6620 0.0387 -0.7485
vn -0.9417 0.2377 -0.2382
vn -0.9472 0.1593 -0.2783
vn -0.9363 0.2726 -0.2213
vn 0.7838 0.1158 -0.6102
vn 0.7086 -0.0434 -0.7043
vn 0.5263 0.3345 0.7818
vn 0.5196 -0.0375 0.8536
vn 0.5284 -0.4697 0.7072
vn 0.0657 -0.5863 0.8074
vn -0.6622 -0.3608 0.6567
vn 0.0251 -0.8546 0.5186
vn -0.8093 -0.4616 0.3631
vn 0.0261 -0.9741 0.2247
vn -0.7685 -0.6306 -0.1086
vn 0.1729 -0.8946 -0.4120
vn -0.6584 0.3334 -0.6747
vn -0.9486 -0.3147 -0.0336
vn 0.2794 -0.7242 -0.6305
vn -0.3934 0.1339 -0.9095
vn 0.2801 -0.0770 -0.9569
vn 0.3978 0.4922 -0.7742
vn 0.8064 -0.0240 -0.5909
vn 0.3746 0.8428 -0.3866
vn -0.4479 0.8339 -0.3225
vn 0.9783 0.1099 -0.1758
vn 0.7616 -0.6428 0.0823
vn -0.8920 0.4018 -0.2070
vn -0.7670 0.6276 -0.1335
vn 0.7170 -0.5619 0.4126
vn 0.8417 0.1730 -0.5115
vn -0.5534 -0.3132 0.7718
vn 0.0277 0.2713 0.9621
vn -0.2823 -0.1590 0.9461
vn 0.0914 -0.1679 0.9816
vn 0.2703 -0.1837 0.9451
vn 0.1854 -0.4883 0.8527
vn 0.1623 0.2118 0.9637
vn 0.3259 0.1731 0.9294
vn 0.5834 0.1315 0.8015
vn 0.5292 -0.2215 0.8190
vn 0.3218 0.4784 0.8171
vn 0.5707 0.4408 0.6928
vn 0.4116 0.6751 0.6122
vn 0.6535 -0.2573 0.7119
vn 0.7192 0.1177 0.6847
vn 0.8634 0.0734 0.4991
vn 0.8228 -0.2411 0.5146
vn 0.8163 0.3219 0.4797
vn 0.9448 0.2958 0.1408
vn 0.9769 0.0553 0.2062
vn 0.7517 0.5023 0.4273
vn 0.8747 0.4733 0.1046
vn 0.5871 0.7283 0.3535
vn 0.6942 0.7197 0.0078
vn 0.4497 0.8377 0.3100
vn 0.5530 0.8307 -0.0637
vn 0.8899 0.3967 -0.2251
vn 0.9626 0.0750 -0.2604
vn 0.9933 0.0938 -0.0674
vn 0.9519 -0.3046 -0.0326
vn 0.9222 -0.3027 -0.2408
vn 0.7804 -0.3046 -0.5460
vn 0.8238 0.0777 -0.5615
vn 0.6841 0.0950 -0.7232
vn 0.6464 -0.3108 -0.6969
vn 0.9381 -0.2664 0.2214
vn 0.8408 -0.5106 0.1801
vn 0.7150 -0.4643 0.5227
vn 0.7189 -0.6766 0.1590
vn 0.6075 -0.6249 0.4903
vn 0.4379 -0.5172 0.7354
vn 0.2187 -0.7030 0.6768
vn 0.7128 0.6279 -0.3125
vn 0.7573 0.4089 -0.5091
vn -0.2577 0.7632 0.5926
vn -0.2705 0.0211 0.9625
vn 0.8596 -0.0819 0.5044
vn -0.8907 0.2459 -0.3825
vn -0.1070 0.7947 -0.5976
vn 0.1954 -0.0504 0.9794
vn 0.2709 -0.2249 -0.9360
vn -0.5974 -0.3247 -0.7333
vn -0.0546 0.3278 -0.9432
vn -0.9451 0.1853 -0.2691
vn 0.1794 -0.6588 0.7306
vn 0.3636 0.0374 -0.9308
vn 0.8992 0.0012 -0.4376
vn 0.1663 -0.4457 -0.8796
vn -0.8619 -0.3749 -0.3415
vn 0.9100 -0.3099 -0.2755
vn 0.0458 -0.2370 -0.9704
vn -0.8488 0.0170 -0.5284
vn 0.9702 0.1847 0.1567
vn 0.3515 0.9335 -0.0715
vn -0.7811 0.6237 -0.0306
s 1
f 4//4 3//3 2//2 1//1
f 2//2 3//3 6//6 5//5
f 5//5 6//6 8//8 7//7
f 8//8 10//10 9//9 7//7
f 13//13 12//12 11//11 9//9
f 10//10 13//13 9//9
f 11//11 12//12 14//14
f 16//16 11//11 14//14 15//15
f 18//18 16//16 15//15 17//17
f 15//15 20//20 19//19 17//17
f 21//21 18//18 17//17
f 23//23 18//18 21//21 22//22
f 24//24 23//23 22//22
f 26//26 23//23 24//24 25//25
f 28//28 27//27 26//26 25//25
f 30//30 29//29 27//27 28//28
f 29//29 32//32 31//31 27//27
f 34//34 32//32 29//29 33//33
f 36//36 30//30 28//28 35//35
f 38//38 37//37 30//30 36//36
f 39//39 38//38 36//36
f 37//37 38//38 40//40 22//22
f 40//40 38//38 42//42 41//41
f 41//41 42//42 44//44 43//43
f 43//43 44//44 46//46 45//45
f 44//44 48//48 47//47 46//46
f 50//50 49//49 43//43 45//45
f 52//52 49//49 50//50 51//51
f 54//54 52//52 51//51 53//53
f 56//56 55//55 52//52 54//54
f 45//45 46//46 58//58 57//57
f 58//58 60//60 59//59 57//57
f 60//60 62//62 61//61 59//59
f 61//61 62//62 64//64 63//63
f 64//64 62//62 66//66 65//65
f 67//67 64//64 65//65
f 69//69 68//68 67//67 65//65
f 68//68 70//70 67//67
f 72//72 69//69 65//65 71//71
f 74//74 69//69 72//72 73//73
f 76//76 75//75 74//74 73//73
f 78//78 77//77 75//75 76//76
f 80//80 77//77 78//78 79//79
f 82//82 81//81 80//80 79//79
f 84//84 81//81 82//82 83//83
f 86//86 85//85 84//84 83//83
f 88//88 85//85 86//86 87//87
f 90//90 88//88 87//87 89//89
f 92//92 91//91 90//90 89//89
f 94//94 91//91 92//92 93//93
f 96//96 95//95 94//94 93//93
f 98//98 95//95 96//96 97//97
f 100//100 99//99 98//98 97//97
f 102//102 99//99 100//100 101//101
f 104//104 102//102 101//101 103//103
f 106//106 105//105 104//104 103//103
f 108//108 105//105 106//106 107//107
f 110//110 109//109 108//108 107//107
f 112//112 109//109 110//110 111//111
f 114//114 112//112 111//111 113//113
f 116//116 114//114 113//113 115//115
f 118//118 116//116 115//115 117//117
f 120//120 118//118 117//117 119//119
f 122//122 120//120 119//119 121//121
f 124//124 122//122 121//121 123//123
f 126//126 124//124 123//123 125//125
f 128//128 127//127 124//124 126//126
f 130//130 128//128 126//126 129//129
f 132//132 130//130 129//129 131//131
f 133//133 132//132 131//131
f 132//132 133//133 135//135 134//134
f 134//134 135//135 137//137 136//136
f 136//136 137//137 139//139 138//138
f 138//138 139//139 141//141 140//140
f 140//140 141//141 143//143 142//142
f 142//142 143//143 144//144
f 147//147 146//146 145//145 144//144
f 143//143 147//147 144//144
f 145//145 146//146 148//148
f 146//146 149//149 148//148
f 150//150 145//145 148//148
f 146//146 147//147 151//151 149//149
f 151//151 152//152 150//150 149//149
f 150//150 152//152 153//153 144//144
f 145//145 150//150 144//144
f 153//153 154//154 140//140 142//142
f 137//137 156//156 155//155 139//139
f 155//155 156//156 158//158 157//157
f 158//158 160//160 159//159 157//157
f 159//159 160//160 162//162 161//161
f 162//162 163//163 134//134 136//136
f 164//164 133//133 131//131
f 166//166 164//164 131//131 165//165
f 168//168 164//164 166//166 167//167
f 169//169 168//168 167//167
f 169//169 167//167 170//170
f 173//173 172//172 171//171 170//170
f 167//167 173//173 170//170
f 175//175 171//171 172//172 174//174
f 177//177 171//171 175//175 176//176
f 179//179 178//178 177//177 176//176
f 178//178 181//181 180//180 177//177
f 183//183 181//181 178//178 182//182
f 185//185 183//183 182//182 184//184
f 187//187 186//186 183//183 185//185
f 189//189 188//188 186//186 187//187
f 191//191 190//190 188//188 189//189
f 193//193 192//192 190//190 191//191
f 195//195 194//194 192//192 193//193
f 197//197 196//196 194//194 195//195
f 199//199 198//198 196//196 197//197
f 205//205 207//207 206//206 204//204
f 209//209 207//207 205//205 208//208
f 210//210 209//209 208//208
f 210//210 212//212 211//211 209//209
f 212//212 214//214 213//213 211//211
f 71//71 213//213 214//214 215//215
f 216//216 71//71 215//215
f 215//215 214//214 218//218 217//217
f 220//220 219//219 215//215 217//217
f 222//222 219//219 220//220 221//221
f 224//224 223//223 219//219 222//222
f 225//225 224//224 222//222
f 227//227 226//226 224//224 225//225
f 229//229 226//226 227//227 228//228
f 230//230 229//229 228//228
f 232//232 229//229 230//230 231//231
f 233//233 229//229 232//232
f 231//231 230//230 235//235 234//234
f 234//234 235//235 237//237 236//236
f 239//239 237//237 235//235 238//238
f 240//240 239//239 238//238
f 242//242 239//239 240//240 241//241
f 244//244 239//239 242//242 243//243
f 243//243 242//242 246//246 245//245
f 248//248 247//247 244//244 243//243
f 240//240 250//250 249//249 241//241
f 241//241 249//249 221//221
f 250//250 252//252 251//251 249//249
f 228//228 252//252 250//250 238//238
f 250//250 240//240 238//238
f 237//237 253//253 236//236
f 255//255 254//254 231//231 234//234
f 226//226 229//229 233//233 256//256
f 235//235 230//230 228//228 238//238
f 224//224 226//226 256//256 257//257
f 256//256 259//259 258//258 257//257
f 251//251 252//252 227//227 225//225
f 223//223 224//224 257//257 260//260
f 223//223 260//260 216//216
f 251//251 225//225 222//222
f 246//246 242//242 241//241 221//221
f 220//220 246//246 221//221
f 249//249 251//251 222//222 221//221
f 246//246 220//220 217//217 261//261
f 218//218 214//214 212//212 262//262
f 213//213 66//66 263//263 211//211
f 212//212 210//210 264//264 202//202
f 262//262 212//212 202//202
f 211//211 263//263 265//265 209//209
f 209//209 265//265 266//266 207//207
f 265//265 268//268 267//267 266//266
f 266//266 267//267 270//270 269//269
f 273//273 272//272 271//271 270//270
f 267//267 273//273 270//270
f 274//274 271//271 272//272 53//53
f 276//276 271//271 274//274 275//275
f 278//278 276//276 275//275 277//277
f 280//280 278//278 277//277 279//279
f 282//282 280//280 279//279 281//281
f 284//284 282//282 281//281 283//283
f 286//286 284//284 283//283 285//285
f 288//288 284//284 286//286 287//287
f 290//290 288//288 287//287 289//289
f 292//292 291//291 288//288 290//290
f 294//294 293//293 291//291 292//292
f 296//296 295//295 293//293 294//294
f 298//298 296//296 294//294 297//297
f 300//300 298//298 297//297 299//299
f 302//302 301//301 298//298 300//300
f 304//304 303//303 302//302 300//300
f 299//299 297//297 306//306 305//305
f 305//305 306//306 308//308 307//307
f 310//310 309//309 305//305 307//307
f 311//311 304//304 300//300 299//299
f 297//297 294//294 292//292 306//306
f 306//306 292//292 290//290 308//308
f 308//308 290//290 289//289 312//312
f 291//291 282//282 284//284 288//288
f 293//293 280//280 282//282 291//291
f 313//313 276//276 278//278 295//295
f 277//277 275//275 315//315 314//314
f 268//268 47//47 273//273 267//267
f 204//204 206//206 301//301 302//302
f 207//207 266//266 269//269 206//206
f 198//198 203//203 303//303 196//196
f 196//196 303//303 304//304 194//194
f 194//194 304//304 311//311 192//192
f 192//192 311//311 309//309 190//190
f 190//190 309//309 310//310 188//188
f 173//173 316//316 187//187 185//185
f 184//184 182//182 318//318 317//317
f 317//317 318//318 320//320 319//319
f 319//319 320//320 322//322 321//321
f 321//321 322//322 323//323
f 323//323 322//322 325//325 324//324
f 327//327 326//326 323//323 324//324
f 326//326 327//327 328//328
f 327//327 329//329 328//328
f 330//330 326//326 328//328
f 331//331 329//329 327//327 324//324
f 332//332 331//331 324//324
f 331//331 333//333 330//330 329//329
f 330//330 333//333 334//334 323//323
f 326//326 330//330 323//323
f 325//325 335//335 324//324
f 335//335 325//325 336//336
f 332//332 335//335 336//336
f 334//334 337//337 319//319 321//321
f 182//182 178//178 179//179 318//318
f 338//338 170//170 171//171 177//177
f 180//180 338//338 177//177
f 289//289 168//168 169//169 338//338
f 312//312 289//289 338//338
f 131//131 129//129 339//339 165//165
f 283//283 281//281 128//128 130//130
f 281//281 279//279 127//127 128//128
f 125//125 123//123 193//193 191//191
f 314//314 315//315 120//120 122//122
f 121//121 119//119 197//197 195//195
f 341//341 340//340 114//114 116//116
f 115//115 113//113 201//201 200//200
f 113//113 111//111 262//262 202//202
f 110//110 218//218 262//262 111//111
f 218//218 110//110 107//107 261//261
f 217//217 218//218 261//261
f 107//107 106//106 245//245 261//261
f 344//344 343//343 342//342 104//104
f 105//105 344//344 104//104
f 346//346 345//345 342//342 343//343
f 348//348 347//347 346//346 343//343
f 347//347 350//350 349//349 346//346
f 349//349 350//350 351//351
f 353//353 347//347 348//348 352//352
f 355//355 354//354 353//353 352//352
f 353//353 354//354 356//356
f 354//354 358//358 357//357 356//356
f 357//357 360//360 359//359 356//356
f 359//359 360//360 362//362 361//361
f 362//362 364//364 363//363 361//361
f 366//366 365//365 360//360 357//357
f 367//367 366//366 357//357
f 369//369 366//366 367//367 368//368
f 371//371 366//366 369//369 370//370
f 373//373 372//372 371//371 370//370
f 367//367 358//358 374//374 368//368
f 368//368 374//374 375//375
f 375//375 374//374 355//355 376//376
f 378//378 377//377 375//375 376//376
f 355//355 352//352 376//376
f 374//374 358//358 354//354 355//355
f 379//379 348//348 343//343 344//344
f 379//379 344//344 380//380
f 63//63 378//378 379//379 380//380
f 103//103 248//248 243//243 245//245
f 106//106 103//103 245//245
f 342//342 102//102 104//104
f 101//101 248//248 103//103
f 342//342 345//345 99//99 102//102
f 100//100 247//247 248//248 101//101
f 247//247 100//100 97//97
f 346//346 349//349 95//95 98//98
f 345//345 346//346 98//98
f 97//97 96//96 253//253 244//244
f 247//247 97//97 244//244
f 95//95 349//349 351//351 94//94
f 253//253 96//96 93//93 236//236
f 91//91 363//363 90//90
f 255//255 92//92 89//89
f 363//363 364//364 88//88 90//90
f 87//87 254//254 255//255 89//89
f 86//86 254//254 87//87
f 364//364 362//362 381//381 84//84
f 85//85 364//364 84//84
f 382//382 371//371 372//372 80//80
f 81//81 382//382 80//80
f 78//78 259//259 79//79
f 77//77 372//372 373//373 75//75
f 258//258 259//259 78//78 76//76
f 75//75 373//373 74//74
f 258//258 76//76 73//73
f 260//260 72//72 71//71 216//216
f 67//67 70//70 377//377 64//64
f 65//65 66//66 213//213 71//71
f 61//61 63//63 380//380 108//108
f 109//109 61//61 108//108
f 64//64 377//377 378//378 63//63
f 66//66 62//62 60//60 263//263
f 59//59 61//61 109//109 112//112
f 60//60 58//58 268//268 265//265
f 263//263 60//60 265//265
f 57//57 59//59 112//112 114//114
f 340//340 57//57 114//114
f 35//35 28//28 25//25 56//56
f 25//25 24//24 55//55 56//56
f 19//19 33//33 37//37 22//22
f 21//21 19//19 22//22
f 10//10 383//383 13//13
f 383//383 10//10 8//8
f 6//6 384//384 383//383 8//8
f 3//3 384//384 6//6
f 32//32 2//2 5//5 31//31
f 12//12 13//13 4//4 1//1
f 385//385 12//12 1//1
f 384//384 3//3 4//4
f 12//12 385//385 14//14
f 383//383 384//384 4//4 13//13
f 20//20 385//385 1//1 34//34
f 1//1 2//2 32//32 34//34
f 14//14 385//385 20//20 15//15
f 31//31 5//5 7//7 386//386
f 9//9 11//11 16//16 387//387
f 7//7 9//9 387//387 386//386
f 19//19 20//20 34//34 33//33
f 33//33 29//29 30//30 37//37
f 19//19 21//21 17//17
f 27//27 31//31 386//386 26//26
f 387//387 16//16 18//18 23//23
f 386//386 387//387 23//23 26//26
f 38//38 39//39 42//42
f 388//388 40//40 41//41
f 22//22 40//40 388//388 55//55
f 24//24 22//22 55//55
f 48//48 39//39 36//36 389//389
f 42//42 39//39 48//48 44//44
f 389//389 36//36 35//35 390//390
f 49//49 388//388 41//41 43//43
f 55//55 388//388 49//49 52//52
f 390//390 35//35 56//56 54//54
f 47//47 48//48 389//389 273//273
f 46//46 47//47 268//268 58//58
f 273//273 389//389 390//390 272//272
f 340//340 50//50 45//45 57//57
f 51//51 50//50 340//340 341//341
f 272//272 390//390 54//54 53//53
f 365//365 382//382 381//381
f 382//382 365//365 366//366 371//371
f 370//370 369//369 70//70 68//68
f 360//360 365//365 381//381 362//362
f 358//358 367//367 357//357
f 70//70 369//369 368//368 375//375
f 377//377 70//70 375//375
f 350//350 359//359 361//361 351//351
f 350//350 347//347 353//353 356//356
f 359//359 350//350 356//356
f 348//348 379//379 378//378 376//376
f 352//352 348//348 376//376
f 381//381 382//382 81//81 84//84
f 372//372 77//77 80//80
f 370//370 68//68 69//69 74//74
f 373//373 370//370 74//74
f 364//364 85//85 88//88
f 361//361 363//363 91//91 94//94
f 351//351 361//361 94//94
f 99//99 345//345 98//98
f 380//380 344//344 105//105 108//108
f 83//83 82//82 233//233 232//232
f 82//82 79//79 259//259 256//256
f 233//233 82//82 256//256
f 258//258 73//73 72//72 260//260
f 257//257 258//258 260//260
f 86//86 83//83 232//232 231//231
f 254//254 86//86 231//231
f 227//227 252//252 228//228
f 219//219 223//223 216//216 215//215
f 92//92 255//255 234//234 236//236
f 93//93 92//92 236//236
f 253//253 237//237 239//239 244//244
f 245//245 246//246 261//261
f 338//338 169//169 170//170
f 129//129 126//126 125//125 339//339
f 316//316 166//166 165//165
f 166//166 316//316 173//173 167//167
f 307//307 308//308 312//312 391//391
f 391//391 312//312 338//338 180//180
f 339//339 125//125 191//191 189//189
f 165//165 339//339 189//189 187//187
f 316//316 165//165 187//187
f 172//172 173//173 185//185 184//184
f 392//392 310//310 307//307 391//391
f 181//181 392//392 391//391 180//180
f 188//188 310//310 392//392 186//186
f 186//186 392//392 181//181 183//183
f 270//270 271//271 276//276 313//313
f 295//295 278//278 280//280 293//293
f 53//53 51//51 341//341 393//393
f 274//274 53//53 393//393
f 275//275 274//274 393//393 315//315
f 279//279 277//277 314//314 127//127
f 269//269 270//270 313//313 394//394
f 394//394 313//313 295//295 296//296
f 393//393 341//341 116//116 118//118
f 315//315 393//393 118//118 120//120
f 127//127 314//314 122//122 124//124
f 206//206 269//269 394//394 301//301
f 301//301 394//394 296//296 298//298
f 303//303 203//203 204//204 302//302
f 309//309 311//311 299//299 305//305
f 117//117 115//115 200//200 199//199
f 119//119 117//117 199//199 197//197
f 123//123 121//121 195//195 193//193
f 395//395 286//286 285//285 163//163
f 160//160 395//395 163//163 162//162
f 287//287 286//286 395//395 396//396
f 396//396 395//395 160//160 158//158
f 285//285 283//283 130//130 132//132
f 163//163 285//285 132//132 134//134
f 287//287 396//396 397//397 168//168
f 289//289 287//287 168//168
f 156//156 397//397 396//396 158//158
f 135//135 133//133 164//164 168//168
f 397//397 135//135 168//168
f 135//135 397//397 156//156 137//137
f 398//398 159//159 161//161 154//154
f 152//152 398//398 154//154 153//153
f 157//157 159//159 398//398 399//399
f 399//399 398//398 152//152 151//151
f 149//149 150//150 148//148
f 161//161 162//162 136//136 138//138
f 154//154 161//161 138//138 140//140
f 153//153 142//142 144//144
f 400//400 155//155 157//157 399//399
f 147//147 400//400 399//399 151//151
f 139//139 155//155 400//400 141//141
f 141//141 400//400 147//147 143//143
f 401//401 175//175 174//174 337//337
f 333//333 401//401 337//337 334//334
f 176//176 175//175 401//401 402//402
f 402//402 401//401 333//333 331//331
f 329//329 330//330 328//328
f 174//174 172//172 184//184 317//317
f 337//337 174//174 317//317 319//319
f 334//334 321//321 323//323
f 402//402 331//331 332//332 336//336
f 403//403 402//402 336//336
f 403//403 179//179 176//176 402//402
f 335//335 332//332 324//324
f 318//318 179//179 403//403 320//320
f 322//322 320//320 403//403 336//336
f 325//325 322//322 336//336
f 264//264 201//201 113//113 202//202
f 199//199 200//200 201//201 264//264 210//210 208//208 205//205 204//204 203//203 198//198
