# Blender 5.0.0
# www.blender.org
mtllib Walk_Forward0027.mtl
o Mball.010
v 1.678564 3.630821 -0.367043
v 1.424887 3.348477 -0.501616
v 1.481101 3.084641 -0.222151
v 1.724769 3.343440 -0.100848
v 1.165187 3.373079 -0.438107
v 1.247434 3.103793 -0.166923
v 0.963488 3.702606 -0.189580
v 1.043890 3.432394 0.081349
v 1.097026 3.959942 -0.048979
v 1.168301 3.668018 0.209693
v 1.489047 3.994792 -0.098650
v 1.563797 3.699505 0.148222
v 1.563917 3.693474 0.153334
v 1.517586 3.980792 -0.112878
v 1.453547 4.259220 -0.381541
v 1.425008 4.273220 -0.367313
v 1.389198 4.537492 -0.650247
v 1.361194 4.551229 -0.636285
v 1.551012 4.197215 -0.898345
v 1.615310 3.918305 -0.630039
v 1.361730 4.614052 -0.769420
v 1.292008 4.731378 -0.948100
v 0.969076 4.516561 -0.586481
v 0.973026 4.670339 -0.915555
v 0.861224 4.523880 -1.000257
v 0.835698 4.259606 -0.726866
v 1.037427 3.930095 -0.975389
v 1.015520 4.279229 -1.234113
v 1.296673 3.905587 -1.038753
v 1.176185 4.292330 -1.266997
v 1.101148 3.651507 -0.706770
v 1.360848 3.626905 -0.770279
v 1.550172 4.187520 -0.904412
v 1.614525 3.909249 -0.635705
v 0.670185 4.591133 -0.994056
v 0.824293 4.901643 -1.021548
v 1.390878 4.506481 -1.180961
v 1.287116 4.857035 -1.085855
v 1.167297 5.027334 -0.929012
v 1.379147 4.692104 -0.949223
v 1.422956 4.671255 -0.767321
v 1.247578 5.001410 -0.897804
v 1.338606 4.707426 -0.371043
v 1.120161 5.121212 -0.496408
v 1.211751 4.859499 0.018593
v 1.014443 5.232956 -0.145439
v 0.928599 5.262099 -0.186585
v 1.030972 5.160709 -0.526029
v 1.329307 4.595222 -0.355882
v 1.204918 4.738808 0.040467
v 1.003211 4.383547 0.023394
v 1.090821 4.256451 -0.364873
v 0.719647 4.359697 -0.055174
v 0.754245 4.287059 -0.453631
v 1.145100 4.293613 -0.754667
v 0.831424 4.285443 -0.854303
v 0.721046 5.152138 0.402969
v 0.629462 5.318274 0.051630
v 0.500333 5.500971 0.496551
v 0.418620 5.576089 0.108111
v 0.627734 5.905973 0.513155
v 0.546091 5.969256 0.122774
v 0.679813 5.943892 0.507205
v 0.598179 6.005859 0.116719
v 0.123021 6.060842 -0.212107
v 0.137104 6.011331 -0.147985
v 0.517017 6.252850 -0.257029
v 0.481573 6.454227 -0.411978
v 0.050314 6.473934 -0.529957
v 0.690498 6.431152 -0.267750
v -0.270504 6.052375 -0.149527
v -0.343211 6.465467 -0.467377
v -0.351035 6.540730 -0.499001
v 0.042490 6.549197 -0.561581
v 0.019841 6.894489 -0.642451
v -0.373685 6.886023 -0.579871
v 0.020858 7.291532 -0.604253
v -0.372667 7.283065 -0.541673
v -0.348337 7.593280 -0.397738
v 0.045188 7.601747 -0.460318
v 0.053368 7.665061 -0.415363
v -0.340158 7.656593 -0.352783
v -0.265615 7.959742 0.033975
v 0.127911 7.968209 -0.028605
v 0.142255 7.996495 0.043302
v -0.251270 7.988028 0.105882
v -0.183596 8.051975 0.439306
v 0.209930 8.060442 0.376726
v -0.101969 7.991028 0.829900
v 0.291556 7.999496 0.767320
v 0.358645 7.834927 1.078758
v -0.034880 7.826459 1.141338
v -0.020735 7.776902 1.205757
v 0.372790 7.785369 1.143176
v 0.445497 7.372277 1.461027
v 0.051971 7.363810 1.523607
v 0.059796 7.288548 1.555230
v 0.453321 7.297014 1.492651
v 0.475971 6.951721 1.573521
v 0.082445 6.943254 1.636101
v 0.081428 6.546212 1.597903
v 0.474953 6.554679 1.535323
v 0.057098 6.235997 1.453968
v 0.450623 6.244464 1.391388
v 0.442444 6.181150 1.346432
v 0.048918 6.172684 1.409012
v -0.025625 5.869535 1.022255
v 0.367901 5.878003 0.959674
v 0.353618 5.849670 0.888064
v -0.039935 5.841114 0.950489
v -0.085768 5.469187 0.696116
v 0.311036 5.476188 0.652148
v -0.067234 4.991023 0.727444
v 0.332240 4.992225 0.685223
v -0.054694 4.618365 0.640117
v 0.330724 4.575066 0.632113
v -0.089378 4.285528 0.512061
v 0.286806 4.206583 0.532258
v -0.162054 4.075831 0.459513
v 0.165334 3.848622 0.466367
v -0.138319 3.756334 0.533084
v 0.107220 3.482001 0.404054
v -0.094021 3.393393 0.609916
v 0.068992 3.109002 0.334379
v -0.043684 3.014289 0.651145
v 0.033617 2.747814 0.173992
v 0.437277 3.022023 0.140492
v 0.383236 2.655157 -0.006199
v 0.003139 2.402353 -0.018098
v 0.312186 2.261571 -0.052131
v -0.021472 2.144394 -0.173849
v 0.241474 1.904332 -0.134021
v -0.029088 2.031577 -0.232365
v 0.232209 1.519173 -0.207829
v -0.048584 1.595727 -0.415734
v 0.227039 1.132120 -0.287146
v -0.007346 1.200845 -0.485632
v 0.228952 0.737075 -0.379915
v -0.003665 0.801543 -0.556046
v 0.302923 0.459982 -0.744587
v 0.040668 0.521477 -0.775225
v 0.321048 0.273417 -1.022599
v 0.042197 0.336700 -1.064381
v 0.327380 0.204361 -1.303485
v 0.323943 0.237305 -1.366178
v 0.167061 0.606354 -1.533242
v -0.043731 0.753201 -1.252002
v 0.286120 0.610517 -1.548647
v 0.282222 0.649434 -1.545786
v 0.361603 0.630649 -1.533559
v 0.254697 0.961563 -1.331955
v 0.556439 0.834646 -1.252841
v 0.514810 0.395720 -1.065153
v 0.528306 0.580723 -0.776168
v 0.024353 0.980453 -0.901106
v 0.031520 1.329688 -0.858040
v 0.372864 1.097692 -1.023460
v 0.421347 1.388556 -0.993110
v 0.674693 1.049645 -0.761405
v 0.702068 1.285379 -0.706448
v 0.579938 0.777767 -0.476844
v 0.569407 1.142580 -0.360253
v 0.536052 1.542981 -0.297664
v -0.020717 2.058147 -0.222866
v 0.068863 2.232347 0.663387
v 0.073126 2.202986 0.664290
v 0.163243 1.804847 0.785496
v 0.070227 1.929314 -0.520718
v 0.114736 1.684349 0.380193
v 0.150927 1.596306 0.472243
v 0.161273 1.284725 0.614839
v 0.103241 1.443319 0.996536
v 0.136277 1.831060 0.887914
v -0.030151 1.036334 1.114813
v 0.076848 0.927221 0.743231
v -0.116041 0.868911 0.633823
v -0.177942 1.151290 0.454107
v -0.454607 1.189598 0.656277
v -0.430200 0.856014 0.767541
v -0.235476 1.504767 0.312745
v -0.537167 1.558358 0.556537
v -0.371960 1.369921 1.028508
v -0.469480 1.736540 0.928873
v -0.157415 1.443918 1.106198
v -0.211169 1.838093 1.050492
v -0.497694 2.114679 0.826684
v -0.263778 2.213753 0.948120
v -0.528431 2.491541 0.723285
v -0.314730 2.594081 0.842853
v -0.570665 2.862248 0.609854
v -0.384766 2.965108 0.722742
v -0.532325 3.246101 0.481462
v -0.453746 3.298611 0.540129
v -0.548241 3.621936 0.358020
v -0.517004 3.644763 0.388601
v -0.555549 3.990005 0.235403
v -0.520733 4.005906 0.265483
v -0.476065 4.326941 0.296313
v -0.417138 4.350098 0.323337
v -0.347781 4.667933 0.552477
v -0.482810 5.036790 0.622521
v -0.501245 5.106758 0.595484
v -0.671508 4.401450 -0.021878
v -0.651836 4.413136 -0.069866
v -0.733402 4.834865 0.069958
v -0.310825 4.501762 -0.346720
v -0.320336 4.948231 -0.214556
v -0.628044 5.174665 0.227411
v -0.252330 5.284595 -0.065883
v -0.612666 5.187011 0.225650
v -0.211219 5.578388 0.099094
v -0.346893 5.557314 0.229538
v -0.256378 6.002831 -0.085197
v -0.521407 5.945812 0.292320
v -0.582238 5.982457 0.304449
v -0.663559 6.227448 -0.069289
v -0.500615 5.920748 0.694869
v -0.439753 5.882812 0.682614
v -0.936434 6.333445 0.394547
v -0.854807 6.272498 0.785141
v -0.893206 6.340956 0.797941
v -0.974833 6.401902 0.407347
v -0.836145 6.398305 -0.024976
v -1.017042 6.791433 0.042151
v -1.041375 6.779967 0.116448
v -1.016025 7.188475 0.080349
v -1.040357 7.177010 0.154647
v -0.972135 7.454453 0.508610
v -0.833092 7.589431 0.089618
v -0.933380 7.524570 0.509141
v -0.577514 7.890328 0.487149
v -0.659611 7.767735 0.078898
v -0.695950 7.619952 -0.109643
v -0.495887 7.829382 0.877743
v -0.851754 7.463624 0.899735
v -0.414731 7.584894 1.250679
v -0.588212 7.406591 1.261400
v -0.890508 7.393506 0.899204
v -0.771145 7.005636 1.252131
v -0.823967 7.015441 1.190103
v -0.824984 6.618399 1.151905
v -0.772163 6.608593 1.213932
v -0.343590 6.561258 1.509791
v -0.342572 6.958301 1.547989
v -0.382341 6.192390 1.291033
v -0.591266 6.215466 1.146805
v -0.265896 6.953804 1.575358
v -0.266914 6.556762 1.537160
v -1.005613 6.666273 0.847482
v -1.004595 7.063315 0.885680
v -1.087239 6.727220 0.456888
v -1.086221 7.124262 0.495087
v -0.379287 7.383516 1.405628
v -0.508740 7.930727 0.479973
v -0.427113 7.869781 0.870567
v -0.734701 7.251084 -0.328400
v -0.735719 6.854042 -0.366599
v -0.675046 6.861494 -0.415809
v -0.674028 7.258536 -0.377611
v -0.699003 6.428826 -0.224237
v -0.418680 6.044609 1.102493
v -0.265148 5.483272 0.617956
v 0.177748 5.590543 0.017508
v -0.623690 5.182374 0.237029
v 0.151017 5.300915 -0.146281
v 0.127581 4.954183 -0.288477
v 0.547592 4.963123 -0.183897
v 0.608119 5.271682 -0.018594
v 0.125995 4.548315 -0.393901
v 0.526061 4.556828 -0.222718
v 0.625824 4.548808 -0.133035
v 0.536837 4.721297 -0.231987
v 0.610720 5.129682 -0.276286
v 0.718468 4.317759 0.172839
v 0.645869 3.843215 0.198528
v 0.659300 4.022168 -0.166329
v 0.606372 3.412205 0.136234
v 0.667448 3.572169 -0.243944
v 0.545921 3.036280 0.034707
v 0.610508 3.192915 -0.340920
v 0.471642 2.667558 -0.069944
v 0.556886 2.819537 -0.445043
v 0.510771 2.279525 -0.164645
v 0.612382 2.425840 -0.537664
v 0.504677 1.928973 -0.231311
v 0.639952 2.049109 -0.604383
v 0.435494 2.149404 -0.847546
v 0.449803 2.535503 -0.713985
v 0.085264 2.155983 -0.524352
v 0.107634 2.564427 -0.576837
v 0.483793 2.880245 -0.535519
v 0.150203 2.953188 -0.564038
v 0.538494 3.255470 -0.442307
v 0.191786 3.338550 -0.570060
v 0.584070 3.636708 -0.358801
v 0.206183 3.721498 -0.519780
v -0.130443 3.085552 -0.278008
v -0.180957 3.467057 -0.358803
v -0.496624 3.037778 -0.017505
v -0.550894 3.435345 -0.056162
v -0.241762 3.880186 -0.419112
v -0.614950 3.877932 -0.152714
v -0.637008 3.882414 -0.111896
v -0.577789 3.442883 -0.010878
v -0.444708 2.629973 -0.004432
v -0.086907 2.725993 -0.174794
v -0.376774 2.249670 0.107631
v -0.030341 2.376988 0.002727
v -0.630226 2.669775 0.242602
v -0.598318 2.299780 0.356026
v -0.577742 3.058326 0.111858
v 0.030698 2.037516 0.192358
v 0.575613 4.074693 -0.282849
v 0.493827 3.402585 0.242911
v 0.554616 3.813046 0.307819
v 0.072095 2.206277 0.680917
v -0.104328 1.039794 1.151262
v -0.339679 0.986845 1.134164
v -0.061287 0.532921 1.101651
v -0.405183 0.530211 1.018805
v -0.008273 0.182109 0.932963
v -0.374788 0.175974 0.842404
v 0.038788 -0.061727 0.752550
v -0.349231 0.215245 0.399949
v -0.399192 0.190495 0.815535
v 0.050968 -0.086328 0.675440
v -0.218971 0.093974 0.350763
v 0.070616 0.105661 0.368015
v 0.068327 0.148555 0.352275
v 0.105247 0.134202 0.382295
v 0.019505 0.555377 0.410945
v -0.380992 0.435622 0.477531
v 0.197553 0.490424 0.556326
v 0.094362 0.234185 0.888030
v -0.401183 0.419144 0.495532
v -0.434212 0.697378 0.666328
v 0.059208 0.588181 1.055703
v 0.120009 1.676190 0.397595
v 0.013632 2.615337 0.659338
v 0.735146 5.043166 0.432163
v 0.726622 4.626971 0.418025
v 0.776314 6.579207 1.371261
v 0.836987 6.586660 1.322050
v 0.798236 6.217792 1.103292
v 0.777332 6.976250 1.409459
v 0.838005 6.983702 1.360248
v 1.119328 7.046311 0.951499
v 1.118311 6.649269 0.913301
v 0.801289 7.408917 1.217887
v 0.938431 7.439439 1.018626
v 0.765845 7.610296 1.062938
v 1.142643 6.660735 0.839003
v 1.143661 7.057777 0.877201
v 1.189525 7.110524 0.536761
v 1.188507 6.713482 0.498563
v 1.077119 7.435842 0.586302
v 0.995492 7.496788 0.195709
v 1.107898 7.171471 0.146168
v 1.038720 7.504300 0.599103
v 0.957093 7.565246 0.208509
v 0.684689 7.854783 0.690002
v 0.603063 7.915730 0.299409
v 0.616115 7.892227 0.704668
v 0.534488 7.953174 0.314074
v 0.693552 7.622279 -0.153155
v 0.874449 7.229151 -0.220283
v 0.927270 7.219345 -0.158255
v 0.926253 6.822303 -0.196453
v 0.873431 6.832108 -0.258481
v 0.444858 6.879443 -0.554339
v 0.445876 7.276485 -0.516141
v 0.369200 7.280982 -0.543510
v 0.368182 6.883941 -0.581708
v 1.106881 6.774429 0.107969
v 0.992794 6.444238 0.094446
v 1.074421 6.383291 0.485040
v 0.954040 6.374120 0.093915
v 1.035666 6.313173 0.484508
v 0.935378 6.248313 0.904031
v 0.761897 6.070010 0.914752
v 0.520966 7.793136 -0.108843
v 0.484627 7.645354 -0.297383
v 1.292438 3.309925 0.322581
v 1.468420 2.996641 0.046105
v 1.679349 3.639877 -0.361376
v 0.899450 3.981034 -0.458242
v 1.032988 4.238370 -0.317642
v 1.407470 4.571115 -0.743331
v 0.664748 5.063731 -0.601377
v 0.535065 4.701980 -0.575296
v -0.295110 1.877580 0.222321
v -0.560986 1.934550 0.455021
v 0.647154 4.252573 0.324128
v 0.147145 4.124070 -0.472709
v 0.678066 1.660394 -0.669279
v 0.434121 1.759887 -0.947597
v 0.026774 1.735569 -0.721142
v 0.585700 0.972768 -0.971276
v 0.261869 1.084884 -1.077855
v -0.025860 0.894718 -0.988343
v 0.163041 0.791212 0.724535
v -0.038717 0.832312 0.571393
v -0.437281 0.718124 0.679353
vn 0.9411 -0.1883 -0.2808
vn 0.2916 -0.6446 -0.7067
vn 0.3343 -0.7972 -0.5027
vn 0.9656 -0.2467 0.0818
vn -0.6250 -0.6274 -0.4645
vn -0.5808 -0.7880 -0.2044
vn -0.9824 -0.1151 0.1469
vn -0.8981 -0.2795 0.3396
vn -0.4896 0.5251 0.6961
vn -0.4191 0.3801 0.8245
vn 0.3122 0.6762 0.6673
vn 0.6044 0.5713 0.5552
vn 0.6002 0.3592 0.7147
vn 0.7887 0.4978 0.3608
vn 0.7868 0.5128 0.3435
vn 0.3132 0.6961 0.6460
vn 0.7699 0.5692 0.2886
vn 0.2827 0.7821 0.5554
vn 0.9465 0.3217 -0.0235
vn 0.9802 0.1954 -0.0316
vn 0.5918 0.7596 0.2698
vn 0.8810 0.2861 -0.3768
vn -0.5182 0.6556 0.5493
vn -0.5164 0.6147 -0.5962
vn -0.7024 -0.4502 -0.5513
vn -0.9987 -0.0173 0.0480
vn -0.6239 -0.5501 -0.5551
vn -0.5577 -0.2492 -0.7918
vn 0.2739 -0.5572 -0.7839
vn 0.0722 -0.1702 -0.9828
vn -0.6259 -0.6111 -0.4847
vn 0.2881 -0.6295 -0.7216
vn 0.8995 -0.0631 -0.4323
vn 0.8975 -0.1812 -0.4022
vn -0.7987 -0.1739 -0.5761
vn -0.4305 0.5603 -0.7076
vn 0.6593 0.2293 -0.7161
vn 0.5398 0.5013 -0.6763
vn 0.1404 0.8685 -0.4754
vn 0.9229 -0.0363 -0.3834
vn 0.9898 0.1410 -0.0188
vn 0.6871 0.7043 -0.1785
vn 0.9563 0.2108 0.2024
vn 0.6729 0.7394 -0.0213
vn 0.8391 0.3408 0.4239
vn 0.5778 0.8096 0.1033
vn -0.0147 0.9688 -0.2474
vn 0.0992 0.9598 -0.2624
vn 0.9014 -0.3397 0.2683
vn 0.8140 -0.1474 0.5618
vn 0.5533 -0.6739 0.4896
vn 0.4007 -0.8945 0.1983
vn -0.4899 -0.8521 0.1843
vn -0.5298 -0.8480 0.0129
vn 0.4354 -0.8089 -0.3951
vn -0.2627 -0.8566 -0.4440
vn 0.6874 0.4173 0.5945
vn 0.5557 0.8078 -0.1966
vn 0.9105 0.0135 0.4134
vn 0.7389 0.1851 -0.6479
vn 0.7268 -0.6830 0.0726
vn 0.6078 -0.5729 -0.5499
vn 0.6116 -0.7892 -0.0556
vn 0.5442 -0.7258 -0.4208
vn 0.0888 -0.7043 -0.7044
vn 0.1625 -0.5919 -0.7894
vn 0.3941 -0.6288 -0.6703
vn 0.3630 -0.4031 -0.8401
vn 0.0496 -0.4735 -0.8794
vn 0.5971 -0.4205 -0.6831
vn -0.2770 -0.7212 -0.6349
vn -0.3039 -0.4879 -0.8183
vn -0.3259 -0.3160 -0.8910
vn 0.0412 -0.3027 -0.9522
vn 0.0040 -0.0634 -0.9980
vn -0.3166 -0.0696 -0.9460
vn 0.0048 0.2601 -0.9656
vn -0.3205 0.2576 -0.9116
vn -0.3535 0.5118 -0.7830
vn 0.0421 0.5053 -0.8619
vn 0.0496 0.6774 -0.7340
vn -0.3196 0.6682 -0.6718
vn -0.2753 0.8691 -0.4110
vn 0.0966 0.8653 -0.4919
vn 0.1416 0.9372 -0.3187
vn -0.2513 0.9425 -0.2203
vn -0.1829 0.9829 0.0218
vn 0.1374 0.9896 -0.0433
vn -0.1287 0.9339 0.3335
vn 0.1870 0.9443 0.2708
vn 0.2681 0.8268 0.4946
vn -0.1117 0.8211 0.5598
vn -0.0743 0.7037 0.7066
vn 0.2754 0.7231 0.6335
vn 0.3052 0.4855 0.8192
vn -0.0496 0.4735 0.8794
vn -0.0412 0.3027 0.9522
vn 0.3283 0.3137 0.8910
vn 0.3166 0.0696 0.9460
vn -0.0040 0.0634 0.9980
vn -0.0048 -0.2601 0.9656
vn 0.3205 -0.2576 0.9116
vn -0.0421 -0.5053 0.8619
vn 0.3339 -0.5051 0.7959
vn 0.3061 -0.6773 0.6690
vn -0.0496 -0.6774 0.7340
vn -0.0889 -0.8676 0.4892
vn 0.2815 -0.8624 0.4207
vn 0.3855 -0.7671 0.5128
vn -0.1703 -0.7850 0.5957
vn -0.1787 -0.2174 0.9596
vn 0.4340 -0.2018 0.8780
vn -0.1174 -0.0732 0.9904
vn 0.3187 -0.0147 0.9477
vn -0.1774 -0.2810 0.9432
vn 0.2641 -0.2239 0.9382
vn -0.2701 -0.2333 0.9341
vn 0.2138 -0.2517 0.9439
vn -0.2861 0.0035 0.9582
vn 0.2349 -0.1330 0.9629
vn -0.0344 0.1365 0.9900
vn 0.4835 -0.1084 0.8686
vn 0.3406 0.1625 0.9261
vn 0.6961 -0.1777 0.6956
vn 0.6682 0.1491 0.7289
vn 0.7791 -0.2131 0.5896
vn 0.5121 -0.3322 0.7921
vn 0.4361 -0.3102 0.8448
vn 0.7476 -0.1933 0.6354
vn 0.2181 -0.2767 0.9359
vn 0.6496 -0.2363 0.7226
vn -0.0564 -0.2619 0.9634
vn -0.9631 -0.0557 0.2632
vn -0.1725 -0.2037 0.9637
vn -0.9504 -0.0399 0.3084
vn -0.2228 -0.2097 0.9520
vn -0.9282 -0.0931 0.3602
vn -0.1504 -0.5262 0.8369
vn -0.8610 -0.2797 0.4249
vn 0.0625 -0.8146 0.5766
vn -0.7504 -0.5272 0.3986
vn 0.1492 -0.9060 0.3962
vn -0.7363 -0.6762 0.0258
vn 0.1542 -0.9088 -0.3877
vn 0.1980 -0.7487 -0.6327
vn -0.5945 -0.0924 -0.7988
vn -0.9036 0.1710 -0.3928
vn 0.0598 -0.1957 -0.9788
vn -0.0178 0.3821 -0.9239
vn 0.5913 0.0380 -0.8056
vn -0.0860 0.7765 -0.6242
vn 0.8390 0.3061 -0.4499
vn 0.8511 -0.5231 0.0456
vn 0.7884 -0.5494 0.2768
vn -0.9075 0.3311 -0.2586
vn -0.7778 0.1053 -0.6196
vn 0.2473 0.4904 -0.8357
vn 0.2206 0.1391 -0.9654
vn 0.9726 -0.0650 -0.2232
vn 0.9816 0.0072 -0.1908
vn 0.7102 -0.4554 0.5369
vn 0.6732 -0.1484 0.7244
vn 0.6810 -0.0774 0.7282
vn 0.2915 0.6226 -0.7262
vn 0.9235 0.2240 0.3115
vn 0.9764 0.2156 -0.0093
vn 0.9753 -0.1250 0.1822
vn -0.8684 0.2776 -0.4108
vn 0.9431 0.2218 -0.2478
vn 0.9031 -0.1279 -0.4099
vn 0.9095 -0.2682 -0.3177
vn 0.7997 0.0455 0.5987
vn 0.8032 0.2045 0.5595
vn 0.6859 0.0312 0.7271
vn 0.9576 0.1205 -0.2617
vn -0.0464 0.1602 -0.9860
vn -0.0305 -0.4397 -0.8976
vn -0.9028 -0.2904 -0.3171
vn -0.9609 0.0470 -0.2729
vn -0.1813 -0.3502 -0.9190
vn -0.9333 -0.2314 -0.2747
vn -0.7260 0.0262 0.6872
vn -0.7995 0.0268 0.6000
vn 0.0329 0.1612 0.9864
vn -0.0043 0.2516 0.9678
vn -0.8186 0.0811 0.5685
vn 0.0081 0.2826 0.9592
vn -0.8262 0.0743 0.5584
vn -0.0471 0.2158 0.9753
vn -0.8641 0.1492 0.4807
vn -0.2452 0.2623 0.9333
vn -0.8854 0.1707 0.4324
vn -0.4533 0.2608 0.8524
vn -0.8979 0.0969 0.4293
vn -0.5710 0.2221 0.7903
vn -0.8670 0.0409 0.4966
vn -0.5530 0.1006 0.8271
vn -0.7768 -0.0845 0.6240
vn -0.6396 -0.1602 0.7518
vn -0.5804 -0.2774 0.7656
vn -0.6631 -0.0732 0.7450
vn -0.6439 0.2665 0.7172
vn -0.9746 -0.0890 0.2054
vn -0.8771 0.0243 -0.4796
vn -0.9809 0.0935 -0.1707
vn -0.3988 0.1597 -0.9030
vn -0.4118 0.3400 -0.8455
vn -0.9729 0.2168 -0.0798
vn -0.4089 0.4669 -0.7841
vn -0.8016 0.5849 -0.1238
vn -0.5148 0.0737 -0.8541
vn -0.9456 0.0919 -0.3121
vn -0.3865 -0.6278 -0.6756
vn -0.7035 -0.6538 -0.2787
vn -0.6110 -0.7687 -0.1892
vn -0.5662 -0.6637 -0.4888
vn -0.5779 -0.7977 0.1725
vn -0.6204 -0.7192 0.3126
vn -0.8188 -0.5647 -0.1038
vn -0.7521 -0.6131 0.2418
vn -0.8475 -0.4398 0.2971
vn -0.9164 -0.3949 -0.0659
vn -0.7827 -0.4591 -0.4202
vn -0.8864 -0.1454 -0.4396
vn -0.9476 -0.1815 -0.2628
vn -0.8963 0.2272 -0.3807
vn -0.9591 0.2121 -0.1874
vn -0.9091 0.4121 0.0603
vn -0.7937 0.5423 -0.2756
vn -0.8061 0.5869 0.0762
vn -0.5975 0.8002 0.0517
vn -0.5795 0.7633 -0.2857
vn -0.6195 0.5711 -0.5385
vn -0.5236 0.7495 0.4052
vn -0.7409 0.5265 0.4169
vn -0.3963 0.6258 0.6718
vn -0.5986 0.4203 0.6819
vn -0.8353 0.3571 0.4179
vn -0.6709 0.1138 0.7327
vn -0.7842 0.1452 0.6033
vn -0.8073 -0.2376 0.5401
vn -0.6865 -0.2473 0.6838
vn -0.4341 -0.2659 0.8608
vn -0.4307 0.0983 0.8971
vn -0.3813 -0.5775 0.7219
vn -0.6203 -0.5555 0.5538
vn -0.2651 0.1081 0.9581
vn -0.2555 -0.2795 0.9255
vn -0.9253 -0.1923 0.3268
vn -0.9190 0.1267 0.3733
vn -0.9866 -0.1624 0.0129
vn -0.9851 0.1602 0.0618
vn -0.3630 0.4031 0.8401
vn -0.4449 0.8954 0.0167
vn -0.3569 0.8480 0.3919
vn -0.7141 0.2608 -0.6496
vn -0.7150 -0.1094 -0.6905
vn -0.5525 -0.1057 -0.8268
vn -0.5671 0.2918 -0.7702
vn -0.6058 -0.4339 -0.6669
vn -0.4172 -0.7671 0.4873
vn -0.7213 -0.0738 0.6887
vn 0.1522 0.0937 -0.9839
vn -0.8596 0.2002 0.4701
vn 0.0487 0.4565 -0.8884
vn 0.0580 0.3085 -0.9494
vn -0.3527 0.3572 -0.8649
vn 0.0292 0.7607 -0.6485
vn 0.1006 0.1881 -0.9770
vn 0.5950 0.1016 -0.7973
vn 0.2711 -0.5388 -0.7976
vn -0.6095 -0.4199 -0.6725
vn -0.6575 0.6775 -0.3297
vn 0.5867 0.7695 0.2524
vn 0.9434 -0.1147 0.3112
vn 0.9452 0.0354 -0.3247
vn 0.8942 -0.1908 0.4049
vn 0.9697 -0.0257 -0.2431
vn 0.8692 -0.2681 0.4154
vn 0.9629 -0.0835 -0.2566
vn 0.8315 -0.1772 0.5264
vn 0.9734 0.0397 -0.2257
vn 0.7878 -0.1003 0.6077
vn 0.9769 0.1192 -0.1772
vn 0.7203 -0.1089 0.6850
vn 0.9824 0.0943 -0.1615
vn 0.1222 0.2740 -0.9539
vn 0.2602 0.2404 -0.9352
vn -0.8859 0.0017 -0.4638
vn -0.7158 0.0493 -0.6966
vn 0.4905 0.1675 -0.8552
vn -0.4249 0.0358 -0.9045
vn 0.5984 0.0708 -0.7981
vn -0.1320 0.0225 -0.9910
vn 0.6490 0.1127 -0.7524
vn 0.0617 0.0577 -0.9964
vn -0.6042 -0.1415 -0.7842
vn -0.5036 -0.1357 -0.8532
vn -0.6994 -0.1652 -0.6954
vn -0.7388 -0.2062 -0.6416
vn -0.4126 -0.0417 -0.9100
vn -0.7545 -0.1024 -0.6482
vn -0.9871 -0.0732 -0.1422
vn -0.9742 -0.1097 -0.1970
vn -0.5838 -0.2625 -0.7683
vn -0.6647 -0.2009 -0.7196
vn -0.4519 -0.3656 -0.8137
vn -0.6650 -0.3009 -0.6835
vn -0.9702 -0.0822 -0.2280
vn -0.9568 -0.1802 -0.2284
vn -0.9689 -0.0266 -0.2459
vn -0.5730 -0.4087 -0.7104
vn 0.6239 0.1454 -0.7679
vn 0.5409 -0.2387 0.8065
vn 0.6029 -0.1958 0.7734
vn 0.8060 0.3737 0.4591
vn 0.1044 0.0339 0.9940
vn -0.6392 -0.0085 0.7690
vn 0.1346 -0.2773 0.9513
vn -0.7347 -0.2205 0.6416
vn 0.1658 -0.4911 0.8552
vn -0.6218 -0.6179 0.4812
vn 0.3215 -0.8586 0.3992
vn -0.6847 -0.3013 -0.6636
vn -0.8774 -0.3926 0.2757
vn 0.3922 -0.9156 0.0889
vn -0.4165 -0.5694 -0.7087
vn 0.3686 -0.6040 -0.7066
vn 0.3229 -0.0256 -0.9461
vn 0.8503 -0.2386 -0.4692
vn 0.2277 0.3895 -0.8925
vn -0.5180 0.3123 -0.7963
vn 0.9520 0.1135 -0.2843
vn 0.8201 -0.2853 0.4961
vn -0.9179 0.0407 -0.3948
vn -0.8361 0.2295 -0.4984
vn 0.7523 -0.0594 0.6561
vn -0.6191 -0.4695 -0.6296
vn 0.8507 0.1426 0.5060
vn 0.5932 0.0820 0.8009
vn 0.5838 -0.2852 0.7602
vn 0.5528 -0.2735 0.7871
vn 0.7114 -0.2544 0.6552
vn 0.6218 -0.5732 0.5336
vn 0.5581 0.1258 0.8202
vn 0.7064 0.1220 0.6972
vn 0.8900 0.1391 0.4342
vn 0.8928 -0.2351 0.3843
vn 0.6052 0.4327 0.6682
vn 0.7815 0.4598 0.4217
vn 0.5662 0.6637 0.4888
vn 0.9513 -0.2328 0.2019
vn 0.9561 0.1644 0.2425
vn 0.9866 0.1624 -0.0129
vn 0.9851 -0.1602 -0.0618
vn 0.9117 0.4058 0.0647
vn 0.8503 0.4307 -0.3025
vn 0.9253 0.1923 -0.3268
vn 0.8086 0.5797 0.1009
vn 0.7597 0.5990 -0.2529
vn 0.5996 0.7778 0.1884
vn 0.5386 0.8248 -0.1719
vn 0.4442 0.8608 0.2485
vn 0.3680 0.9206 -0.1304
vn 0.6217 0.5550 -0.5527
vn 0.6821 0.2546 -0.6855
vn 0.7945 0.2574 -0.5500
vn 0.7980 -0.1286 -0.5888
vn 0.6756 -0.1076 -0.7294
vn 0.4307 -0.0983 -0.8971
vn 0.4341 0.2659 -0.8608
vn 0.2555 0.2795 -0.9255
vn 0.2651 -0.1081 -0.9581
vn 0.9190 -0.1267 -0.3733
vn 0.8322 -0.3675 -0.4153
vn 0.9136 -0.4027 -0.0561
vn 0.7340 -0.5404 -0.4114
vn 0.8181 -0.5710 -0.0682
vn 0.7952 -0.5402 0.2752
vn 0.5821 -0.7598 0.2896
vn 0.4162 0.7702 -0.4833
vn 0.3813 0.5775 -0.7219
vn -0.1137 -0.3459 0.9314
vn 0.2201 -0.9011 0.3737
vn 0.9953 0.0461 0.0854
vn -0.9864 -0.1006 0.1302
vn -0.4991 0.5399 0.6778
vn 0.8711 -0.4557 -0.1831
vn -0.6499 0.6818 -0.3358
vn -0.9791 -0.0783 -0.1877
vn -0.2983 -0.3491 -0.8883
vn -0.9437 -0.1742 -0.2812
vn 0.6495 -0.3192 0.6901
vn 0.1047 0.1190 -0.9874
vn 0.9817 0.0836 -0.1712
vn 0.1657 0.2873 -0.9434
vn -0.8076 0.2561 -0.5313
vn 0.8693 0.3265 -0.3710
vn -0.1926 0.9232 -0.3326
vn -0.9278 0.3645 -0.0794
vn 0.9224 0.3622 -0.1341
vn 0.1780 0.5966 -0.7825
vn -0.8576 0.2873 -0.4266
s 1
f 4//4 3//3 2//2 1//1
f 2//2 3//3 6//6 5//5
f 5//5 6//6 8//8 7//7
f 8//8 10//10 9//9 7//7
f 13//13 12//12 11//11 9//9
f 10//10 13//13 9//9
f 11//11 12//12 14//14
f 16//16 11//11 14//14 15//15
f 18//18 16//16 15//15 17//17
f 15//15 20//20 19//19 17//17
f 21//21 18//18 17//17
f 23//23 18//18 21//21 22//22
f 24//24 23//23 22//22
f 26//26 23//23 24//24 25//25
f 28//28 27//27 26//26 25//25
f 30//30 29//29 27//27 28//28
f 29//29 32//32 31//31 27//27
f 34//34 32//32 29//29 33//33
f 36//36 30//30 28//28 35//35
f 38//38 37//37 30//30 36//36
f 39//39 38//38 36//36
f 37//37 38//38 40//40 22//22
f 40//40 38//38 42//42 41//41
f 41//41 42//42 44//44 43//43
f 43//43 44//44 46//46 45//45
f 44//44 48//48 47//47 46//46
f 50//50 49//49 43//43 45//45
f 52//52 49//49 50//50 51//51
f 54//54 52//52 51//51 53//53
f 56//56 55//55 52//52 54//54
f 45//45 46//46 58//58 57//57
f 58//58 60//60 59//59 57//57
f 60//60 62//62 61//61 59//59
f 61//61 62//62 64//64 63//63
f 64//64 62//62 66//66 65//65
f 67//67 64//64 65//65
f 69//69 68//68 67//67 65//65
f 68//68 70//70 67//67
f 72//72 69//69 65//65 71//71
f 74//74 69//69 72//72 73//73
f 76//76 75//75 74//74 73//73
f 78//78 77//77 75//75 76//76
f 80//80 77//77 78//78 79//79
f 82//82 81//81 80//80 79//79
f 84//84 81//81 82//82 83//83
f 86//86 85//85 84//84 83//83
f 88//88 85//85 86//86 87//87
f 90//90 88//88 87//87 89//89
f 92//92 91//91 90//90 89//89
f 94//94 91//91 92//92 93//93
f 96//96 95//95 94//94 93//93
f 98//98 95//95 96//96 97//97
f 100//100 99//99 98//98 97//97
f 102//102 99//99 100//100 101//101
f 104//104 102//102 101//101 103//103
f 106//106 105//105 104//104 103//103
f 108//108 105//105 106//106 107//107
f 110//110 109//109 108//108 107//107
f 112//112 109//109 110//110 111//111
f 114//114 112//112 111//111 113//113
f 116//116 114//114 113//113 115//115
f 118//118 116//116 115//115 117//117
f 120//120 118//118 117//117 119//119
f 122//122 120//120 119//119 121//121
f 124//124 122//122 121//121 123//123
f 126//126 124//124 123//123 125//125
f 128//128 127//127 124//124 126//126
f 130//130 128//128 126//126 129//129
f 132//132 130//130 129//129 131//131
f 133//133 132//132 131//131
f 132//132 133//133 135//135 134//134
f 134//134 135//135 137//137 136//136
f 136//136 137//137 139//139 138//138
f 138//138 139//139 141//141 140//140
f 140//140 141//141 143//143 142//142
f 142//142 143//143 144//144
f 147//147 146//146 145//145 144//144
f 143//143 147//147 144//144
f 145//145 146//146 148//148
f 146//146 149//149 148//148
f 150//150 145//145 148//148
f 146//146 147//147 151//151 149//149
f 151//151 152//152 150//150 149//149
f 150//150 152//152 153//153 144//144
f 145//145 150//150 144//144
f 153//153 154//154 140//140 142//142
f 137//137 156//156 155//155 139//139
f 155//155 156//156 158//158 157//157
f 158//158 160//160 159//159 157//157
f 159//159 160//160 162//162 161//161
f 162//162 163//163 134//134 136//136
f 164//164 133//133 131//131
f 166//166 164//164 131//131 165//165
f 168//168 164//164 166//166 167//167
f 169//169 168//168 167//167
f 169//169 167//167 170//170
f 173//173 172//172 171//171 170//170
f 167//167 173//173 170//170
f 175//175 171//171 172//172 174//174
f 177//177 171//171 175//175 176//176
f 179//179 178//178 177//177 176//176
f 178//178 181//181 180//180 177//177
f 183//183 181//181 178//178 182//182
f 185//185 183//183 182//182 184//184
f 187//187 186//186 183//183 185//185
f 189//189 188//188 186//186 187//187
f 191//191 190//190 188//188 189//189
f 193//193 192//192 190//190 191//191
f 195//195 194//194 192//192 193//193
f 197//197 196//196 194//194 195//195
f 199//199 198//198 196//196 197//197
f 205//205 207//207 206//206 204//204
f 209//209 207//207 205//205 208//208
f 210//210 209//209 208//208
f 210//210 212//212 211//211 209//209
f 212//212 214//214 213//213 211//211
f 71//71 213//213 214//214 215//215
f 216//216 71//71 215//215
f 215//215 214//214 218//218 217//217
f 220//220 219//219 215//215 217//217
f 222//222 219//219 220//220 221//221
f 224//224 223//223 219//219 222//222
f 225//225 224//224 222//222
f 227//227 226//226 224//224 225//225
f 229//229 226//226 227//227 228//228
f 230//230 229//229 228//228
f 232//232 229//229 230//230 231//231
f 233//233 229//229 232//232
f 231//231 230//230 235//235 234//234
f 234//234 235//235 237//237 236//236
f 239//239 237//237 235//235 238//238
f 240//240 239//239 238//238
f 242//242 239//239 240//240 241//241
f 244//244 239//239 242//242 243//243
f 243//243 242//242 246//246 245//245
f 248//248 247//247 244//244 243//243
f 240//240 250//250 249//249 241//241
f 241//241 249//249 221//221
f 250//250 252//252 251//251 249//249
f 228//228 252//252 250//250 238//238
f 250//250 240//240 238//238
f 237//237 253//253 236//236
f 255//255 254//254 231//231 234//234
f 226//226 229//229 233//233 256//256
f 235//235 230//230 228//228 238//238
f 224//224 226//226 256//256 257//257
f 256//256 259//259 258//258 257//257
f 251//251 252//252 227//227 225//225
f 223//223 224//224 257//257 260//260
f 223//223 260//260 216//216
f 251//251 225//225 222//222
f 246//246 242//242 241//241 221//221
f 220//220 246//246 221//221
f 249//249 251//251 222//222 221//221
f 246//246 220//220 217//217 261//261
f 218//218 214//214 212//212 262//262
f 213//213 66//66 263//263 211//211
f 212//212 210//210 264//264 202//202
f 262//262 212//212 202//202
f 211//211 263//263 265//265 209//209
f 209//209 265//265 266//266 207//207
f 265//265 268//268 267//267 266//266
f 266//266 267//267 270//270 269//269
f 273//273 272//272 271//271 270//270
f 267//267 273//273 270//270
f 274//274 271//271 272//272 53//53
f 276//276 271//271 274//274 275//275
f 278//278 276//276 275//275 277//277
f 280//280 278//278 277//277 279//279
f 282//282 280//280 279//279 281//281
f 284//284 282//282 281//281 283//283
f 286//286 284//284 283//283 285//285
f 288//288 284//284 286//286 287//287
f 290//290 288//288 287//287 289//289
f 292//292 291//291 288//288 290//290
f 294//294 293//293 291//291 292//292
f 296//296 295//295 293//293 294//294
f 298//298 296//296 294//294 297//297
f 300//300 298//298 297//297 299//299
f 302//302 301//301 298//298 300//300
f 304//304 303//303 302//302 300//300
f 299//299 297//297 306//306 305//305
f 305//305 306//306 308//308 307//307
f 310//310 309//309 305//305 307//307
f 311//311 304//304 300//300 299//299
f 297//297 294//294 292//292 306//306
f 306//306 292//292 290//290 308//308
f 308//308 290//290 289//289 312//312
f 291//291 282//282 284//284 288//288
f 293//293 280//280 282//282 291//291
f 313//313 276//276 278//278 295//295
f 277//277 275//275 315//315 314//314
f 268//268 47//47 273//273 267//267
f 204//204 206//206 301//301 302//302
f 207//207 266//266 269//269 206//206
f 198//198 203//203 303//303 196//196
f 196//196 303//303 304//304 194//194
f 194//194 304//304 311//311 192//192
f 192//192 311//311 309//309 190//190
f 190//190 309//309 310//310 188//188
f 173//173 316//316 187//187 185//185
f 184//184 182//182 318//318 317//317
f 317//317 318//318 320//320 319//319
f 319//319 320//320 322//322 321//321
f 321//321 322//322 323//323
f 323//323 322//322 325//325 324//324
f 327//327 326//326 323//323 324//324
f 326//326 327//327 328//328
f 327//327 329//329 328//328
f 330//330 326//326 328//328
f 331//331 329//329 327//327 324//324
f 332//332 331//331 324//324
f 331//331 333//333 330//330 329//329
f 330//330 333//333 334//334 323//323
f 326//326 330//330 323//323
f 325//325 335//335 324//324
f 335//335 325//325 336//336
f 332//332 335//335 336//336
f 334//334 337//337 319//319 321//321
f 182//182 178//178 179//179 318//318
f 338//338 170//170 171//171 177//177
f 180//180 338//338 177//177
f 289//289 168//168 169//169 338//338
f 312//312 289//289 338//338
f 131//131 129//129 339//339 165//165
f 283//283 281//281 128//128 130//130
f 281//281 279//279 127//127 128//128
f 125//125 123//123 193//193 191//191
f 314//314 315//315 120//120 122//122
f 121//121 119//119 197//197 195//195
f 341//341 340//340 114//114 116//116
f 115//115 113//113 201//201 200//200
f 113//113 111//111 262//262 202//202
f 110//110 218//218 262//262 111//111
f 218//218 110//110 107//107 261//261
f 217//217 218//218 261//261
f 107//107 106//106 245//245 261//261
f 344//344 343//343 342//342 104//104
f 105//105 344//344 104//104
f 346//346 345//345 342//342 343//343
f 348//348 347//347 346//346 343//343
f 347//347 350//350 349//349 346//346
f 349//349 350//350 351//351
f 353//353 347//347 348//348 352//352
f 355//355 354//354 353//353 352//352
f 353//353 354//354 356//356
f 354//354 358//358 357//357 356//356
f 357//357 360//360 359//359 356//356
f 359//359 360//360 362//362 361//361
f 362//362 364//364 363//363 361//361
f 366//366 365//365 360//360 357//357
f 367//367 366//366 357//357
f 369//369 366//366 367//367 368//368
f 371//371 366//366 369//369 370//370
f 373//373 372//372 371//371 370//370
f 367//367 358//358 374//374 368//368
f 368//368 374//374 375//375
f 375//375 374//374 355//355 376//376
f 378//378 377//377 375//375 376//376
f 355//355 352//352 376//376
f 374//374 358//358 354//354 355//355
f 379//379 348//348 343//343 344//344
f 379//379 344//344 380//380
f 63//63 378//378 379//379 380//380
f 103//103 248//248 243//243 245//245
f 106//106 103//103 245//245
f 342//342 102//102 104//104
f 101//101 248//248 103//103
f 342//342 345//345 99//99 102//102
f 100//100 247//247 248//248 101//101
f 247//247 100//100 97//97
f 346//346 349//349 95//95 98//98
f 345//345 346//346 98//98
f 97//97 96//96 253//253 244//244
f 247//247 97//97 244//244
f 95//95 349//349 351//351 94//94
f 253//253 96//96 93//93 236//236
f 91//91 363//363 90//90
f 255//255 92//92 89//89
f 363//363 364//364 88//88 90//90
f 87//87 254//254 255//255 89//89
f 86//86 254//254 87//87
f 364//364 362//362 381//381 84//84
f 85//85 364//364 84//84
f 382//382 371//371 372//372 80//80
f 81//81 382//382 80//80
f 78//78 259//259 79//79
f 77//77 372//372 373//373 75//75
f 258//258 259//259 78//78 76//76
f 75//75 373//373 74//74
f 258//258 76//76 73//73
f 260//260 72//72 71//71 216//216
f 67//67 70//70 377//377 64//64
f 65//65 66//66 213//213 71//71
f 61//61 63//63 380//380 108//108
f 109//109 61//61 108//108
f 64//64 377//377 378//378 63//63
f 66//66 62//62 60//60 263//263
f 59//59 61//61 109//109 112//112
f 60//60 58//58 268//268 265//265
f 263//263 60//60 265//265
f 57//57 59//59 112//112 114//114
f 340//340 57//57 114//114
f 35//35 28//28 25//25 56//56
f 25//25 24//24 55//55 56//56
f 19//19 33//33 37//37 22//22
f 21//21 19//19 22//22
f 10//10 383//383 13//13
f 383//383 10//10 8//8
f 6//6 384//384 383//383 8//8
f 3//3 384//384 6//6
f 32//32 2//2 5//5 31//31
f 12//12 13//13 4//4 1//1
f 385//385 12//12 1//1
f 384//384 3//3 4//4
f 12//12 385//385 14//14
f 383//383 384//384 4//4 13//13
f 20//20 385//385 1//1 34//34
f 1//1 2//2 32//32 34//34
f 14//14 385//385 20//20 15//15
f 31//31 5//5 7//7 386//386
f 9//9 11//11 16//16 387//387
f 7//7 9//9 387//387 386//386
f 19//19 20//20 34//34 33//33
f 33//33 29//29 30//30 37//37
f 19//19 21//21 17//17
f 27//27 31//31 386//386 26//26
f 387//387 16//16 18//18 23//23
f 386//386 387//387 23//23 26//26
f 38//38 39//39 42//42
f 388//388 40//40 41//41
f 22//22 40//40 388//388 55//55
f 24//24 22//22 55//55
f 48//48 39//39 36//36 389//389
f 42//42 39//39 48//48 44//44
f 389//389 36//36 35//35 390//390
f 49//49 388//388 41//41 43//43
f 55//55 388//388 49//49 52//52
f 390//390 35//35 56//56 54//54
f 47//47 48//48 389//389 273//273
f 46//46 47//47 268//268 58//58
f 273//273 389//389 390//390 272//272
f 340//340 50//50 45//45 57//57
f 51//51 50//50 340//340 341//341
f 272//272 390//390 54//54 53//53
f 365//365 382//382 381//381
f 382//382 365//365 366//366 371//371
f 370//370 369//369 70//70 68//68
f 360//360 365//365 381//381 362//362
f 358//358 367//367 357//357
f 70//70 369//369 368//368 375//375
f 377//377 70//70 375//375
f 350//350 359//359 361//361 351//351
f 350//350 347//347 353//353 356//356
f 359//359 350//350 356//356
f 348//348 379//379 378//378 376//376
f 352//352 348//348 376//376
f 381//381 382//382 81//81 84//84
f 372//372 77//77 80//80
f 370//370 68//68 69//69 74//74
f 373//373 370//370 74//74
f 364//364 85//85 88//88
f 361//361 363//363 91//91 94//94
f 351//351 361//361 94//94
f 99//99 345//345 98//98
f 380//380 344//344 105//105 108//108
f 83//83 82//82 233//233 232//232
f 82//82 79//79 259//259 256//256
f 233//233 82//82 256//256
f 258//258 73//73 72//72 260//260
f 257//257 258//258 260//260
f 86//86 83//83 232//232 231//231
f 254//254 86//86 231//231
f 227//227 252//252 228//228
f 219//219 223//223 216//216 215//215
f 92//92 255//255 234//234 236//236
f 93//93 92//92 236//236
f 253//253 237//237 239//239 244//244
f 245//245 246//246 261//261
f 338//338 169//169 170//170
f 129//129 126//126 125//125 339//339
f 316//316 166//166 165//165
f 166//166 316//316 173//173 167//167
f 307//307 308//308 312//312 391//391
f 391//391 312//312 338//338 180//180
f 339//339 125//125 191//191 189//189
f 165//165 339//339 189//189 187//187
f 316//316 165//165 187//187
f 172//172 173//173 185//185 184//184
f 392//392 310//310 307//307 391//391
f 181//181 392//392 391//391 180//180
f 188//188 310//310 392//392 186//186
f 186//186 392//392 181//181 183//183
f 270//270 271//271 276//276 313//313
f 295//295 278//278 280//280 293//293
f 53//53 51//51 341//341 393//393
f 274//274 53//53 393//393
f 275//275 274//274 393//393 315//315
f 279//279 277//277 314//314 127//127
f 269//269 270//270 313//313 394//394
f 394//394 313//313 295//295 296//296
f 393//393 341//341 116//116 118//118
f 315//315 393//393 118//118 120//120
f 127//127 314//314 122//122 124//124
f 206//206 269//269 394//394 301//301
f 301//301 394//394 296//296 298//298
f 303//303 203//203 204//204 302//302
f 309//309 311//311 299//299 305//305
f 117//117 115//115 200//200 199//199
f 119//119 117//117 199//199 197//197
f 123//123 121//121 195//195 193//193
f 395//395 286//286 285//285 163//163
f 160//160 395//395 163//163 162//162
f 287//287 286//286 395//395 396//396
f 396//396 395//395 160//160 158//158
f 285//285 283//283 130//130 132//132
f 163//163 285//285 132//132 134//134
f 287//287 396//396 397//397 168//168
f 289//289 287//287 168//168
f 156//156 397//397 396//396 158//158
f 135//135 133//133 164//164 168//168
f 397//397 135//135 168//168
f 135//135 397//397 156//156 137//137
f 398//398 159//159 161//161 154//154
f 152//152 398//398 154//154 153//153
f 157//157 159//159 398//398 399//399
f 399//399 398//398 152//152 151//151
f 149//149 150//150 148//148
f 161//161 162//162 136//136 138//138
f 154//154 161//161 138//138 140//140
f 153//153 142//142 144//144
f 400//400 155//155 157//157 399//399
f 147//147 400//400 399//399 151//151
f 139//139 155//155 400//400 141//141
f 141//141 400//400 147//147 143//143
f 401//401 175//175 174//174 337//337
f 333//333 401//401 337//337 334//334
f 176//176 175//175 401//401 402//402
f 402//402 401//401 333//333 331//331
f 329//329 330//330 328//328
f 174//174 172//172 184//184 317//317
f 337//337 174//174 317//317 319//319
f 334//334 321//321 323//323
f 402//402 331//331 332//332 336//336
f 403//403 402//402 336//336
f 403//403 179//179 176//176 402//402
f 335//335 332//332 324//324
f 318//318 179//179 403//403 320//320
f 322//322 320//320 403//403 336//336
f 325//325 322//322 336//336
f 264//264 201//201 113//113 202//202
f 199//199 200//200 201//201 264//264 210//210 208//208 205//205 204//204 203//203 198//198
