# Blender 5.0.0
# www.blender.org
mtllib Walk_Forward0034.mtl
o Mball.010
v 1.295834 3.679760 1.781078
v 0.962082 3.457196 1.804275
v 0.890132 3.661061 2.110729
v 1.206072 3.860731 2.092773
v 0.737827 3.586159 1.718638
v 0.687240 3.773701 2.034718
v 0.679869 4.039454 1.543870
v 0.627276 4.226659 1.859725
v 0.896257 4.280278 1.493748
v 0.827330 4.446334 1.814466
v 1.261722 4.167501 1.597912
v 1.195127 4.318067 1.916956
v 1.192512 4.321472 1.922973
v 1.282137 4.140479 1.611262
v 1.352516 3.956256 1.297398
v 1.332102 3.983279 1.284048
v 1.422559 3.771977 0.983496
v 1.402526 3.798493 0.970396
v 1.440636 3.321960 1.150179
v 1.370309 3.505534 1.464288
v 1.431723 3.678729 0.882073
v 1.412336 3.545495 0.707371
v 1.037040 3.911514 0.866140
v 1.105296 3.604907 0.626399
v 0.958717 3.460199 0.635014
v 0.820939 3.671061 0.916177
v 0.878930 3.217772 1.090948
v 1.028679 3.053551 0.749163
v 1.102813 3.089094 1.176417
v 1.180961 2.993658 0.792116
v 0.808206 3.401937 1.404774
v 1.032461 3.272974 1.490410
v 1.436251 3.311258 1.153310
v 1.366213 3.495538 1.467214
v 0.886907 3.377975 0.357027
v 1.199517 3.451684 0.282320
v 1.451153 3.150173 0.788575
v 1.506857 3.416336 0.580018
v 1.469407 3.653101 0.450009
v 1.398558 3.566237 0.759889
v 1.344749 3.789231 0.825575
v 1.493013 3.696333 0.519739
v 1.173856 4.255315 0.804125
v 1.338995 4.202797 0.434035
v 1.017230 4.722824 0.722492
v 1.178081 4.699803 0.353226
v 1.162224 4.657191 0.263036
v 1.318429 4.164207 0.351376
v 1.092952 4.235995 0.856376
v 0.937975 4.688684 0.778513
v 0.626163 4.494324 0.787890
v 0.733852 4.081193 0.869854
v 0.519775 4.322697 0.517795
v 0.571227 3.926352 0.623344
v 0.914216 3.659705 0.855293
v 0.740646 3.490710 0.647312
v 0.551877 5.113243 0.635215
v 0.693813 5.217732 0.268344
v 0.355240 5.483022 0.628043
v 0.488518 5.503097 0.247665
v 0.513433 5.875657 0.666180
v 0.646253 5.877082 0.283683
v 0.567751 5.907130 0.678699
v 0.700445 5.906495 0.296122
v 0.453204 5.950135 -0.189890
v 0.426827 5.911500 -0.124149
v 0.849724 6.090473 -0.084468
v 0.922993 6.264524 -0.249367
v 0.603505 6.307170 -0.528152
v 1.032118 6.246301 -0.036305
v 0.072414 5.993815 -0.291776
v 0.222715 6.350851 -0.630038
v 0.241652 6.420100 -0.666216
v 0.622443 6.376420 -0.564330
v 0.688691 6.704383 -0.668140
v 0.307901 6.748064 -0.770026
v 0.722715 7.102459 -0.660491
v 0.341925 7.146140 -0.762377
v 0.331849 7.475391 -0.645939
v 0.712639 7.431710 -0.544053
v 0.705577 7.501398 -0.505206
v 0.324786 7.545079 -0.607091
v 0.235862 7.906149 -0.255031
v 0.616653 7.862469 -0.153145
v 0.596846 7.901881 -0.085615
v 0.216055 7.945562 -0.187501
v 0.116376 8.061964 0.130594
v 0.497167 8.018284 0.232480
v -0.016236 8.064200 0.513269
v 0.364555 8.020519 0.615155
v 0.245293 7.907810 0.928848
v -0.135498 7.951491 0.826962
v -0.161975 7.912859 0.892992
v 0.218816 7.869178 0.994878
v 0.068515 7.512142 1.333141
v -0.312276 7.555823 1.231255
v -0.331214 7.486574 1.267433
v 0.049577 7.442893 1.369319
v -0.016671 7.114929 1.473129
v -0.397462 7.158610 1.371243
v -0.431486 6.760534 1.363594
v -0.050695 6.716853 1.465480
v -0.421410 6.431283 1.247156
v -0.040619 6.387602 1.349042
v -0.033557 6.317914 1.310194
v -0.414348 6.361595 1.208308
v -0.325424 6.000525 0.856248
v 0.055367 5.956844 0.958134
v 0.075073 5.917433 0.890894
v -0.305690 5.960931 0.788893
v -0.267779 5.548018 0.571076
v 0.106479 5.506603 0.690598
v -0.335463 5.028456 0.621172
v 0.051023 4.993977 0.737811
v -0.349847 4.602415 0.565472
v 0.036681 4.577620 0.676955
v -0.291672 4.261307 0.472115
v 0.066981 4.254506 0.541650
v -0.195035 3.888074 0.447305
v 0.168778 4.123652 0.454146
v -0.168802 3.507633 0.407568
v 0.184514 3.815323 0.540439
v -0.163802 3.126679 0.348441
v 0.177312 3.457025 0.637487
v -0.162255 2.750838 0.228518
v 0.166835 3.069587 0.673185
v 0.568635 3.426655 0.554372
v 0.556464 3.049279 0.662187
v 0.157261 2.661739 0.681436
v 0.538881 2.721906 0.853586
v 0.149554 2.349336 0.687849
v 0.530089 2.366213 0.998981
v 0.169815 2.262066 0.758718
v 0.559407 2.003352 1.129186
v 0.235448 1.896329 0.989947
v 0.588960 1.638192 1.255027
v 0.312803 1.532749 1.117200
v 0.618750 1.264702 1.373549
v 0.351498 1.177974 1.242447
v 0.561867 0.816201 1.369751
v 0.327185 0.842834 1.272965
v 0.504078 0.423061 1.398320
v 0.242156 0.457254 1.295564
v 0.458735 0.070624 1.340168
v 0.453896 0.010085 1.291958
v 0.356244 -0.019907 0.940801
v 0.225933 0.400825 0.903981
v 0.470095 -0.062160 0.949595
v 0.474731 -0.044247 0.922347
v 0.549177 -0.053866 0.952277
v 0.548033 0.320936 0.759092
v 0.820592 0.301433 0.935428
v 0.710863 0.374753 1.323442
v 0.807671 0.766223 1.296412
v 0.317610 1.005553 0.868686
v 0.269576 1.333177 0.753209
v 0.652052 0.935490 0.660826
v 0.627145 1.254824 0.539641
v 1.017517 1.049198 0.874187
v 0.970072 1.399125 0.758890
v 0.939888 1.186952 1.253016
v 0.909392 1.588670 1.123050
v 0.834820 1.952441 0.989502
v 0.149893 2.235580 0.674051
v -0.165127 2.055850 -0.164034
v -0.165449 2.030691 -0.179629
v -0.172927 1.648067 -0.420666
v 0.164068 1.880664 0.309265
v -0.187724 1.776587 -0.623665
v -0.193923 1.702458 -0.716482
v -0.262269 1.411882 -0.860857
v -0.311712 1.234484 -0.483377
v -0.211796 1.609334 -0.376236
v -0.513545 0.856076 -0.584182
v -0.408779 1.054234 -0.931883
v -0.602638 1.133280 -1.031961
v -0.609636 1.502535 -1.026587
v -0.884885 1.418887 -0.831543
v -0.919729 1.072334 -0.913885
v -0.601756 1.893164 -0.956294
v -0.902087 1.792577 -0.719822
v -0.792110 1.239888 -0.460758
v -0.824747 1.614964 -0.348717
v -0.572968 1.194028 -0.379594
v -0.560217 1.546520 -0.223139
v -0.787940 1.987844 -0.239093
v -0.548550 1.923173 -0.112150
v -0.762893 2.361871 -0.138501
v -0.545658 2.309232 -0.005750
v -0.749487 2.743220 -0.044798
v -0.553359 2.698138 0.111326
v -0.651748 3.130955 0.047116
v -0.565617 3.110100 0.136024
v -0.608140 3.520058 0.139722
v -0.575080 3.509583 0.179268
v -0.543968 3.981092 0.154582
v -0.517733 3.965435 0.193706
v -0.496318 4.419430 0.082721
v -0.476427 4.404211 0.144158
v -0.620412 4.585336 0.280176
v -0.685272 5.053756 0.339813
v -0.668866 5.141496 0.315048
v -0.465700 4.652061 -0.199359
v -0.438187 4.655492 -0.220703
v -0.487351 5.082914 -0.161477
v -0.058084 4.628412 -0.365326
v -0.053224 5.014615 -0.262413
v -0.547507 5.257231 -0.038053
v -0.050956 5.302357 -0.152265
v -0.532760 5.265997 -0.032702
v -0.063637 5.569191 -0.013631
v -0.252396 5.585214 0.049334
v 0.045966 5.955183 -0.225831
v -0.386632 5.994966 0.007066
v -0.441487 6.039433 -0.009707
v -0.292649 6.221515 -0.390126
v -0.574101 6.040464 0.372760
v -0.519338 5.993977 0.389434
v -0.753764 6.438185 -0.095986
v -0.886376 6.440421 0.286688
v -0.917767 6.514172 0.278035
v -0.785155 6.511935 -0.104639
v -0.445123 6.415756 -0.431562
v -0.587127 6.834024 -0.471012
v -0.647598 6.838696 -0.414219
v -0.553103 7.232100 -0.463363
v -0.613574 7.236772 -0.406571
v -0.694958 7.567225 -0.084363
v -0.343051 7.609983 -0.408616
v -0.651692 7.632412 -0.073040
v -0.277541 7.952066 0.025757
v -0.160657 7.765811 -0.360453
v -0.117307 7.589793 -0.532079
v -0.410154 7.954303 0.408432
v -0.784304 7.634649 0.309635
v -0.558494 7.772521 0.787571
v -0.740889 7.616693 0.739408
v -0.827571 7.569462 0.298312
v -0.950941 7.238810 0.684660
v -0.965127 7.242701 0.607892
v -0.999151 6.844625 0.600243
v -0.984965 6.840734 0.677012
v -0.761115 6.803351 1.114071
v -0.727091 7.201428 1.121720
v -0.733836 6.404242 0.929523
v -0.842960 6.422465 0.716462
v -0.673639 7.194024 1.177013
v -0.707663 6.795949 1.169364
v -0.999262 6.855349 0.255029
v -0.965238 7.253425 0.262678
v -0.866650 6.853112 -0.127645
v -0.832626 7.251188 -0.119997
v -0.631764 7.598470 0.952470
v -0.207754 7.983467 0.044287
v -0.340366 7.985703 0.426962
v -0.090029 7.190683 -0.716626
v -0.124052 6.792608 -0.724275
v -0.044601 6.784766 -0.744008
v -0.010577 7.182842 -0.736359
v -0.219379 6.395566 -0.555025
v -0.690486 6.228225 0.757898
v -0.385462 5.566856 0.429655
v 0.323243 5.526410 0.069229
v -0.549154 5.262776 -0.028912
v 0.349038 5.263145 -0.072952
v 0.367999 4.922149 -0.216182
v 0.719445 4.837877 0.013771
v 0.709115 5.165545 0.195350
v 0.344627 4.513752 -0.333019
v 0.651189 4.427419 -0.102463
v 0.702396 4.398057 0.043904
v 0.677383 4.298652 0.151773
v 0.941880 4.438683 0.069144
v 0.568717 4.369165 0.401293
v 0.629246 4.069595 0.240212
v 0.679709 3.942005 -0.116827
v 0.683575 3.725487 0.327928
v 0.697795 3.519526 -0.037902
v 0.668945 3.368470 0.464247
v 0.680243 3.151599 0.101477
v 0.636734 3.007407 0.597914
v 0.669404 2.789994 0.237243
v 0.722653 2.647350 0.735533
v 0.766081 2.433475 0.374173
v 0.766447 2.309658 0.863402
v 0.816577 2.103538 0.499015
v 0.558773 1.970387 0.282436
v 0.559171 2.340137 0.160054
v 0.162214 2.073692 0.205290
v 0.166091 2.403665 0.049175
v 0.572792 2.742473 0.117269
v 0.177423 2.749344 -0.110261
v 0.584935 3.103675 -0.024833
v 0.186269 3.091188 -0.274380
v 0.601384 3.479445 -0.160443
v 0.213830 3.495308 -0.380924
v -0.224193 3.340302 -0.547396
v -0.215074 3.730611 -0.502946
v -0.612476 3.318899 -0.427615
v -0.610088 3.678810 -0.281626
v -0.181744 4.147419 -0.451750
v -0.531027 4.157553 -0.233383
v -0.557642 4.143347 -0.198687
v -0.639160 3.664091 -0.242452
v -0.613613 2.972203 -0.603158
v -0.219675 2.956731 -0.575793
v -0.605510 2.605341 -0.714794
v -0.209243 2.566586 -0.572955
v -0.811249 2.896661 -0.422656
v -0.836324 2.518863 -0.514997
v -0.699278 3.280680 -0.331529
v -0.197976 2.165525 -0.559115
v 0.611787 3.924185 -0.232050
v 0.579516 3.781696 0.422712
v 0.536351 4.103252 0.332751
v -0.170120 2.025484 -0.179294
v -0.587569 0.842764 -0.549088
v -0.826698 0.859312 -0.571888
v -0.614780 0.492072 -0.839314
v -0.949197 0.615141 -0.889458
v -0.597157 0.352162 -1.146423
v -0.953652 0.482254 -1.204128
v -0.570560 0.303870 -1.409259
v -0.893076 0.863237 -1.527420
v -0.973999 0.519001 -1.216629
v -0.556524 0.345067 -1.481594
v -0.777115 0.788572 -1.631285
v -0.490841 0.734607 -1.624231
v -0.486370 0.780232 -1.614920
v -0.453858 0.738963 -1.600424
v -0.485698 1.050529 -1.364928
v -0.900915 0.973804 -1.356257
v -0.328049 0.854181 -1.292505
v -0.485894 0.410469 -1.159471
v -0.924207 0.950228 -1.349727
v -0.933683 1.030768 -1.076595
v -0.485596 0.550465 -0.852645
v -0.194194 1.783141 -0.662585
v -0.162856 2.386836 0.038238
v 0.532339 5.016606 0.668709
v 0.472533 4.631039 0.660480
v 0.301806 6.680151 1.439462
v 0.381258 6.672310 1.419729
v 0.408537 6.273200 1.235181
v 0.335830 7.078228 1.447111
v 0.415282 7.070386 1.427378
v 0.878356 7.028970 1.174115
v 0.844333 6.630894 1.166466
v 0.510608 7.467427 1.258128
v 0.736352 7.447238 1.134665
v 0.583878 7.641479 1.093229
v 0.904803 6.626222 1.109673
v 0.938827 7.024297 1.117322
v 1.157879 7.009881 0.830748
v 1.123855 6.611805 0.823099
v 1.076384 7.351059 0.807742
v 1.208996 7.348822 0.425068
v 1.290491 7.007645 0.448074
v 1.044993 7.424809 0.799089
v 1.177605 7.422572 0.416415
v 0.732219 7.823261 0.714090
v 0.864832 7.821024 0.331415
v 0.669102 7.869906 0.697060
v 0.801715 7.867670 0.314385
v 1.134189 7.440528 -0.013359
v 1.276194 7.022260 0.026091
v 1.290380 7.018369 0.102860
v 1.256356 6.620293 0.095211
v 1.242170 6.624184 0.018442
v 1.018320 6.661565 -0.418617
v 1.052344 7.059642 -0.410968
v 0.998892 7.067045 -0.466262
v 0.964868 6.668969 -0.473910
v 1.256468 6.609569 0.440425
v 1.118800 6.293531 0.404791
v 0.986187 6.295768 0.787465
v 1.075534 6.228345 0.393468
v 0.942921 6.230581 0.776143
v 0.634281 6.253010 1.111719
v 0.451886 6.097182 1.063556
v 0.981716 7.634769 -0.054795
v 1.025065 7.458751 -0.226421
v 0.785989 4.409340 2.133623
v 0.829135 3.935160 2.276531
v 1.299930 3.689756 1.778153
v 0.750248 3.855231 1.230006
v 0.966636 4.096056 1.179883
v 1.263068 3.787351 0.873938
v 1.054227 3.974967 0.153394
v 0.736171 3.871227 0.254799
v -0.594680 2.256499 -0.838378
v -0.859928 2.161340 -0.611765
v 0.462124 4.335908 0.465051
v 0.297316 4.065817 -0.425544
v 0.886790 1.750093 0.624258
v 0.586277 1.601653 0.414832
v 0.191684 1.695879 0.537061
v 0.921228 0.684275 0.914177
v 0.613459 0.685606 0.732160
v 0.310137 0.761541 0.888537
v -0.336120 0.953120 -1.012543
v -0.520468 1.142118 -1.100859
v -0.935049 1.036686 -1.055900
vn 0.7418 -0.4340 0.5112
vn -0.0411 -0.8550 0.5170
vn -0.0766 -0.7245 0.6850
vn 0.7224 -0.1619 0.6722
vn -0.8528 -0.5049 0.1337
vn -0.8567 -0.3681 0.3612
vn -0.9310 0.2066 -0.3008
vn -0.9545 0.2978 -0.0128
vn -0.1980 0.8420 -0.5019
vn -0.2251 0.9479 -0.2255
vn 0.6180 0.7425 -0.2586
vn 0.8143 0.5772 -0.0611
vn 0.6961 0.6699 0.2584
vn 0.9370 0.3476 0.0355
vn 0.9406 0.3393 0.0114
vn 0.6258 0.7256 -0.2862
vn 0.9457 0.3138 -0.0846
vn 0.6237 0.6691 -0.4041
vn 0.9909 -0.0225 0.1326
vn 0.9607 -0.0843 0.2645
vn 0.8611 0.3697 -0.3491
vn 0.9899 0.0868 0.1120
vn -0.1550 0.7490 -0.6442
vn -0.3703 -0.4300 -0.8234
vn -0.8488 -0.5107 0.1371
vn -0.8873 0.1655 -0.4304
vn -0.8266 -0.5625 0.0186
vn -0.5450 -0.7902 -0.2802
vn -0.0098 -0.9200 0.3919
vn 0.1348 -0.9779 -0.1597
vn -0.8497 -0.5154 0.1115
vn -0.0371 -0.8656 0.4993
vn 0.8236 -0.4594 0.3327
vn 0.7327 -0.5026 0.4589
vn -0.5606 -0.6002 -0.5706
vn 0.2580 -0.4267 -0.8668
vn 0.8119 -0.5738 -0.1070
vn 0.9430 -0.2783 -0.1824
vn 0.8024 -0.0335 -0.5958
vn 0.6197 -0.2135 0.7552
vn 0.7345 0.1405 0.6639
vn 0.9844 0.1757 0.0129
vn 0.7076 0.3148 0.6327
vn 0.9539 0.3001 0.0028
vn 0.6018 0.5071 0.6169
vn 0.8539 0.5205 0.0022
vn 0.7565 0.3198 -0.5704
vn 0.7903 0.1208 -0.6007
vn 0.2275 0.1797 0.9570
vn 0.1248 0.3060 0.9438
vn -0.4732 0.0149 0.8808
vn -0.4663 -0.0404 0.8837
vn -0.8848 -0.4326 0.1730
vn -0.9502 -0.2593 0.1727
vn -0.1993 -0.4592 0.8657
vn -0.7669 -0.5513 0.3285
vn 0.4700 0.4808 0.7402
vn 0.7659 0.6368 -0.0887
vn 0.5996 -0.0384 0.7994
vn 0.9772 0.0870 -0.1938
vn 0.4950 -0.7066 0.5057
vn 0.6888 -0.7152 -0.1185
vn 0.4366 -0.8297 0.3478
vn 0.5453 -0.8380 -0.0181
vn 0.2516 -0.8153 -0.5216
vn 0.3734 -0.7282 -0.5748
vn 0.5377 -0.7709 -0.3414
vn 0.6243 -0.5573 -0.5474
vn 0.3263 -0.5960 -0.7337
vn 0.7732 -0.5749 -0.2677
vn -0.1111 -0.7663 -0.6328
vn -0.0263 -0.5536 -0.8324
vn 0.0116 -0.3851 -0.9228
vn 0.3774 -0.4269 -0.8218
vn 0.3968 -0.1824 -0.8996
vn 0.0803 -0.1499 -0.9854
vn 0.4316 0.1462 -0.8901
vn 0.1145 0.1725 -0.9783
vn 0.0783 0.4306 -0.8991
vn 0.4598 0.3965 -0.7946
vn 0.4394 0.5736 -0.6913
vn 0.0864 0.5890 -0.8035
vn 0.0593 0.8104 -0.5828
vn 0.4166 0.7782 -0.4699
vn 0.3983 0.8641 -0.3077
vn 0.0168 0.9086 -0.4174
vn -0.0101 0.9839 -0.1786
vn 0.2981 0.9518 -0.0726
vn -0.0946 0.9867 0.1319
vn 0.2130 0.9482 0.2357
vn 0.1788 0.8544 0.4880
vn -0.1912 0.9124 0.3619
vn -0.2386 0.8124 0.5321
vn 0.1106 0.7677 0.6311
vn 0.0267 0.5512 0.8340
vn -0.3263 0.5960 0.7337
vn -0.3774 0.4269 0.8218
vn -0.0100 0.3826 0.9238
vn -0.0803 0.1499 0.9854
vn -0.3968 0.1824 0.8996
vn -0.4316 -0.1462 0.8901
vn -0.1145 -0.1725 0.9783
vn -0.4598 -0.3965 0.7946
vn -0.0976 -0.4220 0.9013
vn -0.0988 -0.5974 0.7958
vn -0.4394 -0.5736 0.6913
vn -0.4085 -0.7809 0.4725
vn -0.0573 -0.8032 0.5930
vn 0.0091 -0.7020 0.7121
vn -0.5093 -0.6869 0.5185
vn -0.5780 -0.1139 0.8080
vn 0.0058 -0.1531 0.9882
vn -0.5023 0.0209 0.8644
vn -0.0778 0.0029 0.9970
vn -0.5201 -0.2778 0.8077
vn -0.0703 -0.2687 0.9607
vn -0.5102 -0.2778 0.8140
vn 0.0200 -0.3532 0.9353
vn -0.4022 -0.0460 0.9144
vn 0.1305 -0.1307 0.9828
vn -0.4895 -0.0143 0.8719
vn -0.0194 0.1814 0.9832
vn -0.5555 -0.0930 0.8263
vn -0.2171 0.1362 0.9666
vn -0.5694 -0.1937 0.7989
vn -0.4321 0.0758 0.8986
vn 0.4707 0.2309 0.8516
vn 0.3551 0.2749 0.8935
vn -0.6680 0.0590 0.7418
vn 0.1231 0.3423 0.9315
vn -0.8248 0.0693 0.5612
vn -0.0214 0.3633 0.9314
vn -0.8450 0.1680 0.5077
vn -0.0202 0.3606 0.9325
vn -0.8240 0.0993 0.5578
vn -0.0358 0.3162 0.9480
vn -0.8204 0.0728 0.5672
vn -0.0261 0.1791 0.9835
vn -0.7999 0.0808 0.5947
vn -0.0373 0.0476 0.9982
vn -0.8068 0.1379 0.5746
vn -0.0346 -0.0392 0.9986
vn -0.8456 -0.0623 0.5302
vn -0.1042 -0.6355 0.7651
vn -0.0509 -0.7726 0.6328
vn -0.7333 -0.5973 -0.3249
vn -0.8814 -0.1110 -0.4591
vn -0.1131 -0.9772 -0.1799
vn -0.0210 -0.6143 -0.7888
vn 0.5442 -0.8040 -0.2396
vn 0.0382 -0.2219 -0.9743
vn 0.8558 -0.4266 -0.2927
vn 0.6702 -0.2832 0.6860
vn 0.6902 -0.1314 0.7116
vn -0.9063 -0.1318 -0.4015
vn -0.8922 -0.2908 -0.3455
vn 0.0454 -0.2799 -0.9590
vn 0.0576 -0.3545 -0.9333
vn 0.9384 -0.1724 -0.2994
vn 0.9160 -0.0077 -0.4012
vn 0.7708 0.0571 0.6345
vn 0.8018 0.2956 0.5193
vn 0.8192 0.3207 0.4754
vn -0.9596 -0.1228 0.2532
vn -0.4705 -0.3329 0.8172
vn -0.1741 -0.5414 0.8226
vn 0.7878 -0.6159 0.0104
vn -0.5809 -0.6985 -0.4180
vn 0.9681 -0.1147 -0.2228
vn 0.8538 0.1068 -0.5095
vn 0.8328 -0.0614 -0.5502
vn 0.7879 -0.4214 0.4490
vn 0.7281 -0.4282 0.5352
vn 0.6743 -0.4463 0.5883
vn 0.9826 0.1265 -0.1363
vn -0.0052 0.7237 -0.6901
vn -0.0451 0.1704 -0.9843
vn -0.9210 0.0599 -0.3849
vn -0.9462 0.3142 -0.0773
vn -0.0273 0.2564 -0.9662
vn -0.9465 0.1051 -0.3050
vn -0.7423 -0.2139 0.6351
vn -0.8080 -0.1698 0.5642
vn 0.0358 -0.3904 0.9199
vn -0.0425 -0.3506 0.9355
vn -0.8105 -0.1025 0.5766
vn -0.1335 -0.3211 0.9376
vn -0.8341 -0.1086 0.5409
vn -0.2858 -0.3131 0.9057
vn -0.8614 -0.0123 0.5079
vn -0.4375 -0.2167 0.8727
vn -0.8772 0.0498 0.4774
vn -0.5685 -0.1057 0.8159
vn -0.9063 0.0596 0.4185
vn -0.6494 -0.0429 0.7593
vn -0.9331 0.1384 0.3318
vn -0.7529 0.0371 0.6571
vn -0.9983 0.0505 -0.0299
vn -0.9432 -0.1276 0.3067
vn -0.9451 -0.2560 0.2029
vn -0.9668 0.0287 0.2539
vn -0.8515 0.3896 0.3510
vn -0.9115 0.0364 -0.4096
vn -0.6108 0.1134 -0.7836
vn -0.6189 0.1632 -0.7684
vn -0.0938 0.2065 -0.9739
vn -0.0281 0.3099 -0.9504
vn -0.6759 0.2655 -0.6875
vn -0.0010 0.4377 -0.8991
vn -0.5548 0.6825 -0.4758
vn -0.1189 0.0392 -0.9921
vn -0.6764 0.1375 -0.7235
vn -0.1785 -0.6618 -0.7281
vn -0.6072 -0.5980 -0.5231
vn -0.5813 -0.7130 -0.3921
vn -0.4077 -0.6500 -0.6413
vn -0.7041 -0.7075 -0.0606
vn -0.7834 -0.6203 0.0385
vn -0.7538 -0.4860 -0.4423
vn -0.8542 -0.5087 -0.1081
vn -0.9363 -0.3279 -0.1256
vn -0.8239 -0.3120 -0.4731
vn -0.5795 -0.4198 -0.6985
vn -0.6042 -0.1152 -0.7885
vn -0.7291 -0.1235 -0.6731
vn -0.5756 0.2426 -0.7809
vn -0.7089 0.2577 -0.6566
vn -0.7509 0.4814 -0.4520
vn -0.4853 0.5483 -0.6810
vn -0.6418 0.6504 -0.4063
vn -0.4188 0.8403 -0.3442
vn -0.2684 0.7436 -0.6124
vn -0.2318 0.5286 -0.8166
vn -0.5157 0.8567 0.0111
vn -0.7580 0.6484 -0.0709
vn -0.5409 0.7683 0.3422
vn -0.7741 0.5745 0.2658
vn -0.8699 0.4829 -0.1006
vn -0.9131 0.2672 0.3079
vn -0.9493 0.2918 0.1174
vn -0.9906 -0.1067 0.0859
vn -0.9507 -0.1097 0.2901
vn -0.7979 -0.1303 0.5886
vn -0.7625 0.2505 0.5966
vn -0.7271 -0.4587 0.5108
vn -0.8691 -0.4357 0.2343
vn -0.6240 0.2522 0.7396
vn -0.6529 -0.1518 0.7421
vn -0.9830 -0.0742 -0.1677
vn -0.9553 0.2491 -0.1591
vn -0.8809 -0.0741 -0.4675
vn -0.8534 0.2433 -0.4609
vn -0.6243 0.5573 0.5474
vn -0.2510 0.9181 -0.3068
vn -0.3415 0.9369 0.0744
vn -0.3157 0.2311 -0.9203
vn -0.3612 -0.1219 -0.9245
vn -0.1775 -0.1484 -0.9729
vn -0.1475 0.2349 -0.9608
vn -0.3338 -0.4430 -0.8320
vn -0.6857 -0.6641 0.2980
vn -0.9632 0.0520 0.2637
vn 0.5570 -0.0004 -0.8305
vn -0.9268 0.3223 -0.1926
vn 0.4331 0.4314 -0.7914
vn 0.4002 0.2959 -0.8673
vn 0.5721 0.2740 -0.7731
vn 0.6560 0.4880 -0.5757
vn 0.3727 0.1830 -0.9097
vn 0.6687 0.0228 -0.7432
vn 0.7390 -0.5572 -0.3787
vn -0.6700 -0.3243 -0.6678
vn 0.4242 -0.0738 -0.9026
vn -0.3134 -0.9248 0.2159
vn 0.9152 0.0416 0.4009
vn 0.9709 0.0189 -0.2386
vn 0.9241 0.1498 0.3515
vn 0.9576 -0.0745 -0.2782
vn 0.9137 0.0933 0.3956
vn 0.9578 -0.1395 -0.2514
vn 0.8920 0.2126 0.3990
vn 0.9462 -0.0214 -0.3230
vn 0.8690 0.3023 0.3918
vn 0.9344 0.0324 -0.3547
vn 0.8406 0.2885 0.4584
vn 0.9272 -0.0006 -0.3746
vn 0.3596 -0.3555 -0.8627
vn 0.4989 -0.2420 -0.8322
vn 0.5932 -0.3064 -0.7445
vn 0.6013 -0.2230 -0.7673
vn 0.6287 -0.2287 -0.7433
vn 0.5974 -0.2330 -0.7673
vn 0.6619 -0.2876 -0.6923
vn 0.5222 -0.2230 -0.8232
vn 0.6652 -0.1990 -0.7197
vn 0.3928 -0.1351 -0.9096
vn 0.1094 0.0786 -0.9909
vn -0.1257 0.0839 -0.9885
vn -0.5403 0.2841 -0.7921
vn -0.6637 0.2128 -0.7171
vn -0.1931 0.1341 -0.9720
vn -0.6354 0.1689 -0.7535
vn -0.9508 0.1709 -0.2582
vn -0.9588 0.1842 -0.2164
vn -0.3606 0.2633 -0.8948
vn 0.4021 0.0362 -0.9149
vn -0.2036 0.2137 -0.9554
vn 0.6268 0.0120 -0.7791
vn -0.9463 0.2089 -0.2466
vn -0.9499 0.1285 -0.2851
vn -0.9416 0.2452 -0.2309
vn 0.7611 0.0945 -0.6417
vn 0.7040 -0.0275 -0.7096
vn 0.5327 0.2774 0.7996
vn 0.5297 -0.0362 0.8474
vn 0.5504 -0.4042 0.7305
vn 0.0735 -0.5348 0.8418
vn -0.6575 -0.3305 0.6771
vn 0.0389 -0.8153 0.5777
vn -0.8011 -0.4480 0.3968
vn 0.0417 -0.9531 0.2999
vn -0.7580 -0.6494 -0.0610
vn 0.1839 -0.9202 -0.3455
vn -0.6633 0.2800 -0.6940
vn -0.9442 -0.3293 -0.0108
vn 0.2870 -0.7600 -0.5830
vn -0.4006 0.0695 -0.9136
vn 0.2821 -0.1247 -0.9512
vn 0.3870 0.4517 -0.8039
vn 0.8076 -0.0462 -0.5880
vn 0.3593 0.8187 -0.4480
vn -0.4584 0.8014 -0.3842
vn 0.9762 0.1131 -0.1853
vn 0.7705 -0.6238 0.1308
vn -0.8961 0.3757 -0.2364
vn -0.7758 0.6043 -0.1814
vn 0.7225 -0.5240 0.4510
vn 0.8315 0.1549 -0.5336
vn -0.5303 -0.2897 0.7968
vn 0.0752 0.2547 0.9641
vn -0.1894 -0.1703 0.9670
vn 0.1326 -0.2156 0.9674
vn 0.3124 -0.2242 0.9231
vn 0.2350 -0.5312 0.8140
vn 0.1885 0.1667 0.9678
vn 0.3532 0.1354 0.9257
vn 0.6082 0.1082 0.7864
vn 0.5704 -0.2489 0.7827
vn 0.3326 0.4421 0.8330
vn 0.5781 0.4206 0.6992
vn 0.4076 0.6499 0.6415
vn 0.6927 -0.2751 0.6667
vn 0.7416 0.1048 0.6626
vn 0.8809 0.0741 0.4675
vn 0.8534 -0.2433 0.4609
vn 0.8224 0.3217 0.4691
vn 0.9402 0.3175 0.1232
vn 0.9830 0.0742 0.1677
vn 0.7488 0.5017 0.4330
vn 0.8634 0.4938 0.1037
vn 0.5728 0.7242 0.3841
vn 0.6710 0.7406 0.0350
vn 0.4304 0.8302 0.3544
vn 0.5237 0.8516 -0.0220
vn 0.8698 0.4352 -0.2324
vn 0.9483 0.1173 -0.2949
vn 0.9865 0.1265 -0.1037
vn 0.9570 -0.2730 -0.0979
vn 0.9169 -0.2603 -0.3027
vn 0.7625 -0.2505 -0.5966
vn 0.7979 0.1303 -0.5886
vn 0.6529 0.1518 -0.7421
vn 0.6240 -0.2522 -0.7396
vn 0.9553 -0.2491 0.1591
vn 0.8639 -0.4932 0.1025
vn 0.7543 -0.4719 0.4566
vn 0.7464 -0.6614 0.0738
vn 0.6509 -0.6347 0.4166
vn 0.4871 -0.5464 0.6813
vn 0.2697 -0.7390 0.6173
vn 0.6834 0.6678 -0.2950
vn 0.7271 0.4587 -0.5108
vn -0.2927 0.6969 0.6547
vn -0.2322 -0.0575 0.9710
vn 0.8844 -0.0451 0.4645
vn -0.9246 0.1993 -0.3247
vn -0.1986 0.8249 -0.5293
vn 0.2633 -0.1163 0.9577
vn 0.2128 -0.1388 -0.9672
vn -0.6272 -0.3037 -0.7172
vn -0.0735 0.2704 -0.9599
vn -0.9466 0.1557 -0.2823
vn 0.1204 -0.6365 0.7618
vn 0.3457 0.0476 -0.9371
vn 0.9077 0.0180 -0.4192
vn 0.1705 -0.3922 -0.9039
vn -0.8610 -0.3402 -0.3781
vn 0.9064 -0.2797 -0.3165
vn 0.0327 -0.1465 -0.9887
vn -0.8554 0.0614 -0.5143
vn 0.9679 0.2094 0.1391
vn 0.3362 0.9303 -0.1469
vn -0.7907 0.6073 -0.0775
s 1
f 4//4 3//3 2//2 1//1
f 2//2 3//3 6//6 5//5
f 5//5 6//6 8//8 7//7
f 8//8 10//10 9//9 7//7
f 13//13 12//12 11//11 9//9
f 10//10 13//13 9//9
f 11//11 12//12 14//14
f 16//16 11//11 14//14 15//15
f 18//18 16//16 15//15 17//17
f 15//15 20//20 19//19 17//17
f 21//21 18//18 17//17
f 23//23 18//18 21//21 22//22
f 24//24 23//23 22//22
f 26//26 23//23 24//24 25//25
f 28//28 27//27 26//26 25//25
f 30//30 29//29 27//27 28//28
f 29//29 32//32 31//31 27//27
f 34//34 32//32 29//29 33//33
f 36//36 30//30 28//28 35//35
f 38//38 37//37 30//30 36//36
f 39//39 38//38 36//36
f 37//37 38//38 40//40 22//22
f 40//40 38//38 42//42 41//41
f 41//41 42//42 44//44 43//43
f 43//43 44//44 46//46 45//45
f 44//44 48//48 47//47 46//46
f 50//50 49//49 43//43 45//45
f 52//52 49//49 50//50 51//51
f 54//54 52//52 51//51 53//53
f 56//56 55//55 52//52 54//54
f 45//45 46//46 58//58 57//57
f 58//58 60//60 59//59 57//57
f 60//60 62//62 61//61 59//59
f 61//61 62//62 64//64 63//63
f 64//64 62//62 66//66 65//65
f 67//67 64//64 65//65
f 69//69 68//68 67//67 65//65
f 68//68 70//70 67//67
f 72//72 69//69 65//65 71//71
f 74//74 69//69 72//72 73//73
f 76//76 75//75 74//74 73//73
f 78//78 77//77 75//75 76//76
f 80//80 77//77 78//78 79//79
f 82//82 81//81 80//80 79//79
f 84//84 81//81 82//82 83//83
f 86//86 85//85 84//84 83//83
f 88//88 85//85 86//86 87//87
f 90//90 88//88 87//87 89//89
f 92//92 91//91 90//90 89//89
f 94//94 91//91 92//92 93//93
f 96//96 95//95 94//94 93//93
f 98//98 95//95 96//96 97//97
f 100//100 99//99 98//98 97//97
f 102//102 99//99 100//100 101//101
f 104//104 102//102 101//101 103//103
f 106//106 105//105 104//104 103//103
f 108//108 105//105 106//106 107//107
f 110//110 109//109 108//108 107//107
f 112//112 109//109 110//110 111//111
f 114//114 112//112 111//111 113//113
f 116//116 114//114 113//113 115//115
f 118//118 116//116 115//115 117//117
f 120//120 118//118 117//117 119//119
f 122//122 120//120 119//119 121//121
f 124//124 122//122 121//121 123//123
f 126//126 124//124 123//123 125//125
f 128//128 127//127 124//124 126//126
f 130//130 128//128 126//126 129//129
f 132//132 130//130 129//129 131//131
f 133//133 132//132 131//131
f 132//132 133//133 135//135 134//134
f 134//134 135//135 137//137 136//136
f 136//136 137//137 139//139 138//138
f 138//138 139//139 141//141 140//140
f 140//140 141//141 143//143 142//142
f 142//142 143//143 144//144
f 147//147 146//146 145//145 144//144
f 143//143 147//147 144//144
f 145//145 146//146 148//148
f 146//146 149//149 148//148
f 150//150 145//145 148//148
f 146//146 147//147 151//151 149//149
f 151//151 152//152 150//150 149//149
f 150//150 152//152 153//153 144//144
f 145//145 150//150 144//144
f 153//153 154//154 140//140 142//142
f 137//137 156//156 155//155 139//139
f 155//155 156//156 158//158 157//157
f 158//158 160//160 159//159 157//157
f 159//159 160//160 162//162 161//161
f 162//162 163//163 134//134 136//136
f 164//164 133//133 131//131
f 166//166 164//164 131//131 165//165
f 168//168 164//164 166//166 167//167
f 169//169 168//168 167//167
f 169//169 167//167 170//170
f 173//173 172//172 171//171 170//170
f 167//167 173//173 170//170
f 175//175 171//171 172//172 174//174
f 177//177 171//171 175//175 176//176
f 179//179 178//178 177//177 176//176
f 178//178 181//181 180//180 177//177
f 183//183 181//181 178//178 182//182
f 185//185 183//183 182//182 184//184
f 187//187 186//186 183//183 185//185
f 189//189 188//188 186//186 187//187
f 191//191 190//190 188//188 189//189
f 193//193 192//192 190//190 191//191
f 195//195 194//194 192//192 193//193
f 197//197 196//196 194//194 195//195
f 199//199 198//198 196//196 197//197
f 205//205 207//207 206//206 204//204
f 209//209 207//207 205//205 208//208
f 210//210 209//209 208//208
f 210//210 212//212 211//211 209//209
f 212//212 214//214 213//213 211//211
f 71//71 213//213 214//214 215//215
f 216//216 71//71 215//215
f 215//215 214//214 218//218 217//217
f 220//220 219//219 215//215 217//217
f 222//222 219//219 220//220 221//221
f 224//224 223//223 219//219 222//222
f 225//225 224//224 222//222
f 227//227 226//226 224//224 225//225
f 229//229 226//226 227//227 228//228
f 230//230 229//229 228//228
f 232//232 229//229 230//230 231//231
f 233//233 229//229 232//232
f 231//231 230//230 235//235 234//234
f 234//234 235//235 237//237 236//236
f 239//239 237//237 235//235 238//238
f 240//240 239//239 238//238
f 242//242 239//239 240//240 241//241
f 244//244 239//239 242//242 243//243
f 243//243 242//242 246//246 245//245
f 248//248 247//247 244//244 243//243
f 240//240 250//250 249//249 241//241
f 241//241 249//249 221//221
f 250//250 252//252 251//251 249//249
f 228//228 252//252 250//250 238//238
f 250//250 240//240 238//238
f 237//237 253//253 236//236
f 255//255 254//254 231//231 234//234
f 226//226 229//229 233//233 256//256
f 235//235 230//230 228//228 238//238
f 224//224 226//226 256//256 257//257
f 256//256 259//259 258//258 257//257
f 251//251 252//252 227//227 225//225
f 223//223 224//224 257//257 260//260
f 223//223 260//260 216//216
f 251//251 225//225 222//222
f 246//246 242//242 241//241 221//221
f 220//220 246//246 221//221
f 249//249 251//251 222//222 221//221
f 246//246 220//220 217//217 261//261
f 218//218 214//214 212//212 262//262
f 213//213 66//66 263//263 211//211
f 212//212 210//210 264//264 202//202
f 262//262 212//212 202//202
f 211//211 263//263 265//265 209//209
f 209//209 265//265 266//266 207//207
f 265//265 268//268 267//267 266//266
f 266//266 267//267 270//270 269//269
f 273//273 272//272 271//271 270//270
f 267//267 273//273 270//270
f 274//274 271//271 272//272 53//53
f 276//276 271//271 274//274 275//275
f 278//278 276//276 275//275 277//277
f 280//280 278//278 277//277 279//279
f 282//282 280//280 279//279 281//281
f 284//284 282//282 281//281 283//283
f 286//286 284//284 283//283 285//285
f 288//288 284//284 286//286 287//287
f 290//290 288//288 287//287 289//289
f 292//292 291//291 288//288 290//290
f 294//294 293//293 291//291 292//292
f 296//296 295//295 293//293 294//294
f 298//298 296//296 294//294 297//297
f 300//300 298//298 297//297 299//299
f 302//302 301//301 298//298 300//300
f 304//304 303//303 302//302 300//300
f 299//299 297//297 306//306 305//305
f 305//305 306//306 308//308 307//307
f 310//310 309//309 305//305 307//307
f 311//311 304//304 300//300 299//299
f 297//297 294//294 292//292 306//306
f 306//306 292//292 290//290 308//308
f 308//308 290//290 289//289 312//312
f 291//291 282//282 284//284 288//288
f 293//293 280//280 282//282 291//291
f 313//313 276//276 278//278 295//295
f 277//277 275//275 315//315 314//314
f 268//268 47//47 273//273 267//267
f 204//204 206//206 301//301 302//302
f 207//207 266//266 269//269 206//206
f 198//198 203//203 303//303 196//196
f 196//196 303//303 304//304 194//194
f 194//194 304//304 311//311 192//192
f 192//192 311//311 309//309 190//190
f 190//190 309//309 310//310 188//188
f 173//173 316//316 187//187 185//185
f 184//184 182//182 318//318 317//317
f 317//317 318//318 320//320 319//319
f 319//319 320//320 322//322 321//321
f 321//321 322//322 323//323
f 323//323 322//322 325//325 324//324
f 327//327 326//326 323//323 324//324
f 326//326 327//327 328//328
f 327//327 329//329 328//328
f 330//330 326//326 328//328
f 331//331 329//329 327//327 324//324
f 332//332 331//331 324//324
f 331//331 333//333 330//330 329//329
f 330//330 333//333 334//334 323//323
f 326//326 330//330 323//323
f 325//325 335//335 324//324
f 335//335 325//325 336//336
f 332//332 335//335 336//336
f 334//334 337//337 319//319 321//321
f 182//182 178//178 179//179 318//318
f 338//338 170//170 171//171 177//177
f 180//180 338//338 177//177
f 289//289 168//168 169//169 338//338
f 312//312 289//289 338//338
f 131//131 129//129 339//339 165//165
f 283//283 281//281 128//128 130//130
f 281//281 279//279 127//127 128//128
f 125//125 123//123 193//193 191//191
f 314//314 315//315 120//120 122//122
f 121//121 119//119 197//197 195//195
f 341//341 340//340 114//114 116//116
f 115//115 113//113 201//201 200//200
f 113//113 111//111 262//262 202//202
f 110//110 218//218 262//262 111//111
f 218//218 110//110 107//107 261//261
f 217//217 218//218 261//261
f 107//107 106//106 245//245 261//261
f 344//344 343//343 342//342 104//104
f 105//105 344//344 104//104
f 346//346 345//345 342//342 343//343
f 348//348 347//347 346//346 343//343
f 347//347 350//350 349//349 346//346
f 349//349 350//350 351//351
f 353//353 347//347 348//348 352//352
f 355//355 354//354 353//353 352//352
f 353//353 354//354 356//356
f 354//354 358//358 357//357 356//356
f 357//357 360//360 359//359 356//356
f 359//359 360//360 362//362 361//361
f 362//362 364//364 363//363 361//361
f 366//366 365//365 360//360 357//357
f 367//367 366//366 357//357
f 369//369 366//366 367//367 368//368
f 371//371 366//366 369//369 370//370
f 373//373 372//372 371//371 370//370
f 367//367 358//358 374//374 368//368
f 368//368 374//374 375//375
f 375//375 374//374 355//355 376//376
f 378//378 377//377 375//375 376//376
f 355//355 352//352 376//376
f 374//374 358//358 354//354 355//355
f 379//379 348//348 343//343 344//344
f 379//379 344//344 380//380
f 63//63 378//378 379//379 380//380
f 103//103 248//248 243//243 245//245
f 106//106 103//103 245//245
f 342//342 102//102 104//104
f 101//101 248//248 103//103
f 342//342 345//345 99//99 102//102
f 100//100 247//247 248//248 101//101
f 247//247 100//100 97//97
f 346//346 349//349 95//95 98//98
f 345//345 346//346 98//98
f 97//97 96//96 253//253 244//244
f 247//247 97//97 244//244
f 95//95 349//349 351//351 94//94
f 253//253 96//96 93//93 236//236
f 91//91 363//363 90//90
f 255//255 92//92 89//89
f 363//363 364//364 88//88 90//90
f 87//87 254//254 255//255 89//89
f 86//86 254//254 87//87
f 364//364 362//362 381//381 84//84
f 85//85 364//364 84//84
f 382//382 371//371 372//372 80//80
f 81//81 382//382 80//80
f 78//78 259//259 79//79
f 77//77 372//372 373//373 75//75
f 258//258 259//259 78//78 76//76
f 75//75 373//373 74//74
f 258//258 76//76 73//73
f 260//260 72//72 71//71 216//216
f 67//67 70//70 377//377 64//64
f 65//65 66//66 213//213 71//71
f 61//61 63//63 380//380 108//108
f 109//109 61//61 108//108
f 64//64 377//377 378//378 63//63
f 66//66 62//62 60//60 263//263
f 59//59 61//61 109//109 112//112
f 60//60 58//58 268//268 265//265
f 263//263 60//60 265//265
f 57//57 59//59 112//112 114//114
f 340//340 57//57 114//114
f 35//35 28//28 25//25 56//56
f 25//25 24//24 55//55 56//56
f 19//19 33//33 37//37 22//22
f 21//21 19//19 22//22
f 10//10 383//383 13//13
f 383//383 10//10 8//8
f 6//6 384//384 383//383 8//8
f 3//3 384//384 6//6
f 32//32 2//2 5//5 31//31
f 12//12 13//13 4//4 1//1
f 385//385 12//12 1//1
f 384//384 3//3 4//4
f 12//12 385//385 14//14
f 383//383 384//384 4//4 13//13
f 20//20 385//385 1//1 34//34
f 1//1 2//2 32//32 34//34
f 14//14 385//385 20//20 15//15
f 31//31 5//5 7//7 386//386
f 9//9 11//11 16//16 387//387
f 7//7 9//9 387//387 386//386
f 19//19 20//20 34//34 33//33
f 33//33 29//29 30//30 37//37
f 19//19 21//21 17//17
f 27//27 31//31 386//386 26//26
f 387//387 16//16 18//18 23//23
f 386//386 387//387 23//23 26//26
f 38//38 39//39 42//42
f 388//388 40//40 41//41
f 22//22 40//40 388//388 55//55
f 24//24 22//22 55//55
f 48//48 39//39 36//36 389//389
f 42//42 39//39 48//48 44//44
f 389//389 36//36 35//35 390//390
f 49//49 388//388 41//41 43//43
f 55//55 388//388 49//49 52//52
f 390//390 35//35 56//56 54//54
f 47//47 48//48 389//389 273//273
f 46//46 47//47 268//268 58//58
f 273//273 389//389 390//390 272//272
f 340//340 50//50 45//45 57//57
f 51//51 50//50 340//340 341//341
f 272//272 390//390 54//54 53//53
f 365//365 382//382 381//381
f 382//382 365//365 366//366 371//371
f 370//370 369//369 70//70 68//68
f 360//360 365//365 381//381 362//362
f 358//358 367//367 357//357
f 70//70 369//369 368//368 375//375
f 377//377 70//70 375//375
f 350//350 359//359 361//361 351//351
f 350//350 347//347 353//353 356//356
f 359//359 350//350 356//356
f 348//348 379//379 378//378 376//376
f 352//352 348//348 376//376
f 381//381 382//382 81//81 84//84
f 372//372 77//77 80//80
f 370//370 68//68 69//69 74//74
f 373//373 370//370 74//74
f 364//364 85//85 88//88
f 361//361 363//363 91//91 94//94
f 351//351 361//361 94//94
f 99//99 345//345 98//98
f 380//380 344//344 105//105 108//108
f 83//83 82//82 233//233 232//232
f 82//82 79//79 259//259 256//256
f 233//233 82//82 256//256
f 258//258 73//73 72//72 260//260
f 257//257 258//258 260//260
f 86//86 83//83 232//232 231//231
f 254//254 86//86 231//231
f 227//227 252//252 228//228
f 219//219 223//223 216//216 215//215
f 92//92 255//255 234//234 236//236
f 93//93 92//92 236//236
f 253//253 237//237 239//239 244//244
f 245//245 246//246 261//261
f 338//338 169//169 170//170
f 129//129 126//126 125//125 339//339
f 316//316 166//166 165//165
f 166//166 316//316 173//173 167//167
f 307//307 308//308 312//312 391//391
f 391//391 312//312 338//338 180//180
f 339//339 125//125 191//191 189//189
f 165//165 339//339 189//189 187//187
f 316//316 165//165 187//187
f 172//172 173//173 185//185 184//184
f 392//392 310//310 307//307 391//391
f 181//181 392//392 391//391 180//180
f 188//188 310//310 392//392 186//186
f 186//186 392//392 181//181 183//183
f 270//270 271//271 276//276 313//313
f 295//295 278//278 280//280 293//293
f 53//53 51//51 341//341 393//393
f 274//274 53//53 393//393
f 275//275 274//274 393//393 315//315
f 279//279 277//277 314//314 127//127
f 269//269 270//270 313//313 394//394
f 394//394 313//313 295//295 296//296
f 393//393 341//341 116//116 118//118
f 315//315 393//393 118//118 120//120
f 127//127 314//314 122//122 124//124
f 206//206 269//269 394//394 301//301
f 301//301 394//394 296//296 298//298
f 303//303 203//203 204//204 302//302
f 309//309 311//311 299//299 305//305
f 117//117 115//115 200//200 199//199
f 119//119 117//117 199//199 197//197
f 123//123 121//121 195//195 193//193
f 395//395 286//286 285//285 163//163
f 160//160 395//395 163//163 162//162
f 287//287 286//286 395//395 396//396
f 396//396 395//395 160//160 158//158
f 285//285 283//283 130//130 132//132
f 163//163 285//285 132//132 134//134
f 287//287 396//396 397//397 168//168
f 289//289 287//287 168//168
f 156//156 397//397 396//396 158//158
f 135//135 133//133 164//164 168//168
f 397//397 135//135 168//168
f 135//135 397//397 156//156 137//137
f 398//398 159//159 161//161 154//154
f 152//152 398//398 154//154 153//153
f 157//157 159//159 398//398 399//399
f 399//399 398//398 152//152 151//151
f 149//149 150//150 148//148
f 161//161 162//162 136//136 138//138
f 154//154 161//161 138//138 140//140
f 153//153 142//142 144//144
f 400//400 155//155 157//157 399//399
f 147//147 400//400 399//399 151//151
f 139//139 155//155 400//400 141//141
f 141//141 400//400 147//147 143//143
f 401//401 175//175 174//174 337//337
f 333//333 401//401 337//337 334//334
f 176//176 175//175 401//401 402//402
f 402//402 401//401 333//333 331//331
f 329//329 330//330 328//328
f 174//174 172//172 184//184 317//317
f 337//337 174//174 317//317 319//319
f 334//334 321//321 323//323
f 402//402 331//331 332//332 336//336
f 403//403 402//402 336//336
f 403//403 179//179 176//176 402//402
f 335//335 332//332 324//324
f 318//318 179//179 403//403 320//320
f 322//322 320//320 403//403 336//336
f 325//325 322//322 336//336
f 264//264 201//201 113//113 202//202
f 199//199 200//200 201//201 264//264 210//210 208//208 205//205 204//204 203//203 198//198
