# Blender 5.0.0
# www.blender.org
mtllib Walk_Forward0031.mtl
o Mball.010
v 1.752769 3.426390 1.004750
v 1.488309 3.107814 0.986840
v 1.441537 3.137062 1.335299
v 1.695130 3.427070 1.352720
v 1.228511 3.186153 0.962988
v 1.207678 3.203700 1.313891
v 1.037567 3.647308 0.939002
v 1.014848 3.663991 1.289755
v 1.180574 3.955197 0.946518
v 1.147938 3.945519 1.296829
v 1.575253 3.929777 0.981257
v 1.547831 3.907694 1.325297
v 1.545897 3.907339 1.332058
v 1.603408 3.906600 0.984077
v 1.642837 3.897575 0.634655
v 1.614681 3.920752 0.631835
v 1.681949 3.888405 0.285208
v 1.654320 3.911147 0.282441
v 1.832487 3.420545 0.305786
v 1.793302 3.428902 0.655239
v 1.691139 3.849848 0.159785
v 1.670648 3.796152 -0.040670
v 1.259550 3.936818 0.247691
v 1.346067 3.784314 -0.068308
v 1.235833 3.604329 -0.089076
v 1.116716 3.629392 0.240183
v 1.307693 3.168252 0.264171
v 1.405963 3.216982 -0.109008
v 1.567038 3.090116 0.287980
v 1.572266 3.195025 -0.100732
v 1.267940 3.177128 0.613566
v 1.527738 3.098788 0.637418
v 1.831306 3.408193 0.305881
v 1.792198 3.417365 0.655328
v 1.085863 3.644346 -0.289000
v 1.332882 3.846159 -0.389855
v 1.796956 3.424038 -0.084696
v 1.743267 3.769875 -0.206819
v 1.622795 4.028637 -0.234334
v 1.698503 3.778434 0.013049
v 1.645406 3.925597 0.157684
v 1.667567 4.040322 -0.165139
v 1.411749 4.294254 0.343259
v 1.418902 4.478117 -0.029572
v 1.169553 4.719263 0.469916
v 1.183810 4.897472 0.095908
v 1.139863 4.889870 0.008758
v 1.370767 4.477465 -0.108699
v 1.361109 4.226129 0.399895
v 1.120694 4.639590 0.530421
v 0.858782 4.353951 0.559934
v 1.056007 3.968032 0.438815
v 0.675836 4.262008 0.325200
v 0.824450 3.899858 0.211335
v 1.278535 3.658721 0.225381
v 1.055693 3.555234 0.024918
v 0.631329 5.122685 0.554871
v 0.682067 5.268063 0.175054
v 0.416971 5.458522 0.597385
v 0.468673 5.557944 0.207941
v 0.556939 5.846978 0.665674
v 0.608651 5.938639 0.274807
v 0.610841 5.879973 0.675054
v 0.662524 5.970774 0.284099
v 0.317351 6.086927 -0.144336
v 0.307226 6.032732 -0.082009
v 0.719969 6.245177 -0.080739
v 0.747837 6.457655 -0.227485
v 0.374517 6.522789 -0.445360
v 0.899770 6.407704 -0.039228
v -0.079853 6.110396 -0.181445
v -0.022687 6.546257 -0.482469
v -0.015578 6.623693 -0.510803
v 0.381626 6.600224 -0.473694
v 0.406163 6.950662 -0.538925
v 0.008958 6.974130 -0.576034
v 0.417874 7.343761 -0.481626
v 0.020670 7.367229 -0.518735
v 0.015469 7.665792 -0.358905
v 0.412674 7.642323 -0.321796
v 0.409653 7.702087 -0.273464
v 0.012448 7.725555 -0.310573
v -0.023591 7.998823 0.093815
v 0.373614 7.975355 0.130924
v 0.365745 7.998160 0.204781
v -0.031459 8.021629 0.167672
v -0.070740 8.060349 0.506960
v 0.326464 8.036880 0.544069
v -0.122408 7.970216 0.897999
v 0.274797 7.946747 0.935108
v 0.228775 7.759220 1.241418
v -0.168429 7.782689 1.204309
v -0.178594 7.728424 1.266933
v 0.218611 7.704956 1.304042
v 0.161444 7.269094 1.605066
v -0.235760 7.292562 1.567957
v -0.242869 7.215127 1.596290
v 0.154336 7.191658 1.633400
v 0.129799 6.841221 1.698631
v -0.267405 6.864690 1.661522
v -0.279117 6.471590 1.604223
v 0.118087 6.448122 1.641332
v -0.273916 6.173029 1.444393
v 0.123288 6.149560 1.481502
v 0.126309 6.089796 1.433169
v -0.270895 6.113264 1.396060
v -0.234856 5.839997 0.991673
v 0.162348 5.816529 1.028782
v 0.170177 5.793654 0.955221
v -0.227006 5.817089 0.917938
v -0.210149 5.468326 0.643507
v 0.184071 5.441735 0.699286
v -0.236442 5.000997 0.675465
v 0.164458 4.978404 0.727232
v -0.232935 4.607130 0.620346
v 0.154607 4.571836 0.674028
v -0.210314 4.275902 0.508120
v 0.157396 4.238558 0.555772
v -0.177221 3.961597 0.475182
v 0.173906 4.019406 0.490276
v -0.151221 3.581495 0.482471
v 0.158254 3.662529 0.523674
v -0.131359 3.183723 0.477048
v 0.135721 3.270733 0.557857
v -0.111885 2.783170 0.417487
v 0.110958 2.865277 0.513706
v 0.515813 3.218120 0.426549
v 0.482827 2.815979 0.434829
v 0.088214 2.453173 0.438185
v 0.441173 2.434080 0.539966
v 0.069834 2.139321 0.376887
v 0.404301 2.050421 0.597366
v 0.077653 2.033703 0.398639
v 0.416250 1.657612 0.650213
v 0.105307 1.612082 0.472268
v 0.429955 1.262610 0.698355
v 0.166623 1.216363 0.525467
v 0.446235 0.858399 0.737572
v 0.189377 0.825550 0.579973
v 0.432089 0.409300 0.581016
v 0.186306 0.470907 0.512504
v 0.398362 0.038093 0.467460
v 0.128972 0.103636 0.392870
v 0.369298 -0.246206 0.290880
v 0.364840 -0.272921 0.226425
v 0.247122 -0.107626 -0.095472
v 0.089651 0.273988 0.027817
v 0.363501 -0.139968 -0.104784
v 0.365400 -0.108038 -0.122774
v 0.442010 -0.126992 -0.100893
v 0.406350 0.310564 -0.133377
v 0.690585 0.220647 0.008701
v 0.602425 0.056588 0.379700
v 0.672785 0.428123 0.497518
v 0.177120 0.798817 0.189918
v 0.151602 1.146798 0.135362
v 0.518932 0.815440 -0.005583
v 0.522853 1.136184 -0.060024
v 0.864735 0.867555 0.229372
v 0.846204 1.192790 0.201167
v 0.779912 0.826895 0.611973
v 0.759958 1.247054 0.584180
v 0.703315 1.644300 0.523903
v 0.069135 2.029021 0.347405
v -0.072825 2.009766 0.171075
v -0.071462 1.981314 0.161478
v -0.040429 1.569111 0.058104
v 0.108706 1.747657 -0.013446
v -0.075046 1.598229 -0.241480
v -0.063572 1.515467 -0.262836
v -0.100538 1.198973 -0.296680
v -0.147375 1.151964 0.104323
v -0.073128 1.556155 0.128711
v -0.323284 0.738086 0.086332
v -0.223066 0.819191 -0.290618
v -0.419072 0.846256 -0.403526
v -0.448893 1.202687 -0.475600
v -0.722665 1.166349 -0.270208
v -0.734307 0.802882 -0.276608
v -0.467021 1.602915 -0.489766
v -0.765296 1.562147 -0.240824
v -0.627395 1.126793 0.124749
v -0.685353 1.522657 0.154091
v -0.407800 1.127444 0.212704
v -0.420086 1.520182 0.289612
v -0.673621 1.921386 0.182008
v -0.433352 1.920510 0.317764
v -0.669998 2.318321 0.203944
v -0.451389 2.327183 0.341589
v -0.678266 2.717957 0.216686
v -0.483605 2.731337 0.366318
v -0.603606 3.127273 0.223018
v -0.519172 3.135327 0.305645
v -0.583362 3.534312 0.231128
v -0.550349 3.536917 0.269813
v -0.554174 3.982733 0.181795
v -0.523049 3.979605 0.220969
v -0.513067 4.379572 0.159495
v -0.471317 4.381222 0.215881
v -0.537412 4.600046 0.431624
v -0.625333 5.037944 0.474244
v -0.622025 5.120015 0.443287
v -0.561535 4.568295 -0.170875
v -0.533002 4.577074 -0.200829
v -0.591577 5.006925 -0.115025
v -0.155510 4.593898 -0.381768
v -0.151472 5.005580 -0.264589
v -0.594081 5.231374 0.061087
v -0.132802 5.310861 -0.130642
v -0.578409 5.242004 0.063832
v -0.130905 5.616995 0.045135
v -0.304041 5.601324 0.135439
v -0.090006 6.056151 -0.118910
v -0.468793 6.001825 0.173984
v -0.528824 6.043151 0.172970
v -0.471644 6.315582 -0.192067
v -0.580484 5.952517 0.563885
v -0.520456 5.910336 0.564802
v -0.876428 6.419463 0.190696
v -0.928096 6.329330 0.581735
v -0.964990 6.400231 0.588096
v -0.913322 6.490364 0.197057
v -0.641145 6.498747 -0.183189
v -0.813049 6.902696 -0.143045
v -0.861003 6.889267 -0.078442
v -0.801337 7.295795 -0.085746
v -0.849291 7.282367 -0.021143
v -0.882275 7.532462 0.348955
v -0.606010 7.678046 -0.011293
v -0.841293 7.598762 0.362592
v -0.472463 7.932158 0.447745
v -0.426209 7.840573 0.030219
v -0.408640 7.707358 -0.166916
v -0.524130 7.842026 0.838784
v -0.892961 7.508629 0.753631
v -0.581212 7.570174 1.203336
v -0.761013 7.407647 1.161825
v -0.933942 7.442329 0.739994
v -0.956340 7.025396 1.087372
v -0.986261 7.043426 1.015493
v -0.997973 6.650327 0.958195
v -0.968052 6.632297 1.030073
v -0.656388 6.529832 1.416250
v -0.644676 6.922932 1.473549
v -0.644215 6.178398 1.178186
v -0.796148 6.228349 0.989928
v -0.580425 6.910000 1.518358
v -0.592136 6.516901 1.461059
v -1.069627 6.731483 0.624717
v -1.057915 7.124583 0.682016
v -1.017959 6.821617 0.233678
v -1.006247 7.214716 0.290976
v -0.609080 7.357697 1.350082
v -0.401998 7.966598 0.459838
v -0.453666 7.876465 0.850877
v -0.396468 7.355925 -0.404980
v -0.408180 6.962825 -0.462279
v -0.333798 6.967565 -0.494137
v -0.322087 7.360664 -0.436838
v -0.443776 6.528060 -0.338812
v -0.626646 6.045183 0.981051
v -0.355651 5.502556 0.524889
v 0.268288 5.598647 0.063153
v -0.593560 5.237419 0.071143
v 0.277747 5.292097 -0.113541
v 0.279178 4.939717 -0.257137
v 0.664994 4.896962 -0.080624
v 0.683026 5.216947 0.100634
v 0.263344 4.533631 -0.371414
v 0.613391 4.489503 -0.165412
v 0.693272 4.461799 -0.040850
v 0.693683 4.432407 -0.047831
v 0.883717 4.705701 -0.166308
v 0.650688 4.336732 0.335494
v 0.645056 3.980844 0.246256
v 0.677627 3.975631 -0.143070
v 0.654692 3.581042 0.277930
v 0.682867 3.516444 -0.121089
v 0.618084 3.187866 0.324017
v 0.645074 3.114424 -0.071555
v 0.565573 2.795267 0.366713
v 0.613696 2.719667 -0.027015
v 0.629642 2.396258 0.417127
v 0.690991 2.321281 0.024631
v 0.651277 2.032064 0.470326
v 0.730834 1.953365 0.079355
v 0.489897 1.903872 -0.164197
v 0.498648 2.305032 -0.190884
v 0.114410 1.968972 -0.083307
v 0.126741 2.356384 -0.208311
v 0.524901 2.713810 -0.144313
v 0.152695 2.746937 -0.307281
v 0.557337 3.108943 -0.197501
v 0.176444 3.132860 -0.416689
v 0.590144 3.516828 -0.249853
v 0.203550 3.559753 -0.462268
v -0.196371 3.192397 -0.470324
v -0.209727 3.604932 -0.474508
v -0.573444 3.160336 -0.288712
v -0.592202 3.558516 -0.211191
v -0.212358 4.043554 -0.463931
v -0.571071 4.051530 -0.231634
v -0.596566 4.043874 -0.193241
v -0.619800 3.552253 -0.167628
v -0.555448 2.766892 -0.395527
v -0.176809 2.794566 -0.444927
v -0.524010 2.372728 -0.420076
v -0.147364 2.397561 -0.368270
v -0.745237 2.736155 -0.179209
v -0.748184 2.339067 -0.191391
v -0.656341 3.144958 -0.174178
v -0.115444 1.997033 -0.279359
v 0.600830 3.986395 -0.266280
v 0.548526 3.611775 0.383768
v 0.551482 3.991152 0.351546
v -0.074451 1.979576 0.168538
v -0.397105 0.731317 0.122950
v -0.636114 0.720714 0.097505
v -0.399949 0.293310 -0.084307
v -0.740276 0.371181 -0.155296
v -0.372416 0.056369 -0.351492
v -0.735202 0.137161 -0.430730
v -0.341402 -0.076808 -0.595108
v -0.694282 0.399019 -0.822488
v -0.757514 0.166882 -0.450245
v -0.329261 -0.060564 -0.673581
v -0.573631 0.300287 -0.908212
v -0.284917 0.270762 -0.892990
v -0.283110 0.318111 -0.893571
v -0.248413 0.285563 -0.871310
v -0.299133 0.662481 -0.708872
v -0.709409 0.562500 -0.680465
v -0.131253 0.509026 -0.599633
v -0.264606 0.115853 -0.377333
v -0.731374 0.540391 -0.669020
v -0.746434 0.708869 -0.422767
v -0.274182 0.354133 -0.110499
v -0.076661 1.599853 -0.259406
v -0.091483 2.382472 0.298884
v 0.624814 5.020860 0.590644
v 0.585149 4.621276 0.589096
v 0.460844 6.454687 1.559434
v 0.535225 6.459427 1.527577
v 0.547398 6.107993 1.289513
v 0.472556 6.847786 1.616733
v 0.546937 6.852527 1.584876
v 0.951806 6.912656 1.265641
v 0.940095 6.519557 1.208343
v 0.582533 7.287292 1.461409
v 0.779903 7.316604 1.305786
v 0.610401 7.499769 1.314663
v 0.988049 6.532985 1.143740
v 0.999761 6.926085 1.201039
v 1.156717 6.993735 0.888919
v 1.145005 6.600636 0.831620
v 1.052080 7.324987 0.925540
v 1.103747 7.415121 0.534500
v 1.208384 7.083868 0.497880
v 1.015186 7.395888 0.931901
v 1.066853 7.486021 0.540862
v 0.667483 7.771621 0.950112
v 0.719150 7.861753 0.559072
v 0.599315 7.814251 0.949253
v 0.650982 7.904384 0.558213
v 0.934905 7.587003 0.132668
v 1.106809 7.183055 0.092524
v 1.136730 7.165025 0.164402
v 1.125018 6.771926 0.107103
v 1.095097 6.789955 0.035225
v 0.783433 6.892420 -0.350952
v 0.795145 7.285520 -0.293653
v 0.730894 7.298450 -0.338462
v 0.719182 6.905352 -0.395761
v 1.196672 6.690768 0.440581
v 1.072699 6.373022 0.382603
v 1.021032 6.282889 0.773641
v 1.031718 6.306723 0.368966
v 0.980050 6.216590 0.760005
v 0.744767 6.137306 1.133889
v 0.564966 5.974779 1.092378
v 0.765404 7.770168 0.141546
v 0.782972 7.636953 -0.055589
v 1.185213 3.763628 1.584002
v 1.359736 3.292404 1.573584
v 1.753873 3.437927 1.004661
v 1.076995 3.638283 0.589581
v 1.220002 3.946172 0.597096
v 1.589440 3.874446 0.214924
v 1.068783 4.324867 -0.282611
v 0.831122 4.083079 -0.159813
v -0.485597 1.993548 -0.451867
v -0.748520 1.957364 -0.213361
v 0.547264 4.301412 0.434227
v 0.239576 4.091063 -0.463251
v 0.786841 1.567395 0.133593
v 0.503825 1.505731 -0.119340
v 0.104982 1.544441 0.051618
v 0.768704 0.567443 0.133424
v 0.453516 0.636667 -0.021625
v 0.152985 0.603040 0.145609
v -0.145908 0.698342 -0.349798
v -0.339637 0.837188 -0.472904
v -0.748195 0.721386 -0.404090
vn 0.9244 -0.3262 0.1978
vn 0.2814 -0.9562 0.0808
vn 0.2447 -0.9109 0.3322
vn 0.8560 -0.1504 0.4946
vn -0.6702 -0.7416 -0.0290
vn -0.6726 -0.6913 0.2643
vn -0.9960 0.0174 -0.0873
vn -0.9773 0.0050 0.2118
vn -0.5025 0.8633 -0.0469
vn -0.4906 0.8401 0.2316
vn 0.3574 0.9325 0.0521
vn 0.6205 0.7719 0.1379
vn 0.5358 0.7109 0.4555
vn 0.8198 0.5631 0.1046
vn 0.8223 0.5638 0.0778
vn 0.3664 0.9303 0.0167
vn 0.8185 0.5742 -0.0199
vn 0.3589 0.9243 -0.1297
vn 0.9779 0.2088 0.0111
vn 0.9881 0.1094 0.1083
vn 0.6785 0.6948 -0.2386
vn 0.9873 0.1521 -0.0462
vn -0.4654 0.8485 -0.2520
vn -0.3019 -0.0635 -0.9512
vn -0.6518 -0.7476 -0.1271
vn -0.9708 0.0338 -0.2374
vn -0.6436 -0.7470 -0.1667
vn -0.4127 -0.7128 -0.5671
vn 0.3010 -0.9511 -0.0694
vn 0.2892 -0.7593 -0.5829
vn -0.6672 -0.7427 -0.0566
vn 0.2845 -0.9570 0.0564
vn 0.9550 -0.2965 0.0026
vn 0.9167 -0.3833 0.1129
vn -0.5854 -0.4857 -0.6492
vn 0.0529 -0.0227 -0.9983
vn 0.8519 -0.2448 -0.4629
vn 0.8728 0.0327 -0.4870
vn 0.5587 0.3492 -0.7522
vn 0.9044 -0.2309 0.3588
vn 0.8818 0.1156 0.4572
vn 0.8922 0.4135 -0.1815
vn 0.8090 0.2784 0.5176
vn 0.8485 0.5151 -0.1212
vn 0.6796 0.4474 0.5813
vn 0.7369 0.6743 -0.0477
vn 0.4634 0.6016 -0.6507
vn 0.5247 0.4873 -0.6981
vn 0.4952 -0.0708 0.8659
vn 0.3875 0.0987 0.9166
vn -0.0708 -0.3220 0.9441
vn -0.1088 -0.4532 0.8847
vn -0.8568 -0.4778 0.1938
vn -0.7825 -0.5567 0.2787
vn 0.2043 -0.8077 0.5531
vn -0.4684 -0.8562 0.2178
vn 0.5487 0.4555 0.7010
vn 0.6928 0.7051 -0.1510
vn 0.7505 -0.0533 0.6587
vn 0.9049 0.1539 -0.3969
vn 0.6317 -0.7365 0.2421
vn 0.6904 -0.6076 -0.3927
vn 0.5472 -0.8337 0.0745
vn 0.5816 -0.7580 -0.2954
vn 0.2126 -0.6805 -0.7013
vn 0.3129 -0.5746 -0.7562
vn 0.5083 -0.6397 -0.5765
vn 0.5415 -0.4045 -0.7370
vn 0.2357 -0.4425 -0.8652
vn 0.7317 -0.4484 -0.5133
vn -0.1519 -0.6585 -0.7371
vn -0.1166 -0.4246 -0.8978
vn -0.1071 -0.2539 -0.9613
vn 0.2591 -0.2720 -0.9267
vn 0.2531 -0.0276 -0.9670
vn -0.0682 -0.0121 -0.9976
vn 0.2709 0.2977 -0.9154
vn -0.0576 0.3115 -0.9485
vn -0.1022 0.5631 -0.8201
vn 0.3000 0.5408 -0.7859
vn 0.2860 0.7098 -0.6438
vn -0.0890 0.7167 -0.6917
vn -0.0966 0.9058 -0.4126
vn 0.2830 0.8830 -0.3744
vn 0.2843 0.9407 -0.1849
vn -0.1184 0.9700 -0.2123
vn -0.1100 0.9930 0.0439
vn 0.2127 0.9736 0.0823
vn -0.1401 0.9246 0.3543
vn 0.1757 0.9039 0.3900
vn 0.1867 0.7686 0.6118
vn -0.1887 0.8021 0.5666
vn -0.1985 0.6782 0.7076
vn 0.1509 0.6607 0.7353
vn 0.1175 0.4222 0.8989
vn -0.2357 0.4425 0.8652
vn -0.2591 0.2720 0.9267
vn 0.1091 0.2516 0.9617
vn 0.0682 0.0121 0.9976
vn -0.2531 0.0276 0.9670
vn -0.2709 -0.2977 0.9154
vn 0.0576 -0.3115 0.9485
vn -0.3000 -0.5408 0.7859
vn 0.0816 -0.5561 0.8271
vn 0.0759 -0.7249 0.6846
vn -0.2860 -0.7098 0.6438
vn -0.2747 -0.8861 0.3734
vn 0.1006 -0.9002 0.4236
vn 0.1846 -0.8127 0.5526
vn -0.3775 -0.8056 0.4566
vn -0.4331 -0.2224 0.8735
vn 0.1840 -0.2417 0.9528
vn -0.3390 -0.0199 0.9406
vn 0.0771 -0.0143 0.9969
vn -0.3623 -0.2747 0.8907
vn 0.0557 -0.2436 0.9683
vn -0.4209 -0.2585 0.8695
vn 0.0895 -0.2906 0.9527
vn -0.3594 -0.0187 0.9330
vn 0.1389 -0.0907 0.9861
vn -0.3294 0.0391 0.9434
vn 0.1033 0.0609 0.9928
vn -0.3162 -0.0307 0.9482
vn 0.0278 -0.0089 0.9996
vn -0.2685 -0.1348 0.9538
vn -0.1159 -0.0864 0.9895
vn 0.5075 -0.0003 0.8616
vn 0.4055 0.0344 0.9135
vn -0.3842 -0.0886 0.9190
vn 0.1740 0.0978 0.9799
vn -0.6336 -0.0684 0.7706
vn -0.0229 0.1200 0.9925
vn -0.8513 0.0327 0.5236
vn -0.0692 0.1357 0.9883
vn -0.8691 -0.0062 0.4946
vn -0.1010 0.1066 0.9892
vn -0.8626 -0.0153 0.5056
vn -0.0700 -0.0937 0.9931
vn -0.8203 -0.0651 0.5682
vn -0.0042 -0.3057 0.9521
vn -0.7808 -0.1052 0.6159
vn 0.0218 -0.4202 0.9072
vn -0.8172 -0.3438 0.4625
vn -0.0138 -0.9210 0.3893
vn 0.0268 -0.9908 0.1326
vn -0.7002 -0.4473 -0.5564
vn -0.8915 0.0307 -0.4521
vn -0.0515 -0.7626 -0.6448
vn -0.0176 -0.2236 -0.9745
vn 0.5620 -0.5576 -0.6110
vn -0.0028 0.1850 -0.9827
vn 0.8486 -0.1929 -0.4926
vn 0.7440 -0.4819 0.4628
vn 0.7268 -0.3457 0.5936
vn -0.8976 0.0244 -0.4402
vn -0.8575 -0.1609 -0.4886
vn 0.0947 -0.0038 -0.9955
vn 0.1150 -0.1501 -0.9820
vn 0.9475 -0.1056 -0.3020
vn 0.9470 0.0306 -0.3198
vn 0.7467 -0.1473 0.6487
vn 0.7544 0.1398 0.6414
vn 0.7714 0.1832 0.6095
vn -0.9087 -0.1908 0.3712
vn -0.2077 -0.1979 0.9580
vn 0.4915 -0.3278 0.8068
vn 0.7294 -0.6333 0.2589
vn -0.1160 -0.7359 -0.6671
vn 0.9592 -0.0903 -0.2680
vn 0.8672 0.0016 -0.4979
vn 0.8579 -0.1711 -0.4845
vn 0.7970 -0.2478 0.5508
vn 0.7638 -0.1782 0.6204
vn 0.6846 -0.2621 0.6802
vn 0.9716 0.1414 -0.1896
vn -0.0352 0.5164 -0.8556
vn -0.0531 -0.0687 -0.9962
vn -0.9187 -0.0778 -0.3872
vn -0.9560 0.2299 -0.1822
vn -0.0902 0.0242 -0.9956
vn -0.9456 -0.0259 -0.3243
vn -0.7309 -0.1211 0.6717
vn -0.7994 -0.0936 0.5935
vn 0.0448 -0.1743 0.9837
vn -0.0174 -0.1201 0.9926
vn -0.8091 -0.0290 0.5870
vn -0.0754 -0.0968 0.9924
vn -0.8260 -0.0391 0.5623
vn -0.2027 -0.1270 0.9710
vn -0.8582 0.0500 0.5109
vn -0.3754 -0.0501 0.9255
vn -0.8792 0.0958 0.4667
vn -0.5322 0.0227 0.8463
vn -0.9061 0.0683 0.4174
vn -0.6269 0.0497 0.7775
vn -0.9192 0.0964 0.3817
vn -0.7001 0.0719 0.7104
vn -0.9760 0.0100 0.2174
vn -0.8650 -0.1315 0.4842
vn -0.8341 -0.2670 0.4827
vn -0.8767 0.0080 0.4810
vn -0.7804 0.3445 0.5218
vn -0.9813 -0.0060 -0.1922
vn -0.7239 0.0870 -0.6844
vn -0.8004 0.1708 -0.5746
vn -0.1925 0.2011 -0.9605
vn -0.1547 0.3421 -0.9268
vn -0.8408 0.2707 -0.4688
vn -0.1601 0.4716 -0.8672
vn -0.6851 0.6337 -0.3591
vn -0.2666 0.1141 -0.9570
vn -0.7927 0.1499 -0.5909
vn -0.2376 -0.5523 -0.7991
vn -0.6319 -0.5693 -0.5259
vn -0.5785 -0.6961 -0.4251
vn -0.4503 -0.5814 -0.6776
vn -0.6493 -0.7562 -0.0809
vn -0.7238 -0.6886 0.0440
vn -0.7789 -0.4875 -0.3946
vn -0.8243 -0.5634 -0.0552
vn -0.9210 -0.3891 -0.0184
vn -0.8703 -0.3179 -0.3763
vn -0.6510 -0.3714 -0.6620
vn -0.7226 -0.0621 -0.6885
vn -0.8289 -0.0986 -0.5506
vn -0.7299 0.3000 -0.6142
vn -0.8414 0.2845 -0.4594
vn -0.8578 0.4756 -0.1951
vn -0.6463 0.6048 -0.4653
vn -0.7523 0.6450 -0.1340
vn -0.5315 0.8440 -0.0724
vn -0.4278 0.8135 -0.3939
vn -0.4117 0.6298 -0.6587
vn -0.5559 0.7796 0.2884
vn -0.7907 0.5743 0.2121
vn -0.5109 0.6372 0.5770
vn -0.7329 0.4485 0.5116
vn -0.8968 0.4087 0.1696
vn -0.8451 0.1394 0.5160
vn -0.9178 0.1863 0.3506
vn -0.9477 -0.2008 0.2479
vn -0.8730 -0.2272 0.4315
vn -0.6733 -0.2717 0.6877
vn -0.6505 0.0999 0.7529
vn -0.6043 -0.5876 0.5381
vn -0.7892 -0.5377 0.2966
vn -0.4971 0.0938 0.8626
vn -0.5099 -0.3015 0.8057
vn -0.9906 -0.1365 0.0059
vn -0.9799 0.1829 0.0793
vn -0.9472 -0.0887 -0.3081
vn -0.9440 0.2292 -0.2374
vn -0.5415 0.4045 0.7370
vn -0.3661 0.9291 -0.0518
vn -0.3817 0.8619 0.3338
vn -0.4885 0.3289 -0.8082
vn -0.5001 -0.0310 -0.8654
vn -0.3196 -0.0343 -0.9469
vn -0.3239 0.3544 -0.8772
vn -0.4263 -0.3513 -0.8336
vn -0.5849 -0.7625 0.2765
vn -0.8987 -0.0208 0.4382
vn 0.4022 0.0979 -0.9103
vn -0.9622 0.2626 0.0721
vn 0.2875 0.4505 -0.8452
vn 0.2705 0.3058 -0.9129
vn 0.2725 0.3675 -0.8892
vn 0.4521 0.5911 -0.6680
vn 0.2714 0.1961 -0.9423
vn 0.5436 -0.0000 -0.8393
vn 0.6635 -0.4188 -0.6200
vn -0.7748 -0.2726 -0.5704
vn 0.0206 0.2808 -0.9596
vn -0.0379 -0.9328 -0.3584
vn 0.9258 -0.0300 0.3768
vn 0.9633 0.0110 -0.2683
vn 0.9154 0.0041 0.4024
vn 0.9628 -0.0641 -0.2625
vn 0.8985 -0.0495 0.4362
vn 0.9597 -0.1214 -0.2534
vn 0.8711 0.0671 0.4864
vn 0.9581 0.0052 -0.2862
vn 0.8420 0.1589 0.5155
vn 0.9522 0.0777 -0.2956
vn 0.7993 0.1495 0.5821
vn 0.9510 0.0551 -0.3044
vn 0.2677 -0.1369 -0.9537
vn 0.4207 -0.0776 -0.9039
vn 0.2745 -0.2056 -0.9394
vn 0.2907 -0.1719 -0.9412
vn 0.5919 -0.0960 -0.8003
vn 0.3363 -0.1683 -0.9266
vn 0.6475 -0.1623 -0.7446
vn 0.3102 -0.1466 -0.9393
vn 0.6654 -0.0892 -0.7412
vn 0.2657 -0.0568 -0.9624
vn -0.1385 -0.0187 -0.9902
vn -0.2590 0.0032 -0.9659
vn -0.6270 0.0979 -0.7729
vn -0.7084 0.0386 -0.7048
vn -0.2706 0.0777 -0.9596
vn -0.6800 0.0617 -0.7306
vn -0.9678 0.0630 -0.2438
vn -0.9713 0.0607 -0.2301
vn -0.4769 0.0459 -0.8777
vn 0.0814 -0.0866 -0.9929
vn -0.3231 -0.0245 -0.9460
vn 0.3151 -0.1304 -0.9401
vn -0.9616 0.0900 -0.2592
vn -0.9577 0.0011 -0.2878
vn -0.9585 0.1345 -0.2515
vn 0.4982 -0.0519 -0.8655
vn 0.6773 0.0387 -0.7347
vn 0.5507 0.0572 0.8327
vn 0.5629 -0.0725 0.8233
vn 0.7049 -0.0756 0.7053
vn 0.0964 -0.3140 0.9445
vn -0.6442 -0.2027 0.7375
vn 0.0879 -0.6214 0.7785
vn -0.7701 -0.3726 0.5177
vn 0.1011 -0.8109 0.5765
vn -0.7083 -0.6894 0.1517
vn 0.2339 -0.9711 -0.0485
vn -0.6785 0.0504 -0.7329
vn -0.9220 -0.3757 0.0936
vn 0.3219 -0.8797 -0.3501
vn -0.4218 -0.1957 -0.8853
vn 0.3027 -0.3215 -0.8972
vn 0.3496 0.2724 -0.8964
vn 0.8191 -0.1327 -0.5581
vn 0.2990 0.6793 -0.6702
vn -0.4919 0.6313 -0.5996
vn 0.9669 0.1200 -0.2252
vn 0.7990 -0.5154 0.3098
vn -0.9085 0.2530 -0.3327
vn -0.8065 0.4768 -0.3495
vn 0.7395 -0.3504 0.5747
vn 0.7403 0.0201 -0.6720
vn -0.2361 -0.2045 0.9500
vn 0.2743 0.1862 0.9434
vn 0.1446 -0.2110 0.9667
vn 0.3075 -0.3358 0.8903
vn 0.4851 -0.3226 0.8128
vn 0.4149 -0.6318 0.6548
vn 0.3276 0.0532 0.9433
vn 0.4912 0.0434 0.8700
vn 0.7269 0.0561 0.6844
vn 0.7254 -0.3076 0.6158
vn 0.4253 0.3501 0.8346
vn 0.6495 0.3722 0.6631
vn 0.4503 0.5815 0.6775
vn 0.8289 -0.3050 0.4690
vn 0.8415 0.0825 0.5339
vn 0.9472 0.0887 0.3081
vn 0.9440 -0.2292 0.2374
vn 0.8670 0.3286 0.3746
vn 0.9248 0.3802 0.0133
vn 0.9906 0.1365 -0.0059
vn 0.7713 0.5030 0.3900
vn 0.8344 0.5492 0.0454
vn 0.5685 0.7063 0.4219
vn 0.6145 0.7857 0.0713
vn 0.4143 0.7976 0.4385
vn 0.4505 0.8903 0.0661
vn 0.7902 0.5370 -0.2953
vn 0.8695 0.2353 -0.4342
vn 0.9397 0.2222 -0.2600
vn 0.9285 -0.1706 -0.3299
vn 0.8493 -0.1336 -0.5107
vn 0.6505 -0.0999 -0.7529
vn 0.6733 0.2717 -0.6877
vn 0.5099 0.3015 -0.8057
vn 0.4971 -0.0938 -0.8626
vn 0.9799 -0.1829 -0.0793
vn 0.8919 -0.4196 -0.1689
vn 0.8612 -0.4669 0.2009
vn 0.7814 -0.5877 -0.2099
vn 0.7627 -0.6299 0.1467
vn 0.6479 -0.6030 0.4655
vn 0.4293 -0.8106 0.3984
vn 0.5831 0.7651 -0.2732
vn 0.6043 0.5876 -0.5381
vn -0.3233 0.3151 0.8923
vn -0.0308 -0.4246 0.9049
vn 0.9440 0.0617 0.3241
vn -0.9934 0.0195 -0.1130
vn -0.5052 0.8593 -0.0798
vn 0.5920 -0.3794 0.7111
vn -0.1123 0.2240 -0.9681
vn -0.7705 -0.2072 -0.6029
vn -0.1695 0.0254 -0.9852
vn -0.9497 0.0272 -0.3120
vn 0.2362 -0.4358 0.8685
vn 0.2612 0.0861 -0.9614
vn 0.9417 0.0691 -0.3294
vn 0.1612 -0.1397 -0.9770
vn -0.8503 -0.1397 -0.5074
vn 0.8912 -0.1069 -0.4407
vn -0.0268 0.2524 -0.9672
vn -0.8814 0.2273 -0.4140
vn 0.9543 0.2955 0.0453
vn 0.2702 0.8546 -0.4434
vn -0.8249 0.5067 -0.2505
s 1
f 4//4 3//3 2//2 1//1
f 2//2 3//3 6//6 5//5
f 5//5 6//6 8//8 7//7
f 8//8 10//10 9//9 7//7
f 13//13 12//12 11//11 9//9
f 10//10 13//13 9//9
f 11//11 12//12 14//14
f 16//16 11//11 14//14 15//15
f 18//18 16//16 15//15 17//17
f 15//15 20//20 19//19 17//17
f 21//21 18//18 17//17
f 23//23 18//18 21//21 22//22
f 24//24 23//23 22//22
f 26//26 23//23 24//24 25//25
f 28//28 27//27 26//26 25//25
f 30//30 29//29 27//27 28//28
f 29//29 32//32 31//31 27//27
f 34//34 32//32 29//29 33//33
f 36//36 30//30 28//28 35//35
f 38//38 37//37 30//30 36//36
f 39//39 38//38 36//36
f 37//37 38//38 40//40 22//22
f 40//40 38//38 42//42 41//41
f 41//41 42//42 44//44 43//43
f 43//43 44//44 46//46 45//45
f 44//44 48//48 47//47 46//46
f 50//50 49//49 43//43 45//45
f 52//52 49//49 50//50 51//51
f 54//54 52//52 51//51 53//53
f 56//56 55//55 52//52 54//54
f 45//45 46//46 58//58 57//57
f 58//58 60//60 59//59 57//57
f 60//60 62//62 61//61 59//59
f 61//61 62//62 64//64 63//63
f 64//64 62//62 66//66 65//65
f 67//67 64//64 65//65
f 69//69 68//68 67//67 65//65
f 68//68 70//70 67//67
f 72//72 69//69 65//65 71//71
f 74//74 69//69 72//72 73//73
f 76//76 75//75 74//74 73//73
f 78//78 77//77 75//75 76//76
f 80//80 77//77 78//78 79//79
f 82//82 81//81 80//80 79//79
f 84//84 81//81 82//82 83//83
f 86//86 85//85 84//84 83//83
f 88//88 85//85 86//86 87//87
f 90//90 88//88 87//87 89//89
f 92//92 91//91 90//90 89//89
f 94//94 91//91 92//92 93//93
f 96//96 95//95 94//94 93//93
f 98//98 95//95 96//96 97//97
f 100//100 99//99 98//98 97//97
f 102//102 99//99 100//100 101//101
f 104//104 102//102 101//101 103//103
f 106//106 105//105 104//104 103//103
f 108//108 105//105 106//106 107//107
f 110//110 109//109 108//108 107//107
f 112//112 109//109 110//110 111//111
f 114//114 112//112 111//111 113//113
f 116//116 114//114 113//113 115//115
f 118//118 116//116 115//115 117//117
f 120//120 118//118 117//117 119//119
f 122//122 120//120 119//119 121//121
f 124//124 122//122 121//121 123//123
f 126//126 124//124 123//123 125//125
f 128//128 127//127 124//124 126//126
f 130//130 128//128 126//126 129//129
f 132//132 130//130 129//129 131//131
f 133//133 132//132 131//131
f 132//132 133//133 135//135 134//134
f 134//134 135//135 137//137 136//136
f 136//136 137//137 139//139 138//138
f 138//138 139//139 141//141 140//140
f 140//140 141//141 143//143 142//142
f 142//142 143//143 144//144
f 147//147 146//146 145//145 144//144
f 143//143 147//147 144//144
f 145//145 146//146 148//148
f 146//146 149//149 148//148
f 150//150 145//145 148//148
f 146//146 147//147 151//151 149//149
f 151//151 152//152 150//150 149//149
f 150//150 152//152 153//153 144//144
f 145//145 150//150 144//144
f 153//153 154//154 140//140 142//142
f 137//137 156//156 155//155 139//139
f 155//155 156//156 158//158 157//157
f 158//158 160//160 159//159 157//157
f 159//159 160//160 162//162 161//161
f 162//162 163//163 134//134 136//136
f 164//164 133//133 131//131
f 166//166 164//164 131//131 165//165
f 168//168 164//164 166//166 167//167
f 169//169 168//168 167//167
f 169//169 167//167 170//170
f 173//173 172//172 171//171 170//170
f 167//167 173//173 170//170
f 175//175 171//171 172//172 174//174
f 177//177 171//171 175//175 176//176
f 179//179 178//178 177//177 176//176
f 178//178 181//181 180//180 177//177
f 183//183 181//181 178//178 182//182
f 185//185 183//183 182//182 184//184
f 187//187 186//186 183//183 185//185
f 189//189 188//188 186//186 187//187
f 191//191 190//190 188//188 189//189
f 193//193 192//192 190//190 191//191
f 195//195 194//194 192//192 193//193
f 197//197 196//196 194//194 195//195
f 199//199 198//198 196//196 197//197
f 205//205 207//207 206//206 204//204
f 209//209 207//207 205//205 208//208
f 210//210 209//209 208//208
f 210//210 212//212 211//211 209//209
f 212//212 214//214 213//213 211//211
f 71//71 213//213 214//214 215//215
f 216//216 71//71 215//215
f 215//215 214//214 218//218 217//217
f 220//220 219//219 215//215 217//217
f 222//222 219//219 220//220 221//221
f 224//224 223//223 219//219 222//222
f 225//225 224//224 222//222
f 227//227 226//226 224//224 225//225
f 229//229 226//226 227//227 228//228
f 230//230 229//229 228//228
f 232//232 229//229 230//230 231//231
f 233//233 229//229 232//232
f 231//231 230//230 235//235 234//234
f 234//234 235//235 237//237 236//236
f 239//239 237//237 235//235 238//238
f 240//240 239//239 238//238
f 242//242 239//239 240//240 241//241
f 244//244 239//239 242//242 243//243
f 243//243 242//242 246//246 245//245
f 248//248 247//247 244//244 243//243
f 240//240 250//250 249//249 241//241
f 241//241 249//249 221//221
f 250//250 252//252 251//251 249//249
f 228//228 252//252 250//250 238//238
f 250//250 240//240 238//238
f 237//237 253//253 236//236
f 255//255 254//254 231//231 234//234
f 226//226 229//229 233//233 256//256
f 235//235 230//230 228//228 238//238
f 224//224 226//226 256//256 257//257
f 256//256 259//259 258//258 257//257
f 251//251 252//252 227//227 225//225
f 223//223 224//224 257//257 260//260
f 223//223 260//260 216//216
f 251//251 225//225 222//222
f 246//246 242//242 241//241 221//221
f 220//220 246//246 221//221
f 249//249 251//251 222//222 221//221
f 246//246 220//220 217//217 261//261
f 218//218 214//214 212//212 262//262
f 213//213 66//66 263//263 211//211
f 212//212 210//210 264//264 202//202
f 262//262 212//212 202//202
f 211//211 263//263 265//265 209//209
f 209//209 265//265 266//266 207//207
f 265//265 268//268 267//267 266//266
f 266//266 267//267 270//270 269//269
f 273//273 272//272 271//271 270//270
f 267//267 273//273 270//270
f 274//274 271//271 272//272 53//53
f 276//276 271//271 274//274 275//275
f 278//278 276//276 275//275 277//277
f 280//280 278//278 277//277 279//279
f 282//282 280//280 279//279 281//281
f 284//284 282//282 281//281 283//283
f 286//286 284//284 283//283 285//285
f 288//288 284//284 286//286 287//287
f 290//290 288//288 287//287 289//289
f 292//292 291//291 288//288 290//290
f 294//294 293//293 291//291 292//292
f 296//296 295//295 293//293 294//294
f 298//298 296//296 294//294 297//297
f 300//300 298//298 297//297 299//299
f 302//302 301//301 298//298 300//300
f 304//304 303//303 302//302 300//300
f 299//299 297//297 306//306 305//305
f 305//305 306//306 308//308 307//307
f 310//310 309//309 305//305 307//307
f 311//311 304//304 300//300 299//299
f 297//297 294//294 292//292 306//306
f 306//306 292//292 290//290 308//308
f 308//308 290//290 289//289 312//312
f 291//291 282//282 284//284 288//288
f 293//293 280//280 282//282 291//291
f 313//313 276//276 278//278 295//295
f 277//277 275//275 315//315 314//314
f 268//268 47//47 273//273 267//267
f 204//204 206//206 301//301 302//302
f 207//207 266//266 269//269 206//206
f 198//198 203//203 303//303 196//196
f 196//196 303//303 304//304 194//194
f 194//194 304//304 311//311 192//192
f 192//192 311//311 309//309 190//190
f 190//190 309//309 310//310 188//188
f 173//173 316//316 187//187 185//185
f 184//184 182//182 318//318 317//317
f 317//317 318//318 320//320 319//319
f 319//319 320//320 322//322 321//321
f 321//321 322//322 323//323
f 323//323 322//322 325//325 324//324
f 327//327 326//326 323//323 324//324
f 326//326 327//327 328//328
f 327//327 329//329 328//328
f 330//330 326//326 328//328
f 331//331 329//329 327//327 324//324
f 332//332 331//331 324//324
f 331//331 333//333 330//330 329//329
f 330//330 333//333 334//334 323//323
f 326//326 330//330 323//323
f 325//325 335//335 324//324
f 335//335 325//325 336//336
f 332//332 335//335 336//336
f 334//334 337//337 319//319 321//321
f 182//182 178//178 179//179 318//318
f 338//338 170//170 171//171 177//177
f 180//180 338//338 177//177
f 289//289 168//168 169//169 338//338
f 312//312 289//289 338//338
f 131//131 129//129 339//339 165//165
f 283//283 281//281 128//128 130//130
f 281//281 279//279 127//127 128//128
f 125//125 123//123 193//193 191//191
f 314//314 315//315 120//120 122//122
f 121//121 119//119 197//197 195//195
f 341//341 340//340 114//114 116//116
f 115//115 113//113 201//201 200//200
f 113//113 111//111 262//262 202//202
f 110//110 218//218 262//262 111//111
f 218//218 110//110 107//107 261//261
f 217//217 218//218 261//261
f 107//107 106//106 245//245 261//261
f 344//344 343//343 342//342 104//104
f 105//105 344//344 104//104
f 346//346 345//345 342//342 343//343
f 348//348 347//347 346//346 343//343
f 347//347 350//350 349//349 346//346
f 349//349 350//350 351//351
f 353//353 347//347 348//348 352//352
f 355//355 354//354 353//353 352//352
f 353//353 354//354 356//356
f 354//354 358//358 357//357 356//356
f 357//357 360//360 359//359 356//356
f 359//359 360//360 362//362 361//361
f 362//362 364//364 363//363 361//361
f 366//366 365//365 360//360 357//357
f 367//367 366//366 357//357
f 369//369 366//366 367//367 368//368
f 371//371 366//366 369//369 370//370
f 373//373 372//372 371//371 370//370
f 367//367 358//358 374//374 368//368
f 368//368 374//374 375//375
f 375//375 374//374 355//355 376//376
f 378//378 377//377 375//375 376//376
f 355//355 352//352 376//376
f 374//374 358//358 354//354 355//355
f 379//379 348//348 343//343 344//344
f 379//379 344//344 380//380
f 63//63 378//378 379//379 380//380
f 103//103 248//248 243//243 245//245
f 106//106 103//103 245//245
f 342//342 102//102 104//104
f 101//101 248//248 103//103
f 342//342 345//345 99//99 102//102
f 100//100 247//247 248//248 101//101
f 247//247 100//100 97//97
f 346//346 349//349 95//95 98//98
f 345//345 346//346 98//98
f 97//97 96//96 253//253 244//244
f 247//247 97//97 244//244
f 95//95 349//349 351//351 94//94
f 253//253 96//96 93//93 236//236
f 91//91 363//363 90//90
f 255//255 92//92 89//89
f 363//363 364//364 88//88 90//90
f 87//87 254//254 255//255 89//89
f 86//86 254//254 87//87
f 364//364 362//362 381//381 84//84
f 85//85 364//364 84//84
f 382//382 371//371 372//372 80//80
f 81//81 382//382 80//80
f 78//78 259//259 79//79
f 77//77 372//372 373//373 75//75
f 258//258 259//259 78//78 76//76
f 75//75 373//373 74//74
f 258//258 76//76 73//73
f 260//260 72//72 71//71 216//216
f 67//67 70//70 377//377 64//64
f 65//65 66//66 213//213 71//71
f 61//61 63//63 380//380 108//108
f 109//109 61//61 108//108
f 64//64 377//377 378//378 63//63
f 66//66 62//62 60//60 263//263
f 59//59 61//61 109//109 112//112
f 60//60 58//58 268//268 265//265
f 263//263 60//60 265//265
f 57//57 59//59 112//112 114//114
f 340//340 57//57 114//114
f 35//35 28//28 25//25 56//56
f 25//25 24//24 55//55 56//56
f 19//19 33//33 37//37 22//22
f 21//21 19//19 22//22
f 10//10 383//383 13//13
f 383//383 10//10 8//8
f 6//6 384//384 383//383 8//8
f 3//3 384//384 6//6
f 32//32 2//2 5//5 31//31
f 12//12 13//13 4//4 1//1
f 385//385 12//12 1//1
f 384//384 3//3 4//4
f 12//12 385//385 14//14
f 383//383 384//384 4//4 13//13
f 20//20 385//385 1//1 34//34
f 1//1 2//2 32//32 34//34
f 14//14 385//385 20//20 15//15
f 31//31 5//5 7//7 386//386
f 9//9 11//11 16//16 387//387
f 7//7 9//9 387//387 386//386
f 19//19 20//20 34//34 33//33
f 33//33 29//29 30//30 37//37
f 19//19 21//21 17//17
f 27//27 31//31 386//386 26//26
f 387//387 16//16 18//18 23//23
f 386//386 387//387 23//23 26//26
f 38//38 39//39 42//42
f 388//388 40//40 41//41
f 22//22 40//40 388//388 55//55
f 24//24 22//22 55//55
f 48//48 39//39 36//36 389//389
f 42//42 39//39 48//48 44//44
f 389//389 36//36 35//35 390//390
f 49//49 388//388 41//41 43//43
f 55//55 388//388 49//49 52//52
f 390//390 35//35 56//56 54//54
f 47//47 48//48 389//389 273//273
f 46//46 47//47 268//268 58//58
f 273//273 389//389 390//390 272//272
f 340//340 50//50 45//45 57//57
f 51//51 50//50 340//340 341//341
f 272//272 390//390 54//54 53//53
f 365//365 382//382 381//381
f 382//382 365//365 366//366 371//371
f 370//370 369//369 70//70 68//68
f 360//360 365//365 381//381 362//362
f 358//358 367//367 357//357
f 70//70 369//369 368//368 375//375
f 377//377 70//70 375//375
f 350//350 359//359 361//361 351//351
f 350//350 347//347 353//353 356//356
f 359//359 350//350 356//356
f 348//348 379//379 378//378 376//376
f 352//352 348//348 376//376
f 381//381 382//382 81//81 84//84
f 372//372 77//77 80//80
f 370//370 68//68 69//69 74//74
f 373//373 370//370 74//74
f 364//364 85//85 88//88
f 361//361 363//363 91//91 94//94
f 351//351 361//361 94//94
f 99//99 345//345 98//98
f 380//380 344//344 105//105 108//108
f 83//83 82//82 233//233 232//232
f 82//82 79//79 259//259 256//256
f 233//233 82//82 256//256
f 258//258 73//73 72//72 260//260
f 257//257 258//258 260//260
f 86//86 83//83 232//232 231//231
f 254//254 86//86 231//231
f 227//227 252//252 228//228
f 219//219 223//223 216//216 215//215
f 92//92 255//255 234//234 236//236
f 93//93 92//92 236//236
f 253//253 237//237 239//239 244//244
f 245//245 246//246 261//261
f 338//338 169//169 170//170
f 129//129 126//126 125//125 339//339
f 316//316 166//166 165//165
f 166//166 316//316 173//173 167//167
f 307//307 308//308 312//312 391//391
f 391//391 312//312 338//338 180//180
f 339//339 125//125 191//191 189//189
f 165//165 339//339 189//189 187//187
f 316//316 165//165 187//187
f 172//172 173//173 185//185 184//184
f 392//392 310//310 307//307 391//391
f 181//181 392//392 391//391 180//180
f 188//188 310//310 392//392 186//186
f 186//186 392//392 181//181 183//183
f 270//270 271//271 276//276 313//313
f 295//295 278//278 280//280 293//293
f 53//53 51//51 341//341 393//393
f 274//274 53//53 393//393
f 275//275 274//274 393//393 315//315
f 279//279 277//277 314//314 127//127
f 269//269 270//270 313//313 394//394
f 394//394 313//313 295//295 296//296
f 393//393 341//341 116//116 118//118
f 315//315 393//393 118//118 120//120
f 127//127 314//314 122//122 124//124
f 206//206 269//269 394//394 301//301
f 301//301 394//394 296//296 298//298
f 303//303 203//203 204//204 302//302
f 309//309 311//311 299//299 305//305
f 117//117 115//115 200//200 199//199
f 119//119 117//117 199//199 197//197
f 123//123 121//121 195//195 193//193
f 395//395 286//286 285//285 163//163
f 160//160 395//395 163//163 162//162
f 287//287 286//286 395//395 396//396
f 396//396 395//395 160//160 158//158
f 285//285 283//283 130//130 132//132
f 163//163 285//285 132//132 134//134
f 287//287 396//396 397//397 168//168
f 289//289 287//287 168//168
f 156//156 397//397 396//396 158//158
f 135//135 133//133 164//164 168//168
f 397//397 135//135 168//168
f 135//135 397//397 156//156 137//137
f 398//398 159//159 161//161 154//154
f 152//152 398//398 154//154 153//153
f 157//157 159//159 398//398 399//399
f 399//399 398//398 152//152 151//151
f 149//149 150//150 148//148
f 161//161 162//162 136//136 138//138
f 154//154 161//161 138//138 140//140
f 153//153 142//142 144//144
f 400//400 155//155 157//157 399//399
f 147//147 400//400 399//399 151//151
f 139//139 155//155 400//400 141//141
f 141//141 400//400 147//147 143//143
f 401//401 175//175 174//174 337//337
f 333//333 401//401 337//337 334//334
f 176//176 175//175 401//401 402//402
f 402//402 401//401 333//333 331//331
f 329//329 330//330 328//328
f 174//174 172//172 184//184 317//317
f 337//337 174//174 317//317 319//319
f 334//334 321//321 323//323
f 402//402 331//331 332//332 336//336
f 403//403 402//402 336//336
f 403//403 179//179 176//176 402//402
f 335//335 332//332 324//324
f 318//318 179//179 403//403 320//320
f 322//322 320//320 403//403 336//336
f 325//325 322//322 336//336
f 264//264 201//201 113//113 202//202
f 199//199 200//200 201//201 264//264 210//210 208//208 205//205 204//204 203//203 198//198
