# Blender 5.0.0
# www.blender.org
mtllib Walk_Forward0035.mtl
o Mball.010
v 1.191164 3.747038 1.889199
v 0.845446 3.548494 1.912291
v 0.775322 3.776269 2.208473
v 1.101874 3.953494 2.191036
v 0.631220 3.686209 1.815966
v 0.581242 3.896935 2.122945
v 0.603102 4.130627 1.622426
v 0.551111 4.341135 1.929141
v 0.833510 4.353319 1.568692
v 0.763935 4.544124 1.880656
v 1.188950 4.223695 1.686562
v 1.120916 4.398796 1.997515
v 1.118308 4.402752 2.003322
v 1.207460 4.196281 1.701467
v 1.277300 3.987713 1.397087
v 1.258789 4.015126 1.382181
v 1.346801 3.779107 1.092661
v 1.328636 3.806008 1.078035
v 1.335546 3.340044 1.276966
v 1.265717 3.547978 1.581618
v 1.353581 3.679621 0.995654
v 1.331334 3.537519 0.825673
v 0.973193 3.935869 0.960063
v 1.031110 3.610702 0.733824
v 0.877449 3.475955 0.744136
v 0.743092 3.713524 1.013705
v 0.771245 3.269109 1.207250
v 0.923223 3.072642 0.876368
v 0.985119 3.131691 1.303387
v 1.070707 3.005918 0.925881
v 0.701059 3.477640 1.511585
v 0.915285 3.339925 1.607911
v 1.330500 3.329863 1.280393
v 1.261003 3.538470 1.584819
v 0.818102 3.367847 0.459563
v 1.138069 3.418118 0.395747
v 1.348346 3.144936 0.923987
v 1.425113 3.393204 0.707667
v 1.405916 3.620283 0.565148
v 1.311994 3.565665 0.874954
v 1.264001 3.796716 0.926248
v 1.427020 3.668536 0.633479
v 1.115864 4.267036 0.871978
v 1.301105 4.173513 0.514635
v 0.984296 4.729598 0.759579
v 1.164379 4.671609 0.401747
v 1.152267 4.623137 0.312878
v 1.284086 4.128598 0.433321
v 1.031147 4.256446 0.920922
v 0.901105 4.703615 0.812417
v 0.583036 4.526545 0.813438
v 0.665479 4.121121 0.924572
v 0.487699 4.341012 0.542007
v 0.511890 3.952405 0.679232
v 0.826712 3.692790 0.942633
v 0.658950 3.514498 0.736272
v 0.536399 5.112140 0.648002
v 0.693171 5.207976 0.286133
v 0.345509 5.490652 0.630013
v 0.491560 5.488952 0.253657
v 0.510785 5.882787 0.658167
v 0.656084 5.859415 0.279730
v 0.565432 5.913873 0.670733
v 0.710557 5.888113 0.292242
v 0.480420 5.909648 -0.201322
v 0.451098 5.875513 -0.135004
v 0.876154 6.046139 -0.090631
v 0.958424 6.208632 -0.259514
v 0.649182 6.242974 -0.547755
v 1.060112 6.200061 -0.043264
v 0.104144 5.956759 -0.314561
v 0.272906 6.290085 -0.660994
v 0.294468 6.356688 -0.699067
v 0.670743 6.309577 -0.585828
v 0.747222 6.629490 -0.699322
v 0.370946 6.676600 -0.812560
v 0.789316 7.026662 -0.704834
v 0.413040 7.073771 -0.818072
v 0.406058 7.409580 -0.713680
v 0.782334 7.362471 -0.600441
v 0.775464 7.434488 -0.564292
v 0.399188 7.481598 -0.677530
v 0.306361 7.864747 -0.341041
v 0.682637 7.817636 -0.227802
v 0.661457 7.861390 -0.162278
v 0.285181 7.908501 -0.275516
v 0.177591 8.045595 0.035405
v 0.553866 7.998485 0.148644
v 0.032580 8.073214 0.413978
v 0.408856 8.026103 0.527216
v 0.277038 7.934607 0.841310
v -0.099238 7.981717 0.728072
v -0.128670 7.947602 0.794677
v 0.247606 7.900492 0.907916
v 0.078843 7.567165 1.254349
v -0.297433 7.614276 1.141110
v -0.318994 7.547673 1.179183
v 0.057282 7.500563 1.292422
v -0.019196 7.180650 1.405915
v -0.395472 7.227760 1.292676
v -0.437566 6.830589 1.298189
v -0.061290 6.783479 1.411427
v -0.430584 6.494781 1.193796
v -0.054308 6.447670 1.307034
v -0.047439 6.375652 1.270885
v -0.423714 6.422763 1.157646
v -0.330887 6.039615 0.821157
v 0.045389 5.992504 0.934396
v 0.066458 5.948771 0.869158
v -0.309797 5.995661 0.755823
v -0.273731 5.567502 0.554215
v 0.095545 5.524107 0.684716
v -0.351531 5.035404 0.609632
v 0.030767 4.998915 0.737923
v -0.368904 4.602841 0.552222
v 0.015715 4.579269 0.675502
v -0.305430 4.258690 0.462769
v 0.050611 4.256773 0.536940
v -0.198764 3.875623 0.439383
v 0.166911 4.140478 0.443935
v -0.172558 3.498204 0.391402
v 0.188324 3.843663 0.538282
v -0.170008 3.123290 0.323086
v 0.184101 3.494663 0.645434
v -0.171342 2.754789 0.193286
v 0.176603 3.114035 0.694815
v 0.577609 3.468058 0.571061
v 0.569498 3.098670 0.695437
v 0.169884 2.710756 0.717702
v 0.556353 2.784197 0.900290
v 0.164489 2.401650 0.735920
v 0.552867 2.436851 1.060200
v 0.187034 2.318548 0.814791
v 0.585398 2.081834 1.203075
v 0.259635 1.965912 1.071780
v 0.617889 1.724502 1.341630
v 0.339922 1.610361 1.211090
v 0.650234 1.359022 1.473001
v 0.381555 1.263912 1.347564
v 0.586634 0.919391 1.494245
v 0.353993 0.937024 1.393493
v 0.525202 0.531168 1.547734
v 0.264725 0.556971 1.440720
v 0.477514 0.174278 1.512273
v 0.472692 0.108931 1.468120
v 0.378657 0.043091 1.119238
v 0.252615 0.459689 1.053291
v 0.492044 0.000810 1.131788
v 0.497130 0.015755 1.103512
v 0.571159 0.008596 1.134643
v 0.575541 0.362219 0.916417
v 0.845897 0.358391 1.096616
v 0.732382 0.473169 1.478145
v 0.833208 0.859236 1.425926
v 0.344374 1.066488 0.980574
v 0.292340 1.388915 0.854689
v 0.677502 0.981007 0.773670
v 0.647513 1.297636 0.640028
v 1.045827 1.105607 0.982740
v 0.993267 1.455441 0.850218
v 0.969170 1.274109 1.354939
v 0.936594 1.667946 1.207561
v 0.858770 2.023555 1.062090
v 0.165154 2.288306 0.724974
v -0.180863 2.079087 -0.222346
v -0.181454 2.054709 -0.238893
v -0.195475 1.680327 -0.502546
v 0.175624 1.923223 0.362450
v -0.206087 1.825867 -0.686975
v -0.215403 1.753655 -0.791668
v -0.289144 1.469862 -0.954401
v -0.339793 1.270582 -0.583868
v -0.235579 1.637204 -0.462986
v -0.545926 0.901422 -0.698269
v -0.439695 1.118926 -1.038321
v -0.632869 1.206496 -1.135002
v -0.635816 1.575062 -1.115877
v -0.911582 1.483451 -0.923632
v -0.950370 1.142723 -1.018812
v -0.623460 1.960817 -1.031114
v -0.924481 1.850164 -0.798076
v -0.820054 1.281067 -0.560127
v -0.848399 1.649378 -0.434153
v -0.601273 1.227427 -0.481197
v -0.584394 1.569892 -0.311791
v -0.807377 2.014688 -0.310894
v -0.568522 1.939299 -0.186908
v -0.778757 2.381926 -0.197138
v -0.562123 2.318785 -0.066564
v -0.761699 2.757164 -0.089745
v -0.565670 2.702104 0.066061
v -0.660082 3.138137 0.016560
v -0.573837 3.112353 0.105771
v -0.612526 3.521085 0.123443
v -0.579536 3.508393 0.162780
v -0.542365 3.980644 0.150312
v -0.517021 3.962926 0.188956
v -0.491343 4.425970 0.070783
v -0.475322 4.408123 0.131800
v -0.628267 4.586458 0.250295
v -0.691403 5.058598 0.313994
v -0.673156 5.147005 0.290745
v -0.450147 4.663201 -0.200553
v -0.422974 4.665681 -0.220807
v -0.471412 5.092161 -0.166590
v -0.041934 4.632231 -0.360506
v -0.037454 5.014127 -0.260826
v -0.537317 5.261108 -0.054975
v -0.036637 5.299017 -0.154360
v -0.522808 5.269516 -0.049187
v -0.050161 5.553675 -0.024268
v -0.240621 5.577597 0.033298
v 0.074744 5.922638 -0.248041
v -0.364544 5.986564 -0.027702
v -0.417768 6.031302 -0.047743
v -0.252673 6.187469 -0.430348
v -0.562792 6.057518 0.330614
v -0.509703 6.010440 0.350579
v -0.718565 6.432217 -0.156337
v -0.863575 6.459835 0.222236
v -0.893115 6.533764 0.210173
v -0.748105 6.506145 -0.168399
v -0.399613 6.382821 -0.482562
v -0.531460 6.801769 -0.540421
v -0.593652 6.811207 -0.485457
v -0.489366 7.198941 -0.545934
v -0.551558 7.208379 -0.490969
v -0.636515 7.559039 -0.183012
v -0.273332 7.574334 -0.499099
v -0.592283 7.623731 -0.172873
v -0.214925 7.939475 -0.075707
v -0.089374 7.728257 -0.451731
v -0.044121 7.541476 -0.615766
v -0.359936 7.967094 0.302866
v -0.737293 7.651349 0.205699
v -0.524405 7.811112 0.683986
v -0.708362 7.657190 0.636619
v -0.781525 7.586657 0.195561
v -0.924397 7.281796 0.589784
v -0.935977 7.281595 0.512618
v -0.978071 6.884423 0.518131
v -0.966491 6.884625 0.595296
v -0.757896 6.867044 1.038896
v -0.715802 7.264215 1.033383
v -0.732956 6.457106 0.869405
v -0.834644 6.465676 0.653155
v -0.664354 7.258701 1.090256
v -0.706448 6.861530 1.095768
v -0.966649 6.875182 0.173036
v -0.924555 7.272353 0.167524
v -0.821639 6.847563 -0.205537
v -0.779545 7.244735 -0.211049
v -0.606675 7.648619 0.852869
v -0.145135 7.970188 -0.056486
v -0.290145 7.997807 0.322087
v -0.019181 7.131537 -0.785257
v -0.061275 6.734366 -0.779745
v 0.018604 6.723437 -0.797095
v 0.060698 7.120609 -0.802607
v -0.170403 6.349962 -0.599230
v -0.687704 6.270325 0.705370
v -0.386406 5.581304 0.409558
v 0.332864 5.506287 0.070058
v -0.539274 5.266624 -0.046048
v 0.360184 5.256341 -0.063973
v 0.382670 4.918462 -0.207269
v 0.726109 4.827048 0.032681
v 0.710960 5.155823 0.213639
v 0.358241 4.509491 -0.324342
v 0.655510 4.415824 -0.089212
v 0.700448 4.387311 0.060145
v 0.663781 4.283175 0.187362
v 0.936682 4.400076 0.117420
v 0.553048 4.375126 0.409260
v 0.625655 4.084079 0.236289
v 0.679182 3.936170 -0.111459
v 0.688194 3.752436 0.332909
v 0.700692 3.523195 -0.023680
v 0.677770 3.405286 0.483850
v 0.687147 3.164920 0.130251
v 0.649449 3.053288 0.632345
v 0.680233 2.812648 0.280838
v 0.739491 2.703460 0.783967
v 0.780551 2.466743 0.431352
v 0.787411 2.373083 0.924144
v 0.832974 2.145753 0.567336
v 0.572777 1.999681 0.357398
v 0.571561 2.360906 0.219597
v 0.172416 2.109528 0.253484
v 0.174779 2.426369 0.093523
v 0.582501 2.758299 0.161589
v 0.183388 2.760847 -0.074998
v 0.590783 3.110054 0.005122
v 0.189488 3.091745 -0.247218
v 0.603872 3.476453 -0.143946
v 0.216606 3.487881 -0.363757
v -0.227717 3.371862 -0.556731
v -0.214863 3.754966 -0.504058
v -0.618232 3.352264 -0.448232
v -0.612396 3.702536 -0.291165
v -0.175452 4.164932 -0.446366
v -0.524477 4.174547 -0.230483
v -0.551257 4.159287 -0.196534
v -0.641803 3.686417 -0.252996
v -0.622389 3.016547 -0.634730
v -0.225726 2.993862 -0.594577
v -0.618226 2.657256 -0.761024
v -0.218645 2.607934 -0.604970
v -0.821766 2.933461 -0.461565
v -0.850564 2.561924 -0.567423
v -0.705920 3.310195 -0.355975
v -0.211047 2.209924 -0.604681
v 0.613099 3.913460 -0.224218
v 0.584320 3.812837 0.424987
v 0.532964 4.121399 0.325960
v -0.186442 2.048901 -0.239733
v -0.620020 0.887000 -0.663574
v -0.859000 0.908105 -0.685285
v -0.650947 0.554579 -0.966307
v -0.984066 0.684746 -1.011841
v -0.634461 0.433017 -1.278245
v -0.989568 0.570904 -1.331137
v -0.608120 0.400193 -1.542575
v -0.924863 0.970044 -1.639921
v -1.009531 0.608613 -1.342265
v -0.593605 0.445498 -1.613298
v -0.809571 0.900229 -1.746416
v -0.523867 0.842298 -1.741310
v -0.518943 0.887256 -1.730316
v -0.486863 0.844757 -1.717360
v -0.515821 1.142256 -1.470578
v -0.931755 1.070331 -1.464841
v -0.360204 0.939808 -1.405493
v -0.522604 0.490635 -1.289092
v -0.955286 1.046684 -1.459199
v -0.964325 1.110937 -1.183297
v -0.521184 0.612068 -0.977453
v -0.213404 1.833155 -0.729271
v -0.175269 2.400114 -0.008326
v 0.514799 5.016256 0.680648
v 0.452081 4.632852 0.670140
v 0.291052 6.736642 1.395962
v 0.370931 6.725713 1.378612
v 0.395871 6.315775 1.209121
v 0.333146 7.133813 1.390449
v 0.413025 7.122885 1.373100
v 0.883210 7.055481 1.133776
v 0.841116 6.658310 1.139288
v 0.522153 7.507288 1.192585
v 0.751363 7.474430 1.075917
v 0.604423 7.669782 1.023702
v 0.903308 6.648872 1.084324
v 0.945402 7.046043 1.078812
v 1.173389 7.009687 0.798892
v 1.131295 6.612516 0.804404
v 1.099854 7.351106 0.761754
v 1.244865 7.323486 0.383182
v 1.318399 6.982069 0.420319
v 1.070314 7.425034 0.749692
v 1.215325 7.397415 0.371119
v 0.768892 7.825763 0.642582
v 0.913902 7.798145 0.264009
v 0.707354 7.872918 0.622280
v 0.852365 7.845300 0.243708
v 1.186394 7.391575 -0.059800
v 1.318241 6.972626 -0.001941
v 1.329821 6.972827 0.075224
v 1.287727 6.575656 0.080736
v 1.276147 6.575454 0.003571
v 1.067552 6.593036 -0.440029
v 1.109646 6.990207 -0.445541
v 1.058197 6.995720 -0.502413
v 1.016104 6.598549 -0.496901
v 1.276305 6.584898 0.425831
v 1.133275 6.270594 0.397794
v 0.988264 6.298213 0.776367
v 1.089043 6.205902 0.387655
v 0.944033 6.233520 0.766228
v 0.625081 6.282916 1.092454
v 0.441124 6.128994 1.045086
v 1.039454 7.586926 -0.112015
v 1.084706 7.400145 -0.276050
v 0.710999 4.530586 2.199642
v 0.724180 4.064255 2.361799
v 1.195878 3.756547 1.885999
v 0.672941 3.922058 1.318045
v 0.903349 4.144751 1.264311
v 1.179522 3.803405 0.970760
v 1.024906 3.934575 0.232990
v 0.696921 3.855931 0.323501
v -0.612076 2.316370 -0.899901
v -0.878058 2.211297 -0.676605
v 0.446563 4.341074 0.467583
v 0.307276 4.061266 -0.416450
v 0.905763 1.800243 0.704099
v 0.602783 1.638680 0.504057
v 0.208869 1.743406 0.616886
v 0.949892 0.738255 1.049155
v 0.643656 0.724670 0.864228
v 0.339932 0.817614 1.014021
v -0.367682 1.021945 -1.122263
v -0.550101 1.218374 -1.203430
v -0.965662 1.115630 -1.162393
vn 0.6957 -0.4493 0.5604
vn -0.1082 -0.8201 0.5618
vn -0.1391 -0.6825 0.7175
vn 0.6925 -0.1713 0.7008
vn -0.8833 -0.4491 0.1344
vn -0.8854 -0.3035 0.3521
vn -0.9072 0.2424 -0.3440
vn -0.9351 0.3488 -0.0618
vn -0.1306 0.8215 -0.5551
vn -0.1589 0.9445 -0.2876
vn 0.6667 0.6904 -0.2807
vn 0.8484 0.5251 -0.0677
vn 0.7297 0.6394 0.2423
vn 0.9538 0.2970 0.0456
vn 0.9575 0.2876 0.0222
vn 0.6738 0.6722 -0.3066
vn 0.9637 0.2572 -0.0723
vn 0.6713 0.6111 -0.4195
vn 0.9837 -0.0685 0.1665
vn 0.9454 -0.1238 0.3013
vn 0.8893 0.3046 -0.3410
vn 0.9888 0.0665 0.1338
vn -0.0906 0.7214 -0.6865
vn -0.4019 -0.4544 -0.7950
vn -0.8832 -0.4450 0.1480
vn -0.8628 0.1932 -0.4672
vn -0.8584 -0.5123 0.0246
vn -0.5831 -0.7765 -0.2389
vn -0.0785 -0.8925 0.4443
vn 0.0850 -0.9921 -0.0925
vn -0.8804 -0.4606 0.1131
vn -0.1045 -0.8316 0.5454
vn 0.7841 -0.4847 0.3875
vn 0.6846 -0.5188 0.5121
vn -0.5644 -0.6095 -0.5567
vn 0.2754 -0.4936 -0.8249
vn 0.7831 -0.6207 -0.0374
vn 0.9367 -0.3295 -0.1182
vn 0.8325 -0.0993 -0.5451
vn 0.5574 -0.1989 0.8061
vn 0.7066 0.1456 0.6925
vn 0.9889 0.1352 0.0609
vn 0.6905 0.3197 0.6488
vn 0.9644 0.2618 0.0385
vn 0.5917 0.5161 0.6193
vn 0.8702 0.4922 0.0218
vn 0.7986 0.2716 -0.5371
vn 0.8264 0.0579 -0.5602
vn 0.1897 0.2249 0.9557
vn 0.0857 0.3446 0.9348
vn -0.5276 0.0838 0.8453
vn -0.5168 0.0333 0.8554
vn -0.9153 -0.3610 0.1785
vn -0.9691 -0.2068 0.1344
vn -0.2673 -0.3863 0.8828
vn -0.8123 -0.4907 0.3153
vn 0.4564 0.4855 0.7456
vn 0.7774 0.6245 -0.0751
vn 0.5697 -0.0305 0.8213
vn 0.9855 0.0727 -0.1535
vn 0.4598 -0.6905 0.5583
vn 0.6752 -0.7356 -0.0544
vn 0.4044 -0.8194 0.4063
vn 0.5246 -0.8500 0.0468
vn 0.2460 -0.8470 -0.4713
vn 0.3723 -0.7656 -0.5247
vn 0.5299 -0.7997 -0.2822
vn 0.6295 -0.5952 -0.4994
vn 0.3330 -0.6360 -0.6961
vn 0.7695 -0.6030 -0.2104
vn -0.1154 -0.7933 -0.5977
vn -0.0195 -0.5885 -0.8083
vn 0.0256 -0.4215 -0.9065
vn 0.3912 -0.4684 -0.7922
vn 0.4175 -0.2246 -0.8805
vn 0.1020 -0.1883 -0.9768
vn 0.4580 0.1046 -0.8828
vn 0.1435 0.1337 -0.9806
vn 0.1117 0.3932 -0.9126
vn 0.4882 0.3566 -0.7966
vn 0.4686 0.5350 -0.7030
vn 0.1209 0.5520 -0.8251
vn 0.0942 0.7794 -0.6194
vn 0.4454 0.7462 -0.4947
vn 0.4258 0.8382 -0.3406
vn 0.0506 0.8845 -0.4638
vn 0.0199 0.9723 -0.2328
vn 0.3236 0.9391 -0.1154
vn -0.0725 0.9947 0.0735
vn 0.2320 0.9540 0.1899
vn 0.1899 0.8737 0.4479
vn -0.1778 0.9354 0.3057
vn -0.2333 0.8442 0.4827
vn 0.1150 0.7946 0.5961
vn 0.0198 0.5861 0.8100
vn -0.3330 0.6360 0.6961
vn -0.3912 0.4684 0.7922
vn -0.0241 0.4191 0.9076
vn -0.1020 0.1883 0.9768
vn -0.4175 0.2246 0.8805
vn -0.4580 -0.1046 0.8828
vn -0.1435 -0.1337 0.9806
vn -0.4882 -0.3566 0.7966
vn -0.1306 -0.3843 0.9139
vn -0.1331 -0.5604 0.8174
vn -0.4686 -0.5350 0.7030
vn -0.4374 -0.7487 0.4982
vn -0.0925 -0.7717 0.6292
vn -0.0281 -0.6680 0.7436
vn -0.5358 -0.6521 0.5363
vn -0.6017 -0.0851 0.7942
vn -0.0260 -0.1280 0.9914
vn -0.5313 0.0301 0.8467
vn -0.1055 0.0083 0.9944
vn -0.5496 -0.2775 0.7880
vn -0.0933 -0.2732 0.9574
vn -0.5255 -0.2798 0.8035
vn 0.0089 -0.3650 0.9310
vn -0.4073 -0.0518 0.9118
vn 0.1298 -0.1467 0.9806
vn -0.5074 -0.0240 0.8614
vn -0.0365 0.2039 0.9783
vn -0.5758 -0.1040 0.8110
vn -0.2468 0.1617 0.9555
vn -0.5893 -0.2055 0.7814
vn -0.4618 0.1015 0.8811
vn 0.4625 0.2732 0.8435
vn 0.3453 0.3187 0.8827
vn -0.6872 0.0778 0.7222
vn 0.1148 0.3850 0.9157
vn -0.8355 0.0825 0.5433
vn -0.0200 0.4050 0.9141
vn -0.8459 0.1890 0.4987
vn -0.0122 0.3996 0.9166
vn -0.8179 0.1209 0.5625
vn -0.0253 0.3532 0.9352
vn -0.8135 0.0908 0.5744
vn -0.0189 0.2263 0.9739
vn -0.7972 0.1071 0.5941
vn -0.0439 0.1100 0.9930
vn -0.8124 0.1765 0.5557
vn -0.0445 0.0282 0.9986
vn -0.8515 -0.0150 0.5241
vn -0.1201 -0.5732 0.8105
vn -0.0648 -0.7121 0.6991
vn -0.7361 -0.6164 -0.2794
vn -0.8798 -0.1383 -0.4548
vn -0.1218 -0.9888 -0.0858
vn -0.0213 -0.6785 -0.7343
vn 0.5398 -0.8262 -0.1611
vn 0.0460 -0.2932 -0.9550
vn 0.8561 -0.4554 -0.2442
vn 0.6577 -0.2383 0.7146
vn 0.6846 -0.0890 0.7235
vn -0.9078 -0.1562 -0.3892
vn -0.8968 -0.3088 -0.3170
vn 0.0401 -0.3280 -0.9438
vn 0.0481 -0.3908 -0.9192
vn 0.9377 -0.1847 -0.2943
vn 0.9102 -0.0184 -0.4137
vn 0.7755 0.0920 0.6246
vn 0.8093 0.3196 0.4929
vn 0.8264 0.3415 0.4477
vn -0.9591 -0.1199 0.2563
vn -0.4881 -0.3552 0.7972
vn -0.2345 -0.5587 0.7955
vn 0.8033 -0.5955 -0.0099
vn -0.5720 -0.7145 -0.4029
vn 0.9665 -0.1244 -0.2244
vn 0.8536 0.1244 -0.5058
vn 0.8295 -0.0421 -0.5568
vn 0.7855 -0.4496 0.4253
vn 0.7254 -0.4640 0.5084
vn 0.6715 -0.4780 0.5663
vn 0.9843 0.1213 -0.1282
vn 0.0019 0.7564 -0.6541
vn -0.0427 0.2115 -0.9764
vn -0.9209 0.0840 -0.3806
vn -0.9439 0.3253 -0.0564
vn -0.0183 0.2959 -0.9550
vn -0.9462 0.1275 -0.2974
vn -0.7449 -0.2301 0.6262
vn -0.8102 -0.1828 0.5569
vn 0.0327 -0.4285 0.9030
vn -0.0475 -0.3898 0.9197
vn -0.8114 -0.1155 0.5729
vn -0.1416 -0.3585 0.9227
vn -0.8360 -0.1203 0.5353
vn -0.2968 -0.3439 0.8909
vn -0.8623 -0.0229 0.5059
vn -0.4456 -0.2444 0.8612
vn -0.8769 0.0416 0.4789
vn -0.5733 -0.1275 0.8094
vn -0.9057 0.0575 0.4200
vn -0.6518 -0.0592 0.7561
vn -0.9341 0.1453 0.3261
vn -0.7594 0.0305 0.6499
vn -0.9960 0.0572 -0.0690
vn -0.9523 -0.1261 0.2780
vn -0.9561 -0.2522 0.1494
vn -0.9770 0.0309 0.2111
vn -0.8606 0.3983 0.3173
vn -0.8950 0.0424 -0.4441
vn -0.5905 0.1159 -0.7986
vn -0.5855 0.1567 -0.7954
vn -0.0778 0.2051 -0.9756
vn -0.0078 0.3027 -0.9531
vn -0.6415 0.2625 -0.7208
vn 0.0277 0.4306 -0.9021
vn -0.5270 0.6935 -0.4912
vn -0.0958 0.0195 -0.9952
vn -0.6560 0.1328 -0.7430
vn -0.1786 -0.6909 -0.7006
vn -0.6111 -0.6055 -0.5099
vn -0.5907 -0.7160 -0.3720
vn -0.4098 -0.6683 -0.6209
vn -0.7202 -0.6923 -0.0454
vn -0.7986 -0.5999 0.0480
vn -0.7547 -0.4866 -0.4401
vn -0.8626 -0.4941 -0.1083
vn -0.9397 -0.3127 -0.1383
vn -0.8186 -0.3124 -0.4820
vn -0.5734 -0.4343 -0.6947
vn -0.5859 -0.1320 -0.7996
vn -0.7129 -0.1333 -0.6885
vn -0.5455 0.2234 -0.8077
vn -0.6810 0.2461 -0.6897
vn -0.7225 0.4765 -0.5009
vn -0.4495 0.5277 -0.7207
vn -0.6106 0.6439 -0.4610
vn -0.3860 0.8300 -0.4026
vn -0.2313 0.7186 -0.6558
vn -0.1956 0.4980 -0.8448
vn -0.4940 0.8678 -0.0541
vn -0.7394 0.6602 -0.1324
vn -0.5333 0.7971 0.2831
vn -0.7704 0.6025 0.2086
vn -0.8540 0.4962 -0.1567
vn -0.9176 0.2980 0.2629
vn -0.9464 0.3154 0.0691
vn -0.9948 -0.0837 0.0579
vn -0.9611 -0.0796 0.2643
vn -0.8172 -0.0926 0.5689
vn -0.7762 0.2894 0.5602
vn -0.7493 -0.4232 0.5094
vn -0.8839 -0.4081 0.2287
vn -0.6410 0.2942 0.7089
vn -0.6761 -0.1112 0.7284
vn -0.9787 -0.0605 -0.1962
vn -0.9432 0.2618 -0.2046
vn -0.8680 -0.0735 -0.4911
vn -0.8313 0.2420 -0.5004
vn -0.6295 0.5952 0.4994
vn -0.2179 0.9057 -0.3637
vn -0.3198 0.9474 0.0105
vn -0.2845 0.2023 -0.9371
vn -0.3404 -0.1485 -0.9285
vn -0.1570 -0.1808 -0.9709
vn -0.1164 0.2009 -0.9727
vn -0.3252 -0.4690 -0.8211
vn -0.7071 -0.6355 0.3102
vn -0.9700 0.0687 0.2332
vn 0.5828 -0.0243 -0.8123
vn -0.9120 0.3353 -0.2362
vn 0.4580 0.4287 -0.7787
vn 0.4236 0.2939 -0.8569
vn 0.6172 0.2560 -0.7440
vn 0.6871 0.4710 -0.5532
vn 0.3909 0.1791 -0.9028
vn 0.6989 0.0245 -0.7148
vn 0.7342 -0.5871 -0.3410
vn -0.6445 -0.3443 -0.6827
vn 0.4714 -0.1367 -0.8713
vn -0.3409 -0.9126 0.2257
vn 0.9132 0.0542 0.4039
vn 0.9717 0.0220 -0.2353
vn 0.9251 0.1765 0.3362
vn 0.9563 -0.0758 -0.2824
vn 0.9160 0.1180 0.3835
vn 0.9573 -0.1426 -0.2515
vn 0.8949 0.2366 0.3784
vn 0.9438 -0.0271 -0.3295
vn 0.8725 0.3246 0.3652
vn 0.9312 0.0231 -0.3638
vn 0.8467 0.3099 0.4324
vn 0.9230 -0.0125 -0.3847
vn 0.3686 -0.3911 -0.8433
vn 0.5085 -0.2689 -0.8180
vn 0.6147 -0.3226 -0.7198
vn 0.6232 -0.2348 -0.7460
vn 0.6327 -0.2509 -0.7326
vn 0.6189 -0.2451 -0.7463
vn 0.6627 -0.3093 -0.6820
vn 0.5444 -0.2358 -0.8050
vn 0.6638 -0.2178 -0.7155
vn 0.4092 -0.1491 -0.9002
vn 0.1447 0.0962 -0.9848
vn -0.1056 0.0980 -0.9896
vn -0.5229 0.3188 -0.7905
vn -0.6540 0.2448 -0.7158
vn -0.1808 0.1423 -0.9732
vn -0.6273 0.1867 -0.7561
vn -0.9478 0.1899 -0.2560
vn -0.9557 0.2060 -0.2102
vn -0.3389 0.3027 -0.8908
vn 0.4394 0.0570 -0.8965
vn -0.1833 0.2560 -0.9492
vn 0.6534 0.0319 -0.7563
vn -0.9429 0.2301 -0.2407
vn -0.9479 0.1512 -0.2803
vn -0.9378 0.2653 -0.2241
vn 0.7784 0.1104 -0.6180
vn 0.7075 -0.0392 -0.7057
vn 0.5280 0.3192 0.7869
vn 0.5224 -0.0367 0.8519
vn 0.5335 -0.4530 0.7143
vn 0.0679 -0.5728 0.8169
vn -0.6609 -0.3528 0.6624
vn 0.0288 -0.8446 0.5346
vn -0.8072 -0.4582 0.3722
vn 0.0303 -0.9691 0.2448
vn -0.7658 -0.6359 -0.0962
vn 0.1758 -0.9018 -0.3947
vn -0.6598 0.3194 -0.6802
vn -0.9475 -0.3187 -0.0276
vn 0.2814 -0.7339 -0.6183
vn -0.3954 0.1169 -0.9110
vn 0.2805 -0.0896 -0.9557
vn 0.3949 0.4816 -0.7824
vn 0.8066 -0.0299 -0.5903
vn 0.3705 0.8368 -0.4031
vn -0.4508 0.8257 -0.3391
vn 0.9777 0.1108 -0.1783
vn 0.7641 -0.6381 0.0953
vn -0.8932 0.3950 -0.2150
vn -0.7694 0.6218 -0.1464
vn 0.7185 -0.5521 0.4231
vn 0.8392 0.1685 -0.5171
vn -0.5480 -0.3069 0.7782
vn 0.0402 0.2669 0.9629
vn -0.2571 -0.1623 0.9527
vn 0.1021 -0.1815 0.9781
vn 0.2813 -0.1953 0.9395
vn 0.1987 -0.5007 0.8425
vn 0.1687 0.1989 0.9654
vn 0.3327 0.1623 0.9290
vn 0.5896 0.1248 0.7980
vn 0.5402 -0.2295 0.8096
vn 0.3239 0.4681 0.8222
vn 0.5720 0.4351 0.6953
vn 0.4097 0.6681 0.6211
vn 0.6640 -0.2626 0.7001
vn 0.7250 0.1139 0.6793
vn 0.8680 0.0735 0.4911
vn 0.8313 -0.2420 0.5004
vn 0.8176 0.3218 0.4775
vn 0.9435 0.3019 0.1365
vn 0.9787 0.0605 0.1962
vn 0.7504 0.5022 0.4297
vn 0.8714 0.4792 0.1050
vn 0.5825 0.7274 0.3627
vn 0.6875 0.7260 0.0159
vn 0.4437 0.8359 0.3230
vn 0.5446 0.8371 -0.0517
vn 0.8845 0.4077 -0.2267
vn 0.9590 0.0870 -0.2696
vn 0.9917 0.1030 -0.0770
vn 0.9539 -0.2959 -0.0503
vn 0.9214 -0.2909 -0.2579
vn 0.7762 -0.2894 -0.5602
vn 0.8172 0.0926 -0.5689
vn 0.6761 0.1112 -0.7284
vn 0.6410 -0.2942 -0.7089
vn 0.9432 -0.2618 0.2046
vn 0.8477 -0.5061 0.1590
vn 0.7260 -0.4668 0.5050
vn 0.7272 -0.6729 0.1356
vn 0.6198 -0.6282 0.4704
vn 0.4513 -0.5258 0.7210
vn 0.2327 -0.7136 0.6608
vn 0.7047 0.6394 -0.3073
vn 0.7493 0.4232 -0.5094
vn -0.2679 0.7468 0.6087
vn -0.2608 0.0008 0.9654
vn 0.8667 -0.0719 0.4936
vn -0.9004 0.2336 -0.3671
vn -0.1316 0.8031 -0.5811
vn 0.2128 -0.0678 0.9747
vn 0.2564 -0.2022 -0.9452
vn -0.6051 -0.3193 -0.7293
vn -0.0595 0.3127 -0.9480
vn -0.9455 0.1776 -0.2728
vn 0.1648 -0.6568 0.7358
vn 0.3589 0.0401 -0.9325
vn 0.9015 0.0058 -0.4328
vn 0.1677 -0.4318 -0.8862
vn -0.8616 -0.3663 -0.3513
vn 0.9091 -0.3024 -0.2867
vn 0.0423 -0.2132 -0.9761
vn -0.8506 0.0289 -0.5251
vn 0.9696 0.1913 0.1522
vn 0.3475 0.9332 -0.0915
vn -0.7837 0.6197 -0.0432
s 1
f 4//4 3//3 2//2 1//1
f 2//2 3//3 6//6 5//5
f 5//5 6//6 8//8 7//7
f 8//8 10//10 9//9 7//7
f 13//13 12//12 11//11 9//9
f 10//10 13//13 9//9
f 11//11 12//12 14//14
f 16//16 11//11 14//14 15//15
f 18//18 16//16 15//15 17//17
f 15//15 20//20 19//19 17//17
f 21//21 18//18 17//17
f 23//23 18//18 21//21 22//22
f 24//24 23//23 22//22
f 26//26 23//23 24//24 25//25
f 28//28 27//27 26//26 25//25
f 30//30 29//29 27//27 28//28
f 29//29 32//32 31//31 27//27
f 34//34 32//32 29//29 33//33
f 36//36 30//30 28//28 35//35
f 38//38 37//37 30//30 36//36
f 39//39 38//38 36//36
f 37//37 38//38 40//40 22//22
f 40//40 38//38 42//42 41//41
f 41//41 42//42 44//44 43//43
f 43//43 44//44 46//46 45//45
f 44//44 48//48 47//47 46//46
f 50//50 49//49 43//43 45//45
f 52//52 49//49 50//50 51//51
f 54//54 52//52 51//51 53//53
f 56//56 55//55 52//52 54//54
f 45//45 46//46 58//58 57//57
f 58//58 60//60 59//59 57//57
f 60//60 62//62 61//61 59//59
f 61//61 62//62 64//64 63//63
f 64//64 62//62 66//66 65//65
f 67//67 64//64 65//65
f 69//69 68//68 67//67 65//65
f 68//68 70//70 67//67
f 72//72 69//69 65//65 71//71
f 74//74 69//69 72//72 73//73
f 76//76 75//75 74//74 73//73
f 78//78 77//77 75//75 76//76
f 80//80 77//77 78//78 79//79
f 82//82 81//81 80//80 79//79
f 84//84 81//81 82//82 83//83
f 86//86 85//85 84//84 83//83
f 88//88 85//85 86//86 87//87
f 90//90 88//88 87//87 89//89
f 92//92 91//91 90//90 89//89
f 94//94 91//91 92//92 93//93
f 96//96 95//95 94//94 93//93
f 98//98 95//95 96//96 97//97
f 100//100 99//99 98//98 97//97
f 102//102 99//99 100//100 101//101
f 104//104 102//102 101//101 103//103
f 106//106 105//105 104//104 103//103
f 108//108 105//105 106//106 107//107
f 110//110 109//109 108//108 107//107
f 112//112 109//109 110//110 111//111
f 114//114 112//112 111//111 113//113
f 116//116 114//114 113//113 115//115
f 118//118 116//116 115//115 117//117
f 120//120 118//118 117//117 119//119
f 122//122 120//120 119//119 121//121
f 124//124 122//122 121//121 123//123
f 126//126 124//124 123//123 125//125
f 128//128 127//127 124//124 126//126
f 130//130 128//128 126//126 129//129
f 132//132 130//130 129//129 131//131
f 133//133 132//132 131//131
f 132//132 133//133 135//135 134//134
f 134//134 135//135 137//137 136//136
f 136//136 137//137 139//139 138//138
f 138//138 139//139 141//141 140//140
f 140//140 141//141 143//143 142//142
f 142//142 143//143 144//144
f 147//147 146//146 145//145 144//144
f 143//143 147//147 144//144
f 145//145 146//146 148//148
f 146//146 149//149 148//148
f 150//150 145//145 148//148
f 146//146 147//147 151//151 149//149
f 151//151 152//152 150//150 149//149
f 150//150 152//152 153//153 144//144
f 145//145 150//150 144//144
f 153//153 154//154 140//140 142//142
f 137//137 156//156 155//155 139//139
f 155//155 156//156 158//158 157//157
f 158//158 160//160 159//159 157//157
f 159//159 160//160 162//162 161//161
f 162//162 163//163 134//134 136//136
f 164//164 133//133 131//131
f 166//166 164//164 131//131 165//165
f 168//168 164//164 166//166 167//167
f 169//169 168//168 167//167
f 169//169 167//167 170//170
f 173//173 172//172 171//171 170//170
f 167//167 173//173 170//170
f 175//175 171//171 172//172 174//174
f 177//177 171//171 175//175 176//176
f 179//179 178//178 177//177 176//176
f 178//178 181//181 180//180 177//177
f 183//183 181//181 178//178 182//182
f 185//185 183//183 182//182 184//184
f 187//187 186//186 183//183 185//185
f 189//189 188//188 186//186 187//187
f 191//191 190//190 188//188 189//189
f 193//193 192//192 190//190 191//191
f 195//195 194//194 192//192 193//193
f 197//197 196//196 194//194 195//195
f 199//199 198//198 196//196 197//197
f 205//205 207//207 206//206 204//204
f 209//209 207//207 205//205 208//208
f 210//210 209//209 208//208
f 210//210 212//212 211//211 209//209
f 212//212 214//214 213//213 211//211
f 71//71 213//213 214//214 215//215
f 216//216 71//71 215//215
f 215//215 214//214 218//218 217//217
f 220//220 219//219 215//215 217//217
f 222//222 219//219 220//220 221//221
f 224//224 223//223 219//219 222//222
f 225//225 224//224 222//222
f 227//227 226//226 224//224 225//225
f 229//229 226//226 227//227 228//228
f 230//230 229//229 228//228
f 232//232 229//229 230//230 231//231
f 233//233 229//229 232//232
f 231//231 230//230 235//235 234//234
f 234//234 235//235 237//237 236//236
f 239//239 237//237 235//235 238//238
f 240//240 239//239 238//238
f 242//242 239//239 240//240 241//241
f 244//244 239//239 242//242 243//243
f 243//243 242//242 246//246 245//245
f 248//248 247//247 244//244 243//243
f 240//240 250//250 249//249 241//241
f 241//241 249//249 221//221
f 250//250 252//252 251//251 249//249
f 228//228 252//252 250//250 238//238
f 250//250 240//240 238//238
f 237//237 253//253 236//236
f 255//255 254//254 231//231 234//234
f 226//226 229//229 233//233 256//256
f 235//235 230//230 228//228 238//238
f 224//224 226//226 256//256 257//257
f 256//256 259//259 258//258 257//257
f 251//251 252//252 227//227 225//225
f 223//223 224//224 257//257 260//260
f 223//223 260//260 216//216
f 251//251 225//225 222//222
f 246//246 242//242 241//241 221//221
f 220//220 246//246 221//221
f 249//249 251//251 222//222 221//221
f 246//246 220//220 217//217 261//261
f 218//218 214//214 212//212 262//262
f 213//213 66//66 263//263 211//211
f 212//212 210//210 264//264 202//202
f 262//262 212//212 202//202
f 211//211 263//263 265//265 209//209
f 209//209 265//265 266//266 207//207
f 265//265 268//268 267//267 266//266
f 266//266 267//267 270//270 269//269
f 273//273 272//272 271//271 270//270
f 267//267 273//273 270//270
f 274//274 271//271 272//272 53//53
f 276//276 271//271 274//274 275//275
f 278//278 276//276 275//275 277//277
f 280//280 278//278 277//277 279//279
f 282//282 280//280 279//279 281//281
f 284//284 282//282 281//281 283//283
f 286//286 284//284 283//283 285//285
f 288//288 284//284 286//286 287//287
f 290//290 288//288 287//287 289//289
f 292//292 291//291 288//288 290//290
f 294//294 293//293 291//291 292//292
f 296//296 295//295 293//293 294//294
f 298//298 296//296 294//294 297//297
f 300//300 298//298 297//297 299//299
f 302//302 301//301 298//298 300//300
f 304//304 303//303 302//302 300//300
f 299//299 297//297 306//306 305//305
f 305//305 306//306 308//308 307//307
f 310//310 309//309 305//305 307//307
f 311//311 304//304 300//300 299//299
f 297//297 294//294 292//292 306//306
f 306//306 292//292 290//290 308//308
f 308//308 290//290 289//289 312//312
f 291//291 282//282 284//284 288//288
f 293//293 280//280 282//282 291//291
f 313//313 276//276 278//278 295//295
f 277//277 275//275 315//315 314//314
f 268//268 47//47 273//273 267//267
f 204//204 206//206 301//301 302//302
f 207//207 266//266 269//269 206//206
f 198//198 203//203 303//303 196//196
f 196//196 303//303 304//304 194//194
f 194//194 304//304 311//311 192//192
f 192//192 311//311 309//309 190//190
f 190//190 309//309 310//310 188//188
f 173//173 316//316 187//187 185//185
f 184//184 182//182 318//318 317//317
f 317//317 318//318 320//320 319//319
f 319//319 320//320 322//322 321//321
f 321//321 322//322 323//323
f 323//323 322//322 325//325 324//324
f 327//327 326//326 323//323 324//324
f 326//326 327//327 328//328
f 327//327 329//329 328//328
f 330//330 326//326 328//328
f 331//331 329//329 327//327 324//324
f 332//332 331//331 324//324
f 331//331 333//333 330//330 329//329
f 330//330 333//333 334//334 323//323
f 326//326 330//330 323//323
f 325//325 335//335 324//324
f 335//335 325//325 336//336
f 332//332 335//335 336//336
f 334//334 337//337 319//319 321//321
f 182//182 178//178 179//179 318//318
f 338//338 170//170 171//171 177//177
f 180//180 338//338 177//177
f 289//289 168//168 169//169 338//338
f 312//312 289//289 338//338
f 131//131 129//129 339//339 165//165
f 283//283 281//281 128//128 130//130
f 281//281 279//279 127//127 128//128
f 125//125 123//123 193//193 191//191
f 314//314 315//315 120//120 122//122
f 121//121 119//119 197//197 195//195
f 341//341 340//340 114//114 116//116
f 115//115 113//113 201//201 200//200
f 113//113 111//111 262//262 202//202
f 110//110 218//218 262//262 111//111
f 218//218 110//110 107//107 261//261
f 217//217 218//218 261//261
f 107//107 106//106 245//245 261//261
f 344//344 343//343 342//342 104//104
f 105//105 344//344 104//104
f 346//346 345//345 342//342 343//343
f 348//348 347//347 346//346 343//343
f 347//347 350//350 349//349 346//346
f 349//349 350//350 351//351
f 353//353 347//347 348//348 352//352
f 355//355 354//354 353//353 352//352
f 353//353 354//354 356//356
f 354//354 358//358 357//357 356//356
f 357//357 360//360 359//359 356//356
f 359//359 360//360 362//362 361//361
f 362//362 364//364 363//363 361//361
f 366//366 365//365 360//360 357//357
f 367//367 366//366 357//357
f 369//369 366//366 367//367 368//368
f 371//371 366//366 369//369 370//370
f 373//373 372//372 371//371 370//370
f 367//367 358//358 374//374 368//368
f 368//368 374//374 375//375
f 375//375 374//374 355//355 376//376
f 378//378 377//377 375//375 376//376
f 355//355 352//352 376//376
f 374//374 358//358 354//354 355//355
f 379//379 348//348 343//343 344//344
f 379//379 344//344 380//380
f 63//63 378//378 379//379 380//380
f 103//103 248//248 243//243 245//245
f 106//106 103//103 245//245
f 342//342 102//102 104//104
f 101//101 248//248 103//103
f 342//342 345//345 99//99 102//102
f 100//100 247//247 248//248 101//101
f 247//247 100//100 97//97
f 346//346 349//349 95//95 98//98
f 345//345 346//346 98//98
f 97//97 96//96 253//253 244//244
f 247//247 97//97 244//244
f 95//95 349//349 351//351 94//94
f 253//253 96//96 93//93 236//236
f 91//91 363//363 90//90
f 255//255 92//92 89//89
f 363//363 364//364 88//88 90//90
f 87//87 254//254 255//255 89//89
f 86//86 254//254 87//87
f 364//364 362//362 381//381 84//84
f 85//85 364//364 84//84
f 382//382 371//371 372//372 80//80
f 81//81 382//382 80//80
f 78//78 259//259 79//79
f 77//77 372//372 373//373 75//75
f 258//258 259//259 78//78 76//76
f 75//75 373//373 74//74
f 258//258 76//76 73//73
f 260//260 72//72 71//71 216//216
f 67//67 70//70 377//377 64//64
f 65//65 66//66 213//213 71//71
f 61//61 63//63 380//380 108//108
f 109//109 61//61 108//108
f 64//64 377//377 378//378 63//63
f 66//66 62//62 60//60 263//263
f 59//59 61//61 109//109 112//112
f 60//60 58//58 268//268 265//265
f 263//263 60//60 265//265
f 57//57 59//59 112//112 114//114
f 340//340 57//57 114//114
f 35//35 28//28 25//25 56//56
f 25//25 24//24 55//55 56//56
f 19//19 33//33 37//37 22//22
f 21//21 19//19 22//22
f 10//10 383//383 13//13
f 383//383 10//10 8//8
f 6//6 384//384 383//383 8//8
f 3//3 384//384 6//6
f 32//32 2//2 5//5 31//31
f 12//12 13//13 4//4 1//1
f 385//385 12//12 1//1
f 384//384 3//3 4//4
f 12//12 385//385 14//14
f 383//383 384//384 4//4 13//13
f 20//20 385//385 1//1 34//34
f 1//1 2//2 32//32 34//34
f 14//14 385//385 20//20 15//15
f 31//31 5//5 7//7 386//386
f 9//9 11//11 16//16 387//387
f 7//7 9//9 387//387 386//386
f 19//19 20//20 34//34 33//33
f 33//33 29//29 30//30 37//37
f 19//19 21//21 17//17
f 27//27 31//31 386//386 26//26
f 387//387 16//16 18//18 23//23
f 386//386 387//387 23//23 26//26
f 38//38 39//39 42//42
f 388//388 40//40 41//41
f 22//22 40//40 388//388 55//55
f 24//24 22//22 55//55
f 48//48 39//39 36//36 389//389
f 42//42 39//39 48//48 44//44
f 389//389 36//36 35//35 390//390
f 49//49 388//388 41//41 43//43
f 55//55 388//388 49//49 52//52
f 390//390 35//35 56//56 54//54
f 47//47 48//48 389//389 273//273
f 46//46 47//47 268//268 58//58
f 273//273 389//389 390//390 272//272
f 340//340 50//50 45//45 57//57
f 51//51 50//50 340//340 341//341
f 272//272 390//390 54//54 53//53
f 365//365 382//382 381//381
f 382//382 365//365 366//366 371//371
f 370//370 369//369 70//70 68//68
f 360//360 365//365 381//381 362//362
f 358//358 367//367 357//357
f 70//70 369//369 368//368 375//375
f 377//377 70//70 375//375
f 350//350 359//359 361//361 351//351
f 350//350 347//347 353//353 356//356
f 359//359 350//350 356//356
f 348//348 379//379 378//378 376//376
f 352//352 348//348 376//376
f 381//381 382//382 81//81 84//84
f 372//372 77//77 80//80
f 370//370 68//68 69//69 74//74
f 373//373 370//370 74//74
f 364//364 85//85 88//88
f 361//361 363//363 91//91 94//94
f 351//351 361//361 94//94
f 99//99 345//345 98//98
f 380//380 344//344 105//105 108//108
f 83//83 82//82 233//233 232//232
f 82//82 79//79 259//259 256//256
f 233//233 82//82 256//256
f 258//258 73//73 72//72 260//260
f 257//257 258//258 260//260
f 86//86 83//83 232//232 231//231
f 254//254 86//86 231//231
f 227//227 252//252 228//228
f 219//219 223//223 216//216 215//215
f 92//92 255//255 234//234 236//236
f 93//93 92//92 236//236
f 253//253 237//237 239//239 244//244
f 245//245 246//246 261//261
f 338//338 169//169 170//170
f 129//129 126//126 125//125 339//339
f 316//316 166//166 165//165
f 166//166 316//316 173//173 167//167
f 307//307 308//308 312//312 391//391
f 391//391 312//312 338//338 180//180
f 339//339 125//125 191//191 189//189
f 165//165 339//339 189//189 187//187
f 316//316 165//165 187//187
f 172//172 173//173 185//185 184//184
f 392//392 310//310 307//307 391//391
f 181//181 392//392 391//391 180//180
f 188//188 310//310 392//392 186//186
f 186//186 392//392 181//181 183//183
f 270//270 271//271 276//276 313//313
f 295//295 278//278 280//280 293//293
f 53//53 51//51 341//341 393//393
f 274//274 53//53 393//393
f 275//275 274//274 393//393 315//315
f 279//279 277//277 314//314 127//127
f 269//269 270//270 313//313 394//394
f 394//394 313//313 295//295 296//296
f 393//393 341//341 116//116 118//118
f 315//315 393//393 118//118 120//120
f 127//127 314//314 122//122 124//124
f 206//206 269//269 394//394 301//301
f 301//301 394//394 296//296 298//298
f 303//303 203//203 204//204 302//302
f 309//309 311//311 299//299 305//305
f 117//117 115//115 200//200 199//199
f 119//119 117//117 199//199 197//197
f 123//123 121//121 195//195 193//193
f 395//395 286//286 285//285 163//163
f 160//160 395//395 163//163 162//162
f 287//287 286//286 395//395 396//396
f 396//396 395//395 160//160 158//158
f 285//285 283//283 130//130 132//132
f 163//163 285//285 132//132 134//134
f 287//287 396//396 397//397 168//168
f 289//289 287//287 168//168
f 156//156 397//397 396//396 158//158
f 135//135 133//133 164//164 168//168
f 397//397 135//135 168//168
f 135//135 397//397 156//156 137//137
f 398//398 159//159 161//161 154//154
f 152//152 398//398 154//154 153//153
f 157//157 159//159 398//398 399//399
f 399//399 398//398 152//152 151//151
f 149//149 150//150 148//148
f 161//161 162//162 136//136 138//138
f 154//154 161//161 138//138 140//140
f 153//153 142//142 144//144
f 400//400 155//155 157//157 399//399
f 147//147 400//400 399//399 151//151
f 139//139 155//155 400//400 141//141
f 141//141 400//400 147//147 143//143
f 401//401 175//175 174//174 337//337
f 333//333 401//401 337//337 334//334
f 176//176 175//175 401//401 402//402
f 402//402 401//401 333//333 331//331
f 329//329 330//330 328//328
f 174//174 172//172 184//184 317//317
f 337//337 174//174 317//317 319//319
f 334//334 321//321 323//323
f 402//402 331//331 332//332 336//336
f 403//403 402//402 336//336
f 403//403 179//179 176//176 402//402
f 335//335 332//332 324//324
f 318//318 179//179 403//403 320//320
f 322//322 320//320 403//403 336//336
f 325//325 322//322 336//336
f 264//264 201//201 113//113 202//202
f 199//199 200//200 201//201 264//264 210//210 208//208 205//205 204//204 203//203 198//198
