# Blender 5.0.0
# www.blender.org
mtllib Walk_Forward0015.mtl
o Mball.010
v 1.437392 3.579988 1.596979
v 1.121134 3.327068 1.616117
v 1.051592 3.490422 1.937658
v 1.351922 3.718472 1.922767
v 0.884619 3.444615 1.547402
v 0.837957 3.592603 1.876671
v 0.787283 3.908499 1.406637
v 0.738634 4.056001 1.735727
v 0.984006 4.172118 1.365956
v 0.920763 4.296653 1.698988
v 1.361054 4.081086 1.449414
v 1.301090 4.190619 1.779634
v 1.298567 4.193128 1.785946
v 1.383902 4.054610 1.460145
v 1.450172 3.911424 1.132635
v 1.427323 3.937900 1.121903
v 1.516107 3.768156 0.805094
v 1.493686 3.794136 0.794563
v 1.573077 3.304884 0.939397
v 1.506916 3.447404 1.267105
v 1.526922 3.686457 0.696625
v 1.509251 3.570145 0.514259
v 1.116598 3.885417 0.711031
v 1.194466 3.611866 0.449536
v 1.057591 3.455078 0.453466
v 0.920131 3.622202 0.751643
v 1.017500 3.158325 0.892411
v 1.158369 3.046031 0.535953
v 1.253615 3.041047 0.960991
v 1.316188 2.995156 0.568844
v 0.950889 3.301428 1.219891
v 1.187403 3.183882 1.288606
v 1.569593 3.293532 0.941926
v 1.503662 3.436802 1.269468
v 0.964485 3.411759 0.189631
v 1.263571 3.518604 0.101316
v 1.575359 3.173754 0.565646
v 1.601187 3.465418 0.373424
v 1.539034 3.714646 0.266234
v 1.505403 3.579713 0.570120
v 1.447645 3.787704 0.658295
v 1.567617 3.749447 0.337379
v 1.251356 4.241899 0.690718
v 1.379973 4.252515 0.307266
v 1.064294 4.712266 0.660927
v 1.190815 4.743043 0.279493
v 1.168128 4.710011 0.188225
v 1.352787 4.224268 0.223541
v 1.177200 4.209743 0.746767
v 0.991912 4.666144 0.720624
v 0.690415 4.448370 0.740396
v 0.829007 4.028655 0.772648
v 0.564470 4.300094 0.474950
v 0.649197 3.898062 0.526659
v 1.029439 3.623154 0.705219
v 0.843809 3.471796 0.496172
v 0.574897 5.115044 0.614906
v 0.693279 5.231867 0.241939
v 0.371124 5.473143 0.622838
v 0.483587 5.521728 0.238140
v 0.521220 5.865175 0.673497
v 0.633493 5.899053 0.286779
v 0.575233 5.897102 0.685649
v 0.687427 5.929352 0.298831
v 0.413558 6.001040 -0.173643
v 0.391667 5.956664 -0.108886
v 0.811623 6.146575 -0.077483
v 0.871722 6.335101 -0.236531
v 0.536840 6.387769 -0.499902
v 0.992454 6.304616 -0.029242
v 0.026834 6.039386 -0.258151
v 0.150117 6.426114 -0.584410
v 0.165392 6.498568 -0.617941
v 0.552115 6.460222 -0.533433
v 0.604642 6.797498 -0.623971
v 0.217918 6.835843 -0.708479
v 0.629177 7.195272 -0.598765
v 0.242453 7.233617 -0.683273
v 0.230434 7.553059 -0.551118
v 0.617158 7.514714 -0.466611
v 0.610446 7.581092 -0.424282
v 0.223722 7.619437 -0.508790
v 0.144699 7.950271 -0.137060
v 0.531423 7.911926 -0.052553
v 0.514257 7.945512 0.017441
v 0.127534 7.983857 -0.067067
v 0.042018 8.072748 0.259588
v 0.428742 8.034403 0.344096
v -0.070128 8.041763 0.646512
v 0.316596 8.003418 0.731020
v 0.216959 7.863372 1.043168
v -0.169764 7.901716 0.958660
v -0.191740 7.857316 1.023711
v 0.194983 7.818971 1.108219
v 0.071701 7.432242 1.434477
v -0.315023 7.470587 1.349970
v -0.330298 7.398134 1.383500
v 0.056425 7.359789 1.468008
v 0.003899 7.022514 1.558547
v -0.382824 7.060859 1.474039
v -0.407360 6.663085 1.448833
v -0.020636 6.624740 1.533340
v -0.395340 6.343643 1.316678
v -0.008617 6.305298 1.401186
v -0.001905 6.238919 1.358858
v -0.388628 6.277265 1.274350
v -0.309605 5.946431 0.902620
v 0.077118 5.908086 0.987128
v 0.094199 5.874476 0.917428
v -0.292493 5.912690 0.832783
v -0.255736 5.521294 0.594126
v 0.125291 5.483298 0.696700
v -0.310016 5.019176 0.637607
v 0.081852 4.987803 0.736531
v -0.319646 4.602589 0.583742
v 0.068618 4.575497 0.678027
v -0.270716 4.264679 0.484697
v 0.091549 4.250793 0.547584
v -0.189076 3.904484 0.457331
v 0.171148 4.097300 0.467545
v -0.158955 3.520902 0.429608
v 0.179045 3.773189 0.540718
v -0.146180 3.132773 0.384109
v 0.168164 3.402706 0.621684
v -0.135990 2.747780 0.279126
v 0.153760 3.006969 0.636220
v 0.554792 3.366220 0.525611
v 0.536413 2.978557 0.607605
v 0.140476 2.594365 0.622004
v 0.512066 2.633376 0.777475
v 0.129668 2.278652 0.610232
v 0.495006 2.266907 0.900199
v 0.145742 2.185430 0.668585
v 0.519447 1.893545 1.010553
v 0.198818 1.801044 0.859408
v 0.544594 1.517909 1.116459
v 0.271741 1.426573 0.967753
v 0.570572 1.132461 1.214747
v 0.305896 1.059026 1.075500
v 0.532153 0.664381 1.148923
v 0.293298 0.706843 1.062515
v 0.488204 0.269481 1.116622
v 0.223583 0.316863 1.022831
v 0.453829 -0.063411 1.005492
v 0.450216 -0.110953 0.948906
v 0.347651 -0.057354 0.600581
v 0.201521 0.357716 0.633115
v 0.462989 -0.095866 0.601948
v 0.466548 -0.071330 0.577965
v 0.541771 -0.084879 0.605349
v 0.523442 0.327821 0.478071
v 0.800090 0.278683 0.643755
v 0.695171 0.249992 1.034413
v 0.777209 0.645022 1.069863
v 0.278001 0.931506 0.694148
v 0.235876 1.261959 0.594871
v 0.615068 0.893875 0.486915
v 0.597326 1.205901 0.385427
v 0.975911 0.996783 0.705866
v 0.935018 1.328813 0.618383
v 0.895680 1.069080 1.090823
v 0.867476 1.478886 0.989910
v 0.798237 1.853643 0.873850
v 0.129876 2.164882 0.592099
v -0.119687 2.027307 -0.077788
v -0.119251 2.001099 -0.091905
v -0.110478 1.607722 -0.297917
v 0.152519 1.827447 0.225369
v -0.133506 1.710591 -0.528001
v -0.132515 1.633663 -0.602566
v -0.187583 1.333197 -0.719000
v -0.235467 1.188253 -0.332882
v -0.146908 1.574988 -0.246423
v -0.425850 0.794912 -0.413506
v -0.323468 0.965096 -0.770813
v -0.518519 1.028300 -0.875857
v -0.535797 1.396695 -0.891051
v -0.810339 1.321088 -0.693224
v -0.834834 0.967093 -0.756144
v -0.539543 1.792810 -0.842507
v -0.838890 1.703072 -0.602520
v -0.715973 1.178910 -0.312995
v -0.759935 1.561730 -0.222163
v -0.496400 1.148062 -0.228410
v -0.494768 1.513906 -0.091801
v -0.734283 1.944581 -0.133071
v -0.494203 1.899651 -0.001834
v -0.719150 2.327266 -0.051892
v -0.501033 2.293628 0.083705
v -0.716008 2.716125 0.021348
v -0.520050 2.689130 0.177375
v -0.629076 3.113670 0.091727
v -0.543370 3.101722 0.179836
v -0.596368 3.511007 0.162934
v -0.563248 3.504465 0.202635
v -0.546213 3.974477 0.160650
v -0.518575 3.962410 0.200273
v -0.503456 4.407595 0.101795
v -0.477535 4.396804 0.163179
v -0.604243 4.585740 0.324573
v -0.673165 5.047595 0.378259
v -0.659867 5.134129 0.351358
v -0.491310 4.631210 -0.195812
v -0.463380 4.636121 -0.219041
v -0.513284 5.066455 -0.152519
v -0.084191 4.620814 -0.371674
v -0.078231 5.014242 -0.264347
v -0.561891 5.250959 -0.011889
v -0.072962 5.306415 -0.148012
v -0.546823 5.260257 -0.007213
v -0.083376 5.588290 0.002798
v -0.268812 5.593661 0.073547
v 0.004883 5.994992 -0.193187
v -0.415498 6.002510 0.057329
v -0.472376 6.046320 0.045269
v -0.348548 6.261610 -0.331007
v -0.584515 6.014386 0.432005
v -0.527685 5.968976 0.443951
v -0.798720 6.440113 -0.009223
v -0.910866 6.409128 0.377701
v -0.944494 6.482303 0.373815
v -0.832348 6.513288 -0.013108
v -0.507802 6.453372 -0.357081
v -0.662038 6.868872 -0.370940
v -0.719519 6.867224 -0.311702
v -0.637503 7.266646 -0.345734
v -0.694984 7.264998 -0.286496
v -0.767306 7.567779 0.053714
v -0.434197 7.646695 -0.281462
v -0.725114 7.633436 0.066397
v -0.354171 7.957631 0.165356
v -0.253366 7.804737 -0.233220
v -0.214843 7.643459 -0.414434
v -0.466317 7.926646 0.552280
v -0.837261 7.602451 0.453320
v -0.589806 7.711782 0.927551
v -0.770636 7.553740 0.879310
v -0.879452 7.536794 0.440637
v -0.973942 7.173692 0.815038
v -0.992282 7.182858 0.739231
v -1.016817 6.785083 0.714025
v -0.998477 6.775917 0.789831
v -0.750817 6.713384 1.215049
v -0.726282 7.111158 1.240255
v -0.723510 6.329933 1.010979
v -0.844242 6.360417 0.803690
v -0.669788 7.101429 1.292933
v -0.694323 6.703654 1.267726
v -1.035530 6.821695 0.370304
v -1.010995 7.219470 0.395511
v -0.923383 6.852681 -0.016620
v -0.898848 7.250455 0.008587
v -0.649905 7.523255 1.086599
v -0.284278 7.989933 0.182574
v -0.396425 7.958948 0.569498
v -0.187537 7.260008 -0.618504
v -0.212072 6.862233 -0.643711
v -0.133591 6.858579 -0.666893
v -0.109056 7.256354 -0.641686
v -0.288449 6.450136 -0.490054
v -0.684987 6.168655 0.829765
v -0.381118 5.546412 0.458224
v 0.308374 5.552376 0.068188
v -0.563021 5.256580 -0.002443
v 0.331076 5.272556 -0.085521
v 0.345000 4.927452 -0.228798
v 0.707441 4.854298 -0.013869
v 0.704731 5.179824 0.168303
v 0.323112 4.519945 -0.345104
v 0.642984 4.445222 -0.121480
v 0.702663 4.415564 0.019731
v 0.689249 4.328031 0.096640
v 0.938206 4.501691 -0.002369
v 0.591650 4.361044 0.387193
v 0.634119 4.047186 0.244673
v 0.679777 3.951338 -0.124553
v 0.676198 3.685163 0.318206
v 0.693520 3.515733 -0.059789
v 0.655265 3.315047 0.431480
v 0.670031 3.135076 0.056648
v 0.617240 2.942155 0.541826
v 0.653306 2.761195 0.169079
v 0.696939 2.568418 0.657340
v 0.744572 2.390350 0.284523
v 0.734385 2.221228 0.766240
v 0.792444 2.048234 0.391978
v 0.539147 1.935856 0.165994
v 0.541770 2.317061 0.067874
v 0.152306 2.029814 0.129601
v 0.156961 2.377994 -0.019520
v 0.558938 2.724687 0.048638
v 0.171618 2.738879 -0.164057
v 0.576831 3.098435 -0.070782
v 0.183789 3.095588 -0.314808
v 0.598007 3.486415 -0.185135
v 0.210749 3.509473 -0.405533
v -0.211179 3.293497 -0.531865
v -0.211849 3.692671 -0.499603
v -0.594521 3.263173 -0.395834
v -0.601910 3.635706 -0.266716
v -0.191502 4.118205 -0.458172
v -0.541634 4.124076 -0.236683
v -0.567921 4.111139 -0.200942
v -0.630350 3.622540 -0.226216
v -0.586574 2.901842 -0.554585
v -0.198840 2.903480 -0.546371
v -0.567471 2.525297 -0.644176
v -0.178818 2.508834 -0.524078
v -0.780653 2.834248 -0.363973
v -0.795255 2.448508 -0.436132
v -0.679526 3.229121 -0.294464
v -0.157353 2.105091 -0.490322
v 0.609259 3.941194 -0.242913
v 0.571894 3.735068 0.416674
v 0.541047 4.075090 0.341251
v -0.123263 1.996710 -0.089804
v -0.499787 0.782199 -0.378116
v -0.739042 0.788346 -0.402920
v -0.515765 0.405989 -0.649170
v -0.853015 0.513345 -0.706439
v -0.493077 0.240589 -0.948135
v -0.852564 0.353632 -1.013287
v -0.464016 0.170690 -1.207742
v -0.800526 0.707751 -1.356050
v -0.873809 0.388534 -1.027756
v -0.450734 0.206012 -1.282083
v -0.682180 0.628168 -1.455486
v -0.394647 0.584376 -1.445055
v -0.391418 0.630825 -1.438192
v -0.357904 0.591986 -1.421469
v -0.398901 0.921870 -1.203162
v -0.812021 0.832463 -1.191194
v -0.236538 0.737506 -1.120146
v -0.383332 0.301275 -0.964065
v -0.834719 0.808751 -1.183464
v -0.847348 0.912050 -0.915358
v -0.388086 0.467335 -0.665310
v -0.138112 1.715859 -0.561662
v -0.126923 2.371585 0.106283
v 0.558670 5.017179 0.649474
v 0.503630 4.628421 0.644192
v 0.330873 6.602003 1.491754
v 0.409354 6.598349 1.468572
v 0.436661 6.214898 1.264502
v 0.355408 6.999777 1.516961
v 0.433889 6.996123 1.493778
v 0.883855 6.989485 1.221008
v 0.859320 6.591710 1.195801
v 0.510266 7.408221 1.340122
v 0.729620 7.404984 1.207149
v 0.570365 7.596747 1.181074
v 0.916801 6.593359 1.136563
v 0.941336 6.991133 1.161770
v 1.145201 7.005676 0.866687
v 1.120666 6.607902 0.841481
v 1.054165 7.345069 0.863176
v 1.166312 7.376054 0.476252
v 1.257347 7.036661 0.479764
v 1.020537 7.418243 0.859291
v 1.132683 7.449229 0.472367
v 0.693853 7.811611 0.805803
v 0.806000 7.842596 0.418879
v 0.628771 7.857296 0.793526
v 0.740918 7.888281 0.406603
v 1.066059 7.497940 0.046378
v 1.220294 7.082439 0.060237
v 1.238634 7.073273 0.136043
v 1.214099 6.675499 0.110836
v 1.195759 6.684665 0.035030
v 0.948099 6.747199 -0.390187
v 0.972634 7.144973 -0.364981
v 0.916140 7.154702 -0.417658
v 0.891605 6.756927 -0.442865
v 1.232812 6.638886 0.454557
v 1.101270 6.321563 0.409430
v 0.989123 6.290578 0.796354
v 1.059078 6.255906 0.396747
v 0.946931 6.224921 0.783671
v 0.656014 6.211661 1.131530
v 0.475183 6.053620 1.083288
v 0.906804 7.689702 0.020303
v 0.945327 7.528424 -0.160911
v 0.898604 4.222089 2.015539
v 0.980943 3.739567 2.123657
v 1.440647 3.590591 1.594616
v 0.853553 3.765313 1.079126
v 1.050276 4.028931 1.038445
v 1.371377 3.773138 0.711458
v 1.078341 4.046102 0.030143
v 0.777591 3.906601 0.144695
v -0.543963 2.166079 -0.744748
v -0.808051 2.082022 -0.514628
v 0.485602 4.327958 0.459685
v 0.281792 4.073123 -0.437950
v 0.858829 1.684006 0.499220
v 0.562795 1.556669 0.276036
v 0.168427 1.635376 0.411549
v 0.886563 0.656652 0.686993
v 0.575773 0.684279 0.513840
v 0.272037 0.714236 0.678357
v -0.248246 0.859916 -0.845952
v -0.436959 1.034575 -0.944606
v -0.848944 0.919660 -0.895047
vn 0.8018 -0.4148 0.4303
vn 0.0508 -0.9020 0.4287
vn 0.0112 -0.7858 0.6183
vn 0.7631 -0.1579 0.6267
vn -0.8077 -0.5779 0.1170
vn -0.8123 -0.4577 0.3615
vn -0.9584 0.1601 -0.2361
vn -0.9723 0.2261 0.0593
vn -0.2884 0.8686 -0.4029
vn -0.3093 0.9439 -0.1160
vn 0.5495 0.8099 -0.2053
vn 0.7650 0.6431 -0.0343
vn 0.6514 0.6989 0.2952
vn 0.9105 0.4123 0.0323
vn 0.9139 0.4059 0.0071
vn 0.5581 0.7957 -0.2355
vn 0.9168 0.3889 -0.0908
vn 0.5556 0.7485 -0.3621
vn 0.9955 0.0384 0.0862
vn 0.9767 -0.0334 0.2119
vn 0.8173 0.4600 -0.3471
vn 0.9917 0.1027 0.0769
vn -0.2434 0.7895 -0.5634
vn -0.3328 -0.3637 -0.8701
vn -0.7973 -0.5952 0.0999
vn -0.9177 0.1325 -0.3746
vn -0.7805 -0.6252 -0.0062
vn -0.5007 -0.7908 -0.3521
vn 0.0820 -0.9528 0.2924
vn 0.1906 -0.9436 -0.2708
vn -0.8045 -0.5866 0.0932
vn 0.0550 -0.9109 0.4089
vn 0.8713 -0.4256 0.2445
vn 0.7941 -0.4816 0.3708
vn -0.5645 -0.5746 -0.5927
vn 0.2156 -0.3220 -0.9219
vn 0.8387 -0.5010 -0.2135
vn 0.9390 -0.2043 -0.2766
vn 0.7472 0.0629 -0.6616
vn 0.7099 -0.2340 0.6644
vn 0.7782 0.1266 0.6152
vn 0.9713 0.2315 -0.0546
vn 0.7373 0.3006 0.6050
vn 0.9349 0.3519 -0.0455
vn 0.6234 0.4886 0.6104
vn 0.8292 0.5584 -0.0222
vn 0.6884 0.3908 -0.6110
vn 0.7288 0.2130 -0.6507
vn 0.2934 0.1084 0.9498
vn 0.1922 0.2469 0.9498
vn -0.3784 -0.0818 0.9220
vn -0.3810 -0.1500 0.9123
vn -0.8675 -0.4816 0.1244
vn -0.9168 -0.3323 0.2215
vn -0.0947 -0.5664 0.8186
vn -0.6961 -0.6365 0.3321
vn 0.4926 0.4732 0.7304
vn 0.7488 0.6540 -0.1079
vn 0.6434 -0.0471 0.7641
vn 0.9616 0.1076 -0.2524
vn 0.5419 -0.7235 0.4277
vn 0.7002 -0.6834 -0.2067
vn 0.4776 -0.8382 0.2634
vn 0.5670 -0.8166 -0.1078
vn 0.2511 -0.7704 -0.5861
vn 0.3663 -0.6763 -0.6391
vn 0.5401 -0.7291 -0.4204
vn 0.6094 -0.5056 -0.6108
vn 0.3091 -0.5424 -0.7812
vn 0.7709 -0.5346 -0.3462
vn -0.1130 -0.7287 -0.6755
vn -0.0436 -0.5072 -0.8607
vn -0.0150 -0.3374 -0.9412
vn 0.3509 -0.3722 -0.8593
vn 0.3617 -0.1272 -0.9236
vn 0.0437 -0.1000 -0.9940
vn 0.3897 0.2004 -0.8989
vn 0.0689 0.2228 -0.9724
vn 0.0279 0.4790 -0.8774
vn 0.4165 0.4483 -0.7909
vn 0.3960 0.6232 -0.6744
vn 0.0357 0.6363 -0.7706
vn 0.0105 0.8483 -0.5294
vn 0.3760 0.8179 -0.4355
vn 0.3610 0.8948 -0.2629
vn -0.0286 0.9359 -0.3512
vn -0.0478 0.9935 -0.1037
vn 0.2661 0.9638 -0.0157
vn -0.1186 0.9705 0.2097
vn 0.1925 0.9361 0.2945
vn 0.1707 0.8258 0.5375
vn -0.2017 0.8776 0.4349
vn -0.2376 0.7675 0.5954
vn 0.1123 0.7304 0.6737
vn 0.0441 0.5048 0.8621
vn -0.3091 0.5424 0.7812
vn -0.3509 0.3722 0.8593
vn 0.0168 0.3350 0.9421
vn -0.0437 0.1000 0.9940
vn -0.3617 0.1272 0.9236
vn -0.3897 -0.2004 0.8989
vn -0.0689 -0.2228 0.9724
vn -0.4165 -0.4483 0.7909
vn -0.0478 -0.4709 0.8809
vn -0.0482 -0.6447 0.7629
vn -0.3960 -0.6232 0.6744
vn -0.3677 -0.8209 0.4370
vn -0.0080 -0.8416 0.5401
vn 0.0624 -0.7445 0.6647
vn -0.4708 -0.7308 0.4942
vn -0.5406 -0.1518 0.8275
vn 0.0544 -0.1855 0.9811
vn -0.4579 0.0085 0.8890
vn -0.0358 -0.0035 0.9994
vn -0.4754 -0.2767 0.8351
vn -0.0356 -0.2617 0.9645
vn -0.4866 -0.2740 0.8296
vn 0.0380 -0.3351 0.9414
vn -0.3945 -0.0408 0.9180
vn 0.1310 -0.1129 0.9849
vn -0.4599 -0.0048 0.8880
vn 0.0072 0.1468 0.9891
vn -0.5213 -0.0816 0.8494
vn -0.1702 0.0960 0.9807
vn -0.5366 -0.1802 0.8244
vn -0.3850 0.0337 0.9223
vn 0.4828 0.1673 0.8596
vn 0.3694 0.2091 0.9054
vn -0.6401 0.0269 0.7678
vn 0.1349 0.2773 0.9513
vn -0.8122 0.0460 0.5816
vn -0.0250 0.2998 0.9537
vn -0.8481 0.1355 0.5123
vn -0.0349 0.3013 0.9529
vn -0.8368 0.0689 0.5431
vn -0.0544 0.2596 0.9642
vn -0.8323 0.0467 0.5523
vn -0.0396 0.0851 0.9956
vn -0.8000 0.0170 0.5997
vn -0.0264 -0.1009 0.9945
vn -0.7966 0.0270 0.6039
vn -0.0177 -0.2008 0.9795
vn -0.8356 -0.1903 0.5153
vn -0.0640 -0.7739 0.6300
vn -0.0132 -0.8961 0.4436
vn -0.7120 -0.5500 -0.4366
vn -0.8800 -0.0563 -0.4717
vn -0.0739 -0.9156 -0.3951
vn -0.0062 -0.4518 -0.8921
vn 0.5658 -0.7158 -0.4092
vn 0.0299 -0.0466 -0.9985
vn 0.8611 -0.3297 -0.3871
vn 0.6991 -0.3719 0.6107
vn 0.7009 -0.2178 0.6792
vn -0.9090 -0.0890 -0.4072
vn -0.8830 -0.2629 -0.3888
vn 0.0568 -0.1764 -0.9827
vn 0.0755 -0.3039 -0.9497
vn 0.9435 -0.1382 -0.3013
vn 0.9257 0.0068 -0.3781
vn 0.7600 -0.0085 0.6498
vn 0.7871 0.2583 0.5601
vn 0.8065 0.2878 0.5164
vn -0.9637 -0.1262 0.2352
vn -0.4452 -0.2985 0.8442
vn -0.0679 -0.5094 0.8578
vn 0.7819 -0.6218 0.0455
vn -0.5981 -0.6672 -0.4440
vn 0.9747 -0.0774 -0.2096
vn 0.8560 0.0948 -0.5082
vn 0.8412 -0.0796 -0.5348
vn 0.7943 -0.3680 0.4835
vn 0.7396 -0.3577 0.5701
vn 0.6808 -0.3908 0.6195
vn 0.9789 0.1450 -0.1438
vn -0.0224 0.6759 -0.7367
vn -0.0464 0.1084 -0.9930
vn -0.9197 0.0130 -0.3924
vn -0.9526 0.2844 -0.1081
vn -0.0403 0.1968 -0.9796
vn -0.9465 0.0601 -0.3171
vn -0.7384 -0.1987 0.6445
vn -0.8051 -0.1599 0.5711
vn 0.0412 -0.3335 0.9418
vn -0.0340 -0.2918 0.9559
vn -0.8102 -0.0930 0.5787
vn -0.1182 -0.2657 0.9568
vn -0.8313 -0.1012 0.5465
vn -0.2643 -0.2703 0.9258
vn -0.8610 -0.0071 0.5086
vn -0.4227 -0.1805 0.8881
vn -0.8793 0.0510 0.4736
vn -0.5610 -0.0800 0.8239
vn -0.9082 0.0515 0.4153
vn -0.6459 -0.0264 0.7629
vn -0.9323 0.1203 0.3411
vn -0.7427 0.0412 0.6683
vn -0.9987 0.0382 0.0332
vn -0.9268 -0.1301 0.3522
vn -0.9232 -0.2593 0.2836
vn -0.9476 0.0250 0.3184
vn -0.8351 0.3771 0.4005
vn -0.9350 0.0255 -0.3539
vn -0.6427 0.1076 -0.7585
vn -0.6696 0.1710 -0.7228
vn -0.1193 0.2068 -0.9711
vn -0.0599 0.3203 -0.9454
vn -0.7258 0.2699 -0.6327
vn -0.0442 0.4485 -0.8927
vn -0.5943 0.6676 -0.4485
vn -0.1564 0.0657 -0.9855
vn -0.7080 0.1436 -0.6915
vn -0.1860 -0.6226 -0.7601
vn -0.6072 -0.5870 -0.5355
vn -0.5732 -0.7070 -0.4142
vn -0.4114 -0.6249 -0.6635
vn -0.6838 -0.7255 -0.0776
vn -0.7635 -0.6452 0.0296
vn -0.7563 -0.4848 -0.4393
vn -0.8436 -0.5271 -0.1028
vn -0.9319 -0.3478 -0.1029
vn -0.8343 -0.3117 -0.4547
vn -0.5936 -0.4007 -0.6979
vn -0.6344 -0.0938 -0.7673
vn -0.7554 -0.1117 -0.6457
vn -0.6203 0.2662 -0.7378
vn -0.7491 0.2711 -0.6045
vn -0.7884 0.4847 -0.3788
vn -0.5358 0.5728 -0.6203
vn -0.6819 0.6548 -0.3259
vn -0.4605 0.8487 -0.2602
vn -0.3196 0.7733 -0.5476
vn -0.2848 0.5673 -0.7727
vn -0.5387 0.8364 0.1010
vn -0.7776 0.6285 0.0163
vn -0.5431 0.7265 0.4210
vn -0.7719 0.5344 0.3443
vn -0.8866 0.4620 -0.0199
vn -0.9010 0.2249 0.3710
vn -0.9479 0.2583 0.1865
vn -0.9821 -0.1377 0.1285
vn -0.9327 -0.1498 0.3282
vn -0.7666 -0.1798 0.6165
vn -0.7372 0.1985 0.6459
vn -0.6936 -0.5048 0.5140
vn -0.8471 -0.4714 0.2453
vn -0.5941 0.1967 0.7799
vn -0.6161 -0.2050 0.7606
vn -0.9880 -0.0933 -0.1232
vn -0.9689 0.2301 -0.0916
vn -0.9002 -0.0760 -0.4288
vn -0.8837 0.2427 -0.4003
vn -0.6094 0.5056 0.6108
vn -0.2932 0.9290 -0.2258
vn -0.3645 0.9171 0.1613
vn -0.3634 0.2679 -0.8923
vn -0.3960 -0.0876 -0.9141
vn -0.2124 -0.1063 -0.9714
vn -0.1956 0.2789 -0.9402
vn -0.3527 -0.4089 -0.8417
vn -0.6554 -0.7001 0.2834
vn -0.9501 0.0292 0.3106
vn 0.5166 0.0328 -0.8556
vn -0.9445 0.3046 -0.1232
vn 0.3945 0.4365 -0.8086
vn 0.3648 0.2988 -0.8818
vn 0.5003 0.3004 -0.8121
vn 0.6073 0.5139 -0.6059
vn 0.3449 0.1879 -0.9197
vn 0.6251 0.0169 -0.7804
vn 0.7454 -0.5090 -0.4304
vn -0.7196 -0.2772 -0.6366
vn 0.3387 0.0220 -0.9406
vn -0.2862 -0.9381 0.1949
vn 0.9183 0.0228 0.3953
vn 0.9696 0.0154 -0.2444
vn 0.9224 0.1095 0.3704
vn 0.9595 -0.0721 -0.2724
vn 0.9100 0.0551 0.4109
vn 0.9586 -0.1346 -0.2510
vn 0.8870 0.1750 0.4273
vn 0.9499 -0.0132 -0.3122
vn 0.8626 0.2667 0.4298
vn 0.9396 0.0462 -0.3392
vn 0.8299 0.2544 0.4965
vn 0.9342 0.0169 -0.3564
vn 0.3423 -0.2997 -0.8905
vn 0.4835 -0.1998 -0.8523
vn 0.5612 -0.2754 -0.7805
vn 0.5680 -0.2007 -0.7982
vn 0.6227 -0.1940 -0.7580
vn 0.5636 -0.2114 -0.7986
vn 0.6606 -0.2542 -0.7064
vn 0.4865 -0.2009 -0.8503
vn 0.6669 -0.1698 -0.7255
vn 0.3664 -0.1126 -0.9236
vn 0.0539 0.0531 -0.9971
vn -0.1577 0.0616 -0.9856
vn -0.5689 0.2270 -0.7904
vn -0.6795 0.1590 -0.7162
vn -0.2135 0.1198 -0.9696
vn -0.6487 0.1380 -0.7484
vn -0.9563 0.1361 -0.2586
vn -0.9644 0.1408 -0.2238
vn -0.3954 0.2008 -0.8963
vn 0.3434 0.0084 -0.9392
vn -0.2351 0.1485 -0.9606
vn 0.5859 -0.0124 -0.8103
vn -0.9530 0.1656 -0.2537
vn -0.9531 0.0830 -0.2909
vn -0.9494 0.2038 -0.2391
vn 0.7357 0.0771 -0.6729
vn 0.6982 -0.0095 -0.7158
vn 0.5395 0.2156 0.8139
vn 0.5404 -0.0397 0.8404
vn 0.5919 -0.3145 0.7421
vn 0.0848 -0.4773 0.8746
vn -0.6514 -0.3057 0.6944
vn 0.0618 -0.7693 0.6360
vn -0.7883 -0.4417 0.4284
vn 0.0699 -0.9239 0.3763
vn -0.7373 -0.6755 -0.0114
vn 0.2090 -0.9392 -0.2723
vn -0.6687 0.2138 -0.7121
vn -0.9348 -0.3550 0.0108
vn 0.3073 -0.7915 -0.5283
vn -0.4045 -0.0036 -0.9145
vn 0.2909 -0.1714 -0.9413
vn 0.3730 0.4127 -0.8310
vn 0.8124 -0.0590 -0.5801
vn 0.3339 0.7936 -0.5085
vn -0.4776 0.7567 -0.4464
vn 0.9730 0.1282 -0.1920
vn 0.7863 -0.5903 0.1825
vn -0.9032 0.3353 -0.2678
vn -0.7913 0.5660 -0.2312
vn 0.7323 -0.4726 0.4903
vn 0.8226 0.1425 -0.5505
vn -0.5031 -0.2671 0.8219
vn 0.1300 0.2365 0.9629
vn -0.0930 -0.1802 0.9792
vn 0.1800 -0.2597 0.9488
vn 0.3600 -0.2612 0.8956
vn 0.2880 -0.5698 0.7697
vn 0.2223 0.1249 0.9669
vn 0.3876 0.1007 0.9163
vn 0.6386 0.0872 0.7646
vn 0.6153 -0.2730 0.7395
vn 0.3515 0.4078 0.8427
vn 0.5921 0.4015 0.6987
vn 0.4114 0.6248 0.6636
vn 0.7340 -0.2896 0.6143
vn 0.7682 0.0939 0.6333
vn 0.9002 0.0760 0.4288
vn 0.8837 -0.2427 0.4003
vn 0.8323 0.3218 0.4513
vn 0.9359 0.3379 0.0995
vn 0.9880 0.0933 0.1232
vn 0.7504 0.5006 0.4316
vn 0.8533 0.5123 0.0967
vn 0.5642 0.7179 0.4079
vn 0.6502 0.7576 0.0572
vn 0.4173 0.8198 0.3922
vn 0.4971 0.8676 0.0155
vn 0.8479 0.4708 -0.2436
vn 0.9299 0.1577 -0.3324
vn 0.9768 0.1581 -0.1445
vn 0.9563 -0.2406 -0.1661
vn 0.9048 -0.2184 -0.3656
vn 0.7372 -0.1985 -0.6459
vn 0.7666 0.1798 -0.6165
vn 0.6161 0.2050 -0.7606
vn 0.5941 -0.1967 -0.7799
vn 0.9689 -0.2301 0.0916
vn 0.8810 -0.4726 0.0214
vn 0.7916 -0.4754 0.3839
vn 0.7668 -0.6417 -0.0138
vn 0.6912 -0.6392 0.3372
vn 0.5375 -0.5709 0.6206
vn 0.3210 -0.7693 0.5524
vn 0.6532 0.7033 -0.2803
vn 0.6936 0.5048 -0.5140
vn -0.3138 0.6115 0.7264
vn -0.1841 -0.1498 0.9714
vn 0.9065 -0.0151 0.4219
vn -0.9528 0.1550 -0.2610
vn -0.2891 0.8541 -0.4325
vn 0.3452 -0.1937 0.9183
vn 0.1360 -0.0419 -0.9898
vn -0.6665 -0.2728 -0.6938
vn -0.0950 0.2065 -0.9738
vn -0.9485 0.1111 -0.2967
vn 0.0843 -0.5715 0.8163
vn 0.3246 0.0593 -0.9440
vn 0.9178 0.0331 -0.3957
vn 0.1734 -0.3319 -0.9272
vn -0.8591 -0.2917 -0.4205
vn 0.9053 -0.2029 -0.3733
vn 0.0155 0.0216 -0.9996
vn -0.8639 0.1239 -0.4882
vn 0.9614 0.2466 0.1224
vn 0.3074 0.9252 -0.2224
vn -0.8072 0.5765 -0.1265
s 1
f 4//4 3//3 2//2 1//1
f 2//2 3//3 6//6 5//5
f 5//5 6//6 8//8 7//7
f 8//8 10//10 9//9 7//7
f 13//13 12//12 11//11 9//9
f 10//10 13//13 9//9
f 11//11 12//12 14//14
f 16//16 11//11 14//14 15//15
f 18//18 16//16 15//15 17//17
f 15//15 20//20 19//19 17//17
f 21//21 18//18 17//17
f 23//23 18//18 21//21 22//22
f 24//24 23//23 22//22
f 26//26 23//23 24//24 25//25
f 28//28 27//27 26//26 25//25
f 30//30 29//29 27//27 28//28
f 29//29 32//32 31//31 27//27
f 34//34 32//32 29//29 33//33
f 36//36 30//30 28//28 35//35
f 38//38 37//37 30//30 36//36
f 39//39 38//38 36//36
f 37//37 38//38 40//40 22//22
f 40//40 38//38 42//42 41//41
f 41//41 42//42 44//44 43//43
f 43//43 44//44 46//46 45//45
f 44//44 48//48 47//47 46//46
f 50//50 49//49 43//43 45//45
f 52//52 49//49 50//50 51//51
f 54//54 52//52 51//51 53//53
f 56//56 55//55 52//52 54//54
f 45//45 46//46 58//58 57//57
f 58//58 60//60 59//59 57//57
f 60//60 62//62 61//61 59//59
f 61//61 62//62 64//64 63//63
f 64//64 62//62 66//66 65//65
f 67//67 64//64 65//65
f 69//69 68//68 67//67 65//65
f 68//68 70//70 67//67
f 72//72 69//69 65//65 71//71
f 74//74 69//69 72//72 73//73
f 76//76 75//75 74//74 73//73
f 78//78 77//77 75//75 76//76
f 80//80 77//77 78//78 79//79
f 82//82 81//81 80//80 79//79
f 84//84 81//81 82//82 83//83
f 86//86 85//85 84//84 83//83
f 88//88 85//85 86//86 87//87
f 90//90 88//88 87//87 89//89
f 92//92 91//91 90//90 89//89
f 94//94 91//91 92//92 93//93
f 96//96 95//95 94//94 93//93
f 98//98 95//95 96//96 97//97
f 100//100 99//99 98//98 97//97
f 102//102 99//99 100//100 101//101
f 104//104 102//102 101//101 103//103
f 106//106 105//105 104//104 103//103
f 108//108 105//105 106//106 107//107
f 110//110 109//109 108//108 107//107
f 112//112 109//109 110//110 111//111
f 114//114 112//112 111//111 113//113
f 116//116 114//114 113//113 115//115
f 118//118 116//116 115//115 117//117
f 120//120 118//118 117//117 119//119
f 122//122 120//120 119//119 121//121
f 124//124 122//122 121//121 123//123
f 126//126 124//124 123//123 125//125
f 128//128 127//127 124//124 126//126
f 130//130 128//128 126//126 129//129
f 132//132 130//130 129//129 131//131
f 133//133 132//132 131//131
f 132//132 133//133 135//135 134//134
f 134//134 135//135 137//137 136//136
f 136//136 137//137 139//139 138//138
f 138//138 139//139 141//141 140//140
f 140//140 141//141 143//143 142//142
f 142//142 143//143 144//144
f 147//147 146//146 145//145 144//144
f 143//143 147//147 144//144
f 145//145 146//146 148//148
f 146//146 149//149 148//148
f 150//150 145//145 148//148
f 146//146 147//147 151//151 149//149
f 151//151 152//152 150//150 149//149
f 150//150 152//152 153//153 144//144
f 145//145 150//150 144//144
f 153//153 154//154 140//140 142//142
f 137//137 156//156 155//155 139//139
f 155//155 156//156 158//158 157//157
f 158//158 160//160 159//159 157//157
f 159//159 160//160 162//162 161//161
f 162//162 163//163 134//134 136//136
f 164//164 133//133 131//131
f 166//166 164//164 131//131 165//165
f 168//168 164//164 166//166 167//167
f 169//169 168//168 167//167
f 169//169 167//167 170//170
f 173//173 172//172 171//171 170//170
f 167//167 173//173 170//170
f 175//175 171//171 172//172 174//174
f 177//177 171//171 175//175 176//176
f 179//179 178//178 177//177 176//176
f 178//178 181//181 180//180 177//177
f 183//183 181//181 178//178 182//182
f 185//185 183//183 182//182 184//184
f 187//187 186//186 183//183 185//185
f 189//189 188//188 186//186 187//187
f 191//191 190//190 188//188 189//189
f 193//193 192//192 190//190 191//191
f 195//195 194//194 192//192 193//193
f 197//197 196//196 194//194 195//195
f 199//199 198//198 196//196 197//197
f 205//205 207//207 206//206 204//204
f 209//209 207//207 205//205 208//208
f 210//210 209//209 208//208
f 210//210 212//212 211//211 209//209
f 212//212 214//214 213//213 211//211
f 71//71 213//213 214//214 215//215
f 216//216 71//71 215//215
f 215//215 214//214 218//218 217//217
f 220//220 219//219 215//215 217//217
f 222//222 219//219 220//220 221//221
f 224//224 223//223 219//219 222//222
f 225//225 224//224 222//222
f 227//227 226//226 224//224 225//225
f 229//229 226//226 227//227 228//228
f 230//230 229//229 228//228
f 232//232 229//229 230//230 231//231
f 233//233 229//229 232//232
f 231//231 230//230 235//235 234//234
f 234//234 235//235 237//237 236//236
f 239//239 237//237 235//235 238//238
f 240//240 239//239 238//238
f 242//242 239//239 240//240 241//241
f 244//244 239//239 242//242 243//243
f 243//243 242//242 246//246 245//245
f 248//248 247//247 244//244 243//243
f 240//240 250//250 249//249 241//241
f 241//241 249//249 221//221
f 250//250 252//252 251//251 249//249
f 228//228 252//252 250//250 238//238
f 250//250 240//240 238//238
f 237//237 253//253 236//236
f 255//255 254//254 231//231 234//234
f 226//226 229//229 233//233 256//256
f 235//235 230//230 228//228 238//238
f 224//224 226//226 256//256 257//257
f 256//256 259//259 258//258 257//257
f 251//251 252//252 227//227 225//225
f 223//223 224//224 257//257 260//260
f 223//223 260//260 216//216
f 251//251 225//225 222//222
f 246//246 242//242 241//241 221//221
f 220//220 246//246 221//221
f 249//249 251//251 222//222 221//221
f 246//246 220//220 217//217 261//261
f 218//218 214//214 212//212 262//262
f 213//213 66//66 263//263 211//211
f 212//212 210//210 264//264 202//202
f 262//262 212//212 202//202
f 211//211 263//263 265//265 209//209
f 209//209 265//265 266//266 207//207
f 265//265 268//268 267//267 266//266
f 266//266 267//267 270//270 269//269
f 273//273 272//272 271//271 270//270
f 267//267 273//273 270//270
f 274//274 271//271 272//272 53//53
f 276//276 271//271 274//274 275//275
f 278//278 276//276 275//275 277//277
f 280//280 278//278 277//277 279//279
f 282//282 280//280 279//279 281//281
f 284//284 282//282 281//281 283//283
f 286//286 284//284 283//283 285//285
f 288//288 284//284 286//286 287//287
f 290//290 288//288 287//287 289//289
f 292//292 291//291 288//288 290//290
f 294//294 293//293 291//291 292//292
f 296//296 295//295 293//293 294//294
f 298//298 296//296 294//294 297//297
f 300//300 298//298 297//297 299//299
f 302//302 301//301 298//298 300//300
f 304//304 303//303 302//302 300//300
f 299//299 297//297 306//306 305//305
f 305//305 306//306 308//308 307//307
f 310//310 309//309 305//305 307//307
f 311//311 304//304 300//300 299//299
f 297//297 294//294 292//292 306//306
f 306//306 292//292 290//290 308//308
f 308//308 290//290 289//289 312//312
f 291//291 282//282 284//284 288//288
f 293//293 280//280 282//282 291//291
f 313//313 276//276 278//278 295//295
f 277//277 275//275 315//315 314//314
f 268//268 47//47 273//273 267//267
f 204//204 206//206 301//301 302//302
f 207//207 266//266 269//269 206//206
f 198//198 203//203 303//303 196//196
f 196//196 303//303 304//304 194//194
f 194//194 304//304 311//311 192//192
f 192//192 311//311 309//309 190//190
f 190//190 309//309 310//310 188//188
f 173//173 316//316 187//187 185//185
f 184//184 182//182 318//318 317//317
f 317//317 318//318 320//320 319//319
f 319//319 320//320 322//322 321//321
f 321//321 322//322 323//323
f 323//323 322//322 325//325 324//324
f 327//327 326//326 323//323 324//324
f 326//326 327//327 328//328
f 327//327 329//329 328//328
f 330//330 326//326 328//328
f 331//331 329//329 327//327 324//324
f 332//332 331//331 324//324
f 331//331 333//333 330//330 329//329
f 330//330 333//333 334//334 323//323
f 326//326 330//330 323//323
f 325//325 335//335 324//324
f 335//335 325//325 336//336
f 332//332 335//335 336//336
f 334//334 337//337 319//319 321//321
f 182//182 178//178 179//179 318//318
f 338//338 170//170 171//171 177//177
f 180//180 338//338 177//177
f 289//289 168//168 169//169 338//338
f 312//312 289//289 338//338
f 131//131 129//129 339//339 165//165
f 283//283 281//281 128//128 130//130
f 281//281 279//279 127//127 128//128
f 125//125 123//123 193//193 191//191
f 314//314 315//315 120//120 122//122
f 121//121 119//119 197//197 195//195
f 341//341 340//340 114//114 116//116
f 115//115 113//113 201//201 200//200
f 113//113 111//111 262//262 202//202
f 110//110 218//218 262//262 111//111
f 218//218 110//110 107//107 261//261
f 217//217 218//218 261//261
f 107//107 106//106 245//245 261//261
f 344//344 343//343 342//342 104//104
f 105//105 344//344 104//104
f 346//346 345//345 342//342 343//343
f 348//348 347//347 346//346 343//343
f 347//347 350//350 349//349 346//346
f 349//349 350//350 351//351
f 353//353 347//347 348//348 352//352
f 355//355 354//354 353//353 352//352
f 353//353 354//354 356//356
f 354//354 358//358 357//357 356//356
f 357//357 360//360 359//359 356//356
f 359//359 360//360 362//362 361//361
f 362//362 364//364 363//363 361//361
f 366//366 365//365 360//360 357//357
f 367//367 366//366 357//357
f 369//369 366//366 367//367 368//368
f 371//371 366//366 369//369 370//370
f 373//373 372//372 371//371 370//370
f 367//367 358//358 374//374 368//368
f 368//368 374//374 375//375
f 375//375 374//374 355//355 376//376
f 378//378 377//377 375//375 376//376
f 355//355 352//352 376//376
f 374//374 358//358 354//354 355//355
f 379//379 348//348 343//343 344//344
f 379//379 344//344 380//380
f 63//63 378//378 379//379 380//380
f 103//103 248//248 243//243 245//245
f 106//106 103//103 245//245
f 342//342 102//102 104//104
f 101//101 248//248 103//103
f 342//342 345//345 99//99 102//102
f 100//100 247//247 248//248 101//101
f 247//247 100//100 97//97
f 346//346 349//349 95//95 98//98
f 345//345 346//346 98//98
f 97//97 96//96 253//253 244//244
f 247//247 97//97 244//244
f 95//95 349//349 351//351 94//94
f 253//253 96//96 93//93 236//236
f 91//91 363//363 90//90
f 255//255 92//92 89//89
f 363//363 364//364 88//88 90//90
f 87//87 254//254 255//255 89//89
f 86//86 254//254 87//87
f 364//364 362//362 381//381 84//84
f 85//85 364//364 84//84
f 382//382 371//371 372//372 80//80
f 81//81 382//382 80//80
f 78//78 259//259 79//79
f 77//77 372//372 373//373 75//75
f 258//258 259//259 78//78 76//76
f 75//75 373//373 74//74
f 258//258 76//76 73//73
f 260//260 72//72 71//71 216//216
f 67//67 70//70 377//377 64//64
f 65//65 66//66 213//213 71//71
f 61//61 63//63 380//380 108//108
f 109//109 61//61 108//108
f 64//64 377//377 378//378 63//63
f 66//66 62//62 60//60 263//263
f 59//59 61//61 109//109 112//112
f 60//60 58//58 268//268 265//265
f 263//263 60//60 265//265
f 57//57 59//59 112//112 114//114
f 340//340 57//57 114//114
f 35//35 28//28 25//25 56//56
f 25//25 24//24 55//55 56//56
f 19//19 33//33 37//37 22//22
f 21//21 19//19 22//22
f 10//10 383//383 13//13
f 383//383 10//10 8//8
f 6//6 384//384 383//383 8//8
f 3//3 384//384 6//6
f 32//32 2//2 5//5 31//31
f 12//12 13//13 4//4 1//1
f 385//385 12//12 1//1
f 384//384 3//3 4//4
f 12//12 385//385 14//14
f 383//383 384//384 4//4 13//13
f 20//20 385//385 1//1 34//34
f 1//1 2//2 32//32 34//34
f 14//14 385//385 20//20 15//15
f 31//31 5//5 7//7 386//386
f 9//9 11//11 16//16 387//387
f 7//7 9//9 387//387 386//386
f 19//19 20//20 34//34 33//33
f 33//33 29//29 30//30 37//37
f 19//19 21//21 17//17
f 27//27 31//31 386//386 26//26
f 387//387 16//16 18//18 23//23
f 386//386 387//387 23//23 26//26
f 38//38 39//39 42//42
f 388//388 40//40 41//41
f 22//22 40//40 388//388 55//55
f 24//24 22//22 55//55
f 48//48 39//39 36//36 389//389
f 42//42 39//39 48//48 44//44
f 389//389 36//36 35//35 390//390
f 49//49 388//388 41//41 43//43
f 55//55 388//388 49//49 52//52
f 390//390 35//35 56//56 54//54
f 47//47 48//48 389//389 273//273
f 46//46 47//47 268//268 58//58
f 273//273 389//389 390//390 272//272
f 340//340 50//50 45//45 57//57
f 51//51 50//50 340//340 341//341
f 272//272 390//390 54//54 53//53
f 365//365 382//382 381//381
f 382//382 365//365 366//366 371//371
f 370//370 369//369 70//70 68//68
f 360//360 365//365 381//381 362//362
f 358//358 367//367 357//357
f 70//70 369//369 368//368 375//375
f 377//377 70//70 375//375
f 350//350 359//359 361//361 351//351
f 350//350 347//347 353//353 356//356
f 359//359 350//350 356//356
f 348//348 379//379 378//378 376//376
f 352//352 348//348 376//376
f 381//381 382//382 81//81 84//84
f 372//372 77//77 80//80
f 370//370 68//68 69//69 74//74
f 373//373 370//370 74//74
f 364//364 85//85 88//88
f 361//361 363//363 91//91 94//94
f 351//351 361//361 94//94
f 99//99 345//345 98//98
f 380//380 344//344 105//105 108//108
f 83//83 82//82 233//233 232//232
f 82//82 79//79 259//259 256//256
f 233//233 82//82 256//256
f 258//258 73//73 72//72 260//260
f 257//257 258//258 260//260
f 86//86 83//83 232//232 231//231
f 254//254 86//86 231//231
f 227//227 252//252 228//228
f 219//219 223//223 216//216 215//215
f 92//92 255//255 234//234 236//236
f 93//93 92//92 236//236
f 253//253 237//237 239//239 244//244
f 245//245 246//246 261//261
f 338//338 169//169 170//170
f 129//129 126//126 125//125 339//339
f 316//316 166//166 165//165
f 166//166 316//316 173//173 167//167
f 307//307 308//308 312//312 391//391
f 391//391 312//312 338//338 180//180
f 339//339 125//125 191//191 189//189
f 165//165 339//339 189//189 187//187
f 316//316 165//165 187//187
f 172//172 173//173 185//185 184//184
f 392//392 310//310 307//307 391//391
f 181//181 392//392 391//391 180//180
f 188//188 310//310 392//392 186//186
f 186//186 392//392 181//181 183//183
f 270//270 271//271 276//276 313//313
f 295//295 278//278 280//280 293//293
f 53//53 51//51 341//341 393//393
f 274//274 53//53 393//393
f 275//275 274//274 393//393 315//315
f 279//279 277//277 314//314 127//127
f 269//269 270//270 313//313 394//394
f 394//394 313//313 295//295 296//296
f 393//393 341//341 116//116 118//118
f 315//315 393//393 118//118 120//120
f 127//127 314//314 122//122 124//124
f 206//206 269//269 394//394 301//301
f 301//301 394//394 296//296 298//298
f 303//303 203//203 204//204 302//302
f 309//309 311//311 299//299 305//305
f 117//117 115//115 200//200 199//199
f 119//119 117//117 199//199 197//197
f 123//123 121//121 195//195 193//193
f 395//395 286//286 285//285 163//163
f 160//160 395//395 163//163 162//162
f 287//287 286//286 395//395 396//396
f 396//396 395//395 160//160 158//158
f 285//285 283//283 130//130 132//132
f 163//163 285//285 132//132 134//134
f 287//287 396//396 397//397 168//168
f 289//289 287//287 168//168
f 156//156 397//397 396//396 158//158
f 135//135 133//133 164//164 168//168
f 397//397 135//135 168//168
f 135//135 397//397 156//156 137//137
f 398//398 159//159 161//161 154//154
f 152//152 398//398 154//154 153//153
f 157//157 159//159 398//398 399//399
f 399//399 398//398 152//152 151//151
f 149//149 150//150 148//148
f 161//161 162//162 136//136 138//138
f 154//154 161//161 138//138 140//140
f 153//153 142//142 144//144
f 400//400 155//155 157//157 399//399
f 147//147 400//400 399//399 151//151
f 139//139 155//155 400//400 141//141
f 141//141 400//400 147//147 143//143
f 401//401 175//175 174//174 337//337
f 333//333 401//401 337//337 334//334
f 176//176 175//175 401//401 402//402
f 402//402 401//401 333//333 331//331
f 329//329 330//330 328//328
f 174//174 172//172 184//184 317//317
f 337//337 174//174 317//317 319//319
f 334//334 321//321 323//323
f 402//402 331//331 332//332 336//336
f 403//403 402//402 336//336
f 403//403 179//179 176//176 402//402
f 335//335 332//332 324//324
f 318//318 179//179 403//403 320//320
f 322//322 320//320 403//403 336//336
f 325//325 322//322 336//336
f 264//264 201//201 113//113 202//202
f 199//199 200//200 201//201 264//264 210//210 208//208 205//205 204//204 203//203 198//198
