# Blender 5.0.0
# www.blender.org
mtllib Walk_Forward0029.mtl
o Mball.010
v 1.850953 3.445050 0.244512
v 1.613040 3.118089 0.159364
v 1.622032 2.981411 0.494043
v 1.851456 3.280504 0.571436
v 1.346802 3.161804 0.183328
v 1.382699 3.017143 0.514548
v 1.117586 3.570296 0.311929
v 1.151670 3.424616 0.642928
v 1.234967 3.873573 0.395268
v 1.261327 3.702191 0.719111
v 1.631651 3.894442 0.384601
v 1.663114 3.715192 0.698587
v 1.662351 3.711531 0.704904
v 1.661725 3.876008 0.377966
v 1.643710 4.030716 0.048916
v 1.613636 4.049150 0.055552
v 1.625390 4.185252 -0.280170
v 1.595879 4.203340 -0.273659
v 1.814769 3.765943 -0.410238
v 1.833083 3.610641 -0.081375
v 1.617401 4.208375 -0.411399
v 1.573313 4.245910 -0.613308
v 1.199083 4.182694 -0.262922
v 1.250016 4.196346 -0.608187
v 1.150044 4.021802 -0.666833
v 1.081836 3.879868 -0.346136
v 1.311084 3.471394 -0.474732
v 1.338143 3.698682 -0.810786
v 1.576852 3.427818 -0.498636
v 1.503866 3.700552 -0.825691
v 1.328787 3.316511 -0.145721
v 1.595025 3.272796 -0.169685
v 1.814615 3.754292 -0.413624
v 1.832938 3.599757 -0.084537
v 0.957471 4.104712 -0.759018
v 1.144487 4.383651 -0.832793
v 1.709530 3.941026 -0.769470
v 1.604352 4.308880 -0.778555
v 1.461989 4.536535 -0.701454
v 1.637573 4.209074 -0.582074
v 1.627258 4.266836 -0.398996
v 1.527973 4.524318 -0.647244
v 1.442189 4.472409 -0.067454
v 1.307214 4.812408 -0.339174
v 1.226200 4.773149 0.226789
v 1.109209 5.084041 -0.062030
v 1.039697 5.100852 -0.130107
v 1.233706 4.838354 -0.397714
v 1.418150 4.373646 -0.027451
v 1.203979 4.664941 0.271900
v 0.983063 4.327972 0.283729
v 1.158241 4.056708 -0.005939
v 0.736209 4.285816 0.119700
v 0.862568 4.052691 -0.174700
v 1.318681 3.920046 -0.349495
v 1.043469 3.873851 -0.510391
v 0.685160 5.135710 0.478042
v 0.657789 5.299323 0.106883
v 0.466335 5.470644 0.550333
v 0.446787 5.575585 0.159488
v 0.603320 5.864031 0.603401
v 0.583776 5.961632 0.211165
v 0.657069 5.899228 0.605898
v 0.637508 5.996015 0.213577
v 0.218634 6.101203 -0.162753
v 0.221226 6.045996 -0.100383
v 0.621970 6.276296 -0.151693
v 0.616989 6.491261 -0.298170
v 0.208418 6.542168 -0.463225
v 0.801266 6.446142 -0.132815
v -0.180891 6.107659 -0.146413
v -0.191107 6.548625 -0.446885
v -0.191587 6.626587 -0.475008
v 0.207938 6.620130 -0.491348
v 0.209111 6.972000 -0.555341
v -0.190414 6.978457 -0.539001
v 0.217354 7.364736 -0.496067
v -0.182171 7.371193 -0.479727
v -0.169735 7.667722 -0.317873
v 0.229790 7.661265 -0.334213
v 0.233147 7.720375 -0.285403
v -0.166378 7.726832 -0.269063
v -0.141291 7.994340 0.138337
v 0.258234 7.987883 0.121996
v 0.262457 8.009603 0.196285
v -0.137068 8.016060 0.212625
v -0.118541 8.049704 0.553607
v 0.280984 8.043247 0.537267
v -0.098971 7.953549 0.946010
v 0.300554 7.947093 0.929670
v 0.314337 7.754699 1.236536
v -0.085188 7.761156 1.252876
v -0.082581 7.705877 1.315544
v 0.316944 7.699420 1.299204
v 0.327160 7.258454 1.599676
v -0.072365 7.264912 1.616016
v -0.071885 7.186950 1.644139
v 0.327640 7.180492 1.627799
v 0.326467 6.828622 1.691791
v -0.073058 6.835079 1.708132
v -0.081301 6.442343 1.648857
v 0.318224 6.435886 1.632517
v -0.093738 6.145814 1.487004
v 0.305787 6.139357 1.470664
v 0.302430 6.080246 1.421853
v -0.097095 6.086704 1.438193
v -0.122181 5.819196 1.030794
v 0.277344 5.812739 1.014454
v 0.273135 5.790946 0.940463
v -0.126397 5.797377 0.956626
v -0.145443 5.452656 0.679370
v 0.254466 5.442698 0.681867
v -0.147771 4.991956 0.707951
v 0.255317 4.980840 0.708775
v -0.134594 4.614697 0.639054
v 0.250031 4.571636 0.657422
v -0.143857 4.284091 0.516773
v 0.228370 4.222137 0.550374
v -0.167258 4.023489 0.475654
v 0.171548 3.927368 0.489883
v -0.142024 3.666800 0.520092
v 0.131952 3.554806 0.473013
v -0.109121 3.278413 0.559389
v 0.099569 3.162119 0.451366
v -0.073381 2.880193 0.553349
v 0.067173 2.769506 0.342452
v 0.472359 3.090864 0.284071
v 0.426101 2.696392 0.207780
v 0.038189 2.382301 0.201079
v 0.367157 2.296615 0.233065
v 0.014761 2.089838 0.086438
v 0.310499 1.916447 0.214791
v 0.013555 1.976952 0.065040
v 0.310006 1.519334 0.199740
v 0.013648 1.536195 0.000541
v 0.312511 1.120160 0.179594
v 0.063270 1.132988 -0.011928
v 0.319832 0.711865 0.148281
v 0.074671 0.729704 -0.022885
v 0.349100 0.330141 -0.130406
v 0.094357 0.398965 -0.175303
v 0.340877 0.038427 -0.345699
v 0.066000 0.109153 -0.398844
v 0.329472 -0.142576 -0.593678
v 0.325673 -0.136930 -0.661360
v 0.189248 0.158038 -0.912348
v 0.004665 0.434473 -0.684606
v 0.307424 0.143568 -0.929072
v 0.306549 0.181798 -0.936292
v 0.384756 0.161076 -0.920652
v 0.314093 0.570884 -0.817870
v 0.607694 0.450516 -0.711232
v 0.540963 0.116529 -0.419018
v 0.583388 0.408507 -0.196039
v 0.083288 0.818969 -0.398515
v 0.075716 1.172170 -0.401136
v 0.429913 0.897383 -0.561876
v 0.457604 1.205496 -0.568033
v 0.754515 0.897418 -0.311516
v 0.760031 1.178848 -0.286670
v 0.663401 0.720963 0.032226
v 0.649668 1.123040 0.086078
v 0.606393 1.529662 0.091088
v 0.014357 1.989738 0.045502
v 0.004262 2.084587 0.442310
v 0.007155 2.054989 0.438228
v 0.070377 1.641137 0.455259
v 0.079902 1.785731 -0.290045
v 0.025485 1.588328 0.091185
v 0.050822 1.501422 0.131165
v 0.039723 1.180523 0.192498
v -0.010735 1.244623 0.591693
v 0.041412 1.649577 0.544562
v -0.163990 0.824769 0.646471
v -0.062320 0.803953 0.264551
v -0.257677 0.785368 0.149870
v -0.305408 1.110056 0.017379
v -0.579926 1.113999 0.223973
v -0.572048 0.757988 0.281511
v -0.345027 1.494540 -0.066479
v -0.644109 1.504700 0.183431
v -0.488844 1.193295 0.615978
v -0.568191 1.582882 0.575362
v -0.271052 1.233628 0.701635
v -0.305382 1.636680 0.707944
v -0.577931 1.979930 0.533144
v -0.339862 2.033206 0.665520
v -0.592769 2.374698 0.487616
v -0.375718 2.434679 0.619468
v -0.619420 2.767594 0.431992
v -0.428510 2.829711 0.565821
v -0.564393 3.172300 0.365516
v -0.482640 3.204529 0.437334
v -0.563815 3.571609 0.302304
v -0.531476 3.585209 0.337636
v -0.558934 3.984867 0.209522
v -0.524946 3.992318 0.245056
v -0.504448 4.348366 0.232464
v -0.449704 4.363370 0.275221
v -0.436485 4.634362 0.515290
v -0.552723 5.036364 0.562980
v -0.561781 5.111967 0.531946
v -0.633760 4.479874 -0.107065
v -0.607893 4.491505 -0.146698
v -0.679565 4.918245 -0.035411
v -0.240499 4.549182 -0.373999
v -0.242145 4.980622 -0.248596
v -0.618478 5.203556 0.147627
v -0.198767 5.302158 -0.100971
v -0.602672 5.215306 0.147998
v -0.175543 5.610008 0.078876
v -0.330421 5.585973 0.190933
v -0.178288 6.052402 -0.083834
v -0.499976 5.978695 0.255326
v -0.560838 6.017375 0.262784
v -0.576605 6.295667 -0.102672
v -0.541267 5.920746 0.655065
v -0.480398 5.881258 0.647510
v -0.913771 6.378023 0.330531
v -0.894201 6.281868 0.722934
v -0.931927 6.351038 0.734879
v -0.951497 6.447192 0.342477
v -0.748652 6.471192 -0.069425
v -0.925097 6.866913 -0.002597
v -0.960847 6.850766 0.067483
v -0.916854 7.259649 0.056677
v -0.952604 7.243503 0.126757
v -0.929645 7.488327 0.499612
v -0.723923 7.649401 0.108398
v -0.889041 7.556231 0.508354
v -0.521246 7.904643 0.547079
v -0.544627 7.819248 0.127276
v -0.556856 7.688840 -0.071327
v -0.501676 7.808489 0.939482
v -0.869471 7.460076 0.900756
v -0.485917 7.530784 1.304483
v -0.665213 7.360937 1.285605
v -0.910075 7.392173 0.892014
v -0.858145 6.971186 1.233885
v -0.900725 6.988599 1.167008
v -0.908968 6.595862 1.107734
v -0.866388 6.578450 1.174610
v -0.488376 6.485897 1.513808
v -0.480133 6.878633 1.573082
v -0.505666 6.137610 1.273138
v -0.689943 6.182729 1.107783
v -0.408493 6.868080 1.608697
v -0.416737 6.475344 1.549423
v -1.040095 6.677095 0.788512
v -1.031852 7.069832 0.847786
v -1.059665 6.773250 0.396109
v -1.051422 7.165986 0.455384
v -0.480936 7.315818 1.450960
v -0.450717 7.942016 0.550038
v -0.431147 7.845861 0.942441
v -0.574146 7.340554 -0.311997
v -0.582389 6.947818 -0.371271
v -0.514586 6.956117 -0.412589
v -0.506343 7.348853 -0.353315
v -0.581586 6.510633 -0.249149
v -0.517896 6.007203 1.074535
v -0.310802 5.481652 0.581774
v 0.222475 5.608903 0.043470
v -0.615852 5.210418 0.157773
v 0.211695 5.301600 -0.135446
v 0.199901 4.949378 -0.278737
v 0.605072 4.937449 -0.141237
v 0.646684 5.250507 0.033717
v 0.191517 4.544074 -0.389100
v 0.569499 4.531156 -0.201214
v 0.663137 4.512351 -0.096493
v 0.629560 4.585155 -0.174219
v 0.747831 4.947980 -0.268864
v 0.699260 4.320024 0.255270
v 0.649827 3.905223 0.228986
v 0.669782 4.002121 -0.158240
v 0.628832 3.480067 0.210646
v 0.673251 3.537326 -0.189118
v 0.577592 3.084762 0.177256
v 0.623034 3.135840 -0.218591
v 0.511653 2.693727 0.140422
v 0.577981 2.741280 -0.254156
v 0.560707 2.289460 0.113078
v 0.642023 2.334465 -0.279443
v 0.566326 1.924155 0.101569
v 0.674363 1.953830 -0.288824
v 0.451480 1.982953 -0.538937
v 0.464754 2.386022 -0.480135
v 0.091140 2.016076 -0.325833
v 0.109551 2.425765 -0.414908
v 0.497193 2.771501 -0.360411
v 0.145604 2.826648 -0.455552
v 0.543251 3.167205 -0.334936
v 0.179953 3.223180 -0.511309
v 0.585096 3.572560 -0.313998
v 0.202246 3.638527 -0.504549
v -0.164156 3.115448 -0.377520
v -0.197230 3.521359 -0.423011
v -0.534300 3.074581 -0.150287
v -0.571892 3.481791 -0.134247
v -0.230847 3.955349 -0.449661
v -0.600620 3.957118 -0.200992
v -0.624568 3.955673 -0.160598
v -0.598865 3.482901 -0.088945
v -0.498562 2.664263 -0.194143
v -0.131701 2.728933 -0.309104
v -0.447375 2.268803 -0.144773
v -0.087184 2.348759 -0.175614
v -0.684792 2.671597 0.042793
v -0.668916 2.280284 0.098567
v -0.615561 3.078593 -0.025516
v -0.039037 1.971907 -0.029614
v 0.588246 4.036036 -0.280517
v 0.519665 3.488860 0.319494
v 0.556915 3.893974 0.339152
v 0.005334 2.056038 0.450634
v -0.237898 0.823529 0.683380
v -0.475493 0.789924 0.660490
v -0.217134 0.337701 0.557192
v -0.560271 0.373463 0.476571
v -0.177333 0.033204 0.337759
v -0.543078 0.068446 0.248935
v -0.139033 -0.163341 0.123234
v -0.512854 0.215360 -0.179032
v -0.566675 0.090587 0.224877
v -0.127334 -0.168940 0.043797
v -0.387348 0.102074 -0.246236
v -0.097710 0.094398 -0.228259
v -0.098133 0.140443 -0.237099
v -0.062048 0.117043 -0.209957
v -0.130902 0.526921 -0.116948
v -0.536189 0.413669 -0.068984
v 0.043387 0.418078 0.015186
v -0.072364 0.090106 0.301431
v -0.557145 0.394093 -0.053812
v -0.580536 0.626319 0.156758
v -0.094236 0.396961 0.520242
v 0.027722 1.584972 0.092070
v -0.033616 2.471328 0.501102
v 0.690093 5.029507 0.511710
v 0.668442 4.619322 0.506301
v 0.642396 6.458226 1.506106
v 0.710199 6.466525 1.464787
v 0.692909 6.118238 1.224117
v 0.650639 6.850963 1.565380
v 0.718442 6.859262 1.524062
v 1.061150 6.940166 1.155388
v 1.052907 6.547430 1.096114
v 0.717638 7.296447 1.401940
v 0.884705 7.335887 1.222215
v 0.712658 7.511413 1.255463
v 1.088657 6.563577 1.026034
v 1.096900 6.956313 1.085308
v 1.195718 7.033830 0.756681
v 1.187475 6.641093 0.697407
v 1.087550 7.359887 0.810314
v 1.067980 7.456041 0.417911
v 1.176148 7.129984 0.364279
v 1.049823 7.429056 0.822259
v 1.030253 7.525211 0.429857
v 0.696899 7.789117 0.890461
v 0.677329 7.885272 0.498059
v 0.627985 7.828743 0.899123
v 0.608416 7.924898 0.506721
v 0.825995 7.624351 0.045008
v 1.002440 7.228630 -0.021820
v 1.045020 7.211217 0.045057
v 1.036777 6.818480 -0.014217
v 0.994197 6.835894 -0.081094
v 0.616186 6.928447 -0.420291
v 0.624429 7.321182 -0.361017
v 0.552789 7.331736 -0.396632
v 0.544546 6.938999 -0.455906
v 1.167905 6.737247 0.305005
v 1.046127 6.414907 0.260777
v 1.065697 6.318752 0.653179
v 1.005524 6.347003 0.252034
v 1.025094 6.250849 0.644437
v 0.859975 6.157679 1.044393
v 0.680679 5.987832 1.025515
v 0.653948 7.799876 0.078256
v 0.641719 7.669469 -0.120347
v 1.360028 3.410457 0.928432
v 1.568202 3.005616 0.766594
v 1.851098 3.455933 0.247675
v 1.099570 3.725003 -0.017121
v 1.216951 4.028280 0.066219
v 1.596425 4.182890 -0.353802
v 0.894210 4.719428 -0.529128
v 0.726788 4.393293 -0.443862
v -0.385626 1.884922 -0.097632
v -0.649118 1.899002 0.141463
v 0.608001 4.272475 0.384462
v 0.190586 4.110078 -0.475852
v 0.719943 1.558878 -0.297942
v 0.456040 1.580973 -0.571502
v 0.052969 1.581621 -0.367530
v 0.661708 0.704431 -0.486785
v 0.341471 0.805505 -0.614060
v 0.045619 0.680367 -0.474794
v 0.019436 0.672417 0.226180
v -0.179678 0.761309 0.083028
v -0.582902 0.643617 0.172760
vn 0.9693 -0.2377 -0.0635
vn 0.3709 -0.8427 -0.3901
vn 0.3770 -0.9178 -0.1249
vn 0.9342 -0.1931 0.3001
vn -0.5920 -0.7516 -0.2907
vn -0.5718 -0.8202 0.0179
vn -0.9955 -0.0851 0.0410
vn -0.9349 -0.1880 0.3010
vn -0.5720 0.7165 0.3994
vn -0.5174 0.6068 0.6034
vn 0.2623 0.8648 0.4282
vn 0.5543 0.7282 0.4032
vn 0.5196 0.5637 0.6421
vn 0.7645 0.5887 0.2625
vn 0.7647 0.5984 0.2391
vn 0.2669 0.8779 0.3975
vn 0.7523 0.6393 0.1594
vn 0.2443 0.9327 0.2652
vn 0.9489 0.3154 -0.0072
vn 0.9805 0.1930 0.0367
vn 0.5787 0.8149 0.0331
vn 0.9474 0.2219 -0.2307
vn -0.5730 0.7951 0.1987
vn -0.4155 0.3433 -0.8423
vn -0.6165 -0.6549 -0.4370
vn -0.9955 -0.0194 -0.0925
vn -0.5783 -0.7034 -0.4132
vn -0.4442 -0.4910 -0.7494
vn 0.3651 -0.7791 -0.5095
vn 0.2286 -0.4519 -0.8623
vn -0.5909 -0.7419 -0.3169
vn 0.3699 -0.8327 -0.4122
vn 0.9552 -0.1594 -0.2494
vn 0.9468 -0.2680 -0.1782
vn -0.6775 -0.3286 -0.6580
vn -0.2055 0.3065 -0.9294
vn 0.7672 0.0360 -0.6404
vn 0.7132 0.2903 -0.6381
vn 0.3199 0.6536 -0.6859
vn 0.9841 -0.1684 -0.0563
vn 0.9688 0.1132 0.2205
vn 0.7758 0.5908 -0.2217
vn 0.8949 0.2402 0.3761
vn 0.7411 0.6630 -0.1063
vn 0.7618 0.3918 0.5159
vn 0.6353 0.7723 0.0026
vn 0.1870 0.8272 -0.5299
vn 0.2738 0.7788 -0.5644
vn 0.7434 -0.2475 0.6214
vn 0.6270 -0.0480 0.7775
vn 0.2945 -0.5413 0.7876
vn 0.2105 -0.7525 0.6241
vn -0.6734 -0.6798 0.2907
vn -0.6204 -0.7601 0.1930
vn 0.4244 -0.9035 0.0602
vn -0.2786 -0.9531 -0.1182
vn 0.6199 0.4347 0.6533
vn 0.6244 0.7590 -0.1846
vn 0.8470 -0.0287 0.5308
vn 0.8226 0.1804 -0.5393
vn 0.6871 -0.7169 0.1185
vn 0.6455 -0.5705 -0.5078
vn 0.5825 -0.8122 -0.0332
vn 0.5600 -0.7261 -0.3989
vn 0.1420 -0.6625 -0.7354
vn 0.2287 -0.5512 -0.8024
vn 0.4441 -0.6084 -0.6578
vn 0.4444 -0.3744 -0.8138
vn 0.1333 -0.4252 -0.8952
vn 0.6600 -0.4117 -0.6284
vn -0.2234 -0.6614 -0.7160
vn -0.2197 -0.4242 -0.8785
vn -0.2261 -0.2530 -0.9407
vn 0.1408 -0.2547 -0.9567
vn 0.1199 -0.0126 -0.9927
vn -0.2024 -0.0083 -0.9793
vn 0.1310 0.3113 -0.9412
vn -0.1990 0.3168 -0.9274
vn -0.2373 0.5676 -0.7884
vn 0.1669 0.5538 -0.8158
vn 0.1659 0.7222 -0.6715
vn -0.2118 0.7208 -0.6600
vn -0.1897 0.9067 -0.3767
vn 0.1916 0.8947 -0.4035
vn 0.2174 0.9521 -0.2151
vn -0.1857 0.9671 -0.1738
vn -0.1438 0.9865 0.0788
vn 0.1810 0.9815 0.0617
vn -0.1283 0.9127 0.3880
vn 0.1891 0.9089 0.3716
vn 0.2360 0.7733 0.5884
vn -0.1422 0.7860 0.6017
vn -0.1276 0.6612 0.7393
vn 0.2220 0.6636 0.7144
vn 0.2208 0.4218 0.8794
vn -0.1333 0.4252 0.8952
vn -0.1408 0.2547 0.9567
vn 0.2283 0.2507 0.9407
vn 0.2024 0.0083 0.9793
vn -0.1199 0.0126 0.9927
vn -0.1310 -0.3113 0.9412
vn 0.1990 -0.3168 0.9274
vn -0.1669 -0.5538 0.8158
vn 0.2169 -0.5611 0.7988
vn 0.1983 -0.7293 0.6548
vn -0.1659 -0.7222 0.6715
vn -0.1837 -0.8974 0.4011
vn 0.1951 -0.9011 0.3873
vn 0.2931 -0.8135 0.5023
vn -0.2766 -0.8194 0.5021
vn -0.3015 -0.2412 0.9225
vn 0.3209 -0.2430 0.9154
vn -0.2152 -0.0490 0.9753
vn 0.2050 -0.0181 0.9786
vn -0.2552 -0.2751 0.9269
vn 0.1624 -0.2295 0.9597
vn -0.3429 -0.2392 0.9084
vn 0.1531 -0.2586 0.9538
vn -0.3187 -0.0026 0.9478
vn 0.1787 -0.1002 0.9788
vn -0.1538 0.0869 0.9843
vn 0.2904 -0.0314 0.9564
vn 0.0710 0.0586 0.9957
vn 0.4435 -0.1155 0.8888
vn 0.3979 -0.0103 0.9174
vn 0.5818 -0.1646 0.7965
vn 0.5198 -0.1804 0.8350
vn 0.4317 -0.1532 0.8889
vn 0.5983 -0.1267 0.7912
vn 0.2083 -0.1035 0.9726
vn 0.5292 -0.1285 0.8387
vn -0.0291 -0.0861 0.9959
vn -0.8987 -0.0617 0.4342
vn -0.1186 -0.0491 0.9917
vn -0.9160 -0.0472 0.3984
vn -0.1626 -0.0644 0.9846
vn -0.8988 -0.0664 0.4333
vn -0.1111 -0.3255 0.9390
vn -0.8415 -0.1822 0.5087
vn 0.0261 -0.5929 0.8049
vn -0.7661 -0.3315 0.5506
vn 0.0802 -0.7150 0.6945
vn -0.7869 -0.5527 0.2745
vn 0.0669 -0.9973 -0.0287
vn 0.1049 -0.9401 -0.3244
vn -0.6492 -0.2767 -0.7085
vn -0.8994 0.1177 -0.4210
vn 0.0076 -0.4709 -0.8822
vn -0.0155 0.1033 -0.9945
vn 0.5744 -0.2544 -0.7781
vn -0.0404 0.5176 -0.8547
vn 0.8434 0.0634 -0.5335
vn 0.8031 -0.5481 0.2338
vn 0.7595 -0.4785 0.4405
vn -0.8952 0.1847 -0.4057
vn -0.8182 -0.0252 -0.5743
vn 0.1711 0.2371 -0.9563
vn 0.1682 0.0111 -0.9857
vn 0.9606 -0.0690 -0.2694
vn 0.9684 0.0312 -0.2476
vn 0.7286 -0.3156 0.6079
vn 0.7114 -0.0087 0.7028
vn 0.7248 0.0496 0.6872
vn -0.0521 0.8658 -0.4977
vn 0.8675 0.0738 0.4920
vn 0.9880 0.1039 0.1145
vn 0.9358 -0.2853 0.2072
vn -0.8561 0.0924 -0.5084
vn 0.9538 -0.2392 -0.1820
vn 0.8877 -0.0745 -0.4544
vn 0.8853 -0.2392 -0.3989
vn 0.8001 -0.0929 0.5927
vn 0.7933 0.0380 0.6077
vn 0.6872 -0.1066 0.7186
vn 0.9631 0.1352 -0.2325
vn -0.0465 0.3287 -0.9433
vn -0.0476 -0.2691 -0.9619
vn -0.9125 -0.1917 -0.3614
vn -0.9600 0.1379 -0.2436
vn -0.1472 -0.1759 -0.9733
vn -0.9409 -0.1363 -0.3101
vn -0.7262 -0.0431 0.6861
vn -0.7974 -0.0291 0.6028
vn 0.0424 0.0046 0.9991
vn -0.0046 0.0782 0.9969
vn -0.8124 0.0306 0.5824
vn -0.0233 0.1031 0.9944
vn -0.8240 0.0212 0.5662
vn -0.1169 0.0481 0.9920
vn -0.8593 0.1034 0.5009
vn -0.3071 0.1076 0.9456
vn -0.8815 0.1351 0.4525
vn -0.4918 0.1419 0.8590
vn -0.9020 0.0784 0.4246
vn -0.5985 0.1341 0.7898
vn -0.8954 0.0625 0.4408
vn -0.6332 0.0938 0.7683
vn -0.8984 -0.0321 0.4380
vn -0.7602 -0.1394 0.6346
vn -0.7017 -0.2694 0.6596
vn -0.7706 -0.0273 0.6367
vn -0.7100 0.3051 0.6347
vn -0.9987 -0.0491 0.0151
vn -0.8113 0.0553 -0.5821
vn -0.9189 0.1399 -0.3688
vn -0.2945 0.1836 -0.9379
vn -0.2834 0.3500 -0.8928
vn -0.9313 0.2515 -0.2635
vn -0.2919 0.4775 -0.8287
vn -0.7597 0.6049 -0.2387
vn -0.3988 0.1136 -0.9100
vn -0.8820 0.1298 -0.4531
vn -0.3214 -0.5600 -0.7636
vn -0.6790 -0.5964 -0.4281
vn -0.6056 -0.7209 -0.3371
vn -0.5182 -0.5998 -0.6096
vn -0.6234 -0.7817 0.0178
vn -0.6829 -0.7138 0.1554
vn -0.8119 -0.5185 -0.2683
vn -0.8007 -0.5942 0.0767
vn -0.8971 -0.4216 0.1323
vn -0.9078 -0.3497 -0.2316
vn -0.7287 -0.3962 -0.5585
vn -0.8184 -0.0846 -0.5684
vn -0.9032 -0.1268 -0.4101
vn -0.8280 0.2815 -0.4849
vn -0.9151 0.2597 -0.3083
vn -0.8938 0.4467 -0.0387
vn -0.7322 0.5885 -0.3429
vn -0.7867 0.6173 0.0066
vn -0.5676 0.8227 0.0326
vn -0.5114 0.8037 -0.3042
vn -0.5272 0.6245 -0.5762
vn -0.5368 0.7490 0.3885
vn -0.7668 0.5379 0.3502
vn -0.4466 0.6057 0.6586
vn -0.6614 0.4118 0.6269
vn -0.8700 0.3718 0.3238
vn -0.7572 0.1044 0.6448
vn -0.8536 0.1486 0.4992
vn -0.8859 -0.2342 0.4005
vn -0.7847 -0.2577 0.5638
vn -0.5527 -0.2960 0.7790
vn -0.5353 0.0708 0.8417
vn -0.4957 -0.6080 0.6202
vn -0.7131 -0.5646 0.4156
vn -0.3737 0.0698 0.9249
vn -0.3792 -0.3207 0.8680
vn -0.9701 -0.1715 0.1720
vn -0.9579 0.1464 0.2469
vn -0.9819 -0.1214 -0.1457
vn -0.9778 0.1976 -0.0702
vn -0.4444 0.3744 0.8138
vn -0.4069 0.9131 0.0269
vn -0.3645 0.8380 0.4062
vn -0.6147 0.3206 -0.7206
vn -0.6198 -0.0439 -0.7835
vn -0.4470 -0.0400 -0.8937
vn -0.4577 0.3527 -0.8162
vn -0.5264 -0.3654 -0.7677
vn -0.5078 -0.7829 0.3593
vn -0.8145 -0.0569 0.5773
vn 0.2689 0.1153 -0.9563
vn -0.9290 0.2260 0.2932
vn 0.1629 0.4577 -0.8740
vn 0.1612 0.3097 -0.9371
vn -0.0467 0.4035 -0.9138
vn 0.2449 0.6804 -0.6907
vn 0.1845 0.1965 -0.9630
vn 0.5379 0.0291 -0.8425
vn 0.1469 -0.5757 -0.8044
vn -0.4779 -0.3716 -0.7959
vn -0.3905 0.5272 -0.7547
vn 0.3630 0.8750 -0.3204
vn 0.9351 -0.0806 0.3450
vn 0.9538 0.0187 -0.2999
vn 0.9054 -0.1047 0.4116
vn 0.9659 -0.0476 -0.2545
vn 0.8838 -0.1674 0.4370
vn 0.9610 -0.1033 -0.2564
vn 0.8506 -0.0616 0.5221
vn 0.9664 0.0237 -0.2560
vn 0.8139 0.0244 0.5805
vn 0.9659 0.1049 -0.2368
vn 0.7586 0.0167 0.6513
vn 0.9690 0.0841 -0.2323
vn 0.1743 0.0742 -0.9819
vn 0.3343 0.0825 -0.9389
vn -0.6999 -0.1254 -0.7031
vn -0.4387 -0.0794 -0.8951
vn 0.5430 0.0328 -0.8391
vn -0.1265 -0.0816 -0.9886
vn 0.6245 -0.0466 -0.7797
vn 0.0526 -0.0643 -0.9965
vn 0.6583 0.0119 -0.7527
vn 0.1461 0.0058 -0.9893
vn -0.4103 -0.0889 -0.9076
vn -0.3956 -0.0669 -0.9160
vn -0.6764 -0.0444 -0.7352
vn -0.7308 -0.0955 -0.6759
vn -0.3463 0.0200 -0.9379
vn -0.7195 -0.0281 -0.6940
vn -0.9799 -0.0183 -0.1989
vn -0.9752 -0.0353 -0.2184
vn -0.5489 -0.1227 -0.8268
vn -0.3999 -0.1594 -0.9026
vn -0.4073 -0.2124 -0.8883
vn -0.4175 -0.2347 -0.8778
vn -0.9686 -0.0039 -0.2484
vn -0.9594 -0.0988 -0.2641
vn -0.9664 0.0477 -0.2526
vn -0.3803 -0.2682 -0.8851
vn 0.6499 0.0951 -0.7540
vn 0.5523 -0.1056 0.8269
vn 0.5859 -0.1327 0.7994
vn 0.7873 0.1904 0.5865
vn 0.1047 -0.1285 0.9862
vn -0.6395 -0.0983 0.7625
vn 0.1173 -0.4407 0.8900
vn -0.7492 -0.2950 0.5930
vn 0.1401 -0.6485 0.7482
vn -0.6623 -0.6715 0.3324
vn 0.2797 -0.9390 0.2003
vn -0.6847 -0.1405 -0.7151
vn -0.8995 -0.3939 0.1890
vn 0.3566 -0.9262 -0.1221
vn -0.4258 -0.4037 -0.8098
vn 0.3334 -0.4780 -0.8127
vn 0.3301 0.1155 -0.9369
vn 0.8345 -0.1939 -0.5158
vn 0.2567 0.5314 -0.8073
vn -0.5088 0.4652 -0.7244
vn 0.9589 0.1190 -0.2575
vn 0.8131 -0.3991 0.4238
vn -0.9146 0.1411 -0.3788
vn -0.8247 0.3484 -0.4456
vn 0.7479 -0.1966 0.6341
vn 0.6606 0.3945 -0.6388
vn 0.7067 -0.0197 0.7072
vn 0.4444 0.1289 0.8865
vn 0.3872 -0.2497 0.8875
vn 0.4420 -0.3343 0.8324
vn 0.6117 -0.3144 0.7259
vn 0.5300 -0.6265 0.5716
vn 0.4537 0.0594 0.8892
vn 0.6110 0.0562 0.7897
vn 0.8225 0.0786 0.5634
vn 0.8239 -0.2895 0.4872
vn 0.5256 0.3642 0.7688
vn 0.7273 0.3969 0.5599
vn 0.5182 0.5999 0.6095
vn 0.9050 -0.2808 0.3197
vn 0.9139 0.1109 0.3905
vn 0.9819 0.1214 0.1457
vn 0.9778 -0.1976 0.0702
vn 0.9037 0.3607 0.2306
vn 0.9003 0.4128 -0.1379
vn 0.9701 0.1715 -0.1720
vn 0.8030 0.5337 0.2652
vn 0.8097 0.5802 -0.0882
vn 0.5948 0.7305 0.3357
vn 0.5868 0.8094 -0.0206
vn 0.4383 0.8151 0.3788
vn 0.4174 0.9087 0.0036
vn 0.7143 0.5639 -0.4145
vn 0.7807 0.2657 -0.5656
vn 0.8753 0.2553 -0.4106
vn 0.8665 -0.1332 -0.4811
vn 0.7617 -0.0987 -0.6404
vn 0.5353 -0.0708 -0.8417
vn 0.5527 0.2960 -0.7790
vn 0.3792 0.3207 -0.8680
vn 0.3737 -0.0698 -0.9249
vn 0.9579 -0.1464 -0.2469
vn 0.8658 -0.3825 -0.3224
vn 0.8979 -0.4380 0.0441
vn 0.7586 -0.5516 -0.3468
vn 0.7985 -0.6020 0.0046
vn 0.7338 -0.5866 0.3428
vn 0.5134 -0.8008 0.3083
vn 0.5065 0.7855 -0.3556
vn 0.4957 0.6080 -0.6202
vn -0.2282 -0.0536 0.9721
vn 0.1408 -0.7212 0.6783
vn 0.9739 0.0783 0.2129
vn -0.9970 -0.0754 0.0187
vn -0.5794 0.7252 0.3721
vn 0.8232 -0.4971 0.2742
vn -0.4346 0.5079 -0.7437
vn -0.8962 -0.1265 -0.4252
vn -0.2514 -0.1779 -0.9514
vn -0.9483 -0.0812 -0.3068
vn 0.4814 -0.3629 0.7978
vn 0.1810 0.1095 -0.9774
vn 0.9655 0.0868 -0.2455
vn 0.1497 0.0937 -0.9843
vn -0.8274 0.0757 -0.5565
vn 0.8813 0.0947 -0.4630
vn -0.1049 0.6268 -0.7721
vn -0.9041 0.3330 -0.2676
vn 0.9386 0.3416 -0.0484
vn 0.2178 0.7315 -0.6461
vn -0.8453 0.3956 -0.3590
s 1
f 4//4 3//3 2//2 1//1
f 2//2 3//3 6//6 5//5
f 5//5 6//6 8//8 7//7
f 8//8 10//10 9//9 7//7
f 13//13 12//12 11//11 9//9
f 10//10 13//13 9//9
f 11//11 12//12 14//14
f 16//16 11//11 14//14 15//15
f 18//18 16//16 15//15 17//17
f 15//15 20//20 19//19 17//17
f 21//21 18//18 17//17
f 23//23 18//18 21//21 22//22
f 24//24 23//23 22//22
f 26//26 23//23 24//24 25//25
f 28//28 27//27 26//26 25//25
f 30//30 29//29 27//27 28//28
f 29//29 32//32 31//31 27//27
f 34//34 32//32 29//29 33//33
f 36//36 30//30 28//28 35//35
f 38//38 37//37 30//30 36//36
f 39//39 38//38 36//36
f 37//37 38//38 40//40 22//22
f 40//40 38//38 42//42 41//41
f 41//41 42//42 44//44 43//43
f 43//43 44//44 46//46 45//45
f 44//44 48//48 47//47 46//46
f 50//50 49//49 43//43 45//45
f 52//52 49//49 50//50 51//51
f 54//54 52//52 51//51 53//53
f 56//56 55//55 52//52 54//54
f 45//45 46//46 58//58 57//57
f 58//58 60//60 59//59 57//57
f 60//60 62//62 61//61 59//59
f 61//61 62//62 64//64 63//63
f 64//64 62//62 66//66 65//65
f 67//67 64//64 65//65
f 69//69 68//68 67//67 65//65
f 68//68 70//70 67//67
f 72//72 69//69 65//65 71//71
f 74//74 69//69 72//72 73//73
f 76//76 75//75 74//74 73//73
f 78//78 77//77 75//75 76//76
f 80//80 77//77 78//78 79//79
f 82//82 81//81 80//80 79//79
f 84//84 81//81 82//82 83//83
f 86//86 85//85 84//84 83//83
f 88//88 85//85 86//86 87//87
f 90//90 88//88 87//87 89//89
f 92//92 91//91 90//90 89//89
f 94//94 91//91 92//92 93//93
f 96//96 95//95 94//94 93//93
f 98//98 95//95 96//96 97//97
f 100//100 99//99 98//98 97//97
f 102//102 99//99 100//100 101//101
f 104//104 102//102 101//101 103//103
f 106//106 105//105 104//104 103//103
f 108//108 105//105 106//106 107//107
f 110//110 109//109 108//108 107//107
f 112//112 109//109 110//110 111//111
f 114//114 112//112 111//111 113//113
f 116//116 114//114 113//113 115//115
f 118//118 116//116 115//115 117//117
f 120//120 118//118 117//117 119//119
f 122//122 120//120 119//119 121//121
f 124//124 122//122 121//121 123//123
f 126//126 124//124 123//123 125//125
f 128//128 127//127 124//124 126//126
f 130//130 128//128 126//126 129//129
f 132//132 130//130 129//129 131//131
f 133//133 132//132 131//131
f 132//132 133//133 135//135 134//134
f 134//134 135//135 137//137 136//136
f 136//136 137//137 139//139 138//138
f 138//138 139//139 141//141 140//140
f 140//140 141//141 143//143 142//142
f 142//142 143//143 144//144
f 147//147 146//146 145//145 144//144
f 143//143 147//147 144//144
f 145//145 146//146 148//148
f 146//146 149//149 148//148
f 150//150 145//145 148//148
f 146//146 147//147 151//151 149//149
f 151//151 152//152 150//150 149//149
f 150//150 152//152 153//153 144//144
f 145//145 150//150 144//144
f 153//153 154//154 140//140 142//142
f 137//137 156//156 155//155 139//139
f 155//155 156//156 158//158 157//157
f 158//158 160//160 159//159 157//157
f 159//159 160//160 162//162 161//161
f 162//162 163//163 134//134 136//136
f 164//164 133//133 131//131
f 166//166 164//164 131//131 165//165
f 168//168 164//164 166//166 167//167
f 169//169 168//168 167//167
f 169//169 167//167 170//170
f 173//173 172//172 171//171 170//170
f 167//167 173//173 170//170
f 175//175 171//171 172//172 174//174
f 177//177 171//171 175//175 176//176
f 179//179 178//178 177//177 176//176
f 178//178 181//181 180//180 177//177
f 183//183 181//181 178//178 182//182
f 185//185 183//183 182//182 184//184
f 187//187 186//186 183//183 185//185
f 189//189 188//188 186//186 187//187
f 191//191 190//190 188//188 189//189
f 193//193 192//192 190//190 191//191
f 195//195 194//194 192//192 193//193
f 197//197 196//196 194//194 195//195
f 199//199 198//198 196//196 197//197
f 205//205 207//207 206//206 204//204
f 209//209 207//207 205//205 208//208
f 210//210 209//209 208//208
f 210//210 212//212 211//211 209//209
f 212//212 214//214 213//213 211//211
f 71//71 213//213 214//214 215//215
f 216//216 71//71 215//215
f 215//215 214//214 218//218 217//217
f 220//220 219//219 215//215 217//217
f 222//222 219//219 220//220 221//221
f 224//224 223//223 219//219 222//222
f 225//225 224//224 222//222
f 227//227 226//226 224//224 225//225
f 229//229 226//226 227//227 228//228
f 230//230 229//229 228//228
f 232//232 229//229 230//230 231//231
f 233//233 229//229 232//232
f 231//231 230//230 235//235 234//234
f 234//234 235//235 237//237 236//236
f 239//239 237//237 235//235 238//238
f 240//240 239//239 238//238
f 242//242 239//239 240//240 241//241
f 244//244 239//239 242//242 243//243
f 243//243 242//242 246//246 245//245
f 248//248 247//247 244//244 243//243
f 240//240 250//250 249//249 241//241
f 241//241 249//249 221//221
f 250//250 252//252 251//251 249//249
f 228//228 252//252 250//250 238//238
f 250//250 240//240 238//238
f 237//237 253//253 236//236
f 255//255 254//254 231//231 234//234
f 226//226 229//229 233//233 256//256
f 235//235 230//230 228//228 238//238
f 224//224 226//226 256//256 257//257
f 256//256 259//259 258//258 257//257
f 251//251 252//252 227//227 225//225
f 223//223 224//224 257//257 260//260
f 223//223 260//260 216//216
f 251//251 225//225 222//222
f 246//246 242//242 241//241 221//221
f 220//220 246//246 221//221
f 249//249 251//251 222//222 221//221
f 246//246 220//220 217//217 261//261
f 218//218 214//214 212//212 262//262
f 213//213 66//66 263//263 211//211
f 212//212 210//210 264//264 202//202
f 262//262 212//212 202//202
f 211//211 263//263 265//265 209//209
f 209//209 265//265 266//266 207//207
f 265//265 268//268 267//267 266//266
f 266//266 267//267 270//270 269//269
f 273//273 272//272 271//271 270//270
f 267//267 273//273 270//270
f 274//274 271//271 272//272 53//53
f 276//276 271//271 274//274 275//275
f 278//278 276//276 275//275 277//277
f 280//280 278//278 277//277 279//279
f 282//282 280//280 279//279 281//281
f 284//284 282//282 281//281 283//283
f 286//286 284//284 283//283 285//285
f 288//288 284//284 286//286 287//287
f 290//290 288//288 287//287 289//289
f 292//292 291//291 288//288 290//290
f 294//294 293//293 291//291 292//292
f 296//296 295//295 293//293 294//294
f 298//298 296//296 294//294 297//297
f 300//300 298//298 297//297 299//299
f 302//302 301//301 298//298 300//300
f 304//304 303//303 302//302 300//300
f 299//299 297//297 306//306 305//305
f 305//305 306//306 308//308 307//307
f 310//310 309//309 305//305 307//307
f 311//311 304//304 300//300 299//299
f 297//297 294//294 292//292 306//306
f 306//306 292//292 290//290 308//308
f 308//308 290//290 289//289 312//312
f 291//291 282//282 284//284 288//288
f 293//293 280//280 282//282 291//291
f 313//313 276//276 278//278 295//295
f 277//277 275//275 315//315 314//314
f 268//268 47//47 273//273 267//267
f 204//204 206//206 301//301 302//302
f 207//207 266//266 269//269 206//206
f 198//198 203//203 303//303 196//196
f 196//196 303//303 304//304 194//194
f 194//194 304//304 311//311 192//192
f 192//192 311//311 309//309 190//190
f 190//190 309//309 310//310 188//188
f 173//173 316//316 187//187 185//185
f 184//184 182//182 318//318 317//317
f 317//317 318//318 320//320 319//319
f 319//319 320//320 322//322 321//321
f 321//321 322//322 323//323
f 323//323 322//322 325//325 324//324
f 327//327 326//326 323//323 324//324
f 326//326 327//327 328//328
f 327//327 329//329 328//328
f 330//330 326//326 328//328
f 331//331 329//329 327//327 324//324
f 332//332 331//331 324//324
f 331//331 333//333 330//330 329//329
f 330//330 333//333 334//334 323//323
f 326//326 330//330 323//323
f 325//325 335//335 324//324
f 335//335 325//325 336//336
f 332//332 335//335 336//336
f 334//334 337//337 319//319 321//321
f 182//182 178//178 179//179 318//318
f 338//338 170//170 171//171 177//177
f 180//180 338//338 177//177
f 289//289 168//168 169//169 338//338
f 312//312 289//289 338//338
f 131//131 129//129 339//339 165//165
f 283//283 281//281 128//128 130//130
f 281//281 279//279 127//127 128//128
f 125//125 123//123 193//193 191//191
f 314//314 315//315 120//120 122//122
f 121//121 119//119 197//197 195//195
f 341//341 340//340 114//114 116//116
f 115//115 113//113 201//201 200//200
f 113//113 111//111 262//262 202//202
f 110//110 218//218 262//262 111//111
f 218//218 110//110 107//107 261//261
f 217//217 218//218 261//261
f 107//107 106//106 245//245 261//261
f 344//344 343//343 342//342 104//104
f 105//105 344//344 104//104
f 346//346 345//345 342//342 343//343
f 348//348 347//347 346//346 343//343
f 347//347 350//350 349//349 346//346
f 349//349 350//350 351//351
f 353//353 347//347 348//348 352//352
f 355//355 354//354 353//353 352//352
f 353//353 354//354 356//356
f 354//354 358//358 357//357 356//356
f 357//357 360//360 359//359 356//356
f 359//359 360//360 362//362 361//361
f 362//362 364//364 363//363 361//361
f 366//366 365//365 360//360 357//357
f 367//367 366//366 357//357
f 369//369 366//366 367//367 368//368
f 371//371 366//366 369//369 370//370
f 373//373 372//372 371//371 370//370
f 367//367 358//358 374//374 368//368
f 368//368 374//374 375//375
f 375//375 374//374 355//355 376//376
f 378//378 377//377 375//375 376//376
f 355//355 352//352 376//376
f 374//374 358//358 354//354 355//355
f 379//379 348//348 343//343 344//344
f 379//379 344//344 380//380
f 63//63 378//378 379//379 380//380
f 103//103 248//248 243//243 245//245
f 106//106 103//103 245//245
f 342//342 102//102 104//104
f 101//101 248//248 103//103
f 342//342 345//345 99//99 102//102
f 100//100 247//247 248//248 101//101
f 247//247 100//100 97//97
f 346//346 349//349 95//95 98//98
f 345//345 346//346 98//98
f 97//97 96//96 253//253 244//244
f 247//247 97//97 244//244
f 95//95 349//349 351//351 94//94
f 253//253 96//96 93//93 236//236
f 91//91 363//363 90//90
f 255//255 92//92 89//89
f 363//363 364//364 88//88 90//90
f 87//87 254//254 255//255 89//89
f 86//86 254//254 87//87
f 364//364 362//362 381//381 84//84
f 85//85 364//364 84//84
f 382//382 371//371 372//372 80//80
f 81//81 382//382 80//80
f 78//78 259//259 79//79
f 77//77 372//372 373//373 75//75
f 258//258 259//259 78//78 76//76
f 75//75 373//373 74//74
f 258//258 76//76 73//73
f 260//260 72//72 71//71 216//216
f 67//67 70//70 377//377 64//64
f 65//65 66//66 213//213 71//71
f 61//61 63//63 380//380 108//108
f 109//109 61//61 108//108
f 64//64 377//377 378//378 63//63
f 66//66 62//62 60//60 263//263
f 59//59 61//61 109//109 112//112
f 60//60 58//58 268//268 265//265
f 263//263 60//60 265//265
f 57//57 59//59 112//112 114//114
f 340//340 57//57 114//114
f 35//35 28//28 25//25 56//56
f 25//25 24//24 55//55 56//56
f 19//19 33//33 37//37 22//22
f 21//21 19//19 22//22
f 10//10 383//383 13//13
f 383//383 10//10 8//8
f 6//6 384//384 383//383 8//8
f 3//3 384//384 6//6
f 32//32 2//2 5//5 31//31
f 12//12 13//13 4//4 1//1
f 385//385 12//12 1//1
f 384//384 3//3 4//4
f 12//12 385//385 14//14
f 383//383 384//384 4//4 13//13
f 20//20 385//385 1//1 34//34
f 1//1 2//2 32//32 34//34
f 14//14 385//385 20//20 15//15
f 31//31 5//5 7//7 386//386
f 9//9 11//11 16//16 387//387
f 7//7 9//9 387//387 386//386
f 19//19 20//20 34//34 33//33
f 33//33 29//29 30//30 37//37
f 19//19 21//21 17//17
f 27//27 31//31 386//386 26//26
f 387//387 16//16 18//18 23//23
f 386//386 387//387 23//23 26//26
f 38//38 39//39 42//42
f 388//388 40//40 41//41
f 22//22 40//40 388//388 55//55
f 24//24 22//22 55//55
f 48//48 39//39 36//36 389//389
f 42//42 39//39 48//48 44//44
f 389//389 36//36 35//35 390//390
f 49//49 388//388 41//41 43//43
f 55//55 388//388 49//49 52//52
f 390//390 35//35 56//56 54//54
f 47//47 48//48 389//389 273//273
f 46//46 47//47 268//268 58//58
f 273//273 389//389 390//390 272//272
f 340//340 50//50 45//45 57//57
f 51//51 50//50 340//340 341//341
f 272//272 390//390 54//54 53//53
f 365//365 382//382 381//381
f 382//382 365//365 366//366 371//371
f 370//370 369//369 70//70 68//68
f 360//360 365//365 381//381 362//362
f 358//358 367//367 357//357
f 70//70 369//369 368//368 375//375
f 377//377 70//70 375//375
f 350//350 359//359 361//361 351//351
f 350//350 347//347 353//353 356//356
f 359//359 350//350 356//356
f 348//348 379//379 378//378 376//376
f 352//352 348//348 376//376
f 381//381 382//382 81//81 84//84
f 372//372 77//77 80//80
f 370//370 68//68 69//69 74//74
f 373//373 370//370 74//74
f 364//364 85//85 88//88
f 361//361 363//363 91//91 94//94
f 351//351 361//361 94//94
f 99//99 345//345 98//98
f 380//380 344//344 105//105 108//108
f 83//83 82//82 233//233 232//232
f 82//82 79//79 259//259 256//256
f 233//233 82//82 256//256
f 258//258 73//73 72//72 260//260
f 257//257 258//258 260//260
f 86//86 83//83 232//232 231//231
f 254//254 86//86 231//231
f 227//227 252//252 228//228
f 219//219 223//223 216//216 215//215
f 92//92 255//255 234//234 236//236
f 93//93 92//92 236//236
f 253//253 237//237 239//239 244//244
f 245//245 246//246 261//261
f 338//338 169//169 170//170
f 129//129 126//126 125//125 339//339
f 316//316 166//166 165//165
f 166//166 316//316 173//173 167//167
f 307//307 308//308 312//312 391//391
f 391//391 312//312 338//338 180//180
f 339//339 125//125 191//191 189//189
f 165//165 339//339 189//189 187//187
f 316//316 165//165 187//187
f 172//172 173//173 185//185 184//184
f 392//392 310//310 307//307 391//391
f 181//181 392//392 391//391 180//180
f 188//188 310//310 392//392 186//186
f 186//186 392//392 181//181 183//183
f 270//270 271//271 276//276 313//313
f 295//295 278//278 280//280 293//293
f 53//53 51//51 341//341 393//393
f 274//274 53//53 393//393
f 275//275 274//274 393//393 315//315
f 279//279 277//277 314//314 127//127
f 269//269 270//270 313//313 394//394
f 394//394 313//313 295//295 296//296
f 393//393 341//341 116//116 118//118
f 315//315 393//393 118//118 120//120
f 127//127 314//314 122//122 124//124
f 206//206 269//269 394//394 301//301
f 301//301 394//394 296//296 298//298
f 303//303 203//203 204//204 302//302
f 309//309 311//311 299//299 305//305
f 117//117 115//115 200//200 199//199
f 119//119 117//117 199//199 197//197
f 123//123 121//121 195//195 193//193
f 395//395 286//286 285//285 163//163
f 160//160 395//395 163//163 162//162
f 287//287 286//286 395//395 396//396
f 396//396 395//395 160//160 158//158
f 285//285 283//283 130//130 132//132
f 163//163 285//285 132//132 134//134
f 287//287 396//396 397//397 168//168
f 289//289 287//287 168//168
f 156//156 397//397 396//396 158//158
f 135//135 133//133 164//164 168//168
f 397//397 135//135 168//168
f 135//135 397//397 156//156 137//137
f 398//398 159//159 161//161 154//154
f 152//152 398//398 154//154 153//153
f 157//157 159//159 398//398 399//399
f 399//399 398//398 152//152 151//151
f 149//149 150//150 148//148
f 161//161 162//162 136//136 138//138
f 154//154 161//161 138//138 140//140
f 153//153 142//142 144//144
f 400//400 155//155 157//157 399//399
f 147//147 400//400 399//399 151//151
f 139//139 155//155 400//400 141//141
f 141//141 400//400 147//147 143//143
f 401//401 175//175 174//174 337//337
f 333//333 401//401 337//337 334//334
f 176//176 175//175 401//401 402//402
f 402//402 401//401 333//333 331//331
f 329//329 330//330 328//328
f 174//174 172//172 184//184 317//317
f 337//337 174//174 317//317 319//319
f 334//334 321//321 323//323
f 402//402 331//331 332//332 336//336
f 403//403 402//402 336//336
f 403//403 179//179 176//176 402//402
f 335//335 332//332 324//324
f 318//318 179//179 403//403 320//320
f 322//322 320//320 403//403 336//336
f 325//325 322//322 336//336
f 264//264 201//201 113//113 202//202
f 199//199 200//200 201//201 264//264 210//210 208//208 205//205 204//204 203//203 198//198
