# Blender 5.0.0
# www.blender.org
mtllib Walk_Forward0025.mtl
o Mball.010
v 1.470654 3.795333 -0.663465
v 1.192981 3.555990 -0.812368
v 1.266625 3.231924 -0.579066
v 1.532022 3.451402 -0.445530
v 0.942082 3.574440 -0.724836
v 1.040559 3.246017 -0.502593
v 0.780243 3.849530 -0.419358
v 0.876819 3.520314 -0.197335
v 0.937976 4.066840 -0.257805
v 1.023334 3.719307 -0.049978
v 1.324370 4.099461 -0.334858
v 1.411844 3.751151 -0.139349
v 1.412238 3.744068 -0.135170
v 1.350740 4.087944 -0.353120
v 1.271010 4.424202 -0.573187
v 1.244640 4.435719 -0.554925
v 1.190962 4.760326 -0.793290
v 1.165085 4.771626 -0.775371
v 1.312723 4.475864 -1.096442
v 1.392654 4.139204 -0.876812
v 1.153946 4.864907 -0.898592
v 1.072651 5.024379 -1.053956
v 0.778617 4.739157 -0.698154
v 0.757542 4.965041 -1.001809
v 0.631292 4.842077 -1.093844
v 0.621079 4.522169 -0.859457
v 0.782950 4.247092 -1.164932
v 0.747923 4.647371 -1.367059
v 1.033416 4.228717 -1.252270
v 0.903993 4.662930 -1.411209
v 0.862353 3.910697 -0.944903
v 1.113251 3.892247 -1.032435
v 1.310872 4.467713 -1.103637
v 1.390924 4.131590 -0.883532
v 0.459008 4.879875 -1.038214
v 0.606326 5.193355 -1.036202
v 1.133837 4.849664 -1.317469
v 1.052232 5.177004 -1.167234
v 0.961399 5.305298 -0.975057
v 1.167379 4.989888 -1.077319
v 1.243595 4.927913 -0.911667
v 1.046359 5.275240 -0.960360
v 1.231566 4.864824 -0.510531
v 0.992534 5.292155 -0.537184
v 1.176192 4.923285 -0.095689
v 0.955619 5.308097 -0.175030
v 0.864649 5.339929 -0.197550
v 0.899010 5.334699 -0.546879
v 1.225345 4.750752 -0.511670
v 1.173240 4.800891 -0.089153
v 0.973248 4.445799 -0.123138
v 0.988895 4.411361 -0.538606
v 0.680959 4.420440 -0.145612
v 0.640322 4.450728 -0.571631
v 0.971320 4.548551 -0.921392
v 0.643357 4.554668 -0.975335
v 0.736603 5.164797 0.354278
v 0.609499 5.326527 0.019183
v 0.514473 5.525930 0.458563
v 0.396290 5.569880 0.075135
v 0.628773 5.938469 0.445267
v 0.510869 5.966063 0.059569
v 0.678699 5.978096 0.433403
v 0.560849 6.003875 0.047600
v 0.056502 6.013070 -0.249421
v 0.077872 5.969699 -0.184110
v 0.438514 6.215169 -0.331422
v 0.382674 6.401426 -0.493296
v -0.058045 6.395144 -0.581478
v 0.604314 6.398427 -0.363276
v -0.329756 5.995522 -0.159205
v -0.444303 6.377596 -0.491262
v -0.457455 6.449655 -0.525992
v -0.071197 6.467202 -0.616208
v -0.112682 6.803776 -0.712595
v -0.498939 6.786228 -0.622378
v -0.121865 7.203007 -0.694823
v -0.508123 7.185459 -0.604607
v -0.481800 7.508007 -0.478880
v -0.095543 7.525555 -0.569096
v -0.085596 7.592835 -0.528164
v -0.471854 7.575288 -0.437947
v -0.373873 7.913403 -0.073832
v 0.012384 7.930950 -0.164048
v 0.032044 7.965834 -0.094959
v -0.354214 7.948286 -0.004743
v -0.259603 8.043058 0.318942
v 0.126654 8.060604 0.228725
v -0.141790 8.018688 0.704859
v 0.244467 8.036236 0.614643
v 0.344364 7.901232 0.928099
v -0.041894 7.883685 1.018316
v -0.020434 7.840296 1.083920
v 0.365824 7.857843 0.993704
v 0.480371 7.475768 1.325761
v 0.094113 7.458221 1.415977
v 0.107265 7.386163 1.450707
v 0.493523 7.403710 1.360491
v 0.535007 7.067137 1.456877
v 0.148750 7.049589 1.547094
v 0.157933 6.650359 1.529322
v 0.544191 6.667906 1.439106
v 0.131611 6.327811 1.403595
v 0.517868 6.345358 1.313379
v 0.507922 6.278077 1.272446
v 0.121664 6.260530 1.362663
v 0.023684 5.922416 0.998547
v 0.409941 5.939962 0.908331
v 0.390371 5.905061 0.839535
v 0.004084 5.887363 0.929621
v -0.050928 5.489681 0.699190
v 0.340219 5.507856 0.627190
v -0.017396 4.993099 0.735173
v 0.377405 5.003011 0.666988
v -0.009506 4.618274 0.636543
v 0.377856 4.578932 0.611778
v -0.057807 4.283554 0.505196
v 0.320287 4.197178 0.515065
v -0.160283 4.105906 0.442584
v 0.160061 3.803843 0.442021
v -0.138093 3.815896 0.531687
v 0.092097 3.449645 0.352810
v -0.087108 3.475788 0.629919
v 0.051735 3.097418 0.255688
v -0.028028 3.115714 0.699172
v 0.016324 2.763640 0.067818
v 0.418239 3.001378 0.048517
v 0.361417 2.660020 -0.137436
v -0.013206 2.451485 -0.150541
v 0.284688 2.279952 -0.225315
v -0.037016 2.220739 -0.327576
v 0.207076 1.945001 -0.342952
v -0.047692 2.110835 -0.407410
v 0.193605 1.573878 -0.450824
v -0.076566 1.687520 -0.659182
v 0.184909 1.200991 -0.564488
v -0.039413 1.304180 -0.762694
v 0.184831 0.821343 -0.692954
v -0.039162 0.914290 -0.868886
v 0.288632 0.623569 -1.094928
v 0.022261 0.676527 -1.121595
v 0.323992 0.511022 -1.395409
v 0.043444 0.566651 -1.435123
v 0.341405 0.513550 -1.681142
v 0.337877 0.561177 -1.737687
v 0.166084 0.954658 -1.849922
v -0.060714 1.014411 -1.557058
v 0.285086 0.969698 -1.860804
v 0.279049 1.006863 -1.852180
v 0.358945 0.990190 -1.840667
v 0.227904 1.253909 -1.594427
v 0.534333 1.130254 -1.527734
v 0.511974 0.652971 -1.412639
v 0.506436 0.761992 -1.099319
v 0.000739 1.139884 -1.189014
v 0.016257 1.482885 -1.118437
v 0.348849 1.271725 -1.282694
v 0.409991 1.550550 -1.232520
v 0.634733 1.192816 -1.014747
v 0.676128 1.400941 -0.948428
v 0.539342 0.877353 -0.773894
v 0.529812 1.211988 -0.624988
v 0.501491 1.602223 -0.528396
v -0.035165 2.144790 -0.380383
v 0.105539 2.356934 0.786067
v 0.110620 2.328279 0.789970
v 0.215952 1.947274 0.971634
v 0.071934 2.063062 -0.649140
v 0.167866 1.788718 0.549264
v 0.209838 1.701249 0.671024
v 0.232278 1.401296 0.860283
v 0.167699 1.614130 1.224424
v 0.189563 1.983523 1.080217
v 0.046055 1.223067 1.379906
v 0.158115 1.062503 1.021111
v -0.032415 0.980998 0.917955
v -0.101971 1.231845 0.713121
v -0.380597 1.289977 0.910228
v -0.346697 0.976882 1.051993
v -0.169666 1.559179 0.539623
v -0.473775 1.637810 0.776676
v -0.305182 1.528238 1.262960
v -0.413167 1.873335 1.129714
v -0.093349 1.621475 1.333211
v -0.158630 2.002195 1.241011
v -0.452136 2.232333 0.992968
v -0.221723 2.357534 1.104287
v -0.492110 2.591270 0.856058
v -0.281295 2.717818 0.965082
v -0.543268 2.941439 0.709559
v -0.361103 3.067360 0.806897
v -0.514507 3.305294 0.545601
v -0.438170 3.369318 0.594868
v -0.539774 3.659657 0.387747
v -0.509430 3.687716 0.414730
v -0.549411 3.995195 0.250021
v -0.514920 4.015594 0.276116
v -0.450083 4.317097 0.331991
v -0.391859 4.343081 0.349464
v -0.300202 4.684754 0.562756
v -0.439968 5.035669 0.652334
v -0.462761 5.102760 0.629027
v -0.678188 4.357968 0.038090
v -0.663814 4.368478 -0.014022
v -0.748250 4.787366 0.145582
v -0.348710 4.471323 -0.321139
v -0.363350 4.925922 -0.184542
v -0.627518 5.155572 0.277712
v -0.281687 5.270325 -0.040163
v -0.612631 5.168108 0.274714
v -0.232211 5.548663 0.109752
v -0.355047 5.533290 0.250368
v -0.308322 5.952139 -0.093688
v -0.536936 5.917954 0.304041
v -0.597854 5.953219 0.318058
v -0.720259 6.162527 -0.060773
v -0.480040 5.927795 0.703764
v -0.419053 5.890756 0.689614
v -0.954877 6.297873 0.414331
v -0.837064 6.273504 0.800248
v -0.876531 6.341455 0.812193
v -0.994344 6.365823 0.426276
v -0.894135 6.330354 -0.013291
v -1.081874 6.721473 0.046185
v -1.099178 6.715500 0.122375
v -1.091057 7.120703 0.063956
v -1.108362 7.114731 0.140147
v -1.018690 7.424175 0.473387
v -0.921686 7.528045 0.040023
v -0.982428 7.495564 0.467645
v -0.642318 7.871487 0.402302
v -0.755886 7.711303 0.008169
v -0.803650 7.546475 -0.169333
v -0.524505 7.847117 0.788219
v -0.864615 7.471196 0.853562
v -0.402446 7.638196 1.165921
v -0.568246 7.454939 1.197775
v -0.900876 7.399806 0.859305
v -0.737618 7.047597 1.221708
v -0.796042 7.050129 1.163206
v -0.786858 6.650898 1.145434
v -0.728434 6.648366 1.203937
v -0.273777 6.642213 1.470651
v -0.282961 7.041444 1.488422
v -0.319055 6.254248 1.274481
v -0.540695 6.257247 1.144461
v -0.204006 7.042117 1.510509
v -0.194822 6.642886 1.492738
v -0.995267 6.665965 0.852825
v -1.004450 7.065196 0.870597
v -1.113080 6.690334 0.466908
v -1.122263 7.089564 0.484679
v -0.346606 7.451939 1.327796
v -0.575812 7.913685 0.388300
v -0.457999 7.889316 0.774218
v -0.848928 7.158510 -0.365503
v -0.839744 6.759280 -0.383274
v -0.783888 6.764731 -0.436849
v -0.793071 7.163961 -0.419077
v -0.776099 6.348784 -0.222648
v -0.366819 6.089420 1.096979
v -0.236891 5.490865 0.633740
v 0.147682 5.568175 0.000702
v -0.622277 5.163775 0.286783
v 0.113653 5.297082 -0.148739
v 0.082795 4.955500 -0.290125
v 0.511506 4.974237 -0.206832
v 0.582237 5.281170 -0.048610
v 0.085313 4.548559 -0.391902
v 0.498282 4.567229 -0.232861
v 0.600341 4.565952 -0.150786
v 0.475935 4.794678 -0.242682
v 0.537054 5.214574 -0.251640
v 0.718241 4.321726 0.121020
v 0.639635 3.809039 0.174279
v 0.651676 4.032300 -0.169156
v 0.593406 3.382111 0.085931
v 0.665216 3.599958 -0.273711
v 0.529235 3.027089 -0.054507
v 0.606305 3.243488 -0.409091
v 0.451662 2.680842 -0.197743
v 0.549252 2.891959 -0.552335
v 0.486464 2.311701 -0.331235
v 0.601205 2.515202 -0.684079
v 0.474430 1.976796 -0.429398
v 0.626919 2.147564 -0.784909
v 0.434597 2.290358 -1.018178
v 0.447895 2.658083 -0.841001
v 0.088656 2.282300 -0.633009
v 0.112613 2.680485 -0.661991
v 0.480953 2.969893 -0.630833
v 0.157856 3.052508 -0.617123
v 0.539180 3.323682 -0.498776
v 0.202698 3.422013 -0.593050
v 0.584930 3.680971 -0.379723
v 0.210604 3.775979 -0.518622
v -0.108107 3.084936 -0.210994
v -0.169019 3.443605 -0.312200
v -0.472907 3.033672 0.065930
v -0.537076 3.417523 -0.005291
v -0.245997 3.836829 -0.392724
v -0.616347 3.834404 -0.116107
v -0.637127 3.842579 -0.075792
v -0.564136 3.428842 0.039266
v -0.411180 2.635272 0.113332
v -0.058140 2.749031 -0.088551
v -0.333638 2.271413 0.261320
v 0.004996 2.425933 0.112278
v -0.597382 2.693848 0.362607
v -0.556246 2.343880 0.509092
v -0.554531 3.063786 0.195963
v 0.073043 2.116114 0.324684
v 0.567382 4.095046 -0.280244
v 0.478563 3.362180 0.189170
v 0.549767 3.768040 0.280605
v 0.109945 2.332805 0.808852
v -0.028368 1.229238 1.415770
v -0.261912 1.165332 1.403737
v 0.028537 0.719599 1.413724
v -0.315025 0.693543 1.332420
v 0.090440 0.347484 1.278971
v -0.275697 0.316337 1.190444
v 0.143735 0.079631 1.122584
v -0.250730 0.289143 0.747402
v -0.300430 0.325926 1.162461
v 0.156594 0.043921 1.048300
v -0.117448 0.165372 0.709640
v 0.171719 0.188552 0.725031
v 0.168374 0.228671 0.705389
v 0.205611 0.220113 0.736458
v 0.109497 0.639843 0.725641
v -0.288003 0.518609 0.803847
v 0.288903 0.602905 0.875684
v 0.191775 0.395547 1.229250
v -0.307799 0.504354 0.823310
v -0.347541 0.805117 0.966807
v 0.147672 0.771300 1.362685
v 0.174762 1.777573 0.576341
v 0.039876 2.730382 0.743979
v 0.755521 5.054783 0.379981
v 0.752982 4.636557 0.359373
v 0.829139 6.689404 1.253576
v 0.884996 6.694855 1.200001
v 0.839718 6.306890 1.003832
v 0.819955 7.088634 1.271348
v 0.875812 7.094086 1.217773
v 1.117941 7.131893 0.788314
v 1.127125 6.732662 0.770543
v 0.812167 7.504580 1.057147
v 0.930202 7.523011 0.847790
v 0.756327 7.690838 0.895272
v 1.144430 6.738634 0.694352
v 1.135246 7.137865 0.712124
v 1.149148 7.163032 0.367591
v 1.158331 6.763801 0.349820
v 1.030412 7.487542 0.408223
v 0.912599 7.511911 0.022306
v 1.031334 7.187400 -0.018326
v 0.990945 7.555491 0.420168
v 0.873131 7.579861 0.034251
v 0.634268 7.899759 0.517570
v 0.516455 7.924128 0.131653
v 0.565962 7.935833 0.535056
v 0.448149 7.960202 0.149139
v 0.576763 7.596118 -0.309962
v 0.764502 7.204999 -0.369438
v 0.822926 7.202467 -0.310935
v 0.832110 6.803236 -0.328707
v 0.773686 6.805768 -0.387209
v 0.319029 6.811921 -0.653923
v 0.309845 7.211152 -0.636151
v 0.230890 7.210479 -0.658239
v 0.240074 6.811248 -0.676010
v 1.040518 6.788169 -0.036098
v 0.936944 6.453559 -0.024806
v 1.054757 6.429190 0.361111
v 0.900682 6.382169 -0.019063
v 1.018496 6.357800 0.366854
v 0.957753 6.325320 0.794476
v 0.791954 6.142062 0.826330
v 0.402887 7.763945 -0.262480
v 0.355123 7.599117 -0.439982
v 1.143706 3.337625 0.001479
v 1.277773 3.085621 -0.327013
v 1.472383 3.802946 -0.656745
v 0.700513 4.185788 -0.639425
v 0.858247 4.403097 -0.477872
v 1.232271 4.824112 -0.902205
v 0.523410 5.245187 -0.581841
v 0.400846 4.879251 -0.593868
v -0.240433 1.913670 0.414955
v -0.508585 1.995378 0.640765
v 0.662728 4.244055 0.281764
v 0.120625 4.130919 -0.464438
v 0.661420 1.768827 -0.882655
v 0.430877 1.915247 -1.157611
v 0.020696 1.880294 -0.920567
v 0.547613 1.189126 -1.228543
v 0.222237 1.302201 -1.326438
v -0.057832 1.084152 -1.275931
v 0.247093 0.926152 1.014693
v 0.044738 0.937308 0.859156
v -0.351101 0.827551 0.977789
vn 0.8958 -0.1718 -0.4100
vn 0.1958 -0.5209 -0.8308
vn 0.2467 -0.6959 -0.6744
vn 0.9577 -0.2800 -0.0664
vn -0.6824 -0.5242 -0.5095
vn -0.6283 -0.7198 -0.2950
vn -0.9687 -0.1092 0.2230
vn -0.8798 -0.2995 0.3691
vn -0.3972 0.4145 0.8188
vn -0.3268 0.2578 0.9093
vn 0.3875 0.5462 0.7426
vn 0.6699 0.4575 0.5847
vn 0.6742 0.2262 0.7030
vn 0.8316 0.4137 0.3705
vn 0.8289 0.4306 0.3571
vn 0.3875 0.5678 0.7263
vn 0.8111 0.4918 0.3166
vn 0.3569 0.6607 0.6604
vn 0.9542 0.2929 -0.0614
vn 0.9807 0.1708 -0.0950
vn 0.6425 0.6776 0.3579
vn 0.8297 0.3120 -0.4629
vn -0.4312 0.5590 0.7082
vn -0.5395 0.7300 -0.4195
vn -0.7737 -0.3252 -0.5437
vn -0.9889 0.0020 0.1483
vn -0.6864 -0.4371 -0.5813
vn -0.6478 -0.1006 -0.7551
vn 0.1771 -0.4270 -0.8868
vn -0.0463 -0.0111 -0.9989
vn -0.6841 -0.5057 -0.5255
vn 0.1921 -0.5049 -0.8416
vn 0.8482 -0.0215 -0.5293
vn 0.8411 -0.1418 -0.5220
vn -0.8748 -0.0866 -0.4767
vn -0.5324 0.6800 -0.5042
vn 0.5876 0.3187 -0.7438
vn 0.4363 0.6169 -0.6551
vn 0.0687 0.9528 -0.2958
vn 0.8459 0.0587 -0.5300
vn 0.9719 0.1725 -0.1601
vn 0.6514 0.7471 -0.1321
vn 0.9765 0.2015 0.0762
vn 0.6547 0.7547 0.0426
vn 0.8842 0.3113 0.3483
vn 0.5682 0.8050 0.1705
vn -0.0813 0.9966 -0.0129
vn 0.0494 0.9985 -0.0252
vn 0.9357 -0.3523 0.0191
vn 0.8994 -0.1894 0.3941
vn 0.6513 -0.7134 0.2586
vn 0.4327 -0.8969 -0.0915
vn -0.4125 -0.9080 0.0730
vn -0.5173 -0.8495 -0.1034
vn 0.3629 -0.6945 -0.6213
vn -0.3176 -0.7480 -0.5828
vn 0.7294 0.4083 0.5489
vn 0.5092 0.8389 -0.1924
vn 0.9393 0.0471 0.3397
vn 0.6841 0.1823 -0.7062
vn 0.7551 -0.6525 0.0645
vn 0.5935 -0.5833 -0.5545
vn 0.6375 -0.7691 -0.0463
vn 0.5451 -0.7314 -0.4098
vn 0.0701 -0.7478 -0.6602
vn 0.1344 -0.6370 -0.7590
vn 0.3749 -0.6557 -0.6554
vn 0.3217 -0.4390 -0.8389
vn 0.0088 -0.5251 -0.8510
vn 0.5655 -0.4385 -0.6985
vn -0.2943 -0.7759 -0.5580
vn -0.3444 -0.5498 -0.7610
vn -0.3787 -0.3783 -0.8447
vn -0.0120 -0.3548 -0.9349
vn -0.0622 -0.1177 -0.9911
vn -0.3809 -0.1314 -0.9152
vn -0.0720 0.2058 -0.9759
vn -0.3927 0.1975 -0.8982
vn -0.4251 0.4550 -0.7825
vn -0.0381 0.4533 -0.8906
vn -0.0290 0.6278 -0.7778
vn -0.3892 0.6138 -0.6869
vn -0.3364 0.8278 -0.4490
vn 0.0255 0.8280 -0.5601
vn 0.0788 0.9123 -0.4020
vn -0.3034 0.9133 -0.2717
vn -0.2220 0.9742 -0.0410
vn 0.0919 0.9866 -0.1349
vn -0.1456 0.9519 0.2697
vn 0.1664 0.9699 0.1779
vn 0.2701 0.8726 0.4069
vn -0.1089 0.8558 0.5057
vn -0.0556 0.7479 0.6615
vn 0.2926 0.7774 0.5568
vn 0.3459 0.5475 0.7620
vn -0.0088 0.5251 0.8510
vn 0.0120 0.3548 0.9349
vn 0.3812 0.3760 0.8446
vn 0.3809 0.1314 0.9152
vn 0.0622 0.1177 0.9911
vn 0.0720 -0.2058 0.9759
vn 0.3927 -0.1975 0.8982
vn 0.0381 -0.4533 0.8906
vn 0.4061 -0.4480 0.7965
vn 0.3759 -0.6233 0.6857
vn 0.0290 -0.6278 0.7778
vn -0.0179 -0.8300 0.5575
vn 0.3427 -0.8203 0.4579
vn 0.4464 -0.7188 0.5331
vn -0.0928 -0.7431 0.6627
vn -0.1014 -0.1875 0.9770
vn 0.5001 -0.1603 0.8510
vn -0.0597 -0.0843 0.9946
vn 0.3885 -0.0079 0.9214
vn -0.1322 -0.2866 0.9489
vn 0.3305 -0.2233 0.9170
vn -0.2245 -0.2401 0.9444
vn 0.2529 -0.2569 0.9328
vn -0.2635 -0.0024 0.9646
vn 0.2675 -0.1627 0.9497
vn 0.0280 0.1730 0.9845
vn 0.5671 -0.1549 0.8090
vn 0.4567 0.2375 0.8574
vn 0.7614 -0.2163 0.6111
vn 0.7395 0.2432 0.6277
vn 0.8169 -0.2537 0.5180
vn 0.4973 -0.4232 0.7573
vn 0.4280 -0.4036 0.8087
vn 0.7801 -0.2452 0.5756
vn 0.2097 -0.3800 0.9009
vn 0.6785 -0.3000 0.6705
vn -0.0876 -0.3619 0.9281
vn -0.9810 -0.0291 0.1916
vn -0.2106 -0.2920 0.9329
vn -0.9646 -0.0298 0.2619
vn -0.2623 -0.2946 0.9189
vn -0.9441 -0.1013 0.3136
vn -0.1751 -0.6403 0.7479
vn -0.8721 -0.3337 0.3578
vn 0.0912 -0.9147 0.3936
vn -0.7336 -0.6279 0.2599
vn 0.2010 -0.9629 0.1799
vn -0.6895 -0.7084 -0.1508
vn 0.2166 -0.7934 -0.5689
vn 0.2659 -0.5977 -0.7564
vn -0.5631 0.0313 -0.8258
vn -0.9042 0.1964 -0.3793
vn 0.0911 -0.0296 -0.9954
vn -0.0229 0.5436 -0.8390
vn 0.6044 0.2169 -0.7666
vn -0.1239 0.8935 -0.4317
vn 0.8312 0.4429 -0.3362
vn 0.8792 -0.4744 -0.0447
vn 0.8066 -0.5659 0.1709
vn -0.9241 0.3683 -0.1017
vn -0.7511 0.1862 -0.6333
vn 0.2513 0.6982 -0.6703
vn 0.2552 0.2083 -0.9442
vn 0.9784 -0.0760 -0.1923
vn 0.9865 -0.0179 -0.1630
vn 0.6963 -0.5349 0.4785
vn 0.6502 -0.2362 0.7221
vn 0.6536 -0.1576 0.7403
vn 0.5685 0.5892 -0.5742
vn 0.9271 0.2876 0.2404
vn 0.9612 0.2720 -0.0458
vn 0.9858 -0.0393 0.1631
vn -0.8435 0.3640 -0.3950
vn 0.8117 0.5550 -0.1819
vn 0.9111 -0.1525 -0.3828
vn 0.9228 -0.2729 -0.2720
vn 0.7978 0.1293 0.5889
vn 0.8022 0.2939 0.5197
vn 0.6835 0.1157 0.7208
vn 0.9553 0.1100 -0.2745
vn -0.0417 0.0573 -0.9975
vn -0.0142 -0.5385 -0.8425
vn -0.8946 -0.3489 -0.2793
vn -0.9603 -0.0104 -0.2788
vn -0.1876 -0.4527 -0.8717
vn -0.9267 -0.2870 -0.2427
vn -0.7279 0.0687 0.6822
vn -0.8026 0.0599 0.5935
vn 0.0238 0.2563 0.9663
vn -0.0106 0.3543 0.9351
vn -0.8240 0.1106 0.5557
vn 0.0152 0.3897 0.9208
vn -0.8296 0.1060 0.5482
vn -0.0156 0.3205 0.9471
vn -0.8689 0.1753 0.4628
vn -0.2131 0.3615 0.9077
vn -0.8893 0.1919 0.4150
vn -0.4320 0.3398 0.8354
vn -0.8971 0.1139 0.4269
vn -0.5566 0.2843 0.7807
vn -0.8486 0.0338 0.5279
vn -0.4896 0.0922 0.8671
vn -0.6738 -0.1314 0.7272
vn -0.5543 -0.1846 0.8116
vn -0.5089 -0.2870 0.8116
vn -0.5922 -0.1050 0.7989
vn -0.6003 0.2433 0.7619
vn -0.9410 -0.1132 0.3190
vn -0.9107 0.0053 -0.4131
vn -0.9970 0.0600 -0.0491
vn -0.4654 0.1412 -0.8738
vn -0.4926 0.3273 -0.8063
vn -0.9813 0.1900 0.0298
vn -0.4796 0.4562 -0.7496
vn -0.8159 0.5759 -0.0511
vn -0.5837 0.0350 -0.8112
vn -0.9741 0.0620 -0.2173
vn -0.4119 -0.6896 -0.5957
vn -0.6992 -0.6963 -0.1620
vn -0.5937 -0.8014 -0.0726
vn -0.5788 -0.7171 -0.3884
vn -0.5298 -0.7983 0.2864
vn -0.5625 -0.7104 0.4230
vn -0.8031 -0.5956 0.0156
vn -0.7024 -0.6169 0.3550
vn -0.7996 -0.4441 0.4043
vn -0.9034 -0.4260 0.0486
vn -0.8002 -0.5105 -0.3147
vn -0.9160 -0.1976 -0.3492
vn -0.9607 -0.2251 -0.1624
vn -0.9311 0.1789 -0.3178
vn -0.9781 0.1728 -0.1163
vn -0.9163 0.3857 0.1079
vn -0.8302 0.5003 -0.2460
vn -0.8200 0.5634 0.1010
vn -0.6239 0.7804 0.0401
vn -0.6257 0.7236 -0.2915
vn -0.6759 0.5188 -0.5234
vn -0.5265 0.7553 0.3903
vn -0.7302 0.5242 0.4383
vn -0.3769 0.6525 0.6574
vn -0.5670 0.4381 0.6975
vn -0.8150 0.3527 0.4598
vn -0.6187 0.1329 0.7743
vn -0.7403 0.1530 0.6547
vn -0.7487 -0.2293 0.6220
vn -0.6185 -0.2267 0.7524
vn -0.3578 -0.2287 0.9054
vn -0.3697 0.1334 0.9195
vn -0.3013 -0.5394 0.7863
vn -0.5489 -0.5350 0.6423
vn -0.2033 0.1522 0.9672
vn -0.1779 -0.2332 0.9560
vn -0.8849 -0.2001 0.4207
vn -0.8896 0.1186 0.4411
vn -0.9750 -0.1906 0.1144
vn -0.9816 0.1333 0.1368
vn -0.3217 0.4390 0.8389
vn -0.4785 0.8780 -0.0148
vn -0.3660 0.8601 0.3553
vn -0.7701 0.2039 -0.6045
vn -0.7646 -0.1700 -0.6217
vn -0.6102 -0.1690 -0.7740
vn -0.6308 0.2319 -0.7405
vn -0.6423 -0.4959 -0.5845
vn -0.3455 -0.7404 0.5766
vn -0.6566 -0.0770 0.7503
vn 0.0827 0.0689 -0.9942
vn -0.8028 0.1882 0.5658
vn -0.0238 0.4544 -0.8905
vn -0.0095 0.3060 -0.9520
vn -0.5032 0.3137 -0.8052
vn -0.1138 0.8107 -0.5743
vn 0.0451 0.1780 -0.9830
vn 0.6525 0.1573 -0.7413
vn 0.3646 -0.5542 -0.7483
vn -0.7931 -0.5011 0.3461
vn -0.7261 0.6871 0.0278
vn 0.7020 0.6453 0.3012
vn 0.9479 -0.1309 0.2904
vn 0.9407 0.0496 -0.3355
vn 0.8862 -0.2397 0.3964
vn 0.9730 -0.0095 -0.2308
vn 0.8595 -0.3273 0.3927
vn 0.9648 -0.0698 -0.2537
vn 0.8197 -0.2478 0.5164
vn 0.9780 0.0484 -0.2031
vn 0.7720 -0.1777 0.6103
vn 0.9830 0.1222 -0.1373
vn 0.6964 -0.1880 0.6926
vn 0.9889 0.0926 -0.1165
vn 0.1129 0.3953 -0.9116
vn 0.2242 0.3411 -0.9129
vn -0.9228 0.0500 -0.3820
vn -0.7862 0.1109 -0.6080
vn 0.4589 0.2597 -0.8497
vn -0.5389 0.1088 -0.8353
vn 0.5819 0.1511 -0.7991
vn -0.2178 0.0808 -0.9726
vn 0.6431 0.1809 -0.7441
vn 0.0235 0.0896 -0.9957
vn -0.6737 -0.1778 -0.7173
vn -0.5490 -0.1835 -0.8155
vn -0.7035 -0.2392 -0.6692
vn -0.7380 -0.2721 -0.6176
vn -0.4460 -0.0860 -0.8909
vn -0.7743 -0.1453 -0.6159
vn -0.9898 -0.0966 -0.1045
vn -0.9719 -0.1501 -0.1814
vn -0.5902 -0.3455 -0.7296
vn -0.7327 -0.2348 -0.6388
vn -0.4614 -0.4540 -0.7622
vn -0.7117 -0.3525 -0.6076
vn -0.9689 -0.1282 -0.2116
vn -0.9530 -0.2267 -0.2009
vn -0.9685 -0.0720 -0.2385
vn -0.5973 -0.4910 -0.6342
vn 0.6068 0.1761 -0.7751
vn 0.5270 -0.3174 0.7884
vn 0.6107 -0.2367 0.7557
vn 0.8021 0.4602 0.3807
vn 0.1009 0.1324 0.9861
vn -0.6405 0.0455 0.7666
vn 0.1416 -0.1775 0.9739
vn -0.7277 -0.1733 0.6636
vn 0.1777 -0.3929 0.9022
vn -0.5989 -0.5699 0.5627
vn 0.3468 -0.7904 0.5050
vn -0.6818 -0.3930 -0.6169
vn -0.8634 -0.3834 0.3280
vn 0.4158 -0.8837 0.2147
vn -0.4044 -0.6596 -0.6336
vn 0.3929 -0.6722 -0.6275
vn 0.3234 -0.1121 -0.9396
vn 0.8604 -0.2617 -0.4373
vn 0.2141 0.3005 -0.9294
vn -0.5217 0.2185 -0.8246
vn 0.9479 0.1081 -0.2998
vn 0.8225 -0.2129 0.5274
vn -0.9190 -0.0201 -0.3937
vn -0.8412 0.1568 -0.5175
vn 0.7540 0.0239 0.6565
vn -0.5628 -0.5824 -0.5866
vn 0.8774 0.2213 0.4257
vn 0.6798 0.0570 0.7312
vn 0.6905 -0.3038 0.6565
vn 0.6174 -0.2135 0.7572
vn 0.7674 -0.1973 0.6100
vn 0.6778 -0.5212 0.5186
vn 0.6148 0.1896 0.7656
vn 0.7561 0.1829 0.6284
vn 0.9194 0.1909 0.3438
vn 0.9281 -0.1866 0.3223
vn 0.6419 0.4946 0.5860
vn 0.7991 0.5113 0.3164
vn 0.5788 0.7169 0.3885
vn 0.9721 -0.1929 0.1331
vn 0.9679 0.2068 0.1426
vn 0.9750 0.1906 -0.1144
vn 0.9816 -0.1333 -0.1368
vn 0.8982 0.4366 -0.0503
vn 0.8024 0.4346 -0.4091
vn 0.8849 0.2001 -0.4207
vn 0.7919 0.6104 -0.0190
vn 0.7094 0.6028 -0.3652
vn 0.5817 0.8102 0.0719
vn 0.4881 0.8251 -0.2845
vn 0.4276 0.8932 0.1394
vn 0.3176 0.9184 -0.2359
vn 0.5503 0.5347 -0.6413
vn 0.6138 0.2335 -0.7541
vn 0.7343 0.2479 -0.6319
vn 0.7540 -0.1353 -0.6428
vn 0.6232 -0.1263 -0.7718
vn 0.3697 -0.1334 -0.9195
vn 0.3578 0.2287 -0.9054
vn 0.1779 0.2332 -0.9560
vn 0.2033 -0.1522 -0.9672
vn 0.8896 -0.1186 -0.4411
vn 0.8126 -0.3627 -0.4562
vn 0.9208 -0.3757 -0.1049
vn 0.7242 -0.5383 -0.4310
vn 0.8317 -0.5470 -0.0956
vn 0.8317 -0.4981 0.2453
vn 0.6286 -0.7196 0.2952
vn 0.3448 0.7439 -0.5724
vn 0.3013 0.5394 -0.7863
vn -0.0499 -0.4935 0.8683
vn 0.2150 -0.9601 0.1788
vn 0.9998 0.0107 -0.0140
vn -0.9732 -0.0927 0.2102
vn -0.4068 0.4312 0.8054
vn 0.8202 -0.3799 -0.4277
vn -0.6973 0.7162 -0.0293
vn -0.9971 -0.0735 -0.0180
vn -0.3081 -0.4484 -0.8391
vn -0.9391 -0.2289 -0.2562
vn 0.7272 -0.2997 0.6175
vn 0.0563 0.1168 -0.9916
vn 0.9891 0.0735 -0.1279
vn 0.1893 0.3917 -0.9004
vn -0.7950 0.3497 -0.4957
vn 0.8416 0.5034 -0.1956
vn -0.2304 0.9722 0.0421
vn -0.9453 0.3238 0.0407
vn 0.9119 0.3663 -0.1853
vn 0.1575 0.5080 -0.8468
vn -0.8629 0.2190 -0.4554
s 1
f 4//4 3//3 2//2 1//1
f 2//2 3//3 6//6 5//5
f 5//5 6//6 8//8 7//7
f 8//8 10//10 9//9 7//7
f 13//13 12//12 11//11 9//9
f 10//10 13//13 9//9
f 11//11 12//12 14//14
f 16//16 11//11 14//14 15//15
f 18//18 16//16 15//15 17//17
f 15//15 20//20 19//19 17//17
f 21//21 18//18 17//17
f 23//23 18//18 21//21 22//22
f 24//24 23//23 22//22
f 26//26 23//23 24//24 25//25
f 28//28 27//27 26//26 25//25
f 30//30 29//29 27//27 28//28
f 29//29 32//32 31//31 27//27
f 34//34 32//32 29//29 33//33
f 36//36 30//30 28//28 35//35
f 38//38 37//37 30//30 36//36
f 39//39 38//38 36//36
f 37//37 38//38 40//40 22//22
f 40//40 38//38 42//42 41//41
f 41//41 42//42 44//44 43//43
f 43//43 44//44 46//46 45//45
f 44//44 48//48 47//47 46//46
f 50//50 49//49 43//43 45//45
f 52//52 49//49 50//50 51//51
f 54//54 52//52 51//51 53//53
f 56//56 55//55 52//52 54//54
f 45//45 46//46 58//58 57//57
f 58//58 60//60 59//59 57//57
f 60//60 62//62 61//61 59//59
f 61//61 62//62 64//64 63//63
f 64//64 62//62 66//66 65//65
f 67//67 64//64 65//65
f 69//69 68//68 67//67 65//65
f 68//68 70//70 67//67
f 72//72 69//69 65//65 71//71
f 74//74 69//69 72//72 73//73
f 76//76 75//75 74//74 73//73
f 78//78 77//77 75//75 76//76
f 80//80 77//77 78//78 79//79
f 82//82 81//81 80//80 79//79
f 84//84 81//81 82//82 83//83
f 86//86 85//85 84//84 83//83
f 88//88 85//85 86//86 87//87
f 90//90 88//88 87//87 89//89
f 92//92 91//91 90//90 89//89
f 94//94 91//91 92//92 93//93
f 96//96 95//95 94//94 93//93
f 98//98 95//95 96//96 97//97
f 100//100 99//99 98//98 97//97
f 102//102 99//99 100//100 101//101
f 104//104 102//102 101//101 103//103
f 106//106 105//105 104//104 103//103
f 108//108 105//105 106//106 107//107
f 110//110 109//109 108//108 107//107
f 112//112 109//109 110//110 111//111
f 114//114 112//112 111//111 113//113
f 116//116 114//114 113//113 115//115
f 118//118 116//116 115//115 117//117
f 120//120 118//118 117//117 119//119
f 122//122 120//120 119//119 121//121
f 124//124 122//122 121//121 123//123
f 126//126 124//124 123//123 125//125
f 128//128 127//127 124//124 126//126
f 130//130 128//128 126//126 129//129
f 132//132 130//130 129//129 131//131
f 133//133 132//132 131//131
f 132//132 133//133 135//135 134//134
f 134//134 135//135 137//137 136//136
f 136//136 137//137 139//139 138//138
f 138//138 139//139 141//141 140//140
f 140//140 141//141 143//143 142//142
f 142//142 143//143 144//144
f 147//147 146//146 145//145 144//144
f 143//143 147//147 144//144
f 145//145 146//146 148//148
f 146//146 149//149 148//148
f 150//150 145//145 148//148
f 146//146 147//147 151//151 149//149
f 151//151 152//152 150//150 149//149
f 150//150 152//152 153//153 144//144
f 145//145 150//150 144//144
f 153//153 154//154 140//140 142//142
f 137//137 156//156 155//155 139//139
f 155//155 156//156 158//158 157//157
f 158//158 160//160 159//159 157//157
f 159//159 160//160 162//162 161//161
f 162//162 163//163 134//134 136//136
f 164//164 133//133 131//131
f 166//166 164//164 131//131 165//165
f 168//168 164//164 166//166 167//167
f 169//169 168//168 167//167
f 169//169 167//167 170//170
f 173//173 172//172 171//171 170//170
f 167//167 173//173 170//170
f 175//175 171//171 172//172 174//174
f 177//177 171//171 175//175 176//176
f 179//179 178//178 177//177 176//176
f 178//178 181//181 180//180 177//177
f 183//183 181//181 178//178 182//182
f 185//185 183//183 182//182 184//184
f 187//187 186//186 183//183 185//185
f 189//189 188//188 186//186 187//187
f 191//191 190//190 188//188 189//189
f 193//193 192//192 190//190 191//191
f 195//195 194//194 192//192 193//193
f 197//197 196//196 194//194 195//195
f 199//199 198//198 196//196 197//197
f 205//205 207//207 206//206 204//204
f 209//209 207//207 205//205 208//208
f 210//210 209//209 208//208
f 210//210 212//212 211//211 209//209
f 212//212 214//214 213//213 211//211
f 71//71 213//213 214//214 215//215
f 216//216 71//71 215//215
f 215//215 214//214 218//218 217//217
f 220//220 219//219 215//215 217//217
f 222//222 219//219 220//220 221//221
f 224//224 223//223 219//219 222//222
f 225//225 224//224 222//222
f 227//227 226//226 224//224 225//225
f 229//229 226//226 227//227 228//228
f 230//230 229//229 228//228
f 232//232 229//229 230//230 231//231
f 233//233 229//229 232//232
f 231//231 230//230 235//235 234//234
f 234//234 235//235 237//237 236//236
f 239//239 237//237 235//235 238//238
f 240//240 239//239 238//238
f 242//242 239//239 240//240 241//241
f 244//244 239//239 242//242 243//243
f 243//243 242//242 246//246 245//245
f 248//248 247//247 244//244 243//243
f 240//240 250//250 249//249 241//241
f 241//241 249//249 221//221
f 250//250 252//252 251//251 249//249
f 228//228 252//252 250//250 238//238
f 250//250 240//240 238//238
f 237//237 253//253 236//236
f 255//255 254//254 231//231 234//234
f 226//226 229//229 233//233 256//256
f 235//235 230//230 228//228 238//238
f 224//224 226//226 256//256 257//257
f 256//256 259//259 258//258 257//257
f 251//251 252//252 227//227 225//225
f 223//223 224//224 257//257 260//260
f 223//223 260//260 216//216
f 251//251 225//225 222//222
f 246//246 242//242 241//241 221//221
f 220//220 246//246 221//221
f 249//249 251//251 222//222 221//221
f 246//246 220//220 217//217 261//261
f 218//218 214//214 212//212 262//262
f 213//213 66//66 263//263 211//211
f 212//212 210//210 264//264 202//202
f 262//262 212//212 202//202
f 211//211 263//263 265//265 209//209
f 209//209 265//265 266//266 207//207
f 265//265 268//268 267//267 266//266
f 266//266 267//267 270//270 269//269
f 273//273 272//272 271//271 270//270
f 267//267 273//273 270//270
f 274//274 271//271 272//272 53//53
f 276//276 271//271 274//274 275//275
f 278//278 276//276 275//275 277//277
f 280//280 278//278 277//277 279//279
f 282//282 280//280 279//279 281//281
f 284//284 282//282 281//281 283//283
f 286//286 284//284 283//283 285//285
f 288//288 284//284 286//286 287//287
f 290//290 288//288 287//287 289//289
f 292//292 291//291 288//288 290//290
f 294//294 293//293 291//291 292//292
f 296//296 295//295 293//293 294//294
f 298//298 296//296 294//294 297//297
f 300//300 298//298 297//297 299//299
f 302//302 301//301 298//298 300//300
f 304//304 303//303 302//302 300//300
f 299//299 297//297 306//306 305//305
f 305//305 306//306 308//308 307//307
f 310//310 309//309 305//305 307//307
f 311//311 304//304 300//300 299//299
f 297//297 294//294 292//292 306//306
f 306//306 292//292 290//290 308//308
f 308//308 290//290 289//289 312//312
f 291//291 282//282 284//284 288//288
f 293//293 280//280 282//282 291//291
f 313//313 276//276 278//278 295//295
f 277//277 275//275 315//315 314//314
f 268//268 47//47 273//273 267//267
f 204//204 206//206 301//301 302//302
f 207//207 266//266 269//269 206//206
f 198//198 203//203 303//303 196//196
f 196//196 303//303 304//304 194//194
f 194//194 304//304 311//311 192//192
f 192//192 311//311 309//309 190//190
f 190//190 309//309 310//310 188//188
f 173//173 316//316 187//187 185//185
f 184//184 182//182 318//318 317//317
f 317//317 318//318 320//320 319//319
f 319//319 320//320 322//322 321//321
f 321//321 322//322 323//323
f 323//323 322//322 325//325 324//324
f 327//327 326//326 323//323 324//324
f 326//326 327//327 328//328
f 327//327 329//329 328//328
f 330//330 326//326 328//328
f 331//331 329//329 327//327 324//324
f 332//332 331//331 324//324
f 331//331 333//333 330//330 329//329
f 330//330 333//333 334//334 323//323
f 326//326 330//330 323//323
f 325//325 335//335 324//324
f 335//335 325//325 336//336
f 332//332 335//335 336//336
f 334//334 337//337 319//319 321//321
f 182//182 178//178 179//179 318//318
f 338//338 170//170 171//171 177//177
f 180//180 338//338 177//177
f 289//289 168//168 169//169 338//338
f 312//312 289//289 338//338
f 131//131 129//129 339//339 165//165
f 283//283 281//281 128//128 130//130
f 281//281 279//279 127//127 128//128
f 125//125 123//123 193//193 191//191
f 314//314 315//315 120//120 122//122
f 121//121 119//119 197//197 195//195
f 341//341 340//340 114//114 116//116
f 115//115 113//113 201//201 200//200
f 113//113 111//111 262//262 202//202
f 110//110 218//218 262//262 111//111
f 218//218 110//110 107//107 261//261
f 217//217 218//218 261//261
f 107//107 106//106 245//245 261//261
f 344//344 343//343 342//342 104//104
f 105//105 344//344 104//104
f 346//346 345//345 342//342 343//343
f 348//348 347//347 346//346 343//343
f 347//347 350//350 349//349 346//346
f 349//349 350//350 351//351
f 353//353 347//347 348//348 352//352
f 355//355 354//354 353//353 352//352
f 353//353 354//354 356//356
f 354//354 358//358 357//357 356//356
f 357//357 360//360 359//359 356//356
f 359//359 360//360 362//362 361//361
f 362//362 364//364 363//363 361//361
f 366//366 365//365 360//360 357//357
f 367//367 366//366 357//357
f 369//369 366//366 367//367 368//368
f 371//371 366//366 369//369 370//370
f 373//373 372//372 371//371 370//370
f 367//367 358//358 374//374 368//368
f 368//368 374//374 375//375
f 375//375 374//374 355//355 376//376
f 378//378 377//377 375//375 376//376
f 355//355 352//352 376//376
f 374//374 358//358 354//354 355//355
f 379//379 348//348 343//343 344//344
f 379//379 344//344 380//380
f 63//63 378//378 379//379 380//380
f 103//103 248//248 243//243 245//245
f 106//106 103//103 245//245
f 342//342 102//102 104//104
f 101//101 248//248 103//103
f 342//342 345//345 99//99 102//102
f 100//100 247//247 248//248 101//101
f 247//247 100//100 97//97
f 346//346 349//349 95//95 98//98
f 345//345 346//346 98//98
f 97//97 96//96 253//253 244//244
f 247//247 97//97 244//244
f 95//95 349//349 351//351 94//94
f 253//253 96//96 93//93 236//236
f 91//91 363//363 90//90
f 255//255 92//92 89//89
f 363//363 364//364 88//88 90//90
f 87//87 254//254 255//255 89//89
f 86//86 254//254 87//87
f 364//364 362//362 381//381 84//84
f 85//85 364//364 84//84
f 382//382 371//371 372//372 80//80
f 81//81 382//382 80//80
f 78//78 259//259 79//79
f 77//77 372//372 373//373 75//75
f 258//258 259//259 78//78 76//76
f 75//75 373//373 74//74
f 258//258 76//76 73//73
f 260//260 72//72 71//71 216//216
f 67//67 70//70 377//377 64//64
f 65//65 66//66 213//213 71//71
f 61//61 63//63 380//380 108//108
f 109//109 61//61 108//108
f 64//64 377//377 378//378 63//63
f 66//66 62//62 60//60 263//263
f 59//59 61//61 109//109 112//112
f 60//60 58//58 268//268 265//265
f 263//263 60//60 265//265
f 57//57 59//59 112//112 114//114
f 340//340 57//57 114//114
f 35//35 28//28 25//25 56//56
f 25//25 24//24 55//55 56//56
f 19//19 33//33 37//37 22//22
f 21//21 19//19 22//22
f 10//10 383//383 13//13
f 383//383 10//10 8//8
f 6//6 384//384 383//383 8//8
f 3//3 384//384 6//6
f 32//32 2//2 5//5 31//31
f 12//12 13//13 4//4 1//1
f 385//385 12//12 1//1
f 384//384 3//3 4//4
f 12//12 385//385 14//14
f 383//383 384//384 4//4 13//13
f 20//20 385//385 1//1 34//34
f 1//1 2//2 32//32 34//34
f 14//14 385//385 20//20 15//15
f 31//31 5//5 7//7 386//386
f 9//9 11//11 16//16 387//387
f 7//7 9//9 387//387 386//386
f 19//19 20//20 34//34 33//33
f 33//33 29//29 30//30 37//37
f 19//19 21//21 17//17
f 27//27 31//31 386//386 26//26
f 387//387 16//16 18//18 23//23
f 386//386 387//387 23//23 26//26
f 38//38 39//39 42//42
f 388//388 40//40 41//41
f 22//22 40//40 388//388 55//55
f 24//24 22//22 55//55
f 48//48 39//39 36//36 389//389
f 42//42 39//39 48//48 44//44
f 389//389 36//36 35//35 390//390
f 49//49 388//388 41//41 43//43
f 55//55 388//388 49//49 52//52
f 390//390 35//35 56//56 54//54
f 47//47 48//48 389//389 273//273
f 46//46 47//47 268//268 58//58
f 273//273 389//389 390//390 272//272
f 340//340 50//50 45//45 57//57
f 51//51 50//50 340//340 341//341
f 272//272 390//390 54//54 53//53
f 365//365 382//382 381//381
f 382//382 365//365 366//366 371//371
f 370//370 369//369 70//70 68//68
f 360//360 365//365 381//381 362//362
f 358//358 367//367 357//357
f 70//70 369//369 368//368 375//375
f 377//377 70//70 375//375
f 350//350 359//359 361//361 351//351
f 350//350 347//347 353//353 356//356
f 359//359 350//350 356//356
f 348//348 379//379 378//378 376//376
f 352//352 348//348 376//376
f 381//381 382//382 81//81 84//84
f 372//372 77//77 80//80
f 370//370 68//68 69//69 74//74
f 373//373 370//370 74//74
f 364//364 85//85 88//88
f 361//361 363//363 91//91 94//94
f 351//351 361//361 94//94
f 99//99 345//345 98//98
f 380//380 344//344 105//105 108//108
f 83//83 82//82 233//233 232//232
f 82//82 79//79 259//259 256//256
f 233//233 82//82 256//256
f 258//258 73//73 72//72 260//260
f 257//257 258//258 260//260
f 86//86 83//83 232//232 231//231
f 254//254 86//86 231//231
f 227//227 252//252 228//228
f 219//219 223//223 216//216 215//215
f 92//92 255//255 234//234 236//236
f 93//93 92//92 236//236
f 253//253 237//237 239//239 244//244
f 245//245 246//246 261//261
f 338//338 169//169 170//170
f 129//129 126//126 125//125 339//339
f 316//316 166//166 165//165
f 166//166 316//316 173//173 167//167
f 307//307 308//308 312//312 391//391
f 391//391 312//312 338//338 180//180
f 339//339 125//125 191//191 189//189
f 165//165 339//339 189//189 187//187
f 316//316 165//165 187//187
f 172//172 173//173 185//185 184//184
f 392//392 310//310 307//307 391//391
f 181//181 392//392 391//391 180//180
f 188//188 310//310 392//392 186//186
f 186//186 392//392 181//181 183//183
f 270//270 271//271 276//276 313//313
f 295//295 278//278 280//280 293//293
f 53//53 51//51 341//341 393//393
f 274//274 53//53 393//393
f 275//275 274//274 393//393 315//315
f 279//279 277//277 314//314 127//127
f 269//269 270//270 313//313 394//394
f 394//394 313//313 295//295 296//296
f 393//393 341//341 116//116 118//118
f 315//315 393//393 118//118 120//120
f 127//127 314//314 122//122 124//124
f 206//206 269//269 394//394 301//301
f 301//301 394//394 296//296 298//298
f 303//303 203//203 204//204 302//302
f 309//309 311//311 299//299 305//305
f 117//117 115//115 200//200 199//199
f 119//119 117//117 199//199 197//197
f 123//123 121//121 195//195 193//193
f 395//395 286//286 285//285 163//163
f 160//160 395//395 163//163 162//162
f 287//287 286//286 395//395 396//396
f 396//396 395//395 160//160 158//158
f 285//285 283//283 130//130 132//132
f 163//163 285//285 132//132 134//134
f 287//287 396//396 397//397 168//168
f 289//289 287//287 168//168
f 156//156 397//397 396//396 158//158
f 135//135 133//133 164//164 168//168
f 397//397 135//135 168//168
f 135//135 397//397 156//156 137//137
f 398//398 159//159 161//161 154//154
f 152//152 398//398 154//154 153//153
f 157//157 159//159 398//398 399//399
f 399//399 398//398 152//152 151//151
f 149//149 150//150 148//148
f 161//161 162//162 136//136 138//138
f 154//154 161//161 138//138 140//140
f 153//153 142//142 144//144
f 400//400 155//155 157//157 399//399
f 147//147 400//400 399//399 151//151
f 139//139 155//155 400//400 141//141
f 141//141 400//400 147//147 143//143
f 401//401 175//175 174//174 337//337
f 333//333 401//401 337//337 334//334
f 176//176 175//175 401//401 402//402
f 402//402 401//401 333//333 331//331
f 329//329 330//330 328//328
f 174//174 172//172 184//184 317//317
f 337//337 174//174 317//317 319//319
f 334//334 321//321 323//323
f 402//402 331//331 332//332 336//336
f 403//403 402//402 336//336
f 403//403 179//179 176//176 402//402
f 335//335 332//332 324//324
f 318//318 179//179 403//403 320//320
f 322//322 320//320 403//403 336//336
f 325//325 322//322 336//336
f 264//264 201//201 113//113 202//202
f 199//199 200//200 201//201 264//264 210//210 208//208 205//205 204//204 203//203 198//198
