# Blender 5.0.0
# www.blender.org
mtllib Walk_Forward0033.mtl
o Mball.010
v 1.444813 3.587669 1.598078
v 1.130473 3.331760 1.616982
v 1.059271 3.494604 1.938403
v 1.357867 3.725495 1.923739
v 0.893158 3.447019 1.547996
v 0.844942 3.594719 1.877173
v 0.792463 3.909892 1.406990
v 0.742264 4.057086 1.735987
v 0.987218 4.175352 1.366423
v 0.922597 4.299444 1.699353
v 1.364839 4.087951 1.450282
v 1.303615 4.197071 1.780408
v 1.301064 4.199559 1.786718
v 1.387874 4.061699 1.461045
v 1.455657 3.918987 1.133644
v 1.432621 3.945240 1.122882
v 1.523107 3.776191 0.806213
v 1.500502 3.801951 0.795653
v 1.583441 3.313544 0.940717
v 1.515772 3.455590 1.268315
v 1.534686 3.694545 0.697781
v 1.518139 3.577980 0.515433
v 1.122838 3.889602 0.711719
v 1.203131 3.616673 0.450386
v 1.067453 3.458591 0.454229
v 0.928337 3.624547 0.752217
v 1.029065 3.161683 0.893226
v 1.171246 3.050558 0.536942
v 1.265979 3.046688 0.962077
v 1.329405 3.001203 0.570006
v 0.960941 3.304307 1.220596
v 1.198256 3.189049 1.289582
v 1.580041 3.302161 0.943246
v 1.512596 3.444958 1.270678
v 0.975021 3.414259 0.190316
v 1.273394 3.523901 0.102263
v 1.587207 3.182257 0.567010
v 1.611053 3.474062 0.374722
v 1.547137 3.722637 0.267394
v 1.514146 3.587539 0.571288
v 1.454687 3.795016 0.659341
v 1.575361 3.757744 0.338556
v 1.254929 4.247267 0.691421
v 1.383961 4.258908 0.308093
v 1.064760 4.715515 0.661285
v 1.191635 4.747165 0.279956
v 1.169240 4.713852 0.188670
v 1.357089 4.230373 0.224351
v 1.180936 4.214450 0.747408
v 0.992533 4.668773 0.720923
v 0.692203 4.448249 0.740455
v 0.834084 4.030129 0.773006
v 0.567187 4.298382 0.474885
v 0.655595 3.897711 0.526879
v 1.037694 3.626517 0.705902
v 0.853496 3.473296 0.496717
v 0.574664 5.115263 0.614919
v 0.693064 5.232217 0.241967
v 0.371125 5.473143 0.622838
v 0.483587 5.521728 0.238140
v 0.521220 5.865176 0.673497
v 0.633493 5.899053 0.286779
v 0.575233 5.897102 0.685649
v 0.687427 5.929352 0.298831
v 0.413557 6.001040 -0.173643
v 0.391667 5.956664 -0.108886
v 0.811623 6.146575 -0.077484
v 0.871722 6.335101 -0.236531
v 0.536840 6.387769 -0.499902
v 0.992454 6.304616 -0.029242
v 0.026834 6.039386 -0.258151
v 0.150117 6.426114 -0.584410
v 0.165392 6.498568 -0.617941
v 0.552115 6.460222 -0.533433
v 0.604642 6.797498 -0.623972
v 0.217918 6.835843 -0.708479
v 0.629177 7.195272 -0.598765
v 0.242453 7.233617 -0.683273
v 0.230434 7.553059 -0.551119
v 0.617158 7.514714 -0.466611
v 0.610445 7.581092 -0.424282
v 0.223722 7.619437 -0.508790
v 0.144699 7.950271 -0.137060
v 0.531423 7.911926 -0.052553
v 0.514257 7.945512 0.017440
v 0.127534 7.983857 -0.067067
v 0.042018 8.072748 0.259588
v 0.428742 8.034403 0.344096
v -0.070128 8.041763 0.646512
v 0.316596 8.003418 0.731020
v 0.216959 7.863372 1.043167
v -0.169764 7.901716 0.958660
v -0.191740 7.857316 1.023711
v 0.194983 7.818971 1.108219
v 0.071701 7.432242 1.434477
v -0.315023 7.470587 1.349969
v -0.330298 7.398134 1.383500
v 0.056425 7.359789 1.468008
v 0.003899 7.022514 1.558547
v -0.382824 7.060859 1.474039
v -0.407359 6.663085 1.448833
v -0.020636 6.624740 1.533340
v -0.395340 6.343643 1.316678
v -0.008617 6.305298 1.401186
v -0.001905 6.238919 1.358858
v -0.388628 6.277265 1.274350
v -0.309605 5.946431 0.902620
v 0.077118 5.908086 0.987128
v 0.094199 5.874476 0.917428
v -0.292493 5.912690 0.832783
v -0.255736 5.521294 0.594126
v 0.125291 5.483298 0.696700
v -0.310016 5.019176 0.637607
v 0.081852 4.987803 0.736531
v -0.319605 4.602615 0.583737
v 0.068601 4.575480 0.678028
v -0.270184 4.265368 0.484679
v 0.091737 4.250718 0.547580
v -0.189663 3.907448 0.457692
v 0.171065 4.096933 0.467597
v -0.163429 3.524143 0.430621
v 0.178191 3.772635 0.540797
v -0.154580 3.135709 0.385729
v 0.166578 3.402027 0.621773
v -0.148459 2.750350 0.281376
v 0.151793 3.006235 0.636246
v 0.554668 3.365793 0.525397
v 0.536495 2.978244 0.607235
v 0.138146 2.593578 0.621960
v 0.512215 2.632967 0.776979
v 0.127138 2.277868 0.610179
v 0.495505 2.266438 0.899527
v 0.143947 2.184739 0.668396
v 0.519981 1.893020 1.009755
v 0.199048 1.800761 0.858956
v 0.545107 1.517327 1.115541
v 0.271963 1.426223 0.967158
v 0.571069 1.133022 1.213717
v 0.306223 1.059786 1.074505
v 0.524836 0.675802 1.170124
v 0.287105 0.714622 1.080179
v 0.472900 0.280183 1.160094
v 0.208862 0.325583 1.064447
v 0.431410 -0.060956 1.067945
v 0.426597 -0.113385 1.014170
v 0.323540 -0.088814 0.663945
v 0.186465 0.331800 0.671699
v 0.438089 -0.129980 0.667220
v 0.442026 -0.107765 0.641918
v 0.517084 -0.120687 0.669831
v 0.507267 0.280927 0.517348
v 0.783077 0.239196 0.686299
v 0.679053 0.248152 1.078747
v 0.769412 0.642788 1.090854
v 0.277679 0.926195 0.692638
v 0.235746 1.260818 0.593265
v 0.614145 0.879840 0.485117
v 0.597001 1.201774 0.382621
v 0.974907 0.976968 0.704703
v 0.935261 1.324246 0.614813
v 0.895582 1.066893 1.090239
v 0.868164 1.478002 0.987402
v 0.798527 1.852990 0.872691
v 0.127058 2.164072 0.592052
v -0.140713 2.028981 -0.074267
v -0.140605 2.002741 -0.088342
v -0.137914 1.609261 -0.293758
v 0.147347 1.826385 0.225490
v -0.158734 1.711396 -0.524330
v -0.160155 1.634569 -0.598522
v -0.220157 1.334891 -0.714105
v -0.268178 1.191659 -0.327605
v -0.174975 1.577347 -0.242012
v -0.463272 0.800813 -0.406997
v -0.360373 0.968582 -0.764970
v -0.555106 1.034193 -0.869597
v -0.568293 1.402796 -0.885238
v -0.842898 1.331563 -0.686475
v -0.871618 0.977733 -0.748825
v -0.567330 1.799049 -0.837363
v -0.866793 1.714159 -0.596350
v -0.748672 1.189092 -0.306286
v -0.787982 1.572738 -0.215971
v -0.529138 1.155400 -0.222298
v -0.522872 1.521556 -0.086311
v -0.757747 1.955471 -0.127686
v -0.517754 1.907533 0.002977
v -0.738292 2.338310 -0.047666
v -0.520343 2.301958 0.087660
v -0.730578 2.727352 0.024728
v -0.534506 2.697742 0.180491
v -0.638892 3.123733 0.094192
v -0.553043 3.110523 0.182169
v -0.601432 3.520533 0.164564
v -0.568309 3.513506 0.204223
v -0.546641 3.981661 0.161316
v -0.519039 3.969254 0.200919
v -0.502966 4.409040 0.101833
v -0.477044 4.398100 0.163204
v -0.604243 4.585740 0.324573
v -0.673165 5.047595 0.378260
v -0.659867 5.134129 0.351358
v -0.490518 4.632897 -0.195804
v -0.462510 4.637810 -0.219046
v -0.513284 5.066455 -0.152519
v -0.083327 4.621315 -0.371776
v -0.078136 5.014277 -0.264360
v -0.561891 5.250959 -0.011889
v -0.072962 5.306415 -0.148012
v -0.546824 5.260257 -0.007213
v -0.083376 5.588290 0.002798
v -0.268812 5.593661 0.073547
v 0.004883 5.994992 -0.193187
v -0.415498 6.002510 0.057329
v -0.472376 6.046320 0.045269
v -0.348548 6.261610 -0.331007
v -0.584515 6.014386 0.432005
v -0.527685 5.968976 0.443951
v -0.798720 6.440113 -0.009223
v -0.910866 6.409128 0.377701
v -0.944494 6.482303 0.373815
v -0.832348 6.513288 -0.013108
v -0.507802 6.453372 -0.357081
v -0.662038 6.868872 -0.370940
v -0.719519 6.867224 -0.311702
v -0.637503 7.266646 -0.345734
v -0.694984 7.264998 -0.286496
v -0.767306 7.567779 0.053714
v -0.434197 7.646695 -0.281462
v -0.725114 7.633436 0.066397
v -0.354171 7.957631 0.165356
v -0.253366 7.804737 -0.233220
v -0.214843 7.643459 -0.414434
v -0.466317 7.926646 0.552279
v -0.837261 7.602451 0.453320
v -0.589806 7.711782 0.927551
v -0.770636 7.553740 0.879310
v -0.879452 7.536794 0.440637
v -0.973942 7.173692 0.815038
v -0.992282 7.182858 0.739231
v -1.016817 6.785083 0.714025
v -0.998477 6.775917 0.789831
v -0.750817 6.713384 1.215049
v -0.726282 7.111158 1.240255
v -0.723510 6.329933 1.010979
v -0.844242 6.360417 0.803690
v -0.669788 7.101429 1.292932
v -0.694323 6.703654 1.267726
v -1.035530 6.821695 0.370304
v -1.010995 7.219470 0.395511
v -0.923384 6.852681 -0.016620
v -0.898848 7.250455 0.008587
v -0.649905 7.523255 1.086599
v -0.284278 7.989933 0.182574
v -0.396425 7.958948 0.569498
v -0.187537 7.260008 -0.618504
v -0.212072 6.862233 -0.643711
v -0.133591 6.858579 -0.666893
v -0.109056 7.256354 -0.641687
v -0.288449 6.450136 -0.490054
v -0.684987 6.168655 0.829765
v -0.381118 5.546412 0.458224
v 0.308374 5.552376 0.068188
v -0.563021 5.256580 -0.002443
v 0.331076 5.272556 -0.085521
v 0.344991 4.927449 -0.228799
v 0.707414 4.854322 -0.013867
v 0.704556 5.180120 0.168327
v 0.323415 4.519831 -0.345163
v 0.643133 4.444882 -0.121506
v 0.703278 4.414870 0.019689
v 0.692275 4.327149 0.096671
v 0.940695 4.503324 -0.002099
v 0.592186 4.359958 0.387121
v 0.634324 4.046647 0.244630
v 0.679997 3.951013 -0.124631
v 0.676214 3.684987 0.318079
v 0.693501 3.515692 -0.059974
v 0.655322 3.314840 0.431222
v 0.670053 3.135053 0.056328
v 0.617320 2.941884 0.541439
v 0.653368 2.761134 0.168625
v 0.697071 2.568067 0.656780
v 0.744582 2.390186 0.283877
v 0.734672 2.220675 0.765284
v 0.792138 2.047816 0.390939
v 0.538321 1.935537 0.165243
v 0.541141 2.316658 0.067344
v 0.147563 2.028728 0.129761
v 0.153759 2.377119 -0.019498
v 0.558622 2.724390 0.048226
v 0.169189 2.738092 -0.164081
v 0.576526 3.098094 -0.071079
v 0.182184 3.094903 -0.314873
v 0.597859 3.486106 -0.185326
v 0.210139 3.508981 -0.405631
v -0.217997 3.295126 -0.530652
v -0.214724 3.694576 -0.498997
v -0.603006 3.270914 -0.393793
v -0.606062 3.643920 -0.265350
v -0.190841 4.120131 -0.458128
v -0.541448 4.130538 -0.236179
v -0.567805 4.117998 -0.200394
v -0.634664 3.631398 -0.224768
v -0.599313 2.908982 -0.551882
v -0.209539 2.904783 -0.544559
v -0.585073 2.532115 -0.640657
v -0.193972 2.509912 -0.521575
v -0.794489 2.845203 -0.360725
v -0.813756 2.459467 -0.432004
v -0.688567 3.238696 -0.292170
v -0.177104 2.105992 -0.487157
v 0.609403 3.940790 -0.243011
v 0.571763 3.734591 0.416579
v 0.541144 4.074431 0.341219
v -0.144803 1.998463 -0.086200
v -0.537209 0.789226 -0.371369
v -0.776470 0.798655 -0.395479
v -0.558394 0.412202 -0.641203
v -0.894651 0.523895 -0.697869
v -0.538675 0.244901 -0.939633
v -0.897133 0.362532 -1.004123
v -0.511382 0.173200 -1.199084
v -0.842498 0.714047 -1.348233
v -0.918046 0.397645 -1.018649
v -0.497996 0.207933 -1.273582
v -0.725421 0.632302 -1.447740
v -0.438356 0.584610 -1.437996
v -0.434587 0.631048 -1.431299
v -0.401441 0.591841 -1.414543
v -0.437958 0.923488 -1.197261
v -0.851985 0.839814 -1.183778
v -0.277327 0.737332 -1.114087
v -0.428330 0.303984 -0.956086
v -0.874913 0.816455 -1.175900
v -0.885380 0.921495 -0.908152
v -0.430110 0.471705 -0.657929
v -0.163899 1.716752 -0.557885
v -0.143744 2.373713 0.109208
v 0.558424 5.017350 0.649482
v 0.503500 4.628192 0.644163
v 0.330873 6.602003 1.491754
v 0.409354 6.598349 1.468572
v 0.436661 6.214898 1.264502
v 0.355408 6.999777 1.516961
v 0.433889 6.996123 1.493778
v 0.883855 6.989485 1.221008
v 0.859320 6.591710 1.195801
v 0.510266 7.408221 1.340122
v 0.729620 7.404984 1.207149
v 0.570365 7.596747 1.181074
v 0.916801 6.593359 1.136563
v 0.941336 6.991133 1.161770
v 1.145201 7.005676 0.866687
v 1.120665 6.607902 0.841481
v 1.054165 7.345069 0.863176
v 1.166312 7.376054 0.476252
v 1.257347 7.036661 0.479763
v 1.020537 7.418243 0.859290
v 1.132683 7.449229 0.472367
v 0.693853 7.811611 0.805803
v 0.806000 7.842596 0.418879
v 0.628771 7.857296 0.793526
v 0.740918 7.888281 0.406602
v 1.066059 7.497940 0.046378
v 1.220294 7.082439 0.060236
v 1.238634 7.073273 0.136043
v 1.214099 6.675499 0.110836
v 1.195759 6.684665 0.035030
v 0.948099 6.747199 -0.390188
v 0.972634 7.144973 -0.364981
v 0.916140 7.154702 -0.417658
v 0.891605 6.756927 -0.442865
v 1.232812 6.638886 0.454557
v 1.101270 6.321563 0.409430
v 0.989123 6.290578 0.796354
v 1.059078 6.255906 0.396747
v 0.946931 6.224921 0.783671
v 0.656014 6.211661 1.131529
v 0.475184 6.053620 1.083288
v 0.906804 7.689702 0.020303
v 0.945327 7.528424 -0.160911
v 0.900599 4.224827 2.015905
v 0.986482 3.743159 2.124255
v 1.447989 3.598302 1.595716
v 0.860246 3.767180 1.079590
v 1.055000 4.032640 1.039022
v 1.378464 3.779750 0.712432
v 1.084233 4.049583 0.030743
v 0.784411 3.907284 0.145040
v -0.566974 2.172590 -0.740292
v -0.831283 2.092898 -0.509307
v 0.485668 4.327339 0.459652
v 0.281974 4.072735 -0.438037
v 0.858436 1.683464 0.497957
v 0.562036 1.556403 0.275104
v 0.166375 1.634939 0.411259
v 0.878282 0.621181 0.705295
v 0.568327 0.643723 0.528999
v 0.265636 0.691940 0.692886
v -0.286638 0.861509 -0.840313
v -0.473782 1.038305 -0.938995
v -0.886813 0.929253 -0.887861
vn 0.8047 -0.4081 0.4312
vn 0.0584 -0.9014 0.4290
vn 0.0176 -0.7855 0.6186
vn 0.7637 -0.1514 0.6276
vn -0.8029 -0.5846 0.1164
vn -0.8088 -0.4643 0.3609
vn -0.9594 0.1524 -0.2372
vn -0.9742 0.2182 0.0581
vn -0.2957 0.8659 -0.4034
vn -0.3174 0.9411 -0.1168
vn 0.5425 0.8146 -0.2051
vn 0.7596 0.6496 -0.0337
vn 0.6451 0.7046 0.2957
vn 0.9071 0.4196 0.0332
vn 0.9106 0.4133 0.0080
vn 0.5512 0.8005 -0.2354
vn 0.9138 0.3962 -0.0900
vn 0.5493 0.7532 -0.3619
vn 0.9951 0.0461 0.0874
vn 0.9767 -0.0258 0.2131
vn 0.8137 0.4666 -0.3467
vn 0.9908 0.1106 0.0778
vn -0.2498 0.7872 -0.5639
vn -0.3285 -0.3669 -0.8703
vn -0.7924 -0.6018 0.0993
vn -0.9183 0.1250 -0.3756
vn -0.7751 -0.6318 -0.0068
vn -0.4934 -0.7952 -0.3523
vn 0.0902 -0.9519 0.2929
vn 0.1994 -0.9420 -0.2701
vn -0.7996 -0.5933 0.0925
vn 0.0627 -0.9103 0.4093
vn 0.8745 -0.4183 0.2456
vn 0.7977 -0.4749 0.3717
vn -0.5588 -0.5795 -0.5933
vn 0.2195 -0.3206 -0.9214
vn 0.8431 -0.4942 -0.2122
vn 0.9410 -0.1969 -0.2752
vn 0.7474 0.0685 -0.6608
vn 0.7111 -0.2282 0.6651
vn 0.7764 0.1329 0.6161
vn 0.9695 0.2391 -0.0536
vn 0.7341 0.3063 0.6060
vn 0.9323 0.3590 -0.0446
vn 0.6196 0.4923 0.6114
vn 0.8258 0.5635 -0.0220
vn 0.6860 0.3945 -0.6114
vn 0.7277 0.2183 -0.6502
vn 0.2913 0.1109 0.9502
vn 0.1894 0.2479 0.9501
vn -0.3779 -0.0845 0.9220
vn -0.3803 -0.1528 0.9121
vn -0.8646 -0.4869 0.1243
vn -0.9140 -0.3401 0.2210
vn -0.0904 -0.5669 0.8188
vn -0.6913 -0.6420 0.3316
vn 0.4909 0.4739 0.7311
vn 0.7474 0.6556 -0.1080
vn 0.6434 -0.0472 0.7641
vn 0.9616 0.1076 -0.2524
vn 0.5419 -0.7235 0.4277
vn 0.7002 -0.6834 -0.2067
vn 0.4776 -0.8382 0.2634
vn 0.5670 -0.8166 -0.1078
vn 0.2511 -0.7704 -0.5861
vn 0.3663 -0.6763 -0.6391
vn 0.5401 -0.7291 -0.4204
vn 0.6094 -0.5056 -0.6108
vn 0.3091 -0.5424 -0.7812
vn 0.7709 -0.5346 -0.3462
vn -0.1130 -0.7287 -0.6755
vn -0.0436 -0.5072 -0.8607
vn -0.0150 -0.3374 -0.9412
vn 0.3509 -0.3722 -0.8593
vn 0.3617 -0.1272 -0.9236
vn 0.0437 -0.1000 -0.9940
vn 0.3897 0.2004 -0.8989
vn 0.0689 0.2228 -0.9724
vn 0.0279 0.4790 -0.8774
vn 0.4165 0.4483 -0.7909
vn 0.3960 0.6232 -0.6744
vn 0.0357 0.6363 -0.7706
vn 0.0105 0.8483 -0.5294
vn 0.3760 0.8179 -0.4355
vn 0.3610 0.8948 -0.2629
vn -0.0286 0.9359 -0.3512
vn -0.0478 0.9935 -0.1037
vn 0.2661 0.9638 -0.0157
vn -0.1186 0.9705 0.2097
vn 0.1925 0.9361 0.2945
vn 0.1707 0.8258 0.5375
vn -0.2017 0.8776 0.4349
vn -0.2376 0.7675 0.5954
vn 0.1123 0.7304 0.6737
vn 0.0441 0.5048 0.8621
vn -0.3091 0.5424 0.7812
vn -0.3509 0.3722 0.8593
vn 0.0168 0.3350 0.9421
vn -0.0437 0.1000 0.9940
vn -0.3617 0.1272 0.9236
vn -0.3897 -0.2004 0.8989
vn -0.0689 -0.2228 0.9724
vn -0.4165 -0.4483 0.7909
vn -0.0478 -0.4709 0.8809
vn -0.0482 -0.6447 0.7629
vn -0.3960 -0.6232 0.6744
vn -0.3677 -0.8209 0.4370
vn -0.0080 -0.8416 0.5401
vn 0.0624 -0.7445 0.6647
vn -0.4708 -0.7308 0.4942
vn -0.5406 -0.1518 0.8275
vn 0.0544 -0.1855 0.9811
vn -0.4579 0.0085 0.8890
vn -0.0358 -0.0036 0.9994
vn -0.4755 -0.2774 0.8348
vn -0.0359 -0.2617 0.9645
vn -0.4866 -0.2739 0.8296
vn 0.0377 -0.3351 0.9414
vn -0.3928 -0.0377 0.9188
vn 0.1310 -0.1123 0.9850
vn -0.4567 0.0003 0.8896
vn 0.0084 0.1479 0.9890
vn -0.5157 -0.0768 0.8533
vn -0.1662 0.0973 0.9813
vn -0.5286 -0.1765 0.8303
vn -0.3776 0.0347 0.9253
vn 0.4824 0.1671 0.8599
vn 0.3698 0.2088 0.9054
vn -0.6305 0.0271 0.7757
vn 0.1365 0.2768 0.9512
vn -0.8034 0.0451 0.5938
vn -0.0226 0.2989 0.9540
vn -0.8443 0.1339 0.5188
vn -0.0328 0.3005 0.9532
vn -0.8344 0.0675 0.5470
vn -0.0524 0.2597 0.9643
vn -0.8313 0.0466 0.5539
vn -0.0373 0.1065 0.9936
vn -0.8046 0.0410 0.5924
vn -0.0279 -0.0475 0.9985
vn -0.7987 0.0765 0.5968
vn -0.0198 -0.1421 0.9897
vn -0.8372 -0.1370 0.5294
vn -0.0799 -0.7257 0.6834
vn -0.0300 -0.8555 0.5169
vn -0.7273 -0.5634 -0.3918
vn -0.8840 -0.0701 -0.4622
vn -0.0983 -0.9426 -0.3192
vn -0.0204 -0.5121 -0.8587
vn 0.5500 -0.7565 -0.3537
vn 0.0268 -0.1126 -0.9933
vn 0.8544 -0.3747 -0.3600
vn 0.6898 -0.3469 0.6355
vn 0.6993 -0.1938 0.6880
vn -0.9040 -0.0930 -0.4174
vn -0.8844 -0.2603 -0.3874
vn 0.0553 -0.2062 -0.9769
vn 0.0725 -0.2991 -0.9515
vn 0.9400 -0.1536 -0.3045
vn 0.9246 0.0064 -0.3808
vn 0.7639 0.0029 0.6453
vn 0.7899 0.2567 0.5569
vn 0.8075 0.2868 0.5154
vn -0.9592 -0.1288 0.2517
vn -0.4362 -0.2967 0.8495
vn -0.0634 -0.5097 0.8580
vn 0.7592 -0.6491 0.0474
vn -0.5892 -0.6799 -0.4366
vn 0.9695 -0.0991 -0.2240
vn 0.8552 0.0788 -0.5122
vn 0.8384 -0.0915 -0.5373
vn 0.7910 -0.3768 0.4819
vn 0.7348 -0.3675 0.5702
vn 0.6780 -0.3973 0.6184
vn 0.9797 0.1330 -0.1498
vn -0.0150 0.6712 -0.7411
vn -0.0484 0.1070 -0.9931
vn -0.9209 0.0229 -0.3891
vn -0.9494 0.2949 -0.1080
vn -0.0424 0.1952 -0.9798
vn -0.9468 0.0704 -0.3141
vn -0.7386 -0.1891 0.6471
vn -0.8051 -0.1496 0.5740
vn 0.0396 -0.3323 0.9423
vn -0.0352 -0.2899 0.9564
vn -0.8096 -0.0826 0.5812
vn -0.1198 -0.2627 0.9574
vn -0.8314 -0.0904 0.5483
vn -0.2667 -0.2652 0.9266
vn -0.8601 0.0041 0.5101
vn -0.4235 -0.1737 0.8891
vn -0.8778 0.0622 0.4750
vn -0.5603 -0.0721 0.8252
vn -0.9068 0.0623 0.4169
vn -0.6448 -0.0182 0.7642
vn -0.9309 0.1276 0.3424
vn -0.7414 0.0471 0.6694
vn -0.9987 0.0401 0.0329
vn -0.9269 -0.1291 0.3524
vn -0.9230 -0.2606 0.2831
vn -0.9477 0.0246 0.3181
vn -0.8351 0.3771 0.4005
vn -0.9345 0.0263 -0.3549
vn -0.6415 0.1081 -0.7594
vn -0.6695 0.1705 -0.7230
vn -0.1187 0.2072 -0.9711
vn -0.0598 0.3204 -0.9454
vn -0.7255 0.2693 -0.6333
vn -0.0442 0.4485 -0.8927
vn -0.5943 0.6675 -0.4487
vn -0.1564 0.0657 -0.9855
vn -0.7080 0.1436 -0.6915
vn -0.1861 -0.6226 -0.7601
vn -0.6072 -0.5870 -0.5355
vn -0.5732 -0.7070 -0.4142
vn -0.4114 -0.6249 -0.6635
vn -0.6838 -0.7255 -0.0776
vn -0.7635 -0.6452 0.0296
vn -0.7563 -0.4848 -0.4393
vn -0.8436 -0.5271 -0.1028
vn -0.9319 -0.3478 -0.1029
vn -0.8343 -0.3117 -0.4547
vn -0.5936 -0.4007 -0.6979
vn -0.6344 -0.0938 -0.7673
vn -0.7554 -0.1117 -0.6457
vn -0.6203 0.2662 -0.7378
vn -0.7491 0.2711 -0.6045
vn -0.7884 0.4847 -0.3788
vn -0.5358 0.5728 -0.6203
vn -0.6819 0.6548 -0.3259
vn -0.4605 0.8487 -0.2602
vn -0.3196 0.7733 -0.5476
vn -0.2848 0.5673 -0.7727
vn -0.5387 0.8364 0.1010
vn -0.7776 0.6285 0.0163
vn -0.5431 0.7265 0.4211
vn -0.7719 0.5344 0.3443
vn -0.8866 0.4620 -0.0199
vn -0.9010 0.2249 0.3710
vn -0.9479 0.2583 0.1865
vn -0.9821 -0.1377 0.1285
vn -0.9327 -0.1498 0.3282
vn -0.7666 -0.1798 0.6165
vn -0.7372 0.1985 0.6459
vn -0.6936 -0.5048 0.5140
vn -0.8471 -0.4714 0.2453
vn -0.5941 0.1967 0.7799
vn -0.6161 -0.2050 0.7606
vn -0.9880 -0.0933 -0.1232
vn -0.9689 0.2301 -0.0916
vn -0.9002 -0.0760 -0.4288
vn -0.8837 0.2427 -0.4003
vn -0.6094 0.5056 0.6108
vn -0.2932 0.9290 -0.2258
vn -0.3645 0.9171 0.1613
vn -0.3634 0.2679 -0.8923
vn -0.3960 -0.0876 -0.9141
vn -0.2124 -0.1063 -0.9714
vn -0.1956 0.2789 -0.9402
vn -0.3527 -0.4089 -0.8417
vn -0.6554 -0.7001 0.2834
vn -0.9501 0.0292 0.3106
vn 0.5166 0.0327 -0.8556
vn -0.9445 0.3042 -0.1237
vn 0.3945 0.4365 -0.8086
vn 0.3649 0.2990 -0.8817
vn 0.4989 0.3010 -0.8127
vn 0.6057 0.5149 -0.6066
vn 0.3452 0.1880 -0.9195
vn 0.6246 0.0173 -0.7807
vn 0.7422 -0.5117 -0.4328
vn -0.7111 -0.2957 -0.6379
vn 0.3384 0.0238 -0.9407
vn -0.2576 -0.9514 0.1689
vn 0.9181 0.0220 0.3958
vn 0.9694 0.0150 -0.2449
vn 0.9222 0.1094 0.3709
vn 0.9594 -0.0723 -0.2727
vn 0.9099 0.0552 0.4111
vn 0.9584 -0.1347 -0.2516
vn 0.8870 0.1749 0.4274
vn 0.9497 -0.0134 -0.3130
vn 0.8628 0.2663 0.4297
vn 0.9393 0.0459 -0.3401
vn 0.8306 0.2539 0.4957
vn 0.9337 0.0164 -0.3577
vn 0.3411 -0.2998 -0.8909
vn 0.4818 -0.2000 -0.8532
vn 0.5500 -0.2808 -0.7866
vn 0.5571 -0.2061 -0.8045
vn 0.6212 -0.1944 -0.7592
vn 0.5550 -0.2152 -0.8035
vn 0.6596 -0.2546 -0.7072
vn 0.4806 -0.2034 -0.8530
vn 0.6664 -0.1702 -0.7260
vn 0.3639 -0.1139 -0.9244
vn 0.0511 0.0519 -0.9973
vn -0.1580 0.0624 -0.9855
vn -0.5659 0.2322 -0.7911
vn -0.6775 0.1647 -0.7168
vn -0.2125 0.1205 -0.9697
vn -0.6474 0.1410 -0.7490
vn -0.9554 0.1418 -0.2589
vn -0.9629 0.1508 -0.2237
vn -0.3936 0.2036 -0.8965
vn 0.3366 0.0035 -0.9416
vn -0.2356 0.1492 -0.9603
vn 0.5762 -0.0209 -0.8170
vn -0.9511 0.1766 -0.2534
vn -0.9525 0.0938 -0.2897
vn -0.9469 0.2148 -0.2393
vn 0.7267 0.0665 -0.6837
vn 0.6979 -0.0097 -0.7161
vn 0.5390 0.2153 0.8143
vn 0.5398 -0.0401 0.8409
vn 0.5850 -0.3229 0.7440
vn 0.0811 -0.4761 0.8756
vn -0.6530 -0.2962 0.6970
vn 0.0535 -0.7673 0.6391
vn -0.7922 -0.4304 0.4326
vn 0.0588 -0.9228 0.3809
vn -0.7455 -0.6665 -0.0056
vn 0.1967 -0.9431 -0.2681
vn -0.6682 0.2190 -0.7111
vn -0.9388 -0.3442 0.0159
vn 0.2959 -0.7975 -0.5258
vn -0.4078 -0.0026 -0.9131
vn 0.2858 -0.1781 -0.9416
vn 0.3756 0.4049 -0.8337
vn 0.8097 -0.0706 -0.5826
vn 0.3423 0.7868 -0.5135
vn -0.4690 0.7605 -0.4490
vn 0.9737 0.1159 -0.1960
vn 0.7796 -0.5990 0.1829
vn -0.9001 0.3447 -0.2666
vn -0.7851 0.5743 -0.2319
vn 0.7280 -0.4794 0.4901
vn 0.8169 0.1303 -0.5618
vn -0.4943 -0.2640 0.8282
vn 0.1284 0.2362 0.9632
vn -0.0924 -0.1813 0.9791
vn 0.1800 -0.2597 0.9488
vn 0.3600 -0.2612 0.8956
vn 0.2880 -0.5698 0.7697
vn 0.2223 0.1249 0.9669
vn 0.3876 0.1007 0.9163
vn 0.6386 0.0872 0.7646
vn 0.6153 -0.2730 0.7395
vn 0.3515 0.4078 0.8427
vn 0.5921 0.4015 0.6987
vn 0.4114 0.6248 0.6636
vn 0.7340 -0.2896 0.6143
vn 0.7682 0.0939 0.6333
vn 0.9002 0.0760 0.4288
vn 0.8837 -0.2427 0.4003
vn 0.8323 0.3218 0.4513
vn 0.9359 0.3379 0.0995
vn 0.9880 0.0933 0.1232
vn 0.7504 0.5006 0.4316
vn 0.8533 0.5123 0.0967
vn 0.5642 0.7179 0.4079
vn 0.6502 0.7576 0.0572
vn 0.4173 0.8198 0.3922
vn 0.4971 0.8676 0.0155
vn 0.8479 0.4708 -0.2436
vn 0.9299 0.1577 -0.3324
vn 0.9768 0.1581 -0.1445
vn 0.9563 -0.2406 -0.1661
vn 0.9048 -0.2184 -0.3656
vn 0.7372 -0.1985 -0.6459
vn 0.7666 0.1798 -0.6165
vn 0.6161 0.2050 -0.7606
vn 0.5941 -0.1967 -0.7799
vn 0.9689 -0.2301 0.0916
vn 0.8810 -0.4726 0.0214
vn 0.7916 -0.4754 0.3839
vn 0.7668 -0.6417 -0.0138
vn 0.6912 -0.6392 0.3372
vn 0.5375 -0.5709 0.6206
vn 0.3210 -0.7693 0.5524
vn 0.6532 0.7033 -0.2803
vn 0.6936 0.5048 -0.5140
vn -0.3198 0.6091 0.7257
vn -0.1840 -0.1511 0.9713
vn 0.9061 -0.0080 0.4229
vn -0.9537 0.1474 -0.2621
vn -0.2962 0.8514 -0.4330
vn 0.3460 -0.1907 0.9187
vn 0.1376 -0.0414 -0.9896
vn -0.6631 -0.2788 -0.6947
vn -0.0969 0.2053 -0.9739
vn -0.9480 0.1217 -0.2942
vn 0.0836 -0.5707 0.8169
vn 0.3245 0.0588 -0.9441
vn 0.9172 0.0348 -0.3969
vn 0.1718 -0.3290 -0.9286
vn -0.8597 -0.2950 -0.4171
vn 0.9022 -0.2405 -0.3580
vn 0.0179 -0.0431 -0.9989
vn -0.8626 0.1090 -0.4940
vn 0.9648 0.2355 0.1168
vn 0.3187 0.9194 -0.2304
vn -0.8009 0.5849 -0.1280
s 1
f 4//4 3//3 2//2 1//1
f 2//2 3//3 6//6 5//5
f 5//5 6//6 8//8 7//7
f 8//8 10//10 9//9 7//7
f 13//13 12//12 11//11 9//9
f 10//10 13//13 9//9
f 11//11 12//12 14//14
f 16//16 11//11 14//14 15//15
f 18//18 16//16 15//15 17//17
f 15//15 20//20 19//19 17//17
f 21//21 18//18 17//17
f 23//23 18//18 21//21 22//22
f 24//24 23//23 22//22
f 26//26 23//23 24//24 25//25
f 28//28 27//27 26//26 25//25
f 30//30 29//29 27//27 28//28
f 29//29 32//32 31//31 27//27
f 34//34 32//32 29//29 33//33
f 36//36 30//30 28//28 35//35
f 38//38 37//37 30//30 36//36
f 39//39 38//38 36//36
f 37//37 38//38 40//40 22//22
f 40//40 38//38 42//42 41//41
f 41//41 42//42 44//44 43//43
f 43//43 44//44 46//46 45//45
f 44//44 48//48 47//47 46//46
f 50//50 49//49 43//43 45//45
f 52//52 49//49 50//50 51//51
f 54//54 52//52 51//51 53//53
f 56//56 55//55 52//52 54//54
f 45//45 46//46 58//58 57//57
f 58//58 60//60 59//59 57//57
f 60//60 62//62 61//61 59//59
f 61//61 62//62 64//64 63//63
f 64//64 62//62 66//66 65//65
f 67//67 64//64 65//65
f 69//69 68//68 67//67 65//65
f 68//68 70//70 67//67
f 72//72 69//69 65//65 71//71
f 74//74 69//69 72//72 73//73
f 76//76 75//75 74//74 73//73
f 78//78 77//77 75//75 76//76
f 80//80 77//77 78//78 79//79
f 82//82 81//81 80//80 79//79
f 84//84 81//81 82//82 83//83
f 86//86 85//85 84//84 83//83
f 88//88 85//85 86//86 87//87
f 90//90 88//88 87//87 89//89
f 92//92 91//91 90//90 89//89
f 94//94 91//91 92//92 93//93
f 96//96 95//95 94//94 93//93
f 98//98 95//95 96//96 97//97
f 100//100 99//99 98//98 97//97
f 102//102 99//99 100//100 101//101
f 104//104 102//102 101//101 103//103
f 106//106 105//105 104//104 103//103
f 108//108 105//105 106//106 107//107
f 110//110 109//109 108//108 107//107
f 112//112 109//109 110//110 111//111
f 114//114 112//112 111//111 113//113
f 116//116 114//114 113//113 115//115
f 118//118 116//116 115//115 117//117
f 120//120 118//118 117//117 119//119
f 122//122 120//120 119//119 121//121
f 124//124 122//122 121//121 123//123
f 126//126 124//124 123//123 125//125
f 128//128 127//127 124//124 126//126
f 130//130 128//128 126//126 129//129
f 132//132 130//130 129//129 131//131
f 133//133 132//132 131//131
f 132//132 133//133 135//135 134//134
f 134//134 135//135 137//137 136//136
f 136//136 137//137 139//139 138//138
f 138//138 139//139 141//141 140//140
f 140//140 141//141 143//143 142//142
f 142//142 143//143 144//144
f 147//147 146//146 145//145 144//144
f 143//143 147//147 144//144
f 145//145 146//146 148//148
f 146//146 149//149 148//148
f 150//150 145//145 148//148
f 146//146 147//147 151//151 149//149
f 151//151 152//152 150//150 149//149
f 150//150 152//152 153//153 144//144
f 145//145 150//150 144//144
f 153//153 154//154 140//140 142//142
f 137//137 156//156 155//155 139//139
f 155//155 156//156 158//158 157//157
f 158//158 160//160 159//159 157//157
f 159//159 160//160 162//162 161//161
f 162//162 163//163 134//134 136//136
f 164//164 133//133 131//131
f 166//166 164//164 131//131 165//165
f 168//168 164//164 166//166 167//167
f 169//169 168//168 167//167
f 169//169 167//167 170//170
f 173//173 172//172 171//171 170//170
f 167//167 173//173 170//170
f 175//175 171//171 172//172 174//174
f 177//177 171//171 175//175 176//176
f 179//179 178//178 177//177 176//176
f 178//178 181//181 180//180 177//177
f 183//183 181//181 178//178 182//182
f 185//185 183//183 182//182 184//184
f 187//187 186//186 183//183 185//185
f 189//189 188//188 186//186 187//187
f 191//191 190//190 188//188 189//189
f 193//193 192//192 190//190 191//191
f 195//195 194//194 192//192 193//193
f 197//197 196//196 194//194 195//195
f 199//199 198//198 196//196 197//197
f 205//205 207//207 206//206 204//204
f 209//209 207//207 205//205 208//208
f 210//210 209//209 208//208
f 210//210 212//212 211//211 209//209
f 212//212 214//214 213//213 211//211
f 71//71 213//213 214//214 215//215
f 216//216 71//71 215//215
f 215//215 214//214 218//218 217//217
f 220//220 219//219 215//215 217//217
f 222//222 219//219 220//220 221//221
f 224//224 223//223 219//219 222//222
f 225//225 224//224 222//222
f 227//227 226//226 224//224 225//225
f 229//229 226//226 227//227 228//228
f 230//230 229//229 228//228
f 232//232 229//229 230//230 231//231
f 233//233 229//229 232//232
f 231//231 230//230 235//235 234//234
f 234//234 235//235 237//237 236//236
f 239//239 237//237 235//235 238//238
f 240//240 239//239 238//238
f 242//242 239//239 240//240 241//241
f 244//244 239//239 242//242 243//243
f 243//243 242//242 246//246 245//245
f 248//248 247//247 244//244 243//243
f 240//240 250//250 249//249 241//241
f 241//241 249//249 221//221
f 250//250 252//252 251//251 249//249
f 228//228 252//252 250//250 238//238
f 250//250 240//240 238//238
f 237//237 253//253 236//236
f 255//255 254//254 231//231 234//234
f 226//226 229//229 233//233 256//256
f 235//235 230//230 228//228 238//238
f 224//224 226//226 256//256 257//257
f 256//256 259//259 258//258 257//257
f 251//251 252//252 227//227 225//225
f 223//223 224//224 257//257 260//260
f 223//223 260//260 216//216
f 251//251 225//225 222//222
f 246//246 242//242 241//241 221//221
f 220//220 246//246 221//221
f 249//249 251//251 222//222 221//221
f 246//246 220//220 217//217 261//261
f 218//218 214//214 212//212 262//262
f 213//213 66//66 263//263 211//211
f 212//212 210//210 264//264 202//202
f 262//262 212//212 202//202
f 211//211 263//263 265//265 209//209
f 209//209 265//265 266//266 207//207
f 265//265 268//268 267//267 266//266
f 266//266 267//267 270//270 269//269
f 273//273 272//272 271//271 270//270
f 267//267 273//273 270//270
f 274//274 271//271 272//272 53//53
f 276//276 271//271 274//274 275//275
f 278//278 276//276 275//275 277//277
f 280//280 278//278 277//277 279//279
f 282//282 280//280 279//279 281//281
f 284//284 282//282 281//281 283//283
f 286//286 284//284 283//283 285//285
f 288//288 284//284 286//286 287//287
f 290//290 288//288 287//287 289//289
f 292//292 291//291 288//288 290//290
f 294//294 293//293 291//291 292//292
f 296//296 295//295 293//293 294//294
f 298//298 296//296 294//294 297//297
f 300//300 298//298 297//297 299//299
f 302//302 301//301 298//298 300//300
f 304//304 303//303 302//302 300//300
f 299//299 297//297 306//306 305//305
f 305//305 306//306 308//308 307//307
f 310//310 309//309 305//305 307//307
f 311//311 304//304 300//300 299//299
f 297//297 294//294 292//292 306//306
f 306//306 292//292 290//290 308//308
f 308//308 290//290 289//289 312//312
f 291//291 282//282 284//284 288//288
f 293//293 280//280 282//282 291//291
f 313//313 276//276 278//278 295//295
f 277//277 275//275 315//315 314//314
f 268//268 47//47 273//273 267//267
f 204//204 206//206 301//301 302//302
f 207//207 266//266 269//269 206//206
f 198//198 203//203 303//303 196//196
f 196//196 303//303 304//304 194//194
f 194//194 304//304 311//311 192//192
f 192//192 311//311 309//309 190//190
f 190//190 309//309 310//310 188//188
f 173//173 316//316 187//187 185//185
f 184//184 182//182 318//318 317//317
f 317//317 318//318 320//320 319//319
f 319//319 320//320 322//322 321//321
f 321//321 322//322 323//323
f 323//323 322//322 325//325 324//324
f 327//327 326//326 323//323 324//324
f 326//326 327//327 328//328
f 327//327 329//329 328//328
f 330//330 326//326 328//328
f 331//331 329//329 327//327 324//324
f 332//332 331//331 324//324
f 331//331 333//333 330//330 329//329
f 330//330 333//333 334//334 323//323
f 326//326 330//330 323//323
f 325//325 335//335 324//324
f 335//335 325//325 336//336
f 332//332 335//335 336//336
f 334//334 337//337 319//319 321//321
f 182//182 178//178 179//179 318//318
f 338//338 170//170 171//171 177//177
f 180//180 338//338 177//177
f 289//289 168//168 169//169 338//338
f 312//312 289//289 338//338
f 131//131 129//129 339//339 165//165
f 283//283 281//281 128//128 130//130
f 281//281 279//279 127//127 128//128
f 125//125 123//123 193//193 191//191
f 314//314 315//315 120//120 122//122
f 121//121 119//119 197//197 195//195
f 341//341 340//340 114//114 116//116
f 115//115 113//113 201//201 200//200
f 113//113 111//111 262//262 202//202
f 110//110 218//218 262//262 111//111
f 218//218 110//110 107//107 261//261
f 217//217 218//218 261//261
f 107//107 106//106 245//245 261//261
f 344//344 343//343 342//342 104//104
f 105//105 344//344 104//104
f 346//346 345//345 342//342 343//343
f 348//348 347//347 346//346 343//343
f 347//347 350//350 349//349 346//346
f 349//349 350//350 351//351
f 353//353 347//347 348//348 352//352
f 355//355 354//354 353//353 352//352
f 353//353 354//354 356//356
f 354//354 358//358 357//357 356//356
f 357//357 360//360 359//359 356//356
f 359//359 360//360 362//362 361//361
f 362//362 364//364 363//363 361//361
f 366//366 365//365 360//360 357//357
f 367//367 366//366 357//357
f 369//369 366//366 367//367 368//368
f 371//371 366//366 369//369 370//370
f 373//373 372//372 371//371 370//370
f 367//367 358//358 374//374 368//368
f 368//368 374//374 375//375
f 375//375 374//374 355//355 376//376
f 378//378 377//377 375//375 376//376
f 355//355 352//352 376//376
f 374//374 358//358 354//354 355//355
f 379//379 348//348 343//343 344//344
f 379//379 344//344 380//380
f 63//63 378//378 379//379 380//380
f 103//103 248//248 243//243 245//245
f 106//106 103//103 245//245
f 342//342 102//102 104//104
f 101//101 248//248 103//103
f 342//342 345//345 99//99 102//102
f 100//100 247//247 248//248 101//101
f 247//247 100//100 97//97
f 346//346 349//349 95//95 98//98
f 345//345 346//346 98//98
f 97//97 96//96 253//253 244//244
f 247//247 97//97 244//244
f 95//95 349//349 351//351 94//94
f 253//253 96//96 93//93 236//236
f 91//91 363//363 90//90
f 255//255 92//92 89//89
f 363//363 364//364 88//88 90//90
f 87//87 254//254 255//255 89//89
f 86//86 254//254 87//87
f 364//364 362//362 381//381 84//84
f 85//85 364//364 84//84
f 382//382 371//371 372//372 80//80
f 81//81 382//382 80//80
f 78//78 259//259 79//79
f 77//77 372//372 373//373 75//75
f 258//258 259//259 78//78 76//76
f 75//75 373//373 74//74
f 258//258 76//76 73//73
f 260//260 72//72 71//71 216//216
f 67//67 70//70 377//377 64//64
f 65//65 66//66 213//213 71//71
f 61//61 63//63 380//380 108//108
f 109//109 61//61 108//108
f 64//64 377//377 378//378 63//63
f 66//66 62//62 60//60 263//263
f 59//59 61//61 109//109 112//112
f 60//60 58//58 268//268 265//265
f 263//263 60//60 265//265
f 57//57 59//59 112//112 114//114
f 340//340 57//57 114//114
f 35//35 28//28 25//25 56//56
f 25//25 24//24 55//55 56//56
f 19//19 33//33 37//37 22//22
f 21//21 19//19 22//22
f 10//10 383//383 13//13
f 383//383 10//10 8//8
f 6//6 384//384 383//383 8//8
f 3//3 384//384 6//6
f 32//32 2//2 5//5 31//31
f 12//12 13//13 4//4 1//1
f 385//385 12//12 1//1
f 384//384 3//3 4//4
f 12//12 385//385 14//14
f 383//383 384//384 4//4 13//13
f 20//20 385//385 1//1 34//34
f 1//1 2//2 32//32 34//34
f 14//14 385//385 20//20 15//15
f 31//31 5//5 7//7 386//386
f 9//9 11//11 16//16 387//387
f 7//7 9//9 387//387 386//386
f 19//19 20//20 34//34 33//33
f 33//33 29//29 30//30 37//37
f 19//19 21//21 17//17
f 27//27 31//31 386//386 26//26
f 387//387 16//16 18//18 23//23
f 386//386 387//387 23//23 26//26
f 38//38 39//39 42//42
f 388//388 40//40 41//41
f 22//22 40//40 388//388 55//55
f 24//24 22//22 55//55
f 48//48 39//39 36//36 389//389
f 42//42 39//39 48//48 44//44
f 389//389 36//36 35//35 390//390
f 49//49 388//388 41//41 43//43
f 55//55 388//388 49//49 52//52
f 390//390 35//35 56//56 54//54
f 47//47 48//48 389//389 273//273
f 46//46 47//47 268//268 58//58
f 273//273 389//389 390//390 272//272
f 340//340 50//50 45//45 57//57
f 51//51 50//50 340//340 341//341
f 272//272 390//390 54//54 53//53
f 365//365 382//382 381//381
f 382//382 365//365 366//366 371//371
f 370//370 369//369 70//70 68//68
f 360//360 365//365 381//381 362//362
f 358//358 367//367 357//357
f 70//70 369//369 368//368 375//375
f 377//377 70//70 375//375
f 350//350 359//359 361//361 351//351
f 350//350 347//347 353//353 356//356
f 359//359 350//350 356//356
f 348//348 379//379 378//378 376//376
f 352//352 348//348 376//376
f 381//381 382//382 81//81 84//84
f 372//372 77//77 80//80
f 370//370 68//68 69//69 74//74
f 373//373 370//370 74//74
f 364//364 85//85 88//88
f 361//361 363//363 91//91 94//94
f 351//351 361//361 94//94
f 99//99 345//345 98//98
f 380//380 344//344 105//105 108//108
f 83//83 82//82 233//233 232//232
f 82//82 79//79 259//259 256//256
f 233//233 82//82 256//256
f 258//258 73//73 72//72 260//260
f 257//257 258//258 260//260
f 86//86 83//83 232//232 231//231
f 254//254 86//86 231//231
f 227//227 252//252 228//228
f 219//219 223//223 216//216 215//215
f 92//92 255//255 234//234 236//236
f 93//93 92//92 236//236
f 253//253 237//237 239//239 244//244
f 245//245 246//246 261//261
f 338//338 169//169 170//170
f 129//129 126//126 125//125 339//339
f 316//316 166//166 165//165
f 166//166 316//316 173//173 167//167
f 307//307 308//308 312//312 391//391
f 391//391 312//312 338//338 180//180
f 339//339 125//125 191//191 189//189
f 165//165 339//339 189//189 187//187
f 316//316 165//165 187//187
f 172//172 173//173 185//185 184//184
f 392//392 310//310 307//307 391//391
f 181//181 392//392 391//391 180//180
f 188//188 310//310 392//392 186//186
f 186//186 392//392 181//181 183//183
f 270//270 271//271 276//276 313//313
f 295//295 278//278 280//280 293//293
f 53//53 51//51 341//341 393//393
f 274//274 53//53 393//393
f 275//275 274//274 393//393 315//315
f 279//279 277//277 314//314 127//127
f 269//269 270//270 313//313 394//394
f 394//394 313//313 295//295 296//296
f 393//393 341//341 116//116 118//118
f 315//315 393//393 118//118 120//120
f 127//127 314//314 122//122 124//124
f 206//206 269//269 394//394 301//301
f 301//301 394//394 296//296 298//298
f 303//303 203//203 204//204 302//302
f 309//309 311//311 299//299 305//305
f 117//117 115//115 200//200 199//199
f 119//119 117//117 199//199 197//197
f 123//123 121//121 195//195 193//193
f 395//395 286//286 285//285 163//163
f 160//160 395//395 163//163 162//162
f 287//287 286//286 395//395 396//396
f 396//396 395//395 160//160 158//158
f 285//285 283//283 130//130 132//132
f 163//163 285//285 132//132 134//134
f 287//287 396//396 397//397 168//168
f 289//289 287//287 168//168
f 156//156 397//397 396//396 158//158
f 135//135 133//133 164//164 168//168
f 397//397 135//135 168//168
f 135//135 397//397 156//156 137//137
f 398//398 159//159 161//161 154//154
f 152//152 398//398 154//154 153//153
f 157//157 159//159 398//398 399//399
f 399//399 398//398 152//152 151//151
f 149//149 150//150 148//148
f 161//161 162//162 136//136 138//138
f 154//154 161//161 138//138 140//140
f 153//153 142//142 144//144
f 400//400 155//155 157//157 399//399
f 147//147 400//400 399//399 151//151
f 139//139 155//155 400//400 141//141
f 141//141 400//400 147//147 143//143
f 401//401 175//175 174//174 337//337
f 333//333 401//401 337//337 334//334
f 176//176 175//175 401//401 402//402
f 402//402 401//401 333//333 331//331
f 329//329 330//330 328//328
f 174//174 172//172 184//184 317//317
f 337//337 174//174 317//317 319//319
f 334//334 321//321 323//323
f 402//402 331//331 332//332 336//336
f 403//403 402//402 336//336
f 403//403 179//179 176//176 402//402
f 335//335 332//332 324//324
f 318//318 179//179 403//403 320//320
f 322//322 320//320 403//403 336//336
f 325//325 322//322 336//336
f 264//264 201//201 113//113 202//202
f 199//199 200//200 201//201 264//264 210//210 208//208 205//205 204//204 203//203 198//198
