# Blender 5.0.0
# www.blender.org
mtllib Walk_Forward0024.mtl
o Mball.010
v 1.436069 3.820581 -0.699690
v 1.154422 3.587945 -0.849417
v 1.229608 3.256490 -0.623024
v 1.498601 3.469820 -0.488866
v 0.905085 3.605827 -0.758439
v 1.004895 3.270143 -0.543491
v 0.750032 3.873117 -0.446038
v 0.847933 3.536662 -0.231301
v 0.911810 4.084319 -0.282564
v 0.998141 3.730063 -0.082211
v 1.297138 4.116092 -0.363834
v 1.385382 3.761405 -0.175835
v 1.385795 3.754198 -0.171791
v 1.323133 4.104906 -0.382629
v 1.242157 4.448207 -0.595494
v 1.216162 4.459393 -0.576699
v 1.160861 4.791378 -0.808393
v 1.135352 4.802354 -0.789951
v 1.275815 4.514973 -1.118137
v 1.356982 4.171281 -0.905720
v 1.122756 4.899577 -0.911451
v 1.040248 5.064509 -1.063132
v 0.749952 4.770728 -0.708513
v 0.725842 5.005840 -1.007928
v 0.597262 4.886423 -1.100381
v 0.588377 4.559838 -0.871734
v 0.743462 4.292561 -1.184131
v 0.707768 4.698678 -1.378153
v 0.992369 4.274753 -1.274910
v 0.863074 4.714352 -1.423970
v 0.824109 3.949127 -0.971304
v 1.073446 3.931246 -1.062281
v 1.273793 4.507051 -1.125455
v 1.355093 4.163882 -0.912554
v 0.428523 4.919112 -1.038700
v 0.575681 5.232160 -1.032731
v 1.095450 4.896748 -1.329953
v 1.018143 5.220249 -1.172694
v 0.932118 5.342406 -0.976451
v 1.135642 5.031026 -1.089699
v 1.216164 4.963777 -0.927158
v 1.017457 5.312013 -0.964164
v 1.214473 4.887283 -0.527331
v 0.974490 5.314796 -0.540016
v 1.169727 4.932745 -0.110952
v 0.947522 5.317685 -0.178270
v 0.856149 5.349621 -0.198107
v 0.880703 5.357473 -0.546846
v 1.208318 4.773286 -0.530729
v 1.166981 4.810428 -0.106548
v 0.966655 4.455929 -0.142665
v 0.971518 4.434446 -0.559920
v 0.674022 4.429646 -0.157175
v 0.622140 4.474327 -0.584853
v 0.943912 4.585047 -0.939731
v 0.614619 4.592621 -0.986863
v 0.738395 5.166788 0.347200
v 0.606489 5.327513 0.014621
v 0.515961 5.529940 0.452762
v 0.392764 5.568431 0.070339
v 0.627764 5.943471 0.434625
v 0.504896 5.964819 0.049896
v 0.677294 5.983333 0.421860
v 0.554491 6.002779 0.037029
v 0.046402 6.004254 -0.255216
v 0.068826 5.961980 -0.189732
v 0.426243 6.207721 -0.342716
v 0.367355 6.391235 -0.505693
v -0.074396 6.380703 -0.589537
v 0.590619 6.391618 -0.377811
v -0.338601 5.985415 -0.161111
v -0.459399 6.361864 -0.495431
v -0.473382 6.433324 -0.530674
v -0.088379 6.452163 -0.624779
v -0.132924 6.787029 -0.723760
v -0.517927 6.768190 -0.629655
v -0.144091 7.186422 -0.709470
v -0.529094 7.167583 -0.615365
v -0.502985 7.492107 -0.492792
v -0.117982 7.510946 -0.586897
v -0.107897 7.578883 -0.546667
v -0.492900 7.560044 -0.452562
v -0.392247 7.904078 -0.092464
v -0.007244 7.922916 -0.186569
v 0.013085 7.958933 -0.117992
v -0.371919 7.940094 -0.023886
v -0.273796 8.040195 0.297994
v 0.111208 8.059034 0.203889
v -0.151036 8.022226 0.682939
v 0.233967 8.041065 0.588834
v 0.338517 7.911297 0.902490
v -0.046486 7.892457 0.996595
v -0.023969 7.850170 1.062371
v 0.361034 7.869009 0.968266
v 0.481832 7.492559 1.302586
v 0.096829 7.473721 1.396691
v 0.110812 7.402261 1.431933
v 0.495815 7.421100 1.337828
v 0.540360 7.086234 1.436809
v 0.155357 7.067395 1.530914
v 0.166524 6.668002 1.516625
v 0.551527 6.686841 1.422519
v 0.140415 6.343478 1.394052
v 0.525418 6.362317 1.299946
v 0.515333 6.294380 1.259717
v 0.130330 6.275541 1.353822
v 0.029677 5.931508 0.993724
v 0.414680 5.950346 0.899619
v 0.394445 5.914317 0.831333
v 0.009412 5.895318 0.925312
v -0.046216 5.493364 0.699074
v 0.343889 5.513196 0.623106
v -0.010258 4.993607 0.736030
v 0.383711 5.004837 0.664148
v -0.003245 4.618128 0.635869
v 0.384422 4.579601 0.608584
v -0.053377 4.283113 0.504020
v 0.324913 4.195866 0.512241
v -0.160106 4.110047 0.439762
v 0.159236 3.797737 0.437978
v -0.138185 3.824616 0.530924
v 0.089965 3.445824 0.345034
v -0.086271 3.488180 0.632090
v 0.049389 3.097055 0.244161
v -0.025966 3.131244 0.705253
v 0.014081 2.767638 0.052658
v 0.415700 2.999762 0.035295
v 0.358605 2.662522 -0.155966
v -0.015203 2.460649 -0.169117
v 0.281179 2.284946 -0.249663
v -0.038806 2.234110 -0.348918
v 0.202687 1.953636 -0.372149
v -0.049862 2.124787 -0.431676
v 0.188691 1.584896 -0.484721
v -0.079904 1.703807 -0.692845
v 0.179566 1.214413 -0.603127
v -0.043268 1.322483 -0.801018
v 0.179287 0.837377 -0.736518
v -0.043421 0.934353 -0.912226
v 0.287465 0.651595 -1.142729
v 0.020553 0.703192 -1.169162
v 0.325317 0.549932 -1.445372
v 0.044589 0.604385 -1.485117
v 0.344289 0.562617 -1.730860
v 0.340721 0.612172 -1.786369
v 0.166643 1.007861 -1.890810
v -0.062383 1.055075 -1.597622
v 0.285588 1.024355 -1.900832
v 0.279229 1.061148 -1.891434
v 0.359181 1.044803 -1.879930
v 0.224612 1.298075 -1.628466
v 0.531675 1.175220 -1.563201
v 0.512334 0.694129 -1.458685
v 0.504034 0.791936 -1.142957
v -0.001836 1.166049 -1.228500
v 0.014827 1.507933 -1.154038
v 0.346107 1.299371 -1.317964
v 0.409052 1.576423 -1.265095
v 0.629586 1.215958 -1.049279
v 0.673035 1.420278 -0.981718
v 0.534223 0.895258 -0.814954
v 0.524785 1.225240 -0.661854
v 0.497115 1.613657 -0.560526
v -0.036778 2.159724 -0.402190
v 0.110553 2.376642 0.802662
v 0.115749 2.348122 0.806987
v 0.223159 1.970004 0.996996
v 0.072644 2.084713 -0.666475
v 0.175295 1.806262 0.572714
v 0.218033 1.718956 0.698542
v 0.242122 1.421016 0.894210
v 0.176498 1.641304 1.255450
v 0.196811 2.007622 1.106336
v 0.056493 1.252987 1.416094
v 0.169381 1.085302 1.059502
v -0.020761 1.000586 0.957415
v -0.091340 1.246627 0.749261
v -0.370283 1.307491 0.945509
v -0.335076 0.997707 1.091442
v -0.160424 1.569824 0.571404
v -0.464926 1.651905 0.807323
v -0.296021 1.553711 1.295032
v -0.405447 1.895306 1.157185
v -0.084617 1.649584 1.364072
v -0.151509 2.027910 1.266800
v -0.445906 2.251132 1.015683
v -0.216049 2.379913 1.125361
v -0.487157 2.607107 0.874146
v -0.276802 2.736926 0.981492
v -0.539541 2.953943 0.723108
v -0.357945 3.083013 0.818080
v -0.512096 3.314527 0.554261
v -0.436095 3.380125 0.602115
v -0.538641 3.665417 0.391686
v -0.508437 3.694191 0.418119
v -0.548301 3.996060 0.251963
v -0.513902 4.017054 0.277463
v -0.445926 4.315874 0.336787
v -0.387968 4.342132 0.352957
v -0.293921 4.686795 0.563705
v -0.433876 5.035392 0.656290
v -0.457198 5.102124 0.633565
v -0.678098 4.352148 0.046877
v -0.664549 4.362424 -0.005738
v -0.749133 4.780964 0.156774
v -0.353719 4.466969 -0.317005
v -0.369068 4.922667 -0.179751
v -0.627011 5.152776 0.284972
v -0.285607 5.268053 -0.036218
v -0.612205 5.165328 0.281805
v -0.235162 5.543553 0.111171
v -0.356125 5.529301 0.253146
v -0.316112 5.943131 -0.095422
v -0.539509 5.913200 0.304910
v -0.600466 5.948245 0.319123
v -0.728767 6.151204 -0.060400
v -0.477704 5.929169 0.703852
v -0.416669 5.892266 0.689507
v -0.958179 6.291856 0.415708
v -0.835420 6.273887 0.800653
v -0.875110 6.341739 0.812372
v -0.997869 6.359708 0.427427
v -0.902963 6.318534 -0.012739
v -1.092105 6.709219 0.045053
v -1.108424 6.704236 0.121455
v -1.103272 7.108612 0.059342
v -1.119591 7.103629 0.135744
v -1.027472 7.418491 0.465309
v -0.936464 7.516714 0.030130
v -0.991680 7.490036 0.458577
v -0.654490 7.867270 0.386586
v -0.772088 7.700611 -0.004965
v -0.821155 7.532899 -0.180509
v -0.531731 7.849300 0.771531
v -0.868920 7.472067 0.843522
v -0.403810 7.646704 1.149871
v -0.568186 7.462806 1.184965
v -0.904713 7.400522 0.850254
v -0.734994 7.054705 1.214177
v -0.794158 7.055993 1.156226
v -0.782991 6.656600 1.141936
v -0.723827 6.655311 1.199888
v -0.265840 6.656096 1.462217
v -0.277007 7.055489 1.476507
v -0.311421 6.265009 1.269979
v -0.534685 6.264627 1.142096
v -0.197786 7.057014 1.497820
v -0.186619 6.657621 1.483530
v -0.995122 6.666012 0.851249
v -1.006289 7.065405 0.865538
v -1.117881 6.683981 0.466304
v -1.129048 7.083375 0.480593
v -0.344922 7.463189 1.312848
v -0.588398 7.909709 0.371565
v -0.465639 7.891740 0.756510
v -0.866736 7.141812 -0.372747
v -0.855569 6.742418 -0.387037
v -0.800416 6.747468 -0.441195
v -0.811583 7.146861 -0.426905
v -0.787654 6.334719 -0.223378
v -0.360489 6.097296 1.094435
v -0.232967 5.492413 0.635505
v 0.143226 5.564055 -0.001732
v -0.621656 5.161047 0.293955
v 0.108350 5.296289 -0.148805
v 0.076391 4.955586 -0.290089
v 0.506303 4.975573 -0.209974
v 0.578404 5.282331 -0.052798
v 0.079484 4.548450 -0.391315
v 0.494250 4.568407 -0.234184
v 0.596600 4.568065 -0.153107
v 0.467416 4.804274 -0.242911
v 0.527646 5.224913 -0.246900
v 0.717495 4.322563 0.113674
v 0.638528 3.804434 0.170533
v 0.650526 4.033602 -0.169448
v 0.591624 3.378556 0.078546
v 0.664978 3.604269 -0.277684
v 0.527044 3.027027 -0.067211
v 0.605921 3.251565 -0.418304
v 0.449115 2.684483 -0.215714
v 0.548493 2.903655 -0.566895
v 0.483412 2.318548 -0.354531
v 0.600050 2.529826 -0.704033
v 0.470607 1.986246 -0.457006
v 0.625569 2.163875 -0.809626
v 0.435020 2.312603 -1.041156
v 0.448067 2.677254 -0.857947
v 0.089564 2.302587 -0.647548
v 0.113691 2.698746 -0.673151
v 0.480876 2.983933 -0.643563
v 0.159231 3.067844 -0.623800
v 0.539495 3.334161 -0.506183
v 0.204461 3.434563 -0.595503
v 0.585138 3.687517 -0.382284
v 0.211343 3.783885 -0.517821
v -0.104844 3.085919 -0.201137
v -0.167212 3.440877 -0.305159
v -0.469511 3.034214 0.077870
v -0.535062 3.415648 0.002096
v -0.246455 3.830852 -0.388515
v -0.616080 3.828575 -0.110578
v -0.636676 3.837274 -0.070383
v -0.562158 3.427492 0.046507
v -0.406401 2.637624 0.130098
v -0.053988 2.753795 -0.076096
v -0.327538 2.276532 0.283021
v 0.010029 2.434781 0.127810
v -0.592768 2.698793 0.379449
v -0.550361 2.352087 0.530476
v -0.551242 3.065649 0.207865
v 0.079015 2.129571 0.343201
v 0.566176 4.097725 -0.279656
v 0.476443 3.357229 0.181173
v 0.548872 3.761960 0.276293
v 0.115117 2.352815 0.826167
v -0.017970 1.259531 1.451857
v -0.251230 1.194131 1.440634
v 0.040913 0.750122 1.456583
v -0.302554 0.720776 1.375674
v 0.104121 0.375423 1.326806
v -0.261911 0.340756 1.238757
v 0.158351 0.104474 1.174011
v -0.236889 0.304124 0.796138
v -0.286680 0.349631 1.210652
v 0.171330 0.067225 1.100213
v -0.103173 0.180146 0.760017
v 0.185912 0.204930 0.775058
v 0.182422 0.244605 0.754883
v 0.219693 0.236882 0.786057
v 0.122109 0.655896 0.769651
v -0.274963 0.534606 0.849515
v 0.301650 0.622993 0.920143
v 0.205280 0.422854 1.276437
v -0.294708 0.520685 0.869168
v -0.335447 0.824291 1.008622
v 0.159862 0.801251 1.404848
v 0.182406 1.794693 0.601133
v 0.043427 2.748299 0.755218
v 0.757946 5.056657 0.372377
v 0.756128 4.638212 0.350820
v 0.834016 6.707563 1.234060
v 0.889169 6.712612 1.179901
v 0.843588 6.321526 0.987663
v 0.822849 7.106956 1.248349
v 0.878002 7.112005 1.194191
v 1.114538 7.145205 0.762102
v 1.125705 6.745812 0.747812
v 0.810087 7.519706 1.030533
v 0.925396 7.535890 0.819894
v 0.751200 7.703220 0.867555
v 1.142024 6.750794 0.671410
v 1.130857 7.150188 0.685700
v 1.140314 7.170443 0.340851
v 1.151481 6.771049 0.326561
v 1.020302 7.494717 0.379728
v 0.897543 7.512686 -0.005217
v 1.017555 7.188412 -0.044094
v 0.980612 7.562568 0.391447
v 0.857853 7.580537 0.006502
v 0.623278 7.905817 0.489216
v 0.500519 7.923787 0.104271
v 0.554996 7.941682 0.507039
v 0.432237 7.959651 0.122094
v 0.557118 7.589797 -0.334941
v 0.746260 7.199113 -0.392733
v 0.805424 7.197824 -0.334781
v 0.816591 6.798430 -0.349071
v 0.757427 6.799720 -0.407023
v 0.299440 6.798935 -0.669352
v 0.288273 7.198328 -0.655062
v 0.209052 7.196803 -0.676376
v 0.220219 6.797409 -0.690665
v 1.028722 6.789019 -0.058384
v 0.927146 6.453902 -0.043099
v 1.049906 6.435933 0.341846
v 0.891353 6.382358 -0.036368
v 1.014113 6.364388 0.348577
v 0.958897 6.337710 0.777025
v 0.794521 6.153813 0.812119
v 0.382922 7.757128 -0.287280
v 0.333854 7.589416 -0.462824
v 1.116741 3.346004 -0.039230
v 1.243811 3.102697 -0.373868
v 1.437958 3.827980 -0.692855
v 0.669056 4.216418 -0.658903
v 0.830835 4.427620 -0.495428
v 1.205094 4.859798 -0.919735
v 0.504299 5.268631 -0.575814
v 0.381770 4.903026 -0.593025
v -0.232738 1.921259 0.442018
v -0.501261 2.006376 0.666673
v 0.664406 4.243072 0.275475
v 0.116848 4.131778 -0.462880
v 0.659617 1.786915 -0.911940
v 0.431049 1.939932 -1.186040
v 0.020452 1.903764 -0.947677
v 0.542663 1.222560 -1.262609
v 0.217124 1.335521 -1.359566
v -0.061658 1.114350 -1.315002
v 0.258758 0.949051 1.054837
v 0.056381 0.955929 0.899188
v -0.339080 0.846939 1.019301
vn 0.8876 -0.1700 -0.4281
vn 0.1803 -0.5042 -0.8446
vn 0.2315 -0.6811 -0.6946
vn 0.9546 -0.2846 -0.0880
vn -0.6921 -0.5089 -0.5119
vn -0.6370 -0.7083 -0.3041
vn -0.9661 -0.1071 0.2349
vn -0.8772 -0.3005 0.3744
vn -0.3823 0.3998 0.8330
vn -0.3124 0.2417 0.9187
vn 0.4001 0.5280 0.7491
vn 0.6806 0.4412 0.5850
vn 0.6854 0.2073 0.6980
vn 0.8388 0.4008 0.3683
vn 0.8360 0.4180 0.3554
vn 0.3999 0.5496 0.7334
vn 0.8182 0.4797 0.3168
vn 0.3696 0.6431 0.6707
vn 0.9553 0.2874 -0.0692
vn 0.9804 0.1661 -0.1057
vn 0.6516 0.6644 0.3661
vn 0.8215 0.3150 -0.4753
vn -0.4165 0.5455 0.7273
vn -0.5399 0.7438 -0.3941
vn -0.7839 -0.3081 -0.5391
vn -0.9865 0.0055 0.1636
vn -0.6966 -0.4207 -0.5812
vn -0.6611 -0.0799 -0.7460
vn 0.1617 -0.4095 -0.8979
vn -0.0638 0.0106 -0.9979
vn -0.6939 -0.4902 -0.5274
vn 0.1766 -0.4880 -0.8548
vn 0.8399 -0.0167 -0.5424
vn 0.8317 -0.1371 -0.5381
vn -0.8848 -0.0753 -0.4598
vn -0.5434 0.6941 -0.4722
vn 0.5771 0.3299 -0.7471
vn 0.4223 0.6323 -0.6495
vn 0.0616 0.9613 -0.2686
vn 0.8336 0.0721 -0.5477
vn 0.9676 0.1776 -0.1792
vn 0.6477 0.7516 -0.1252
vn 0.9779 0.2009 0.0575
vn 0.6538 0.7549 0.0514
vn 0.8902 0.3073 0.3362
vn 0.5685 0.8029 0.1794
vn -0.0861 0.9960 0.0221
vn 0.0467 0.9989 0.0090
vn 0.9361 -0.3514 -0.0165
vn 0.9091 -0.1940 0.3685
vn 0.6608 -0.7163 0.2244
vn 0.4317 -0.8924 -0.1312
vn -0.4045 -0.9128 0.0563
vn -0.5182 -0.8470 -0.1185
vn 0.3489 -0.6763 -0.6488
vn -0.3280 -0.7315 -0.5978
vn 0.7354 0.4072 0.5417
vn 0.5023 0.8433 -0.1910
vn 0.9428 0.0525 0.3292
vn 0.6762 0.1816 -0.7140
vn 0.7596 -0.6471 0.0648
vn 0.5925 -0.5853 -0.5535
vn 0.6420 -0.7655 -0.0433
vn 0.5464 -0.7324 -0.4063
vn 0.0689 -0.7552 -0.6518
vn 0.1317 -0.6449 -0.7529
vn 0.3733 -0.6605 -0.6514
vn 0.3167 -0.4455 -0.8374
vn 0.0041 -0.5341 -0.8454
vn 0.5618 -0.4419 -0.6993
vn -0.2952 -0.7849 -0.5448
vn -0.3490 -0.5604 -0.7511
vn -0.3854 -0.3890 -0.8367
vn -0.0188 -0.3640 -0.9312
vn -0.0712 -0.1273 -0.9893
vn -0.3895 -0.1422 -0.9100
vn -0.0829 0.1963 -0.9770
vn -0.4028 0.1870 -0.8960
vn -0.4354 0.4451 -0.7826
vn -0.0498 0.4440 -0.8946
vn -0.0407 0.6190 -0.7844
vn -0.3994 0.6041 -0.6896
vn -0.3458 0.8203 -0.4556
vn 0.0144 0.8210 -0.5707
vn 0.0685 0.9072 -0.4152
vn -0.3119 0.9077 -0.2806
vn -0.2289 0.9720 -0.0521
vn 0.0838 0.9851 -0.1499
vn -0.1496 0.9544 0.2582
vn 0.1617 0.9734 0.1622
vn 0.2687 0.8799 0.3919
vn -0.1100 0.8615 0.4957
vn -0.0543 0.7554 0.6530
vn 0.2936 0.7863 0.5437
vn 0.3506 0.5580 0.7521
vn -0.0041 0.5341 0.8454
vn 0.0188 0.3640 0.9312
vn 0.3879 0.3867 0.8366
vn 0.3895 0.1422 0.9100
vn 0.0712 0.1273 0.9893
vn 0.0829 -0.1963 0.9770
vn 0.4028 -0.1870 0.8960
vn 0.0498 -0.4440 0.8946
vn 0.4164 -0.4380 0.7967
vn 0.3861 -0.6138 0.6886
vn 0.0407 -0.6190 0.7844
vn -0.0068 -0.8229 0.5681
vn 0.3521 -0.8127 0.4643
vn 0.4555 -0.7102 0.5369
vn -0.0809 -0.7353 0.6729
vn -0.0903 -0.1820 0.9792
vn 0.5093 -0.1530 0.8469
vn -0.0515 -0.0854 0.9950
vn 0.3985 -0.0065 0.9172
vn -0.1257 -0.2875 0.9495
vn 0.3403 -0.2234 0.9134
vn -0.2180 -0.2418 0.9455
vn 0.2585 -0.2582 0.9309
vn -0.2598 -0.0043 0.9656
vn 0.2716 -0.1675 0.9477
vn 0.0364 0.1787 0.9832
vn 0.5765 -0.1616 0.8009
vn 0.4702 0.2489 0.8467
vn 0.7678 -0.2220 0.6010
vn 0.7465 0.2562 0.6141
vn 0.8204 -0.2598 0.5094
vn 0.4945 -0.4361 0.7518
vn 0.4261 -0.4168 0.8030
vn 0.7833 -0.2526 0.5681
vn 0.2074 -0.3946 0.8951
vn 0.6813 -0.3083 0.6639
vn -0.0929 -0.3756 0.9221
vn -0.9831 -0.0237 0.1815
vn -0.2164 -0.3042 0.9277
vn -0.9663 -0.0285 0.2557
vn -0.2681 -0.3065 0.9134
vn -0.9462 -0.1020 0.3069
vn -0.1786 -0.6557 0.7336
vn -0.8736 -0.3409 0.3473
vn 0.0957 -0.9259 0.3654
vn -0.7305 -0.6403 0.2376
vn 0.2089 -0.9666 0.1484
vn -0.6819 -0.7098 -0.1766
vn 0.2260 -0.7740 -0.5914
vn 0.2761 -0.5752 -0.7700
vn -0.5590 0.0492 -0.8277
vn -0.9041 0.1998 -0.3777
vn 0.0956 -0.0062 -0.9954
vn -0.0239 0.5657 -0.8242
vn 0.6063 0.2420 -0.7575
vn -0.1301 0.9065 -0.4018
vn 0.8294 0.4605 -0.3162
vn 0.8831 -0.4659 -0.0555
vn 0.8092 -0.5664 0.1559
vn -0.9268 0.3673 -0.0782
vn -0.7472 0.1977 -0.6345
vn 0.2451 0.7331 -0.6344
vn 0.2602 0.2176 -0.9407
vn 0.9791 -0.0785 -0.1877
vn 0.9869 -0.0220 -0.1597
vn 0.6942 -0.5458 0.4692
vn 0.6470 -0.2488 0.7208
vn 0.6496 -0.1691 0.7412
vn 0.5788 0.5934 -0.5594
vn 0.9267 0.2959 0.2316
vn 0.9586 0.2802 -0.0499
vn 0.9867 -0.0278 0.1601
vn -0.8391 0.3759 -0.3932
vn 0.7950 0.5806 -0.1758
vn 0.9122 -0.1555 -0.3790
vn 0.9246 -0.2729 -0.2659
vn 0.7974 0.1412 0.5868
vn 0.8017 0.3059 0.5135
vn 0.6830 0.1278 0.7191
vn 0.9550 0.1084 -0.2760
vn -0.0408 0.0426 -0.9983
vn -0.0116 -0.5521 -0.8337
vn -0.8932 -0.3571 -0.2732
vn -0.9602 -0.0186 -0.2788
vn -0.1874 -0.4670 -0.8642
vn -0.9256 -0.2947 -0.2375
vn -0.7283 0.0747 0.6811
vn -0.8031 0.0645 0.5923
vn 0.0223 0.2698 0.9627
vn -0.0119 0.3687 0.9295
vn -0.8249 0.1147 0.5535
vn 0.0154 0.4046 0.9143
vn -0.8302 0.1104 0.5464
vn -0.0120 0.3354 0.9420
vn -0.8697 0.1788 0.4600
vn -0.2092 0.3758 0.9028
vn -0.8900 0.1948 0.4122
vn -0.4293 0.3513 0.8320
vn -0.8971 0.1167 0.4261
vn -0.5548 0.2937 0.7784
vn -0.8461 0.0332 0.5321
vn -0.4792 0.0897 0.8731
vn -0.6569 -0.1396 0.7409
vn -0.5414 -0.1892 0.8192
vn -0.4988 -0.2886 0.8173
vn -0.5818 -0.1096 0.8059
vn -0.5938 0.2402 0.7679
vn -0.9350 -0.1167 0.3349
vn -0.9150 0.0027 -0.4035
vn -0.9980 0.0551 -0.0319
vn -0.4749 0.1383 -0.8691
vn -0.5041 0.3252 -0.8001
vn -0.9815 0.1860 0.0451
vn -0.4895 0.4545 -0.7442
vn -0.8171 0.5750 -0.0406
vn -0.5934 0.0284 -0.8044
vn -0.9775 0.0573 -0.2032
vn -0.4140 -0.6998 -0.5821
vn -0.6968 -0.7027 -0.1434
vn -0.5895 -0.8060 -0.0540
vn -0.5790 -0.7256 -0.3719
vn -0.5213 -0.7974 0.3040
vn -0.5527 -0.7080 0.4396
vn -0.7993 -0.6000 0.0340
vn -0.6938 -0.6167 0.3719
vn -0.7915 -0.4440 0.4199
vn -0.9001 -0.4306 0.0659
vn -0.8013 -0.5188 -0.2981
vn -0.9192 -0.2062 -0.3353
vn -0.9615 -0.2320 -0.1473
vn -0.9356 0.1708 -0.3089
vn -0.9803 0.1664 -0.1064
vn -0.9174 0.3814 0.1137
vn -0.8355 0.4931 -0.2426
vn -0.8224 0.5595 0.1032
vn -0.6286 0.7769 0.0367
vn -0.6327 0.7166 -0.2936
vn -0.6840 0.5097 -0.5218
vn -0.5281 0.7563 0.3862
vn -0.7293 0.5241 0.4398
vn -0.3754 0.6572 0.6536
vn -0.5633 0.4415 0.6984
vn -0.8124 0.3523 0.4646
vn -0.6116 0.1366 0.7793
vn -0.7341 0.1549 0.6611
vn -0.7398 -0.2272 0.6333
vn -0.6084 -0.2226 0.7618
vn -0.3468 -0.2219 0.9113
vn -0.3614 0.1399 0.9218
vn -0.2893 -0.5324 0.7955
vn -0.5377 -0.5308 0.6551
vn -0.1951 0.1601 0.9676
vn -0.1668 -0.2250 0.9600
vn -0.8783 -0.2008 0.4339
vn -0.8852 0.1177 0.4500
vn -0.9723 -0.1949 0.1292
vn -0.9807 0.1291 0.1471
vn -0.3167 0.4455 0.8374
vn -0.4843 0.8747 -0.0211
vn -0.3686 0.8620 0.3479
vn -0.7777 0.1942 -0.5979
vn -0.7709 -0.1802 -0.6109
vn -0.6178 -0.1798 -0.7655
vn -0.6396 0.2215 -0.7361
vn -0.6463 -0.5062 -0.5710
vn -0.3341 -0.7351 0.5900
vn -0.6468 -0.0768 0.7587
vn 0.0730 0.0646 -0.9952
vn -0.7940 0.1868 0.5786
vn -0.0344 0.4542 -0.8902
vn -0.0194 0.3056 -0.9520
vn -0.5220 0.3075 -0.7956
vn -0.1341 0.8180 -0.5594
vn 0.0369 0.1762 -0.9837
vn 0.6592 0.1643 -0.7338
vn 0.3746 -0.5652 -0.7350
vn -0.7231 -0.4430 0.5300
vn -0.7277 0.6809 0.0832
vn 0.7155 0.6301 0.3018
vn 0.9485 -0.1330 0.2875
vn 0.9402 0.0519 -0.3367
vn 0.8850 -0.2465 0.3950
vn 0.9735 -0.0071 -0.2286
vn 0.8580 -0.3356 0.3888
vn 0.9651 -0.0678 -0.2530
vn 0.8180 -0.2578 0.5142
vn 0.9786 0.0495 -0.1995
vn 0.7698 -0.1887 0.6098
vn 0.9838 0.1223 -0.1314
vn 0.6930 -0.1994 0.6928
vn 0.9897 0.0918 -0.1100
vn 0.1131 0.4122 -0.9041
vn 0.2199 0.3555 -0.9084
vn -0.9264 0.0557 -0.3723
vn -0.7934 0.1188 -0.5971
vn 0.4548 0.2734 -0.8476
vn -0.5520 0.1189 -0.8254
vn 0.5797 0.1631 -0.7984
vn -0.2285 0.0895 -0.9694
vn 0.6423 0.1910 -0.7422
vn 0.0189 0.0943 -0.9954
vn -0.6811 -0.1834 -0.7089
vn -0.5539 -0.1907 -0.8104
vn -0.7034 -0.2499 -0.6654
vn -0.7375 -0.2815 -0.6139
vn -0.4501 -0.0928 -0.8882
vn -0.7769 -0.1513 -0.6111
vn -0.9901 -0.0993 -0.0992
vn -0.9715 -0.1556 -0.1791
vn -0.5902 -0.3572 -0.7239
vn -0.7392 -0.2402 -0.6292
vn -0.4616 -0.4663 -0.7546
vn -0.7156 -0.3602 -0.5985
vn -0.9686 -0.1347 -0.2090
vn -0.9524 -0.2331 -0.1966
vn -0.9683 -0.0785 -0.2372
vn -0.5977 -0.5026 -0.6246
vn 0.6043 0.1805 -0.7761
vn 0.5246 -0.3285 0.7854
vn 0.6116 -0.2427 0.7530
vn 0.8008 0.4711 0.3698
vn 0.1002 0.1463 0.9841
vn -0.6408 0.0532 0.7659
vn 0.1424 -0.1634 0.9762
vn -0.7269 -0.1665 0.6663
vn 0.1792 -0.3789 0.9079
vn -0.5958 -0.5622 0.5736
vn 0.3504 -0.7797 0.5190
vn -0.6812 -0.4056 -0.6094
vn -0.8614 -0.3816 0.3354
vn 0.4193 -0.8777 0.2321
vn -0.4023 -0.6716 -0.6221
vn 0.3965 -0.6812 -0.6154
vn 0.3238 -0.1245 -0.9379
vn 0.8619 -0.2647 -0.4325
vn 0.2125 0.2877 -0.9339
vn -0.5222 0.2051 -0.8278
vn 0.9473 0.1072 -0.3019
vn 0.8228 -0.2025 0.5310
vn -0.9191 -0.0287 -0.3929
vn -0.8418 0.1465 -0.5195
vn 0.7541 0.0357 0.6557
vn -0.5534 -0.5976 -0.5802
vn 0.8796 0.2318 0.4154
vn 0.6917 0.0537 0.7202
vn 0.7045 -0.3061 0.6403
vn 0.6263 -0.2031 0.7527
vn 0.7751 -0.1875 0.6034
vn 0.6859 -0.5121 0.5170
vn 0.6222 0.2005 0.7567
vn 0.7624 0.1932 0.6175
vn 0.9227 0.1994 0.3300
vn 0.9327 -0.1784 0.3135
vn 0.6459 0.5050 0.5725
vn 0.8002 0.5195 0.2997
vn 0.5791 0.7254 0.3721
vn 0.9747 -0.1864 0.1236
vn 0.9686 0.2135 0.1276
vn 0.9723 0.1949 -0.1292
vn 0.9807 -0.1291 -0.1471
vn 0.8949 0.4412 -0.0677
vn 0.7943 0.4345 -0.4246
vn 0.8783 0.2008 -0.4339
vn 0.7878 0.6147 -0.0375
vn 0.7008 0.6025 -0.3819
vn 0.5773 0.8148 0.0533
vn 0.4792 0.8241 -0.3019
vn 0.4234 0.8977 0.1215
vn 0.3087 0.9170 -0.2525
vn 0.5391 0.5306 -0.6541
vn 0.6036 0.2294 -0.7636
vn 0.7251 0.2456 -0.6433
vn 0.7478 -0.1370 -0.6496
vn 0.6160 -0.1300 -0.7769
vn 0.3614 -0.1399 -0.9218
vn 0.3468 0.2219 -0.9113
vn 0.1668 0.2250 -0.9600
vn 0.1951 -0.1601 -0.9676
vn 0.8852 -0.1177 -0.4500
vn 0.8102 -0.3622 -0.4609
vn 0.9219 -0.3713 -0.1109
vn 0.7235 -0.5382 -0.4323
vn 0.8340 -0.5430 -0.0982
vn 0.8370 -0.4909 0.2418
vn 0.6357 -0.7125 0.2972
vn 0.3334 0.7387 -0.5858
vn 0.2893 0.5324 -0.7955
vn -0.0417 -0.5124 0.8578
vn 0.2107 -0.9656 0.1520
vn 0.9996 0.0049 -0.0295
vn -0.9707 -0.0904 0.2227
vn -0.3919 0.4167 0.8202
vn 0.8090 -0.3674 -0.4589
vn -0.6979 0.7161 0.0145
vn -0.9972 -0.0745 0.0064
vn -0.3083 -0.4621 -0.8315
vn -0.9384 -0.2365 -0.2521
vn 0.7370 -0.2974 0.6070
vn 0.0493 0.1158 -0.9920
vn 0.9899 0.0716 -0.1220
vn 0.1934 0.4056 -0.8934
vn -0.7930 0.3619 -0.4900
vn 0.8335 0.5303 -0.1550
vn -0.2348 0.9675 0.0938
vn -0.9479 0.3137 0.0553
vn 0.9103 0.3664 -0.1925
vn 0.1548 0.4952 -0.8549
vn -0.8635 0.2092 -0.4588
s 1
f 4//4 3//3 2//2 1//1
f 2//2 3//3 6//6 5//5
f 5//5 6//6 8//8 7//7
f 8//8 10//10 9//9 7//7
f 13//13 12//12 11//11 9//9
f 10//10 13//13 9//9
f 11//11 12//12 14//14
f 16//16 11//11 14//14 15//15
f 18//18 16//16 15//15 17//17
f 15//15 20//20 19//19 17//17
f 21//21 18//18 17//17
f 23//23 18//18 21//21 22//22
f 24//24 23//23 22//22
f 26//26 23//23 24//24 25//25
f 28//28 27//27 26//26 25//25
f 30//30 29//29 27//27 28//28
f 29//29 32//32 31//31 27//27
f 34//34 32//32 29//29 33//33
f 36//36 30//30 28//28 35//35
f 38//38 37//37 30//30 36//36
f 39//39 38//38 36//36
f 37//37 38//38 40//40 22//22
f 40//40 38//38 42//42 41//41
f 41//41 42//42 44//44 43//43
f 43//43 44//44 46//46 45//45
f 44//44 48//48 47//47 46//46
f 50//50 49//49 43//43 45//45
f 52//52 49//49 50//50 51//51
f 54//54 52//52 51//51 53//53
f 56//56 55//55 52//52 54//54
f 45//45 46//46 58//58 57//57
f 58//58 60//60 59//59 57//57
f 60//60 62//62 61//61 59//59
f 61//61 62//62 64//64 63//63
f 64//64 62//62 66//66 65//65
f 67//67 64//64 65//65
f 69//69 68//68 67//67 65//65
f 68//68 70//70 67//67
f 72//72 69//69 65//65 71//71
f 74//74 69//69 72//72 73//73
f 76//76 75//75 74//74 73//73
f 78//78 77//77 75//75 76//76
f 80//80 77//77 78//78 79//79
f 82//82 81//81 80//80 79//79
f 84//84 81//81 82//82 83//83
f 86//86 85//85 84//84 83//83
f 88//88 85//85 86//86 87//87
f 90//90 88//88 87//87 89//89
f 92//92 91//91 90//90 89//89
f 94//94 91//91 92//92 93//93
f 96//96 95//95 94//94 93//93
f 98//98 95//95 96//96 97//97
f 100//100 99//99 98//98 97//97
f 102//102 99//99 100//100 101//101
f 104//104 102//102 101//101 103//103
f 106//106 105//105 104//104 103//103
f 108//108 105//105 106//106 107//107
f 110//110 109//109 108//108 107//107
f 112//112 109//109 110//110 111//111
f 114//114 112//112 111//111 113//113
f 116//116 114//114 113//113 115//115
f 118//118 116//116 115//115 117//117
f 120//120 118//118 117//117 119//119
f 122//122 120//120 119//119 121//121
f 124//124 122//122 121//121 123//123
f 126//126 124//124 123//123 125//125
f 128//128 127//127 124//124 126//126
f 130//130 128//128 126//126 129//129
f 132//132 130//130 129//129 131//131
f 133//133 132//132 131//131
f 132//132 133//133 135//135 134//134
f 134//134 135//135 137//137 136//136
f 136//136 137//137 139//139 138//138
f 138//138 139//139 141//141 140//140
f 140//140 141//141 143//143 142//142
f 142//142 143//143 144//144
f 147//147 146//146 145//145 144//144
f 143//143 147//147 144//144
f 145//145 146//146 148//148
f 146//146 149//149 148//148
f 150//150 145//145 148//148
f 146//146 147//147 151//151 149//149
f 151//151 152//152 150//150 149//149
f 150//150 152//152 153//153 144//144
f 145//145 150//150 144//144
f 153//153 154//154 140//140 142//142
f 137//137 156//156 155//155 139//139
f 155//155 156//156 158//158 157//157
f 158//158 160//160 159//159 157//157
f 159//159 160//160 162//162 161//161
f 162//162 163//163 134//134 136//136
f 164//164 133//133 131//131
f 166//166 164//164 131//131 165//165
f 168//168 164//164 166//166 167//167
f 169//169 168//168 167//167
f 169//169 167//167 170//170
f 173//173 172//172 171//171 170//170
f 167//167 173//173 170//170
f 175//175 171//171 172//172 174//174
f 177//177 171//171 175//175 176//176
f 179//179 178//178 177//177 176//176
f 178//178 181//181 180//180 177//177
f 183//183 181//181 178//178 182//182
f 185//185 183//183 182//182 184//184
f 187//187 186//186 183//183 185//185
f 189//189 188//188 186//186 187//187
f 191//191 190//190 188//188 189//189
f 193//193 192//192 190//190 191//191
f 195//195 194//194 192//192 193//193
f 197//197 196//196 194//194 195//195
f 199//199 198//198 196//196 197//197
f 205//205 207//207 206//206 204//204
f 209//209 207//207 205//205 208//208
f 210//210 209//209 208//208
f 210//210 212//212 211//211 209//209
f 212//212 214//214 213//213 211//211
f 71//71 213//213 214//214 215//215
f 216//216 71//71 215//215
f 215//215 214//214 218//218 217//217
f 220//220 219//219 215//215 217//217
f 222//222 219//219 220//220 221//221
f 224//224 223//223 219//219 222//222
f 225//225 224//224 222//222
f 227//227 226//226 224//224 225//225
f 229//229 226//226 227//227 228//228
f 230//230 229//229 228//228
f 232//232 229//229 230//230 231//231
f 233//233 229//229 232//232
f 231//231 230//230 235//235 234//234
f 234//234 235//235 237//237 236//236
f 239//239 237//237 235//235 238//238
f 240//240 239//239 238//238
f 242//242 239//239 240//240 241//241
f 244//244 239//239 242//242 243//243
f 243//243 242//242 246//246 245//245
f 248//248 247//247 244//244 243//243
f 240//240 250//250 249//249 241//241
f 241//241 249//249 221//221
f 250//250 252//252 251//251 249//249
f 228//228 252//252 250//250 238//238
f 250//250 240//240 238//238
f 237//237 253//253 236//236
f 255//255 254//254 231//231 234//234
f 226//226 229//229 233//233 256//256
f 235//235 230//230 228//228 238//238
f 224//224 226//226 256//256 257//257
f 256//256 259//259 258//258 257//257
f 251//251 252//252 227//227 225//225
f 223//223 224//224 257//257 260//260
f 223//223 260//260 216//216
f 251//251 225//225 222//222
f 246//246 242//242 241//241 221//221
f 220//220 246//246 221//221
f 249//249 251//251 222//222 221//221
f 246//246 220//220 217//217 261//261
f 218//218 214//214 212//212 262//262
f 213//213 66//66 263//263 211//211
f 212//212 210//210 264//264 202//202
f 262//262 212//212 202//202
f 211//211 263//263 265//265 209//209
f 209//209 265//265 266//266 207//207
f 265//265 268//268 267//267 266//266
f 266//266 267//267 270//270 269//269
f 273//273 272//272 271//271 270//270
f 267//267 273//273 270//270
f 274//274 271//271 272//272 53//53
f 276//276 271//271 274//274 275//275
f 278//278 276//276 275//275 277//277
f 280//280 278//278 277//277 279//279
f 282//282 280//280 279//279 281//281
f 284//284 282//282 281//281 283//283
f 286//286 284//284 283//283 285//285
f 288//288 284//284 286//286 287//287
f 290//290 288//288 287//287 289//289
f 292//292 291//291 288//288 290//290
f 294//294 293//293 291//291 292//292
f 296//296 295//295 293//293 294//294
f 298//298 296//296 294//294 297//297
f 300//300 298//298 297//297 299//299
f 302//302 301//301 298//298 300//300
f 304//304 303//303 302//302 300//300
f 299//299 297//297 306//306 305//305
f 305//305 306//306 308//308 307//307
f 310//310 309//309 305//305 307//307
f 311//311 304//304 300//300 299//299
f 297//297 294//294 292//292 306//306
f 306//306 292//292 290//290 308//308
f 308//308 290//290 289//289 312//312
f 291//291 282//282 284//284 288//288
f 293//293 280//280 282//282 291//291
f 313//313 276//276 278//278 295//295
f 277//277 275//275 315//315 314//314
f 268//268 47//47 273//273 267//267
f 204//204 206//206 301//301 302//302
f 207//207 266//266 269//269 206//206
f 198//198 203//203 303//303 196//196
f 196//196 303//303 304//304 194//194
f 194//194 304//304 311//311 192//192
f 192//192 311//311 309//309 190//190
f 190//190 309//309 310//310 188//188
f 173//173 316//316 187//187 185//185
f 184//184 182//182 318//318 317//317
f 317//317 318//318 320//320 319//319
f 319//319 320//320 322//322 321//321
f 321//321 322//322 323//323
f 323//323 322//322 325//325 324//324
f 327//327 326//326 323//323 324//324
f 326//326 327//327 328//328
f 327//327 329//329 328//328
f 330//330 326//326 328//328
f 331//331 329//329 327//327 324//324
f 332//332 331//331 324//324
f 331//331 333//333 330//330 329//329
f 330//330 333//333 334//334 323//323
f 326//326 330//330 323//323
f 325//325 335//335 324//324
f 335//335 325//325 336//336
f 332//332 335//335 336//336
f 334//334 337//337 319//319 321//321
f 182//182 178//178 179//179 318//318
f 338//338 170//170 171//171 177//177
f 180//180 338//338 177//177
f 289//289 168//168 169//169 338//338
f 312//312 289//289 338//338
f 131//131 129//129 339//339 165//165
f 283//283 281//281 128//128 130//130
f 281//281 279//279 127//127 128//128
f 125//125 123//123 193//193 191//191
f 314//314 315//315 120//120 122//122
f 121//121 119//119 197//197 195//195
f 341//341 340//340 114//114 116//116
f 115//115 113//113 201//201 200//200
f 113//113 111//111 262//262 202//202
f 110//110 218//218 262//262 111//111
f 218//218 110//110 107//107 261//261
f 217//217 218//218 261//261
f 107//107 106//106 245//245 261//261
f 344//344 343//343 342//342 104//104
f 105//105 344//344 104//104
f 346//346 345//345 342//342 343//343
f 348//348 347//347 346//346 343//343
f 347//347 350//350 349//349 346//346
f 349//349 350//350 351//351
f 353//353 347//347 348//348 352//352
f 355//355 354//354 353//353 352//352
f 353//353 354//354 356//356
f 354//354 358//358 357//357 356//356
f 357//357 360//360 359//359 356//356
f 359//359 360//360 362//362 361//361
f 362//362 364//364 363//363 361//361
f 366//366 365//365 360//360 357//357
f 367//367 366//366 357//357
f 369//369 366//366 367//367 368//368
f 371//371 366//366 369//369 370//370
f 373//373 372//372 371//371 370//370
f 367//367 358//358 374//374 368//368
f 368//368 374//374 375//375
f 375//375 374//374 355//355 376//376
f 378//378 377//377 375//375 376//376
f 355//355 352//352 376//376
f 374//374 358//358 354//354 355//355
f 379//379 348//348 343//343 344//344
f 379//379 344//344 380//380
f 63//63 378//378 379//379 380//380
f 103//103 248//248 243//243 245//245
f 106//106 103//103 245//245
f 342//342 102//102 104//104
f 101//101 248//248 103//103
f 342//342 345//345 99//99 102//102
f 100//100 247//247 248//248 101//101
f 247//247 100//100 97//97
f 346//346 349//349 95//95 98//98
f 345//345 346//346 98//98
f 97//97 96//96 253//253 244//244
f 247//247 97//97 244//244
f 95//95 349//349 351//351 94//94
f 253//253 96//96 93//93 236//236
f 91//91 363//363 90//90
f 255//255 92//92 89//89
f 363//363 364//364 88//88 90//90
f 87//87 254//254 255//255 89//89
f 86//86 254//254 87//87
f 364//364 362//362 381//381 84//84
f 85//85 364//364 84//84
f 382//382 371//371 372//372 80//80
f 81//81 382//382 80//80
f 78//78 259//259 79//79
f 77//77 372//372 373//373 75//75
f 258//258 259//259 78//78 76//76
f 75//75 373//373 74//74
f 258//258 76//76 73//73
f 260//260 72//72 71//71 216//216
f 67//67 70//70 377//377 64//64
f 65//65 66//66 213//213 71//71
f 61//61 63//63 380//380 108//108
f 109//109 61//61 108//108
f 64//64 377//377 378//378 63//63
f 66//66 62//62 60//60 263//263
f 59//59 61//61 109//109 112//112
f 60//60 58//58 268//268 265//265
f 263//263 60//60 265//265
f 57//57 59//59 112//112 114//114
f 340//340 57//57 114//114
f 35//35 28//28 25//25 56//56
f 25//25 24//24 55//55 56//56
f 19//19 33//33 37//37 22//22
f 21//21 19//19 22//22
f 10//10 383//383 13//13
f 383//383 10//10 8//8
f 6//6 384//384 383//383 8//8
f 3//3 384//384 6//6
f 32//32 2//2 5//5 31//31
f 12//12 13//13 4//4 1//1
f 385//385 12//12 1//1
f 384//384 3//3 4//4
f 12//12 385//385 14//14
f 383//383 384//384 4//4 13//13
f 20//20 385//385 1//1 34//34
f 1//1 2//2 32//32 34//34
f 14//14 385//385 20//20 15//15
f 31//31 5//5 7//7 386//386
f 9//9 11//11 16//16 387//387
f 7//7 9//9 387//387 386//386
f 19//19 20//20 34//34 33//33
f 33//33 29//29 30//30 37//37
f 19//19 21//21 17//17
f 27//27 31//31 386//386 26//26
f 387//387 16//16 18//18 23//23
f 386//386 387//387 23//23 26//26
f 38//38 39//39 42//42
f 388//388 40//40 41//41
f 22//22 40//40 388//388 55//55
f 24//24 22//22 55//55
f 48//48 39//39 36//36 389//389
f 42//42 39//39 48//48 44//44
f 389//389 36//36 35//35 390//390
f 49//49 388//388 41//41 43//43
f 55//55 388//388 49//49 52//52
f 390//390 35//35 56//56 54//54
f 47//47 48//48 389//389 273//273
f 46//46 47//47 268//268 58//58
f 273//273 389//389 390//390 272//272
f 340//340 50//50 45//45 57//57
f 51//51 50//50 340//340 341//341
f 272//272 390//390 54//54 53//53
f 365//365 382//382 381//381
f 382//382 365//365 366//366 371//371
f 370//370 369//369 70//70 68//68
f 360//360 365//365 381//381 362//362
f 358//358 367//367 357//357
f 70//70 369//369 368//368 375//375
f 377//377 70//70 375//375
f 350//350 359//359 361//361 351//351
f 350//350 347//347 353//353 356//356
f 359//359 350//350 356//356
f 348//348 379//379 378//378 376//376
f 352//352 348//348 376//376
f 381//381 382//382 81//81 84//84
f 372//372 77//77 80//80
f 370//370 68//68 69//69 74//74
f 373//373 370//370 74//74
f 364//364 85//85 88//88
f 361//361 363//363 91//91 94//94
f 351//351 361//361 94//94
f 99//99 345//345 98//98
f 380//380 344//344 105//105 108//108
f 83//83 82//82 233//233 232//232
f 82//82 79//79 259//259 256//256
f 233//233 82//82 256//256
f 258//258 73//73 72//72 260//260
f 257//257 258//258 260//260
f 86//86 83//83 232//232 231//231
f 254//254 86//86 231//231
f 227//227 252//252 228//228
f 219//219 223//223 216//216 215//215
f 92//92 255//255 234//234 236//236
f 93//93 92//92 236//236
f 253//253 237//237 239//239 244//244
f 245//245 246//246 261//261
f 338//338 169//169 170//170
f 129//129 126//126 125//125 339//339
f 316//316 166//166 165//165
f 166//166 316//316 173//173 167//167
f 307//307 308//308 312//312 391//391
f 391//391 312//312 338//338 180//180
f 339//339 125//125 191//191 189//189
f 165//165 339//339 189//189 187//187
f 316//316 165//165 187//187
f 172//172 173//173 185//185 184//184
f 392//392 310//310 307//307 391//391
f 181//181 392//392 391//391 180//180
f 188//188 310//310 392//392 186//186
f 186//186 392//392 181//181 183//183
f 270//270 271//271 276//276 313//313
f 295//295 278//278 280//280 293//293
f 53//53 51//51 341//341 393//393
f 274//274 53//53 393//393
f 275//275 274//274 393//393 315//315
f 279//279 277//277 314//314 127//127
f 269//269 270//270 313//313 394//394
f 394//394 313//313 295//295 296//296
f 393//393 341//341 116//116 118//118
f 315//315 393//393 118//118 120//120
f 127//127 314//314 122//122 124//124
f 206//206 269//269 394//394 301//301
f 301//301 394//394 296//296 298//298
f 303//303 203//203 204//204 302//302
f 309//309 311//311 299//299 305//305
f 117//117 115//115 200//200 199//199
f 119//119 117//117 199//199 197//197
f 123//123 121//121 195//195 193//193
f 395//395 286//286 285//285 163//163
f 160//160 395//395 163//163 162//162
f 287//287 286//286 395//395 396//396
f 396//396 395//395 160//160 158//158
f 285//285 283//283 130//130 132//132
f 163//163 285//285 132//132 134//134
f 287//287 396//396 397//397 168//168
f 289//289 287//287 168//168
f 156//156 397//397 396//396 158//158
f 135//135 133//133 164//164 168//168
f 397//397 135//135 168//168
f 135//135 397//397 156//156 137//137
f 398//398 159//159 161//161 154//154
f 152//152 398//398 154//154 153//153
f 157//157 159//159 398//398 399//399
f 399//399 398//398 152//152 151//151
f 149//149 150//150 148//148
f 161//161 162//162 136//136 138//138
f 154//154 161//161 138//138 140//140
f 153//153 142//142 144//144
f 400//400 155//155 157//157 399//399
f 147//147 400//400 399//399 151//151
f 139//139 155//155 400//400 141//141
f 141//141 400//400 147//147 143//143
f 401//401 175//175 174//174 337//337
f 333//333 401//401 337//337 334//334
f 176//176 175//175 401//401 402//402
f 402//402 401//401 333//333 331//331
f 329//329 330//330 328//328
f 174//174 172//172 184//184 317//317
f 337//337 174//174 317//317 319//319
f 334//334 321//321 323//323
f 402//402 331//331 332//332 336//336
f 403//403 402//402 336//336
f 403//403 179//179 176//176 402//402
f 335//335 332//332 324//324
f 318//318 179//179 403//403 320//320
f 322//322 320//320 403//403 336//336
f 325//325 322//322 336//336
f 264//264 201//201 113//113 202//202
f 199//199 200//200 201//201 264//264 210//210 208//208 205//205 204//204 203//203 198//198
