# Blender 5.0.0
# www.blender.org
mtllib Walk_Forward0022.mtl
o Mball.010
v 1.558983 3.726787 -0.556068
v 1.291334 3.469771 -0.700823
v 1.359602 3.167599 -0.448815
v 1.615927 3.403253 -0.318730
v 1.036641 3.490367 -0.622522
v 1.130257 3.183431 -0.380519
v 0.857943 3.787153 -0.337551
v 0.949681 3.479366 -0.095786
v 1.005530 4.020779 -0.182852
v 1.086927 3.693296 0.045362
v 1.394424 4.054807 -0.249064
v 1.478473 3.725556 -0.033024
v 1.478790 3.718849 -0.028472
v 1.421717 4.042326 -0.265826
v 1.346628 4.357647 -0.505472
v 1.319335 4.370129 -0.488710
v 1.271225 4.672826 -0.745158
v 1.244442 4.685074 -0.728711
v 1.409912 4.366061 -1.028596
v 1.485226 4.050305 -0.789358
v 1.237509 4.766943 -0.856316
v 1.160039 4.910666 -1.021363
v 0.855463 4.651209 -0.662345
v 0.843230 4.850240 -0.976996
v 0.722924 4.717786 -1.066943
v 0.708057 4.417928 -0.816806
v 0.886786 4.121156 -1.101773
v 0.855116 4.503500 -1.326346
v 1.141037 4.100644 -1.179899
v 1.013106 4.518330 -1.366138
v 0.961552 3.805688 -0.862168
v 1.216245 3.785093 -0.940469
v 1.408486 4.357286 -1.035401
v 1.483894 4.042109 -0.795714
v 0.541935 4.768823 -1.029265
v 0.690937 5.082313 -1.038716
v 1.236608 4.716383 -1.274464
v 1.144926 5.053774 -1.144672
v 1.041917 5.198983 -0.964909
v 1.252323 4.873708 -1.035961
v 1.316335 4.827029 -0.862739
v 1.125453 5.170097 -0.943671
v 1.276046 4.802078 -0.460461
v 1.042447 5.226936 -0.525807
v 1.192148 4.897130 -0.052374
v 0.978478 5.279910 -0.164972
v 0.889062 5.311180 -0.194824
v 0.950125 5.268816 -0.543339
v 1.269089 4.688227 -0.455240
v 1.188109 4.774928 -0.039842
v 0.988078 4.419065 -0.067364
v 1.032536 4.348301 -0.475302
v 0.697922 4.395659 -0.111690
v 0.687338 4.385636 -0.530270
v 1.042747 4.447236 -0.863836
v 0.719321 4.448877 -0.935993
v 0.731080 5.159480 0.373739
v 0.617697 5.323506 0.031942
v 0.509588 5.515468 0.474118
v 0.405628 5.573040 0.088296
v 0.629914 5.925117 0.473378
v 0.526123 5.968300 0.085403
v 0.680815 5.964078 0.463926
v 0.577056 6.005662 0.075844
v 0.083704 6.034488 -0.234122
v 0.102165 5.988410 -0.169276
v 0.471108 6.232675 -0.301176
v 0.423538 6.425653 -0.460187
v -0.013877 6.430350 -0.560304
v 0.640397 6.414049 -0.324379
v -0.305756 6.020535 -0.154788
v -0.403338 6.416397 -0.480970
v -0.414283 6.489902 -0.514389
v -0.024823 6.503854 -0.593723
v -0.058349 6.844457 -0.683508
v -0.447809 6.830503 -0.604174
v -0.062799 7.242999 -0.656944
v -0.452259 7.229046 -0.577610
v -0.426079 7.546429 -0.443970
v -0.036619 7.560382 -0.523304
v -0.027226 7.625976 -0.480614
v -0.416687 7.612023 -0.401280
v -0.327132 7.935109 -0.027179
v 0.062328 7.949062 -0.106513
v 0.079995 7.981090 -0.036164
v -0.309465 7.967137 0.043169
v -0.225112 8.048525 0.371266
v 0.164348 8.062477 0.291932
v -0.121375 8.008181 0.759462
v 0.268086 8.022135 0.680128
v 0.355000 7.874142 0.992936
v -0.034460 7.860189 1.072269
v -0.015921 7.814080 1.137410
v 0.373540 7.828032 1.058076
v 0.471121 7.432171 1.384258
v 0.081661 7.418218 1.463592
v 0.092606 7.344714 1.497011
v 0.482067 7.358666 1.417677
v 0.515593 7.018064 1.507461
v 0.126132 7.004111 1.586795
v 0.130582 6.605569 1.560232
v 0.520042 6.619522 1.480898
v 0.104402 6.288187 1.426591
v 0.493863 6.302139 1.347257
v 0.484470 6.236545 1.304567
v 0.095010 6.222591 1.383901
v 0.005455 5.899507 1.009800
v 0.394916 5.913459 0.930466
v 0.377327 5.881400 0.860412
v -0.012163 5.867324 0.939605
v -0.064433 5.480601 0.698704
v 0.329301 5.494270 0.637773
v -0.037193 4.992009 0.732480
v 0.359698 4.998360 0.674575
v -0.027136 4.618512 0.638226
v 0.359402 4.577229 0.620271
v -0.070335 4.284469 0.508249
v 0.307179 4.200867 0.522431
v -0.160998 4.093774 0.449991
v 0.162198 3.821207 0.452508
v -0.137545 3.791531 0.533106
v 0.098104 3.461357 0.373781
v -0.088543 3.441853 0.622946
v 0.058571 3.100187 0.287275
v -0.032210 3.073711 0.681128
v 0.023094 2.754891 0.109857
v 0.425518 3.007610 0.085105
v 0.369588 2.655411 -0.085717
v -0.006901 2.428936 -0.098595
v 0.294928 2.269153 -0.157223
v -0.031118 2.186937 -0.267612
v 0.219832 1.924692 -0.261070
v -0.040776 2.075610 -0.339161
v 0.207905 1.547445 -0.355687
v -0.066496 1.646454 -0.564358
v 0.200491 1.168380 -0.455981
v -0.027832 1.257994 -0.654755
v 0.201102 0.781950 -0.570684
v -0.026330 0.863630 -0.747075
v 0.294491 0.555170 -0.961832
v 0.029515 0.611214 -0.989449
v 0.324289 0.416929 -1.256074
v 0.044307 0.475400 -1.296332
v 0.338329 0.395127 -1.541441
v 0.334958 0.437984 -1.600310
v 0.168736 0.824986 -1.731378
v -0.053089 0.914501 -1.440737
v 0.287841 0.836408 -1.743977
v 0.282557 0.874341 -1.737257
v 0.362280 0.856878 -1.725546
v 0.239270 1.144515 -1.492956
v 0.544077 1.019332 -1.422252
v 0.514497 0.552876 -1.282164
v 0.515159 0.688322 -0.975579
v 0.008858 1.071807 -1.076912
v 0.021188 1.417353 -1.017474
v 0.357135 1.199258 -1.181083
v 0.413411 1.482157 -1.139489
v 0.649310 1.133249 -0.914453
v 0.685298 1.350735 -0.853712
v 0.554291 0.832660 -0.657755
v 0.544397 1.179291 -0.521263
v 0.514268 1.574304 -0.438081
v -0.029686 2.106781 -0.319037
v 0.094622 2.304683 0.738445
v 0.099441 2.275708 0.741162
v 0.199902 1.887408 0.899214
v 0.071413 2.006500 -0.599841
v 0.151304 1.743654 0.482830
v 0.191477 1.655855 0.593035
v 0.210072 1.350723 0.764098
v 0.147959 1.542203 1.135831
v 0.173396 1.919643 1.005544
v 0.022553 1.143766 1.276728
v 0.132642 1.003678 0.912267
v -0.058778 0.930788 0.806397
v -0.125985 1.194458 0.611185
v -0.403829 1.244112 0.810563
v -0.372939 0.922377 0.940449
v -0.190476 1.532646 0.450172
v -0.493624 1.600695 0.690225
v -0.325714 1.459944 1.171683
v -0.430372 1.813982 1.051562
v -0.112899 1.546226 1.245077
v -0.174462 1.932848 1.167233
v -0.465908 2.181175 0.928351
v -0.234216 2.296780 1.043941
v -0.503006 2.547809 0.804647
v -0.291135 2.665534 0.918041
v -0.551443 2.906649 0.671097
v -0.367946 3.024081 0.774753
v -0.519755 3.279189 0.521025
v -0.442623 3.338962 0.574092
v -0.542180 3.642700 0.376606
v -0.511505 3.668815 0.405058
v -0.552112 3.991828 0.244634
v -0.517446 4.010571 0.272339
v -0.461147 4.320489 0.318316
v -0.402394 4.345571 0.339494
v -0.318324 4.678590 0.559515
v -0.456918 5.036289 0.640985
v -0.478120 5.104450 0.616119
v -0.677150 4.374372 0.013972
v -0.660571 4.385447 -0.036625
v -0.744166 4.805676 0.114929
v -0.334326 4.483320 -0.331986
v -0.346898 4.934882 -0.197205
v -0.628349 5.163245 0.257648
v -0.270422 5.276294 -0.050752
v -0.613249 5.175721 0.255131
v -0.223960 5.561525 0.105626
v -0.351957 5.543509 0.242339
v -0.287240 5.974436 -0.089736
v -0.530360 5.929957 0.300371
v -0.591215 5.965797 0.313731
v -0.697274 6.190816 -0.063175
v -0.487480 5.924527 0.701730
v -0.426575 5.887121 0.688238
v -0.946775 6.313128 0.408258
v -0.843038 6.272785 0.796454
v -0.881993 6.340967 0.808866
v -0.985730 6.381310 0.420670
v -0.870476 6.359921 -0.016612
v -1.054962 6.752013 0.046625
v -1.075037 6.743605 0.122146
v -1.059412 7.150555 0.073189
v -1.079487 7.142147 0.148710
v -0.997526 7.437837 0.491090
v -0.883825 7.555547 0.063079
v -0.960124 7.508754 0.487948
v -0.612855 7.880814 0.440351
v -0.714536 7.736922 0.039875
v -0.758193 7.579421 -0.142495
v -0.509118 7.840470 0.828547
v -0.856387 7.468411 0.876144
v -0.403324 7.615893 1.204464
v -0.572614 7.434518 1.227667
v -0.893789 7.397494 0.879286
v -0.748200 7.029526 1.237777
v -0.804482 7.035199 1.177810
v -0.800032 6.636657 1.151246
v -0.743750 6.630984 1.211214
v -0.298900 6.607181 1.489798
v -0.303350 7.005723 1.516362
v -0.342405 6.227288 1.283784
v -0.559265 6.238892 1.147977
v -0.225216 7.004204 1.540572
v -0.220766 6.605661 1.514008
v -0.997742 6.665944 0.853625
v -1.002192 7.064486 0.880188
v -1.101479 6.706287 0.465428
v -1.105929 7.104829 0.491992
v -0.355754 7.422915 1.363474
v -0.545327 7.922317 0.429111
v -0.441590 7.881974 0.817307
v -0.801697 7.199529 -0.348510
v -0.797248 6.800986 -0.375073
v -0.739452 6.807376 -0.426972
v -0.743902 7.205918 -0.400409
v -0.744843 6.383795 -0.222185
v -0.386062 6.069788 1.101413
v -0.247996 5.487267 0.628122
v 0.159842 5.578197 0.007374
v -0.623442 5.171257 0.266953
v 0.128442 5.298921 -0.148166
v 0.100579 4.955124 -0.289865
v 0.525925 4.970240 -0.197886
v 0.592747 5.277679 -0.036846
v 0.101449 4.548690 -0.393136
v 0.509404 4.563624 -0.228942
v 0.610556 4.559769 -0.143931
v 0.499528 4.767222 -0.240096
v 0.564510 5.183861 -0.263035
v 0.719272 4.319789 0.141550
v 0.642386 3.822195 0.184354
v 0.654773 4.028535 -0.168142
v 0.598431 3.392934 0.106174
v 0.665981 3.588435 -0.262319
v 0.535545 3.028869 -0.019187
v 0.607643 3.222162 -0.382833
v 0.459102 2.672985 -0.147487
v 0.551769 2.861232 -0.510920
v 0.495441 2.295601 -0.265912
v 0.604969 2.477002 -0.627428
v 0.485606 1.953930 -0.351825
v 0.631349 2.105164 -0.714842
v 0.434260 2.231354 -0.952564
v 0.448096 2.607075 -0.792425
v 0.087476 2.229115 -0.591505
v 0.110654 2.632140 -0.629809
v 0.481641 2.932559 -0.594363
v 0.154854 3.011577 -0.597495
v 0.538640 3.295602 -0.477376
v 0.198404 3.388122 -0.585226
v 0.584493 3.663143 -0.372071
v 0.208862 3.754287 -0.520057
v -0.115593 3.083367 -0.238103
v -0.173074 3.451671 -0.331275
v -0.480542 3.032446 0.032854
v -0.541588 3.422300 -0.025497
v -0.244325 3.853351 -0.403790
v -0.616244 3.850043 -0.130915
v -0.637540 3.856698 -0.090317
v -0.568555 3.432042 0.019430
v -0.421916 2.629755 0.066647
v -0.067526 2.737580 -0.123150
v -0.347303 2.258858 0.200569
v -0.006242 2.403736 0.068721
v -0.607658 2.680435 0.315494
v -0.569344 2.321971 0.449027
v -0.561872 3.058557 0.162866
v 0.059792 2.081709 0.272412
v 0.570688 4.087377 -0.281559
v 0.484522 3.377023 0.210944
v 0.551947 3.785407 0.292045
v 0.098662 2.279744 0.759186
v -0.051767 1.148685 1.312865
v -0.285947 1.088436 1.298728
v 0.000658 0.639333 1.291779
v -0.343098 0.621688 1.209678
v 0.059659 0.275241 1.143185
v -0.306687 0.253102 1.053652
v 0.110879 0.016675 0.976899
v -0.281821 0.252591 0.610089
v -0.331336 0.264622 1.026065
v 0.123475 -0.014609 0.901356
v -0.149510 0.129950 0.567695
v 0.139825 0.149326 0.583890
v 0.136801 0.190624 0.565779
v 0.173962 0.179824 0.596484
v 0.081111 0.600643 0.601477
v -0.317316 0.478731 0.675107
v 0.260204 0.552876 0.749925
v 0.161382 0.325271 1.095311
v -0.337225 0.463505 0.694014
v -0.374776 0.755664 0.848714
v 0.120199 0.692871 1.242711
v 0.157687 1.733679 0.506124
v 0.032302 2.682434 0.711419
v 0.748163 5.049821 0.400864
v 0.743419 4.632295 0.382876
v 0.811685 6.642650 1.303696
v 0.869481 6.649039 1.251797
v 0.825976 6.269147 1.045782
v 0.807235 7.041192 1.330260
v 0.865031 7.047582 1.278361
v 1.122745 7.096555 0.856662
v 1.127195 6.698013 0.830099
v 0.812627 7.464773 1.125473
v 0.938260 7.488647 0.919900
v 0.765057 7.657752 0.966463
v 1.147270 6.706421 0.754578
v 1.142820 7.104963 0.781141
v 1.169263 7.142281 0.437859
v 1.173712 6.743739 0.411296
v 1.053513 7.467258 0.482617
v 0.949776 7.507601 0.094421
v 1.065526 7.182624 0.049663
v 1.014558 7.535440 0.495030
v 0.910821 7.575783 0.106834
v 0.659263 7.882329 0.590546
v 0.555526 7.922672 0.202350
v 0.590862 7.918962 0.606995
v 0.487125 7.959306 0.218798
v 0.627048 7.609676 -0.244689
v 0.811533 7.217584 -0.307926
v 0.867815 7.211911 -0.247959
v 0.872265 6.813369 -0.274522
v 0.815983 6.819042 -0.334490
v 0.371133 6.842845 -0.613074
v 0.366684 7.241387 -0.586511
v 0.288550 7.242907 -0.610721
v 0.292999 6.844365 -0.637284
v 1.069975 6.784082 0.023099
v 0.961572 6.451074 0.024002
v 1.065309 6.410731 0.412198
v 0.924170 6.380157 0.027143
v 1.027907 6.339813 0.415339
v 0.951609 6.293021 0.840209
v 0.782319 6.111646 0.863412
v 0.453845 7.778780 -0.198126
v 0.410189 7.621280 -0.380496
v 1.210477 3.319321 0.120571
v 1.362076 3.043061 -0.189447
v 1.560315 3.734983 -0.549712
v 0.782854 4.102474 -0.577197
v 0.930441 4.336101 -0.422498
v 1.303813 4.724157 -0.847560
v 0.577330 5.177279 -0.594286
v 0.453158 4.811688 -0.591476
v -0.257688 1.894923 0.338926
v -0.524924 1.966265 0.567797
v 0.657316 4.247087 0.298942
v 0.131156 4.128440 -0.468284
v 0.667191 1.721942 -0.799734
v 0.431325 1.849940 -1.076626
v 0.022513 1.818871 -0.843604
v 0.562344 1.105277 -1.127503
v 0.237370 1.217970 -1.228233
v -0.045628 1.008430 -1.164015
v 0.220773 0.867575 0.900902
v 0.018472 0.890217 0.746038
v -0.378176 0.777452 0.860534
vn 0.9156 -0.1778 -0.3606
vn 0.2352 -0.5686 -0.7882
vn 0.2844 -0.7368 -0.6134
vn 0.9635 -0.2676 -0.0083
vn -0.6582 -0.5655 -0.4969
vn -0.6073 -0.7493 -0.2641
vn -0.9747 -0.1128 0.1928
vn -0.8866 -0.2939 0.3571
vn -0.4351 0.4568 0.7759
vn -0.3639 0.3042 0.8804
vn 0.3561 0.5970 0.7188
vn 0.6430 0.5023 0.5781
vn 0.6449 0.2781 0.7119
vn 0.8136 0.4478 0.3708
vn 0.8112 0.4640 0.3559
vn 0.3564 0.6180 0.7007
vn 0.7935 0.5237 0.3100
vn 0.3255 0.7090 0.6256
vn 0.9510 0.3059 -0.0444
vn 0.9809 0.1817 -0.0688
vn 0.6204 0.7120 0.3288
vn 0.8509 0.3025 -0.4295
vn -0.4680 0.5970 0.6516
vn -0.5347 0.6891 -0.4891
vn -0.7463 -0.3730 -0.5513
vn -0.9941 -0.0063 0.1085
vn -0.6606 -0.4817 -0.5758
vn -0.6124 -0.1581 -0.7746
vn 0.2164 -0.4769 -0.8519
vn 0.0003 -0.0722 -0.9974
vn -0.6597 -0.5477 -0.5146
vn 0.2315 -0.5528 -0.8005
vn 0.8692 -0.0368 -0.4932
vn 0.8647 -0.1564 -0.4773
vn -0.8463 -0.1189 -0.5193
vn -0.4971 0.6374 -0.5887
vn 0.6157 0.2854 -0.7345
vn 0.4758 0.5725 -0.6677
vn 0.0930 0.9246 -0.3694
vn 0.8780 0.0207 -0.4782
vn 0.9816 0.1583 -0.1069
vn 0.6639 0.7322 -0.1519
vn 0.9709 0.2034 0.1262
vn 0.6602 0.7509 0.0168
vn 0.8674 0.3220 0.3793
vn 0.5703 0.8087 0.1443
vn -0.0610 0.9923 -0.1082
vn 0.0634 0.9907 -0.1201
vn 0.9286 -0.3522 0.1169
vn 0.8694 -0.1753 0.4621
vn 0.6190 -0.7023 0.3516
vn 0.4277 -0.9037 0.0208
vn -0.4402 -0.8898 0.1206
vn -0.5190 -0.8527 -0.0587
vn 0.3961 -0.7431 -0.5394
vn -0.2930 -0.7925 -0.5348
vn 0.7131 0.4113 0.5678
vn 0.5283 0.8263 -0.1952
vn 0.9288 0.0329 0.3690
vn 0.7060 0.1839 -0.6839
vn 0.7432 -0.6658 0.0659
vn 0.5980 -0.5785 -0.5547
vn 0.6262 -0.7779 -0.0521
vn 0.5433 -0.7289 -0.4165
vn 0.0758 -0.7290 -0.6803
vn 0.1440 -0.6173 -0.7734
vn 0.3810 -0.6439 -0.6635
vn 0.3369 -0.4231 -0.8411
vn 0.0236 -0.5026 -0.8642
vn 0.5771 -0.4303 -0.6941
vn -0.2894 -0.7527 -0.5913
vn -0.3297 -0.5231 -0.7859
vn -0.3589 -0.3513 -0.8648
vn 0.0080 -0.3319 -0.9433
vn -0.0366 -0.0939 -0.9949
vn -0.3561 -0.1045 -0.9286
vn -0.0417 0.2296 -0.9724
vn -0.3644 0.2237 -0.9040
vn -0.3967 0.4798 -0.7826
vn -0.0060 0.4761 -0.8794
vn 0.0029 0.6497 -0.7602
vn -0.3612 0.6377 -0.6804
vn -0.3112 0.8462 -0.4326
vn 0.0550 0.8449 -0.5321
vn 0.1055 0.9241 -0.3674
vn -0.2814 0.9266 -0.2494
vn -0.2047 0.9787 -0.0136
vn 0.1121 0.9890 -0.0962
vn -0.1368 0.9447 0.2979
vn 0.1769 0.9598 0.2177
vn 0.2715 0.8535 0.4447
vn -0.1080 0.8411 0.5300
vn -0.0612 0.7288 0.6819
vn 0.2877 0.7543 0.5901
vn 0.3312 0.5207 0.7869
vn -0.0236 0.5026 0.8642
vn -0.0080 0.3319 0.9433
vn 0.3613 0.3490 0.8647
vn 0.3561 0.1045 0.9286
vn 0.0366 0.0939 0.9949
vn 0.0417 -0.2296 0.9724
vn 0.3644 -0.2237 0.9040
vn 0.0060 -0.4761 0.8794
vn 0.3774 -0.4729 0.7962
vn 0.3478 -0.6470 0.6785
vn -0.0029 -0.6497 0.7602
vn -0.0474 -0.8470 0.5294
vn 0.3175 -0.8391 0.4418
vn 0.4217 -0.7400 0.5240
vn -0.1248 -0.7619 0.6356
vn -0.1322 -0.2009 0.9707
vn 0.4743 -0.1784 0.8621
vn -0.0826 -0.0805 0.9933
vn 0.3609 -0.0112 0.9325
vn -0.1501 -0.2841 0.9470
vn 0.3039 -0.2233 0.9262
vn -0.2425 -0.2362 0.9410
vn 0.2373 -0.2541 0.9376
vn -0.2731 0.0012 0.9620
vn 0.2555 -0.1502 0.9551
vn 0.0042 0.1574 0.9875
vn 0.5386 -0.1363 0.8315
vn 0.4161 0.2072 0.8854
vn 0.7418 -0.2000 0.6401
vn 0.7172 0.2080 0.6650
vn 0.8064 -0.2363 0.5421
vn 0.5042 -0.3873 0.7719
vn 0.4322 -0.3668 0.8238
vn 0.7709 -0.2235 0.5965
vn 0.2143 -0.3394 0.9159
vn 0.6703 -0.2744 0.6895
vn -0.0743 -0.3231 0.9434
vn -0.9750 -0.0403 0.2187
vn -0.1955 -0.2576 0.9463
vn -0.9597 -0.0328 0.2792
vn -0.2469 -0.2615 0.9331
vn -0.9381 -0.0987 0.3319
vn -0.1655 -0.5999 0.7827
vn -0.8674 -0.3174 0.3834
vn 0.0807 -0.8846 0.4594
vn -0.7398 -0.5973 0.3098
vn 0.1821 -0.9497 0.2549
vn -0.7068 -0.7016 -0.0907
vn 0.1950 -0.8369 -0.5115
vn 0.2428 -0.6505 -0.7196
vn -0.5724 -0.0109 -0.8199
vn -0.9036 0.1888 -0.3845
vn 0.0815 -0.0858 -0.9930
vn -0.0197 0.4902 -0.8714
vn 0.6007 0.1566 -0.7840
vn -0.1094 0.8591 -0.5000
vn 0.8350 0.3991 -0.3787
vn 0.8696 -0.4935 -0.0157
vn 0.7998 -0.5629 0.2085
vn -0.9205 0.3596 -0.1528
vn -0.7613 0.1538 -0.6298
vn 0.2537 0.6293 -0.7346
vn 0.2420 0.1797 -0.9535
vn 0.9771 -0.0707 -0.2005
vn 0.9848 -0.0086 -0.1735
vn 0.7013 -0.5063 0.5018
vn 0.6589 -0.2014 0.7248
vn 0.6643 -0.1257 0.7368
vn 0.5041 0.5909 -0.6298
vn 0.9270 0.2659 0.2647
vn 0.9671 0.2520 -0.0352
vn 0.9831 -0.0693 0.1696
vn -0.8544 0.3318 -0.3999
vn 0.8531 0.4857 -0.1907
vn 0.9082 -0.1411 -0.3941
vn 0.9182 -0.2700 -0.2899
vn 0.7986 0.0978 0.5938
vn 0.8029 0.2613 0.5358
vn 0.6845 0.0834 0.7242
vn 0.9558 0.1164 -0.2699
vn -0.0446 0.0986 -0.9941
vn -0.0202 -0.4998 -0.8659
vn -0.8974 -0.3278 -0.2952
vn -0.9608 0.0108 -0.2772
vn -0.1857 -0.4127 -0.8917
vn -0.9290 -0.2671 -0.2562
vn -0.7269 0.0503 0.6849
vn -0.8012 0.0452 0.5967
vn 0.0274 0.2185 0.9754
vn -0.0080 0.3139 0.9494
vn -0.8218 0.0973 0.5614
vn 0.0132 0.3476 0.9376
vn -0.8280 0.0918 0.5531
vn -0.0268 0.2788 0.9600
vn -0.8669 0.1634 0.4709
vn -0.2252 0.3214 0.9198
vn -0.8878 0.1818 0.4229
vn -0.4404 0.3069 0.8437
vn -0.8972 0.1048 0.4290
vn -0.5622 0.2575 0.7859
vn -0.8558 0.0350 0.5161
vn -0.5166 0.0967 0.8508
vn -0.7177 -0.1107 0.6875
vn -0.5892 -0.1733 0.7892
vn -0.5370 -0.2826 0.7948
vn -0.6207 -0.0922 0.7786
vn -0.6179 0.2523 0.7447
vn -0.9560 -0.1039 0.2744
vn -0.8981 0.0124 -0.4396
vn -0.9925 0.0737 -0.0970
vn -0.4391 0.1487 -0.8860
vn -0.4606 0.3328 -0.8229
vn -0.9795 0.2011 -0.0133
vn -0.4517 0.4606 -0.7640
vn -0.8113 0.5791 -0.0800
vn -0.5567 0.0517 -0.8291
vn -0.9639 0.0744 -0.2557
vn -0.4037 -0.6633 -0.6301
vn -0.7032 -0.6791 -0.2107
vn -0.6030 -0.7885 -0.1213
vn -0.5759 -0.6948 -0.4309
vn -0.5511 -0.7993 0.2397
vn -0.5875 -0.7154 0.3782
vn -0.8116 -0.5833 -0.0335
vn -0.7242 -0.6164 0.3092
vn -0.8203 -0.4432 0.3614
vn -0.9105 -0.4135 0.0020
vn -0.7951 -0.4891 -0.3586
vn -0.9056 -0.1755 -0.3862
vn -0.9570 -0.2069 -0.2032
vn -0.9180 0.1996 -0.3428
vn -0.9712 0.1894 -0.1442
vn -0.9134 0.3968 0.0902
vn -0.8157 0.5184 -0.2567
vn -0.8140 0.5734 0.0928
vn -0.6124 0.7892 0.0468
vn -0.6067 0.7410 -0.2878
vn -0.6535 0.5416 -0.5288
vn -0.5239 0.7528 0.3986
vn -0.7336 0.5248 0.4317
vn -0.3831 0.6407 0.6654
vn -0.5786 0.4300 0.6931
vn -0.8227 0.3541 0.4447
vn -0.6391 0.1241 0.7590
vn -0.7576 0.1490 0.6355
vn -0.7729 -0.2336 0.5900
vn -0.6461 -0.2362 0.7258
vn -0.3882 -0.2453 0.8883
vn -0.3933 0.1177 0.9118
vn -0.3339 -0.5565 0.7608
vn -0.5786 -0.5447 0.6071
vn -0.2271 0.1327 0.9648
vn -0.2087 -0.2536 0.9445
vn -0.9021 -0.1976 0.3837
vn -0.9016 0.1215 0.4152
vn -0.9810 -0.1792 0.0738
vn -0.9836 0.1444 0.1076
vn -0.3369 0.4231 0.8411
vn -0.4638 0.8859 -0.0000
vn -0.3607 0.8551 0.3725
vn -0.7484 0.2285 -0.6227
vn -0.7459 -0.1440 -0.6503
vn -0.5882 -0.1416 -0.7962
vn -0.6059 0.2579 -0.7526
vn -0.6293 -0.4694 -0.6193
vn -0.3756 -0.7529 0.5405
vn -0.6829 -0.0765 0.7265
vn 0.1100 0.0797 -0.9907
vn -0.8264 0.1925 0.5291
vn 0.0052 0.4552 -0.8904
vn 0.0177 0.3071 -0.9515
vn -0.4486 0.3311 -0.8301
vn -0.0570 0.7911 -0.6091
vn 0.0675 0.1825 -0.9809
vn 0.6326 0.1369 -0.7623
vn 0.3327 -0.5391 -0.7738
vn -0.8055 -0.5350 -0.2549
vn -0.7097 0.6943 -0.1198
vn 0.6610 0.6905 0.2937
vn 0.9462 -0.1248 0.2986
vn 0.9424 0.0438 -0.3315
vn 0.8895 -0.2206 0.4002
vn 0.9716 -0.0161 -0.2362
vn 0.8634 -0.3041 0.4026
vn 0.9640 -0.0754 -0.2550
vn 0.8244 -0.2200 0.5216
vn 0.9762 0.0451 -0.2122
vn 0.7782 -0.1470 0.6106
vn 0.9807 0.1215 -0.1531
vn 0.7058 -0.1566 0.6909
vn 0.9865 0.0939 -0.1341
vn 0.1144 0.3478 -0.9306
vn 0.2373 0.3010 -0.9236
vn -0.9118 0.0324 -0.4095
vn -0.7639 0.0877 -0.6394
vn 0.4714 0.2223 -0.8535
vn -0.4995 0.0801 -0.8626
vn 0.5886 0.1185 -0.7997
vn -0.1863 0.0570 -0.9808
vn 0.6456 0.1533 -0.7481
vn 0.0374 0.0767 -0.9964
vn -0.6506 -0.1635 -0.7416
vn -0.5333 -0.1646 -0.8297
vn -0.7027 -0.2109 -0.6795
vn -0.7387 -0.2472 -0.6271
vn -0.4339 -0.0682 -0.8984
vn -0.7667 -0.1294 -0.6288
vn -0.9888 -0.0895 -0.1193
vn -0.9728 -0.1362 -0.1873
vn -0.5888 -0.3137 -0.7449
vn -0.7117 -0.2211 -0.6668
vn -0.4588 -0.4202 -0.7829
vn -0.6985 -0.3320 -0.6339
vn -0.9695 -0.1120 -0.2179
vn -0.9544 -0.2104 -0.2119
vn -0.9689 -0.0558 -0.2412
vn -0.5926 -0.4595 -0.6616
vn 0.6139 0.1641 -0.7721
vn 0.5332 -0.2863 0.7961
vn 0.6079 -0.2204 0.7628
vn 0.8041 0.4298 0.4108
vn 0.1026 0.0934 0.9903
vn -0.6397 0.0226 0.7683
vn 0.1399 -0.2171 0.9661
vn -0.7297 -0.1939 0.6557
vn 0.1746 -0.4320 0.8848
vn -0.6063 -0.5918 0.5313
vn 0.3388 -0.8185 0.4641
vn -0.6827 -0.3586 -0.6367
vn -0.8681 -0.3899 0.3074
vn 0.4083 -0.8978 0.1647
vn -0.4085 -0.6256 -0.6647
vn 0.3844 -0.6449 -0.6606
vn 0.3227 -0.0767 -0.9434
vn 0.8568 -0.2509 -0.4506
vn 0.2181 0.3368 -0.9160
vn -0.5212 0.2550 -0.8144
vn 0.9492 0.1125 -0.2940
vn 0.8224 -0.2404 0.5157
vn -0.9188 0.0022 -0.3948
vn -0.8399 0.1841 -0.5106
vn 0.7536 -0.0078 0.6573
vn -0.5879 -0.5393 -0.6029
vn 0.8699 0.1931 0.4539
vn 0.6464 0.0663 0.7601
vn 0.6501 -0.2970 0.6994
vn 0.5921 -0.2396 0.7694
vn 0.7457 -0.2219 0.6282
vn 0.6555 -0.5438 0.5239
vn 0.5932 0.1620 0.7886
vn 0.7374 0.1567 0.6570
vn 0.9091 0.1689 0.3808
vn 0.9147 -0.2074 0.3469
vn 0.6289 0.4682 0.6208
vn 0.7940 0.4897 0.3603
vn 0.5759 0.6947 0.4310
vn 0.9645 -0.2098 0.1601
vn 0.9647 0.1891 0.1831
vn 0.9810 0.1792 -0.0738
vn 0.9836 -0.1444 -0.1076
vn 0.9055 0.4243 -0.0035
vn 0.8231 0.4339 -0.3664
vn 0.9021 0.1976 -0.3837
vn 0.8007 0.5982 0.0303
vn 0.7314 0.6023 -0.3198
vn 0.5912 0.7974 0.1206
vn 0.5104 0.8262 -0.2383
vn 0.4366 0.8803 0.1854
vn 0.3398 0.9207 -0.1921
vn 0.5800 0.5444 -0.6060
vn 0.6415 0.2433 -0.7275
vn 0.7591 0.2528 -0.5999
vn 0.7714 -0.1318 -0.6226
vn 0.6437 -0.1176 -0.7562
vn 0.3933 -0.1177 -0.9118
vn 0.3882 0.2453 -0.8883
vn 0.2087 0.2536 -0.9445
vn 0.2271 -0.1327 -0.9648
vn 0.9016 -0.1215 -0.4152
vn 0.8200 -0.3643 -0.4415
vn 0.9180 -0.3871 -0.0867
vn 0.7273 -0.5389 -0.4251
vn 0.8259 -0.5571 -0.0863
vn 0.8172 -0.5163 0.2562
vn 0.6095 -0.7372 0.2915
vn 0.3747 0.7562 -0.5364
vn 0.3339 0.5565 -0.7608
vn -0.0731 -0.4386 0.8957
vn 0.2218 -0.9414 0.2540
vn 0.9993 0.0251 0.0260
vn -0.9791 -0.0970 0.1785
vn -0.4448 0.4728 0.7607
vn 0.8457 -0.4133 -0.3375
vn -0.6873 0.7107 -0.1504
vn -0.9938 -0.0721 -0.0844
vn -0.3053 -0.4100 -0.8595
vn -0.9408 -0.2094 -0.2667
vn 0.6986 -0.3068 0.6464
vn 0.0756 0.1186 -0.9901
vn 0.9864 0.0777 -0.1449
vn 0.1790 0.3514 -0.9190
vn -0.7999 0.3148 -0.5109
vn 0.8540 0.4469 -0.2663
vn -0.2194 0.9726 -0.0763
vn -0.9387 0.3448 0.0053
vn 0.9152 0.3675 -0.1652
vn 0.1638 0.5445 -0.8226
vn -0.8616 0.2448 -0.4446
s 1
f 4//4 3//3 2//2 1//1
f 2//2 3//3 6//6 5//5
f 5//5 6//6 8//8 7//7
f 8//8 10//10 9//9 7//7
f 13//13 12//12 11//11 9//9
f 10//10 13//13 9//9
f 11//11 12//12 14//14
f 16//16 11//11 14//14 15//15
f 18//18 16//16 15//15 17//17
f 15//15 20//20 19//19 17//17
f 21//21 18//18 17//17
f 23//23 18//18 21//21 22//22
f 24//24 23//23 22//22
f 26//26 23//23 24//24 25//25
f 28//28 27//27 26//26 25//25
f 30//30 29//29 27//27 28//28
f 29//29 32//32 31//31 27//27
f 34//34 32//32 29//29 33//33
f 36//36 30//30 28//28 35//35
f 38//38 37//37 30//30 36//36
f 39//39 38//38 36//36
f 37//37 38//38 40//40 22//22
f 40//40 38//38 42//42 41//41
f 41//41 42//42 44//44 43//43
f 43//43 44//44 46//46 45//45
f 44//44 48//48 47//47 46//46
f 50//50 49//49 43//43 45//45
f 52//52 49//49 50//50 51//51
f 54//54 52//52 51//51 53//53
f 56//56 55//55 52//52 54//54
f 45//45 46//46 58//58 57//57
f 58//58 60//60 59//59 57//57
f 60//60 62//62 61//61 59//59
f 61//61 62//62 64//64 63//63
f 64//64 62//62 66//66 65//65
f 67//67 64//64 65//65
f 69//69 68//68 67//67 65//65
f 68//68 70//70 67//67
f 72//72 69//69 65//65 71//71
f 74//74 69//69 72//72 73//73
f 76//76 75//75 74//74 73//73
f 78//78 77//77 75//75 76//76
f 80//80 77//77 78//78 79//79
f 82//82 81//81 80//80 79//79
f 84//84 81//81 82//82 83//83
f 86//86 85//85 84//84 83//83
f 88//88 85//85 86//86 87//87
f 90//90 88//88 87//87 89//89
f 92//92 91//91 90//90 89//89
f 94//94 91//91 92//92 93//93
f 96//96 95//95 94//94 93//93
f 98//98 95//95 96//96 97//97
f 100//100 99//99 98//98 97//97
f 102//102 99//99 100//100 101//101
f 104//104 102//102 101//101 103//103
f 106//106 105//105 104//104 103//103
f 108//108 105//105 106//106 107//107
f 110//110 109//109 108//108 107//107
f 112//112 109//109 110//110 111//111
f 114//114 112//112 111//111 113//113
f 116//116 114//114 113//113 115//115
f 118//118 116//116 115//115 117//117
f 120//120 118//118 117//117 119//119
f 122//122 120//120 119//119 121//121
f 124//124 122//122 121//121 123//123
f 126//126 124//124 123//123 125//125
f 128//128 127//127 124//124 126//126
f 130//130 128//128 126//126 129//129
f 132//132 130//130 129//129 131//131
f 133//133 132//132 131//131
f 132//132 133//133 135//135 134//134
f 134//134 135//135 137//137 136//136
f 136//136 137//137 139//139 138//138
f 138//138 139//139 141//141 140//140
f 140//140 141//141 143//143 142//142
f 142//142 143//143 144//144
f 147//147 146//146 145//145 144//144
f 143//143 147//147 144//144
f 145//145 146//146 148//148
f 146//146 149//149 148//148
f 150//150 145//145 148//148
f 146//146 147//147 151//151 149//149
f 151//151 152//152 150//150 149//149
f 150//150 152//152 153//153 144//144
f 145//145 150//150 144//144
f 153//153 154//154 140//140 142//142
f 137//137 156//156 155//155 139//139
f 155//155 156//156 158//158 157//157
f 158//158 160//160 159//159 157//157
f 159//159 160//160 162//162 161//161
f 162//162 163//163 134//134 136//136
f 164//164 133//133 131//131
f 166//166 164//164 131//131 165//165
f 168//168 164//164 166//166 167//167
f 169//169 168//168 167//167
f 169//169 167//167 170//170
f 173//173 172//172 171//171 170//170
f 167//167 173//173 170//170
f 175//175 171//171 172//172 174//174
f 177//177 171//171 175//175 176//176
f 179//179 178//178 177//177 176//176
f 178//178 181//181 180//180 177//177
f 183//183 181//181 178//178 182//182
f 185//185 183//183 182//182 184//184
f 187//187 186//186 183//183 185//185
f 189//189 188//188 186//186 187//187
f 191//191 190//190 188//188 189//189
f 193//193 192//192 190//190 191//191
f 195//195 194//194 192//192 193//193
f 197//197 196//196 194//194 195//195
f 199//199 198//198 196//196 197//197
f 205//205 207//207 206//206 204//204
f 209//209 207//207 205//205 208//208
f 210//210 209//209 208//208
f 210//210 212//212 211//211 209//209
f 212//212 214//214 213//213 211//211
f 71//71 213//213 214//214 215//215
f 216//216 71//71 215//215
f 215//215 214//214 218//218 217//217
f 220//220 219//219 215//215 217//217
f 222//222 219//219 220//220 221//221
f 224//224 223//223 219//219 222//222
f 225//225 224//224 222//222
f 227//227 226//226 224//224 225//225
f 229//229 226//226 227//227 228//228
f 230//230 229//229 228//228
f 232//232 229//229 230//230 231//231
f 233//233 229//229 232//232
f 231//231 230//230 235//235 234//234
f 234//234 235//235 237//237 236//236
f 239//239 237//237 235//235 238//238
f 240//240 239//239 238//238
f 242//242 239//239 240//240 241//241
f 244//244 239//239 242//242 243//243
f 243//243 242//242 246//246 245//245
f 248//248 247//247 244//244 243//243
f 240//240 250//250 249//249 241//241
f 241//241 249//249 221//221
f 250//250 252//252 251//251 249//249
f 228//228 252//252 250//250 238//238
f 250//250 240//240 238//238
f 237//237 253//253 236//236
f 255//255 254//254 231//231 234//234
f 226//226 229//229 233//233 256//256
f 235//235 230//230 228//228 238//238
f 224//224 226//226 256//256 257//257
f 256//256 259//259 258//258 257//257
f 251//251 252//252 227//227 225//225
f 223//223 224//224 257//257 260//260
f 223//223 260//260 216//216
f 251//251 225//225 222//222
f 246//246 242//242 241//241 221//221
f 220//220 246//246 221//221
f 249//249 251//251 222//222 221//221
f 246//246 220//220 217//217 261//261
f 218//218 214//214 212//212 262//262
f 213//213 66//66 263//263 211//211
f 212//212 210//210 264//264 202//202
f 262//262 212//212 202//202
f 211//211 263//263 265//265 209//209
f 209//209 265//265 266//266 207//207
f 265//265 268//268 267//267 266//266
f 266//266 267//267 270//270 269//269
f 273//273 272//272 271//271 270//270
f 267//267 273//273 270//270
f 274//274 271//271 272//272 53//53
f 276//276 271//271 274//274 275//275
f 278//278 276//276 275//275 277//277
f 280//280 278//278 277//277 279//279
f 282//282 280//280 279//279 281//281
f 284//284 282//282 281//281 283//283
f 286//286 284//284 283//283 285//285
f 288//288 284//284 286//286 287//287
f 290//290 288//288 287//287 289//289
f 292//292 291//291 288//288 290//290
f 294//294 293//293 291//291 292//292
f 296//296 295//295 293//293 294//294
f 298//298 296//296 294//294 297//297
f 300//300 298//298 297//297 299//299
f 302//302 301//301 298//298 300//300
f 304//304 303//303 302//302 300//300
f 299//299 297//297 306//306 305//305
f 305//305 306//306 308//308 307//307
f 310//310 309//309 305//305 307//307
f 311//311 304//304 300//300 299//299
f 297//297 294//294 292//292 306//306
f 306//306 292//292 290//290 308//308
f 308//308 290//290 289//289 312//312
f 291//291 282//282 284//284 288//288
f 293//293 280//280 282//282 291//291
f 313//313 276//276 278//278 295//295
f 277//277 275//275 315//315 314//314
f 268//268 47//47 273//273 267//267
f 204//204 206//206 301//301 302//302
f 207//207 266//266 269//269 206//206
f 198//198 203//203 303//303 196//196
f 196//196 303//303 304//304 194//194
f 194//194 304//304 311//311 192//192
f 192//192 311//311 309//309 190//190
f 190//190 309//309 310//310 188//188
f 173//173 316//316 187//187 185//185
f 184//184 182//182 318//318 317//317
f 317//317 318//318 320//320 319//319
f 319//319 320//320 322//322 321//321
f 321//321 322//322 323//323
f 323//323 322//322 325//325 324//324
f 327//327 326//326 323//323 324//324
f 326//326 327//327 328//328
f 327//327 329//329 328//328
f 330//330 326//326 328//328
f 331//331 329//329 327//327 324//324
f 332//332 331//331 324//324
f 331//331 333//333 330//330 329//329
f 330//330 333//333 334//334 323//323
f 326//326 330//330 323//323
f 325//325 335//335 324//324
f 335//335 325//325 336//336
f 332//332 335//335 336//336
f 334//334 337//337 319//319 321//321
f 182//182 178//178 179//179 318//318
f 338//338 170//170 171//171 177//177
f 180//180 338//338 177//177
f 289//289 168//168 169//169 338//338
f 312//312 289//289 338//338
f 131//131 129//129 339//339 165//165
f 283//283 281//281 128//128 130//130
f 281//281 279//279 127//127 128//128
f 125//125 123//123 193//193 191//191
f 314//314 315//315 120//120 122//122
f 121//121 119//119 197//197 195//195
f 341//341 340//340 114//114 116//116
f 115//115 113//113 201//201 200//200
f 113//113 111//111 262//262 202//202
f 110//110 218//218 262//262 111//111
f 218//218 110//110 107//107 261//261
f 217//217 218//218 261//261
f 107//107 106//106 245//245 261//261
f 344//344 343//343 342//342 104//104
f 105//105 344//344 104//104
f 346//346 345//345 342//342 343//343
f 348//348 347//347 346//346 343//343
f 347//347 350//350 349//349 346//346
f 349//349 350//350 351//351
f 353//353 347//347 348//348 352//352
f 355//355 354//354 353//353 352//352
f 353//353 354//354 356//356
f 354//354 358//358 357//357 356//356
f 357//357 360//360 359//359 356//356
f 359//359 360//360 362//362 361//361
f 362//362 364//364 363//363 361//361
f 366//366 365//365 360//360 357//357
f 367//367 366//366 357//357
f 369//369 366//366 367//367 368//368
f 371//371 366//366 369//369 370//370
f 373//373 372//372 371//371 370//370
f 367//367 358//358 374//374 368//368
f 368//368 374//374 375//375
f 375//375 374//374 355//355 376//376
f 378//378 377//377 375//375 376//376
f 355//355 352//352 376//376
f 374//374 358//358 354//354 355//355
f 379//379 348//348 343//343 344//344
f 379//379 344//344 380//380
f 63//63 378//378 379//379 380//380
f 103//103 248//248 243//243 245//245
f 106//106 103//103 245//245
f 342//342 102//102 104//104
f 101//101 248//248 103//103
f 342//342 345//345 99//99 102//102
f 100//100 247//247 248//248 101//101
f 247//247 100//100 97//97
f 346//346 349//349 95//95 98//98
f 345//345 346//346 98//98
f 97//97 96//96 253//253 244//244
f 247//247 97//97 244//244
f 95//95 349//349 351//351 94//94
f 253//253 96//96 93//93 236//236
f 91//91 363//363 90//90
f 255//255 92//92 89//89
f 363//363 364//364 88//88 90//90
f 87//87 254//254 255//255 89//89
f 86//86 254//254 87//87
f 364//364 362//362 381//381 84//84
f 85//85 364//364 84//84
f 382//382 371//371 372//372 80//80
f 81//81 382//382 80//80
f 78//78 259//259 79//79
f 77//77 372//372 373//373 75//75
f 258//258 259//259 78//78 76//76
f 75//75 373//373 74//74
f 258//258 76//76 73//73
f 260//260 72//72 71//71 216//216
f 67//67 70//70 377//377 64//64
f 65//65 66//66 213//213 71//71
f 61//61 63//63 380//380 108//108
f 109//109 61//61 108//108
f 64//64 377//377 378//378 63//63
f 66//66 62//62 60//60 263//263
f 59//59 61//61 109//109 112//112
f 60//60 58//58 268//268 265//265
f 263//263 60//60 265//265
f 57//57 59//59 112//112 114//114
f 340//340 57//57 114//114
f 35//35 28//28 25//25 56//56
f 25//25 24//24 55//55 56//56
f 19//19 33//33 37//37 22//22
f 21//21 19//19 22//22
f 10//10 383//383 13//13
f 383//383 10//10 8//8
f 6//6 384//384 383//383 8//8
f 3//3 384//384 6//6
f 32//32 2//2 5//5 31//31
f 12//12 13//13 4//4 1//1
f 385//385 12//12 1//1
f 384//384 3//3 4//4
f 12//12 385//385 14//14
f 383//383 384//384 4//4 13//13
f 20//20 385//385 1//1 34//34
f 1//1 2//2 32//32 34//34
f 14//14 385//385 20//20 15//15
f 31//31 5//5 7//7 386//386
f 9//9 11//11 16//16 387//387
f 7//7 9//9 387//387 386//386
f 19//19 20//20 34//34 33//33
f 33//33 29//29 30//30 37//37
f 19//19 21//21 17//17
f 27//27 31//31 386//386 26//26
f 387//387 16//16 18//18 23//23
f 386//386 387//387 23//23 26//26
f 38//38 39//39 42//42
f 388//388 40//40 41//41
f 22//22 40//40 388//388 55//55
f 24//24 22//22 55//55
f 48//48 39//39 36//36 389//389
f 42//42 39//39 48//48 44//44
f 389//389 36//36 35//35 390//390
f 49//49 388//388 41//41 43//43
f 55//55 388//388 49//49 52//52
f 390//390 35//35 56//56 54//54
f 47//47 48//48 389//389 273//273
f 46//46 47//47 268//268 58//58
f 273//273 389//389 390//390 272//272
f 340//340 50//50 45//45 57//57
f 51//51 50//50 340//340 341//341
f 272//272 390//390 54//54 53//53
f 365//365 382//382 381//381
f 382//382 365//365 366//366 371//371
f 370//370 369//369 70//70 68//68
f 360//360 365//365 381//381 362//362
f 358//358 367//367 357//357
f 70//70 369//369 368//368 375//375
f 377//377 70//70 375//375
f 350//350 359//359 361//361 351//351
f 350//350 347//347 353//353 356//356
f 359//359 350//350 356//356
f 348//348 379//379 378//378 376//376
f 352//352 348//348 376//376
f 381//381 382//382 81//81 84//84
f 372//372 77//77 80//80
f 370//370 68//68 69//69 74//74
f 373//373 370//370 74//74
f 364//364 85//85 88//88
f 361//361 363//363 91//91 94//94
f 351//351 361//361 94//94
f 99//99 345//345 98//98
f 380//380 344//344 105//105 108//108
f 83//83 82//82 233//233 232//232
f 82//82 79//79 259//259 256//256
f 233//233 82//82 256//256
f 258//258 73//73 72//72 260//260
f 257//257 258//258 260//260
f 86//86 83//83 232//232 231//231
f 254//254 86//86 231//231
f 227//227 252//252 228//228
f 219//219 223//223 216//216 215//215
f 92//92 255//255 234//234 236//236
f 93//93 92//92 236//236
f 253//253 237//237 239//239 244//244
f 245//245 246//246 261//261
f 338//338 169//169 170//170
f 129//129 126//126 125//125 339//339
f 316//316 166//166 165//165
f 166//166 316//316 173//173 167//167
f 307//307 308//308 312//312 391//391
f 391//391 312//312 338//338 180//180
f 339//339 125//125 191//191 189//189
f 165//165 339//339 189//189 187//187
f 316//316 165//165 187//187
f 172//172 173//173 185//185 184//184
f 392//392 310//310 307//307 391//391
f 181//181 392//392 391//391 180//180
f 188//188 310//310 392//392 186//186
f 186//186 392//392 181//181 183//183
f 270//270 271//271 276//276 313//313
f 295//295 278//278 280//280 293//293
f 53//53 51//51 341//341 393//393
f 274//274 53//53 393//393
f 275//275 274//274 393//393 315//315
f 279//279 277//277 314//314 127//127
f 269//269 270//270 313//313 394//394
f 394//394 313//313 295//295 296//296
f 393//393 341//341 116//116 118//118
f 315//315 393//393 118//118 120//120
f 127//127 314//314 122//122 124//124
f 206//206 269//269 394//394 301//301
f 301//301 394//394 296//296 298//298
f 303//303 203//203 204//204 302//302
f 309//309 311//311 299//299 305//305
f 117//117 115//115 200//200 199//199
f 119//119 117//117 199//199 197//197
f 123//123 121//121 195//195 193//193
f 395//395 286//286 285//285 163//163
f 160//160 395//395 163//163 162//162
f 287//287 286//286 395//395 396//396
f 396//396 395//395 160//160 158//158
f 285//285 283//283 130//130 132//132
f 163//163 285//285 132//132 134//134
f 287//287 396//396 397//397 168//168
f 289//289 287//287 168//168
f 156//156 397//397 396//396 158//158
f 135//135 133//133 164//164 168//168
f 397//397 135//135 168//168
f 135//135 397//397 156//156 137//137
f 398//398 159//159 161//161 154//154
f 152//152 398//398 154//154 153//153
f 157//157 159//159 398//398 399//399
f 399//399 398//398 152//152 151//151
f 149//149 150//150 148//148
f 161//161 162//162 136//136 138//138
f 154//154 161//161 138//138 140//140
f 153//153 142//142 144//144
f 400//400 155//155 157//157 399//399
f 147//147 400//400 399//399 151//151
f 139//139 155//155 400//400 141//141
f 141//141 400//400 147//147 143//143
f 401//401 175//175 174//174 337//337
f 333//333 401//401 337//337 334//334
f 176//176 175//175 401//401 402//402
f 402//402 401//401 333//333 331//331
f 329//329 330//330 328//328
f 174//174 172//172 184//184 317//317
f 337//337 174//174 317//317 319//319
f 334//334 321//321 323//323
f 402//402 331//331 332//332 336//336
f 403//403 402//402 336//336
f 403//403 179//179 176//176 402//402
f 335//335 332//332 324//324
f 318//318 179//179 403//403 320//320
f 322//322 320//320 403//403 336//336
f 325//325 322//322 336//336
f 264//264 201//201 113//113 202//202
f 199//199 200//200 201//201 264//264 210//210 208//208 205//205 204//204 203//203 198//198
