# Blender 5.0.0
# www.blender.org
mtllib Walk_Forward0023.mtl
o Mball.010
v 1.470139 3.795291 -0.663840
v 1.192357 3.556038 -0.812674
v 1.266045 3.231913 -0.579434
v 1.531542 3.451307 -0.445964
v 0.941500 3.574529 -0.725054
v 1.040016 3.246044 -0.502881
v 0.779846 3.849602 -0.419490
v 0.876462 3.520323 -0.197537
v 0.937692 4.066846 -0.257967
v 1.023079 3.719257 -0.050208
v 1.324057 4.099393 -0.335149
v 1.411555 3.751029 -0.139709
v 1.411949 3.743945 -0.135530
v 1.350417 4.087874 -0.353420
v 1.270651 4.424190 -0.573423
v 1.244292 4.435709 -0.555151
v 1.190567 4.760372 -0.793462
v 1.164700 4.771675 -0.775532
v 1.312141 4.475936 -1.096686
v 1.392108 4.139218 -0.877122
v 1.153523 4.864980 -0.898739
v 1.072188 5.024499 -1.054057
v 0.778260 4.739279 -0.698186
v 0.757092 4.965222 -1.001809
v 0.630778 4.842305 -1.093815
v 0.620610 4.522356 -0.859460
v 0.782296 4.247297 -1.165021
v 0.747252 4.647621 -1.367091
v 1.032719 4.228881 -1.252447
v 0.903305 4.663151 -1.411294
v 0.861734 3.910845 -0.945056
v 1.112591 3.892354 -1.032676
v 1.310285 4.467787 -1.103882
v 1.390374 4.131606 -0.883842
v 0.458525 4.880132 -1.038121
v 0.605901 5.193577 -1.036125
v 1.133225 4.849817 -1.317611
v 1.051747 5.177149 -1.167311
v 0.961023 5.305429 -0.975090
v 1.166899 4.989990 -1.077457
v 1.243178 4.927968 -0.911838
v 1.045983 5.275349 -0.960425
v 1.231314 4.864812 -0.510702
v 0.992350 5.292202 -0.537226
v 1.176110 4.923228 -0.095824
v 0.955594 5.308090 -0.175055
v 0.864628 5.339943 -0.197542
v 0.898830 5.334768 -0.546885
v 1.225071 4.750742 -0.511852
v 1.173138 4.800837 -0.089298
v 0.973082 4.445792 -0.123250
v 0.988549 4.411407 -0.538747
v 0.680800 4.420504 -0.145610
v 0.639968 4.450860 -0.571648
v 0.970829 4.548670 -0.921512
v 0.642843 4.554872 -0.975342
v 0.736608 5.164785 0.354264
v 0.609512 5.326520 0.019181
v 0.514473 5.525930 0.458563
v 0.396290 5.569880 0.075135
v 0.628773 5.938469 0.445267
v 0.510869 5.966063 0.059569
v 0.678699 5.978096 0.433403
v 0.560850 6.003875 0.047600
v 0.056502 6.013070 -0.249421
v 0.077873 5.969699 -0.184110
v 0.438514 6.215169 -0.331422
v 0.382674 6.401426 -0.493297
v -0.058045 6.395144 -0.581478
v 0.604314 6.398427 -0.363277
v -0.329756 5.995522 -0.159205
v -0.444303 6.377596 -0.491262
v -0.457455 6.449655 -0.525992
v -0.071197 6.467202 -0.616208
v -0.112682 6.803776 -0.712595
v -0.498939 6.786228 -0.622378
v -0.121865 7.203007 -0.694823
v -0.508123 7.185459 -0.604607
v -0.481800 7.508007 -0.478880
v -0.095543 7.525555 -0.569096
v -0.085596 7.592835 -0.528164
v -0.471854 7.575288 -0.437948
v -0.373873 7.913403 -0.073832
v 0.012384 7.930950 -0.164048
v 0.032044 7.965834 -0.094960
v -0.354214 7.948286 -0.004743
v -0.259603 8.043058 0.318942
v 0.126654 8.060604 0.228725
v -0.141790 8.018688 0.704859
v 0.244467 8.036236 0.614643
v 0.344364 7.901232 0.928099
v -0.041894 7.883685 1.018316
v -0.020434 7.840296 1.083920
v 0.365824 7.857843 0.993704
v 0.480371 7.475768 1.325761
v 0.094113 7.458221 1.415977
v 0.107265 7.386163 1.450707
v 0.493523 7.403710 1.360491
v 0.535007 7.067137 1.456877
v 0.148750 7.049590 1.547094
v 0.157933 6.650359 1.529322
v 0.544191 6.667906 1.439106
v 0.131611 6.327811 1.403595
v 0.517868 6.345358 1.313379
v 0.507922 6.278077 1.272446
v 0.121664 6.260530 1.362663
v 0.023684 5.922416 0.998547
v 0.409941 5.939962 0.908331
v 0.390371 5.905061 0.839535
v 0.004083 5.887363 0.929621
v -0.050928 5.489681 0.699190
v 0.340219 5.507856 0.627190
v -0.017396 4.993099 0.735173
v 0.377405 5.003011 0.666988
v -0.009508 4.618272 0.636544
v 0.377856 4.578931 0.611777
v -0.057845 4.283525 0.505205
v 0.320272 4.197177 0.515066
v -0.160322 4.105792 0.442611
v 0.160042 3.803844 0.442016
v -0.137975 3.815788 0.531699
v 0.092107 3.449657 0.352794
v -0.086818 3.475708 0.629909
v 0.051776 3.097440 0.255662
v -0.027550 3.115665 0.699140
v 0.016388 2.763671 0.067784
v 0.418235 3.001380 0.048498
v 0.361405 2.660021 -0.137460
v -0.013121 2.451525 -0.150583
v 0.284672 2.279956 -0.225347
v -0.036918 2.220787 -0.327626
v 0.207042 1.945011 -0.342992
v -0.047625 2.110878 -0.407461
v 0.193567 1.573892 -0.450872
v -0.076584 1.687549 -0.659242
v 0.184869 1.201008 -0.564542
v -0.039434 1.304212 -0.762762
v 0.184798 0.821348 -0.693052
v -0.039178 0.914293 -0.869011
v 0.289037 0.624597 -1.095615
v 0.022622 0.677402 -1.122262
v 0.324756 0.513225 -1.396335
v 0.044206 0.568764 -1.436120
v 0.342433 0.516855 -1.682048
v 0.338925 0.564695 -1.738483
v 0.166964 0.958452 -1.849914
v -0.060179 1.016823 -1.557027
v 0.285965 0.973637 -1.860675
v 0.279895 1.010763 -1.851968
v 0.359792 0.994115 -1.840436
v 0.228295 1.256659 -1.593620
v 0.534774 1.133097 -1.527024
v 0.512655 0.655401 -1.413094
v 0.506732 0.763207 -1.099478
v 0.000717 1.139946 -1.188963
v 0.016251 1.482884 -1.118466
v 0.348780 1.271900 -1.282339
v 0.409968 1.550536 -1.232425
v 0.634598 1.193110 -1.014141
v 0.676065 1.400894 -0.948293
v 0.539295 0.877434 -0.773833
v 0.529756 1.211936 -0.624995
v 0.501459 1.602227 -0.528423
v -0.035054 2.144844 -0.380436
v 0.106438 2.356951 0.785991
v 0.111535 2.328300 0.789893
v 0.217148 1.947339 0.971547
v 0.072165 2.063155 -0.649200
v 0.169038 1.788801 0.549171
v 0.211121 1.701337 0.670927
v 0.233790 1.401373 0.860173
v 0.169125 1.614138 1.224328
v 0.190772 1.983555 1.080134
v 0.047712 1.222980 1.379802
v 0.159830 1.062521 1.020995
v -0.030663 0.980895 0.917849
v -0.100377 1.231701 0.713027
v -0.379018 1.289627 0.910155
v -0.344932 0.976550 1.051907
v -0.168272 1.559001 0.539547
v -0.472402 1.637405 0.776624
v -0.303706 1.527917 1.262892
v -0.411894 1.872947 1.129668
v -0.091918 1.621295 1.333132
v -0.157419 2.001976 1.240953
v -0.451072 2.231930 0.992943
v -0.220715 2.357282 1.104250
v -0.491244 2.590864 0.856070
v -0.280477 2.717541 0.965073
v -0.542607 2.941011 0.709596
v -0.360501 3.067056 0.806913
v -0.514064 3.304901 0.545650
v -0.437761 3.368984 0.594906
v -0.539545 3.659269 0.387812
v -0.509213 3.687352 0.414791
v -0.549388 3.994890 0.250085
v -0.514904 4.015305 0.276177
v -0.450104 4.317033 0.332007
v -0.391882 4.343023 0.349478
v -0.300202 4.684754 0.562756
v -0.439968 5.035669 0.652333
v -0.462761 5.102760 0.629027
v -0.678205 4.357889 0.038109
v -0.663833 4.368399 -0.014003
v -0.748250 4.787366 0.145582
v -0.348727 4.471294 -0.321131
v -0.363353 4.925920 -0.184541
v -0.627518 5.155572 0.277712
v -0.281687 5.270325 -0.040163
v -0.612631 5.168108 0.274713
v -0.232211 5.548663 0.109752
v -0.355047 5.533290 0.250368
v -0.308322 5.952139 -0.093688
v -0.536936 5.917954 0.304040
v -0.597854 5.953219 0.318058
v -0.720259 6.162527 -0.060774
v -0.480040 5.927795 0.703764
v -0.419053 5.890756 0.689614
v -0.954877 6.297873 0.414330
v -0.837064 6.273504 0.800248
v -0.876531 6.341455 0.812193
v -0.994344 6.365823 0.426275
v -0.894135 6.330354 -0.013291
v -1.081873 6.721473 0.046185
v -1.099178 6.715500 0.122375
v -1.091057 7.120703 0.063956
v -1.108362 7.114731 0.140146
v -1.018690 7.424175 0.473387
v -0.921686 7.528045 0.040023
v -0.982428 7.495564 0.467645
v -0.642318 7.871487 0.402302
v -0.755886 7.711303 0.008169
v -0.803650 7.546475 -0.169333
v -0.524505 7.847117 0.788219
v -0.864615 7.471196 0.853562
v -0.402446 7.638196 1.165921
v -0.568246 7.454939 1.197775
v -0.900876 7.399806 0.859305
v -0.737618 7.047597 1.221708
v -0.796042 7.050129 1.163205
v -0.786858 6.650898 1.145434
v -0.728434 6.648366 1.203937
v -0.273777 6.642213 1.470650
v -0.282961 7.041444 1.488422
v -0.319055 6.254248 1.274481
v -0.540695 6.257247 1.144461
v -0.204006 7.042117 1.510509
v -0.194822 6.642886 1.492738
v -0.995267 6.665965 0.852825
v -1.004450 7.065196 0.870596
v -1.113080 6.690334 0.466907
v -1.122263 7.089564 0.484679
v -0.346606 7.451939 1.327795
v -0.575812 7.913685 0.388300
v -0.457999 7.889316 0.774217
v -0.848928 7.158510 -0.365503
v -0.839744 6.759280 -0.383274
v -0.783887 6.764731 -0.436849
v -0.793071 7.163961 -0.419078
v -0.776099 6.348784 -0.222648
v -0.366819 6.089420 1.096979
v -0.236891 5.490865 0.633740
v 0.147682 5.568175 0.000702
v -0.622277 5.163775 0.286783
v 0.113653 5.297082 -0.148739
v 0.082796 4.955500 -0.290125
v 0.511518 4.974244 -0.206814
v 0.582250 5.281167 -0.048608
v 0.085305 4.548563 -0.391902
v 0.498287 4.567244 -0.232834
v 0.600330 4.565984 -0.150742
v 0.475833 4.794787 -0.242578
v 0.537005 5.214666 -0.251531
v 0.718207 4.321741 0.121027
v 0.639622 3.809037 0.174286
v 0.651672 4.032311 -0.169138
v 0.593400 3.382104 0.085922
v 0.665216 3.599963 -0.273716
v 0.529227 3.027084 -0.054523
v 0.606302 3.243495 -0.409102
v 0.451651 2.680843 -0.197766
v 0.549246 2.891970 -0.552353
v 0.486449 2.311706 -0.331263
v 0.601199 2.515215 -0.684101
v 0.474403 1.976799 -0.429422
v 0.626922 2.147573 -0.784922
v 0.434630 2.290388 -1.018202
v 0.447923 2.658122 -0.841028
v 0.088873 2.282385 -0.633065
v 0.112767 2.680552 -0.662034
v 0.480966 2.969921 -0.630854
v 0.157981 3.052569 -0.617156
v 0.539195 3.323710 -0.498791
v 0.202793 3.422065 -0.593072
v 0.584939 3.680994 -0.379730
v 0.210653 3.776015 -0.518632
v -0.107694 3.084876 -0.211015
v -0.168784 3.443518 -0.312200
v -0.472411 3.033351 0.065959
v -0.536788 3.417168 -0.005238
v -0.245934 3.836728 -0.392707
v -0.616277 3.834112 -0.116050
v -0.637059 3.842272 -0.075731
v -0.563846 3.428461 0.039325
v -0.410474 2.634989 0.113335
v -0.057562 2.749000 -0.088593
v -0.332711 2.271160 0.261298
v 0.005756 2.425932 0.112215
v -0.596654 2.693408 0.362641
v -0.555307 2.343454 0.509101
v -0.554025 3.063391 0.196007
v 0.073986 2.116147 0.324602
v 0.567383 4.095066 -0.280231
v 0.478559 3.362183 0.189157
v 0.549754 3.768043 0.280605
v 0.110867 2.332821 0.808775
v -0.026712 1.229096 1.415671
v -0.260221 1.165030 1.403650
v 0.030474 0.719488 1.413573
v -0.313082 0.693215 1.332293
v 0.092566 0.347439 1.278770
v -0.273562 0.316061 1.190268
v 0.145992 0.079652 1.122347
v -0.248624 0.288969 0.747221
v -0.298303 0.325638 1.162288
v 0.158863 0.043965 1.048058
v -0.115279 0.165296 0.709434
v 0.173878 0.188668 0.724805
v 0.170508 0.228789 0.705168
v 0.207754 0.220250 0.736233
v 0.111409 0.639916 0.725475
v -0.286016 0.518399 0.803697
v 0.290850 0.603073 0.875499
v 0.193870 0.395580 1.229047
v -0.305803 0.504127 0.823159
v -0.345693 0.804832 0.966699
v 0.149576 0.771280 1.362531
v 0.175963 1.777652 0.576248
v 0.040567 2.730366 0.743923
v 0.755525 5.054770 0.379965
v 0.752977 4.636549 0.359359
v 0.829139 6.689404 1.253576
v 0.884996 6.694855 1.200001
v 0.839718 6.306890 1.003832
v 0.819955 7.088634 1.271348
v 0.875812 7.094086 1.217773
v 1.117941 7.131893 0.788314
v 1.127125 6.732662 0.770543
v 0.812167 7.504580 1.057146
v 0.930202 7.523011 0.847790
v 0.756327 7.690838 0.895272
v 1.144430 6.738634 0.694352
v 1.135246 7.137865 0.712124
v 1.149148 7.163032 0.367591
v 1.158331 6.763801 0.349820
v 1.030412 7.487542 0.408223
v 0.912599 7.511911 0.022306
v 1.031335 7.187400 -0.018326
v 0.990945 7.555491 0.420168
v 0.873132 7.579861 0.034251
v 0.634268 7.899759 0.517570
v 0.516455 7.924128 0.131653
v 0.565962 7.935833 0.535056
v 0.448149 7.960202 0.149139
v 0.576763 7.596118 -0.309962
v 0.764502 7.204999 -0.369438
v 0.822926 7.202467 -0.310935
v 0.832110 6.803236 -0.328707
v 0.773686 6.805768 -0.387209
v 0.319029 6.811921 -0.653923
v 0.309845 7.211152 -0.636152
v 0.230890 7.210479 -0.658239
v 0.240074 6.811248 -0.676011
v 1.040518 6.788169 -0.036098
v 0.936944 6.453559 -0.024806
v 1.054757 6.429190 0.361111
v 0.900682 6.382169 -0.019063
v 1.018496 6.357800 0.366854
v 0.957753 6.325320 0.794476
v 0.791954 6.142062 0.826330
v 0.402887 7.763945 -0.262480
v 0.355123 7.599117 -0.439982
v 1.143404 3.337538 0.001165
v 1.277279 3.085563 -0.327401
v 1.471874 3.802903 -0.657119
v 0.700081 4.185917 -0.639492
v 0.857927 4.403162 -0.477969
v 1.231839 4.824168 -0.902384
v 0.523197 5.245347 -0.581730
v 0.400561 4.879441 -0.593755
v -0.239257 1.913453 0.414902
v -0.507426 1.994961 0.640736
v 0.662717 4.244054 0.281763
v 0.120633 4.130938 -0.464440
v 0.661423 1.768836 -0.882670
v 0.430904 1.915273 -1.157637
v 0.020785 1.880352 -0.920623
v 0.547684 1.190649 -1.227666
v 0.222276 1.303608 -1.325531
v -0.057674 1.085264 -1.275689
v 0.248879 0.926261 1.014555
v 0.046503 0.937306 0.859036
v -0.349264 0.827261 0.977684
vn 0.8956 -0.1719 -0.4104
vn 0.1954 -0.5209 -0.8310
vn 0.2463 -0.6959 -0.6746
vn 0.9576 -0.2801 -0.0668
vn -0.6827 -0.5240 -0.5093
vn -0.6286 -0.7197 -0.2949
vn -0.9686 -0.1090 0.2234
vn -0.8797 -0.2994 0.3694
vn -0.3968 0.4145 0.8190
vn -0.3264 0.2577 0.9094
vn 0.3879 0.5461 0.7425
vn 0.6702 0.4574 0.5845
vn 0.6745 0.2260 0.7028
vn 0.8319 0.4135 0.3702
vn 0.8291 0.4304 0.3568
vn 0.3878 0.5676 0.7262
vn 0.8113 0.4916 0.3163
vn 0.3573 0.6606 0.6603
vn 0.9542 0.2928 -0.0618
vn 0.9807 0.1706 -0.0954
vn 0.6428 0.6774 0.3578
vn 0.8296 0.3119 -0.4631
vn -0.4308 0.5590 0.7085
vn -0.5396 0.7302 -0.4192
vn -0.7740 -0.3250 -0.5434
vn -0.9889 0.0021 0.1487
vn -0.6867 -0.4369 -0.5810
vn -0.6481 -0.1004 -0.7549
vn 0.1766 -0.4269 -0.8869
vn -0.0467 -0.0109 -0.9989
vn -0.6844 -0.5055 -0.5253
vn 0.1917 -0.5048 -0.8417
vn 0.8480 -0.0216 -0.5296
vn 0.8409 -0.1419 -0.5223
vn -0.8750 -0.0864 -0.4764
vn -0.5324 0.6802 -0.5039
vn 0.5874 0.3186 -0.7439
vn 0.4362 0.6169 -0.6552
vn 0.0688 0.9528 -0.2956
vn 0.8457 0.0586 -0.5304
vn 0.9719 0.1723 -0.1605
vn 0.6515 0.7470 -0.1323
vn 0.9766 0.2013 0.0758
vn 0.6549 0.7545 0.0424
vn 0.8844 0.3111 0.3480
vn 0.5684 0.8049 0.1704
vn -0.0811 0.9966 -0.0127
vn 0.0496 0.9985 -0.0250
vn 0.9356 -0.3525 0.0186
vn 0.8995 -0.1896 0.3937
vn 0.6513 -0.7135 0.2583
vn 0.4325 -0.8969 -0.0918
vn -0.4129 -0.9078 0.0734
vn -0.5175 -0.8494 -0.1033
vn 0.3625 -0.6945 -0.6215
vn -0.3180 -0.7479 -0.5828
vn 0.7295 0.4082 0.5488
vn 0.5092 0.8388 -0.1924
vn 0.9393 0.0470 0.3397
vn 0.6841 0.1823 -0.7062
vn 0.7551 -0.6525 0.0645
vn 0.5935 -0.5833 -0.5545
vn 0.6375 -0.7691 -0.0463
vn 0.5451 -0.7314 -0.4098
vn 0.0701 -0.7478 -0.6602
vn 0.1344 -0.6370 -0.7590
vn 0.3749 -0.6557 -0.6554
vn 0.3217 -0.4390 -0.8389
vn 0.0088 -0.5251 -0.8510
vn 0.5655 -0.4385 -0.6985
vn -0.2943 -0.7759 -0.5580
vn -0.3444 -0.5498 -0.7610
vn -0.3787 -0.3783 -0.8447
vn -0.0120 -0.3548 -0.9349
vn -0.0622 -0.1177 -0.9911
vn -0.3809 -0.1314 -0.9152
vn -0.0720 0.2058 -0.9759
vn -0.3927 0.1975 -0.8982
vn -0.4251 0.4550 -0.7825
vn -0.0381 0.4533 -0.8906
vn -0.0290 0.6278 -0.7778
vn -0.3892 0.6138 -0.6869
vn -0.3364 0.8278 -0.4490
vn 0.0255 0.8280 -0.5601
vn 0.0788 0.9123 -0.4020
vn -0.3034 0.9133 -0.2717
vn -0.2220 0.9742 -0.0410
vn 0.0919 0.9866 -0.1349
vn -0.1456 0.9519 0.2697
vn 0.1664 0.9699 0.1779
vn 0.2701 0.8726 0.4069
vn -0.1089 0.8558 0.5057
vn -0.0556 0.7479 0.6615
vn 0.2926 0.7774 0.5568
vn 0.3459 0.5475 0.7620
vn -0.0088 0.5251 0.8510
vn 0.0120 0.3548 0.9349
vn 0.3812 0.3760 0.8446
vn 0.3809 0.1314 0.9152
vn 0.0622 0.1177 0.9911
vn 0.0720 -0.2058 0.9759
vn 0.3927 -0.1975 0.8982
vn 0.0381 -0.4533 0.8906
vn 0.4061 -0.4480 0.7965
vn 0.3759 -0.6233 0.6857
vn 0.0290 -0.6278 0.7778
vn -0.0179 -0.8300 0.5575
vn 0.3427 -0.8203 0.4579
vn 0.4464 -0.7188 0.5331
vn -0.0928 -0.7431 0.6627
vn -0.1014 -0.1875 0.9770
vn 0.5001 -0.1603 0.8510
vn -0.0597 -0.0843 0.9946
vn 0.3885 -0.0079 0.9214
vn -0.1322 -0.2866 0.9489
vn 0.3306 -0.2233 0.9170
vn -0.2245 -0.2401 0.9444
vn 0.2529 -0.2569 0.9328
vn -0.2635 -0.0024 0.9647
vn 0.2676 -0.1627 0.9497
vn 0.0281 0.1729 0.9845
vn 0.5673 -0.1549 0.8088
vn 0.4569 0.2376 0.8572
vn 0.7618 -0.2161 0.6107
vn 0.7397 0.2436 0.6273
vn 0.8172 -0.2535 0.5176
vn 0.4973 -0.4232 0.7573
vn 0.4279 -0.4036 0.8087
vn 0.7804 -0.2449 0.5753
vn 0.2096 -0.3800 0.9009
vn 0.6788 -0.2996 0.6704
vn -0.0877 -0.3619 0.9281
vn -0.9811 -0.0286 0.1913
vn -0.2107 -0.2920 0.9329
vn -0.9647 -0.0295 0.2618
vn -0.2624 -0.2947 0.9189
vn -0.9442 -0.1013 0.3135
vn -0.1751 -0.6413 0.7471
vn -0.8720 -0.3349 0.3571
vn 0.0916 -0.9159 0.3907
vn -0.7331 -0.6295 0.2573
vn 0.2017 -0.9634 0.1765
vn -0.6887 -0.7085 -0.1539
vn 0.2177 -0.7913 -0.5713
vn 0.2672 -0.5952 -0.7578
vn -0.5624 0.0334 -0.8262
vn -0.9040 0.1970 -0.3793
vn 0.0919 -0.0271 -0.9954
vn -0.0227 0.5461 -0.8374
vn 0.6048 0.2197 -0.7654
vn -0.1244 0.8951 -0.4282
vn 0.8311 0.4449 -0.3337
vn 0.8796 -0.4736 -0.0457
vn 0.8067 -0.5660 0.1697
vn -0.9252 0.3668 -0.0978
vn -0.7510 0.1861 -0.6335
vn 0.2493 0.7047 -0.6642
vn 0.2553 0.2077 -0.9443
vn 0.9786 -0.0762 -0.1910
vn 0.9864 -0.0183 -0.1632
vn 0.6961 -0.5355 0.4781
vn 0.6501 -0.2363 0.7222
vn 0.6535 -0.1576 0.7403
vn 0.5672 0.5898 -0.5748
vn 0.9270 0.2882 0.2399
vn 0.9610 0.2727 -0.0463
vn 0.9859 -0.0385 0.1627
vn -0.8434 0.3643 -0.3949
vn 0.8088 0.5601 -0.1792
vn 0.9112 -0.1519 -0.3830
vn 0.9229 -0.2723 -0.2721
vn 0.7977 0.1298 0.5889
vn 0.8021 0.2944 0.5196
vn 0.6834 0.1160 0.7207
vn 0.9552 0.1106 -0.2745
vn -0.0419 0.0574 -0.9975
vn -0.0139 -0.5384 -0.8426
vn -0.8944 -0.3494 -0.2793
vn -0.9603 -0.0109 -0.2787
vn -0.1873 -0.4528 -0.8717
vn -0.9265 -0.2875 -0.2426
vn -0.7279 0.0683 0.6823
vn -0.8026 0.0594 0.5936
vn 0.0237 0.2563 0.9663
vn -0.0107 0.3543 0.9351
vn -0.8240 0.1101 0.5557
vn 0.0151 0.3897 0.9208
vn -0.8296 0.1055 0.5483
vn -0.0156 0.3204 0.9471
vn -0.8690 0.1748 0.4630
vn -0.2132 0.3613 0.9077
vn -0.8894 0.1914 0.4152
vn -0.4321 0.3395 0.8355
vn -0.8971 0.1134 0.4270
vn -0.5566 0.2839 0.7807
vn -0.8486 0.0335 0.5280
vn -0.4896 0.0921 0.8671
vn -0.6738 -0.1314 0.7271
vn -0.5543 -0.1846 0.8116
vn -0.5089 -0.2869 0.8116
vn -0.5922 -0.1050 0.7989
vn -0.6003 0.2433 0.7619
vn -0.9410 -0.1133 0.3190
vn -0.9107 0.0052 -0.4131
vn -0.9970 0.0601 -0.0491
vn -0.4654 0.1411 -0.8738
vn -0.4926 0.3273 -0.8063
vn -0.9813 0.1901 0.0298
vn -0.4796 0.4562 -0.7496
vn -0.8159 0.5760 -0.0511
vn -0.5837 0.0350 -0.8112
vn -0.9741 0.0620 -0.2173
vn -0.4119 -0.6896 -0.5957
vn -0.6992 -0.6963 -0.1620
vn -0.5937 -0.8014 -0.0726
vn -0.5788 -0.7170 -0.3884
vn -0.5298 -0.7983 0.2864
vn -0.5625 -0.7104 0.4230
vn -0.8031 -0.5956 0.0156
vn -0.7024 -0.6169 0.3550
vn -0.7996 -0.4441 0.4043
vn -0.9034 -0.4260 0.0486
vn -0.8002 -0.5105 -0.3147
vn -0.9160 -0.1976 -0.3492
vn -0.9607 -0.2251 -0.1624
vn -0.9311 0.1789 -0.3178
vn -0.9781 0.1728 -0.1163
vn -0.9163 0.3857 0.1079
vn -0.8302 0.5003 -0.2460
vn -0.8200 0.5634 0.1010
vn -0.6239 0.7804 0.0401
vn -0.6257 0.7236 -0.2915
vn -0.6759 0.5188 -0.5234
vn -0.5265 0.7553 0.3903
vn -0.7302 0.5242 0.4383
vn -0.3769 0.6525 0.6574
vn -0.5670 0.4381 0.6975
vn -0.8150 0.3527 0.4598
vn -0.6187 0.1329 0.7743
vn -0.7403 0.1530 0.6547
vn -0.7487 -0.2293 0.6220
vn -0.6185 -0.2267 0.7524
vn -0.3578 -0.2287 0.9054
vn -0.3697 0.1334 0.9195
vn -0.3013 -0.5394 0.7863
vn -0.5489 -0.5350 0.6423
vn -0.2033 0.1522 0.9672
vn -0.1779 -0.2332 0.9560
vn -0.8849 -0.2001 0.4207
vn -0.8896 0.1186 0.4411
vn -0.9750 -0.1906 0.1144
vn -0.9816 0.1333 0.1368
vn -0.3217 0.4390 0.8389
vn -0.4785 0.8780 -0.0148
vn -0.3660 0.8601 0.3553
vn -0.7701 0.2039 -0.6045
vn -0.7646 -0.1700 -0.6217
vn -0.6102 -0.1690 -0.7740
vn -0.6308 0.2319 -0.7405
vn -0.6423 -0.4959 -0.5845
vn -0.3455 -0.7404 0.5766
vn -0.6566 -0.0770 0.7503
vn 0.0827 0.0689 -0.9942
vn -0.8028 0.1882 0.5658
vn -0.0238 0.4544 -0.8905
vn -0.0095 0.3060 -0.9520
vn -0.5035 0.3137 -0.8050
vn -0.1138 0.8108 -0.5741
vn 0.0451 0.1780 -0.9830
vn 0.6530 0.1576 -0.7408
vn 0.3654 -0.5549 -0.7474
vn -0.7913 -0.4979 0.3549
vn -0.7259 0.6872 0.0284
vn 0.7021 0.6452 0.3014
vn 0.9479 -0.1309 0.2904
vn 0.9407 0.0497 -0.3355
vn 0.8862 -0.2397 0.3964
vn 0.9730 -0.0095 -0.2308
vn 0.8595 -0.3273 0.3927
vn 0.9648 -0.0699 -0.2536
vn 0.8197 -0.2478 0.5164
vn 0.9780 0.0484 -0.2030
vn 0.7720 -0.1777 0.6103
vn 0.9830 0.1222 -0.1372
vn 0.6963 -0.1881 0.6926
vn 0.9889 0.0925 -0.1164
vn 0.1129 0.3953 -0.9116
vn 0.2242 0.3411 -0.9129
vn -0.9230 0.0499 -0.3815
vn -0.7864 0.1109 -0.6077
vn 0.4590 0.2597 -0.8496
vn -0.5391 0.1088 -0.8352
vn 0.5820 0.1511 -0.7990
vn -0.2179 0.0808 -0.9726
vn 0.6432 0.1809 -0.7440
vn 0.0235 0.0896 -0.9957
vn -0.6738 -0.1780 -0.7171
vn -0.5490 -0.1837 -0.8154
vn -0.7035 -0.2395 -0.6691
vn -0.7379 -0.2724 -0.6175
vn -0.4460 -0.0862 -0.8909
vn -0.7743 -0.1456 -0.6158
vn -0.9898 -0.0970 -0.1045
vn -0.9718 -0.1505 -0.1813
vn -0.5901 -0.3457 -0.7295
vn -0.7328 -0.2350 -0.6385
vn -0.4613 -0.4542 -0.7622
vn -0.7119 -0.3527 -0.6073
vn -0.9689 -0.1287 -0.2114
vn -0.9529 -0.2272 -0.2008
vn -0.9685 -0.0725 -0.2383
vn -0.5973 -0.4912 -0.6340
vn 0.6069 0.1762 -0.7750
vn 0.5270 -0.3174 0.7884
vn 0.6107 -0.2367 0.7557
vn 0.8019 0.4606 0.3805
vn 0.1009 0.1324 0.9861
vn -0.6405 0.0451 0.7667
vn 0.1418 -0.1776 0.9738
vn -0.7276 -0.1738 0.6636
vn 0.1780 -0.3929 0.9022
vn -0.5985 -0.5703 0.5627
vn 0.3473 -0.7903 0.5048
vn -0.6817 -0.3934 -0.6169
vn -0.8631 -0.3840 0.3280
vn 0.4164 -0.8835 0.2145
vn -0.4041 -0.6597 -0.6336
vn 0.3933 -0.6718 -0.6277
vn 0.3234 -0.1118 -0.9396
vn 0.8605 -0.2611 -0.4374
vn 0.2139 0.3007 -0.9294
vn -0.5220 0.2183 -0.8246
vn 0.9478 0.1087 -0.2998
vn 0.8227 -0.2125 0.5272
vn -0.9191 -0.0205 -0.3936
vn -0.8414 0.1564 -0.5174
vn 0.7540 0.0242 0.6564
vn -0.5631 -0.5824 -0.5863
vn 0.8775 0.2218 0.4253
vn 0.6799 0.0570 0.7311
vn 0.6905 -0.3038 0.6564
vn 0.6174 -0.2135 0.7572
vn 0.7674 -0.1973 0.6100
vn 0.6778 -0.5212 0.5186
vn 0.6148 0.1896 0.7656
vn 0.7561 0.1829 0.6284
vn 0.9194 0.1909 0.3438
vn 0.9281 -0.1866 0.3223
vn 0.6419 0.4946 0.5860
vn 0.7991 0.5113 0.3164
vn 0.5788 0.7169 0.3885
vn 0.9721 -0.1929 0.1331
vn 0.9679 0.2068 0.1426
vn 0.9750 0.1906 -0.1144
vn 0.9816 -0.1333 -0.1368
vn 0.8982 0.4366 -0.0503
vn 0.8024 0.4346 -0.4091
vn 0.8849 0.2001 -0.4207
vn 0.7919 0.6104 -0.0190
vn 0.7094 0.6028 -0.3652
vn 0.5817 0.8102 0.0719
vn 0.4881 0.8251 -0.2845
vn 0.4276 0.8932 0.1394
vn 0.3176 0.9184 -0.2358
vn 0.5503 0.5347 -0.6413
vn 0.6138 0.2335 -0.7541
vn 0.7343 0.2479 -0.6319
vn 0.7540 -0.1353 -0.6428
vn 0.6232 -0.1263 -0.7718
vn 0.3697 -0.1334 -0.9195
vn 0.3578 0.2287 -0.9054
vn 0.1779 0.2332 -0.9560
vn 0.2033 -0.1522 -0.9672
vn 0.8896 -0.1186 -0.4411
vn 0.8126 -0.3627 -0.4562
vn 0.9208 -0.3757 -0.1049
vn 0.7242 -0.5383 -0.4310
vn 0.8317 -0.5470 -0.0956
vn 0.8317 -0.4981 0.2453
vn 0.6286 -0.7196 0.2952
vn 0.3448 0.7439 -0.5724
vn 0.3013 0.5394 -0.7863
vn -0.0497 -0.4936 0.8683
vn 0.2149 -0.9602 0.1785
vn 0.9998 0.0105 -0.0144
vn -0.9732 -0.0925 0.2106
vn -0.4064 0.4311 0.8056
vn 0.8199 -0.3800 -0.4281
vn -0.6972 0.7163 -0.0288
vn -0.9972 -0.0733 -0.0175
vn -0.3079 -0.4485 -0.8391
vn -0.9390 -0.2294 -0.2562
vn 0.7273 -0.2997 0.6175
vn 0.0562 0.1168 -0.9916
vn 0.9891 0.0734 -0.1280
vn 0.1893 0.3916 -0.9005
vn -0.7949 0.3498 -0.4957
vn 0.8402 0.5085 -0.1887
vn -0.2309 0.9717 0.0502
vn -0.9454 0.3229 0.0432
vn 0.9116 0.3669 -0.1854
vn 0.1571 0.5083 -0.8467
vn -0.8631 0.2187 -0.4553
s 1
f 4//4 3//3 2//2 1//1
f 2//2 3//3 6//6 5//5
f 5//5 6//6 8//8 7//7
f 8//8 10//10 9//9 7//7
f 13//13 12//12 11//11 9//9
f 10//10 13//13 9//9
f 11//11 12//12 14//14
f 16//16 11//11 14//14 15//15
f 18//18 16//16 15//15 17//17
f 15//15 20//20 19//19 17//17
f 21//21 18//18 17//17
f 23//23 18//18 21//21 22//22
f 24//24 23//23 22//22
f 26//26 23//23 24//24 25//25
f 28//28 27//27 26//26 25//25
f 30//30 29//29 27//27 28//28
f 29//29 32//32 31//31 27//27
f 34//34 32//32 29//29 33//33
f 36//36 30//30 28//28 35//35
f 38//38 37//37 30//30 36//36
f 39//39 38//38 36//36
f 37//37 38//38 40//40 22//22
f 40//40 38//38 42//42 41//41
f 41//41 42//42 44//44 43//43
f 43//43 44//44 46//46 45//45
f 44//44 48//48 47//47 46//46
f 50//50 49//49 43//43 45//45
f 52//52 49//49 50//50 51//51
f 54//54 52//52 51//51 53//53
f 56//56 55//55 52//52 54//54
f 45//45 46//46 58//58 57//57
f 58//58 60//60 59//59 57//57
f 60//60 62//62 61//61 59//59
f 61//61 62//62 64//64 63//63
f 64//64 62//62 66//66 65//65
f 67//67 64//64 65//65
f 69//69 68//68 67//67 65//65
f 68//68 70//70 67//67
f 72//72 69//69 65//65 71//71
f 74//74 69//69 72//72 73//73
f 76//76 75//75 74//74 73//73
f 78//78 77//77 75//75 76//76
f 80//80 77//77 78//78 79//79
f 82//82 81//81 80//80 79//79
f 84//84 81//81 82//82 83//83
f 86//86 85//85 84//84 83//83
f 88//88 85//85 86//86 87//87
f 90//90 88//88 87//87 89//89
f 92//92 91//91 90//90 89//89
f 94//94 91//91 92//92 93//93
f 96//96 95//95 94//94 93//93
f 98//98 95//95 96//96 97//97
f 100//100 99//99 98//98 97//97
f 102//102 99//99 100//100 101//101
f 104//104 102//102 101//101 103//103
f 106//106 105//105 104//104 103//103
f 108//108 105//105 106//106 107//107
f 110//110 109//109 108//108 107//107
f 112//112 109//109 110//110 111//111
f 114//114 112//112 111//111 113//113
f 116//116 114//114 113//113 115//115
f 118//118 116//116 115//115 117//117
f 120//120 118//118 117//117 119//119
f 122//122 120//120 119//119 121//121
f 124//124 122//122 121//121 123//123
f 126//126 124//124 123//123 125//125
f 128//128 127//127 124//124 126//126
f 130//130 128//128 126//126 129//129
f 132//132 130//130 129//129 131//131
f 133//133 132//132 131//131
f 132//132 133//133 135//135 134//134
f 134//134 135//135 137//137 136//136
f 136//136 137//137 139//139 138//138
f 138//138 139//139 141//141 140//140
f 140//140 141//141 143//143 142//142
f 142//142 143//143 144//144
f 147//147 146//146 145//145 144//144
f 143//143 147//147 144//144
f 145//145 146//146 148//148
f 146//146 149//149 148//148
f 150//150 145//145 148//148
f 146//146 147//147 151//151 149//149
f 151//151 152//152 150//150 149//149
f 150//150 152//152 153//153 144//144
f 145//145 150//150 144//144
f 153//153 154//154 140//140 142//142
f 137//137 156//156 155//155 139//139
f 155//155 156//156 158//158 157//157
f 158//158 160//160 159//159 157//157
f 159//159 160//160 162//162 161//161
f 162//162 163//163 134//134 136//136
f 164//164 133//133 131//131
f 166//166 164//164 131//131 165//165
f 168//168 164//164 166//166 167//167
f 169//169 168//168 167//167
f 169//169 167//167 170//170
f 173//173 172//172 171//171 170//170
f 167//167 173//173 170//170
f 175//175 171//171 172//172 174//174
f 177//177 171//171 175//175 176//176
f 179//179 178//178 177//177 176//176
f 178//178 181//181 180//180 177//177
f 183//183 181//181 178//178 182//182
f 185//185 183//183 182//182 184//184
f 187//187 186//186 183//183 185//185
f 189//189 188//188 186//186 187//187
f 191//191 190//190 188//188 189//189
f 193//193 192//192 190//190 191//191
f 195//195 194//194 192//192 193//193
f 197//197 196//196 194//194 195//195
f 199//199 198//198 196//196 197//197
f 205//205 207//207 206//206 204//204
f 209//209 207//207 205//205 208//208
f 210//210 209//209 208//208
f 210//210 212//212 211//211 209//209
f 212//212 214//214 213//213 211//211
f 71//71 213//213 214//214 215//215
f 216//216 71//71 215//215
f 215//215 214//214 218//218 217//217
f 220//220 219//219 215//215 217//217
f 222//222 219//219 220//220 221//221
f 224//224 223//223 219//219 222//222
f 225//225 224//224 222//222
f 227//227 226//226 224//224 225//225
f 229//229 226//226 227//227 228//228
f 230//230 229//229 228//228
f 232//232 229//229 230//230 231//231
f 233//233 229//229 232//232
f 231//231 230//230 235//235 234//234
f 234//234 235//235 237//237 236//236
f 239//239 237//237 235//235 238//238
f 240//240 239//239 238//238
f 242//242 239//239 240//240 241//241
f 244//244 239//239 242//242 243//243
f 243//243 242//242 246//246 245//245
f 248//248 247//247 244//244 243//243
f 240//240 250//250 249//249 241//241
f 241//241 249//249 221//221
f 250//250 252//252 251//251 249//249
f 228//228 252//252 250//250 238//238
f 250//250 240//240 238//238
f 237//237 253//253 236//236
f 255//255 254//254 231//231 234//234
f 226//226 229//229 233//233 256//256
f 235//235 230//230 228//228 238//238
f 224//224 226//226 256//256 257//257
f 256//256 259//259 258//258 257//257
f 251//251 252//252 227//227 225//225
f 223//223 224//224 257//257 260//260
f 223//223 260//260 216//216
f 251//251 225//225 222//222
f 246//246 242//242 241//241 221//221
f 220//220 246//246 221//221
f 249//249 251//251 222//222 221//221
f 246//246 220//220 217//217 261//261
f 218//218 214//214 212//212 262//262
f 213//213 66//66 263//263 211//211
f 212//212 210//210 264//264 202//202
f 262//262 212//212 202//202
f 211//211 263//263 265//265 209//209
f 209//209 265//265 266//266 207//207
f 265//265 268//268 267//267 266//266
f 266//266 267//267 270//270 269//269
f 273//273 272//272 271//271 270//270
f 267//267 273//273 270//270
f 274//274 271//271 272//272 53//53
f 276//276 271//271 274//274 275//275
f 278//278 276//276 275//275 277//277
f 280//280 278//278 277//277 279//279
f 282//282 280//280 279//279 281//281
f 284//284 282//282 281//281 283//283
f 286//286 284//284 283//283 285//285
f 288//288 284//284 286//286 287//287
f 290//290 288//288 287//287 289//289
f 292//292 291//291 288//288 290//290
f 294//294 293//293 291//291 292//292
f 296//296 295//295 293//293 294//294
f 298//298 296//296 294//294 297//297
f 300//300 298//298 297//297 299//299
f 302//302 301//301 298//298 300//300
f 304//304 303//303 302//302 300//300
f 299//299 297//297 306//306 305//305
f 305//305 306//306 308//308 307//307
f 310//310 309//309 305//305 307//307
f 311//311 304//304 300//300 299//299
f 297//297 294//294 292//292 306//306
f 306//306 292//292 290//290 308//308
f 308//308 290//290 289//289 312//312
f 291//291 282//282 284//284 288//288
f 293//293 280//280 282//282 291//291
f 313//313 276//276 278//278 295//295
f 277//277 275//275 315//315 314//314
f 268//268 47//47 273//273 267//267
f 204//204 206//206 301//301 302//302
f 207//207 266//266 269//269 206//206
f 198//198 203//203 303//303 196//196
f 196//196 303//303 304//304 194//194
f 194//194 304//304 311//311 192//192
f 192//192 311//311 309//309 190//190
f 190//190 309//309 310//310 188//188
f 173//173 316//316 187//187 185//185
f 184//184 182//182 318//318 317//317
f 317//317 318//318 320//320 319//319
f 319//319 320//320 322//322 321//321
f 321//321 322//322 323//323
f 323//323 322//322 325//325 324//324
f 327//327 326//326 323//323 324//324
f 326//326 327//327 328//328
f 327//327 329//329 328//328
f 330//330 326//326 328//328
f 331//331 329//329 327//327 324//324
f 332//332 331//331 324//324
f 331//331 333//333 330//330 329//329
f 330//330 333//333 334//334 323//323
f 326//326 330//330 323//323
f 325//325 335//335 324//324
f 335//335 325//325 336//336
f 332//332 335//335 336//336
f 334//334 337//337 319//319 321//321
f 182//182 178//178 179//179 318//318
f 338//338 170//170 171//171 177//177
f 180//180 338//338 177//177
f 289//289 168//168 169//169 338//338
f 312//312 289//289 338//338
f 131//131 129//129 339//339 165//165
f 283//283 281//281 128//128 130//130
f 281//281 279//279 127//127 128//128
f 125//125 123//123 193//193 191//191
f 314//314 315//315 120//120 122//122
f 121//121 119//119 197//197 195//195
f 341//341 340//340 114//114 116//116
f 115//115 113//113 201//201 200//200
f 113//113 111//111 262//262 202//202
f 110//110 218//218 262//262 111//111
f 218//218 110//110 107//107 261//261
f 217//217 218//218 261//261
f 107//107 106//106 245//245 261//261
f 344//344 343//343 342//342 104//104
f 105//105 344//344 104//104
f 346//346 345//345 342//342 343//343
f 348//348 347//347 346//346 343//343
f 347//347 350//350 349//349 346//346
f 349//349 350//350 351//351
f 353//353 347//347 348//348 352//352
f 355//355 354//354 353//353 352//352
f 353//353 354//354 356//356
f 354//354 358//358 357//357 356//356
f 357//357 360//360 359//359 356//356
f 359//359 360//360 362//362 361//361
f 362//362 364//364 363//363 361//361
f 366//366 365//365 360//360 357//357
f 367//367 366//366 357//357
f 369//369 366//366 367//367 368//368
f 371//371 366//366 369//369 370//370
f 373//373 372//372 371//371 370//370
f 367//367 358//358 374//374 368//368
f 368//368 374//374 375//375
f 375//375 374//374 355//355 376//376
f 378//378 377//377 375//375 376//376
f 355//355 352//352 376//376
f 374//374 358//358 354//354 355//355
f 379//379 348//348 343//343 344//344
f 379//379 344//344 380//380
f 63//63 378//378 379//379 380//380
f 103//103 248//248 243//243 245//245
f 106//106 103//103 245//245
f 342//342 102//102 104//104
f 101//101 248//248 103//103
f 342//342 345//345 99//99 102//102
f 100//100 247//247 248//248 101//101
f 247//247 100//100 97//97
f 346//346 349//349 95//95 98//98
f 345//345 346//346 98//98
f 97//97 96//96 253//253 244//244
f 247//247 97//97 244//244
f 95//95 349//349 351//351 94//94
f 253//253 96//96 93//93 236//236
f 91//91 363//363 90//90
f 255//255 92//92 89//89
f 363//363 364//364 88//88 90//90
f 87//87 254//254 255//255 89//89
f 86//86 254//254 87//87
f 364//364 362//362 381//381 84//84
f 85//85 364//364 84//84
f 382//382 371//371 372//372 80//80
f 81//81 382//382 80//80
f 78//78 259//259 79//79
f 77//77 372//372 373//373 75//75
f 258//258 259//259 78//78 76//76
f 75//75 373//373 74//74
f 258//258 76//76 73//73
f 260//260 72//72 71//71 216//216
f 67//67 70//70 377//377 64//64
f 65//65 66//66 213//213 71//71
f 61//61 63//63 380//380 108//108
f 109//109 61//61 108//108
f 64//64 377//377 378//378 63//63
f 66//66 62//62 60//60 263//263
f 59//59 61//61 109//109 112//112
f 60//60 58//58 268//268 265//265
f 263//263 60//60 265//265
f 57//57 59//59 112//112 114//114
f 340//340 57//57 114//114
f 35//35 28//28 25//25 56//56
f 25//25 24//24 55//55 56//56
f 19//19 33//33 37//37 22//22
f 21//21 19//19 22//22
f 10//10 383//383 13//13
f 383//383 10//10 8//8
f 6//6 384//384 383//383 8//8
f 3//3 384//384 6//6
f 32//32 2//2 5//5 31//31
f 12//12 13//13 4//4 1//1
f 385//385 12//12 1//1
f 384//384 3//3 4//4
f 12//12 385//385 14//14
f 383//383 384//384 4//4 13//13
f 20//20 385//385 1//1 34//34
f 1//1 2//2 32//32 34//34
f 14//14 385//385 20//20 15//15
f 31//31 5//5 7//7 386//386
f 9//9 11//11 16//16 387//387
f 7//7 9//9 387//387 386//386
f 19//19 20//20 34//34 33//33
f 33//33 29//29 30//30 37//37
f 19//19 21//21 17//17
f 27//27 31//31 386//386 26//26
f 387//387 16//16 18//18 23//23
f 386//386 387//387 23//23 26//26
f 38//38 39//39 42//42
f 388//388 40//40 41//41
f 22//22 40//40 388//388 55//55
f 24//24 22//22 55//55
f 48//48 39//39 36//36 389//389
f 42//42 39//39 48//48 44//44
f 389//389 36//36 35//35 390//390
f 49//49 388//388 41//41 43//43
f 55//55 388//388 49//49 52//52
f 390//390 35//35 56//56 54//54
f 47//47 48//48 389//389 273//273
f 46//46 47//47 268//268 58//58
f 273//273 389//389 390//390 272//272
f 340//340 50//50 45//45 57//57
f 51//51 50//50 340//340 341//341
f 272//272 390//390 54//54 53//53
f 365//365 382//382 381//381
f 382//382 365//365 366//366 371//371
f 370//370 369//369 70//70 68//68
f 360//360 365//365 381//381 362//362
f 358//358 367//367 357//357
f 70//70 369//369 368//368 375//375
f 377//377 70//70 375//375
f 350//350 359//359 361//361 351//351
f 350//350 347//347 353//353 356//356
f 359//359 350//350 356//356
f 348//348 379//379 378//378 376//376
f 352//352 348//348 376//376
f 381//381 382//382 81//81 84//84
f 372//372 77//77 80//80
f 370//370 68//68 69//69 74//74
f 373//373 370//370 74//74
f 364//364 85//85 88//88
f 361//361 363//363 91//91 94//94
f 351//351 361//361 94//94
f 99//99 345//345 98//98
f 380//380 344//344 105//105 108//108
f 83//83 82//82 233//233 232//232
f 82//82 79//79 259//259 256//256
f 233//233 82//82 256//256
f 258//258 73//73 72//72 260//260
f 257//257 258//258 260//260
f 86//86 83//83 232//232 231//231
f 254//254 86//86 231//231
f 227//227 252//252 228//228
f 219//219 223//223 216//216 215//215
f 92//92 255//255 234//234 236//236
f 93//93 92//92 236//236
f 253//253 237//237 239//239 244//244
f 245//245 246//246 261//261
f 338//338 169//169 170//170
f 129//129 126//126 125//125 339//339
f 316//316 166//166 165//165
f 166//166 316//316 173//173 167//167
f 307//307 308//308 312//312 391//391
f 391//391 312//312 338//338 180//180
f 339//339 125//125 191//191 189//189
f 165//165 339//339 189//189 187//187
f 316//316 165//165 187//187
f 172//172 173//173 185//185 184//184
f 392//392 310//310 307//307 391//391
f 181//181 392//392 391//391 180//180
f 188//188 310//310 392//392 186//186
f 186//186 392//392 181//181 183//183
f 270//270 271//271 276//276 313//313
f 295//295 278//278 280//280 293//293
f 53//53 51//51 341//341 393//393
f 274//274 53//53 393//393
f 275//275 274//274 393//393 315//315
f 279//279 277//277 314//314 127//127
f 269//269 270//270 313//313 394//394
f 394//394 313//313 295//295 296//296
f 393//393 341//341 116//116 118//118
f 315//315 393//393 118//118 120//120
f 127//127 314//314 122//122 124//124
f 206//206 269//269 394//394 301//301
f 301//301 394//394 296//296 298//298
f 303//303 203//203 204//204 302//302
f 309//309 311//311 299//299 305//305
f 117//117 115//115 200//200 199//199
f 119//119 117//117 199//199 197//197
f 123//123 121//121 195//195 193//193
f 395//395 286//286 285//285 163//163
f 160//160 395//395 163//163 162//162
f 287//287 286//286 395//395 396//396
f 396//396 395//395 160//160 158//158
f 285//285 283//283 130//130 132//132
f 163//163 285//285 132//132 134//134
f 287//287 396//396 397//397 168//168
f 289//289 287//287 168//168
f 156//156 397//397 396//396 158//158
f 135//135 133//133 164//164 168//168
f 397//397 135//135 168//168
f 135//135 397//397 156//156 137//137
f 398//398 159//159 161//161 154//154
f 152//152 398//398 154//154 153//153
f 157//157 159//159 398//398 399//399
f 399//399 398//398 152//152 151//151
f 149//149 150//150 148//148
f 161//161 162//162 136//136 138//138
f 154//154 161//161 138//138 140//140
f 153//153 142//142 144//144
f 400//400 155//155 157//157 399//399
f 147//147 400//400 399//399 151//151
f 139//139 155//155 400//400 141//141
f 141//141 400//400 147//147 143//143
f 401//401 175//175 174//174 337//337
f 333//333 401//401 337//337 334//334
f 176//176 175//175 401//401 402//402
f 402//402 401//401 333//333 331//331
f 329//329 330//330 328//328
f 174//174 172//172 184//184 317//317
f 337//337 174//174 317//317 319//319
f 334//334 321//321 323//323
f 402//402 331//331 332//332 336//336
f 403//403 402//402 336//336
f 403//403 179//179 176//176 402//402
f 335//335 332//332 324//324
f 318//318 179//179 403//403 320//320
f 322//322 320//320 403//403 336//336
f 325//325 322//322 336//336
f 264//264 201//201 113//113 202//202
f 199//199 200//200 201//201 264//264 210//210 208//208 205//205 204//204 203//203 198//198
