# Blender 5.0.0
# www.blender.org
mtllib Walk_Forward0014.mtl
o Mball.001
v -0.473615 4.436184 -0.235016
v -0.746488 4.252580 -0.033362
v -0.639676 4.494983 0.345274
v -1.033975 4.513283 0.038241
v -0.685272 5.053756 0.339813
v -1.095161 4.702699 0.000567
v -0.668866 5.141496 0.315048
v -1.257351 4.451321 -0.339893
v -1.187547 4.291280 -0.317603
v -1.396924 4.311220 -0.665831
v -1.338696 4.188586 -0.645414
v -1.366182 4.736885 -0.874475
v -1.184349 4.900547 -0.517115
v -1.333242 4.769291 -0.895727
v -1.159772 4.926968 -0.535516
v -1.017524 4.780213 -1.072332
v -0.825280 4.986082 -0.690509
v -0.784663 4.563665 -1.084237
v -0.607516 4.767318 -0.709701
v -0.493833 4.903395 -0.399531
v -0.680691 5.104667 -0.381069
v -0.487351 5.082914 -0.161477
v -0.547507 5.257231 -0.038053
v -0.549154 5.262776 -0.028912
v -0.874992 5.175408 -0.118711
v -1.138614 4.082340 -1.281426
v -1.300305 4.109276 -1.310262
v -0.954858 4.223420 -1.043353
v -0.740997 4.182475 -0.916502
v -1.126127 4.072692 -1.011094
v -1.009531 4.000914 -0.717648
v -1.404198 4.191183 -0.979793
v -1.398226 4.254975 -0.824168
v -1.487057 4.326439 -1.199767
v -1.391617 4.663049 -1.009158
v -1.464614 4.259491 -0.743632
v -1.472870 4.259586 -0.745351
v -1.633194 4.141970 -1.054122
v -1.684639 4.036146 -0.956308
v -1.792909 3.741627 -0.692829
v -1.563144 3.980388 -0.452123
v -1.898254 3.454630 -0.440099
v -1.673072 3.670350 -0.217410
v -1.904630 3.378072 -0.497339
v -1.794385 3.688511 -0.731669
v -1.982688 3.153372 -0.191483
v -1.802926 3.335161 -0.006786
v -1.646981 3.357887 0.055854
v -1.599499 3.684346 -0.185491
v -1.468932 3.114319 0.099788
v -1.744732 2.672360 -0.032236
v -1.981441 3.070853 -0.138927
v -1.340827 3.149096 -0.004388
v -1.452286 2.791647 -0.295849
v -1.785629 2.772880 -0.408191
v -1.344510 3.076987 -0.549058
v -1.690085 3.064762 -0.660292
v -1.989676 3.099440 -0.232547
v -1.406754 3.251103 0.049829
v -1.288365 3.571821 -0.174655
v -1.195981 3.409154 -0.264890
v -1.177089 3.883561 -0.407739
v -1.079048 3.688248 -0.519900
v -1.522686 3.990801 -0.432606
v -1.090759 4.151382 -0.703610
v -0.973256 3.964531 -0.803774
v -1.468757 3.686697 -1.127938
v -1.683890 4.005990 -0.974491
v -1.170226 3.675808 -1.047354
v -0.996704 5.079704 -0.216011
v -0.988861 5.087361 -0.221603
v -0.571494 4.287142 -0.571846
v -0.862439 4.074519 -0.385826
v -1.578195 3.377276 -0.892634
v -1.256396 3.375734 -0.798397
v -1.002319 4.437024 0.200979
v -0.441423 4.487271 0.067330
v -0.393962 4.833972 -0.168201
vn 0.1820 -0.5287 0.8291
vn 0.1183 0.0883 0.9890
vn -0.6699 -0.3200 0.6700
vn 0.2123 -0.6592 0.7214
vn 0.0925 0.6558 0.7492
vn -0.8169 0.1831 0.5469
vn -0.6454 -0.5584 0.5212
vn -0.9041 -0.0052 0.4274
vn -0.6959 -0.6476 0.3104
vn -0.9568 -0.0963 0.2742
vn -0.8432 0.5084 0.1746
vn -0.8973 0.4382 0.0534
vn -0.5105 0.8484 -0.1401
vn -0.5030 0.7746 -0.3834
vn 0.1752 0.8615 -0.4765
vn 0.0674 0.6690 -0.7402
vn 0.8150 0.3095 -0.4898
vn 0.6478 0.1597 -0.7449
vn 0.2296 0.8532 -0.4683
vn 0.8100 0.4042 -0.4249
vn 0.8128 0.5775 -0.0768
vn -0.3926 0.8928 0.2206
vn 0.3007 0.9129 0.2760
vn 0.6123 0.7850 -0.0945
vn -0.1706 -0.0302 -0.9849
vn 0.4746 -0.2071 -0.8555
vn 0.7123 -0.5678 -0.4127
vn 0.7352 -0.4300 -0.5240
vn 0.0046 -1.0000 0.0061
vn 0.5949 -0.2773 -0.7545
vn -0.9186 -0.3670 0.1464
vn -0.3718 0.9190 0.1313
vn -0.2585 0.3365 -0.9055
vn -0.7075 0.4190 -0.5691
vn -0.8749 0.3227 -0.3612
vn -0.6762 0.6741 0.2974
vn -0.0976 0.9324 0.3481
vn -0.9268 0.3748 -0.0243
vn -0.6264 0.6283 0.4614
vn -0.9295 0.3674 0.0336
vn -0.6262 0.5858 0.5146
vn -0.9273 0.3663 0.0769
vn -0.9021 -0.0114 -0.4314
vn -0.9195 -0.0193 -0.3926
vn -0.6038 0.2526 0.7560
vn -0.9391 0.2746 0.2067
vn -0.1282 0.6146 0.7783
vn -0.1825 0.3375 0.9235
vn -0.8684 -0.1774 0.4631
vn -0.2178 -0.8279 0.5168
vn 0.2554 -0.2106 0.9436
vn 0.6166 -0.7771 -0.1263
vn 0.8360 -0.2567 0.4850
vn -0.4164 -0.7532 -0.5092
vn -0.3283 -0.5380 -0.7763
vn 0.6765 -0.6110 -0.4112
vn -0.9663 -0.1733 -0.1902
vn 0.4812 0.2650 0.8356
vn 0.9446 -0.1423 0.2957
vn 0.5390 0.3785 0.7525
vn 0.9648 -0.1310 0.2281
vn 0.5464 0.4636 0.6975
vn -0.1289 0.6995 0.7029
vn 0.9932 0.0873 0.0769
vn 0.4730 0.7963 0.3771
vn -0.3053 -0.4279 -0.8507
vn -0.8741 -0.0088 -0.4856
vn 0.6027 -0.5408 -0.5867
vn -0.5174 0.8461 -0.1281
vn -0.7376 0.5771 0.3506
vn 0.9192 -0.2089 0.3338
vn 0.8617 -0.4800 -0.1644
vn 0.1231 -0.9396 0.3194
vn -0.3204 -0.5040 -0.8021
vn 0.6387 -0.6031 -0.4779
vn 0.6256 0.1838 0.7582
vn 0.7261 -0.2561 0.6382
vn 0.7772 -0.6145 0.1359
vn 0.9492 0.2293 0.2155
vn 0.2601 -0.9425 -0.2099
vn -0.9583 0.1512 0.2423
s 1
f 3//1 5//2 4//3 2//4
f 4//3 5//2 7//5 6//6
f 9//7 4//3 6//6 8//8
f 11//9 9//7 8//8 10//10
f 8//8 13//11 12//12 10//10
f 13//11 15//13 14//14 12//12
f 14//14 15//13 17//15 16//16
f 16//16 17//15 19//17 18//18
f 17//15 21//19 20//20 19//17
f 21//19 22//21 20//20
f 25//22 24//23 23//24
f 27//25 16//16 18//18 26//26
f 26//26 18//18 29//27 28//28
f 29//27 31//29 30//30 28//28
f 31//29 11//9 33//31 32//32
f 30//30 31//29 32//32
f 33//31 35//33 34//34 32//32
f 34//34 38//35 37//36 36//37
f 32//32 34//34 36//37
f 37//36 38//35 39//38
f 41//39 37//36 39//38 40//40
f 43//41 41//39 40//40 42//42
f 40//40 45//43 44//44 42//42
f 47//45 43//41 42//42 46//46
f 49//47 43//41 47//45 48//48
f 52//49 51//50 50//51 48//48
f 47//45 52//49 48//48
f 50//51 51//50 54//52 53//53
f 51//50 55//54 54//52
f 55//54 57//55 56//56 54//52
f 58//57 44//44 57//55 55//54
f 59//58 50//51 53//53
f 61//59 60//60 59//58 53//53
f 63//61 62//62 60//60 61//59
f 60//60 62//62 64//63 49//47
f 66//64 65//65 62//62 63//61
f 54//52 56//56 61//59 53//53
f 50//51 59//58 48//48
f 52//49 47//45 46//46
f 58//57 52//49 46//46
f 38//35 34//34 27//25 67//66
f 68//67 38//35 67//66
f 28//28 30//30 65//65 66//64
f 69//68 26//26 28//28 66//64
f 67//66 27//25 26//26 69//68
f 33//31 11//9 10//10
f 25//22 71//69 70//70
f 25//22 23//24 22//21 21//19
f 71//69 25//22 21//19
f 24//23 25//22 70//70 6//6
f 7//5 24//23 6//6
f 15//13 71//69 21//19 17//15
f 6//6 70//70 13//11 8//8
f 19//17 20//20 1//71 72//72
f 2//4 4//3 9//7 73//73
f 1//71 2//4 73//73 72//72
f 14//14 35//33 12//12
f 14//14 16//16 27//25 34//34
f 35//33 14//14 34//34
f 12//12 35//33 33//31 10//10
f 18//18 19//17 72//72 29//27
f 73//73 9//7 11//9 31//29
f 72//72 73//73 31//29 29//27
f 38//35 68//67 39//38
f 65//65 30//30 32//32 36//37
f 45//43 68//67 67//66 74//74
f 39//38 68//67 45//43 40//40
f 74//74 67//66 69//68 75//75
f 36//37 37//36 41//39 64//63
f 62//62 65//65 36//37 64//63
f 75//75 69//68 66//64 63//61
f 44//44 45//43 74//74 57//55
f 42//42 44//44 58//57 46//46
f 51//50 52//49 58//57 55//54
f 57//55 74//74 75//75 56//56
f 64//63 41//39 43//41 49//47
f 59//58 60//60 49//47 48//48
f 56//56 75//75 63//61 61//59
f 70//70 71//69 15//13 13//11
f 1//71 20//76 76//77 2//4
f 5//2 3//1 77//78 78//79 22//21 23//24 24//23 7//5
f 77//78 3//1 2//4 76//77 1//80
f 22//21 78//79 20//20
s 0
f 1//81 77//81 78//81 20//81
