# Blender 5.0.0
# www.blender.org
mtllib Walk_Forward0018.mtl
o Mball.001
v -0.622280 4.234138 0.106507
v -0.648479 4.254914 0.481336
v -0.465792 4.545959 0.563878
v -0.876931 4.564356 0.601558
v -0.590653 5.036328 0.521559
v -0.983241 4.718827 0.544773
v -0.593577 5.115259 0.489896
v -1.264621 4.323767 0.524138
v -1.158718 4.196076 0.561282
v -1.553679 4.005239 0.468247
v -1.467028 3.908974 0.497320
v -1.770683 4.206506 0.149815
v -1.437212 4.557396 0.202351
v -1.768919 4.212468 0.106856
v -1.437542 4.562141 0.167387
v -1.649298 4.046830 -0.178285
v -1.304881 4.447083 -0.133736
v -1.425204 3.821147 -0.220233
v -1.101097 4.218378 -0.180177
v -0.833138 4.541027 -0.144762
v -1.004459 4.755016 -0.096945
v -0.637378 4.964560 -0.080858
v -0.607947 5.218239 0.103831
v -0.606381 5.224658 0.114025
v -0.960671 5.064317 0.170354
v -1.734433 3.343613 0.046432
v -1.895301 3.378694 0.071216
v -1.443317 3.583201 0.100094
v -1.184243 3.616229 0.016797
v -1.525632 3.517633 0.234342
v -1.218108 3.650095 0.349793
v -1.748623 3.685846 0.342192
v -1.647558 3.848417 0.399729
v -2.018162 3.667457 0.139648
v -1.859953 4.059365 0.102256
v -1.762047 3.890715 0.512712
v -1.771094 3.891274 0.513625
v -2.067922 3.628426 0.373536
v -2.061830 3.609325 0.504185
v -2.019560 3.541607 0.858495
v -1.709401 3.852000 0.869380
v -1.980604 3.472249 1.203867
v -1.681943 3.752605 1.211766
v -2.009533 3.372402 1.192973
v -2.036543 3.472318 0.850612
v -1.923879 3.384188 1.544779
v -1.682675 3.620492 1.552536
v -1.512651 3.649397 1.538820
v -1.600776 3.770512 1.205791
v -1.317622 3.434451 1.610745
v -1.607561 3.026035 1.780823
v -1.893580 3.345841 1.618003
v -1.252494 3.375544 1.473509
v -1.473166 2.909746 1.431630
v -1.827942 2.886852 1.465464
v -1.510056 2.976929 1.085739
v -1.875748 2.962631 1.121909
v -1.946874 3.313861 1.537379
v -1.291939 3.508938 1.496213
v -1.307426 3.622226 1.154513
v -1.257884 3.409568 1.119709
v -1.332977 3.723835 0.812236
v -1.286993 3.468560 0.771865
v -1.663978 3.865392 0.866506
v -1.400988 3.753769 0.453202
v -1.339564 3.509014 0.408351
v -1.928580 3.163839 0.437256
v -2.068268 3.572262 0.501331
v -1.618904 3.148208 0.402760
v -1.123274 4.900057 0.201377
v -1.122152 4.902576 0.190180
v -0.864735 3.915101 0.070332
v -0.906545 3.918802 0.425997
v -1.900431 3.065247 0.779682
v -1.563654 3.061699 0.744042
v -1.002319 4.437024 0.200979
v -0.448239 4.425196 0.188699
v -0.551040 4.697522 -0.107298
vn 0.6926 -0.2372 0.6812
vn 0.5894 0.3104 0.7458
vn -0.0479 0.0144 0.9988
vn 0.5373 -0.4524 0.7118
vn 0.3314 0.8355 0.4382
vn -0.4113 0.4345 0.8013
vn -0.0454 -0.1280 0.9907
vn -0.4504 0.2863 0.8457
vn -0.1544 -0.2507 0.9557
vn -0.5293 0.1643 0.8324
vn -0.7029 0.5973 0.3863
vn -0.7821 0.4865 0.3894
vn -0.6986 0.6781 -0.2283
vn -0.7762 0.5431 -0.3203
vn -0.3573 0.4231 -0.8327
vn -0.4636 0.1869 -0.8661
vn 0.2336 -0.0872 -0.9684
vn 0.1012 -0.3174 -0.9429
vn -0.3358 0.4374 -0.8342
vn 0.1237 0.0286 -0.9919
vn 0.4218 0.5013 -0.7556
vn -0.5216 0.8528 -0.0253
vn 0.3342 0.9403 -0.0638
vn 0.4109 0.7548 -0.5114
vn -0.6175 -0.4553 -0.6415
vn 0.0649 -0.6813 -0.7292
vn 0.5168 -0.7618 -0.3906
vn 0.5114 -0.7528 -0.4145
vn 0.3129 -0.7665 0.5608
vn 0.9717 -0.2216 -0.0814
vn -0.4874 -0.0878 0.8688
vn -0.1712 0.9851 0.0166
vn -0.7704 -0.1173 -0.6266
vn -0.9187 0.2448 -0.3101
vn -0.9594 0.2662 -0.0931
vn -0.5650 0.8200 0.0916
vn -0.0278 0.9751 -0.2198
vn -0.8742 0.4629 0.1464
vn -0.4551 0.8612 0.2264
vn -0.8577 0.4764 0.1935
vn -0.4339 0.8472 0.3065
vn -0.8406 0.4909 0.2291
vn -0.9963 -0.0477 0.0711
vn -0.9929 -0.0380 0.1128
vn -0.2931 0.6433 0.7073
vn -0.7935 0.4653 0.3923
vn 0.1485 0.9471 0.2845
vn 0.1799 0.7612 0.6231
vn -0.5748 0.1876 0.7965
vn 0.0728 -0.4116 0.9084
vn 0.6122 0.1975 0.7656
vn 0.5547 -0.8241 0.1148
vn 0.9706 -0.1515 0.1868
vn -0.5219 -0.8203 0.2340
vn -0.5899 -0.7983 -0.1210
vn 0.5019 -0.8345 -0.2274
vn -0.9220 -0.0758 0.3797
vn 0.7908 0.5364 0.2948
vn 0.9850 -0.1459 -0.0916
vn 0.7968 0.5943 0.1092
vn 0.9729 -0.1660 -0.1612
vn 0.7676 0.6409 0.0068
vn 0.1079 0.9814 0.1589
vn 0.9163 -0.0651 -0.3952
vn 0.5641 0.7359 -0.3744
vn -0.6146 -0.7388 -0.2764
vn -0.9971 -0.0750 0.0149
vn 0.3633 -0.8469 -0.3884
vn -0.7018 0.6774 -0.2204
vn -0.6233 0.6816 0.3834
vn 0.9688 0.0513 -0.2423
vn 0.7036 -0.5887 -0.3979
vn 0.5253 -0.5992 0.6041
vn -0.6005 -0.7819 -0.1675
vn 0.4448 -0.8542 -0.2693
vn 0.5024 0.8328 0.2324
vn 0.7867 0.5060 0.3537
vn 0.8697 -0.4922 0.0377
vn 0.7500 0.2204 -0.6237
vn 0.3214 -0.9380 0.1298
vn -0.5173 0.4228 0.7440
s 1
f 3//1 5//2 4//3 2//4
f 4//3 5//2 7//5 6//6
f 9//7 4//3 6//6 8//8
f 11//9 9//7 8//8 10//10
f 8//8 13//11 12//12 10//10
f 13//11 15//13 14//14 12//12
f 14//14 15//13 17//15 16//16
f 16//16 17//15 19//17 18//18
f 17//15 21//19 20//20 19//17
f 21//19 22//21 20//20
f 25//22 24//23 23//24
f 27//25 16//16 18//18 26//26
f 26//26 18//18 29//27 28//28
f 29//27 31//29 30//30 28//28
f 31//29 11//9 33//31 32//32
f 30//30 31//29 32//32
f 33//31 35//33 34//34 32//32
f 34//34 38//35 37//36 36//37
f 32//32 34//34 36//37
f 37//36 38//35 39//38
f 41//39 37//36 39//38 40//40
f 43//41 41//39 40//40 42//42
f 40//40 45//43 44//44 42//42
f 47//45 43//41 42//42 46//46
f 49//47 43//41 47//45 48//48
f 52//49 51//50 50//51 48//48
f 47//45 52//49 48//48
f 50//51 51//50 54//52 53//53
f 51//50 55//54 54//52
f 55//54 57//55 56//56 54//52
f 58//57 44//44 57//55 55//54
f 59//58 50//51 53//53
f 61//59 60//60 59//58 53//53
f 63//61 62//62 60//60 61//59
f 60//60 62//62 64//63 49//47
f 66//64 65//65 62//62 63//61
f 54//52 56//56 61//59 53//53
f 50//51 59//58 48//48
f 52//49 47//45 46//46
f 58//57 52//49 46//46
f 38//35 34//34 27//25 67//66
f 68//67 38//35 67//66
f 28//28 30//30 65//65 66//64
f 69//68 26//26 28//28 66//64
f 67//66 27//25 26//26 69//68
f 33//31 11//9 10//10
f 25//22 71//69 70//70
f 25//22 23//24 22//21 21//19
f 71//69 25//22 21//19
f 24//23 25//22 70//70 6//6
f 7//5 24//23 6//6
f 15//13 71//69 21//19 17//15
f 6//6 70//70 13//11 8//8
f 19//17 20//20 1//71 72//72
f 2//4 4//3 9//7 73//73
f 1//71 2//4 73//73 72//72
f 14//14 35//33 12//12
f 14//14 16//16 27//25 34//34
f 35//33 14//14 34//34
f 12//12 35//33 33//31 10//10
f 18//18 19//17 72//72 29//27
f 73//73 9//7 11//9 31//29
f 72//72 73//73 31//29 29//27
f 38//35 68//67 39//38
f 65//65 30//30 32//32 36//37
f 45//43 68//67 67//66 74//74
f 39//38 68//67 45//43 40//40
f 74//74 67//66 69//68 75//75
f 36//37 37//36 41//39 64//63
f 62//62 65//65 36//37 64//63
f 75//75 69//68 66//64 63//61
f 44//44 45//43 74//74 57//55
f 42//42 44//44 58//57 46//46
f 51//50 52//49 58//57 55//54
f 57//55 74//74 75//75 56//56
f 64//63 41//39 43//41 49//47
f 59//58 60//60 49//47 48//48
f 56//56 75//75 63//61 61//59
f 70//70 71//69 15//13 13//11
f 1//71 20//76 76//77 2//4
f 5//2 3//1 77//78 78//79 22//21 23//24 24//23 7//5
f 77//78 3//1 2//4 76//77 1//80
f 22//21 78//79 20//20
s 0
f 1//81 77//81 78//81 20//81
