# Blender 5.0.0
# www.blender.org
mtllib Walk_Forward0033.mtl
o Mball.001
v -0.521393 4.390787 -0.187470
v -0.761499 4.232623 0.063695
v -0.617382 4.497538 0.395172
v -1.038762 4.501589 0.150471
v -0.673165 5.047595 0.378260
v -1.105453 4.687375 0.107158
v -0.659867 5.134129 0.351358
v -1.313403 4.397116 -0.188516
v -1.239473 4.240514 -0.161695
v -1.500103 4.215074 -0.480852
v -1.438422 4.095380 -0.457420
v -1.503929 4.611722 -0.726541
v -1.272300 4.819732 -0.408977
v -1.475080 4.640793 -0.754086
v -1.251032 4.843391 -0.432240
v -1.188963 4.626322 -0.966548
v -0.944210 4.879462 -0.629879
v -0.958410 4.406706 -0.986503
v -0.729586 4.658143 -0.656684
v -0.567267 4.838038 -0.379807
v -0.751316 5.041851 -0.353459
v -0.513284 5.066455 -0.152519
v -0.561891 5.250959 -0.011889
v -0.563021 5.256580 -0.002443
v -0.901659 5.152407 -0.069070
v -1.338561 3.904717 -1.101471
v -1.502003 3.934128 -1.118972
v -1.123717 4.065144 -0.888690
v -0.886694 4.048127 -0.792944
v -1.285219 3.926456 -0.830233
v -1.121569 3.896568 -0.551393
v -1.556069 4.052843 -0.779032
v -1.525225 4.137805 -0.631814
v -1.671278 4.168043 -1.008148
v -1.547492 4.522239 -0.851418
v -1.601255 4.148594 -0.550812
v -1.609725 4.148892 -0.552021
v -1.805281 4.005619 -0.839681
v -1.848369 3.913248 -0.731976
v -1.935660 3.652558 -0.442548
v -1.676551 3.907252 -0.237582
v -2.021357 3.397614 -0.164120
v -1.769204 3.627618 0.024886
v -2.035393 3.315521 -0.215229
v -1.942374 3.595582 -0.477368
v -2.086994 3.127238 0.109586
v -1.884764 3.321127 0.266691
v -1.722538 3.344520 0.315313
v -1.692348 3.642166 0.049951
v -1.546515 3.099880 0.361780
v -1.845092 2.656125 0.282028
v -2.082303 3.050600 0.167259
v -1.428857 3.118579 0.246178
v -1.578200 2.735802 -0.010189
v -1.922050 2.717781 -0.094758
v -1.490172 2.988952 -0.289166
v -1.845932 2.978029 -0.372141
v -2.099443 3.069422 0.073040
v -1.486514 3.228435 0.298117
v -1.384134 3.519473 0.044423
v -1.305268 3.344371 -0.041171
v -1.289930 3.800924 -0.216647
v -1.208456 3.590763 -0.322216
v -1.634021 3.918167 -0.222034
v -1.227256 4.032148 -0.533767
v -1.125884 3.831473 -0.630631
v -1.658931 3.539283 -0.895550
v -1.850140 3.881370 -0.748143
v -1.353701 3.525707 -0.837802
v -1.039619 5.039783 -0.148464
v -1.032595 5.046865 -0.155526
v -0.668410 4.199026 -0.485312
v -0.925967 4.014248 -0.249572
v -1.751023 3.260307 -0.632575
v -1.421004 3.256612 -0.563704
v -1.002319 4.437024 0.200979
v -0.445779 4.475788 0.088559
v -0.420692 4.814468 -0.164847
vn 0.2917 -0.4738 0.8309
vn 0.2155 0.1254 0.9684
vn -0.5709 -0.2695 0.7755
vn 0.2747 -0.5968 0.7539
vn 0.1541 0.6898 0.7074
vn -0.7479 0.2223 0.6255
vn -0.5574 -0.4953 0.6663
vn -0.8351 0.0368 0.5488
vn -0.6331 -0.6008 0.4881
vn -0.9046 -0.0652 0.4212
vn -0.8197 0.5237 0.2321
vn -0.8869 0.4434 0.1299
vn -0.5322 0.8292 -0.1706
vn -0.5496 0.7382 -0.3912
vn 0.0976 0.7963 -0.5970
vn -0.0211 0.5898 -0.8073
vn 0.7287 0.2512 -0.6371
vn 0.5495 0.0806 -0.8316
vn 0.1419 0.7880 -0.5990
vn 0.7092 0.3546 -0.6093
vn 0.7745 0.5826 -0.2464
vn -0.4028 0.9013 0.1595
vn 0.3212 0.9203 0.2233
vn 0.5912 0.7860 -0.1808
vn -0.2676 -0.1029 -0.9580
vn 0.3862 -0.2911 -0.8753
vn 0.6639 -0.6084 -0.4348
vn 0.6721 -0.4993 -0.5468
vn 0.0215 -0.9908 0.1336
vn 0.6548 -0.3946 -0.6446
vn -0.8808 -0.3402 0.3293
vn -0.3120 0.9345 0.1712
vn -0.3736 0.2575 -0.8911
vn -0.7521 0.4011 -0.5229
vn -0.8954 0.3228 -0.3067
vn -0.6338 0.7166 0.2911
vn -0.0446 0.9623 0.2684
vn -0.9156 0.4010 0.0285
vn -0.5717 0.6821 0.4560
vn -0.9136 0.3974 0.0861
vn -0.5688 0.6420 0.5141
vn -0.9078 0.3990 0.1290
vn -0.9400 -0.0139 -0.3408
vn -0.9538 -0.0189 -0.2998
vn -0.5339 0.3239 0.7810
vn -0.9100 0.3160 0.2685
vn -0.0477 0.6800 0.7317
vn -0.0957 0.4118 0.9063
vn -0.8233 -0.1139 0.5561
vn -0.1904 -0.7732 0.6050
vn 0.3255 -0.1495 0.9336
vn 0.5819 -0.8063 -0.1065
vn 0.8678 -0.2496 0.4296
vn -0.4811 -0.7834 -0.3935
vn -0.4122 -0.5904 -0.6940
vn 0.6243 -0.6623 -0.4141
vn -0.9845 -0.1578 -0.0761
vn 0.5624 0.3108 0.7662
vn 0.9644 -0.1503 0.2176
vn 0.6179 0.4195 0.6650
vn 0.9786 -0.1439 0.1469
vn 0.6230 0.5018 0.6001
vn -0.0518 0.7614 0.6462
vn 0.9979 0.0595 -0.0271
vn 0.5325 0.8079 0.2527
vn -0.3916 -0.4841 -0.7825
vn -0.9171 -0.0164 -0.3983
vn 0.5382 -0.6021 -0.5897
vn -0.5388 0.8268 -0.1615
vn -0.7076 0.6019 0.3700
vn 0.9535 -0.1446 0.2646
vn 0.8370 -0.4971 -0.2288
vn 0.1757 -0.8956 0.4088
vn -0.4052 -0.5576 -0.7245
vn 0.5817 -0.6581 -0.4780
vn 0.6121 0.3300 0.7186
vn 0.7488 -0.1257 0.6507
vn 0.8033 -0.5800 0.1350
vn 0.9694 0.2406 0.0498
vn 0.2921 -0.9470 -0.1334
vn -0.9026 0.1940 0.3842
s 1
f 3//1 5//2 4//3 2//4
f 4//3 5//2 7//5 6//6
f 9//7 4//3 6//6 8//8
f 11//9 9//7 8//8 10//10
f 8//8 13//11 12//12 10//10
f 13//11 15//13 14//14 12//12
f 14//14 15//13 17//15 16//16
f 16//16 17//15 19//17 18//18
f 17//15 21//19 20//20 19//17
f 21//19 22//21 20//20
f 25//22 24//23 23//24
f 27//25 16//16 18//18 26//26
f 26//26 18//18 29//27 28//28
f 29//27 31//29 30//30 28//28
f 31//29 11//9 33//31 32//32
f 30//30 31//29 32//32
f 33//31 35//33 34//34 32//32
f 34//34 38//35 37//36 36//37
f 32//32 34//34 36//37
f 37//36 38//35 39//38
f 41//39 37//36 39//38 40//40
f 43//41 41//39 40//40 42//42
f 40//40 45//43 44//44 42//42
f 47//45 43//41 42//42 46//46
f 49//47 43//41 47//45 48//48
f 52//49 51//50 50//51 48//48
f 47//45 52//49 48//48
f 50//51 51//50 54//52 53//53
f 51//50 55//54 54//52
f 55//54 57//55 56//56 54//52
f 58//57 44//44 57//55 55//54
f 59//58 50//51 53//53
f 61//59 60//60 59//58 53//53
f 63//61 62//62 60//60 61//59
f 60//60 62//62 64//63 49//47
f 66//64 65//65 62//62 63//61
f 54//52 56//56 61//59 53//53
f 50//51 59//58 48//48
f 52//49 47//45 46//46
f 58//57 52//49 46//46
f 38//35 34//34 27//25 67//66
f 68//67 38//35 67//66
f 28//28 30//30 65//65 66//64
f 69//68 26//26 28//28 66//64
f 67//66 27//25 26//26 69//68
f 33//31 11//9 10//10
f 25//22 71//69 70//70
f 25//22 23//24 22//21 21//19
f 71//69 25//22 21//19
f 24//23 25//22 70//70 6//6
f 7//5 24//23 6//6
f 15//13 71//69 21//19 17//15
f 6//6 70//70 13//11 8//8
f 19//17 20//20 1//71 72//72
f 2//4 4//3 9//7 73//73
f 1//71 2//4 73//73 72//72
f 14//14 35//33 12//12
f 14//14 16//16 27//25 34//34
f 35//33 14//14 34//34
f 12//12 35//33 33//31 10//10
f 18//18 19//17 72//72 29//27
f 73//73 9//7 11//9 31//29
f 72//72 73//73 31//29 29//27
f 38//35 68//67 39//38
f 65//65 30//30 32//32 36//37
f 45//43 68//67 67//66 74//74
f 39//38 68//67 45//43 40//40
f 74//74 67//66 69//68 75//75
f 36//37 37//36 41//39 64//63
f 62//62 65//65 36//37 64//63
f 75//75 69//68 66//64 63//61
f 44//44 45//43 74//74 57//55
f 42//42 44//44 58//57 46//46
f 51//50 52//49 58//57 55//54
f 57//55 74//74 75//75 56//56
f 64//63 41//39 43//41 49//47
f 59//58 60//60 49//47 48//48
f 56//56 75//75 63//61 61//59
f 70//70 71//69 15//13 13//11
f 1//71 20//76 76//77 2//4
f 5//2 3//1 77//78 78//79 22//21 23//24 24//23 7//5
f 77//78 3//1 2//4 76//77 1//80
f 22//21 78//79 20//20
s 0
f 1//81 77//81 78//81 20//81
