# Blender 5.0.0
# www.blender.org
mtllib Walk_Forward0036.mtl
o Mball.001
v -0.426848 4.477197 -0.269035
v -0.721260 4.276130 -0.114530
v -0.654365 4.495531 0.299380
v -1.016415 4.530382 -0.058365
v -0.693249 5.060503 0.304620
v -1.074059 4.721956 -0.090961
v -0.674378 5.149129 0.281931
v -1.189978 4.506884 -0.462498
v -1.122641 4.344742 -0.444250
v -1.283913 4.404582 -0.809773
v -1.227881 4.280077 -0.792080
v -1.229405 4.850411 -0.982541
v -1.096348 4.974004 -0.598754
v -1.193835 4.885077 -0.997794
v -1.069613 5.002312 -0.612512
v -0.857066 4.914642 -1.138773
v -0.716793 5.077484 -0.726428
v -0.622430 4.700976 -1.142450
v -0.496555 4.860934 -0.737813
v -0.429838 4.957562 -0.407091
v -0.618685 5.156779 -0.396504
v -0.465885 5.095201 -0.168332
v -0.533506 5.262453 -0.061007
v -0.535569 5.267963 -0.052158
v -0.848097 5.195885 -0.160273
v -0.941747 4.243662 -1.405351
v -1.100861 4.268193 -1.444551
v -0.788055 4.368460 -1.149265
v -0.598414 4.304148 -0.999973
v -0.964240 4.208859 -1.141504
v -0.890147 4.100852 -0.842858
v -1.246567 4.321300 -1.129328
v -1.263428 4.366590 -0.970596
v -1.303555 4.470382 -1.338047
v -1.237680 4.790254 -1.122909
v -1.321972 4.365634 -0.888184
v -1.330003 4.365517 -0.890362
v -1.457227 4.268782 -1.213445
v -1.514573 4.152393 -1.125023
v -1.637374 3.831797 -0.885670
v -1.437672 4.056665 -0.617565
v -1.756121 3.520247 -0.656635
v -1.558636 3.723545 -0.407963
v -1.754910 3.448642 -0.717963
v -1.633677 3.782139 -0.927141
v -1.853217 3.195522 -0.430934
v -1.696491 3.366768 -0.225038
v -1.547494 3.389165 -0.150430
v -1.488657 3.737171 -0.370242
v -1.366439 3.148350 -0.106567
v -1.615436 2.709922 -0.280343
v -1.854128 3.108724 -0.382827
v -1.230509 3.196276 -0.199229
v -1.304050 2.861348 -0.515477
v -1.625419 2.841338 -0.651984
v -1.182787 3.171367 -0.744899
v -1.516647 3.157382 -0.880842
v -1.854784 3.145061 -0.475050
v -1.304277 3.291134 -0.144762
v -1.176141 3.634300 -0.343037
v -1.070864 3.482940 -0.434560
v -1.054033 3.969020 -0.550834
v -0.940119 3.787189 -0.665442
v -1.399453 4.066699 -0.594728
v -0.950173 4.265474 -0.826329
v -0.817639 4.091017 -0.926119
v -1.273469 3.825372 -1.298074
v -1.511316 4.123790 -1.144534
v -0.982987 3.817405 -1.197166
v -0.953436 5.115676 -0.270174
v -0.945092 5.123688 -0.274401
v -0.476445 4.366902 -0.631350
v -0.789259 4.135149 -0.492925
v -1.394019 3.492832 -1.087818
v -1.081880 3.493773 -0.971188
v -1.002319 4.437024 0.200979
v -0.436692 4.497161 0.049057
v -0.372360 4.848643 -0.169512
vn 0.0759 -0.5778 0.8126
vn 0.0315 0.0573 0.9979
vn -0.7452 -0.3585 0.5623
vn 0.1538 -0.7249 0.6715
vn 0.0341 0.6267 0.7785
vn -0.8712 0.1516 0.4668
vn -0.7038 -0.6027 0.3761
vn -0.9511 -0.0359 0.3066
vn -0.7259 -0.6727 0.1431
vn -0.9841 -0.1150 0.1352
vn -0.8601 0.4964 0.1172
vn -0.9000 0.4355 -0.0176
vn -0.4977 0.8601 -0.1124
vn -0.4653 0.8037 -0.3710
vn 0.2267 0.9071 -0.3546
vn 0.1365 0.7321 -0.6674
vn 0.8716 0.3509 -0.3423
vn 0.7258 0.2240 -0.6504
vn 0.2884 0.8987 -0.3305
vn 0.8687 0.4341 -0.2387
vn 0.8230 0.5617 0.0847
vn -0.3920 0.8771 0.2776
vn 0.2792 0.9065 0.3168
vn 0.6245 0.7809 -0.0148
vn -0.0840 0.0302 -0.9960
vn 0.5523 -0.1359 -0.8225
vn 0.7558 -0.5327 -0.3808
vn 0.7931 -0.3686 -0.4849
vn 0.0091 -0.9946 -0.1034
vn 0.5811 -0.1614 -0.7976
vn -0.9257 -0.3776 -0.0204
vn -0.4167 0.9072 0.0587
vn -0.1561 0.4042 -0.9012
vn -0.6633 0.4319 -0.6111
vn -0.8535 0.3191 -0.4118
vn -0.7171 0.6349 0.2874
vn -0.1552 0.9026 0.4014
vn -0.9335 0.3498 -0.0794
vn -0.6781 0.5813 0.4498
vn -0.9404 0.3392 -0.0219
vn -0.6799 0.5371 0.4992
vn -0.9416 0.3360 0.0212
vn -0.8611 -0.0111 -0.5082
vn -0.8814 -0.0214 -0.4719
vn -0.6657 0.1922 0.7210
vn -0.9609 0.2376 0.1420
vn -0.2042 0.5606 0.8025
vn -0.2612 0.2764 0.9249
vn -0.8990 -0.2298 0.3729
vn -0.2304 -0.8674 0.4411
vn 0.1939 -0.2580 0.9465
vn 0.6514 -0.7475 -0.1297
vn 0.8044 -0.2589 0.5348
vn -0.3466 -0.7246 -0.5956
vn -0.2473 -0.4952 -0.8329
vn 0.7246 -0.5659 -0.3932
vn -0.9390 -0.1862 -0.2891
vn 0.4052 0.2285 0.8852
vn 0.9210 -0.1331 0.3660
vn 0.4630 0.3454 0.8163
vn 0.9460 -0.1178 0.3019
vn 0.4710 0.4318 0.7692
vn -0.2031 0.6472 0.7347
vn 0.9790 0.1112 0.1707
vn 0.4089 0.7810 0.4721
vn -0.2238 -0.3824 -0.8965
vn -0.8293 -0.0043 -0.5587
vn 0.6619 -0.4884 -0.5686
vn -0.5055 0.8574 -0.0970
vn -0.7661 0.5542 0.3255
vn 0.8859 -0.2616 0.3831
vn 0.8783 -0.4674 -0.1007
vn 0.0905 -0.9682 0.2332
vn -0.2393 -0.4604 -0.8548
vn 0.6914 -0.5555 -0.4619
vn 0.6286 0.0639 0.7751
vn 0.7040 -0.3709 0.6057
vn 0.7494 -0.6521 0.1146
vn 0.9111 0.2159 0.3510
vn 0.2135 -0.9295 -0.3008
vn -0.9877 0.1172 0.1034
s 1
f 3//1 5//2 4//3 2//4
f 4//3 5//2 7//5 6//6
f 9//7 4//3 6//6 8//8
f 11//9 9//7 8//8 10//10
f 8//8 13//11 12//12 10//10
f 13//11 15//13 14//14 12//12
f 14//14 15//13 17//15 16//16
f 16//16 17//15 19//17 18//18
f 17//15 21//19 20//20 19//17
f 21//19 22//21 20//20
f 25//22 24//23 23//24
f 27//25 16//16 18//18 26//26
f 26//26 18//18 29//27 28//28
f 29//27 31//29 30//30 28//28
f 31//29 11//9 33//31 32//32
f 30//30 31//29 32//32
f 33//31 35//33 34//34 32//32
f 34//34 38//35 37//36 36//37
f 32//32 34//34 36//37
f 37//36 38//35 39//38
f 41//39 37//36 39//38 40//40
f 43//41 41//39 40//40 42//42
f 40//40 45//43 44//44 42//42
f 47//45 43//41 42//42 46//46
f 49//47 43//41 47//45 48//48
f 52//49 51//50 50//51 48//48
f 47//45 52//49 48//48
f 50//51 51//50 54//52 53//53
f 51//50 55//54 54//52
f 55//54 57//55 56//56 54//52
f 58//57 44//44 57//55 55//54
f 59//58 50//51 53//53
f 61//59 60//60 59//58 53//53
f 63//61 62//62 60//60 61//59
f 60//60 62//62 64//63 49//47
f 66//64 65//65 62//62 63//61
f 54//52 56//56 61//59 53//53
f 50//51 59//58 48//48
f 52//49 47//45 46//46
f 58//57 52//49 46//46
f 38//35 34//34 27//25 67//66
f 68//67 38//35 67//66
f 28//28 30//30 65//65 66//64
f 69//68 26//26 28//28 66//64
f 67//66 27//25 26//26 69//68
f 33//31 11//9 10//10
f 25//22 71//69 70//70
f 25//22 23//24 22//21 21//19
f 71//69 25//22 21//19
f 24//23 25//22 70//70 6//6
f 7//5 24//23 6//6
f 15//13 71//69 21//19 17//15
f 6//6 70//70 13//11 8//8
f 19//17 20//20 1//71 72//72
f 2//4 4//3 9//7 73//73
f 1//71 2//4 73//73 72//72
f 14//14 35//33 12//12
f 14//14 16//16 27//25 34//34
f 35//33 14//14 34//34
f 12//12 35//33 33//31 10//10
f 18//18 19//17 72//72 29//27
f 73//73 9//7 11//9 31//29
f 72//72 73//73 31//29 29//27
f 38//35 68//67 39//38
f 65//65 30//30 32//32 36//37
f 45//43 68//67 67//66 74//74
f 39//38 68//67 45//43 40//40
f 74//74 67//66 69//68 75//75
f 36//37 37//36 41//39 64//63
f 62//62 65//65 36//37 64//63
f 75//75 69//68 66//64 63//61
f 44//44 45//43 74//74 57//55
f 42//42 44//44 58//57 46//46
f 51//50 52//49 58//57 55//54
f 57//55 74//74 75//75 56//56
f 64//63 41//39 43//41 49//47
f 59//58 60//60 49//47 48//48
f 56//56 75//75 63//61 61//59
f 70//70 71//69 15//13 13//11
f 1//71 20//76 76//77 2//4
f 5//2 3//1 77//78 78//79 22//21 23//24 24//23 7//5
f 77//78 3//1 2//4 76//77 1//80
f 22//21 78//79 20//20
s 0
f 1//81 77//81 78//81 20//81
