# Blender 5.0.0
# www.blender.org
mtllib Walk_Forward0024.mtl
o Mball.001
v -0.400612 4.238849 0.526358
v -0.187915 4.562387 0.757332
v -0.222171 4.655983 0.627445
v -0.394860 4.896834 0.867374
v -0.433876 5.035392 0.656290
v -0.557533 4.981145 0.851842
v -0.457198 5.102124 0.633565
v -0.583425 4.708653 1.151049
v -0.432425 4.645208 1.149528
v -0.671337 4.436465 1.425560
v -0.551847 4.390532 1.422134
v -1.105689 4.303729 1.319966
v -1.000942 4.603446 1.016273
v -1.133906 4.270806 1.296777
v -1.024736 4.576441 0.997605
v -1.151014 3.900082 1.139730
v -1.068374 4.227547 0.808937
v -0.915251 3.703078 1.067486
v -0.856894 4.016372 0.742093
v -0.802699 4.288276 0.436030
v -0.974097 4.496708 0.499547
v -0.749133 4.780964 0.156774
v -0.627011 5.152776 0.284972
v -0.621656 5.161047 0.293955
v -0.873898 4.999340 0.512179
v -0.778646 3.579745 1.580998
v -0.919952 3.598214 1.653570
v -0.592295 3.856572 1.387651
v -0.506180 3.765322 1.117309
v -0.567908 3.894719 1.498693
v -0.351736 4.073331 1.289999
v -0.743405 4.099877 1.615796
v -0.707127 4.265413 1.510671
v -1.100818 3.858554 1.646170
v -1.134089 4.149368 1.394614
v -0.828197 4.375133 1.721518
v -0.836912 4.374020 1.725934
v -1.053495 4.000070 1.849876
v -1.002634 4.084541 1.947402
v -0.830813 4.313141 2.215322
v -0.673170 4.620436 1.978036
v -0.661733 4.535536 2.481340
v -0.503900 4.815120 2.257982
v -0.653355 4.444438 2.523104
v -0.822420 4.250262 2.242795
v -0.471742 4.743402 2.743869
v -0.347492 4.977904 2.560744
v -0.215090 5.021967 2.469779
v -0.442031 4.839773 2.213420
v 0.056363 4.949051 2.524618
v 0.009955 4.710608 2.924810
v -0.408039 4.776493 2.800202
v 0.091056 4.809263 2.418672
v 0.058645 4.374901 2.655327
v -0.229810 4.315913 2.834773
v -0.108004 4.150817 2.388902
v -0.408363 4.098205 2.571294
v -0.468026 4.678951 2.774563
v 0.014728 4.922423 2.400980
v -0.149080 4.741285 2.111346
v -0.038525 4.559425 2.146059
v -0.317479 4.548760 1.829856
v -0.196017 4.328980 1.878106
v -0.639643 4.637202 1.952164
v -0.491644 4.285223 1.578138
v -0.370552 4.068885 1.616209
v -0.745951 3.711197 2.009715
v -0.996129 4.051800 1.961507
v -0.482569 3.731321 1.862942
v -0.927831 4.863637 0.682799
v -0.934493 4.857383 0.674796
v -0.407884 4.008992 0.827660
v -0.219602 4.322468 1.026849
v -0.576366 3.906662 2.289101
v -0.294315 3.940393 2.125760
v -1.002319 4.437024 0.200979
v -0.384054 4.367057 0.343541
v -0.656482 4.503767 0.128922
vn 0.9751 0.1609 0.1528
vn 0.8102 0.5828 -0.0625
vn 0.6561 0.6036 0.4530
vn 0.9803 0.0377 0.1940
vn 0.3660 0.9300 -0.0329
vn -0.0321 0.8304 0.5563
vn 0.5849 0.5130 0.6282
vn -0.0398 0.7405 0.6709
vn 0.5018 0.3786 0.7777
vn -0.0701 0.6105 0.7889
vn -0.6154 0.6598 0.4312
vn -0.6074 0.5573 0.5661
vn -0.9263 0.3714 0.0630
vn -0.9603 0.2309 0.1563
vn -0.9062 -0.1591 -0.3917
vn -0.8789 -0.4069 -0.2490
vn -0.2996 -0.6763 -0.6729
vn -0.2011 -0.8769 -0.4367
vn -0.8814 -0.0824 -0.4651
vn -0.5073 -0.5434 -0.6688
vn -0.2266 0.2513 -0.9410
vn -0.7577 0.6517 -0.0346
vn 0.1031 0.8873 -0.4496
vn -0.0401 0.6349 -0.7715
vn -0.5458 -0.8068 0.2262
vn 0.1647 -0.9850 -0.0510
vn 0.5775 -0.7907 -0.2034
vn 0.7080 -0.7030 -0.0665
vn 0.8709 -0.2044 0.4469
vn 0.9193 0.1382 -0.3685
vn 0.0867 0.4073 0.9092
vn -0.3300 0.8802 -0.3412
vn -0.3003 -0.8401 0.4517
vn -0.9605 -0.0700 0.2692
vn -0.9632 0.0226 0.2679
vn -0.8135 0.5676 -0.1268
vn -0.4778 0.6120 -0.6302
vn -0.9163 0.2962 0.2695
vn -0.7218 0.6822 -0.1166
vn -0.8989 0.3257 0.2932
vn -0.6842 0.7267 -0.0605
vn -0.8816 0.3566 0.3092
vn -0.7945 -0.1483 0.5889
vn -0.7845 -0.1178 0.6088
vn -0.3547 0.8753 0.3286
vn -0.7991 0.4296 0.4206
vn -0.2336 0.8697 -0.4347
vn -0.0300 0.9986 -0.0428
vn -0.3936 0.4886 0.7786
vn 0.4831 0.2412 0.8417
vn 0.6699 0.7274 0.1487
vn 0.8493 -0.4645 0.2510
vn 0.9513 0.1377 -0.2760
vn -0.0293 -0.5494 0.8351
vn -0.1609 -0.7263 0.6683
vn 0.7462 -0.6619 0.0718
vn -0.6434 -0.0003 0.7655
vn 0.5101 0.6870 -0.5174
vn 0.8738 -0.0064 -0.4862
vn 0.4227 0.6055 -0.6743
vn 0.8566 -0.0631 -0.5121
vn 0.3602 0.5744 -0.7350
vn -0.3066 0.8099 -0.5001
vn 0.7528 -0.1249 -0.6463
vn 0.1398 0.4296 -0.8921
vn -0.2542 -0.7913 0.5561
vn -0.8022 -0.1965 0.5638
vn 0.6052 -0.7952 0.0373
vn -0.9208 0.3887 0.0318
vn -0.6201 0.6985 0.3573
vn 0.5412 -0.4367 -0.7186
vn 0.6033 -0.6724 -0.4288
vn 0.9757 -0.0651 0.2090
vn -0.1886 -0.7417 0.6437
vn 0.7011 -0.7079 0.0855
vn 0.4703 -0.0206 -0.8823
vn 0.6871 -0.5556 -0.4681
vn 0.9797 -0.1988 -0.0239
vn 0.0102 0.0470 -0.9988
vn 0.0080 -0.5461 0.8377
vn -0.0295 0.8229 0.5675
s 1
f 3//1 5//2 4//3 2//4
f 4//3 5//2 7//5 6//6
f 9//7 4//3 6//6 8//8
f 11//9 9//7 8//8 10//10
f 8//8 13//11 12//12 10//10
f 13//11 15//13 14//14 12//12
f 14//14 15//13 17//15 16//16
f 16//16 17//15 19//17 18//18
f 17//15 21//19 20//20 19//17
f 21//19 22//21 20//20
f 25//22 24//23 23//24
f 27//25 16//16 18//18 26//26
f 26//26 18//18 29//27 28//28
f 29//27 31//29 30//30 28//28
f 31//29 11//9 33//31 32//32
f 30//30 31//29 32//32
f 33//31 35//33 34//34 32//32
f 34//34 38//35 37//36 36//37
f 32//32 34//34 36//37
f 37//36 38//35 39//38
f 41//39 37//36 39//38 40//40
f 43//41 41//39 40//40 42//42
f 40//40 45//43 44//44 42//42
f 47//45 43//41 42//42 46//46
f 49//47 43//41 47//45 48//48
f 52//49 51//50 50//51 48//48
f 47//45 52//49 48//48
f 50//51 51//50 54//52 53//53
f 51//50 55//54 54//52
f 55//54 57//55 56//56 54//52
f 58//57 44//44 57//55 55//54
f 59//58 50//51 53//53
f 61//59 60//60 59//58 53//53
f 63//61 62//62 60//60 61//59
f 60//60 62//62 64//63 49//47
f 66//64 65//65 62//62 63//61
f 54//52 56//56 61//59 53//53
f 50//51 59//58 48//48
f 52//49 47//45 46//46
f 58//57 52//49 46//46
f 38//35 34//34 27//25 67//66
f 68//67 38//35 67//66
f 28//28 30//30 65//65 66//64
f 69//68 26//26 28//28 66//64
f 67//66 27//25 26//26 69//68
f 33//31 11//9 10//10
f 25//22 71//69 70//70
f 25//22 23//24 22//21 21//19
f 71//69 25//22 21//19
f 24//23 25//22 70//70 6//6
f 7//5 24//23 6//6
f 15//13 71//69 21//19 17//15
f 6//6 70//70 13//11 8//8
f 19//17 20//20 1//71 72//72
f 2//4 4//3 9//7 73//73
f 1//71 2//4 73//73 72//72
f 14//14 35//33 12//12
f 14//14 16//16 27//25 34//34
f 35//33 14//14 34//34
f 12//12 35//33 33//31 10//10
f 18//18 19//17 72//72 29//27
f 73//73 9//7 11//9 31//29
f 72//72 73//73 31//29 29//27
f 38//35 68//67 39//38
f 65//65 30//30 32//32 36//37
f 45//43 68//67 67//66 74//74
f 39//38 68//67 45//43 40//40
f 74//74 67//66 69//68 75//75
f 36//37 37//36 41//39 64//63
f 62//62 65//65 36//37 64//63
f 75//75 69//68 66//64 63//61
f 44//44 45//43 74//74 57//55
f 42//42 44//44 58//57 46//46
f 51//50 52//49 58//57 55//54
f 57//55 74//74 75//75 56//56
f 64//63 41//39 43//41 49//47
f 59//58 60//60 49//47 48//48
f 56//56 75//75 63//61 61//59
f 70//70 71//69 15//13 13//11
f 1//71 20//76 76//77 2//4
f 5//2 3//1 77//78 78//79 22//21 23//24 24//23 7//5
f 77//78 3//1 2//4 76//77 1//80
f 22//21 78//79 20//20
s 0
f 1//81 77//81 78//81 20//81
