# Blender 5.0.0
# www.blender.org
mtllib Walk_Forward0031.mtl
o Mball.001
v -0.609727 4.279848 -0.012993
v -0.722196 4.224475 0.338043
v -0.528992 4.522032 0.513563
v -0.967540 4.519302 0.452164
v -0.625333 5.037944 0.474244
v -1.057084 4.688025 0.397166
v -0.622025 5.120015 0.443287
v -1.338802 4.315335 0.266925
v -1.246636 4.174551 0.303025
v -1.614035 4.034122 0.112319
v -1.537917 3.927386 0.141452
v -1.746452 4.317835 -0.200349
v -1.424307 4.630023 -0.038819
v -1.733736 4.333598 -0.240462
v -1.415939 4.642767 -0.071713
v -1.550879 4.228645 -0.516917
v -1.214231 4.590537 -0.353466
v -1.325786 4.003258 -0.552720
v -1.007718 4.363314 -0.394844
v -0.753826 4.646955 -0.257886
v -0.929199 4.857841 -0.215694
v -0.591577 5.006925 -0.115025
v -0.594081 5.231374 0.061087
v -0.593560 5.237419 0.071143
v -0.950753 5.093212 0.079789
v -1.695870 3.492629 -0.420653
v -1.859121 3.526869 -0.409935
v -1.419314 3.706113 -0.301621
v -1.151583 3.733276 -0.315320
v -1.535169 3.610828 -0.186164
v -1.263762 3.691424 0.005259
v -1.777025 3.763218 -0.092866
v -1.691857 3.902187 0.005717
v -1.991178 3.800768 -0.319473
v -1.826934 4.188374 -0.281297
v -1.794235 3.931793 0.101903
v -1.803125 3.932388 0.102050
v -2.075419 3.712606 -0.101133
v -2.088435 3.664664 0.025876
v -2.097585 3.519451 0.368446
v -1.790136 3.813745 0.454681
v -2.108595 3.375105 0.700765
v -1.812252 3.640797 0.778762
v -2.136157 3.279966 0.673439
v -2.113597 3.453409 0.349502
v -2.101418 3.212783 1.028099
v -1.862242 3.436798 1.093780
v -1.691482 3.463266 1.102635
v -1.730799 3.657356 0.784107
v -1.509180 3.230243 1.164770
v -1.822847 2.799566 1.244263
v -2.081986 3.158247 1.097721
v -1.425198 3.200073 1.029672
v -1.640090 2.756808 0.901693
v -1.996989 2.737305 0.893393
v -1.626965 2.899064 0.568795
v -1.994992 2.887840 0.562769
v -2.123469 3.145790 1.008837
v -1.467016 3.327696 1.065723
v -1.433064 3.513829 0.745490
v -1.379830 3.310460 0.687940
v -1.409062 3.688878 0.422022
v -1.358741 3.444844 0.352860
v -1.744605 3.826230 0.458589
v -1.427310 3.798436 0.066284
v -1.358811 3.565243 -0.003034
v -1.948699 3.236033 -0.084723
v -2.094552 3.628866 0.017590
v -1.636609 3.219053 -0.087165
v -1.114563 4.942155 0.066417
v -1.110976 4.946688 0.056174
v -0.843777 3.992247 -0.156523
v -0.972104 3.916598 0.177565
v -1.970131 3.063846 0.239580
v -1.630941 3.058222 0.240583
v -1.002319 4.437024 0.200979
v -0.450978 4.443412 0.150665
v -0.503063 4.745373 -0.138297
vn 0.5607 -0.3237 0.7621
vn 0.4655 0.2386 0.8523
vn -0.2493 -0.0998 0.9633
vn 0.4343 -0.5096 0.7428
vn 0.2869 0.7846 0.5496
vn -0.5353 0.3496 0.7689
vn -0.2429 -0.2735 0.9307
vn -0.5959 0.1849 0.7815
vn -0.3493 -0.3960 0.8492
vn -0.6802 0.0664 0.7300
vn -0.7444 0.5705 0.3470
vn -0.8277 0.4679 0.3098
vn -0.6278 0.7443 -0.2276
vn -0.6920 0.6204 -0.3690
vn -0.1812 0.5685 -0.8025
vn -0.2986 0.3414 -0.8912
vn 0.4213 0.0476 -0.9057
vn 0.2586 -0.1639 -0.9520
vn -0.1572 0.5704 -0.8062
vn 0.3409 0.1608 -0.9262
vn 0.5727 0.5451 -0.6123
vn -0.4683 0.8832 0.0249
vn 0.3464 0.9368 0.0484
vn 0.4934 0.7722 -0.4002
vn -0.5111 -0.3228 -0.7966
vn 0.1620 -0.5375 -0.8276
vn 0.5544 -0.7137 -0.4280
vn 0.5416 -0.6760 -0.4997
vn 0.1755 -0.8786 0.4442
vn 0.9118 -0.3719 -0.1739
vn -0.6549 -0.1978 0.7294
vn -0.1894 0.9758 0.1092
vn -0.6532 0.0268 -0.7567
vn -0.8605 0.3184 -0.3977
vn -0.9393 0.2984 -0.1691
vn -0.5630 0.8049 0.1878
vn 0.0098 0.9995 -0.0301
vn -0.8830 0.4535 0.1210
vn -0.4675 0.8150 0.3424
vn -0.8704 0.4609 0.1734
vn -0.4542 0.7879 0.4159
vn -0.8564 0.4704 0.2126
vn -0.9963 -0.0314 -0.0795
vn -0.9990 -0.0276 -0.0363
vn -0.3625 0.5290 0.7673
vn -0.8276 0.4204 0.3720
vn 0.1167 0.8638 0.4902
vn 0.1078 0.6346 0.7653
vn -0.6658 0.0767 0.7421
vn -0.0445 -0.5641 0.8245
vn 0.5156 0.0578 0.8549
vn 0.5359 -0.8441 0.0193
vn 0.9392 -0.2006 0.2788
vn -0.5561 -0.8311 -0.0039
vn -0.5705 -0.7361 -0.3642
vn 0.5189 -0.7896 -0.3276
vn -0.9677 -0.1080 0.2277
vn 0.7392 0.4541 0.4974
vn 0.9877 -0.1557 0.0152
vn 0.7714 0.5379 0.3400
vn 0.9846 -0.1653 -0.0578
vn 0.7586 0.6029 0.2470
vn 0.0933 0.9225 0.3746
vn 0.9593 -0.0206 -0.2816
vn 0.5986 0.7875 -0.1469
vn -0.5719 -0.6518 -0.4981
vn -0.9890 -0.0495 -0.1396
vn 0.3986 -0.7695 -0.4991
vn -0.6337 0.7415 -0.2204
vn -0.6449 0.6588 0.3873
vn 0.9996 0.0134 -0.0233
vn 0.7521 -0.5543 -0.3566
vn 0.3836 -0.7221 0.5757
vn -0.5726 -0.7115 -0.4074
vn 0.4657 -0.7993 -0.3799
vn 0.5365 0.7016 0.4689
vn 0.7949 0.2575 0.5494
vn 0.8534 -0.5155 0.0776
vn 0.8816 0.2407 -0.4060
vn 0.3257 -0.9450 0.0299
vn -0.6710 0.3322 0.6629
s 1
f 3//1 5//2 4//3 2//4
f 4//3 5//2 7//5 6//6
f 9//7 4//3 6//6 8//8
f 11//9 9//7 8//8 10//10
f 8//8 13//11 12//12 10//10
f 13//11 15//13 14//14 12//12
f 14//14 15//13 17//15 16//16
f 16//16 17//15 19//17 18//18
f 17//15 21//19 20//20 19//17
f 21//19 22//21 20//20
f 25//22 24//23 23//24
f 27//25 16//16 18//18 26//26
f 26//26 18//18 29//27 28//28
f 29//27 31//29 30//30 28//28
f 31//29 11//9 33//31 32//32
f 30//30 31//29 32//32
f 33//31 35//33 34//34 32//32
f 34//34 38//35 37//36 36//37
f 32//32 34//34 36//37
f 37//36 38//35 39//38
f 41//39 37//36 39//38 40//40
f 43//41 41//39 40//40 42//42
f 40//40 45//43 44//44 42//42
f 47//45 43//41 42//42 46//46
f 49//47 43//41 47//45 48//48
f 52//49 51//50 50//51 48//48
f 47//45 52//49 48//48
f 50//51 51//50 54//52 53//53
f 51//50 55//54 54//52
f 55//54 57//55 56//56 54//52
f 58//57 44//44 57//55 55//54
f 59//58 50//51 53//53
f 61//59 60//60 59//58 53//53
f 63//61 62//62 60//60 61//59
f 60//60 62//62 64//63 49//47
f 66//64 65//65 62//62 63//61
f 54//52 56//56 61//59 53//53
f 50//51 59//58 48//48
f 52//49 47//45 46//46
f 58//57 52//49 46//46
f 38//35 34//34 27//25 67//66
f 68//67 38//35 67//66
f 28//28 30//30 65//65 66//64
f 69//68 26//26 28//28 66//64
f 67//66 27//25 26//26 69//68
f 33//31 11//9 10//10
f 25//22 71//69 70//70
f 25//22 23//24 22//21 21//19
f 71//69 25//22 21//19
f 24//23 25//22 70//70 6//6
f 7//5 24//23 6//6
f 15//13 71//69 21//19 17//15
f 6//6 70//70 13//11 8//8
f 19//17 20//20 1//71 72//72
f 2//4 4//3 9//7 73//73
f 1//71 2//4 73//73 72//72
f 14//14 35//33 12//12
f 14//14 16//16 27//25 34//34
f 35//33 14//14 34//34
f 12//12 35//33 33//31 10//10
f 18//18 19//17 72//72 29//27
f 73//73 9//7 11//9 31//29
f 72//72 73//73 31//29 29//27
f 38//35 68//67 39//38
f 65//65 30//30 32//32 36//37
f 45//43 68//67 67//66 74//74
f 39//38 68//67 45//43 40//40
f 74//74 67//66 69//68 75//75
f 36//37 37//36 41//39 64//63
f 62//62 65//65 36//37 64//63
f 75//75 69//68 66//64 63//61
f 44//44 45//43 74//74 57//55
f 42//42 44//44 58//57 46//46
f 51//50 52//49 58//57 55//54
f 57//55 74//74 75//75 56//56
f 64//63 41//39 43//41 49//47
f 59//58 60//60 49//47 48//48
f 56//56 75//75 63//61 61//59
f 70//70 71//69 15//13 13//11
f 1//71 20//76 76//77 2//4
f 5//2 3//1 77//78 78//79 22//21 23//24 24//23 7//5
f 77//78 3//1 2//4 76//77 1//80
f 22//21 78//79 20//20
s 0
f 1//81 77//81 78//81 20//81
