# Blender 5.0.0
# www.blender.org
mtllib Walk_Forward0035.mtl
o Mball.001
v -0.439484 4.466438 -0.260796
v -0.728940 4.269445 -0.093642
v -0.650959 4.495138 0.311602
v -1.022219 4.525313 -0.033236
v -0.691403 5.058598 0.313994
v -1.080679 4.716409 -0.067163
v -0.673156 5.147005 0.290745
v -1.209234 4.491650 -0.431310
v -1.141352 4.329982 -0.412007
v -1.315475 4.379373 -0.773730
v -1.258941 4.255298 -0.755325
v -1.266594 4.820374 -0.956160
v -1.120338 4.954551 -0.578529
v -1.231625 4.854505 -0.973023
v -1.094099 4.982410 -0.593534
v -0.899906 4.879505 -1.123692
v -0.745525 5.053738 -0.718520
v -0.665699 4.665071 -1.129639
v -0.525899 4.836615 -0.732060
v -0.446533 4.943650 -0.405940
v -0.634911 5.143387 -0.393198
v -0.471412 5.092161 -0.166590
v -0.537317 5.261108 -0.054975
v -0.539274 5.266624 -0.046048
v -0.855471 5.190488 -0.149531
v -0.995108 4.200976 -1.375939
v -1.155002 4.226159 -1.412382
v -0.833295 4.329968 -1.124203
v -0.636987 4.271978 -0.980346
v -1.008535 4.172549 -1.109898
v -0.923233 4.073978 -0.811939
v -1.289950 4.286496 -1.092560
v -1.300759 4.336620 -0.934259
v -1.353488 4.432288 -1.304491
v -1.279466 4.756642 -1.095300
v -1.361285 4.337106 -0.852547
v -1.369380 4.337047 -0.854603
v -1.505470 4.234992 -1.174302
v -1.561400 4.121268 -1.083366
v -1.680740 3.807203 -0.837602
v -1.472776 4.035689 -0.576320
v -1.796317 3.501787 -0.602287
v -1.591214 3.708318 -0.360102
v -1.797167 3.428880 -0.662662
v -1.678446 3.756635 -0.878465
v -1.890434 3.182908 -0.370532
v -1.727376 3.356899 -0.169920
v -1.576422 3.379357 -0.098422
v -1.520226 3.722029 -0.323883
v -1.396240 3.137671 -0.054754
v -1.652865 2.698169 -0.217979
v -1.890854 3.097157 -0.321272
v -1.262231 3.182232 -0.150560
v -1.346110 2.841394 -0.460859
v -1.670883 2.821767 -0.591044
v -1.228038 3.145246 -0.696588
v -1.565237 3.131782 -0.826056
v -1.893475 3.131534 -0.413933
v -1.333903 3.278982 -0.095997
v -1.207939 3.616565 -0.301159
v -1.106117 3.462214 -0.392602
v -1.088302 3.945564 -0.515616
v -0.978648 3.760169 -0.629890
v -1.433931 4.045816 -0.554339
v -0.988747 4.234807 -0.796574
v -0.860210 4.057087 -0.896763
v -1.327050 3.788304 -1.256568
v -1.558825 4.092256 -1.102570
v -1.034245 3.779518 -1.161019
v -0.965274 5.106168 -0.256410
v -0.957042 5.114100 -0.261000
v -0.502178 4.345818 -0.617233
v -0.809949 4.118618 -0.466014
v -1.445054 3.461521 -1.039711
v -1.130144 3.461756 -0.928969
v -1.002319 4.437024 0.200979
v -0.438015 4.494580 0.053834
v -0.377863 4.845005 -0.169279
vn 0.1050 -0.5649 0.8185
vn 0.0544 0.0653 0.9964
vn -0.7266 -0.3489 0.5919
vn 0.1694 -0.7072 0.6864
vn 0.0498 0.6343 0.7715
vn -0.8576 0.1596 0.4889
vn -0.6904 -0.5921 0.4156
vn -0.9402 -0.0285 0.3395
vn -0.7205 -0.6676 0.1876
vn -0.9788 -0.1109 0.1724
vn -0.8561 0.4994 0.1329
vn -0.8999 0.4360 0.0013
vn -0.5005 0.8575 -0.1196
vn -0.4749 0.7963 -0.3747
vn 0.2149 0.8963 -0.3879
vn 0.1192 0.7161 -0.6877
vn 0.8587 0.3410 -0.3825
vn 0.7063 0.2076 -0.6768
vn 0.2749 0.8880 -0.3686
vn 0.8564 0.4276 -0.2894
vn 0.8227 0.5669 0.0414
vn -0.3914 0.8820 0.2625
vn 0.2851 0.9081 0.3066
vn 0.6219 0.7823 -0.0361
vn -0.1069 0.0147 -0.9942
vn 0.5320 -0.1544 -0.8326
vn 0.7443 -0.5418 -0.3904
vn 0.7778 -0.3848 -0.4969
vn 0.0062 -0.9972 -0.0751
vn 0.5817 -0.1918 -0.7905
vn -0.9263 -0.3760 0.0236
vn -0.4063 0.9101 0.0813
vn -0.1830 0.3866 -0.9039
vn -0.6755 0.4287 -0.6000
vn -0.8595 0.3204 -0.3983
vn -0.7061 0.6453 0.2915
vn -0.1392 0.9107 0.3890
vn -0.9321 0.3565 -0.0641
vn -0.6643 0.5936 0.4543
vn -0.9379 0.3468 -0.0065
vn -0.6656 0.5498 0.5047
vn -0.9382 0.3441 0.0368
vn -0.8726 -0.0110 -0.4883
vn -0.8921 -0.0207 -0.4513
vn -0.6495 0.2079 0.7314
vn -0.9556 0.2474 0.1599
vn -0.1838 0.5745 0.7976
vn -0.2404 0.2921 0.9257
vn -0.8919 -0.2163 0.3972
vn -0.2281 -0.8578 0.4607
vn 0.2100 -0.2461 0.9462
vn 0.6420 -0.7556 -0.1301
vn 0.8131 -0.2586 0.5216
vn -0.3660 -0.7322 -0.5744
vn -0.2692 -0.5061 -0.8194
vn 0.7119 -0.5777 -0.3993
vn -0.9472 -0.1829 -0.2633
vn 0.4256 0.2377 0.8732
vn 0.9278 -0.1357 0.3474
vn 0.4835 0.3538 0.8007
vn 0.9516 -0.1215 0.2823
vn 0.4914 0.4400 0.7516
vn -0.1831 0.6607 0.7280
vn 0.9837 0.1050 0.1459
vn 0.4267 0.7853 0.4485
vn -0.2456 -0.3940 -0.8857
vn -0.8417 -0.0053 -0.5398
vn 0.6462 -0.5020 -0.5748
vn -0.5080 0.8549 -0.1052
vn -0.7585 0.5602 0.3329
vn 0.8949 -0.2481 0.3710
vn 0.8745 -0.4704 -0.1180
vn 0.0977 -0.9616 0.2564
vn -0.2611 -0.4715 -0.8423
vn 0.6774 -0.5679 -0.4675
vn 0.6285 0.0944 0.7721
vn 0.7100 -0.3412 0.6160
vn 0.7572 -0.6415 0.1228
vn 0.9228 0.2197 0.3166
vn 0.2280 -0.9343 -0.2741
vn -0.9820 0.1258 0.1410
s 1
f 3//1 5//2 4//3 2//4
f 4//3 5//2 7//5 6//6
f 9//7 4//3 6//6 8//8
f 11//9 9//7 8//8 10//10
f 8//8 13//11 12//12 10//10
f 13//11 15//13 14//14 12//12
f 14//14 15//13 17//15 16//16
f 16//16 17//15 19//17 18//18
f 17//15 21//19 20//20 19//17
f 21//19 22//21 20//20
f 25//22 24//23 23//24
f 27//25 16//16 18//18 26//26
f 26//26 18//18 29//27 28//28
f 29//27 31//29 30//30 28//28
f 31//29 11//9 33//31 32//32
f 30//30 31//29 32//32
f 33//31 35//33 34//34 32//32
f 34//34 38//35 37//36 36//37
f 32//32 34//34 36//37
f 37//36 38//35 39//38
f 41//39 37//36 39//38 40//40
f 43//41 41//39 40//40 42//42
f 40//40 45//43 44//44 42//42
f 47//45 43//41 42//42 46//46
f 49//47 43//41 47//45 48//48
f 52//49 51//50 50//51 48//48
f 47//45 52//49 48//48
f 50//51 51//50 54//52 53//53
f 51//50 55//54 54//52
f 55//54 57//55 56//56 54//52
f 58//57 44//44 57//55 55//54
f 59//58 50//51 53//53
f 61//59 60//60 59//58 53//53
f 63//61 62//62 60//60 61//59
f 60//60 62//62 64//63 49//47
f 66//64 65//65 62//62 63//61
f 54//52 56//56 61//59 53//53
f 50//51 59//58 48//48
f 52//49 47//45 46//46
f 58//57 52//49 46//46
f 38//35 34//34 27//25 67//66
f 68//67 38//35 67//66
f 28//28 30//30 65//65 66//64
f 69//68 26//26 28//28 66//64
f 67//66 27//25 26//26 69//68
f 33//31 11//9 10//10
f 25//22 71//69 70//70
f 25//22 23//24 22//21 21//19
f 71//69 25//22 21//19
f 24//23 25//22 70//70 6//6
f 7//5 24//23 6//6
f 15//13 71//69 21//19 17//15
f 6//6 70//70 13//11 8//8
f 19//17 20//20 1//71 72//72
f 2//4 4//3 9//7 73//73
f 1//71 2//4 73//73 72//72
f 14//14 35//33 12//12
f 14//14 16//16 27//25 34//34
f 35//33 14//14 34//34
f 12//12 35//33 33//31 10//10
f 18//18 19//17 72//72 29//27
f 73//73 9//7 11//9 31//29
f 72//72 73//73 31//29 29//27
f 38//35 68//67 39//38
f 65//65 30//30 32//32 36//37
f 45//43 68//67 67//66 74//74
f 39//38 68//67 45//43 40//40
f 74//74 67//66 69//68 75//75
f 36//37 37//36 41//39 64//63
f 62//62 65//65 36//37 64//63
f 75//75 69//68 66//64 63//61
f 44//44 45//43 74//74 57//55
f 42//42 44//44 58//57 46//46
f 51//50 52//49 58//57 55//54
f 57//55 74//74 75//75 56//56
f 64//63 41//39 43//41 49//47
f 59//58 60//60 49//47 48//48
f 56//56 75//75 63//61 61//59
f 70//70 71//69 15//13 13//11
f 1//71 20//76 76//77 2//4
f 5//2 3//1 77//78 78//79 22//21 23//24 24//23 7//5
f 77//78 3//1 2//4 76//77 1//80
f 22//21 78//79 20//20
s 0
f 1//81 77//81 78//81 20//81
