# Blender 5.0.0
# www.blender.org
mtllib Walk_Forward0021.mtl
o Mball.001
v -0.503793 4.207532 0.423954
v -0.332009 4.450274 0.729098
v -0.287657 4.625708 0.627202
v -0.537087 4.784553 0.843383
v -0.482810 5.036790 0.622521
v -0.687730 4.890277 0.807812
v -0.501245 5.106758 0.595484
v -0.819014 4.549273 1.045168
v -0.677053 4.466227 1.062049
v -1.000175 4.231931 1.246170
v -0.886843 4.170755 1.257545
v -1.403008 4.190247 1.045603
v -1.194896 4.537892 0.819976
v -1.426254 4.167655 1.012432
v -1.214902 4.519348 0.793236
v -1.429503 3.845043 0.799297
v -1.232231 4.229623 0.547818
v -1.198377 3.634462 0.739585
v -1.025241 4.009035 0.489507
v -0.872050 4.329352 0.259218
v -1.041010 4.542939 0.317051
v -0.733402 4.834865 0.069958
v -0.628044 5.174665 0.227411
v -0.623690 5.182374 0.237029
v -0.918756 5.011342 0.415422
v -1.205804 3.378668 1.236884
v -1.355049 3.405681 1.295390
v -0.963478 3.655926 1.107820
v -0.812452 3.623106 0.870358
v -0.961711 3.669346 1.238417
v -0.682901 3.862639 1.116071
v -1.145138 3.869955 1.357043
v -1.071108 4.050290 1.292550
v -1.506419 3.689244 1.301506
v -1.463082 4.027331 1.091036
v -1.197688 4.137146 1.470690
v -1.206747 4.136771 1.473933
v -1.476426 3.783952 1.525156
v -1.431193 3.841865 1.637792
v -1.277788 3.990947 1.947396
v -1.051887 4.309392 1.769063
v -1.128292 4.134161 2.253176
v -0.907443 4.422932 2.085071
v -1.136651 4.036095 2.283645
v -1.280780 3.923085 1.967365
v -0.959313 4.260434 2.555861
v -0.782724 4.503182 2.418166
v -0.633562 4.541546 2.347969
v -0.836973 4.445208 2.050758
v -0.383364 4.417006 2.420371
v -0.517620 4.119068 2.778364
v -0.901787 4.272595 2.621718
v -0.348295 4.293529 2.302628
v -0.465096 3.830751 2.477309
v -0.783048 3.786783 2.616481
v -0.612326 3.685568 2.171168
v -0.941729 3.649215 2.312808
v -0.967578 4.191201 2.578315
v -0.408020 4.419724 2.291575
v -0.544088 4.320320 1.968311
v -0.460984 4.118314 1.990997
v -0.687197 4.209033 1.651147
v -0.599681 3.965714 1.683501
v -1.013054 4.325109 1.749203
v -0.851756 4.022564 1.354381
v -0.759847 3.785413 1.376180
v -1.229158 3.424597 1.679530
v -1.430377 3.806369 1.648386
v -0.945238 3.428633 1.564999
v -1.018177 4.854467 0.556236
v -1.023253 4.850684 0.546296
v -0.614286 3.917370 0.654978
v -0.462435 4.149343 0.932027
v -1.084231 3.538953 1.995118
v -0.777876 3.556313 1.867939
v -1.002319 4.437024 0.200979
v -0.412987 4.381699 0.297507
v -0.645599 4.558052 0.042294
vn 0.9395 0.0135 0.3422
vn 0.8115 0.5182 0.2700
vn 0.4981 0.4050 0.7668
vn 0.8602 -0.1703 0.4806
vn 0.3521 0.9284 0.1189
vn -0.1181 0.7042 0.7001
vn 0.4454 0.3134 0.8387
vn -0.1202 0.6025 0.7890
vn 0.3429 0.1831 0.9213
vn -0.1700 0.4743 0.8638
vn -0.6267 0.6518 0.4270
vn -0.6552 0.5392 0.5292
vn -0.8827 0.4645 -0.0714
vn -0.9476 0.3181 -0.0285
vn -0.7900 0.0125 -0.6129
vn -0.8235 -0.2427 -0.5128
vn -0.1942 -0.4972 -0.8456
vn -0.1845 -0.7365 -0.6508
vn -0.7593 0.0717 -0.6467
vn -0.3699 -0.3701 -0.8522
vn -0.0330 0.3362 -0.9412
vn -0.6876 0.7234 -0.0625
vn 0.1975 0.9146 -0.3528
vn 0.1086 0.6776 -0.7273
vn -0.6609 -0.7495 -0.0396
vn 0.0433 -0.9657 -0.2561
vn 0.5272 -0.8123 -0.2495
vn 0.6121 -0.7799 -0.1309
vn 0.7257 -0.3802 0.5734
vn 0.9668 0.0459 -0.2512
vn -0.0560 0.2523 0.9660
vn -0.2586 0.9338 -0.2474
vn -0.8002 -0.5966 -0.0612
vn -0.9976 0.0100 0.0685
vn -0.9832 0.1116 0.1447
vn -0.7180 0.6859 -0.1188
vn -0.3187 0.7460 -0.5848
vn -0.9015 0.3790 0.2091
vn -0.6096 0.7892 -0.0741
vn -0.8825 0.4052 0.2386
vn -0.5723 0.8200 -0.0048
vn -0.8633 0.4322 0.2607
vn -0.8858 -0.1119 0.4503
vn -0.8742 -0.0861 0.4778
vn -0.2798 0.8568 0.4331
vn -0.7829 0.4798 0.3960
vn -0.0581 0.9550 -0.2909
vn 0.1108 0.9852 0.1306
vn -0.4153 0.4327 0.8002
vn 0.3912 0.0508 0.9189
vn 0.7249 0.5895 0.3565
vn 0.7474 -0.6056 0.2733
vn 0.9916 0.0421 -0.1220
vn -0.2096 -0.6506 0.7299
vn -0.3478 -0.7904 0.5044
vn 0.6412 -0.7664 0.0392
vn -0.7352 -0.0071 0.6778
vn 0.6675 0.6767 -0.3106
vn 0.9277 -0.0641 -0.3677
vn 0.5942 0.6324 -0.4970
vn 0.9054 -0.1129 -0.4093
vn 0.5322 0.6191 -0.5775
vn -0.1317 0.9144 -0.3827
vn 0.7969 -0.1343 -0.5889
vn 0.2887 0.5188 -0.8047
vn -0.4335 -0.8250 0.3625
vn -0.8954 -0.1566 0.4168
vn 0.4861 -0.8730 -0.0410
vn -0.8745 0.4780 -0.0823
vn -0.6090 0.7061 0.3614
vn 0.6648 -0.2272 -0.7116
vn 0.6157 -0.6608 -0.4292
vn 0.8842 -0.2266 0.4086
vn -0.3746 -0.7987 0.4709
vn 0.5880 -0.8080 0.0369
vn 0.5285 0.4463 -0.7222
vn 0.8883 -0.1280 -0.4410
vn 0.9179 -0.3967 0.0088
vn 0.2394 0.1098 -0.9647
vn 0.1758 -0.7907 0.5864
vn -0.1384 0.7033 0.6973
s 1
f 3//1 5//2 4//3 2//4
f 4//3 5//2 7//5 6//6
f 9//7 4//3 6//6 8//8
f 11//9 9//7 8//8 10//10
f 8//8 13//11 12//12 10//10
f 13//11 15//13 14//14 12//12
f 14//14 15//13 17//15 16//16
f 16//16 17//15 19//17 18//18
f 17//15 21//19 20//20 19//17
f 21//19 22//21 20//20
f 25//22 24//23 23//24
f 27//25 16//16 18//18 26//26
f 26//26 18//18 29//27 28//28
f 29//27 31//29 30//30 28//28
f 31//29 11//9 33//31 32//32
f 30//30 31//29 32//32
f 33//31 35//33 34//34 32//32
f 34//34 38//35 37//36 36//37
f 32//32 34//34 36//37
f 37//36 38//35 39//38
f 41//39 37//36 39//38 40//40
f 43//41 41//39 40//40 42//42
f 40//40 45//43 44//44 42//42
f 47//45 43//41 42//42 46//46
f 49//47 43//41 47//45 48//48
f 52//49 51//50 50//51 48//48
f 47//45 52//49 48//48
f 50//51 51//50 54//52 53//53
f 51//50 55//54 54//52
f 55//54 57//55 56//56 54//52
f 58//57 44//44 57//55 55//54
f 59//58 50//51 53//53
f 61//59 60//60 59//58 53//53
f 63//61 62//62 60//60 61//59
f 60//60 62//62 64//63 49//47
f 66//64 65//65 62//62 63//61
f 54//52 56//56 61//59 53//53
f 50//51 59//58 48//48
f 52//49 47//45 46//46
f 58//57 52//49 46//46
f 38//35 34//34 27//25 67//66
f 68//67 38//35 67//66
f 28//28 30//30 65//65 66//64
f 69//68 26//26 28//28 66//64
f 67//66 27//25 26//26 69//68
f 33//31 11//9 10//10
f 25//22 71//69 70//70
f 25//22 23//24 22//21 21//19
f 71//69 25//22 21//19
f 24//23 25//22 70//70 6//6
f 7//5 24//23 6//6
f 15//13 71//69 21//19 17//15
f 6//6 70//70 13//11 8//8
f 19//17 20//20 1//71 72//72
f 2//4 4//3 9//7 73//73
f 1//71 2//4 73//73 72//72
f 14//14 35//33 12//12
f 14//14 16//16 27//25 34//34
f 35//33 14//14 34//34
f 12//12 35//33 33//31 10//10
f 18//18 19//17 72//72 29//27
f 73//73 9//7 11//9 31//29
f 72//72 73//73 31//29 29//27
f 38//35 68//67 39//38
f 65//65 30//30 32//32 36//37
f 45//43 68//67 67//66 74//74
f 39//38 68//67 45//43 40//40
f 74//74 67//66 69//68 75//75
f 36//37 37//36 41//39 64//63
f 62//62 65//65 36//37 64//63
f 75//75 69//68 66//64 63//61
f 44//44 45//43 74//74 57//55
f 42//42 44//44 58//57 46//46
f 51//50 52//49 58//57 55//54
f 57//55 74//74 75//75 56//56
f 64//63 41//39 43//41 49//47
f 59//58 60//60 49//47 48//48
f 56//56 75//75 63//61 61//59
f 70//70 71//69 15//13 13//11
f 1//71 20//76 76//77 2//4
f 5//2 3//1 77//78 78//79 22//21 23//24 24//23 7//5
f 77//78 3//1 2//4 76//77 1//80
f 22//21 78//79 20//20
s 0
f 1//81 77//81 78//81 20//81
