# Blender 5.0.0
# www.blender.org
mtllib Walk_Forward0028.mtl
o Mball.001
v -0.559463 4.200074 0.338760
v -0.433744 4.379784 0.682560
v -0.337670 4.602291 0.619075
v -0.641523 4.709996 0.800369
v -0.515608 5.036784 0.596676
v -0.780735 4.830746 0.754531
v -0.529974 5.109285 0.567372
v -0.974447 4.456821 0.929555
v -0.841610 4.360022 0.955973
v -1.206735 4.122977 1.064058
v -1.099980 4.051059 1.083320
v -1.568375 4.150829 0.810714
v -1.302798 4.516359 0.656419
v -1.585859 4.136312 0.772298
v -1.318310 4.504406 0.625394
v -1.564806 3.855035 0.526477
v -1.302484 4.262702 0.349585
v -1.336847 3.637492 0.473138
v -1.097886 4.037683 0.295398
v -0.890451 4.375799 0.133927
v -1.058716 4.591142 0.188849
v -0.712357 4.873405 0.017254
v -0.625095 5.188568 0.189773
v -0.621513 5.195879 0.199703
v -0.940909 5.022925 0.345490
v -1.444490 3.300282 0.929599
v -1.597939 3.331392 0.978539
v -1.174855 3.572242 0.851408
v -0.982655 3.570404 0.649508
v -1.194183 3.564587 0.990429
v -0.887882 3.753944 0.936272
v -1.386322 3.758387 1.109032
v -1.294173 3.941305 1.078369
v -1.733642 3.623899 1.000138
v -1.644545 3.987176 0.831076
v -1.420745 4.013603 1.235332
v -1.429891 4.013624 1.237835
v -1.722275 3.681642 1.233614
v -1.685189 3.718450 1.354979
v -1.556006 3.806468 1.687671
v -1.292900 4.128028 1.559052
v -1.431093 3.889376 2.015002
v -1.175935 4.180492 1.893232
v -1.448727 3.788516 2.034960
v -1.565317 3.736589 1.700585
v -1.287552 3.954234 2.339062
v -1.082446 4.199225 2.239609
v -0.924455 4.234310 2.184963
v -1.100913 4.201348 1.866684
v -0.691383 4.077889 2.262914
v -0.881270 3.741707 2.577939
v -1.236654 3.951331 2.409614
v -0.651724 3.970043 2.137065
v -0.815055 3.496400 2.256081
v -1.148366 3.460596 2.365905
v -0.937802 3.411393 1.928369
v -1.282275 3.383784 2.040528
v -1.302450 3.883099 2.353911
v -0.702025 4.101946 2.134011
v -0.809022 4.063806 1.794652
v -0.741448 3.853038 1.803553
v -0.924398 4.013623 1.459646
v -0.856038 3.760128 1.474409
v -1.251244 4.143069 1.543816
v -1.070194 3.887219 1.135878
v -0.993972 3.641570 1.140864
v -1.514468 3.281350 1.371266
v -1.687571 3.681725 1.362207
v -1.220058 3.277002 1.279402
v -1.066654 4.857259 0.458599
v -1.070180 4.855325 0.447742
v -0.728707 3.883680 0.502816
v -0.620719 4.051517 0.821283
v -1.396928 3.334641 1.705147
v -1.078064 3.343358 1.603734
v -1.002319 4.437024 0.200979
v -0.427920 4.393210 0.265349
v -0.626423 4.598311 -0.010606
vn 0.8870 -0.0656 0.4571
vn 0.7691 0.4584 0.4454
vn 0.3466 0.2763 0.8964
vn 0.7642 -0.2730 0.5844
vn 0.3540 0.9109 0.2120
vn -0.1940 0.6200 0.7603
vn 0.3168 0.1776 0.9317
vn -0.2009 0.5060 0.8388
vn 0.2099 0.0515 0.9764
vn -0.2604 0.3798 0.8877
vn -0.6420 0.6401 0.4220
vn -0.6907 0.5247 0.4977
vn -0.8364 0.5295 -0.1420
vn -0.9133 0.3834 -0.1377
vn -0.6788 0.1336 -0.7220
vn -0.7428 -0.1190 -0.6589
vn -0.0891 -0.3723 -0.9238
vn -0.1311 -0.6205 -0.7732
vn -0.6504 0.1790 -0.7382
vn -0.2453 -0.2494 -0.9368
vn 0.1025 0.3900 -0.9151
vn -0.6378 0.7673 -0.0664
vn 0.2517 0.9279 -0.2752
vn 0.2061 0.7040 -0.6796
vn -0.6934 -0.6825 -0.2313
vn 0.0044 -0.9113 -0.4117
vn 0.5075 -0.8114 -0.2900
vn 0.5586 -0.8037 -0.2051
vn 0.6090 -0.4994 0.6162
vn 0.9838 -0.0182 -0.1781
vn -0.1716 0.1486 0.9739
vn -0.2188 0.9600 -0.1748
vn -0.8577 -0.4372 -0.2706
vn -0.9952 0.0759 -0.0624
vn -0.9838 0.1660 0.0678
vn -0.6569 0.7498 -0.0796
vn -0.2150 0.8309 -0.5132
vn -0.8885 0.4208 0.1832
vn -0.5417 0.8405 -0.0073
vn -0.8692 0.4441 0.2176
vn -0.5070 0.8591 0.0695
vn -0.8495 0.4678 0.2440
vn -0.9339 -0.0901 0.3461
vn -0.9229 -0.0686 0.3789
vn -0.2544 0.8162 0.5188
vn -0.7751 0.4948 0.3928
vn 0.0413 0.9885 -0.1456
vn 0.1733 0.9460 0.2740
vn -0.4453 0.3747 0.8132
vn 0.3080 -0.0860 0.9475
vn 0.7237 0.4800 0.4958
vn 0.6775 -0.6901 0.2544
vn 0.9995 -0.0210 -0.0221
vn -0.3238 -0.7154 0.6191
vn -0.4558 -0.8190 0.3485
vn 0.5777 -0.8160 -0.0192
vn -0.7948 -0.0211 0.6065
vn 0.7440 0.6531 -0.1410
vn 0.9530 -0.0964 -0.2871
vn 0.6896 0.6393 -0.3403
vn 0.9306 -0.1376 -0.3391
vn 0.6327 0.6420 -0.4330
vn -0.0277 0.9667 -0.2546
vn 0.8290 -0.1258 -0.5449
vn 0.3859 0.5855 -0.7130
vn -0.5287 -0.8270 0.1913
vn -0.9431 -0.1312 0.3055
vn 0.4202 -0.8981 -0.1297
vn -0.8304 0.5386 -0.1428
vn -0.6071 0.7046 0.3674
vn 0.7710 -0.0807 -0.6317
vn 0.6329 -0.6451 -0.4281
vn 0.7926 -0.3388 0.5070
vn -0.4800 -0.8210 0.3090
vn 0.5210 -0.8529 -0.0337
vn 0.5262 0.7257 -0.4433
vn 0.8313 0.4409 -0.3383
vn 0.8952 -0.4457 0.0015
vn 0.4004 0.1488 -0.9042
vn 0.2495 -0.8748 0.4152
vn -0.2363 0.6180 0.7498
s 1
f 3//1 5//2 4//3 2//4
f 4//3 5//2 7//5 6//6
f 9//7 4//3 6//6 8//8
f 11//9 9//7 8//8 10//10
f 8//8 13//11 12//12 10//10
f 13//11 15//13 14//14 12//12
f 14//14 15//13 17//15 16//16
f 16//16 17//15 19//17 18//18
f 17//15 21//19 20//20 19//17
f 21//19 22//21 20//20
f 25//22 24//23 23//24
f 27//25 16//16 18//18 26//26
f 26//26 18//18 29//27 28//28
f 29//27 31//29 30//30 28//28
f 31//29 11//9 33//31 32//32
f 30//30 31//29 32//32
f 33//31 35//33 34//34 32//32
f 34//34 38//35 37//36 36//37
f 32//32 34//34 36//37
f 37//36 38//35 39//38
f 41//39 37//36 39//38 40//40
f 43//41 41//39 40//40 42//42
f 40//40 45//43 44//44 42//42
f 47//45 43//41 42//42 46//46
f 49//47 43//41 47//45 48//48
f 52//49 51//50 50//51 48//48
f 47//45 52//49 48//48
f 50//51 51//50 54//52 53//53
f 51//50 55//54 54//52
f 55//54 57//55 56//56 54//52
f 58//57 44//44 57//55 55//54
f 59//58 50//51 53//53
f 61//59 60//60 59//58 53//53
f 63//61 62//62 60//60 61//59
f 60//60 62//62 64//63 49//47
f 66//64 65//65 62//62 63//61
f 54//52 56//56 61//59 53//53
f 50//51 59//58 48//48
f 52//49 47//45 46//46
f 58//57 52//49 46//46
f 38//35 34//34 27//25 67//66
f 68//67 38//35 67//66
f 28//28 30//30 65//65 66//64
f 69//68 26//26 28//28 66//64
f 67//66 27//25 26//26 69//68
f 33//31 11//9 10//10
f 25//22 71//69 70//70
f 25//22 23//24 22//21 21//19
f 71//69 25//22 21//19
f 24//23 25//22 70//70 6//6
f 7//5 24//23 6//6
f 15//13 71//69 21//19 17//15
f 6//6 70//70 13//11 8//8
f 19//17 20//20 1//71 72//72
f 2//4 4//3 9//7 73//73
f 1//71 2//4 73//73 72//72
f 14//14 35//33 12//12
f 14//14 16//16 27//25 34//34
f 35//33 14//14 34//34
f 12//12 35//33 33//31 10//10
f 18//18 19//17 72//72 29//27
f 73//73 9//7 11//9 31//29
f 72//72 73//73 31//29 29//27
f 38//35 68//67 39//38
f 65//65 30//30 32//32 36//37
f 45//43 68//67 67//66 74//74
f 39//38 68//67 45//43 40//40
f 74//74 67//66 69//68 75//75
f 36//37 37//36 41//39 64//63
f 62//62 65//65 36//37 64//63
f 75//75 69//68 66//64 63//61
f 44//44 45//43 74//74 57//55
f 42//42 44//44 58//57 46//46
f 51//50 52//49 58//57 55//54
f 57//55 74//74 75//75 56//56
f 64//63 41//39 43//41 49//47
f 59//58 60//60 49//47 48//48
f 56//56 75//75 63//61 61//59
f 70//70 71//69 15//13 13//11
f 1//71 20//76 76//77 2//4
f 5//2 3//1 77//78 78//79 22//21 23//24 24//23 7//5
f 77//78 3//1 2//4 76//77 1//80
f 22//21 78//79 20//20
s 0
f 1//81 77//81 78//81 20//81
