# Blender 5.0.0
# www.blender.org
mtllib Walk_Forward0019.mtl
o Mball.001
v -0.603580 4.207087 0.229356
v -0.545878 4.309994 0.600277
v -0.399088 4.574340 0.599236
v -0.761245 4.631852 0.720960
v -0.552723 5.036364 0.562980
v -0.885067 4.769588 0.667353
v -0.561781 5.111967 0.531946
v -1.134071 4.374723 0.753818
v -1.013778 4.262372 0.787620
v -1.406837 4.038416 0.799543
v -1.309348 3.954286 0.825206
v -1.704668 4.150411 0.502694
v -1.392359 4.519255 0.444367
v -1.713554 4.145787 0.460500
v -1.401109 4.515370 0.410189
v -1.650813 3.918569 0.187423
v -1.333933 4.334069 0.112520
v -1.425593 3.695575 0.139936
v -1.130728 4.106074 0.062127
v -0.880297 4.447146 -0.007445
v -1.049165 4.662747 0.044354
v -0.679565 4.918245 -0.035411
v -0.618478 5.203556 0.147627
v -0.615852 5.210418 0.157773
v -0.956674 5.040425 0.261696
v -1.640934 3.279241 0.519457
v -1.798383 3.313272 0.557083
v -1.352773 3.538950 0.504373
v -1.121167 3.561433 0.355125
v -1.401068 3.504022 0.646031
v -1.082180 3.673986 0.674895
v -1.606611 3.686769 0.761860
v -1.503617 3.864462 0.773748
v -1.922984 3.608407 0.600645
v -1.792041 3.991541 0.490779
v -1.626416 3.921351 0.907981
v -1.635556 3.921709 0.909690
v -1.939005 3.620082 0.839046
v -1.915259 3.630407 0.967353
v -1.824159 3.643689 1.317380
v -1.530181 3.963283 1.253620
v -1.737198 3.653267 1.660227
v -1.453552 3.942205 1.598765
v -1.762453 3.551500 1.665925
v -1.838658 3.573113 1.320687
v -1.632281 3.644121 1.999293
v -1.403506 3.887505 1.949690
v -1.238039 3.919339 1.914241
v -1.374687 3.961572 1.581857
v -1.024756 3.731063 1.992257
v -1.270357 3.355775 2.243868
v -1.590830 3.623716 2.072761
v -0.975143 3.645203 1.858878
v -1.176821 3.169190 1.903380
v -1.523230 3.140745 1.977482
v -1.261695 3.157435 1.560093
v -1.619046 3.137555 1.636508
v -1.652632 3.572404 2.003854
v -1.017808 3.780017 1.867595
v -1.083149 3.815371 1.519996
v -1.028184 3.600255 1.508887
v -1.157979 3.838724 1.174459
v -1.105194 3.580301 1.163945
v -1.486149 3.977542 1.244169
v -1.270949 3.786775 0.827395
v -1.206393 3.537782 0.809084
v -1.770338 3.182196 0.945789
v -1.920320 3.593042 0.969948
v -1.466878 3.170877 0.880982
v -1.105515 4.871336 0.337030
v -1.106900 4.871593 0.325654
v -0.821881 3.878574 0.301283
v -0.780381 3.967365 0.650057
v -1.693058 3.161943 1.290793
v -1.363451 3.163285 1.220361
v -1.002319 4.437024 0.200979
v -0.440376 4.407969 0.228043
v -0.594234 4.646456 -0.063147
vn 0.8042 -0.1498 0.5752
vn 0.6937 0.3861 0.6080
vn 0.1575 0.1421 0.9772
vn 0.6518 -0.3700 0.6620
vn 0.3515 0.8795 0.3208
vn -0.2938 0.5272 0.7974
vn 0.1482 0.0261 0.9886
vn -0.3135 0.3968 0.8627
vn 0.0396 -0.0971 0.9945
vn -0.3831 0.2727 0.8825
vn -0.6675 0.6215 0.4102
vn -0.7342 0.5065 0.4521
vn -0.7723 0.6035 -0.1986
vn -0.8540 0.4612 -0.2407
vn -0.5300 0.2741 -0.8025
vn -0.6187 0.0287 -0.7851
vn 0.0569 -0.2312 -0.9712
vn -0.0343 -0.4755 -0.8790
vn -0.5058 0.3037 -0.8074
vn -0.0777 -0.1123 -0.9906
vn 0.2590 0.4473 -0.8561
vn -0.5804 0.8124 -0.0556
vn 0.3008 0.9373 -0.1762
vn 0.3113 0.7310 -0.6072
vn -0.6820 -0.5814 -0.4437
vn 0.0085 -0.8133 -0.5817
vn 0.5016 -0.7954 -0.3402
vn 0.5193 -0.7976 -0.3068
vn 0.4656 -0.6335 0.6180
vn 0.9888 -0.1027 -0.1086
vn -0.3191 0.0318 0.9472
vn -0.1853 0.9791 -0.0841
vn -0.8436 -0.2745 -0.4615
vn -0.9678 0.1584 -0.1957
vn -0.9754 0.2202 -0.0134
vn -0.6001 0.7999 -0.0061
vn -0.1098 0.9142 -0.3902
vn -0.8770 0.4516 0.1638
vn -0.4832 0.8699 0.0987
vn -0.8584 0.4706 0.2044
vn -0.4541 0.8725 0.1801
vn -0.8393 0.4900 0.2355
vn -0.9738 -0.0679 0.2170
vn -0.9655 -0.0520 0.2550
vn -0.2557 0.7438 0.6176
vn -0.7761 0.4916 0.3949
vn 0.1201 0.9912 0.0563
vn 0.2026 0.8706 0.4483
vn -0.4981 0.2911 0.8168
vn 0.1974 -0.2456 0.9490
vn 0.6862 0.3444 0.6407
vn 0.6068 -0.7692 0.2005
vn 0.9925 -0.0887 0.0846
vn -0.4370 -0.7779 0.4516
vn -0.5469 -0.8267 0.1320
vn 0.5244 -0.8438 -0.1139
vn -0.8602 -0.0448 0.5080
vn 0.7920 0.6065 0.0704
vn 0.9730 -0.1254 -0.1937
vn 0.7661 0.6293 -0.1307
vn 0.9539 -0.1566 -0.2559
vn 0.7204 0.6534 -0.2326
vn 0.0625 0.9958 -0.0665
vn 0.8698 -0.1024 -0.4826
vn 0.4856 0.6627 -0.5701
vn -0.5981 -0.8008 -0.0321
vn -0.9803 -0.1032 0.1682
vn 0.3723 -0.8927 -0.2538
vn -0.7708 0.6073 -0.1927
vn -0.6110 0.6969 0.3755
vn 0.8857 0.0238 -0.4637
vn 0.6622 -0.6205 -0.4200
vn 0.6684 -0.4670 0.5789
vn -0.5656 -0.8201 0.0871
vn 0.4661 -0.8732 -0.1425
vn 0.5022 0.8608 -0.0821
vn 0.7720 0.6353 0.0208
vn 0.8814 -0.4723 0.0092
vn 0.5797 0.1879 -0.7929
vn 0.2980 -0.9194 0.2568
vn -0.3663 0.5210 0.7709
s 1
f 3//1 5//2 4//3 2//4
f 4//3 5//2 7//5 6//6
f 9//7 4//3 6//6 8//8
f 11//9 9//7 8//8 10//10
f 8//8 13//11 12//12 10//10
f 13//11 15//13 14//14 12//12
f 14//14 15//13 17//15 16//16
f 16//16 17//15 19//17 18//18
f 17//15 21//19 20//20 19//17
f 21//19 22//21 20//20
f 25//22 24//23 23//24
f 27//25 16//16 18//18 26//26
f 26//26 18//18 29//27 28//28
f 29//27 31//29 30//30 28//28
f 31//29 11//9 33//31 32//32
f 30//30 31//29 32//32
f 33//31 35//33 34//34 32//32
f 34//34 38//35 37//36 36//37
f 32//32 34//34 36//37
f 37//36 38//35 39//38
f 41//39 37//36 39//38 40//40
f 43//41 41//39 40//40 42//42
f 40//40 45//43 44//44 42//42
f 47//45 43//41 42//42 46//46
f 49//47 43//41 47//45 48//48
f 52//49 51//50 50//51 48//48
f 47//45 52//49 48//48
f 50//51 51//50 54//52 53//53
f 51//50 55//54 54//52
f 55//54 57//55 56//56 54//52
f 58//57 44//44 57//55 55//54
f 59//58 50//51 53//53
f 61//59 60//60 59//58 53//53
f 63//61 62//62 60//60 61//59
f 60//60 62//62 64//63 49//47
f 66//64 65//65 62//62 63//61
f 54//52 56//56 61//59 53//53
f 50//51 59//58 48//48
f 52//49 47//45 46//46
f 58//57 52//49 46//46
f 38//35 34//34 27//25 67//66
f 68//67 38//35 67//66
f 28//28 30//30 65//65 66//64
f 69//68 26//26 28//28 66//64
f 67//66 27//25 26//26 69//68
f 33//31 11//9 10//10
f 25//22 71//69 70//70
f 25//22 23//24 22//21 21//19
f 71//69 25//22 21//19
f 24//23 25//22 70//70 6//6
f 7//5 24//23 6//6
f 15//13 71//69 21//19 17//15
f 6//6 70//70 13//11 8//8
f 19//17 20//20 1//71 72//72
f 2//4 4//3 9//7 73//73
f 1//71 2//4 73//73 72//72
f 14//14 35//33 12//12
f 14//14 16//16 27//25 34//34
f 35//33 14//14 34//34
f 12//12 35//33 33//31 10//10
f 18//18 19//17 72//72 29//27
f 73//73 9//7 11//9 31//29
f 72//72 73//73 31//29 29//27
f 38//35 68//67 39//38
f 65//65 30//30 32//32 36//37
f 45//43 68//67 67//66 74//74
f 39//38 68//67 45//43 40//40
f 74//74 67//66 69//68 75//75
f 36//37 37//36 41//39 64//63
f 62//62 65//65 36//37 64//63
f 75//75 69//68 66//64 63//61
f 44//44 45//43 74//74 57//55
f 42//42 44//44 58//57 46//46
f 51//50 52//49 58//57 55//54
f 57//55 74//74 75//75 56//56
f 64//63 41//39 43//41 49//47
f 59//58 60//60 49//47 48//48
f 56//56 75//75 63//61 61//59
f 70//70 71//69 15//13 13//11
f 1//71 20//76 76//77 2//4
f 5//2 3//1 77//78 78//79 22//21 23//24 24//23 7//5
f 77//78 3//1 2//4 76//77 1//80
f 22//21 78//79 20//20
s 0
f 1//81 77//81 78//81 20//81
