# Blender 5.0.0
# www.blender.org
mtllib Walk_Forward0022.mtl
o Mball.001
v -0.451471 4.221478 0.482088
v -0.253777 4.509199 0.749749
v -0.251553 4.642579 0.628777
v -0.459074 4.844433 0.861462
v -0.456918 5.036289 0.640985
v -0.616906 4.938601 0.835902
v -0.478120 5.104450 0.616119
v -0.693391 4.631436 1.110760
v -0.545896 4.558968 1.118426
v -0.826974 4.335307 1.354750
v -0.709790 4.282366 1.358669
v -1.251086 4.243259 1.202720
v -1.095862 4.568300 0.931301
v -1.277519 4.214910 1.174600
v -1.118319 4.545045 0.908655
v -1.291386 3.864681 0.990617
v -1.153057 4.221953 0.692160
v -1.057682 3.660863 0.924760
v -0.943739 4.005966 0.629740
v -0.841042 4.303524 0.355060
v -1.011148 4.514741 0.415642
v -0.744166 4.805676 0.114929
v -0.628349 5.163245 0.257648
v -0.623442 5.171257 0.266953
v -0.896589 5.004310 0.467811
v -0.987086 3.474226 1.436963
v -1.132421 3.497055 1.502927
v -0.772424 3.752384 1.271937
v -0.655783 3.690109 1.014077
v -0.757340 3.779977 1.392962
v -0.509026 3.968330 1.222229
v -0.935875 3.983844 1.510839
v -0.880562 4.157830 1.423182
v -1.298812 3.769648 1.500320
v -1.295288 4.083867 1.264965
v -1.005035 4.256671 1.618521
v -1.013948 4.255925 1.622375
v -1.258099 3.890493 1.713886
v -1.208937 3.963256 1.818657
v -1.043148 4.156349 2.106797
v -0.851818 4.469705 1.894869
v -0.880726 4.343281 2.392201
v -0.691776 4.627897 2.192672
v -0.880541 4.248542 2.429341
v -1.040325 4.090870 2.131214
v -0.698064 4.514450 2.674406
v -0.547978 4.753445 2.510839
v -0.407171 4.794703 2.429276
v -0.625602 4.651390 2.152728
v -0.144833 4.697077 2.493682
v -0.232892 4.430568 2.877167
v -0.636683 4.537980 2.735501
v -0.110826 4.563909 2.382417
v -0.184654 4.114608 2.593225
v -0.487980 4.063097 2.754247
v -0.344723 3.925843 2.307448
v -0.659747 3.881341 2.471146
v -0.700216 4.447497 2.701712
v -0.179123 4.683797 2.367009
v -0.332267 4.539466 2.060559
v -0.235012 4.347198 2.090966
v -0.491210 4.383482 1.761379
v -0.386217 4.151531 1.803788
v -0.815643 4.485967 1.871690
v -0.663534 4.154184 1.488228
v -0.556759 3.926972 1.520068
v -0.978630 3.567369 1.874036
v -1.205207 3.929101 1.831346
v -0.704806 3.579422 1.742210
v -0.972549 4.857606 0.626196
v -0.978578 4.852463 0.617216
v -0.508817 3.960492 0.754940
v -0.333262 4.237983 0.992456
v -0.818190 3.726362 2.171339
v -0.523823 3.751899 2.024680
v -1.002319 4.437024 0.200979
v -0.398636 4.373580 0.322221
v -0.654070 4.528336 0.087304
vn 0.9660 0.0845 0.2444
vn 0.8231 0.5581 0.1049
vn 0.5964 0.5111 0.6189
vn 0.9314 -0.0682 0.3574
vn 0.3552 0.9338 0.0429
vn -0.0678 0.7715 0.6327
vn 0.5286 0.4204 0.7374
vn -0.0711 0.6772 0.7324
vn 0.4338 0.2871 0.8541
vn -0.1116 0.5475 0.8293
vn -0.6191 0.6576 0.4293
vn -0.6291 0.5494 0.5499
vn -0.9101 0.4144 -0.0039
vn -0.9605 0.2700 0.0671
vn -0.8602 -0.0802 -0.5037
vn -0.8635 -0.3335 -0.3785
vn -0.2585 -0.5939 -0.7618
vn -0.2030 -0.8165 -0.5405
vn -0.8307 -0.0110 -0.5566
vn -0.4507 -0.4635 -0.7629
vn -0.1371 0.2919 -0.9466
vn -0.7256 0.6863 -0.0510
vn 0.1492 0.9012 -0.4069
vn 0.0300 0.6554 -0.7546
vn -0.6089 -0.7861 0.1061
vn 0.0995 -0.9850 -0.1408
vn 0.5511 -0.8043 -0.2224
vn 0.6617 -0.7445 -0.0889
vn 0.8078 -0.2865 0.5151
vn 0.9452 0.0947 -0.3124
vn 0.0243 0.3345 0.9421
vn -0.2948 0.9074 -0.2994
vn -0.6546 -0.7385 0.1614
vn -0.9839 -0.0353 0.1753
vn -0.9758 0.0654 0.2089
vn -0.7689 0.6259 -0.1306
vn -0.4031 0.6754 -0.6175
vn -0.9107 0.3378 0.2377
vn -0.6686 0.7361 -0.1054
vn -0.8925 0.3659 0.2638
vn -0.6307 0.7748 -0.0430
vn -0.8741 0.3951 0.2826
vn -0.8403 -0.1306 0.5262
vn -0.8292 -0.1020 0.5496
vn -0.3148 0.8728 0.3730
vn -0.7917 0.4570 0.4055
vn -0.1486 0.9137 -0.3783
vn 0.0420 0.9986 0.0314
vn -0.4010 0.4669 0.7881
vn 0.4450 0.1541 0.8822
vn 0.7040 0.6667 0.2449
vn 0.8027 -0.5325 0.2687
vn 0.9747 0.0927 -0.2033
vn -0.1147 -0.5970 0.7940
vn -0.2513 -0.7585 0.6013
vn 0.6965 -0.7146 0.0648
vn -0.6871 -0.0014 0.7265
vn 0.5894 0.6853 -0.4278
vn 0.9018 -0.0348 -0.4307
vn 0.5065 0.6198 -0.5994
vn 0.8815 -0.0883 -0.4638
vn 0.4434 0.5962 -0.6693
vn -0.2228 0.8618 -0.4557
vn 0.7734 -0.1325 -0.6199
vn 0.2098 0.4697 -0.8575
vn -0.3426 -0.8107 0.4748
vn -0.8491 -0.1774 0.4976
vn 0.5475 -0.8368 0.0092
vn -0.9023 0.4305 -0.0251
vn -0.6138 0.7035 0.3582
vn 0.5924 -0.3464 -0.7274
vn 0.6074 -0.6687 -0.4288
vn 0.9404 -0.1396 0.3100
vn -0.2790 -0.7709 0.5726
vn 0.6473 -0.7589 0.0715
vn 0.5030 0.1842 -0.8444
vn 0.7886 -0.4063 -0.4616
vn 0.9479 -0.3185 0.0080
vn 0.1153 0.0769 -0.9903
vn 0.0939 -0.6794 0.7278
vn -0.0745 0.7685 0.6355
s 1
f 3//1 5//2 4//3 2//4
f 4//3 5//2 7//5 6//6
f 9//7 4//3 6//6 8//8
f 11//9 9//7 8//8 10//10
f 8//8 13//11 12//12 10//10
f 13//11 15//13 14//14 12//12
f 14//14 15//13 17//15 16//16
f 16//16 17//15 19//17 18//18
f 17//15 21//19 20//20 19//17
f 21//19 22//21 20//20
f 25//22 24//23 23//24
f 27//25 16//16 18//18 26//26
f 26//26 18//18 29//27 28//28
f 29//27 31//29 30//30 28//28
f 31//29 11//9 33//31 32//32
f 30//30 31//29 32//32
f 33//31 35//33 34//34 32//32
f 34//34 38//35 37//36 36//37
f 32//32 34//34 36//37
f 37//36 38//35 39//38
f 41//39 37//36 39//38 40//40
f 43//41 41//39 40//40 42//42
f 40//40 45//43 44//44 42//42
f 47//45 43//41 42//42 46//46
f 49//47 43//41 47//45 48//48
f 52//49 51//50 50//51 48//48
f 47//45 52//49 48//48
f 50//51 51//50 54//52 53//53
f 51//50 55//54 54//52
f 55//54 57//55 56//56 54//52
f 58//57 44//44 57//55 55//54
f 59//58 50//51 53//53
f 61//59 60//60 59//58 53//53
f 63//61 62//62 60//60 61//59
f 60//60 62//62 64//63 49//47
f 66//64 65//65 62//62 63//61
f 54//52 56//56 61//59 53//53
f 50//51 59//58 48//48
f 52//49 47//45 46//46
f 58//57 52//49 46//46
f 38//35 34//34 27//25 67//66
f 68//67 38//35 67//66
f 28//28 30//30 65//65 66//64
f 69//68 26//26 28//28 66//64
f 67//66 27//25 26//26 69//68
f 33//31 11//9 10//10
f 25//22 71//69 70//70
f 25//22 23//24 22//21 21//19
f 71//69 25//22 21//19
f 24//23 25//22 70//70 6//6
f 7//5 24//23 6//6
f 15//13 71//69 21//19 17//15
f 6//6 70//70 13//11 8//8
f 19//17 20//20 1//71 72//72
f 2//4 4//3 9//7 73//73
f 1//71 2//4 73//73 72//72
f 14//14 35//33 12//12
f 14//14 16//16 27//25 34//34
f 35//33 14//14 34//34
f 12//12 35//33 33//31 10//10
f 18//18 19//17 72//72 29//27
f 73//73 9//7 11//9 31//29
f 72//72 73//73 31//29 29//27
f 38//35 68//67 39//38
f 65//65 30//30 32//32 36//37
f 45//43 68//67 67//66 74//74
f 39//38 68//67 45//43 40//40
f 74//74 67//66 69//68 75//75
f 36//37 37//36 41//39 64//63
f 62//62 65//65 36//37 64//63
f 75//75 69//68 66//64 63//61
f 44//44 45//43 74//74 57//55
f 42//42 44//44 58//57 46//46
f 51//50 52//49 58//57 55//54
f 57//55 74//74 75//75 56//56
f 64//63 41//39 43//41 49//47
f 59//58 60//60 49//47 48//48
f 56//56 75//75 63//61 61//59
f 70//70 71//69 15//13 13//11
f 1//71 20//76 76//77 2//4
f 5//2 3//1 77//78 78//79 22//21 23//24 24//23 7//5
f 77//78 3//1 2//4 76//77 1//80
f 22//21 78//79 20//20
s 0
f 1//81 77//81 78//81 20//81
