# WaveFront *.obj file (generated by Autodesk ATF)

mtllib MenuBox.mtl

g Solid1

v -5.500000 0.000000 -5.500000
v -5.500000 0.000000 5.500000
v -5.500000 6.000000 -5.500000
v -5.500000 6.000000 5.500000
v -5.000000 0.500000 -5.000000
v -5.000000 0.500000 5.000000
v -5.000000 6.000000 -5.000000
v -5.000000 6.000000 5.000000
v 5.000000 0.500000 -5.000000
v 5.000000 0.500000 5.000000
v 5.000000 6.000000 -5.000000
v 5.000000 6.000000 5.000000
v 5.500000 0.000000 -5.500000
v 5.500000 0.000000 5.500000
v 5.500000 6.000000 -5.500000
v 5.500000 6.000000 5.500000
vt 0.000000 0.050000 0.000000
vt 1.000000 0.050000 0.000000
vt 1.000000 0.600000 0.000000
vt 0.000000 0.600000 0.000000
vt 0.000000 0.050000 0.000000
vt 1.000000 0.050000 0.000000
vt 1.000000 0.600000 0.000000
vt 0.000000 0.600000 0.000000
vt 0.000000 0.050000 0.000000
vt 1.000000 0.050000 0.000000
vt 1.000000 0.600000 0.000000
vt 0.000000 0.600000 0.000000
vt 0.000000 0.050000 0.000000
vt 1.000000 0.050000 0.000000
vt 1.000000 0.600000 0.000000
vt 0.000000 0.600000 0.000000
vt 0.000000 0.000000 0.000000
vt 1.100000 0.000000 0.000000
vt 1.100000 0.600000 0.000000
vt 0.000000 0.600000 0.000000
vt 0.000000 0.000000 0.000000
vt 1.100000 0.000000 0.000000
vt 1.100000 0.600000 0.000000
vt 0.000000 0.600000 0.000000
vt 0.000000 0.000000 0.000000
vt 1.100000 0.000000 0.000000
vt 1.100000 0.600000 0.000000
vt 0.000000 0.600000 0.000000
vt 0.000000 0.000000 0.000000
vt 1.100000 0.000000 0.000000
vt 1.100000 0.600000 0.000000
vt 0.000000 0.600000 0.000000
vt 0.550000 0.550000 0.000000
vt -0.550000 0.550000 0.000000
vt -0.550000 -0.550000 0.000000
vt 0.550000 -0.550000 0.000000
vt 0.500000 -0.500000 0.000000
vt -0.500000 -0.500000 0.000000
vt -0.500000 0.500000 0.000000
vt 0.500000 0.500000 0.000000
vt -0.500000 0.500000 0.000000
vt -0.500000 -0.500000 0.000000
vt 0.500000 -0.500000 0.000000
vt 0.500000 0.500000 0.000000
vt 0.550000 0.550000 0.000000
vt -0.550000 0.550000 0.000000
vt -0.550000 -0.550000 0.000000
vt 0.550000 -0.550000 0.000000
vn 0.000000 0.000000 -0.100000
vn 0.000000 0.000000 -0.100000
vn 0.000000 0.000000 -0.100000
vn 0.000000 0.000000 -0.100000
vn 0.100000 0.000000 0.000000
vn 0.100000 0.000000 0.000000
vn 0.100000 0.000000 0.000000
vn 0.100000 0.000000 0.000000
vn -0.100000 0.000000 0.000000
vn -0.100000 0.000000 0.000000
vn -0.100000 0.000000 0.000000
vn -0.100000 0.000000 0.000000
vn 0.000000 0.000000 0.100000
vn 0.000000 0.000000 0.100000
vn 0.000000 0.000000 0.100000
vn 0.000000 0.000000 0.100000
vn 0.000000 0.000000 0.100000
vn 0.000000 0.000000 0.100000
vn 0.000000 0.000000 0.100000
vn 0.000000 0.000000 0.100000
vn -0.100000 0.000000 0.000000
vn -0.100000 0.000000 0.000000
vn -0.100000 0.000000 0.000000
vn -0.100000 0.000000 0.000000
vn 0.000000 0.000000 -0.100000
vn 0.000000 0.000000 -0.100000
vn 0.000000 0.000000 -0.100000
vn 0.000000 0.000000 -0.100000
vn 0.100000 0.000000 0.000000
vn 0.100000 0.000000 0.000000
vn 0.100000 0.000000 0.000000
vn 0.100000 0.000000 0.000000
vn 0.000000 0.100000 0.000000
vn 0.000000 0.100000 0.000000
vn 0.000000 0.100000 0.000000
vn 0.000000 0.100000 0.000000
vn 0.000000 0.100000 0.000000
vn 0.000000 0.100000 0.000000
vn 0.000000 0.100000 0.000000
vn 0.000000 0.100000 0.000000
vn 0.000000 0.100000 0.000000
vn 0.000000 0.100000 0.000000
vn 0.000000 0.100000 0.000000
vn 0.000000 0.100000 0.000000
vn 0.000000 -0.100000 0.000000
vn 0.000000 -0.100000 0.000000
vn 0.000000 -0.100000 0.000000
vn 0.000000 -0.100000 0.000000
usemtl 191,191,191
f 10/1/1 6/2/2 12/4/4
f 12/4/4 6/2/2 8/3/3
f 6/5/5 5/6/6 8/8/8
f 8/8/8 5/6/6 7/7/7
f 9/9/9 10/10/10 11/12/12
f 11/12/12 10/10/10 12/11/11
f 5/13/13 9/14/14 7/16/16
f 7/16/16 9/14/14 11/15/15
f 2/17/17 14/18/18 4/20/20
f 4/20/20 14/18/18 16/19/19
f 1/21/21 2/22/22 3/24/24
f 3/24/24 2/22/22 4/23/23
f 13/25/25 1/26/26 15/28/28
f 15/28/28 1/26/26 3/27/27
f 14/29/29 13/30/30 16/32/32
f 16/32/32 13/30/30 15/31/31
f 4/36/36 16/33/33 12/40/40
f 12/40/40 16/33/33 15/34/34
f 12/40/40 15/34/34 11/39/39
f 11/39/39 15/34/34 3/35/35
f 11/39/39 3/35/35 7/38/38
f 7/38/38 3/35/35 4/36/36
f 7/38/38 4/36/36 8/37/37
f 8/37/37 4/36/36 12/40/40
f 5/42/42 6/43/43 9/41/41
f 9/41/41 6/43/43 10/44/44
f 13/45/45 14/46/46 1/48/48
f 1/48/48 14/46/46 2/47/47
# 16 vertices
# 48 texture params
# 48 normals
# 28 facets

# 1 groups
