# Blender 5.0.0
# www.blender.org
mtllib ball_idle.mtl
o Sphere
v -2.106689 4.866485 2.385744
v -2.214206 4.705277 1.845216
v -2.194791 3.858274 1.385962
v -2.180788 3.303694 1.559436
v -2.106689 2.866485 2.385744
v -2.136182 4.791121 1.997403
v -2.029467 4.494669 1.601692
v -2.048770 4.168385 1.426630
v -1.815576 3.965454 1.426071
v -2.011126 3.669344 1.405358
v -2.017691 3.480596 1.463086
v -2.002128 3.082966 1.758281
v -1.834015 4.645363 1.806640
v -1.862814 3.318015 1.581793
v -1.721447 4.353775 1.591324
v -1.622481 3.777519 1.506097
v -1.678080 3.487501 1.561683
v -1.502296 4.167356 1.636969
v -1.476031 3.661924 1.632423
v -1.573941 3.303596 1.748058
v -1.723082 3.147987 1.793918
v -1.708867 4.701169 1.994686
v -1.419808 4.369755 1.847872
v -1.319281 3.866485 1.762319
v -1.400654 3.481282 1.785289
v -1.897397 2.940134 2.055807
v -1.525433 4.583958 1.988052
v -1.238436 4.063625 1.920530
v -1.238436 3.669344 1.920530
v -1.411148 3.233261 2.026283
v -1.664426 3.031595 2.037783
v -1.805517 4.799373 2.149916
v -1.256463 4.341918 2.124825
v -1.140644 3.866485 2.111103
v -1.188026 3.549827 2.115927
v -1.341917 4.520441 2.335201
v -1.106166 3.981996 2.321219
v -1.330943 3.227517 2.313521
v -1.551594 3.029715 2.394130
v -1.736622 4.791121 2.507107
v -1.554905 4.708498 2.341288
v -1.182861 4.251687 2.460400
v -1.144297 3.573566 2.463718
v -1.938242 2.881538 2.273191
v -1.425116 4.575200 2.579511
v -1.279636 4.363585 2.671063
v -1.163786 4.063625 2.670736
v -1.150870 3.866485 2.694093
v -1.211931 3.574693 2.737231
v -1.362355 3.227517 2.615884
v -1.721740 2.937323 2.377404
v -1.650159 4.700540 2.707495
v -1.417383 3.391052 2.947722
v -1.507085 4.505453 2.883210
v -1.380031 4.251688 2.961070
v -1.344622 4.063625 3.009875
v -1.341628 3.866485 3.036398
v -1.344622 3.669345 3.009876
v -1.908991 4.852905 2.411494
v -1.612757 4.340452 3.121201
v -1.565478 3.965013 3.226361
v -1.612757 3.392518 3.121201
v -1.592284 3.153681 2.875172
v -1.685033 3.028399 2.752147
v -1.819802 4.063625 3.328072
v -1.641475 3.669345 3.253997
v -1.905854 4.700540 2.906905
v -1.818737 4.579288 3.034771
v -1.845770 4.341918 3.235970
v -1.832048 3.866485 3.351788
v -1.845770 3.391052 3.235970
v -1.915498 3.088761 2.995665
v -1.881960 2.940134 2.705366
v -2.200104 3.940841 3.387645
v -2.009154 3.669344 3.365934
v -2.010972 2.883410 2.564817
v -2.004066 4.799373 2.754238
v -2.187195 4.505453 3.160674
v -2.181346 4.251687 3.309572
v -2.181346 3.481282 3.309572
v -2.187195 3.227517 3.160674
v -2.132379 4.848121 2.586409
v -2.391681 4.063625 3.328647
v -2.595585 3.866485 3.263041
v -2.391681 3.669345 3.328647
v -2.503160 3.375008 3.172167
v -2.229242 3.032429 2.930651
v -2.281101 4.701374 2.920770
v -2.477620 4.505453 3.070877
v -2.529197 4.251688 3.210679
v -2.486358 3.153681 2.985747
v -2.360432 4.791121 2.681197
v -2.768539 3.981997 3.138845
v -2.867500 3.669345 3.011406
v -2.677309 3.553045 3.154252
v -2.246298 2.937323 2.744581
v -2.711573 4.505453 2.876776
v -2.812724 4.251687 2.986198
v -2.803409 3.369385 2.914898
v -2.511323 3.032429 2.770730
v -2.918482 4.347024 2.733423
v -2.974942 4.063625 2.850957
v -3.000591 3.866485 2.843573
v -2.956915 3.391052 2.646662
v -2.599458 4.708498 2.637973
v -2.779706 4.578160 2.595891
v -3.107564 3.940842 2.489584
v -3.049017 3.669344 2.672630
v -2.755716 3.153681 2.673696
v -2.549680 2.973027 2.525308
v -2.259264 2.884849 2.518588
v -2.991481 4.341918 2.475778
v -3.062700 3.553045 2.338251
v -2.733005 4.651655 2.293865
v -3.087074 4.063625 2.290179
v -2.867541 3.210206 2.342016
v -2.466890 2.938492 2.243094
v -2.491638 4.795646 2.377404
v -2.958585 4.341918 2.130329
v -3.062507 3.866485 2.077394
v -3.049592 3.669344 2.100751
v -2.655134 3.034636 2.266204
v -2.844470 4.340452 1.895290
v -2.974440 3.981997 1.883534
v -2.931625 3.481282 1.963236
v -2.830001 3.224079 2.100567
v -2.254283 2.881888 2.247004
v -2.706692 4.579288 2.006075
v -2.868756 3.669344 1.761612
v -2.741602 3.308511 1.845775
v -2.305639 4.852427 2.366149
v -2.433777 4.753488 2.037131
v -2.673114 4.341917 1.700087
v -2.732351 4.063625 1.624933
v -2.730113 3.866485 1.598336
v -2.707523 3.549827 1.640264
v -2.532131 3.073777 1.930068
v -2.416498 3.224079 1.672635
v -2.086741 4.848105 2.183214
v -2.385654 4.584982 1.737985
v -2.367608 4.341917 1.535518
v -2.407597 3.993557 1.432509
v -2.393577 3.669343 1.443416
v -2.382466 3.474563 1.502890
v -2.209469 3.030183 1.841082
v -2.224270 2.940563 2.017078
vn 0.0811 0.8498 -0.5209
vn 0.0832 -0.5347 -0.8409
vn 0.0787 0.0931 -0.9925
vn 0.0088 -0.9928 -0.1196
vn 0.2798 -0.1182 -0.9527
vn 0.1247 0.9388 -0.3211
vn 0.2457 -0.6709 -0.6996
vn 0.1796 0.4568 -0.8712
vn 0.2568 -0.8468 -0.4659
vn 0.4115 0.2706 -0.8703
vn 0.2296 0.8807 -0.4142
vn 0.4035 -0.5285 -0.7469
vn 0.0790 0.9935 -0.0824
vn 0.5770 -0.3738 -0.7262
vn 0.4482 0.7306 -0.5151
vn 0.6332 0.0638 -0.7714
vn 0.7503 0.3053 -0.5864
vn 0.7602 -0.1875 -0.6221
vn 0.6623 -0.5363 -0.5231
vn 0.5511 -0.6734 -0.4927
vn 0.8114 -0.3815 -0.4427
vn 0.4836 0.8438 -0.2327
vn 0.7185 0.5926 -0.3642
vn 0.3451 -0.9178 -0.1965
vn 0.8901 0.0008 -0.4559
vn 0.9336 0.2494 -0.2574
vn 0.9331 -0.1446 -0.3292
vn 0.8242 -0.5128 -0.2404
vn 0.6444 0.7365 -0.2059
vn 0.3605 0.9315 -0.0480
vn 0.9695 0.2197 0.1085
vn 0.9863 0.0816 0.1435
vn 0.8599 -0.5026 0.0893
vn 0.6617 0.7475 0.0578
vn 0.7886 0.6001 0.1340
vn 0.0505 -0.8927 -0.4478
vn 0.5220 0.8389 0.1540
vn 0.5765 -0.7891 0.2120
vn 0.2212 -0.9733 0.0614
vn 0.1116 -0.9932 0.0342
vn 0.9573 -0.1652 0.2374
vn 0.3647 -0.9123 0.1860
vn 0.5954 0.7330 0.3290
vn 0.2241 0.9515 0.2108
vn 0.2950 0.8774 0.3783
vn 0.4564 0.6234 0.6349
vn 0.6126 0.4956 0.6156
vn 0.3635 0.5779 0.7307
vn 0.3983 0.0851 0.9133
vn 0.0555 0.9936 0.0980
vn 0.4143 -0.3583 0.8366
vn 0.2860 -0.1895 0.9393
vn 0.1369 -0.6356 0.7598
vn 0.0030 -0.7629 0.6465
vn 0.1028 -0.3707 0.9230
vn 0.0216 0.8455 0.5335
vn 0.0527 -0.5063 0.8608
vn -0.0960 -0.1462 0.9846
vn -0.1357 0.2490 0.9589
vn -0.0482 -0.9723 0.2285
vn -0.2991 -0.0082 0.9542
vn -0.0258 -0.9938 0.1077
vn -0.0917 0.9353 0.3418
vn -0.2559 -0.3765 0.8904
vn -0.2059 0.7169 0.6661
vn -0.4570 -0.1830 0.8705
vn -0.4020 -0.3064 0.8628
vn -0.2812 -0.8216 0.4959
vn -0.4743 0.1921 0.8591
vn -0.0782 0.9936 0.0809
vn -0.3634 0.8265 0.4300
vn -0.5640 -0.4844 0.6688
vn -0.6900 -0.3511 0.6329
vn -0.5632 -0.6682 0.4862
vn -0.3018 -0.9148 0.2686
vn -0.7623 0.2197 0.6088
vn -0.7989 0.0816 0.5959
vn -0.8655 -0.1895 0.4637
vn -0.2817 0.9498 0.1358
vn -0.6023 0.7251 0.3338
vn -0.5130 -0.8125 0.2768
vn -0.7181 0.4965 0.4877
vn -0.7786 0.5918 0.2089
vn -0.9573 0.2796 0.0738
vn -0.1120 -0.9937 0.0088
vn -0.9844 -0.1500 0.0924
vn -0.9342 -0.3233 0.1507
vn -0.5277 0.8469 0.0649
vn -0.8686 -0.4940 0.0384
vn -0.5983 0.7949 0.1009
vn -0.7626 -0.6293 0.1499
vn -0.8569 -0.4896 -0.1614
vn -0.7868 0.6126 -0.0749
vn -0.9942 -0.0082 -0.1072
vn -0.8916 -0.3853 -0.2379
vn -0.9192 0.2494 -0.3047
vn -0.7278 0.5855 -0.3570
vn -0.5596 -0.7745 -0.2950
vn -0.2971 0.9401 -0.1670
vn -0.4554 0.8708 -0.1853
vn -0.7384 -0.5206 -0.4287
vn -0.7403 0.0816 -0.6673
vn -0.7195 -0.3815 -0.5802
vn -0.5908 -0.6820 -0.4310
vn -0.6064 0.5947 -0.5279
vn -0.2962 -0.8977 -0.3262
vn -0.6612 -0.1446 -0.7361
vn -0.5030 -0.5181 -0.6918
vn -0.4268 0.7569 -0.4950
vn -0.3889 0.5724 -0.7219
vn -0.2627 -0.7772 -0.5718
vn -0.0607 0.9935 -0.0961
vn -0.2164 -0.5274 -0.8216
vn -0.0789 0.7236 -0.6857
vn -0.0966 -0.7082 -0.6993
vn -0.0422 0.4743 -0.8794
vn -0.0971 -0.1946 -0.9761
vn 0.1051 0.0001 -0.9945
vn 0.0588 0.7767 -0.6271
vn 0.0827 -0.6293 -0.7728
vn 0.0241 -0.9680 -0.2500
vn 0.2926 -0.2560 -0.9213
vn 0.4818 0.6334 -0.6055
vn 0.1691 0.8939 -0.4151
vn 0.2638 -0.3921 -0.8813
vn 0.2671 0.6370 -0.7231
vn 0.2755 0.3191 -0.9068
vn 0.3844 -0.5801 -0.7182
vn 0.2842 -0.8214 -0.4944
vn 0.4906 0.1376 -0.8605
vn 0.5082 -0.2551 -0.8226
vn 0.6475 -0.0123 -0.7620
vn 0.1530 0.9783 -0.1397
vn 0.5685 -0.4043 -0.7165
vn 0.6104 -0.7685 -0.1922
vn 0.5523 0.4829 -0.6795
vn 0.5385 -0.7028 -0.4649
vn 0.7526 0.1959 -0.6287
vn 0.7573 -0.2080 -0.6191
vn 0.8901 -0.0008 -0.4559
vn 0.7938 -0.4408 -0.4191
vn 0.5155 0.8207 -0.2463
vn 0.8138 0.3772 -0.4421
vn 0.3288 -0.9255 -0.1877
vn 0.9851 -0.1373 -0.1038
vn 0.4832 -0.8612 -0.1575
vn 0.9408 0.2073 -0.2683
vn 0.7156 0.6485 -0.2596
vn 0.3745 0.9258 -0.0509
vn 0.8916 -0.4454 -0.0817
vn 0.8710 0.4876 -0.0599
vn 0.9376 0.3273 -0.1176
vn 0.8478 0.3058 0.4333
vn 0.8360 0.5400 0.0972
vn 0.9932 -0.0574 0.1013
vn 0.6800 -0.7298 0.0706
vn 0.8661 -0.4508 0.2160
vn 0.5484 0.8207 0.1605
vn 0.4577 -0.8732 0.1674
vn 0.9077 0.3503 0.2309
vn 0.8739 0.0956 0.4766
vn 0.2678 -0.9534 0.1390
vn 0.8744 -0.0984 0.4751
vn 0.6261 -0.0986 0.7735
vn 0.8025 -0.3220 0.5023
vn 0.8001 -0.4748 0.3667
vn 0.6670 -0.6185 0.4154
vn 0.7031 0.6278 0.3339
vn 0.5909 -0.7439 0.3121
vn 0.7356 0.5064 0.4500
vn 0.2926 0.9124 0.2862
vn 0.6706 0.1089 0.7338
vn 0.6158 -0.3041 0.7269
vn 0.4056 0.7691 0.4939
vn 0.6074 0.2911 0.7391
vn 0.5373 -0.5824 0.6100
vn 0.3626 -0.6410 0.6765
vn 0.4382 0.3043 0.8458
vn 0.3514 -0.7754 0.5247
vn 0.2684 -0.8445 0.4634
vn 0.0601 -0.8878 0.4563
vn 0.4338 -0.0273 0.9006
vn 0.1256 0.9743 0.1870
vn 0.2808 -0.2658 0.9222
vn 0.1343 0.6318 0.7634
vn 0.0527 0.5063 0.8608
vn 0.0953 0.2773 0.9560
vn 0.0449 0.7673 0.6397
vn 0.0437 -0.9397 0.3391
vn 0.1186 0.1113 0.9867
vn 0.0943 -0.0133 0.9955
vn -0.2462 0.4959 0.8328
vn -0.0950 -0.2050 0.9741
vn -0.2031 -0.7281 0.6547
vn -0.5461 0.4959 0.6752
vn -0.2536 0.3741 0.8920
vn -0.3014 0.0055 0.9535
vn -0.0987 0.9207 0.3776
vn -0.1991 -0.4925 0.8472
vn -0.2688 -0.6324 0.7266
vn -0.2598 -0.8500 0.4583
vn -0.4755 0.2073 0.8550
vn -0.6324 -0.1070 0.7672
vn -0.5873 0.3236 0.7418
vn -0.4037 0.7794 0.4792
vn -0.1770 0.9714 0.1582
vn -0.8341 -0.3204 0.4489
vn -0.5284 -0.5700 0.6292
vn -0.5345 -0.7081 0.4614
vn -0.2776 -0.9322 0.2324
vn -0.7856 -0.0036 0.6188
vn -0.8065 0.3563 0.4718
vn -0.9265 0.2815 0.2496
vn -0.3487 0.9227 0.1643
vn -0.7289 -0.5756 0.3706
vn -0.7078 0.6231 0.3330
vn -0.2764 -0.9608 0.0212
vn -0.9446 0.1113 0.3088
vn -0.9579 -0.0133 0.2867
vn -0.6233 -0.7785 0.0736
vn -0.7546 0.6548 0.0426
vn -0.9926 -0.0775 -0.0939
vn -0.4572 -0.8890 -0.0253
vn -0.9226 0.3755 -0.0879
vn -0.8769 -0.1137 -0.4670
vn -0.9313 0.2073 -0.2996
vn -0.8638 -0.4559 -0.2147
vn -0.7251 0.6493 -0.2296
vn -0.6606 -0.7366 -0.1450
vn -0.4997 0.8281 -0.2539
vn -0.4641 -0.8442 -0.2681
vn -0.8508 0.3221 -0.4151
vn -0.7317 0.3009 -0.6116
vn -0.8637 -0.2050 -0.4605
vn -0.7601 -0.0036 -0.6498
vn -0.7147 -0.3923 -0.5791
vn -0.4634 -0.0991 -0.8806
vn -0.4831 -0.6441 -0.5931
vn -0.4863 0.6637 -0.5683
vn -0.2431 -0.9318 -0.2695
vn -0.1628 0.9585 -0.2341
vn -0.4424 0.3094 -0.8418
vn -0.4285 -0.2861 -0.8571
vn -0.1686 0.8930 -0.4173
vn -0.4338 -0.4643 -0.7721
vn -0.2611 0.8225 -0.5053
vn -0.2416 -0.8564 -0.4564
vn -0.0968 -0.2919 -0.9515
vn -0.4887 0.1112 -0.8653
vn -0.2395 -0.0430 -0.9699
vn -0.0923 -0.4093 -0.9077
vn -0.1339 0.6284 -0.7663
vn -0.0977 -0.7101 -0.6973
vn -0.1600 0.2968 -0.9415
vn -0.1020 0.1764 -0.9790
vt 0.781230 0.812500
vt 0.762032 0.875000
vt 0.685473 0.777944
vt 0.734697 0.375000
vt 0.703125 0.312500
vt 0.764235 0.312500
vt 0.741874 0.599249
vt 0.704616 0.531266
vt 0.763980 0.500000
vt 0.734375 0.000000
vt 0.879629 0.062500
vt 0.593677 0.062500
vt 0.670132 0.472235
vt 0.734536 0.437500
vt 0.734224 0.937500
vt 0.605595 0.875000
vt 0.658359 0.250000
vt 0.719918 0.218999
vt 0.734375 0.717281
vt 0.678319 0.660608
vt 0.606077 0.187500
vt 0.641330 0.592355
vt 0.623673 0.812500
vt 0.673680 0.375000
vt 0.639230 0.312500
vt 0.640625 1.000000
vt 0.479138 0.937500
vt 0.639064 0.437500
vt 0.612180 0.375000
vt 0.595563 0.750000
vt 0.606567 0.500000
vt 0.603325 0.667055
vt 0.578286 0.562500
vt 0.578286 0.437500
vt 0.577540 0.283466
vt 0.543444 0.396147
vt 0.512752 0.812500
vt 0.546915 0.655822
vt 0.503540 0.125000
vt 0.660224 0.125000
vt 0.544067 0.500000
vt 0.509405 0.537235
vt 0.515588 0.281661
vt 0.510998 0.724803
vt 0.449506 0.875000
vt 0.487180 0.625000
vt 0.453286 0.562500
vt 0.450317 0.500000
vt 0.485851 0.406417
vt 0.453088 0.281661
vt 0.455926 0.750000
vt 0.445771 0.665313
vt 0.799126 0.125000
vt 0.779637 0.187500
vt 0.402284 0.812500
vt 0.497588 0.187500
vt 0.386121 0.187500
vt 0.328120 0.062500
vt 0.453125 0.000000
vt 0.437500 0.406180
vt 0.347717 0.125000
vt 0.390588 0.718339
vt 0.293360 0.875000
vt 0.308534 0.812500
vt 0.316528 0.750000
vt 0.343750 0.656371
vt 0.393429 0.625000
vt 0.296915 0.655822
vt 0.343750 0.531273
vt 0.297036 0.562500
vt 0.294067 0.500000
vt 0.328125 1.000000
vt 0.230145 0.937500
vt 0.328286 0.437500
vt 0.296914 0.344178
vt 0.343750 0.343629
vt 0.265786 0.437500
vt 0.234338 0.281661
vt 0.296902 0.219059
vt 0.214815 0.187500
vt 0.237180 0.375000
vt 0.199790 0.812500
vt 0.237635 0.520573
vt 0.203286 0.437500
vt 0.237180 0.625000
vt 0.203286 0.562500
vt 0.190964 0.125000
vt 0.113605 0.062500
vt 0.169067 0.500000
vt 0.203125 0.000000
vt 0.137012 0.875000
vt 0.176363 0.337227
vt 0.171838 0.718339
vt 0.234338 0.718339
vt 0.148421 0.399333
vt 0.160278 0.250000
vt 0.121065 0.187500
vt 0.174680 0.625000
vt 0.134405 0.537235
vt 0.140625 1.000000
vt 0.030235 0.937500
vt 0.075252 0.812500
vt 0.102021 0.334687
vt 0.109536 0.437500
vt 0.066529 0.250000
vt 0.055088 0.153620
vt 0.112179 0.625000
vt 0.078286 0.562500
vt 0.075317 0.500000
vt 0.047036 0.437500
vt 0.032456 0.875000
vt 0.048167 0.750000
vt 0.108913 0.719958
vt 0.062500 0.658651
vt 0.015664 0.655822
vt 0.018885 0.520574
vt 0.000000 0.562500
vt 0.015625 0.000000
vt 0.000000 0.062500
vt 0.000000 0.399333
vt 0.046914 0.344178
vt 0.000000 0.784407
vt 0.000000 0.273040
vt 0.991904 0.273040
vt 0.992171 0.399333
vt 0.937867 0.282145
vt 1.000000 0.655822
vt 0.975379 0.784407
vt 0.953164 0.655822
vt 1.000000 0.500000
vt 0.984536 0.562500
vt 0.950317 0.500000
vt 0.953286 0.437500
vt 0.924679 0.375000
vt 0.915655 0.537235
vt 0.910279 0.750000
vt 0.906250 0.656371
vt 0.965747 0.187500
vt 0.868449 0.212346
vt 0.978825 0.875000
vt 0.921769 0.937500
vt 0.872374 0.843190
vt 0.887823 0.312500
vt 0.859536 0.562500
vt 0.856567 0.500000
vt 0.890786 0.437500
vt 0.855944 0.396148
vt 0.859414 0.655822
vt 0.939862 0.125000
vt 0.812867 0.282145
vt 0.814726 0.750000
vt 0.796945 0.653777
vt 0.828125 1.000000
vt 0.798190 0.375000
vt 0.797036 0.437500
vt 0.390786 0.562500
vt 0.387817 0.500000
vt 0.390786 0.437500
vt 0.390665 0.344178
vt 0.378980 0.250000
vt 0.000000 0.125000
vt 0.000000 0.187500
vt 0.801816 0.543181
s 0
f 2/1/1 6/2/1 13/3/1
f 11/4/2 14/5/2 4/6/2
f 8/7/3 9/8/3 3/9/3
f 5/10/4 127/11/4 44/12/4
f 9/8/5 16/13/5 10/14/5
f 139/15/6 32/16/6 6/2/6
f 14/5/7 21/17/7 12/18/7
f 7/19/8 15/20/8 8/7/8
f 12/18/9 21/17/9 31/21/9
f 15/20/10 18/22/10 9/8/10
f 32/16/11 22/23/11 13/3/11
f 14/5/12 17/24/12 20/25/12
f 139/15/13 1/26/13 59/27/13
f 19/28/14 25/29/14 17/24/14
f 22/23/15 27/30/15 13/3/15
f 16/13/16 18/22/16 24/31/16
f 18/22/17 23/32/17 28/33/17
f 24/31/18 29/34/18 19/28/18
f 20/25/19 25/29/19 30/35/19
f 20/25/20 30/35/20 21/17/20
f 29/34/21 35/36/21 25/29/21
f 32/16/22 41/37/22 22/23/22
f 23/32/23 27/30/23 33/38/23
f 31/21/24 51/39/24 26/40/24
f 24/31/25 28/33/25 34/41/25
f 28/33/26 33/38/26 37/42/26
f 34/41/27 35/36/27 29/34/27
f 30/35/28 35/36/28 38/43/28
f 41/37/29 36/44/29 27/30/29
f 32/16/30 59/27/30 40/45/30
f 37/42/31 42/46/31 47/47/31
f 37/42/32 47/47/32 48/48/32
f 38/43/33 43/49/33 50/50/33
f 41/37/34 45/51/34 36/44/34
f 36/44/35 45/51/35 46/52/35
f 26/40/36 146/53/36 145/54/36 12/18/36
f 41/37/37 40/45/37 52/55/37
f 39/56/38 50/50/38 64/57/38
f 44/12/39 51/39/39 76/58/39
f 5/59/40 44/12/40 76/58/40
f 48/48/41 49/60/41 43/49/41
f 64/57/42 73/61/42 51/39/42
f 52/55/43 54/62/43 45/51/43
f 59/27/44 77/63/44 40/45/44
f 52/55/45 77/63/45 67/64/45
f 54/62/46 68/65/46 60/66/46
f 54/62/47 60/66/47 55/67/47
f 60/66/48 68/65/48 69/68/48
f 61/69/49 65/70/49 70/71/49
f 59/27/50 1/72/50 82/73/50
f 66/74/51 71/75/51 62/76/51
f 70/71/52 75/77/52 66/74/52
f 71/75/53 81/78/53 72/79/53
f 72/79/54 81/78/54 87/80/54
f 75/77/55 80/81/55 71/75/55
f 67/64/56 77/63/56 88/82/56
f 71/75/57 80/81/57 81/78/57
f 74/83/58 85/84/58 75/77/58
f 74/83/59 79/85/59 83/86/59
f 96/87/60 111/88/60 76/58/60
f 74/83/61 83/86/61 84/89/61
f 5/90/62 76/58/62 111/88/62
f 77/63/63 82/73/63 92/91/63
f 85/84/64 86/92/64 80/81/64
f 88/82/65 89/93/65 78/94/65
f 84/89/66 95/95/66 85/84/66
f 85/84/67 95/95/67 86/92/67
f 87/80/68 91/96/68 100/97/68
f 83/86/69 90/98/69 93/99/69
f 82/73/70 1/100/70 131/101/70
f 92/91/71 105/102/71 88/82/71
f 86/92/72 95/95/72 99/103/72
f 94/104/73 99/103/73 95/95/73
f 99/103/74 109/105/74 91/96/74
f 100/97/75 110/106/75 96/87/75
f 93/99/76 98/107/76 102/108/76
f 93/99/77 102/108/77 103/109/77
f 103/109/78 108/110/78 94/104/78
f 131/101/79 118/111/79 92/91/79
f 105/102/80 106/112/80 97/113/80
f 100/97/81 109/105/81 110/106/81
f 97/113/82 101/114/82 98/107/82
f 101/114/83 106/112/83 112/115/83
f 107/116/84 112/115/84 115/117/84
f 5/118/85 111/88/85 127/119/85
f 107/116/86 113/120/86 108/110/86
f 108/110/87 113/120/87 104/121/87
f 105/102/88 118/111/88 114/122/88
f 104/121/89 113/120/89 116/123/89
f 105/102/90 114/122/90 106/112/90
f 104/121/91 116/123/91 109/105/91
f 116/124/92 113/125/92 126/126/92
f 112/127/93 114/128/93 119/129/93
f 107/130/94 115/131/94 120/132/94
f 121/133/95 125/134/95 113/125/95
f 115/131/96 119/129/96 124/135/96
f 119/129/97 128/136/97 123/137/97
f 122/138/98 126/126/98 137/139/98
f 118/140/99 131/141/99 132/142/99
f 118/140/100 132/142/100 114/128/100
f 126/126/101 125/134/101 130/143/101
f 124/135/102 134/144/102 135/145/102
f 129/146/103 136/147/103 125/134/103
f 130/143/104 137/139/104 126/126/104
f 123/137/105 128/136/105 133/148/105
f 137/139/106 146/53/106 117/149/106
f 135/145/107 136/147/107 129/146/107
f 130/143/108 136/147/108 138/150/108
f 132/142/109 140/151/109 128/136/109
f 133/148/110 140/151/110 141/152/110
f 137/139/111 138/150/111 145/54/111
f 131/141/112 1/153/112 139/15/112
f 138/150/113 144/154/113 4/6/113
f 140/151/114 2/1/114 7/19/114
f 4/6/115 12/18/115 138/150/115
f 141/152/116 7/19/116 8/7/116
f 3/9/117 10/14/117 143/155/117
f 3/9/118 9/8/118 10/14/118
f 7/19/119 2/1/119 13/3/119
f 4/6/120 14/5/120 12/18/120
f 44/12/121 127/11/121 146/53/121 26/40/121
f 17/24/122 11/4/122 10/14/122 16/13/122
f 23/32/123 15/20/123 13/3/123 27/30/123
f 6/2/124 32/16/124 13/3/124
f 11/4/125 17/24/125 14/5/125
f 7/19/126 13/3/126 15/20/126
f 9/8/127 8/7/127 15/20/127
f 21/17/128 14/5/128 20/25/128
f 12/18/129 31/21/129 26/40/129
f 9/8/130 18/22/130 16/13/130
f 16/13/131 19/28/131 17/24/131
f 16/13/132 24/31/132 19/28/132
f 139/15/133 59/27/133 32/16/133
f 20/25/134 17/24/134 25/29/134
f 38/43/135 39/56/135 31/21/135 30/35/135
f 15/20/136 23/32/136 18/22/136
f 21/17/137 30/35/137 31/21/137
f 24/31/138 18/22/138 28/33/138
f 19/28/139 29/34/139 25/29/139
f 24/31/140 34/41/140 29/34/140
f 30/35/141 25/29/141 35/36/141
f 22/23/142 41/37/142 27/30/142
f 28/33/143 23/32/143 33/38/143
f 44/12/144 26/40/144 51/39/144
f 43/49/145 35/36/145 34/41/145 37/42/145
f 51/39/146 31/21/146 39/56/146
f 34/41/147 28/33/147 37/42/147
f 33/38/148 27/30/148 36/44/148
f 32/16/149 40/45/149 41/37/149
f 38/43/150 35/36/150 43/49/150
f 33/38/151 36/44/151 42/46/151
f 37/42/152 33/38/152 42/46/152
f 55/67/153 56/156/153 47/47/153 46/52/153
f 36/44/154 46/52/154 42/46/154
f 37/42/155 48/48/155 43/49/155
f 39/56/156 38/43/156 50/50/156
f 50/50/157 43/49/157 49/60/157
f 41/37/158 52/55/158 45/51/158
f 39/56/159 64/57/159 51/39/159
f 47/47/160 42/46/160 46/52/160
f 56/156/161 57/157/161 48/48/161 47/47/161
f 51/39/162 73/61/162 76/58/162
f 58/158/163 49/60/163 48/48/163 57/157/163
f 66/74/164 58/158/164 57/157/164 61/69/164
f 49/60/165 58/158/165 53/159/165
f 50/50/166 49/60/166 53/159/166
f 50/50/167 53/159/167 63/160/167
f 46/52/168 45/51/168 54/62/168
f 64/57/169 50/50/169 63/160/169
f 46/52/170 54/62/170 55/67/170
f 40/45/171 77/63/171 52/55/171
f 57/157/172 56/156/172 61/69/172
f 62/76/173 53/159/173 58/158/173 66/74/173
f 68/65/174 54/62/174 52/55/174 67/64/174
f 60/66/175 61/69/175 56/156/175 55/67/175
f 53/159/176 62/76/176 63/160/176
f 72/79/177 63/160/177 62/76/177 71/75/177
f 69/68/178 65/70/178 61/69/178 60/66/178
f 64/57/179 63/160/179 72/79/179
f 64/57/180 72/79/180 73/61/180
f 96/87/181 73/61/181 72/79/181 87/80/181
f 61/69/182 70/71/182 66/74/182
f 59/27/183 82/73/183 77/63/183
f 66/74/184 75/77/184 71/75/184
f 69/68/185 68/65/185 78/94/185
f 69/68/186 78/94/186 79/85/186
f 79/85/187 74/83/187 65/70/187 69/68/187
f 78/94/188 68/65/188 67/64/188 88/82/188
f 76/58/189 73/61/189 96/87/189
f 70/71/190 65/70/190 74/83/190
f 70/71/191 74/83/191 75/77/191
f 90/98/192 79/85/192 78/94/192 89/93/192
f 75/77/193 85/84/193 80/81/193
f 87/80/194 81/78/194 91/96/194
f 98/107/195 90/98/195 89/93/195 97/113/195
f 83/86/196 79/85/196 90/98/196
f 74/83/197 84/89/197 85/84/197
f 77/63/198 92/91/198 88/82/198
f 81/78/199 80/81/199 86/92/199
f 81/78/200 86/92/200 91/96/200
f 87/80/201 100/97/201 96/87/201
f 84/89/202 83/86/202 93/99/202
f 94/104/203 95/95/203 84/89/203 93/99/203
f 93/99/204 90/98/204 98/107/204
f 97/113/205 89/93/205 88/82/205 105/102/205
f 82/73/206 131/101/206 92/91/206
f 104/121/207 99/103/207 94/104/207 108/110/207
f 86/92/208 99/103/208 91/96/208
f 100/97/209 91/96/209 109/105/209
f 96/87/210 110/106/210 111/88/210
f 93/99/211 103/109/211 94/104/211
f 102/108/212 98/107/212 101/114/212
f 112/115/213 107/116/213 102/108/213 101/114/213
f 92/91/214 118/111/214 105/102/214
f 99/103/215 104/121/215 109/105/215
f 97/113/216 106/112/216 101/114/216
f 127/119/217 111/88/217 110/106/217 117/161/217
f 103/109/218 102/108/218 107/116/218
f 103/109/219 107/116/219 108/110/219
f 116/123/220 122/162/220 110/106/220 109/105/220
f 112/115/221 106/112/221 114/122/221
f 121/133/222 113/125/222 107/130/222 120/132/222
f 110/106/223 122/162/223 117/161/223
f 115/131/224 112/127/224 119/129/224
f 129/146/225 121/133/225 120/132/225 124/135/225
f 120/132/226 115/131/226 124/135/226
f 126/126/227 113/125/227 125/134/227
f 119/129/228 114/128/228 128/136/228
f 122/138/229 116/124/229 126/126/229
f 114/128/230 132/142/230 128/136/230
f 117/149/231 122/138/231 137/139/231
f 124/135/232 119/129/232 123/137/232
f 133/148/233 134/144/233 124/135/233 123/137/233
f 121/133/234 129/146/234 125/134/234
f 124/135/235 135/145/235 129/146/235
f 130/143/236 125/134/236 136/147/236
f 143/155/237 136/147/237 135/145/237 142/163/237
f 130/143/238 138/150/238 137/139/238
f 133/148/239 128/136/239 140/151/239
f 117/149/240 146/53/240 127/11/240
f 139/15/241 6/2/241 132/142/241 131/141/241
f 141/152/242 142/163/242 134/144/242 133/148/242
f 136/147/243 143/155/243 144/154/243
f 132/142/244 6/2/244 2/1/244
f 138/150/245 136/147/245 144/154/245
f 132/142/246 2/1/246 140/151/246
f 137/139/247 145/54/247 146/53/247
f 11/4/248 144/154/248 143/155/248 10/14/248
f 135/145/249 134/144/249 142/163/249
f 142/163/250 3/9/250 143/155/250
f 144/154/251 11/4/251 4/6/251
f 141/152/252 140/151/252 7/19/252
f 145/54/253 138/150/253 12/18/253
f 142/163/254 141/152/254 8/7/254
f 3/9/255 142/163/255 8/7/255
