# Blender 5.0.0
# www.blender.org
mtllib player_no_arm.mtl
o Mball.010
v 1.575301 3.785870 0.391605
v 1.352845 3.438588 0.326400
v 1.272774 3.409711 0.670174
v 1.487884 3.727430 0.731663
v 1.088942 3.484087 0.288580
v 1.035670 3.446833 0.635871
v 0.848191 3.916318 0.287844
v 0.793171 3.877980 0.634764
v 0.952761 4.238120 0.332197
v 0.891069 4.172516 0.675705
v 1.342824 4.261481 0.395927
v 1.288288 4.185280 0.732612
v 1.285829 4.183672 0.739123
v 1.373127 4.242038 0.399040
v 1.443649 4.289996 0.055404
v 1.413346 4.309439 0.052290
v 1.513878 4.337771 -0.288295
v 1.484142 4.356850 -0.291351
v 1.715775 3.893951 -0.294707
v 1.645569 3.845363 0.048925
v 1.540656 4.319716 -0.424488
v 1.556586 4.285760 -0.634431
v 1.093961 4.333725 -0.355079
v 1.238476 4.233565 -0.681548
v 1.145869 4.047817 -0.719974
v 0.989507 4.012402 -0.399372
v 1.230288 3.580189 -0.398629
v 1.342862 3.703324 -0.749200
v 1.493723 3.534836 -0.360871
v 1.506393 3.705054 -0.730194
v 1.159465 3.532045 -0.055056
v 1.423367 3.486546 -0.017237
v 1.716049 3.881601 -0.295731
v 1.645823 3.833828 0.047969
v 0.970107 4.088174 -0.731769
v 1.147912 4.372308 -0.796508
v 1.701697 3.959231 -0.684618
v 1.608662 4.309990 -0.738769
v 1.460767 4.537894 -0.672193
v 1.648078 4.217672 -0.584813
v 1.636847 4.275246 -0.389049
v 1.527532 4.528152 -0.620943
v 1.443249 4.483845 -0.048352
v 1.296834 4.820655 -0.317786
v 1.223898 4.776417 0.251207
v 1.100897 5.084346 -0.035833
v 1.030795 5.099329 -0.103026
v 1.221849 4.844753 -0.375427
v 1.421999 4.384412 -0.008310
v 1.203621 4.667610 0.296431
v 0.989196 4.324940 0.310118
v 1.169723 4.060625 0.015449
v 0.739884 4.282107 0.145260
v 0.872075 4.048323 -0.149989
v 1.339205 3.919965 -0.350437
v 1.064671 3.863401 -0.503955
v 0.670900 5.134860 0.502850
v 0.663858 5.286864 0.130693
v 0.450776 5.503062 0.547517
v 0.455002 5.540954 0.150072
v 0.589312 5.906873 0.556957
v 0.593515 5.927581 0.157386
v 0.643280 5.942654 0.556675
v 0.647458 5.961457 0.157022
v 0.252055 5.993168 -0.247048
v 0.250393 5.950984 -0.178649
v 0.656325 6.165842 -0.239168
v 0.662368 6.349173 -0.410189
v 0.264453 6.369241 -0.597870
v 0.836347 6.336253 -0.233149
v -0.147785 6.005228 -0.249936
v -0.135387 6.381300 -0.600758
v -0.133307 6.452737 -0.638060
v 0.266533 6.440677 -0.635172
v 0.275640 6.775546 -0.741294
v -0.124200 6.787605 -0.744182
v 0.285220 7.175167 -0.730493
v -0.114620 7.187227 -0.733381
v -0.107910 7.512126 -0.609428
v 0.291930 7.500066 -0.606540
v 0.293194 7.568105 -0.565468
v -0.106646 7.580165 -0.568356
v -0.101762 7.924987 -0.198050
v 0.298079 7.912928 -0.195162
v 0.298291 7.949079 -0.124343
v -0.101549 7.961138 -0.127231
v -0.102230 8.061838 0.205868
v 0.297610 8.049778 0.208755
v -0.106395 8.044514 0.605619
v 0.293445 8.032454 0.608506
v 0.287251 7.903153 0.935389
v -0.112590 7.915214 0.932501
v -0.114256 7.873015 1.001203
v 0.285585 7.860956 1.004090
v 0.273187 7.484883 1.354912
v -0.126653 7.496943 1.352024
v -0.128733 7.425506 1.389327
v 0.271107 7.413446 1.392215
v 0.262000 7.078578 1.498336
v -0.137840 7.090638 1.495449
v -0.147421 6.691016 1.484648
v 0.252420 6.678956 1.487536
v -0.154131 6.366117 1.360695
v 0.245710 6.354058 1.363582
v 0.244446 6.286018 1.322510
v -0.155394 6.298078 1.319623
v -0.160279 5.953257 0.949317
v 0.239561 5.941197 0.952205
v 0.239346 5.905032 0.881689
v -0.160493 5.916931 0.878673
v -0.167790 5.514365 0.647972
v 0.231314 5.503375 0.669528
v -0.179227 5.013363 0.698634
v 0.225095 4.994321 0.718916
v -0.169748 4.638289 0.633049
v 0.218288 4.574452 0.663952
v -0.163125 4.312244 0.509292
v 0.206731 4.239343 0.546574
v -0.166337 4.096213 0.466020
v 0.205325 3.996616 0.483314
v -0.150394 3.760466 0.548129
v 0.209984 3.633165 0.500034
v -0.133070 3.381216 0.628940
v 0.213244 3.238117 0.515163
v -0.118421 2.985298 0.665231
v 0.213132 2.830652 0.442127
v 0.601232 3.202260 0.316223
v 0.600000 2.798725 0.273912
v 0.212960 2.424116 0.336597
v 0.596403 2.398792 0.336703
v 0.212332 2.116607 0.252272
v 0.602030 2.001523 0.348790
v 0.235740 2.004491 0.237992
v 0.643401 1.604517 0.347724
v 0.313994 1.568369 0.195497
v 0.684496 1.207217 0.341961
v 0.402981 1.173671 0.190698
v 0.725354 0.809642 0.327216
v 0.452966 0.787795 0.186116
v 0.673093 0.415367 0.248816
v 0.434869 0.458570 0.157694
v 0.622822 0.021653 0.214708
v 0.356887 0.074691 0.125781
v 0.581264 -0.309371 0.102027
v 0.575727 -0.356227 0.045207
v 0.466265 -0.297043 -0.300934
v 0.327690 0.123538 -0.271059
v 0.581049 -0.337587 -0.301794
v 0.584426 -0.312856 -0.325673
v 0.660037 -0.328021 -0.299673
v 0.645627 0.094762 -0.434865
v 0.924757 0.033076 -0.267937
v 0.827631 -0.000567 0.128843
v 0.917063 0.391269 0.159788
v 0.403433 0.805636 -0.213739
v 0.344028 1.179126 -0.208133
v 0.729027 0.841442 -0.436912
v 0.691581 1.225926 -0.441504
v 1.103879 0.839576 -0.211296
v 1.043348 1.256471 -0.205826
v 1.040900 0.814286 0.187649
v 0.998351 1.244832 0.192820
v 0.911968 1.641817 0.195651
v 0.214893 2.012806 0.219580
v -0.095821 2.187825 0.633334
v -0.094778 2.159054 0.632760
v -0.055207 1.820901 0.749205
v 0.226936 1.765947 -0.089666
v -0.089385 1.604186 0.424024
v -0.083344 1.533977 0.496722
v -0.106474 1.269570 0.680609
v -0.132433 1.549154 1.019638
v -0.087909 1.876853 0.832579
v -0.280112 1.205251 1.218898
v -0.201215 0.956759 0.874716
v -0.403250 0.877870 0.786140
v -0.461589 1.116915 0.562538
v -0.723038 1.241059 0.759142
v -0.708871 0.945818 0.929547
v -0.507828 1.425141 0.346421
v -0.791549 1.572738 0.587269
v -0.608161 1.527156 1.080233
v -0.691224 1.857164 0.913703
v -0.385541 1.605920 1.133744
v -0.420827 1.972910 1.002755
v -0.707121 2.184340 0.738472
v -0.463008 2.288870 0.835917
v -0.710030 2.528679 0.626384
v -0.490673 2.602475 0.753670
v -0.708220 2.908566 0.535942
v -0.510054 2.976532 0.671806
v -0.622513 3.292916 0.434002
v -0.536112 3.326618 0.505319
v -0.593102 3.672795 0.329947
v -0.559563 3.687926 0.364963
v -0.553877 4.050964 0.214478
v -0.520992 4.061019 0.250233
v -0.493395 4.377021 0.254315
v -0.444907 4.397541 0.295719
v -0.472697 4.700785 0.521000
v -0.583772 5.069831 0.528374
v -0.588168 5.140644 0.495613
v -0.597128 4.458194 -0.122659
v -0.571652 4.468794 -0.166267
v -0.647831 4.875773 -0.085962
v -0.207275 4.528708 -0.391545
v -0.212125 4.965952 -0.272393
v -0.615407 5.205588 0.101263
v -0.177931 5.290656 -0.116170
v -0.599492 5.217229 0.103225
v -0.161422 5.563622 0.037088
v -0.322826 5.561926 0.144224
v -0.149450 5.963034 -0.181324
v -0.491088 5.959776 0.149296
v -0.551821 5.999604 0.148158
v -0.543197 6.202021 -0.247831
v -0.555983 5.981171 0.547702
v -0.495250 5.939480 0.548734
v -0.903793 6.371288 0.154065
v -0.907958 6.353965 0.553816
v -0.945482 6.424885 0.555417
v -0.941317 6.442209 0.155667
v -0.714795 6.383037 -0.244351
v -0.890048 6.788234 -0.234885
v -0.929971 6.786393 -0.165408
v -0.880468 7.187856 -0.224085
v -0.920391 7.186014 -0.154607
v -0.915920 7.501597 0.184299
v -0.686054 7.581902 -0.211949
v -0.875053 7.570153 0.186467
v -0.505767 7.919723 0.198813
v -0.506031 7.752314 -0.205931
v -0.508412 7.584216 -0.386450
v -0.509932 7.902399 0.598564
v -0.879217 7.552829 0.586218
v -0.518525 7.700342 0.993322
v -0.698548 7.529930 0.987303
v -0.920085 7.484273 0.584050
v -0.892962 7.135884 0.975168
v -0.931431 7.140090 0.905124
v -0.941012 6.740468 0.894324
v -0.902543 6.736262 0.964367
v -0.545654 6.709759 1.327536
v -0.536074 7.109381 1.338336
v -0.553310 6.318146 1.131942
v -0.727289 6.331066 0.954902
v -0.466706 7.105578 1.378027
v -0.476286 6.705956 1.367227
v -1.052637 6.758239 0.563502
v -1.043057 7.157860 0.574303
v -1.048473 6.775562 0.163751
v -1.038892 7.175184 0.174552
v -0.524569 7.517011 1.164344
v -0.435051 7.956793 0.200376
v -0.439216 7.939469 0.600127
v -0.516067 7.192603 -0.582044
v -0.525648 6.792982 -0.592845
v -0.455463 6.792575 -0.631528
v -0.445883 7.192197 -0.620727
v -0.537153 6.385352 -0.418852
v -0.555691 6.150049 0.951422
v -0.326970 5.525634 0.541597
v 0.238076 5.553239 0.020305
v -0.613480 5.213267 0.111955
v 0.234165 5.284994 -0.129355
v 0.226730 4.944312 -0.273636
v 0.619914 4.927969 -0.117220
v 0.656096 5.239862 0.057377
v 0.211515 4.532835 -0.389531
v 0.570295 4.529412 -0.191712
v 0.660300 4.513368 -0.081884
v 0.626952 4.575927 -0.146145
v 0.739781 4.938995 -0.238654
v 0.692391 4.332963 0.267783
v 0.669498 3.993412 0.202622
v 0.661944 4.049252 -0.184268
v 0.702245 3.598010 0.198637
v 0.701975 3.601741 -0.203112
v 0.698524 3.198725 0.200000
v 0.698571 3.198676 -0.199620
v 0.678254 2.798725 0.200000
v 0.699631 2.798975 -0.199894
v 0.776301 2.402110 0.200559
v 0.807655 2.405242 -0.199235
v 0.832090 2.030435 0.200007
v 0.866852 2.037622 -0.199932
v 0.602111 2.010243 -0.414469
v 0.595513 2.398788 -0.380341
v 0.215956 1.987547 -0.148584
v 0.206373 2.386420 -0.276759
v 0.600335 2.797503 -0.297400
v 0.204246 2.779408 -0.356391
v 0.600385 3.195878 -0.306782
v 0.199114 3.168179 -0.448540
v 0.599160 3.602268 -0.318995
v 0.195176 3.591274 -0.480775
v -0.201214 3.068869 -0.284014
v -0.216999 3.471210 -0.374700
v -0.585905 3.099067 -0.063586
v -0.599208 3.508828 -0.093639
v -0.226462 3.911769 -0.444712
v -0.586659 3.961083 -0.199483
v -0.611011 3.967140 -0.159106
v -0.627187 3.521092 -0.050013
v -0.576561 2.674776 -0.065150
v -0.182826 2.694907 -0.174963
v -0.561232 2.262924 0.027597
v -0.161170 2.327491 -0.004834
v -0.773657 2.742069 0.159274
v -0.789654 2.344389 0.259003
v -0.671681 3.135516 0.055682
v -0.135879 1.965121 0.188916
v 0.574799 4.057005 -0.299983
v 0.601391 3.602937 0.317239
v 0.583706 3.982354 0.317285
v -0.099204 2.164109 0.644427
v -0.351777 1.226749 1.256044
v -0.589934 1.191656 1.257365
v -0.375137 0.742004 1.362000
v -0.722451 0.769606 1.296692
v -0.404283 0.332216 1.340255
v -0.775862 0.364254 1.271647
v -0.423460 0.006680 1.268363
v -0.808095 0.140488 0.864930
v -0.801193 0.367486 1.243178
v -0.426596 -0.061468 1.208767
v -0.707561 -0.024266 0.862349
v -0.420663 -0.074529 0.865986
v -0.418258 -0.045717 0.836446
v -0.380237 -0.050046 0.867324
v -0.389030 0.352599 0.736797
v -0.791530 0.382492 0.852404
v -0.206188 0.335828 0.886543
v -0.302218 0.326950 1.278847
v -0.811463 0.383393 0.875117
v -0.767309 0.724443 0.914605
v -0.254458 0.736300 1.297155
v -0.095729 1.597935 0.428465
v -0.106426 2.572581 0.655587
v 0.673476 5.027393 0.536616
v 0.649614 4.613532 0.531032
v 0.583682 6.673986 1.374882
v 0.653867 6.673580 1.336199
v 0.646212 6.281967 1.140605
v 0.593263 7.073608 1.385682
v 0.663447 7.073202 1.346999
v 1.027848 7.077950 0.989040
v 1.018268 6.678329 0.978239
v 0.674953 7.480831 1.173007
v 0.852594 7.483146 0.998506
v 0.680996 7.664163 1.001985
v 1.058190 6.680169 0.908762
v 1.067771 7.079791 0.919562
v 1.186272 7.090621 0.590403
v 1.176692 6.691000 0.579603
v 1.079117 7.423975 0.598488
v 1.083282 7.441298 0.198737
v 1.190437 7.107944 0.190652
v 1.041593 7.494895 0.600090
v 1.045758 7.512219 0.200339
v 0.689590 7.866220 0.607227
v 0.693754 7.883544 0.207476
v 0.620753 7.907499 0.607782
v 0.624917 7.924823 0.208031
v 0.865088 7.535117 -0.200747
v 1.040342 7.129921 -0.210213
v 1.078811 7.125716 -0.140169
v 1.069231 6.726094 -0.150970
v 1.030762 6.730300 -0.221013
v 0.673874 6.756803 -0.584181
v 0.683454 7.156425 -0.573381
v 0.614086 7.160227 -0.613072
v 0.604506 6.760605 -0.623873
v 1.180857 6.708323 0.179852
v 1.057885 6.381910 0.170105
v 1.053720 6.364586 0.569856
v 1.017017 6.313354 0.167937
v 1.012852 6.296031 0.567688
v 0.823853 6.284282 0.966104
v 0.643831 6.113871 0.960085
v 0.693490 7.716135 -0.197268
v 0.691109 7.548037 -0.377787
v 0.924196 3.955938 0.947982
v 1.152900 3.516625 0.912506
v 1.575046 3.797406 0.392562
v 0.918713 3.964276 -0.055793
v 1.023283 4.286078 -0.011440
v 1.607702 4.191851 -0.346035
v 0.882694 4.717135 -0.503230
v 0.724341 4.385809 -0.416468
v -0.544075 1.796331 0.175569
v -0.798075 1.920333 0.405328
v 0.595093 4.289897 0.392213
v 0.197112 4.084460 -0.473976
v 0.947877 1.652002 -0.204136
v 0.639322 1.616760 -0.434101
v 0.257197 1.576113 -0.163796
v 1.017690 0.426808 -0.236295
v 0.702914 0.480743 -0.412057
v 0.404637 0.496171 -0.238802
v -0.158730 0.712257 0.915910
v -0.367259 0.708800 0.765063
v -0.764424 0.750405 0.917650
vn 0.9398 -0.2343 0.2488
vn 0.4050 -0.9141 -0.0195
vn 0.3450 -0.9080 0.2375
vn 0.8268 -0.1044 0.5528
vn -0.5566 -0.8068 -0.1982
vn -0.5953 -0.7960 0.1095
vn -0.9786 -0.0864 -0.1869
vn -0.9850 -0.1306 0.1127
vn -0.6107 0.7917 0.0173
vn -0.6139 0.7374 0.2816
vn 0.2152 0.9530 0.2130
vn 0.4932 0.8150 0.3043
vn 0.3949 0.7095 0.5837
vn 0.7236 0.6376 0.2643
vn 0.7287 0.6419 0.2387
vn 0.2269 0.9572 0.1796
vn 0.7330 0.6641 0.1472
vn 0.2319 0.9723 0.0284
vn 0.9436 0.3032 0.1328
vn 0.9526 0.2062 0.2239
vn 0.5818 0.8102 -0.0721
vn 0.9142 0.1712 -0.3673
vn -0.5568 0.8076 -0.1942
vn -0.1937 0.2521 -0.9481
vn -0.4638 -0.6568 -0.5945
vn -0.9416 -0.0478 -0.3333
vn -0.5130 -0.7905 -0.3346
vn -0.3287 -0.5770 -0.7477
vn 0.4366 -0.8823 -0.1759
vn 0.3492 -0.5970 -0.7223
vn -0.5507 -0.8037 -0.2256
vn 0.4098 -0.9111 -0.0435
vn 0.9797 -0.1960 0.0420
vn 0.9462 -0.2846 0.1540
vn -0.6323 -0.3678 -0.6818
vn -0.1830 0.2715 -0.9449
vn 0.8374 -0.0739 -0.5416
vn 0.7212 0.2517 -0.6453
vn 0.3014 0.6349 -0.7113
vn 0.9775 -0.1900 -0.0919
vn 0.9682 0.1308 0.2131
vn 0.7573 0.6042 -0.2478
vn 0.8927 0.2590 0.3687
vn 0.7228 0.6801 -0.1223
vn 0.7567 0.4010 0.5163
vn 0.6232 0.7820 0.0022
vn 0.1677 0.8330 -0.5273
vn 0.2466 0.7781 -0.5777
vn 0.7541 -0.2337 0.6138
vn 0.6278 -0.0391 0.7774
vn 0.2847 -0.5413 0.7912
vn 0.2357 -0.7479 0.6205
vn -0.6526 -0.7007 0.2883
vn -0.5987 -0.7758 0.1989
vn 0.4537 -0.8896 0.0522
vn -0.1862 -0.9768 -0.1054
vn 0.6005 0.4369 0.6697
vn 0.6357 0.7542 -0.1645
vn 0.8055 0.0020 0.5926
vn 0.8616 0.1444 -0.4867
vn 0.6630 -0.6868 0.2977
vn 0.6741 -0.6470 -0.3562
vn 0.5712 -0.8053 0.1585
vn 0.5768 -0.7854 -0.2246
vn 0.1705 -0.7745 -0.6092
vn 0.2649 -0.6734 -0.6902
vn 0.4777 -0.7076 -0.5206
vn 0.4871 -0.4880 -0.7243
vn 0.1713 -0.5502 -0.8173
vn 0.6974 -0.5007 -0.5129
vn -0.2065 -0.7655 -0.6094
vn -0.1905 -0.5429 -0.8179
vn -0.1906 -0.3716 -0.9086
vn 0.1839 -0.3791 -0.9069
vn 0.1650 -0.1389 -0.9765
vn -0.1586 -0.1309 -0.9786
vn 0.1752 0.1853 -0.9669
vn -0.1497 0.1933 -0.9697
vn -0.1871 0.4496 -0.8734
vn 0.2063 0.4325 -0.8777
vn 0.2004 0.6078 -0.7684
vn -0.1658 0.6079 -0.7765
vn -0.1552 0.8254 -0.5429
vn 0.2179 0.8096 -0.5450
vn 0.2362 0.8946 -0.3794
vn -0.1605 0.9168 -0.3656
vn -0.1323 0.9837 -0.1221
vn 0.1924 0.9741 -0.1190
vn -0.1344 0.9701 0.2019
vn 0.1889 0.9605 0.2045
vn 0.2268 0.8612 0.4550
vn -0.1620 0.8806 0.4453
vn -0.1559 0.7732 0.6147
vn 0.2054 0.7670 0.6079
vn 0.1915 0.5405 0.8192
vn -0.1713 0.5502 0.8173
vn -0.1839 0.3791 0.9069
vn 0.1927 0.3692 0.9091
vn 0.1586 0.1309 0.9786
vn -0.1650 0.1389 0.9765
vn -0.1752 -0.1853 0.9669
vn 0.1497 -0.1933 0.9697
vn -0.2063 -0.4325 0.8777
vn 0.1673 -0.4418 0.8814
vn 0.1527 -0.6168 0.7722
vn -0.2004 -0.6078 0.7684
vn -0.2096 -0.8120 0.5448
vn 0.1594 -0.8179 0.5528
vn 0.2468 -0.7168 0.6522
vn -0.3010 -0.7218 0.6232
vn -0.3353 -0.1565 0.9290
vn 0.2653 -0.1625 0.9504
vn -0.2538 -0.0164 0.9671
vn 0.1605 -0.0027 0.9870
vn -0.2893 -0.2771 0.9163
vn 0.1180 -0.2488 0.9613
vn -0.3530 -0.2709 0.8956
vn 0.1183 -0.2984 0.9471
vn -0.3083 0.0156 0.9512
vn 0.2080 -0.0618 0.9762
vn -0.1417 0.2015 0.9692
vn 0.3149 0.0796 0.9458
vn 0.0319 0.1659 0.9856
vn 0.4016 -0.0110 0.9158
vn 0.2549 0.0610 0.9650
vn 0.4423 -0.0875 0.8926
vn 0.5985 -0.0457 0.7998
vn 0.5184 -0.0217 0.8549
vn 0.3921 -0.0934 0.9152
vn 0.3239 0.0069 0.9461
vn 0.3045 -0.1540 0.9400
vn 0.1392 -0.0255 0.9899
vn -0.6488 -0.2055 0.7327
vn 0.0493 -0.0131 0.9987
vn -0.7790 -0.1801 0.6006
vn -0.0074 -0.0212 0.9997
vn -0.7970 -0.1469 0.5858
vn 0.0047 -0.0941 0.9955
vn -0.7981 -0.0845 0.5966
vn -0.0124 -0.1221 0.9924
vn -0.7927 0.0250 0.6092
vn -0.0047 -0.2030 0.9792
vn -0.8297 -0.1785 0.5289
vn -0.0638 -0.7780 0.6250
vn -0.0196 -0.8985 0.4386
vn -0.7309 -0.5389 -0.4186
vn -0.8930 -0.0535 -0.4470
vn -0.0967 -0.9105 -0.4020
vn -0.0291 -0.4541 -0.8905
vn 0.5462 -0.7246 -0.4203
vn 0.0106 -0.0688 -0.9976
vn 0.8485 -0.3488 -0.3981
vn 0.7096 -0.3835 0.5912
vn 0.7347 -0.2334 0.6369
vn -0.9034 -0.0517 -0.4257
vn -0.8952 -0.1389 -0.4235
vn 0.0110 -0.0166 -0.9998
vn 0.0004 0.0212 -0.9998
vn 0.9191 -0.0408 -0.3919
vn 0.8992 0.1530 -0.4099
vn 0.8018 -0.0877 0.5911
vn 0.8095 0.1215 0.5744
vn 0.8202 0.1578 0.5499
vn 0.0217 -0.3245 0.9456
vn 0.6616 0.0363 0.7490
vn 0.8997 0.0009 0.4365
vn 0.8220 -0.3134 0.4756
vn -0.8661 -0.2531 -0.4311
vn 0.3563 -0.7789 -0.5161
vn 0.8735 -0.3295 -0.3585
vn 0.8784 -0.3903 -0.2758
vn 0.8281 0.1165 0.5484
vn 0.8080 0.2309 0.5420
vn 0.7469 0.1236 0.6534
vn 0.9320 -0.1791 -0.3150
vn 0.0161 -0.2595 -0.9656
vn -0.1074 -0.6173 -0.7793
vn -0.9406 -0.2835 -0.1870
vn -0.9406 0.0259 -0.3386
vn -0.2161 -0.5190 -0.8270
vn -0.9607 -0.2206 -0.1685
vn -0.6878 0.2103 0.6948
vn -0.7682 0.2025 0.6074
vn 0.0976 0.3626 0.9268
vn 0.0502 0.4355 0.8988
vn -0.8110 0.2092 0.5464
vn -0.0204 0.3237 0.9459
vn -0.8299 0.1443 0.5389
vn -0.1581 0.1621 0.9740
vn -0.8612 0.2147 0.4607
vn -0.3182 0.2211 0.9219
vn -0.8786 0.2427 0.4113
vn -0.4844 0.2679 0.8328
vn -0.9043 0.1838 0.3853
vn -0.5933 0.2524 0.7644
vn -0.9118 0.1273 0.3905
vn -0.6398 0.1342 0.7567
vn -0.9182 -0.0244 0.3953
vn -0.7721 -0.1736 0.6113
vn -0.7330 -0.2498 0.6327
vn -0.8123 0.0076 0.5832
vn -0.7390 0.3568 0.5715
vn -0.9993 -0.0303 -0.0230
vn -0.7994 0.0467 -0.5989
vn -0.8939 0.1127 -0.4339
vn -0.2701 0.1661 -0.9484
vn -0.2430 0.3379 -0.9093
vn -0.9081 0.2411 -0.3424
vn -0.2403 0.4671 -0.8509
vn -0.7212 0.6237 -0.3015
vn -0.3600 0.0509 -0.9315
vn -0.8627 0.1160 -0.4923
vn -0.3036 -0.6692 -0.6782
vn -0.6772 -0.6491 -0.3465
vn -0.6071 -0.7604 -0.2308
vn -0.5090 -0.6810 -0.5265
vn -0.6360 -0.7605 0.1312
vn -0.6939 -0.6742 0.2529
vn -0.8114 -0.5441 -0.2136
vn -0.8087 -0.5706 0.1429
vn -0.9053 -0.3936 0.1597
vn -0.9032 -0.3719 -0.2140
vn -0.7162 -0.4632 -0.5220
vn -0.7921 -0.1523 -0.5911
vn -0.8846 -0.1719 -0.4336
vn -0.7895 0.2173 -0.5741
vn -0.8879 0.2203 -0.4039
vn -0.8811 0.4386 -0.1768
vn -0.6935 0.5318 -0.4860
vn -0.7744 0.6126 -0.1582
vn -0.5548 0.8164 -0.1603
vn -0.4754 0.7407 -0.4747
vn -0.4780 0.5307 -0.6999
vn -0.5520 0.8069 0.2104
vn -0.7849 0.5866 0.1996
vn -0.4804 0.7047 0.5221
vn -0.6986 0.5003 0.5114
vn -0.8869 0.4173 0.1984
vn -0.7931 0.1916 0.5782
vn -0.8821 0.2160 0.4186
vn -0.9051 -0.1762 0.3871
vn -0.8096 -0.1781 0.5594
vn -0.5872 -0.1897 0.7869
vn -0.5781 0.1806 0.7958
vn -0.5213 -0.5078 0.6858
vn -0.7295 -0.4950 0.4721
vn -0.4186 0.1909 0.8879
vn -0.4169 -0.2025 0.8861
vn -0.9789 -0.1426 0.1461
vn -0.9703 0.1815 0.1600
vn -0.9750 -0.1335 -0.1777
vn -0.9678 0.1905 -0.1643
vn -0.4871 0.4880 0.7243
vn -0.3919 0.9037 -0.1726
vn -0.3776 0.8991 0.2214
vn -0.5662 0.2246 -0.7931
vn -0.5834 -0.1387 -0.8003
vn -0.4075 -0.1504 -0.9007
vn -0.4061 0.2411 -0.8815
vn -0.5038 -0.4631 -0.7292
vn -0.5258 -0.7104 0.4678
vn -0.8355 -0.0093 0.5495
vn 0.3205 0.0441 -0.9462
vn -0.9451 0.2576 0.2010
vn 0.2075 0.4517 -0.8677
vn 0.2082 0.3137 -0.9264
vn -0.0453 0.4272 -0.9030
vn 0.2623 0.6820 -0.6827
vn 0.2104 0.1944 -0.9581
vn 0.5792 0.0583 -0.8131
vn 0.2344 -0.5616 -0.7935
vn -0.4645 -0.3989 -0.7906
vn -0.4147 0.5309 -0.7391
vn 0.2997 0.5122 -0.8048
vn 0.9565 -0.0098 0.2914
vn 0.9298 0.0798 -0.3592
vn 0.9426 0.0318 0.3323
vn 0.9363 0.0379 -0.3492
vn 0.9331 -0.0244 0.3588
vn 0.9330 -0.0148 -0.3597
vn 0.8975 0.0844 0.4328
vn 0.9176 0.1080 -0.3825
vn 0.8649 0.1633 0.4747
vn 0.9087 0.1827 -0.3755
vn 0.8427 0.1345 0.5212
vn 0.9048 0.1592 -0.3950
vn 0.0453 0.0192 -0.9988
vn 0.2218 0.0369 -0.9744
vn -0.5768 -0.2641 -0.7730
vn -0.3892 -0.1896 -0.9014
vn 0.4318 0.0132 -0.9019
vn -0.1517 -0.1703 -0.9736
vn 0.5360 -0.0490 -0.8428
vn -0.0009 -0.1449 -0.9894
vn 0.5835 0.0140 -0.8120
vn 0.0929 -0.0568 -0.9941
vn -0.3946 -0.1749 -0.9021
vn -0.4006 -0.1346 -0.9063
vn -0.6536 -0.0822 -0.7523
vn -0.7242 -0.1138 -0.6801
vn -0.3469 -0.0195 -0.9377
vn -0.7204 -0.0282 -0.6929
vn -0.9735 0.0303 -0.2265
vn -0.9688 0.0116 -0.2476
vn -0.5271 -0.1683 -0.8330
vn -0.3414 -0.2519 -0.9055
vn -0.4040 -0.2970 -0.8652
vn -0.2948 -0.3474 -0.8902
vn -0.9578 0.0393 -0.2848
vn -0.9589 -0.0707 -0.2749
vn -0.9514 0.0845 -0.2962
vn -0.2270 -0.4552 -0.8609
vn 0.6089 0.1105 -0.7855
vn 0.6171 0.0244 0.7865
vn 0.6242 -0.0797 0.7772
vn 0.7844 0.2671 0.5598
vn 0.1774 0.2738 0.9453
vn -0.5982 0.2634 0.7569
vn 0.1768 0.0545 0.9827
vn -0.7083 0.1716 0.6847
vn 0.1565 -0.1431 0.9773
vn -0.6415 -0.1834 0.7448
vn 0.2270 -0.6263 0.7458
vn -0.8188 -0.3946 -0.4170
vn -0.8798 -0.0243 0.4748
vn 0.2557 -0.7983 0.5453
vn -0.6092 -0.7074 -0.3584
vn 0.1682 -0.9300 -0.3270
vn 0.2038 -0.4666 -0.8607
vn 0.7500 -0.5769 -0.3235
vn 0.1911 -0.0574 -0.9799
vn -0.5307 0.0772 -0.8440
vn 0.9204 -0.2140 -0.3271
vn 0.7912 -0.2261 0.5682
vn -0.9369 0.0809 -0.3400
vn -0.8304 0.1755 -0.5288
vn 0.7975 0.0209 0.6029
vn 0.1529 -0.5884 -0.7939
vn 0.4768 -0.0000 0.8790
vn 0.4216 0.1247 0.8982
vn 0.3514 -0.2638 0.8983
vn 0.3912 -0.2222 0.8931
vn 0.5630 -0.2179 0.7972
vn 0.4808 -0.5331 0.6961
vn 0.4153 0.1701 0.8936
vn 0.5747 0.1518 0.8041
vn 0.7962 0.1454 0.5873
vn 0.7850 -0.2244 0.5774
vn 0.5029 0.4620 0.7305
vn 0.7149 0.4640 0.5232
vn 0.5090 0.6809 0.5267
vn 0.8762 -0.2392 0.4183
vn 0.8954 0.1536 0.4180
vn 0.9750 0.1335 0.1777
vn 0.9678 -0.1905 0.1643
vn 0.8997 0.3821 0.2109
vn 0.9088 0.3838 -0.1636
vn 0.9789 0.1426 -0.1461
vn 0.8026 0.5595 0.2068
vn 0.8174 0.5560 -0.1507
vn 0.5961 0.7703 0.2264
vn 0.5963 0.7899 -0.1429
vn 0.4403 0.8635 0.2459
vn 0.4289 0.8912 -0.1473
vn 0.7307 0.4946 -0.4706
vn 0.8055 0.1854 -0.5628
vn 0.8948 0.1955 -0.4015
vn 0.8937 -0.1980 -0.4026
vn 0.7975 -0.1849 -0.5743
vn 0.5781 -0.1806 -0.7958
vn 0.5872 0.1897 -0.7869
vn 0.4169 0.2025 -0.8861
vn 0.4186 -0.1909 -0.8879
vn 0.9703 -0.1815 -0.1600
vn 0.8827 -0.4274 -0.1953
vn 0.8851 -0.4288 0.1808
vn 0.7759 -0.6003 -0.1939
vn 0.7852 -0.5965 0.1664
vn 0.6953 -0.5298 0.4858
vn 0.4776 -0.7364 0.4791
vn 0.5242 0.7140 -0.4642
vn 0.5213 0.5078 -0.6858
vn -0.4328 0.1706 0.8852
vn -0.0455 -0.5289 0.8475
vn 0.8978 0.1329 0.4199
vn -0.9740 -0.0813 -0.2117
vn -0.6108 0.7916 -0.0155
vn 0.8340 -0.4942 0.2453
vn -0.4490 0.4923 -0.7457
vn -0.8930 -0.1460 -0.4258
vn -0.2952 -0.4035 -0.8660
vn -0.9569 -0.1238 -0.2628
vn 0.4341 -0.4078 0.8033
vn 0.1693 0.0840 -0.9820
vn 0.8928 0.1879 -0.4094
vn -0.0157 0.0726 -0.9972
vn -0.9031 -0.1143 -0.4139
vn 0.8935 -0.1848 -0.4093
vn 0.0076 0.0141 -0.9999
vn -0.8778 0.1114 -0.4659
vn 0.9484 0.0120 -0.3169
vn 0.1595 0.0821 -0.9838
vn -0.8455 0.2058 -0.4928
s 1
f 4//4 3//3 2//2 1//1
f 2//2 3//3 6//6 5//5
f 5//5 6//6 8//8 7//7
f 8//8 10//10 9//9 7//7
f 13//13 12//12 11//11 9//9
f 10//10 13//13 9//9
f 11//11 12//12 14//14
f 16//16 11//11 14//14 15//15
f 18//18 16//16 15//15 17//17
f 15//15 20//20 19//19 17//17
f 21//21 18//18 17//17
f 23//23 18//18 21//21 22//22
f 24//24 23//23 22//22
f 26//26 23//23 24//24 25//25
f 28//28 27//27 26//26 25//25
f 30//30 29//29 27//27 28//28
f 29//29 32//32 31//31 27//27
f 34//34 32//32 29//29 33//33
f 36//36 30//30 28//28 35//35
f 38//38 37//37 30//30 36//36
f 39//39 38//38 36//36
f 37//37 38//38 40//40 22//22
f 40//40 38//38 42//42 41//41
f 41//41 42//42 44//44 43//43
f 43//43 44//44 46//46 45//45
f 44//44 48//48 47//47 46//46
f 50//50 49//49 43//43 45//45
f 52//52 49//49 50//50 51//51
f 54//54 52//52 51//51 53//53
f 56//56 55//55 52//52 54//54
f 45//45 46//46 58//58 57//57
f 58//58 60//60 59//59 57//57
f 60//60 62//62 61//61 59//59
f 61//61 62//62 64//64 63//63
f 64//64 62//62 66//66 65//65
f 67//67 64//64 65//65
f 69//69 68//68 67//67 65//65
f 68//68 70//70 67//67
f 72//72 69//69 65//65 71//71
f 74//74 69//69 72//72 73//73
f 76//76 75//75 74//74 73//73
f 78//78 77//77 75//75 76//76
f 80//80 77//77 78//78 79//79
f 82//82 81//81 80//80 79//79
f 84//84 81//81 82//82 83//83
f 86//86 85//85 84//84 83//83
f 88//88 85//85 86//86 87//87
f 90//90 88//88 87//87 89//89
f 92//92 91//91 90//90 89//89
f 94//94 91//91 92//92 93//93
f 96//96 95//95 94//94 93//93
f 98//98 95//95 96//96 97//97
f 100//100 99//99 98//98 97//97
f 102//102 99//99 100//100 101//101
f 104//104 102//102 101//101 103//103
f 106//106 105//105 104//104 103//103
f 108//108 105//105 106//106 107//107
f 110//110 109//109 108//108 107//107
f 112//112 109//109 110//110 111//111
f 114//114 112//112 111//111 113//113
f 116//116 114//114 113//113 115//115
f 118//118 116//116 115//115 117//117
f 120//120 118//118 117//117 119//119
f 122//122 120//120 119//119 121//121
f 124//124 122//122 121//121 123//123
f 126//126 124//124 123//123 125//125
f 128//128 127//127 124//124 126//126
f 130//130 128//128 126//126 129//129
f 132//132 130//130 129//129 131//131
f 133//133 132//132 131//131
f 132//132 133//133 135//135 134//134
f 134//134 135//135 137//137 136//136
f 136//136 137//137 139//139 138//138
f 138//138 139//139 141//141 140//140
f 140//140 141//141 143//143 142//142
f 142//142 143//143 144//144
f 147//147 146//146 145//145 144//144
f 143//143 147//147 144//144
f 145//145 146//146 148//148
f 146//146 149//149 148//148
f 150//150 145//145 148//148
f 146//146 147//147 151//151 149//149
f 151//151 152//152 150//150 149//149
f 150//150 152//152 153//153 144//144
f 145//145 150//150 144//144
f 153//153 154//154 140//140 142//142
f 137//137 156//156 155//155 139//139
f 155//155 156//156 158//158 157//157
f 158//158 160//160 159//159 157//157
f 159//159 160//160 162//162 161//161
f 162//162 163//163 134//134 136//136
f 164//164 133//133 131//131
f 166//166 164//164 131//131 165//165
f 168//168 164//164 166//166 167//167
f 169//169 168//168 167//167
f 169//169 167//167 170//170
f 173//173 172//172 171//171 170//170
f 167//167 173//173 170//170
f 175//175 171//171 172//172 174//174
f 177//177 171//171 175//175 176//176
f 179//179 178//178 177//177 176//176
f 178//178 181//181 180//180 177//177
f 183//183 181//181 178//178 182//182
f 185//185 183//183 182//182 184//184
f 187//187 186//186 183//183 185//185
f 189//189 188//188 186//186 187//187
f 191//191 190//190 188//188 189//189
f 193//193 192//192 190//190 191//191
f 195//195 194//194 192//192 193//193
f 197//197 196//196 194//194 195//195
f 199//199 198//198 196//196 197//197
f 205//205 207//207 206//206 204//204
f 209//209 207//207 205//205 208//208
f 210//210 209//209 208//208
f 210//210 212//212 211//211 209//209
f 212//212 214//214 213//213 211//211
f 71//71 213//213 214//214 215//215
f 216//216 71//71 215//215
f 215//215 214//214 218//218 217//217
f 220//220 219//219 215//215 217//217
f 222//222 219//219 220//220 221//221
f 224//224 223//223 219//219 222//222
f 225//225 224//224 222//222
f 227//227 226//226 224//224 225//225
f 229//229 226//226 227//227 228//228
f 230//230 229//229 228//228
f 232//232 229//229 230//230 231//231
f 233//233 229//229 232//232
f 231//231 230//230 235//235 234//234
f 234//234 235//235 237//237 236//236
f 239//239 237//237 235//235 238//238
f 240//240 239//239 238//238
f 242//242 239//239 240//240 241//241
f 244//244 239//239 242//242 243//243
f 243//243 242//242 246//246 245//245
f 248//248 247//247 244//244 243//243
f 240//240 250//250 249//249 241//241
f 241//241 249//249 221//221
f 250//250 252//252 251//251 249//249
f 228//228 252//252 250//250 238//238
f 250//250 240//240 238//238
f 237//237 253//253 236//236
f 255//255 254//254 231//231 234//234
f 226//226 229//229 233//233 256//256
f 235//235 230//230 228//228 238//238
f 224//224 226//226 256//256 257//257
f 256//256 259//259 258//258 257//257
f 251//251 252//252 227//227 225//225
f 223//223 224//224 257//257 260//260
f 223//223 260//260 216//216
f 251//251 225//225 222//222
f 246//246 242//242 241//241 221//221
f 220//220 246//246 221//221
f 249//249 251//251 222//222 221//221
f 246//246 220//220 217//217 261//261
f 218//218 214//214 212//212 262//262
f 213//213 66//66 263//263 211//211
f 212//212 210//210 264//264 202//202
f 262//262 212//212 202//202
f 211//211 263//263 265//265 209//209
f 209//209 265//265 266//266 207//207
f 265//265 268//268 267//267 266//266
f 266//266 267//267 270//270 269//269
f 273//273 272//272 271//271 270//270
f 267//267 273//273 270//270
f 274//274 271//271 272//272 53//53
f 276//276 271//271 274//274 275//275
f 278//278 276//276 275//275 277//277
f 280//280 278//278 277//277 279//279
f 282//282 280//280 279//279 281//281
f 284//284 282//282 281//281 283//283
f 286//286 284//284 283//283 285//285
f 288//288 284//284 286//286 287//287
f 290//290 288//288 287//287 289//289
f 292//292 291//291 288//288 290//290
f 294//294 293//293 291//291 292//292
f 296//296 295//295 293//293 294//294
f 298//298 296//296 294//294 297//297
f 300//300 298//298 297//297 299//299
f 302//302 301//301 298//298 300//300
f 304//304 303//303 302//302 300//300
f 299//299 297//297 306//306 305//305
f 305//305 306//306 308//308 307//307
f 310//310 309//309 305//305 307//307
f 311//311 304//304 300//300 299//299
f 297//297 294//294 292//292 306//306
f 306//306 292//292 290//290 308//308
f 308//308 290//290 289//289 312//312
f 291//291 282//282 284//284 288//288
f 293//293 280//280 282//282 291//291
f 313//313 276//276 278//278 295//295
f 277//277 275//275 315//315 314//314
f 268//268 47//47 273//273 267//267
f 204//204 206//206 301//301 302//302
f 207//207 266//266 269//269 206//206
f 198//198 203//203 303//303 196//196
f 196//196 303//303 304//304 194//194
f 194//194 304//304 311//311 192//192
f 192//192 311//311 309//309 190//190
f 190//190 309//309 310//310 188//188
f 173//173 316//316 187//187 185//185
f 184//184 182//182 318//318 317//317
f 317//317 318//318 320//320 319//319
f 319//319 320//320 322//322 321//321
f 321//321 322//322 323//323
f 323//323 322//322 325//325 324//324
f 327//327 326//326 323//323 324//324
f 326//326 327//327 328//328
f 327//327 329//329 328//328
f 330//330 326//326 328//328
f 331//331 329//329 327//327 324//324
f 332//332 331//331 324//324
f 331//331 333//333 330//330 329//329
f 330//330 333//333 334//334 323//323
f 326//326 330//330 323//323
f 325//325 335//335 324//324
f 335//335 325//325 336//336
f 332//332 335//335 336//336
f 334//334 337//337 319//319 321//321
f 182//182 178//178 179//179 318//318
f 338//338 170//170 171//171 177//177
f 180//180 338//338 177//177
f 289//289 168//168 169//169 338//338
f 312//312 289//289 338//338
f 131//131 129//129 339//339 165//165
f 283//283 281//281 128//128 130//130
f 281//281 279//279 127//127 128//128
f 125//125 123//123 193//193 191//191
f 314//314 315//315 120//120 122//122
f 121//121 119//119 197//197 195//195
f 341//341 340//340 114//114 116//116
f 115//115 113//113 201//201 200//200
f 113//113 111//111 262//262 202//202
f 110//110 218//218 262//262 111//111
f 218//218 110//110 107//107 261//261
f 217//217 218//218 261//261
f 107//107 106//106 245//245 261//261
f 344//344 343//343 342//342 104//104
f 105//105 344//344 104//104
f 346//346 345//345 342//342 343//343
f 348//348 347//347 346//346 343//343
f 347//347 350//350 349//349 346//346
f 349//349 350//350 351//351
f 353//353 347//347 348//348 352//352
f 355//355 354//354 353//353 352//352
f 353//353 354//354 356//356
f 354//354 358//358 357//357 356//356
f 357//357 360//360 359//359 356//356
f 359//359 360//360 362//362 361//361
f 362//362 364//364 363//363 361//361
f 366//366 365//365 360//360 357//357
f 367//367 366//366 357//357
f 369//369 366//366 367//367 368//368
f 371//371 366//366 369//369 370//370
f 373//373 372//372 371//371 370//370
f 367//367 358//358 374//374 368//368
f 368//368 374//374 375//375
f 375//375 374//374 355//355 376//376
f 378//378 377//377 375//375 376//376
f 355//355 352//352 376//376
f 374//374 358//358 354//354 355//355
f 379//379 348//348 343//343 344//344
f 379//379 344//344 380//380
f 63//63 378//378 379//379 380//380
f 103//103 248//248 243//243 245//245
f 106//106 103//103 245//245
f 342//342 102//102 104//104
f 101//101 248//248 103//103
f 342//342 345//345 99//99 102//102
f 100//100 247//247 248//248 101//101
f 247//247 100//100 97//97
f 346//346 349//349 95//95 98//98
f 345//345 346//346 98//98
f 97//97 96//96 253//253 244//244
f 247//247 97//97 244//244
f 95//95 349//349 351//351 94//94
f 253//253 96//96 93//93 236//236
f 91//91 363//363 90//90
f 255//255 92//92 89//89
f 363//363 364//364 88//88 90//90
f 87//87 254//254 255//255 89//89
f 86//86 254//254 87//87
f 364//364 362//362 381//381 84//84
f 85//85 364//364 84//84
f 382//382 371//371 372//372 80//80
f 81//81 382//382 80//80
f 78//78 259//259 79//79
f 77//77 372//372 373//373 75//75
f 258//258 259//259 78//78 76//76
f 75//75 373//373 74//74
f 258//258 76//76 73//73
f 260//260 72//72 71//71 216//216
f 67//67 70//70 377//377 64//64
f 65//65 66//66 213//213 71//71
f 61//61 63//63 380//380 108//108
f 109//109 61//61 108//108
f 64//64 377//377 378//378 63//63
f 66//66 62//62 60//60 263//263
f 59//59 61//61 109//109 112//112
f 60//60 58//58 268//268 265//265
f 263//263 60//60 265//265
f 57//57 59//59 112//112 114//114
f 340//340 57//57 114//114
f 35//35 28//28 25//25 56//56
f 25//25 24//24 55//55 56//56
f 19//19 33//33 37//37 22//22
f 21//21 19//19 22//22
f 10//10 383//383 13//13
f 383//383 10//10 8//8
f 6//6 384//384 383//383 8//8
f 3//3 384//384 6//6
f 32//32 2//2 5//5 31//31
f 12//12 13//13 4//4 1//1
f 385//385 12//12 1//1
f 384//384 3//3 4//4
f 12//12 385//385 14//14
f 383//383 384//384 4//4 13//13
f 20//20 385//385 1//1 34//34
f 1//1 2//2 32//32 34//34
f 14//14 385//385 20//20 15//15
f 31//31 5//5 7//7 386//386
f 9//9 11//11 16//16 387//387
f 7//7 9//9 387//387 386//386
f 19//19 20//20 34//34 33//33
f 33//33 29//29 30//30 37//37
f 19//19 21//21 17//17
f 27//27 31//31 386//386 26//26
f 387//387 16//16 18//18 23//23
f 386//386 387//387 23//23 26//26
f 38//38 39//39 42//42
f 388//388 40//40 41//41
f 22//22 40//40 388//388 55//55
f 24//24 22//22 55//55
f 48//48 39//39 36//36 389//389
f 42//42 39//39 48//48 44//44
f 389//389 36//36 35//35 390//390
f 49//49 388//388 41//41 43//43
f 55//55 388//388 49//49 52//52
f 390//390 35//35 56//56 54//54
f 47//47 48//48 389//389 273//273
f 46//46 47//47 268//268 58//58
f 273//273 389//389 390//390 272//272
f 340//340 50//50 45//45 57//57
f 51//51 50//50 340//340 341//341
f 272//272 390//390 54//54 53//53
f 365//365 382//382 381//381
f 382//382 365//365 366//366 371//371
f 370//370 369//369 70//70 68//68
f 360//360 365//365 381//381 362//362
f 358//358 367//367 357//357
f 70//70 369//369 368//368 375//375
f 377//377 70//70 375//375
f 350//350 359//359 361//361 351//351
f 350//350 347//347 353//353 356//356
f 359//359 350//350 356//356
f 348//348 379//379 378//378 376//376
f 352//352 348//348 376//376
f 381//381 382//382 81//81 84//84
f 372//372 77//77 80//80
f 370//370 68//68 69//69 74//74
f 373//373 370//370 74//74
f 364//364 85//85 88//88
f 361//361 363//363 91//91 94//94
f 351//351 361//361 94//94
f 99//99 345//345 98//98
f 380//380 344//344 105//105 108//108
f 83//83 82//82 233//233 232//232
f 82//82 79//79 259//259 256//256
f 233//233 82//82 256//256
f 258//258 73//73 72//72 260//260
f 257//257 258//258 260//260
f 86//86 83//83 232//232 231//231
f 254//254 86//86 231//231
f 227//227 252//252 228//228
f 219//219 223//223 216//216 215//215
f 92//92 255//255 234//234 236//236
f 93//93 92//92 236//236
f 253//253 237//237 239//239 244//244
f 245//245 246//246 261//261
f 338//338 169//169 170//170
f 129//129 126//126 125//125 339//339
f 316//316 166//166 165//165
f 166//166 316//316 173//173 167//167
f 307//307 308//308 312//312 391//391
f 391//391 312//312 338//338 180//180
f 339//339 125//125 191//191 189//189
f 165//165 339//339 189//189 187//187
f 316//316 165//165 187//187
f 172//172 173//173 185//185 184//184
f 392//392 310//310 307//307 391//391
f 181//181 392//392 391//391 180//180
f 188//188 310//310 392//392 186//186
f 186//186 392//392 181//181 183//183
f 270//270 271//271 276//276 313//313
f 295//295 278//278 280//280 293//293
f 53//53 51//51 341//341 393//393
f 274//274 53//53 393//393
f 275//275 274//274 393//393 315//315
f 279//279 277//277 314//314 127//127
f 269//269 270//270 313//313 394//394
f 394//394 313//313 295//295 296//296
f 393//393 341//341 116//116 118//118
f 315//315 393//393 118//118 120//120
f 127//127 314//314 122//122 124//124
f 206//206 269//269 394//394 301//301
f 301//301 394//394 296//296 298//298
f 303//303 203//203 204//204 302//302
f 309//309 311//311 299//299 305//305
f 117//117 115//115 200//200 199//199
f 119//119 117//117 199//199 197//197
f 123//123 121//121 195//195 193//193
f 395//395 286//286 285//285 163//163
f 160//160 395//395 163//163 162//162
f 287//287 286//286 395//395 396//396
f 396//396 395//395 160//160 158//158
f 285//285 283//283 130//130 132//132
f 163//163 285//285 132//132 134//134
f 287//287 396//396 397//397 168//168
f 289//289 287//287 168//168
f 156//156 397//397 396//396 158//158
f 135//135 133//133 164//164 168//168
f 397//397 135//135 168//168
f 135//135 397//397 156//156 137//137
f 398//398 159//159 161//161 154//154
f 152//152 398//398 154//154 153//153
f 157//157 159//159 398//398 399//399
f 399//399 398//398 152//152 151//151
f 149//149 150//150 148//148
f 161//161 162//162 136//136 138//138
f 154//154 161//161 138//138 140//140
f 153//153 142//142 144//144
f 400//400 155//155 157//157 399//399
f 147//147 400//400 399//399 151//151
f 139//139 155//155 400//400 141//141
f 141//141 400//400 147//147 143//143
f 401//401 175//175 174//174 337//337
f 333//333 401//401 337//337 334//334
f 176//176 175//175 401//401 402//402
f 402//402 401//401 333//333 331//331
f 329//329 330//330 328//328
f 174//174 172//172 184//184 317//317
f 337//337 174//174 317//317 319//319
f 334//334 321//321 323//323
f 402//402 331//331 332//332 336//336
f 403//403 402//402 336//336
f 403//403 179//179 176//176 402//402
f 335//335 332//332 324//324
f 318//318 179//179 403//403 320//320
f 322//322 320//320 403//403 336//336
f 325//325 322//322 336//336
f 264//264 201//201 113//113 202//202
f 199//199 200//200 201//201 264//264 210//210 208//208 205//205 204//204 203//203 198//198
